ISO-10303-21;
HEADER;
FILE_DESCRIPTION (( 'STEP AP214' ),
    '1' );
FILE_NAME ('30.15 41 6.5(¿ªÔ´)A.STEP',
    '2026-08-16T17:26:53',
    ( '' ),
    ( '' ),
    'SwSTEP 2.0',
    'SolidWorks 2025',
    '' );
FILE_SCHEMA (( 'AUTOMOTIVE_DESIGN' ));
ENDSEC;

DATA;
#1 = AXIS2_PLACEMENT_3D ( 'NONE', #210, #279, #97 ) ;
#2 = DIRECTION ( 'NONE',  ( 0.000000000000000000, 0.000000000000000000, 1.000000000000000000 ) ) ;
#3 = ORIENTED_EDGE ( 'NONE', *, *, #230, .T. ) ;
#4 = EDGE_CURVE ( 'NONE', #265, #15, #299, .T. ) ;
#5 = UNCERTAINTY_MEASURE_WITH_UNIT (LENGTH_MEASURE( 1.000000000000000082E-05 ), #54, 'distance_accuracy_value', 'NONE');
#6 = EDGE_CURVE ( 'NONE', #149, #286, #297, .T. ) ;
#7 = CARTESIAN_POINT ( 'NONE',  ( 1.500000000000009992, 0.000000000000000000, 0.000000000000000000 ) ) ;
#8 = EDGE_LOOP ( 'NONE', ( #232, #62, #154, #78 ) ) ;
#9 = DIRECTION ( 'NONE',  ( 1.000000000000000000, 0.000000000000000000, 0.000000000000000000 ) ) ;
#10 = ORIENTED_EDGE ( 'NONE', *, *, #249, .T. ) ;
#11 = ADVANCED_FACE ( 'NONE', ( #112 ), #161, .T. ) ;
#12 = CARTESIAN_POINT ( 'NONE',  ( 6.500000000000000000, 0.000000000000000000, 18.99999999999999645 ) ) ;
#13 = ORIENTED_EDGE ( 'NONE', *, *, #268, .T. ) ;
#14 = ORIENTED_EDGE ( 'NONE', *, *, #19, .T. ) ;
#15 = VERTEX_POINT ( 'NONE', #85 ) ;
#16 = CARTESIAN_POINT ( 'NONE',  ( 1.500000000000009992, 0.000000000000000000, 15.07499999999999929 ) ) ;
#17 = PRODUCT_DEFINITION_FORMATION_WITH_SPECIFIED_SOURCE ( 'å¯', '', #214, .NOT_KNOWN. ) ;
#18 = PLANE ( 'NONE',  #130 ) ;
#19 = EDGE_CURVE ( 'NONE', #253, #149, #176, .T. ) ;
#20 = DIRECTION ( 'NONE',  ( -1.000000000000000000, 0.000000000000000000, -0.000000000000000000 ) ) ;
#21 = EDGE_CURVE ( 'NONE', #100, #48, #267, .T. ) ;
#22 = DIRECTION ( 'NONE',  ( -1.000000000000000000, -0.000000000000000000, -0.000000000000000000 ) ) ;
#23 = DIRECTION ( 'NONE',  ( 0.000000000000000000, 0.000000000000000000, -1.000000000000000000 ) ) ;
#24 = AXIS2_PLACEMENT_3D ( 'NONE', #7, #264, #215 ) ;
#25 = CIRCLE ( 'NONE', #82, 20.50000000000000000 ) ;
#26 = CARTESIAN_POINT ( 'NONE',  ( 0.000000000000000000, 2.510525938252074481E-15, -20.50000000000000000 ) ) ;
#27 = VERTEX_POINT ( 'NONE', #87 ) ;
#28 = PRODUCT_RELATED_PRODUCT_CATEGORY ( 'part', '', ( #214 ) ) ;
#29 = CARTESIAN_POINT ( 'NONE',  ( 0.000000000000000000, 0.000000000000000000, 0.000000000000000000 ) ) ;
#30 = VECTOR ( 'NONE', #109, 1000.000000000000000 ) ;
#31 = CARTESIAN_POINT ( 'NONE',  ( 4.999999999999998224, 0.000000000000000000, 0.000000000000000000 ) ) ;
#32 = ORIENTED_EDGE ( 'NONE', *, *, #21, .F. ) ;
#33 = FACE_OUTER_BOUND ( 'NONE', #8, .T. ) ;
#34 = ORIENTED_EDGE ( 'NONE', *, *, #294, .T. ) ;
#35 = VECTOR ( 'NONE', #258, 1000.000000000000000 ) ;
#36 = CARTESIAN_POINT ( 'NONE',  ( 4.999999999999998224, 0.000000000000000000, 0.000000000000000000 ) ) ;
#37 = ORIENTED_EDGE ( 'NONE', *, *, #141, .F. ) ;
#38 = APPLICATION_PROTOCOL_DEFINITION ( 'draft international standard', 'automotive_design', 1998, #61 ) ;
#39 =( NAMED_UNIT ( * ) SI_UNIT ( $, .STERADIAN. ) SOLID_ANGLE_UNIT ( ) );
#40 = VERTEX_POINT ( 'NONE', #124 ) ;
#41 = DIRECTION ( 'NONE',  ( -1.000000000000000000, -0.000000000000000000, -0.000000000000000000 ) ) ;
#42 = DIRECTION ( 'NONE',  ( 0.000000000000000000, 0.000000000000000000, 1.000000000000000000 ) ) ;
#43 = CIRCLE ( 'NONE', #233, 15.07499999999999929 ) ;
#44 = EDGE_CURVE ( 'NONE', #100, #27, #73, .T. ) ;
#45 = CARTESIAN_POINT ( 'NONE',  ( 0.000000000000000000, 0.000000000000000000, 0.000000000000000000 ) ) ;
#46 = FACE_BOUND ( 'NONE', #262, .T. ) ;
#47 = CIRCLE ( 'NONE', #75, 16.57500000000001350 ) ;
#48 = VERTEX_POINT ( 'NONE', #89 ) ;
#49 = EDGE_CURVE ( 'NONE', #265, #100, #205, .T. ) ;
#50 = CARTESIAN_POINT ( 'NONE',  ( 0.000000000000000000, 15.07499999999999929, 0.000000000000000000 ) ) ;
#51 =( GEOMETRIC_REPRESENTATION_CONTEXT ( 3 ) GLOBAL_UNCERTAINTY_ASSIGNED_CONTEXT ( ( #222 ) ) GLOBAL_UNIT_ASSIGNED_CONTEXT ( ( #247, #269, #227 ) ) REPRESENTATION_CONTEXT ( 'NONE', 'WORKASPACE' ) );
#52 = DIRECTION ( 'NONE',  ( 0.000000000000000000, 0.000000000000000000, 1.000000000000000000 ) ) ;
#53 = DIRECTION ( 'NONE',  ( 0.000000000000000000, 0.000000000000000000, 1.000000000000000000 ) ) ;
#54 =( LENGTH_UNIT ( ) NAMED_UNIT ( * ) SI_UNIT ( .MILLI., .METRE. ) );
#55 = EDGE_LOOP ( 'NONE', ( #202, #201 ) ) ;
#56 = CARTESIAN_POINT ( 'NONE',  ( 4.999999999999998224, 2.510525938252074481E-15, -20.50000000000000000 ) ) ;
#57 = EDGE_CURVE ( 'NONE', #40, #286, #25, .T. ) ;
#58 = CARTESIAN_POINT ( 'NONE',  ( 6.500000000000000000, 0.000000000000000000, 0.000000000000000000 ) ) ;
#59 =( NAMED_UNIT ( * ) PLANE_ANGLE_UNIT ( ) SI_UNIT ( $, .RADIAN. ) );
#60 = ORIENTED_EDGE ( 'NONE', *, *, #49, .F. ) ;
#61 = APPLICATION_CONTEXT ( 'automotive_design' ) ;
#62 = ORIENTED_EDGE ( 'NONE', *, *, #4, .F. ) ;
#63 = ADVANCED_FACE ( 'NONE', ( #137 ), #138, .T. ) ;
#64 = VERTEX_POINT ( 'NONE', #207 ) ;
#65 = DIRECTION ( 'NONE',  ( 0.000000000000000000, 0.000000000000000000, 1.000000000000000000 ) ) ;
#66 = CIRCLE ( 'NONE', #281, 20.50000000000000000 ) ;
#67 = DIRECTION ( 'NONE',  ( 0.000000000000000000, 0.000000000000000000, -1.000000000000000000 ) ) ;
#68 = AXIS2_PLACEMENT_3D ( 'NONE', #182, #155, #295 ) ;
#69 = PRESENTATION_LAYER_ASSIGNMENT (  '', '', ( #131 ) ) ;
#70 = DIRECTION ( 'NONE',  ( -1.000000000000000000, 0.000000000000000000, 0.000000000000000000 ) ) ;
#71 = CARTESIAN_POINT ( 'NONE',  ( 6.500000000000000000, 0.000000000000000000, 0.000000000000000000 ) ) ;
#72 = FACE_OUTER_BOUND ( 'NONE', #216, .T. ) ;
#73 = CIRCLE ( 'NONE', #203, 15.07499999999999929 ) ;
#74 = ADVANCED_FACE ( 'NONE', ( #157 ), #162, .F. ) ;
#75 = AXIS2_PLACEMENT_3D ( 'NONE', #29, #259, #143 ) ;
#76 = LINE ( 'NONE', #165, #35 ) ;
#77 = CARTESIAN_POINT ( 'NONE',  ( 0.000000000000000000, 0.000000000000000000, 20.50000000000000000 ) ) ;
#78 = ORIENTED_EDGE ( 'NONE', *, *, #44, .T. ) ;
#79 = AXIS2_PLACEMENT_3D ( 'NONE', #145, #9, #53 ) ;
#80 = CYLINDRICAL_SURFACE ( 'NONE', #206, 15.07499999999999929 ) ;
#81 = ORIENTED_EDGE ( 'NONE', *, *, #230, .F. ) ;
#82 = AXIS2_PLACEMENT_3D ( 'NONE', #226, #115, #92 ) ;
#83 = DIRECTION ( 'NONE',  ( 1.000000000000000000, 0.000000000000000000, 0.000000000000000000 ) ) ;
#84 = ORIENTED_EDGE ( 'NONE', *, *, #169, .T. ) ;
#85 = CARTESIAN_POINT ( 'NONE',  ( 6.500000000000000000, 1.846155049714635198E-15, -15.07499999999999929 ) ) ;
#86 = ORIENTED_EDGE ( 'NONE', *, *, #96, .F. ) ;
#87 = CARTESIAN_POINT ( 'NONE',  ( 1.500000000000009992, 1.846155049714635198E-15, -15.07499999999999929 ) ) ;
#88 =( GEOMETRIC_REPRESENTATION_CONTEXT ( 3 ) GLOBAL_UNCERTAINTY_ASSIGNED_CONTEXT ( ( #5 ) ) GLOBAL_UNIT_ASSIGNED_CONTEXT ( ( #54, #59, #39 ) ) REPRESENTATION_CONTEXT ( 'NONE', 'WORKASPACE' ) );
#89 = CARTESIAN_POINT ( 'NONE',  ( 0.000000000000000000, 0.000000000000000000, 16.57500000000001350 ) ) ;
#90 = AXIS2_PLACEMENT_3D ( 'NONE', #148, #170, #195 ) ;
#91 = EDGE_CURVE ( 'NONE', #64, #253, #272, .T. ) ;
#92 = DIRECTION ( 'NONE',  ( 0.000000000000000000, 0.000000000000000000, 1.000000000000000000 ) ) ;
#93 = AXIS2_PLACEMENT_3D ( 'NONE', #185, #251, #42 ) ;
#94 = CARTESIAN_POINT ( 'NONE',  ( 4.999999999999998224, 2.510525938252074481E-15, -20.50000000000000000 ) ) ;
#95 = CARTESIAN_POINT ( 'NONE',  ( 0.000000000000000000, 0.000000000000000000, 15.07499999999999929 ) ) ;
#96 = EDGE_CURVE ( 'NONE', #15, #265, #186, .T. ) ;
#97 = DIRECTION ( 'NONE',  ( 0.000000000000000000, 0.000000000000000000, 1.000000000000000000 ) ) ;
#98 = PLANE ( 'NONE',  #254 ) ;
#99 = ORIENTED_EDGE ( 'NONE', *, *, #141, .T. ) ;
#100 = VERTEX_POINT ( 'NONE', #292 ) ;
#101 = AXIS2_PLACEMENT_3D ( 'NONE', #118, #239, #2 ) ;
#102 = FACE_OUTER_BOUND ( 'NONE', #120, .T. ) ;
#103 = ORIENTED_EDGE ( 'NONE', *, *, #177, .F. ) ;
#104 = AXIS2_PLACEMENT_3D ( 'NONE', #275, #160, #65 ) ;
#105 = MECHANICAL_DESIGN_GEOMETRIC_PRESENTATION_REPRESENTATION (  '', ( #131 ), #51 ) ;
#106 = DIRECTION ( 'NONE',  ( 1.000000000000000000, 0.000000000000000000, 0.000000000000000000 ) ) ;
#107 = EDGE_LOOP ( 'NONE', ( #84, #175 ) ) ;
#108 = ORIENTED_EDGE ( 'NONE', *, *, #235, .F. ) ;
#109 = DIRECTION ( 'NONE',  ( -0.7071067811865467956, 0.000000000000000000, 0.7071067811865483499 ) ) ;
#110 = AXIS2_PLACEMENT_3D ( 'NONE', #128, #41, #200 ) ;
#111 = CARTESIAN_POINT ( 'NONE',  ( 4.999999999999998224, 0.000000000000000000, 20.50000000000000000 ) ) ;
#112 = FACE_OUTER_BOUND ( 'NONE', #126, .T. ) ;
#113 = DIRECTION ( 'NONE',  ( -0.000000000000000000, 0.000000000000000000, 1.000000000000000000 ) ) ;
#114 = CARTESIAN_POINT ( 'NONE',  ( 0.000000000000000000, 1.846155049714635198E-15, -15.07499999999999929 ) ) ;
#115 = DIRECTION ( 'NONE',  ( -1.000000000000000000, -0.000000000000000000, -0.000000000000000000 ) ) ;
#116 = AXIS2_PLACEMENT_3D ( 'NONE', #31, #220, #217 ) ;
#117 = FACE_OUTER_BOUND ( 'NONE', #134, .T. ) ;
#118 = CARTESIAN_POINT ( 'NONE',  ( 1.500000000000009992, 0.000000000000000000, 0.000000000000000000 ) ) ;
#119 = LINE ( 'NONE', #56, #270 ) ;
#120 = EDGE_LOOP ( 'NONE', ( #209, #151, #224, #283 ) ) ;
#121 = ADVANCED_FACE ( 'NONE', ( #72, #46 ), #18, .F. ) ;
#122 = FACE_OUTER_BOUND ( 'NONE', #278, .T. ) ;
#123 = ORIENTED_EDGE ( 'NONE', *, *, #6, .T. ) ;
#124 = CARTESIAN_POINT ( 'NONE',  ( 0.000000000000000000, 2.510525938252074481E-15, -20.50000000000000000 ) ) ;
#125 = CARTESIAN_POINT ( 'NONE',  ( 0.000000000000000000, 0.000000000000000000, 0.000000000000000000 ) ) ;
#126 = EDGE_LOOP ( 'NONE', ( #266, #81, #14, #108 ) ) ;
#127 = VECTOR ( 'NONE', #193, 1000.000000000000000 ) ;
#128 = CARTESIAN_POINT ( 'NONE',  ( 4.999999999999998224, 0.000000000000000000, 0.000000000000000000 ) ) ;
#129 = ORIENTED_EDGE ( 'NONE', *, *, #235, .T. ) ;
#130 = AXIS2_PLACEMENT_3D ( 'NONE', #271, #20, #113 ) ;
#131 = STYLED_ITEM ( 'NONE', ( #225 ), #158 ) ;
#132 = SHAPE_DEFINITION_REPRESENTATION ( #164, #174 ) ;
#133 = EDGE_CURVE ( 'NONE', #15, #27, #140, .T. ) ;
#134 = EDGE_LOOP ( 'NONE', ( #242, #129, #123, #280 ) ) ;
#135 = CLOSED_SHELL ( 'NONE', ( #213, #179, #74, #63, #261, #274, #121, #198, #184, #11 ) ) ;
#136 = SURFACE_STYLE_USAGE ( .BOTH. , #139 ) ;
#137 = FACE_OUTER_BOUND ( 'NONE', #199, .T. ) ;
#138 = CYLINDRICAL_SURFACE ( 'NONE', #68, 20.50000000000000000 ) ;
#139 = SURFACE_SIDE_STYLE ('',( #296 ) ) ;
#140 = LINE ( 'NONE', #114, #263 ) ;
#141 = EDGE_CURVE ( 'NONE', #27, #100, #43, .T. ) ;
#142 = APPLICATION_CONTEXT ( 'automotive_design' ) ;
#143 = DIRECTION ( 'NONE',  ( 0.000000000000000000, 0.000000000000000000, -1.000000000000000000 ) ) ;
#144 = ORIENTED_EDGE ( 'NONE', *, *, #91, .F. ) ;
#145 = CARTESIAN_POINT ( 'NONE',  ( 6.500000000000000000, 0.000000000000000000, 0.000000000000000000 ) ) ;
#146 = CYLINDRICAL_SURFACE ( 'NONE', #1, 20.50000000000000000 ) ;
#147 = DIRECTION ( 'NONE',  ( 0.000000000000000000, 0.000000000000000000, -1.000000000000000000 ) ) ;
#148 = CARTESIAN_POINT ( 'NONE',  ( 4.999999999999998224, 0.000000000000000000, 0.000000000000000000 ) ) ;
#149 = VERTEX_POINT ( 'NONE', #159 ) ;
#150 = PRODUCT_CONTEXT ( 'NONE', #61, 'mechanical' ) ;
#151 = ORIENTED_EDGE ( 'NONE', *, *, #44, .F. ) ;
#152 = APPLICATION_PROTOCOL_DEFINITION ( 'draft international standard', 'automotive_design', 1998, #142 ) ;
#153 = ORIENTED_EDGE ( 'NONE', *, *, #169, .F. ) ;
#154 = ORIENTED_EDGE ( 'NONE', *, *, #49, .T. ) ;
#155 = DIRECTION ( 'NONE',  ( -1.000000000000000000, -0.000000000000000000, -0.000000000000000000 ) ) ;
#156 = CONICAL_SURFACE ( 'NONE', #101, 15.07499999999999929, 0.7853981633974492782 ) ;
#157 = FACE_OUTER_BOUND ( 'NONE', #218, .T. ) ;
#158 = MANIFOLD_SOLID_BREP ( '\X2\501289d2\X0\1', #135 ) ;
#159 = CARTESIAN_POINT ( 'NONE',  ( 4.999999999999998224, 0.000000000000000000, 20.50000000000000000 ) ) ;
#160 = DIRECTION ( 'NONE',  ( -1.000000000000000000, -0.000000000000000000, -0.000000000000000000 ) ) ;
#161 = CONICAL_SURFACE ( 'NONE', #110, 20.50000000000000000, 0.7853981633974492782 ) ;
#162 = CYLINDRICAL_SURFACE ( 'NONE', #104, 15.07499999999999929 ) ;
#163 = AXIS2_PLACEMENT_3D ( 'NONE', #45, #83, #147 ) ;
#164 = PRODUCT_DEFINITION_SHAPE ( 'NONE', 'NONE',  #252 ) ;
#165 = CARTESIAN_POINT ( 'NONE',  ( 1.500000000000009992, 1.846155049714635198E-15, -15.07499999999999929 ) ) ;
#166 = DIRECTION ( 'NONE',  ( -1.000000000000000000, -0.000000000000000000, -0.000000000000000000 ) ) ;
#167 = VERTEX_POINT ( 'NONE', #94 ) ;
#168 = PRODUCT_DEFINITION_CONTEXT ( 'detailed design', #142, 'design' ) ;
#169 = EDGE_CURVE ( 'NONE', #286, #40, #223, .T. ) ;
#170 = DIRECTION ( 'NONE',  ( -1.000000000000000000, -0.000000000000000000, -0.000000000000000000 ) ) ;
#171 = ORIENTED_EDGE ( 'NONE', *, *, #19, .F. ) ;
#172 = VECTOR ( 'NONE', #22, 1000.000000000000000 ) ;
#173 = FACE_OUTER_BOUND ( 'NONE', #107, .T. ) ;
#174 = ADVANCED_BREP_SHAPE_REPRESENTATION ( '30.15 41 6.5(\X2\5f006e90\X0\)A', ( #158, #181 ), #88 ) ;
#175 = ORIENTED_EDGE ( 'NONE', *, *, #57, .T. ) ;
#176 = LINE ( 'NONE', #111, #30 ) ;
#177 = EDGE_CURVE ( 'NONE', #48, #287, #183, .T. ) ;
#178 = VECTOR ( 'NONE', #285, 1000.000000000000000 ) ;
#179 = ADVANCED_FACE ( 'NONE', ( #238 ), #245, .F. ) ;
#180 = DIRECTION ( 'NONE',  ( 0.000000000000000000, 0.000000000000000000, 1.000000000000000000 ) ) ;
#181 = AXIS2_PLACEMENT_3D ( 'NONE', #191, #291, #106 ) ;
#182 = CARTESIAN_POINT ( 'NONE',  ( 0.000000000000000000, 0.000000000000000000, 0.000000000000000000 ) ) ;
#183 = CIRCLE ( 'NONE', #163, 16.57500000000001350 ) ;
#184 = ADVANCED_FACE ( 'NONE', ( #102 ), #156, .F. ) ;
#185 = CARTESIAN_POINT ( 'NONE',  ( 6.500000000000000000, 0.000000000000000000, 0.000000000000000000 ) ) ;
#186 = CIRCLE ( 'NONE', #256, 15.07499999999999929 ) ;
#187 = CARTESIAN_POINT ( 'NONE',  ( 0.000000000000000000, 0.000000000000000000, 0.000000000000000000 ) ) ;
#188 = DIRECTION ( 'NONE',  ( -1.000000000000000000, 0.000000000000000000, 0.000000000000000000 ) ) ;
#189 = EDGE_CURVE ( 'NONE', #287, #48, #47, .T. ) ;
#190 = DIRECTION ( 'NONE',  ( 0.000000000000000000, 0.000000000000000000, 1.000000000000000000 ) ) ;
#191 = CARTESIAN_POINT ( 'NONE',  ( 0.000000000000000000, 0.000000000000000000, 0.000000000000000000 ) ) ;
#192 = ORIENTED_EDGE ( 'NONE', *, *, #6, .F. ) ;
#193 = DIRECTION ( 'NONE',  ( -1.000000000000000000, -0.000000000000000000, -0.000000000000000000 ) ) ;
#194 = ORIENTED_EDGE ( 'NONE', *, *, #243, .T. ) ;
#195 = DIRECTION ( 'NONE',  ( 0.000000000000000000, 0.000000000000000000, 1.000000000000000000 ) ) ;
#196 = EDGE_LOOP ( 'NONE', ( #37, #34, #103, #32 ) ) ;
#197 = FACE_BOUND ( 'NONE', #55, .T. ) ;
#198 = ADVANCED_FACE ( 'NONE', ( #33 ), #80, .F. ) ;
#199 = EDGE_LOOP ( 'NONE', ( #194, #13, #153, #192 ) ) ;
#200 = DIRECTION ( 'NONE',  ( 0.000000000000000000, 0.000000000000000000, 1.000000000000000000 ) ) ;
#201 = ORIENTED_EDGE ( 'NONE', *, *, #189, .T. ) ;
#202 = ORIENTED_EDGE ( 'NONE', *, *, #177, .T. ) ;
#203 = AXIS2_PLACEMENT_3D ( 'NONE', #228, #188, #23 ) ;
#204 = FILL_AREA_STYLE_COLOUR ( '', #257 ) ;
#205 = LINE ( 'NONE', #95, #172 ) ;
#206 = AXIS2_PLACEMENT_3D ( 'NONE', #125, #166, #52 ) ;
#207 = CARTESIAN_POINT ( 'NONE',  ( 6.500000000000000000, 2.418677428316022726E-15, -18.99999999999999645 ) ) ;
#208 = AXIS2_PLACEMENT_3D ( 'NONE', #187, #273, #248 ) ;
#209 = ORIENTED_EDGE ( 'NONE', *, *, #294, .F. ) ;
#210 = CARTESIAN_POINT ( 'NONE',  ( 0.000000000000000000, 0.000000000000000000, 0.000000000000000000 ) ) ;
#211 = LINE ( 'NONE', #26, #127 ) ;
#212 = AXIS2_PLACEMENT_3D ( 'NONE', #58, #241, #284 ) ;
#213 = ADVANCED_FACE ( 'NONE', ( #122 ), #293, .T. ) ;
#214 = PRODUCT ( '30.15 41 6.5(\X2\5f006e90\X0\)A', '30.15 41 6.5(\X2\5f006e90\X0\)A', '', ( #150 ) ) ;
#215 = DIRECTION ( 'NONE',  ( 0.000000000000000000, 0.000000000000000000, 1.000000000000000000 ) ) ;
#216 = EDGE_LOOP ( 'NONE', ( #3, #221 ) ) ;
#217 = DIRECTION ( 'NONE',  ( 0.000000000000000000, 0.000000000000000000, 1.000000000000000000 ) ) ;
#218 = EDGE_LOOP ( 'NONE', ( #86, #255, #99, #60 ) ) ;
#219 = CIRCLE ( 'NONE', #79, 18.99999999999999645 ) ;
#220 = DIRECTION ( 'NONE',  ( -1.000000000000000000, -0.000000000000000000, -0.000000000000000000 ) ) ;
#221 = ORIENTED_EDGE ( 'NONE', *, *, #91, .T. ) ;
#222 = UNCERTAINTY_MEASURE_WITH_UNIT (LENGTH_MEASURE( 1.000000000000000082E-05 ), #247, 'distance_accuracy_value', 'NONE');
#223 = CIRCLE ( 'NONE', #208, 20.50000000000000000 ) ;
#224 = ORIENTED_EDGE ( 'NONE', *, *, #21, .T. ) ;
#225 = PRESENTATION_STYLE_ASSIGNMENT (( #136 ) ) ;
#226 = CARTESIAN_POINT ( 'NONE',  ( 0.000000000000000000, 0.000000000000000000, 0.000000000000000000 ) ) ;
#227 =( NAMED_UNIT ( * ) SI_UNIT ( $, .STERADIAN. ) SOLID_ANGLE_UNIT ( ) );
#228 = CARTESIAN_POINT ( 'NONE',  ( 1.500000000000009992, 0.000000000000000000, 0.000000000000000000 ) ) ;
#229 = DIRECTION ( 'NONE',  ( -1.000000000000000000, -0.000000000000000000, -0.000000000000000000 ) ) ;
#230 = EDGE_CURVE ( 'NONE', #253, #64, #219, .T. ) ;
#231 = CIRCLE ( 'NONE', #90, 20.50000000000000000 ) ;
#232 = ORIENTED_EDGE ( 'NONE', *, *, #133, .F. ) ;
#233 = AXIS2_PLACEMENT_3D ( 'NONE', #246, #70, #67 ) ;
#234 = DIRECTION ( 'NONE',  ( 1.000000000000000000, 0.000000000000000000, 0.000000000000000000 ) ) ;
#235 = EDGE_CURVE ( 'NONE', #167, #149, #66, .T. ) ;
#236 = DIRECTION ( 'NONE',  ( 0.000000000000000000, 0.000000000000000000, -1.000000000000000000 ) ) ;
#237 = ORIENTED_EDGE ( 'NONE', *, *, #243, .F. ) ;
#238 = FACE_OUTER_BOUND ( 'NONE', #196, .T. ) ;
#239 = DIRECTION ( 'NONE',  ( -1.000000000000000000, 0.000000000000000000, 0.000000000000000000 ) ) ;
#240 = DIRECTION ( 'NONE',  ( -0.7071067811865467956, 8.659560562354942719E-17, -0.7071067811865483499 ) ) ;
#241 = DIRECTION ( 'NONE',  ( -1.000000000000000000, -0.000000000000000000, -0.000000000000000000 ) ) ;
#242 = ORIENTED_EDGE ( 'NONE', *, *, #268, .F. ) ;
#243 = EDGE_CURVE ( 'NONE', #149, #167, #231, .T. ) ;
#244 = ORIENTED_EDGE ( 'NONE', *, *, #4, .T. ) ;
#245 = CONICAL_SURFACE ( 'NONE', #24, 15.07499999999999929, 0.7853981633974492782 ) ;
#246 = CARTESIAN_POINT ( 'NONE',  ( 1.500000000000009992, 0.000000000000000000, 0.000000000000000000 ) ) ;
#247 =( LENGTH_UNIT ( ) NAMED_UNIT ( * ) SI_UNIT ( .MILLI., .METRE. ) );
#248 = DIRECTION ( 'NONE',  ( 0.000000000000000000, 0.000000000000000000, 1.000000000000000000 ) ) ;
#249 = EDGE_CURVE ( 'NONE', #64, #167, #119, .T. ) ;
#250 = CARTESIAN_POINT ( 'NONE',  ( 0.000000000000000000, 0.000000000000000000, 20.50000000000000000 ) ) ;
#251 = DIRECTION ( 'NONE',  ( 1.000000000000000000, 0.000000000000000000, 0.000000000000000000 ) ) ;
#252 = PRODUCT_DEFINITION ( 'æ™', '', #17, #168 ) ;
#253 = VERTEX_POINT ( 'NONE', #12 ) ;
#254 = AXIS2_PLACEMENT_3D ( 'NONE', #50, #234, #236 ) ;
#255 = ORIENTED_EDGE ( 'NONE', *, *, #133, .T. ) ;
#256 = AXIS2_PLACEMENT_3D ( 'NONE', #71, #298, #180 ) ;
#257 = COLOUR_RGB ( '',0.7921568627450980005, 0.8196078431372548767, 0.9333333333333333481 ) ;
#258 = DIRECTION ( 'NONE',  ( -0.7071067811865467956, 8.659560562354943952E-17, -0.7071067811865483499 ) ) ;
#259 = DIRECTION ( 'NONE',  ( 1.000000000000000000, 0.000000000000000000, 0.000000000000000000 ) ) ;
#260 = CARTESIAN_POINT ( 'NONE',  ( 0.000000000000000000, 2.029852069586739498E-15, -16.57500000000001350 ) ) ;
#261 = ADVANCED_FACE ( 'NONE', ( #197, #173 ), #98, .F. ) ;
#262 = EDGE_LOOP ( 'NONE', ( #244, #277 ) ) ;
#263 = VECTOR ( 'NONE', #229, 1000.000000000000000 ) ;
#264 = DIRECTION ( 'NONE',  ( -1.000000000000000000, 0.000000000000000000, 0.000000000000000000 ) ) ;
#265 = VERTEX_POINT ( 'NONE', #276 ) ;
#266 = ORIENTED_EDGE ( 'NONE', *, *, #249, .F. ) ;
#267 = LINE ( 'NONE', #16, #288 ) ;
#268 = EDGE_CURVE ( 'NONE', #167, #40, #211, .T. ) ;
#269 =( NAMED_UNIT ( * ) PLANE_ANGLE_UNIT ( ) SI_UNIT ( $, .RADIAN. ) );
#270 = VECTOR ( 'NONE', #240, 1000.000000000000000 ) ;
#271 = CARTESIAN_POINT ( 'NONE',  ( 6.500000000000000000, 15.07499999999999929, 0.000000000000000000 ) ) ;
#272 = CIRCLE ( 'NONE', #93, 18.99999999999999645 ) ;
#273 = DIRECTION ( 'NONE',  ( -1.000000000000000000, -0.000000000000000000, -0.000000000000000000 ) ) ;
#274 = ADVANCED_FACE ( 'NONE', ( #117 ), #146, .T. ) ;
#275 = CARTESIAN_POINT ( 'NONE',  ( 0.000000000000000000, 0.000000000000000000, 0.000000000000000000 ) ) ;
#276 = CARTESIAN_POINT ( 'NONE',  ( 6.500000000000000000, 0.000000000000000000, 15.07499999999999929 ) ) ;
#277 = ORIENTED_EDGE ( 'NONE', *, *, #96, .T. ) ;
#278 = EDGE_LOOP ( 'NONE', ( #144, #10, #237, #171 ) ) ;
#279 = DIRECTION ( 'NONE',  ( -1.000000000000000000, -0.000000000000000000, -0.000000000000000000 ) ) ;
#280 = ORIENTED_EDGE ( 'NONE', *, *, #57, .F. ) ;
#281 = AXIS2_PLACEMENT_3D ( 'NONE', #36, #282, #190 ) ;
#282 = DIRECTION ( 'NONE',  ( -1.000000000000000000, -0.000000000000000000, -0.000000000000000000 ) ) ;
#283 = ORIENTED_EDGE ( 'NONE', *, *, #189, .F. ) ;
#284 = DIRECTION ( 'NONE',  ( 0.000000000000000000, 0.000000000000000000, 1.000000000000000000 ) ) ;
#285 = DIRECTION ( 'NONE',  ( -1.000000000000000000, -0.000000000000000000, -0.000000000000000000 ) ) ;
#286 = VERTEX_POINT ( 'NONE', #77 ) ;
#287 = VERTEX_POINT ( 'NONE', #260 ) ;
#288 = VECTOR ( 'NONE', #289, 1000.000000000000000 ) ;
#289 = DIRECTION ( 'NONE',  ( -0.7071067811865467956, 0.000000000000000000, 0.7071067811865483499 ) ) ;
#290 = FILL_AREA_STYLE ('',( #204 ) ) ;
#291 = DIRECTION ( 'NONE',  ( 0.000000000000000000, 0.000000000000000000, 1.000000000000000000 ) ) ;
#292 = CARTESIAN_POINT ( 'NONE',  ( 1.500000000000009992, 0.000000000000000000, 15.07499999999999929 ) ) ;
#293 = CONICAL_SURFACE ( 'NONE', #116, 20.50000000000000000, 0.7853981633974492782 ) ;
#294 = EDGE_CURVE ( 'NONE', #27, #287, #76, .T. ) ;
#295 = DIRECTION ( 'NONE',  ( 0.000000000000000000, 0.000000000000000000, 1.000000000000000000 ) ) ;
#296 = SURFACE_STYLE_FILL_AREA ( #290 ) ;
#297 = LINE ( 'NONE', #250, #178 ) ;
#298 = DIRECTION ( 'NONE',  ( -1.000000000000000000, -0.000000000000000000, -0.000000000000000000 ) ) ;
#299 = CIRCLE ( 'NONE', #212, 15.07499999999999929 ) ;
ENDSEC;
END-ISO-10303-21;
