ISO-10303-21;
HEADER;
FILE_DESCRIPTION (( 'STEP AP214' ),
    '1' );
FILE_NAME ('71809acA.STEP',
    '2026-08-16T17:26:57',
    ( '' ),
    ( '' ),
    'SwSTEP 2.0',
    'SolidWorks 2025',
    '' );
FILE_SCHEMA (( 'AUTOMOTIVE_DESIGN' ));
ENDSEC;

DATA;
#1 = FACE_BOUND ( 'NONE', #179, .T. ) ;
#2 = CARTESIAN_POINT ( 'NONE',  ( 0.000000000000000000, 0.000000000000000000, 0.5000000000000000000 ) ) ;
#3 = ORIENTED_EDGE ( 'NONE', *, *, #34, .F. ) ;
#4 = PRODUCT_DEFINITION_CONTEXT ( 'detailed design', #360, 'design' ) ;
#5 = EDGE_CURVE ( 'NONE', #217, #445, #447, .T. ) ;
#6 = CARTESIAN_POINT ( 'NONE',  ( 29.00000000000000000, 3.551475717527324030E-15, 0.000000000000000000 ) ) ;
#7 = ORIENTED_EDGE ( 'NONE', *, *, #434, .F. ) ;
#8 = ADVANCED_FACE ( 'NONE', ( #471, #272 ), #220, .T. ) ;
#9 =( GEOMETRIC_REPRESENTATION_CONTEXT ( 3 ) GLOBAL_UNCERTAINTY_ASSIGNED_CONTEXT ( ( #238 ) ) GLOBAL_UNIT_ASSIGNED_CONTEXT ( ( #397, #519, #446 ) ) REPRESENTATION_CONTEXT ( 'NONE', 'WORKASPACE' ) );
#10 = AXIS2_PLACEMENT_3D ( 'NONE', #492, #48, #135 ) ;
#11 = CARTESIAN_POINT ( 'NONE',  ( 0.000000000000000000, 0.000000000000000000, 7.000000000000000000 ) ) ;
#12 = EDGE_CURVE ( 'NONE', #169, #450, #182, .T. ) ;
#13 = VERTEX_POINT ( 'NONE', #72 ) ;
#14 = EDGE_LOOP ( 'NONE', ( #417, #43 ) ) ;
#15 = ORIENTED_EDGE ( 'NONE', *, *, #107, .F. ) ;
#16 = DIRECTION ( 'NONE',  ( 0.000000000000000000, 0.000000000000000000, 1.000000000000000000 ) ) ;
#17 = CARTESIAN_POINT ( 'NONE',  ( -29.00000000000000000, 0.000000000000000000, 7.000000000000000000 ) ) ;
#18 = EDGE_LOOP ( 'NONE', ( #298, #79 ) ) ;
#19 = CARTESIAN_POINT ( 'NONE',  ( 0.000000000000000000, 0.000000000000000000, 7.000000000000000000 ) ) ;
#20 = ADVANCED_FACE ( 'NONE', ( #61 ), #348, .F. ) ;
#21 = FACE_OUTER_BOUND ( 'NONE', #493, .T. ) ;
#22 = EDGE_LOOP ( 'NONE', ( #333, #209, #486, #307 ) ) ;
#23 = DIRECTION ( 'NONE',  ( 0.000000000000000000, 0.000000000000000000, 1.000000000000000000 ) ) ;
#24 = EDGE_CURVE ( 'NONE', #13, #177, #427, .T. ) ;
#25 = ORIENTED_EDGE ( 'NONE', *, *, #24, .F. ) ;
#26 = DIRECTION ( 'NONE',  ( 0.000000000000000000, 0.000000000000000000, 1.000000000000000000 ) ) ;
#27 = AXIS2_PLACEMENT_3D ( 'NONE', #456, #385, #412 ) ;
#28 = CARTESIAN_POINT ( 'NONE',  ( -28.60000000000000142, 0.000000000000000000, 0.5000000000000000000 ) ) ;
#29 = DIRECTION ( 'NONE',  ( 1.000000000000000000, 0.000000000000000000, -0.000000000000000000 ) ) ;
#30 = DIRECTION ( 'NONE',  ( -0.000000000000000000, -0.000000000000000000, 1.000000000000000000 ) ) ;
#31 = CIRCLE ( 'NONE', #93, 23.50000000000000355 ) ;
#32 = LINE ( 'NONE', #466, #147 ) ;
#33 = FILL_AREA_STYLE ('',( #223 ) ) ;
#34 = EDGE_CURVE ( 'NONE', #405, #458, #304, .T. ) ;
#35 = ADVANCED_BREP_SHAPE_REPRESENTATION ( '71809acA', ( #513, #497 ), #9 ) ;
#36 = ORIENTED_EDGE ( 'NONE', *, *, #371, .T. ) ;
#37 = CARTESIAN_POINT ( 'NONE',  ( 0.000000000000000000, 0.000000000000000000, 6.500000000000000888 ) ) ;
#38 = EDGE_LOOP ( 'NONE', ( #479, #455, #122, #7 ) ) ;
#39 = EDGE_CURVE ( 'NONE', #458, #376, #32, .T. ) ;
#40 = AXIS2_PLACEMENT_3D ( 'NONE', #383, #142, #29 ) ;
#41 = CARTESIAN_POINT ( 'NONE',  ( 0.000000000000000000, 0.000000000000000000, 7.000000000000000000 ) ) ;
#42 = ADVANCED_FACE ( 'NONE', ( #460 ), #393, .F. ) ;
#43 = ORIENTED_EDGE ( 'NONE', *, *, #84, .F. ) ;
#44 = CIRCLE ( 'NONE', #336, 29.00000000000000000 ) ;
#45 = AXIS2_PLACEMENT_3D ( 'NONE', #137, #487, #296 ) ;
#46 = DIRECTION ( 'NONE',  ( -1.000000000000000000, 0.000000000000000000, 0.000000000000000000 ) ) ;
#47 = ORIENTED_EDGE ( 'NONE', *, *, #434, .T. ) ;
#48 = DIRECTION ( 'NONE',  ( -0.000000000000000000, -0.000000000000000000, -1.000000000000000000 ) ) ;
#49 = AXIS2_PLACEMENT_3D ( 'NONE', #131, #23, #252 ) ;
#50 = EDGE_LOOP ( 'NONE', ( #100, #391 ) ) ;
#51 = ORIENTED_EDGE ( 'NONE', *, *, #211, .T. ) ;
#52 = CARTESIAN_POINT ( 'NONE',  ( 28.60000000000000142, 3.502489845561430207E-15, 0.5000000000000000000 ) ) ;
#53 = ORIENTED_EDGE ( 'NONE', *, *, #34, .T. ) ;
#54 = LINE ( 'NONE', #104, #274 ) ;
#55 = CARTESIAN_POINT ( 'NONE',  ( 28.60000000000000142, 3.502489845561430207E-15, 0.000000000000000000 ) ) ;
#56 = ORIENTED_EDGE ( 'NONE', *, *, #193, .F. ) ;
#57 = FACE_BOUND ( 'NONE', #241, .T. ) ;
#58 = ORIENTED_EDGE ( 'NONE', *, *, #467, .T. ) ;
#59 = DIRECTION ( 'NONE',  ( -0.000000000000000000, -0.000000000000000000, 1.000000000000000000 ) ) ;
#60 = VECTOR ( 'NONE', #108, 1000.000000000000000 ) ;
#61 = FACE_OUTER_BOUND ( 'NONE', #250, .T. ) ;
#62 = DIRECTION ( 'NONE',  ( -1.000000000000000000, 0.000000000000000000, 0.000000000000000000 ) ) ;
#63 = DIRECTION ( 'NONE',  ( 0.000000000000000000, 0.000000000000000000, 1.000000000000000000 ) ) ;
#64 = DIRECTION ( 'NONE',  ( -0.000000000000000000, -0.000000000000000000, -1.000000000000000000 ) ) ;
#65 = DIRECTION ( 'NONE',  ( 0.000000000000000000, 0.000000000000000000, 1.000000000000000000 ) ) ;
#66 = AXIS2_PLACEMENT_3D ( 'NONE', #70, #266, #511 ) ;
#67 = VERTEX_POINT ( 'NONE', #186 ) ;
#68 = ADVANCED_FACE ( 'NONE', ( #148 ), #110, .T. ) ;
#69 = CARTESIAN_POINT ( 'NONE',  ( 23.50000000000000355, 2.877919977996280715E-15, 0.5000000000000000000 ) ) ;
#70 = CARTESIAN_POINT ( 'NONE',  ( 0.000000000000000000, 0.000000000000000000, 0.5000000000000000000 ) ) ;
#71 = CIRCLE ( 'NONE', #457, 29.00000000000000000 ) ;
#72 = CARTESIAN_POINT ( 'NONE',  ( 23.50000000000000355, 2.877919977996280715E-15, 0.5000000000000000000 ) ) ;
#73 = CARTESIAN_POINT ( 'NONE',  ( 0.000000000000000000, 0.000000000000000000, 0.000000000000000000 ) ) ;
#74 = CYLINDRICAL_SURFACE ( 'NONE', #361, 28.60000000000000142 ) ;
#75 = EDGE_CURVE ( 'NONE', #165, #67, #432, .T. ) ;
#76 = CARTESIAN_POINT ( 'NONE',  ( 0.000000000000000000, 0.000000000000000000, 6.500000000000000888 ) ) ;
#77 = VECTOR ( 'NONE', #173, 1000.000000000000000 ) ;
#78 = FACE_OUTER_BOUND ( 'NONE', #286, .T. ) ;
#79 = ORIENTED_EDGE ( 'NONE', *, *, #483, .F. ) ;
#80 = DIRECTION ( 'NONE',  ( 0.000000000000000000, 0.000000000000000000, 1.000000000000000000 ) ) ;
#81 = CARTESIAN_POINT ( 'NONE',  ( 0.000000000000000000, 0.000000000000000000, 7.000000000000000000 ) ) ;
#82 = ADVANCED_FACE ( 'NONE', ( #1, #78 ), #475, .T. ) ;
#83 = ORIENTED_EDGE ( 'NONE', *, *, #503, .T. ) ;
#84 = EDGE_CURVE ( 'NONE', #453, #165, #199, .T. ) ;
#85 = DIRECTION ( 'NONE',  ( 0.000000000000000000, 0.000000000000000000, 1.000000000000000000 ) ) ;
#86 = DIRECTION ( 'NONE',  ( 0.000000000000000000, 0.000000000000000000, 1.000000000000000000 ) ) ;
#87 = ORIENTED_EDGE ( 'NONE', *, *, #114, .F. ) ;
#88 = AXIS2_PLACEMENT_3D ( 'NONE', #37, #512, #368 ) ;
#89 = ADVANCED_FACE ( 'NONE', ( #126 ), #74, .F. ) ;
#90 = LINE ( 'NONE', #17, #77 ) ;
#91 = VERTEX_POINT ( 'NONE', #399 ) ;
#92 = CARTESIAN_POINT ( 'NONE',  ( 0.000000000000000000, 0.000000000000000000, 0.5000000000000000000 ) ) ;
#93 = AXIS2_PLACEMENT_3D ( 'NONE', #451, #16, #374 ) ;
#94 = VERTEX_POINT ( 'NONE', #6 ) ;
#95 = DIRECTION ( 'NONE',  ( 0.000000000000000000, 0.000000000000000000, 1.000000000000000000 ) ) ;
#96 = CARTESIAN_POINT ( 'NONE',  ( 0.000000000000000000, 0.000000000000000000, 7.000000000000000000 ) ) ;
#97 = COLOUR_RGB ( '',0.7921568627450980005, 0.8196078431372548767, 0.9333333333333333481 ) ;
#98 = VERTEX_POINT ( 'NONE', #198 ) ;
#99 = CARTESIAN_POINT ( 'NONE',  ( 22.50000000000000355, 2.755455298081545172E-15, 7.000000000000000000 ) ) ;
#100 = ORIENTED_EDGE ( 'NONE', *, *, #288, .F. ) ;
#101 = CARTESIAN_POINT ( 'NONE',  ( -28.60000000000000142, 0.000000000000000000, 0.5000000000000000000 ) ) ;
#102 = FACE_OUTER_BOUND ( 'NONE', #167, .T. ) ;
#103 = CARTESIAN_POINT ( 'NONE',  ( 0.000000000000000000, 0.000000000000000000, 6.500000000000000888 ) ) ;
#104 = CARTESIAN_POINT ( 'NONE',  ( -23.50000000000000355, 0.000000000000000000, 0.5000000000000000000 ) ) ;
#105 = AXIS2_PLACEMENT_3D ( 'NONE', #227, #63, #386 ) ;
#106 = AXIS2_PLACEMENT_3D ( 'NONE', #41, #358, #162 ) ;
#107 = EDGE_CURVE ( 'NONE', #345, #225, #516, .T. ) ;
#108 = DIRECTION ( 'NONE',  ( -0.000000000000000000, -0.000000000000000000, 1.000000000000000000 ) ) ;
#109 = CARTESIAN_POINT ( 'NONE',  ( -28.60000000000000142, 0.000000000000000000, 0.000000000000000000 ) ) ;
#110 = CYLINDRICAL_SURFACE ( 'NONE', #216, 23.50000000000000355 ) ;
#111 = SURFACE_STYLE_USAGE ( .BOTH. , #470 ) ;
#112 = VECTOR ( 'NONE', #480, 1000.000000000000000 ) ;
#113 = ORIENTED_EDGE ( 'NONE', *, *, #144, .T. ) ;
#114 = EDGE_CURVE ( 'NONE', #98, #408, #44, .T. ) ;
#115 = DIRECTION ( 'NONE',  ( -0.000000000000000000, -0.000000000000000000, -1.000000000000000000 ) ) ;
#116 = CARTESIAN_POINT ( 'NONE',  ( -23.50000000000000355, 2.877919977996280715E-15, 6.500000000000000888 ) ) ;
#117 = CIRCLE ( 'NONE', #158, 23.50000000000000355 ) ;
#118 = DIRECTION ( 'NONE',  ( 0.000000000000000000, 0.000000000000000000, 1.000000000000000000 ) ) ;
#119 = UNCERTAINTY_MEASURE_WITH_UNIT (LENGTH_MEASURE( 1.000000000000000082E-05 ), #226, 'distance_accuracy_value', 'NONE');
#120 = DIRECTION ( 'NONE',  ( 0.000000000000000000, 0.000000000000000000, 1.000000000000000000 ) ) ;
#121 = VECTOR ( 'NONE', #30, 1000.000000000000000 ) ;
#122 = ORIENTED_EDGE ( 'NONE', *, *, #314, .T. ) ;
#123 = SHAPE_DEFINITION_REPRESENTATION ( #465, #35 ) ;
#124 = DIRECTION ( 'NONE',  ( 0.000000000000000000, 0.000000000000000000, 1.000000000000000000 ) ) ;
#125 = AXIS2_PLACEMENT_3D ( 'NONE', #468, #436, #276 ) ;
#126 = FACE_OUTER_BOUND ( 'NONE', #401, .T. ) ;
#127 = EDGE_LOOP ( 'NONE', ( #463, #373 ) ) ;
#128 = ORIENTED_EDGE ( 'NONE', *, *, #290, .F. ) ;
#129 = DIRECTION ( 'NONE',  ( 1.000000000000000000, 0.000000000000000000, 0.000000000000000000 ) ) ;
#130 = ORIENTED_EDGE ( 'NONE', *, *, #326, .T. ) ;
#131 = CARTESIAN_POINT ( 'NONE',  ( 0.000000000000000000, 0.000000000000000000, 0.000000000000000000 ) ) ;
#132 = ORIENTED_EDGE ( 'NONE', *, *, #388, .T. ) ;
#133 = DIRECTION ( 'NONE',  ( 1.000000000000000000, 0.000000000000000000, -0.000000000000000000 ) ) ;
#134 = CIRCLE ( 'NONE', #425, 22.50000000000000355 ) ;
#135 = DIRECTION ( 'NONE',  ( -1.000000000000000000, 0.000000000000000000, 0.000000000000000000 ) ) ;
#136 = EDGE_LOOP ( 'NONE', ( #25, #359, #323, #495 ) ) ;
#137 = CARTESIAN_POINT ( 'NONE',  ( 0.000000000000000000, 0.000000000000000000, 6.500000000000000888 ) ) ;
#138 = PRODUCT_DEFINITION_FORMATION_WITH_SPECIFIED_SOURCE ( 'å¯', '', #205, .NOT_KNOWN. ) ;
#139 = ORIENTED_EDGE ( 'NONE', *, *, #233, .T. ) ;
#140 = FACE_BOUND ( 'NONE', #50, .T. ) ;
#141 = AXIS2_PLACEMENT_3D ( 'NONE', #490, #421, #133 ) ;
#142 = DIRECTION ( 'NONE',  ( 0.000000000000000000, 0.000000000000000000, 1.000000000000000000 ) ) ;
#143 = DIRECTION ( 'NONE',  ( 1.000000000000000000, 0.000000000000000000, 0.000000000000000000 ) ) ;
#144 = EDGE_CURVE ( 'NONE', #453, #441, #278, .T. ) ;
#145 = ORIENTED_EDGE ( 'NONE', *, *, #5, .T. ) ;
#146 = DIRECTION ( 'NONE',  ( 0.000000000000000000, 0.000000000000000000, -1.000000000000000000 ) ) ;
#147 = VECTOR ( 'NONE', #353, 1000.000000000000000 ) ;
#148 = FACE_OUTER_BOUND ( 'NONE', #136, .T. ) ;
#149 = CARTESIAN_POINT ( 'NONE',  ( -23.50000000000000355, 0.000000000000000000, 0.5000000000000000000 ) ) ;
#150 = CARTESIAN_POINT ( 'NONE',  ( 0.000000000000000000, 0.000000000000000000, 0.000000000000000000 ) ) ;
#151 = ADVANCED_FACE ( 'NONE', ( #440 ), #231, .F. ) ;
#152 = AXIS2_PLACEMENT_3D ( 'NONE', #275, #124, #482 ) ;
#153 = CARTESIAN_POINT ( 'NONE',  ( 0.000000000000000000, 0.000000000000000000, 0.5000000000000000000 ) ) ;
#154 = ADVANCED_FACE ( 'NONE', ( #478 ), #240, .T. ) ;
#155 =( NAMED_UNIT ( * ) SI_UNIT ( $, .STERADIAN. ) SOLID_ANGLE_UNIT ( ) );
#156 = ORIENTED_EDGE ( 'NONE', *, *, #233, .F. ) ;
#157 = CARTESIAN_POINT ( 'NONE',  ( 22.50000000000000355, 2.755455298081545172E-15, 0.000000000000000000 ) ) ;
#158 = AXIS2_PLACEMENT_3D ( 'NONE', #96, #86, #256 ) ;
#159 = ORIENTED_EDGE ( 'NONE', *, *, #467, .F. ) ;
#160 = CIRCLE ( 'NONE', #387, 23.50000000000000355 ) ;
#161 = ORIENTED_EDGE ( 'NONE', *, *, #410, .F. ) ;
#162 = DIRECTION ( 'NONE',  ( -1.000000000000000000, 0.000000000000000000, 0.000000000000000000 ) ) ;
#163 = ORIENTED_EDGE ( 'NONE', *, *, #290, .T. ) ;
#164 = CIRCLE ( 'NONE', #125, 29.00000000000000000 ) ;
#165 = VERTEX_POINT ( 'NONE', #202 ) ;
#166 = DIRECTION ( 'NONE',  ( -0.000000000000000000, -0.000000000000000000, -1.000000000000000000 ) ) ;
#167 = EDGE_LOOP ( 'NONE', ( #51, #36 ) ) ;
#168 = AXIS2_PLACEMENT_3D ( 'NONE', #301, #265, #422 ) ;
#169 = VERTEX_POINT ( 'NONE', #365 ) ;
#170 = CARTESIAN_POINT ( 'NONE',  ( 0.000000000000000000, 0.000000000000000000, 7.000000000000000000 ) ) ;
#171 = ORIENTED_EDGE ( 'NONE', *, *, #483, .T. ) ;
#172 = CARTESIAN_POINT ( 'NONE',  ( 0.000000000000000000, 0.000000000000000000, 0.000000000000000000 ) ) ;
#173 = DIRECTION ( 'NONE',  ( -0.000000000000000000, -0.000000000000000000, -1.000000000000000000 ) ) ;
#174 = ORIENTED_EDGE ( 'NONE', *, *, #189, .F. ) ;
#175 = CARTESIAN_POINT ( 'NONE',  ( -22.50000000000000355, 0.000000000000000000, 0.000000000000000000 ) ) ;
#176 = AXIS2_PLACEMENT_3D ( 'NONE', #103, #194, #515 ) ;
#177 = VERTEX_POINT ( 'NONE', #396 ) ;
#178 = DIRECTION ( 'NONE',  ( -0.000000000000000000, -0.000000000000000000, -1.000000000000000000 ) ) ;
#179 = EDGE_LOOP ( 'NONE', ( #159, #257 ) ) ;
#180 = LINE ( 'NONE', #101, #317 ) ;
#181 = VECTOR ( 'NONE', #392, 1000.000000000000000 ) ;
#182 = LINE ( 'NONE', #222, #60 ) ;
#183 = CARTESIAN_POINT ( 'NONE',  ( 28.00000000000000000, 0.000000000000000000, 6.500000000000000888 ) ) ;
#184 = CIRCLE ( 'NONE', #477, 29.00000000000000000 ) ;
#185 = PLANE ( 'NONE',  #230 ) ;
#186 = CARTESIAN_POINT ( 'NONE',  ( 23.50000000000000355, 0.000000000000000000, 7.000000000000000000 ) ) ;
#187 = CARTESIAN_POINT ( 'NONE',  ( -28.00000000000000000, 3.429011037612589276E-15, 7.000000000000000000 ) ) ;
#188 = FACE_OUTER_BOUND ( 'NONE', #38, .T. ) ;
#189 = EDGE_CURVE ( 'NONE', #295, #450, #208, .T. ) ;
#190 = ORIENTED_EDGE ( 'NONE', *, *, #443, .T. ) ;
#191 = PRESENTATION_LAYER_ASSIGNMENT (  '', '', ( #413 ) ) ;
#192 =( NAMED_UNIT ( * ) PLANE_ANGLE_UNIT ( ) SI_UNIT ( $, .RADIAN. ) );
#193 = EDGE_CURVE ( 'NONE', #225, #345, #236, .T. ) ;
#194 = DIRECTION ( 'NONE',  ( -0.000000000000000000, -0.000000000000000000, 1.000000000000000000 ) ) ;
#195 = CARTESIAN_POINT ( 'NONE',  ( 0.000000000000000000, 0.000000000000000000, 6.500000000000000888 ) ) ;
#196 = CARTESIAN_POINT ( 'NONE',  ( 0.000000000000000000, 0.000000000000000000, 7.000000000000000000 ) ) ;
#197 = DIRECTION ( 'NONE',  ( -1.000000000000000000, 0.000000000000000000, -0.000000000000000000 ) ) ;
#198 = CARTESIAN_POINT ( 'NONE',  ( -29.00000000000000000, 0.000000000000000000, 7.000000000000000000 ) ) ;
#199 = CIRCLE ( 'NONE', #152, 23.50000000000000355 ) ;
#200 = CIRCLE ( 'NONE', #271, 22.50000000000000355 ) ;
#201 = EDGE_CURVE ( 'NONE', #98, #91, #90, .T. ) ;
#202 = CARTESIAN_POINT ( 'NONE',  ( 23.50000000000000355, 0.000000000000000000, 6.500000000000000888 ) ) ;
#203 = ORIENTED_EDGE ( 'NONE', *, *, #297, .F. ) ;
#204 = ADVANCED_FACE ( 'NONE', ( #407 ), #335, .T. ) ;
#205 = PRODUCT ( '71809acA', '71809acA', '', ( #439 ) ) ;
#206 = CIRCLE ( 'NONE', #27, 22.50000000000000355 ) ;
#207 = ORIENTED_EDGE ( 'NONE', *, *, #201, .T. ) ;
#208 = CIRCLE ( 'NONE', #305, 28.00000000000000000 ) ;
#209 = ORIENTED_EDGE ( 'NONE', *, *, #500, .T. ) ;
#210 = DIRECTION ( 'NONE',  ( 1.000000000000000000, 0.000000000000000000, 0.000000000000000000 ) ) ;
#211 = EDGE_CURVE ( 'NONE', #67, #441, #117, .T. ) ;
#212 = EDGE_LOOP ( 'NONE', ( #484, #139, #171, #253 ) ) ;
#213 = DIRECTION ( 'NONE',  ( -0.000000000000000000, -0.000000000000000000, -1.000000000000000000 ) ) ;
#214 = ORIENTED_EDGE ( 'NONE', *, *, #288, .T. ) ;
#215 = FACE_BOUND ( 'NONE', #14, .T. ) ;
#216 = AXIS2_PLACEMENT_3D ( 'NONE', #153, #115, #273 ) ;
#217 = VERTEX_POINT ( 'NONE', #55 ) ;
#218 = DIRECTION ( 'NONE',  ( 1.000000000000000000, 0.000000000000000000, 0.000000000000000000 ) ) ;
#219 = ADVANCED_FACE ( 'NONE', ( #21 ), #370, .F. ) ;
#220 = PLANE ( 'NONE',  #40 ) ;
#221 = LINE ( 'NONE', #254, #384 ) ;
#222 = CARTESIAN_POINT ( 'NONE',  ( -28.00000000000000000, 3.429011037612589276E-15, 6.500000000000000888 ) ) ;
#223 = FILL_AREA_STYLE_COLOUR ( '', #97 ) ;
#224 = CIRCLE ( 'NONE', #346, 23.50000000000000355 ) ;
#225 = VERTEX_POINT ( 'NONE', #28 ) ;
#226 =( LENGTH_UNIT ( ) NAMED_UNIT ( * ) SI_UNIT ( .MILLI., .METRE. ) );
#227 = CARTESIAN_POINT ( 'NONE',  ( 0.000000000000000000, 0.000000000000000000, 7.000000000000000000 ) ) ;
#228 = MECHANICAL_DESIGN_GEOMETRIC_PRESENTATION_REPRESENTATION (  '', ( #413 ), #481 ) ;
#229 = LINE ( 'NONE', #313, #431 ) ;
#230 = AXIS2_PLACEMENT_3D ( 'NONE', #504, #65, #390 ) ;
#231 = CYLINDRICAL_SURFACE ( 'NONE', #106, 22.50000000000000355 ) ;
#232 = CARTESIAN_POINT ( 'NONE',  ( -23.50000000000000355, 2.877919977996280715E-15, 7.000000000000000000 ) ) ;
#233 = EDGE_CURVE ( 'NONE', #408, #94, #416, .T. ) ;
#234 = ADVANCED_FACE ( 'NONE', ( #499, #102 ), #185, .T. ) ;
#235 = DIRECTION ( 'NONE',  ( 0.000000000000000000, 0.000000000000000000, 1.000000000000000000 ) ) ;
#236 = CIRCLE ( 'NONE', #398, 28.60000000000000142 ) ;
#237 = ADVANCED_FACE ( 'NONE', ( #188 ), #509, .F. ) ;
#238 = UNCERTAINTY_MEASURE_WITH_UNIT (LENGTH_MEASURE( 1.000000000000000082E-05 ), #397, 'distance_accuracy_value', 'NONE');
#239 = DIRECTION ( 'NONE',  ( -0.000000000000000000, -0.000000000000000000, -1.000000000000000000 ) ) ;
#240 = CYLINDRICAL_SURFACE ( 'NONE', #438, 29.00000000000000000 ) ;
#241 = EDGE_LOOP ( 'NONE', ( #130, #190 ) ) ;
#242 = DIRECTION ( 'NONE',  ( 0.000000000000000000, 0.000000000000000000, -1.000000000000000000 ) ) ;
#243 = DIRECTION ( 'NONE',  ( -0.000000000000000000, -0.000000000000000000, -1.000000000000000000 ) ) ;
#244 = EDGE_LOOP ( 'NONE', ( #174, #268 ) ) ;
#245 = DIRECTION ( 'NONE',  ( -1.000000000000000000, 0.000000000000000000, 0.000000000000000000 ) ) ;
#246 = EDGE_LOOP ( 'NONE', ( #366, #489 ) ) ;
#247 = CIRCLE ( 'NONE', #299, 23.50000000000000355 ) ;
#248 = ORIENTED_EDGE ( 'NONE', *, *, #211, .F. ) ;
#249 = CARTESIAN_POINT ( 'NONE',  ( 0.000000000000000000, 0.000000000000000000, 0.000000000000000000 ) ) ;
#250 = EDGE_LOOP ( 'NONE', ( #128, #56, #448, #214 ) ) ;
#251 = AXIS2_PLACEMENT_3D ( 'NONE', #418, #59, #210 ) ;
#252 = DIRECTION ( 'NONE',  ( 1.000000000000000000, 0.000000000000000000, -0.000000000000000000 ) ) ;
#253 = ORIENTED_EDGE ( 'NONE', *, *, #201, .F. ) ;
#254 = CARTESIAN_POINT ( 'NONE',  ( 28.60000000000000142, 3.502489845561430207E-15, 0.5000000000000000000 ) ) ;
#255 = CIRCLE ( 'NONE', #367, 28.00000000000000000 ) ;
#256 = DIRECTION ( 'NONE',  ( 1.000000000000000000, 0.000000000000000000, 0.000000000000000000 ) ) ;
#257 = ORIENTED_EDGE ( 'NONE', *, *, #395, .F. ) ;
#258 = DIRECTION ( 'NONE',  ( 0.000000000000000000, 0.000000000000000000, -1.000000000000000000 ) ) ;
#259 = ORIENTED_EDGE ( 'NONE', *, *, #371, .F. ) ;
#260 = APPLICATION_CONTEXT ( 'automotive_design' ) ;
#261 = DIRECTION ( 'NONE',  ( -0.000000000000000000, -0.000000000000000000, -1.000000000000000000 ) ) ;
#262 = CARTESIAN_POINT ( 'NONE',  ( 23.50000000000000355, 0.000000000000000000, 6.500000000000000888 ) ) ;
#263 = DIRECTION ( 'NONE',  ( 1.000000000000000000, 0.000000000000000000, 0.000000000000000000 ) ) ;
#264 = CARTESIAN_POINT ( 'NONE',  ( 29.00000000000000000, 3.551475717527324030E-15, 7.000000000000000000 ) ) ;
#265 = DIRECTION ( 'NONE',  ( -0.000000000000000000, -0.000000000000000000, -1.000000000000000000 ) ) ;
#266 = DIRECTION ( 'NONE',  ( 0.000000000000000000, 0.000000000000000000, -1.000000000000000000 ) ) ;
#267 = EDGE_CURVE ( 'NONE', #177, #501, #247, .T. ) ;
#268 = ORIENTED_EDGE ( 'NONE', *, *, #314, .F. ) ;
#269 = CARTESIAN_POINT ( 'NONE',  ( -22.50000000000000355, 0.000000000000000000, 7.000000000000000000 ) ) ;
#270 = VECTOR ( 'NONE', #444, 1000.000000000000000 ) ;
#271 = AXIS2_PLACEMENT_3D ( 'NONE', #464, #118, #354 ) ;
#272 = FACE_OUTER_BOUND ( 'NONE', #127, .T. ) ;
#273 = DIRECTION ( 'NONE',  ( -1.000000000000000000, 0.000000000000000000, 0.000000000000000000 ) ) ;
#274 = VECTOR ( 'NONE', #213, 1000.000000000000000 ) ;
#275 = CARTESIAN_POINT ( 'NONE',  ( 0.000000000000000000, 0.000000000000000000, 6.500000000000000888 ) ) ;
#276 = DIRECTION ( 'NONE',  ( 1.000000000000000000, 0.000000000000000000, 0.000000000000000000 ) ) ;
#277 = AXIS2_PLACEMENT_3D ( 'NONE', #19, #178, #300 ) ;
#278 = LINE ( 'NONE', #437, #112 ) ;
#279 = EDGE_LOOP ( 'NONE', ( #424, #113, #248, #312 ) ) ;
#280 = ORIENTED_EDGE ( 'NONE', *, *, #12, .F. ) ;
#281 = CARTESIAN_POINT ( 'NONE',  ( 0.000000000000000000, 0.000000000000000000, 0.5000000000000000000 ) ) ;
#282 = ORIENTED_EDGE ( 'NONE', *, *, #400, .F. ) ;
#283 = EDGE_CURVE ( 'NONE', #408, #98, #71, .T. ) ;
#284 = VECTOR ( 'NONE', #507, 1000.000000000000000 ) ;
#285 = ORIENTED_EDGE ( 'NONE', *, *, #400, .T. ) ;
#286 = EDGE_LOOP ( 'NONE', ( #331, #322 ) ) ;
#287 = FACE_OUTER_BOUND ( 'NONE', #414, .T. ) ;
#288 = EDGE_CURVE ( 'NONE', #445, #217, #498, .T. ) ;
#289 = DIRECTION ( 'NONE',  ( -1.000000000000000000, 0.000000000000000000, 0.000000000000000000 ) ) ;
#290 = EDGE_CURVE ( 'NONE', #345, #217, #221, .T. ) ;
#291 = AXIS2_PLACEMENT_3D ( 'NONE', #2, #472, #518 ) ;
#292 = ORIENTED_EDGE ( 'NONE', *, *, #24, .T. ) ;
#293 = AXIS2_PLACEMENT_3D ( 'NONE', #195, #389, #423 ) ;
#294 = FACE_OUTER_BOUND ( 'NONE', #18, .T. ) ;
#295 = VERTEX_POINT ( 'NONE', #461 ) ;
#296 = DIRECTION ( 'NONE',  ( 1.000000000000000000, 0.000000000000000000, 0.000000000000000000 ) ) ;
#297 = EDGE_CURVE ( 'NONE', #225, #445, #180, .T. ) ;
#298 = ORIENTED_EDGE ( 'NONE', *, *, #388, .F. ) ;
#299 = AXIS2_PLACEMENT_3D ( 'NONE', #324, #242, #245 ) ;
#300 = DIRECTION ( 'NONE',  ( -1.000000000000000000, 0.000000000000000000, 0.000000000000000000 ) ) ;
#301 = CARTESIAN_POINT ( 'NONE',  ( 0.000000000000000000, 0.000000000000000000, 0.5000000000000000000 ) ) ;
#302 = DIRECTION ( 'NONE',  ( 0.000000000000000000, 0.000000000000000000, 1.000000000000000000 ) ) ;
#303 = ORIENTED_EDGE ( 'NONE', *, *, #443, .F. ) ;
#304 = CIRCLE ( 'NONE', #105, 22.50000000000000355 ) ;
#305 = AXIS2_PLACEMENT_3D ( 'NONE', #196, #330, #488 ) ;
#306 = DIRECTION ( 'NONE',  ( 0.000000000000000000, 0.000000000000000000, 1.000000000000000000 ) ) ;
#307 = ORIENTED_EDGE ( 'NONE', *, *, #39, .F. ) ;
#308 = SURFACE_STYLE_FILL_AREA ( #33 ) ;
#309 = DIRECTION ( 'NONE',  ( 0.000000000000000000, 0.000000000000000000, -1.000000000000000000 ) ) ;
#310 = CARTESIAN_POINT ( 'NONE',  ( 28.00000000000000000, 0.000000000000000000, 6.500000000000000888 ) ) ;
#311 = AXIS2_PLACEMENT_3D ( 'NONE', #442, #319, #197 ) ;
#312 = ORIENTED_EDGE ( 'NONE', *, *, #75, .F. ) ;
#313 = CARTESIAN_POINT ( 'NONE',  ( 22.50000000000000355, 2.755455298081545172E-15, 7.000000000000000000 ) ) ;
#314 = EDGE_CURVE ( 'NONE', #450, #295, #343, .T. ) ;
#315 = CARTESIAN_POINT ( 'NONE',  ( 0.000000000000000000, 0.000000000000000000, 7.000000000000000000 ) ) ;
#316 = ADVANCED_FACE ( 'NONE', ( #215, #341 ), #380, .T. ) ;
#317 = VECTOR ( 'NONE', #261, 1000.000000000000000 ) ;
#318 = ADVANCED_FACE ( 'NONE', ( #140, #294 ), #382, .F. ) ;
#319 = DIRECTION ( 'NONE',  ( 0.000000000000000000, 0.000000000000000000, -1.000000000000000000 ) ) ;
#320 = AXIS2_PLACEMENT_3D ( 'NONE', #170, #338, #143 ) ;
#321 = CARTESIAN_POINT ( 'NONE',  ( 0.000000000000000000, 0.000000000000000000, 7.000000000000000000 ) ) ;
#322 = ORIENTED_EDGE ( 'NONE', *, *, #107, .T. ) ;
#323 = ORIENTED_EDGE ( 'NONE', *, *, #329, .T. ) ;
#324 = CARTESIAN_POINT ( 'NONE',  ( 0.000000000000000000, 0.000000000000000000, 0.000000000000000000 ) ) ;
#325 = DIRECTION ( 'NONE',  ( -1.000000000000000000, 0.000000000000000000, 0.000000000000000000 ) ) ;
#326 = EDGE_CURVE ( 'NONE', #376, #435, #206, .T. ) ;
#327 = ORIENTED_EDGE ( 'NONE', *, *, #329, .F. ) ;
#328 = CARTESIAN_POINT ( 'NONE',  ( 0.000000000000000000, 0.000000000000000000, 7.000000000000000000 ) ) ;
#329 = EDGE_CURVE ( 'NONE', #411, #501, #54, .T. ) ;
#330 = DIRECTION ( 'NONE',  ( 0.000000000000000000, 0.000000000000000000, 1.000000000000000000 ) ) ;
#331 = ORIENTED_EDGE ( 'NONE', *, *, #193, .T. ) ;
#332 = CYLINDRICAL_SURFACE ( 'NONE', #251, 23.50000000000000355 ) ;
#333 = ORIENTED_EDGE ( 'NONE', *, *, #430, .T. ) ;
#334 = FACE_OUTER_BOUND ( 'NONE', #246, .T. ) ;
#335 = CYLINDRICAL_SURFACE ( 'NONE', #10, 23.50000000000000355 ) ;
#336 = AXIS2_PLACEMENT_3D ( 'NONE', #321, #120, #356 ) ;
#337 = EDGE_LOOP ( 'NONE', ( #58, #292, #161, #327 ) ) ;
#338 = DIRECTION ( 'NONE',  ( 0.000000000000000000, 0.000000000000000000, 1.000000000000000000 ) ) ;
#339 = ADVANCED_FACE ( 'NONE', ( #57, #334 ), #502, .F. ) ;
#340 = ORIENTED_EDGE ( 'NONE', *, *, #189, .T. ) ;
#341 = FACE_OUTER_BOUND ( 'NONE', #403, .T. ) ;
#342 = ORIENTED_EDGE ( 'NONE', *, *, #39, .T. ) ;
#343 = CIRCLE ( 'NONE', #369, 28.00000000000000000 ) ;
#344 = DIRECTION ( 'NONE',  ( 1.000000000000000000, 0.000000000000000000, -0.000000000000000000 ) ) ;
#345 = VERTEX_POINT ( 'NONE', #52 ) ;
#346 = AXIS2_PLACEMENT_3D ( 'NONE', #429, #146, #474 ) ;
#347 = DIRECTION ( 'NONE',  ( 1.000000000000000000, 0.000000000000000000, 0.000000000000000000 ) ) ;
#348 = CYLINDRICAL_SURFACE ( 'NONE', #168, 28.60000000000000142 ) ;
#349 = CYLINDRICAL_SURFACE ( 'NONE', #293, 23.50000000000000355 ) ;
#350 = ADVANCED_FACE ( 'NONE', ( #377 ), #459, .T. ) ;
#351 = ORIENTED_EDGE ( 'NONE', *, *, #84, .T. ) ;
#352 = DIRECTION ( 'NONE',  ( 1.000000000000000000, 0.000000000000000000, 0.000000000000000000 ) ) ;
#353 = DIRECTION ( 'NONE',  ( -0.000000000000000000, -0.000000000000000000, -1.000000000000000000 ) ) ;
#354 = DIRECTION ( 'NONE',  ( 1.000000000000000000, 0.000000000000000000, 0.000000000000000000 ) ) ;
#355 = DIRECTION ( 'NONE',  ( -1.000000000000000000, 0.000000000000000000, 0.000000000000000000 ) ) ;
#356 = DIRECTION ( 'NONE',  ( 1.000000000000000000, 0.000000000000000000, 0.000000000000000000 ) ) ;
#357 = EDGE_LOOP ( 'NONE', ( #280, #282, #47, #340 ) ) ;
#358 = DIRECTION ( 'NONE',  ( -0.000000000000000000, -0.000000000000000000, -1.000000000000000000 ) ) ;
#359 = ORIENTED_EDGE ( 'NONE', *, *, #395, .T. ) ;
#360 = APPLICATION_CONTEXT ( 'automotive_design' ) ;
#361 = AXIS2_PLACEMENT_3D ( 'NONE', #281, #239, #355 ) ;
#362 = CIRCLE ( 'NONE', #66, 23.50000000000000355 ) ;
#363 = ADVANCED_FACE ( 'NONE', ( #287 ), #332, .T. ) ;
#364 = ORIENTED_EDGE ( 'NONE', *, *, #430, .F. ) ;
#365 = CARTESIAN_POINT ( 'NONE',  ( -28.00000000000000000, 3.429011037612589276E-15, 6.500000000000000888 ) ) ;
#366 = ORIENTED_EDGE ( 'NONE', *, *, #410, .T. ) ;
#367 = AXIS2_PLACEMENT_3D ( 'NONE', #76, #235, #347 ) ;
#368 = DIRECTION ( 'NONE',  ( 1.000000000000000000, 0.000000000000000000, 0.000000000000000000 ) ) ;
#369 = AXIS2_PLACEMENT_3D ( 'NONE', #409, #26, #218 ) ;
#370 = CYLINDRICAL_SURFACE ( 'NONE', #473, 22.50000000000000355 ) ;
#371 = EDGE_CURVE ( 'NONE', #441, #67, #406, .T. ) ;
#372 = ORIENTED_EDGE ( 'NONE', *, *, #144, .F. ) ;
#373 = ORIENTED_EDGE ( 'NONE', *, *, #283, .T. ) ;
#374 = DIRECTION ( 'NONE',  ( 1.000000000000000000, 0.000000000000000000, 0.000000000000000000 ) ) ;
#375 = DIRECTION ( 'NONE',  ( 0.000000000000000000, 0.000000000000000000, -1.000000000000000000 ) ) ;
#376 = VERTEX_POINT ( 'NONE', #175 ) ;
#377 = FACE_OUTER_BOUND ( 'NONE', #212, .T. ) ;
#378 = EDGE_CURVE ( 'NONE', #165, #453, #31, .T. ) ;
#379 = EDGE_LOOP ( 'NONE', ( #364, #3 ) ) ;
#380 = PLANE ( 'NONE',  #141 ) ;
#381 = ORIENTED_EDGE ( 'NONE', *, *, #75, .T. ) ;
#382 = PLANE ( 'NONE',  #433 ) ;
#383 = CARTESIAN_POINT ( 'NONE',  ( 0.000000000000000000, 0.000000000000000000, 7.000000000000000000 ) ) ;
#384 = VECTOR ( 'NONE', #496, 1000.000000000000000 ) ;
#385 = DIRECTION ( 'NONE',  ( 0.000000000000000000, 0.000000000000000000, 1.000000000000000000 ) ) ;
#386 = DIRECTION ( 'NONE',  ( 1.000000000000000000, 0.000000000000000000, 0.000000000000000000 ) ) ;
#387 = AXIS2_PLACEMENT_3D ( 'NONE', #92, #494, #62 ) ;
#388 = EDGE_CURVE ( 'NONE', #91, #94, #184, .T. ) ;
#389 = DIRECTION ( 'NONE',  ( -0.000000000000000000, -0.000000000000000000, 1.000000000000000000 ) ) ;
#390 = DIRECTION ( 'NONE',  ( 1.000000000000000000, 0.000000000000000000, -0.000000000000000000 ) ) ;
#391 = ORIENTED_EDGE ( 'NONE', *, *, #5, .F. ) ;
#392 = DIRECTION ( 'NONE',  ( -0.000000000000000000, -0.000000000000000000, -1.000000000000000000 ) ) ;
#393 = CYLINDRICAL_SURFACE ( 'NONE', #176, 28.00000000000000000 ) ;
#394 = CARTESIAN_POINT ( 'NONE',  ( -23.50000000000000355, 0.000000000000000000, 0.000000000000000000 ) ) ;
#395 = EDGE_CURVE ( 'NONE', #13, #411, #160, .T. ) ;
#396 = CARTESIAN_POINT ( 'NONE',  ( 23.50000000000000355, 2.877919977996280715E-15, 0.000000000000000000 ) ) ;
#397 =( LENGTH_UNIT ( ) NAMED_UNIT ( * ) SI_UNIT ( .MILLI., .METRE. ) );
#398 = AXIS2_PLACEMENT_3D ( 'NONE', #485, #375, #289 ) ;
#399 = CARTESIAN_POINT ( 'NONE',  ( -29.00000000000000000, 0.000000000000000000, 0.000000000000000000 ) ) ;
#400 = EDGE_CURVE ( 'NONE', #469, #169, #452, .T. ) ;
#401 = EDGE_LOOP ( 'NONE', ( #15, #163, #145, #203 ) ) ;
#402 = APPLICATION_PROTOCOL_DEFINITION ( 'draft international standard', 'automotive_design', 1998, #360 ) ;
#403 = EDGE_LOOP ( 'NONE', ( #285, #83 ) ) ;
#404 = DIRECTION ( 'NONE',  ( 1.000000000000000000, 0.000000000000000000, 0.000000000000000000 ) ) ;
#405 = VERTEX_POINT ( 'NONE', #99 ) ;
#406 = CIRCLE ( 'NONE', #320, 23.50000000000000355 ) ;
#407 = FACE_OUTER_BOUND ( 'NONE', #337, .T. ) ;
#408 = VERTEX_POINT ( 'NONE', #517 ) ;
#409 = CARTESIAN_POINT ( 'NONE',  ( 0.000000000000000000, 0.000000000000000000, 7.000000000000000000 ) ) ;
#410 = EDGE_CURVE ( 'NONE', #501, #177, #224, .T. ) ;
#411 = VERTEX_POINT ( 'NONE', #149 ) ;
#412 = DIRECTION ( 'NONE',  ( 1.000000000000000000, 0.000000000000000000, 0.000000000000000000 ) ) ;
#413 = STYLED_ITEM ( 'NONE', ( #426 ), #513 ) ;
#414 = EDGE_LOOP ( 'NONE', ( #372, #351, #381, #259 ) ) ;
#415 = CARTESIAN_POINT ( 'NONE',  ( 0.000000000000000000, 0.000000000000000000, 0.000000000000000000 ) ) ;
#416 = LINE ( 'NONE', #264, #181 ) ;
#417 = ORIENTED_EDGE ( 'NONE', *, *, #378, .F. ) ;
#418 = CARTESIAN_POINT ( 'NONE',  ( 0.000000000000000000, 0.000000000000000000, 6.500000000000000888 ) ) ;
#419 = CLOSED_SHELL ( 'NONE', ( #204, #89, #428, #237, #151, #350, #339, #234, #8, #318, #154, #219, #42, #316, #363, #20, #82, #68 ) ) ;
#420 = DIRECTION ( 'NONE',  ( -1.000000000000000000, 0.000000000000000000, 0.000000000000000000 ) ) ;
#421 = DIRECTION ( 'NONE',  ( 0.000000000000000000, 0.000000000000000000, 1.000000000000000000 ) ) ;
#422 = DIRECTION ( 'NONE',  ( -1.000000000000000000, 0.000000000000000000, 0.000000000000000000 ) ) ;
#423 = DIRECTION ( 'NONE',  ( 1.000000000000000000, 0.000000000000000000, 0.000000000000000000 ) ) ;
#424 = ORIENTED_EDGE ( 'NONE', *, *, #378, .T. ) ;
#425 = AXIS2_PLACEMENT_3D ( 'NONE', #315, #306, #352 ) ;
#426 = PRESENTATION_STYLE_ASSIGNMENT (( #111 ) ) ;
#427 = LINE ( 'NONE', #69, #284 ) ;
#428 = ADVANCED_FACE ( 'NONE', ( #506 ), #349, .T. ) ;
#429 = CARTESIAN_POINT ( 'NONE',  ( 0.000000000000000000, 0.000000000000000000, 0.000000000000000000 ) ) ;
#430 = EDGE_CURVE ( 'NONE', #458, #405, #134, .T. ) ;
#431 = VECTOR ( 'NONE', #64, 1000.000000000000000 ) ;
#432 = LINE ( 'NONE', #262, #270 ) ;
#433 = AXIS2_PLACEMENT_3D ( 'NONE', #415, #95, #344 ) ;
#434 = EDGE_CURVE ( 'NONE', #469, #295, #508, .T. ) ;
#435 = VERTEX_POINT ( 'NONE', #157 ) ;
#436 = DIRECTION ( 'NONE',  ( 0.000000000000000000, 0.000000000000000000, 1.000000000000000000 ) ) ;
#437 = CARTESIAN_POINT ( 'NONE',  ( -23.50000000000000355, 2.877919977996280715E-15, 6.500000000000000888 ) ) ;
#438 = AXIS2_PLACEMENT_3D ( 'NONE', #81, #243, #46 ) ;
#439 = PRODUCT_CONTEXT ( 'NONE', #260, 'mechanical' ) ;
#440 = FACE_OUTER_BOUND ( 'NONE', #22, .T. ) ;
#441 = VERTEX_POINT ( 'NONE', #232 ) ;
#442 = CARTESIAN_POINT ( 'NONE',  ( 0.000000000000000000, 0.000000000000000000, 0.5000000000000000000 ) ) ;
#443 = EDGE_CURVE ( 'NONE', #435, #376, #200, .T. ) ;
#444 = DIRECTION ( 'NONE',  ( -0.000000000000000000, -0.000000000000000000, 1.000000000000000000 ) ) ;
#445 = VERTEX_POINT ( 'NONE', #109 ) ;
#446 =( NAMED_UNIT ( * ) SI_UNIT ( $, .STERADIAN. ) SOLID_ANGLE_UNIT ( ) );
#447 = CIRCLE ( 'NONE', #462, 28.60000000000000142 ) ;
#448 = ORIENTED_EDGE ( 'NONE', *, *, #297, .T. ) ;
#449 = AXIS2_PLACEMENT_3D ( 'NONE', #249, #258, #454 ) ;
#450 = VERTEX_POINT ( 'NONE', #187 ) ;
#451 = CARTESIAN_POINT ( 'NONE',  ( 0.000000000000000000, 0.000000000000000000, 6.500000000000000888 ) ) ;
#452 = CIRCLE ( 'NONE', #45, 28.00000000000000000 ) ;
#453 = VERTEX_POINT ( 'NONE', #116 ) ;
#454 = DIRECTION ( 'NONE',  ( -1.000000000000000000, 0.000000000000000000, 0.000000000000000000 ) ) ;
#455 = ORIENTED_EDGE ( 'NONE', *, *, #12, .T. ) ;
#456 = CARTESIAN_POINT ( 'NONE',  ( 0.000000000000000000, 0.000000000000000000, 0.000000000000000000 ) ) ;
#457 = AXIS2_PLACEMENT_3D ( 'NONE', #328, #85, #129 ) ;
#458 = VERTEX_POINT ( 'NONE', #269 ) ;
#459 = CYLINDRICAL_SURFACE ( 'NONE', #277, 29.00000000000000000 ) ;
#460 = FACE_OUTER_BOUND ( 'NONE', #357, .T. ) ;
#461 = CARTESIAN_POINT ( 'NONE',  ( 28.00000000000000000, 0.000000000000000000, 7.000000000000000000 ) ) ;
#462 = AXIS2_PLACEMENT_3D ( 'NONE', #150, #309, #420 ) ;
#463 = ORIENTED_EDGE ( 'NONE', *, *, #114, .T. ) ;
#464 = CARTESIAN_POINT ( 'NONE',  ( 0.000000000000000000, 0.000000000000000000, 0.000000000000000000 ) ) ;
#465 = PRODUCT_DEFINITION_SHAPE ( 'NONE', 'NONE',  #491 ) ;
#466 = CARTESIAN_POINT ( 'NONE',  ( -22.50000000000000355, 0.000000000000000000, 7.000000000000000000 ) ) ;
#467 = EDGE_CURVE ( 'NONE', #411, #13, #362, .T. ) ;
#468 = CARTESIAN_POINT ( 'NONE',  ( 0.000000000000000000, 0.000000000000000000, 0.000000000000000000 ) ) ;
#469 = VERTEX_POINT ( 'NONE', #183 ) ;
#470 = SURFACE_SIDE_STYLE ('',( #308 ) ) ;
#471 = FACE_BOUND ( 'NONE', #244, .T. ) ;
#472 = DIRECTION ( 'NONE',  ( 0.000000000000000000, 0.000000000000000000, -1.000000000000000000 ) ) ;
#473 = AXIS2_PLACEMENT_3D ( 'NONE', #11, #166, #325 ) ;
#474 = DIRECTION ( 'NONE',  ( -1.000000000000000000, 0.000000000000000000, 0.000000000000000000 ) ) ;
#475 = PLANE ( 'NONE',  #311 ) ;
#476 = APPLICATION_PROTOCOL_DEFINITION ( 'draft international standard', 'automotive_design', 1998, #260 ) ;
#477 = AXIS2_PLACEMENT_3D ( 'NONE', #172, #302, #263 ) ;
#478 = FACE_OUTER_BOUND ( 'NONE', #510, .T. ) ;
#479 = ORIENTED_EDGE ( 'NONE', *, *, #503, .F. ) ;
#480 = DIRECTION ( 'NONE',  ( -0.000000000000000000, -0.000000000000000000, 1.000000000000000000 ) ) ;
#481 =( GEOMETRIC_REPRESENTATION_CONTEXT ( 3 ) GLOBAL_UNCERTAINTY_ASSIGNED_CONTEXT ( ( #119 ) ) GLOBAL_UNIT_ASSIGNED_CONTEXT ( ( #226, #192, #155 ) ) REPRESENTATION_CONTEXT ( 'NONE', 'WORKASPACE' ) );
#482 = DIRECTION ( 'NONE',  ( 1.000000000000000000, 0.000000000000000000, 0.000000000000000000 ) ) ;
#483 = EDGE_CURVE ( 'NONE', #94, #91, #164, .T. ) ;
#484 = ORIENTED_EDGE ( 'NONE', *, *, #283, .F. ) ;
#485 = CARTESIAN_POINT ( 'NONE',  ( 0.000000000000000000, 0.000000000000000000, 0.5000000000000000000 ) ) ;
#486 = ORIENTED_EDGE ( 'NONE', *, *, #326, .F. ) ;
#487 = DIRECTION ( 'NONE',  ( 0.000000000000000000, 0.000000000000000000, 1.000000000000000000 ) ) ;
#488 = DIRECTION ( 'NONE',  ( 1.000000000000000000, 0.000000000000000000, 0.000000000000000000 ) ) ;
#489 = ORIENTED_EDGE ( 'NONE', *, *, #267, .T. ) ;
#490 = CARTESIAN_POINT ( 'NONE',  ( 0.000000000000000000, 0.000000000000000000, 6.500000000000000888 ) ) ;
#491 = PRODUCT_DEFINITION ( 'æ™', '', #138, #4 ) ;
#492 = CARTESIAN_POINT ( 'NONE',  ( 0.000000000000000000, 0.000000000000000000, 0.5000000000000000000 ) ) ;
#493 = EDGE_LOOP ( 'NONE', ( #505, #53, #342, #303 ) ) ;
#494 = DIRECTION ( 'NONE',  ( 0.000000000000000000, 0.000000000000000000, -1.000000000000000000 ) ) ;
#495 = ORIENTED_EDGE ( 'NONE', *, *, #267, .F. ) ;
#496 = DIRECTION ( 'NONE',  ( -0.000000000000000000, -0.000000000000000000, -1.000000000000000000 ) ) ;
#497 = AXIS2_PLACEMENT_3D ( 'NONE', #73, #80, #404 ) ;
#498 = CIRCLE ( 'NONE', #449, 28.60000000000000142 ) ;
#499 = FACE_BOUND ( 'NONE', #379, .T. ) ;
#500 = EDGE_CURVE ( 'NONE', #405, #435, #229, .T. ) ;
#501 = VERTEX_POINT ( 'NONE', #394 ) ;
#502 = PLANE ( 'NONE',  #49 ) ;
#503 = EDGE_CURVE ( 'NONE', #169, #469, #255, .T. ) ;
#504 = CARTESIAN_POINT ( 'NONE',  ( 0.000000000000000000, 0.000000000000000000, 7.000000000000000000 ) ) ;
#505 = ORIENTED_EDGE ( 'NONE', *, *, #500, .F. ) ;
#506 = FACE_OUTER_BOUND ( 'NONE', #279, .T. ) ;
#507 = DIRECTION ( 'NONE',  ( -0.000000000000000000, -0.000000000000000000, -1.000000000000000000 ) ) ;
#508 = LINE ( 'NONE', #310, #121 ) ;
#509 = CYLINDRICAL_SURFACE ( 'NONE', #88, 28.00000000000000000 ) ;
#510 = EDGE_LOOP ( 'NONE', ( #156, #87, #207, #132 ) ) ;
#511 = DIRECTION ( 'NONE',  ( -1.000000000000000000, 0.000000000000000000, 0.000000000000000000 ) ) ;
#512 = DIRECTION ( 'NONE',  ( -0.000000000000000000, -0.000000000000000000, 1.000000000000000000 ) ) ;
#513 = MANIFOLD_SOLID_BREP ( '\X2\52079664\X0\-\X2\62c94f38\X0\2', #419 ) ;
#514 = PRODUCT_RELATED_PRODUCT_CATEGORY ( 'part', '', ( #205 ) ) ;
#515 = DIRECTION ( 'NONE',  ( 1.000000000000000000, 0.000000000000000000, 0.000000000000000000 ) ) ;
#516 = CIRCLE ( 'NONE', #291, 28.60000000000000142 ) ;
#517 = CARTESIAN_POINT ( 'NONE',  ( 29.00000000000000000, 3.551475717527324030E-15, 7.000000000000000000 ) ) ;
#518 = DIRECTION ( 'NONE',  ( -1.000000000000000000, 0.000000000000000000, 0.000000000000000000 ) ) ;
#519 =( NAMED_UNIT ( * ) PLANE_ANGLE_UNIT ( ) SI_UNIT ( $, .RADIAN. ) );
ENDSEC;
END-ISO-10303-21;
