ISO-10303-21;
HEADER;
FILE_DESCRIPTION (( 'STEP AP214' ),
    '1' );
FILE_NAME ('71810A.STEP',
    '2026-08-16T17:26:58',
    ( '' ),
    ( '' ),
    'SwSTEP 2.0',
    'SolidWorks 2025',
    '' );
FILE_SCHEMA (( 'AUTOMOTIVE_DESIGN' ));
ENDSEC;

DATA;
#1 = CARTESIAN_POINT ( 'NONE',  ( 0.000000000000000000, 0.000000000000000000, 0.000000000000000000 ) ) ;
#2 = SHAPE_DEFINITION_REPRESENTATION ( #376, #269 ) ;
#3 = DIRECTION ( 'NONE',  ( 0.000000000000000000, 1.000000000000000000, 0.000000000000000000 ) ) ;
#4 = VECTOR ( 'NONE', #234, 1000.000000000000000 ) ;
#5 = CARTESIAN_POINT ( 'NONE',  ( 0.000000000000000000, 0.2999999999999999889, 0.000000000000000000 ) ) ;
#6 = EDGE_CURVE ( 'NONE', #462, #21, #430, .T. ) ;
#7 = CARTESIAN_POINT ( 'NONE',  ( 0.000000000000000000, 7.000000000000000000, 0.000000000000000000 ) ) ;
#8 = CARTESIAN_POINT ( 'NONE',  ( 3.373901931650959958E-15, 6.700000000000000178, -27.55000000000000071 ) ) ;
#9 = ORIENTED_EDGE ( 'NONE', *, *, #217, .F. ) ;
#10 = FACE_OUTER_BOUND ( 'NONE', #465, .T. ) ;
#11 = EDGE_LOOP ( 'NONE', ( #369, #67 ) ) ;
#12 = ORIENTED_EDGE ( 'NONE', *, *, #301, .T. ) ;
#13 = DIRECTION ( 'NONE',  ( 0.000000000000000000, 1.000000000000000000, 0.000000000000000000 ) ) ;
#14 = CIRCLE ( 'NONE', #265, 30.00000000000000000 ) ;
#15 = DIRECTION ( 'NONE',  ( 0.000000000000000000, 0.000000000000000000, -1.000000000000000000 ) ) ;
#16 = EDGE_CURVE ( 'NONE', #385, #28, #294, .T. ) ;
#17 = EDGE_LOOP ( 'NONE', ( #256, #407 ) ) ;
#18 = FACE_OUTER_BOUND ( 'NONE', #226, .T. ) ;
#19 = AXIS2_PLACEMENT_3D ( 'NONE', #235, #29, #190 ) ;
#20 = DIRECTION ( 'NONE',  ( 0.000000000000000000, 1.000000000000000000, 0.000000000000000000 ) ) ;
#21 = VERTEX_POINT ( 'NONE', #438 ) ;
#22 = CARTESIAN_POINT ( 'NONE',  ( 3.980102097228900204E-15, 7.000000000000000000, 32.50000000000000000 ) ) ;
#23 = VERTEX_POINT ( 'NONE', #473 ) ;
#24 = DIRECTION ( 'NONE',  ( 0.000000000000000000, -1.000000000000000000, 0.000000000000000000 ) ) ;
#25 = FACE_OUTER_BOUND ( 'NONE', #96, .T. ) ;
#26 = EDGE_LOOP ( 'NONE', ( #194, #166, #132, #496 ) ) ;
#27 = DIRECTION ( 'NONE',  ( 0.000000000000000000, -1.000000000000000000, 0.000000000000000000 ) ) ;
#28 = VERTEX_POINT ( 'NONE', #395 ) ;
#29 = DIRECTION ( 'NONE',  ( -0.000000000000000000, 1.000000000000000000, 0.000000000000000000 ) ) ;
#30 = ADVANCED_FACE ( 'NONE', ( #444 ), #120, .F. ) ;
#31 = ORIENTED_EDGE ( 'NONE', *, *, #233, .T. ) ;
#32 = PRODUCT_DEFINITION_FORMATION_WITH_SPECIFIED_SOURCE ( 'å¯', '', #386, .NOT_KNOWN. ) ;
#33 = CYLINDRICAL_SURFACE ( 'NONE', #468, 30.00000000000000000 ) ;
#34 = LINE ( 'NONE', #510, #80 ) ;
#35 = ORIENTED_EDGE ( 'NONE', *, *, #319, .T. ) ;
#36 = CARTESIAN_POINT ( 'NONE',  ( 3.061616997868384620E-15, 7.000000000000000000, 25.00000000000000000 ) ) ;
#37 = PRESENTATION_STYLE_ASSIGNMENT (( #158 ) ) ;
#38 = EDGE_CURVE ( 'NONE', #28, #385, #204, .T. ) ;
#39 = AXIS2_PLACEMENT_3D ( 'NONE', #441, #285, #85 ) ;
#40 = FACE_OUTER_BOUND ( 'NONE', #101, .T. ) ;
#41 = CYLINDRICAL_SURFACE ( 'NONE', #181, 30.00000000000000000 ) ;
#42 = CARTESIAN_POINT ( 'NONE',  ( 0.000000000000000000, 6.700000000000000178, 0.000000000000000000 ) ) ;
#43 = VECTOR ( 'NONE', #358, 1000.000000000000000 ) ;
#44 = DIRECTION ( 'NONE',  ( 0.000000000000000000, 0.000000000000000000, 1.000000000000000000 ) ) ;
#45 = EDGE_CURVE ( 'NONE', #23, #231, #200, .T. ) ;
#46 = DIRECTION ( 'NONE',  ( 0.000000000000000000, 0.000000000000000000, -1.000000000000000000 ) ) ;
#47 = DIRECTION ( 'NONE',  ( 0.000000000000000000, 1.000000000000000000, 0.000000000000000000 ) ) ;
#48 = DIRECTION ( 'NONE',  ( 0.000000000000000000, 0.000000000000000000, 1.000000000000000000 ) ) ;
#49 = VERTEX_POINT ( 'NONE', #355 ) ;
#50 = ADVANCED_FACE ( 'NONE', ( #236 ), #41, .F. ) ;
#51 = ORIENTED_EDGE ( 'NONE', *, *, #127, .F. ) ;
#52 = DIRECTION ( 'NONE',  ( 0.000000000000000000, -1.000000000000000000, 0.000000000000000000 ) ) ;
#53 = EDGE_CURVE ( 'NONE', #157, #507, #114, .T. ) ;
#54 = EDGE_LOOP ( 'NONE', ( #409, #411 ) ) ;
#55 = DIRECTION ( 'NONE',  ( 1.000000000000000000, 0.000000000000000000, 0.000000000000000000 ) ) ;
#56 = CIRCLE ( 'NONE', #333, 30.00000000000000000 ) ;
#57 = CARTESIAN_POINT ( 'NONE',  ( 0.000000000000000000, 7.000000000000000000, 27.55000000000000071 ) ) ;
#58 = EDGE_LOOP ( 'NONE', ( #309, #373, #211, #221 ) ) ;
#59 = CYLINDRICAL_SURFACE ( 'NONE', #219, 27.55000000000000071 ) ;
#60 = AXIS2_PLACEMENT_3D ( 'NONE', #312, #230, #387 ) ;
#61 = ORIENTED_EDGE ( 'NONE', *, *, #437, .T. ) ;
#62 = SURFACE_SIDE_STYLE ('',( #342 ) ) ;
#63 = CIRCLE ( 'NONE', #420, 30.00000000000000000 ) ;
#64 = EDGE_LOOP ( 'NONE', ( #117, #171 ) ) ;
#65 = DIRECTION ( 'NONE',  ( 0.000000000000000000, -1.000000000000000000, 0.000000000000000000 ) ) ;
#66 = VECTOR ( 'NONE', #24, 1000.000000000000000 ) ;
#67 = ORIENTED_EDGE ( 'NONE', *, *, #271, .F. ) ;
#68 = DIRECTION ( 'NONE',  ( 0.000000000000000000, 0.000000000000000000, 1.000000000000000000 ) ) ;
#69 = DIRECTION ( 'NONE',  ( -0.000000000000000000, 1.000000000000000000, 0.000000000000000000 ) ) ;
#70 = ORIENTED_EDGE ( 'NONE', *, *, #217, .T. ) ;
#71 = CARTESIAN_POINT ( 'NONE',  ( 3.673940397442059967E-15, 6.700000000000000178, -30.00000000000000000 ) ) ;
#72 = CARTESIAN_POINT ( 'NONE',  ( 0.000000000000000000, 0.2999999999999999889, -30.00000000000000000 ) ) ;
#73 = CARTESIAN_POINT ( 'NONE',  ( 0.000000000000000000, 0.2999999999999999889, 0.000000000000000000 ) ) ;
#74 = EDGE_LOOP ( 'NONE', ( #70, #12 ) ) ;
#75 = EDGE_CURVE ( 'NONE', #451, #264, #149, .T. ) ;
#76 = CARTESIAN_POINT ( 'NONE',  ( 3.673940397442059967E-15, 7.000000000000000000, -30.00000000000000000 ) ) ;
#77 = DIRECTION ( 'NONE',  ( 0.000000000000000000, 1.000000000000000000, 0.000000000000000000 ) ) ;
#78 = ADVANCED_FACE ( 'NONE', ( #280 ), #434, .F. ) ;
#79 = DIRECTION ( 'NONE',  ( 0.000000000000000000, 1.000000000000000000, 0.000000000000000000 ) ) ;
#80 = VECTOR ( 'NONE', #364, 1000.000000000000000 ) ;
#81 = DIRECTION ( 'NONE',  ( 0.000000000000000000, 0.000000000000000000, 1.000000000000000000 ) ) ;
#82 = CARTESIAN_POINT ( 'NONE',  ( 0.000000000000000000, 7.000000000000000000, 0.000000000000000000 ) ) ;
#83 = AXIS2_PLACEMENT_3D ( 'NONE', #336, #262, #220 ) ;
#84 = EDGE_CURVE ( 'NONE', #351, #272, #446, .T. ) ;
#85 = DIRECTION ( 'NONE',  ( 0.000000000000000000, 0.000000000000000000, 1.000000000000000000 ) ) ;
#86 = COLOUR_RGB ( '',0.7921568627450980005, 0.8196078431372548767, 0.9333333333333333481 ) ;
#87 =( LENGTH_UNIT ( ) NAMED_UNIT ( * ) SI_UNIT ( .MILLI., .METRE. ) );
#88 = EDGE_CURVE ( 'NONE', #487, #377, #63, .T. ) ;
#89 = CYLINDRICAL_SURFACE ( 'NONE', #463, 25.00000000000000000 ) ;
#90 = CARTESIAN_POINT ( 'NONE',  ( 0.000000000000000000, 0.000000000000000000, 0.000000000000000000 ) ) ;
#91 = CARTESIAN_POINT ( 'NONE',  ( 0.000000000000000000, 7.000000000000000000, 0.000000000000000000 ) ) ;
#92 = EDGE_LOOP ( 'NONE', ( #304, #505 ) ) ;
#93 = DIRECTION ( 'NONE',  ( 0.000000000000000000, 0.000000000000000000, 1.000000000000000000 ) ) ;
#94 = ORIENTED_EDGE ( 'NONE', *, *, #478, .F. ) ;
#95 = DIRECTION ( 'NONE',  ( -0.000000000000000000, 1.000000000000000000, 0.000000000000000000 ) ) ;
#96 = EDGE_LOOP ( 'NONE', ( #184, #343 ) ) ;
#97 = LINE ( 'NONE', #145, #133 ) ;
#98 = CARTESIAN_POINT ( 'NONE',  ( 3.373901931650959958E-15, 0.000000000000000000, 27.55000000000000071 ) ) ;
#99 = EDGE_LOOP ( 'NONE', ( #456, #288, #182, #414 ) ) ;
#100 = CARTESIAN_POINT ( 'NONE',  ( 0.000000000000000000, 6.700000000000000178, 0.000000000000000000 ) ) ;
#101 = EDGE_LOOP ( 'NONE', ( #471, #187, #290, #347 ) ) ;
#102 = CARTESIAN_POINT ( 'NONE',  ( 0.000000000000000000, 0.000000000000000000, -27.55000000000000071 ) ) ;
#103 = PLANE ( 'NONE',  #213 ) ;
#104 = EDGE_LOOP ( 'NONE', ( #115, #302, #380, #498 ) ) ;
#105 = CARTESIAN_POINT ( 'NONE',  ( 3.980102097228900204E-15, 7.000000000000000000, 32.50000000000000000 ) ) ;
#106 = AXIS2_PLACEMENT_3D ( 'NONE', #504, #188, #191 ) ;
#107 = CIRCLE ( 'NONE', #281, 27.55000000000000071 ) ;
#108 = VERTEX_POINT ( 'NONE', #206 ) ;
#109 = DIRECTION ( 'NONE',  ( 0.000000000000000000, -1.000000000000000000, 0.000000000000000000 ) ) ;
#110 = AXIS2_PLACEMENT_3D ( 'NONE', #381, #379, #216 ) ;
#111 = EDGE_LOOP ( 'NONE', ( #449, #299 ) ) ;
#112 = DIRECTION ( 'NONE',  ( 0.000000000000000000, 0.000000000000000000, 1.000000000000000000 ) ) ;
#113 =( GEOMETRIC_REPRESENTATION_CONTEXT ( 3 ) GLOBAL_UNCERTAINTY_ASSIGNED_CONTEXT ( ( #119 ) ) GLOBAL_UNIT_ASSIGNED_CONTEXT ( ( #519, #238, #517 ) ) REPRESENTATION_CONTEXT ( 'NONE', 'WORKASPACE' ) );
#114 = CIRCLE ( 'NONE', #39, 27.55000000000000071 ) ;
#115 = ORIENTED_EDGE ( 'NONE', *, *, #233, .F. ) ;
#116 = DIRECTION ( 'NONE',  ( 0.000000000000000000, -1.000000000000000000, 0.000000000000000000 ) ) ;
#117 = ORIENTED_EDGE ( 'NONE', *, *, #278, .F. ) ;
#118 = DIRECTION ( 'NONE',  ( 0.000000000000000000, 0.000000000000000000, -1.000000000000000000 ) ) ;
#119 = UNCERTAINTY_MEASURE_WITH_UNIT (LENGTH_MEASURE( 1.000000000000000082E-05 ), #519, 'distance_accuracy_value', 'NONE');
#120 = CYLINDRICAL_SURFACE ( 'NONE', #494, 30.00000000000000000 ) ;
#121 = DIRECTION ( 'NONE',  ( 0.000000000000000000, 0.000000000000000000, 1.000000000000000000 ) ) ;
#122 = DIRECTION ( 'NONE',  ( 1.000000000000000000, 0.000000000000000000, 0.000000000000000000 ) ) ;
#123 = EDGE_CURVE ( 'NONE', #142, #108, #242, .T. ) ;
#124 = CARTESIAN_POINT ( 'NONE',  ( 0.000000000000000000, 0.000000000000000000, 0.000000000000000000 ) ) ;
#125 = DIRECTION ( 'NONE',  ( 0.000000000000000000, 0.000000000000000000, 1.000000000000000000 ) ) ;
#126 = CIRCLE ( 'NONE', #417, 27.55000000000000071 ) ;
#127 = EDGE_CURVE ( 'NONE', #507, #157, #461, .T. ) ;
#128 = CIRCLE ( 'NONE', #435, 32.50000000000000000 ) ;
#129 = ORIENTED_EDGE ( 'NONE', *, *, #328, .T. ) ;
#130 = DIRECTION ( 'NONE',  ( 0.000000000000000000, 0.000000000000000000, 1.000000000000000000 ) ) ;
#131 = DIRECTION ( 'NONE',  ( 0.000000000000000000, -1.000000000000000000, 0.000000000000000000 ) ) ;
#132 = ORIENTED_EDGE ( 'NONE', *, *, #75, .T. ) ;
#133 = VECTOR ( 'NONE', #410, 1000.000000000000000 ) ;
#134 = CARTESIAN_POINT ( 'NONE',  ( 0.000000000000000000, 0.2999999999999999889, 0.000000000000000000 ) ) ;
#135 = VERTEX_POINT ( 'NONE', #98 ) ;
#136 = FILL_AREA_STYLE ('',( #493 ) ) ;
#137 = DIRECTION ( 'NONE',  ( 0.000000000000000000, 0.000000000000000000, -1.000000000000000000 ) ) ;
#138 = ORIENTED_EDGE ( 'NONE', *, *, #186, .T. ) ;
#139 = CARTESIAN_POINT ( 'NONE',  ( 3.373901931650959958E-15, 0.2999999999999999889, 27.55000000000000071 ) ) ;
#140 = EDGE_CURVE ( 'NONE', #264, #451, #128, .T. ) ;
#141 = APPLICATION_CONTEXT ( 'automotive_design' ) ;
#142 = VERTEX_POINT ( 'NONE', #293 ) ;
#143 = DIRECTION ( 'NONE',  ( 0.000000000000000000, 0.000000000000000000, 1.000000000000000000 ) ) ;
#144 = ORIENTED_EDGE ( 'NONE', *, *, #53, .T. ) ;
#145 = CARTESIAN_POINT ( 'NONE',  ( 0.000000000000000000, 6.700000000000000178, 30.00000000000000000 ) ) ;
#146 = EDGE_CURVE ( 'NONE', #135, #231, #306, .T. ) ;
#147 = ORIENTED_EDGE ( 'NONE', *, *, #291, .F. ) ;
#148 = CARTESIAN_POINT ( 'NONE',  ( 0.000000000000000000, 0.2999999999999999889, 0.000000000000000000 ) ) ;
#149 = CIRCLE ( 'NONE', #169, 32.50000000000000000 ) ;
#150 = ORIENTED_EDGE ( 'NONE', *, *, #123, .F. ) ;
#151 = EDGE_CURVE ( 'NONE', #366, #507, #177, .T. ) ;
#152 = FACE_BOUND ( 'NONE', #432, .T. ) ;
#153 = CIRCLE ( 'NONE', #489, 30.00000000000000000 ) ;
#154 = ORIENTED_EDGE ( 'NONE', *, *, #6, .F. ) ;
#155 = DIRECTION ( 'NONE',  ( 0.000000000000000000, -1.000000000000000000, 0.000000000000000000 ) ) ;
#156 = STYLED_ITEM ( 'NONE', ( #37 ), #335 ) ;
#157 = VERTEX_POINT ( 'NONE', #57 ) ;
#158 = SURFACE_STYLE_USAGE ( .BOTH. , #62 ) ;
#159 = ADVANCED_FACE ( 'NONE', ( #337 ), #495, .T. ) ;
#160 = FACE_BOUND ( 'NONE', #11, .T. ) ;
#161 = DIRECTION ( 'NONE',  ( -0.000000000000000000, 1.000000000000000000, 0.000000000000000000 ) ) ;
#162 = DIRECTION ( 'NONE',  ( 1.000000000000000000, 0.000000000000000000, 0.000000000000000000 ) ) ;
#163 = DIRECTION ( 'NONE',  ( 0.000000000000000000, 0.000000000000000000, -1.000000000000000000 ) ) ;
#164 = CARTESIAN_POINT ( 'NONE',  ( 0.000000000000000000, 0.000000000000000000, 0.000000000000000000 ) ) ;
#165 = DIRECTION ( 'NONE',  ( 0.000000000000000000, -1.000000000000000000, 0.000000000000000000 ) ) ;
#166 = ORIENTED_EDGE ( 'NONE', *, *, #224, .T. ) ;
#167 = CARTESIAN_POINT ( 'NONE',  ( 0.000000000000000000, 6.700000000000000178, 0.000000000000000000 ) ) ;
#168 = ADVANCED_FACE ( 'NONE', ( #255, #416 ), #103, .T. ) ;
#169 = AXIS2_PLACEMENT_3D ( 'NONE', #1, #317, #353 ) ;
#170 = AXIS2_PLACEMENT_3D ( 'NONE', #374, #370, #183 ) ;
#171 = ORIENTED_EDGE ( 'NONE', *, *, #328, .F. ) ;
#172 = AXIS2_PLACEMENT_3D ( 'NONE', #164, #161, #122 ) ;
#173 = DIRECTION ( 'NONE',  ( 0.000000000000000000, 0.000000000000000000, -1.000000000000000000 ) ) ;
#174 = VERTEX_POINT ( 'NONE', #263 ) ;
#175 = VECTOR ( 'NONE', #412, 1000.000000000000000 ) ;
#176 = CARTESIAN_POINT ( 'NONE',  ( 3.673940397442059967E-15, 0.000000000000000000, 30.00000000000000000 ) ) ;
#177 = LINE ( 'NONE', #8, #398 ) ;
#178 = ADVANCED_FACE ( 'NONE', ( #388, #25 ), #391, .T. ) ;
#179 = VECTOR ( 'NONE', #109, 1000.000000000000000 ) ;
#180 = DIRECTION ( 'NONE',  ( 0.000000000000000000, 1.000000000000000000, 0.000000000000000000 ) ) ;
#181 = AXIS2_PLACEMENT_3D ( 'NONE', #5, #518, #474 ) ;
#182 = ORIENTED_EDGE ( 'NONE', *, *, #422, .T. ) ;
#183 = DIRECTION ( 'NONE',  ( 0.000000000000000000, 0.000000000000000000, 1.000000000000000000 ) ) ;
#184 = ORIENTED_EDGE ( 'NONE', *, *, #38, .T. ) ;
#185 = DIRECTION ( 'NONE',  ( 0.000000000000000000, -1.000000000000000000, 0.000000000000000000 ) ) ;
#186 = EDGE_CURVE ( 'NONE', #351, #264, #34, .T. ) ;
#187 = ORIENTED_EDGE ( 'NONE', *, *, #151, .T. ) ;
#188 = DIRECTION ( 'NONE',  ( -0.000000000000000000, 1.000000000000000000, 0.000000000000000000 ) ) ;
#189 = ORIENTED_EDGE ( 'NONE', *, *, #274, .T. ) ;
#190 = DIRECTION ( 'NONE',  ( 1.000000000000000000, 0.000000000000000000, 0.000000000000000000 ) ) ;
#191 = DIRECTION ( 'NONE',  ( 1.000000000000000000, 0.000000000000000000, 0.000000000000000000 ) ) ;
#192 = ORIENTED_EDGE ( 'NONE', *, *, #240, .T. ) ;
#193 = CARTESIAN_POINT ( 'NONE',  ( 3.980102097228900204E-15, 0.000000000000000000, 32.50000000000000000 ) ) ;
#194 = ORIENTED_EDGE ( 'NONE', *, *, #453, .F. ) ;
#195 = ADVANCED_FACE ( 'NONE', ( #244 ), #327, .T. ) ;
#196 = CARTESIAN_POINT ( 'NONE',  ( 0.000000000000000000, 7.000000000000000000, -32.50000000000000000 ) ) ;
#197 = AXIS2_PLACEMENT_3D ( 'NONE', #148, #155, #118 ) ;
#198 = CARTESIAN_POINT ( 'NONE',  ( 0.000000000000000000, 6.700000000000000178, 0.000000000000000000 ) ) ;
#199 = DIRECTION ( 'NONE',  ( 0.000000000000000000, 0.000000000000000000, -1.000000000000000000 ) ) ;
#200 = LINE ( 'NONE', #477, #43 ) ;
#201 =( NAMED_UNIT ( * ) PLANE_ANGLE_UNIT ( ) SI_UNIT ( $, .RADIAN. ) );
#202 = CIRCLE ( 'NONE', #170, 25.00000000000000000 ) ;
#203 = DIRECTION ( 'NONE',  ( 0.000000000000000000, 0.000000000000000000, 1.000000000000000000 ) ) ;
#204 = CIRCLE ( 'NONE', #270, 30.00000000000000000 ) ;
#205 = PLANE ( 'NONE',  #172 ) ;
#206 = CARTESIAN_POINT ( 'NONE',  ( 0.000000000000000000, 0.000000000000000000, -25.00000000000000000 ) ) ;
#207 = EDGE_CURVE ( 'NONE', #350, #21, #14, .T. ) ;
#208 = CARTESIAN_POINT ( 'NONE',  ( 0.000000000000000000, 7.000000000000000000, 30.00000000000000000 ) ) ;
#209 = CARTESIAN_POINT ( 'NONE',  ( 0.000000000000000000, 0.2999999999999999889, -30.00000000000000000 ) ) ;
#210 = PRODUCT_RELATED_PRODUCT_CATEGORY ( 'part', '', ( #386 ) ) ;
#211 = ORIENTED_EDGE ( 'NONE', *, *, #123, .T. ) ;
#212 = AXIS2_PLACEMENT_3D ( 'NONE', #82, #239, #163 ) ;
#213 = AXIS2_PLACEMENT_3D ( 'NONE', #501, #69, #515 ) ;
#214 = ORIENTED_EDGE ( 'NONE', *, *, #146, .T. ) ;
#215 = CIRCLE ( 'NONE', #508, 32.50000000000000000 ) ;
#216 = DIRECTION ( 'NONE',  ( 0.000000000000000000, 0.000000000000000000, -1.000000000000000000 ) ) ;
#217 = EDGE_CURVE ( 'NONE', #462, #218, #153, .T. ) ;
#218 = VERTEX_POINT ( 'NONE', #332 ) ;
#219 = AXIS2_PLACEMENT_3D ( 'NONE', #134, #52, #452 ) ;
#220 = DIRECTION ( 'NONE',  ( 0.000000000000000000, 0.000000000000000000, 1.000000000000000000 ) ) ;
#221 = ORIENTED_EDGE ( 'NONE', *, *, #362, .F. ) ;
#222 = AXIS2_PLACEMENT_3D ( 'NONE', #514, #472, #68 ) ;
#223 = CARTESIAN_POINT ( 'NONE',  ( 0.000000000000000000, 0.000000000000000000, -32.50000000000000000 ) ) ;
#224 = EDGE_CURVE ( 'NONE', #272, #451, #460, .T. ) ;
#225 = DIRECTION ( 'NONE',  ( 0.000000000000000000, 0.000000000000000000, -1.000000000000000000 ) ) ;
#226 = EDGE_LOOP ( 'NONE', ( #339, #214 ) ) ;
#227 = CARTESIAN_POINT ( 'NONE',  ( 0.000000000000000000, 6.700000000000000178, 0.000000000000000000 ) ) ;
#228 = EDGE_CURVE ( 'NONE', #108, #316, #310, .T. ) ;
#229 = ORIENTED_EDGE ( 'NONE', *, *, #151, .F. ) ;
#230 = DIRECTION ( 'NONE',  ( 0.000000000000000000, 1.000000000000000000, 0.000000000000000000 ) ) ;
#231 = VERTEX_POINT ( 'NONE', #102 ) ;
#232 = CYLINDRICAL_SURFACE ( 'NONE', #60, 30.00000000000000000 ) ;
#233 = EDGE_CURVE ( 'NONE', #49, #135, #260, .T. ) ;
#234 = DIRECTION ( 'NONE',  ( 0.000000000000000000, -1.000000000000000000, 0.000000000000000000 ) ) ;
#235 = CARTESIAN_POINT ( 'NONE',  ( 0.000000000000000000, 7.000000000000000000, 0.000000000000000000 ) ) ;
#236 = FACE_OUTER_BOUND ( 'NONE', #259, .T. ) ;
#237 = DIRECTION ( 'NONE',  ( 0.000000000000000000, 0.000000000000000000, -1.000000000000000000 ) ) ;
#238 =( NAMED_UNIT ( * ) PLANE_ANGLE_UNIT ( ) SI_UNIT ( $, .RADIAN. ) );
#239 = DIRECTION ( 'NONE',  ( 0.000000000000000000, -1.000000000000000000, 0.000000000000000000 ) ) ;
#240 = EDGE_CURVE ( 'NONE', #21, #350, #56, .T. ) ;
#241 = AXIS2_PLACEMENT_3D ( 'NONE', #321, #131, #247 ) ;
#242 = LINE ( 'NONE', #361, #397 ) ;
#243 = DIRECTION ( 'NONE',  ( 0.000000000000000000, 1.000000000000000000, 0.000000000000000000 ) ) ;
#244 = FACE_OUTER_BOUND ( 'NONE', #104, .T. ) ;
#245 = CIRCLE ( 'NONE', #338, 30.00000000000000000 ) ;
#246 = CARTESIAN_POINT ( 'NONE',  ( 0.000000000000000000, 7.000000000000000000, 0.000000000000000000 ) ) ;
#247 = DIRECTION ( 'NONE',  ( 0.000000000000000000, 0.000000000000000000, -1.000000000000000000 ) ) ;
#248 = DIRECTION ( 'NONE',  ( 0.000000000000000000, -1.000000000000000000, 0.000000000000000000 ) ) ;
#249 = EDGE_LOOP ( 'NONE', ( #147, #331, #189, #424 ) ) ;
#250 = CARTESIAN_POINT ( 'NONE',  ( 0.000000000000000000, 6.700000000000000178, 27.55000000000000071 ) ) ;
#251 = EDGE_CURVE ( 'NONE', #218, #350, #292, .T. ) ;
#252 = ORIENTED_EDGE ( 'NONE', *, *, #207, .T. ) ;
#253 = CIRCLE ( 'NONE', #368, 27.55000000000000071 ) ;
#254 = LINE ( 'NONE', #450, #175 ) ;
#255 = FACE_BOUND ( 'NONE', #92, .T. ) ;
#256 = ORIENTED_EDGE ( 'NONE', *, *, #240, .F. ) ;
#257 = DIRECTION ( 'NONE',  ( 0.000000000000000000, 0.000000000000000000, 1.000000000000000000 ) ) ;
#258 = ADVANCED_FACE ( 'NONE', ( #298 ), #59, .T. ) ;
#259 = EDGE_LOOP ( 'NONE', ( #469, #9, #341, #192 ) ) ;
#260 = LINE ( 'NONE', #139, #66 ) ;
#261 = EDGE_LOOP ( 'NONE', ( #144, #311 ) ) ;
#262 = DIRECTION ( 'NONE',  ( 0.000000000000000000, 1.000000000000000000, 0.000000000000000000 ) ) ;
#263 = CARTESIAN_POINT ( 'NONE',  ( 0.000000000000000000, 6.700000000000000178, 27.55000000000000071 ) ) ;
#264 = VERTEX_POINT ( 'NONE', #223 ) ;
#265 = AXIS2_PLACEMENT_3D ( 'NONE', #90, #248, #423 ) ;
#266 = ORIENTED_EDGE ( 'NONE', *, *, #322, .F. ) ;
#267 = DIRECTION ( 'NONE',  ( 0.000000000000000000, 0.000000000000000000, -1.000000000000000000 ) ) ;
#268 = CIRCLE ( 'NONE', #222, 25.00000000000000000 ) ;
#269 = ADVANCED_BREP_SHAPE_REPRESENTATION ( '71810A', ( #335, #308 ), #330 ) ;
#270 = AXIS2_PLACEMENT_3D ( 'NONE', #198, #77, #125 ) ;
#271 = EDGE_CURVE ( 'NONE', #49, #23, #357, .T. ) ;
#272 = VERTEX_POINT ( 'NONE', #22 ) ;
#273 = CARTESIAN_POINT ( 'NONE',  ( 0.000000000000000000, 7.000000000000000000, 0.000000000000000000 ) ) ;
#274 = EDGE_CURVE ( 'NONE', #28, #487, #97, .T. ) ;
#275 = ORIENTED_EDGE ( 'NONE', *, *, #301, .F. ) ;
#276 = FACE_OUTER_BOUND ( 'NONE', #74, .T. ) ;
#277 = CARTESIAN_POINT ( 'NONE',  ( 0.000000000000000000, 6.700000000000000178, 0.000000000000000000 ) ) ;
#278 = EDGE_CURVE ( 'NONE', #174, #366, #425, .T. ) ;
#279 = PLANE ( 'NONE',  #197 ) ;
#280 = FACE_OUTER_BOUND ( 'NONE', #511, .T. ) ;
#281 = AXIS2_PLACEMENT_3D ( 'NONE', #470, #116, #267 ) ;
#282 = DIRECTION ( 'NONE',  ( 0.000000000000000000, -1.000000000000000000, 0.000000000000000000 ) ) ;
#283 = AXIS2_PLACEMENT_3D ( 'NONE', #419, #455, #173 ) ;
#284 = DIRECTION ( 'NONE',  ( 0.000000000000000000, -1.000000000000000000, 0.000000000000000000 ) ) ;
#285 = DIRECTION ( 'NONE',  ( 0.000000000000000000, 1.000000000000000000, 0.000000000000000000 ) ) ;
#286 = FACE_OUTER_BOUND ( 'NONE', #54, .T. ) ;
#287 = AXIS2_PLACEMENT_3D ( 'NONE', #400, #3, #318 ) ;
#288 = ORIENTED_EDGE ( 'NONE', *, *, #291, .T. ) ;
#289 = VECTOR ( 'NONE', #185, 1000.000000000000000 ) ;
#290 = ORIENTED_EDGE ( 'NONE', *, *, #53, .F. ) ;
#291 = EDGE_CURVE ( 'NONE', #385, #377, #254, .T. ) ;
#292 = LINE ( 'NONE', #488, #372 ) ;
#293 = CARTESIAN_POINT ( 'NONE',  ( 0.000000000000000000, 7.000000000000000000, -25.00000000000000000 ) ) ;
#294 = CIRCLE ( 'NONE', #359, 30.00000000000000000 ) ;
#295 = ORIENTED_EDGE ( 'NONE', *, *, #443, .T. ) ;
#296 = LINE ( 'NONE', #250, #512 ) ;
#297 = EDGE_LOOP ( 'NONE', ( #502, #447, #138, #459 ) ) ;
#298 = FACE_OUTER_BOUND ( 'NONE', #345, .T. ) ;
#299 = ORIENTED_EDGE ( 'NONE', *, *, #453, .T. ) ;
#300 = FACE_BOUND ( 'NONE', #389, .T. ) ;
#301 = EDGE_CURVE ( 'NONE', #218, #462, #466, .T. ) ;
#302 = ORIENTED_EDGE ( 'NONE', *, *, #271, .T. ) ;
#303 = DIRECTION ( 'NONE',  ( 0.000000000000000000, 0.000000000000000000, -1.000000000000000000 ) ) ;
#304 = ORIENTED_EDGE ( 'NONE', *, *, #88, .F. ) ;
#305 = AXIS2_PLACEMENT_3D ( 'NONE', #91, #486, #93 ) ;
#306 = CIRCLE ( 'NONE', #436, 27.55000000000000071 ) ;
#307 = CARTESIAN_POINT ( 'NONE',  ( 3.373901931650959958E-15, 6.700000000000000178, -27.55000000000000071 ) ) ;
#308 = AXIS2_PLACEMENT_3D ( 'NONE', #360, #130, #162 ) ;
#309 = ORIENTED_EDGE ( 'NONE', *, *, #378, .F. ) ;
#310 = CIRCLE ( 'NONE', #83, 25.00000000000000000 ) ;
#311 = ORIENTED_EDGE ( 'NONE', *, *, #127, .T. ) ;
#312 = CARTESIAN_POINT ( 'NONE',  ( 0.000000000000000000, 6.700000000000000178, 0.000000000000000000 ) ) ;
#313 = CIRCLE ( 'NONE', #375, 25.00000000000000000 ) ;
#314 = ADVANCED_FACE ( 'NONE', ( #300, #18 ), #497, .F. ) ;
#315 = CLOSED_SHELL ( 'NONE', ( #195, #384, #50, #492, #178, #406, #513, #413, #458, #168, #429, #314, #159, #78, #30, #500, #404, #258 ) ) ;
#316 = VERTEX_POINT ( 'NONE', #383 ) ;
#317 = DIRECTION ( 'NONE',  ( 0.000000000000000000, 1.000000000000000000, 0.000000000000000000 ) ) ;
#318 = DIRECTION ( 'NONE',  ( 0.000000000000000000, 0.000000000000000000, 1.000000000000000000 ) ) ;
#319 = EDGE_CURVE ( 'NONE', #174, #157, #296, .T. ) ;
#320 =( NAMED_UNIT ( * ) SI_UNIT ( $, .STERADIAN. ) SOLID_ANGLE_UNIT ( ) );
#321 = CARTESIAN_POINT ( 'NONE',  ( 0.000000000000000000, 0.2999999999999999889, 0.000000000000000000 ) ) ;
#322 = EDGE_CURVE ( 'NONE', #427, #142, #202, .T. ) ;
#323 = PRODUCT_DEFINITION_CONTEXT ( 'detailed design', #141, 'design' ) ;
#324 = CARTESIAN_POINT ( 'NONE',  ( 0.000000000000000000, 7.000000000000000000, 0.000000000000000000 ) ) ;
#325 = ORIENTED_EDGE ( 'NONE', *, *, #251, .T. ) ;
#326 = FACE_OUTER_BOUND ( 'NONE', #58, .T. ) ;
#327 = CYLINDRICAL_SURFACE ( 'NONE', #241, 27.55000000000000071 ) ;
#328 = EDGE_CURVE ( 'NONE', #366, #174, #126, .T. ) ;
#329 = DIRECTION ( 'NONE',  ( 0.000000000000000000, -1.000000000000000000, 0.000000000000000000 ) ) ;
#330 =( GEOMETRIC_REPRESENTATION_CONTEXT ( 3 ) GLOBAL_UNCERTAINTY_ASSIGNED_CONTEXT ( ( #485 ) ) GLOBAL_UNIT_ASSIGNED_CONTEXT ( ( #87, #201, #320 ) ) REPRESENTATION_CONTEXT ( 'NONE', 'WORKASPACE' ) );
#331 = ORIENTED_EDGE ( 'NONE', *, *, #38, .F. ) ;
#332 = CARTESIAN_POINT ( 'NONE',  ( 3.673940397442059967E-15, 0.2999999999999999889, 30.00000000000000000 ) ) ;
#333 = AXIS2_PLACEMENT_3D ( 'NONE', #340, #65, #225 ) ;
#334 = ORIENTED_EDGE ( 'NONE', *, *, #437, .F. ) ;
#335 = MANIFOLD_SOLID_BREP ( 'NONE', #315 ) ;
#336 = CARTESIAN_POINT ( 'NONE',  ( 0.000000000000000000, 0.000000000000000000, 0.000000000000000000 ) ) ;
#337 = FACE_OUTER_BOUND ( 'NONE', #26, .T. ) ;
#338 = AXIS2_PLACEMENT_3D ( 'NONE', #433, #79, #428 ) ;
#339 = ORIENTED_EDGE ( 'NONE', *, *, #478, .T. ) ;
#340 = CARTESIAN_POINT ( 'NONE',  ( 0.000000000000000000, 0.000000000000000000, 0.000000000000000000 ) ) ;
#341 = ORIENTED_EDGE ( 'NONE', *, *, #6, .T. ) ;
#342 = SURFACE_STYLE_FILL_AREA ( #136 ) ;
#343 = ORIENTED_EDGE ( 'NONE', *, *, #16, .T. ) ;
#344 = DIRECTION ( 'NONE',  ( 0.000000000000000000, -1.000000000000000000, 0.000000000000000000 ) ) ;
#345 = EDGE_LOOP ( 'NONE', ( #295, #31, #94, #483 ) ) ;
#346 = FACE_OUTER_BOUND ( 'NONE', #261, .T. ) ;
#347 = ORIENTED_EDGE ( 'NONE', *, *, #319, .F. ) ;
#348 = CARTESIAN_POINT ( 'NONE',  ( 0.000000000000000000, 7.000000000000000000, 0.000000000000000000 ) ) ;
#349 = AXIS2_PLACEMENT_3D ( 'NONE', #167, #363, #81 ) ;
#350 = VERTEX_POINT ( 'NONE', #176 ) ;
#351 = VERTEX_POINT ( 'NONE', #196 ) ;
#352 = FACE_OUTER_BOUND ( 'NONE', #297, .T. ) ;
#353 = DIRECTION ( 'NONE',  ( 0.000000000000000000, 0.000000000000000000, 1.000000000000000000 ) ) ;
#354 = FACE_OUTER_BOUND ( 'NONE', #249, .T. ) ;
#355 = CARTESIAN_POINT ( 'NONE',  ( 3.373901931650959958E-15, 0.2999999999999999889, 27.55000000000000071 ) ) ;
#356 = APPLICATION_PROTOCOL_DEFINITION ( 'draft international standard', 'automotive_design', 1998, #141 ) ;
#357 = CIRCLE ( 'NONE', #110, 27.55000000000000071 ) ;
#358 = DIRECTION ( 'NONE',  ( 0.000000000000000000, -1.000000000000000000, 0.000000000000000000 ) ) ;
#359 = AXIS2_PLACEMENT_3D ( 'NONE', #392, #516, #44 ) ;
#360 = CARTESIAN_POINT ( 'NONE',  ( 0.000000000000000000, 0.000000000000000000, 0.000000000000000000 ) ) ;
#361 = CARTESIAN_POINT ( 'NONE',  ( 0.000000000000000000, 7.000000000000000000, -25.00000000000000000 ) ) ;
#362 = EDGE_CURVE ( 'NONE', #316, #108, #268, .T. ) ;
#363 = DIRECTION ( 'NONE',  ( 0.000000000000000000, 1.000000000000000000, 0.000000000000000000 ) ) ;
#364 = DIRECTION ( 'NONE',  ( 0.000000000000000000, -1.000000000000000000, 0.000000000000000000 ) ) ;
#365 = CARTESIAN_POINT ( 'NONE',  ( 0.000000000000000000, 0.000000000000000000, 0.000000000000000000 ) ) ;
#366 = VERTEX_POINT ( 'NONE', #307 ) ;
#367 = AXIS2_PLACEMENT_3D ( 'NONE', #324, #165, #137 ) ;
#368 = AXIS2_PLACEMENT_3D ( 'NONE', #124, #282, #46 ) ;
#369 = ORIENTED_EDGE ( 'NONE', *, *, #443, .F. ) ;
#370 = DIRECTION ( 'NONE',  ( 0.000000000000000000, 1.000000000000000000, 0.000000000000000000 ) ) ;
#371 = CARTESIAN_POINT ( 'NONE',  ( 0.000000000000000000, 0.000000000000000000, 0.000000000000000000 ) ) ;
#372 = VECTOR ( 'NONE', #344, 1000.000000000000000 ) ;
#373 = ORIENTED_EDGE ( 'NONE', *, *, #322, .T. ) ;
#374 = CARTESIAN_POINT ( 'NONE',  ( 0.000000000000000000, 7.000000000000000000, 0.000000000000000000 ) ) ;
#375 = AXIS2_PLACEMENT_3D ( 'NONE', #348, #509, #112 ) ;
#376 = PRODUCT_DEFINITION_SHAPE ( 'NONE', 'NONE',  #482 ) ;
#377 = VERTEX_POINT ( 'NONE', #76 ) ;
#378 = EDGE_CURVE ( 'NONE', #427, #316, #506, .T. ) ;
#379 = DIRECTION ( 'NONE',  ( 0.000000000000000000, -1.000000000000000000, 0.000000000000000000 ) ) ;
#380 = ORIENTED_EDGE ( 'NONE', *, *, #45, .T. ) ;
#381 = CARTESIAN_POINT ( 'NONE',  ( 0.000000000000000000, 0.2999999999999999889, 0.000000000000000000 ) ) ;
#382 = EDGE_LOOP ( 'NONE', ( #275, #325, #252, #154 ) ) ;
#383 = CARTESIAN_POINT ( 'NONE',  ( 3.061616997868384620E-15, 0.000000000000000000, 25.00000000000000000 ) ) ;
#384 = ADVANCED_FACE ( 'NONE', ( #160, #276 ), #279, .T. ) ;
#385 = VERTEX_POINT ( 'NONE', #71 ) ;
#386 = PRODUCT ( '71810A', '71810A', '', ( #399 ) ) ;
#387 = DIRECTION ( 'NONE',  ( 0.000000000000000000, 0.000000000000000000, 1.000000000000000000 ) ) ;
#388 = FACE_BOUND ( 'NONE', #64, .T. ) ;
#389 = EDGE_LOOP ( 'NONE', ( #454, #421 ) ) ;
#390 = DIRECTION ( 'NONE',  ( 0.000000000000000000, -1.000000000000000000, 0.000000000000000000 ) ) ;
#391 = PLANE ( 'NONE',  #106 ) ;
#392 = CARTESIAN_POINT ( 'NONE',  ( 0.000000000000000000, 6.700000000000000178, 0.000000000000000000 ) ) ;
#393 = CARTESIAN_POINT ( 'NONE',  ( 3.061616997868384620E-15, 7.000000000000000000, 25.00000000000000000 ) ) ;
#394 = APPLICATION_CONTEXT ( 'automotive_design' ) ;
#395 = CARTESIAN_POINT ( 'NONE',  ( 0.000000000000000000, 6.700000000000000178, 30.00000000000000000 ) ) ;
#396 = CYLINDRICAL_SURFACE ( 'NONE', #403, 32.50000000000000000 ) ;
#397 = VECTOR ( 'NONE', #329, 1000.000000000000000 ) ;
#398 = VECTOR ( 'NONE', #20, 1000.000000000000000 ) ;
#399 = PRODUCT_CONTEXT ( 'NONE', #394, 'mechanical' ) ;
#400 = CARTESIAN_POINT ( 'NONE',  ( 0.000000000000000000, 7.000000000000000000, 0.000000000000000000 ) ) ;
#401 = AXIS2_PLACEMENT_3D ( 'NONE', #227, #503, #143 ) ;
#402 = DIRECTION ( 'NONE',  ( 0.000000000000000000, 0.000000000000000000, 1.000000000000000000 ) ) ;
#403 = AXIS2_PLACEMENT_3D ( 'NONE', #426, #27, #199 ) ;
#404 = ADVANCED_FACE ( 'NONE', ( #464 ), #33, .F. ) ;
#405 = CYLINDRICAL_SURFACE ( 'NONE', #476, 27.55000000000000071 ) ;
#406 = ADVANCED_FACE ( 'NONE', ( #354 ), #232, .F. ) ;
#407 = ORIENTED_EDGE ( 'NONE', *, *, #207, .F. ) ;
#408 = DIRECTION ( 'NONE',  ( 0.000000000000000000, 0.000000000000000000, 1.000000000000000000 ) ) ;
#409 = ORIENTED_EDGE ( 'NONE', *, *, #140, .F. ) ;
#410 = DIRECTION ( 'NONE',  ( 0.000000000000000000, 1.000000000000000000, 0.000000000000000000 ) ) ;
#411 = ORIENTED_EDGE ( 'NONE', *, *, #75, .F. ) ;
#412 = DIRECTION ( 'NONE',  ( 0.000000000000000000, 1.000000000000000000, 0.000000000000000000 ) ) ;
#413 = ADVANCED_FACE ( 'NONE', ( #352 ), #396, .T. ) ;
#414 = ORIENTED_EDGE ( 'NONE', *, *, #274, .F. ) ;
#415 = DIRECTION ( 'NONE',  ( 0.000000000000000000, -1.000000000000000000, 0.000000000000000000 ) ) ;
#416 = FACE_OUTER_BOUND ( 'NONE', #111, .T. ) ;
#417 = AXIS2_PLACEMENT_3D ( 'NONE', #100, #13, #257 ) ;
#418 = ORIENTED_EDGE ( 'NONE', *, *, #228, .F. ) ;
#419 = CARTESIAN_POINT ( 'NONE',  ( 0.000000000000000000, 0.2999999999999999889, 0.000000000000000000 ) ) ;
#420 = AXIS2_PLACEMENT_3D ( 'NONE', #246, #475, #121 ) ;
#421 = ORIENTED_EDGE ( 'NONE', *, *, #362, .T. ) ;
#422 = EDGE_CURVE ( 'NONE', #377, #487, #245, .T. ) ;
#423 = DIRECTION ( 'NONE',  ( 0.000000000000000000, 0.000000000000000000, -1.000000000000000000 ) ) ;
#424 = ORIENTED_EDGE ( 'NONE', *, *, #88, .T. ) ;
#425 = CIRCLE ( 'NONE', #401, 27.55000000000000071 ) ;
#426 = CARTESIAN_POINT ( 'NONE',  ( 0.000000000000000000, 7.000000000000000000, 0.000000000000000000 ) ) ;
#427 = VERTEX_POINT ( 'NONE', #36 ) ;
#428 = DIRECTION ( 'NONE',  ( 0.000000000000000000, 0.000000000000000000, 1.000000000000000000 ) ) ;
#429 = ADVANCED_FACE ( 'NONE', ( #152, #346 ), #467, .T. ) ;
#430 = LINE ( 'NONE', #72, #4 ) ;
#431 = DIRECTION ( 'NONE',  ( 0.000000000000000000, 1.000000000000000000, 0.000000000000000000 ) ) ;
#432 = EDGE_LOOP ( 'NONE', ( #334, #266 ) ) ;
#433 = CARTESIAN_POINT ( 'NONE',  ( 0.000000000000000000, 7.000000000000000000, 0.000000000000000000 ) ) ;
#434 = CYLINDRICAL_SURFACE ( 'NONE', #212, 25.00000000000000000 ) ;
#435 = AXIS2_PLACEMENT_3D ( 'NONE', #371, #47, #408 ) ;
#436 = AXIS2_PLACEMENT_3D ( 'NONE', #365, #490, #15 ) ;
#437 = EDGE_CURVE ( 'NONE', #142, #427, #313, .T. ) ;
#438 = CARTESIAN_POINT ( 'NONE',  ( 0.000000000000000000, 0.000000000000000000, -30.00000000000000000 ) ) ;
#439 = CYLINDRICAL_SURFACE ( 'NONE', #349, 27.55000000000000071 ) ;
#440 = AXIS2_PLACEMENT_3D ( 'NONE', #457, #95, #55 ) ;
#441 = CARTESIAN_POINT ( 'NONE',  ( 0.000000000000000000, 7.000000000000000000, 0.000000000000000000 ) ) ;
#442 = MECHANICAL_DESIGN_GEOMETRIC_PRESENTATION_REPRESENTATION (  '', ( #156 ), #113 ) ;
#443 = EDGE_CURVE ( 'NONE', #23, #49, #107, .T. ) ;
#444 = FACE_OUTER_BOUND ( 'NONE', #99, .T. ) ;
#445 = CARTESIAN_POINT ( 'NONE',  ( 3.373901931650959958E-15, 7.000000000000000000, -27.55000000000000071 ) ) ;
#446 = CIRCLE ( 'NONE', #287, 32.50000000000000000 ) ;
#447 = ORIENTED_EDGE ( 'NONE', *, *, #84, .F. ) ;
#448 = APPLICATION_PROTOCOL_DEFINITION ( 'draft international standard', 'automotive_design', 1998, #394 ) ;
#449 = ORIENTED_EDGE ( 'NONE', *, *, #84, .T. ) ;
#450 = CARTESIAN_POINT ( 'NONE',  ( 3.673940397442059967E-15, 6.700000000000000178, -30.00000000000000000 ) ) ;
#451 = VERTEX_POINT ( 'NONE', #193 ) ;
#452 = DIRECTION ( 'NONE',  ( 0.000000000000000000, 0.000000000000000000, -1.000000000000000000 ) ) ;
#453 = EDGE_CURVE ( 'NONE', #272, #351, #215, .T. ) ;
#454 = ORIENTED_EDGE ( 'NONE', *, *, #228, .T. ) ;
#455 = DIRECTION ( 'NONE',  ( 0.000000000000000000, -1.000000000000000000, 0.000000000000000000 ) ) ;
#456 = ORIENTED_EDGE ( 'NONE', *, *, #16, .F. ) ;
#457 = CARTESIAN_POINT ( 'NONE',  ( 0.000000000000000000, 0.000000000000000000, 0.000000000000000000 ) ) ;
#458 = ADVANCED_FACE ( 'NONE', ( #480, #286 ), #205, .F. ) ;
#459 = ORIENTED_EDGE ( 'NONE', *, *, #140, .T. ) ;
#460 = LINE ( 'NONE', #105, #289 ) ;
#461 = CIRCLE ( 'NONE', #305, 27.55000000000000071 ) ;
#462 = VERTEX_POINT ( 'NONE', #209 ) ;
#463 = AXIS2_PLACEMENT_3D ( 'NONE', #7, #284, #484 ) ;
#464 = FACE_OUTER_BOUND ( 'NONE', #382, .T. ) ;
#465 = EDGE_LOOP ( 'NONE', ( #229, #129, #35, #51 ) ) ;
#466 = CIRCLE ( 'NONE', #283, 30.00000000000000000 ) ;
#467 = PLANE ( 'NONE',  #19 ) ;
#468 = AXIS2_PLACEMENT_3D ( 'NONE', #73, #390, #237 ) ;
#469 = ORIENTED_EDGE ( 'NONE', *, *, #251, .F. ) ;
#470 = CARTESIAN_POINT ( 'NONE',  ( 0.000000000000000000, 0.2999999999999999889, 0.000000000000000000 ) ) ;
#471 = ORIENTED_EDGE ( 'NONE', *, *, #278, .T. ) ;
#472 = DIRECTION ( 'NONE',  ( 0.000000000000000000, 1.000000000000000000, 0.000000000000000000 ) ) ;
#473 = CARTESIAN_POINT ( 'NONE',  ( 0.000000000000000000, 0.2999999999999999889, -27.55000000000000071 ) ) ;
#474 = DIRECTION ( 'NONE',  ( 0.000000000000000000, 0.000000000000000000, -1.000000000000000000 ) ) ;
#475 = DIRECTION ( 'NONE',  ( 0.000000000000000000, 1.000000000000000000, 0.000000000000000000 ) ) ;
#476 = AXIS2_PLACEMENT_3D ( 'NONE', #42, #243, #48 ) ;
#477 = CARTESIAN_POINT ( 'NONE',  ( 0.000000000000000000, 0.2999999999999999889, -27.55000000000000071 ) ) ;
#478 = EDGE_CURVE ( 'NONE', #231, #135, #253, .T. ) ;
#479 = DIRECTION ( 'NONE',  ( 0.000000000000000000, 1.000000000000000000, 0.000000000000000000 ) ) ;
#480 = FACE_BOUND ( 'NONE', #17, .T. ) ;
#481 = PRESENTATION_LAYER_ASSIGNMENT (  '', '', ( #156 ) ) ;
#482 = PRODUCT_DEFINITION ( 'æ™', '', #32, #323 ) ;
#483 = ORIENTED_EDGE ( 'NONE', *, *, #45, .F. ) ;
#484 = DIRECTION ( 'NONE',  ( 0.000000000000000000, 0.000000000000000000, -1.000000000000000000 ) ) ;
#485 = UNCERTAINTY_MEASURE_WITH_UNIT (LENGTH_MEASURE( 1.000000000000000082E-05 ), #87, 'distance_accuracy_value', 'NONE');
#486 = DIRECTION ( 'NONE',  ( 0.000000000000000000, 1.000000000000000000, 0.000000000000000000 ) ) ;
#487 = VERTEX_POINT ( 'NONE', #208 ) ;
#488 = CARTESIAN_POINT ( 'NONE',  ( 3.673940397442059967E-15, 0.2999999999999999889, 30.00000000000000000 ) ) ;
#489 = AXIS2_PLACEMENT_3D ( 'NONE', #499, #415, #303 ) ;
#490 = DIRECTION ( 'NONE',  ( 0.000000000000000000, -1.000000000000000000, 0.000000000000000000 ) ) ;
#491 = ORIENTED_EDGE ( 'NONE', *, *, #378, .T. ) ;
#492 = ADVANCED_FACE ( 'NONE', ( #10 ), #439, .T. ) ;
#493 = FILL_AREA_STYLE_COLOUR ( '', #86 ) ;
#494 = AXIS2_PLACEMENT_3D ( 'NONE', #277, #479, #203 ) ;
#495 = CYLINDRICAL_SURFACE ( 'NONE', #367, 32.50000000000000000 ) ;
#496 = ORIENTED_EDGE ( 'NONE', *, *, #186, .F. ) ;
#497 = PLANE ( 'NONE',  #440 ) ;
#498 = ORIENTED_EDGE ( 'NONE', *, *, #146, .F. ) ;
#499 = CARTESIAN_POINT ( 'NONE',  ( 0.000000000000000000, 0.2999999999999999889, 0.000000000000000000 ) ) ;
#500 = ADVANCED_FACE ( 'NONE', ( #40 ), #405, .T. ) ;
#501 = CARTESIAN_POINT ( 'NONE',  ( 0.000000000000000000, 7.000000000000000000, 0.000000000000000000 ) ) ;
#502 = ORIENTED_EDGE ( 'NONE', *, *, #224, .F. ) ;
#503 = DIRECTION ( 'NONE',  ( 0.000000000000000000, 1.000000000000000000, 0.000000000000000000 ) ) ;
#504 = CARTESIAN_POINT ( 'NONE',  ( 0.000000000000000000, 6.700000000000000178, 0.000000000000000000 ) ) ;
#505 = ORIENTED_EDGE ( 'NONE', *, *, #422, .F. ) ;
#506 = LINE ( 'NONE', #393, #179 ) ;
#507 = VERTEX_POINT ( 'NONE', #445 ) ;
#508 = AXIS2_PLACEMENT_3D ( 'NONE', #273, #431, #402 ) ;
#509 = DIRECTION ( 'NONE',  ( 0.000000000000000000, 1.000000000000000000, 0.000000000000000000 ) ) ;
#510 = CARTESIAN_POINT ( 'NONE',  ( 0.000000000000000000, 7.000000000000000000, -32.50000000000000000 ) ) ;
#511 = EDGE_LOOP ( 'NONE', ( #61, #491, #418, #150 ) ) ;
#512 = VECTOR ( 'NONE', #180, 1000.000000000000000 ) ;
#513 = ADVANCED_FACE ( 'NONE', ( #326 ), #89, .F. ) ;
#514 = CARTESIAN_POINT ( 'NONE',  ( 0.000000000000000000, 0.000000000000000000, 0.000000000000000000 ) ) ;
#515 = DIRECTION ( 'NONE',  ( 1.000000000000000000, 0.000000000000000000, 0.000000000000000000 ) ) ;
#516 = DIRECTION ( 'NONE',  ( 0.000000000000000000, 1.000000000000000000, 0.000000000000000000 ) ) ;
#517 =( NAMED_UNIT ( * ) SI_UNIT ( $, .STERADIAN. ) SOLID_ANGLE_UNIT ( ) );
#518 = DIRECTION ( 'NONE',  ( 0.000000000000000000, -1.000000000000000000, 0.000000000000000000 ) ) ;
#519 =( LENGTH_UNIT ( ) NAMED_UNIT ( * ) SI_UNIT ( .MILLI., .METRE. ) );
ENDSEC;
END-ISO-10303-21;
