ISO-10303-21;
HEADER;
FILE_DESCRIPTION (( 'STEP AP214' ),
    '1' );
FILE_NAME ('CNC-ÄÚ¹Ü¼ÐAA.STEP',
    '2026-08-16T17:26:55',
    ( '' ),
    ( '' ),
    'SwSTEP 2.0',
    'SolidWorks 2025',
    '' );
FILE_SCHEMA (( 'AUTOMOTIVE_DESIGN' ));
ENDSEC;

DATA;
#1 = DIRECTION ( 'NONE',  ( -0.000000000000000000, 0.000000000000000000, 1.000000000000000000 ) ) ;
#2 = CARTESIAN_POINT ( 'NONE',  ( -27.07536893972919145, 3.500000000000005329, -0.001000000000013143153 ) ) ;
#3 = VECTOR ( 'NONE', #367, 1000.000000000000000 ) ;
#4 = VERTEX_POINT ( 'NONE', #1146 ) ;
#5 = DIRECTION ( 'NONE',  ( 1.000000000000000000, 0.000000000000000000, 0.000000000000000000 ) ) ;
#6 = DIRECTION ( 'NONE',  ( 0.000000000000000000, -0.000000000000000000, -1.000000000000000000 ) ) ;
#7 = CARTESIAN_POINT ( 'NONE',  ( 13.50000000000000178, 2.081668171172168513E-14, 4.000000000000000000 ) ) ;
#8 = DIRECTION ( 'NONE',  ( 0.000000000000000000, 0.000000000000000000, 1.000000000000000000 ) ) ;
#9 = DIRECTION ( 'NONE',  ( -0.000000000000000000, 0.000000000000000000, 1.000000000000000000 ) ) ;
#10 = EDGE_CURVE ( 'NONE', #514, #609, #551, .T. ) ;
#11 = ORIENTED_EDGE ( 'NONE', *, *, #51, .F. ) ;
#12 = DIRECTION ( 'NONE',  ( 1.000000000000000000, 0.000000000000000000, 0.000000000000000000 ) ) ;
#13 = ORIENTED_EDGE ( 'NONE', *, *, #51, .T. ) ;
#14 = CARTESIAN_POINT ( 'NONE',  ( 22.57536893972919501, 15.50000000000002487, 0.000000000000000000 ) ) ;
#15 = CIRCLE ( 'NONE', #455, 2.000000000000001776 ) ;
#16 = ADVANCED_FACE ( 'NONE', ( #357 ), #61, .F. ) ;
#17 = CARTESIAN_POINT ( 'NONE',  ( -6.938893903907228378E-15, 2.081668171172168513E-14, 4.000000000000000000 ) ) ;
#18 = DIRECTION ( 'NONE',  ( -0.000000000000000000, 0.000000000000000000, 1.000000000000000000 ) ) ;
#19 = ADVANCED_FACE ( 'NONE', ( #1152 ), #645, .T. ) ;
#20 = ORIENTED_EDGE ( 'NONE', *, *, #1281, .F. ) ;
#21 = CYLINDRICAL_SURFACE ( 'NONE', #453, 2.000000000000001776 ) ;
#22 = ORIENTED_EDGE ( 'NONE', *, *, #396, .T. ) ;
#23 = EDGE_CURVE ( 'NONE', #216, #83, #15, .T. ) ;
#24 = LINE ( 'NONE', #912, #483 ) ;
#25 = EDGE_CURVE ( 'NONE', #216, #951, #471, .T. ) ;
#26 = AXIS2_PLACEMENT_3D ( 'NONE', #1215, #429, #713 ) ;
#27 = CARTESIAN_POINT ( 'NONE',  ( 25.07536893972919145, 3.500000000000005329, 0.000000000000000000 ) ) ;
#28 = DIRECTION ( 'NONE',  ( 0.000000000000000000, -0.000000000000000000, -1.000000000000000000 ) ) ;
#29 = VERTEX_POINT ( 'NONE', #791 ) ;
#30 = DIRECTION ( 'NONE',  ( -1.000000000000000000, 0.000000000000000000, 0.000000000000000000 ) ) ;
#31 = VECTOR ( 'NONE', #796, 1000.000000000000000 ) ;
#32 = CARTESIAN_POINT ( 'NONE',  ( -10.02000000000000135, 2.081668171172168513E-14, 8.000000000000000000 ) ) ;
#33 = VERTEX_POINT ( 'NONE', #484 ) ;
#34 = EDGE_CURVE ( 'NONE', #951, #325, #384, .T. ) ;
#35 = DIRECTION ( 'NONE',  ( 0.000000000000000000, -0.000000000000000000, -1.000000000000000000 ) ) ;
#36 = EDGE_CURVE ( 'NONE', #522, #41, #868, .T. ) ;
#37 = ORIENTED_EDGE ( 'NONE', *, *, #230, .T. ) ;
#38 = FACE_OUTER_BOUND ( 'NONE', #228, .T. ) ;
#39 = CARTESIAN_POINT ( 'NONE',  ( 44.00000000000000000, -1.836970198721031955E-15, -31.40063693621518581 ) ) ;
#40 = CARTESIAN_POINT ( 'NONE',  ( -1.322589102180630860, 9.932763478444471161, 5.505884120223793587 ) ) ;
#41 = VERTEX_POINT ( 'NONE', #1186 ) ;
#42 = CARTESIAN_POINT ( 'NONE',  ( 36.95073787945838717, 9.764632541561127255, 8.000000000000000000 ) ) ;
#43 = AXIS2_PLACEMENT_3D ( 'NONE', #698, #1102, #831 ) ;
#44 = DIRECTION ( 'NONE',  ( -1.000000000000000000, 0.000000000000000000, 0.000000000000000000 ) ) ;
#45 = ORIENTED_EDGE ( 'NONE', *, *, #73, .F. ) ;
#46 = CARTESIAN_POINT ( 'NONE',  ( -7.173593401571990793E-15, 10.02000000000000135, 6.000000000000000000 ) ) ;
#47 = ORIENTED_EDGE ( 'NONE', *, *, #789, .F. ) ;
#48 = EDGE_CURVE ( 'NONE', #4, #33, #848, .T. ) ;
#49 = ORIENTED_EDGE ( 'NONE', *, *, #852, .F. ) ;
#50 = CARTESIAN_POINT ( 'NONE',  ( -6.693964269848679550E-15, 10.02000000000000135, 2.000000000000000000 ) ) ;
#51 = EDGE_CURVE ( 'NONE', #252, #240, #378, .T. ) ;
#52 = ORIENTED_EDGE ( 'NONE', *, *, #1086, .F. ) ;
#53 = CARTESIAN_POINT ( 'NONE',  ( 25.07536893972919145, 3.500000000000005329, 8.000000000000000000 ) ) ;
#54 = VERTEX_POINT ( 'NONE', #668 ) ;
#55 = AXIS2_PLACEMENT_3D ( 'NONE', #988, #412, #507 ) ;
#56 = EDGE_CURVE ( 'NONE', #262, #279, #928, .T. ) ;
#57 = EDGE_LOOP ( 'NONE', ( #1203, #638 ) ) ;
#58 = LINE ( 'NONE', #945, #190 ) ;
#59 = ORIENTED_EDGE ( 'NONE', *, *, #736, .F. ) ;
#60 = DIRECTION ( 'NONE',  ( -0.000000000000000000, 1.000000000000000000, -0.000000000000000000 ) ) ;
#61 = CYLINDRICAL_SURFACE ( 'NONE', #1242, 2.000000000000001776 ) ;
#62 = DIRECTION ( 'NONE',  ( -0.000000000000000000, 0.000000000000000000, 1.000000000000000000 ) ) ;
#63 = EDGE_CURVE ( 'NONE', #447, #628, #93, .T. ) ;
#64 = CARTESIAN_POINT ( 'NONE',  ( -1.897835357645203613, 9.838761975449163089, 3.355440336765719955 ) ) ;
#65 = EDGE_CURVE ( 'NONE', #463, #951, #990, .T. ) ;
#66 = ORIENTED_EDGE ( 'NONE', *, *, #65, .T. ) ;
#67 = CARTESIAN_POINT ( 'NONE',  ( 25.07536893972919145, 5.500000000000005329, 8.000000000000000000 ) ) ;
#68 = EDGE_LOOP ( 'NONE', ( #202, #332, #1029, #1248 ) ) ;
#69 = VECTOR ( 'NONE', #505, 1000.000000000000000 ) ;
#70 = ORIENTED_EDGE ( 'NONE', *, *, #1086, .T. ) ;
#71 = DIRECTION ( 'NONE',  ( -0.000000000000000000, 0.000000000000000000, 1.000000000000000000 ) ) ;
#72 = ORIENTED_EDGE ( 'NONE', *, *, #1234, .F. ) ;
#73 = EDGE_CURVE ( 'NONE', #1123, #995, #169, .T. ) ;
#74 = DIRECTION ( 'NONE',  ( 1.000000000000000000, 0.000000000000000000, 0.000000000000000000 ) ) ;
#75 = DIRECTION ( 'NONE',  ( 1.000000000000000000, 0.000000000000000000, 0.000000000000000000 ) ) ;
#76 = EDGE_LOOP ( 'NONE', ( #1036, #1229, #1107, #1097 ) ) ;
#77 = DIRECTION ( 'NONE',  ( -0.000000000000000000, 1.000000000000000000, -0.000000000000000000 ) ) ;
#78 = CARTESIAN_POINT ( 'NONE',  ( 1.736213756854963597, 9.868707604758954588, 5.001344870589512048 ) ) ;
#79 = EDGE_CURVE ( 'NONE', #315, #89, #276, .T. ) ;
#80 = DIRECTION ( 'NONE',  ( -0.000000000000000000, 1.000000000000000000, -0.000000000000000000 ) ) ;
#81 = CARTESIAN_POINT ( 'NONE',  ( 22.57536893972919501, 5.500000000000005329, 0.000000000000000000 ) ) ;
#82 = ADVANCED_FACE ( 'NONE', ( #985 ), #1290, .T. ) ;
#83 = VERTEX_POINT ( 'NONE', #918 ) ;
#84 =( NAMED_UNIT ( * ) SI_UNIT ( $, .STERADIAN. ) SOLID_ANGLE_UNIT ( ) );
#85 = VECTOR ( 'NONE', #1014, 1000.000000000000000 ) ;
#86 = DIRECTION ( 'NONE',  ( -0.000000000000000000, -0.000000000000000000, -1.000000000000000000 ) ) ;
#87 = EDGE_CURVE ( 'NONE', #775, #939, #1164, .T. ) ;
#88 = CYLINDRICAL_SURFACE ( 'NONE', #679, 2.500000000000000444 ) ;
#89 = VERTEX_POINT ( 'NONE', #409 ) ;
#90 = LINE ( 'NONE', #180, #1081 ) ;
#91 = ORIENTED_EDGE ( 'NONE', *, *, #148, .F. ) ;
#92 = DIRECTION ( 'NONE',  ( -0.000000000000000000, 1.000000000000000000, -0.000000000000000000 ) ) ;
#93 = LINE ( 'NONE', #593, #379 ) ;
#94 =( GEOMETRIC_REPRESENTATION_CONTEXT ( 3 ) GLOBAL_UNCERTAINTY_ASSIGNED_CONTEXT ( ( #323 ) ) GLOBAL_UNIT_ASSIGNED_CONTEXT ( ( #891, #681, #84 ) ) REPRESENTATION_CONTEXT ( 'NONE', 'WORKASPACE' ) );
#95 = ADVANCED_FACE ( 'NONE', ( #1132 ), #213, .F. ) ;
#96 = DIRECTION ( 'NONE',  ( 0.000000000000000000, -0.000000000000000000, -1.000000000000000000 ) ) ;
#97 = DIRECTION ( 'NONE',  ( -0.000000000000000000, -0.000000000000000000, -1.000000000000000000 ) ) ;
#98 = EDGE_CURVE ( 'NONE', #135, #628, #1053, .T. ) ;
#99 = CARTESIAN_POINT ( 'NONE',  ( -22.57536893972919501, 15.50000000000002487, 8.000000000000000000 ) ) ;
#100 = DIRECTION ( 'NONE',  ( 0.000000000000000000, 1.000000000000000000, 0.000000000000000000 ) ) ;
#101 = CARTESIAN_POINT ( 'NONE',  ( -44.00000000000000000, 19.00000000000002132, -31.40063693621518581 ) ) ;
#102 = ADVANCED_FACE ( 'NONE', ( #38 ), #1200, .F. ) ;
#103 = CARTESIAN_POINT ( 'NONE',  ( -27.07536893972919145, 15.50000000000002487, 8.000000000000000000 ) ) ;
#104 = FACE_BOUND ( 'NONE', #139, .T. ) ;
#105 = AXIS2_PLACEMENT_3D ( 'NONE', #184, #1175, #1182 ) ;
#106 = CARTESIAN_POINT ( 'NONE',  ( -44.00000000000000000, 19.00000000000002132, 8.000000000000000000 ) ) ;
#107 = EDGE_LOOP ( 'NONE', ( #697, #957, #1082, #790 ) ) ;
#108 = CARTESIAN_POINT ( 'NONE',  ( 20.57536893972919856, 3.500000000000005329, -0.001000000000013143153 ) ) ;
#109 = DIRECTION ( 'NONE',  ( 1.000000000000000000, 0.000000000000000000, 0.000000000000000000 ) ) ;
#110 = CARTESIAN_POINT ( 'NONE',  ( 0.000000000000000000, 2.081668171172168513E-14, 8.000000000000000000 ) ) ;
#111 = CARTESIAN_POINT ( 'NONE',  ( -44.00000000000000711, 0.000000000000000000, 0.000000000000000000 ) ) ;
#112 = ORIENTED_EDGE ( 'NONE', *, *, #48, .T. ) ;
#113 = CARTESIAN_POINT ( 'NONE',  ( 39.00000000000000000, 14.00000000000002309, 8.000000000000000000 ) ) ;
#114 = EDGE_CURVE ( 'NONE', #1016, #514, #509, .T. ) ;
#115 = ORIENTED_EDGE ( 'NONE', *, *, #375, .F. ) ;
#116 = FACE_BOUND ( 'NONE', #806, .T. ) ;
#117 = DIRECTION ( 'NONE',  ( 0.000000000000000000, 0.000000000000000000, 1.000000000000000000 ) ) ;
#118 = CARTESIAN_POINT ( 'NONE',  ( 10.02000000000000135, 2.081668171172168513E-14, 0.000000000000000000 ) ) ;
#119 = CARTESIAN_POINT ( 'NONE',  ( -34.51397612222025657, 10.23753564385178016, 8.000000000000000000 ) ) ;
#120 = AXIS2_PLACEMENT_3D ( 'NONE', #746, #62, #460 ) ;
#121 = CARTESIAN_POINT ( 'NONE',  ( -20.57536893972919856, 5.500000000000005329, 0.000000000000000000 ) ) ;
#122 = VECTOR ( 'NONE', #599, 1000.000000000000000 ) ;
#123 = ORIENTED_EDGE ( 'NONE', *, *, #1103, .F. ) ;
#124 = LINE ( 'NONE', #1221, #766 ) ;
#125 = VECTOR ( 'NONE', #86, 1000.000000000000000 ) ;
#126 = DIRECTION ( 'NONE',  ( -0.000000000000000000, -0.000000000000000000, -1.000000000000000000 ) ) ;
#127 = FACE_BOUND ( 'NONE', #508, .T. ) ;
#128 = ORIENTED_EDGE ( 'NONE', *, *, #114, .F. ) ;
#129 = DIRECTION ( 'NONE',  ( -0.000000000000000000, 0.000000000000000000, 1.000000000000000000 ) ) ;
#130 = EDGE_CURVE ( 'NONE', #195, #243, #124, .T. ) ;
#131 = ORIENTED_EDGE ( 'NONE', *, *, #87, .T. ) ;
#132 = CARTESIAN_POINT ( 'NONE',  ( -25.07536893972919145, 13.50000000000002487, 8.000000000000000000 ) ) ;
#133 = VECTOR ( 'NONE', #518, 1000.000000000000000 ) ;
#134 = LINE ( 'NONE', #819, #639 ) ;
#135 = VERTEX_POINT ( 'NONE', #809 ) ;
#136 = CIRCLE ( 'NONE', #1019, 2.000000000000000000 ) ;
#137 = CARTESIAN_POINT ( 'NONE',  ( 44.00000000000000000, 19.00000000000002487, 0.000000000000000000 ) ) ;
#138 = VECTOR ( 'NONE', #880, 1000.000000000000000 ) ;
#139 = EDGE_LOOP ( 'NONE', ( #579, #266 ) ) ;
#140 = CARTESIAN_POINT ( 'NONE',  ( -22.57536893972919501, 5.500000000000005329, 0.000000000000000000 ) ) ;
#141 = LINE ( 'NONE', #39, #480 ) ;
#142 = PRODUCT_DEFINITION_CONTEXT ( 'detailed design', #536, 'design' ) ;
#143 = DIRECTION ( 'NONE',  ( 0.000000000000000000, 0.000000000000000000, -1.000000000000000000 ) ) ;
#144 = VECTOR ( 'NONE', #964, 1000.000000000000000 ) ;
#145 = PRODUCT_DEFINITION_FORMATION_WITH_SPECIFIED_SOURCE ( 'å¯', '', #1216, .NOT_KNOWN. ) ;
#146 = ORIENTED_EDGE ( 'NONE', *, *, #976, .T. ) ;
#147 = CARTESIAN_POINT ( 'NONE',  ( 13.50000000000000178, 19.00000000000002487, 6.499999999999999112 ) ) ;
#148 = EDGE_CURVE ( 'NONE', #738, #650, #1101, .T. ) ;
#149 = FACE_OUTER_BOUND ( 'NONE', #963, .T. ) ;
#150 = DIRECTION ( 'NONE',  ( 0.000000000000000000, 1.000000000000000000, 0.000000000000000000 ) ) ;
#151 = ORIENTED_EDGE ( 'NONE', *, *, #257, .T. ) ;
#152 = CARTESIAN_POINT ( 'NONE',  ( -25.07536893972919145, 3.500000000000005329, 8.000000000000000000 ) ) ;
#153 = EDGE_LOOP ( 'NONE', ( #870, #984, #1157, #930 ) ) ;
#154 = EDGE_CURVE ( 'NONE', #609, #710, #334, .T. ) ;
#155 = AXIS2_PLACEMENT_3D ( 'NONE', #888, #1187, #726 ) ;
#156 = DIRECTION ( 'NONE',  ( 0.000000000000000000, 0.000000000000000000, -1.000000000000000000 ) ) ;
#157 = VERTEX_POINT ( 'NONE', #531 ) ;
#158 = FACE_OUTER_BOUND ( 'NONE', #166, .T. ) ;
#159 = VERTEX_POINT ( 'NONE', #998 ) ;
#160 = ORIENTED_EDGE ( 'NONE', *, *, #1076, .T. ) ;
#161 = CARTESIAN_POINT ( 'NONE',  ( -1.747018436130377772, 9.867055873000376565, 2.991599583197011469 ) ) ;
#162 = EDGE_LOOP ( 'NONE', ( #269, #1137, #11, #1139, #1004, #836, #47, #1210 ) ) ;
#163 = DIRECTION ( 'NONE',  ( -0.000000000000000000, 0.000000000000000000, -1.000000000000000000 ) ) ;
#164 = AXIS2_PLACEMENT_3D ( 'NONE', #925, #915, #910 ) ;
#165 = CARTESIAN_POINT ( 'NONE',  ( -1.002863666175952240, 9.970285956309972164, 5.735316543753834040 ) ) ;
#166 = EDGE_LOOP ( 'NONE', ( #339, #1172, #634, #763 ) ) ;
#167 = CYLINDRICAL_SURFACE ( 'NONE', #817, 2.000000000000001776 ) ;
#168 = ORIENTED_EDGE ( 'NONE', *, *, #818, .T. ) ;
#169 = CIRCLE ( 'NONE', #105, 2.000000000000001776 ) ;
#170 = LINE ( 'NONE', #385, #583 ) ;
#171 = VERTEX_POINT ( 'NONE', #1018 ) ;
#172 = DIRECTION ( 'NONE',  ( -1.000000000000000000, 0.000000000000000000, 0.000000000000000000 ) ) ;
#173 = AXIS2_PLACEMENT_3D ( 'NONE', #265, #624, #44 ) ;
#174 = CARTESIAN_POINT ( 'NONE',  ( -44.00000000000000000, 14.00000000000002487, -31.40063693621518581 ) ) ;
#175 = ADVANCED_FACE ( 'NONE', ( #116, #311, #1117, #435, #244 ), #340, .T. ) ;
#176 = ORIENTED_EDGE ( 'NONE', *, *, #291, .T. ) ;
#177 = CARTESIAN_POINT ( 'NONE',  ( 1.003054259475850918, 9.970269640868481886, 2.264768422192107611 ) ) ;
#178 = EDGE_CURVE ( 'NONE', #279, #1235, #992, .T. ) ;
#179 = VERTEX_POINT ( 'NONE', #14 ) ;
#180 = CARTESIAN_POINT ( 'NONE',  ( -27.07536893972919145, 5.500000000000005329, 0.000000000000000000 ) ) ;
#181 = ORIENTED_EDGE ( 'NONE', *, *, #797, .T. ) ;
#182 = FILL_AREA_STYLE ('',( #675 ) ) ;
#183 = EDGE_CURVE ( 'NONE', #4, #275, #415, .T. ) ;
#184 = CARTESIAN_POINT ( 'NONE',  ( -22.57536893972919501, 13.50000000000002487, 8.000000000000000000 ) ) ;
#185 = PLANE ( 'NONE',  #155 ) ;
#186 = LINE ( 'NONE', #975, #3 ) ;
#187 = EDGE_LOOP ( 'NONE', ( #1262, #1131, #617, #72 ) ) ;
#188 = VECTOR ( 'NONE', #693, 1000.000000000000000 ) ;
#189 = CARTESIAN_POINT ( 'NONE',  ( 1.505639638233486233, 9.906670848611259572, 2.677108923596538848 ) ) ;
#190 = VECTOR ( 'NONE', #535, 1000.000000000000000 ) ;
#191 = FACE_OUTER_BOUND ( 'NONE', #153, .T. ) ;
#192 = CARTESIAN_POINT ( 'NONE',  ( 20.57536893972919856, 13.50000000000002487, 0.000000000000000000 ) ) ;
#193 = FACE_OUTER_BOUND ( 'NONE', #770, .T. ) ;
#194 = AXIS2_PLACEMENT_3D ( 'NONE', #694, #411, #611 ) ;
#195 = VERTEX_POINT ( 'NONE', #326 ) ;
#196 = CARTESIAN_POINT ( 'NONE',  ( 13.50000000000000178, 2.081668171172168513E-14, 4.000000000000000000 ) ) ;
#197 = EDGE_CURVE ( 'NONE', #1217, #352, #704, .T. ) ;
#198 = CARTESIAN_POINT ( 'NONE',  ( 1.897675336676268421, 9.838791747409940669, 4.644924637967932313 ) ) ;
#199 = STYLED_ITEM ( 'NONE', ( #971 ), #413 ) ;
#200 = PRODUCT_CONTEXT ( 'NONE', #709, 'mechanical' ) ;
#201 = DIRECTION ( 'NONE',  ( 0.000000000000000000, 1.000000000000000000, 0.000000000000000000 ) ) ;
#202 = ORIENTED_EDGE ( 'NONE', *, *, #684, .T. ) ;
#203 = CARTESIAN_POINT ( 'NONE',  ( -22.57536893972919501, 13.50000000000002487, 0.000000000000000000 ) ) ;
#204 = EDGE_CURVE ( 'NONE', #738, #995, #24, .T. ) ;
#205 = ORIENTED_EDGE ( 'NONE', *, *, #1056, .T. ) ;
#206 = CARTESIAN_POINT ( 'NONE',  ( 2.000066098039230411, 9.818357072752004200, 4.131041645447605326 ) ) ;
#207 = FACE_OUTER_BOUND ( 'NONE', #537, .T. ) ;
#208 = CARTESIAN_POINT ( 'NONE',  ( -20.57536893972919856, 13.50000000000002487, 8.000000000000000000 ) ) ;
#209 = EDGE_CURVE ( 'NONE', #1237, #171, #219, .T. ) ;
#210 = VECTOR ( 'NONE', #904, 1000.000000000000000 ) ;
#211 = LINE ( 'NONE', #233, #612 ) ;
#212 = ORIENTED_EDGE ( 'NONE', *, *, #663, .T. ) ;
#213 = PLANE ( 'NONE',  #338 ) ;
#214 = CARTESIAN_POINT ( 'NONE',  ( -13.50000000000000711, 2.081668171172168513E-14, 4.000000000000000000 ) ) ;
#215 = DIRECTION ( 'NONE',  ( -1.000000000000000000, 0.000000000000000000, 0.000000000000000000 ) ) ;
#216 = VERTEX_POINT ( 'NONE', #1138 ) ;
#217 = FACE_OUTER_BOUND ( 'NONE', #660, .T. ) ;
#218 = ORIENTED_EDGE ( 'NONE', *, *, #965, .T. ) ;
#219 = LINE ( 'NONE', #229, #1039 ) ;
#220 = CARTESIAN_POINT ( 'NONE',  ( 0.000000000000000000, 0.000000000000000000, 0.000000000000000000 ) ) ;
#221 = CARTESIAN_POINT ( 'NONE',  ( -22.57536893972919501, 13.50000000000002487, -0.001000000000013143153 ) ) ;
#222 = EDGE_CURVE ( 'NONE', #936, #1099, #1252, .T. ) ;
#223 = CARTESIAN_POINT ( 'NONE',  ( 27.07536893972919145, 5.500000000000005329, 0.000000000000000000 ) ) ;
#224 = CIRCLE ( 'NONE', #120, 4.999999999999997335 ) ;
#225 = ORIENTED_EDGE ( 'NONE', *, *, #437, .T. ) ;
#226 = DIRECTION ( 'NONE',  ( 1.000000000000000000, 0.000000000000000000, 0.000000000000000000 ) ) ;
#227 = VECTOR ( 'NONE', #35, 1000.000000000000000 ) ;
#228 = EDGE_LOOP ( 'NONE', ( #740, #750, #329, #160 ) ) ;
#229 = CARTESIAN_POINT ( 'NONE',  ( 27.07536893972919145, 15.50000000000002487, 8.000000000000000000 ) ) ;
#230 = EDGE_CURVE ( 'NONE', #317, #626, #255, .T. ) ;
#231 = CARTESIAN_POINT ( 'NONE',  ( -22.57536893972919501, 3.500000000000005329, 0.000000000000000000 ) ) ;
#232 = EDGE_CURVE ( 'NONE', #543, #89, #1162, .T. ) ;
#233 = CARTESIAN_POINT ( 'NONE',  ( 44.00000000000000000, 14.00000000000002309, -31.40063693621518581 ) ) ;
#234 = EDGE_LOOP ( 'NONE', ( #1231, #530, #501, #830, #420, #66, #989, #691 ) ) ;
#235 = CARTESIAN_POINT ( 'NONE',  ( -22.57536893972919501, 5.500000000000005329, 8.000000000000000000 ) ) ;
#236 = EDGE_CURVE ( 'NONE', #325, #243, #1080, .T. ) ;
#237 = VERTEX_POINT ( 'NONE', #42 ) ;
#238 = ADVANCED_FACE ( 'NONE', ( #158 ), #167, .F. ) ;
#239 = DIRECTION ( 'NONE',  ( -0.000000000000000000, 0.000000000000000000, 1.000000000000000000 ) ) ;
#240 = VERTEX_POINT ( 'NONE', #843 ) ;
#241 = CARTESIAN_POINT ( 'NONE',  ( -1.600012578769343996, 9.893211139913315577, 2.771554891792562980 ) ) ;
#242 = AXIS2_PLACEMENT_3D ( 'NONE', #81, #479, #75 ) ;
#243 = VERTEX_POINT ( 'NONE', #53 ) ;
#244 = FACE_OUTER_BOUND ( 'NONE', #162, .T. ) ;
#245 = AXIS2_PLACEMENT_3D ( 'NONE', #119, #18, #900 ) ;
#246 = ADVANCED_FACE ( 'NONE', ( #452 ), #363, .F. ) ;
#247 = CYLINDRICAL_SURFACE ( 'NONE', #973, 2.500000000000000444 ) ;
#248 = ORIENTED_EDGE ( 'NONE', *, *, #1076, .F. ) ;
#249 = DIRECTION ( 'NONE',  ( -1.000000000000000000, 0.000000000000000000, 0.000000000000000000 ) ) ;
#250 = ORIENTED_EDGE ( 'NONE', *, *, #1174, .T. ) ;
#251 = LINE ( 'NONE', #263, #977 ) ;
#252 = VERTEX_POINT ( 'NONE', #948 ) ;
#253 = CARTESIAN_POINT ( 'NONE',  ( -0.2634693152592220144, 10.01736150686954119, 2.013101326133420077 ) ) ;
#254 = ORIENTED_EDGE ( 'NONE', *, *, #1122, .T. ) ;
#255 = LINE ( 'NONE', #931, #1211 ) ;
#256 = EDGE_LOOP ( 'NONE', ( #882, #52, #632, #1011 ) ) ;
#257 = EDGE_CURVE ( 'NONE', #41, #283, #423, .T. ) ;
#258 = CIRCLE ( 'NONE', #525, 2.299999999999996270 ) ;
#259 = ORIENTED_EDGE ( 'NONE', *, *, #1286, .F. ) ;
#260 = CARTESIAN_POINT ( 'NONE',  ( -27.07536893972919145, 3.500000000000005329, 8.000000000000000000 ) ) ;
#261 = AXIS2_PLACEMENT_3D ( 'NONE', #356, #850, #952 ) ;
#262 = VERTEX_POINT ( 'NONE', #1151 ) ;
#263 = CARTESIAN_POINT ( 'NONE',  ( -20.57536893972919856, 5.500000000000005329, 8.000000000000000000 ) ) ;
#264 = ORIENTED_EDGE ( 'NONE', *, *, #1070, .F. ) ;
#265 = CARTESIAN_POINT ( 'NONE',  ( -34.51397612222025657, 10.23753564385178016, 22.00000000000000000 ) ) ;
#266 = ORIENTED_EDGE ( 'NONE', *, *, #564, .F. ) ;
#267 = CARTESIAN_POINT ( 'NONE',  ( -22.57536893972919501, 5.500000000000005329, -0.001000000000013143153 ) ) ;
#268 = VECTOR ( 'NONE', #280, 1000.000000000000000 ) ;
#269 = ORIENTED_EDGE ( 'NONE', *, *, #222, .T. ) ;
#270 = DIRECTION ( 'NONE',  ( -0.000000000000000000, -0.000000000000000000, -1.000000000000000000 ) ) ;
#271 = VERTEX_POINT ( 'NONE', #458 ) ;
#272 = DIRECTION ( 'NONE',  ( 1.000000000000000000, 0.000000000000000000, 0.000000000000000000 ) ) ;
#273 = ORIENTED_EDGE ( 'NONE', *, *, #947, .T. ) ;
#274 = CARTESIAN_POINT ( 'NONE',  ( -6.938893903907228378E-15, 19.00000000000002487, 4.000000000000000000 ) ) ;
#275 = VERTEX_POINT ( 'NONE', #147 ) ;
#276 = CIRCLE ( 'NONE', #439, 2.500000000000000444 ) ;
#277 = VECTOR ( 'NONE', #517, 1000.000000000000000 ) ;
#278 = LINE ( 'NONE', #174, #138 ) ;
#279 = VERTEX_POINT ( 'NONE', #46 ) ;
#280 = DIRECTION ( 'NONE',  ( 3.652049423109064868E-16, 1.000000000000000000, 0.000000000000000000 ) ) ;
#281 = CARTESIAN_POINT ( 'NONE',  ( 1.008952215476160319, 9.971990808245683624, 5.746389601460482943 ) ) ;
#282 = DIRECTION ( 'NONE',  ( 0.000000000000000000, 0.000000000000000000, -1.000000000000000000 ) ) ;
#283 = VERTEX_POINT ( 'NONE', #351 ) ;
#284 = CARTESIAN_POINT ( 'NONE',  ( -13.50000000000000711, 19.00000000000002487, 4.000000000000000000 ) ) ;
#285 = CIRCLE ( 'NONE', #390, 2.000000000000001776 ) ;
#286 = DIRECTION ( 'NONE',  ( 1.000000000000000000, 0.000000000000000000, 0.000000000000000000 ) ) ;
#287 = AXIS2_PLACEMENT_3D ( 'NONE', #785, #878, #872 ) ;
#288 = EDGE_LOOP ( 'NONE', ( #1027, #441, #845, #613 ) ) ;
#289 = DIRECTION ( 'NONE',  ( -0.000000000000000000, 0.000000000000000000, 1.000000000000000000 ) ) ;
#290 = DIRECTION ( 'NONE',  ( 0.000000000000000000, 1.000000000000000000, 0.000000000000000000 ) ) ;
#291 = EDGE_CURVE ( 'NONE', #1059, #543, #320, .T. ) ;
#292 = CARTESIAN_POINT ( 'NONE',  ( 13.50000000000000178, 19.00000000000002487, 1.500000000000001332 ) ) ;
#293 = FACE_OUTER_BOUND ( 'NONE', #949, .T. ) ;
#294 = CARTESIAN_POINT ( 'NONE',  ( -44.00000000000000711, 0.000000000000000000, 8.000000000000000000 ) ) ;
#295 = EDGE_LOOP ( 'NONE', ( #1038, #978, #362, #854 ) ) ;
#296 = SURFACE_STYLE_FILL_AREA ( #182 ) ;
#297 = CARTESIAN_POINT ( 'NONE',  ( 0.2613529005564464991, 10.02000000000000313, 2.000000000000000000 ) ) ;
#298 = AXIS2_PLACEMENT_3D ( 'NONE', #1232, #751, #644 ) ;
#299 = CIRCLE ( 'NONE', #1020, 2.000000000000001776 ) ;
#300 = FACE_OUTER_BOUND ( 'NONE', #107, .T. ) ;
#301 = VECTOR ( 'NONE', #1165, 1000.000000000000000 ) ;
#302 = CARTESIAN_POINT ( 'NONE',  ( 27.07536893972919145, 13.50000000000002487, 0.000000000000000000 ) ) ;
#303 = CARTESIAN_POINT ( 'NONE',  ( -36.81397612222026083, 10.23753564385178016, 22.00000000000000000 ) ) ;
#304 = CIRCLE ( 'NONE', #647, 4.999999999999997335 ) ;
#305 =( LENGTH_UNIT ( ) NAMED_UNIT ( * ) SI_UNIT ( .MILLI., .METRE. ) );
#306 = LINE ( 'NONE', #99, #31 ) ;
#307 = UNCERTAINTY_MEASURE_WITH_UNIT (LENGTH_MEASURE( 1.000000000000000082E-05 ), #305, 'distance_accuracy_value', 'NONE');
#308 = ORIENTED_EDGE ( 'NONE', *, *, #596, .F. ) ;
#309 = CARTESIAN_POINT ( 'NONE',  ( 10.02000000000000135, 2.081668171172168513E-14, 8.000000000000000000 ) ) ;
#310 = EDGE_LOOP ( 'NONE', ( #123, #549, #1057, #1115 ) ) ;
#311 = FACE_BOUND ( 'NONE', #1233, .T. ) ;
#312 = CARTESIAN_POINT ( 'NONE',  ( 22.57536893972919501, 13.50000000000002487, 0.000000000000000000 ) ) ;
#313 = DIRECTION ( 'NONE',  ( 0.000000000000000000, 0.000000000000000000, 1.000000000000000000 ) ) ;
#314 = DIRECTION ( 'NONE',  ( 1.000000000000000000, 0.000000000000000000, 0.000000000000000000 ) ) ;
#315 = VERTEX_POINT ( 'NONE', #759 ) ;
#316 = CARTESIAN_POINT ( 'NONE',  ( -36.81397612222026083, 10.23753564385178016, 8.000000000000000000 ) ) ;
#317 = VERTEX_POINT ( 'NONE', #538 ) ;
#318 = DIRECTION ( 'NONE',  ( -0.000000000000000000, 1.000000000000000000, -0.000000000000000000 ) ) ;
#319 = EDGE_CURVE ( 'NONE', #628, #738, #251, .T. ) ;
#320 = CIRCLE ( 'NONE', #1153, 2.500000000000000444 ) ;
#321 = LINE ( 'NONE', #1134, #814 ) ;
#322 = FACE_BOUND ( 'NONE', #838, .T. ) ;
#323 = UNCERTAINTY_MEASURE_WITH_UNIT (LENGTH_MEASURE( 1.000000000000000082E-05 ), #891, 'distance_accuracy_value', 'NONE');
#324 = DIRECTION ( 'NONE',  ( 0.000000000000000000, 0.000000000000000000, -1.000000000000000000 ) ) ;
#325 = VERTEX_POINT ( 'NONE', #1247 ) ;
#326 = CARTESIAN_POINT ( 'NONE',  ( 22.57536893972919501, 3.500000000000005329, 8.000000000000000000 ) ) ;
#327 = LINE ( 'NONE', #1105, #85 ) ;
#328 = VECTOR ( 'NONE', #77, 1000.000000000000000 ) ;
#329 = ORIENTED_EDGE ( 'NONE', *, *, #130, .T. ) ;
#330 = CARTESIAN_POINT ( 'NONE',  ( 27.07536893972919145, 3.500000000000005329, 0.000000000000000000 ) ) ;
#331 = AXIS2_PLACEMENT_3D ( 'NONE', #515, #820, #5 ) ;
#332 = ORIENTED_EDGE ( 'NONE', *, *, #561, .T. ) ;
#333 = ADVANCED_FACE ( 'NONE', ( #442 ), #839, .F. ) ;
#334 = LINE ( 'NONE', #601, #440 ) ;
#335 = LINE ( 'NONE', #231, #422 ) ;
#336 = ADVANCED_FACE ( 'NONE', ( #855 ), #1156, .F. ) ;
#337 = DIRECTION ( 'NONE',  ( 1.000000000000000000, -0.000000000000000000, 0.000000000000000000 ) ) ;
#338 = AXIS2_PLACEMENT_3D ( 'NONE', #108, #30, #1005 ) ;
#339 = ORIENTED_EDGE ( 'NONE', *, *, #825, .F. ) ;
#340 = PLANE ( 'NONE',  #43 ) ;
#341 = EDGE_LOOP ( 'NONE', ( #743, #1251 ) ) ;
#342 = CARTESIAN_POINT ( 'NONE',  ( -13.50000000000000711, 19.00000000000002487, 4.000000000000000000 ) ) ;
#343 = CARTESIAN_POINT ( 'NONE',  ( 44.00000000000000000, -1.836970198721031955E-15, -1.387778780781445676E-14 ) ) ;
#344 = ORIENTED_EDGE ( 'NONE', *, *, #358, .T. ) ;
#345 = CARTESIAN_POINT ( 'NONE',  ( -25.07536893972919145, 5.500000000000005329, -0.001000000000013143153 ) ) ;
#346 = ORIENTED_EDGE ( 'NONE', *, *, #98, .T. ) ;
#347 = DIRECTION ( 'NONE',  ( 1.000000000000000000, 0.000000000000000000, 0.000000000000000000 ) ) ;
#348 = CARTESIAN_POINT ( 'NONE',  ( -7.173593401571990793E-15, 10.02000000000000135, 6.000000000000000000 ) ) ;
#349 = AXIS2_PLACEMENT_3D ( 'NONE', #1158, #1266, #347 ) ;
#350 = VERTEX_POINT ( 'NONE', #152 ) ;
#351 = CARTESIAN_POINT ( 'NONE',  ( -32.21397612222025231, 10.23753564385178016, 0.000000000000000000 ) ) ;
#352 = VERTEX_POINT ( 'NONE', #544 ) ;
#353 = ORIENTED_EDGE ( 'NONE', *, *, #736, .T. ) ;
#354 = FACE_OUTER_BOUND ( 'NONE', #641, .T. ) ;
#355 = EDGE_LOOP ( 'NONE', ( #1072, #254, #600, #181 ) ) ;
#356 = CARTESIAN_POINT ( 'NONE',  ( -34.51397612222025657, 10.23753564385178016, 0.000000000000000000 ) ) ;
#357 = FACE_OUTER_BOUND ( 'NONE', #76, .T. ) ;
#358 = EDGE_CURVE ( 'NONE', #1059, #315, #935, .T. ) ;
#359 = CIRCLE ( 'NONE', #1207, 2.500000000000000444 ) ;
#360 = CARTESIAN_POINT ( 'NONE',  ( -2.000051169756147385, 9.818360113639169384, 3.869969408254757326 ) ) ;
#361 = VECTOR ( 'NONE', #654, 1000.000000000000000 ) ;
#362 = ORIENTED_EDGE ( 'NONE', *, *, #789, .T. ) ;
#363 = CYLINDRICAL_SURFACE ( 'NONE', #527, 2.000000000000000000 ) ;
#364 = AXIS2_PLACEMENT_3D ( 'NONE', #1159, #1058, #286 ) ;
#365 = DIRECTION ( 'NONE',  ( -0.000000000000000000, -1.000000000000000000, -0.000000000000000000 ) ) ;
#366 = FACE_OUTER_BOUND ( 'NONE', #516, .T. ) ;
#367 = DIRECTION ( 'NONE',  ( 0.000000000000000000, -0.000000000000000000, -1.000000000000000000 ) ) ;
#368 = EDGE_LOOP ( 'NONE', ( #218, #176 ) ) ;
#369 = DIRECTION ( 'NONE',  ( 0.000000000000000000, 0.000000000000000000, 1.000000000000000000 ) ) ;
#370 = CIRCLE ( 'NONE', #1090, 2.000000000000000000 ) ;
#371 = CIRCLE ( 'NONE', #510, 2.000000000000001776 ) ;
#372 = VERTEX_POINT ( 'NONE', #497 ) ;
#373 = ADVANCED_FACE ( 'NONE', ( #1083 ), #1060, .F. ) ;
#374 = FACE_OUTER_BOUND ( 'NONE', #724, .T. ) ;
#375 = EDGE_CURVE ( 'NONE', #1235, #680, #136, .T. ) ;
#376 = ORIENTED_EDGE ( 'NONE', *, *, #1167, .F. ) ;
#377 = CARTESIAN_POINT ( 'NONE',  ( 36.95073787945838717, 9.764632541561127255, 0.000000000000000000 ) ) ;
#378 = LINE ( 'NONE', #587, #722 ) ;
#379 = VECTOR ( 'NONE', #477, 1000.000000000000000 ) ;
#380 = DIRECTION ( 'NONE',  ( 1.000000000000000000, 0.000000000000000000, 0.000000000000000000 ) ) ;
#381 = ORIENTED_EDGE ( 'NONE', *, *, #319, .F. ) ;
#382 = PRODUCT_RELATED_PRODUCT_CATEGORY ( 'part', '', ( #1216 ) ) ;
#383 = CARTESIAN_POINT ( 'NONE',  ( -10.02000000000000135, 2.081668171172168513E-14, 8.000000000000000000 ) ) ;
#384 = LINE ( 'NONE', #1194, #670 ) ;
#385 = CARTESIAN_POINT ( 'NONE',  ( -25.07536893972919145, 15.50000000000002487, 0.000000000000000000 ) ) ;
#386 = ORIENTED_EDGE ( 'NONE', *, *, #1167, .T. ) ;
#387 = CARTESIAN_POINT ( 'NONE',  ( -20.57536893972919856, 13.50000000000002487, 0.000000000000000000 ) ) ;
#388 = EDGE_CURVE ( 'NONE', #350, #29, #756, .T. ) ;
#389 = CARTESIAN_POINT ( 'NONE',  ( 1.947627970312960644, 9.829429297074470995, 3.474835176245992585 ) ) ;
#390 = AXIS2_PLACEMENT_3D ( 'NONE', #717, #28, #12 ) ;
#391 = LINE ( 'NONE', #1195, #667 ) ;
#392 = DIRECTION ( 'NONE',  ( 0.000000000000000000, 0.000000000000000000, 1.000000000000000000 ) ) ;
#393 = CLOSED_SHELL ( 'NONE', ( #671, #333, #1264, #1214, #1160, #1067, #472, #999, #1009, #175, #961, #1040, #246, #373, #82, #19, #779, #1243, #1267, #874, #906, #1062, #715, #986, #95, #730, #793, #102, #336, #238, #835, #1147, #519, #16, #761, #981 ) ) ;
#394 = ORIENTED_EDGE ( 'NONE', *, *, #1074, .F. ) ;
#395 = DIRECTION ( 'NONE',  ( 0.000000000000000000, 0.000000000000000000, 1.000000000000000000 ) ) ;
#396 = EDGE_CURVE ( 'NONE', #1217, #252, #489, .T. ) ;
#397 = CARTESIAN_POINT ( 'NONE',  ( 1.506975474190709763, 9.906464200109024176, 5.321332430454615015 ) ) ;
#398 = FACE_BOUND ( 'NONE', #234, .T. ) ;
#399 = DIRECTION ( 'NONE',  ( 0.000000000000000000, 0.000000000000000000, 1.000000000000000000 ) ) ;
#400 = VERTEX_POINT ( 'NONE', #377 ) ;
#401 = CARTESIAN_POINT ( 'NONE',  ( 27.07536893972919145, 3.500000000000005329, 0.000000000000000000 ) ) ;
#402 = AXIS2_PLACEMENT_3D ( 'NONE', #563, #956, #392 ) ;
#403 = DIRECTION ( 'NONE',  ( 1.000000000000000000, 0.000000000000000000, 0.000000000000000000 ) ) ;
#404 = CARTESIAN_POINT ( 'NONE',  ( -13.50000000000000711, 2.081668171172168513E-14, 1.499999999999999556 ) ) ;
#405 = FACE_OUTER_BOUND ( 'NONE', #1031, .T. ) ;
#406 = AXIS2_PLACEMENT_3D ( 'NONE', #1008, #495, #1188 ) ;
#407 = DIRECTION ( 'NONE',  ( 0.000000000000000000, 0.000000000000000000, -1.000000000000000000 ) ) ;
#408 = VERTEX_POINT ( 'NONE', #883 ) ;
#409 = CARTESIAN_POINT ( 'NONE',  ( -13.50000000000000711, 19.00000000000002487, 6.500000000000000888 ) ) ;
#410 = CARTESIAN_POINT ( 'NONE',  ( -34.51397612222025657, 10.23753564385178016, 8.000000000000000000 ) ) ;
#411 = DIRECTION ( 'NONE',  ( 0.000000000000000000, 1.000000000000000000, 0.000000000000000000 ) ) ;
#412 = DIRECTION ( 'NONE',  ( 0.000000000000000000, 0.000000000000000000, -1.000000000000000000 ) ) ;
#413 = MANIFOLD_SOLID_BREP ( '\X2\570689d2\X0\2', #393 ) ;
#414 = VERTEX_POINT ( 'NONE', #1294 ) ;
#415 = LINE ( 'NONE', #1206, #932 ) ;
#416 = CARTESIAN_POINT ( 'NONE',  ( -39.00000000000000000, 19.00000000000002487, 0.000000000000000000 ) ) ;
#417 = FACE_BOUND ( 'NONE', #1185, .T. ) ;
#418 = ORIENTED_EDGE ( 'NONE', *, *, #236, .T. ) ;
#419 = CARTESIAN_POINT ( 'NONE',  ( -22.57536893972919501, 15.50000000000002487, 0.000000000000000000 ) ) ;
#420 = ORIENTED_EDGE ( 'NONE', *, *, #526, .F. ) ;
#421 = DIRECTION ( 'NONE',  ( 0.000000000000000000, -0.000000000000000000, -1.000000000000000000 ) ) ;
#422 = VECTOR ( 'NONE', #811, 1000.000000000000000 ) ;
#423 = CIRCLE ( 'NONE', #261, 2.300000000000003375 ) ;
#424 = DIRECTION ( 'NONE',  ( -0.000000000000000000, 0.000000000000000000, -1.000000000000000000 ) ) ;
#425 = DIRECTION ( 'NONE',  ( 1.000000000000000000, 0.000000000000000000, 0.000000000000000000 ) ) ;
#426 = CIRCLE ( 'NONE', #685, 2.000000000000001776 ) ;
#427 = ORIENTED_EDGE ( 'NONE', *, *, #1174, .F. ) ;
#428 = DIRECTION ( 'NONE',  ( 0.000000000000000000, 0.000000000000000000, -1.000000000000000000 ) ) ;
#429 = DIRECTION ( 'NONE',  ( -0.000000000000000000, -0.000000000000000000, -1.000000000000000000 ) ) ;
#430 = AXIS2_PLACEMENT_3D ( 'NONE', #476, #958, #580 ) ;
#431 = ORIENTED_EDGE ( 'NONE', *, *, #222, .F. ) ;
#432 = CARTESIAN_POINT ( 'NONE',  ( 10.02000000000000135, 2.081668171172168513E-14, 8.000000000000000000 ) ) ;
#433 = EDGE_CURVE ( 'NONE', #33, #4, #926, .T. ) ;
#434 = VERTEX_POINT ( 'NONE', #383 ) ;
#435 = FACE_BOUND ( 'NONE', #445, .T. ) ;
#436 = CYLINDRICAL_SURFACE ( 'NONE', #26, 10.02000000000000135 ) ;
#437 = EDGE_CURVE ( 'NONE', #680, #1235, #370, .T. ) ;
#438 = CARTESIAN_POINT ( 'NONE',  ( -1.220489208572896445, 9.945986775509364719, 2.410236812479162438 ) ) ;
#439 = AXIS2_PLACEMENT_3D ( 'NONE', #284, #290, #676 ) ;
#440 = VECTOR ( 'NONE', #719, 1000.000000000000000 ) ;
#441 = ORIENTED_EDGE ( 'NONE', *, *, #1013, .T. ) ;
#442 = FACE_OUTER_BOUND ( 'NONE', #187, .T. ) ;
#443 = ORIENTED_EDGE ( 'NONE', *, *, #546, .T. ) ;
#444 = CYLINDRICAL_SURFACE ( 'NONE', #173, 2.300000000000003375 ) ;
#445 = EDGE_LOOP ( 'NONE', ( #20, #427 ) ) ;
#446 = DIRECTION ( 'NONE',  ( -1.000000000000000000, 0.000000000000000000, 0.000000000000000000 ) ) ;
#447 = VERTEX_POINT ( 'NONE', #387 ) ;
#448 = ORIENTED_EDGE ( 'NONE', *, *, #490, .F. ) ;
#449 = FACE_OUTER_BOUND ( 'NONE', #688, .T. ) ;
#450 = ORIENTED_EDGE ( 'NONE', *, *, #829, .F. ) ;
#451 = EDGE_CURVE ( 'NONE', #262, #680, #867, .T. ) ;
#452 = FACE_OUTER_BOUND ( 'NONE', #1024, .T. ) ;
#453 = AXIS2_PLACEMENT_3D ( 'NONE', #996, #324, #1218 ) ;
#454 = ORIENTED_EDGE ( 'NONE', *, *, #79, .F. ) ;
#455 = AXIS2_PLACEMENT_3D ( 'NONE', #459, #581, #1295 ) ;
#456 = CARTESIAN_POINT ( 'NONE',  ( 27.07536893972919145, 15.50000000000002487, -0.001000000000013143153 ) ) ;
#457 = ORIENTED_EDGE ( 'NONE', *, *, #852, .T. ) ;
#458 = CARTESIAN_POINT ( 'NONE',  ( -25.07536893972919145, 3.500000000000005329, 0.000000000000000000 ) ) ;
#459 = CARTESIAN_POINT ( 'NONE',  ( 25.07536893972919145, 13.50000000000002487, 0.000000000000000000 ) ) ;
#460 = DIRECTION ( 'NONE',  ( 1.000000000000000000, 0.000000000000000000, 0.000000000000000000 ) ) ;
#461 = DIRECTION ( 'NONE',  ( 0.000000000000000000, 0.000000000000000000, -1.000000000000000000 ) ) ;
#462 = EDGE_CURVE ( 'NONE', #954, #1166, #1271, .T. ) ;
#463 = VERTEX_POINT ( 'NONE', #661 ) ;
#464 = DIRECTION ( 'NONE',  ( -0.000000000000000000, 1.000000000000000000, -0.000000000000000000 ) ) ;
#465 = ORIENTED_EDGE ( 'NONE', *, *, #733, .T. ) ;
#466 = AXIS2_PLACEMENT_3D ( 'NONE', #962, #584, #762 ) ;
#467 = EDGE_CURVE ( 'NONE', #710, #1016, #788, .T. ) ;
#468 = DIRECTION ( 'NONE',  ( -0.000000000000000000, -0.000000000000000000, -1.000000000000000000 ) ) ;
#469 = ORIENTED_EDGE ( 'NONE', *, *, #204, .F. ) ;
#470 = DIRECTION ( 'NONE',  ( 0.000000000000000000, 1.000000000000000000, 0.000000000000000000 ) ) ;
#471 = LINE ( 'NONE', #401, #737 ) ;
#472 = ADVANCED_FACE ( 'NONE', ( #1280, #871 ), #771, .F. ) ;
#473 = ORIENTED_EDGE ( 'NONE', *, *, #649, .T. ) ;
#474 = CARTESIAN_POINT ( 'NONE',  ( -10.02000000000000135, 2.081668171172168513E-14, 0.000000000000000000 ) ) ;
#475 = ORIENTED_EDGE ( 'NONE', *, *, #396, .F. ) ;
#476 = CARTESIAN_POINT ( 'NONE',  ( -25.07536893972919145, 5.500000000000005329, 8.000000000000000000 ) ) ;
#477 = DIRECTION ( 'NONE',  ( 0.000000000000000000, -1.000000000000000000, 0.000000000000000000 ) ) ;
#478 = ORIENTED_EDGE ( 'NONE', *, *, #451, .T. ) ;
#479 = DIRECTION ( 'NONE',  ( -0.000000000000000000, 0.000000000000000000, 1.000000000000000000 ) ) ;
#480 = VECTOR ( 'NONE', #907, 1000.000000000000000 ) ;
#481 = ORIENTED_EDGE ( 'NONE', *, *, #582, .T. ) ;
#482 = DIRECTION ( 'NONE',  ( 0.000000000000000000, 0.000000000000000000, 1.000000000000000000 ) ) ;
#483 = VECTOR ( 'NONE', #711, 1000.000000000000000 ) ;
#484 = CARTESIAN_POINT ( 'NONE',  ( 13.50000000000000178, 2.081668171172168513E-14, 1.500000000000001332 ) ) ;
#485 = EDGE_CURVE ( 'NONE', #1143, #914, #864, .T. ) ;
#486 = DIRECTION ( 'NONE',  ( 1.000000000000000000, 0.000000000000000000, 0.000000000000000000 ) ) ;
#487 = DIRECTION ( 'NONE',  ( 0.000000000000000000, -0.000000000000000000, 1.000000000000000000 ) ) ;
#488 = EDGE_LOOP ( 'NONE', ( #1065, #974, #431, #376 ) ) ;
#489 = LINE ( 'NONE', #575, #144 ) ;
#490 = EDGE_CURVE ( 'NONE', #447, #626, #823, .T. ) ;
#491 = AXIS2_PLACEMENT_3D ( 'NONE', #1173, #666, #776 ) ;
#492 = CARTESIAN_POINT ( 'NONE',  ( 1.231426943177665878, 9.945773966616789252, 5.597236854680551765 ) ) ;
#493 = EDGE_CURVE ( 'NONE', #1099, #240, #304, .T. ) ;
#494 = DIRECTION ( 'NONE',  ( -0.000000000000000000, -0.000000000000000000, -1.000000000000000000 ) ) ;
#495 = DIRECTION ( 'NONE',  ( 0.000000000000000000, 1.000000000000000000, 0.000000000000000000 ) ) ;
#496 = ORIENTED_EDGE ( 'NONE', *, *, #602, .T. ) ;
#497 = CARTESIAN_POINT ( 'NONE',  ( -27.07536893972919145, 5.500000000000005329, 0.000000000000000000 ) ) ;
#498 = CARTESIAN_POINT ( 'NONE',  ( 0.5251298479355626103, 10.00914323829467456, 2.052650579563154221 ) ) ;
#499 = APPLICATION_PROTOCOL_DEFINITION ( 'draft international standard', 'automotive_design', 1998, #536 ) ;
#500 = PLANE ( 'NONE',  #1257 ) ;
#501 = ORIENTED_EDGE ( 'NONE', *, *, #467, .F. ) ;
#502 = CARTESIAN_POINT ( 'NONE',  ( 22.57536893972919501, 15.50000000000002487, 0.000000000000000000 ) ) ;
#503 = ORIENTED_EDGE ( 'NONE', *, *, #65, .F. ) ;
#504 = CARTESIAN_POINT ( 'NONE',  ( -6.938893903907228378E-15, 2.081668171172168513E-14, 6.000000000000000000 ) ) ;
#505 = DIRECTION ( 'NONE',  ( 1.000000000000000000, 0.000000000000000000, 0.000000000000000000 ) ) ;
#506 = CARTESIAN_POINT ( 'NONE',  ( -25.07536893972919145, 15.50000000000002487, 8.000000000000000000 ) ) ;
#507 = DIRECTION ( 'NONE',  ( -1.000000000000000000, 0.000000000000000000, 0.000000000000000000 ) ) ;
#508 = EDGE_LOOP ( 'NONE', ( #115, #574 ) ) ;
#509 = LINE ( 'NONE', #608, #991 ) ;
#510 = AXIS2_PLACEMENT_3D ( 'NONE', #1000, #96, #403 ) ;
#511 = CARTESIAN_POINT ( 'NONE',  ( -44.00000000000000000, 14.00000000000002487, 0.000000000000000000 ) ) ;
#512 = CYLINDRICAL_SURFACE ( 'NONE', #794, 2.000000000000001776 ) ;
#513 = VECTOR ( 'NONE', #728, 1000.000000000000000 ) ;
#514 = VERTEX_POINT ( 'NONE', #606 ) ;
#515 = CARTESIAN_POINT ( 'NONE',  ( -39.00000000000000000, 14.00000000000002309, 0.000000000000000000 ) ) ;
#516 = EDGE_LOOP ( 'NONE', ( #890, #842, #1253, #475 ) ) ;
#517 = DIRECTION ( 'NONE',  ( 1.000000000000000000, 0.000000000000000000, 0.000000000000000000 ) ) ;
#518 = DIRECTION ( 'NONE',  ( -0.000000000000000000, -0.000000000000000000, -1.000000000000000000 ) ) ;
#519 = ADVANCED_FACE ( 'NONE', ( #217 ), #21, .F. ) ;
#520 = ORIENTED_EDGE ( 'NONE', *, *, #755, .T. ) ;
#521 = DIRECTION ( 'NONE',  ( 0.000000000000000000, -0.000000000000000000, -1.000000000000000000 ) ) ;
#522 = VERTEX_POINT ( 'NONE', #316 ) ;
#523 = EDGE_CURVE ( 'NONE', #615, #1099, #211, .T. ) ;
#524 = DIRECTION ( 'NONE',  ( 1.000000000000000000, 0.000000000000000000, 0.000000000000000000 ) ) ;
#525 = AXIS2_PLACEMENT_3D ( 'NONE', #603, #1001, #922 ) ;
#526 = EDGE_CURVE ( 'NONE', #463, #1246, #1010, .T. ) ;
#527 = AXIS2_PLACEMENT_3D ( 'NONE', #731, #464, #550 ) ;
#528 = DIRECTION ( 'NONE',  ( 0.000000000000000000, 0.000000000000000000, -1.000000000000000000 ) ) ;
#529 = DIRECTION ( 'NONE',  ( 1.000000000000000000, 0.000000000000000000, 0.000000000000000000 ) ) ;
#530 = ORIENTED_EDGE ( 'NONE', *, *, #1256, .T. ) ;
#531 = CARTESIAN_POINT ( 'NONE',  ( -32.21397612222025231, 10.23753564385178016, 8.000000000000000000 ) ) ;
#532 = DIRECTION ( 'NONE',  ( 1.000000000000000000, 0.000000000000000000, 0.000000000000000000 ) ) ;
#533 = VECTOR ( 'NONE', #571, 1000.000000000000000 ) ;
#534 = VECTOR ( 'NONE', #270, 1000.000000000000000 ) ;
#535 = DIRECTION ( 'NONE',  ( 0.000000000000000000, -0.000000000000000000, 1.000000000000000000 ) ) ;
#536 = APPLICATION_CONTEXT ( 'automotive_design' ) ;
#537 = EDGE_LOOP ( 'NONE', ( #921, #457, #37, #815 ) ) ;
#538 = CARTESIAN_POINT ( 'NONE',  ( -25.07536893972919145, 15.50000000000002487, 0.000000000000000000 ) ) ;
#539 = DIRECTION ( 'NONE',  ( -0.000000000000000000, 1.000000000000000000, -0.000000000000000000 ) ) ;
#540 = CARTESIAN_POINT ( 'NONE',  ( -27.07536893972919145, 3.500000000000005329, 0.000000000000000000 ) ) ;
#541 = AXIS2_PLACEMENT_3D ( 'NONE', #101, #898, #725 ) ;
#542 = AXIS2_PLACEMENT_3D ( 'NONE', #235, #6, #621 ) ;
#543 = VERTEX_POINT ( 'NONE', #619 ) ;
#544 = CARTESIAN_POINT ( 'NONE',  ( 39.00000000000000000, 19.00000000000002487, 0.000000000000000000 ) ) ;
#545 = ORIENTED_EDGE ( 'NONE', *, *, #755, .F. ) ;
#546 = EDGE_CURVE ( 'NONE', #414, #400, #1047, .T. ) ;
#547 = EDGE_CURVE ( 'NONE', #54, #903, #1124, .T. ) ;
#548 = CARTESIAN_POINT ( 'NONE',  ( -1.999897198702537127, 9.818391477507683263, 4.262415206022548197 ) ) ;
#549 = ORIENTED_EDGE ( 'NONE', *, *, #48, .F. ) ;
#550 = DIRECTION ( 'NONE',  ( 0.000000000000000000, 0.000000000000000000, 1.000000000000000000 ) ) ;
#551 = LINE ( 'NONE', #1051, #780 ) ;
#552 = CARTESIAN_POINT ( 'NONE',  ( -1.321139618392878301, 9.932965661699128646, 2.492727789104615788 ) ) ;
#553 = ORIENTED_EDGE ( 'NONE', *, *, #73, .T. ) ;
#554 = CARTESIAN_POINT ( 'NONE',  ( -13.50000000000000711, 2.081668171172168513E-14, 6.500000000000000888 ) ) ;
#555 = AXIS2_PLACEMENT_3D ( 'NONE', #749, #156, #249 ) ;
#556 = ORIENTED_EDGE ( 'NONE', *, *, #720, .F. ) ;
#557 = AXIS2_PLACEMENT_3D ( 'NONE', #568, #1043, #163 ) ;
#558 = CARTESIAN_POINT ( 'NONE',  ( -0.1325029649091690187, 10.02000000000000313, 6.000000000000000000 ) ) ;
#559 = EDGE_LOOP ( 'NONE', ( #259, #250, #585, #443 ) ) ;
#560 = DIRECTION ( 'NONE',  ( 1.000000000000000000, 0.000000000000000000, 0.000000000000000000 ) ) ;
#561 = EDGE_CURVE ( 'NONE', #565, #216, #708, .T. ) ;
#562 = EDGE_LOOP ( 'NONE', ( #496, #386, #758, #473 ) ) ;
#563 = CARTESIAN_POINT ( 'NONE',  ( 13.50000000000000178, 19.00000000000002487, 4.000000000000000000 ) ) ;
#564 = EDGE_CURVE ( 'NONE', #283, #41, #714, .T. ) ;
#565 = VERTEX_POINT ( 'NONE', #1212 ) ;
#566 = CARTESIAN_POINT ( 'NONE',  ( 13.50000000000000178, 2.081668171172168513E-14, 4.000000000000000000 ) ) ;
#567 = AXIS2_PLACEMENT_3D ( 'NONE', #456, #150, #933 ) ;
#568 = CARTESIAN_POINT ( 'NONE',  ( 44.00000000000000000, 19.00000000000002487, -31.40063693621518581 ) ) ;
#569 = CYLINDRICAL_SURFACE ( 'NONE', #1255, 2.000000000000001776 ) ;
#570 = ORIENTED_EDGE ( 'NONE', *, *, #154, .F. ) ;
#571 = DIRECTION ( 'NONE',  ( 0.000000000000000000, 1.000000000000000000, 0.000000000000000000 ) ) ;
#572 = CARTESIAN_POINT ( 'NONE',  ( 1.220740821250550612, 9.945963322193025036, 2.410365349079593322 ) ) ;
#573 = CARTESIAN_POINT ( 'NONE',  ( 22.57536893972919501, 13.50000000000002487, -0.001000000000013143153 ) ) ;
#574 = ORIENTED_EDGE ( 'NONE', *, *, #437, .F. ) ;
#575 = CARTESIAN_POINT ( 'NONE',  ( -39.00000000000000000, 19.00000000000002487, 8.000000000000000000 ) ) ;
#576 = DIRECTION ( 'NONE',  ( 0.000000000000000000, -1.000000000000000000, 0.000000000000000000 ) ) ;
#577 = CYLINDRICAL_SURFACE ( 'NONE', #727, 4.999999999999997335 ) ;
#578 = EDGE_CURVE ( 'NONE', #1279, #275, #1241, .T. ) ;
#579 = ORIENTED_EDGE ( 'NONE', *, *, #257, .F. ) ;
#580 = DIRECTION ( 'NONE',  ( 1.000000000000000000, 0.000000000000000000, 0.000000000000000000 ) ) ;
#581 = DIRECTION ( 'NONE',  ( -0.000000000000000000, 0.000000000000000000, 1.000000000000000000 ) ) ;
#582 = EDGE_CURVE ( 'NONE', #615, #718, #1015, .T. ) ;
#583 = VECTOR ( 'NONE', #659, 1000.000000000000000 ) ;
#584 = DIRECTION ( 'NONE',  ( -1.000000000000000000, 0.000000000000000000, 0.000000000000000000 ) ) ;
#585 = ORIENTED_EDGE ( 'NONE', *, *, #1234, .T. ) ;
#586 = PRESENTATION_LAYER_ASSIGNMENT (  '', '', ( #199 ) ) ;
#587 = CARTESIAN_POINT ( 'NONE',  ( 0.000000000000000000, 19.00000000000002487, 8.000000000000000000 ) ) ;
#588 = EDGE_CURVE ( 'NONE', #514, #171, #285, .T. ) ;
#589 = DIRECTION ( 'NONE',  ( -0.000000000000000000, 1.000000000000000000, -0.000000000000000000 ) ) ;
#590 = CARTESIAN_POINT ( 'NONE',  ( 44.00000000000000000, -1.836970198721031955E-15, 8.000000000000000000 ) ) ;
#591 = DIRECTION ( 'NONE',  ( -0.000000000000000000, 0.000000000000000000, 1.000000000000000000 ) ) ;
#592 = EDGE_CURVE ( 'NONE', #195, #609, #1006, .T. ) ;
#593 = CARTESIAN_POINT ( 'NONE',  ( -20.57536893972919856, 3.500000000000005329, 0.000000000000000000 ) ) ;
#594 = AXIS2_PLACEMENT_3D ( 'NONE', #1127, #1012, #428 ) ;
#595 = DIRECTION ( 'NONE',  ( -1.000000000000000000, -0.000000000000000000, -0.000000000000000000 ) ) ;
#596 = EDGE_CURVE ( 'NONE', #171, #179, #1108, .T. ) ;
#597 = FACE_BOUND ( 'NONE', #1093, .T. ) ;
#598 = VERTEX_POINT ( 'NONE', #432 ) ;
#599 = DIRECTION ( 'NONE',  ( -3.652049423109063882E-16, -1.000000000000000000, 0.000000000000000000 ) ) ;
#600 = ORIENTED_EDGE ( 'NONE', *, *, #909, .T. ) ;
#601 = CARTESIAN_POINT ( 'NONE',  ( 20.57536893972919856, 5.500000000000005329, 0.000000000000000000 ) ) ;
#602 = EDGE_CURVE ( 'NONE', #1143, #718, #1003, .T. ) ;
#603 = CARTESIAN_POINT ( 'NONE',  ( 34.65073787945839001, 9.764632541561127255, 8.000000000000000000 ) ) ;
#604 = FACE_BOUND ( 'NONE', #341, .T. ) ;
#605 = ORIENTED_EDGE ( 'NONE', *, *, #833, .F. ) ;
#606 = CARTESIAN_POINT ( 'NONE',  ( 20.57536893972919856, 13.50000000000002487, 8.000000000000000000 ) ) ;
#607 = ORIENTED_EDGE ( 'NONE', *, *, #291, .F. ) ;
#608 = CARTESIAN_POINT ( 'NONE',  ( 20.57536893972919856, 13.50000000000002487, 8.000000000000000000 ) ) ;
#609 = VERTEX_POINT ( 'NONE', #1114 ) ;
#610 = CYLINDRICAL_SURFACE ( 'NONE', #802, 2.000000000000000000 ) ;
#611 = DIRECTION ( 'NONE',  ( 0.000000000000000000, 0.000000000000000000, 1.000000000000000000 ) ) ;
#612 = VECTOR ( 'NONE', #807, 1000.000000000000000 ) ;
#613 = ORIENTED_EDGE ( 'NONE', *, *, #36, .F. ) ;
#614 = CARTESIAN_POINT ( 'NONE',  ( 44.00000000000000000, 14.00000000000002309, 0.000000000000000000 ) ) ;
#615 = VERTEX_POINT ( 'NONE', #614 ) ;
#616 = DIRECTION ( 'NONE',  ( -1.000000000000000000, 0.000000000000000000, 0.000000000000000000 ) ) ;
#617 = ORIENTED_EDGE ( 'NONE', *, *, #657, .T. ) ;
#618 = DIRECTION ( 'NONE',  ( 1.000000000000000000, 0.000000000000000000, 0.000000000000000000 ) ) ;
#619 = CARTESIAN_POINT ( 'NONE',  ( -13.50000000000000711, 2.081668171172168513E-14, 6.500000000000000888 ) ) ;
#620 = ORIENTED_EDGE ( 'NONE', *, *, #230, .F. ) ;
#621 = DIRECTION ( 'NONE',  ( 1.000000000000000000, 0.000000000000000000, 0.000000000000000000 ) ) ;
#622 = CARTESIAN_POINT ( 'NONE',  ( -0.000000000000000000, 2.081668171172168513E-14, 0.000000000000000000 ) ) ;
#623 = VECTOR ( 'NONE', #1236, 1000.000000000000000 ) ;
#624 = DIRECTION ( 'NONE',  ( -0.000000000000000000, -0.000000000000000000, -1.000000000000000000 ) ) ;
#625 = VECTOR ( 'NONE', #97, 1000.000000000000000 ) ;
#626 = VERTEX_POINT ( 'NONE', #419 ) ;
#627 = DIRECTION ( 'NONE',  ( 0.000000000000000000, 0.000000000000000000, -1.000000000000000000 ) ) ;
#628 = VERTEX_POINT ( 'NONE', #121 ) ;
#629 = LINE ( 'NONE', #27, #133 ) ;
#630 =( GEOMETRIC_REPRESENTATION_CONTEXT ( 3 ) GLOBAL_UNCERTAINTY_ASSIGNED_CONTEXT ( ( #307 ) ) GLOBAL_UNIT_ASSIGNED_CONTEXT ( ( #305, #1087, #887 ) ) REPRESENTATION_CONTEXT ( 'NONE', 'WORKASPACE' ) );
#631 = DIRECTION ( 'NONE',  ( 0.000000000000000000, 1.000000000000000000, 0.000000000000000000 ) ) ;
#632 = ORIENTED_EDGE ( 'NONE', *, *, #493, .F. ) ;
#633 = DIRECTION ( 'NONE',  ( 0.000000000000000000, 0.000000000000000000, -1.000000000000000000 ) ) ;
#634 = ORIENTED_EDGE ( 'NONE', *, *, #388, .F. ) ;
#635 = EDGE_CURVE ( 'NONE', #1166, #1217, #944, .T. ) ;
#636 = CARTESIAN_POINT ( 'NONE',  ( 20.57536893972919856, 5.500000000000005329, 0.000000000000000000 ) ) ;
#637 = ORIENTED_EDGE ( 'NONE', *, *, #578, .F. ) ;
#638 = ORIENTED_EDGE ( 'NONE', *, *, #56, .F. ) ;
#639 = VECTOR ( 'NONE', #699, 1000.000000000000000 ) ;
#640 = VECTOR ( 'NONE', #60, 1000.000000000000000 ) ;
#641 = EDGE_LOOP ( 'NONE', ( #1293, #205, #1042, #960 ) ) ;
#642 = CARTESIAN_POINT ( 'NONE',  ( -0.6460382369419127579, 9.999888518651427916, 5.897316690491865465 ) ) ;
#643 = ORIENTED_EDGE ( 'NONE', *, *, #1122, .F. ) ;
#644 = DIRECTION ( 'NONE',  ( -1.000000000000000000, 0.000000000000000000, 0.000000000000000000 ) ) ;
#645 = PLANE ( 'NONE',  #557 ) ;
#646 = PRODUCT_DEFINITION_SHAPE ( 'NONE', 'NONE',  #677 ) ;
#647 = AXIS2_PLACEMENT_3D ( 'NONE', #113, #591, #226 ) ;
#648 = FACE_OUTER_BOUND ( 'NONE', #288, .T. ) ;
#649 = EDGE_CURVE ( 'NONE', #598, #1143, #1198, .T. ) ;
#650 = VERTEX_POINT ( 'NONE', #1098 ) ;
#651 = ORIENTED_EDGE ( 'NONE', *, *, #232, .T. ) ;
#652 = DIRECTION ( 'NONE',  ( 1.000000000000000000, -0.000000000000000000, 0.000000000000000000 ) ) ;
#653 = ORIENTED_EDGE ( 'NONE', *, *, #1260, .T. ) ;
#654 = DIRECTION ( 'NONE',  ( -0.000000000000000000, 1.000000000000000000, -0.000000000000000000 ) ) ;
#655 = DIRECTION ( 'NONE',  ( 0.000000000000000000, 0.000000000000000000, -1.000000000000000000 ) ) ;
#656 = CARTESIAN_POINT ( 'NONE',  ( 22.57536893972919501, 3.500000000000005329, 0.000000000000000000 ) ) ;
#657 = EDGE_CURVE ( 'NONE', #400, #414, #1119, .T. ) ;
#658 = ORIENTED_EDGE ( 'NONE', *, *, #825, .T. ) ;
#659 = DIRECTION ( 'NONE',  ( -0.000000000000000000, 0.000000000000000000, -1.000000000000000000 ) ) ;
#660 = EDGE_LOOP ( 'NONE', ( #450, #570, #1226, #394 ) ) ;
#661 = CARTESIAN_POINT ( 'NONE',  ( 25.07536893972919145, 3.500000000000005329, 0.000000000000000000 ) ) ;
#662 = CARTESIAN_POINT ( 'NONE',  ( 0.5213351806319194148, 10.00726193099133532, 5.935337745787847119 ) ) ;
#663 = EDGE_CURVE ( 'NONE', #954, #903, #1148, .T. ) ;
#664 = CARTESIAN_POINT ( 'NONE',  ( -27.07536893972919145, 13.50000000000002487, 8.000000000000000000 ) ) ;
#665 = ORIENTED_EDGE ( 'NONE', *, *, #209, .F. ) ;
#666 = DIRECTION ( 'NONE',  ( 0.000000000000000000, 1.000000000000000000, 0.000000000000000000 ) ) ;
#667 = VECTOR ( 'NONE', #494, 1000.000000000000000 ) ;
#668 = CARTESIAN_POINT ( 'NONE',  ( -44.00000000000000000, 14.00000000000002487, 8.000000000000000000 ) ) ;
#669 = VECTOR ( 'NONE', #813, 1000.000000000000000 ) ;
#670 = VECTOR ( 'NONE', #972, 1000.000000000000000 ) ;
#671 = ADVANCED_FACE ( 'NONE', ( #648 ), #444, .F. ) ;
#672 = CARTESIAN_POINT ( 'NONE',  ( -32.21397612222025231, 10.23753564385178016, 22.00000000000000000 ) ) ;
#673 = CARTESIAN_POINT ( 'NONE',  ( -25.07536893972919145, 3.500000000000005329, 8.000000000000000000 ) ) ;
#674 = ORIENTED_EDGE ( 'NONE', *, *, #1013, .F. ) ;
#675 = FILL_AREA_STYLE_COLOUR ( '', #983 ) ;
#676 = DIRECTION ( 'NONE',  ( 0.000000000000000000, 0.000000000000000000, 1.000000000000000000 ) ) ;
#677 = PRODUCT_DEFINITION ( 'æ™', '', #145, #142 ) ;
#678 = CARTESIAN_POINT ( 'NONE',  ( -34.51397612222025657, 10.23753564385178016, 22.00000000000000000 ) ) ;
#679 = AXIS2_PLACEMENT_3D ( 'NONE', #899, #80, #879 ) ;
#680 = VERTEX_POINT ( 'NONE', #1154 ) ;
#681 =( NAMED_UNIT ( * ) PLANE_ANGLE_UNIT ( ) SI_UNIT ( $, .RADIAN. ) );
#682 = CARTESIAN_POINT ( 'NONE',  ( 1.321190731745223168, 9.932951881152678908, 2.492868097810184036 ) ) ;
#683 = VECTOR ( 'NONE', #1184, 1000.000000000000000 ) ;
#684 = EDGE_CURVE ( 'NONE', #325, #565, #1048, .T. ) ;
#685 = AXIS2_PLACEMENT_3D ( 'NONE', #1292, #994, #314 ) ;
#686 = DIRECTION ( 'NONE',  ( -0.000000000000000000, -0.000000000000000000, -1.000000000000000000 ) ) ;
#687 = CARTESIAN_POINT ( 'NONE',  ( 0.000000000000000000, 2.081668171172168513E-14, 8.000000000000000000 ) ) ;
#688 = EDGE_LOOP ( 'NONE', ( #1163, #824, #1277, #520 ) ) ;
#689 = DIRECTION ( 'NONE',  ( -1.000000000000000000, 0.000000000000000000, 0.000000000000000000 ) ) ;
#690 = EDGE_CURVE ( 'NONE', #279, #262, #953, .T. ) ;
#691 = ORIENTED_EDGE ( 'NONE', *, *, #23, .T. ) ;
#692 = CARTESIAN_POINT ( 'NONE',  ( 0.8862812621714495354, 9.981456955514911300, 2.202365914614159426 ) ) ;
#693 = DIRECTION ( 'NONE',  ( 1.000000000000000000, 0.000000000000000000, 0.000000000000000000 ) ) ;
#694 = CARTESIAN_POINT ( 'NONE',  ( -13.50000000000000711, 2.081668171172168513E-14, 4.000000000000000000 ) ) ;
#695 = ORIENTED_EDGE ( 'NONE', *, *, #10, .T. ) ;
#696 = DIRECTION ( 'NONE',  ( -0.000000000000000000, -0.000000000000000000, -1.000000000000000000 ) ) ;
#697 = ORIENTED_EDGE ( 'NONE', *, *, #1116, .T. ) ;
#698 = CARTESIAN_POINT ( 'NONE',  ( 0.000000000000000000, 0.000000000000000000, 8.000000000000000000 ) ) ;
#699 = DIRECTION ( 'NONE',  ( -0.000000000000000000, 1.000000000000000000, -0.000000000000000000 ) ) ;
#700 = CARTESIAN_POINT ( 'NONE',  ( 25.07536893972919145, 5.500000000000005329, -0.001000000000013143153 ) ) ;
#701 = DIRECTION ( 'NONE',  ( 0.000000000000000000, -0.000000000000000000, -1.000000000000000000 ) ) ;
#702 = AXIS2_PLACEMENT_3D ( 'NONE', #221, #528, #826 ) ;
#703 = ORIENTED_EDGE ( 'NONE', *, *, #197, .T. ) ;
#704 = LINE ( 'NONE', #1110, #277 ) ;
#705 = DIRECTION ( 'NONE',  ( -0.000000000000000000, 0.000000000000000000, 1.000000000000000000 ) ) ;
#706 = LINE ( 'NONE', #622, #1149 ) ;
#707 = DIRECTION ( 'NONE',  ( 1.000000000000000000, 0.000000000000000000, 0.000000000000000000 ) ) ;
#708 = LINE ( 'NONE', #302, #1179 ) ;
#709 = APPLICATION_CONTEXT ( 'automotive_design' ) ;
#710 = VERTEX_POINT ( 'NONE', #636 ) ;
#711 = DIRECTION ( 'NONE',  ( 0.000000000000000000, 1.000000000000000000, 0.000000000000000000 ) ) ;
#712 = AXIS2_PLACEMENT_3D ( 'NONE', #220, #803, #1291 ) ;
#713 = DIRECTION ( 'NONE',  ( -1.000000000000000000, 0.000000000000000000, 0.000000000000000000 ) ) ;
#714 = CIRCLE ( 'NONE', #1287, 2.300000000000003375 ) ;
#715 = ADVANCED_FACE ( 'NONE', ( #449 ), #1230, .F. ) ;
#716 = EDGE_LOOP ( 'NONE', ( #13, #70, #844, #22 ) ) ;
#717 = CARTESIAN_POINT ( 'NONE',  ( 22.57536893972919501, 13.50000000000002487, 8.000000000000000000 ) ) ;
#718 = VERTEX_POINT ( 'NONE', #343 ) ;
#719 = DIRECTION ( 'NONE',  ( -0.000000000000000000, 0.000000000000000000, -1.000000000000000000 ) ) ;
#720 = EDGE_CURVE ( 'NONE', #408, #775, #58, .T. ) ;
#721 = CARTESIAN_POINT ( 'NONE',  ( 39.00000000000000000, 14.00000000000002309, 0.000000000000000000 ) ) ;
#722 = VECTOR ( 'NONE', #1276, 1000.000000000000000 ) ;
#723 = CARTESIAN_POINT ( 'NONE',  ( -44.00000000000000711, 0.000000000000000000, -31.40063693621518581 ) ) ;
#724 = EDGE_LOOP ( 'NONE', ( #821, #49, #862, #556 ) ) ;
#725 = DIRECTION ( 'NONE',  ( -3.652049423109064868E-16, -1.000000000000000000, 0.000000000000000000 ) ) ;
#726 = DIRECTION ( 'NONE',  ( 0.000000000000000000, -0.000000000000000000, 1.000000000000000000 ) ) ;
#727 = AXIS2_PLACEMENT_3D ( 'NONE', #757, #487, #272 ) ;
#728 = DIRECTION ( 'NONE',  ( 0.000000000000000000, 0.000000000000000000, 1.000000000000000000 ) ) ;
#729 = ORIENTED_EDGE ( 'NONE', *, *, #178, .F. ) ;
#730 = ADVANCED_FACE ( 'NONE', ( #354 ), #1028, .F. ) ;
#731 = CARTESIAN_POINT ( 'NONE',  ( -6.938893903907228378E-15, 2.081668171172168513E-14, 4.000000000000000000 ) ) ;
#732 = ORIENTED_EDGE ( 'NONE', *, *, #98, .F. ) ;
#733 = EDGE_CURVE ( 'NONE', #372, #408, #741, .T. ) ;
#734 = ORIENTED_EDGE ( 'NONE', *, *, #358, .F. ) ;
#735 = CARTESIAN_POINT ( 'NONE',  ( -1.947061974584371580, 9.829530307926127364, 4.526094415854188036 ) ) ;
#736 = EDGE_CURVE ( 'NONE', #775, #29, #853, .T. ) ;
#737 = VECTOR ( 'NONE', #576, 1000.000000000000000 ) ;
#738 = VERTEX_POINT ( 'NONE', #769 ) ;
#739 = CARTESIAN_POINT ( 'NONE',  ( -13.50000000000000711, 2.081668171172168513E-14, 4.000000000000000000 ) ) ;
#740 = ORIENTED_EDGE ( 'NONE', *, *, #526, .T. ) ;
#741 = LINE ( 'NONE', #540, #1133 ) ;
#742 = ORIENTED_EDGE ( 'NONE', *, *, #154, .T. ) ;
#743 = ORIENTED_EDGE ( 'NONE', *, *, #546, .F. ) ;
#744 = EDGE_CURVE ( 'NONE', #29, #372, #90, .T. ) ;
#745 = AXIS2_PLACEMENT_3D ( 'NONE', #410, #239, #618 ) ;
#746 = CARTESIAN_POINT ( 'NONE',  ( -39.00000000000000000, 14.00000000000002309, 8.000000000000000000 ) ) ;
#747 = AXIS2_PLACEMENT_3D ( 'NONE', #196, #92, #1066 ) ;
#748 = CIRCLE ( 'NONE', #364, 10.02000000000000135 ) ;
#749 = CARTESIAN_POINT ( 'NONE',  ( 34.65073787945839001, 9.764632541561127255, 0.000000000000000000 ) ) ;
#750 = ORIENTED_EDGE ( 'NONE', *, *, #1074, .T. ) ;
#751 = DIRECTION ( 'NONE',  ( -0.000000000000000000, -0.000000000000000000, -1.000000000000000000 ) ) ;
#752 = CIRCLE ( 'NONE', #245, 2.300000000000003375 ) ;
#753 = EDGE_LOOP ( 'NONE', ( #503, #248, #1270, #917 ) ) ;
#754 = CYLINDRICAL_SURFACE ( 'NONE', #349, 4.999999999999997335 ) ;
#755 = EDGE_CURVE ( 'NONE', #995, #447, #186, .T. ) ;
#756 = CIRCLE ( 'NONE', #430, 2.000000000000001776 ) ;
#757 = CARTESIAN_POINT ( 'NONE',  ( 39.00000000000000000, 14.00000000000002309, -31.40063693621518581 ) ) ;
#758 = ORIENTED_EDGE ( 'NONE', *, *, #969, .F. ) ;
#759 = CARTESIAN_POINT ( 'NONE',  ( -13.50000000000000711, 19.00000000000002487, 1.499999999999999556 ) ) ;
#760 = ORIENTED_EDGE ( 'NONE', *, *, #588, .F. ) ;
#761 = ADVANCED_FACE ( 'NONE', ( #1171 ), #569, .F. ) ;
#762 = DIRECTION ( 'NONE',  ( 0.000000000000000000, 0.000000000000000000, 1.000000000000000000 ) ) ;
#763 = ORIENTED_EDGE ( 'NONE', *, *, #797, .F. ) ;
#764 = CARTESIAN_POINT ( 'NONE',  ( -44.00000000000000000, 19.00000000000002132, 0.000000000000000000 ) ) ;
#765 = AXIS2_PLACEMENT_3D ( 'NONE', #140, #801, #524 ) ;
#766 = VECTOR ( 'NONE', #1227, 1000.000000000000000 ) ;
#767 = CARTESIAN_POINT ( 'NONE',  ( -6.693964269848679550E-15, 10.02000000000000135, 2.000000000000000000 ) ) ;
#768 = CARTESIAN_POINT ( 'NONE',  ( -27.07536893972919145, 3.500000000000005329, 8.000000000000000000 ) ) ;
#769 = CARTESIAN_POINT ( 'NONE',  ( -20.57536893972919856, 5.500000000000005329, 8.000000000000000000 ) ) ;
#770 = EDGE_LOOP ( 'NONE', ( #353, #1240, #465, #783 ) ) ;
#771 = PLANE ( 'NONE',  #491 ) ;
#772 = CARTESIAN_POINT ( 'NONE',  ( 0.1324687472188731396, 10.02000000000000313, 6.000000000000000888 ) ) ;
#773 = DIRECTION ( 'NONE',  ( 1.000000000000000000, -0.000000000000000000, 0.000000000000000000 ) ) ;
#774 = FACE_OUTER_BOUND ( 'NONE', #901, .T. ) ;
#775 = VERTEX_POINT ( 'NONE', #664 ) ;
#776 = DIRECTION ( 'NONE',  ( 0.000000000000000000, -0.000000000000000000, 1.000000000000000000 ) ) ;
#777 = CARTESIAN_POINT ( 'NONE',  ( 25.07536893972919145, 5.500000000000005329, 0.000000000000000000 ) ) ;
#778 = AXIS2_PLACEMENT_3D ( 'NONE', #1204, #701, #529 ) ;
#779 = ADVANCED_FACE ( 'NONE', ( #968 ), #577, .T. ) ;
#780 = VECTOR ( 'NONE', #365, 1000.000000000000000 ) ;
#781 = LINE ( 'NONE', #768, #188 ) ;
#782 = DIRECTION ( 'NONE',  ( -1.000000000000000000, 0.000000000000000000, 0.000000000000000000 ) ) ;
#783 = ORIENTED_EDGE ( 'NONE', *, *, #720, .T. ) ;
#784 = CARTESIAN_POINT ( 'NONE',  ( -13.50000000000000711, 2.081668171172168513E-14, 1.499999999999999556 ) ) ;
#785 = CARTESIAN_POINT ( 'NONE',  ( 13.50000000000000178, 2.081668171172168513E-14, 4.000000000000000000 ) ) ;
#786 = CYLINDRICAL_SURFACE ( 'NONE', #1140, 2.299999999999996270 ) ;
#787 = CARTESIAN_POINT ( 'NONE',  ( 0.000000000000000000, 0.000000000000000000, 0.000000000000000000 ) ) ;
#788 = LINE ( 'NONE', #877, #533 ) ;
#789 = EDGE_CURVE ( 'NONE', #598, #434, #748, .T. ) ;
#790 = ORIENTED_EDGE ( 'NONE', *, *, #663, .F. ) ;
#791 = CARTESIAN_POINT ( 'NONE',  ( -27.07536893972919145, 5.500000000000005329, 8.000000000000000000 ) ) ;
#792 = CIRCLE ( 'NONE', #242, 2.000000000000001776 ) ;
#793 = ADVANCED_FACE ( 'NONE', ( #1063 ), #869, .F. ) ;
#794 = AXIS2_PLACEMENT_3D ( 'NONE', #700, #1106, #215 ) ;
#795 = FACE_OUTER_BOUND ( 'NONE', #559, .T. ) ;
#796 = DIRECTION ( 'NONE',  ( 0.000000000000000000, -0.000000000000000000, 1.000000000000000000 ) ) ;
#797 = EDGE_CURVE ( 'NONE', #271, #350, #1071, .T. ) ;
#798 = ORIENTED_EDGE ( 'NONE', *, *, #909, .F. ) ;
#799 = CARTESIAN_POINT ( 'NONE',  ( -34.51397612222025657, 10.23753564385178016, 0.000000000000000000 ) ) ;
#800 = ORIENTED_EDGE ( 'NONE', *, *, #1249, .F. ) ;
#801 = DIRECTION ( 'NONE',  ( -0.000000000000000000, 0.000000000000000000, 1.000000000000000000 ) ) ;
#802 = AXIS2_PLACEMENT_3D ( 'NONE', #17, #539, #8 ) ;
#803 = DIRECTION ( 'NONE',  ( 0.000000000000000000, 0.000000000000000000, 1.000000000000000000 ) ) ;
#804 = FACE_OUTER_BOUND ( 'NONE', #1244, .T. ) ;
#805 = LINE ( 'NONE', #1202, #923 ) ;
#806 = EDGE_LOOP ( 'NONE', ( #1258, #849, #665, #653, #1046, #418, #1220, #1161 ) ) ;
#807 = DIRECTION ( 'NONE',  ( 0.000000000000000000, -0.000000000000000000, 1.000000000000000000 ) ) ;
#808 = EDGE_LOOP ( 'NONE', ( #112, #937 ) ) ;
#809 = CARTESIAN_POINT ( 'NONE',  ( -22.57536893972919501, 3.500000000000005329, 0.000000000000000000 ) ) ;
#810 = CARTESIAN_POINT ( 'NONE',  ( 34.65073787945839001, 9.764632541561127255, 8.000000000000000000 ) ) ;
#811 = DIRECTION ( 'NONE',  ( -0.000000000000000000, -0.000000000000000000, -1.000000000000000000 ) ) ;
#812 = DIRECTION ( 'NONE',  ( 0.000000000000000000, -1.000000000000000000, 0.000000000000000000 ) ) ;
#813 = DIRECTION ( 'NONE',  ( -1.000000000000000000, 0.000000000000000000, 0.000000000000000000 ) ) ;
#814 = VECTOR ( 'NONE', #424, 1000.000000000000000 ) ;
#815 = ORIENTED_EDGE ( 'NONE', *, *, #943, .T. ) ;
#816 = DIRECTION ( 'NONE',  ( 1.000000000000000000, 0.000000000000000000, 0.000000000000000000 ) ) ;
#817 = AXIS2_PLACEMENT_3D ( 'NONE', #345, #627, #446 ) ;
#818 = EDGE_CURVE ( 'NONE', #54, #1166, #278, .T. ) ;
#819 = CARTESIAN_POINT ( 'NONE',  ( 13.50000000000000178, 2.081668171172168513E-14, 1.500000000000001332 ) ) ;
#820 = DIRECTION ( 'NONE',  ( 0.000000000000000000, -0.000000000000000000, -1.000000000000000000 ) ) ;
#821 = ORIENTED_EDGE ( 'NONE', *, *, #976, .F. ) ;
#822 = DIRECTION ( 'NONE',  ( 0.000000000000000000, -0.000000000000000000, 1.000000000000000000 ) ) ;
#823 = CIRCLE ( 'NONE', #1263, 2.000000000000001776 ) ;
#824 = ORIENTED_EDGE ( 'NONE', *, *, #319, .T. ) ;
#825 = EDGE_CURVE ( 'NONE', #372, #271, #299, .T. ) ;
#826 = DIRECTION ( 'NONE',  ( -1.000000000000000000, 0.000000000000000000, 0.000000000000000000 ) ) ;
#827 = EDGE_LOOP ( 'NONE', ( #970, #168, #876, #212 ) ) ;
#828 = CARTESIAN_POINT ( 'NONE',  ( -0.8870200415727494958, 9.981397474601601871, 2.202690101529799716 ) ) ;
#829 = EDGE_CURVE ( 'NONE', #710, #1246, #792, .T. ) ;
#830 = ORIENTED_EDGE ( 'NONE', *, *, #829, .T. ) ;
#831 = DIRECTION ( 'NONE',  ( 1.000000000000000000, 0.000000000000000000, 0.000000000000000000 ) ) ;
#832 = EDGE_LOOP ( 'NONE', ( #732, #643, #91, #381 ) ) ;
#833 = EDGE_CURVE ( 'NONE', #275, #1279, #955, .T. ) ;
#834 = FACE_OUTER_BOUND ( 'NONE', #934, .T. ) ;
#835 = ADVANCED_FACE ( 'NONE', ( #374 ), #1054, .F. ) ;
#836 = ORIENTED_EDGE ( 'NONE', *, *, #1032, .T. ) ;
#837 = CARTESIAN_POINT ( 'NONE',  ( -0.2627259517026792057, 10.01737470006042940, 5.986962926815285080 ) ) ;
#838 = EDGE_LOOP ( 'NONE', ( #264, #454 ) ) ;
#839 = CYLINDRICAL_SURFACE ( 'NONE', #298, 2.299999999999996270 ) ;
#840 = ORIENTED_EDGE ( 'NONE', *, *, #1120, .T. ) ;
#841 = DIRECTION ( 'NONE',  ( 0.000000000000000000, 1.000000000000000000, 0.000000000000000000 ) ) ;
#842 = ORIENTED_EDGE ( 'NONE', *, *, #818, .F. ) ;
#843 = CARTESIAN_POINT ( 'NONE',  ( 39.00000000000000000, 19.00000000000002487, 8.000000000000000000 ) ) ;
#844 = ORIENTED_EDGE ( 'NONE', *, *, #197, .F. ) ;
#845 = ORIENTED_EDGE ( 'NONE', *, *, #564, .T. ) ;
#846 = VECTOR ( 'NONE', #902, 1000.000000000000000 ) ;
#847 = CARTESIAN_POINT ( 'NONE',  ( -1.004148219031920863, 9.970152115242026269, 2.265460506401099749 ) ) ;
#848 = CIRCLE ( 'NONE', #287, 2.499999999999998668 ) ;
#849 = ORIENTED_EDGE ( 'NONE', *, *, #588, .T. ) ;
#850 = DIRECTION ( 'NONE',  ( 0.000000000000000000, 0.000000000000000000, -1.000000000000000000 ) ) ;
#851 = CARTESIAN_POINT ( 'NONE',  ( 25.07536893972919145, 13.50000000000002487, -0.001000000000013143153 ) ) ;
#852 = EDGE_CURVE ( 'NONE', #939, #317, #170, .T. ) ;
#853 = LINE ( 'NONE', #260, #623 ) ;
#854 = ORIENTED_EDGE ( 'NONE', *, *, #1222, .T. ) ;
#855 = FACE_OUTER_BOUND ( 'NONE', #832, .T. ) ;
#856 = ORIENTED_EDGE ( 'NONE', *, *, #63, .F. ) ;
#857 = AXIS2_PLACEMENT_3D ( 'NONE', #267, #633, #1030 ) ;
#858 = AXIS2_PLACEMENT_3D ( 'NONE', #859, #652, #1278 ) ;
#859 = CARTESIAN_POINT ( 'NONE',  ( 27.07536893972919145, 3.500000000000005329, -0.001000000000013143153 ) ) ;
#860 = ORIENTED_EDGE ( 'NONE', *, *, #148, .T. ) ;
#861 = AXIS2_PLACEMENT_3D ( 'NONE', #1273, #461, #875 ) ;
#862 = ORIENTED_EDGE ( 'NONE', *, *, #87, .F. ) ;
#863 = CARTESIAN_POINT ( 'NONE',  ( -6.938893903907228378E-15, 19.00000000000002487, 6.000000000000000000 ) ) ;
#864 = CIRCLE ( 'NONE', #1044, 10.02000000000000135 ) ;
#865 = DIRECTION ( 'NONE',  ( -1.000000000000000000, 0.000000000000000000, 0.000000000000000000 ) ) ;
#866 = ORIENTED_EDGE ( 'NONE', *, *, #451, .F. ) ;
#867 = LINE ( 'NONE', #1168, #328 ) ;
#868 = LINE ( 'NONE', #303, #125 ) ;
#869 = PLANE ( 'NONE',  #858 ) ;
#870 = ORIENTED_EDGE ( 'NONE', *, *, #433, .F. ) ;
#871 = FACE_OUTER_BOUND ( 'NONE', #562, .T. ) ;
#872 = DIRECTION ( 'NONE',  ( 0.000000000000000000, 0.000000000000000000, 1.000000000000000000 ) ) ;
#873 = AXIS2_PLACEMENT_3D ( 'NONE', #721, #1111, #1121 ) ;
#874 = ADVANCED_FACE ( 'NONE', ( #774 ), #1178, .F. ) ;
#875 = DIRECTION ( 'NONE',  ( -1.000000000000000000, 0.000000000000000000, 0.000000000000000000 ) ) ;
#876 = ORIENTED_EDGE ( 'NONE', *, *, #462, .F. ) ;
#877 = CARTESIAN_POINT ( 'NONE',  ( 20.57536893972919856, 3.500000000000005329, 0.000000000000000000 ) ) ;
#878 = DIRECTION ( 'NONE',  ( 0.000000000000000000, 1.000000000000000000, 0.000000000000000000 ) ) ;
#879 = DIRECTION ( 'NONE',  ( 0.000000000000000000, 0.000000000000000000, 1.000000000000000000 ) ) ;
#880 = DIRECTION ( 'NONE',  ( -0.000000000000000000, -0.000000000000000000, -1.000000000000000000 ) ) ;
#881 = AXIS2_PLACEMENT_3D ( 'NONE', #566, #100, #482 ) ;
#882 = ORIENTED_EDGE ( 'NONE', *, *, #1120, .F. ) ;
#883 = CARTESIAN_POINT ( 'NONE',  ( -27.07536893972919145, 13.50000000000002487, 0.000000000000000000 ) ) ;
#884 = AXIS2_PLACEMENT_3D ( 'NONE', #312, #705, #109 ) ;
#885 = DIRECTION ( 'NONE',  ( -0.000000000000000000, 0.000000000000000000, 1.000000000000000000 ) ) ;
#886 = VECTOR ( 'NONE', #896, 1000.000000000000000 ) ;
#887 =( NAMED_UNIT ( * ) SI_UNIT ( $, .STERADIAN. ) SOLID_ANGLE_UNIT ( ) );
#888 = CARTESIAN_POINT ( 'NONE',  ( -27.07536893972919145, 15.50000000000002487, -0.001000000000013143153 ) ) ;
#889 = DIRECTION ( 'NONE',  ( 1.000000000000000000, 0.000000000000000000, 0.000000000000000000 ) ) ;
#890 = ORIENTED_EDGE ( 'NONE', *, *, #635, .F. ) ;
#891 =( LENGTH_UNIT ( ) NAMED_UNIT ( * ) SI_UNIT ( .MILLI., .METRE. ) );
#892 = CARTESIAN_POINT ( 'NONE',  ( 1.796305132558013495, 9.857805111939404341, 3.110870610395047642 ) ) ;
#893 = SHAPE_DEFINITION_REPRESENTATION ( #646, #1176 ) ;
#894 = PLANE ( 'NONE',  #406 ) ;
#895 = EDGE_LOOP ( 'NONE', ( #1261, #308, #760, #128 ) ) ;
#896 = DIRECTION ( 'NONE',  ( 1.000000000000000000, 0.000000000000000000, 0.000000000000000000 ) ) ;
#897 = ORIENTED_EDGE ( 'NONE', *, *, #943, .F. ) ;
#898 = DIRECTION ( 'NONE',  ( -1.000000000000000000, 3.652049423109064868E-16, 0.000000000000000000 ) ) ;
#899 = CARTESIAN_POINT ( 'NONE',  ( -13.50000000000000711, 2.081668171172168513E-14, 4.000000000000000000 ) ) ;
#900 = DIRECTION ( 'NONE',  ( 1.000000000000000000, 0.000000000000000000, 0.000000000000000000 ) ) ;
#901 = EDGE_LOOP ( 'NONE', ( #674, #273, #997, #151 ) ) ;
#902 = DIRECTION ( 'NONE',  ( 0.000000000000000000, -1.000000000000000000, 0.000000000000000000 ) ) ;
#903 = VERTEX_POINT ( 'NONE', #294 ) ;
#904 = DIRECTION ( 'NONE',  ( -0.000000000000000000, 1.000000000000000000, -0.000000000000000000 ) ) ;
#905 = VECTOR ( 'NONE', #126, 1000.000000000000000 ) ;
#906 = ADVANCED_FACE ( 'NONE', ( #193 ), #1269, .F. ) ;
#907 = DIRECTION ( 'NONE',  ( 0.000000000000000000, 0.000000000000000000, 1.000000000000000000 ) ) ;
#908 = PLANE ( 'NONE',  #1022 ) ;
#909 = EDGE_CURVE ( 'NONE', #135, #271, #1079, .T. ) ;
#910 = DIRECTION ( 'NONE',  ( 0.000000000000000000, 0.000000000000000000, 1.000000000000000000 ) ) ;
#911 = ORIENTED_EDGE ( 'NONE', *, *, #114, .T. ) ;
#912 = CARTESIAN_POINT ( 'NONE',  ( -20.57536893972919856, 3.500000000000005329, 8.000000000000000000 ) ) ;
#913 = DIRECTION ( 'NONE',  ( 0.000000000000000000, 1.000000000000000000, 0.000000000000000000 ) ) ;
#914 = VERTEX_POINT ( 'NONE', #474 ) ;
#915 = DIRECTION ( 'NONE',  ( 0.000000000000000000, 1.000000000000000000, 0.000000000000000000 ) ) ;
#916 = VECTOR ( 'NONE', #1170, 1000.000000000000000 ) ;
#917 = ORIENTED_EDGE ( 'NONE', *, *, #34, .F. ) ;
#918 = CARTESIAN_POINT ( 'NONE',  ( 25.07536893972919145, 15.50000000000002487, 0.000000000000000000 ) ) ;
#919 = AXIS2_PLACEMENT_3D ( 'NONE', #67, #1037, #1239 ) ;
#920 = VECTOR ( 'NONE', #631, 1000.000000000000000 ) ;
#921 = ORIENTED_EDGE ( 'NONE', *, *, #1249, .T. ) ;
#922 = DIRECTION ( 'NONE',  ( 1.000000000000000000, 0.000000000000000000, 0.000000000000000000 ) ) ;
#923 = VECTOR ( 'NONE', #707, 1000.000000000000000 ) ;
#924 = ORIENTED_EDGE ( 'NONE', *, *, #56, .T. ) ;
#925 = CARTESIAN_POINT ( 'NONE',  ( 13.50000000000000178, 19.00000000000002487, 4.000000000000000000 ) ) ;
#926 = CIRCLE ( 'NONE', #881, 2.499999999999998668 ) ;
#927 = CARTESIAN_POINT ( 'NONE',  ( -22.57536893972919501, 15.50000000000002487, 8.000000000000000000 ) ) ;
#928 = B_SPLINE_CURVE_WITH_KNOTS ( 'NONE', 3,
 ( #767, #297, #498, #692, #177, #572, #682, #189, #1282, #1075, #892, #389, #1094, #206, #1085, #1169, #198, #966, #78, #1272, #397, #492, #281, #1068, #662, #1061, #772, #980 ),
 .UNSPECIFIED., .F., .F.,
 ( 4, 2, 2, 2, 2, 2, 2, 2, 2, 2, 2, 2, 2, 4 ),
 ( 0.006268678940262237612, 0.007052061454101836088, 0.007443752711021634459, 0.007835443967941432830, 0.008227135224861232068, 0.008618826481781031307, 0.009402208995620629783, 0.009793900252540429022, 0.01018559150946022653, 0.01057728276638002576, 0.01096897402329982327, 0.01175235653713942174, 0.01214404779405922098, 0.01253573905097902022 ),
 .UNSPECIFIED. ) ;
#929 = CARTESIAN_POINT ( 'NONE',  ( -1.220033687072774820, 9.946047224195922354, 5.590149943360446905 ) ) ;
#930 = ORIENTED_EDGE ( 'NONE', *, *, #183, .F. ) ;
#931 = CARTESIAN_POINT ( 'NONE',  ( -27.07536893972919145, 15.50000000000002487, 0.000000000000000000 ) ) ;
#932 = VECTOR ( 'NONE', #318, 1000.000000000000000 ) ;
#933 = DIRECTION ( 'NONE',  ( 0.000000000000000000, -0.000000000000000000, 1.000000000000000000 ) ) ;
#934 = EDGE_LOOP ( 'NONE', ( #448, #545, #45, #897 ) ) ;
#935 = LINE ( 'NONE', #784, #361 ) ;
#936 = VERTEX_POINT ( 'NONE', #590 ) ;
#937 = ORIENTED_EDGE ( 'NONE', *, *, #433, .T. ) ;
#938 = CARTESIAN_POINT ( 'NONE',  ( -1.747404392952516705, 9.866979998702786858, 5.007176029676836393 ) ) ;
#939 = VERTEX_POINT ( 'NONE', #506 ) ;
#940 = DIRECTION ( 'NONE',  ( -0.000000000000000000, 0.000000000000000000, 1.000000000000000000 ) ) ;
#941 = ORIENTED_EDGE ( 'NONE', *, *, #1052, .F. ) ;
#942 = CARTESIAN_POINT ( 'NONE',  ( 32.35073787945839285, 9.764632541561127255, 22.00000000000000000 ) ) ;
#943 = EDGE_CURVE ( 'NONE', #626, #1123, #306, .T. ) ;
#944 = CIRCLE ( 'NONE', #331, 4.999999999999997335 ) ;
#945 = CARTESIAN_POINT ( 'NONE',  ( -27.07536893972919145, 13.50000000000002487, 8.000000000000000000 ) ) ;
#946 = EDGE_LOOP ( 'NONE', ( #1109, #1274 ) ) ;
#947 = EDGE_CURVE ( 'NONE', #157, #522, #752, .T. ) ;
#948 = CARTESIAN_POINT ( 'NONE',  ( -39.00000000000000000, 19.00000000000002487, 8.000000000000000000 ) ) ;
#949 = EDGE_LOOP ( 'NONE', ( #734, #1049, #651, #1150 ) ) ;
#950 = CARTESIAN_POINT ( 'NONE',  ( -1.935724400093743025, 9.831279336354169729, 3.480278331301588146 ) ) ;
#951 = VERTEX_POINT ( 'NONE', #223 ) ;
#952 = DIRECTION ( 'NONE',  ( -1.000000000000000000, 0.000000000000000000, 0.000000000000000000 ) ) ;
#953 = B_SPLINE_CURVE_WITH_KNOTS ( 'NONE', 3,
 ( #348, #558, #837, #1130, #642, #1250, #165, #929, #40, #1041, #938, #735, #548, #360, #1142, #950, #64, #161, #241, #552, #438, #847, #828, #1034, #1136, #253, #1225, #50 ),
 .UNSPECIFIED., .F., .F.,
 ( 4, 2, 2, 2, 2, 2, 2, 2, 2, 2, 2, 2, 2, 4 ),
 ( 2.279977428674661706E-19, 0.0003917924337663905012, 0.0007835848675327807857, 0.001175377301299171178, 0.001567169735065561354, 0.002350754602598341490, 0.003134339470131121408, 0.003526131903897512018, 0.003917924337663900893, 0.004701509205196678642, 0.005093301638963068818, 0.005485094072729458994, 0.005876886506495847436, 0.006268678940262237612 ),
 .UNSPECIFIED. ) ;
#954 = VERTEX_POINT ( 'NONE', #111 ) ;
#955 = CIRCLE ( 'NONE', #402, 2.499999999999998668 ) ;
#956 = DIRECTION ( 'NONE',  ( 0.000000000000000000, 1.000000000000000000, 0.000000000000000000 ) ) ;
#957 = ORIENTED_EDGE ( 'NONE', *, *, #1222, .F. ) ;
#958 = DIRECTION ( 'NONE',  ( 0.000000000000000000, -0.000000000000000000, -1.000000000000000000 ) ) ;
#959 = AXIS2_PLACEMENT_3D ( 'NONE', #678, #468, #865 ) ;
#960 = ORIENTED_EDGE ( 'NONE', *, *, #596, .T. ) ;
#961 = ADVANCED_FACE ( 'NONE', ( #398, #417, #104, #604, #405 ), #500, .F. ) ;
#962 = CARTESIAN_POINT ( 'NONE',  ( -27.07536893972919145, 3.500000000000005329, -0.001000000000013143153 ) ) ;
#963 = EDGE_LOOP ( 'NONE', ( #1113, #478, #225, #729 ) ) ;
#964 = DIRECTION ( 'NONE',  ( 0.000000000000000000, -0.000000000000000000, 1.000000000000000000 ) ) ;
#965 = EDGE_CURVE ( 'NONE', #543, #1059, #1135, .T. ) ;
#966 = CARTESIAN_POINT ( 'NONE',  ( 1.797545218603563422, 9.857577081585858991, 4.886527303111938281 ) ) ;
#967 = ORIENTED_EDGE ( 'NONE', *, *, #635, .T. ) ;
#968 = FACE_OUTER_BOUND ( 'NONE', #256, .T. ) ;
#969 = EDGE_CURVE ( 'NONE', #598, #936, #805, .T. ) ;
#970 = ORIENTED_EDGE ( 'NONE', *, *, #547, .F. ) ;
#971 = PRESENTATION_STYLE_ASSIGNMENT (( #979 ) ) ;
#972 = DIRECTION ( 'NONE',  ( -0.000000000000000000, 0.000000000000000000, 1.000000000000000000 ) ) ;
#973 = AXIS2_PLACEMENT_3D ( 'NONE', #214, #1208, #313 ) ;
#974 = ORIENTED_EDGE ( 'NONE', *, *, #523, .T. ) ;
#975 = CARTESIAN_POINT ( 'NONE',  ( -20.57536893972919856, 13.50000000000002487, 0.000000000000000000 ) ) ;
#976 = EDGE_CURVE ( 'NONE', #317, #408, #426, .T. ) ;
#977 = VECTOR ( 'NONE', #940, 1000.000000000000000 ) ;
#978 = ORIENTED_EDGE ( 'NONE', *, *, #649, .F. ) ;
#979 = SURFACE_STYLE_USAGE ( .BOTH. , #1073 ) ;
#980 = CARTESIAN_POINT ( 'NONE',  ( -7.173593401571990793E-15, 10.02000000000000135, 6.000000000000000000 ) ) ;
#981 = ADVANCED_FACE ( 'NONE', ( #1096 ), #512, .F. ) ;
#982 = CARTESIAN_POINT ( 'NONE',  ( -27.07536893972919145, 3.500000000000005329, 0.000000000000000000 ) ) ;
#983 = COLOUR_RGB ( '',0.7921568627450980005, 0.8196078431372548767, 0.9333333333333333481 ) ;
#984 = ORIENTED_EDGE ( 'NONE', *, *, #1103, .T. ) ;
#985 = FACE_OUTER_BOUND ( 'NONE', #827, .T. ) ;
#986 = ADVANCED_FACE ( 'NONE', ( #1002 ), #908, .F. ) ;
#987 = DIRECTION ( 'NONE',  ( 0.000000000000000000, -0.000000000000000000, 1.000000000000000000 ) ) ;
#988 = CARTESIAN_POINT ( 'NONE',  ( 34.65073787945839001, 9.764632541561127255, 0.000000000000000000 ) ) ;
#989 = ORIENTED_EDGE ( 'NONE', *, *, #25, .F. ) ;
#990 = CIRCLE ( 'NONE', #1100, 2.000000000000001776 ) ;
#991 = VECTOR ( 'NONE', #822, 1000.000000000000000 ) ;
#992 = LINE ( 'NONE', #504, #210 ) ;
#993 = CARTESIAN_POINT ( 'NONE',  ( 34.65073787945839001, 9.764632541561127255, 22.00000000000000000 ) ) ;
#994 = DIRECTION ( 'NONE',  ( -0.000000000000000000, 0.000000000000000000, 1.000000000000000000 ) ) ;
#995 = VERTEX_POINT ( 'NONE', #208 ) ;
#996 = CARTESIAN_POINT ( 'NONE',  ( 22.57536893972919501, 5.500000000000005329, -0.001000000000013143153 ) ) ;
#997 = ORIENTED_EDGE ( 'NONE', *, *, #36, .T. ) ;
#998 = CARTESIAN_POINT ( 'NONE',  ( 32.35073787945839285, 9.764632541561127255, 8.000000000000000000 ) ) ;
#999 = ADVANCED_FACE ( 'NONE', ( #597, #322, #127, #1112 ), #894, .T. ) ;
#1000 = CARTESIAN_POINT ( 'NONE',  ( 25.07536893972919145, 13.50000000000002487, 8.000000000000000000 ) ) ;
#1001 = DIRECTION ( 'NONE',  ( -0.000000000000000000, 0.000000000000000000, 1.000000000000000000 ) ) ;
#1002 = FACE_OUTER_BOUND ( 'NONE', #355, .T. ) ;
#1003 = LINE ( 'NONE', #1092, #886 ) ;
#1004 = ORIENTED_EDGE ( 'NONE', *, *, #547, .T. ) ;
#1005 = DIRECTION ( 'NONE',  ( 0.000000000000000000, 0.000000000000000000, 1.000000000000000000 ) ) ;
#1006 = CIRCLE ( 'NONE', #778, 2.000000000000001776 ) ;
#1007 = LINE ( 'NONE', #32, #905 ) ;
#1008 = CARTESIAN_POINT ( 'NONE',  ( 0.000000000000000000, 19.00000000000002487, 8.000000000000000000 ) ) ;
#1009 = ADVANCED_FACE ( 'NONE', ( #1196, #300 ), #1089, .F. ) ;
#1010 = LINE ( 'NONE', #330, #669 ) ;
#1011 = ORIENTED_EDGE ( 'NONE', *, *, #523, .F. ) ;
#1012 = DIRECTION ( 'NONE',  ( 0.000000000000000000, -1.000000000000000000, -0.000000000000000000 ) ) ;
#1013 = EDGE_CURVE ( 'NONE', #157, #283, #1125, .T. ) ;
#1014 = DIRECTION ( 'NONE',  ( 0.000000000000000000, 0.000000000000000000, 1.000000000000000000 ) ) ;
#1015 = LINE ( 'NONE', #137, #846 ) ;
#1016 = VERTEX_POINT ( 'NONE', #192 ) ;
#1017 = EDGE_CURVE ( 'NONE', #179, #83, #1078, .T. ) ;
#1018 = CARTESIAN_POINT ( 'NONE',  ( 22.57536893972919501, 15.50000000000002487, 8.000000000000000000 ) ) ;
#1019 = AXIS2_PLACEMENT_3D ( 'NONE', #1275, #1289, #395 ) ;
#1020 = AXIS2_PLACEMENT_3D ( 'NONE', #1285, #71, #380 ) ;
#1021 = CYLINDRICAL_SURFACE ( 'NONE', #702, 2.000000000000001776 ) ;
#1022 = AXIS2_PLACEMENT_3D ( 'NONE', #2, #812, #1209 ) ;
#1023 = CARTESIAN_POINT ( 'NONE',  ( 27.07536893972919145, 3.500000000000005329, 8.000000000000000000 ) ) ;
#1024 = EDGE_LOOP ( 'NONE', ( #866, #924, #1055, #1192 ) ) ;
#1025 = DIRECTION ( 'NONE',  ( -0.000000000000000000, 1.000000000000000000, -0.000000000000000000 ) ) ;
#1026 = CARTESIAN_POINT ( 'NONE',  ( 44.00000000000000000, 14.00000000000002309, 8.000000000000000000 ) ) ;
#1027 = ORIENTED_EDGE ( 'NONE', *, *, #1145, .T. ) ;
#1028 = PLANE ( 'NONE',  #567 ) ;
#1029 = ORIENTED_EDGE ( 'NONE', *, *, #25, .T. ) ;
#1030 = DIRECTION ( 'NONE',  ( -1.000000000000000000, 0.000000000000000000, 0.000000000000000000 ) ) ;
#1031 = EDGE_LOOP ( 'NONE', ( #703, #840, #481, #1180, #1199, #1213, #1268, #967 ) ) ;
#1032 = EDGE_CURVE ( 'NONE', #903, #434, #1095, .T. ) ;
#1033 = CARTESIAN_POINT ( 'NONE',  ( 25.07536893972919145, 15.50000000000002487, 8.000000000000000000 ) ) ;
#1034 = CARTESIAN_POINT ( 'NONE',  ( -0.6452419531381841100, 9.999938145910972409, 2.102425166903527654 ) ) ;
#1035 = CIRCLE ( 'NONE', #745, 2.300000000000003375 ) ;
#1036 = ORIENTED_EDGE ( 'NONE', *, *, #23, .F. ) ;
#1037 = DIRECTION ( 'NONE',  ( 0.000000000000000000, -0.000000000000000000, -1.000000000000000000 ) ) ;
#1038 = ORIENTED_EDGE ( 'NONE', *, *, #485, .F. ) ;
#1039 = VECTOR ( 'NONE', #616, 1000.000000000000000 ) ;
#1040 = ADVANCED_FACE ( 'NONE', ( #293 ), #88, .F. ) ;
#1041 = CARTESIAN_POINT ( 'NONE',  ( -1.598527286741545428, 9.893413946724953334, 5.229807375380102208 ) ) ;
#1042 = ORIENTED_EDGE ( 'NONE', *, *, #209, .T. ) ;
#1043 = DIRECTION ( 'NONE',  ( 1.000000000000000000, 0.000000000000000000, -0.000000000000000000 ) ) ;
#1044 = AXIS2_PLACEMENT_3D ( 'NONE', #1181, #289, #1191 ) ;
#1045 = CIRCLE ( 'NONE', #884, 2.000000000000001776 ) ;
#1046 = ORIENTED_EDGE ( 'NONE', *, *, #684, .F. ) ;
#1047 = CIRCLE ( 'NONE', #55, 2.299999999999996270 ) ;
#1048 = LINE ( 'NONE', #1023, #920 ) ;
#1049 = ORIENTED_EDGE ( 'NONE', *, *, #965, .F. ) ;
#1050 = DIRECTION ( 'NONE',  ( 0.000000000000000000, 1.000000000000000000, 0.000000000000000000 ) ) ;
#1051 = CARTESIAN_POINT ( 'NONE',  ( 20.57536893972919856, 3.500000000000005329, 8.000000000000000000 ) ) ;
#1052 = EDGE_CURVE ( 'NONE', #350, #650, #781, .T. ) ;
#1053 = CIRCLE ( 'NONE', #765, 2.000000000000001776 ) ;
#1054 = CYLINDRICAL_SURFACE ( 'NONE', #861, 2.000000000000001776 ) ;
#1055 = ORIENTED_EDGE ( 'NONE', *, *, #178, .T. ) ;
#1056 = EDGE_CURVE ( 'NONE', #83, #1237, #1088, .T. ) ;
#1057 = ORIENTED_EDGE ( 'NONE', *, *, #183, .T. ) ;
#1058 = DIRECTION ( 'NONE',  ( -0.000000000000000000, 0.000000000000000000, 1.000000000000000000 ) ) ;
#1059 = VERTEX_POINT ( 'NONE', #404 ) ;
#1060 = CYLINDRICAL_SURFACE ( 'NONE', #747, 2.499999999999998668 ) ;
#1061 = CARTESIAN_POINT ( 'NONE',  ( 0.2632177001607161615, 10.01737481420931353, 5.986967287893237177 ) ) ;
#1062 = ADVANCED_FACE ( 'NONE', ( #207 ), #185, .F. ) ;
#1063 = FACE_OUTER_BOUND ( 'NONE', #68, .T. ) ;
#1064 = VECTOR ( 'NONE', #595, 1000.000000000000000 ) ;
#1065 = ORIENTED_EDGE ( 'NONE', *, *, #582, .F. ) ;
#1066 = DIRECTION ( 'NONE',  ( 0.000000000000000000, 0.000000000000000000, 1.000000000000000000 ) ) ;
#1067 = ADVANCED_FACE ( 'NONE', ( #1201, #1129 ), #436, .F. ) ;
#1068 = CARTESIAN_POINT ( 'NONE',  ( 0.6481935355055948866, 9.999739569295863717, 5.896525887993528059 ) ) ;
#1069 = CARTESIAN_POINT ( 'NONE',  ( 25.07536893972919145, 15.50000000000002487, 8.000000000000000000 ) ) ;
#1070 = EDGE_CURVE ( 'NONE', #89, #315, #359, .T. ) ;
#1071 = LINE ( 'NONE', #673, #683 ) ;
#1072 = ORIENTED_EDGE ( 'NONE', *, *, #1052, .T. ) ;
#1073 = SURFACE_SIDE_STYLE ('',( #296 ) ) ;
#1074 = EDGE_CURVE ( 'NONE', #1246, #195, #327, .T. ) ;
#1075 = CARTESIAN_POINT ( 'NONE',  ( 1.734747713119952905, 9.868963544873858851, 2.996202959352243678 ) ) ;
#1076 = EDGE_CURVE ( 'NONE', #243, #463, #629, .T. ) ;
#1077 = CIRCLE ( 'NONE', #873, 4.999999999999997335 ) ;
#1078 = LINE ( 'NONE', #1177, #1193 ) ;
#1079 = LINE ( 'NONE', #982, #301 ) ;
#1080 = CIRCLE ( 'NONE', #919, 2.000000000000001776 ) ;
#1081 = VECTOR ( 'NONE', #1259, 1000.000000000000000 ) ;
#1082 = ORIENTED_EDGE ( 'NONE', *, *, #1032, .F. ) ;
#1083 = FACE_OUTER_BOUND ( 'NONE', #310, .T. ) ;
#1084 = AXIS2_PLACEMENT_3D ( 'NONE', #687, #201, #987 ) ;
#1085 = CARTESIAN_POINT ( 'NONE',  ( 1.987182005365567994, 9.821007080988824356, 4.261108545999188202 ) ) ;
#1086 = EDGE_CURVE ( 'NONE', #240, #352, #321, .T. ) ;
#1087 =( NAMED_UNIT ( * ) PLANE_ANGLE_UNIT ( ) SI_UNIT ( $, .RADIAN. ) );
#1088 = LINE ( 'NONE', #1069, #916 ) ;
#1089 = PLANE ( 'NONE',  #1084 ) ;
#1090 = AXIS2_PLACEMENT_3D ( 'NONE', #274, #470, #399 ) ;
#1091 = AXIS2_PLACEMENT_3D ( 'NONE', #7, #589, #117 ) ;
#1092 = CARTESIAN_POINT ( 'NONE',  ( -0.000000000000000000, 2.081668171172168513E-14, 0.000000000000000000 ) ) ;
#1093 = EDGE_LOOP ( 'NONE', ( #605, #637 ) ) ;
#1094 = CARTESIAN_POINT ( 'NONE',  ( 1.999867046468985610, 9.818397619509390495, 3.734901840976875054 ) ) ;
#1095 = LINE ( 'NONE', #110, #69 ) ;
#1096 = FACE_OUTER_BOUND ( 'NONE', #753, .T. ) ;
#1097 = ORIENTED_EDGE ( 'NONE', *, *, #1056, .F. ) ;
#1098 = CARTESIAN_POINT ( 'NONE',  ( -22.57536893972919501, 3.500000000000005329, 8.000000000000000000 ) ) ;
#1099 = VERTEX_POINT ( 'NONE', #1026 ) ;
#1100 = AXIS2_PLACEMENT_3D ( 'NONE', #777, #885, #74 ) ;
#1101 = CIRCLE ( 'NONE', #542, 2.000000000000001776 ) ;
#1102 = DIRECTION ( 'NONE',  ( -0.000000000000000000, 0.000000000000000000, 1.000000000000000000 ) ) ;
#1103 = EDGE_CURVE ( 'NONE', #33, #1279, #134, .T. ) ;
#1104 = APPLICATION_PROTOCOL_DEFINITION ( 'draft international standard', 'automotive_design', 1998, #709 ) ;
#1105 = CARTESIAN_POINT ( 'NONE',  ( 22.57536893972919501, 3.500000000000005329, 8.000000000000000000 ) ) ;
#1106 = DIRECTION ( 'NONE',  ( 0.000000000000000000, 0.000000000000000000, -1.000000000000000000 ) ) ;
#1107 = ORIENTED_EDGE ( 'NONE', *, *, #1260, .F. ) ;
#1108 = LINE ( 'NONE', #502, #227 ) ;
#1109 = ORIENTED_EDGE ( 'NONE', *, *, #1145, .F. ) ;
#1110 = CARTESIAN_POINT ( 'NONE',  ( -0.000000000000000000, 19.00000000000002487, 0.000000000000000000 ) ) ;
#1111 = DIRECTION ( 'NONE',  ( 0.000000000000000000, -0.000000000000000000, -1.000000000000000000 ) ) ;
#1112 = FACE_OUTER_BOUND ( 'NONE', #716, .T. ) ;
#1113 = ORIENTED_EDGE ( 'NONE', *, *, #690, .T. ) ;
#1114 = CARTESIAN_POINT ( 'NONE',  ( 20.57536893972919856, 5.500000000000005329, 8.000000000000000000 ) ) ;
#1115 = ORIENTED_EDGE ( 'NONE', *, *, #833, .T. ) ;
#1116 = EDGE_CURVE ( 'NONE', #954, #914, #706, .T. ) ;
#1117 = FACE_BOUND ( 'NONE', #946, .T. ) ;
#1118 = CIRCLE ( 'NONE', #1265, 2.299999999999996270 ) ;
#1119 = CIRCLE ( 'NONE', #555, 2.299999999999996270 ) ;
#1120 = EDGE_CURVE ( 'NONE', #352, #615, #1077, .T. ) ;
#1121 = DIRECTION ( 'NONE',  ( 1.000000000000000000, 0.000000000000000000, 0.000000000000000000 ) ) ;
#1122 = EDGE_CURVE ( 'NONE', #650, #135, #335, .T. ) ;
#1123 = VERTEX_POINT ( 'NONE', #927 ) ;
#1124 = LINE ( 'NONE', #106, #122 ) ;
#1125 = LINE ( 'NONE', #672, #625 ) ;
#1126 = ORIENTED_EDGE ( 'NONE', *, *, #467, .T. ) ;
#1127 = CARTESIAN_POINT ( 'NONE',  ( 27.07536893972919145, 3.500000000000005329, -0.001000000000013143153 ) ) ;
#1128 = AXIS2_PLACEMENT_3D ( 'NONE', #132, #421, #816 ) ;
#1129 = FACE_OUTER_BOUND ( 'NONE', #295, .T. ) ;
#1130 = CARTESIAN_POINT ( 'NONE',  ( -0.5188183730115610848, 10.00737969215390777, 5.935942688733859107 ) ) ;
#1131 = ORIENTED_EDGE ( 'NONE', *, *, #1286, .T. ) ;
#1132 = FACE_OUTER_BOUND ( 'NONE', #1197, .T. ) ;
#1133 = VECTOR ( 'NONE', #841, 1000.000000000000000 ) ;
#1134 = CARTESIAN_POINT ( 'NONE',  ( 39.00000000000000000, 19.00000000000002487, 8.000000000000000000 ) ) ;
#1135 = CIRCLE ( 'NONE', #194, 2.500000000000000444 ) ;
#1136 = CARTESIAN_POINT ( 'NONE',  ( -0.5205476063964938893, 10.00729622969509514, 2.064486473885851492 ) ) ;
#1137 = ORIENTED_EDGE ( 'NONE', *, *, #493, .T. ) ;
#1138 = CARTESIAN_POINT ( 'NONE',  ( 27.07536893972919145, 13.50000000000002487, 0.000000000000000000 ) ) ;
#1139 = ORIENTED_EDGE ( 'NONE', *, *, #1238, .T. ) ;
#1140 = AXIS2_PLACEMENT_3D ( 'NONE', #993, #686, #1183 ) ;
#1141 = LINE ( 'NONE', #103, #1064 ) ;
#1142 = CARTESIAN_POINT ( 'NONE',  ( -1.986957142648790420, 9.821053082832801095, 3.737053466822820358 ) ) ;
#1143 = VERTEX_POINT ( 'NONE', #118 ) ;
#1144 = CARTESIAN_POINT ( 'NONE',  ( 44.00000000000000000, 19.00000000000002487, 8.000000000000000000 ) ) ;
#1145 = EDGE_CURVE ( 'NONE', #522, #157, #1035, .T. ) ;
#1146 = CARTESIAN_POINT ( 'NONE',  ( 13.50000000000000178, 2.081668171172168513E-14, 6.499999999999999112 ) ) ;
#1147 = ADVANCED_FACE ( 'NONE', ( #834 ), #1021, .F. ) ;
#1148 = LINE ( 'NONE', #723, #513 ) ;
#1149 = VECTOR ( 'NONE', #532, 1000.000000000000000 ) ;
#1150 = ORIENTED_EDGE ( 'NONE', *, *, #1070, .T. ) ;
#1151 = CARTESIAN_POINT ( 'NONE',  ( -6.693964269848679550E-15, 10.02000000000000135, 2.000000000000000000 ) ) ;
#1152 = FACE_OUTER_BOUND ( 'NONE', #488, .T. ) ;
#1153 = AXIS2_PLACEMENT_3D ( 'NONE', #739, #1050, #369 ) ;
#1154 = CARTESIAN_POINT ( 'NONE',  ( -6.693964544077757292E-15, 19.00000000000002487, 2.000000000000000000 ) ) ;
#1155 = ORIENTED_EDGE ( 'NONE', *, *, #79, .T. ) ;
#1156 = CYLINDRICAL_SURFACE ( 'NONE', #857, 2.000000000000001776 ) ;
#1157 = ORIENTED_EDGE ( 'NONE', *, *, #578, .T. ) ;
#1158 = CARTESIAN_POINT ( 'NONE',  ( -39.00000000000000000, 14.00000000000002309, 8.000000000000000000 ) ) ;
#1159 = CARTESIAN_POINT ( 'NONE',  ( 0.000000000000000000, 0.000000000000000000, 8.000000000000000000 ) ) ;
#1160 = ADVANCED_FACE ( 'NONE', ( #804 ), #247, .F. ) ;
#1161 = ORIENTED_EDGE ( 'NONE', *, *, #592, .T. ) ;
#1162 = LINE ( 'NONE', #554, #640 ) ;
#1163 = ORIENTED_EDGE ( 'NONE', *, *, #63, .T. ) ;
#1164 = CIRCLE ( 'NONE', #1128, 2.000000000000001776 ) ;
#1165 = DIRECTION ( 'NONE',  ( -1.000000000000000000, 0.000000000000000000, 0.000000000000000000 ) ) ;
#1166 = VERTEX_POINT ( 'NONE', #511 ) ;
#1167 = EDGE_CURVE ( 'NONE', #718, #936, #141, .T. ) ;
#1168 = CARTESIAN_POINT ( 'NONE',  ( -6.693964544077757292E-15, 2.081668171172168513E-14, 2.000000000000000000 ) ) ;
#1169 = CARTESIAN_POINT ( 'NONE',  ( 1.936324044112972098, 9.831160745480223895, 4.517415878604936985 ) ) ;
#1170 = DIRECTION ( 'NONE',  ( -0.000000000000000000, 0.000000000000000000, 1.000000000000000000 ) ) ;
#1171 = FACE_OUTER_BOUND ( 'NONE', #895, .T. ) ;
#1172 = ORIENTED_EDGE ( 'NONE', *, *, #744, .F. ) ;
#1173 = CARTESIAN_POINT ( 'NONE',  ( 0.000000000000000000, 2.081668171172168513E-14, 8.000000000000000000 ) ) ;
#1174 = EDGE_CURVE ( 'NONE', #237, #159, #258, .T. ) ;
#1175 = DIRECTION ( 'NONE',  ( 0.000000000000000000, -0.000000000000000000, -1.000000000000000000 ) ) ;
#1176 = ADVANCED_BREP_SHAPE_REPRESENTATION ( 'CNC-\X2\51857ba15939\X0\AA', ( #413, #712 ), #630 ) ;
#1177 = CARTESIAN_POINT ( 'NONE',  ( 27.07536893972919145, 15.50000000000002487, 0.000000000000000000 ) ) ;
#1178 = CYLINDRICAL_SURFACE ( 'NONE', #959, 2.300000000000003375 ) ;
#1179 = VECTOR ( 'NONE', #521, 1000.000000000000000 ) ;
#1180 = ORIENTED_EDGE ( 'NONE', *, *, #602, .F. ) ;
#1181 = CARTESIAN_POINT ( 'NONE',  ( 0.000000000000000000, 0.000000000000000000, 0.000000000000000000 ) ) ;
#1182 = DIRECTION ( 'NONE',  ( 1.000000000000000000, 0.000000000000000000, 0.000000000000000000 ) ) ;
#1183 = DIRECTION ( 'NONE',  ( -1.000000000000000000, 0.000000000000000000, 0.000000000000000000 ) ) ;
#1184 = DIRECTION ( 'NONE',  ( 0.000000000000000000, 0.000000000000000000, 1.000000000000000000 ) ) ;
#1185 = EDGE_LOOP ( 'NONE', ( #620, #146, #1288, #658, #798, #346, #856, #1284 ) ) ;
#1186 = CARTESIAN_POINT ( 'NONE',  ( -36.81397612222026083, 10.23753564385178016, 0.000000000000000000 ) ) ;
#1187 = DIRECTION ( 'NONE',  ( -0.000000000000000000, 1.000000000000000000, 0.000000000000000000 ) ) ;
#1188 = DIRECTION ( 'NONE',  ( 0.000000000000000000, -0.000000000000000000, 1.000000000000000000 ) ) ;
#1189 = AXIS2_PLACEMENT_3D ( 'NONE', #1245, #337, #143 ) ;
#1190 = ORIENTED_EDGE ( 'NONE', *, *, #388, .T. ) ;
#1191 = DIRECTION ( 'NONE',  ( 1.000000000000000000, 0.000000000000000000, 0.000000000000000000 ) ) ;
#1192 = ORIENTED_EDGE ( 'NONE', *, *, #375, .T. ) ;
#1193 = VECTOR ( 'NONE', #773, 1000.000000000000000 ) ;
#1194 = CARTESIAN_POINT ( 'NONE',  ( 27.07536893972919145, 5.500000000000005329, 8.000000000000000000 ) ) ;
#1195 = CARTESIAN_POINT ( 'NONE',  ( 36.95073787945838717, 9.764632541561127255, 22.00000000000000000 ) ) ;
#1196 = FACE_BOUND ( 'NONE', #368, .T. ) ;
#1197 = EDGE_LOOP ( 'NONE', ( #695, #742, #1126, #911 ) ) ;
#1198 = LINE ( 'NONE', #309, #1223 ) ;
#1199 = ORIENTED_EDGE ( 'NONE', *, *, #485, .T. ) ;
#1200 = PLANE ( 'NONE',  #594 ) ;
#1201 = FACE_BOUND ( 'NONE', #57, .T. ) ;
#1202 = CARTESIAN_POINT ( 'NONE',  ( 0.000000000000000000, 2.081668171172168513E-14, 8.000000000000000000 ) ) ;
#1203 = ORIENTED_EDGE ( 'NONE', *, *, #690, .F. ) ;
#1204 = CARTESIAN_POINT ( 'NONE',  ( 22.57536893972919501, 5.500000000000005329, 8.000000000000000000 ) ) ;
#1205 = ORIENTED_EDGE ( 'NONE', *, *, #232, .F. ) ;
#1206 = CARTESIAN_POINT ( 'NONE',  ( 13.50000000000000178, 2.081668171172168513E-14, 6.499999999999999112 ) ) ;
#1207 = AXIS2_PLACEMENT_3D ( 'NONE', #342, #913, #1228 ) ;
#1208 = DIRECTION ( 'NONE',  ( -0.000000000000000000, 1.000000000000000000, -0.000000000000000000 ) ) ;
#1209 = DIRECTION ( 'NONE',  ( 0.000000000000000000, -0.000000000000000000, -1.000000000000000000 ) ) ;
#1210 = ORIENTED_EDGE ( 'NONE', *, *, #969, .T. ) ;
#1211 = VECTOR ( 'NONE', #560, 1000.000000000000000 ) ;
#1212 = CARTESIAN_POINT ( 'NONE',  ( 27.07536893972919145, 13.50000000000002487, 8.000000000000000000 ) ) ;
#1213 = ORIENTED_EDGE ( 'NONE', *, *, #1116, .F. ) ;
#1214 = ADVANCED_FACE ( 'NONE', ( #149 ), #610, .F. ) ;
#1215 = CARTESIAN_POINT ( 'NONE',  ( 0.000000000000000000, 0.000000000000000000, 8.000000000000000000 ) ) ;
#1216 = PRODUCT ( 'CNC-\X2\51857ba15939\X0\AA', 'CNC-\X2\51857ba15939\X0\AA', '', ( #200 ) ) ;
#1217 = VERTEX_POINT ( 'NONE', #416 ) ;
#1218 = DIRECTION ( 'NONE',  ( -1.000000000000000000, 0.000000000000000000, 0.000000000000000000 ) ) ;
#1219 = MECHANICAL_DESIGN_GEOMETRIC_PRESENTATION_REPRESENTATION (  '', ( #199 ), #94 ) ;
#1220 = ORIENTED_EDGE ( 'NONE', *, *, #130, .F. ) ;
#1221 = CARTESIAN_POINT ( 'NONE',  ( 27.07536893972919145, 3.500000000000005329, 8.000000000000000000 ) ) ;
#1222 = EDGE_CURVE ( 'NONE', #434, #914, #1007, .T. ) ;
#1223 = VECTOR ( 'NONE', #696, 1000.000000000000000 ) ;
#1224 = LINE ( 'NONE', #942, #534 ) ;
#1225 = CARTESIAN_POINT ( 'NONE',  ( -0.1307102050045112485, 10.02000000000000135, 2.000000000000000888 ) ) ;
#1226 = ORIENTED_EDGE ( 'NONE', *, *, #592, .F. ) ;
#1227 = DIRECTION ( 'NONE',  ( 1.000000000000000000, -0.000000000000000000, -0.000000000000000000 ) ) ;
#1228 = DIRECTION ( 'NONE',  ( 0.000000000000000000, 0.000000000000000000, 1.000000000000000000 ) ) ;
#1229 = ORIENTED_EDGE ( 'NONE', *, *, #561, .F. ) ;
#1230 = PLANE ( 'NONE',  #1189 ) ;
#1231 = ORIENTED_EDGE ( 'NONE', *, *, #1017, .F. ) ;
#1232 = CARTESIAN_POINT ( 'NONE',  ( 34.65073787945839001, 9.764632541561127255, 22.00000000000000000 ) ) ;
#1233 = EDGE_LOOP ( 'NONE', ( #59, #131, #800, #553, #469, #860, #941, #1190 ) ) ;
#1234 = EDGE_CURVE ( 'NONE', #159, #414, #1224, .T. ) ;
#1235 = VERTEX_POINT ( 'NONE', #863 ) ;
#1236 = DIRECTION ( 'NONE',  ( -0.000000000000000000, -1.000000000000000000, -0.000000000000000000 ) ) ;
#1237 = VERTEX_POINT ( 'NONE', #1033 ) ;
#1238 = EDGE_CURVE ( 'NONE', #252, #54, #224, .T. ) ;
#1239 = DIRECTION ( 'NONE',  ( 1.000000000000000000, 0.000000000000000000, 0.000000000000000000 ) ) ;
#1240 = ORIENTED_EDGE ( 'NONE', *, *, #744, .T. ) ;
#1241 = CIRCLE ( 'NONE', #164, 2.499999999999998668 ) ;
#1242 = AXIS2_PLACEMENT_3D ( 'NONE', #851, #655, #172 ) ;
#1243 = ADVANCED_FACE ( 'NONE', ( #366 ), #754, .T. ) ;
#1244 = EDGE_LOOP ( 'NONE', ( #607, #344, #1155, #1205 ) ) ;
#1245 = CARTESIAN_POINT ( 'NONE',  ( -20.57536893972919856, 3.500000000000005329, -0.001000000000013143153 ) ) ;
#1246 = VERTEX_POINT ( 'NONE', #656 ) ;
#1247 = CARTESIAN_POINT ( 'NONE',  ( 27.07536893972919145, 5.500000000000005329, 8.000000000000000000 ) ) ;
#1248 = ORIENTED_EDGE ( 'NONE', *, *, #34, .T. ) ;
#1249 = EDGE_CURVE ( 'NONE', #1123, #939, #1141, .T. ) ;
#1250 = CARTESIAN_POINT ( 'NONE',  ( -0.8881078904652186523, 9.981302528424885523, 5.796786131542496001 ) ) ;
#1251 = ORIENTED_EDGE ( 'NONE', *, *, #657, .F. ) ;
#1252 = LINE ( 'NONE', #1144, #1254 ) ;
#1253 = ORIENTED_EDGE ( 'NONE', *, *, #1238, .F. ) ;
#1254 = VECTOR ( 'NONE', #1025, 1000.000000000000000 ) ;
#1255 = AXIS2_PLACEMENT_3D ( 'NONE', #573, #282, #782 ) ;
#1256 = EDGE_CURVE ( 'NONE', #179, #1016, #1045, .T. ) ;
#1257 = AXIS2_PLACEMENT_3D ( 'NONE', #787, #9, #889 ) ;
#1258 = ORIENTED_EDGE ( 'NONE', *, *, #10, .F. ) ;
#1259 = DIRECTION ( 'NONE',  ( -0.000000000000000000, 0.000000000000000000, -1.000000000000000000 ) ) ;
#1260 = EDGE_CURVE ( 'NONE', #1237, #565, #371, .T. ) ;
#1261 = ORIENTED_EDGE ( 'NONE', *, *, #1256, .F. ) ;
#1262 = ORIENTED_EDGE ( 'NONE', *, *, #1281, .T. ) ;
#1263 = AXIS2_PLACEMENT_3D ( 'NONE', #203, #129, #425 ) ;
#1264 = ADVANCED_FACE ( 'NONE', ( #191 ), #1283, .F. ) ;
#1265 = AXIS2_PLACEMENT_3D ( 'NONE', #810, #1, #486 ) ;
#1266 = DIRECTION ( 'NONE',  ( 0.000000000000000000, -0.000000000000000000, 1.000000000000000000 ) ) ;
#1267 = ADVANCED_FACE ( 'NONE', ( #795 ), #786, .F. ) ;
#1268 = ORIENTED_EDGE ( 'NONE', *, *, #462, .T. ) ;
#1269 = PLANE ( 'NONE',  #466 ) ;
#1270 = ORIENTED_EDGE ( 'NONE', *, *, #236, .F. ) ;
#1271 = LINE ( 'NONE', #764, #268 ) ;
#1272 = CARTESIAN_POINT ( 'NONE',  ( 1.590908830376349892, 9.893171235309242917, 5.219072948095770492 ) ) ;
#1273 = CARTESIAN_POINT ( 'NONE',  ( -25.07536893972919145, 13.50000000000002487, -0.001000000000013143153 ) ) ;
#1274 = ORIENTED_EDGE ( 'NONE', *, *, #947, .F. ) ;
#1275 = CARTESIAN_POINT ( 'NONE',  ( -6.938893903907228378E-15, 19.00000000000002487, 4.000000000000000000 ) ) ;
#1276 = DIRECTION ( 'NONE',  ( 1.000000000000000000, 0.000000000000000000, 0.000000000000000000 ) ) ;
#1277 = ORIENTED_EDGE ( 'NONE', *, *, #204, .T. ) ;
#1278 = DIRECTION ( 'NONE',  ( 0.000000000000000000, 0.000000000000000000, -1.000000000000000000 ) ) ;
#1279 = VERTEX_POINT ( 'NONE', #292 ) ;
#1280 = FACE_BOUND ( 'NONE', #808, .T. ) ;
#1281 = EDGE_CURVE ( 'NONE', #159, #237, #1118, .T. ) ;
#1282 = CARTESIAN_POINT ( 'NONE',  ( 1.589934779270018916, 9.893325956213702810, 2.779727274476849530 ) ) ;
#1283 = CYLINDRICAL_SURFACE ( 'NONE', #1091, 2.499999999999998668 ) ;
#1284 = ORIENTED_EDGE ( 'NONE', *, *, #490, .T. ) ;
#1285 = CARTESIAN_POINT ( 'NONE',  ( -25.07536893972919145, 5.500000000000005329, 0.000000000000000000 ) ) ;
#1286 = EDGE_CURVE ( 'NONE', #237, #400, #391, .T. ) ;
#1287 = AXIS2_PLACEMENT_3D ( 'NONE', #799, #407, #689 ) ;
#1288 = ORIENTED_EDGE ( 'NONE', *, *, #733, .F. ) ;
#1289 = DIRECTION ( 'NONE',  ( 0.000000000000000000, 1.000000000000000000, 0.000000000000000000 ) ) ;
#1290 = PLANE ( 'NONE',  #541 ) ;
#1291 = DIRECTION ( 'NONE',  ( 1.000000000000000000, 0.000000000000000000, 0.000000000000000000 ) ) ;
#1292 = CARTESIAN_POINT ( 'NONE',  ( -25.07536893972919145, 13.50000000000002487, 0.000000000000000000 ) ) ;
#1293 = ORIENTED_EDGE ( 'NONE', *, *, #1017, .T. ) ;
#1294 = CARTESIAN_POINT ( 'NONE',  ( 32.35073787945839285, 9.764632541561127255, 0.000000000000000000 ) ) ;
#1295 = DIRECTION ( 'NONE',  ( 1.000000000000000000, 0.000000000000000000, 0.000000000000000000 ) ) ;
ENDSEC;
END-ISO-10303-21;
