ISO-10303-21;
HEADER;
FILE_DESCRIPTION (( 'STEP AP214' ),
    '1' );
FILE_NAME ('CNC-ÄÚ¹Ü¼ÐBA.STEP',
    '2026-08-16T17:26:53',
    ( '' ),
    ( '' ),
    'SwSTEP 2.0',
    'SolidWorks 2025',
    '' );
FILE_SCHEMA (( 'AUTOMOTIVE_DESIGN' ));
ENDSEC;

DATA;
#1 = EDGE_CURVE ( 'NONE', #1023, #365, #268, .T. ) ;
#2 = FACE_OUTER_BOUND ( 'NONE', #235, .T. ) ;
#3 = ORIENTED_EDGE ( 'NONE', *, *, #659, .T. ) ;
#4 = DIRECTION ( 'NONE',  ( 1.000000000000000000, 0.000000000000000000, 0.000000000000000000 ) ) ;
#5 = VERTEX_POINT ( 'NONE', #637 ) ;
#6 = CARTESIAN_POINT ( 'NONE',  ( -0.7316306540921065915, 9.993754005954823327, 2.517134134874402296 ) ) ;
#7 = DIRECTION ( 'NONE',  ( 0.000000000000000000, 0.000000000000000000, 1.000000000000000000 ) ) ;
#8 = DIRECTION ( 'NONE',  ( 1.000000000000000000, 0.000000000000000000, 0.000000000000000000 ) ) ;
#9 = EDGE_CURVE ( 'NONE', #1191, #459, #545, .T. ) ;
#10 = VERTEX_POINT ( 'NONE', #455 ) ;
#11 = FACE_BOUND ( 'NONE', #69, .T. ) ;
#12 = AXIS2_PLACEMENT_3D ( 'NONE', #32, #898, #318 ) ;
#13 = ORIENTED_EDGE ( 'NONE', *, *, #9, .T. ) ;
#14 = CARTESIAN_POINT ( 'NONE',  ( 20.57536523183255284, 13.50000000000002842, 8.000000000000000000 ) ) ;
#15 = VECTOR ( 'NONE', #198, 1000.000000000000000 ) ;
#16 = DIRECTION ( 'NONE',  ( 0.000000000000000000, 0.000000000000000000, 1.000000000000000000 ) ) ;
#17 = CARTESIAN_POINT ( 'NONE',  ( 36.75073046344504490, 9.763548448602024976, 22.00000000000000000 ) ) ;
#18 = EDGE_CURVE ( 'NONE', #1241, #431, #384, .T. ) ;
#19 = ORIENTED_EDGE ( 'NONE', *, *, #282, .T. ) ;
#20 = CARTESIAN_POINT ( 'NONE',  ( 27.07536523183255994, 1.565609056276875018E-14, 0.000000000000000000 ) ) ;
#21 = ORIENTED_EDGE ( 'NONE', *, *, #1131, .T. ) ;
#22 = EDGE_CURVE ( 'NONE', #738, #595, #456, .T. ) ;
#23 = CARTESIAN_POINT ( 'NONE',  ( 39.00000000000000000, 19.00000000000002487, 8.000000000000000000 ) ) ;
#24 = CIRCLE ( 'NONE', #188, 2.099999999999999645 ) ;
#25 = LINE ( 'NONE', #811, #1252 ) ;
#26 = VECTOR ( 'NONE', #1246, 1000.000000000000000 ) ;
#27 = FACE_BOUND ( 'NONE', #1046, .T. ) ;
#28 =( LENGTH_UNIT ( ) NAMED_UNIT ( * ) SI_UNIT ( .MILLI., .METRE. ) );
#29 = VERTEX_POINT ( 'NONE', #189 ) ;
#30 = DIRECTION ( 'NONE',  ( 0.000000000000000000, 0.000000000000000000, -1.000000000000000000 ) ) ;
#31 = AXIS2_PLACEMENT_3D ( 'NONE', #124, #1208, #326 ) ;
#32 = CARTESIAN_POINT ( 'NONE',  ( 34.65073046366511278, 9.763548448602024976, 0.000000000000000000 ) ) ;
#33 = ORIENTED_EDGE ( 'NONE', *, *, #809, .F. ) ;
#34 = PRODUCT_RELATED_PRODUCT_CATEGORY ( 'part', '', ( #633 ) ) ;
#35 = CARTESIAN_POINT ( 'NONE',  ( 22.57536523183255284, 15.50000000000002842, 8.000000000000000000 ) ) ;
#36 = VERTEX_POINT ( 'NONE', #1064 ) ;
#37 = CARTESIAN_POINT ( 'NONE',  ( -1.441759370046458377, 9.916081324740282810, 4.830665894653142445 ) ) ;
#38 = CARTESIAN_POINT ( 'NONE',  ( -6.938893903907228378E-15, 2.081668171172168513E-14, 4.000000000000000000 ) ) ;
#39 = PRODUCT_CONTEXT ( 'NONE', #349, 'mechanical' ) ;
#40 = ORIENTED_EDGE ( 'NONE', *, *, #1077, .T. ) ;
#41 = DIRECTION ( 'NONE',  ( -0.000000000000000000, 1.000000000000000000, -0.000000000000000000 ) ) ;
#42 = EDGE_CURVE ( 'NONE', #36, #510, #93, .T. ) ;
#43 = LINE ( 'NONE', #828, #296 ) ;
#44 = ADVANCED_FACE ( 'NONE', ( #301 ), #493, .F. ) ;
#45 = EDGE_LOOP ( 'NONE', ( #668, #154, #1230, #362 ) ) ;
#46 = LINE ( 'NONE', #445, #111 ) ;
#47 = VERTEX_POINT ( 'NONE', #787 ) ;
#48 = VECTOR ( 'NONE', #562, 1000.000000000000000 ) ;
#49 = ORIENTED_EDGE ( 'NONE', *, *, #626, .T. ) ;
#50 = EDGE_CURVE ( 'NONE', #1124, #328, #183, .T. ) ;
#51 = ORIENTED_EDGE ( 'NONE', *, *, #1263, .F. ) ;
#52 = DIRECTION ( 'NONE',  ( 0.000000000000000000, 1.000000000000000000, 0.000000000000000000 ) ) ;
#53 = EDGE_LOOP ( 'NONE', ( #550, #1107, #833, #525 ) ) ;
#54 = VECTOR ( 'NONE', #407, 1000.000000000000000 ) ;
#55 = VECTOR ( 'NONE', #1158, 1000.000000000000000 ) ;
#56 = ORIENTED_EDGE ( 'NONE', *, *, #973, .T. ) ;
#57 = SURFACE_STYLE_USAGE ( .BOTH. , #1148 ) ;
#58 = EDGE_LOOP ( 'NONE', ( #965, #231, #466, #1282 ) ) ;
#59 = CARTESIAN_POINT ( 'NONE',  ( 20.57536523183255284, 13.50000000000002842, 8.000000000000000000 ) ) ;
#60 = EDGE_CURVE ( 'NONE', #1264, #510, #596, .T. ) ;
#61 = ORIENTED_EDGE ( 'NONE', *, *, #18, .T. ) ;
#62 = FILL_AREA_STYLE_COLOUR ( '', #421 ) ;
#63 = VERTEX_POINT ( 'NONE', #585 ) ;
#64 = CARTESIAN_POINT ( 'NONE',  ( -20.57536523183255284, 5.500000000000051514, 8.000000000000000000 ) ) ;
#65 = CARTESIAN_POINT ( 'NONE',  ( 44.00000000000000000, 14.00000000000002309, -31.40063693621518581 ) ) ;
#66 = VECTOR ( 'NONE', #16, 1000.000000000000000 ) ;
#67 = ORIENTED_EDGE ( 'NONE', *, *, #765, .F. ) ;
#68 = FACE_OUTER_BOUND ( 'NONE', #800, .T. ) ;
#69 = EDGE_LOOP ( 'NONE', ( #844, #451, #961, #56, #61, #21, #461, #735 ) ) ;
#70 = DIRECTION ( 'NONE',  ( 0.000000000000000000, -0.000000000000000000, 1.000000000000000000 ) ) ;
#71 = DIRECTION ( 'NONE',  ( -1.000000000000000000, 0.000000000000000000, 0.000000000000000000 ) ) ;
#72 = EDGE_CURVE ( 'NONE', #261, #949, #897, .T. ) ;
#73 = CARTESIAN_POINT ( 'NONE',  ( -25.07536523183255639, 5.500000000000051514, -2.000000000000000000 ) ) ;
#74 = VERTEX_POINT ( 'NONE', #1175 ) ;
#75 = CARTESIAN_POINT ( 'NONE',  ( 1.311709099880747909, 9.933955123306658308, 2.993276500707455323 ) ) ;
#76 = LINE ( 'NONE', #1059, #438 ) ;
#77 = EDGE_CURVE ( 'NONE', #738, #90, #479, .T. ) ;
#78 = LINE ( 'NONE', #1170, #853 ) ;
#79 = CARTESIAN_POINT ( 'NONE',  ( 20.57536523183255284, 5.500000000000051514, 8.000000000000000000 ) ) ;
#80 = EDGE_CURVE ( 'NONE', #661, #851, #498, .T. ) ;
#81 = VERTEX_POINT ( 'NONE', #1290 ) ;
#82 = CARTESIAN_POINT ( 'NONE',  ( 1.013818355027818585, 9.969756637278033296, 2.680557463304589216 ) ) ;
#83 = VECTOR ( 'NONE', #1190, 1000.000000000000000 ) ;
#84 = DIRECTION ( 'NONE',  ( 0.000000000000000000, -1.000000000000000000, 0.000000000000000000 ) ) ;
#85 = AXIS2_PLACEMENT_3D ( 'NONE', #332, #338, #1141 ) ;
#86 = CARTESIAN_POINT ( 'NONE',  ( 10.02000000000000135, 2.081668171172168513E-14, 0.000000000000000000 ) ) ;
#87 = ORIENTED_EDGE ( 'NONE', *, *, #1136, .F. ) ;
#88 = DIRECTION ( 'NONE',  ( -0.000000000000000000, -0.000000000000000000, -1.000000000000000000 ) ) ;
#89 = AXIS2_PLACEMENT_3D ( 'NONE', #976, #875, #1283 ) ;
#90 = VERTEX_POINT ( 'NONE', #398 ) ;
#91 = CARTESIAN_POINT ( 'NONE',  ( 0.8301437296590642445, 9.987535227246453928, 2.557927667584847686 ) ) ;
#92 = CARTESIAN_POINT ( 'NONE',  ( 25.07536523183255639, 5.500000000000051514, 0.000000000000000000 ) ) ;
#93 = LINE ( 'NONE', #858, #559 ) ;
#94 =( NAMED_UNIT ( * ) SI_UNIT ( $, .STERADIAN. ) SOLID_ANGLE_UNIT ( ) );
#95 = CARTESIAN_POINT ( 'NONE',  ( -6.938893903907228378E-15, 19.00000000000002487, 4.000000000000000000 ) ) ;
#96 = PLANE ( 'NONE',  #865 ) ;
#97 = DIRECTION ( 'NONE',  ( -0.000000000000000000, 1.000000000000000000, -0.000000000000000000 ) ) ;
#98 = DIRECTION ( 'NONE',  ( -0.000000000000000000, -0.000000000000000000, -1.000000000000000000 ) ) ;
#99 = EDGE_CURVE ( 'NONE', #415, #601, #269, .T. ) ;
#100 = CARTESIAN_POINT ( 'NONE',  ( -27.07536523183255639, 3.500000000000051514, -2.000000000000000000 ) ) ;
#101 = VECTOR ( 'NONE', #98, 1000.000000000000000 ) ;
#102 = CARTESIAN_POINT ( 'NONE',  ( 20.57536523183255284, 3.500000000000051514, 8.000000000000000000 ) ) ;
#103 = VERTEX_POINT ( 'NONE', #1266 ) ;
#104 = CARTESIAN_POINT ( 'NONE',  ( -0.4277310434423811647, 10.01142368494395818, 5.597227102326158388 ) ) ;
#105 = PRODUCT_DEFINITION_SHAPE ( 'NONE', 'NONE',  #717 ) ;
#106 = EDGE_CURVE ( 'NONE', #365, #180, #1086, .T. ) ;
#107 = DIRECTION ( 'NONE',  ( -0.000000000000000000, -0.000000000000000000, -1.000000000000000000 ) ) ;
#108 = DIRECTION ( 'NONE',  ( -0.000000000000000000, 0.000000000000000000, 1.000000000000000000 ) ) ;
#109 = ORIENTED_EDGE ( 'NONE', *, *, #315, .F. ) ;
#110 = CARTESIAN_POINT ( 'NONE',  ( -6.736827182047915225E-15, 2.081668171172168513E-14, 2.349999999999999645 ) ) ;
#111 = VECTOR ( 'NONE', #747, 1000.000000000000000 ) ;
#112 = CARTESIAN_POINT ( 'NONE',  ( -0.1077834293998055359, 10.02000000000000313, 2.350000000000000977 ) ) ;
#113 = DIRECTION ( 'NONE',  ( 1.000000000000000000, 0.000000000000000000, 0.000000000000000000 ) ) ;
#114 = DIRECTION ( 'NONE',  ( 1.000000000000000000, 0.000000000000000000, 0.000000000000000000 ) ) ;
#115 = CARTESIAN_POINT ( 'NONE',  ( 13.50000000000000178, 2.081668171172168513E-14, 6.100000000000001421 ) ) ;
#116 = AXIS2_PLACEMENT_3D ( 'NONE', #242, #820, #1030 ) ;
#117 = PLANE ( 'NONE',  #928 ) ;
#118 = VECTOR ( 'NONE', #1189, 1000.000000000000000 ) ;
#119 = LINE ( 'NONE', #1225, #66 ) ;
#120 = CARTESIAN_POINT ( 'NONE',  ( -20.57536523183255284, 3.500000000000051514, -2.000000000000000000 ) ) ;
#121 = UNCERTAINTY_MEASURE_WITH_UNIT (LENGTH_MEASURE( 1.000000000000000082E-05 ), #843, 'distance_accuracy_value', 'NONE');
#122 = ADVANCED_BREP_SHAPE_REPRESENTATION ( 'CNC-\X2\51857ba15939\X0\BA', ( #720, #896 ), #773 ) ;
#123 = ORIENTED_EDGE ( 'NONE', *, *, #402, .F. ) ;
#124 = CARTESIAN_POINT ( 'NONE',  ( 34.65073046366511278, 9.763548448602024976, 22.00000000000000000 ) ) ;
#125 = EDGE_CURVE ( 'NONE', #558, #440, #988, .T. ) ;
#126 = ORIENTED_EDGE ( 'NONE', *, *, #866, .T. ) ;
#127 = CARTESIAN_POINT ( 'NONE',  ( -27.07536523183255639, -7.828045281384387709E-15, 0.000000000000000000 ) ) ;
#128 = EDGE_CURVE ( 'NONE', #247, #906, #665, .T. ) ;
#129 = AXIS2_PLACEMENT_3D ( 'NONE', #789, #319, #302 ) ;
#130 = FACE_OUTER_BOUND ( 'NONE', #1247, .T. ) ;
#131 = ORIENTED_EDGE ( 'NONE', *, *, #1115, .F. ) ;
#132 = CIRCLE ( 'NONE', #848, 4.999999999999997335 ) ;
#133 = DIRECTION ( 'NONE',  ( 1.000000000000000000, 0.000000000000000000, 0.000000000000000000 ) ) ;
#134 = PLANE ( 'NONE',  #573 ) ;
#135 = CARTESIAN_POINT ( 'NONE',  ( -1.441538068540354711, 9.916117917536396931, 3.168535810435505695 ) ) ;
#136 = VECTOR ( 'NONE', #593, 1000.000000000000000 ) ;
#137 = CIRCLE ( 'NONE', #403, 1.650000000000000355 ) ;
#138 = DIRECTION ( 'NONE',  ( 0.000000000000000000, 1.000000000000000000, 0.000000000000000000 ) ) ;
#139 = CARTESIAN_POINT ( 'NONE',  ( 10.02000000000000135, 2.081668171172168513E-14, 8.000000000000000000 ) ) ;
#140 = CIRCLE ( 'NONE', #730, 2.000000000000001776 ) ;
#141 = EDGE_LOOP ( 'NONE', ( #341, #553, #657, #87 ) ) ;
#142 = DIRECTION ( 'NONE',  ( 0.000000000000000000, 0.000000000000000000, 1.000000000000000000 ) ) ;
#143 = EDGE_CURVE ( 'NONE', #823, #874, #76, .T. ) ;
#144 = DIRECTION ( 'NONE',  ( -0.000000000000000000, 0.000000000000000000, -1.000000000000000000 ) ) ;
#145 = DIRECTION ( 'NONE',  ( -1.000000000000000000, -2.401924812890960362E-15, 0.000000000000000000 ) ) ;
#146 = ORIENTED_EDGE ( 'NONE', *, *, #1177, .F. ) ;
#147 = CARTESIAN_POINT ( 'NONE',  ( 13.50000000000000178, 19.00000000000002487, 4.000000000000000000 ) ) ;
#148 = CARTESIAN_POINT ( 'NONE',  ( -20.57536523183255284, 5.500000000000051514, 8.000000000000000000 ) ) ;
#149 = EDGE_CURVE ( 'NONE', #415, #163, #1070, .T. ) ;
#150 = AXIS2_PLACEMENT_3D ( 'NONE', #885, #686, #1082 ) ;
#151 = CARTESIAN_POINT ( 'NONE',  ( -27.07536523183255639, 3.500000000000051514, 8.000000000000000000 ) ) ;
#152 = ORIENTED_EDGE ( 'NONE', *, *, #922, .T. ) ;
#153 = CARTESIAN_POINT ( 'NONE',  ( -34.51398353801359775, 10.23645155088345859, 0.000000000000000000 ) ) ;
#154 = ORIENTED_EDGE ( 'NONE', *, *, #394, .T. ) ;
#155 = AXIS2_PLACEMENT_3D ( 'NONE', #147, #52, #1144 ) ;
#156 = ORIENTED_EDGE ( 'NONE', *, *, #902, .T. ) ;
#157 = DIRECTION ( 'NONE',  ( -0.000000000000000000, -0.000000000000000000, -1.000000000000000000 ) ) ;
#158 = EDGE_CURVE ( 'NONE', #566, #5, #333, .T. ) ;
#159 = ORIENTED_EDGE ( 'NONE', *, *, #197, .F. ) ;
#160 = LINE ( 'NONE', #465, #935 ) ;
#161 = ORIENTED_EDGE ( 'NONE', *, *, #1066, .T. ) ;
#162 = CARTESIAN_POINT ( 'NONE',  ( -27.07536523183255639, 5.500000000000050626, 0.000000000000000000 ) ) ;
#163 = VERTEX_POINT ( 'NONE', #1182 ) ;
#164 = CARTESIAN_POINT ( 'NONE',  ( -22.57536523183255639, 15.50000000000002309, 8.000000000000000000 ) ) ;
#165 = EDGE_CURVE ( 'NONE', #1191, #894, #280, .T. ) ;
#166 = EDGE_LOOP ( 'NONE', ( #1054, #756 ) ) ;
#167 = VECTOR ( 'NONE', #378, 1000.000000000000000 ) ;
#168 = CYLINDRICAL_SURFACE ( 'NONE', #283, 2.000000000000001776 ) ;
#169 = ORIENTED_EDGE ( 'NONE', *, *, #42, .F. ) ;
#170 = CARTESIAN_POINT ( 'NONE',  ( 1.242080622378548993, 9.943012847894591388, 2.908533191677439067 ) ) ;
#171 = ORIENTED_EDGE ( 'NONE', *, *, #654, .F. ) ;
#172 = FACE_OUTER_BOUND ( 'NONE', #967, .T. ) ;
#173 = ORIENTED_EDGE ( 'NONE', *, *, #841, .F. ) ;
#174 = CARTESIAN_POINT ( 'NONE',  ( 1.243372151230439648, 9.942849699559824117, 5.089977820451219159 ) ) ;
#175 = CARTESIAN_POINT ( 'NONE',  ( 20.57536523183255284, 0.000000000000000000, 0.000000000000000000 ) ) ;
#176 = EDGE_CURVE ( 'NONE', #912, #1043, #683, .T. ) ;
#177 = CARTESIAN_POINT ( 'NONE',  ( 0.000000000000000000, 2.081668171172168513E-14, 8.000000000000000000 ) ) ;
#178 = ORIENTED_EDGE ( 'NONE', *, *, #394, .F. ) ;
#179 = CARTESIAN_POINT ( 'NONE',  ( -10.02000000000000135, 2.081668171172168513E-14, 8.000000000000000000 ) ) ;
#180 = VERTEX_POINT ( 'NONE', #904 ) ;
#181 = DIRECTION ( 'NONE',  ( 1.000000000000000000, 0.000000000000000000, 0.000000000000000000 ) ) ;
#182 = EDGE_CURVE ( 'NONE', #793, #737, #238, .T. ) ;
#183 = LINE ( 'NONE', #1270, #118 ) ;
#184 = CARTESIAN_POINT ( 'NONE',  ( 34.65073046366511278, 9.763548448602024976, 8.000000000000000000 ) ) ;
#185 = DIRECTION ( 'NONE',  ( -0.000000000000000000, 0.000000000000000000, 1.000000000000000000 ) ) ;
#186 = ORIENTED_EDGE ( 'NONE', *, *, #42, .T. ) ;
#187 = FACE_OUTER_BOUND ( 'NONE', #1271, .T. ) ;
#188 = AXIS2_PLACEMENT_3D ( 'NONE', #999, #408, #1205 ) ;
#189 = CARTESIAN_POINT ( 'NONE',  ( -25.07536523183256350, 15.50000000000001599, 0.000000000000000000 ) ) ;
#190 = VECTOR ( 'NONE', #600, 1000.000000000000000 ) ;
#191 = DIRECTION ( 'NONE',  ( -0.000000000000000000, 0.000000000000000000, 1.000000000000000000 ) ) ;
#192 = DIRECTION ( 'NONE',  ( -0.000000000000000000, -0.000000000000000000, -1.000000000000000000 ) ) ;
#193 = VECTOR ( 'NONE', #416, 1000.000000000000000 ) ;
#194 = AXIS2_PLACEMENT_3D ( 'NONE', #38, #1204, #240 ) ;
#195 = EDGE_LOOP ( 'NONE', ( #405, #169, #663, #67 ) ) ;
#196 = LINE ( 'NONE', #590, #745 ) ;
#197 = EDGE_CURVE ( 'NONE', #1226, #1137, #942, .T. ) ;
#198 = DIRECTION ( 'NONE',  ( 3.652049423109064868E-16, 1.000000000000000000, 0.000000000000000000 ) ) ;
#199 = CARTESIAN_POINT ( 'NONE',  ( -13.50000000000000711, 19.00000000000002487, 4.000000000000000000 ) ) ;
#200 = EDGE_LOOP ( 'NONE', ( #1257, #791, #568, #919 ) ) ;
#201 = DIRECTION ( 'NONE',  ( -0.000000000000000000, 0.000000000000000000, 1.000000000000000000 ) ) ;
#202 = EDGE_CURVE ( 'NONE', #856, #261, #313, .T. ) ;
#203 = EDGE_CURVE ( 'NONE', #292, #180, #759, .T. ) ;
#204 = ORIENTED_EDGE ( 'NONE', *, *, #203, .T. ) ;
#205 = DIRECTION ( 'NONE',  ( 0.000000000000000000, 0.000000000000000000, -1.000000000000000000 ) ) ;
#206 = CARTESIAN_POINT ( 'NONE',  ( -34.51398353801359775, 10.23645155088345859, 22.00000000000000000 ) ) ;
#207 = FACE_OUTER_BOUND ( 'NONE', #631, .T. ) ;
#208 = CIRCLE ( 'NONE', #373, 2.099999999782546478 ) ;
#209 = CARTESIAN_POINT ( 'NONE',  ( 0.000000000000000000, 0.000000000000000000, 0.000000000000000000 ) ) ;
#210 = ORIENTED_EDGE ( 'NONE', *, *, #282, .F. ) ;
#211 = CARTESIAN_POINT ( 'NONE',  ( -6.736827112756825879E-15, 10.02000000000000135, 2.349999999999999645 ) ) ;
#212 = DIRECTION ( 'NONE',  ( -1.000000000000000000, 0.000000000000000000, 0.000000000000000000 ) ) ;
#213 = CARTESIAN_POINT ( 'NONE',  ( 25.07536523183254928, 13.50000000000003020, 8.000000000000000000 ) ) ;
#214 = ORIENTED_EDGE ( 'NONE', *, *, #689, .T. ) ;
#215 = FACE_OUTER_BOUND ( 'NONE', #635, .T. ) ;
#216 = ORIENTED_EDGE ( 'NONE', *, *, #229, .T. ) ;
#217 = AXIS2_PLACEMENT_3D ( 'NONE', #710, #30, #945 ) ;
#218 = CARTESIAN_POINT ( 'NONE',  ( -1.320400827056455118, 9.933824960013829752, 2.986951671475230885 ) ) ;
#219 = FACE_OUTER_BOUND ( 'NONE', #652, .T. ) ;
#220 = ADVANCED_FACE ( 'NONE', ( #704 ), #1010, .F. ) ;
#221 = DIRECTION ( 'NONE',  ( 1.000000000000000000, -2.602085213965208275E-15, 0.000000000000000000 ) ) ;
#222 = ADVANCED_FACE ( 'NONE', ( #620 ), #117, .F. ) ;
#223 = ORIENTED_EDGE ( 'NONE', *, *, #750, .F. ) ;
#224 = LINE ( 'NONE', #320, #850 ) ;
#225 = CIRCLE ( 'NONE', #1044, 4.999999999999997335 ) ;
#226 = ORIENTED_EDGE ( 'NONE', *, *, #824, .T. ) ;
#227 = CARTESIAN_POINT ( 'NONE',  ( 25.07536523183255639, 5.500000000000051514, -2.000000000000000000 ) ) ;
#228 = DIRECTION ( 'NONE',  ( 0.000000000000000000, -0.000000000000000000, 1.000000000000000000 ) ) ;
#229 = EDGE_CURVE ( 'NONE', #90, #930, #208, .T. ) ;
#230 = DIRECTION ( 'NONE',  ( -0.000000000000000000, 1.000000000000000000, -0.000000000000000000 ) ) ;
#231 = ORIENTED_EDGE ( 'NONE', *, *, #1176, .T. ) ;
#232 = CARTESIAN_POINT ( 'NONE',  ( -1.318897535394096154, 9.933997324821747910, 5.014486356094194797 ) ) ;
#233 = ORIENTED_EDGE ( 'NONE', *, *, #60, .T. ) ;
#234 = DIRECTION ( 'NONE',  ( 0.000000000000000000, 0.000000000000000000, 1.000000000000000000 ) ) ;
#235 = EDGE_LOOP ( 'NONE', ( #390, #306, #607, #1268 ) ) ;
#236 = DIRECTION ( 'NONE',  ( 0.000000000000000000, -0.000000000000000000, 1.000000000000000000 ) ) ;
#237 = ORIENTED_EDGE ( 'NONE', *, *, #983, .T. ) ;
#238 = LINE ( 'NONE', #127, #597 ) ;
#239 = AXIS2_PLACEMENT_3D ( 'NONE', #693, #191, #400 ) ;
#240 = DIRECTION ( 'NONE',  ( 0.000000000000000000, 0.000000000000000000, 1.000000000000000000 ) ) ;
#241 = ORIENTED_EDGE ( 'NONE', *, *, #1000, .F. ) ;
#242 = CARTESIAN_POINT ( 'NONE',  ( -13.50000000000000711, 2.081668171172168513E-14, 4.000000000000000000 ) ) ;
#243 = ORIENTED_EDGE ( 'NONE', *, *, #526, .F. ) ;
#244 = CARTESIAN_POINT ( 'NONE',  ( 13.50000000000000178, 2.081668171172168513E-14, 6.100000000000001421 ) ) ;
#245 = VERTEX_POINT ( 'NONE', #14 ) ;
#246 = CARTESIAN_POINT ( 'NONE',  ( 0.000000000000000000, 0.000000000000000000, 8.000000000000000000 ) ) ;
#247 = VERTEX_POINT ( 'NONE', #411 ) ;
#248 = FACE_OUTER_BOUND ( 'NONE', #447, .T. ) ;
#249 = DIRECTION ( 'NONE',  ( 0.000000000000000000, -0.000000000000000000, 1.000000000000000000 ) ) ;
#250 = EDGE_CURVE ( 'NONE', #601, #415, #1093, .T. ) ;
#251 = CIRCLE ( 'NONE', #239, 10.02000000000000135 ) ;
#252 = ORIENTED_EDGE ( 'NONE', *, *, #435, .F. ) ;
#253 = CARTESIAN_POINT ( 'NONE',  ( -27.07536523183255994, 13.50000000000001776, 0.000000000000000000 ) ) ;
#254 = MECHANICAL_DESIGN_GEOMETRIC_PRESENTATION_REPRESENTATION (  '', ( #644 ), #808 ) ;
#255 = VERTEX_POINT ( 'NONE', #23 ) ;
#256 = DIRECTION ( 'NONE',  ( 2.891205793294688187E-16, -1.000000000000000000, -0.000000000000000000 ) ) ;
#257 = ORIENTED_EDGE ( 'NONE', *, *, #203, .F. ) ;
#258 = VECTOR ( 'NONE', #714, 1000.000000000000000 ) ;
#259 = FACE_OUTER_BOUND ( 'NONE', #589, .T. ) ;
#260 = ADVANCED_FACE ( 'NONE', ( #1002 ), #419, .F. ) ;
#261 = VERTEX_POINT ( 'NONE', #648 ) ;
#262 = PLANE ( 'NONE',  #707 ) ;
#263 = EDGE_LOOP ( 'NONE', ( #617, #943, #1253, #1159 ) ) ;
#264 = ORIENTED_EDGE ( 'NONE', *, *, #1066, .F. ) ;
#265 = CARTESIAN_POINT ( 'NONE',  ( -22.57536523183255284, 13.50000000000002309, 0.000000000000000000 ) ) ;
#266 = ORIENTED_EDGE ( 'NONE', *, *, #1028, .F. ) ;
#267 = DIRECTION ( 'NONE',  ( -5.782411586589367500E-16, 1.000000000000000000, 0.000000000000000000 ) ) ;
#268 = LINE ( 'NONE', #148, #777 ) ;
#269 = CIRCLE ( 'NONE', #372, 2.100000000000000977 ) ;
#270 = AXIS2_PLACEMENT_3D ( 'NONE', #406, #307, #1120 ) ;
#271 = CARTESIAN_POINT ( 'NONE',  ( -32.41398353823105083, 10.23645155088345859, 0.000000000000000000 ) ) ;
#272 = ORIENTED_EDGE ( 'NONE', *, *, #678, .T. ) ;
#273 = FACE_OUTER_BOUND ( 'NONE', #599, .T. ) ;
#274 = DIRECTION ( 'NONE',  ( -0.000000000000000000, 0.000000000000000000, 1.000000000000000000 ) ) ;
#275 = EDGE_CURVE ( 'NONE', #459, #255, #666, .T. ) ;
#276 = AXIS2_PLACEMENT_3D ( 'NONE', #544, #453, #363 ) ;
#277 = CARTESIAN_POINT ( 'NONE',  ( 27.07536523183255639, 5.500000000000052403, 8.000000000000000000 ) ) ;
#278 = EDGE_LOOP ( 'NONE', ( #1201, #264 ) ) ;
#279 = FACE_BOUND ( 'NONE', #166, .T. ) ;
#280 = LINE ( 'NONE', #578, #1121 ) ;
#281 = CIRCLE ( 'NONE', #12, 2.099999999779930793 ) ;
#282 = EDGE_CURVE ( 'NONE', #1173, #346, #1020, .T. ) ;
#283 = AXIS2_PLACEMENT_3D ( 'NONE', #656, #470, #1262 ) ;
#284 = CARTESIAN_POINT ( 'NONE',  ( -25.07536523183255639, 5.500000000000051514, 0.000000000000000000 ) ) ;
#285 = ORIENTED_EDGE ( 'NONE', *, *, #959, .F. ) ;
#286 = LINE ( 'NONE', #764, #1035 ) ;
#287 = DIRECTION ( 'NONE',  ( 0.000000000000000000, 0.000000000000000000, 1.000000000000000000 ) ) ;
#288 = EDGE_CURVE ( 'NONE', #29, #793, #606, .T. ) ;
#289 = LINE ( 'NONE', #386, #428 ) ;
#290 = CARTESIAN_POINT ( 'NONE',  ( -10.02000000000000135, 2.081668171172168513E-14, 8.000000000000000000 ) ) ;
#291 = DIRECTION ( 'NONE',  ( -0.000000000000000000, 1.000000000000000000, -0.000000000000000000 ) ) ;
#292 = VERTEX_POINT ( 'NONE', #164 ) ;
#293 = CARTESIAN_POINT ( 'NONE',  ( 1.606730727770469436, 9.890696915394972422, 3.566646924385450834 ) ) ;
#294 = CARTESIAN_POINT ( 'NONE',  ( -13.50000000000000711, 19.00000000000002487, 4.000000000000000000 ) ) ;
#295 = DIRECTION ( 'NONE',  ( 1.000000000000000000, 0.000000000000000000, 0.000000000000000000 ) ) ;
#296 = VECTOR ( 'NONE', #145, 1000.000000000000000 ) ;
#297 = DIRECTION ( 'NONE',  ( 0.000000000000000000, 0.000000000000000000, -1.000000000000000000 ) ) ;
#298 = AXIS2_PLACEMENT_3D ( 'NONE', #209, #201, #4 ) ;
#299 = AXIS2_PLACEMENT_3D ( 'NONE', #206, #107, #505 ) ;
#300 = LINE ( 'NONE', #509, #485 ) ;
#301 = FACE_OUTER_BOUND ( 'NONE', #1261, .T. ) ;
#302 = DIRECTION ( 'NONE',  ( -1.000000000000000000, -2.668805347656626678E-16, 0.000000000000000000 ) ) ;
#303 = UNCERTAINTY_MEASURE_WITH_UNIT (LENGTH_MEASURE( 1.000000000000000082E-05 ), #28, 'distance_accuracy_value', 'NONE');
#304 = ORIENTED_EDGE ( 'NONE', *, *, #522, .T. ) ;
#305 = PLANE ( 'NONE',  #487 ) ;
#306 = ORIENTED_EDGE ( 'NONE', *, *, #535, .T. ) ;
#307 = DIRECTION ( 'NONE',  ( 0.000000000000000000, -0.000000000000000000, -1.000000000000000000 ) ) ;
#308 = CARTESIAN_POINT ( 'NONE',  ( 34.65073046366511278, 9.763548448602024976, 8.000000000000000000 ) ) ;
#309 = FACE_OUTER_BOUND ( 'NONE', #369, .T. ) ;
#310 = VERTEX_POINT ( 'NONE', #950 ) ;
#311 = DIRECTION ( 'NONE',  ( 0.000000000000000000, -0.000000000000000000, 1.000000000000000000 ) ) ;
#312 = VERTEX_POINT ( 'NONE', #1135 ) ;
#313 = LINE ( 'NONE', #1195, #542 ) ;
#314 = AXIS2_PLACEMENT_3D ( 'NONE', #284, #674, #1067 ) ;
#315 = EDGE_CURVE ( 'NONE', #566, #47, #753, .T. ) ;
#316 = EDGE_CURVE ( 'NONE', #255, #874, #852, .T. ) ;
#317 = PRESENTATION_LAYER_ASSIGNMENT (  '', '', ( #644 ) ) ;
#318 = DIRECTION ( 'NONE',  ( -1.000000000000000000, 0.000000000000000000, 0.000000000000000000 ) ) ;
#319 = DIRECTION ( 'NONE',  ( -2.668805347656626678E-16, 1.000000000000000000, 0.000000000000000000 ) ) ;
#320 = CARTESIAN_POINT ( 'NONE',  ( 22.57536523183255284, 3.500000000000051514, 8.000000000000000000 ) ) ;
#321 = CIRCLE ( 'NONE', #1231, 2.099999999999999645 ) ;
#322 = DIRECTION ( 'NONE',  ( 2.891205793294688187E-16, -1.000000000000000000, 0.000000000000000000 ) ) ;
#323 = CARTESIAN_POINT ( 'NONE',  ( -0.000000000000000000, 3.500000000000051514, 0.000000000000000000 ) ) ;
#324 = EDGE_CURVE ( 'NONE', #687, #163, #767, .T. ) ;
#325 = EDGE_LOOP ( 'NONE', ( #237, #947 ) ) ;
#326 = DIRECTION ( 'NONE',  ( -1.000000000000000000, 0.000000000000000000, 0.000000000000000000 ) ) ;
#327 = AXIS2_PLACEMENT_3D ( 'NONE', #73, #1164, #1267 ) ;
#328 = VERTEX_POINT ( 'NONE', #736 ) ;
#329 = CARTESIAN_POINT ( 'NONE',  ( -1.639261600379821049, 9.885022965560136043, 3.783254648219511296 ) ) ;
#330 = CARTESIAN_POINT ( 'NONE',  ( 22.57536523183255284, 15.50000000000002842, 0.000000000000000000 ) ) ;
#331 = EDGE_CURVE ( 'NONE', #1109, #894, #160, .T. ) ;
#332 = CARTESIAN_POINT ( 'NONE',  ( 20.57536523183255284, 3.500000000000051514, -2.000000000000000000 ) ) ;
#333 = CIRCLE ( 'NONE', #1049, 1.999999999999998224 ) ;
#334 = EDGE_LOOP ( 'NONE', ( #446, #1032 ) ) ;
#335 = CARTESIAN_POINT ( 'NONE',  ( -1.606421229443110832, 9.890740606930014778, 4.433689685433208183 ) ) ;
#336 = ORIENTED_EDGE ( 'NONE', *, *, #60, .F. ) ;
#337 = DIRECTION ( 'NONE',  ( 1.000000000000000000, 0.000000000000000000, 0.000000000000000000 ) ) ;
#338 = DIRECTION ( 'NONE',  ( -1.000000000000000000, 0.000000000000000000, 0.000000000000000000 ) ) ;
#339 = ORIENTED_EDGE ( 'NONE', *, *, #1113, .F. ) ;
#340 = CARTESIAN_POINT ( 'NONE',  ( 13.50000000000000178, 2.081668171172168513E-14, 1.899999999999999245 ) ) ;
#341 = ORIENTED_EDGE ( 'NONE', *, *, #288, .F. ) ;
#342 =( NAMED_UNIT ( * ) SI_UNIT ( $, .STERADIAN. ) SOLID_ANGLE_UNIT ( ) );
#343 = AXIS2_PLACEMENT_3D ( 'NONE', #422, #705, #632 ) ;
#344 = EDGE_LOOP ( 'NONE', ( #243, #356, #477, #216 ) ) ;
#345 = DIRECTION ( 'NONE',  ( -0.000000000000000000, 0.000000000000000000, 1.000000000000000000 ) ) ;
#346 = VERTEX_POINT ( 'NONE', #834 ) ;
#347 = ORIENTED_EDGE ( 'NONE', *, *, #1055, .T. ) ;
#348 = DIRECTION ( 'NONE',  ( -0.000000000000000000, 0.000000000000000000, 1.000000000000000000 ) ) ;
#349 = APPLICATION_CONTEXT ( 'automotive_design' ) ;
#350 = ORIENTED_EDGE ( 'NONE', *, *, #275, .T. ) ;
#351 = CARTESIAN_POINT ( 'NONE',  ( 39.00000000000000000, 14.00000000000002309, 8.000000000000000000 ) ) ;
#352 = ORIENTED_EDGE ( 'NONE', *, *, #165, .T. ) ;
#353 = EDGE_CURVE ( 'NONE', #365, #74, #1039, .T. ) ;
#354 = CARTESIAN_POINT ( 'NONE',  ( -10.02000000000000135, 2.081668171172168513E-14, 0.000000000000000000 ) ) ;
#355 = AXIS2_PLACEMENT_3D ( 'NONE', #721, #540, #744 ) ;
#356 = ORIENTED_EDGE ( 'NONE', *, *, #616, .T. ) ;
#357 = DIRECTION ( 'NONE',  ( -0.000000000000000000, 0.000000000000000000, -1.000000000000000000 ) ) ;
#358 = ORIENTED_EDGE ( 'NONE', *, *, #727, .T. ) ;
#359 = VECTOR ( 'NONE', #267, 1000.000000000000000 ) ;
#360 = VECTOR ( 'NONE', #228, 1000.000000000000000 ) ;
#361 = CARTESIAN_POINT ( 'NONE',  ( -39.00000000000000000, 19.00000000000002487, 0.000000000000000000 ) ) ;
#362 = ORIENTED_EDGE ( 'NONE', *, *, #603, .T. ) ;
#363 = DIRECTION ( 'NONE',  ( 1.000000000000000000, 0.000000000000000000, 0.000000000000000000 ) ) ;
#364 = AXIS2_PLACEMENT_3D ( 'NONE', #1198, #414, #1106 ) ;
#365 = VERTEX_POINT ( 'NONE', #64 ) ;
#366 = EDGE_CURVE ( 'NONE', #1264, #661, #1041, .T. ) ;
#367 = CARTESIAN_POINT ( 'NONE',  ( 44.00000000000000000, 19.00000000000002487, 8.000000000000000000 ) ) ;
#368 = ADVANCED_FACE ( 'NONE', ( #248 ), #262, .T. ) ;
#369 = EDGE_LOOP ( 'NONE', ( #1062, #156, #1042, #523 ) ) ;
#370 = CARTESIAN_POINT ( 'NONE',  ( 0.2183847204585452895, 10.02000000000000135, 5.650000000000000355 ) ) ;
#371 = DIRECTION ( 'NONE',  ( 0.000000000000000000, 1.000000000000000000, 0.000000000000000000 ) ) ;
#372 = AXIS2_PLACEMENT_3D ( 'NONE', #677, #1080, #287 ) ;
#373 = AXIS2_PLACEMENT_3D ( 'NONE', #511, #895, #611 ) ;
#374 = LINE ( 'NONE', #579, #1281 ) ;
#375 = ORIENTED_EDGE ( 'NONE', *, *, #331, .F. ) ;
#376 = EDGE_CURVE ( 'NONE', #180, #695, #728, .T. ) ;
#377 = FACE_OUTER_BOUND ( 'NONE', #58, .T. ) ;
#378 = DIRECTION ( 'NONE',  ( -0.000000000000000000, 1.000000000000000000, -0.000000000000000000 ) ) ;
#379 = VECTOR ( 'NONE', #256, 1000.000000000000000 ) ;
#380 = CARTESIAN_POINT ( 'NONE',  ( -25.07536523183255639, 3.500000000000051514, 8.000000000000000000 ) ) ;
#381 = ORIENTED_EDGE ( 'NONE', *, *, #1138, .F. ) ;
#382 = CARTESIAN_POINT ( 'NONE',  ( 39.00000000000000000, 14.00000000000002309, -31.40063693621518581 ) ) ;
#383 = EDGE_CURVE ( 'NONE', #930, #90, #1211, .T. ) ;
#384 = LINE ( 'NONE', #175, #389 ) ;
#385 = CIRCLE ( 'NONE', #692, 2.100000000000000977 ) ;
#386 = CARTESIAN_POINT ( 'NONE',  ( 27.07536523183254928, 15.50000000000003020, 8.000000000000000000 ) ) ;
#387 = VECTOR ( 'NONE', #770, 1000.000000000000000 ) ;
#388 = DIRECTION ( 'NONE',  ( 1.000000000000000000, 0.000000000000000000, 0.000000000000000000 ) ) ;
#389 = VECTOR ( 'NONE', #486, 1000.000000000000000 ) ;
#390 = ORIENTED_EDGE ( 'NONE', *, *, #50, .F. ) ;
#391 = CARTESIAN_POINT ( 'NONE',  ( 0.4353008441092019454, 10.01251362561819214, 5.605982764008737185 ) ) ;
#392 = EDGE_CURVE ( 'NONE', #601, #687, #557, .T. ) ;
#393 = CARTESIAN_POINT ( 'NONE',  ( 0.000000000000000000, 2.081668171172168513E-14, 8.000000000000000000 ) ) ;
#394 = EDGE_CURVE ( 'NONE', #1241, #245, #830, .T. ) ;
#395 = CARTESIAN_POINT ( 'NONE',  ( 39.00000000000000000, 14.00000000000002309, 0.000000000000000000 ) ) ;
#396 = LINE ( 'NONE', #785, #359 ) ;
#397 = EDGE_LOOP ( 'NONE', ( #752, #464, #655, #1009 ) ) ;
#398 = CARTESIAN_POINT ( 'NONE',  ( -36.61398353779614467, 10.23645155088345859, 0.000000000000000000 ) ) ;
#399 = FACE_OUTER_BOUND ( 'NONE', #1249, .T. ) ;
#400 = DIRECTION ( 'NONE',  ( 1.000000000000000000, 0.000000000000000000, 0.000000000000000000 ) ) ;
#401 = CYLINDRICAL_SURFACE ( 'NONE', #150, 2.000000000000001776 ) ;
#402 = EDGE_CURVE ( 'NONE', #1151, #856, #321, .T. ) ;
#403 = AXIS2_PLACEMENT_3D ( 'NONE', #95, #880, #890 ) ;
#404 = LINE ( 'NONE', #102, #190 ) ;
#405 = ORIENTED_EDGE ( 'NONE', *, *, #678, .F. ) ;
#406 = CARTESIAN_POINT ( 'NONE',  ( -22.57536523183255284, 13.50000000000002309, 8.000000000000000000 ) ) ;
#407 = DIRECTION ( 'NONE',  ( -0.000000000000000000, 0.000000000000000000, -1.000000000000000000 ) ) ;
#408 = DIRECTION ( 'NONE',  ( 0.000000000000000000, 1.000000000000000000, 0.000000000000000000 ) ) ;
#409 = DIRECTION ( 'NONE',  ( 0.000000000000000000, -0.000000000000000000, -1.000000000000000000 ) ) ;
#410 = ORIENTED_EDGE ( 'NONE', *, *, #841, .T. ) ;
#411 = CARTESIAN_POINT ( 'NONE',  ( 27.07536523183255639, 5.500000000000052403, 0.000000000000000000 ) ) ;
#412 = FACE_OUTER_BOUND ( 'NONE', #1134, .T. ) ;
#413 = FACE_OUTER_BOUND ( 'NONE', #771, .T. ) ;
#414 = DIRECTION ( 'NONE',  ( 0.000000000000000000, 1.000000000000000000, 0.000000000000000000 ) ) ;
#415 = VERTEX_POINT ( 'NONE', #340 ) ;
#416 = DIRECTION ( 'NONE',  ( -0.000000000000000000, 0.000000000000000000, -1.000000000000000000 ) ) ;
#417 = APPLICATION_CONTEXT ( 'automotive_design' ) ;
#418 = ORIENTED_EDGE ( 'NONE', *, *, #1235, .T. ) ;
#419 = CYLINDRICAL_SURFACE ( 'NONE', #217, 1.999999999999998224 ) ;
#420 = CIRCLE ( 'NONE', #580, 2.000000000000001776 ) ;
#421 = COLOUR_RGB ( '',0.7921568627450980005, 0.8196078431372548767, 0.9333333333333333481 ) ;
#422 = CARTESIAN_POINT ( 'NONE',  ( 0.000000000000000000, 0.000000000000000000, 8.000000000000000000 ) ) ;
#423 = VECTOR ( 'NONE', #962, 1000.000000000000000 ) ;
#424 = CARTESIAN_POINT ( 'NONE',  ( -34.51398353801359775, 10.23645155088345859, 8.000000000000000000 ) ) ;
#425 = SHAPE_DEFINITION_REPRESENTATION ( #105, #122 ) ;
#426 = CARTESIAN_POINT ( 'NONE',  ( -1.006322036179302826, 9.969744969671463508, 5.312033800567872888 ) ) ;
#427 = CARTESIAN_POINT ( 'NONE',  ( 44.00000000000000000, 14.00000000000002309, 0.000000000000000000 ) ) ;
#428 = VECTOR ( 'NONE', #433, 1000.000000000000000 ) ;
#429 = ORIENTED_EDGE ( 'NONE', *, *, #902, .F. ) ;
#430 = CARTESIAN_POINT ( 'NONE',  ( 0.000000000000000000, 2.081668171172168513E-14, 8.000000000000000000 ) ) ;
#431 = VERTEX_POINT ( 'NONE', #931 ) ;
#432 = CARTESIAN_POINT ( 'NONE',  ( -0.4291359289999222559, 10.01136730452731349, 2.403124502028356702 ) ) ;
#433 = DIRECTION ( 'NONE',  ( -1.000000000000000000, -2.668805347656626678E-16, 0.000000000000000000 ) ) ;
#434 = LINE ( 'NONE', #330, #54 ) ;
#435 = EDGE_CURVE ( 'NONE', #36, #661, #46, .T. ) ;
#436 = PLANE ( 'NONE',  #364 ) ;
#437 = CARTESIAN_POINT ( 'NONE',  ( -6.938893903907228378E-15, 2.081668171172168513E-14, 4.000000000000000000 ) ) ;
#438 = VECTOR ( 'NONE', #964, 1000.000000000000000 ) ;
#439 = AXIS2_PLACEMENT_3D ( 'NONE', #801, #807, #1202 ) ;
#440 = VERTEX_POINT ( 'NONE', #1236 ) ;
#441 = DIRECTION ( 'NONE',  ( 1.000000000000000000, 0.000000000000000000, 0.000000000000000000 ) ) ;
#442 = EDGE_LOOP ( 'NONE', ( #1143, #533, #223, #921 ) ) ;
#443 = DIRECTION ( 'NONE',  ( 0.000000000000000000, -0.000000000000000000, -1.000000000000000000 ) ) ;
#444 = ORIENTED_EDGE ( 'NONE', *, *, #1220, .F. ) ;
#445 = CARTESIAN_POINT ( 'NONE',  ( -44.00000000000000000, 19.00000000000002132, 8.000000000000000000 ) ) ;
#446 = ORIENTED_EDGE ( 'NONE', *, *, #22, .F. ) ;
#447 = EDGE_LOOP ( 'NONE', ( #252, #186, #336, #868 ) ) ;
#448 = DIRECTION ( 'NONE',  ( 0.000000000000000000, -0.000000000000000000, -1.000000000000000000 ) ) ;
#449 = CARTESIAN_POINT ( 'NONE',  ( -39.00000000000000000, 14.00000000000002309, 0.000000000000000000 ) ) ;
#450 = AXIS2_PLACEMENT_3D ( 'NONE', #613, #1213, #7 ) ;
#451 = ORIENTED_EDGE ( 'NONE', *, *, #1014, .T. ) ;
#452 = EDGE_CURVE ( 'NONE', #1137, #1226, #817, .T. ) ;
#453 = DIRECTION ( 'NONE',  ( -0.000000000000000000, 0.000000000000000000, 1.000000000000000000 ) ) ;
#454 = VECTOR ( 'NONE', #192, 1000.000000000000000 ) ;
#455 = CARTESIAN_POINT ( 'NONE',  ( 36.75073046344504490, 9.763548448602024976, 8.000000000000000000 ) ) ;
#456 = CIRCLE ( 'NONE', #1284, 2.099999999782546478 ) ;
#457 = FACE_OUTER_BOUND ( 'NONE', #263, .T. ) ;
#458 = CARTESIAN_POINT ( 'NONE',  ( 0.000000000000000000, 0.000000000000000000, 8.000000000000000000 ) ) ;
#459 = VERTEX_POINT ( 'NONE', #757 ) ;
#460 = DIRECTION ( 'NONE',  ( 0.000000000000000000, -0.000000000000000000, 1.000000000000000000 ) ) ;
#461 = ORIENTED_EDGE ( 'NONE', *, *, #1220, .T. ) ;
#462 = DIRECTION ( 'NONE',  ( 0.000000000000000000, -1.000000000000000000, 0.000000000000000000 ) ) ;
#463 = DIRECTION ( 'NONE',  ( 1.000000000000000000, 0.000000000000000000, 0.000000000000000000 ) ) ;
#464 = ORIENTED_EDGE ( 'NONE', *, *, #1153, .T. ) ;
#465 = CARTESIAN_POINT ( 'NONE',  ( -0.000000000000000000, 2.081668171172168513E-14, 0.000000000000000000 ) ) ;
#466 = ORIENTED_EDGE ( 'NONE', *, *, #1258, .F. ) ;
#467 = AXIS2_PLACEMENT_3D ( 'NONE', #478, #1052, #664 ) ;
#468 = VECTOR ( 'NONE', #1072, 1000.000000000000000 ) ;
#469 = ADVANCED_FACE ( 'NONE', ( #567 ), #981, .T. ) ;
#470 = DIRECTION ( 'NONE',  ( 0.000000000000000000, 0.000000000000000000, -1.000000000000000000 ) ) ;
#471 = ORIENTED_EDGE ( 'NONE', *, *, #165, .F. ) ;
#472 = CARTESIAN_POINT ( 'NONE',  ( -44.00000000000000000, 14.00000000000002487, 0.000000000000000000 ) ) ;
#473 = DIRECTION ( 'NONE',  ( 0.000000000000000000, 1.000000000000000000, 0.000000000000000000 ) ) ;
#474 = EDGE_CURVE ( 'NONE', #915, #255, #196, .T. ) ;
#475 = EDGE_LOOP ( 'NONE', ( #815, #1091, #975, #821 ) ) ;
#476 = CARTESIAN_POINT ( 'NONE',  ( 44.00000000000000000, -1.836970198721031955E-15, -1.387778780781445676E-14 ) ) ;
#477 = ORIENTED_EDGE ( 'NONE', *, *, #77, .T. ) ;
#478 = CARTESIAN_POINT ( 'NONE',  ( 27.07536523183255639, 3.500000000000051514, -2.000000000000000000 ) ) ;
#479 = LINE ( 'NONE', #1277, #101 ) ;
#480 = ORIENTED_EDGE ( 'NONE', *, *, #1138, .T. ) ;
#481 = CYLINDRICAL_SURFACE ( 'NONE', #712, 4.999999999999997335 ) ;
#482 = AXIS2_PLACEMENT_3D ( 'NONE', #1105, #1088, #499 ) ;
#483 = ORIENTED_EDGE ( 'NONE', *, *, #80, .T. ) ;
#484 = CARTESIAN_POINT ( 'NONE',  ( 1.015782186646094098, 9.969549857805082738, 5.317873427691948152 ) ) ;
#485 = VECTOR ( 'NONE', #409, 1000.000000000000000 ) ;
#486 = DIRECTION ( 'NONE',  ( 0.000000000000000000, -1.000000000000000000, 0.000000000000000000 ) ) ;
#487 = AXIS2_PLACEMENT_3D ( 'NONE', #430, #517, #311 ) ;
#488 = VECTOR ( 'NONE', #641, 1000.000000000000000 ) ;
#489 = FACE_OUTER_BOUND ( 'NONE', #195, .T. ) ;
#490 = ORIENTED_EDGE ( 'NONE', *, *, #826, .T. ) ;
#491 = CYLINDRICAL_SURFACE ( 'NONE', #916, 2.099999999999999645 ) ;
#492 = ADVANCED_FACE ( 'NONE', ( #497 ), #491, .F. ) ;
#493 = CYLINDRICAL_SURFACE ( 'NONE', #734, 2.099999999782546478 ) ;
#494 = CIRCLE ( 'NONE', #671, 2.000000000000001776 ) ;
#495 = PLANE ( 'NONE',  #129 ) ;
#496 = ORIENTED_EDGE ( 'NONE', *, *, #1036, .T. ) ;
#497 = FACE_OUTER_BOUND ( 'NONE', #200, .T. ) ;
#498 = LINE ( 'NONE', #393, #719 ) ;
#499 = DIRECTION ( 'NONE',  ( 1.000000000000000000, 0.000000000000000000, 0.000000000000000000 ) ) ;
#500 = EDGE_LOOP ( 'NONE', ( #241, #835, #226, #1145 ) ) ;
#501 = FACE_OUTER_BOUND ( 'NONE', #442, .T. ) ;
#502 = EDGE_LOOP ( 'NONE', ( #839, #746, #161, #763 ) ) ;
#503 = DIRECTION ( 'NONE',  ( 1.000000000000000000, 0.000000000000000000, 0.000000000000000000 ) ) ;
#504 = CARTESIAN_POINT ( 'NONE',  ( -7.024979407443733434E-15, 10.02000000000000135, 5.650000000000000355 ) ) ;
#505 = DIRECTION ( 'NONE',  ( -1.000000000000000000, 0.000000000000000000, 0.000000000000000000 ) ) ;
#506 = EDGE_CURVE ( 'NONE', #906, #312, #396, .T. ) ;
#507 = CARTESIAN_POINT ( 'NONE',  ( -20.57536523183255284, 5.500000000000051514, 0.000000000000000000 ) ) ;
#508 = ADVANCED_FACE ( 'NONE', ( #273 ), #658, .F. ) ;
#509 = CARTESIAN_POINT ( 'NONE',  ( 27.07536523183254928, 13.50000000000003020, 0.000000000000000000 ) ) ;
#510 = VERTEX_POINT ( 'NONE', #472 ) ;
#511 = CARTESIAN_POINT ( 'NONE',  ( -34.51398353801359775, 10.23645155088345859, 0.000000000000000000 ) ) ;
#512 = CARTESIAN_POINT ( 'NONE',  ( -25.07536523183255639, 3.500000000000051514, 0.000000000000000000 ) ) ;
#513 = CARTESIAN_POINT ( 'NONE',  ( 25.07536523183255639, 3.500000000000051514, 0.000000000000000000 ) ) ;
#514 = VECTOR ( 'NONE', #88, 1000.000000000000000 ) ;
#515 = ORIENTED_EDGE ( 'NONE', *, *, #959, .T. ) ;
#516 = CLOSED_SHELL ( 'NONE', ( #44, #547, #963, #776, #790, #1193, #546, #1251, #563, #1237, #638, #492, #1139, #1212, #368, #672, #469, #847, #581, #1060, #1008, #1260, #1006, #1240, #733, #996, #508, #222, #900, #958, #816, #260, #1053, #1168, #549, #220 ) ) ;
#517 = DIRECTION ( 'NONE',  ( 0.000000000000000000, 1.000000000000000000, 0.000000000000000000 ) ) ;
#518 = DIRECTION ( 'NONE',  ( -0.000000000000000000, 0.000000000000000000, 1.000000000000000000 ) ) ;
#519 = DIRECTION ( 'NONE',  ( -0.000000000000000000, -0.000000000000000000, -1.000000000000000000 ) ) ;
#520 = CARTESIAN_POINT ( 'NONE',  ( -27.07536523183255994, 15.50000000000001243, -2.000000000000000000 ) ) ;
#521 = CYLINDRICAL_SURFACE ( 'NONE', #194, 1.650000000000000355 ) ;
#522 = EDGE_CURVE ( 'NONE', #1023, #695, #577, .T. ) ;
#523 = ORIENTED_EDGE ( 'NONE', *, *, #1136, .T. ) ;
#524 = PLANE ( 'NONE',  #974 ) ;
#525 = ORIENTED_EDGE ( 'NONE', *, *, #1, .T. ) ;
#526 = EDGE_CURVE ( 'NONE', #595, #930, #286, .T. ) ;
#527 = CARTESIAN_POINT ( 'NONE',  ( -0.2172749899567221199, 10.01820465604772714, 2.360804898640765259 ) ) ;
#528 = AXIS2_PLACEMENT_3D ( 'NONE', #618, #1007, #1200 ) ;
#529 = CARTESIAN_POINT ( 'NONE',  ( 25.07536523183254928, 15.50000000000003020, 0.000000000000000000 ) ) ;
#530 = PRODUCT_DEFINITION_CONTEXT ( 'detailed design', #417, 'design' ) ;
#531 = CARTESIAN_POINT ( 'NONE',  ( 32.55073046388518065, 9.763548448602024976, 8.000000000000000000 ) ) ;
#532 = CIRCLE ( 'NONE', #748, 2.000000000000001776 ) ;
#533 = ORIENTED_EDGE ( 'NONE', *, *, #603, .F. ) ;
#534 = CARTESIAN_POINT ( 'NONE',  ( -0.1092195505261069621, 10.02000000000000135, 5.650000000000000355 ) ) ;
#535 = EDGE_CURVE ( 'NONE', #1124, #798, #1058, .T. ) ;
#536 = DIRECTION ( 'NONE',  ( 0.000000000000000000, 0.000000000000000000, 1.000000000000000000 ) ) ;
#537 = ORIENTED_EDGE ( 'NONE', *, *, #392, .F. ) ;
#538 = DIRECTION ( 'NONE',  ( 0.000000000000000000, 0.000000000000000000, -1.000000000000000000 ) ) ;
#539 = CYLINDRICAL_SURFACE ( 'NONE', #450, 2.100000000000000977 ) ;
#540 = DIRECTION ( 'NONE',  ( 0.000000000000000000, -0.000000000000000000, -1.000000000000000000 ) ) ;
#541 = VECTOR ( 'NONE', #274, 1000.000000000000000 ) ;
#542 = VECTOR ( 'NONE', #889, 1000.000000000000000 ) ;
#543 = ORIENTED_EDGE ( 'NONE', *, *, #1176, .F. ) ;
#544 = CARTESIAN_POINT ( 'NONE',  ( -25.07536523183255994, 13.50000000000001776, 0.000000000000000000 ) ) ;
#545 = LINE ( 'NONE', #65, #941 ) ;
#546 = ADVANCED_FACE ( 'NONE', ( #279, #377 ), #1274, .F. ) ;
#547 = ADVANCED_FACE ( 'NONE', ( #187 ), #583, .F. ) ;
#548 = LINE ( 'NONE', #139, #1250 ) ;
#549 = ADVANCED_FACE ( 'NONE', ( #501 ), #1001, .F. ) ;
#550 = ORIENTED_EDGE ( 'NONE', *, *, #106, .T. ) ;
#551 = CARTESIAN_POINT ( 'NONE',  ( 0.2155131932530118255, 10.02000000000000135, 2.350000000000000533 ) ) ;
#552 = VECTOR ( 'NONE', #41, 1000.000000000000000 ) ;
#553 = ORIENTED_EDGE ( 'NONE', *, *, #1160, .F. ) ;
#554 = DIRECTION ( 'NONE',  ( -0.000000000000000000, 0.000000000000000000, 1.000000000000000000 ) ) ;
#555 = AXIS2_PLACEMENT_3D ( 'NONE', #520, #1122, #1021 ) ;
#556 = ORIENTED_EDGE ( 'NONE', *, *, #878, .F. ) ;
#557 = LINE ( 'NONE', #244, #552 ) ;
#558 = VERTEX_POINT ( 'NONE', #1012 ) ;
#559 = VECTOR ( 'NONE', #1285, 1000.000000000000000 ) ;
#560 = FILL_AREA_STYLE ('',( #62 ) ) ;
#561 = ORIENTED_EDGE ( 'NONE', *, *, #654, .T. ) ;
#562 = DIRECTION ( 'NONE',  ( 1.000000000000000000, 0.000000000000000000, 0.000000000000000000 ) ) ;
#563 = ADVANCED_FACE ( 'NONE', ( #1192, #708 ), #305, .F. ) ;
#564 = ORIENTED_EDGE ( 'NONE', *, *, #952, .T. ) ;
#565 = CARTESIAN_POINT ( 'NONE',  ( 32.55073046388518065, 9.763548448602024976, 22.00000000000000000 ) ) ;
#566 = VERTEX_POINT ( 'NONE', #701 ) ;
#567 = FACE_OUTER_BOUND ( 'NONE', #475, .T. ) ;
#568 = ORIENTED_EDGE ( 'NONE', *, *, #202, .T. ) ;
#569 = EDGE_CURVE ( 'NONE', #247, #740, #1108, .T. ) ;
#570 = LINE ( 'NONE', #367, #1172 ) ;
#571 = EDGE_LOOP ( 'NONE', ( #51, #675, #381, #786 ) ) ;
#572 = CARTESIAN_POINT ( 'NONE',  ( 25.07536523183254928, 15.50000000000003020, 8.000000000000000000 ) ) ;
#573 = AXIS2_PLACEMENT_3D ( 'NONE', #927, #462, #448 ) ;
#574 = CARTESIAN_POINT ( 'NONE',  ( -34.51398353801359775, 10.23645155088345859, 8.000000000000000000 ) ) ;
#575 = CARTESIAN_POINT ( 'NONE',  ( 39.00000000000000000, 19.00000000000002487, 0.000000000000000000 ) ) ;
#576 = ORIENTED_EDGE ( 'NONE', *, *, #727, .F. ) ;
#577 = LINE ( 'NONE', #1166, #586 ) ;
#578 = CARTESIAN_POINT ( 'NONE',  ( 44.00000000000000000, 19.00000000000002487, 0.000000000000000000 ) ) ;
#579 = CARTESIAN_POINT ( 'NONE',  ( 27.07536523183255639, 3.500000000000051514, 8.000000000000000000 ) ) ;
#580 = AXIS2_PLACEMENT_3D ( 'NONE', #991, #108, #8 ) ;
#581 = ADVANCED_FACE ( 'NONE', ( #1215 ), #688, .F. ) ;
#582 = ORIENTED_EDGE ( 'NONE', *, *, #376, .F. ) ;
#583 = CYLINDRICAL_SURFACE ( 'NONE', #89, 2.099999999779930793 ) ;
#584 = CIRCLE ( 'NONE', #914, 10.02000000000000135 ) ;
#585 = CARTESIAN_POINT ( 'NONE',  ( 22.57536523183255284, 3.500000000000051514, 8.000000000000000000 ) ) ;
#586 = VECTOR ( 'NONE', #857, 1000.000000000000000 ) ;
#587 = AXIS2_PLACEMENT_3D ( 'NONE', #308, #1097, #113 ) ;
#588 = DIRECTION ( 'NONE',  ( 1.000000000000000000, 0.000000000000000000, 0.000000000000000000 ) ) ;
#589 = EDGE_LOOP ( 'NONE', ( #123, #49, #515, #886 ) ) ;
#590 = CARTESIAN_POINT ( 'NONE',  ( 0.000000000000000000, 19.00000000000002487, 8.000000000000000000 ) ) ;
#591 = CARTESIAN_POINT ( 'NONE',  ( 34.65073046366511278, 9.763548448602024976, 0.000000000000000000 ) ) ;
#592 = CYLINDRICAL_SURFACE ( 'NONE', #680, 2.100000000000000977 ) ;
#593 = DIRECTION ( 'NONE',  ( -0.000000000000000000, 1.000000000000000000, -0.000000000000000000 ) ) ;
#594 = EDGE_CURVE ( 'NONE', #1137, #310, #1117, .T. ) ;
#595 = VERTEX_POINT ( 'NONE', #901 ) ;
#596 = LINE ( 'NONE', #691, #15 ) ;
#597 = VECTOR ( 'NONE', #322, 1000.000000000000000 ) ;
#598 = DIRECTION ( 'NONE',  ( 0.000000000000000000, 0.000000000000000000, 1.000000000000000000 ) ) ;
#599 = EDGE_LOOP ( 'NONE', ( #933, #561, #1245, #647 ) ) ;
#600 = DIRECTION ( 'NONE',  ( -0.000000000000000000, -1.000000000000000000, -0.000000000000000000 ) ) ;
#601 = VERTEX_POINT ( 'NONE', #115 ) ;
#602 = DIRECTION ( 'NONE',  ( 0.000000000000000000, 0.000000000000000000, -1.000000000000000000 ) ) ;
#603 = EDGE_CURVE ( 'NONE', #827, #431, #893, .T. ) ;
#604 = CARTESIAN_POINT ( 'NONE',  ( -22.57536523183255639, 15.50000000000002309, 8.000000000000000000 ) ) ;
#605 = DIRECTION ( 'NONE',  ( 0.000000000000000000, -0.000000000000000000, -1.000000000000000000 ) ) ;
#606 = CIRCLE ( 'NONE', #276, 1.999999999999998224 ) ;
#607 = ORIENTED_EDGE ( 'NONE', *, *, #1276, .T. ) ;
#608 = CARTESIAN_POINT ( 'NONE',  ( 44.00000000000000000, 19.00000000000002487, -31.40063693621518581 ) ) ;
#609 = APPLICATION_PROTOCOL_DEFINITION ( 'draft international standard', 'automotive_design', 1998, #349 ) ;
#610 = ORIENTED_EDGE ( 'NONE', *, *, #922, .F. ) ;
#611 = DIRECTION ( 'NONE',  ( -1.000000000000000000, 0.000000000000000000, 0.000000000000000000 ) ) ;
#612 = ORIENTED_EDGE ( 'NONE', *, *, #768, .F. ) ;
#613 = CARTESIAN_POINT ( 'NONE',  ( 13.50000000000000178, 2.081668171172168513E-14, 4.000000000000000000 ) ) ;
#614 = DIRECTION ( 'NONE',  ( 0.000000000000000000, -0.000000000000000000, -1.000000000000000000 ) ) ;
#615 = AXIS2_PLACEMENT_3D ( 'NONE', #1038, #554, #588 ) ;
#616 = EDGE_CURVE ( 'NONE', #595, #738, #1146, .T. ) ;
#617 = ORIENTED_EDGE ( 'NONE', *, *, #474, .T. ) ;
#618 = CARTESIAN_POINT ( 'NONE',  ( -25.07536523183255639, 5.500000000000051514, 8.000000000000000000 ) ) ;
#619 = CARTESIAN_POINT ( 'NONE',  ( 0.000000000000000000, 0.000000000000000000, 0.000000000000000000 ) ) ;
#620 = FACE_OUTER_BOUND ( 'NONE', #1243, .T. ) ;
#621 = ORIENTED_EDGE ( 'NONE', *, *, #125, .F. ) ;
#622 = CARTESIAN_POINT ( 'NONE',  ( -6.736827112756825879E-15, 10.02000000000000135, 2.349999999999999645 ) ) ;
#623 = DIRECTION ( 'NONE',  ( -0.000000000000000000, 0.000000000000000000, 1.000000000000000000 ) ) ;
#624 = ORIENTED_EDGE ( 'NONE', *, *, #288, .T. ) ;
#625 = CARTESIAN_POINT ( 'NONE',  ( -1.565811314078644934, 9.896989015255485356, 3.468538708749052457 ) ) ;
#626 = EDGE_CURVE ( 'NONE', #1151, #949, #1186, .T. ) ;
#627 = FACE_OUTER_BOUND ( 'NONE', #1019, .T. ) ;
#628 = CIRCLE ( 'NONE', #587, 2.099999999779930793 ) ;
#629 = VERTEX_POINT ( 'NONE', #531 ) ;
#630 = DIRECTION ( 'NONE',  ( 0.000000000000000000, -0.000000000000000000, -1.000000000000000000 ) ) ;
#631 = EDGE_LOOP ( 'NONE', ( #33, #610, #681, #749 ) ) ;
#632 = DIRECTION ( 'NONE',  ( -1.000000000000000000, 0.000000000000000000, 0.000000000000000000 ) ) ;
#633 = PRODUCT ( 'CNC-\X2\51857ba15939\X0\BA', 'CNC-\X2\51857ba15939\X0\BA', '', ( #39 ) ) ;
#634 = SURFACE_STYLE_FILL_AREA ( #560 ) ;
#635 = EDGE_LOOP ( 'NONE', ( #471, #13, #1089, #543 ) ) ;
#636 = CARTESIAN_POINT ( 'NONE',  ( -13.50000000000000711, 2.081668171172168513E-14, 4.000000000000000000 ) ) ;
#637 = CARTESIAN_POINT ( 'NONE',  ( -25.07536523183256350, 15.50000000000001776, 8.000000000000000000 ) ) ;
#638 = ADVANCED_FACE ( 'NONE', ( #11, #799, #27, #986, #1090 ), #804, .F. ) ;
#639 = EDGE_CURVE ( 'NONE', #1099, #63, #224, .T. ) ;
#640 = ORIENTED_EDGE ( 'NONE', *, *, #1235, .F. ) ;
#641 = DIRECTION ( 'NONE',  ( 0.000000000000000000, -0.000000000000000000, -1.000000000000000000 ) ) ;
#642 = VERTEX_POINT ( 'NONE', #35 ) ;
#643 = CIRCLE ( 'NONE', #805, 4.999999999999997335 ) ;
#644 = STYLED_ITEM ( 'NONE', ( #929 ), #720 ) ;
#645 = ORIENTED_EDGE ( 'NONE', *, *, #750, .T. ) ;
#646 = CARTESIAN_POINT ( 'NONE',  ( 25.07536523183254928, 15.50000000000003020, 8.000000000000000000 ) ) ;
#647 = ORIENTED_EDGE ( 'NONE', *, *, #128, .T. ) ;
#648 = CARTESIAN_POINT ( 'NONE',  ( -13.50000000000000711, 19.00000000000002487, 6.099999999999999645 ) ) ;
#649 = VECTOR ( 'NONE', #357, 1000.000000000000000 ) ;
#650 = EDGE_LOOP ( 'NONE', ( #936, #285 ) ) ;
#651 = EDGE_CURVE ( 'NONE', #245, #827, #404, .T. ) ;
#652 = EDGE_LOOP ( 'NONE', ( #932, #1255, #1013, #1132 ) ) ;
#653 = CARTESIAN_POINT ( 'NONE',  ( -44.00000000000000000, 19.00000000000002132, -31.40063693621518581 ) ) ;
#654 = EDGE_CURVE ( 'NONE', #312, #740, #300, .T. ) ;
#655 = ORIENTED_EDGE ( 'NONE', *, *, #1095, .T. ) ;
#656 = CARTESIAN_POINT ( 'NONE',  ( -22.57536523183255284, 13.50000000000002309, -2.000000000000000000 ) ) ;
#657 = ORIENTED_EDGE ( 'NONE', *, *, #158, .F. ) ;
#658 = PLANE ( 'NONE',  #467 ) ;
#659 = EDGE_CURVE ( 'NONE', #103, #47, #1207, .T. ) ;
#660 = ORIENTED_EDGE ( 'NONE', *, *, #741, .T. ) ;
#661 = VERTEX_POINT ( 'NONE', #1100 ) ;
#662 = LINE ( 'NONE', #979, #55 ) ;
#663 = ORIENTED_EDGE ( 'NONE', *, *, #861, .F. ) ;
#664 = DIRECTION ( 'NONE',  ( -5.782411586589367500E-16, 1.000000000000000000, 0.000000000000000000 ) ) ;
#665 = LINE ( 'NONE', #760, #541 ) ;
#666 = CIRCLE ( 'NONE', #1167, 4.999999999999997335 ) ;
#667 = CARTESIAN_POINT ( 'NONE',  ( 22.57536523183255284, 13.50000000000002842, 8.000000000000000000 ) ) ;
#668 = ORIENTED_EDGE ( 'NONE', *, *, #18, .F. ) ;
#669 = CARTESIAN_POINT ( 'NONE',  ( 1.597554257578690073, 9.891848696050084655, 4.426512727680176340 ) ) ;
#670 = CARTESIAN_POINT ( 'NONE',  ( -34.51398353801359775, 10.23645155088345859, 22.00000000000000000 ) ) ;
#671 = AXIS2_PLACEMENT_3D ( 'NONE', #265, #1178, #966 ) ;
#672 = ADVANCED_FACE ( 'NONE', ( #215 ), #524, .T. ) ;
#673 = DIRECTION ( 'NONE',  ( -0.000000000000000000, 0.000000000000000000, 1.000000000000000000 ) ) ;
#674 = DIRECTION ( 'NONE',  ( -0.000000000000000000, 0.000000000000000000, 1.000000000000000000 ) ) ;
#675 = ORIENTED_EDGE ( 'NONE', *, *, #176, .F. ) ;
#676 = DIRECTION ( 'NONE',  ( 0.000000000000000000, 1.000000000000000000, 0.000000000000000000 ) ) ;
#677 = CARTESIAN_POINT ( 'NONE',  ( 13.50000000000000178, 2.081668171172168513E-14, 4.000000000000000000 ) ) ;
#678 = EDGE_CURVE ( 'NONE', #510, #823, #132, .T. ) ;
#679 = CARTESIAN_POINT ( 'NONE',  ( 10.02000000000000135, 2.081668171172168513E-14, 8.000000000000000000 ) ) ;
#680 = AXIS2_PLACEMENT_3D ( 'NONE', #1287, #706, #1005 ) ;
#681 = ORIENTED_EDGE ( 'NONE', *, *, #353, .F. ) ;
#682 = CARTESIAN_POINT ( 'NONE',  ( 1.650066444324174819, 9.883201947440699797, 4.108004390054024846 ) ) ;
#683 = LINE ( 'NONE', #982, #1157 ) ;
#684 = AXIS2_PLACEMENT_3D ( 'NONE', #424, #623, #133 ) ;
#685 = AXIS2_PLACEMENT_3D ( 'NONE', #825, #998, #212 ) ;
#686 = DIRECTION ( 'NONE',  ( 0.000000000000000000, 0.000000000000000000, -1.000000000000000000 ) ) ;
#687 = VERTEX_POINT ( 'NONE', #940 ) ;
#688 = CYLINDRICAL_SURFACE ( 'NONE', #31, 2.099999999779930793 ) ;
#689 = EDGE_CURVE ( 'NONE', #1048, #29, #43, .T. ) ;
#690 = EDGE_LOOP ( 'NONE', ( #304, #1116, #214, #624, #697, #564, #19, #1149 ) ) ;
#691 = CARTESIAN_POINT ( 'NONE',  ( -44.00000000000000000, 19.00000000000002132, 0.000000000000000000 ) ) ;
#692 = AXIS2_PLACEMENT_3D ( 'NONE', #1123, #138, #536 ) ;
#693 = CARTESIAN_POINT ( 'NONE',  ( 0.000000000000000000, 0.000000000000000000, 0.000000000000000000 ) ) ;
#694 = FACE_OUTER_BOUND ( 'NONE', #53, .T. ) ;
#695 = VERTEX_POINT ( 'NONE', #837 ) ;
#696 = CARTESIAN_POINT ( 'NONE',  ( -13.50000000000000711, 2.081668171172168513E-14, 1.900000000000001021 ) ) ;
#697 = ORIENTED_EDGE ( 'NONE', *, *, #182, .T. ) ;
#698 = DIRECTION ( 'NONE',  ( -1.000000000000000000, 0.000000000000000000, 0.000000000000000000 ) ) ;
#699 = DIRECTION ( 'NONE',  ( -0.000000000000000000, 0.000000000000000000, 1.000000000000000000 ) ) ;
#700 = DIRECTION ( 'NONE',  ( -1.000000000000000000, -2.891205793294688187E-16, 0.000000000000000000 ) ) ;
#701 = CARTESIAN_POINT ( 'NONE',  ( -27.07536523183255994, 13.50000000000001776, 8.000000000000000000 ) ) ;
#702 = AXIS2_PLACEMENT_3D ( 'NONE', #120, #985, #891 ) ;
#703 = ORIENTED_EDGE ( 'NONE', *, *, #659, .F. ) ;
#704 = FACE_OUTER_BOUND ( 'NONE', #571, .T. ) ;
#705 = DIRECTION ( 'NONE',  ( -0.000000000000000000, -0.000000000000000000, -1.000000000000000000 ) ) ;
#706 = DIRECTION ( 'NONE',  ( -0.000000000000000000, 1.000000000000000000, -0.000000000000000000 ) ) ;
#707 = AXIS2_PLACEMENT_3D ( 'NONE', #653, #1033, #1244 ) ;
#708 = FACE_OUTER_BOUND ( 'NONE', #1051, .T. ) ;
#709 = EDGE_LOOP ( 'NONE', ( #1216, #131 ) ) ;
#710 = CARTESIAN_POINT ( 'NONE',  ( -25.07536523183255994, 13.50000000000001776, -2.000000000000000000 ) ) ;
#711 = FACE_BOUND ( 'NONE', #951, .T. ) ;
#712 = AXIS2_PLACEMENT_3D ( 'NONE', #873, #755, #1050 ) ;
#713 = ORIENTED_EDGE ( 'NONE', *, *, #594, .F. ) ;
#714 = DIRECTION ( 'NONE',  ( -5.782411586589367500E-16, 1.000000000000000000, -0.000000000000000000 ) ) ;
#715 = ORIENTED_EDGE ( 'NONE', *, *, #366, .F. ) ;
#716 = CARTESIAN_POINT ( 'NONE',  ( -0.8270901871354808810, 9.986211525054619287, 5.431795570839924814 ) ) ;
#717 = PRODUCT_DEFINITION ( 'æ™', '', #1084, #530 ) ;
#718 = CARTESIAN_POINT ( 'NONE',  ( -7.024979407443733434E-15, 10.02000000000000135, 5.650000000000000355 ) ) ;
#719 = VECTOR ( 'NONE', #876, 1000.000000000000000 ) ;
#720 = MANIFOLD_SOLID_BREP ( '\X2\570689d2\X0\2', #516 ) ;
#721 = CARTESIAN_POINT ( 'NONE',  ( 22.57536523183255284, 5.500000000000051514, 8.000000000000000000 ) ) ;
#722 = ORIENTED_EDGE ( 'NONE', *, *, #1055, .F. ) ;
#723 = CARTESIAN_POINT ( 'NONE',  ( -1.597038884187721219, 9.891932289827080282, 3.571486354487165116 ) ) ;
#724 = CYLINDRICAL_SURFACE ( 'NONE', #343, 10.02000000000000135 ) ;
#725 = DIRECTION ( 'NONE',  ( 0.000000000000000000, 0.000000000000000000, 1.000000000000000000 ) ) ;
#726 = EDGE_LOOP ( 'NONE', ( #842, #496, #352, #375, #347, #1234, #233, #272 ) ) ;
#727 = EDGE_CURVE ( 'NONE', #854, #851, #584, .T. ) ;
#728 = LINE ( 'NONE', #937, #488 ) ;
#729 = ORIENTED_EDGE ( 'NONE', *, *, #535, .F. ) ;
#730 = AXIS2_PLACEMENT_3D ( 'NONE', #92, #1181, #503 ) ;
#731 = ORIENTED_EDGE ( 'NONE', *, *, #651, .F. ) ;
#732 = CARTESIAN_POINT ( 'NONE',  ( -36.61398353779614467, 10.23645155088345859, 8.000000000000000000 ) ) ;
#733 = ADVANCED_FACE ( 'NONE', ( #1242 ), #1222, .F. ) ;
#734 = AXIS2_PLACEMENT_3D ( 'NONE', #670, #864, #774 ) ;
#735 = ORIENTED_EDGE ( 'NONE', *, *, #1263, .T. ) ;
#736 = CARTESIAN_POINT ( 'NONE',  ( 22.57536523183255284, 15.50000000000002842, 0.000000000000000000 ) ) ;
#737 = VERTEX_POINT ( 'NONE', #162 ) ;
#738 = VERTEX_POINT ( 'NONE', #732 ) ;
#739 = CARTESIAN_POINT ( 'NONE',  ( -22.57536523183255284, 5.500000000000051514, 8.000000000000000000 ) ) ;
#740 = VERTEX_POINT ( 'NONE', #934 ) ;
#741 = EDGE_CURVE ( 'NONE', #103, #74, #1024, .T. ) ;
#742 = AXIS2_PLACEMENT_3D ( 'NONE', #199, #1197, #598 ) ;
#743 = CIRCLE ( 'NONE', #355, 2.000000000000001776 ) ;
#744 = DIRECTION ( 'NONE',  ( 1.000000000000000000, 0.000000000000000000, 0.000000000000000000 ) ) ;
#745 = VECTOR ( 'NONE', #968, 1000.000000000000000 ) ;
#746 = ORIENTED_EDGE ( 'NONE', *, *, #594, .T. ) ;
#747 = DIRECTION ( 'NONE',  ( -3.652049423109063882E-16, -1.000000000000000000, 0.000000000000000000 ) ) ;
#748 = AXIS2_PLACEMENT_3D ( 'NONE', #1114, #1022, #337 ) ;
#749 = ORIENTED_EDGE ( 'NONE', *, *, #1, .F. ) ;
#750 = EDGE_CURVE ( 'NONE', #63, #827, #743, .T. ) ;
#751 = CARTESIAN_POINT ( 'NONE',  ( -13.50000000000000711, 2.081668171172168513E-14, 6.099999999999999645 ) ) ;
#752 = ORIENTED_EDGE ( 'NONE', *, *, #689, .F. ) ;
#753 = LINE ( 'NONE', #1155, #379 ) ;
#754 = VERTEX_POINT ( 'NONE', #354 ) ;
#755 = DIRECTION ( 'NONE',  ( 0.000000000000000000, -0.000000000000000000, 1.000000000000000000 ) ) ;
#756 = ORIENTED_EDGE ( 'NONE', *, *, #99, .T. ) ;
#757 = CARTESIAN_POINT ( 'NONE',  ( 44.00000000000000000, 14.00000000000002309, 8.000000000000000000 ) ) ;
#758 = AXIS2_PLACEMENT_3D ( 'NONE', #591, #205, #71 ) ;
#759 = CIRCLE ( 'NONE', #270, 2.000000000000001776 ) ;
#760 = CARTESIAN_POINT ( 'NONE',  ( 27.07536523183255639, 5.500000000000052403, 8.000000000000000000 ) ) ;
#761 = DIRECTION ( 'NONE',  ( 0.000000000000000000, 1.000000000000000000, 0.000000000000000000 ) ) ;
#762 = CARTESIAN_POINT ( 'NONE',  ( 25.07536523183255639, 3.500000000000051514, 8.000000000000000000 ) ) ;
#763 = ORIENTED_EDGE ( 'NONE', *, *, #826, .F. ) ;
#764 = CARTESIAN_POINT ( 'NONE',  ( -32.41398353823105083, 10.23645155088345859, 22.00000000000000000 ) ) ;
#765 = EDGE_CURVE ( 'NONE', #823, #915, #1045, .T. ) ;
#766 = CARTESIAN_POINT ( 'NONE',  ( -25.07536523183255994, 13.50000000000001776, 8.000000000000000000 ) ) ;
#767 = CIRCLE ( 'NONE', #155, 2.100000000000000977 ) ;
#768 = EDGE_CURVE ( 'NONE', #854, #1109, #548, .T. ) ;
#769 = CARTESIAN_POINT ( 'NONE',  ( -6.938893903907228378E-15, 19.00000000000002487, 4.000000000000000000 ) ) ;
#770 = DIRECTION ( 'NONE',  ( 0.000000000000000000, 0.000000000000000000, 1.000000000000000000 ) ) ;
#771 = EDGE_LOOP ( 'NONE', ( #1232, #171, #266, #729 ) ) ;
#772 = CARTESIAN_POINT ( 'NONE',  ( 1.649866183337060033, 9.883235380957080096, 3.780960156813554018 ) ) ;
#773 =( GEOMETRIC_REPRESENTATION_CONTEXT ( 3 ) GLOBAL_UNCERTAINTY_ASSIGNED_CONTEXT ( ( #303 ) ) GLOBAL_UNIT_ASSIGNED_CONTEXT ( ( #28, #909, #94 ) ) REPRESENTATION_CONTEXT ( 'NONE', 'WORKASPACE' ) );
#774 = DIRECTION ( 'NONE',  ( -1.000000000000000000, 0.000000000000000000, 0.000000000000000000 ) ) ;
#775 = AXIS2_PLACEMENT_3D ( 'NONE', #667, #1056, #463 ) ;
#776 = ADVANCED_FACE ( 'NONE', ( #924 ), #1133, .F. ) ;
#777 = VECTOR ( 'NONE', #1027, 1000.000000000000000 ) ;
#778 = LINE ( 'NONE', #177, #1111 ) ;
#779 = LINE ( 'NONE', #290, #468 ) ;
#780 = LINE ( 'NONE', #1152, #1239 ) ;
#781 = ORIENTED_EDGE ( 'NONE', *, *, #106, .F. ) ;
#782 = CARTESIAN_POINT ( 'NONE',  ( -13.50000000000000711, 2.081668171172168513E-14, 4.000000000000000000 ) ) ;
#783 = DIRECTION ( 'NONE',  ( 1.000000000000000000, 0.000000000000000000, 0.000000000000000000 ) ) ;
#784 = CYLINDRICAL_SURFACE ( 'NONE', #970, 2.000000000000001776 ) ;
#785 = CARTESIAN_POINT ( 'NONE',  ( 27.07536523183255639, 3.500000000000051514, 8.000000000000000000 ) ) ;
#786 = ORIENTED_EDGE ( 'NONE', *, *, #128, .F. ) ;
#787 = CARTESIAN_POINT ( 'NONE',  ( -27.07536523183255639, 5.500000000000050626, 8.000000000000000000 ) ) ;
#788 = PLANE ( 'NONE',  #555 ) ;
#789 = CARTESIAN_POINT ( 'NONE',  ( 27.07536523183254928, 15.50000000000003020, -2.000000000000000000 ) ) ;
#790 = ADVANCED_FACE ( 'NONE', ( #259 ), #1128, .F. ) ;
#791 = ORIENTED_EDGE ( 'NONE', *, *, #983, .F. ) ;
#792 = DIRECTION ( 'NONE',  ( -1.000000000000000000, 0.000000000000000000, 0.000000000000000000 ) ) ;
#793 = VERTEX_POINT ( 'NONE', #253 ) ;
#794 = CARTESIAN_POINT ( 'NONE',  ( -0.5320032475817890738, 10.00636672774427716, 2.434386020589889732 ) ) ;
#795 = CARTESIAN_POINT ( 'NONE',  ( -44.00000000000000711, 0.000000000000000000, 0.000000000000000000 ) ) ;
#796 = FACE_BOUND ( 'NONE', #334, .T. ) ;
#797 = PLANE ( 'NONE',  #702 ) ;
#798 = VERTEX_POINT ( 'NONE', #646 ) ;
#799 = FACE_BOUND ( 'NONE', #690, .T. ) ;
#800 = EDGE_LOOP ( 'NONE', ( #556, #582, #257, #831 ) ) ;
#801 = CARTESIAN_POINT ( 'NONE',  ( 13.50000000000000178, 2.081668171172168513E-14, 4.000000000000000000 ) ) ;
#802 = CARTESIAN_POINT ( 'NONE',  ( 22.57536523183255284, 5.500000000000051514, 0.000000000000000000 ) ) ;
#803 = FACE_OUTER_BOUND ( 'NONE', #987, .T. ) ;
#804 = PLANE ( 'NONE',  #298 ) ;
#805 = AXIS2_PLACEMENT_3D ( 'NONE', #395, #614, #114 ) ;
#806 = ORIENTED_EDGE ( 'NONE', *, *, #741, .F. ) ;
#807 = DIRECTION ( 'NONE',  ( 0.000000000000000000, 1.000000000000000000, 0.000000000000000000 ) ) ;
#808 =( GEOMETRIC_REPRESENTATION_CONTEXT ( 3 ) GLOBAL_UNCERTAINTY_ASSIGNED_CONTEXT ( ( #121 ) ) GLOBAL_UNIT_ASSIGNED_CONTEXT ( ( #843, #832, #342 ) ) REPRESENTATION_CONTEXT ( 'NONE', 'WORKASPACE' ) );
#809 = EDGE_CURVE ( 'NONE', #346, #1023, #877, .T. ) ;
#810 = AXIS2_PLACEMENT_3D ( 'NONE', #1083, #993, #792 ) ;
#811 = CARTESIAN_POINT ( 'NONE',  ( 44.00000000000000000, -1.836970198721031955E-15, -31.40063693621518581 ) ) ;
#812 = DIRECTION ( 'NONE',  ( -0.000000000000000000, 0.000000000000000000, -1.000000000000000000 ) ) ;
#813 = APPLICATION_PROTOCOL_DEFINITION ( 'draft international standard', 'automotive_design', 1998, #417 ) ;
#814 = CARTESIAN_POINT ( 'NONE',  ( -0.7323831918607470737, 9.993699490560851828, 5.482500549046797289 ) ) ;
#815 = ORIENTED_EDGE ( 'NONE', *, *, #1036, .F. ) ;
#816 = ADVANCED_FACE ( 'NONE', ( #172 ), #1279, .F. ) ;
#817 = B_SPLINE_CURVE_WITH_KNOTS ( 'NONE', 3,
 ( #1150, #551, #840, #91, #82, #170, #75, #1161, #1180, #293, #772, #682, #1076, #669, #869, #955, #1063, #1269, #174, #484, #1289, #391, #370, #863 ),
 .UNSPECIFIED., .F., .F.,
 ( 4, 2, 2, 2, 2, 2, 2, 2, 2, 2, 2, 4 ),
 ( 0.005167456619642059844, 0.005813227891776023490, 0.006458999163909987136, 0.006781884799976969393, 0.007104770436043950782, 0.007750541708177913561, 0.008073427344244895817, 0.008396312980311876339, 0.008719198616378858596, 0.009042084252445840853, 0.009687855524579805366, 0.01033362679671377161 ),
 .UNSPECIFIED. ) ;
#818 = LINE ( 'NONE', #323, #1259 ) ;
#819 = ORIENTED_EDGE ( 'NONE', *, *, #80, .F. ) ;
#820 = DIRECTION ( 'NONE',  ( -0.000000000000000000, 1.000000000000000000, -0.000000000000000000 ) ) ;
#821 = ORIENTED_EDGE ( 'NONE', *, *, #9, .F. ) ;
#822 = DIRECTION ( 'NONE',  ( 0.000000000000000000, -1.000000000000000000, -0.000000000000000000 ) ) ;
#823 = VERTEX_POINT ( 'NONE', #361 ) ;
#824 = EDGE_CURVE ( 'NONE', #629, #558, #1061, .T. ) ;
#825 = CARTESIAN_POINT ( 'NONE',  ( 22.57536523183255284, 13.50000000000002842, -2.000000000000000000 ) ) ;
#826 = EDGE_CURVE ( 'NONE', #1226, #1214, #1272, .T. ) ;
#827 = VERTEX_POINT ( 'NONE', #79 ) ;
#828 = CARTESIAN_POINT ( 'NONE',  ( -3.722983459981006843E-14, 15.50000000000007638, 0.000000000000000000 ) ) ;
#829 = EDGE_LOOP ( 'NONE', ( #660, #152, #210, #1154 ) ) ;
#830 = LINE ( 'NONE', #59, #997 ) ;
#831 = ORIENTED_EDGE ( 'NONE', *, *, #1153, .F. ) ;
#832 =( NAMED_UNIT ( * ) PLANE_ANGLE_UNIT ( ) SI_UNIT ( $, .RADIAN. ) );
#833 = ORIENTED_EDGE ( 'NONE', *, *, #522, .F. ) ;
#834 = CARTESIAN_POINT ( 'NONE',  ( -22.57536523183255284, 3.500000000000051514, 0.000000000000000000 ) ) ;
#835 = ORIENTED_EDGE ( 'NONE', *, *, #1115, .T. ) ;
#836 = ORIENTED_EDGE ( 'NONE', *, *, #353, .T. ) ;
#837 = CARTESIAN_POINT ( 'NONE',  ( -20.57536523183255284, 13.50000000000002309, 0.000000000000000000 ) ) ;
#838 = AXIS2_PLACEMENT_3D ( 'NONE', #294, #473, #969 ) ;
#839 = ORIENTED_EDGE ( 'NONE', *, *, #197, .T. ) ;
#840 = CARTESIAN_POINT ( 'NONE',  ( 0.4329474628972791450, 10.01261978813496789, 2.393367584610484489 ) ) ;
#841 = EDGE_CURVE ( 'NONE', #63, #912, #374, .T. ) ;
#842 = ORIENTED_EDGE ( 'NONE', *, *, #143, .T. ) ;
#843 =( LENGTH_UNIT ( ) NAMED_UNIT ( * ) SI_UNIT ( .MILLI., .METRE. ) );
#844 = ORIENTED_EDGE ( 'NONE', *, *, #569, .T. ) ;
#845 = DIRECTION ( 'NONE',  ( 1.000000000000000000, 0.000000000000000000, 0.000000000000000000 ) ) ;
#846 = ORIENTED_EDGE ( 'NONE', *, *, #383, .T. ) ;
#847 = ADVANCED_FACE ( 'NONE', ( #489 ), #481, .T. ) ;
#848 = AXIS2_PLACEMENT_3D ( 'NONE', #449, #443, #1233 ) ;
#849 = CARTESIAN_POINT ( 'NONE',  ( -39.00000000000000000, 14.00000000000002309, 8.000000000000000000 ) ) ;
#850 = VECTOR ( 'NONE', #920, 1000.000000000000000 ) ;
#851 = VERTEX_POINT ( 'NONE', #179 ) ;
#852 = LINE ( 'NONE', #1248, #649 ) ;
#853 = VECTOR ( 'NONE', #1163, 1000.000000000000000 ) ;
#854 = VERTEX_POINT ( 'NONE', #679 ) ;
#855 = DIRECTION ( 'NONE',  ( 1.000000000000000000, 0.000000000000000000, 0.000000000000000000 ) ) ;
#856 = VERTEX_POINT ( 'NONE', #751 ) ;
#857 = DIRECTION ( 'NONE',  ( 0.000000000000000000, 1.000000000000000000, 0.000000000000000000 ) ) ;
#858 = CARTESIAN_POINT ( 'NONE',  ( -44.00000000000000000, 14.00000000000002487, -31.40063693621518581 ) ) ;
#859 = FACE_BOUND ( 'NONE', #650, .T. ) ;
#860 = LINE ( 'NONE', #380, #387 ) ;
#861 = EDGE_CURVE ( 'NONE', #915, #36, #225, .T. ) ;
#862 = ORIENTED_EDGE ( 'NONE', *, *, #1095, .F. ) ;
#863 = CARTESIAN_POINT ( 'NONE',  ( -7.024979407443733434E-15, 10.02000000000000135, 5.650000000000000355 ) ) ;
#864 = DIRECTION ( 'NONE',  ( -0.000000000000000000, -0.000000000000000000, -1.000000000000000000 ) ) ;
#865 = AXIS2_PLACEMENT_3D ( 'NONE', #100, #700, #1098 ) ;
#866 = EDGE_CURVE ( 'NONE', #1264, #754, #780, .T. ) ;
#867 = CARTESIAN_POINT ( 'NONE',  ( -39.00000000000000000, 19.00000000000002487, 8.000000000000000000 ) ) ;
#868 = ORIENTED_EDGE ( 'NONE', *, *, #366, .T. ) ;
#869 = CARTESIAN_POINT ( 'NONE',  ( 1.565757638030541576, 9.896997063397963146, 4.531568476695436942 ) ) ;
#870 = DIRECTION ( 'NONE',  ( -0.000000000000000000, 0.000000000000000000, 1.000000000000000000 ) ) ;
#871 = AXIS2_PLACEMENT_3D ( 'NONE', #153, #538, #926 ) ;
#872 = DIRECTION ( 'NONE',  ( 1.000000000000000000, 0.000000000000000000, 0.000000000000000000 ) ) ;
#873 = CARTESIAN_POINT ( 'NONE',  ( -39.00000000000000000, 14.00000000000002309, 8.000000000000000000 ) ) ;
#874 = VERTEX_POINT ( 'NONE', #575 ) ;
#875 = DIRECTION ( 'NONE',  ( -0.000000000000000000, -0.000000000000000000, -1.000000000000000000 ) ) ;
#876 = DIRECTION ( 'NONE',  ( 1.000000000000000000, 0.000000000000000000, 0.000000000000000000 ) ) ;
#877 = CIRCLE ( 'NONE', #615, 2.000000000000001776 ) ;
#878 = EDGE_CURVE ( 'NONE', #695, #1048, #494, .T. ) ;
#879 = PLANE ( 'NONE',  #1280 ) ;
#880 = DIRECTION ( 'NONE',  ( 0.000000000000000000, 1.000000000000000000, 0.000000000000000000 ) ) ;
#881 = LINE ( 'NONE', #17, #83 ) ;
#882 = ORIENTED_EDGE ( 'NONE', *, *, #77, .F. ) ;
#883 = DIRECTION ( 'NONE',  ( 0.000000000000000000, 0.000000000000000000, 1.000000000000000000 ) ) ;
#884 = DIRECTION ( 'NONE',  ( 1.000000000000000000, 0.000000000000000000, 0.000000000000000000 ) ) ;
#885 = CARTESIAN_POINT ( 'NONE',  ( -22.57536523183255284, 5.500000000000051514, -2.000000000000000000 ) ) ;
#886 = ORIENTED_EDGE ( 'NONE', *, *, #202, .F. ) ;
#887 = CARTESIAN_POINT ( 'NONE',  ( 20.57536523183255284, 5.500000000000051514, 0.000000000000000000 ) ) ;
#888 = EDGE_LOOP ( 'NONE', ( #1194, #640 ) ) ;
#889 = DIRECTION ( 'NONE',  ( -0.000000000000000000, 1.000000000000000000, -0.000000000000000000 ) ) ;
#890 = DIRECTION ( 'NONE',  ( 0.000000000000000000, 0.000000000000000000, 1.000000000000000000 ) ) ;
#891 = DIRECTION ( 'NONE',  ( 0.000000000000000000, 0.000000000000000000, -1.000000000000000000 ) ) ;
#892 = ORIENTED_EDGE ( 'NONE', *, *, #1221, .F. ) ;
#893 = LINE ( 'NONE', #887, #193 ) ;
#894 = VERTEX_POINT ( 'NONE', #476 ) ;
#895 = DIRECTION ( 'NONE',  ( 0.000000000000000000, 0.000000000000000000, -1.000000000000000000 ) ) ;
#896 = AXIS2_PLACEMENT_3D ( 'NONE', #619, #1286, #295 ) ;
#897 = CIRCLE ( 'NONE', #838, 2.099999999999999645 ) ;
#898 = DIRECTION ( 'NONE',  ( 0.000000000000000000, 0.000000000000000000, -1.000000000000000000 ) ) ;
#899 = CARTESIAN_POINT ( 'NONE',  ( -22.57536523183255639, 15.50000000000002309, 0.000000000000000000 ) ) ;
#900 = ADVANCED_FACE ( 'NONE', ( #68 ), #168, .F. ) ;
#901 = CARTESIAN_POINT ( 'NONE',  ( -32.41398353823105083, 10.23645155088345859, 8.000000000000000000 ) ) ;
#902 = EDGE_CURVE ( 'NONE', #47, #737, #1073, .T. ) ;
#903 = ORIENTED_EDGE ( 'NONE', *, *, #1276, .F. ) ;
#904 = CARTESIAN_POINT ( 'NONE',  ( -20.57536523183255284, 13.50000000000002309, 8.000000000000000000 ) ) ;
#905 = LINE ( 'NONE', #604, #360 ) ;
#906 = VERTEX_POINT ( 'NONE', #277 ) ;
#907 = DIRECTION ( 'NONE',  ( 1.000000000000000000, 0.000000000000000000, -0.000000000000000000 ) ) ;
#908 = CIRCLE ( 'NONE', #1203, 2.000000000000001776 ) ;
#909 =( NAMED_UNIT ( * ) PLANE_ANGLE_UNIT ( ) SI_UNIT ( $, .RADIAN. ) );
#910 = EDGE_CURVE ( 'NONE', #81, #459, #570, .T. ) ;
#911 = FACE_OUTER_BOUND ( 'NONE', #829, .T. ) ;
#912 = VERTEX_POINT ( 'NONE', #762 ) ;
#913 = DIRECTION ( 'NONE',  ( 0.000000000000000000, 0.000000000000000000, -1.000000000000000000 ) ) ;
#914 = AXIS2_PLACEMENT_3D ( 'NONE', #458, #348, #1227 ) ;
#915 = VERTEX_POINT ( 'NONE', #867 ) ;
#916 = AXIS2_PLACEMENT_3D ( 'NONE', #782, #97, #883 ) ;
#917 = CYLINDRICAL_SURFACE ( 'NONE', #685, 2.000000000000001776 ) ;
#918 = VECTOR ( 'NONE', #144, 1000.000000000000000 ) ;
#919 = ORIENTED_EDGE ( 'NONE', *, *, #72, .T. ) ;
#920 = DIRECTION ( 'NONE',  ( 0.000000000000000000, 0.000000000000000000, 1.000000000000000000 ) ) ;
#921 = ORIENTED_EDGE ( 'NONE', *, *, #639, .F. ) ;
#922 = EDGE_CURVE ( 'NONE', #74, #346, #662, .T. ) ;
#923 = FACE_BOUND ( 'NONE', #1119, .T. ) ;
#924 = FACE_OUTER_BOUND ( 'NONE', #502, .T. ) ;
#925 = ORIENTED_EDGE ( 'NONE', *, *, #474, .F. ) ;
#926 = DIRECTION ( 'NONE',  ( -1.000000000000000000, 0.000000000000000000, 0.000000000000000000 ) ) ;
#927 = CARTESIAN_POINT ( 'NONE',  ( -27.07536523183255639, 3.500000000000051514, -2.000000000000000000 ) ) ;
#928 = AXIS2_PLACEMENT_3D ( 'NONE', #1094, #822, #602 ) ;
#929 = PRESENTATION_STYLE_ASSIGNMENT (( #57 ) ) ;
#930 = VERTEX_POINT ( 'NONE', #271 ) ;
#931 = CARTESIAN_POINT ( 'NONE',  ( 20.57536523183255284, 5.500000000000051514, 0.000000000000000000 ) ) ;
#932 = ORIENTED_EDGE ( 'NONE', *, *, #149, .F. ) ;
#933 = ORIENTED_EDGE ( 'NONE', *, *, #506, .T. ) ;
#934 = CARTESIAN_POINT ( 'NONE',  ( 27.07536523183255284, 13.50000000000003020, 0.000000000000000000 ) ) ;
#935 = VECTOR ( 'NONE', #441, 1000.000000000000000 ) ;
#936 = ORIENTED_EDGE ( 'NONE', *, *, #72, .F. ) ;
#937 = CARTESIAN_POINT ( 'NONE',  ( -20.57536523183255284, 13.50000000000002309, 0.000000000000000000 ) ) ;
#938 = ORIENTED_EDGE ( 'NONE', *, *, #1028, .T. ) ;
#939 = FACE_BOUND ( 'NONE', #278, .T. ) ;
#940 = CARTESIAN_POINT ( 'NONE',  ( 13.50000000000000178, 19.00000000000002487, 6.100000000000001421 ) ) ;
#941 = VECTOR ( 'NONE', #249, 1000.000000000000000 ) ;
#942 = B_SPLINE_CURVE_WITH_KNOTS ( 'NONE', 3,
 ( #504, #534, #1110, #104, #1224, #814, #716, #426, #1217, #232, #37, #335, #990, #1102, #329, #723, #625, #135, #218, #1015, #995, #1125, #6, #794, #432, #527, #112, #211 ),
 .UNSPECIFIED., .F., .F.,
 ( 4, 2, 2, 2, 2, 2, 2, 2, 2, 2, 2, 2, 2, 4 ),
 ( 8.363738743386393922E-20, 0.0003229660387276292281, 0.0006459320774552583478, 0.0009688981161828874675, 0.001291864154910516696, 0.001937796232365775586, 0.002583728309821033825, 0.002906694348548662186, 0.003229660387276289679, 0.003875592464731545533, 0.004198558503459174328, 0.004521524542186803122, 0.004844490580914431049, 0.005167456619642059844 ),
 .UNSPECIFIED. ) ;
#943 = ORIENTED_EDGE ( 'NONE', *, *, #316, .T. ) ;
#944 = EDGE_CURVE ( 'NONE', #245, #642, #1112, .T. ) ;
#945 = DIRECTION ( 'NONE',  ( -1.000000000000000000, 0.000000000000000000, 0.000000000000000000 ) ) ;
#946 = EDGE_CURVE ( 'NONE', #1173, #103, #860, .T. ) ;
#947 = ORIENTED_EDGE ( 'NONE', *, *, #402, .T. ) ;
#948 = DIRECTION ( 'NONE',  ( -0.000000000000000000, 1.000000000000000000, -0.000000000000000000 ) ) ;
#949 = VERTEX_POINT ( 'NONE', #1171 ) ;
#950 = CARTESIAN_POINT ( 'NONE',  ( -6.736827182047915225E-15, 19.00000000000002487, 2.349999999999999645 ) ) ;
#951 = EDGE_LOOP ( 'NONE', ( #159, #1238 ) ) ;
#952 = EDGE_CURVE ( 'NONE', #737, #1173, #1142, .T. ) ;
#953 = DIRECTION ( 'NONE',  ( -0.000000000000000000, 1.000000000000000000, -0.000000000000000000 ) ) ;
#954 = ORIENTED_EDGE ( 'NONE', *, *, #1113, .T. ) ;
#955 = CARTESIAN_POINT ( 'NONE',  ( 1.483116306303688070, 9.909718153203701974, 4.731114251292774853 ) ) ;
#956 = CIRCLE ( 'NONE', #1017, 1.650000000000000355 ) ;
#957 = ORIENTED_EDGE ( 'NONE', *, *, #435, .T. ) ;
#958 = ADVANCED_FACE ( 'NONE', ( #207 ), #401, .F. ) ;
#959 = EDGE_CURVE ( 'NONE', #949, #261, #1071, .T. ) ;
#960 = CARTESIAN_POINT ( 'NONE',  ( -27.07536523183255639, 5.500000000000050626, 0.000000000000000000 ) ) ;
#961 = ORIENTED_EDGE ( 'NONE', *, *, #50, .T. ) ;
#962 = DIRECTION ( 'NONE',  ( 0.000000000000000000, -0.000000000000000000, 1.000000000000000000 ) ) ;
#963 = ADVANCED_FACE ( 'NONE', ( #803 ), #592, .F. ) ;
#964 = DIRECTION ( 'NONE',  ( 1.000000000000000000, 0.000000000000000000, 0.000000000000000000 ) ) ;
#965 = ORIENTED_EDGE ( 'NONE', *, *, #331, .T. ) ;
#966 = DIRECTION ( 'NONE',  ( 1.000000000000000000, 0.000000000000000000, 0.000000000000000000 ) ) ;
#967 = EDGE_LOOP ( 'NONE', ( #1199, #429, #703, #1278 ) ) ;
#968 = DIRECTION ( 'NONE',  ( 1.000000000000000000, 0.000000000000000000, 0.000000000000000000 ) ) ;
#969 = DIRECTION ( 'NONE',  ( 0.000000000000000000, 0.000000000000000000, 1.000000000000000000 ) ) ;
#970 = AXIS2_PLACEMENT_3D ( 'NONE', #1184, #297, #1118 ) ;
#971 = ORIENTED_EDGE ( 'NONE', *, *, #22, .T. ) ;
#972 = DIRECTION ( 'NONE',  ( 1.000000000000000000, -0.000000000000000000, -0.000000000000000000 ) ) ;
#973 = EDGE_CURVE ( 'NONE', #328, #1241, #420, .T. ) ;
#974 = AXIS2_PLACEMENT_3D ( 'NONE', #608, #907, #812 ) ;
#975 = ORIENTED_EDGE ( 'NONE', *, *, #275, .F. ) ;
#976 = CARTESIAN_POINT ( 'NONE',  ( 34.65073046366511278, 9.763548448602024976, 22.00000000000000000 ) ) ;
#977 = VECTOR ( 'NONE', #230, 1000.000000000000000 ) ;
#978 = CARTESIAN_POINT ( 'NONE',  ( 13.50000000000000178, 2.081668171172168513E-14, 1.899999999999999245 ) ) ;
#979 = CARTESIAN_POINT ( 'NONE',  ( -22.57536523183255284, 3.500000000000051514, 0.000000000000000000 ) ) ;
#980 = ORIENTED_EDGE ( 'NONE', *, *, #944, .T. ) ;
#981 = CYLINDRICAL_SURFACE ( 'NONE', #1210, 4.999999999999997335 ) ;
#982 = CARTESIAN_POINT ( 'NONE',  ( 25.07536523183255639, 3.500000000000051514, 0.000000000000000000 ) ) ;
#983 = EDGE_CURVE ( 'NONE', #856, #1151, #24, .T. ) ;
#984 = DIRECTION ( 'NONE',  ( 1.000000000000000000, 0.000000000000000000, 0.000000000000000000 ) ) ;
#985 = DIRECTION ( 'NONE',  ( 1.000000000000000000, -0.000000000000000000, 0.000000000000000000 ) ) ;
#986 = FACE_BOUND ( 'NONE', #1288, .T. ) ;
#987 = EDGE_LOOP ( 'NONE', ( #1223, #1228, #418, #537 ) ) ;
#988 = CIRCLE ( 'NONE', #758, 2.099999999779930793 ) ;
#989 = AXIS2_PLACEMENT_3D ( 'NONE', #227, #913, #698 ) ;
#990 = CARTESIAN_POINT ( 'NONE',  ( -1.649918133470360315, 9.883226707898321806, 4.216273191269579002 ) ) ;
#991 = CARTESIAN_POINT ( 'NONE',  ( 22.57536523183255284, 13.50000000000002842, 0.000000000000000000 ) ) ;
#992 = ORIENTED_EDGE ( 'NONE', *, *, #639, .T. ) ;
#993 = DIRECTION ( 'NONE',  ( 0.000000000000000000, 0.000000000000000000, -1.000000000000000000 ) ) ;
#994 = ORIENTED_EDGE ( 'NONE', *, *, #910, .T. ) ;
#995 = CARTESIAN_POINT ( 'NONE',  ( -1.006761665440359499, 9.969697501443063103, 2.688333840371162964 ) ) ;
#996 = ADVANCED_FACE ( 'NONE', ( #2 ), #495, .F. ) ;
#997 = VECTOR ( 'NONE', #460, 1000.000000000000000 ) ;
#998 = DIRECTION ( 'NONE',  ( 0.000000000000000000, 0.000000000000000000, -1.000000000000000000 ) ) ;
#999 = CARTESIAN_POINT ( 'NONE',  ( -13.50000000000000711, 2.081668171172168513E-14, 4.000000000000000000 ) ) ;
#1000 = EDGE_CURVE ( 'NONE', #10, #440, #881, .T. ) ;
#1001 = CYLINDRICAL_SURFACE ( 'NONE', #810, 2.000000000000001776 ) ;
#1002 = FACE_OUTER_BOUND ( 'NONE', #141, .T. ) ;
#1003 = VECTOR ( 'NONE', #953, 1000.000000000000000 ) ;
#1004 = CARTESIAN_POINT ( 'NONE',  ( -13.50000000000000711, 2.081668171172168513E-14, 1.900000000000001021 ) ) ;
#1005 = DIRECTION ( 'NONE',  ( 0.000000000000000000, 0.000000000000000000, 1.000000000000000000 ) ) ;
#1006 = ADVANCED_FACE ( 'NONE', ( #694 ), #797, .F. ) ;
#1007 = DIRECTION ( 'NONE',  ( 0.000000000000000000, -0.000000000000000000, -1.000000000000000000 ) ) ;
#1008 = ADVANCED_FACE ( 'NONE', ( #309 ), #96, .F. ) ;
#1009 = ORIENTED_EDGE ( 'NONE', *, *, #1160, .T. ) ;
#1010 = CYLINDRICAL_SURFACE ( 'NONE', #989, 2.000000000000001776 ) ;
#1011 = CARTESIAN_POINT ( 'NONE',  ( -25.07536523183256350, 15.50000000000001776, 0.000000000000000000 ) ) ;
#1012 = CARTESIAN_POINT ( 'NONE',  ( 32.55073046388518065, 9.763548448602024976, 0.000000000000000000 ) ) ;
#1013 = ORIENTED_EDGE ( 'NONE', *, *, #392, .T. ) ;
#1014 = EDGE_CURVE ( 'NONE', #740, #1124, #1031, .T. ) ;
#1015 = CARTESIAN_POINT ( 'NONE',  ( -1.089907218767861341, 9.960847676003734108, 2.756453229877433131 ) ) ;
#1016 = CARTESIAN_POINT ( 'NONE',  ( -6.938893903907228378E-15, 19.00000000000002487, 5.650000000000000355 ) ) ;
#1017 = AXIS2_PLACEMENT_3D ( 'NONE', #769, #761, #1183 ) ;
#1018 = CARTESIAN_POINT ( 'NONE',  ( -39.00000000000000000, 19.00000000000002487, 8.000000000000000000 ) ) ;
#1019 = EDGE_LOOP ( 'NONE', ( #722, #612, #358, #954 ) ) ;
#1020 = LINE ( 'NONE', #1047, #48 ) ;
#1021 = DIRECTION ( 'NONE',  ( -1.000000000000000000, -2.401924812890960362E-15, 0.000000000000000000 ) ) ;
#1022 = DIRECTION ( 'NONE',  ( 0.000000000000000000, -0.000000000000000000, -1.000000000000000000 ) ) ;
#1023 = VERTEX_POINT ( 'NONE', #507 ) ;
#1024 = LINE ( 'NONE', #151, #26 ) ;
#1025 = ORIENTED_EDGE ( 'NONE', *, *, #506, .F. ) ;
#1026 = DIRECTION ( 'NONE',  ( 0.000000000000000000, 1.000000000000000000, 0.000000000000000000 ) ) ;
#1027 = DIRECTION ( 'NONE',  ( -0.000000000000000000, 0.000000000000000000, 1.000000000000000000 ) ) ;
#1028 = EDGE_CURVE ( 'NONE', #798, #312, #908, .T. ) ;
#1029 = FACE_BOUND ( 'NONE', #709, .T. ) ;
#1030 = DIRECTION ( 'NONE',  ( 0.000000000000000000, 0.000000000000000000, 1.000000000000000000 ) ) ;
#1031 = CIRCLE ( 'NONE', #482, 2.000000000000001776 ) ;
#1032 = ORIENTED_EDGE ( 'NONE', *, *, #616, .F. ) ;
#1033 = DIRECTION ( 'NONE',  ( -1.000000000000000000, 3.652049423109064868E-16, 0.000000000000000000 ) ) ;
#1034 = ORIENTED_EDGE ( 'NONE', *, *, #229, .F. ) ;
#1035 = VECTOR ( 'NONE', #1265, 1000.000000000000000 ) ;
#1036 = EDGE_CURVE ( 'NONE', #874, #1191, #643, .T. ) ;
#1037 = FACE_BOUND ( 'NONE', #888, .T. ) ;
#1038 = CARTESIAN_POINT ( 'NONE',  ( -22.57536523183255284, 5.500000000000051514, 0.000000000000000000 ) ) ;
#1039 = CIRCLE ( 'NONE', #1275, 2.000000000000001776 ) ;
#1040 = ORIENTED_EDGE ( 'NONE', *, *, #383, .F. ) ;
#1041 = LINE ( 'NONE', #1256, #1103 ) ;
#1042 = ORIENTED_EDGE ( 'NONE', *, *, #182, .F. ) ;
#1043 = VERTEX_POINT ( 'NONE', #513 ) ;
#1044 = AXIS2_PLACEMENT_3D ( 'NONE', #849, #185, #388 ) ;
#1045 = LINE ( 'NONE', #1018, #1074 ) ;
#1046 = EDGE_LOOP ( 'NONE', ( #1034, #1040 ) ) ;
#1047 = CARTESIAN_POINT ( 'NONE',  ( -0.000000000000000000, 3.500000000000051514, 0.000000000000000000 ) ) ;
#1048 = VERTEX_POINT ( 'NONE', #899 ) ;
#1049 = AXIS2_PLACEMENT_3D ( 'NONE', #766, #1169, #783 ) ;
#1050 = DIRECTION ( 'NONE',  ( 1.000000000000000000, 0.000000000000000000, 0.000000000000000000 ) ) ;
#1051 = EDGE_LOOP ( 'NONE', ( #126, #339, #819, #715 ) ) ;
#1052 = DIRECTION ( 'NONE',  ( 1.000000000000000000, 5.782411586589367500E-16, 0.000000000000000000 ) ) ;
#1053 = ADVANCED_FACE ( 'NONE', ( #413 ), #784, .F. ) ;
#1054 = ORIENTED_EDGE ( 'NONE', *, *, #250, .T. ) ;
#1055 = EDGE_CURVE ( 'NONE', #1109, #754, #251, .T. ) ;
#1056 = DIRECTION ( 'NONE',  ( 0.000000000000000000, -0.000000000000000000, -1.000000000000000000 ) ) ;
#1057 = ORIENTED_EDGE ( 'NONE', *, *, #1096, .T. ) ;
#1058 = LINE ( 'NONE', #572, #423 ) ;
#1059 = CARTESIAN_POINT ( 'NONE',  ( -0.000000000000000000, 19.00000000000002487, 0.000000000000000000 ) ) ;
#1060 = ADVANCED_FACE ( 'NONE', ( #1087 ), #1081, .F. ) ;
#1061 = LINE ( 'NONE', #565, #514 ) ;
#1062 = ORIENTED_EDGE ( 'NONE', *, *, #315, .T. ) ;
#1063 = CARTESIAN_POINT ( 'NONE',  ( 1.432517436083367457, 9.917254949347391602, 4.825851794091319036 ) ) ;
#1064 = CARTESIAN_POINT ( 'NONE',  ( -44.00000000000000000, 14.00000000000002487, 8.000000000000000000 ) ) ;
#1065 = CARTESIAN_POINT ( 'NONE',  ( 22.57536523183255284, 3.500000000000051514, 0.000000000000000000 ) ) ;
#1066 = EDGE_CURVE ( 'NONE', #310, #1214, #956, .T. ) ;
#1067 = DIRECTION ( 'NONE',  ( 1.000000000000000000, 0.000000000000000000, 0.000000000000000000 ) ) ;
#1068 = ORIENTED_EDGE ( 'NONE', *, *, #861, .T. ) ;
#1069 = DIRECTION ( 'NONE',  ( 0.000000000000000000, -0.000000000000000000, 1.000000000000000000 ) ) ;
#1070 = LINE ( 'NONE', #978, #167 ) ;
#1071 = CIRCLE ( 'NONE', #742, 2.099999999999999645 ) ;
#1072 = DIRECTION ( 'NONE',  ( -0.000000000000000000, -0.000000000000000000, -1.000000000000000000 ) ) ;
#1073 = LINE ( 'NONE', #960, #454 ) ;
#1074 = VECTOR ( 'NONE', #236, 1000.000000000000000 ) ;
#1075 = ORIENTED_EDGE ( 'NONE', *, *, #526, .T. ) ;
#1076 = CARTESIAN_POINT ( 'NONE',  ( 1.639434303912686186, 9.884993950155454456, 4.215285568339611544 ) ) ;
#1077 = EDGE_CURVE ( 'NONE', #1214, #310, #137, .T. ) ;
#1078 = AXIS2_PLACEMENT_3D ( 'NONE', #1174, #676, #1069 ) ;
#1079 = CIRCLE ( 'NONE', #1188, 2.000000000000001776 ) ;
#1080 = DIRECTION ( 'NONE',  ( 0.000000000000000000, 1.000000000000000000, 0.000000000000000000 ) ) ;
#1081 = CYLINDRICAL_SURFACE ( 'NONE', #299, 2.099999999782546478 ) ;
#1082 = DIRECTION ( 'NONE',  ( -1.000000000000000000, 0.000000000000000000, 0.000000000000000000 ) ) ;
#1083 = CARTESIAN_POINT ( 'NONE',  ( 22.57536523183255284, 5.500000000000051514, -2.000000000000000000 ) ) ;
#1084 = PRODUCT_DEFINITION_FORMATION_WITH_SPECIFIED_SOURCE ( 'å¯', '', #633, .NOT_KNOWN. ) ;
#1085 = ORIENTED_EDGE ( 'NONE', *, *, #1258, .T. ) ;
#1086 = LINE ( 'NONE', #1162, #1092 ) ;
#1087 = FACE_OUTER_BOUND ( 'NONE', #344, .T. ) ;
#1088 = DIRECTION ( 'NONE',  ( -0.000000000000000000, 0.000000000000000000, 1.000000000000000000 ) ) ;
#1089 = ORIENTED_EDGE ( 'NONE', *, *, #910, .F. ) ;
#1090 = FACE_OUTER_BOUND ( 'NONE', #726, .T. ) ;
#1091 = ORIENTED_EDGE ( 'NONE', *, *, #316, .F. ) ;
#1092 = VECTOR ( 'NONE', #371, 1000.000000000000000 ) ;
#1093 = CIRCLE ( 'NONE', #439, 2.100000000000000977 ) ;
#1094 = CARTESIAN_POINT ( 'NONE',  ( 27.07536523183255639, 3.500000000000051514, -2.000000000000000000 ) ) ;
#1095 = EDGE_CURVE ( 'NONE', #292, #5, #78, .T. ) ;
#1096 = EDGE_CURVE ( 'NONE', #629, #10, #1147, .T. ) ;
#1097 = DIRECTION ( 'NONE',  ( -0.000000000000000000, 0.000000000000000000, 1.000000000000000000 ) ) ;
#1098 = DIRECTION ( 'NONE',  ( 2.891205793294688187E-16, -1.000000000000000000, 0.000000000000000000 ) ) ;
#1099 = VERTEX_POINT ( 'NONE', #1065 ) ;
#1100 = CARTESIAN_POINT ( 'NONE',  ( -44.00000000000000711, 0.000000000000000000, 8.000000000000000000 ) ) ;
#1101 = ORIENTED_EDGE ( 'NONE', *, *, #973, .F. ) ;
#1102 = CARTESIAN_POINT ( 'NONE',  ( -1.650040755433008544, 9.883206236193158745, 3.892801630077014075 ) ) ;
#1103 = VECTOR ( 'NONE', #142, 1000.000000000000000 ) ;
#1104 = DIRECTION ( 'NONE',  ( 1.000000000000000000, 0.000000000000000000, 0.000000000000000000 ) ) ;
#1105 = CARTESIAN_POINT ( 'NONE',  ( 25.07536523183254928, 13.50000000000003020, 0.000000000000000000 ) ) ;
#1106 = DIRECTION ( 'NONE',  ( 0.000000000000000000, -0.000000000000000000, 1.000000000000000000 ) ) ;
#1107 = ORIENTED_EDGE ( 'NONE', *, *, #376, .T. ) ;
#1108 = LINE ( 'NONE', #20, #258 ) ;
#1109 = VERTEX_POINT ( 'NONE', #86 ) ;
#1110 = CARTESIAN_POINT ( 'NONE',  ( -0.2165769671211068559, 10.01821603192373367, 5.639262846294684550 ) ) ;
#1111 = VECTOR ( 'NONE', #984, 1000.000000000000000 ) ;
#1112 = CIRCLE ( 'NONE', #775, 2.000000000000001776 ) ;
#1113 = EDGE_CURVE ( 'NONE', #851, #754, #779, .T. ) ;
#1114 = CARTESIAN_POINT ( 'NONE',  ( 25.07536523183255639, 5.500000000000051514, 8.000000000000000000 ) ) ;
#1115 = EDGE_CURVE ( 'NONE', #10, #629, #628, .T. ) ;
#1116 = ORIENTED_EDGE ( 'NONE', *, *, #878, .T. ) ;
#1117 = LINE ( 'NONE', #110, #977 ) ;
#1118 = DIRECTION ( 'NONE',  ( -1.000000000000000000, 0.000000000000000000, 0.000000000000000000 ) ) ;
#1119 = EDGE_LOOP ( 'NONE', ( #109, #1206, #862, #204, #781, #836, #806, #3 ) ) ;
#1120 = DIRECTION ( 'NONE',  ( 1.000000000000000000, 0.000000000000000000, 0.000000000000000000 ) ) ;
#1121 = VECTOR ( 'NONE', #84, 1000.000000000000000 ) ;
#1122 = DIRECTION ( 'NONE',  ( -2.401924812890960362E-15, 1.000000000000000000, 0.000000000000000000 ) ) ;
#1123 = CARTESIAN_POINT ( 'NONE',  ( 13.50000000000000178, 19.00000000000002487, 4.000000000000000000 ) ) ;
#1124 = VERTEX_POINT ( 'NONE', #529 ) ;
#1125 = CARTESIAN_POINT ( 'NONE',  ( -0.8282126882263037837, 9.986115414130827261, 2.568881238898509611 ) ) ;
#1126 = FACE_BOUND ( 'NONE', #1165, .T. ) ;
#1127 = AXIS2_PLACEMENT_3D ( 'NONE', #184, #673, #872 ) ;
#1128 = CYLINDRICAL_SURFACE ( 'NONE', #116, 2.099999999999999645 ) ;
#1129 = ORIENTED_EDGE ( 'NONE', *, *, #944, .F. ) ;
#1130 = DIRECTION ( 'NONE',  ( 1.000000000000000000, 0.000000000000000000, 0.000000000000000000 ) ) ;
#1131 = EDGE_CURVE ( 'NONE', #431, #1099, #1079, .T. ) ;
#1132 = ORIENTED_EDGE ( 'NONE', *, *, #324, .T. ) ;
#1133 = CYLINDRICAL_SURFACE ( 'NONE', #1218, 1.650000000000000355 ) ;
#1134 = EDGE_LOOP ( 'NONE', ( #713, #1185, #490, #40 ) ) ;
#1135 = CARTESIAN_POINT ( 'NONE',  ( 27.07536523183254928, 13.50000000000003020, 8.000000000000000000 ) ) ;
#1136 = EDGE_CURVE ( 'NONE', #793, #566, #119, .T. ) ;
#1137 = VERTEX_POINT ( 'NONE', #622 ) ;
#1138 = EDGE_CURVE ( 'NONE', #906, #912, #532, .T. ) ;
#1139 = ADVANCED_FACE ( 'NONE', ( #412 ), #521, .F. ) ;
#1140 = CARTESIAN_POINT ( 'NONE',  ( 20.57536523183255284, 13.50000000000002842, 0.000000000000000000 ) ) ;
#1141 = DIRECTION ( 'NONE',  ( 0.000000000000000000, 0.000000000000000000, 1.000000000000000000 ) ) ;
#1142 = CIRCLE ( 'NONE', #314, 2.000000000000001776 ) ;
#1143 = ORIENTED_EDGE ( 'NONE', *, *, #1131, .F. ) ;
#1144 = DIRECTION ( 'NONE',  ( 0.000000000000000000, 0.000000000000000000, 1.000000000000000000 ) ) ;
#1145 = ORIENTED_EDGE ( 'NONE', *, *, #125, .T. ) ;
#1146 = CIRCLE ( 'NONE', #684, 2.099999999782546478 ) ;
#1147 = CIRCLE ( 'NONE', #1127, 2.099999999779930793 ) ;
#1148 = SURFACE_SIDE_STYLE ('',( #634 ) ) ;
#1149 = ORIENTED_EDGE ( 'NONE', *, *, #809, .T. ) ;
#1150 = CARTESIAN_POINT ( 'NONE',  ( -6.736827112756825879E-15, 10.02000000000000135, 2.349999999999999645 ) ) ;
#1151 = VERTEX_POINT ( 'NONE', #1004 ) ;
#1152 = CARTESIAN_POINT ( 'NONE',  ( -0.000000000000000000, 2.081668171172168513E-14, 0.000000000000000000 ) ) ;
#1153 = EDGE_CURVE ( 'NONE', #1048, #292, #905, .T. ) ;
#1154 = ORIENTED_EDGE ( 'NONE', *, *, #946, .T. ) ;
#1155 = CARTESIAN_POINT ( 'NONE',  ( -27.07536523183255639, 3.500000000000051514, 8.000000000000000000 ) ) ;
#1156 = ORIENTED_EDGE ( 'NONE', *, *, #1177, .T. ) ;
#1157 = VECTOR ( 'NONE', #519, 1000.000000000000000 ) ;
#1158 = DIRECTION ( 'NONE',  ( -0.000000000000000000, -0.000000000000000000, -1.000000000000000000 ) ) ;
#1159 = ORIENTED_EDGE ( 'NONE', *, *, #765, .T. ) ;
#1160 = EDGE_CURVE ( 'NONE', #5, #29, #1196, .T. ) ;
#1161 = CARTESIAN_POINT ( 'NONE',  ( 1.431322821994389871, 9.917427092437765879, 3.172118398576340592 ) ) ;
#1162 = CARTESIAN_POINT ( 'NONE',  ( -20.57536523183255284, 3.500000000000051514, 8.000000000000000000 ) ) ;
#1163 = DIRECTION ( 'NONE',  ( -1.000000000000000000, -2.401924812890960362E-15, -0.000000000000000000 ) ) ;
#1164 = DIRECTION ( 'NONE',  ( 0.000000000000000000, 0.000000000000000000, -1.000000000000000000 ) ) ;
#1165 = EDGE_LOOP ( 'NONE', ( #731, #980, #903, #938, #1025, #480, #173, #645 ) ) ;
#1166 = CARTESIAN_POINT ( 'NONE',  ( -20.57536523183255284, 0.000000000000000000, 0.000000000000000000 ) ) ;
#1167 = AXIS2_PLACEMENT_3D ( 'NONE', #351, #345, #845 ) ;
#1168 = ADVANCED_FACE ( 'NONE', ( #130 ), #917, .F. ) ;
#1169 = DIRECTION ( 'NONE',  ( 0.000000000000000000, -0.000000000000000000, -1.000000000000000000 ) ) ;
#1170 = CARTESIAN_POINT ( 'NONE',  ( -27.07536523183255994, 15.50000000000001243, 8.000000000000000000 ) ) ;
#1171 = CARTESIAN_POINT ( 'NONE',  ( -13.50000000000000711, 19.00000000000002487, 1.900000000000001021 ) ) ;
#1172 = VECTOR ( 'NONE', #291, 1000.000000000000000 ) ;
#1173 = VERTEX_POINT ( 'NONE', #512 ) ;
#1174 = CARTESIAN_POINT ( 'NONE',  ( 0.000000000000000000, 2.081668171172168513E-14, 8.000000000000000000 ) ) ;
#1175 = CARTESIAN_POINT ( 'NONE',  ( -22.57536523183255284, 3.500000000000051514, 8.000000000000000000 ) ) ;
#1176 = EDGE_CURVE ( 'NONE', #894, #81, #25, .T. ) ;
#1177 = EDGE_CURVE ( 'NONE', #440, #558, #281, .T. ) ;
#1178 = DIRECTION ( 'NONE',  ( -0.000000000000000000, 0.000000000000000000, 1.000000000000000000 ) ) ;
#1179 = ORIENTED_EDGE ( 'NONE', *, *, #824, .F. ) ;
#1180 = CARTESIAN_POINT ( 'NONE',  ( 1.482080343945229473, 9.909874122814706254, 3.266748689726486798 ) ) ;
#1181 = DIRECTION ( 'NONE',  ( -0.000000000000000000, 0.000000000000000000, 1.000000000000000000 ) ) ;
#1182 = CARTESIAN_POINT ( 'NONE',  ( 13.50000000000000178, 19.00000000000002487, 1.899999999999999245 ) ) ;
#1183 = DIRECTION ( 'NONE',  ( 0.000000000000000000, 0.000000000000000000, 1.000000000000000000 ) ) ;
#1184 = CARTESIAN_POINT ( 'NONE',  ( 25.07536523183254928, 13.50000000000003020, -2.000000000000000000 ) ) ;
#1185 = ORIENTED_EDGE ( 'NONE', *, *, #452, .T. ) ;
#1186 = LINE ( 'NONE', #696, #136 ) ;
#1187 = ORIENTED_EDGE ( 'NONE', *, *, #1000, .T. ) ;
#1188 = AXIS2_PLACEMENT_3D ( 'NONE', #802, #699, #1104 ) ;
#1189 = DIRECTION ( 'NONE',  ( -1.000000000000000000, -2.668805347656626678E-16, 0.000000000000000000 ) ) ;
#1190 = DIRECTION ( 'NONE',  ( -0.000000000000000000, -0.000000000000000000, -1.000000000000000000 ) ) ;
#1191 = VERTEX_POINT ( 'NONE', #427 ) ;
#1192 = FACE_BOUND ( 'NONE', #325, .T. ) ;
#1193 = ADVANCED_FACE ( 'NONE', ( #711, #627 ), #724, .F. ) ;
#1194 = ORIENTED_EDGE ( 'NONE', *, *, #324, .F. ) ;
#1195 = CARTESIAN_POINT ( 'NONE',  ( -13.50000000000000711, 2.081668171172168513E-14, 6.099999999999999645 ) ) ;
#1196 = LINE ( 'NONE', #1011, #918 ) ;
#1197 = DIRECTION ( 'NONE',  ( 0.000000000000000000, 1.000000000000000000, 0.000000000000000000 ) ) ;
#1198 = CARTESIAN_POINT ( 'NONE',  ( 0.000000000000000000, 19.00000000000002487, 8.000000000000000000 ) ) ;
#1199 = ORIENTED_EDGE ( 'NONE', *, *, #952, .F. ) ;
#1200 = DIRECTION ( 'NONE',  ( 1.000000000000000000, 0.000000000000000000, 0.000000000000000000 ) ) ;
#1201 = ORIENTED_EDGE ( 'NONE', *, *, #1077, .F. ) ;
#1202 = DIRECTION ( 'NONE',  ( 0.000000000000000000, 0.000000000000000000, 1.000000000000000000 ) ) ;
#1203 = AXIS2_PLACEMENT_3D ( 'NONE', #213, #605, #221 ) ;
#1204 = DIRECTION ( 'NONE',  ( -0.000000000000000000, 1.000000000000000000, -0.000000000000000000 ) ) ;
#1205 = DIRECTION ( 'NONE',  ( 0.000000000000000000, 0.000000000000000000, 1.000000000000000000 ) ) ;
#1206 = ORIENTED_EDGE ( 'NONE', *, *, #158, .T. ) ;
#1207 = CIRCLE ( 'NONE', #528, 2.000000000000001776 ) ;
#1208 = DIRECTION ( 'NONE',  ( -0.000000000000000000, -0.000000000000000000, -1.000000000000000000 ) ) ;
#1209 = DIRECTION ( 'NONE',  ( 1.000000000000000000, 0.000000000000000000, 0.000000000000000000 ) ) ;
#1210 = AXIS2_PLACEMENT_3D ( 'NONE', #382, #70, #181 ) ;
#1211 = CIRCLE ( 'NONE', #871, 2.099999999782546478 ) ;
#1212 = ADVANCED_FACE ( 'NONE', ( #219 ), #539, .F. ) ;
#1213 = DIRECTION ( 'NONE',  ( -0.000000000000000000, 1.000000000000000000, -0.000000000000000000 ) ) ;
#1214 = VERTEX_POINT ( 'NONE', #1016 ) ;
#1215 = FACE_OUTER_BOUND ( 'NONE', #500, .T. ) ;
#1216 = ORIENTED_EDGE ( 'NONE', *, *, #1096, .F. ) ;
#1217 = CARTESIAN_POINT ( 'NONE',  ( -1.091034546549777051, 9.960717444433587531, 5.242451985843885609 ) ) ;
#1218 = AXIS2_PLACEMENT_3D ( 'NONE', #437, #948, #725 ) ;
#1219 = DIRECTION ( 'NONE',  ( 1.000000000000000000, 0.000000000000000000, 0.000000000000000000 ) ) ;
#1220 = EDGE_CURVE ( 'NONE', #1099, #1043, #818, .T. ) ;
#1221 = EDGE_CURVE ( 'NONE', #642, #328, #434, .T. ) ;
#1222 = PLANE ( 'NONE',  #85 ) ;
#1223 = ORIENTED_EDGE ( 'NONE', *, *, #99, .F. ) ;
#1224 = CARTESIAN_POINT ( 'NONE',  ( -0.5326359345158848679, 10.00633367465920287, 5.565404733258007219 ) ) ;
#1225 = CARTESIAN_POINT ( 'NONE',  ( -27.07536523183255994, 13.50000000000001776, 8.000000000000000000 ) ) ;
#1226 = VERTEX_POINT ( 'NONE', #718 ) ;
#1227 = DIRECTION ( 'NONE',  ( 1.000000000000000000, 0.000000000000000000, 0.000000000000000000 ) ) ;
#1228 = ORIENTED_EDGE ( 'NONE', *, *, #149, .T. ) ;
#1229 = DIRECTION ( 'NONE',  ( 0.000000000000000000, 0.000000000000000000, 1.000000000000000000 ) ) ;
#1230 = ORIENTED_EDGE ( 'NONE', *, *, #651, .T. ) ;
#1231 = AXIS2_PLACEMENT_3D ( 'NONE', #636, #1026, #1229 ) ;
#1232 = ORIENTED_EDGE ( 'NONE', *, *, #1014, .F. ) ;
#1233 = DIRECTION ( 'NONE',  ( 1.000000000000000000, 0.000000000000000000, 0.000000000000000000 ) ) ;
#1234 = ORIENTED_EDGE ( 'NONE', *, *, #866, .F. ) ;
#1235 = EDGE_CURVE ( 'NONE', #163, #687, #385, .T. ) ;
#1236 = CARTESIAN_POINT ( 'NONE',  ( 36.75073046344504490, 9.763548448602024976, 0.000000000000000000 ) ) ;
#1237 = ADVANCED_FACE ( 'NONE', ( #1126, #923, #796, #1029, #399 ), #879, .T. ) ;
#1238 = ORIENTED_EDGE ( 'NONE', *, *, #452, .F. ) ;
#1239 = VECTOR ( 'NONE', #855, 1000.000000000000000 ) ;
#1240 = ADVANCED_FACE ( 'NONE', ( #911 ), #134, .F. ) ;
#1241 = VERTEX_POINT ( 'NONE', #1140 ) ;
#1242 = FACE_OUTER_BOUND ( 'NONE', #45, .T. ) ;
#1243 = EDGE_LOOP ( 'NONE', ( #444, #992, #410, #1273 ) ) ;
#1244 = DIRECTION ( 'NONE',  ( -3.652049423109064868E-16, -1.000000000000000000, 0.000000000000000000 ) ) ;
#1245 = ORIENTED_EDGE ( 'NONE', *, *, #569, .F. ) ;
#1246 = DIRECTION ( 'NONE',  ( 1.000000000000000000, 0.000000000000000000, 0.000000000000000000 ) ) ;
#1247 = EDGE_LOOP ( 'NONE', ( #1101, #892, #1129, #178 ) ) ;
#1248 = CARTESIAN_POINT ( 'NONE',  ( 39.00000000000000000, 19.00000000000002487, 8.000000000000000000 ) ) ;
#1249 = EDGE_LOOP ( 'NONE', ( #994, #350, #925, #1068, #957, #483, #576, #1085 ) ) ;
#1250 = VECTOR ( 'NONE', #157, 1000.000000000000000 ) ;
#1251 = ADVANCED_FACE ( 'NONE', ( #1037, #859, #939, #457 ), #436, .T. ) ;
#1252 = VECTOR ( 'NONE', #234, 1000.000000000000000 ) ;
#1253 = ORIENTED_EDGE ( 'NONE', *, *, #143, .F. ) ;
#1254 = CARTESIAN_POINT ( 'NONE',  ( -6.938893903907228378E-15, 2.081668171172168513E-14, 5.650000000000000355 ) ) ;
#1255 = ORIENTED_EDGE ( 'NONE', *, *, #250, .F. ) ;
#1256 = CARTESIAN_POINT ( 'NONE',  ( -44.00000000000000711, 0.000000000000000000, -31.40063693621518581 ) ) ;
#1257 = ORIENTED_EDGE ( 'NONE', *, *, #626, .F. ) ;
#1258 = EDGE_CURVE ( 'NONE', #854, #81, #778, .T. ) ;
#1259 = VECTOR ( 'NONE', #1219, 1000.000000000000000 ) ;
#1260 = ADVANCED_FACE ( 'NONE', ( #1291 ), #788, .F. ) ;
#1261 = EDGE_LOOP ( 'NONE', ( #971, #1075, #846, #882 ) ) ;
#1262 = DIRECTION ( 'NONE',  ( -1.000000000000000000, 0.000000000000000000, 0.000000000000000000 ) ) ;
#1263 = EDGE_CURVE ( 'NONE', #1043, #247, #140, .T. ) ;
#1264 = VERTEX_POINT ( 'NONE', #795 ) ;
#1265 = DIRECTION ( 'NONE',  ( -0.000000000000000000, -0.000000000000000000, -1.000000000000000000 ) ) ;
#1266 = CARTESIAN_POINT ( 'NONE',  ( -25.07536523183255639, 3.500000000000051514, 8.000000000000000000 ) ) ;
#1267 = DIRECTION ( 'NONE',  ( -1.000000000000000000, 0.000000000000000000, 0.000000000000000000 ) ) ;
#1268 = ORIENTED_EDGE ( 'NONE', *, *, #1221, .T. ) ;
#1269 = CARTESIAN_POINT ( 'NONE',  ( 1.312794417995829521, 9.933812095621560090, 5.005339846303581197 ) ) ;
#1270 = CARTESIAN_POINT ( 'NONE',  ( -4.136648288867777317E-15, 15.50000000000002309, 0.000000000000000000 ) ) ;
#1271 = EDGE_LOOP ( 'NONE', ( #1057, #1187, #1156, #1179 ) ) ;
#1272 = LINE ( 'NONE', #1254, #1003 ) ;
#1273 = ORIENTED_EDGE ( 'NONE', *, *, #176, .T. ) ;
#1274 = PLANE ( 'NONE',  #1078 ) ;
#1275 = AXIS2_PLACEMENT_3D ( 'NONE', #739, #630, #1130 ) ;
#1276 = EDGE_CURVE ( 'NONE', #798, #642, #289, .T. ) ;
#1277 = CARTESIAN_POINT ( 'NONE',  ( -36.61398353779614467, 10.23645155088345859, 22.00000000000000000 ) ) ;
#1278 = ORIENTED_EDGE ( 'NONE', *, *, #946, .F. ) ;
#1279 = CYLINDRICAL_SURFACE ( 'NONE', #327, 2.000000000000001776 ) ;
#1280 = AXIS2_PLACEMENT_3D ( 'NONE', #246, #518, #1209 ) ;
#1281 = VECTOR ( 'NONE', #972, 1000.000000000000000 ) ;
#1282 = ORIENTED_EDGE ( 'NONE', *, *, #768, .T. ) ;
#1283 = DIRECTION ( 'NONE',  ( -1.000000000000000000, 0.000000000000000000, 0.000000000000000000 ) ) ;
#1284 = AXIS2_PLACEMENT_3D ( 'NONE', #574, #870, #884 ) ;
#1285 = DIRECTION ( 'NONE',  ( -0.000000000000000000, -0.000000000000000000, -1.000000000000000000 ) ) ;
#1286 = DIRECTION ( 'NONE',  ( 0.000000000000000000, 0.000000000000000000, 1.000000000000000000 ) ) ;
#1287 = CARTESIAN_POINT ( 'NONE',  ( 13.50000000000000178, 2.081668171172168513E-14, 4.000000000000000000 ) ) ;
#1288 = EDGE_LOOP ( 'NONE', ( #621, #146 ) ) ;
#1289 = CARTESIAN_POINT ( 'NONE',  ( 0.8320772547989813139, 9.987370192904554855, 5.440942367071465391 ) ) ;
#1290 = CARTESIAN_POINT ( 'NONE',  ( 44.00000000000000000, -1.836970198721031955E-15, 8.000000000000000000 ) ) ;
#1291 = FACE_OUTER_BOUND ( 'NONE', #397, .T. ) ;
ENDSEC;
END-ISO-10303-21;
