ISO-10303-21;
HEADER;
FILE_DESCRIPTION (( 'STEP AP214' ),
    '1' );
FILE_NAME ('CNC-DM8009µæÆ¬A.STEP',
    '2026-08-16T17:26:53',
    ( '' ),
    ( '' ),
    'SwSTEP 2.0',
    'SolidWorks 2025',
    '' );
FILE_SCHEMA (( 'AUTOMOTIVE_DESIGN' ));
ENDSEC;

DATA;
#1 = DIRECTION ( 'NONE',  ( -0.000000000000000000, 1.000000000000000000, -0.000000000000000000 ) ) ;
#2 = ORIENTED_EDGE ( 'NONE', *, *, #712, .T. ) ;
#3 = CYLINDRICAL_SURFACE ( 'NONE', #99, 49.00000000000000000 ) ;
#4 = EDGE_CURVE ( 'NONE', #271, #588, #25, .T. ) ;
#5 = CARTESIAN_POINT ( 'NONE',  ( 38.97114317029973307, -6.222539674441621038, -20.30000000000001137 ) ) ;
#6 = ORIENTED_EDGE ( 'NONE', *, *, #627, .T. ) ;
#7 = VECTOR ( 'NONE', #678, 1000.000000000000000 ) ;
#8 = UNCERTAINTY_MEASURE_WITH_UNIT (LENGTH_MEASURE( 1.000000000000000082E-05 ), #500, 'distance_accuracy_value', 'NONE');
#9 = PLANE ( 'NONE',  #14 ) ;
#10 = VERTEX_POINT ( 'NONE', #29 ) ;
#11 = EDGE_CURVE ( 'NONE', #421, #584, #303, .T. ) ;
#12 = CARTESIAN_POINT ( 'NONE',  ( 5.637851296924623057E-15, 3.899999999999999911, 47.19999999999999574 ) ) ;
#13 = ORIENTED_EDGE ( 'NONE', *, *, #606, .F. ) ;
#14 = AXIS2_PLACEMENT_3D ( 'NONE', #495, #169, #607 ) ;
#15 = DIRECTION ( 'NONE',  ( 0.000000000000000000, 0.000000000000000000, 1.000000000000000000 ) ) ;
#16 = ORIENTED_EDGE ( 'NONE', *, *, #582, .F. ) ;
#17 =( NAMED_UNIT ( * ) PLANE_ANGLE_UNIT ( ) SI_UNIT ( $, .RADIAN. ) );
#18 = FACE_OUTER_BOUND ( 'NONE', #529, .T. ) ;
#19 = ADVANCED_FACE ( 'NONE', ( #72 ), #291, .F. ) ;
#20 = ORIENTED_EDGE ( 'NONE', *, *, #331, .F. ) ;
#21 = LINE ( 'NONE', #412, #514 ) ;
#22 = CIRCLE ( 'NONE', #116, 2.199999999999989964 ) ;
#23 = DIRECTION ( 'NONE',  ( -0.000000000000000000, -1.000000000000000000, -0.000000000000000000 ) ) ;
#24 = ADVANCED_FACE ( 'NONE', ( #18 ), #401, .F. ) ;
#25 = LINE ( 'NONE', #235, #7 ) ;
#26 = DIRECTION ( 'NONE',  ( -0.000000000000000000, -1.000000000000000000, -0.000000000000000000 ) ) ;
#27 = AXIS2_PLACEMENT_3D ( 'NONE', #97, #658, #647 ) ;
#28 = DIRECTION ( 'NONE',  ( 0.000000000000000000, 0.000000000000000000, 1.000000000000000000 ) ) ;
#29 = CARTESIAN_POINT ( 'NONE',  ( 38.97114317029974728, 3.899999999999999911, 24.69999999999999218 ) ) ;
#30 = EDGE_CURVE ( 'NONE', #370, #220, #431, .T. ) ;
#31 = DIRECTION ( 'NONE',  ( 0.000000000000000000, 0.000000000000000000, -1.000000000000000000 ) ) ;
#32 = DIRECTION ( 'NONE',  ( 0.000000000000000000, 0.000000000000000000, 1.000000000000000000 ) ) ;
#33 = VERTEX_POINT ( 'NONE', #484 ) ;
#34 = FACE_OUTER_BOUND ( 'NONE', #77, .T. ) ;
#35 = CIRCLE ( 'NONE', #437, 2.200000000000000622 ) ;
#36 = CARTESIAN_POINT ( 'NONE',  ( 0.000000000000000000, 3.899999999999999911, -41.04000000000000625 ) ) ;
#37 = FACE_OUTER_BOUND ( 'NONE', #515, .T. ) ;
#38 = VERTEX_POINT ( 'NONE', #652 ) ;
#39 = CARTESIAN_POINT ( 'NONE',  ( 0.000000000000000000, -6.222539674441621038, -42.79999999999999716 ) ) ;
#40 = FACE_OUTER_BOUND ( 'NONE', #134, .T. ) ;
#41 = ORIENTED_EDGE ( 'NONE', *, *, #118, .F. ) ;
#42 = DIRECTION ( 'NONE',  ( -0.000000000000000000, -1.000000000000000000, -0.000000000000000000 ) ) ;
#43 = EDGE_CURVE ( 'NONE', #45, #315, #686, .T. ) ;
#44 = LINE ( 'NONE', #362, #293 ) ;
#45 = VERTEX_POINT ( 'NONE', #594 ) ;
#46 = DIRECTION ( 'NONE',  ( 0.000000000000000000, 0.000000000000000000, -1.000000000000000000 ) ) ;
#47 = FACE_BOUND ( 'NONE', #304, .T. ) ;
#48 = DIRECTION ( 'NONE',  ( 0.000000000000000000, 0.000000000000000000, 1.000000000000000000 ) ) ;
#49 = ORIENTED_EDGE ( 'NONE', *, *, #590, .T. ) ;
#50 = DIRECTION ( 'NONE',  ( 0.000000000000000000, 1.000000000000000000, 0.000000000000000000 ) ) ;
#51 = AXIS2_PLACEMENT_3D ( 'NONE', #575, #626, #352 ) ;
#52 = ORIENTED_EDGE ( 'NONE', *, *, #615, .F. ) ;
#53 = DIRECTION ( 'NONE',  ( -0.000000000000000000, -1.000000000000000000, -0.000000000000000000 ) ) ;
#54 = EDGE_CURVE ( 'NONE', #271, #646, #55, .T. ) ;
#55 = CIRCLE ( 'NONE', #87, 49.00000000000000000 ) ;
#56 = ORIENTED_EDGE ( 'NONE', *, *, #595, .T. ) ;
#57 = ADVANCED_FACE ( 'NONE', ( #427 ), #260, .F. ) ;
#58 = DIRECTION ( 'NONE',  ( 0.000000000000000000, 0.000000000000000000, 1.000000000000000000 ) ) ;
#59 = EDGE_LOOP ( 'NONE', ( #642, #49 ) ) ;
#60 = DIRECTION ( 'NONE',  ( 1.000000000000000000, 0.000000000000000000, 0.000000000000000000 ) ) ;
#61 = AXIS2_PLACEMENT_3D ( 'NONE', #589, #643, #313 ) ;
#62 = ORIENTED_EDGE ( 'NONE', *, *, #683, .T. ) ;
#63 = CLOSED_SHELL ( 'NONE', ( #488, #660, #464, #233, #19, #553, #65, #567, #668, #289, #377, #695, #498, #674, #502, #557, #172, #103, #527, #57, #24 ) ) ;
#64 = DIRECTION ( 'NONE',  ( 0.000000000000000000, 0.000000000000000000, 1.000000000000000000 ) ) ;
#65 = ADVANCED_FACE ( 'NONE', ( #40 ), #209, .F. ) ;
#66 = ORIENTED_EDGE ( 'NONE', *, *, #11, .F. ) ;
#67 = SURFACE_STYLE_FILL_AREA ( #168 ) ;
#68 = CARTESIAN_POINT ( 'NONE',  ( 0.000000000000000000, 0.000000000000000000, 0.000000000000000000 ) ) ;
#69 = EDGE_LOOP ( 'NONE', ( #629, #348, #329, #600 ) ) ;
#70 = AXIS2_PLACEMENT_3D ( 'NONE', #68, #136, #353 ) ;
#71 = AXIS2_PLACEMENT_3D ( 'NONE', #539, #215, #720 ) ;
#72 = FACE_OUTER_BOUND ( 'NONE', #346, .T. ) ;
#73 = EDGE_CURVE ( 'NONE', #443, #185, #102, .T. ) ;
#74 = ORIENTED_EDGE ( 'NONE', *, *, #635, .F. ) ;
#75 = DIRECTION ( 'NONE',  ( 0.000000000000000000, 0.000000000000000000, 1.000000000000000000 ) ) ;
#76 = EDGE_CURVE ( 'NONE', #584, #421, #577, .T. ) ;
#77 = EDGE_LOOP ( 'NONE', ( #518, #56, #351, #675 ) ) ;
#78 = ORIENTED_EDGE ( 'NONE', *, *, #586, .F. ) ;
#79 = DIRECTION ( 'NONE',  ( -0.000000000000000000, -1.000000000000000000, -0.000000000000000000 ) ) ;
#80 = VECTOR ( 'NONE', #450, 1000.000000000000000 ) ;
#81 = CARTESIAN_POINT ( 'NONE',  ( 38.97114317029974728, 3.899999999999999911, 22.49999999999999289 ) ) ;
#82 = EDGE_CURVE ( 'NONE', #688, #123, #292, .T. ) ;
#83 = EDGE_LOOP ( 'NONE', ( #131, #288, #178, #617 ) ) ;
#84 = DIRECTION ( 'NONE',  ( 0.000000000000000000, 0.000000000000000000, 1.000000000000000000 ) ) ;
#85 = ORIENTED_EDGE ( 'NONE', *, *, #317, .F. ) ;
#86 = CARTESIAN_POINT ( 'NONE',  ( -38.97114317029973307, -6.222539674441621038, 24.70000000000000995 ) ) ;
#87 = AXIS2_PLACEMENT_3D ( 'NONE', #366, #648, #528 ) ;
#88 = CARTESIAN_POINT ( 'NONE',  ( 38.97114317029974728, 0.000000000000000000, 24.69999999999999218 ) ) ;
#89 = ORIENTED_EDGE ( 'NONE', *, *, #30, .F. ) ;
#90 = DIRECTION ( 'NONE',  ( 0.000000000000000000, 0.000000000000000000, 1.000000000000000000 ) ) ;
#91 = DIRECTION ( 'NONE',  ( -0.000000000000000000, -1.000000000000000000, -0.000000000000000000 ) ) ;
#92 = ORIENTED_EDGE ( 'NONE', *, *, #712, .F. ) ;
#93 = DIRECTION ( 'NONE',  ( -0.000000000000000000, -1.000000000000000000, -0.000000000000000000 ) ) ;
#94 = DIRECTION ( 'NONE',  ( 0.000000000000000000, 0.000000000000000000, 1.000000000000000000 ) ) ;
#95 = DIRECTION ( 'NONE',  ( 0.000000000000000000, 0.000000000000000000, 1.000000000000000000 ) ) ;
#96 = EDGE_LOOP ( 'NONE', ( #252, #363, #493, #92 ) ) ;
#97 = CARTESIAN_POINT ( 'NONE',  ( -38.97114317029973307, -6.222539674441621038, 22.50000000000002132 ) ) ;
#98 = DIRECTION ( 'NONE',  ( -0.000000000000000000, 1.000000000000000000, -0.000000000000000000 ) ) ;
#99 = AXIS2_PLACEMENT_3D ( 'NONE', #672, #621, #664 ) ;
#100 = EDGE_LOOP ( 'NONE', ( #704, #499 ) ) ;
#101 = DIRECTION ( 'NONE',  ( 0.000000000000000000, 0.000000000000000000, 1.000000000000000000 ) ) ;
#102 = LINE ( 'NONE', #469, #604 ) ;
#103 = ADVANCED_FACE ( 'NONE', ( #37 ), #583, .F. ) ;
#104 = VERTEX_POINT ( 'NONE', #148 ) ;
#105 = DIRECTION ( 'NONE',  ( 0.000000000000000000, 0.000000000000000000, -1.000000000000000000 ) ) ;
#106 = AXIS2_PLACEMENT_3D ( 'NONE', #585, #53, #105 ) ;
#107 = CARTESIAN_POINT ( 'NONE',  ( 38.97114317029973307, -6.222539674441621038, -22.50000000000001421 ) ) ;
#108 = EDGE_CURVE ( 'NONE', #112, #649, #639, .T. ) ;
#109 = ORIENTED_EDGE ( 'NONE', *, *, #449, .T. ) ;
#110 = CARTESIAN_POINT ( 'NONE',  ( -38.97114317029973307, 3.899999999999999911, 20.30000000000002913 ) ) ;
#111 = CIRCLE ( 'NONE', #411, 2.200000000000000622 ) ;
#112 = VERTEX_POINT ( 'NONE', #532 ) ;
#113 = DIRECTION ( 'NONE',  ( 0.000000000000000000, -0.000000000000000000, 1.000000000000000000 ) ) ;
#114 = DIRECTION ( 'NONE',  ( 0.000000000000000000, 1.000000000000000000, 0.000000000000000000 ) ) ;
#115 = ORIENTED_EDGE ( 'NONE', *, *, #310, .T. ) ;
#116 = AXIS2_PLACEMENT_3D ( 'NONE', #130, #259, #94 ) ;
#117 = SURFACE_SIDE_STYLE ('',( #67 ) ) ;
#118 = EDGE_CURVE ( 'NONE', #112, #375, #318, .T. ) ;
#119 = DIRECTION ( 'NONE',  ( -0.000000000000000000, -1.000000000000000000, -0.000000000000000000 ) ) ;
#120 =( GEOMETRIC_REPRESENTATION_CONTEXT ( 3 ) GLOBAL_UNCERTAINTY_ASSIGNED_CONTEXT ( ( #8 ) ) GLOBAL_UNIT_ASSIGNED_CONTEXT ( ( #500, #613, #344 ) ) REPRESENTATION_CONTEXT ( 'NONE', 'WORKASPACE' ) );
#121 = VERTEX_POINT ( 'NONE', #432 ) ;
#122 = EDGE_CURVE ( 'NONE', #588, #442, #510, .T. ) ;
#123 = VERTEX_POINT ( 'NONE', #88 ) ;
#124 = CARTESIAN_POINT ( 'NONE',  ( 0.000000000000000000, 3.899999999999999911, 0.000000000000000000 ) ) ;
#125 = PLANE ( 'NONE',  #238 ) ;
#126 = LINE ( 'NONE', #506, #249 ) ;
#127 = ORIENTED_EDGE ( 'NONE', *, *, #82, .T. ) ;
#128 = DIRECTION ( 'NONE',  ( 0.000000000000000000, 0.000000000000000000, 1.000000000000000000 ) ) ;
#129 = VECTOR ( 'NONE', #273, 1000.000000000000000 ) ;
#130 = CARTESIAN_POINT ( 'NONE',  ( -38.97114317029973307, 0.000000000000000000, 22.50000000000002132 ) ) ;
#131 = ORIENTED_EDGE ( 'NONE', *, *, #402, .T. ) ;
#132 = CARTESIAN_POINT ( 'NONE',  ( 0.000000000000000000, 0.000000000000000000, -49.00000000000000000 ) ) ;
#133 = DIRECTION ( 'NONE',  ( 0.000000000000000000, 1.000000000000000000, 0.000000000000000000 ) ) ;
#134 = EDGE_LOOP ( 'NONE', ( #62, #115, #16, #392 ) ) ;
#135 = CARTESIAN_POINT ( 'NONE',  ( 0.000000000000000000, 0.9000000000000000222, 0.000000000000000000 ) ) ;
#136 = DIRECTION ( 'NONE',  ( 0.000000000000000000, 1.000000000000000000, 0.000000000000000000 ) ) ;
#137 = ORIENTED_EDGE ( 'NONE', *, *, #606, .T. ) ;
#138 = DIRECTION ( 'NONE',  ( 0.000000000000000000, 0.000000000000000000, 1.000000000000000000 ) ) ;
#139 = EDGE_CURVE ( 'NONE', #45, #281, #44, .T. ) ;
#140 = EDGE_LOOP ( 'NONE', ( #210, #141, #693, #596 ) ) ;
#141 = ORIENTED_EDGE ( 'NONE', *, *, #73, .T. ) ;
#142 = CARTESIAN_POINT ( 'NONE',  ( -38.97114317029973307, 3.899999999999999911, 24.70000000000000995 ) ) ;
#143 = CARTESIAN_POINT ( 'NONE',  ( 38.97114317029974728, 3.899999999999999911, 22.49999999999999289 ) ) ;
#144 = CARTESIAN_POINT ( 'NONE',  ( 0.000000000000000000, 3.899999999999999911, 0.000000000000000000 ) ) ;
#145 = ORIENTED_EDGE ( 'NONE', *, *, #373, .T. ) ;
#146 = DIRECTION ( 'NONE',  ( 0.000000000000000000, 1.000000000000000000, 0.000000000000000000 ) ) ;
#147 = AXIS2_PLACEMENT_3D ( 'NONE', #644, #374, #95 ) ;
#148 = CARTESIAN_POINT ( 'NONE',  ( 5.637851296924623057E-15, 0.000000000000000000, 47.19999999999999574 ) ) ;
#149 = ORIENTED_EDGE ( 'NONE', *, *, #180, .F. ) ;
#150 = CARTESIAN_POINT ( 'NONE',  ( 0.000000000000000000, 0.9000000000000000222, 0.000000000000000000 ) ) ;
#151 = AXIS2_PLACEMENT_3D ( 'NONE', #143, #255, #572 ) ;
#152 = CARTESIAN_POINT ( 'NONE',  ( 5.025950463700738464E-15, 0.9000000000000000222, 41.04000000000000625 ) ) ;
#153 = ORIENTED_EDGE ( 'NONE', *, *, #200, .F. ) ;
#154 = CARTESIAN_POINT ( 'NONE',  ( 0.000000000000000000, 0.9000000000000000222, 0.000000000000000000 ) ) ;
#155 = AXIS2_PLACEMENT_3D ( 'NONE', #187, #133, #521 ) ;
#156 = DIRECTION ( 'NONE',  ( 0.000000000000000000, 0.000000000000000000, 1.000000000000000000 ) ) ;
#157 = EDGE_LOOP ( 'NONE', ( #173, #474, #247, #408 ) ) ;
#158 = FACE_BOUND ( 'NONE', #343, .T. ) ;
#159 = CYLINDRICAL_SURFACE ( 'NONE', #234, 2.200000000000000622 ) ;
#160 = EDGE_LOOP ( 'NONE', ( #78, #556 ) ) ;
#161 = CARTESIAN_POINT ( 'NONE',  ( 0.000000000000000000, 3.899999999999999911, -49.00000000000000000 ) ) ;
#162 = CIRCLE ( 'NONE', #559, 2.200000000000000622 ) ;
#163 = ORIENTED_EDGE ( 'NONE', *, *, #579, .F. ) ;
#164 = DIRECTION ( 'NONE',  ( 0.000000000000000000, 0.000000000000000000, 1.000000000000000000 ) ) ;
#165 = CIRCLE ( 'NONE', #229, 2.199999999999989964 ) ;
#166 = DIRECTION ( 'NONE',  ( 0.000000000000000000, 1.000000000000000000, 0.000000000000000000 ) ) ;
#167 = VERTEX_POINT ( 'NONE', #264 ) ;
#168 = FILL_AREA_STYLE ('',( #330 ) ) ;
#169 = DIRECTION ( 'NONE',  ( 0.000000000000000000, 1.000000000000000000, 0.000000000000000000 ) ) ;
#170 = ORIENTED_EDGE ( 'NONE', *, *, #285, .F. ) ;
#171 = DIRECTION ( 'NONE',  ( -0.000000000000000000, 1.000000000000000000, -0.000000000000000000 ) ) ;
#172 = ADVANCED_FACE ( 'NONE', ( #717 ), #159, .F. ) ;
#173 = ORIENTED_EDGE ( 'NONE', *, *, #30, .T. ) ;
#174 = CIRCLE ( 'NONE', #667, 2.200000000000000622 ) ;
#175 = AXIS2_PLACEMENT_3D ( 'NONE', #460, #526, #457 ) ;
#176 = CARTESIAN_POINT ( 'NONE',  ( -38.97114317029973307, -6.222539674441621038, 20.30000000000002913 ) ) ;
#177 = AXIS2_PLACEMENT_3D ( 'NONE', #723, #42, #164 ) ;
#178 = ORIENTED_EDGE ( 'NONE', *, *, #206, .T. ) ;
#179 = LINE ( 'NONE', #558, #628 ) ;
#180 = EDGE_CURVE ( 'NONE', #123, #688, #327, .T. ) ;
#181 = AXIS2_PLACEMENT_3D ( 'NONE', #144, #91, #246 ) ;
#182 = ORIENTED_EDGE ( 'NONE', *, *, #414, .F. ) ;
#183 = CARTESIAN_POINT ( 'NONE',  ( 0.000000000000000000, 0.000000000000000000, 0.000000000000000000 ) ) ;
#184 = DIRECTION ( 'NONE',  ( 0.000000000000000000, 1.000000000000000000, 0.000000000000000000 ) ) ;
#185 = VERTEX_POINT ( 'NONE', #201 ) ;
#186 = DIRECTION ( 'NONE',  ( -0.000000000000000000, 1.000000000000000000, -0.000000000000000000 ) ) ;
#187 = CARTESIAN_POINT ( 'NONE',  ( 0.000000000000000000, 0.9000000000000000222, 0.000000000000000000 ) ) ;
#188 = CARTESIAN_POINT ( 'NONE',  ( 38.97114317029974728, 3.899999999999999911, 20.29999999999999005 ) ) ;
#189 = CARTESIAN_POINT ( 'NONE',  ( -38.97114317029975439, 3.899999999999999911, -22.49999999999996803 ) ) ;
#190 = DIRECTION ( 'NONE',  ( -0.000000000000000000, 1.000000000000000000, -0.000000000000000000 ) ) ;
#191 = FACE_OUTER_BOUND ( 'NONE', #69, .T. ) ;
#192 = EDGE_CURVE ( 'NONE', #185, #277, #111, .T. ) ;
#193 = PRODUCT_DEFINITION_FORMATION_WITH_SPECIFIED_SOURCE ( 'å¯', '', #690, .NOT_KNOWN. ) ;
#194 = VERTEX_POINT ( 'NONE', #152 ) ;
#195 = DIRECTION ( 'NONE',  ( -0.000000000000000000, 1.000000000000000000, -0.000000000000000000 ) ) ;
#196 = VECTOR ( 'NONE', #388, 1000.000000000000000 ) ;
#197 = CARTESIAN_POINT ( 'NONE',  ( 38.97114317029973307, -6.222539674441621038, -22.50000000000001421 ) ) ;
#198 = AXIS2_PLACEMENT_3D ( 'NONE', #654, #268, #324 ) ;
#199 = LINE ( 'NONE', #472, #645 ) ;
#200 = EDGE_CURVE ( 'NONE', #646, #271, #505, .T. ) ;
#201 = CARTESIAN_POINT ( 'NONE',  ( 38.97114317029973307, 3.899999999999999911, -24.70000000000001350 ) ) ;
#202 = ORIENTED_EDGE ( 'NONE', *, *, #180, .T. ) ;
#203 = DIRECTION ( 'NONE',  ( 0.000000000000000000, 1.000000000000000000, 0.000000000000000000 ) ) ;
#204 = AXIS2_PLACEMENT_3D ( 'NONE', #314, #710, #479 ) ;
#205 = DIRECTION ( 'NONE',  ( 0.000000000000000000, 0.000000000000000000, 1.000000000000000000 ) ) ;
#206 = EDGE_CURVE ( 'NONE', #38, #713, #657, .T. ) ;
#207 = ORIENTED_EDGE ( 'NONE', *, *, #73, .F. ) ;
#208 = CARTESIAN_POINT ( 'NONE',  ( 5.025950463700738464E-15, 3.899999999999999911, 41.04000000000000625 ) ) ;
#209 = CYLINDRICAL_SURFACE ( 'NONE', #181, 41.04000000000000625 ) ;
#210 = ORIENTED_EDGE ( 'NONE', *, *, #635, .T. ) ;
#211 = FACE_BOUND ( 'NONE', #100, .T. ) ;
#212 = AXIS2_PLACEMENT_3D ( 'NONE', #543, #486, #422 ) ;
#213 = DIRECTION ( 'NONE',  ( 0.000000000000000000, 0.000000000000000000, 1.000000000000000000 ) ) ;
#214 = ORIENTED_EDGE ( 'NONE', *, *, #206, .F. ) ;
#215 = DIRECTION ( 'NONE',  ( 0.000000000000000000, 1.000000000000000000, 0.000000000000000000 ) ) ;
#216 = EDGE_CURVE ( 'NONE', #443, #560, #287, .T. ) ;
#217 = ORIENTED_EDGE ( 'NONE', *, *, #192, .F. ) ;
#218 = LINE ( 'NONE', #253, #517 ) ;
#219 = VECTOR ( 'NONE', #1, 1000.000000000000000 ) ;
#220 = VERTEX_POINT ( 'NONE', #339 ) ;
#221 = CARTESIAN_POINT ( 'NONE',  ( 38.97114317029974728, 0.000000000000000000, 20.29999999999999005 ) ) ;
#222 = PRODUCT_DEFINITION_CONTEXT ( 'detailed design', #413, 'design' ) ;
#223 = ORIENTED_EDGE ( 'NONE', *, *, #590, .F. ) ;
#224 = CARTESIAN_POINT ( 'NONE',  ( 0.000000000000000000, 3.899999999999999911, -45.00000000000000000 ) ) ;
#225 = VERTEX_POINT ( 'NONE', #441 ) ;
#226 = CARTESIAN_POINT ( 'NONE',  ( 0.000000000000000000, 3.899999999999999911, 0.000000000000000000 ) ) ;
#227 = CIRCLE ( 'NONE', #631, 2.200000000000000622 ) ;
#228 = ORIENTED_EDGE ( 'NONE', *, *, #358, .T. ) ;
#229 = AXIS2_PLACEMENT_3D ( 'NONE', #326, #93, #381 ) ;
#230 = LINE ( 'NONE', #461, #80 ) ;
#231 = ORIENTED_EDGE ( 'NONE', *, *, #118, .T. ) ;
#232 = APPLICATION_PROTOCOL_DEFINITION ( 'draft international standard', 'automotive_design', 1998, #269 ) ;
#233 = ADVANCED_FACE ( 'NONE', ( #659 ), #383, .F. ) ;
#234 = AXIS2_PLACEMENT_3D ( 'NONE', #578, #307, #379 ) ;
#235 = CARTESIAN_POINT ( 'NONE',  ( 6.000769315822030937E-15, 0.9000000000000000222, 49.00000000000000000 ) ) ;
#236 = CARTESIAN_POINT ( 'NONE',  ( 0.000000000000000000, 0.000000000000000000, 0.000000000000000000 ) ) ;
#237 = EDGE_LOOP ( 'NONE', ( #170, #127, #433, #385 ) ) ;
#238 = AXIS2_PLACEMENT_3D ( 'NONE', #453, #184, #403 ) ;
#239 = CYLINDRICAL_SURFACE ( 'NONE', #175, 2.199999999999989964 ) ;
#240 = DIRECTION ( 'NONE',  ( 0.000000000000000000, 0.000000000000000000, 1.000000000000000000 ) ) ;
#241 = CARTESIAN_POINT ( 'NONE',  ( -38.97114317029973307, 3.899999999999999911, 22.50000000000002132 ) ) ;
#242 = EDGE_CURVE ( 'NONE', #713, #38, #227, .T. ) ;
#243 = CARTESIAN_POINT ( 'NONE',  ( -38.97114317029973307, 0.000000000000000000, 20.30000000000002913 ) ) ;
#244 = ORIENTED_EDGE ( 'NONE', *, *, #310, .F. ) ;
#245 = LINE ( 'NONE', #679, #263 ) ;
#246 = DIRECTION ( 'NONE',  ( 0.000000000000000000, 0.000000000000000000, -1.000000000000000000 ) ) ;
#247 = ORIENTED_EDGE ( 'NONE', *, *, #454, .F. ) ;
#248 = DIRECTION ( 'NONE',  ( -0.000000000000000000, -1.000000000000000000, -0.000000000000000000 ) ) ;
#249 = VECTOR ( 'NONE', #681, 1000.000000000000000 ) ;
#250 = EDGE_CURVE ( 'NONE', #456, #584, #501, .T. ) ;
#251 = DIRECTION ( 'NONE',  ( -0.000000000000000000, 1.000000000000000000, -0.000000000000000000 ) ) ;
#252 = ORIENTED_EDGE ( 'NONE', *, *, #586, .T. ) ;
#253 = CARTESIAN_POINT ( 'NONE',  ( 4.286263797015737285E-15, 0.9000000000000000222, 35.00000000000000711 ) ) ;
#254 = EDGE_CURVE ( 'NONE', #653, #167, #321, .T. ) ;
#255 = DIRECTION ( 'NONE',  ( 0.000000000000000000, 1.000000000000000000, 0.000000000000000000 ) ) ;
#256 = DIRECTION ( 'NONE',  ( -0.000000000000000000, -1.000000000000000000, -0.000000000000000000 ) ) ;
#257 = ORIENTED_EDGE ( 'NONE', *, *, #54, .F. ) ;
#258 = CYLINDRICAL_SURFACE ( 'NONE', #106, 35.00000000000000711 ) ;
#259 = DIRECTION ( 'NONE',  ( -0.000000000000000000, -1.000000000000000000, -0.000000000000000000 ) ) ;
#260 = CYLINDRICAL_SURFACE ( 'NONE', #204, 2.199999999999989964 ) ;
#261 = ORIENTED_EDGE ( 'NONE', *, *, #122, .F. ) ;
#262 = FACE_BOUND ( 'NONE', #471, .T. ) ;
#263 = VECTOR ( 'NONE', #195, 1000.000000000000000 ) ;
#264 = CARTESIAN_POINT ( 'NONE',  ( 0.000000000000000000, 3.899999999999999911, -41.04000000000000625 ) ) ;
#265 = EDGE_CURVE ( 'NONE', #560, #277, #492, .T. ) ;
#266 = ORIENTED_EDGE ( 'NONE', *, *, #242, .F. ) ;
#267 = AXIS2_PLACEMENT_3D ( 'NONE', #135, #79, #465 ) ;
#268 = DIRECTION ( 'NONE',  ( 0.000000000000000000, 1.000000000000000000, 0.000000000000000000 ) ) ;
#269 = APPLICATION_CONTEXT ( 'automotive_design' ) ;
#270 = CARTESIAN_POINT ( 'NONE',  ( 38.97114317029973307, 0.000000000000000000, -22.50000000000001421 ) ) ;
#271 = VERTEX_POINT ( 'NONE', #322 ) ;
#272 = DIRECTION ( 'NONE',  ( 0.000000000000000000, 0.000000000000000000, 1.000000000000000000 ) ) ;
#273 = DIRECTION ( 'NONE',  ( -0.000000000000000000, 1.000000000000000000, -0.000000000000000000 ) ) ;
#274 = ORIENTED_EDGE ( 'NONE', *, *, #627, .F. ) ;
#275 = PRESENTATION_STYLE_ASSIGNMENT (( #282 ) ) ;
#276 = PRODUCT_DEFINITION ( 'æ™', '', #193, #222 ) ;
#277 = VERTEX_POINT ( 'NONE', #541 ) ;
#278 = CIRCLE ( 'NONE', #301, 41.04000000000000625 ) ;
#279 = FACE_BOUND ( 'NONE', #398, .T. ) ;
#280 = AXIS2_PLACEMENT_3D ( 'NONE', #459, #190, #682 ) ;
#281 = VERTEX_POINT ( 'NONE', #489 ) ;
#282 = SURFACE_STYLE_USAGE ( .BOTH. , #117 ) ;
#283 = DIRECTION ( 'NONE',  ( 0.000000000000000000, 0.000000000000000000, 1.000000000000000000 ) ) ;
#284 = EDGE_LOOP ( 'NONE', ( #13, #217 ) ) ;
#285 = EDGE_CURVE ( 'NONE', #688, #428, #655, .T. ) ;
#286 = LINE ( 'NONE', #335, #391 ) ;
#287 = CIRCLE ( 'NONE', #382, 2.200000000000000622 ) ;
#288 = ORIENTED_EDGE ( 'NONE', *, *, #384, .T. ) ;
#289 = ADVANCED_FACE ( 'NONE', ( #279, #328 ), #9, .T. ) ;
#290 = CIRCLE ( 'NONE', #571, 41.04000000000000625 ) ;
#291 = CYLINDRICAL_SURFACE ( 'NONE', #405, 2.200000000000000622 ) ;
#292 = CIRCLE ( 'NONE', #545, 2.200000000000000622 ) ;
#293 = VECTOR ( 'NONE', #251, 1000.000000000000000 ) ;
#294 = ORIENTED_EDGE ( 'NONE', *, *, #350, .T. ) ;
#295 = CARTESIAN_POINT ( 'NONE',  ( 0.000000000000000000, -6.222539674441621038, -45.00000000000000000 ) ) ;
#296 = EDGE_CURVE ( 'NONE', #375, #121, #162, .T. ) ;
#297 = ORIENTED_EDGE ( 'NONE', *, *, #43, .T. ) ;
#298 = AXIS2_PLACEMENT_3D ( 'NONE', #295, #361, #467 ) ;
#299 = CYLINDRICAL_SURFACE ( 'NONE', #540, 2.200000000000000622 ) ;
#300 = ORIENTED_EDGE ( 'NONE', *, *, #519, .T. ) ;
#301 = AXIS2_PLACEMENT_3D ( 'NONE', #124, #395, #494 ) ;
#302 = CYLINDRICAL_SURFACE ( 'NONE', #599, 41.04000000000000625 ) ;
#303 = CIRCLE ( 'NONE', #718, 2.199999999999989964 ) ;
#304 = EDGE_LOOP ( 'NONE', ( #533, #20 ) ) ;
#305 = EDGE_CURVE ( 'NONE', #496, #225, #696, .T. ) ;
#306 = DIRECTION ( 'NONE',  ( 0.000000000000000000, 0.000000000000000000, 1.000000000000000000 ) ) ;
#307 = DIRECTION ( 'NONE',  ( -0.000000000000000000, 1.000000000000000000, -0.000000000000000000 ) ) ;
#308 = ORIENTED_EDGE ( 'NONE', *, *, #54, .T. ) ;
#309 = CARTESIAN_POINT ( 'NONE',  ( 0.000000000000000000, 3.899999999999999911, 0.000000000000000000 ) ) ;
#310 = EDGE_CURVE ( 'NONE', #653, #194, #126, .T. ) ;
#311 = CARTESIAN_POINT ( 'NONE',  ( 2.694222958124177006E-16, -6.222539674441621038, -47.19999999999999574 ) ) ;
#312 = ORIENTED_EDGE ( 'NONE', *, *, #76, .F. ) ;
#313 = DIRECTION ( 'NONE',  ( 0.000000000000000000, 0.000000000000000000, 1.000000000000000000 ) ) ;
#314 = CARTESIAN_POINT ( 'NONE',  ( -38.97114317029973307, -6.222539674441621038, 22.50000000000002132 ) ) ;
#315 = VERTEX_POINT ( 'NONE', #561 ) ;
#316 = CARTESIAN_POINT ( 'NONE',  ( 0.000000000000000000, 0.9000000000000000222, 0.000000000000000000 ) ) ;
#317 = EDGE_CURVE ( 'NONE', #10, #428, #35, .T. ) ;
#318 = LINE ( 'NONE', #311, #605 ) ;
#319 = ORIENTED_EDGE ( 'NONE', *, *, #250, .F. ) ;
#320 = CARTESIAN_POINT ( 'NONE',  ( 6.000769315822030937E-15, 0.000000000000000000, 49.00000000000000000 ) ) ;
#321 = CIRCLE ( 'NONE', #345, 41.04000000000000625 ) ;
#322 = CARTESIAN_POINT ( 'NONE',  ( 6.000769315822030937E-15, 3.899999999999999911, 49.00000000000000000 ) ) ;
#323 = EDGE_LOOP ( 'NONE', ( #66, #312 ) ) ;
#324 = DIRECTION ( 'NONE',  ( 0.000000000000000000, 0.000000000000000000, 1.000000000000000000 ) ) ;
#325 = ORIENTED_EDGE ( 'NONE', *, *, #4, .F. ) ;
#326 = CARTESIAN_POINT ( 'NONE',  ( -38.97114317029975439, 0.000000000000000000, -22.49999999999996803 ) ) ;
#327 = CIRCLE ( 'NONE', #420, 2.200000000000000622 ) ;
#328 = FACE_OUTER_BOUND ( 'NONE', #59, .T. ) ;
#329 = ORIENTED_EDGE ( 'NONE', *, *, #701, .T. ) ;
#330 = FILL_AREA_STYLE_COLOUR ( '', #462 ) ;
#331 = EDGE_CURVE ( 'NONE', #456, #548, #524, .T. ) ;
#332 = AXIS2_PLACEMENT_3D ( 'NONE', #522, #26, #138 ) ;
#333 = DIRECTION ( 'NONE',  ( 0.000000000000000000, 0.000000000000000000, 1.000000000000000000 ) ) ;
#334 = ORIENTED_EDGE ( 'NONE', *, *, #615, .T. ) ;
#335 = CARTESIAN_POINT ( 'NONE',  ( 5.637851296924623057E-15, -6.222539674441621038, 47.19999999999999574 ) ) ;
#336 = FACE_BOUND ( 'NONE', #544, .T. ) ;
#337 = CIRCLE ( 'NONE', #177, 2.200000000000000622 ) ;
#338 = EDGE_CURVE ( 'NONE', #123, #10, #230, .T. ) ;
#339 = CARTESIAN_POINT ( 'NONE',  ( 4.286263797015737285E-15, 0.9000000000000000222, 35.00000000000000711 ) ) ;
#340 = ORIENTED_EDGE ( 'NONE', *, *, #216, .T. ) ;
#341 = FACE_BOUND ( 'NONE', #424, .T. ) ;
#342 = FACE_BOUND ( 'NONE', #354, .T. ) ;
#343 = EDGE_LOOP ( 'NONE', ( #266, #214 ) ) ;
#344 =( NAMED_UNIT ( * ) SI_UNIT ( $, .STERADIAN. ) SOLID_ANGLE_UNIT ( ) );
#345 = AXIS2_PLACEMENT_3D ( 'NONE', #397, #166, #58 ) ;
#346 = EDGE_LOOP ( 'NONE', ( #202, #661, #719, #722 ) ) ;
#347 = FACE_BOUND ( 'NONE', #389, .T. ) ;
#348 = ORIENTED_EDGE ( 'NONE', *, *, #430, .T. ) ;
#349 = CYLINDRICAL_SURFACE ( 'NONE', #482, 2.199999999999989964 ) ;
#350 = EDGE_CURVE ( 'NONE', #33, #281, #568, .T. ) ;
#351 = ORIENTED_EDGE ( 'NONE', *, *, #444, .T. ) ;
#352 = DIRECTION ( 'NONE',  ( 0.000000000000000000, 0.000000000000000000, 1.000000000000000000 ) ) ;
#353 = DIRECTION ( 'NONE',  ( 0.000000000000000000, 0.000000000000000000, 1.000000000000000000 ) ) ;
#354 = EDGE_LOOP ( 'NONE', ( #149, #592 ) ) ;
#355 = VECTOR ( 'NONE', #630, 1000.000000000000000 ) ;
#356 = FACE_OUTER_BOUND ( 'NONE', #96, .T. ) ;
#357 = CIRCLE ( 'NONE', #634, 2.200000000000000622 ) ;
#358 = EDGE_CURVE ( 'NONE', #548, #456, #22, .T. ) ;
#359 = VERTEX_POINT ( 'NONE', #697 ) ;
#360 = EDGE_CURVE ( 'NONE', #428, #10, #426, .T. ) ;
#361 = DIRECTION ( 'NONE',  ( -0.000000000000000000, 1.000000000000000000, -0.000000000000000000 ) ) ;
#362 = CARTESIAN_POINT ( 'NONE',  ( -38.97114317029975439, -6.222539674441621038, -24.69999999999995666 ) ) ;
#363 = ORIENTED_EDGE ( 'NONE', *, *, #139, .T. ) ;
#364 = DIRECTION ( 'NONE',  ( 0.000000000000000000, 1.000000000000000000, 0.000000000000000000 ) ) ;
#365 = LINE ( 'NONE', #36, #550 ) ;
#366 = CARTESIAN_POINT ( 'NONE',  ( 0.000000000000000000, 3.899999999999999911, 0.000000000000000000 ) ) ;
#367 = EDGE_LOOP ( 'NONE', ( #274, #466 ) ) ;
#368 = DIRECTION ( 'NONE',  ( -0.000000000000000000, 1.000000000000000000, -0.000000000000000000 ) ) ;
#369 = CARTESIAN_POINT ( 'NONE',  ( -38.97114317029973307, 3.899999999999999911, 22.50000000000002132 ) ) ;
#370 = VERTEX_POINT ( 'NONE', #536 ) ;
#371 = DIRECTION ( 'NONE',  ( 0.000000000000000000, 0.000000000000000000, 1.000000000000000000 ) ) ;
#372 = AXIS2_PLACEMENT_3D ( 'NONE', #636, #698, #48 ) ;
#373 = EDGE_CURVE ( 'NONE', #167, #564, #365, .T. ) ;
#374 = DIRECTION ( 'NONE',  ( -0.000000000000000000, -1.000000000000000000, -0.000000000000000000 ) ) ;
#375 = VERTEX_POINT ( 'NONE', #709 ) ;
#376 = DIRECTION ( 'NONE',  ( -0.000000000000000000, 1.000000000000000000, -0.000000000000000000 ) ) ;
#377 = ADVANCED_FACE ( 'NONE', ( #702, #47, #715, #336, #342, #504, #448, #347 ), #125, .F. ) ;
#378 = AXIS2_PLACEMENT_3D ( 'NONE', #183, #128, #60 ) ;
#379 = DIRECTION ( 'NONE',  ( 0.000000000000000000, 0.000000000000000000, 1.000000000000000000 ) ) ;
#380 = EDGE_LOOP ( 'NONE', ( #244, #406, #145, #223 ) ) ;
#381 = DIRECTION ( 'NONE',  ( 0.000000000000000000, 0.000000000000000000, 1.000000000000000000 ) ) ;
#382 = AXIS2_PLACEMENT_3D ( 'NONE', #270, #119, #333 ) ;
#383 = CYLINDRICAL_SURFACE ( 'NONE', #597, 2.200000000000000622 ) ;
#384 = EDGE_CURVE ( 'NONE', #359, #38, #245, .T. ) ;
#385 = ORIENTED_EDGE ( 'NONE', *, *, #317, .T. ) ;
#386 = CIRCLE ( 'NONE', #483, 35.00000000000000711 ) ;
#387 = LINE ( 'NONE', #39, #685 ) ;
#388 = DIRECTION ( 'NONE',  ( -0.000000000000000000, 1.000000000000000000, -0.000000000000000000 ) ) ;
#389 = EDGE_LOOP ( 'NONE', ( #554, #525 ) ) ;
#390 = DIRECTION ( 'NONE',  ( 0.000000000000000000, 1.000000000000000000, 0.000000000000000000 ) ) ;
#391 = VECTOR ( 'NONE', #549, 1000.000000000000000 ) ;
#392 = ORIENTED_EDGE ( 'NONE', *, *, #373, .F. ) ;
#393 = CIRCLE ( 'NONE', #332, 2.200000000000000622 ) ;
#394 = ORIENTED_EDGE ( 'NONE', *, *, #449, .F. ) ;
#395 = DIRECTION ( 'NONE',  ( 0.000000000000000000, 1.000000000000000000, 0.000000000000000000 ) ) ;
#396 = AXIS2_PLACEMENT_3D ( 'NONE', #226, #390, #113 ) ;
#397 = CARTESIAN_POINT ( 'NONE',  ( 0.000000000000000000, 3.899999999999999911, 0.000000000000000000 ) ) ;
#398 = EDGE_LOOP ( 'NONE', ( #89, #569 ) ) ;
#399 = ORIENTED_EDGE ( 'NONE', *, *, #360, .F. ) ;
#400 = PRODUCT_CONTEXT ( 'NONE', #269, 'mechanical' ) ;
#401 = CYLINDRICAL_SURFACE ( 'NONE', #280, 2.200000000000000622 ) ;
#402 = EDGE_CURVE ( 'NONE', #104, #359, #174, .T. ) ;
#403 = DIRECTION ( 'NONE',  ( 0.000000000000000000, -0.000000000000000000, 1.000000000000000000 ) ) ;
#404 = DIRECTION ( 'NONE',  ( 0.000000000000000000, 1.000000000000000000, 0.000000000000000000 ) ) ;
#405 = AXIS2_PLACEMENT_3D ( 'NONE', #625, #463, #509 ) ;
#406 = ORIENTED_EDGE ( 'NONE', *, *, #254, .T. ) ;
#407 = CYLINDRICAL_SURFACE ( 'NONE', #51, 2.200000000000000622 ) ;
#408 = ORIENTED_EDGE ( 'NONE', *, *, #444, .F. ) ;
#409 = CYLINDRICAL_SURFACE ( 'NONE', #267, 35.00000000000000711 ) ;
#410 = ORIENTED_EDGE ( 'NONE', *, *, #76, .T. ) ;
#411 = AXIS2_PLACEMENT_3D ( 'NONE', #476, #706, #205 ) ;
#412 = CARTESIAN_POINT ( 'NONE',  ( 0.000000000000000000, 0.9000000000000000222, -35.00000000000000711 ) ) ;
#413 = APPLICATION_CONTEXT ( 'automotive_design' ) ;
#414 = EDGE_CURVE ( 'NONE', #548, #421, #566, .T. ) ;
#415 = DIRECTION ( 'NONE',  ( -0.000000000000000000, 1.000000000000000000, -0.000000000000000000 ) ) ;
#416 = EDGE_LOOP ( 'NONE', ( #228, #480, #410, #182 ) ) ;
#417 = CARTESIAN_POINT ( 'NONE',  ( -38.97114317029975439, -6.222539674441621038, -22.49999999999996803 ) ) ;
#418 = CARTESIAN_POINT ( 'NONE',  ( 38.97114317029974728, 0.000000000000000000, 22.49999999999999289 ) ) ;
#419 = AXIS2_PLACEMENT_3D ( 'NONE', #369, #423, #213 ) ;
#420 = AXIS2_PLACEMENT_3D ( 'NONE', #473, #256, #703 ) ;
#421 = VERTEX_POINT ( 'NONE', #142 ) ;
#422 = DIRECTION ( 'NONE',  ( 0.000000000000000000, 0.000000000000000000, 1.000000000000000000 ) ) ;
#423 = DIRECTION ( 'NONE',  ( 0.000000000000000000, 1.000000000000000000, 0.000000000000000000 ) ) ;
#424 = EDGE_LOOP ( 'NONE', ( #538, #445 ) ) ;
#425 = FACE_OUTER_BOUND ( 'NONE', #416, .T. ) ;
#426 = CIRCLE ( 'NONE', #151, 2.200000000000000622 ) ;
#427 = FACE_OUTER_BOUND ( 'NONE', #562, .T. ) ;
#428 = VERTEX_POINT ( 'NONE', #188 ) ;
#429 = FACE_BOUND ( 'NONE', #284, .T. ) ;
#430 = EDGE_CURVE ( 'NONE', #359, #104, #393, .T. ) ;
#431 = CIRCLE ( 'NONE', #155, 35.00000000000000711 ) ;
#432 = CARTESIAN_POINT ( 'NONE',  ( 0.000000000000000000, 3.899999999999999911, -42.79999999999999716 ) ) ;
#433 = ORIENTED_EDGE ( 'NONE', *, *, #338, .T. ) ;
#434 = DIRECTION ( 'NONE',  ( 0.000000000000000000, 0.000000000000000000, 1.000000000000000000 ) ) ;
#435 = EDGE_LOOP ( 'NONE', ( #325, #153, #109, #542 ) ) ;
#436 = CYLINDRICAL_SURFACE ( 'NONE', #27, 2.199999999999989964 ) ;
#437 = AXIS2_PLACEMENT_3D ( 'NONE', #81, #404, #15 ) ;
#438 = CARTESIAN_POINT ( 'NONE',  ( 5.637851296924623057E-15, 3.899999999999999911, 45.00000000000000000 ) ) ;
#439 = EDGE_LOOP ( 'NONE', ( #6, #231, #551, #52 ) ) ;
#440 = PLANE ( 'NONE',  #396 ) ;
#441 = CARTESIAN_POINT ( 'NONE',  ( 0.000000000000000000, 0.000000000000000000, -35.00000000000000711 ) ) ;
#442 = VERTEX_POINT ( 'NONE', #132 ) ;
#443 = VERTEX_POINT ( 'NONE', #570 ) ;
#444 = EDGE_CURVE ( 'NONE', #370, #225, #21, .T. ) ;
#445 = ORIENTED_EDGE ( 'NONE', *, *, #254, .F. ) ;
#446 = SHAPE_DEFINITION_REPRESENTATION ( #535, #576 ) ;
#447 = CIRCLE ( 'NONE', #198, 2.200000000000000622 ) ;
#448 = FACE_OUTER_BOUND ( 'NONE', #511, .T. ) ;
#449 = EDGE_CURVE ( 'NONE', #646, #442, #199, .T. ) ;
#450 = DIRECTION ( 'NONE',  ( -0.000000000000000000, 1.000000000000000000, -0.000000000000000000 ) ) ;
#451 = DIRECTION ( 'NONE',  ( 0.000000000000000000, 0.000000000000000000, 1.000000000000000000 ) ) ;
#452 = APPLICATION_PROTOCOL_DEFINITION ( 'draft international standard', 'automotive_design', 1998, #413 ) ;
#453 = CARTESIAN_POINT ( 'NONE',  ( 0.000000000000000000, 0.000000000000000000, 0.000000000000000000 ) ) ;
#454 = EDGE_CURVE ( 'NONE', #225, #496, #610, .T. ) ;
#455 = DIRECTION ( 'NONE',  ( 0.000000000000000000, 1.000000000000000000, 0.000000000000000000 ) ) ;
#456 = VERTEX_POINT ( 'NONE', #243 ) ;
#457 = DIRECTION ( 'NONE',  ( 0.000000000000000000, 0.000000000000000000, 1.000000000000000000 ) ) ;
#458 = AXIS2_PLACEMENT_3D ( 'NONE', #513, #23, #28 ) ;
#459 = CARTESIAN_POINT ( 'NONE',  ( 0.000000000000000000, -6.222539674441621038, -45.00000000000000000 ) ) ;
#460 = CARTESIAN_POINT ( 'NONE',  ( -38.97114317029975439, -6.222539674441621038, -22.49999999999996803 ) ) ;
#461 = CARTESIAN_POINT ( 'NONE',  ( 38.97114317029974728, -6.222539674441621038, 24.69999999999999218 ) ) ;
#462 = COLOUR_RGB ( '',0.7921568627450980005, 0.8196078431372548767, 0.9333333333333333481 ) ;
#463 = DIRECTION ( 'NONE',  ( -0.000000000000000000, 1.000000000000000000, -0.000000000000000000 ) ) ;
#464 = ADVANCED_FACE ( 'NONE', ( #356 ), #349, .F. ) ;
#465 = DIRECTION ( 'NONE',  ( 0.000000000000000000, 0.000000000000000000, -1.000000000000000000 ) ) ;
#466 = ORIENTED_EDGE ( 'NONE', *, *, #108, .F. ) ;
#467 = DIRECTION ( 'NONE',  ( 0.000000000000000000, 0.000000000000000000, 1.000000000000000000 ) ) ;
#468 = PRODUCT_RELATED_PRODUCT_CATEGORY ( 'part', '', ( #690 ) ) ;
#469 = CARTESIAN_POINT ( 'NONE',  ( 38.97114317029973307, -6.222539674441621038, -24.70000000000001350 ) ) ;
#470 = AXIS2_PLACEMENT_3D ( 'NONE', #665, #611, #64 ) ;
#471 = EDGE_LOOP ( 'NONE', ( #671, #490 ) ) ;
#472 = CARTESIAN_POINT ( 'NONE',  ( 0.000000000000000000, 0.9000000000000000222, -49.00000000000000000 ) ) ;
#473 = CARTESIAN_POINT ( 'NONE',  ( 38.97114317029974728, 0.000000000000000000, 22.49999999999999289 ) ) ;
#474 = ORIENTED_EDGE ( 'NONE', *, *, #651, .T. ) ;
#475 = CYLINDRICAL_SURFACE ( 'NONE', #716, 49.00000000000000000 ) ;
#476 = CARTESIAN_POINT ( 'NONE',  ( 38.97114317029973307, 3.899999999999999911, -22.50000000000001421 ) ) ;
#477 = ORIENTED_EDGE ( 'NONE', *, *, #139, .F. ) ;
#478 = CARTESIAN_POINT ( 'NONE',  ( 38.97114317029973307, 0.000000000000000000, -20.30000000000001137 ) ) ;
#479 = DIRECTION ( 'NONE',  ( 0.000000000000000000, 0.000000000000000000, 1.000000000000000000 ) ) ;
#480 = ORIENTED_EDGE ( 'NONE', *, *, #250, .T. ) ;
#481 = CARTESIAN_POINT ( 'NONE',  ( 5.637851296924623057E-15, -6.222539674441621038, 45.00000000000000000 ) ) ;
#482 = AXIS2_PLACEMENT_3D ( 'NONE', #417, #186, #84 ) ;
#483 = AXIS2_PLACEMENT_3D ( 'NONE', #316, #491, #371 ) ;
#484 = CARTESIAN_POINT ( 'NONE',  ( -38.97114317029975439, 3.899999999999999911, -20.29999999999997939 ) ) ;
#485 = ORIENTED_EDGE ( 'NONE', *, *, #108, .T. ) ;
#486 = DIRECTION ( 'NONE',  ( 0.000000000000000000, 1.000000000000000000, 0.000000000000000000 ) ) ;
#487 = PRESENTATION_LAYER_ASSIGNMENT (  '', '', ( #552 ) ) ;
#488 = ADVANCED_FACE ( 'NONE', ( #563 ), #516, .F. ) ;
#489 = CARTESIAN_POINT ( 'NONE',  ( -38.97114317029975439, 3.899999999999999911, -24.69999999999995666 ) ) ;
#490 = ORIENTED_EDGE ( 'NONE', *, *, #296, .F. ) ;
#491 = DIRECTION ( 'NONE',  ( 0.000000000000000000, 1.000000000000000000, 0.000000000000000000 ) ) ;
#492 = LINE ( 'NONE', #5, #196 ) ;
#493 = ORIENTED_EDGE ( 'NONE', *, *, #641, .T. ) ;
#494 = DIRECTION ( 'NONE',  ( 0.000000000000000000, 0.000000000000000000, 1.000000000000000000 ) ) ;
#495 = CARTESIAN_POINT ( 'NONE',  ( 0.000000000000000000, 0.9000000000000000222, 0.000000000000000000 ) ) ;
#496 = VERTEX_POINT ( 'NONE', #581 ) ;
#497 =( LENGTH_UNIT ( ) NAMED_UNIT ( * ) SI_UNIT ( .MILLI., .METRE. ) );
#498 = ADVANCED_FACE ( 'NONE', ( #34 ), #409, .F. ) ;
#499 = ORIENTED_EDGE ( 'NONE', *, *, #641, .F. ) ;
#500 =( LENGTH_UNIT ( ) NAMED_UNIT ( * ) SI_UNIT ( .MILLI., .METRE. ) );
#501 = LINE ( 'NONE', #176, #129 ) ;
#502 = ADVANCED_FACE ( 'NONE', ( #512 ), #302, .F. ) ;
#503 = ORIENTED_EDGE ( 'NONE', *, *, #11, .T. ) ;
#504 = FACE_BOUND ( 'NONE', #612, .T. ) ;
#505 = CIRCLE ( 'NONE', #622, 49.00000000000000000 ) ;
#506 = CARTESIAN_POINT ( 'NONE',  ( 5.025950463700738464E-15, 3.899999999999999911, 41.04000000000000625 ) ) ;
#507 = ORIENTED_EDGE ( 'NONE', *, *, #4, .T. ) ;
#508 = CIRCLE ( 'NONE', #71, 49.00000000000000000 ) ;
#509 = DIRECTION ( 'NONE',  ( 0.000000000000000000, 0.000000000000000000, 1.000000000000000000 ) ) ;
#510 = CIRCLE ( 'NONE', #546, 49.00000000000000000 ) ;
#511 = EDGE_LOOP ( 'NONE', ( #163, #261 ) ) ;
#512 = FACE_OUTER_BOUND ( 'NONE', #380, .T. ) ;
#513 = CARTESIAN_POINT ( 'NONE',  ( -38.97114317029973307, 0.000000000000000000, 22.50000000000002132 ) ) ;
#514 = VECTOR ( 'NONE', #624, 1000.000000000000000 ) ;
#515 = EDGE_LOOP ( 'NONE', ( #207, #340, #707, #137 ) ) ;
#516 = CYLINDRICAL_SURFACE ( 'NONE', #298, 2.200000000000000622 ) ;
#517 = VECTOR ( 'NONE', #708, 1000.000000000000000 ) ;
#518 = ORIENTED_EDGE ( 'NONE', *, *, #651, .F. ) ;
#519 = EDGE_CURVE ( 'NONE', #121, #375, #357, .T. ) ;
#520 = CARTESIAN_POINT ( 'NONE',  ( 5.637851296924623057E-15, 0.000000000000000000, 45.00000000000000000 ) ) ;
#521 = DIRECTION ( 'NONE',  ( 0.000000000000000000, 0.000000000000000000, 1.000000000000000000 ) ) ;
#522 = CARTESIAN_POINT ( 'NONE',  ( 5.637851296924623057E-15, 0.000000000000000000, 45.00000000000000000 ) ) ;
#523 = DIRECTION ( 'NONE',  ( -0.000000000000000000, -1.000000000000000000, -0.000000000000000000 ) ) ;
#524 = CIRCLE ( 'NONE', #458, 2.199999999999989964 ) ;
#525 = ORIENTED_EDGE ( 'NONE', *, *, #305, .T. ) ;
#526 = DIRECTION ( 'NONE',  ( -0.000000000000000000, 1.000000000000000000, -0.000000000000000000 ) ) ;
#527 = ADVANCED_FACE ( 'NONE', ( #689 ), #239, .F. ) ;
#528 = DIRECTION ( 'NONE',  ( 0.000000000000000000, 0.000000000000000000, 1.000000000000000000 ) ) ;
#529 = EDGE_LOOP ( 'NONE', ( #41, #485, #334, #300 ) ) ;
#530 = CARTESIAN_POINT ( 'NONE',  ( 0.000000000000000000, 0.000000000000000000, -42.79999999999999716 ) ) ;
#531 = DIRECTION ( 'NONE',  ( -0.000000000000000000, -1.000000000000000000, -0.000000000000000000 ) ) ;
#532 = CARTESIAN_POINT ( 'NONE',  ( 2.694222958124176513E-16, 0.000000000000000000, -47.19999999999999574 ) ) ;
#533 = ORIENTED_EDGE ( 'NONE', *, *, #358, .F. ) ;
#534 = DIRECTION ( 'NONE',  ( -0.000000000000000000, -1.000000000000000000, -0.000000000000000000 ) ) ;
#535 = PRODUCT_DEFINITION_SHAPE ( 'NONE', 'NONE',  #276 ) ;
#536 = CARTESIAN_POINT ( 'NONE',  ( 0.000000000000000000, 0.9000000000000000222, -35.00000000000000711 ) ) ;
#537 = CARTESIAN_POINT ( 'NONE',  ( 0.000000000000000000, 0.000000000000000000, 0.000000000000000000 ) ) ;
#538 = ORIENTED_EDGE ( 'NONE', *, *, #683, .F. ) ;
#539 = CARTESIAN_POINT ( 'NONE',  ( 0.000000000000000000, 0.000000000000000000, 0.000000000000000000 ) ) ;
#540 = AXIS2_PLACEMENT_3D ( 'NONE', #481, #368, #101 ) ;
#541 = CARTESIAN_POINT ( 'NONE',  ( 38.97114317029973307, 3.899999999999999911, -20.30000000000001137 ) ) ;
#542 = ORIENTED_EDGE ( 'NONE', *, *, #579, .T. ) ;
#543 = CARTESIAN_POINT ( 'NONE',  ( -38.97114317029975439, 3.899999999999999911, -22.49999999999996803 ) ) ;
#544 = EDGE_LOOP ( 'NONE', ( #74, #637 ) ) ;
#545 = AXIS2_PLACEMENT_3D ( 'NONE', #418, #523, #156 ) ;
#546 = AXIS2_PLACEMENT_3D ( 'NONE', #537, #591, #32 ) ;
#547 = DIRECTION ( 'NONE',  ( 0.000000000000000000, 0.000000000000000000, 1.000000000000000000 ) ) ;
#548 = VERTEX_POINT ( 'NONE', #684 ) ;
#549 = DIRECTION ( 'NONE',  ( -0.000000000000000000, 1.000000000000000000, -0.000000000000000000 ) ) ;
#550 = VECTOR ( 'NONE', #531, 1000.000000000000000 ) ;
#551 = ORIENTED_EDGE ( 'NONE', *, *, #296, .T. ) ;
#552 = STYLED_ITEM ( 'NONE', ( #275 ), #691 ) ;
#553 = ADVANCED_FACE ( 'NONE', ( #633 ), #407, .F. ) ;
#554 = ORIENTED_EDGE ( 'NONE', *, *, #454, .T. ) ;
#555 = FACE_OUTER_BOUND ( 'NONE', #608, .T. ) ;
#556 = ORIENTED_EDGE ( 'NONE', *, *, #43, .F. ) ;
#557 = ADVANCED_FACE ( 'NONE', ( #191 ), #299, .F. ) ;
#558 = CARTESIAN_POINT ( 'NONE',  ( -38.97114317029975439, -6.222539674441621038, -20.29999999999997939 ) ) ;
#559 = AXIS2_PLACEMENT_3D ( 'NONE', #224, #687, #240 ) ;
#560 = VERTEX_POINT ( 'NONE', #478 ) ;
#561 = CARTESIAN_POINT ( 'NONE',  ( -38.97114317029975439, 0.000000000000000000, -20.29999999999997939 ) ) ;
#562 = EDGE_LOOP ( 'NONE', ( #319, #623, #656, #503 ) ) ;
#563 = FACE_OUTER_BOUND ( 'NONE', #439, .T. ) ;
#564 = VERTEX_POINT ( 'NONE', #593 ) ;
#565 = ORIENTED_EDGE ( 'NONE', *, *, #430, .F. ) ;
#566 = LINE ( 'NONE', #86, #355 ) ;
#567 = ADVANCED_FACE ( 'NONE', ( #598 ), #258, .F. ) ;
#568 = CIRCLE ( 'NONE', #711, 2.199999999999989964 ) ;
#569 = ORIENTED_EDGE ( 'NONE', *, *, #595, .F. ) ;
#570 = CARTESIAN_POINT ( 'NONE',  ( 38.97114317029973307, 0.000000000000000000, -24.70000000000001350 ) ) ;
#571 = AXIS2_PLACEMENT_3D ( 'NONE', #150, #203, #272 ) ;
#572 = DIRECTION ( 'NONE',  ( 0.000000000000000000, 0.000000000000000000, 1.000000000000000000 ) ) ;
#573 = MECHANICAL_DESIGN_GEOMETRIC_PRESENTATION_REPRESENTATION (  '', ( #552 ), #120 ) ;
#574 = DIRECTION ( 'NONE',  ( 0.000000000000000000, 1.000000000000000000, 0.000000000000000000 ) ) ;
#575 = CARTESIAN_POINT ( 'NONE',  ( 5.637851296924623057E-15, -6.222539674441621038, 45.00000000000000000 ) ) ;
#576 = ADVANCED_BREP_SHAPE_REPRESENTATION ( 'CNC-DM8009\X2\57ab7247\X0\A', ( #691, #378 ), #692 ) ;
#577 = CIRCLE ( 'NONE', #419, 2.199999999999989964 ) ;
#578 = CARTESIAN_POINT ( 'NONE',  ( 38.97114317029974728, -6.222539674441621038, 22.49999999999999289 ) ) ;
#579 = EDGE_CURVE ( 'NONE', #442, #588, #508, .T. ) ;
#580 = ORIENTED_EDGE ( 'NONE', *, *, #200, .T. ) ;
#581 = CARTESIAN_POINT ( 'NONE',  ( 4.286263797015737285E-15, 0.000000000000000000, 35.00000000000000711 ) ) ;
#582 = EDGE_CURVE ( 'NONE', #564, #194, #290, .T. ) ;
#583 = CYLINDRICAL_SURFACE ( 'NONE', #619, 2.200000000000000622 ) ;
#584 = VERTEX_POINT ( 'NONE', #110 ) ;
#585 = CARTESIAN_POINT ( 'NONE',  ( 0.000000000000000000, 0.9000000000000000222, 0.000000000000000000 ) ) ;
#586 = EDGE_CURVE ( 'NONE', #315, #45, #165, .T. ) ;
#587 = DIRECTION ( 'NONE',  ( -0.000000000000000000, 1.000000000000000000, -0.000000000000000000 ) ) ;
#588 = VERTEX_POINT ( 'NONE', #320 ) ;
#589 = CARTESIAN_POINT ( 'NONE',  ( 38.97114317029973307, 0.000000000000000000, -22.50000000000001421 ) ) ;
#590 = EDGE_CURVE ( 'NONE', #194, #564, #700, .T. ) ;
#591 = DIRECTION ( 'NONE',  ( 0.000000000000000000, 1.000000000000000000, 0.000000000000000000 ) ) ;
#592 = ORIENTED_EDGE ( 'NONE', *, *, #82, .F. ) ;
#593 = CARTESIAN_POINT ( 'NONE',  ( 0.000000000000000000, 0.9000000000000000222, -41.04000000000000625 ) ) ;
#594 = CARTESIAN_POINT ( 'NONE',  ( -38.97114317029975439, 0.000000000000000000, -24.69999999999995666 ) ) ;
#595 = EDGE_CURVE ( 'NONE', #220, #370, #386, .T. ) ;
#596 = ORIENTED_EDGE ( 'NONE', *, *, #265, .F. ) ;
#597 = AXIS2_PLACEMENT_3D ( 'NONE', #107, #602, #669 ) ;
#598 = FACE_OUTER_BOUND ( 'NONE', #157, .T. ) ;
#599 = AXIS2_PLACEMENT_3D ( 'NONE', #309, #638, #31 ) ;
#600 = ORIENTED_EDGE ( 'NONE', *, *, #242, .T. ) ;
#601 = FACE_OUTER_BOUND ( 'NONE', #632, .T. ) ;
#602 = DIRECTION ( 'NONE',  ( -0.000000000000000000, 1.000000000000000000, -0.000000000000000000 ) ) ;
#603 = EDGE_LOOP ( 'NONE', ( #477, #297, #2, #294 ) ) ;
#604 = VECTOR ( 'NONE', #98, 1000.000000000000000 ) ;
#605 = VECTOR ( 'NONE', #587, 1000.000000000000000 ) ;
#606 = EDGE_CURVE ( 'NONE', #277, #185, #447, .T. ) ;
#607 = DIRECTION ( 'NONE',  ( 0.000000000000000000, -0.000000000000000000, 1.000000000000000000 ) ) ;
#608 = EDGE_LOOP ( 'NONE', ( #580, #308 ) ) ;
#609 =( NAMED_UNIT ( * ) SI_UNIT ( $, .STERADIAN. ) SOLID_ANGLE_UNIT ( ) );
#610 = CIRCLE ( 'NONE', #680, 35.00000000000000711 ) ;
#611 = DIRECTION ( 'NONE',  ( 0.000000000000000000, 1.000000000000000000, 0.000000000000000000 ) ) ;
#612 = EDGE_LOOP ( 'NONE', ( #666, #565 ) ) ;
#613 =( NAMED_UNIT ( * ) PLANE_ANGLE_UNIT ( ) SI_UNIT ( $, .RADIAN. ) );
#614 = CIRCLE ( 'NONE', #61, 2.200000000000000622 ) ;
#615 = EDGE_CURVE ( 'NONE', #649, #121, #387, .T. ) ;
#616 = CARTESIAN_POINT ( 'NONE',  ( 0.000000000000000000, 3.899999999999999911, 0.000000000000000000 ) ) ;
#617 = ORIENTED_EDGE ( 'NONE', *, *, #701, .F. ) ;
#618 = FACE_OUTER_BOUND ( 'NONE', #435, .T. ) ;
#619 = AXIS2_PLACEMENT_3D ( 'NONE', #197, #415, #640 ) ;
#620 = EDGE_LOOP ( 'NONE', ( #85, #399 ) ) ;
#621 = DIRECTION ( 'NONE',  ( -0.000000000000000000, -1.000000000000000000, -0.000000000000000000 ) ) ;
#622 = AXIS2_PLACEMENT_3D ( 'NONE', #616, #662, #547 ) ;
#623 = ORIENTED_EDGE ( 'NONE', *, *, #331, .T. ) ;
#624 = DIRECTION ( 'NONE',  ( -0.000000000000000000, -1.000000000000000000, -0.000000000000000000 ) ) ;
#625 = CARTESIAN_POINT ( 'NONE',  ( 38.97114317029974728, -6.222539674441621038, 22.49999999999999289 ) ) ;
#626 = DIRECTION ( 'NONE',  ( -0.000000000000000000, 1.000000000000000000, -0.000000000000000000 ) ) ;
#627 = EDGE_CURVE ( 'NONE', #649, #112, #337, .T. ) ;
#628 = VECTOR ( 'NONE', #171, 1000.000000000000000 ) ;
#629 = ORIENTED_EDGE ( 'NONE', *, *, #384, .F. ) ;
#630 = DIRECTION ( 'NONE',  ( -0.000000000000000000, 1.000000000000000000, -0.000000000000000000 ) ) ;
#631 = AXIS2_PLACEMENT_3D ( 'NONE', #438, #114, #283 ) ;
#632 = EDGE_LOOP ( 'NONE', ( #257, #507, #663, #394 ) ) ;
#633 = FACE_OUTER_BOUND ( 'NONE', #83, .T. ) ;
#634 = AXIS2_PLACEMENT_3D ( 'NONE', #694, #364, #90 ) ;
#635 = EDGE_CURVE ( 'NONE', #560, #443, #614, .T. ) ;
#636 = CARTESIAN_POINT ( 'NONE',  ( -38.97114317029975439, 0.000000000000000000, -22.49999999999996803 ) ) ;
#637 = ORIENTED_EDGE ( 'NONE', *, *, #216, .F. ) ;
#638 = DIRECTION ( 'NONE',  ( -0.000000000000000000, -1.000000000000000000, -0.000000000000000000 ) ) ;
#639 = CIRCLE ( 'NONE', #147, 2.200000000000000622 ) ;
#640 = DIRECTION ( 'NONE',  ( 0.000000000000000000, 0.000000000000000000, 1.000000000000000000 ) ) ;
#641 = EDGE_CURVE ( 'NONE', #281, #33, #673, .T. ) ;
#642 = ORIENTED_EDGE ( 'NONE', *, *, #582, .T. ) ;
#643 = DIRECTION ( 'NONE',  ( -0.000000000000000000, -1.000000000000000000, -0.000000000000000000 ) ) ;
#644 = CARTESIAN_POINT ( 'NONE',  ( 0.000000000000000000, 0.000000000000000000, -45.00000000000000000 ) ) ;
#645 = VECTOR ( 'NONE', #699, 1000.000000000000000 ) ;
#646 = VERTEX_POINT ( 'NONE', #161 ) ;
#647 = DIRECTION ( 'NONE',  ( 0.000000000000000000, 0.000000000000000000, 1.000000000000000000 ) ) ;
#648 = DIRECTION ( 'NONE',  ( 0.000000000000000000, 1.000000000000000000, 0.000000000000000000 ) ) ;
#649 = VERTEX_POINT ( 'NONE', #530 ) ;
#650 = FACE_BOUND ( 'NONE', #620, .T. ) ;
#651 = EDGE_CURVE ( 'NONE', #220, #496, #218, .T. ) ;
#652 = CARTESIAN_POINT ( 'NONE',  ( 5.907273592737040856E-15, 3.899999999999999911, 42.79999999999999716 ) ) ;
#653 = VERTEX_POINT ( 'NONE', #208 ) ;
#654 = CARTESIAN_POINT ( 'NONE',  ( 38.97114317029973307, 3.899999999999999911, -22.50000000000001421 ) ) ;
#655 = LINE ( 'NONE', #721, #219 ) ;
#656 = ORIENTED_EDGE ( 'NONE', *, *, #414, .T. ) ;
#657 = CIRCLE ( 'NONE', #470, 2.200000000000000622 ) ;
#658 = DIRECTION ( 'NONE',  ( -0.000000000000000000, 1.000000000000000000, -0.000000000000000000 ) ) ;
#659 = FACE_OUTER_BOUND ( 'NONE', #140, .T. ) ;
#660 = ADVANCED_FACE ( 'NONE', ( #425 ), #436, .F. ) ;
#661 = ORIENTED_EDGE ( 'NONE', *, *, #285, .T. ) ;
#662 = DIRECTION ( 'NONE',  ( 0.000000000000000000, 1.000000000000000000, 0.000000000000000000 ) ) ;
#663 = ORIENTED_EDGE ( 'NONE', *, *, #122, .T. ) ;
#664 = DIRECTION ( 'NONE',  ( 0.000000000000000000, 0.000000000000000000, -1.000000000000000000 ) ) ;
#665 = CARTESIAN_POINT ( 'NONE',  ( 5.637851296924623057E-15, 3.899999999999999911, 45.00000000000000000 ) ) ;
#666 = ORIENTED_EDGE ( 'NONE', *, *, #402, .F. ) ;
#667 = AXIS2_PLACEMENT_3D ( 'NONE', #520, #248, #306 ) ;
#668 = ADVANCED_FACE ( 'NONE', ( #601 ), #475, .T. ) ;
#669 = DIRECTION ( 'NONE',  ( 0.000000000000000000, 0.000000000000000000, 1.000000000000000000 ) ) ;
#670 = AXIS2_PLACEMENT_3D ( 'NONE', #705, #50, #434 ) ;
#671 = ORIENTED_EDGE ( 'NONE', *, *, #519, .F. ) ;
#672 = CARTESIAN_POINT ( 'NONE',  ( 0.000000000000000000, 0.9000000000000000222, 0.000000000000000000 ) ) ;
#673 = CIRCLE ( 'NONE', #212, 2.199999999999989964 ) ;
#674 = ADVANCED_FACE ( 'NONE', ( #262, #714, #211, #429, #650, #158, #555, #341 ), #440, .T. ) ;
#675 = ORIENTED_EDGE ( 'NONE', *, *, #305, .F. ) ;
#676 = UNCERTAINTY_MEASURE_WITH_UNIT (LENGTH_MEASURE( 1.000000000000000082E-05 ), #497, 'distance_accuracy_value', 'NONE');
#677 = DIRECTION ( 'NONE',  ( 0.000000000000000000, 0.000000000000000000, 1.000000000000000000 ) ) ;
#678 = DIRECTION ( 'NONE',  ( -0.000000000000000000, -1.000000000000000000, -0.000000000000000000 ) ) ;
#679 = CARTESIAN_POINT ( 'NONE',  ( 5.907273592737040856E-15, -6.222539674441621038, 42.79999999999999716 ) ) ;
#680 = AXIS2_PLACEMENT_3D ( 'NONE', #236, #146, #75 ) ;
#681 = DIRECTION ( 'NONE',  ( -0.000000000000000000, -1.000000000000000000, -0.000000000000000000 ) ) ;
#682 = DIRECTION ( 'NONE',  ( 0.000000000000000000, 0.000000000000000000, 1.000000000000000000 ) ) ;
#683 = EDGE_CURVE ( 'NONE', #167, #653, #278, .T. ) ;
#684 = CARTESIAN_POINT ( 'NONE',  ( -38.97114317029973307, 0.000000000000000000, 24.70000000000000995 ) ) ;
#685 = VECTOR ( 'NONE', #376, 1000.000000000000000 ) ;
#686 = CIRCLE ( 'NONE', #372, 2.199999999999989964 ) ;
#687 = DIRECTION ( 'NONE',  ( 0.000000000000000000, 1.000000000000000000, 0.000000000000000000 ) ) ;
#688 = VERTEX_POINT ( 'NONE', #221 ) ;
#689 = FACE_OUTER_BOUND ( 'NONE', #603, .T. ) ;
#690 = PRODUCT ( 'CNC-DM8009\X2\57ab7247\X0\A', 'CNC-DM8009\X2\57ab7247\X0\A', '', ( #400 ) ) ;
#691 = MANIFOLD_SOLID_BREP ( '\X2\52079664\X0\-\X2\62c94f38\X0\1', #63 ) ;
#692 =( GEOMETRIC_REPRESENTATION_CONTEXT ( 3 ) GLOBAL_UNCERTAINTY_ASSIGNED_CONTEXT ( ( #676 ) ) GLOBAL_UNIT_ASSIGNED_CONTEXT ( ( #497, #17, #609 ) ) REPRESENTATION_CONTEXT ( 'NONE', 'WORKASPACE' ) );
#693 = ORIENTED_EDGE ( 'NONE', *, *, #192, .T. ) ;
#694 = CARTESIAN_POINT ( 'NONE',  ( 0.000000000000000000, 3.899999999999999911, -45.00000000000000000 ) ) ;
#695 = ADVANCED_FACE ( 'NONE', ( #618 ), #3, .T. ) ;
#696 = CIRCLE ( 'NONE', #70, 35.00000000000000711 ) ;
#697 = CARTESIAN_POINT ( 'NONE',  ( 5.907273592737040856E-15, 0.000000000000000000, 42.79999999999999716 ) ) ;
#698 = DIRECTION ( 'NONE',  ( -0.000000000000000000, -1.000000000000000000, -0.000000000000000000 ) ) ;
#699 = DIRECTION ( 'NONE',  ( -0.000000000000000000, -1.000000000000000000, -0.000000000000000000 ) ) ;
#700 = CIRCLE ( 'NONE', #670, 41.04000000000000625 ) ;
#701 = EDGE_CURVE ( 'NONE', #104, #713, #286, .T. ) ;
#702 = FACE_BOUND ( 'NONE', #367, .T. ) ;
#703 = DIRECTION ( 'NONE',  ( 0.000000000000000000, 0.000000000000000000, 1.000000000000000000 ) ) ;
#704 = ORIENTED_EDGE ( 'NONE', *, *, #350, .F. ) ;
#705 = CARTESIAN_POINT ( 'NONE',  ( 0.000000000000000000, 0.9000000000000000222, 0.000000000000000000 ) ) ;
#706 = DIRECTION ( 'NONE',  ( 0.000000000000000000, 1.000000000000000000, 0.000000000000000000 ) ) ;
#707 = ORIENTED_EDGE ( 'NONE', *, *, #265, .T. ) ;
#708 = DIRECTION ( 'NONE',  ( -0.000000000000000000, -1.000000000000000000, -0.000000000000000000 ) ) ;
#709 = CARTESIAN_POINT ( 'NONE',  ( 2.694222958124176513E-16, 3.899999999999999911, -47.19999999999999574 ) ) ;
#710 = DIRECTION ( 'NONE',  ( -0.000000000000000000, 1.000000000000000000, -0.000000000000000000 ) ) ;
#711 = AXIS2_PLACEMENT_3D ( 'NONE', #189, #455, #677 ) ;
#712 = EDGE_CURVE ( 'NONE', #315, #33, #179, .T. ) ;
#713 = VERTEX_POINT ( 'NONE', #12 ) ;
#714 = FACE_BOUND ( 'NONE', #323, .T. ) ;
#715 = FACE_BOUND ( 'NONE', #160, .T. ) ;
#716 = AXIS2_PLACEMENT_3D ( 'NONE', #154, #534, #46 ) ;
#717 = FACE_OUTER_BOUND ( 'NONE', #237, .T. ) ;
#718 = AXIS2_PLACEMENT_3D ( 'NONE', #241, #574, #451 ) ;
#719 = ORIENTED_EDGE ( 'NONE', *, *, #360, .T. ) ;
#720 = DIRECTION ( 'NONE',  ( 0.000000000000000000, 0.000000000000000000, 1.000000000000000000 ) ) ;
#721 = CARTESIAN_POINT ( 'NONE',  ( 38.97114317029974728, -6.222539674441621038, 20.29999999999999005 ) ) ;
#722 = ORIENTED_EDGE ( 'NONE', *, *, #338, .F. ) ;
#723 = CARTESIAN_POINT ( 'NONE',  ( 0.000000000000000000, 0.000000000000000000, -45.00000000000000000 ) ) ;
ENDSEC;
END-ISO-10303-21;
