ISO-10303-21;
HEADER;
FILE_DESCRIPTION (( 'STEP AP214' ),
    '1' );
FILE_NAME ('CNC-÷Å¹Ø½ÚÉÏ°å.STEP',
    '2026-08-16T17:26:53',
    ( '' ),
    ( '' ),
    'SwSTEP 2.0',
    'SolidWorks 2025',
    '' );
FILE_SCHEMA (( 'AUTOMOTIVE_DESIGN' ));
ENDSEC;

DATA;
#1 = CARTESIAN_POINT ( 'NONE',  ( -8.000000000000000000, -19.00000000000001066, 2.000000000000000000 ) ) ;
#2 = AXIS2_PLACEMENT_3D ( 'NONE', #520, #818, #904 ) ;
#3 = ORIENTED_EDGE ( 'NONE', *, *, #170, .T. ) ;
#4 = DIRECTION ( 'NONE',  ( -1.084202172485504434E-16, 1.000000000000000000, 0.000000000000000000 ) ) ;
#5 = ORIENTED_EDGE ( 'NONE', *, *, #840, .F. ) ;
#6 = FACE_OUTER_BOUND ( 'NONE', #239, .T. ) ;
#7 = CARTESIAN_POINT ( 'NONE',  ( -11.00000000000000000, 7.999999999999996447, 0.000000000000000000 ) ) ;
#8 = LINE ( 'NONE', #128, #711 ) ;
#9 = EDGE_CURVE ( 'NONE', #21, #637, #782, .T. ) ;
#10 = ORIENTED_EDGE ( 'NONE', *, *, #486, .T. ) ;
#11 = CARTESIAN_POINT ( 'NONE',  ( 10.99999999999999822, 6.000000000000000000, 2.000000000000000000 ) ) ;
#12 = VERTEX_POINT ( 'NONE', #387 ) ;
#13 = FACE_BOUND ( 'NONE', #39, .T. ) ;
#14 = VECTOR ( 'NONE', #762, 1000.000000000000000 ) ;
#15 = AXIS2_PLACEMENT_3D ( 'NONE', #917, #1023, #632 ) ;
#16 = EDGE_CURVE ( 'NONE', #880, #157, #692, .T. ) ;
#17 = DIRECTION ( 'NONE',  ( 0.000000000000000000, -0.000000000000000000, -1.000000000000000000 ) ) ;
#18 = DIRECTION ( 'NONE',  ( -0.000000000000000000, -0.000000000000000000, 1.000000000000000000 ) ) ;
#19 = UNCERTAINTY_MEASURE_WITH_UNIT (LENGTH_MEASURE( 1.000000000000000082E-05 ), #246, 'distance_accuracy_value', 'NONE');
#20 = EDGE_CURVE ( 'NONE', #565, #1091, #534, .T. ) ;
#21 = VERTEX_POINT ( 'NONE', #589 ) ;
#22 = CARTESIAN_POINT ( 'NONE',  ( -6.749999999999998224, -25.00000000000000711, 0.000000000000000000 ) ) ;
#23 = ORIENTED_EDGE ( 'NONE', *, *, #846, .T. ) ;
#24 = ADVANCED_FACE ( 'NONE', ( #660 ), #375, .T. ) ;
#25 = CARTESIAN_POINT ( 'NONE',  ( 10.99999999999999822, 8.000000000000000000, 2.000000000000000000 ) ) ;
#26 = CARTESIAN_POINT ( 'NONE',  ( -9.000000000000003553, -5.000000000000000888, 2.000000000000000000 ) ) ;
#27 = CIRCLE ( 'NONE', #521, 2.099999999999997868 ) ;
#28 = DIRECTION ( 'NONE',  ( 0.000000000000000000, 0.000000000000000000, 1.000000000000000000 ) ) ;
#29 = DIRECTION ( 'NONE',  ( -1.000000000000000000, -2.168404344971009361E-16, 0.000000000000000000 ) ) ;
#30 = CIRCLE ( 'NONE', #142, 2.000000000000000000 ) ;
#31 = FACE_OUTER_BOUND ( 'NONE', #472, .T. ) ;
#32 = EDGE_LOOP ( 'NONE', ( #325, #964, #696, #1014 ) ) ;
#33 = EDGE_CURVE ( 'NONE', #734, #565, #298, .T. ) ;
#34 = CARTESIAN_POINT ( 'NONE',  ( -12.99999999999999467, -38.00000000000000711, 0.000000000000000000 ) ) ;
#35 = ORIENTED_EDGE ( 'NONE', *, *, #448, .F. ) ;
#36 = LINE ( 'NONE', #339, #590 ) ;
#37 = DIRECTION ( 'NONE',  ( -1.000000000000000000, -2.168404344971008375E-16, 0.000000000000000000 ) ) ;
#38 = DIRECTION ( 'NONE',  ( 0.000000000000000000, 0.000000000000000000, 1.000000000000000000 ) ) ;
#39 = EDGE_LOOP ( 'NONE', ( #1216, #553 ) ) ;
#40 = DIRECTION ( 'NONE',  ( 1.000000000000000000, 0.000000000000000000, 0.000000000000000000 ) ) ;
#41 = VECTOR ( 'NONE', #29, 1000.000000000000000 ) ;
#42 = EDGE_CURVE ( 'NONE', #1085, #797, #272, .T. ) ;
#43 = CARTESIAN_POINT ( 'NONE',  ( 10.99999999999999822, 8.000000000000000000, 0.000000000000000000 ) ) ;
#44 = ADVANCED_FACE ( 'NONE', ( #970 ), #468, .F. ) ;
#45 = VERTEX_POINT ( 'NONE', #1253 ) ;
#46 = FACE_BOUND ( 'NONE', #260, .T. ) ;
#47 = VERTEX_POINT ( 'NONE', #474 ) ;
#48 = VECTOR ( 'NONE', #290, 1000.000000000000000 ) ;
#49 = ORIENTED_EDGE ( 'NONE', *, *, #131, .F. ) ;
#50 = DIRECTION ( 'NONE',  ( -0.000000000000000000, -0.000000000000000000, -1.000000000000000000 ) ) ;
#51 = EDGE_CURVE ( 'NONE', #1091, #565, #390, .T. ) ;
#52 = EDGE_LOOP ( 'NONE', ( #54, #530, #833, #1208, #66, #502, #961, #1076 ) ) ;
#53 = CARTESIAN_POINT ( 'NONE',  ( -9.000000000000005329, 4.999999999999999112, 0.000000000000000000 ) ) ;
#54 = ORIENTED_EDGE ( 'NONE', *, *, #894, .F. ) ;
#55 = CIRCLE ( 'NONE', #166, 1.250000000000000222 ) ;
#56 = EDGE_CURVE ( 'NONE', #437, #684, #1264, .T. ) ;
#57 = ORIENTED_EDGE ( 'NONE', *, *, #134, .T. ) ;
#58 = CARTESIAN_POINT ( 'NONE',  ( -9.249999999999998224, -37.00000000000000711, 2.000000000000000000 ) ) ;
#59 = ORIENTED_EDGE ( 'NONE', *, *, #42, .T. ) ;
#60 = DIRECTION ( 'NONE',  ( -1.000000000000000000, 0.000000000000000000, 0.000000000000000000 ) ) ;
#61 = EDGE_CURVE ( 'NONE', #712, #1231, #1072, .T. ) ;
#62 = EDGE_LOOP ( 'NONE', ( #1159, #831, #227, #340, #968, #1235, #648, #518 ) ) ;
#63 = DIRECTION ( 'NONE',  ( -1.000000000000000000, 0.000000000000000000, 0.000000000000000000 ) ) ;
#64 = AXIS2_PLACEMENT_3D ( 'NONE', #791, #778, #772 ) ;
#65 = DIRECTION ( 'NONE',  ( 0.000000000000000000, 0.000000000000000000, -1.000000000000000000 ) ) ;
#66 = ORIENTED_EDGE ( 'NONE', *, *, #1002, .F. ) ;
#67 = DIRECTION ( 'NONE',  ( 0.000000000000000000, 0.000000000000000000, 1.000000000000000000 ) ) ;
#68 = ORIENTED_EDGE ( 'NONE', *, *, #608, .F. ) ;
#69 = AXIS2_PLACEMENT_3D ( 'NONE', #454, #832, #460 ) ;
#70 = AXIS2_PLACEMENT_3D ( 'NONE', #295, #465, #673 ) ;
#71 = EDGE_LOOP ( 'NONE', ( #391, #284, #92, #249 ) ) ;
#72 = LINE ( 'NONE', #564, #620 ) ;
#73 = ORIENTED_EDGE ( 'NONE', *, *, #653, .T. ) ;
#74 = LINE ( 'NONE', #1252, #482 ) ;
#75 = CARTESIAN_POINT ( 'NONE',  ( 8.999999999999996447, -4.999999999999998224, 0.000000000000000000 ) ) ;
#76 = EDGE_CURVE ( 'NONE', #182, #876, #1161, .T. ) ;
#77 = DIRECTION ( 'NONE',  ( 1.084202172485504434E-16, -1.000000000000000000, 0.000000000000000000 ) ) ;
#78 = CIRCLE ( 'NONE', #793, 2.000000000000000000 ) ;
#79 = EDGE_LOOP ( 'NONE', ( #254, #803, #441, #459 ) ) ;
#80 = DIRECTION ( 'NONE',  ( 0.000000000000000000, 1.000000000000000000, -0.000000000000000000 ) ) ;
#81 = ORIENTED_EDGE ( 'NONE', *, *, #1002, .T. ) ;
#82 = ADVANCED_FACE ( 'NONE', ( #1044 ), #180, .F. ) ;
#83 = VECTOR ( 'NONE', #1016, 1000.000000000000000 ) ;
#84 = CARTESIAN_POINT ( 'NONE',  ( 10.99999999999999822, 8.000000000000000000, 2.000000000000000000 ) ) ;
#85 = DIRECTION ( 'NONE',  ( -0.000000000000000000, -0.000000000000000000, 1.000000000000000000 ) ) ;
#86 = EDGE_CURVE ( 'NONE', #536, #797, #567, .T. ) ;
#87 = ORIENTED_EDGE ( 'NONE', *, *, #226, .T. ) ;
#88 = CYLINDRICAL_SURFACE ( 'NONE', #1217, 1.599999999999998979 ) ;
#89 = DIRECTION ( 'NONE',  ( -1.000000000000000000, -1.334402673828313339E-16, 0.000000000000000000 ) ) ;
#90 =( GEOMETRIC_REPRESENTATION_CONTEXT ( 3 ) GLOBAL_UNCERTAINTY_ASSIGNED_CONTEXT ( ( #19 ) ) GLOBAL_UNIT_ASSIGNED_CONTEXT ( ( #246, #1232, #336 ) ) REPRESENTATION_CONTEXT ( 'NONE', 'WORKASPACE' ) );
#91 = CARTESIAN_POINT ( 'NONE',  ( -6.750000000000000000, -19.00000000000001066, 0.000000000000000000 ) ) ;
#92 = ORIENTED_EDGE ( 'NONE', *, *, #279, .T. ) ;
#93 = LINE ( 'NONE', #371, #1111 ) ;
#94 = ORIENTED_EDGE ( 'NONE', *, *, #515, .F. ) ;
#95 = DIRECTION ( 'NONE',  ( 1.000000000000000000, 1.084202172485504434E-16, -0.000000000000000000 ) ) ;
#96 = DIRECTION ( 'NONE',  ( 0.000000000000000000, 0.000000000000000000, 1.000000000000000000 ) ) ;
#97 = EDGE_CURVE ( 'NONE', #1113, #107, #669, .T. ) ;
#98 = DIRECTION ( 'NONE',  ( 0.000000000000000000, 0.000000000000000000, 1.000000000000000000 ) ) ;
#99 = LINE ( 'NONE', #885, #1204 ) ;
#100 = DIRECTION ( 'NONE',  ( 0.000000000000000000, 0.000000000000000000, 1.000000000000000000 ) ) ;
#101 = DIRECTION ( 'NONE',  ( -1.000000000000000000, 0.000000000000000000, 0.000000000000000000 ) ) ;
#102 = EDGE_CURVE ( 'NONE', #176, #880, #125, .T. ) ;
#103 = DIRECTION ( 'NONE',  ( 1.000000000000000000, 0.000000000000000000, 0.000000000000000000 ) ) ;
#104 = VECTOR ( 'NONE', #186, 1000.000000000000000 ) ;
#105 = AXIS2_PLACEMENT_3D ( 'NONE', #1149, #98, #773 ) ;
#106 = DIRECTION ( 'NONE',  ( -0.000000000000000000, -0.000000000000000000, -1.000000000000000000 ) ) ;
#107 = VERTEX_POINT ( 'NONE', #878 ) ;
#108 = CARTESIAN_POINT ( 'NONE',  ( 9.000000000000001776, -14.00000000000000355, 4.000000000000000000 ) ) ;
#109 = EDGE_CURVE ( 'NONE', #1231, #946, #141, .T. ) ;
#110 = PLANE ( 'NONE',  #991 ) ;
#111 = CARTESIAN_POINT ( 'NONE',  ( -7.999999999999994671, -31.00000000000000711, 0.000000000000000000 ) ) ;
#112 = ORIENTED_EDGE ( 'NONE', *, *, #653, .F. ) ;
#113 = CYLINDRICAL_SURFACE ( 'NONE', #309, 1.599999999999998979 ) ;
#114 = ADVANCED_FACE ( 'NONE', ( #213 ), #221, .F. ) ;
#115 = ORIENTED_EDGE ( 'NONE', *, *, #896, .T. ) ;
#116 = VECTOR ( 'NONE', #1269, 1000.000000000000000 ) ;
#117 = DIRECTION ( 'NONE',  ( 0.000000000000000000, 0.000000000000000000, 1.000000000000000000 ) ) ;
#118 = PRODUCT_CONTEXT ( 'NONE', #676, 'mechanical' ) ;
#119 = CARTESIAN_POINT ( 'NONE',  ( -7.999999999999998224, -25.00000000000000711, 0.000000000000000000 ) ) ;
#120 = CARTESIAN_POINT ( 'NONE',  ( 7.000000000000000888, -18.00000000000001066, 0.000000000000000000 ) ) ;
#121 = DIRECTION ( 'NONE',  ( 0.000000000000000000, -0.000000000000000000, -1.000000000000000000 ) ) ;
#122 = AXIS2_PLACEMENT_3D ( 'NONE', #409, #606, #875 ) ;
#123 = VERTEX_POINT ( 'NONE', #527 ) ;
#124 = LINE ( 'NONE', #512, #41 ) ;
#125 = CIRCLE ( 'NONE', #837, 2.000000000000000000 ) ;
#126 = VECTOR ( 'NONE', #106, 1000.000000000000000 ) ;
#127 = CARTESIAN_POINT ( 'NONE',  ( 11.00000000000000178, -14.00000000000000355, 4.000000000000000000 ) ) ;
#128 = CARTESIAN_POINT ( 'NONE',  ( -6.749999999999994671, -31.00000000000000711, 0.000000000000000000 ) ) ;
#129 = VERTEX_POINT ( 'NONE', #990 ) ;
#130 = DIRECTION ( 'NONE',  ( -0.000000000000000000, 0.000000000000000000, 1.000000000000000000 ) ) ;
#131 = EDGE_CURVE ( 'NONE', #1212, #165, #976, .T. ) ;
#132 =( GEOMETRIC_REPRESENTATION_CONTEXT ( 3 ) GLOBAL_UNCERTAINTY_ASSIGNED_CONTEXT ( ( #913 ) ) GLOBAL_UNIT_ASSIGNED_CONTEXT ( ( #214, #597, #985 ) ) REPRESENTATION_CONTEXT ( 'NONE', 'WORKASPACE' ) );
#133 = DIRECTION ( 'NONE',  ( -1.000000000000000000, 0.000000000000000000, 0.000000000000000000 ) ) ;
#134 = EDGE_CURVE ( 'NONE', #526, #176, #36, .T. ) ;
#135 = CARTESIAN_POINT ( 'NONE',  ( 0.000000000000000000, 0.000000000000000000, 4.000000000000000000 ) ) ;
#136 = EDGE_LOOP ( 'NONE', ( #251, #1242, #429, #688 ) ) ;
#137 = MECHANICAL_DESIGN_GEOMETRIC_PRESENTATION_REPRESENTATION (  '', ( #683 ), #90 ) ;
#138 = CARTESIAN_POINT ( 'NONE',  ( -7.400000000000003020, -5.000000000000000888, 0.000000000000000000 ) ) ;
#139 = VECTOR ( 'NONE', #646, 1000.000000000000000 ) ;
#140 = ORIENTED_EDGE ( 'NONE', *, *, #1096, .F. ) ;
#141 = LINE ( 'NONE', #327, #451 ) ;
#142 = AXIS2_PLACEMENT_3D ( 'NONE', #854, #377, #1046 ) ;
#143 = CARTESIAN_POINT ( 'NONE',  ( -9.250000000000001776, -19.00000000000001066, 0.000000000000000000 ) ) ;
#144 = PRODUCT_DEFINITION_CONTEXT ( 'detailed design', #807, 'design' ) ;
#145 = DIRECTION ( 'NONE',  ( -1.000000000000000000, 0.000000000000000000, 0.000000000000000000 ) ) ;
#146 = ORIENTED_EDGE ( 'NONE', *, *, #279, .F. ) ;
#147 = CARTESIAN_POINT ( 'NONE',  ( 7.000000000000000888, -18.00000000000001066, 0.000000000000000000 ) ) ;
#148 = EDGE_CURVE ( 'NONE', #841, #352, #124, .T. ) ;
#149 = VECTOR ( 'NONE', #418, 1000.000000000000000 ) ;
#150 = DIRECTION ( 'NONE',  ( 0.000000000000000000, 0.000000000000000000, 1.000000000000000000 ) ) ;
#151 = DIRECTION ( 'NONE',  ( 1.000000000000000000, 0.000000000000000000, 0.000000000000000000 ) ) ;
#152 = ORIENTED_EDGE ( 'NONE', *, *, #994, .F. ) ;
#153 = DIRECTION ( 'NONE',  ( -0.000000000000000000, -0.000000000000000000, 1.000000000000000000 ) ) ;
#154 = EDGE_LOOP ( 'NONE', ( #23, #845 ) ) ;
#155 = EDGE_CURVE ( 'NONE', #637, #1010, #503, .T. ) ;
#156 = DIRECTION ( 'NONE',  ( 1.000000000000000000, 0.000000000000000000, 0.000000000000000000 ) ) ;
#157 = VERTEX_POINT ( 'NONE', #790 ) ;
#158 = CARTESIAN_POINT ( 'NONE',  ( 11.00000000000000888, -38.00000000000000711, -41.23105625617660763 ) ) ;
#159 = VERTEX_POINT ( 'NONE', #898 ) ;
#160 = CIRCLE ( 'NONE', #1197, 2.000000000000000000 ) ;
#161 = ORIENTED_EDGE ( 'NONE', *, *, #1098, .F. ) ;
#162 = EDGE_CURVE ( 'NONE', #1063, #712, #1108, .T. ) ;
#163 = ORIENTED_EDGE ( 'NONE', *, *, #747, .T. ) ;
#164 = DIRECTION ( 'NONE',  ( 0.000000000000000000, 0.000000000000000000, -1.000000000000000000 ) ) ;
#165 = VERTEX_POINT ( 'NONE', #1182 ) ;
#166 = AXIS2_PLACEMENT_3D ( 'NONE', #111, #499, #794 ) ;
#167 = PRESENTATION_STYLE_ASSIGNMENT (( #347 ) ) ;
#168 = EDGE_LOOP ( 'NONE', ( #152, #588, #3, #1055 ) ) ;
#169 = DIRECTION ( 'NONE',  ( 0.000000000000000000, 0.000000000000000000, 1.000000000000000000 ) ) ;
#170 = EDGE_CURVE ( 'NONE', #726, #609, #756, .T. ) ;
#171 = EDGE_LOOP ( 'NONE', ( #1168, #456, #1260, #245 ) ) ;
#172 = AXIS2_PLACEMENT_3D ( 'NONE', #1271, #192, #207 ) ;
#173 = DIRECTION ( 'NONE',  ( 0.000000000000000000, 1.000000000000000000, -0.000000000000000000 ) ) ;
#174 = VERTEX_POINT ( 'NONE', #1080 ) ;
#175 = CARTESIAN_POINT ( 'NONE',  ( -9.000000000000005329, 4.999999999999999112, 0.000000000000000000 ) ) ;
#176 = VERTEX_POINT ( 'NONE', #230 ) ;
#177 = LINE ( 'NONE', #967, #424 ) ;
#178 = VERTEX_POINT ( 'NONE', #611 ) ;
#179 = DIRECTION ( 'NONE',  ( 1.000000000000000000, 0.000000000000000000, 0.000000000000000000 ) ) ;
#180 = CYLINDRICAL_SURFACE ( 'NONE', #1225, 1.250000000000000222 ) ;
#181 = ADVANCED_FACE ( 'NONE', ( #6 ), #1003, .T. ) ;
#182 = VERTEX_POINT ( 'NONE', #983 ) ;
#183 = LINE ( 'NONE', #1266, #784 ) ;
#184 = ORIENTED_EDGE ( 'NONE', *, *, #131, .T. ) ;
#185 = FACE_OUTER_BOUND ( 'NONE', #357, .T. ) ;
#186 = DIRECTION ( 'NONE',  ( -0.000000000000000000, -0.000000000000000000, -1.000000000000000000 ) ) ;
#187 = VECTOR ( 'NONE', #1000, 1000.000000000000000 ) ;
#188 = DIRECTION ( 'NONE',  ( 0.000000000000000000, 0.000000000000000000, 1.000000000000000000 ) ) ;
#189 = CYLINDRICAL_SURFACE ( 'NONE', #1066, 2.000000000000000000 ) ;
#190 = ORIENTED_EDGE ( 'NONE', *, *, #563, .T. ) ;
#191 = DIRECTION ( 'NONE',  ( 0.000000000000000000, 0.000000000000000000, 1.000000000000000000 ) ) ;
#192 = DIRECTION ( 'NONE',  ( 0.000000000000000000, 0.000000000000000000, -1.000000000000000000 ) ) ;
#193 = AXIS2_PLACEMENT_3D ( 'NONE', #914, #38, #151 ) ;
#194 = CIRCLE ( 'NONE', #906, 1.250000000000000222 ) ;
#195 = DIRECTION ( 'NONE',  ( 1.000000000000000000, 0.000000000000000000, 0.000000000000000000 ) ) ;
#196 = DIRECTION ( 'NONE',  ( 0.000000000000000000, 0.000000000000000000, -1.000000000000000000 ) ) ;
#197 = VECTOR ( 'NONE', #77, 1000.000000000000000 ) ;
#198 = EDGE_LOOP ( 'NONE', ( #1258, #1028 ) ) ;
#199 = CARTESIAN_POINT ( 'NONE',  ( -11.00000000000000000, 5.999999999999996447, 2.000000000000000000 ) ) ;
#200 = ADVANCED_FACE ( 'NONE', ( #616 ), #426, .F. ) ;
#201 = CARTESIAN_POINT ( 'NONE',  ( -10.99999999999999467, -38.00000000000000711, 2.000000000000000000 ) ) ;
#202 = LINE ( 'NONE', #489, #1267 ) ;
#203 = ORIENTED_EDGE ( 'NONE', *, *, #1040, .F. ) ;
#204 = DIRECTION ( 'NONE',  ( -1.000000000000000000, 0.000000000000000000, 0.000000000000000000 ) ) ;
#205 = EDGE_CURVE ( 'NONE', #601, #841, #703, .T. ) ;
#206 = ADVANCED_FACE ( 'NONE', ( #333 ), #1209, .T. ) ;
#207 = DIRECTION ( 'NONE',  ( -1.000000000000000000, 0.000000000000000000, 0.000000000000000000 ) ) ;
#208 = DIRECTION ( 'NONE',  ( -0.000000000000000000, -0.000000000000000000, 1.000000000000000000 ) ) ;
#209 = CARTESIAN_POINT ( 'NONE',  ( -6.750000000000000000, -19.00000000000001066, 2.000000000000000000 ) ) ;
#210 = AXIS2_PLACEMENT_3D ( 'NONE', #997, #234, #432 ) ;
#211 = CARTESIAN_POINT ( 'NONE',  ( -13.00000000000000000, 5.999999999999996447, 2.000000000000000000 ) ) ;
#212 = VERTEX_POINT ( 'NONE', #497 ) ;
#213 = FACE_OUTER_BOUND ( 'NONE', #289, .T. ) ;
#214 =( LENGTH_UNIT ( ) NAMED_UNIT ( * ) SI_UNIT ( .MILLI., .METRE. ) );
#215 = DIRECTION ( 'NONE',  ( 1.084202172485504434E-16, -1.000000000000000000, 0.000000000000000000 ) ) ;
#216 = CARTESIAN_POINT ( 'NONE',  ( -7.999999999999998224, -25.00000000000000711, 0.000000000000000000 ) ) ;
#217 = ORIENTED_EDGE ( 'NONE', *, *, #320, .F. ) ;
#218 = PLANE ( 'NONE',  #731 ) ;
#219 = VERTEX_POINT ( 'NONE', #889 ) ;
#220 = AXIS2_PLACEMENT_3D ( 'NONE', #780, #675, #877 ) ;
#221 = CYLINDRICAL_SURFACE ( 'NONE', #273, 1.600000000000001643 ) ;
#222 = APPLICATION_PROTOCOL_DEFINITION ( 'draft international standard', 'automotive_design', 1998, #676 ) ;
#223 = DIRECTION ( 'NONE',  ( 1.000000000000000000, 0.000000000000000000, 0.000000000000000000 ) ) ;
#224 = ADVANCED_FACE ( 'NONE', ( #883, #13, #413, #798, #1189, #1088, #318, #1019, #46, #750 ), #1007, .F. ) ;
#225 = DIRECTION ( 'NONE',  ( 1.000000000000000000, 0.000000000000000000, 0.000000000000000000 ) ) ;
#226 = EDGE_CURVE ( 'NONE', #123, #212, #300, .T. ) ;
#227 = ORIENTED_EDGE ( 'NONE', *, *, #947, .F. ) ;
#228 = CARTESIAN_POINT ( 'NONE',  ( 5.000000000000002665, -16.00000000000000355, 4.000000000000000000 ) ) ;
#229 = AXIS2_PLACEMENT_3D ( 'NONE', #1090, #987, #993 ) ;
#230 = CARTESIAN_POINT ( 'NONE',  ( -12.99999999999999467, -38.00000000000000711, 2.000000000000000000 ) ) ;
#231 = CARTESIAN_POINT ( 'NONE',  ( 8.999999999999996447, -4.999999999999998224, 2.000000000000000000 ) ) ;
#232 = EDGE_CURVE ( 'NONE', #1033, #107, #627, .T. ) ;
#233 = DIRECTION ( 'NONE',  ( -1.000000000000000000, 0.000000000000000000, 0.000000000000000000 ) ) ;
#234 = DIRECTION ( 'NONE',  ( 0.000000000000000000, 0.000000000000000000, 1.000000000000000000 ) ) ;
#235 = ADVANCED_FACE ( 'NONE', ( #259, #640, #743, #531, #850, #1215, #449, #622, #1135, #730 ), #1026, .T. ) ;
#236 = ORIENTED_EDGE ( 'NONE', *, *, #747, .F. ) ;
#237 = ADVANCED_FACE ( 'NONE', ( #264 ), #1032, .F. ) ;
#238 = DIRECTION ( 'NONE',  ( -1.000000000000000000, 0.000000000000000000, 0.000000000000000000 ) ) ;
#239 = EDGE_LOOP ( 'NONE', ( #265, #957, #811, #939 ) ) ;
#240 = SURFACE_SIDE_STYLE ('',( #718 ) ) ;
#241 = CIRCLE ( 'NONE', #661, 1.250000000000000222 ) ;
#242 = VERTEX_POINT ( 'NONE', #1234 ) ;
#243 = DIRECTION ( 'NONE',  ( 1.000000000000000000, 0.000000000000000000, 0.000000000000000000 ) ) ;
#244 = CARTESIAN_POINT ( 'NONE',  ( -8.000000000000000000, -19.00000000000001066, 2.000000000000000000 ) ) ;
#245 = ORIENTED_EDGE ( 'NONE', *, *, #1098, .T. ) ;
#246 =( LENGTH_UNIT ( ) NAMED_UNIT ( * ) SI_UNIT ( .MILLI., .METRE. ) );
#247 = ORIENTED_EDGE ( 'NONE', *, *, #647, .F. ) ;
#248 = DIRECTION ( 'NONE',  ( -0.000000000000000000, -0.000000000000000000, 1.000000000000000000 ) ) ;
#249 = ORIENTED_EDGE ( 'NONE', *, *, #679, .T. ) ;
#250 = CARTESIAN_POINT ( 'NONE',  ( 10.59999999999999609, -4.999999999999998224, 2.000000000000000000 ) ) ;
#251 = ORIENTED_EDGE ( 'NONE', *, *, #948, .F. ) ;
#252 = DIRECTION ( 'NONE',  ( -1.000000000000000000, 0.000000000000000000, -0.000000000000000000 ) ) ;
#253 = AXIS2_PLACEMENT_3D ( 'NONE', #605, #17, #1097 ) ;
#254 = ORIENTED_EDGE ( 'NONE', *, *, #1049, .F. ) ;
#255 = EDGE_CURVE ( 'NONE', #304, #129, #194, .T. ) ;
#256 = ORIENTED_EDGE ( 'NONE', *, *, #770, .F. ) ;
#257 = CARTESIAN_POINT ( 'NONE',  ( 9.000000000000001776, -16.00000000000000355, 4.000000000000000000 ) ) ;
#258 = ORIENTED_EDGE ( 'NONE', *, *, #1139, .F. ) ;
#259 = FACE_BOUND ( 'NONE', #901, .T. ) ;
#260 = EDGE_LOOP ( 'NONE', ( #934, #787 ) ) ;
#261 = DIRECTION ( 'NONE',  ( 0.000000000000000000, -0.000000000000000000, -1.000000000000000000 ) ) ;
#262 = ADVANCED_FACE ( 'NONE', ( #839 ), #938, .T. ) ;
#263 = VERTEX_POINT ( 'NONE', #1013 ) ;
#264 = FACE_OUTER_BOUND ( 'NONE', #1058, .T. ) ;
#265 = ORIENTED_EDGE ( 'NONE', *, *, #285, .F. ) ;
#266 = LINE ( 'NONE', #1117, #83 ) ;
#267 = EDGE_LOOP ( 'NONE', ( #955, #398, #767, #1218 ) ) ;
#268 = DIRECTION ( 'NONE',  ( 0.000000000000000000, -0.000000000000000000, -1.000000000000000000 ) ) ;
#269 = ORIENTED_EDGE ( 'NONE', *, *, #1068, .F. ) ;
#270 = CARTESIAN_POINT ( 'NONE',  ( -9.250000000000000000, -25.00000000000000711, 0.000000000000000000 ) ) ;
#271 = ORIENTED_EDGE ( 'NONE', *, *, #1207, .T. ) ;
#272 = CIRCLE ( 'NONE', #975, 1.600000000000000755 ) ;
#273 = AXIS2_PLACEMENT_3D ( 'NONE', #699, #603, #133 ) ;
#274 = AXIS2_PLACEMENT_3D ( 'NONE', #119, #1105, #912 ) ;
#275 = DIRECTION ( 'NONE',  ( 1.000000000000000000, 0.000000000000000000, 0.000000000000000000 ) ) ;
#276 = EDGE_LOOP ( 'NONE', ( #550, #184, #924, #980 ) ) ;
#277 = FACE_OUTER_BOUND ( 'NONE', #1036, .T. ) ;
#278 = DIRECTION ( 'NONE',  ( 0.000000000000000000, 0.000000000000000000, 1.000000000000000000 ) ) ;
#279 = EDGE_CURVE ( 'NONE', #219, #843, #355, .T. ) ;
#280 = CIRCLE ( 'NONE', #220, 1.250000000000000222 ) ;
#281 = CARTESIAN_POINT ( 'NONE',  ( 4.900000000000003020, -18.00000000000001066, 4.000000000000000000 ) ) ;
#282 = EDGE_LOOP ( 'NONE', ( #161, #626 ) ) ;
#283 = DIRECTION ( 'NONE',  ( -1.000000000000000000, 0.000000000000000000, 0.000000000000000000 ) ) ;
#284 = ORIENTED_EDGE ( 'NONE', *, *, #319, .F. ) ;
#285 = EDGE_CURVE ( 'NONE', #384, #21, #523, .T. ) ;
#286 = VECTOR ( 'NONE', #687, 1000.000000000000000 ) ;
#287 = DIRECTION ( 'NONE',  ( -0.000000000000000000, -0.000000000000000000, -1.000000000000000000 ) ) ;
#288 = AXIS2_PLACEMENT_3D ( 'NONE', #578, #966, #393 ) ;
#289 = EDGE_LOOP ( 'NONE', ( #897, #691, #258, #907 ) ) ;
#290 = DIRECTION ( 'NONE',  ( 0.000000000000000000, 0.000000000000000000, -1.000000000000000000 ) ) ;
#291 = CARTESIAN_POINT ( 'NONE',  ( -9.000000000000003553, -5.000000000000000888, 0.000000000000000000 ) ) ;
#292 = EDGE_CURVE ( 'NONE', #637, #642, #1171, .T. ) ;
#293 = CIRCLE ( 'NONE', #999, 1.600000000000002531 ) ;
#294 = LINE ( 'NONE', #91, #555 ) ;
#295 = CARTESIAN_POINT ( 'NONE',  ( 8.999999999999996447, -4.999999999999998224, 2.000000000000000000 ) ) ;
#296 = ORIENTED_EDGE ( 'NONE', *, *, #1198, .F. ) ;
#297 = DIRECTION ( 'NONE',  ( -1.000000000000000000, 0.000000000000000000, 0.000000000000000000 ) ) ;
#298 = LINE ( 'NONE', #667, #104 ) ;
#299 = AXIS2_PLACEMENT_3D ( 'NONE', #625, #929, #643 ) ;
#300 = CIRCLE ( 'NONE', #461, 1.599999999999999867 ) ;
#301 = CARTESIAN_POINT ( 'NONE',  ( -6.749999999999998224, -25.00000000000000711, 0.000000000000000000 ) ) ;
#302 = CIRCLE ( 'NONE', #364, 1.250000000000000222 ) ;
#303 = DIRECTION ( 'NONE',  ( -0.000000000000000000, -0.000000000000000000, -1.000000000000000000 ) ) ;
#304 = VERTEX_POINT ( 'NONE', #1243 ) ;
#305 = DIRECTION ( 'NONE',  ( 1.000000000000000000, 0.000000000000000000, 0.000000000000000000 ) ) ;
#306 = DIRECTION ( 'NONE',  ( 1.084202172485504434E-16, -1.000000000000000000, 0.000000000000000000 ) ) ;
#307 = EDGE_LOOP ( 'NONE', ( #217, #236 ) ) ;
#308 = DIRECTION ( 'NONE',  ( 0.000000000000000000, 0.000000000000000000, -1.000000000000000000 ) ) ;
#309 = AXIS2_PLACEMENT_3D ( 'NONE', #410, #796, #517 ) ;
#310 = ORIENTED_EDGE ( 'NONE', *, *, #542, .T. ) ;
#311 = DIRECTION ( 'NONE',  ( 0.000000000000000000, 0.000000000000000000, 1.000000000000000000 ) ) ;
#312 = CYLINDRICAL_SURFACE ( 'NONE', #274, 1.250000000000000222 ) ;
#313 = CYLINDRICAL_SURFACE ( 'NONE', #229, 1.250000000000000222 ) ;
#314 = AXIS2_PLACEMENT_3D ( 'NONE', #231, #150, #223 ) ;
#315 = ORIENTED_EDGE ( 'NONE', *, *, #16, .F. ) ;
#316 = DIRECTION ( 'NONE',  ( -0.000000000000000000, 0.000000000000000000, 1.000000000000000000 ) ) ;
#317 = VERTEX_POINT ( 'NONE', #368 ) ;
#318 = FACE_BOUND ( 'NONE', #307, .T. ) ;
#319 = EDGE_CURVE ( 'NONE', #219, #182, #685, .T. ) ;
#320 = EDGE_CURVE ( 'NONE', #178, #684, #241, .T. ) ;
#321 = CIRCLE ( 'NONE', #1236, 2.099999999999997868 ) ;
#322 = DIRECTION ( 'NONE',  ( 1.000000000000000000, 0.000000000000000000, 0.000000000000000000 ) ) ;
#323 = LINE ( 'NONE', #1075, #286 ) ;
#324 = FACE_OUTER_BOUND ( 'NONE', #425, .T. ) ;
#325 = ORIENTED_EDGE ( 'NONE', *, *, #728, .F. ) ;
#326 = AXIS2_PLACEMENT_3D ( 'NONE', #199, #1256, #297 ) ;
#327 = CARTESIAN_POINT ( 'NONE',  ( -11.00000000000000000, 7.999999999999996447, 2.000000000000000000 ) ) ;
#328 = LINE ( 'NONE', #598, #416 ) ;
#329 = ADVANCED_FACE ( 'NONE', ( #827 ), #344, .F. ) ;
#330 = ORIENTED_EDGE ( 'NONE', *, *, #51, .F. ) ;
#331 = DIRECTION ( 'NONE',  ( 1.000000000000000000, 1.084202172485504434E-16, -0.000000000000000000 ) ) ;
#332 = CIRCLE ( 'NONE', #122, 1.599999999999999867 ) ;
#333 = FACE_OUTER_BOUND ( 'NONE', #719, .T. ) ;
#334 = CYLINDRICAL_SURFACE ( 'NONE', #475, 1.599999999999999867 ) ;
#335 = EDGE_CURVE ( 'NONE', #946, #723, #1153, .T. ) ;
#336 =( NAMED_UNIT ( * ) SI_UNIT ( $, .STERADIAN. ) SOLID_ANGLE_UNIT ( ) );
#337 = CIRCLE ( 'NONE', #733, 1.600000000000000755 ) ;
#338 = ORIENTED_EDGE ( 'NONE', *, *, #996, .T. ) ;
#339 = CARTESIAN_POINT ( 'NONE',  ( -12.99999999999999467, -38.00000000000000711, 2.000000000000000000 ) ) ;
#340 = ORIENTED_EDGE ( 'NONE', *, *, #724, .T. ) ;
#341 = DIRECTION ( 'NONE',  ( 0.000000000000000000, -0.000000000000000000, -1.000000000000000000 ) ) ;
#342 = CARTESIAN_POINT ( 'NONE',  ( 11.00000000000000888, -38.00000000000000711, 2.000000000000001776 ) ) ;
#343 = ORIENTED_EDGE ( 'NONE', *, *, #724, .F. ) ;
#344 = CYLINDRICAL_SURFACE ( 'NONE', #545, 1.250000000000000222 ) ;
#345 = ORIENTED_EDGE ( 'NONE', *, *, #737, .F. ) ;
#346 = LINE ( 'NONE', #365, #1210 ) ;
#347 = SURFACE_STYLE_USAGE ( .BOTH. , #240 ) ;
#348 = VERTEX_POINT ( 'NONE', #491 ) ;
#349 = DIRECTION ( 'NONE',  ( 0.000000000000000000, 0.000000000000000000, -1.000000000000000000 ) ) ;
#350 = ORIENTED_EDGE ( 'NONE', *, *, #162, .F. ) ;
#351 = AXIS2_PLACEMENT_3D ( 'NONE', #593, #981, #233 ) ;
#352 = VERTEX_POINT ( 'NONE', #392 ) ;
#353 = CARTESIAN_POINT ( 'NONE',  ( 5.000000000000002665, -14.00000000000000533, 4.000000000000000000 ) ) ;
#354 = ORIENTED_EDGE ( 'NONE', *, *, #335, .F. ) ;
#355 = LINE ( 'NONE', #735, #362 ) ;
#356 = AXIS2_PLACEMENT_3D ( 'NONE', #135, #522, #618 ) ;
#357 = EDGE_LOOP ( 'NONE', ( #629, #634, #190, #470 ) ) ;
#358 = EDGE_CURVE ( 'NONE', #445, #609, #467, .T. ) ;
#359 = CIRCLE ( 'NONE', #1194, 1.250000000000000222 ) ;
#360 = ORIENTED_EDGE ( 'NONE', *, *, #644, .F. ) ;
#361 = DIRECTION ( 'NONE',  ( -1.000000000000000000, 0.000000000000000000, -0.000000000000000000 ) ) ;
#362 = VECTOR ( 'NONE', #932, 1000.000000000000000 ) ;
#363 = EDGE_LOOP ( 'NONE', ( #1047, #974 ) ) ;
#364 = AXIS2_PLACEMENT_3D ( 'NONE', #1164, #1254, #458 ) ;
#365 = CARTESIAN_POINT ( 'NONE',  ( 12.99999999999999822, 8.000000000000000000, 2.000000000000000000 ) ) ;
#366 = CARTESIAN_POINT ( 'NONE',  ( 3.000000000000002220, -14.00000000000000533, 2.000000000000000000 ) ) ;
#367 = ORIENTED_EDGE ( 'NONE', *, *, #988, .T. ) ;
#368 = CARTESIAN_POINT ( 'NONE',  ( 10.59999999999999964, 5.000000000000001776, 2.000000000000000000 ) ) ;
#369 = ORIENTED_EDGE ( 'NONE', *, *, #806, .F. ) ;
#370 = EDGE_CURVE ( 'NONE', #444, #1200, #1147, .T. ) ;
#371 = CARTESIAN_POINT ( 'NONE',  ( -9.249999999999996447, -31.00000000000000711, 0.000000000000000000 ) ) ;
#372 = EDGE_CURVE ( 'NONE', #1063, #946, #865, .T. ) ;
#373 = ORIENTED_EDGE ( 'NONE', *, *, #948, .T. ) ;
#374 = PLANE ( 'NONE',  #763 ) ;
#375 = CYLINDRICAL_SURFACE ( 'NONE', #172, 2.000000000000000000 ) ;
#376 = VECTOR ( 'NONE', #953, 1000.000000000000000 ) ;
#377 = DIRECTION ( 'NONE',  ( 0.000000000000000000, 0.000000000000000000, 1.000000000000000000 ) ) ;
#378 = EDGE_LOOP ( 'NONE', ( #1012, #49 ) ) ;
#379 = ADVANCED_FACE ( 'NONE', ( #1261 ), #374, .F. ) ;
#380 = CARTESIAN_POINT ( 'NONE',  ( 3.000000000000002220, -16.00000000000000355, 4.000000000000000000 ) ) ;
#381 = CARTESIAN_POINT ( 'NONE',  ( 12.99999999999999822, 8.000000000000000000, 0.000000000000000000 ) ) ;
#382 = VECTOR ( 'NONE', #754, 1000.000000000000000 ) ;
#383 = DIRECTION ( 'NONE',  ( -1.000000000000000000, 0.000000000000000000, 0.000000000000000000 ) ) ;
#384 = VERTEX_POINT ( 'NONE', #582 ) ;
#385 = DIRECTION ( 'NONE',  ( -1.000000000000000000, 0.000000000000000000, 0.000000000000000000 ) ) ;
#386 = ADVANCED_FACE ( 'NONE', ( #776 ), #485, .F. ) ;
#387 = CARTESIAN_POINT ( 'NONE',  ( 5.000000000000002665, -14.00000000000000533, 4.000000000000000000 ) ) ;
#388 = VECTOR ( 'NONE', #306, 1000.000000000000000 ) ;
#389 = DIRECTION ( 'NONE',  ( -1.000000000000000000, 0.000000000000000000, 0.000000000000000000 ) ) ;
#390 = CIRCLE ( 'NONE', #771, 1.599999999999999867 ) ;
#391 = ORIENTED_EDGE ( 'NONE', *, *, #76, .F. ) ;
#392 = CARTESIAN_POINT ( 'NONE',  ( 5.000000000000002665, -14.00000000000000533, 2.000000000000000000 ) ) ;
#393 = DIRECTION ( 'NONE',  ( 1.000000000000000000, 0.000000000000000000, 0.000000000000000000 ) ) ;
#394 = EDGE_CURVE ( 'NONE', #212, #123, #830, .T. ) ;
#395 = AXIS2_PLACEMENT_3D ( 'NONE', #1110, #341, #238 ) ;
#396 = CARTESIAN_POINT ( 'NONE',  ( 3.000000000000002220, -14.00000000000000533, 4.000000000000000000 ) ) ;
#397 = CARTESIAN_POINT ( 'NONE',  ( 12.99999999999999822, 6.000000000000000888, 2.000000000000000000 ) ) ;
#398 = ORIENTED_EDGE ( 'NONE', *, *, #519, .T. ) ;
#399 = DIRECTION ( 'NONE',  ( 0.000000000000000000, 0.000000000000000000, 1.000000000000000000 ) ) ;
#400 = AXIS2_PLACEMENT_3D ( 'NONE', #548, #164, #252 ) ;
#401 = DIRECTION ( 'NONE',  ( 1.000000000000000000, 0.000000000000000000, 0.000000000000000000 ) ) ;
#402 = LINE ( 'NONE', #1177, #388 ) ;
#403 = EDGE_CURVE ( 'NONE', #609, #726, #280, .T. ) ;
#404 = AXIS2_PLACEMENT_3D ( 'NONE', #868, #1259, #275 ) ;
#405 = FACE_OUTER_BOUND ( 'NONE', #789, .T. ) ;
#406 = ORIENTED_EDGE ( 'NONE', *, *, #1154, .F. ) ;
#407 = DIRECTION ( 'NONE',  ( 1.000000000000000000, 0.000000000000000000, 0.000000000000000000 ) ) ;
#408 = FACE_OUTER_BOUND ( 'NONE', #1087, .T. ) ;
#409 = CARTESIAN_POINT ( 'NONE',  ( -9.000000000000005329, 4.999999999999999112, 2.000000000000000000 ) ) ;
#410 = CARTESIAN_POINT ( 'NONE',  ( -9.000000000000003553, -5.000000000000000888, 2.000000000000000000 ) ) ;
#411 = CIRCLE ( 'NONE', #15, 2.000000000000000000 ) ;
#412 = ORIENTED_EDGE ( 'NONE', *, *, #285, .T. ) ;
#413 = FACE_BOUND ( 'NONE', #1151, .T. ) ;
#414 = FACE_OUTER_BOUND ( 'NONE', #1244, .T. ) ;
#415 = CARTESIAN_POINT ( 'NONE',  ( 7.399999999999995026, 5.000000000000001776, 2.000000000000000000 ) ) ;
#416 = VECTOR ( 'NONE', #513, 1000.000000000000000 ) ;
#417 = ORIENTED_EDGE ( 'NONE', *, *, #109, .T. ) ;
#418 = DIRECTION ( 'NONE',  ( -0.000000000000000000, -0.000000000000000000, 1.000000000000000000 ) ) ;
#419 = VERTEX_POINT ( 'NONE', #397 ) ;
#420 = CARTESIAN_POINT ( 'NONE',  ( 11.00000000000000355, -22.00000000000000711, 2.000000000000000000 ) ) ;
#421 = VECTOR ( 'NONE', #50, 1000.000000000000000 ) ;
#422 = CARTESIAN_POINT ( 'NONE',  ( -7.999999999999994671, -31.00000000000000711, 2.000000000000000000 ) ) ;
#423 = DIRECTION ( 'NONE',  ( -1.000000000000000000, 0.000000000000000000, 0.000000000000000000 ) ) ;
#424 = VECTOR ( 'NONE', #85, 1000.000000000000000 ) ;
#425 = EDGE_LOOP ( 'NONE', ( #1273, #1130, #930, #417 ) ) ;
#426 = CYLINDRICAL_SURFACE ( 'NONE', #1109, 1.250000000000000222 ) ;
#427 = PRODUCT_DEFINITION_SHAPE ( 'NONE', 'NONE',  #584 ) ;
#428 = CARTESIAN_POINT ( 'NONE',  ( 3.000000000000002220, -16.00000000000000355, 2.000000000000000000 ) ) ;
#429 = ORIENTED_EDGE ( 'NONE', *, *, #894, .T. ) ;
#430 = DIRECTION ( 'NONE',  ( 1.000000000000000000, 1.334402673828313586E-16, 0.000000000000000000 ) ) ;
#431 = ORIENTED_EDGE ( 'NONE', *, *, #1068, .T. ) ;
#432 = DIRECTION ( 'NONE',  ( 1.000000000000000000, 0.000000000000000000, 0.000000000000000000 ) ) ;
#433 = DIRECTION ( 'NONE',  ( 0.000000000000000000, 0.000000000000000000, 1.000000000000000000 ) ) ;
#434 = EDGE_CURVE ( 'NONE', #751, #636, #74, .T. ) ;
#435 = AXIS2_PLACEMENT_3D ( 'NONE', #714, #117, #407 ) ;
#436 = VECTOR ( 'NONE', #215, 1000.000000000000000 ) ;
#437 = VERTEX_POINT ( 'NONE', #270 ) ;
#438 = DIRECTION ( 'NONE',  ( 0.000000000000000000, 0.000000000000000000, 1.000000000000000000 ) ) ;
#439 = ORIENTED_EDGE ( 'NONE', *, *, #996, .F. ) ;
#440 = LINE ( 'NONE', #250, #421 ) ;
#441 = ORIENTED_EDGE ( 'NONE', *, *, #1122, .T. ) ;
#442 = CARTESIAN_POINT ( 'NONE',  ( -8.000000000000000000, -19.00000000000001066, 0.000000000000000000 ) ) ;
#443 = VECTOR ( 'NONE', #316, 1000.000000000000000 ) ;
#444 = VERTEX_POINT ( 'NONE', #380 ) ;
#445 = VERTEX_POINT ( 'NONE', #1037 ) ;
#446 = DIRECTION ( 'NONE',  ( 0.000000000000000000, 0.000000000000000000, 1.000000000000000000 ) ) ;
#447 = ORIENTED_EDGE ( 'NONE', *, *, #51, .T. ) ;
#448 = EDGE_CURVE ( 'NONE', #242, #263, #560, .T. ) ;
#449 = FACE_BOUND ( 'NONE', #1248, .T. ) ;
#450 = ORIENTED_EDGE ( 'NONE', *, *, #1263, .T. ) ;
#451 = VECTOR ( 'NONE', #709, 1000.000000000000000 ) ;
#452 = CARTESIAN_POINT ( 'NONE',  ( -7.400000000000003020, -5.000000000000000888, 2.000000000000000000 ) ) ;
#453 = ORIENTED_EDGE ( 'NONE', *, *, #587, .F. ) ;
#454 = CARTESIAN_POINT ( 'NONE',  ( 5.000000000000003553, -20.00000000000000355, 2.000000000000000000 ) ) ;
#455 = CIRCLE ( 'NONE', #614, 1.250000000000000222 ) ;
#456 = ORIENTED_EDGE ( 'NONE', *, *, #846, .F. ) ;
#457 = LINE ( 'NONE', #1246, #958 ) ;
#458 = DIRECTION ( 'NONE',  ( 1.000000000000000000, 0.000000000000000000, 0.000000000000000000 ) ) ;
#459 = ORIENTED_EDGE ( 'NONE', *, *, #1022, .F. ) ;
#460 = DIRECTION ( 'NONE',  ( -1.000000000000000000, 0.000000000000000000, 0.000000000000000000 ) ) ;
#461 = AXIS2_PLACEMENT_3D ( 'NONE', #53, #1129, #1121 ) ;
#462 = EDGE_LOOP ( 'NONE', ( #1136, #1099 ) ) ;
#463 = AXIS2_PLACEMENT_3D ( 'NONE', #748, #173, #956 ) ;
#464 = ADVANCED_FACE ( 'NONE', ( #277 ), #665, .F. ) ;
#465 = DIRECTION ( 'NONE',  ( -0.000000000000000000, -0.000000000000000000, -1.000000000000000000 ) ) ;
#466 = ORIENTED_EDGE ( 'NONE', *, *, #448, .T. ) ;
#467 = LINE ( 'NONE', #856, #923 ) ;
#468 = CYLINDRICAL_SURFACE ( 'NONE', #890, 1.250000000000000222 ) ;
#469 = ADVANCED_FACE ( 'NONE', ( #761 ), #566, .F. ) ;
#470 = ORIENTED_EDGE ( 'NONE', *, *, #20, .F. ) ;
#471 = CARTESIAN_POINT ( 'NONE',  ( -6.749999999999994671, -31.00000000000000711, 0.000000000000000000 ) ) ;
#472 = EDGE_LOOP ( 'NONE', ( #937, #817, #918, #852 ) ) ;
#473 = CARTESIAN_POINT ( 'NONE',  ( 3.000000000000002220, -14.00000000000000533, 4.000000000000000000 ) ) ;
#474 = CARTESIAN_POINT ( 'NONE',  ( -9.249999999999996447, -31.00000000000000711, 2.000000000000000000 ) ) ;
#475 = AXIS2_PLACEMENT_3D ( 'NONE', #704, #986, #504 ) ;
#476 = ORIENTED_EDGE ( 'NONE', *, *, #403, .T. ) ;
#477 = DIRECTION ( 'NONE',  ( -1.000000000000000000, -2.168404344971009361E-16, 0.000000000000000000 ) ) ;
#478 = ORIENTED_EDGE ( 'NONE', *, *, #631, .F. ) ;
#479 = DIRECTION ( 'NONE',  ( -0.000000000000000000, -0.000000000000000000, -1.000000000000000000 ) ) ;
#480 = CIRCLE ( 'NONE', #193, 1.250000000000000222 ) ;
#481 = DIRECTION ( 'NONE',  ( -0.000000000000000000, -0.000000000000000000, 1.000000000000000000 ) ) ;
#482 = VECTOR ( 'NONE', #1160, 1000.000000000000000 ) ;
#483 = CARTESIAN_POINT ( 'NONE',  ( 9.000000000000003553, -20.00000000000000355, 4.000000000000000000 ) ) ;
#484 = ORIENTED_EDGE ( 'NONE', *, *, #947, .T. ) ;
#485 = PLANE ( 'NONE',  #600 ) ;
#486 = EDGE_CURVE ( 'NONE', #636, #1229, #160, .T. ) ;
#487 = ORIENTED_EDGE ( 'NONE', *, *, #434, .F. ) ;
#488 = AXIS2_PLACEMENT_3D ( 'NONE', #1084, #1101, #401 ) ;
#489 = CARTESIAN_POINT ( 'NONE',  ( 10.59999999999999964, 5.000000000000001776, 2.000000000000000000 ) ) ;
#490 = ORIENTED_EDGE ( 'NONE', *, *, #764, .T. ) ;
#491 = CARTESIAN_POINT ( 'NONE',  ( -9.250000000000001776, -19.00000000000001066, 2.000000000000000000 ) ) ;
#492 = CARTESIAN_POINT ( 'NONE',  ( -7.999999999999994671, -31.00000000000000711, 0.000000000000000000 ) ) ;
#493 = CIRCLE ( 'NONE', #678, 1.599999999999999867 ) ;
#494 = DIRECTION ( 'NONE',  ( 0.000000000000000000, 0.000000000000000000, 1.000000000000000000 ) ) ;
#495 = ORIENTED_EDGE ( 'NONE', *, *, #630, .F. ) ;
#496 = DIRECTION ( 'NONE',  ( 1.000000000000000000, 0.000000000000000000, 0.000000000000000000 ) ) ;
#497 = CARTESIAN_POINT ( 'NONE',  ( -10.60000000000000497, 4.999999999999999112, 0.000000000000000000 ) ) ;
#498 = CARTESIAN_POINT ( 'NONE',  ( -9.000000000000003553, -5.000000000000000888, 2.000000000000000000 ) ) ;
#499 = DIRECTION ( 'NONE',  ( 0.000000000000000000, 0.000000000000000000, 1.000000000000000000 ) ) ;
#500 = ADVANCED_FACE ( 'NONE', ( #185 ), #88, .F. ) ;
#501 = FACE_OUTER_BOUND ( 'NONE', #1031, .T. ) ;
#502 = ORIENTED_EDGE ( 'NONE', *, *, #1180, .T. ) ;
#503 = LINE ( 'NONE', #420, #1079 ) ;
#504 = DIRECTION ( 'NONE',  ( -1.000000000000000000, 0.000000000000000000, 0.000000000000000000 ) ) ;
#505 = DIRECTION ( 'NONE',  ( -0.000000000000000000, -0.000000000000000000, 1.000000000000000000 ) ) ;
#506 = CIRCLE ( 'NONE', #1224, 1.250000000000000222 ) ;
#507 = ORIENTED_EDGE ( 'NONE', *, *, #76, .T. ) ;
#508 = VECTOR ( 'NONE', #769, 1000.000000000000000 ) ;
#509 = DIRECTION ( 'NONE',  ( -1.000000000000000000, 0.000000000000000000, 0.000000000000000000 ) ) ;
#510 = VECTOR ( 'NONE', #610, 1000.000000000000000 ) ;
#511 = ORIENTED_EDGE ( 'NONE', *, *, #1082, .T. ) ;
#512 = CARTESIAN_POINT ( 'NONE',  ( 11.00000000000000178, -14.00000000000000355, 2.000000000000000000 ) ) ;
#513 = DIRECTION ( 'NONE',  ( -0.000000000000000000, -0.000000000000000000, 1.000000000000000000 ) ) ;
#514 = CIRCLE ( 'NONE', #314, 1.600000000000000755 ) ;
#515 = EDGE_CURVE ( 'NONE', #1229, #159, #768, .T. ) ;
#516 = EDGE_LOOP ( 'NONE', ( #369, #604, #296, #1255 ) ) ;
#517 = DIRECTION ( 'NONE',  ( -1.000000000000000000, 0.000000000000000000, 0.000000000000000000 ) ) ;
#518 = ORIENTED_EDGE ( 'NONE', *, *, #335, .T. ) ;
#519 = EDGE_CURVE ( 'NONE', #1010, #664, #576, .T. ) ;
#520 = CARTESIAN_POINT ( 'NONE',  ( 5.000000000000003553, -20.00000000000000355, 4.000000000000000000 ) ) ;
#521 = AXIS2_PLACEMENT_3D ( 'NONE', #922, #446, #836 ) ;
#522 = DIRECTION ( 'NONE',  ( -0.000000000000000000, 0.000000000000000000, -1.000000000000000000 ) ) ;
#523 = CIRCLE ( 'NONE', #1237, 2.000000000000000000 ) ;
#524 = LINE ( 'NONE', #1179, #694 ) ;
#525 = CIRCLE ( 'NONE', #1239, 2.000000000000000000 ) ;
#526 = VERTEX_POINT ( 'NONE', #34 ) ;
#527 = CARTESIAN_POINT ( 'NONE',  ( -7.400000000000004796, 4.999999999999999112, 0.000000000000000000 ) ) ;
#528 = ADVANCED_FACE ( 'NONE', ( #324 ), #218, .F. ) ;
#529 = CARTESIAN_POINT ( 'NONE',  ( -7.400000000000004796, 4.999999999999999112, 2.000000000000000000 ) ) ;
#530 = ORIENTED_EDGE ( 'NONE', *, *, #840, .T. ) ;
#531 = FACE_BOUND ( 'NONE', #154, .T. ) ;
#532 = CARTESIAN_POINT ( 'NONE',  ( 11.00000000000000888, -40.00000000000000711, 0.000000000000000000 ) ) ;
#533 = DIRECTION ( 'NONE',  ( 1.000000000000000000, 0.000000000000000000, 0.000000000000000000 ) ) ;
#534 = CIRCLE ( 'NONE', #1103, 1.599999999999999867 ) ;
#535 = VECTOR ( 'NONE', #804, 1000.000000000000000 ) ;
#536 = VERTEX_POINT ( 'NONE', #1001 ) ;
#537 = DIRECTION ( 'NONE',  ( 1.000000000000000000, 0.000000000000000000, 0.000000000000000000 ) ) ;
#538 = EDGE_LOOP ( 'NONE', ( #921, #838 ) ) ;
#539 = EDGE_CURVE ( 'NONE', #129, #304, #892, .T. ) ;
#540 = ADVANCED_FACE ( 'NONE', ( #1100 ), #702, .F. ) ;
#541 = CARTESIAN_POINT ( 'NONE',  ( 13.00000000000000888, -38.00000000000000711, 2.000000000000000000 ) ) ;
#542 = EDGE_CURVE ( 'NONE', #723, #174, #1086, .T. ) ;
#543 = ORIENTED_EDGE ( 'NONE', *, *, #587, .T. ) ;
#544 = DIRECTION ( 'NONE',  ( 1.000000000000000000, 0.000000000000000000, 0.000000000000000000 ) ) ;
#545 = AXIS2_PLACEMENT_3D ( 'NONE', #1114, #248, #537 ) ;
#546 = ORIENTED_EDGE ( 'NONE', *, *, #232, .T. ) ;
#547 = VERTEX_POINT ( 'NONE', #713 ) ;
#548 = CARTESIAN_POINT ( 'NONE',  ( 0.000000000000000000, 0.000000000000000000, 0.000000000000000000 ) ) ;
#549 = CIRCLE ( 'NONE', #607, 1.600000000000002531 ) ;
#550 = ORIENTED_EDGE ( 'NONE', *, *, #812, .F. ) ;
#551 = VECTOR ( 'NONE', #1257, 1000.000000000000000 ) ;
#552 = FACE_OUTER_BOUND ( 'NONE', #516, .T. ) ;
#553 = ORIENTED_EDGE ( 'NONE', *, *, #1222, .F. ) ;
#554 = DIRECTION ( 'NONE',  ( 1.000000000000000000, 0.000000000000000000, 0.000000000000000000 ) ) ;
#555 = VECTOR ( 'NONE', #208, 1000.000000000000000 ) ;
#556 = ADVANCED_FACE ( 'NONE', ( #501 ), #615, .F. ) ;
#557 = ORIENTED_EDGE ( 'NONE', *, *, #574, .F. ) ;
#558 = CARTESIAN_POINT ( 'NONE',  ( 10.99999999999999822, 6.000000000000000000, 0.000000000000000000 ) ) ;
#559 = EDGE_LOOP ( 'NONE', ( #367, #753 ) ) ;
#560 = LINE ( 'NONE', #944, #382 ) ;
#561 = AXIS2_PLACEMENT_3D ( 'NONE', #925, #349, #361 ) ;
#562 = ORIENTED_EDGE ( 'NONE', *, *, #806, .T. ) ;
#563 = EDGE_CURVE ( 'NONE', #1268, #1091, #1201, .T. ) ;
#564 = CARTESIAN_POINT ( 'NONE',  ( 11.00000000000000178, -14.00000000000000355, 4.000000000000000000 ) ) ;
#565 = VERTEX_POINT ( 'NONE', #138 ) ;
#566 = PLANE ( 'NONE',  #706 ) ;
#567 = LINE ( 'NONE', #866, #508 ) ;
#568 = VECTOR ( 'NONE', #308, 1000.000000000000000 ) ;
#569 = DIRECTION ( 'NONE',  ( -1.000000000000000000, 0.000000000000000000, 0.000000000000000000 ) ) ;
#570 = ORIENTED_EDGE ( 'NONE', *, *, #933, .T. ) ;
#571 = DIRECTION ( 'NONE',  ( 2.168404344971008868E-16, -1.000000000000000000, 0.000000000000000000 ) ) ;
#572 = CARTESIAN_POINT ( 'NONE',  ( -10.99999999999999467, -40.00000000000000711, -41.23105625617660763 ) ) ;
#573 = LINE ( 'NONE', #801, #945 ) ;
#574 = EDGE_CURVE ( 'NONE', #419, #1063, #1226, .T. ) ;
#575 = ORIENTED_EDGE ( 'NONE', *, *, #608, .T. ) ;
#576 = LINE ( 'NONE', #965, #443 ) ;
#577 = COLOUR_RGB ( '',0.7921568627450980005, 0.8196078431372548767, 0.9333333333333333481 ) ;
#578 = CARTESIAN_POINT ( 'NONE',  ( 8.999999999999998224, 5.000000000000001776, 0.000000000000000000 ) ) ;
#579 = AXIS2_PLACEMENT_3D ( 'NONE', #483, #196, #383 ) ;
#580 = PLANE ( 'NONE',  #463 ) ;
#581 = ORIENTED_EDGE ( 'NONE', *, *, #1180, .F. ) ;
#582 = CARTESIAN_POINT ( 'NONE',  ( 3.000000000000002665, -20.00000000000000355, 4.000000000000000000 ) ) ;
#583 = DIRECTION ( 'NONE',  ( -0.000000000000000000, 0.000000000000000000, 1.000000000000000000 ) ) ;
#584 = PRODUCT_DEFINITION ( 'æ™', '', #1104, #144 ) ;
#585 = DIRECTION ( 'NONE',  ( -1.000000000000000000, 0.000000000000000000, 0.000000000000000000 ) ) ;
#586 = CARTESIAN_POINT ( 'NONE',  ( 11.00000000000000355, -20.00000000000000355, 4.000000000000000000 ) ) ;
#587 = EDGE_CURVE ( 'NONE', #736, #419, #524, .T. ) ;
#588 = ORIENTED_EDGE ( 'NONE', *, *, #931, .T. ) ;
#589 = CARTESIAN_POINT ( 'NONE',  ( 5.000000000000003553, -22.00000000000000711, 4.000000000000000000 ) ) ;
#590 = VECTOR ( 'NONE', #1102, 1000.000000000000000 ) ;
#591 = DIRECTION ( 'NONE',  ( -0.000000000000000000, -0.000000000000000000, -1.000000000000000000 ) ) ;
#592 = EDGE_LOOP ( 'NONE', ( #354, #749, #495, #757 ) ) ;
#593 = CARTESIAN_POINT ( 'NONE',  ( 8.999999999999998224, 5.000000000000001776, 2.000000000000000000 ) ) ;
#594 = EDGE_LOOP ( 'NONE', ( #484, #1093, #826, #1193 ) ) ;
#595 = CARTESIAN_POINT ( 'NONE',  ( -8.000000000000000000, -19.00000000000001066, 0.000000000000000000 ) ) ;
#596 = ADVANCED_FACE ( 'NONE', ( #405 ), #910, .F. ) ;
#597 =( NAMED_UNIT ( * ) PLANE_ANGLE_UNIT ( ) SI_UNIT ( $, .RADIAN. ) );
#598 = CARTESIAN_POINT ( 'NONE',  ( 3.000000000000002665, -20.00000000000000355, 4.000000000000000000 ) ) ;
#599 = DIRECTION ( 'NONE',  ( 0.000000000000000000, 0.000000000000000000, 1.000000000000000000 ) ) ;
#600 = AXIS2_PLACEMENT_3D ( 'NONE', #969, #80, #1167 ) ;
#601 = VERTEX_POINT ( 'NONE', #689 ) ;
#602 = CARTESIAN_POINT ( 'NONE',  ( -11.00000000000000000, 5.999999999999996447, 0.000000000000000000 ) ) ;
#603 = DIRECTION ( 'NONE',  ( -0.000000000000000000, -0.000000000000000000, -1.000000000000000000 ) ) ;
#604 = ORIENTED_EDGE ( 'NONE', *, *, #1263, .F. ) ;
#605 = CARTESIAN_POINT ( 'NONE',  ( 9.000000000000001776, -16.00000000000000355, 2.000000000000000000 ) ) ;
#606 = DIRECTION ( 'NONE',  ( 0.000000000000000000, 0.000000000000000000, 1.000000000000000000 ) ) ;
#607 = AXIS2_PLACEMENT_3D ( 'NONE', #701, #599, #103 ) ;
#608 = EDGE_CURVE ( 'NONE', #242, #888, #1071, .T. ) ;
#609 = VERTEX_POINT ( 'NONE', #697 ) ;
#610 = DIRECTION ( 'NONE',  ( 0.000000000000000000, 0.000000000000000000, -1.000000000000000000 ) ) ;
#611 = CARTESIAN_POINT ( 'NONE',  ( -6.749999999999998224, -25.00000000000000711, 2.000000000000000000 ) ) ;
#612 = ORIENTED_EDGE ( 'NONE', *, *, #255, .F. ) ;
#613 = DIRECTION ( 'NONE',  ( -0.000000000000000000, -0.000000000000000000, 1.000000000000000000 ) ) ;
#614 = AXIS2_PLACEMENT_3D ( 'NONE', #1052, #867, #195 ) ;
#615 = CYLINDRICAL_SURFACE ( 'NONE', #351, 1.600000000000001643 ) ;
#616 = FACE_OUTER_BOUND ( 'NONE', #1196, .T. ) ;
#617 = ADVANCED_FACE ( 'NONE', ( #1077 ), #113, .F. ) ;
#618 = DIRECTION ( 'NONE',  ( -1.000000000000000000, 0.000000000000000000, 0.000000000000000000 ) ) ;
#619 = CARTESIAN_POINT ( 'NONE',  ( -9.250000000000000000, -25.00000000000000711, 2.000000000000000000 ) ) ;
#620 = VECTOR ( 'NONE', #477, 1000.000000000000000 ) ;
#621 = ORIENTED_EDGE ( 'NONE', *, *, #320, .T. ) ;
#622 = FACE_OUTER_BOUND ( 'NONE', #1219, .T. ) ;
#623 = VERTEX_POINT ( 'NONE', #1188 ) ;
#624 = PLANE ( 'NONE',  #356 ) ;
#625 = CARTESIAN_POINT ( 'NONE',  ( 5.000000000000002665, -16.00000000000000355, 4.000000000000000000 ) ) ;
#626 = ORIENTED_EDGE ( 'NONE', *, *, #1122, .F. ) ;
#627 = LINE ( 'NONE', #1221, #139 ) ;
#628 = AXIS2_PLACEMENT_3D ( 'NONE', #228, #28, #423 ) ;
#629 = ORIENTED_EDGE ( 'NONE', *, *, #33, .F. ) ;
#630 = EDGE_CURVE ( 'NONE', #174, #1231, #1009, .T. ) ;
#631 = EDGE_CURVE ( 'NONE', #1018, #178, #895, .T. ) ;
#632 = DIRECTION ( 'NONE',  ( -1.000000000000000000, 0.000000000000000000, 0.000000000000000000 ) ) ;
#633 = AXIS2_PLACEMENT_3D ( 'NONE', #927, #1137, #63 ) ;
#634 = ORIENTED_EDGE ( 'NONE', *, *, #1238, .T. ) ;
#635 = CARTESIAN_POINT ( 'NONE',  ( -7.999999999999996447, -37.00000000000000711, 0.000000000000000000 ) ) ;
#636 = VERTEX_POINT ( 'NONE', #802 ) ;
#637 = VERTEX_POINT ( 'NONE', #1195 ) ;
#638 = CARTESIAN_POINT ( 'NONE',  ( -7.999999999999998224, -25.00000000000000711, 0.000000000000000000 ) ) ;
#639 = ORIENTED_EDGE ( 'NONE', *, *, #519, .F. ) ;
#640 = FACE_BOUND ( 'NONE', #462, .T. ) ;
#641 = VECTOR ( 'NONE', #191, 1000.000000000000000 ) ;
#642 = VERTEX_POINT ( 'NONE', #1092 ) ;
#643 = DIRECTION ( 'NONE',  ( -1.000000000000000000, 0.000000000000000000, 0.000000000000000000 ) ) ;
#644 = EDGE_CURVE ( 'NONE', #12, #444, #952, .T. ) ;
#645 = ORIENTED_EDGE ( 'NONE', *, *, #812, .T. ) ;
#646 = DIRECTION ( 'NONE',  ( -0.000000000000000000, -0.000000000000000000, -1.000000000000000000 ) ) ;
#647 = EDGE_CURVE ( 'NONE', #157, #526, #78, .T. ) ;
#648 = ORIENTED_EDGE ( 'NONE', *, *, #372, .T. ) ;
#649 = CARTESIAN_POINT ( 'NONE',  ( 10.59999999999999609, -4.999999999999998224, 2.000000000000000000 ) ) ;
#650 = ORIENTED_EDGE ( 'NONE', *, *, #97, .T. ) ;
#651 = DIRECTION ( 'NONE',  ( -1.000000000000000000, -2.168404344971008868E-16, 0.000000000000000000 ) ) ;
#652 = AXIS2_PLACEMENT_3D ( 'NONE', #721, #613, #1205 ) ;
#653 = EDGE_CURVE ( 'NONE', #664, #242, #411, .T. ) ;
#654 = ORIENTED_EDGE ( 'NONE', *, *, #20, .T. ) ;
#655 = DIRECTION ( 'NONE',  ( 1.000000000000000000, -0.000000000000000000, -0.000000000000000000 ) ) ;
#656 = ORIENTED_EDGE ( 'NONE', *, *, #1126, .F. ) ;
#657 = CYLINDRICAL_SURFACE ( 'NONE', #70, 1.599999999999999867 ) ;
#658 = ORIENTED_EDGE ( 'NONE', *, *, #358, .T. ) ;
#659 = DIRECTION ( 'NONE',  ( 1.000000000000000000, 0.000000000000000000, 0.000000000000000000 ) ) ;
#660 = FACE_OUTER_BOUND ( 'NONE', #592, .T. ) ;
#661 = AXIS2_PLACEMENT_3D ( 'NONE', #919, #438, #725 ) ;
#662 = PRODUCT_RELATED_PRODUCT_CATEGORY ( 'part', '', ( #998 ) ) ;
#663 = CARTESIAN_POINT ( 'NONE',  ( -10.99999999999999467, -40.00000000000000711, 2.000000000000000000 ) ) ;
#664 = VERTEX_POINT ( 'NONE', #1005 ) ;
#665 = CYLINDRICAL_SURFACE ( 'NONE', #1262, 1.250000000000000222 ) ;
#666 = MANIFOLD_SOLID_BREP ( '\X2\570689d2\X0\2', #1078 ) ;
#667 = CARTESIAN_POINT ( 'NONE',  ( -7.400000000000003020, -5.000000000000000888, 2.000000000000000000 ) ) ;
#668 = VECTOR ( 'NONE', #879, 1000.000000000000000 ) ;
#669 = CIRCLE ( 'NONE', #288, 1.600000000000002531 ) ;
#670 = ADVANCED_FACE ( 'NONE', ( #1133 ), #842, .T. ) ;
#671 = AXIS2_PLACEMENT_3D ( 'NONE', #11, #130, #989 ) ;
#672 = CARTESIAN_POINT ( 'NONE',  ( -10.60000000000000142, -5.000000000000000888, 0.000000000000000000 ) ) ;
#673 = DIRECTION ( 'NONE',  ( -1.000000000000000000, 0.000000000000000000, 0.000000000000000000 ) ) ;
#674 = ORIENTED_EDGE ( 'NONE', *, *, #786, .F. ) ;
#675 = DIRECTION ( 'NONE',  ( 0.000000000000000000, 0.000000000000000000, 1.000000000000000000 ) ) ;
#676 = APPLICATION_CONTEXT ( 'automotive_design' ) ;
#677 = CARTESIAN_POINT ( 'NONE',  ( 4.900000000000003020, -18.00000000000001066, 0.000000000000000000 ) ) ;
#678 = AXIS2_PLACEMENT_3D ( 'NONE', #26, #900, #792 ) ;
#679 = EDGE_CURVE ( 'NONE', #843, #876, #321, .T. ) ;
#680 = CARTESIAN_POINT ( 'NONE',  ( 9.000000000000001776, -14.00000000000000355, 2.000000000000000000 ) ) ;
#681 = EDGE_LOOP ( 'NONE', ( #926, #59 ) ) ;
#682 = DIRECTION ( 'NONE',  ( -0.000000000000000000, -0.000000000000000000, 1.000000000000000000 ) ) ;
#683 = STYLED_ITEM ( 'NONE', ( #167 ), #666 ) ;
#684 = VERTEX_POINT ( 'NONE', #619 ) ;
#685 = CIRCLE ( 'NONE', #783, 2.099999999999997868 ) ;
#686 = CIRCLE ( 'NONE', #404, 2.099999999999997868 ) ;
#687 = DIRECTION ( 'NONE',  ( -0.000000000000000000, -0.000000000000000000, -1.000000000000000000 ) ) ;
#688 = ORIENTED_EDGE ( 'NONE', *, *, #1162, .T. ) ;
#689 = CARTESIAN_POINT ( 'NONE',  ( 9.000000000000001776, -14.00000000000000355, 4.000000000000000000 ) ) ;
#690 = ADVANCED_FACE ( 'NONE', ( #552 ), #935, .T. ) ;
#691 = ORIENTED_EDGE ( 'NONE', *, *, #1045, .T. ) ;
#692 = LINE ( 'NONE', #572, #376 ) ;
#693 = FACE_OUTER_BOUND ( 'NONE', #814, .T. ) ;
#694 = VECTOR ( 'NONE', #887, 1000.000000000000000 ) ;
#695 = DIRECTION ( 'NONE',  ( -2.168404344971008375E-16, 1.000000000000000000, -0.000000000000000000 ) ) ;
#696 = ORIENTED_EDGE ( 'NONE', *, *, #86, .T. ) ;
#697 = CARTESIAN_POINT ( 'NONE',  ( -6.749999999999996447, -37.00000000000000711, 2.000000000000000000 ) ) ;
#698 = ORIENTED_EDGE ( 'NONE', *, *, #647, .T. ) ;
#699 = CARTESIAN_POINT ( 'NONE',  ( 8.999999999999998224, 5.000000000000001776, 2.000000000000000000 ) ) ;
#700 = CARTESIAN_POINT ( 'NONE',  ( 8.999999999999998224, 5.000000000000001776, 0.000000000000000000 ) ) ;
#701 = CARTESIAN_POINT ( 'NONE',  ( 8.999999999999998224, 5.000000000000001776, 2.000000000000000000 ) ) ;
#702 = PLANE ( 'NONE',  #1050 ) ;
#703 = LINE ( 'NONE', #108, #941 ) ;
#704 = CARTESIAN_POINT ( 'NONE',  ( 8.999999999999996447, -4.999999999999998224, 2.000000000000000000 ) ) ;
#705 = FACE_OUTER_BOUND ( 'NONE', #168, .T. ) ;
#706 = AXIS2_PLACEMENT_3D ( 'NONE', #473, #95, #861 ) ;
#707 = CARTESIAN_POINT ( 'NONE',  ( -8.000000000000000000, -19.00000000000001066, 0.000000000000000000 ) ) ;
#708 = EDGE_LOOP ( 'NONE', ( #360, #256, #5, #1187 ) ) ;
#709 = DIRECTION ( 'NONE',  ( -0.000000000000000000, -0.000000000000000000, 1.000000000000000000 ) ) ;
#710 = DIRECTION ( 'NONE',  ( 1.000000000000000000, 0.000000000000000000, 0.000000000000000000 ) ) ;
#711 = VECTOR ( 'NONE', #18, 1000.000000000000000 ) ;
#712 = VERTEX_POINT ( 'NONE', #43 ) ;
#713 = CARTESIAN_POINT ( 'NONE',  ( 11.00000000000000178, -16.00000000000000355, 2.000000000000000000 ) ) ;
#714 = CARTESIAN_POINT ( 'NONE',  ( -9.000000000000005329, 4.999999999999999112, 2.000000000000000000 ) ) ;
#715 = EDGE_CURVE ( 'NONE', #445, #1142, #480, .T. ) ;
#716 = FACE_BOUND ( 'NONE', #538, .T. ) ;
#717 = CIRCLE ( 'NONE', #899, 1.599999999999999867 ) ;
#718 = SURFACE_STYLE_FILL_AREA ( #815 ) ;
#719 = EDGE_LOOP ( 'NONE', ( #247, #315, #819, #1134 ) ) ;
#720 = CARTESIAN_POINT ( 'NONE',  ( -10.99999999999999467, -38.00000000000000711, 2.000000000000000000 ) ) ;
#721 = CARTESIAN_POINT ( 'NONE',  ( 7.000000000000000888, -18.00000000000001066, 0.000000000000000000 ) ) ;
#722 = DIRECTION ( 'NONE',  ( -1.000000000000000000, 0.000000000000000000, 0.000000000000000000 ) ) ;
#723 = VERTEX_POINT ( 'NONE', #1213 ) ;
#724 = EDGE_CURVE ( 'NONE', #159, #751, #905, .T. ) ;
#725 = DIRECTION ( 'NONE',  ( 1.000000000000000000, 0.000000000000000000, 0.000000000000000000 ) ) ;
#726 = VERTEX_POINT ( 'NONE', #58 ) ;
#727 = ORIENTED_EDGE ( 'NONE', *, *, #56, .T. ) ;
#728 = EDGE_CURVE ( 'NONE', #869, #1085, #440, .T. ) ;
#729 = ORIENTED_EDGE ( 'NONE', *, *, #1250, .F. ) ;
#730 = FACE_BOUND ( 'NONE', #1172, .T. ) ;
#731 = AXIS2_PLACEMENT_3D ( 'NONE', #788, #973, #430 ) ;
#732 = ORIENTED_EDGE ( 'NONE', *, *, #1015, .F. ) ;
#733 = AXIS2_PLACEMENT_3D ( 'NONE', #1059, #1074, #1069 ) ;
#734 = VERTEX_POINT ( 'NONE', #452 ) ;
#735 = CARTESIAN_POINT ( 'NONE',  ( 9.099999999999997868, -18.00000000000001066, 0.000000000000000000 ) ) ;
#736 = VERTEX_POINT ( 'NONE', #1112 ) ;
#737 = EDGE_CURVE ( 'NONE', #437, #1018, #359, .T. ) ;
#738 = FACE_OUTER_BOUND ( 'NONE', #276, .T. ) ;
#739 = AXIS2_PLACEMENT_3D ( 'NONE', #342, #1119, #722 ) ;
#740 = AXIS2_PLACEMENT_3D ( 'NONE', #720, #311, #243 ) ;
#741 = FILL_AREA_STYLE_COLOUR ( '', #577 ) ;
#742 = EDGE_LOOP ( 'NONE', ( #140, #439 ) ) ;
#743 = FACE_BOUND ( 'NONE', #559, .T. ) ;
#744 = CIRCLE ( 'NONE', #851, 2.000000000000000000 ) ;
#745 = ORIENTED_EDGE ( 'NONE', *, *, #896, .F. ) ;
#746 = DIRECTION ( 'NONE',  ( -2.168404344971008868E-16, 1.000000000000000000, -0.000000000000000000 ) ) ;
#747 = EDGE_CURVE ( 'NONE', #684, #178, #1131, .T. ) ;
#748 = CARTESIAN_POINT ( 'NONE',  ( 0.000000000000000000, -40.00000000000000711, -41.23105625617660763 ) ) ;
#749 = ORIENTED_EDGE ( 'NONE', *, *, #109, .F. ) ;
#750 = FACE_BOUND ( 'NONE', #52, .T. ) ;
#751 = VERTEX_POINT ( 'NONE', #541 ) ;
#752 = DIRECTION ( 'NONE',  ( -1.000000000000000000, 0.000000000000000000, 0.000000000000000000 ) ) ;
#753 = ORIENTED_EDGE ( 'NONE', *, *, #737, .T. ) ;
#754 = DIRECTION ( 'NONE',  ( -2.168404344971008375E-16, 1.000000000000000000, -0.000000000000000000 ) ) ;
#755 = VECTOR ( 'NONE', #1148, 1000.000000000000000 ) ;
#756 = CIRCLE ( 'NONE', #210, 1.250000000000000222 ) ;
#757 = ORIENTED_EDGE ( 'NONE', *, *, #542, .F. ) ;
#758 = DIRECTION ( 'NONE',  ( 1.000000000000000000, 0.000000000000000000, 0.000000000000000000 ) ) ;
#759 = FACE_OUTER_BOUND ( 'NONE', #1107, .T. ) ;
#760 = ORIENTED_EDGE ( 'NONE', *, *, #1139, .T. ) ;
#761 = FACE_OUTER_BOUND ( 'NONE', #136, .T. ) ;
#762 = DIRECTION ( 'NONE',  ( -0.000000000000000000, -0.000000000000000000, 1.000000000000000000 ) ) ;
#763 = AXIS2_PLACEMENT_3D ( 'NONE', #1274, #651, #571 ) ;
#764 = EDGE_CURVE ( 'NONE', #876, #843, #27, .T. ) ;
#765 = CARTESIAN_POINT ( 'NONE',  ( 11.00000000000000178, -14.00000000000000355, 4.000000000000000000 ) ) ;
#766 = CYLINDRICAL_SURFACE ( 'NONE', #579, 2.000000000000000000 ) ;
#767 = ORIENTED_EDGE ( 'NONE', *, *, #1247, .F. ) ;
#768 = LINE ( 'NONE', #1057, #641 ) ;
#769 = DIRECTION ( 'NONE',  ( -0.000000000000000000, -0.000000000000000000, -1.000000000000000000 ) ) ;
#770 = EDGE_CURVE ( 'NONE', #352, #12, #1228, .T. ) ;
#771 = AXIS2_PLACEMENT_3D ( 'NONE', #862, #278, #1275 ) ;
#772 = DIRECTION ( 'NONE',  ( 1.000000000000000000, 0.000000000000000000, 0.000000000000000000 ) ) ;
#773 = DIRECTION ( 'NONE',  ( 1.000000000000000000, 0.000000000000000000, 0.000000000000000000 ) ) ;
#774 = FACE_OUTER_BOUND ( 'NONE', #32, .T. ) ;
#775 = ORIENTED_EDGE ( 'NONE', *, *, #148, .T. ) ;
#776 = FACE_OUTER_BOUND ( 'NONE', #267, .T. ) ;
#777 = CARTESIAN_POINT ( 'NONE',  ( -9.250000000000000000, -25.00000000000000711, 0.000000000000000000 ) ) ;
#778 = DIRECTION ( 'NONE',  ( 0.000000000000000000, 0.000000000000000000, 1.000000000000000000 ) ) ;
#779 = CYLINDRICAL_SURFACE ( 'NONE', #1095, 2.099999999999997868 ) ;
#780 = CARTESIAN_POINT ( 'NONE',  ( -7.999999999999996447, -37.00000000000000711, 2.000000000000000000 ) ) ;
#781 = ORIENTED_EDGE ( 'NONE', *, *, #434, .T. ) ;
#782 = LINE ( 'NONE', #1051, #755 ) ;
#783 = AXIS2_PLACEMENT_3D ( 'NONE', #147, #916, #40 ) ;
#784 = VECTOR ( 'NONE', #287, 1000.000000000000000 ) ;
#785 = DIRECTION ( 'NONE',  ( 0.000000000000000000, 0.000000000000000000, 1.000000000000000000 ) ) ;
#786 = EDGE_CURVE ( 'NONE', #182, #219, #686, .T. ) ;
#787 = ORIENTED_EDGE ( 'NONE', *, *, #170, .F. ) ;
#788 = CARTESIAN_POINT ( 'NONE',  ( 12.99999999999999822, 8.000000000000000000, 2.000000000000000000 ) ) ;
#789 = EDGE_LOOP ( 'NONE', ( #828, #645, #1227, #203 ) ) ;
#790 = CARTESIAN_POINT ( 'NONE',  ( -10.99999999999999467, -40.00000000000000711, 0.000000000000000000 ) ) ;
#791 = CARTESIAN_POINT ( 'NONE',  ( 0.000000000000000000, 0.000000000000000000, 0.000000000000000000 ) ) ;
#792 = DIRECTION ( 'NONE',  ( 1.000000000000000000, 0.000000000000000000, 0.000000000000000000 ) ) ;
#793 = AXIS2_PLACEMENT_3D ( 'NONE', #809, #261, #825 ) ;
#794 = DIRECTION ( 'NONE',  ( 1.000000000000000000, 0.000000000000000000, 0.000000000000000000 ) ) ;
#795 = ORIENTED_EDGE ( 'NONE', *, *, #644, .T. ) ;
#796 = DIRECTION ( 'NONE',  ( -0.000000000000000000, -0.000000000000000000, -1.000000000000000000 ) ) ;
#797 = VERTEX_POINT ( 'NONE', #1060 ) ;
#798 = FACE_BOUND ( 'NONE', #378, .T. ) ;
#799 = CIRCLE ( 'NONE', #253, 2.000000000000000000 ) ;
#800 = DIRECTION ( 'NONE',  ( 1.000000000000000000, 0.000000000000000000, 0.000000000000000000 ) ) ;
#801 = CARTESIAN_POINT ( 'NONE',  ( -0.000000000000000000, -40.00000000000000711, 2.000000000000000000 ) ) ;
#802 = CARTESIAN_POINT ( 'NONE',  ( 13.00000000000000888, -38.00000000000000711, 0.000000000000000000 ) ) ;
#803 = ORIENTED_EDGE ( 'NONE', *, *, #816, .T. ) ;
#804 = DIRECTION ( 'NONE',  ( 0.000000000000000000, 0.000000000000000000, -1.000000000000000000 ) ) ;
#805 = PRESENTATION_LAYER_ASSIGNMENT (  '', '', ( #683 ) ) ;
#806 = EDGE_CURVE ( 'NONE', #263, #601, #30, .T. ) ;
#807 = APPLICATION_CONTEXT ( 'automotive_design' ) ;
#808 = DIRECTION ( 'NONE',  ( -0.000000000000000000, -0.000000000000000000, 1.000000000000000000 ) ) ;
#809 = CARTESIAN_POINT ( 'NONE',  ( -10.99999999999999467, -38.00000000000000711, 0.000000000000000000 ) ) ;
#810 = DIRECTION ( 'NONE',  ( -0.000000000000000000, -0.000000000000000000, 1.000000000000000000 ) ) ;
#811 = ORIENTED_EDGE ( 'NONE', *, *, #292, .F. ) ;
#812 = EDGE_CURVE ( 'NONE', #1212, #123, #183, .T. ) ;
#813 = FACE_OUTER_BOUND ( 'NONE', #1240, .T. ) ;
#814 = EDGE_LOOP ( 'NONE', ( #775, #1120, #1027, #1128 ) ) ;
#815 = FILL_AREA_STYLE ('',( #741 ) ) ;
#816 = EDGE_CURVE ( 'NONE', #45, #47, #93, .T. ) ;
#817 = ORIENTED_EDGE ( 'NONE', *, *, #728, .T. ) ;
#818 = DIRECTION ( 'NONE',  ( 0.000000000000000000, 0.000000000000000000, -1.000000000000000000 ) ) ;
#819 = ORIENTED_EDGE ( 'NONE', *, *, #102, .F. ) ;
#820 = ADVANCED_FACE ( 'NONE', ( #759 ), #766, .T. ) ;
#821 = FACE_OUTER_BOUND ( 'NONE', #855, .T. ) ;
#822 = AXIS2_PLACEMENT_3D ( 'NONE', #422, #433, #710 ) ;
#823 = ADVANCED_FACE ( 'NONE', ( #1138 ), #189, .T. ) ;
#824 = ORIENTED_EDGE ( 'NONE', *, *, #971, .T. ) ;
#825 = DIRECTION ( 'NONE',  ( -1.000000000000000000, 0.000000000000000000, 0.000000000000000000 ) ) ;
#826 = ORIENTED_EDGE ( 'NONE', *, *, #1146, .F. ) ;
#827 = FACE_OUTER_BOUND ( 'NONE', #171, .T. ) ;
#828 = ORIENTED_EDGE ( 'NONE', *, *, #1038, .T. ) ;
#829 = CARTESIAN_POINT ( 'NONE',  ( -7.999999999999998224, -25.00000000000000711, 2.000000000000000000 ) ) ;
#830 = CIRCLE ( 'NONE', #1024, 1.599999999999999867 ) ;
#831 = ORIENTED_EDGE ( 'NONE', *, *, #102, .T. ) ;
#832 = DIRECTION ( 'NONE',  ( 0.000000000000000000, -0.000000000000000000, -1.000000000000000000 ) ) ;
#833 = ORIENTED_EDGE ( 'NONE', *, *, #148, .F. ) ;
#834 = ORIENTED_EDGE ( 'NONE', *, *, #563, .F. ) ;
#835 = AXIS2_PLACEMENT_3D ( 'NONE', #216, #494, #1170 ) ;
#836 = DIRECTION ( 'NONE',  ( 1.000000000000000000, 0.000000000000000000, 0.000000000000000000 ) ) ;
#837 = AXIS2_PLACEMENT_3D ( 'NONE', #201, #583, #101 ) ;
#838 = ORIENTED_EDGE ( 'NONE', *, *, #764, .F. ) ;
#839 = FACE_OUTER_BOUND ( 'NONE', #1039, .T. ) ;
#840 = EDGE_CURVE ( 'NONE', #1200, #352, #744, .T. ) ;
#841 = VERTEX_POINT ( 'NONE', #680 ) ;
#842 = CYLINDRICAL_SURFACE ( 'NONE', #299, 2.000000000000000000 ) ;
#843 = VERTEX_POINT ( 'NONE', #1034 ) ;
#844 = CARTESIAN_POINT ( 'NONE',  ( 5.000000000000003553, -20.00000000000000355, 4.000000000000000000 ) ) ;
#845 = ORIENTED_EDGE ( 'NONE', *, *, #1049, .T. ) ;
#846 = EDGE_CURVE ( 'NONE', #943, #45, #302, .T. ) ;
#847 = AXIS2_PLACEMENT_3D ( 'NONE', #635, #153, #544 ) ;
#848 = LINE ( 'NONE', #1241, #1175 ) ;
#849 = ORIENTED_EDGE ( 'NONE', *, *, #539, .F. ) ;
#850 = FACE_BOUND ( 'NONE', #198, .T. ) ;
#851 = AXIS2_PLACEMENT_3D ( 'NONE', #859, #268, #752 ) ;
#852 = ORIENTED_EDGE ( 'NONE', *, *, #86, .F. ) ;
#853 = CYLINDRICAL_SURFACE ( 'NONE', #633, 1.600000000000000755 ) ;
#854 = CARTESIAN_POINT ( 'NONE',  ( 9.000000000000001776, -16.00000000000000355, 4.000000000000000000 ) ) ;
#855 = EDGE_LOOP ( 'NONE', ( #345, #727, #163, #478 ) ) ;
#856 = CARTESIAN_POINT ( 'NONE',  ( -6.749999999999996447, -37.00000000000000711, 0.000000000000000000 ) ) ;
#857 = AXIS2_PLACEMENT_3D ( 'NONE', #1173, #303, #204 ) ;
#858 = DIRECTION ( 'NONE',  ( 1.000000000000000000, 0.000000000000000000, 0.000000000000000000 ) ) ;
#859 = CARTESIAN_POINT ( 'NONE',  ( 5.000000000000002665, -16.00000000000000355, 2.000000000000000000 ) ) ;
#860 = ORIENTED_EDGE ( 'NONE', *, *, #1082, .F. ) ;
#861 = DIRECTION ( 'NONE',  ( -1.084202172485504434E-16, 1.000000000000000000, 0.000000000000000000 ) ) ;
#862 = CARTESIAN_POINT ( 'NONE',  ( -9.000000000000003553, -5.000000000000000888, 0.000000000000000000 ) ) ;
#863 = DIRECTION ( 'NONE',  ( -0.000000000000000000, -0.000000000000000000, 1.000000000000000000 ) ) ;
#864 = EDGE_LOOP ( 'NONE', ( #729, #781, #570, #543 ) ) ;
#865 = LINE ( 'NONE', #1064, #116 ) ;
#866 = CARTESIAN_POINT ( 'NONE',  ( 7.399999999999995914, -4.999999999999998224, 2.000000000000000000 ) ) ;
#867 = DIRECTION ( 'NONE',  ( 0.000000000000000000, 0.000000000000000000, 1.000000000000000000 ) ) ;
#868 = CARTESIAN_POINT ( 'NONE',  ( 7.000000000000000888, -18.00000000000001066, 0.000000000000000000 ) ) ;
#869 = VERTEX_POINT ( 'NONE', #649 ) ;
#870 = CARTESIAN_POINT ( 'NONE',  ( -9.000000000000003553, -5.000000000000000888, 2.000000000000000000 ) ) ;
#871 = CARTESIAN_POINT ( 'NONE',  ( -7.999999999999998224, -25.00000000000000711, 0.000000000000000000 ) ) ;
#872 = CIRCLE ( 'NONE', #488, 1.600000000000000755 ) ;
#873 = ADVANCED_FACE ( 'NONE', ( #774 ), #657, .F. ) ;
#874 = CARTESIAN_POINT ( 'NONE',  ( 10.59999999999999964, 5.000000000000001776, 0.000000000000000000 ) ) ;
#875 = DIRECTION ( 'NONE',  ( 1.000000000000000000, 0.000000000000000000, 0.000000000000000000 ) ) ;
#876 = VERTEX_POINT ( 'NONE', #281 ) ;
#877 = DIRECTION ( 'NONE',  ( 1.000000000000000000, 0.000000000000000000, 0.000000000000000000 ) ) ;
#878 = CARTESIAN_POINT ( 'NONE',  ( 7.399999999999995026, 5.000000000000001776, 0.000000000000000000 ) ) ;
#879 = DIRECTION ( 'NONE',  ( 1.084202172485504434E-16, -1.000000000000000000, 0.000000000000000000 ) ) ;
#880 = VERTEX_POINT ( 'NONE', #663 ) ;
#881 = CARTESIAN_POINT ( 'NONE',  ( -13.00000000000000000, 7.999999999999996447, 2.000000000000000000 ) ) ;
#882 = ORIENTED_EDGE ( 'NONE', *, *, #1146, .T. ) ;
#883 = FACE_BOUND ( 'NONE', #742, .T. ) ;
#884 = DIRECTION ( 'NONE',  ( 2.168404344971009361E-16, -1.000000000000000000, 0.000000000000000000 ) ) ;
#885 = CARTESIAN_POINT ( 'NONE',  ( 11.00000000000000178, -14.00000000000000355, 2.000000000000000000 ) ) ;
#886 = ORIENTED_EDGE ( 'NONE', *, *, #1126, .T. ) ;
#887 = DIRECTION ( 'NONE',  ( -0.000000000000000000, -0.000000000000000000, 1.000000000000000000 ) ) ;
#888 = VERTEX_POINT ( 'NONE', #1054 ) ;
#889 = CARTESIAN_POINT ( 'NONE',  ( 9.099999999999997868, -18.00000000000001066, 0.000000000000000000 ) ) ;
#890 = AXIS2_PLACEMENT_3D ( 'NONE', #871, #960, #305 ) ;
#891 = DIRECTION ( 'NONE',  ( 0.000000000000000000, 0.000000000000000000, 1.000000000000000000 ) ) ;
#892 = CIRCLE ( 'NONE', #1183, 1.250000000000000222 ) ;
#893 = CARTESIAN_POINT ( 'NONE',  ( 9.000000000000003553, -22.00000000000000711, 2.000000000000000000 ) ) ;
#894 = EDGE_CURVE ( 'NONE', #1200, #642, #1150, .T. ) ;
#895 = LINE ( 'NONE', #22, #149 ) ;
#896 = EDGE_CURVE ( 'NONE', #712, #736, #525, .T. ) ;
#897 = ORIENTED_EDGE ( 'NONE', *, *, #1096, .T. ) ;
#898 = CARTESIAN_POINT ( 'NONE',  ( 11.00000000000000888, -40.00000000000000711, 2.000000000000000000 ) ) ;
#899 = AXIS2_PLACEMENT_3D ( 'NONE', #498, #188, #758 ) ;
#900 = DIRECTION ( 'NONE',  ( 0.000000000000000000, 0.000000000000000000, 1.000000000000000000 ) ) ;
#901 = EDGE_LOOP ( 'NONE', ( #1233, #1251 ) ) ;
#902 = DIRECTION ( 'NONE',  ( 0.000000000000000000, 0.000000000000000000, 1.000000000000000000 ) ) ;
#903 = ADVANCED_FACE ( 'NONE', ( #1041 ), #580, .F. ) ;
#904 = DIRECTION ( 'NONE',  ( -1.000000000000000000, 0.000000000000000000, 0.000000000000000000 ) ) ;
#905 = CIRCLE ( 'NONE', #739, 2.000000000000000000 ) ;
#906 = AXIS2_PLACEMENT_3D ( 'NONE', #442, #169, #554 ) ;
#907 = ORIENTED_EDGE ( 'NONE', *, *, #232, .F. ) ;
#908 = CARTESIAN_POINT ( 'NONE',  ( -13.00000000000000000, 7.999999999999996447, 2.000000000000000000 ) ) ;
#909 = ORIENTED_EDGE ( 'NONE', *, *, #61, .F. ) ;
#910 = CYLINDRICAL_SURFACE ( 'NONE', #857, 1.600000000000000755 ) ;
#911 = ORIENTED_EDGE ( 'NONE', *, *, #97, .F. ) ;
#912 = DIRECTION ( 'NONE',  ( 1.000000000000000000, 0.000000000000000000, 0.000000000000000000 ) ) ;
#913 = UNCERTAINTY_MEASURE_WITH_UNIT (LENGTH_MEASURE( 1.000000000000000082E-05 ), #214, 'distance_accuracy_value', 'NONE');
#914 = CARTESIAN_POINT ( 'NONE',  ( -7.999999999999996447, -37.00000000000000711, 0.000000000000000000 ) ) ;
#915 = ORIENTED_EDGE ( 'NONE', *, *, #933, .F. ) ;
#916 = DIRECTION ( 'NONE',  ( 0.000000000000000000, 0.000000000000000000, 1.000000000000000000 ) ) ;
#917 = CARTESIAN_POINT ( 'NONE',  ( 9.000000000000003553, -20.00000000000000355, 4.000000000000000000 ) ) ;
#918 = ORIENTED_EDGE ( 'NONE', *, *, #1053, .F. ) ;
#919 = CARTESIAN_POINT ( 'NONE',  ( -7.999999999999998224, -25.00000000000000711, 2.000000000000000000 ) ) ;
#920 = ORIENTED_EDGE ( 'NONE', *, *, #1045, .F. ) ;
#921 = ORIENTED_EDGE ( 'NONE', *, *, #679, .F. ) ;
#922 = CARTESIAN_POINT ( 'NONE',  ( 7.000000000000000888, -18.00000000000001066, 4.000000000000000000 ) ) ;
#923 = VECTOR ( 'NONE', #682, 1000.000000000000000 ) ;
#924 = ORIENTED_EDGE ( 'NONE', *, *, #1040, .T. ) ;
#925 = CARTESIAN_POINT ( 'NONE',  ( 0.000000000000000000, 0.000000000000000000, 2.000000000000000000 ) ) ;
#926 = ORIENTED_EDGE ( 'NONE', *, *, #1053, .T. ) ;
#927 = CARTESIAN_POINT ( 'NONE',  ( -9.000000000000005329, 4.999999999999999112, 2.000000000000000000 ) ) ;
#928 = CIRCLE ( 'NONE', #835, 1.250000000000000222 ) ;
#929 = DIRECTION ( 'NONE',  ( 0.000000000000000000, 0.000000000000000000, -1.000000000000000000 ) ) ;
#930 = ORIENTED_EDGE ( 'NONE', *, *, #61, .T. ) ;
#931 = EDGE_CURVE ( 'NONE', #1142, #726, #177, .T. ) ;
#932 = DIRECTION ( 'NONE',  ( -0.000000000000000000, -0.000000000000000000, 1.000000000000000000 ) ) ;
#933 = EDGE_CURVE ( 'NONE', #636, #736, #848, .T. ) ;
#934 = ORIENTED_EDGE ( 'NONE', *, *, #403, .F. ) ;
#935 = CYLINDRICAL_SURFACE ( 'NONE', #1021, 2.000000000000000000 ) ;
#936 = AXIS2_PLACEMENT_3D ( 'NONE', #127, #37, #1008 ) ;
#937 = ORIENTED_EDGE ( 'NONE', *, *, #1081, .T. ) ;
#938 = CYLINDRICAL_SURFACE ( 'NONE', #1062, 2.000000000000000000 ) ;
#939 = ORIENTED_EDGE ( 'NONE', *, *, #9, .F. ) ;
#940 = EDGE_CURVE ( 'NONE', #601, #12, #72, .T. ) ;
#941 = VECTOR ( 'NONE', #1203, 1000.000000000000000 ) ;
#942 = DIRECTION ( 'NONE',  ( -2.168404344971008868E-16, 1.000000000000000000, -0.000000000000000000 ) ) ;
#943 = VERTEX_POINT ( 'NONE', #471 ) ;
#944 = CARTESIAN_POINT ( 'NONE',  ( 11.00000000000000178, -14.00000000000000355, 4.000000000000000000 ) ) ;
#945 = VECTOR ( 'NONE', #585, 1000.000000000000000 ) ;
#946 = VERTEX_POINT ( 'NONE', #1157 ) ;
#947 = EDGE_CURVE ( 'NONE', #159, #880, #573, .T. ) ;
#948 = EDGE_CURVE ( 'NONE', #444, #384, #1272, .T. ) ;
#949 = DIRECTION ( 'NONE',  ( 0.000000000000000000, 0.000000000000000000, -1.000000000000000000 ) ) ;
#950 = ORIENTED_EDGE ( 'NONE', *, *, #1015, .T. ) ;
#951 = CARTESIAN_POINT ( 'NONE',  ( 3.000000000000002220, -16.00000000000000355, 4.000000000000000000 ) ) ;
#952 = CIRCLE ( 'NONE', #628, 2.000000000000000000 ) ;
#953 = DIRECTION ( 'NONE',  ( -0.000000000000000000, -0.000000000000000000, -1.000000000000000000 ) ) ;
#954 = CARTESIAN_POINT ( 'NONE',  ( -10.60000000000000142, -5.000000000000000888, 2.000000000000000000 ) ) ;
#955 = ORIENTED_EDGE ( 'NONE', *, *, #155, .T. ) ;
#956 = DIRECTION ( 'NONE',  ( 0.000000000000000000, 0.000000000000000000, 1.000000000000000000 ) ) ;
#957 = ORIENTED_EDGE ( 'NONE', *, *, #1162, .F. ) ;
#958 = VECTOR ( 'NONE', #655, 1000.000000000000000 ) ;
#959 = DIRECTION ( 'NONE',  ( -0.000000000000000000, -0.000000000000000000, 1.000000000000000000 ) ) ;
#960 = DIRECTION ( 'NONE',  ( -0.000000000000000000, -0.000000000000000000, 1.000000000000000000 ) ) ;
#961 = ORIENTED_EDGE ( 'NONE', *, *, #155, .F. ) ;
#962 = DIRECTION ( 'NONE',  ( -0.000000000000000000, -0.000000000000000000, 1.000000000000000000 ) ) ;
#963 = ADVANCED_FACE ( 'NONE', ( #972 ), #779, .F. ) ;
#964 = ORIENTED_EDGE ( 'NONE', *, *, #1222, .T. ) ;
#965 = CARTESIAN_POINT ( 'NONE',  ( 9.000000000000003553, -22.00000000000000711, 4.000000000000000000 ) ) ;
#966 = DIRECTION ( 'NONE',  ( 0.000000000000000000, 0.000000000000000000, 1.000000000000000000 ) ) ;
#967 = CARTESIAN_POINT ( 'NONE',  ( -9.249999999999998224, -37.00000000000000711, 0.000000000000000000 ) ) ;
#968 = ORIENTED_EDGE ( 'NONE', *, *, #1250, .T. ) ;
#969 = CARTESIAN_POINT ( 'NONE',  ( 11.00000000000000355, -22.00000000000000711, 4.000000000000000000 ) ) ;
#970 = FACE_OUTER_BOUND ( 'NONE', #1214, .T. ) ;
#971 = EDGE_CURVE ( 'NONE', #1042, #348, #506, .T. ) ;
#972 = FACE_OUTER_BOUND ( 'NONE', #71, .T. ) ;
#973 = DIRECTION ( 'NONE',  ( 1.334402673828313586E-16, -1.000000000000000000, 0.000000000000000000 ) ) ;
#974 = ORIENTED_EDGE ( 'NONE', *, *, #1207, .F. ) ;
#975 = AXIS2_PLACEMENT_3D ( 'NONE', #75, #96, #1176 ) ;
#976 = CIRCLE ( 'NONE', #435, 1.599999999999999867 ) ;
#977 = DIRECTION ( 'NONE',  ( 1.000000000000000000, 0.000000000000000000, 0.000000000000000000 ) ) ;
#978 = VECTOR ( 'NONE', #808, 1000.000000000000000 ) ;
#979 = CARTESIAN_POINT ( 'NONE',  ( -7.999999999999996447, -37.00000000000000711, 0.000000000000000000 ) ) ;
#980 = ORIENTED_EDGE ( 'NONE', *, *, #226, .F. ) ;
#981 = DIRECTION ( 'NONE',  ( -0.000000000000000000, -0.000000000000000000, -1.000000000000000000 ) ) ;
#982 = EDGE_LOOP ( 'NONE', ( #950, #57, #406, #310 ) ) ;
#983 = CARTESIAN_POINT ( 'NONE',  ( 4.900000000000003020, -18.00000000000001066, 0.000000000000000000 ) ) ;
#984 = ADVANCED_FACE ( 'NONE', ( #705 ), #313, .F. ) ;
#985 =( NAMED_UNIT ( * ) SI_UNIT ( $, .STERADIAN. ) SOLID_ANGLE_UNIT ( ) );
#986 = DIRECTION ( 'NONE',  ( -0.000000000000000000, -0.000000000000000000, -1.000000000000000000 ) ) ;
#987 = DIRECTION ( 'NONE',  ( -0.000000000000000000, -0.000000000000000000, 1.000000000000000000 ) ) ;
#988 = EDGE_CURVE ( 'NONE', #1018, #437, #928, .T. ) ;
#989 = DIRECTION ( 'NONE',  ( -1.000000000000000000, 0.000000000000000000, 0.000000000000000000 ) ) ;
#990 = CARTESIAN_POINT ( 'NONE',  ( -6.750000000000000000, -19.00000000000001066, 0.000000000000000000 ) ) ;
#991 = AXIS2_PLACEMENT_3D ( 'NONE', #765, #884, #1169 ) ;
#992 = LINE ( 'NONE', #143, #978 ) ;
#993 = DIRECTION ( 'NONE',  ( 1.000000000000000000, 0.000000000000000000, 0.000000000000000000 ) ) ;
#994 = EDGE_CURVE ( 'NONE', #1142, #445, #1029, .T. ) ;
#995 = CARTESIAN_POINT ( 'NONE',  ( -10.60000000000000142, -5.000000000000000888, 2.000000000000000000 ) ) ;
#996 = EDGE_CURVE ( 'NONE', #317, #1033, #549, .T. ) ;
#997 = CARTESIAN_POINT ( 'NONE',  ( -7.999999999999996447, -37.00000000000000711, 2.000000000000000000 ) ) ;
#998 = PRODUCT ( 'CNC-\X2\9acb517382824e0a677f\X0\', 'CNC-\X2\9acb517382824e0a677f\X0\', '', ( #118 ) ) ;
#999 = AXIS2_PLACEMENT_3D ( 'NONE', #700, #891, #322 ) ;
#1000 = DIRECTION ( 'NONE',  ( -1.000000000000000000, 0.000000000000000000, 0.000000000000000000 ) ) ;
#1001 = CARTESIAN_POINT ( 'NONE',  ( 7.399999999999995026, -4.999999999999998224, 2.000000000000000000 ) ) ;
#1002 = EDGE_CURVE ( 'NONE', #888, #547, #99, .T. ) ;
#1003 = CYLINDRICAL_SURFACE ( 'NONE', #2, 2.000000000000000000 ) ;
#1004 = DIRECTION ( 'NONE',  ( 0.000000000000000000, 0.000000000000000000, 1.000000000000000000 ) ) ;
#1005 = CARTESIAN_POINT ( 'NONE',  ( 9.000000000000003553, -22.00000000000000711, 4.000000000000000000 ) ) ;
#1006 = ORIENTED_EDGE ( 'NONE', *, *, #931, .F. ) ;
#1007 = PLANE ( 'NONE',  #561 ) ;
#1008 = DIRECTION ( 'NONE',  ( 2.168404344971008375E-16, -1.000000000000000000, 0.000000000000000000 ) ) ;
#1009 = CIRCLE ( 'NONE', #1118, 2.000000000000000000 ) ;
#1010 = VERTEX_POINT ( 'NONE', #893 ) ;
#1011 = DIRECTION ( 'NONE',  ( 0.000000000000000000, 0.000000000000000000, 1.000000000000000000 ) ) ;
#1012 = ORIENTED_EDGE ( 'NONE', *, *, #1038, .F. ) ;
#1013 = CARTESIAN_POINT ( 'NONE',  ( 11.00000000000000178, -16.00000000000000355, 4.000000000000000000 ) ) ;
#1014 = ORIENTED_EDGE ( 'NONE', *, *, #42, .F. ) ;
#1015 = EDGE_CURVE ( 'NONE', #174, #526, #402, .T. ) ;
#1016 = DIRECTION ( 'NONE',  ( -0.000000000000000000, -0.000000000000000000, 1.000000000000000000 ) ) ;
#1017 = DIRECTION ( 'NONE',  ( 0.000000000000000000, 0.000000000000000000, 1.000000000000000000 ) ) ;
#1018 = VERTEX_POINT ( 'NONE', #301 ) ;
#1019 = FACE_BOUND ( 'NONE', #363, .T. ) ;
#1020 = ORIENTED_EDGE ( 'NONE', *, *, #715, .F. ) ;
#1021 = AXIS2_PLACEMENT_3D ( 'NONE', #257, #65, #145 ) ;
#1022 = EDGE_CURVE ( 'NONE', #943, #623, #8, .T. ) ;
#1023 = DIRECTION ( 'NONE',  ( 0.000000000000000000, 0.000000000000000000, 1.000000000000000000 ) ) ;
#1024 = AXIS2_PLACEMENT_3D ( 'NONE', #175, #100, #659 ) ;
#1025 = ORIENTED_EDGE ( 'NONE', *, *, #486, .F. ) ;
#1026 = PLANE ( 'NONE',  #400 ) ;
#1027 = ORIENTED_EDGE ( 'NONE', *, *, #940, .F. ) ;
#1028 = ORIENTED_EDGE ( 'NONE', *, *, #786, .T. ) ;
#1029 = CIRCLE ( 'NONE', #1158, 1.250000000000000222 ) ;
#1030 = DIRECTION ( 'NONE',  ( 0.000000000000000000, 0.000000000000000000, 1.000000000000000000 ) ) ;
#1031 = EDGE_LOOP ( 'NONE', ( #920, #338, #546, #911 ) ) ;
#1032 = CYLINDRICAL_SURFACE ( 'NONE', #847, 1.250000000000000222 ) ;
#1033 = VERTEX_POINT ( 'NONE', #415 ) ;
#1034 = CARTESIAN_POINT ( 'NONE',  ( 9.099999999999997868, -18.00000000000001066, 4.000000000000000000 ) ) ;
#1035 = CIRCLE ( 'NONE', #822, 1.250000000000000222 ) ;
#1036 = EDGE_LOOP ( 'NONE', ( #612, #886, #271, #269 ) ) ;
#1037 = CARTESIAN_POINT ( 'NONE',  ( -6.749999999999996447, -37.00000000000000711, 0.000000000000000000 ) ) ;
#1038 = EDGE_CURVE ( 'NONE', #165, #1212, #332, .T. ) ;
#1039 = EDGE_LOOP ( 'NONE', ( #1025, #487, #343, #94 ) ) ;
#1040 = EDGE_CURVE ( 'NONE', #165, #212, #323, .T. ) ;
#1041 = FACE_OUTER_BOUND ( 'NONE', #594, .T. ) ;
#1042 = VERTEX_POINT ( 'NONE', #209 ) ;
#1043 = CARTESIAN_POINT ( 'NONE',  ( -8.000000000000000000, -19.00000000000001066, 0.000000000000000000 ) ) ;
#1044 = FACE_OUTER_BOUND ( 'NONE', #79, .T. ) ;
#1045 = EDGE_CURVE ( 'NONE', #317, #1113, #202, .T. ) ;
#1046 = DIRECTION ( 'NONE',  ( -1.000000000000000000, 0.000000000000000000, 0.000000000000000000 ) ) ;
#1047 = ORIENTED_EDGE ( 'NONE', *, *, #971, .F. ) ;
#1048 = DIRECTION ( 'NONE',  ( 0.000000000000000000, -0.000000000000000000, -1.000000000000000000 ) ) ;
#1049 = EDGE_CURVE ( 'NONE', #45, #943, #55, .T. ) ;
#1050 = AXIS2_PLACEMENT_3D ( 'NONE', #881, #331, #4 ) ;
#1051 = CARTESIAN_POINT ( 'NONE',  ( 5.000000000000003553, -22.00000000000000711, 4.000000000000000000 ) ) ;
#1052 = CARTESIAN_POINT ( 'NONE',  ( -7.999999999999994671, -31.00000000000000711, 2.000000000000000000 ) ) ;
#1053 = EDGE_CURVE ( 'NONE', #797, #1085, #872, .T. ) ;
#1054 = CARTESIAN_POINT ( 'NONE',  ( 11.00000000000000355, -20.00000000000000355, 2.000000000000000000 ) ) ;
#1055 = ORIENTED_EDGE ( 'NONE', *, *, #358, .F. ) ;
#1056 = AXIS2_PLACEMENT_3D ( 'NONE', #244, #1004, #800 ) ;
#1057 = CARTESIAN_POINT ( 'NONE',  ( 11.00000000000000888, -40.00000000000000711, -41.23105625617660763 ) ) ;
#1058 = EDGE_LOOP ( 'NONE', ( #1006, #1020, #658, #476 ) ) ;
#1059 = CARTESIAN_POINT ( 'NONE',  ( 8.999999999999996447, -4.999999999999998224, 2.000000000000000000 ) ) ;
#1060 = CARTESIAN_POINT ( 'NONE',  ( 7.399999999999995026, -4.999999999999998224, 0.000000000000000000 ) ) ;
#1061 = AXIS2_PLACEMENT_3D ( 'NONE', #829, #1017, #156 ) ;
#1062 = AXIS2_PLACEMENT_3D ( 'NONE', #158, #67, #1230 ) ;
#1063 = VERTEX_POINT ( 'NONE', #84 ) ;
#1064 = CARTESIAN_POINT ( 'NONE',  ( 12.99999999999999822, 8.000000000000000000, 2.000000000000000000 ) ) ;
#1065 = ADVANCED_FACE ( 'NONE', ( #693 ), #110, .F. ) ;
#1066 = AXIS2_PLACEMENT_3D ( 'NONE', #1143, #949, #389 ) ;
#1067 = DIRECTION ( 'NONE',  ( 1.000000000000000000, 0.000000000000000000, 0.000000000000000000 ) ) ;
#1068 = EDGE_CURVE ( 'NONE', #129, #1042, #294, .T. ) ;
#1069 = DIRECTION ( 'NONE',  ( 1.000000000000000000, 0.000000000000000000, 0.000000000000000000 ) ) ;
#1070 = DIRECTION ( 'NONE',  ( 1.000000000000000000, 0.000000000000000000, 0.000000000000000000 ) ) ;
#1071 = LINE ( 'NONE', #586, #568 ) ;
#1072 = LINE ( 'NONE', #381, #1270 ) ;
#1073 = APPLICATION_PROTOCOL_DEFINITION ( 'draft international standard', 'automotive_design', 1998, #807 ) ;
#1074 = DIRECTION ( 'NONE',  ( 0.000000000000000000, 0.000000000000000000, 1.000000000000000000 ) ) ;
#1075 = CARTESIAN_POINT ( 'NONE',  ( -10.60000000000000497, 4.999999999999999112, 2.000000000000000000 ) ) ;
#1076 = ORIENTED_EDGE ( 'NONE', *, *, #292, .T. ) ;
#1077 = FACE_OUTER_BOUND ( 'NONE', #1265, .T. ) ;
#1078 = CLOSED_SHELL ( 'NONE', ( #984, #464, #1124, #82, #1115, #114, #1163, #617, #596, #224, #235, #540, #379, #528, #1245, #500, #873, #556, #903, #963, #329, #44, #200, #237, #206, #262, #823, #24, #1206, #469, #386, #1220, #1065, #670, #690, #820, #181 ) ) ;
#1079 = VECTOR ( 'NONE', #1094, 1000.000000000000000 ) ;
#1080 = CARTESIAN_POINT ( 'NONE',  ( -13.00000000000000000, 5.999999999999996447, 0.000000000000000000 ) ) ;
#1081 = EDGE_CURVE ( 'NONE', #536, #869, #337, .T. ) ;
#1082 = EDGE_CURVE ( 'NONE', #1268, #734, #717, .T. ) ;
#1083 = CARTESIAN_POINT ( 'NONE',  ( -9.249999999999998224, -37.00000000000000711, 0.000000000000000000 ) ) ;
#1084 = CARTESIAN_POINT ( 'NONE',  ( 8.999999999999996447, -4.999999999999998224, 0.000000000000000000 ) ) ;
#1085 = VERTEX_POINT ( 'NONE', #1156 ) ;
#1086 = LINE ( 'NONE', #211, #510 ) ;
#1087 = EDGE_LOOP ( 'NONE', ( #674, #507, #490, #146 ) ) ;
#1088 = FACE_BOUND ( 'NONE', #282, .T. ) ;
#1089 = PLANE ( 'NONE',  #936 ) ;
#1090 = CARTESIAN_POINT ( 'NONE',  ( -7.999999999999996447, -37.00000000000000711, 0.000000000000000000 ) ) ;
#1091 = VERTEX_POINT ( 'NONE', #672 ) ;
#1092 = CARTESIAN_POINT ( 'NONE',  ( 3.000000000000002665, -20.00000000000000355, 2.000000000000000000 ) ) ;
#1093 = ORIENTED_EDGE ( 'NONE', *, *, #16, .T. ) ;
#1094 = DIRECTION ( 'NONE',  ( 1.000000000000000000, -0.000000000000000000, -0.000000000000000000 ) ) ;
#1095 = AXIS2_PLACEMENT_3D ( 'NONE', #120, #505, #225 ) ;
#1096 = EDGE_CURVE ( 'NONE', #1033, #317, #1166, .T. ) ;
#1097 = DIRECTION ( 'NONE',  ( -1.000000000000000000, 0.000000000000000000, 0.000000000000000000 ) ) ;
#1098 = EDGE_CURVE ( 'NONE', #623, #47, #455, .T. ) ;
#1099 = ORIENTED_EDGE ( 'NONE', *, *, #255, .T. ) ;
#1100 = FACE_OUTER_BOUND ( 'NONE', #982, .T. ) ;
#1101 = DIRECTION ( 'NONE',  ( 0.000000000000000000, 0.000000000000000000, 1.000000000000000000 ) ) ;
#1102 = DIRECTION ( 'NONE',  ( 0.000000000000000000, 0.000000000000000000, 1.000000000000000000 ) ) ;
#1103 = AXIS2_PLACEMENT_3D ( 'NONE', #291, #399, #858 ) ;
#1104 = PRODUCT_DEFINITION_FORMATION_WITH_SPECIFIED_SOURCE ( 'å¯', '', #998, .NOT_KNOWN. ) ;
#1105 = DIRECTION ( 'NONE',  ( -0.000000000000000000, -0.000000000000000000, 1.000000000000000000 ) ) ;
#1106 = DIRECTION ( 'NONE',  ( 1.000000000000000000, 0.000000000000000000, 0.000000000000000000 ) ) ;
#1107 = EDGE_LOOP ( 'NONE', ( #112, #639, #581, #68 ) ) ;
#1108 = LINE ( 'NONE', #25, #535 ) ;
#1109 = AXIS2_PLACEMENT_3D ( 'NONE', #595, #810, #977 ) ;
#1110 = CARTESIAN_POINT ( 'NONE',  ( 9.000000000000003553, -20.00000000000000355, 2.000000000000000000 ) ) ;
#1111 = VECTOR ( 'NONE', #863, 1000.000000000000000 ) ;
#1112 = CARTESIAN_POINT ( 'NONE',  ( 12.99999999999999822, 6.000000000000000888, 0.000000000000000000 ) ) ;
#1113 = VERTEX_POINT ( 'NONE', #874 ) ;
#1114 = CARTESIAN_POINT ( 'NONE',  ( -7.999999999999994671, -31.00000000000000711, 0.000000000000000000 ) ) ;
#1115 = ADVANCED_FACE ( 'NONE', ( #408 ), #1185, .F. ) ;
#1116 = ORIENTED_EDGE ( 'NONE', *, *, #394, .T. ) ;
#1117 = CARTESIAN_POINT ( 'NONE',  ( 11.00000000000000178, -16.00000000000000355, 4.000000000000000000 ) ) ;
#1118 = AXIS2_PLACEMENT_3D ( 'NONE', #602, #121, #509 ) ;
#1119 = DIRECTION ( 'NONE',  ( -0.000000000000000000, 0.000000000000000000, 1.000000000000000000 ) ) ;
#1120 = ORIENTED_EDGE ( 'NONE', *, *, #770, .T. ) ;
#1121 = DIRECTION ( 'NONE',  ( 1.000000000000000000, 0.000000000000000000, 0.000000000000000000 ) ) ;
#1122 = EDGE_CURVE ( 'NONE', #47, #623, #1035, .T. ) ;
#1123 = ORIENTED_EDGE ( 'NONE', *, *, #630, .T. ) ;
#1124 = ADVANCED_FACE ( 'NONE', ( #821 ), #312, .F. ) ;
#1125 = CIRCLE ( 'NONE', #395, 2.000000000000000000 ) ;
#1126 = EDGE_CURVE ( 'NONE', #304, #348, #992, .T. ) ;
#1127 = CARTESIAN_POINT ( 'NONE',  ( 7.000000000000000888, -18.00000000000001066, 4.000000000000000000 ) ) ;
#1128 = ORIENTED_EDGE ( 'NONE', *, *, #205, .T. ) ;
#1129 = DIRECTION ( 'NONE',  ( 0.000000000000000000, 0.000000000000000000, 1.000000000000000000 ) ) ;
#1130 = ORIENTED_EDGE ( 'NONE', *, *, #162, .T. ) ;
#1131 = CIRCLE ( 'NONE', #1061, 1.250000000000000222 ) ;
#1132 = VECTOR ( 'NONE', #962, 1000.000000000000000 ) ;
#1133 = FACE_OUTER_BOUND ( 'NONE', #708, .T. ) ;
#1134 = ORIENTED_EDGE ( 'NONE', *, *, #134, .F. ) ;
#1135 = FACE_BOUND ( 'NONE', #1145, .T. ) ;
#1136 = ORIENTED_EDGE ( 'NONE', *, *, #539, .T. ) ;
#1137 = DIRECTION ( 'NONE',  ( -0.000000000000000000, -0.000000000000000000, -1.000000000000000000 ) ) ;
#1138 = FACE_OUTER_BOUND ( 'NONE', #1155, .T. ) ;
#1139 = EDGE_CURVE ( 'NONE', #107, #1113, #293, .T. ) ;
#1140 = ORIENTED_EDGE ( 'NONE', *, *, #33, .T. ) ;
#1141 = DIRECTION ( 'NONE',  ( 0.000000000000000000, 0.000000000000000000, 1.000000000000000000 ) ) ;
#1142 = VERTEX_POINT ( 'NONE', #1083 ) ;
#1143 = CARTESIAN_POINT ( 'NONE',  ( 10.99999999999999822, 6.000000000000000000, 2.000000000000000000 ) ) ;
#1144 = CIRCLE ( 'NONE', #1056, 1.250000000000000222 ) ;
#1145 = EDGE_LOOP ( 'NONE', ( #447, #654 ) ) ;
#1146 = EDGE_CURVE ( 'NONE', #1229, #157, #1191, .T. ) ;
#1147 = LINE ( 'NONE', #951, #48 ) ;
#1148 = DIRECTION ( 'NONE',  ( 0.000000000000000000, -0.000000000000000000, -1.000000000000000000 ) ) ;
#1149 = CARTESIAN_POINT ( 'NONE',  ( 8.999999999999998224, 5.000000000000001776, 2.000000000000000000 ) ) ;
#1150 = LINE ( 'NONE', #366, #197 ) ;
#1151 = EDGE_LOOP ( 'NONE', ( #860, #1202 ) ) ;
#1152 = CARTESIAN_POINT ( 'NONE',  ( 11.00000000000000888, -38.00000000000000711, 0.000000000000000000 ) ) ;
#1153 = CIRCLE ( 'NONE', #326, 2.000000000000000000 ) ;
#1154 = EDGE_CURVE ( 'NONE', #723, #176, #1211, .T. ) ;
#1155 = EDGE_LOOP ( 'NONE', ( #557, #453, #745, #350 ) ) ;
#1156 = CARTESIAN_POINT ( 'NONE',  ( 10.59999999999999609, -4.999999999999998224, 0.000000000000000000 ) ) ;
#1157 = CARTESIAN_POINT ( 'NONE',  ( -11.00000000000000000, 7.999999999999996447, 2.000000000000000000 ) ) ;
#1158 = AXIS2_PLACEMENT_3D ( 'NONE', #979, #785, #1070 ) ;
#1159 = ORIENTED_EDGE ( 'NONE', *, *, #1154, .T. ) ;
#1160 = DIRECTION ( 'NONE',  ( -0.000000000000000000, -0.000000000000000000, -1.000000000000000000 ) ) ;
#1161 = LINE ( 'NONE', #677, #14 ) ;
#1162 = EDGE_CURVE ( 'NONE', #642, #384, #328, .T. ) ;
#1163 = ADVANCED_FACE ( 'NONE', ( #31 ), #334, .F. ) ;
#1164 = CARTESIAN_POINT ( 'NONE',  ( -7.999999999999994671, -31.00000000000000711, 0.000000000000000000 ) ) ;
#1165 = ORIENTED_EDGE ( 'NONE', *, *, #56, .F. ) ;
#1166 = CIRCLE ( 'NONE', #105, 1.600000000000002531 ) ;
#1167 = DIRECTION ( 'NONE',  ( 0.000000000000000000, 0.000000000000000000, 1.000000000000000000 ) ) ;
#1168 = ORIENTED_EDGE ( 'NONE', *, *, #816, .F. ) ;
#1169 = DIRECTION ( 'NONE',  ( 1.000000000000000000, 2.168404344971009361E-16, 0.000000000000000000 ) ) ;
#1170 = DIRECTION ( 'NONE',  ( 1.000000000000000000, 0.000000000000000000, 0.000000000000000000 ) ) ;
#1171 = CIRCLE ( 'NONE', #69, 2.000000000000000000 ) ;
#1172 = EDGE_LOOP ( 'NONE', ( #760, #650 ) ) ;
#1173 = CARTESIAN_POINT ( 'NONE',  ( -9.000000000000005329, 4.999999999999999112, 2.000000000000000000 ) ) ;
#1174 = ORIENTED_EDGE ( 'NONE', *, *, #988, .F. ) ;
#1175 = VECTOR ( 'NONE', #942, 1000.000000000000000 ) ;
#1176 = DIRECTION ( 'NONE',  ( 1.000000000000000000, 0.000000000000000000, 0.000000000000000000 ) ) ;
#1177 = CARTESIAN_POINT ( 'NONE',  ( -13.00000000000000000, 7.999999999999996447, 0.000000000000000000 ) ) ;
#1178 = ORIENTED_EDGE ( 'NONE', *, *, #631, .T. ) ;
#1179 = CARTESIAN_POINT ( 'NONE',  ( 12.99999999999999822, 6.000000000000000888, 2.000000000000000000 ) ) ;
#1180 = EDGE_CURVE ( 'NONE', #888, #1010, #1125, .T. ) ;
#1181 = ORIENTED_EDGE ( 'NONE', *, *, #1247, .T. ) ;
#1182 = CARTESIAN_POINT ( 'NONE',  ( -10.60000000000000497, 4.999999999999999112, 2.000000000000000000 ) ) ;
#1183 = AXIS2_PLACEMENT_3D ( 'NONE', #707, #902, #496 ) ;
#1184 = ADVANCED_BREP_SHAPE_REPRESENTATION ( 'CNC-\X2\9acb517382824e0a677f\X0\', ( #666, #64 ), #132 ) ;
#1185 = CYLINDRICAL_SURFACE ( 'NONE', #652, 2.099999999999997868 ) ;
#1186 = DIRECTION ( 'NONE',  ( 1.000000000000000000, 0.000000000000000000, 0.000000000000000000 ) ) ;
#1187 = ORIENTED_EDGE ( 'NONE', *, *, #370, .F. ) ;
#1188 = CARTESIAN_POINT ( 'NONE',  ( -6.749999999999994671, -31.00000000000000711, 2.000000000000000000 ) ) ;
#1189 = FACE_OUTER_BOUND ( 'NONE', #62, .T. ) ;
#1190 = SHAPE_DEFINITION_REPRESENTATION ( #427, #1184 ) ;
#1191 = LINE ( 'NONE', #1199, #187 ) ;
#1192 = DIRECTION ( 'NONE',  ( 0.000000000000000000, 0.000000000000000000, 1.000000000000000000 ) ) ;
#1193 = ORIENTED_EDGE ( 'NONE', *, *, #515, .T. ) ;
#1194 = AXIS2_PLACEMENT_3D ( 'NONE', #638, #1011, #533 ) ;
#1195 = CARTESIAN_POINT ( 'NONE',  ( 5.000000000000003553, -22.00000000000000711, 2.000000000000000000 ) ) ;
#1196 = EDGE_LOOP ( 'NONE', ( #656, #849, #431, #824 ) ) ;
#1197 = AXIS2_PLACEMENT_3D ( 'NONE', #1152, #1048, #283 ) ;
#1198 = EDGE_CURVE ( 'NONE', #841, #547, #799, .T. ) ;
#1199 = CARTESIAN_POINT ( 'NONE',  ( 0.000000000000000000, -40.00000000000000711, 0.000000000000000000 ) ) ;
#1200 = VERTEX_POINT ( 'NONE', #428 ) ;
#1201 = LINE ( 'NONE', #995, #126 ) ;
#1202 = ORIENTED_EDGE ( 'NONE', *, *, #1238, .F. ) ;
#1203 = DIRECTION ( 'NONE',  ( 0.000000000000000000, 0.000000000000000000, -1.000000000000000000 ) ) ;
#1204 = VECTOR ( 'NONE', #695, 1000.000000000000000 ) ;
#1205 = DIRECTION ( 'NONE',  ( 1.000000000000000000, 0.000000000000000000, 0.000000000000000000 ) ) ;
#1206 = ADVANCED_FACE ( 'NONE', ( #414, #716 ), #624, .F. ) ;
#1207 = EDGE_CURVE ( 'NONE', #348, #1042, #1144, .T. ) ;
#1208 = ORIENTED_EDGE ( 'NONE', *, *, #1198, .T. ) ;
#1209 = CYLINDRICAL_SURFACE ( 'NONE', #740, 2.000000000000000000 ) ;
#1210 = VECTOR ( 'NONE', #746, 1000.000000000000000 ) ;
#1211 = LINE ( 'NONE', #908, #436 ) ;
#1212 = VERTEX_POINT ( 'NONE', #529 ) ;
#1213 = CARTESIAN_POINT ( 'NONE',  ( -13.00000000000000000, 5.999999999999996447, 2.000000000000000000 ) ) ;
#1214 = EDGE_LOOP ( 'NONE', ( #1165, #1174, #1178, #621 ) ) ;
#1215 = FACE_BOUND ( 'NONE', #681, .T. ) ;
#1216 = ORIENTED_EDGE ( 'NONE', *, *, #1081, .F. ) ;
#1217 = AXIS2_PLACEMENT_3D ( 'NONE', #870, #479, #385 ) ;
#1218 = ORIENTED_EDGE ( 'NONE', *, *, #9, .T. ) ;
#1219 = EDGE_LOOP ( 'NONE', ( #882, #698, #732, #1123, #909, #115, #915, #10 ) ) ;
#1220 = ADVANCED_FACE ( 'NONE', ( #813 ), #1089, .F. ) ;
#1221 = CARTESIAN_POINT ( 'NONE',  ( 7.399999999999995914, 5.000000000000001776, 2.000000000000000000 ) ) ;
#1222 = EDGE_CURVE ( 'NONE', #869, #536, #514, .T. ) ;
#1223 = ORIENTED_EDGE ( 'NONE', *, *, #940, .T. ) ;
#1224 = AXIS2_PLACEMENT_3D ( 'NONE', #1, #1192, #1186 ) ;
#1225 = AXIS2_PLACEMENT_3D ( 'NONE', #492, #481, #1067 ) ;
#1226 = CIRCLE ( 'NONE', #671, 2.000000000000000000 ) ;
#1227 = ORIENTED_EDGE ( 'NONE', *, *, #394, .F. ) ;
#1228 = LINE ( 'NONE', #353, #1132 ) ;
#1229 = VERTEX_POINT ( 'NONE', #532 ) ;
#1230 = DIRECTION ( 'NONE',  ( 1.000000000000000000, 0.000000000000000000, 0.000000000000000000 ) ) ;
#1231 = VERTEX_POINT ( 'NONE', #7 ) ;
#1232 =( NAMED_UNIT ( * ) PLANE_ANGLE_UNIT ( ) SI_UNIT ( $, .RADIAN. ) );
#1233 = ORIENTED_EDGE ( 'NONE', *, *, #715, .T. ) ;
#1234 = CARTESIAN_POINT ( 'NONE',  ( 11.00000000000000355, -20.00000000000000355, 4.000000000000000000 ) ) ;
#1235 = ORIENTED_EDGE ( 'NONE', *, *, #574, .T. ) ;
#1236 = AXIS2_PLACEMENT_3D ( 'NONE', #1127, #1030, #1106 ) ;
#1237 = AXIS2_PLACEMENT_3D ( 'NONE', #844, #1141, #60 ) ;
#1238 = EDGE_CURVE ( 'NONE', #734, #1268, #493, .T. ) ;
#1239 = AXIS2_PLACEMENT_3D ( 'NONE', #558, #1249, #569 ) ;
#1240 = EDGE_LOOP ( 'NONE', ( #81, #450, #35, #575 ) ) ;
#1241 = CARTESIAN_POINT ( 'NONE',  ( 12.99999999999999822, 8.000000000000000000, 0.000000000000000000 ) ) ;
#1242 = ORIENTED_EDGE ( 'NONE', *, *, #370, .T. ) ;
#1243 = CARTESIAN_POINT ( 'NONE',  ( -9.250000000000001776, -19.00000000000001066, 0.000000000000000000 ) ) ;
#1244 = EDGE_LOOP ( 'NONE', ( #1223, #795, #373, #412, #1181, #73, #466, #562 ) ) ;
#1245 = ADVANCED_FACE ( 'NONE', ( #738 ), #853, .F. ) ;
#1246 = CARTESIAN_POINT ( 'NONE',  ( 11.00000000000000355, -22.00000000000000711, 4.000000000000000000 ) ) ;
#1247 = EDGE_CURVE ( 'NONE', #21, #664, #457, .T. ) ;
#1248 = EDGE_LOOP ( 'NONE', ( #1116, #87 ) ) ;
#1249 = DIRECTION ( 'NONE',  ( 0.000000000000000000, -0.000000000000000000, -1.000000000000000000 ) ) ;
#1250 = EDGE_CURVE ( 'NONE', #751, #419, #346, .T. ) ;
#1251 = ORIENTED_EDGE ( 'NONE', *, *, #994, .T. ) ;
#1252 = CARTESIAN_POINT ( 'NONE',  ( 13.00000000000000888, -38.00000000000000711, 2.000000000000000000 ) ) ;
#1253 = CARTESIAN_POINT ( 'NONE',  ( -9.249999999999996447, -31.00000000000000711, 0.000000000000000000 ) ) ;
#1254 = DIRECTION ( 'NONE',  ( 0.000000000000000000, 0.000000000000000000, 1.000000000000000000 ) ) ;
#1255 = ORIENTED_EDGE ( 'NONE', *, *, #205, .F. ) ;
#1256 = DIRECTION ( 'NONE',  ( -0.000000000000000000, 0.000000000000000000, 1.000000000000000000 ) ) ;
#1257 = DIRECTION ( 'NONE',  ( -0.000000000000000000, -0.000000000000000000, 1.000000000000000000 ) ) ;
#1258 = ORIENTED_EDGE ( 'NONE', *, *, #319, .T. ) ;
#1259 = DIRECTION ( 'NONE',  ( 0.000000000000000000, 0.000000000000000000, 1.000000000000000000 ) ) ;
#1260 = ORIENTED_EDGE ( 'NONE', *, *, #1022, .T. ) ;
#1261 = FACE_OUTER_BOUND ( 'NONE', #864, .T. ) ;
#1262 = AXIS2_PLACEMENT_3D ( 'NONE', #1043, #959, #179 ) ;
#1263 = EDGE_CURVE ( 'NONE', #547, #263, #266, .T. ) ;
#1264 = LINE ( 'NONE', #777, #551 ) ;
#1265 = EDGE_LOOP ( 'NONE', ( #511, #1140, #330, #834 ) ) ;
#1266 = CARTESIAN_POINT ( 'NONE',  ( -7.400000000000004796, 4.999999999999999112, 2.000000000000000000 ) ) ;
#1267 = VECTOR ( 'NONE', #591, 1000.000000000000000 ) ;
#1268 = VERTEX_POINT ( 'NONE', #954 ) ;
#1269 = DIRECTION ( 'NONE',  ( -1.000000000000000000, -1.334402673828313339E-16, 0.000000000000000000 ) ) ;
#1270 = VECTOR ( 'NONE', #89, 1000.000000000000000 ) ;
#1271 = CARTESIAN_POINT ( 'NONE',  ( -11.00000000000000000, 5.999999999999996447, 2.000000000000000000 ) ) ;
#1272 = LINE ( 'NONE', #396, #668 ) ;
#1273 = ORIENTED_EDGE ( 'NONE', *, *, #372, .F. ) ;
#1274 = CARTESIAN_POINT ( 'NONE',  ( 12.99999999999999822, 8.000000000000000000, 2.000000000000000000 ) ) ;
#1275 = DIRECTION ( 'NONE',  ( 1.000000000000000000, 0.000000000000000000, 0.000000000000000000 ) ) ;
ENDSEC;
END-ISO-10303-21;
