ISO-10303-21;
HEADER;
FILE_DESCRIPTION (( 'STEP AP214' ),
    '1' );
FILE_NAME ('dm8009-20240822A.STEP',
    '2026-08-16T17:26:57',
    ( '' ),
    ( '' ),
    'SwSTEP 2.0',
    'SolidWorks 2025',
    '' );
FILE_SCHEMA (( 'AUTOMOTIVE_DESIGN' ));
ENDSEC;

DATA;
#1 = PROPERTY_DEFINITION_REPRESENTATION ( #19, #4 ) ;
#2 = PROPERTY_DEFINITION_REPRESENTATION ( #6, #18 ) ;
#3 = AXIS2_PLACEMENT_3D ( 'NONE', #21, #75, #61 ) ;
#4 = SHAPE_REPRESENTATION ( 'DM80-V3_0-240723A', ( #88 ), #117 ) ;
#5 = CONTEXT_DEPENDENT_SHAPE_REPRESENTATION ( #35, #66 ) ;
#6 = PROPERTY_DEFINITION ('external definition','', #13 ) ;
#7 = APPLIED_EXTERNAL_IDENTIFICATION_ASSIGNMENT ( 'DM80-V3_0-240723A.STEP' , #8, #48,( #130) ) ;
#8 = IDENTIFICATION_ROLE ( 'external document id and location', $) ;
#9 = CARTESIAN_POINT ( 'NONE',  ( 0.000000000000000000, 0.000000000000000000, 0.000000000000000000 ) ) ;
#10 = CARTESIAN_POINT ( 'NONE',  ( 0.000000000000000000, 0.000000000000000000, 0.000000000000000000 ) ) ;
#11 = AXIS2_PLACEMENT_3D ( 'NONE', #94, #145, #15 ) ;
#12 = CARTESIAN_POINT ( 'NONE',  ( 0.000000000000000000, 61.69999999999999574, 0.000000000000000000 ) ) ;
#13 = DOCUMENT_FILE ( 'DM_8116_0002A.STEP' , '', '', #62, '' ,$ ) ;
#14 = APPLICATION_CONTEXT ( 'automotive_design' ) ;
#15 = DIRECTION ( 'NONE',  ( 1.000000000000000000, 6.310887241768094443E-30, 0.000000000000000000 ) ) ;
#16 = DIRECTION ( 'NONE',  ( 0.000000000000000000, 3.786532345060856666E-29, 1.000000000000000000 ) ) ;
#17 = SHAPE_DEFINITION_REPRESENTATION ( #91, #4 ) ;
#18 = SHAPE_REPRESENTATION ( 'DM_8116_0002A', ( #3 ), #133 ) ;
#19 = PROPERTY_DEFINITION ('external definition','', #130 ) ;
#20 =( LENGTH_UNIT ( ) NAMED_UNIT ( * ) SI_UNIT ( .MILLI., .METRE. ) );
#21 = CARTESIAN_POINT ( 'NONE',  ( 0.000000000000000000, 0.000000000000000000, 0.000000000000000000 ) ) ;
#22 = DOCUMENT_TYPE ( 'geometry' ) ;
#23 = APPLICATION_PROTOCOL_DEFINITION ( 'draft international standard', 'automotive_design', 1998, #139 ) ;
#24 = ITEM_DEFINED_TRANSFORMATION ( 'NONE', 'NONE', #32,  #3 ) ;
#25 = APPLICATION_PROTOCOL_DEFINITION ( 'draft international standard', 'automotive_design', 1998, #49 ) ;
#26 = APPLICATION_CONTEXT ( 'automotive_design' ) ;
#27 = PRODUCT_DEFINITION_CONTEXT ( 'detailed design', #103, 'design' ) ;
#28 = SHAPE_DEFINITION_REPRESENTATION ( #95, #143 ) ;
#29 = PRODUCT_DEFINITION_SHAPE ( 'NONE', 'NONE',  #150 ) ;
#30 = PRODUCT_DEFINITION ( 'æ™', '', #96, #27 ) ;
#31 = APPLICATION_CONTEXT ( 'automotive_design' ) ;
#32 = AXIS2_PLACEMENT_3D ( 'NONE', #12, #16, #42 ) ;
#33 = APPLIED_EXTERNAL_IDENTIFICATION_ASSIGNMENT ( 'DM_8116_0001A.STEP' , #68, #109,( #128) ) ;
#34 = CARTESIAN_POINT ( 'NONE',  ( 0.000000000000000000, 0.000000000000000000, 0.000000000000000000 ) ) ;
#35 =( REPRESENTATION_RELATIONSHIP ('NONE','NONE', #143, #135 ) REPRESENTATION_RELATIONSHIP_WITH_TRANSFORMATION ( #39 )SHAPE_REPRESENTATION_RELATIONSHIP( ) );
#36 =( NAMED_UNIT ( * ) PLANE_ANGLE_UNIT ( ) SI_UNIT ( $, .RADIAN. ) );
#37 = UNCERTAINTY_MEASURE_WITH_UNIT (LENGTH_MEASURE( 1.000000000000000082E-05 ), #125, 'distance_accuracy_value', 'NONE');
#38 = APPLICATION_PROTOCOL_DEFINITION ( 'draft international standard', 'automotive_design', 1998, #14 ) ;
#39 = ITEM_DEFINED_TRANSFORMATION ( 'NONE', 'NONE', #11,  #60 ) ;
#40 = PRODUCT_DEFINITION_CONTEXT ( 'detailed design', #31, 'design' ) ;
#41 = PROPERTY_DEFINITION ('document property','', #130 ) ;
#42 = DIRECTION ( 'NONE',  ( -1.000000000000000000, -6.310887241768094443E-30, 0.000000000000000000 ) ) ;
#43 = CONTEXT_DEPENDENT_SHAPE_REPRESENTATION ( #57, #129 ) ;
#44 = PRODUCT_DEFINITION_SHAPE ( 'NONE', 'NONE',  #30 ) ;
#45 = IDENTIFICATION_ROLE ( 'external document id and location', $) ;
#46 = DIRECTION ( 'NONE',  ( 0.000000000000000000, 0.000000000000000000, 1.000000000000000000 ) ) ;
#47 = AXIS2_PLACEMENT_3D ( 'NONE', #9, #82, #119 ) ;
#48 = EXTERNAL_SOURCE (IDENTIFIER('') ) ;
#49 = APPLICATION_CONTEXT ( 'automotive_design' ) ;
#50 = PRODUCT_CONTEXT ( 'NONE', #139, 'mechanical' ) ;
#51 = PRODUCT_CONTEXT ( 'NONE', #148, 'mechanical' ) ;
#52 = APPLICATION_PROTOCOL_DEFINITION ( 'draft international standard', 'automotive_design', 1998, #26 ) ;
#53 = PROPERTY_DEFINITION_REPRESENTATION ( #132, #18 ) ;
#54 = CONTEXT_DEPENDENT_SHAPE_REPRESENTATION ( #120, #29 ) ;
#55 = PROPERTY_DEFINITION ('document property','', #128 ) ;
#56 = ROLE_ASSOCIATION ( #92, #106 ) ;
#57 =( REPRESENTATION_RELATIONSHIP ('NONE','NONE', #143, #18 ) REPRESENTATION_RELATIONSHIP_WITH_TRANSFORMATION ( #24 )SHAPE_REPRESENTATION_RELATIONSHIP( ) );
#58 = PRODUCT_DEFINITION_FORMATION_WITH_SPECIFIED_SOURCE ( 'å¯', '', #59, .NOT_KNOWN. ) ;
#59 = PRODUCT ( 'DM_8116_0002A', 'DM_8116_0002A', '', ( #77 ) ) ;
#60 = AXIS2_PLACEMENT_3D ( 'NONE', #34, #86, #126 ) ;
#61 = DIRECTION ( 'NONE',  ( 1.000000000000000000, 0.000000000000000000, 0.000000000000000000 ) ) ;
#62 = DOCUMENT_TYPE ( 'geometry' ) ;
#63 =( NAMED_UNIT ( * ) PLANE_ANGLE_UNIT ( ) SI_UNIT ( $, .RADIAN. ) );
#64 = APPLIED_DOCUMENT_REFERENCE ( #128,'',( #30) ) ;
#65 = APPLIED_DOCUMENT_REFERENCE ( #13,'',( #137) ) ;
#66 = PRODUCT_DEFINITION_SHAPE ( 'NONE', 'NONE',  #149 ) ;
#67 =( NAMED_UNIT ( * ) SI_UNIT ( $, .STERADIAN. ) SOLID_ANGLE_UNIT ( ) );
#68 = IDENTIFICATION_ROLE ( 'external document id and location', $) ;
#69 = PROPERTY_DEFINITION_REPRESENTATION ( #144, #135 ) ;
#70 = UNCERTAINTY_MEASURE_WITH_UNIT (LENGTH_MEASURE( 1.000000000000000082E-05 ), #138, 'distance_accuracy_value', 'NONE');
#71 = ITEM_DEFINED_TRANSFORMATION ( 'NONE', 'NONE', #124,  #88 ) ;
#72 = PRODUCT_DEFINITION_SHAPE ( 'NONE', 'NONE',  #137 ) ;
#73 = APPLIED_EXTERNAL_IDENTIFICATION_ASSIGNMENT ( 'DM_8116_0002A.STEP' , #45, #105,( #13) ) ;
#74 = PRODUCT_RELATED_PRODUCT_CATEGORY ( 'part', '', ( #59 ) ) ;
#75 = DIRECTION ( 'NONE',  ( 0.000000000000000000, 0.000000000000000000, 1.000000000000000000 ) ) ;
#76 = PRODUCT_RELATED_PRODUCT_CATEGORY ( 'part', '', ( #121 ) ) ;
#77 = PRODUCT_CONTEXT ( 'NONE', #49, 'mechanical' ) ;
#78 = PRODUCT_DEFINITION_FORMATION_WITH_SPECIFIED_SOURCE ( 'å¯', '', #84, .NOT_KNOWN. ) ;
#79 = UNCERTAINTY_MEASURE_WITH_UNIT (LENGTH_MEASURE( 1.000000000000000082E-05 ), #20, 'distance_accuracy_value', 'NONE');
#80 = PROPERTY_DEFINITION_REPRESENTATION ( #55, #135 ) ;
#81 = PRODUCT ( 'dm8009-20240822A', 'dm8009-20240822A', '', ( #50 ) ) ;
#82 = DIRECTION ( 'NONE',  ( 0.000000000000000000, 0.000000000000000000, 1.000000000000000000 ) ) ;
#83 = APPLICATION_PROTOCOL_DEFINITION ( 'draft international standard', 'automotive_design', 1998, #148 ) ;
#84 = PRODUCT ( 'DM80-V3_0-240723A', 'DM80-V3_0-240723A', '', ( #51 ) ) ;
#85 = OBJECT_ROLE ('mandatory',$ ) ;
#86 = DIRECTION ( 'NONE',  ( 0.000000000000000000, 0.000000000000000000, 1.000000000000000000 ) ) ;
#87 = DIRECTION ( 'NONE',  ( 1.000000000000000000, 0.000000000000000000, 0.000000000000000000 ) ) ;
#88 = AXIS2_PLACEMENT_3D ( 'NONE', #10, #46, #87 ) ;
#89 = CARTESIAN_POINT ( 'NONE',  ( 0.007526658232004379556, 55.30000000000000426, -0.006878818224920202340 ) ) ;
#90 = ROLE_ASSOCIATION ( #123, #64 ) ;
#91 = PRODUCT_DEFINITION_SHAPE ( 'NONE', 'NONE',  #122 ) ;
#92 = OBJECT_ROLE ('mandatory',$ ) ;
#93 = PRODUCT_DEFINITION_CONTEXT ( 'detailed design', #26, 'design' ) ;
#94 = CARTESIAN_POINT ( 'NONE',  ( 0.000000000000000000, 0.000000000000000000, 0.000000000000000000 ) ) ;
#95 = PRODUCT_DEFINITION_SHAPE ( 'NONE', 'NONE',  #111 ) ;
#96 = PRODUCT_DEFINITION_FORMATION_WITH_SPECIFIED_SOURCE ( 'å¯', '', #121, .NOT_KNOWN. ) ;
#97 = APPLICATION_PROTOCOL_DEFINITION ( 'draft international standard', 'automotive_design', 1998, #31 ) ;
#98 = PRODUCT_CONTEXT ( 'NONE', #147, 'mechanical' ) ;
#99 = DIRECTION ( 'NONE',  ( 6.310887241768094443E-30, 1.000000000000000000, 3.786532345060856666E-29 ) ) ;
#100 = APPLICATION_PROTOCOL_DEFINITION ( 'draft international standard', 'automotive_design', 1998, #147 ) ;
#101 = PROPERTY_DEFINITION_REPRESENTATION ( #41, #4 ) ;
#102 = PRODUCT_RELATED_PRODUCT_CATEGORY ( 'part', '', ( #84 ) ) ;
#103 = APPLICATION_CONTEXT ( 'automotive_design' ) ;
#104 =( NAMED_UNIT ( * ) SI_UNIT ( $, .STERADIAN. ) SOLID_ANGLE_UNIT ( ) );
#105 = EXTERNAL_SOURCE (IDENTIFIER('') ) ;
#106 = APPLIED_DOCUMENT_REFERENCE ( #130,'',( #122) ) ;
#107 = ROLE_ASSOCIATION ( #85, #65 ) ;
#108 = DIRECTION ( 'NONE',  ( 0.9999999999999960032, 0.000000000000000000, 8.742277601836434542E-08 ) ) ;
#109 = EXTERNAL_SOURCE (IDENTIFIER('') ) ;
#110 =( LENGTH_UNIT ( ) NAMED_UNIT ( * ) SI_UNIT ( .MILLI., .METRE. ) );
#111 = PRODUCT_DEFINITION ( 'æ™', '', #112, #40 ) ;
#112 = PRODUCT_DEFINITION_FORMATION_WITH_SPECIFIED_SOURCE ( 'å¯', '', #81, .NOT_KNOWN. ) ;
#113 =( NAMED_UNIT ( * ) SI_UNIT ( $, .STERADIAN. ) SOLID_ANGLE_UNIT ( ) );
#114 =( NAMED_UNIT ( * ) PLANE_ANGLE_UNIT ( ) SI_UNIT ( $, .RADIAN. ) );
#115 = DOCUMENT_TYPE ( 'geometry' ) ;
#116 = APPLICATION_PROTOCOL_DEFINITION ( 'draft international standard', 'automotive_design', 1998, #103 ) ;
#117 =( GEOMETRIC_REPRESENTATION_CONTEXT ( 3 ) GLOBAL_UNCERTAINTY_ASSIGNED_CONTEXT ( ( #37 ) ) GLOBAL_UNIT_ASSIGNED_CONTEXT ( ( #125, #63, #113 ) ) REPRESENTATION_CONTEXT ( 'NONE', 'WORKASPACE' ) );
#118 = PRODUCT_RELATED_PRODUCT_CATEGORY ( 'part', '', ( #81 ) ) ;
#119 = DIRECTION ( 'NONE',  ( 1.000000000000000000, 0.000000000000000000, 0.000000000000000000 ) ) ;
#120 =( REPRESENTATION_RELATIONSHIP ('NONE','NONE', #143, #4 ) REPRESENTATION_RELATIONSHIP_WITH_TRANSFORMATION ( #71 )SHAPE_REPRESENTATION_RELATIONSHIP( ) );
#121 = PRODUCT ( 'DM_8116_0001A', 'DM_8116_0001A', '', ( #98 ) ) ;
#122 = PRODUCT_DEFINITION ( 'æ™', '', #78, #131 ) ;
#123 = OBJECT_ROLE ('mandatory',$ ) ;
#124 = AXIS2_PLACEMENT_3D ( 'NONE', #89, #99, #108 ) ;
#125 =( LENGTH_UNIT ( ) NAMED_UNIT ( * ) SI_UNIT ( .MILLI., .METRE. ) );
#126 = DIRECTION ( 'NONE',  ( 1.000000000000000000, 0.000000000000000000, 0.000000000000000000 ) ) ;
#127 =( NAMED_UNIT ( * ) PLANE_ANGLE_UNIT ( ) SI_UNIT ( $, .RADIAN. ) );
#128 = DOCUMENT_FILE ( 'DM_8116_0001A.STEP' , '', '', #115, '' ,$ ) ;
#129 = PRODUCT_DEFINITION_SHAPE ( 'NONE', 'NONE',  #151 ) ;
#130 = DOCUMENT_FILE ( 'DM80-V3_0-240723A.STEP' , '', '', #22, '' ,$ ) ;
#131 = PRODUCT_DEFINITION_CONTEXT ( 'detailed design', #14, 'design' ) ;
#132 = PROPERTY_DEFINITION ('document property','', #13 ) ;
#133 =( GEOMETRIC_REPRESENTATION_CONTEXT ( 3 ) GLOBAL_UNCERTAINTY_ASSIGNED_CONTEXT ( ( #70 ) ) GLOBAL_UNIT_ASSIGNED_CONTEXT ( ( #138, #114, #104 ) ) REPRESENTATION_CONTEXT ( 'NONE', 'WORKASPACE' ) );
#134 = UNCERTAINTY_MEASURE_WITH_UNIT (LENGTH_MEASURE( 1.000000000000000082E-05 ), #110, 'distance_accuracy_value', 'NONE');
#135 = SHAPE_REPRESENTATION ( 'DM_8116_0001A', ( #60 ), #146 ) ;
#136 =( GEOMETRIC_REPRESENTATION_CONTEXT ( 3 ) GLOBAL_UNCERTAINTY_ASSIGNED_CONTEXT ( ( #134 ) ) GLOBAL_UNIT_ASSIGNED_CONTEXT ( ( #110, #36, #67 ) ) REPRESENTATION_CONTEXT ( 'NONE', 'WORKASPACE' ) );
#137 = PRODUCT_DEFINITION ( 'æ™', '', #58, #93 ) ;
#138 =( LENGTH_UNIT ( ) NAMED_UNIT ( * ) SI_UNIT ( .MILLI., .METRE. ) );
#139 = APPLICATION_CONTEXT ( 'automotive_design' ) ;
#140 =( NAMED_UNIT ( * ) SI_UNIT ( $, .STERADIAN. ) SOLID_ANGLE_UNIT ( ) );
#141 = SHAPE_DEFINITION_REPRESENTATION ( #44, #135 ) ;
#142 = SHAPE_DEFINITION_REPRESENTATION ( #72, #18 ) ;
#143 = SHAPE_REPRESENTATION ( 'dm8009-20240822A', ( #47, #11, #124, #32 ), #136 ) ;
#144 = PROPERTY_DEFINITION ('external definition','', #128 ) ;
#145 = DIRECTION ( 'NONE',  ( 0.000000000000000000, 3.786532345060856666E-29, 1.000000000000000000 ) ) ;
#146 =( GEOMETRIC_REPRESENTATION_CONTEXT ( 3 ) GLOBAL_UNCERTAINTY_ASSIGNED_CONTEXT ( ( #79 ) ) GLOBAL_UNIT_ASSIGNED_CONTEXT ( ( #20, #127, #140 ) ) REPRESENTATION_CONTEXT ( 'NONE', 'WORKASPACE' ) );
#147 = APPLICATION_CONTEXT ( 'automotive_design' ) ;
#148 = APPLICATION_CONTEXT ( 'automotive_design' ) ;
#149 = NEXT_ASSEMBLY_USAGE_OCCURRENCE ( 'NAUO14', ' ', ' ', #111, #30, $ ) ;
#150 = NEXT_ASSEMBLY_USAGE_OCCURRENCE ( 'NAUO15', ' ', ' ', #111, #122, $ ) ;
#151 = NEXT_ASSEMBLY_USAGE_OCCURRENCE ( 'NAUO16', ' ', ' ', #111, #137, $ ) ;
ENDSEC;
END-ISO-10303-21;
