ISO-10303-21;
HEADER;
FILE_DESCRIPTION (( 'STEP AP214' ),
    '1' );
FILE_NAME ('m3x18ÏúA.STEP',
    '2026-08-16T17:26:58',
    ( '' ),
    ( '' ),
    'SwSTEP 2.0',
    'SolidWorks 2025',
    '' );
FILE_SCHEMA (( 'AUTOMOTIVE_DESIGN' ));
ENDSEC;

DATA;
#1 = VERTEX_POINT ( 'NONE', #99 ) ;
#2 = SURFACE_STYLE_FILL_AREA ( #54 ) ;
#3 = AXIS2_PLACEMENT_3D ( 'NONE', #117, #23, #69 ) ;
#4 = LINE ( 'NONE', #76, #124 ) ;
#5 = ORIENTED_EDGE ( 'NONE', *, *, #38, .T. ) ;
#6 = PRODUCT_DEFINITION_CONTEXT ( 'detailed design', #120, 'design' ) ;
#7 =( NAMED_UNIT ( * ) SI_UNIT ( $, .STERADIAN. ) SOLID_ANGLE_UNIT ( ) );
#8 = DIRECTION ( 'NONE',  ( 0.000000000000000000, 0.000000000000000000, 1.000000000000000000 ) ) ;
#9 = EDGE_CURVE ( 'NONE', #43, #55, #4, .T. ) ;
#10 = MECHANICAL_DESIGN_GEOMETRIC_PRESENTATION_REPRESENTATION (  '', ( #110 ), #100 ) ;
#11 = DIRECTION ( 'NONE',  ( 0.000000000000000000, 1.000000000000000000, 0.000000000000000000 ) ) ;
#12 = EDGE_LOOP ( 'NONE', ( #77, #5, #92, #26 ) ) ;
#13 = CARTESIAN_POINT ( 'NONE',  ( 0.000000000000000000, 0.000000000000000000, -1.500000000000000000 ) ) ;
#14 = AXIS2_PLACEMENT_3D ( 'NONE', #57, #24, #84 ) ;
#15 = ORIENTED_EDGE ( 'NONE', *, *, #58, .F. ) ;
#16 = ORIENTED_EDGE ( 'NONE', *, *, #74, .F. ) ;
#17 = UNCERTAINTY_MEASURE_WITH_UNIT (LENGTH_MEASURE( 1.000000000000000082E-05 ), #37, 'distance_accuracy_value', 'NONE');
#18 = EDGE_CURVE ( 'NONE', #55, #1, #41, .T. ) ;
#19 = DIRECTION ( 'NONE',  ( 0.000000000000000000, -1.000000000000000000, 0.000000000000000000 ) ) ;
#20 = CARTESIAN_POINT ( 'NONE',  ( 0.000000000000000000, 0.000000000000000000, 0.000000000000000000 ) ) ;
#21 = AXIS2_PLACEMENT_3D ( 'NONE', #28, #71, #62 ) ;
#22 = ADVANCED_FACE ( 'NONE', ( #75 ), #85, .T. ) ;
#23 = DIRECTION ( 'NONE',  ( 0.000000000000000000, 1.000000000000000000, 0.000000000000000000 ) ) ;
#24 = DIRECTION ( 'NONE',  ( -0.000000000000000000, 1.000000000000000000, 0.000000000000000000 ) ) ;
#25 = ORIENTED_EDGE ( 'NONE', *, *, #74, .T. ) ;
#26 = ORIENTED_EDGE ( 'NONE', *, *, #9, .F. ) ;
#27 = FACE_OUTER_BOUND ( 'NONE', #12, .T. ) ;
#28 = CARTESIAN_POINT ( 'NONE',  ( 0.000000000000000000, 0.000000000000000000, 0.000000000000000000 ) ) ;
#29 =( LENGTH_UNIT ( ) NAMED_UNIT ( * ) SI_UNIT ( .MILLI., .METRE. ) );
#30 = CARTESIAN_POINT ( 'NONE',  ( 0.000000000000000000, 0.000000000000000000, 0.000000000000000000 ) ) ;
#31 = DIRECTION ( 'NONE',  ( 0.000000000000000000, 0.000000000000000000, 1.000000000000000000 ) ) ;
#32 = SURFACE_SIDE_STYLE ('',( #2 ) ) ;
#33 = PRODUCT_DEFINITION ( 'æ™', '', #97, #6 ) ;
#34 = PRESENTATION_STYLE_ASSIGNMENT (( #86 ) ) ;
#35 = FACE_OUTER_BOUND ( 'NONE', #104, .T. ) ;
#36 = APPLICATION_PROTOCOL_DEFINITION ( 'draft international standard', 'automotive_design', 1998, #103 ) ;
#37 =( LENGTH_UNIT ( ) NAMED_UNIT ( * ) SI_UNIT ( .MILLI., .METRE. ) );
#38 = EDGE_CURVE ( 'NONE', #78, #1, #102, .T. ) ;
#39 = PRESENTATION_LAYER_ASSIGNMENT (  '', '', ( #110 ) ) ;
#40 = ADVANCED_BREP_SHAPE_REPRESENTATION ( 'm3x18\X2\9500\X0\A', ( #91, #61 ), #82 ) ;
#41 = CIRCLE ( 'NONE', #3, 1.500000000000000000 ) ;
#42 = ORIENTED_EDGE ( 'NONE', *, *, #18, .F. ) ;
#43 = VERTEX_POINT ( 'NONE', #118 ) ;
#44 = FILL_AREA_STYLE_COLOUR ( '', #60 ) ;
#45 = DIRECTION ( 'NONE',  ( 0.000000000000000000, 1.000000000000000000, 0.000000000000000000 ) ) ;
#46 = CYLINDRICAL_SURFACE ( 'NONE', #107, 1.500000000000000000 ) ;
#47 = CIRCLE ( 'NONE', #116, 1.500000000000000000 ) ;
#48 = DIRECTION ( 'NONE',  ( 0.000000000000000000, 0.000000000000000000, 1.000000000000000000 ) ) ;
#49 = FACE_OUTER_BOUND ( 'NONE', #68, .T. ) ;
#50 = DIRECTION ( 'NONE',  ( 0.000000000000000000, 1.000000000000000000, 0.000000000000000000 ) ) ;
#51 = CIRCLE ( 'NONE', #79, 1.500000000000000000 ) ;
#52 = PRODUCT_CONTEXT ( 'NONE', #103, 'mechanical' ) ;
#53 = PRODUCT ( 'm3x18\X2\9500\X0\A', 'm3x18\X2\9500\X0\A', '', ( #52 ) ) ;
#54 = FILL_AREA_STYLE ('',( #44 ) ) ;
#55 = VERTEX_POINT ( 'NONE', #13 ) ;
#56 = DIRECTION ( 'NONE',  ( 0.000000000000000000, -1.000000000000000000, 0.000000000000000000 ) ) ;
#57 = CARTESIAN_POINT ( 'NONE',  ( 0.000000000000000000, 18.00000000000000000, 0.000000000000000000 ) ) ;
#58 = EDGE_CURVE ( 'NONE', #1, #55, #51, .T. ) ;
#59 = DIRECTION ( 'NONE',  ( 0.000000000000000000, 0.000000000000000000, -1.000000000000000000 ) ) ;
#60 = COLOUR_RGB ( '',0.7921568627450980005, 0.8196078431372548767, 0.9333333333333333481 ) ;
#61 = AXIS2_PLACEMENT_3D ( 'NONE', #20, #8, #88 ) ;
#62 = DIRECTION ( 'NONE',  ( 1.000000000000000000, 0.000000000000000000, 0.000000000000000000 ) ) ;
#63 = CLOSED_SHELL ( 'NONE', ( #105, #22, #73, #113 ) ) ;
#64 = DIRECTION ( 'NONE',  ( 0.000000000000000000, -1.000000000000000000, 0.000000000000000000 ) ) ;
#65 = UNCERTAINTY_MEASURE_WITH_UNIT (LENGTH_MEASURE( 1.000000000000000082E-05 ), #29, 'distance_accuracy_value', 'NONE');
#66 = CARTESIAN_POINT ( 'NONE',  ( 0.000000000000000000, 18.00000000000000000, 0.000000000000000000 ) ) ;
#67 = CARTESIAN_POINT ( 'NONE',  ( 0.000000000000000000, 18.00000000000000000, 0.000000000000000000 ) ) ;
#68 = EDGE_LOOP ( 'NONE', ( #42, #15 ) ) ;
#69 = DIRECTION ( 'NONE',  ( 0.000000000000000000, 0.000000000000000000, 1.000000000000000000 ) ) ;
#70 = DIRECTION ( 'NONE',  ( 0.000000000000000000, 0.000000000000000000, -1.000000000000000000 ) ) ;
#71 = DIRECTION ( 'NONE',  ( -0.000000000000000000, 1.000000000000000000, 0.000000000000000000 ) ) ;
#72 = PRODUCT_RELATED_PRODUCT_CATEGORY ( 'part', '', ( #53 ) ) ;
#73 = ADVANCED_FACE ( 'NONE', ( #35 ), #95, .T. ) ;
#74 = EDGE_CURVE ( 'NONE', #43, #78, #94, .T. ) ;
#75 = FACE_OUTER_BOUND ( 'NONE', #108, .T. ) ;
#76 = CARTESIAN_POINT ( 'NONE',  ( 0.000000000000000000, 18.00000000000000000, -1.500000000000000000 ) ) ;
#77 = ORIENTED_EDGE ( 'NONE', *, *, #119, .F. ) ;
#78 = VERTEX_POINT ( 'NONE', #96 ) ;
#79 = AXIS2_PLACEMENT_3D ( 'NONE', #30, #45, #31 ) ;
#80 = CARTESIAN_POINT ( 'NONE',  ( 0.000000000000000000, 18.00000000000000000, 0.000000000000000000 ) ) ;
#81 = AXIS2_PLACEMENT_3D ( 'NONE', #66, #11, #87 ) ;
#82 =( GEOMETRIC_REPRESENTATION_CONTEXT ( 3 ) GLOBAL_UNCERTAINTY_ASSIGNED_CONTEXT ( ( #65 ) ) GLOBAL_UNIT_ASSIGNED_CONTEXT ( ( #29, #90, #122 ) ) REPRESENTATION_CONTEXT ( 'NONE', 'WORKASPACE' ) );
#83 = AXIS2_PLACEMENT_3D ( 'NONE', #67, #56, #59 ) ;
#84 = DIRECTION ( 'NONE',  ( 1.000000000000000000, 0.000000000000000000, 0.000000000000000000 ) ) ;
#85 = PLANE ( 'NONE',  #14 ) ;
#86 = SURFACE_STYLE_USAGE ( .BOTH. , #32 ) ;
#87 = DIRECTION ( 'NONE',  ( 0.000000000000000000, 0.000000000000000000, 1.000000000000000000 ) ) ;
#88 = DIRECTION ( 'NONE',  ( 1.000000000000000000, 0.000000000000000000, 0.000000000000000000 ) ) ;
#89 = VECTOR ( 'NONE', #64, 1000.000000000000000 ) ;
#90 =( NAMED_UNIT ( * ) PLANE_ANGLE_UNIT ( ) SI_UNIT ( $, .RADIAN. ) );
#91 = MANIFOLD_SOLID_BREP ( 'NONE', #63 ) ;
#92 = ORIENTED_EDGE ( 'NONE', *, *, #58, .T. ) ;
#93 = PLANE ( 'NONE',  #21 ) ;
#94 = CIRCLE ( 'NONE', #81, 1.500000000000000000 ) ;
#95 = CYLINDRICAL_SURFACE ( 'NONE', #83, 1.500000000000000000 ) ;
#96 = CARTESIAN_POINT ( 'NONE',  ( 1.836970198721030181E-16, 18.00000000000000000, 1.500000000000000000 ) ) ;
#97 = PRODUCT_DEFINITION_FORMATION_WITH_SPECIFIED_SOURCE ( 'å¯', '', #53, .NOT_KNOWN. ) ;
#98 = PRODUCT_DEFINITION_SHAPE ( 'NONE', 'NONE',  #33 ) ;
#99 = CARTESIAN_POINT ( 'NONE',  ( 1.836970198721030181E-16, 0.000000000000000000, 1.500000000000000000 ) ) ;
#100 =( GEOMETRIC_REPRESENTATION_CONTEXT ( 3 ) GLOBAL_UNCERTAINTY_ASSIGNED_CONTEXT ( ( #17 ) ) GLOBAL_UNIT_ASSIGNED_CONTEXT ( ( #37, #115, #7 ) ) REPRESENTATION_CONTEXT ( 'NONE', 'WORKASPACE' ) );
#101 = ORIENTED_EDGE ( 'NONE', *, *, #119, .T. ) ;
#102 = LINE ( 'NONE', #112, #89 ) ;
#103 = APPLICATION_CONTEXT ( 'automotive_design' ) ;
#104 = EDGE_LOOP ( 'NONE', ( #114, #16, #109, #121 ) ) ;
#105 = ADVANCED_FACE ( 'NONE', ( #49 ), #93, .F. ) ;
#106 = CARTESIAN_POINT ( 'NONE',  ( 0.000000000000000000, 18.00000000000000000, 0.000000000000000000 ) ) ;
#107 = AXIS2_PLACEMENT_3D ( 'NONE', #80, #19, #70 ) ;
#108 = EDGE_LOOP ( 'NONE', ( #25, #101 ) ) ;
#109 = ORIENTED_EDGE ( 'NONE', *, *, #9, .T. ) ;
#110 = STYLED_ITEM ( 'NONE', ( #34 ), #91 ) ;
#111 = DIRECTION ( 'NONE',  ( 0.000000000000000000, -1.000000000000000000, 0.000000000000000000 ) ) ;
#112 = CARTESIAN_POINT ( 'NONE',  ( 1.836970198721030181E-16, 18.00000000000000000, 1.500000000000000000 ) ) ;
#113 = ADVANCED_FACE ( 'NONE', ( #27 ), #46, .T. ) ;
#114 = ORIENTED_EDGE ( 'NONE', *, *, #38, .F. ) ;
#115 =( NAMED_UNIT ( * ) PLANE_ANGLE_UNIT ( ) SI_UNIT ( $, .RADIAN. ) );
#116 = AXIS2_PLACEMENT_3D ( 'NONE', #106, #50, #48 ) ;
#117 = CARTESIAN_POINT ( 'NONE',  ( 0.000000000000000000, 0.000000000000000000, 0.000000000000000000 ) ) ;
#118 = CARTESIAN_POINT ( 'NONE',  ( 0.000000000000000000, 18.00000000000000000, -1.500000000000000000 ) ) ;
#119 = EDGE_CURVE ( 'NONE', #78, #43, #47, .T. ) ;
#120 = APPLICATION_CONTEXT ( 'automotive_design' ) ;
#121 = ORIENTED_EDGE ( 'NONE', *, *, #18, .T. ) ;
#122 =( NAMED_UNIT ( * ) SI_UNIT ( $, .STERADIAN. ) SOLID_ANGLE_UNIT ( ) );
#123 = APPLICATION_PROTOCOL_DEFINITION ( 'draft international standard', 'automotive_design', 1998, #120 ) ;
#124 = VECTOR ( 'NONE', #111, 1000.000000000000000 ) ;
#125 = SHAPE_DEFINITION_REPRESENTATION ( #98, #40 ) ;
ENDSEC;
END-ISO-10303-21;
