ISO-10303-21;
HEADER;
FILE_DESCRIPTION (( 'STEP AP214' ),
    '1' );
FILE_NAME ('MirrorSTD_Gas_Spring_tapered head_¿ªÔ´A.STEP',
    '2026-08-16T17:26:53',
    ( '' ),
    ( '' ),
    'SwSTEP 2.0',
    'SolidWorks 2025',
    '' );
FILE_SCHEMA (( 'AUTOMOTIVE_DESIGN' ));
ENDSEC;

DATA;
#1 = DIRECTION ( 'NONE',  ( 1.000000000000000000, 0.000000000000000000, 0.000000000000000000 ) ) ;
#2 = FACE_OUTER_BOUND ( 'NONE', #245, .T. ) ;
#3 = CARTESIAN_POINT ( 'NONE',  ( 6.999999999999999112, 2.500000000000000000, -10.00000000000000000 ) ) ;
#4 = CARTESIAN_POINT ( 'NONE',  ( 3.122498999199198710, -2.500000000000000000, -10.00000000000000000 ) ) ;
#5 = AXIS2_PLACEMENT_3D ( 'NONE', #187, #401, #142 ) ;
#6 = VERTEX_POINT ( 'NONE', #256 ) ;
#7 = EDGE_CURVE ( 'NONE', #6, #556, #349, .T. ) ;
#8 = DIRECTION ( 'NONE',  ( -1.000000000000000000, 0.000000000000000000, 0.000000000000000000 ) ) ;
#9 = DIRECTION ( 'NONE',  ( 0.000000000000000000, 0.000000000000000000, -1.000000000000000000 ) ) ;
#10 = EDGE_CURVE ( 'NONE', #296, #47, #576, .T. ) ;
#11 = EDGE_CURVE ( 'NONE', #75, #573, #411, .T. ) ;
#12 = CARTESIAN_POINT ( 'NONE',  ( -7.000000000000000888, -5.000000000000000000, -26.00000000000000355 ) ) ;
#13 = VECTOR ( 'NONE', #315, 1000.000000000000000 ) ;
#14 = ORIENTED_EDGE ( 'NONE', *, *, #235, .T. ) ;
#15 = PRESENTATION_STYLE_ASSIGNMENT (( #372 ) ) ;
#16 = EDGE_CURVE ( 'NONE', #556, #339, #234, .T. ) ;
#17 = CIRCLE ( 'NONE', #191, 5.000000000000000000 ) ;
#18 = DIRECTION ( 'NONE',  ( 0.000000000000000000, 0.000000000000000000, 1.000000000000000000 ) ) ;
#19 = LINE ( 'NONE', #202, #415 ) ;
#20 = VECTOR ( 'NONE', #495, 1000.000000000000000 ) ;
#21 = ORIENTED_EDGE ( 'NONE', *, *, #235, .F. ) ;
#22 = EDGE_CURVE ( 'NONE', #177, #573, #362, .T. ) ;
#23 = FACE_OUTER_BOUND ( 'NONE', #24, .T. ) ;
#24 = EDGE_LOOP ( 'NONE', ( #310, #56, #511, #351 ) ) ;
#25 = CARTESIAN_POINT ( 'NONE',  ( 0.000000000000000000, 2.499999999999999556, -16.00000000000000355 ) ) ;
#26 = EDGE_LOOP ( 'NONE', ( #346, #482, #402, #450, #519, #241 ) ) ;
#27 = EDGE_CURVE ( 'NONE', #577, #222, #184, .T. ) ;
#28 = CARTESIAN_POINT ( 'NONE',  ( 0.000000000000000000, 7.500000000000000888, -16.00000000000000355 ) ) ;
#29 = DIRECTION ( 'NONE',  ( 0.000000000000000000, 0.000000000000000000, 1.000000000000000000 ) ) ;
#30 = EDGE_CURVE ( 'NONE', #211, #287, #449, .T. ) ;
#31 = VERTEX_POINT ( 'NONE', #543 ) ;
#32 = ADVANCED_FACE ( 'NONE', ( #2 ), #532, .F. ) ;
#33 = DIRECTION ( 'NONE',  ( 1.000000000000000000, 0.000000000000000000, 0.000000000000000000 ) ) ;
#34 = EDGE_LOOP ( 'NONE', ( #568, #376 ) ) ;
#35 = APPLICATION_PROTOCOL_DEFINITION ( 'draft international standard', 'automotive_design', 1998, #224 ) ;
#36 = AXIS2_PLACEMENT_3D ( 'NONE', #189, #494, #8 ) ;
#37 = DIRECTION ( 'NONE',  ( -0.000000000000000000, -1.000000000000000000, 0.000000000000000000 ) ) ;
#38 = CARTESIAN_POINT ( 'NONE',  ( 0.000000000000000000, 2.499999999999999556, -19.00000000000000355 ) ) ;
#39 = ORIENTED_EDGE ( 'NONE', *, *, #236, .F. ) ;
#40 = CARTESIAN_POINT ( 'NONE',  ( 0.000000000000000000, 0.000000000000000000, -10.00000000000000000 ) ) ;
#41 = ORIENTED_EDGE ( 'NONE', *, *, #438, .F. ) ;
#42 = EDGE_CURVE ( 'NONE', #148, #6, #204, .T. ) ;
#43 = DIRECTION ( 'NONE',  ( 0.000000000000000000, 0.000000000000000000, -1.000000000000000000 ) ) ;
#44 = ORIENTED_EDGE ( 'NONE', *, *, #447, .F. ) ;
#45 = DIRECTION ( 'NONE',  ( 1.000000000000000000, 0.000000000000000000, 0.000000000000000000 ) ) ;
#46 = CARTESIAN_POINT ( 'NONE',  ( 0.000000000000000000, 0.000000000000000000, -10.00000000000000000 ) ) ;
#47 = VERTEX_POINT ( 'NONE', #186 ) ;
#48 = VECTOR ( 'NONE', #569, 1000.000000000000000 ) ;
#49 = EDGE_CURVE ( 'NONE', #385, #535, #489, .T. ) ;
#50 = EDGE_LOOP ( 'NONE', ( #107, #524, #508, #474, #476, #110 ) ) ;
#51 = AXIS2_PLACEMENT_3D ( 'NONE', #93, #61, #9 ) ;
#52 = CARTESIAN_POINT ( 'NONE',  ( 4.000000000000000000, -4.898587196589412829E-16, -10.00000000000000000 ) ) ;
#53 = CYLINDRICAL_SURFACE ( 'NONE', #503, 5.000000000000000000 ) ;
#54 = EDGE_CURVE ( 'NONE', #405, #206, #153, .T. ) ;
#55 = DIRECTION ( 'NONE',  ( 1.000000000000000000, 0.000000000000000000, 0.000000000000000000 ) ) ;
#56 = ORIENTED_EDGE ( 'NONE', *, *, #416, .F. ) ;
#57 = DIRECTION ( 'NONE',  ( -0.000000000000000000, -0.000000000000000000, 1.000000000000000000 ) ) ;
#58 = PLANE ( 'NONE',  #529 ) ;
#59 = ADVANCED_FACE ( 'NONE', ( #101 ), #139, .T. ) ;
#60 = CARTESIAN_POINT ( 'NONE',  ( -5.000000000000000000, 0.000000000000000000, -10.00000000000000000 ) ) ;
#61 = DIRECTION ( 'NONE',  ( 0.000000000000000000, 1.000000000000000000, 0.000000000000000000 ) ) ;
#62 = COLOUR_RGB ( '',0.7921568627450980005, 0.8196078431372548767, 0.9333333333333333481 ) ;
#63 = AXIS2_PLACEMENT_3D ( 'NONE', #255, #207, #259 ) ;
#64 = FACE_OUTER_BOUND ( 'NONE', #551, .T. ) ;
#65 = EDGE_LOOP ( 'NONE', ( #122, #502, #203, #116 ) ) ;
#66 = DIRECTION ( 'NONE',  ( -0.000000000000000000, -0.000000000000000000, 1.000000000000000000 ) ) ;
#67 = VERTEX_POINT ( 'NONE', #4 ) ;
#68 = PLANE ( 'NONE',  #386 ) ;
#69 = ORIENTED_EDGE ( 'NONE', *, *, #477, .T. ) ;
#70 = SHAPE_DEFINITION_REPRESENTATION ( #140, #397 ) ;
#71 =( GEOMETRIC_REPRESENTATION_CONTEXT ( 3 ) GLOBAL_UNCERTAINTY_ASSIGNED_CONTEXT ( ( #145 ) ) GLOBAL_UNIT_ASSIGNED_CONTEXT ( ( #276, #412, #292 ) ) REPRESENTATION_CONTEXT ( 'NONE', 'WORKASPACE' ) );
#72 = DIRECTION ( 'NONE',  ( -0.000000000000000000, -0.000000000000000000, 1.000000000000000000 ) ) ;
#73 = ORIENTED_EDGE ( 'NONE', *, *, #416, .T. ) ;
#74 = DIRECTION ( 'NONE',  ( 0.000000000000000000, 1.000000000000000000, 0.000000000000000000 ) ) ;
#75 = VERTEX_POINT ( 'NONE', #452 ) ;
#76 = CIRCLE ( 'NONE', #51, 2.999999999999999112 ) ;
#77 = DIRECTION ( 'NONE',  ( 0.000000000000000000, 0.000000000000000000, 1.000000000000000000 ) ) ;
#78 = ORIENTED_EDGE ( 'NONE', *, *, #330, .F. ) ;
#79 = CARTESIAN_POINT ( 'NONE',  ( 0.000000000000000000, 0.000000000000000000, -10.00000000000000000 ) ) ;
#80 = ORIENTED_EDGE ( 'NONE', *, *, #561, .T. ) ;
#81 = EDGE_CURVE ( 'NONE', #183, #199, #76, .T. ) ;
#82 = CARTESIAN_POINT ( 'NONE',  ( -4.330127018922190096, 2.500000000000000000, -10.00000000000000000 ) ) ;
#83 = CARTESIAN_POINT ( 'NONE',  ( -7.000000000000000888, -2.500000000000000000, -10.00000000000000000 ) ) ;
#84 = ORIENTED_EDGE ( 'NONE', *, *, #447, .T. ) ;
#85 = DIRECTION ( 'NONE',  ( -1.000000000000000000, 0.000000000000000000, 0.000000000000000000 ) ) ;
#86 = ORIENTED_EDGE ( 'NONE', *, *, #355, .T. ) ;
#87 = AXIS2_PLACEMENT_3D ( 'NONE', #261, #394, #43 ) ;
#88 = DIRECTION ( 'NONE',  ( 1.000000000000000000, 0.000000000000000000, 0.000000000000000000 ) ) ;
#89 = ORIENTED_EDGE ( 'NONE', *, *, #113, .T. ) ;
#90 = AXIS2_PLACEMENT_3D ( 'NONE', #46, #470, #33 ) ;
#91 = CARTESIAN_POINT ( 'NONE',  ( -7.000000000000000888, -2.500000000000000000, -10.00000000000000000 ) ) ;
#92 = EDGE_CURVE ( 'NONE', #287, #31, #469, .T. ) ;
#93 = CARTESIAN_POINT ( 'NONE',  ( 0.000000000000000000, 2.499999999999999556, -19.00000000000000355 ) ) ;
#94 = CIRCLE ( 'NONE', #345, 5.000000000000000000 ) ;
#95 = DIRECTION ( 'NONE',  ( 0.000000000000000000, 0.000000000000000000, 1.000000000000000000 ) ) ;
#96 = DIRECTION ( 'NONE',  ( -0.000000000000000000, -0.000000000000000000, 1.000000000000000000 ) ) ;
#97 = CARTESIAN_POINT ( 'NONE',  ( 6.999999999999999112, -2.500000000000000000, -10.00000000000000000 ) ) ;
#98 = AXIS2_PLACEMENT_3D ( 'NONE', #369, #547, #564 ) ;
#99 = ORIENTED_EDGE ( 'NONE', *, *, #497, .F. ) ;
#100 = LINE ( 'NONE', #440, #209 ) ;
#101 = FACE_OUTER_BOUND ( 'NONE', #258, .T. ) ;
#102 = DIRECTION ( 'NONE',  ( -1.000000000000000000, 0.000000000000000000, 0.000000000000000000 ) ) ;
#103 = EDGE_CURVE ( 'NONE', #425, #148, #443, .T. ) ;
#104 =( LENGTH_UNIT ( ) NAMED_UNIT ( * ) SI_UNIT ( .MILLI., .METRE. ) );
#105 = DIRECTION ( 'NONE',  ( 1.000000000000000000, 0.000000000000000000, 0.000000000000000000 ) ) ;
#106 = AXIS2_PLACEMENT_3D ( 'NONE', #176, #347, #520 ) ;
#107 = ORIENTED_EDGE ( 'NONE', *, *, #330, .T. ) ;
#108 = EDGE_CURVE ( 'NONE', #425, #535, #231, .T. ) ;
#109 = PLANE ( 'NONE',  #193 ) ;
#110 = ORIENTED_EDGE ( 'NONE', *, *, #92, .T. ) ;
#111 = CARTESIAN_POINT ( 'NONE',  ( 6.999999999999999112, -5.000000000000000000, -26.00000000000000355 ) ) ;
#112 = ORIENTED_EDGE ( 'NONE', *, *, #49, .F. ) ;
#113 = EDGE_CURVE ( 'NONE', #133, #513, #344, .T. ) ;
#114 = SURFACE_SIDE_STYLE ('',( #366 ) ) ;
#115 = CARTESIAN_POINT ( 'NONE',  ( 3.122498999199199154, 2.499999999999999112, -10.00000000000000000 ) ) ;
#116 = ORIENTED_EDGE ( 'NONE', *, *, #371, .F. ) ;
#117 = LINE ( 'NONE', #289, #243 ) ;
#118 = CIRCLE ( 'NONE', #393, 2.999999999999999112 ) ;
#119 = ORIENTED_EDGE ( 'NONE', *, *, #236, .T. ) ;
#120 = CYLINDRICAL_SURFACE ( 'NONE', #290, 2.999999999999999112 ) ;
#121 = DIRECTION ( 'NONE',  ( -0.000000000000000000, -1.000000000000000000, 0.000000000000000000 ) ) ;
#122 = ORIENTED_EDGE ( 'NONE', *, *, #497, .T. ) ;
#123 = AXIS2_PLACEMENT_3D ( 'NONE', #356, #528, #135 ) ;
#124 = AXIS2_PLACEMENT_3D ( 'NONE', #488, #190, #317 ) ;
#125 = CARTESIAN_POINT ( 'NONE',  ( 4.000000000000000000, -4.898587196589412829E-16, -10.00000000000000000 ) ) ;
#126 = ORIENTED_EDGE ( 'NONE', *, *, #22, .F. ) ;
#127 = LINE ( 'NONE', #572, #413 ) ;
#128 = ORIENTED_EDGE ( 'NONE', *, *, #371, .T. ) ;
#129 = FACE_OUTER_BOUND ( 'NONE', #441, .T. ) ;
#130 = VERTEX_POINT ( 'NONE', #97 ) ;
#131 = EDGE_CURVE ( 'NONE', #222, #251, #444, .T. ) ;
#132 = DIRECTION ( 'NONE',  ( 1.000000000000000000, 0.000000000000000000, 0.000000000000000000 ) ) ;
#133 = VERTEX_POINT ( 'NONE', #278 ) ;
#134 = PRESENTATION_LAYER_ASSIGNMENT (  '', '', ( #384 ) ) ;
#135 = DIRECTION ( 'NONE',  ( 1.000000000000000000, 0.000000000000000000, 0.000000000000000000 ) ) ;
#136 = VECTOR ( 'NONE', #512, 1000.000000000000000 ) ;
#137 = PRODUCT_DEFINITION_CONTEXT ( 'detailed design', #224, 'design' ) ;
#138 = DIRECTION ( 'NONE',  ( -0.000000000000000000, -1.000000000000000000, 0.000000000000000000 ) ) ;
#139 = PLANE ( 'NONE',  #500 ) ;
#140 = PRODUCT_DEFINITION_SHAPE ( 'NONE', 'NONE',  #408 ) ;
#141 = DIRECTION ( 'NONE',  ( 0.000000000000000000, 0.000000000000000000, 1.000000000000000000 ) ) ;
#142 = DIRECTION ( 'NONE',  ( 1.000000000000000000, 0.000000000000000000, 0.000000000000000000 ) ) ;
#143 = EDGE_CURVE ( 'NONE', #47, #67, #451, .T. ) ;
#144 = ORIENTED_EDGE ( 'NONE', *, *, #268, .F. ) ;
#145 = UNCERTAINTY_MEASURE_WITH_UNIT (LENGTH_MEASURE( 1.000000000000000082E-05 ), #276, 'distance_accuracy_value', 'NONE');
#146 = CARTESIAN_POINT ( 'NONE',  ( -7.000000000000000888, -2.500000000000000000, -10.00000000000000000 ) ) ;
#147 =( GEOMETRIC_REPRESENTATION_CONTEXT ( 3 ) GLOBAL_UNCERTAINTY_ASSIGNED_CONTEXT ( ( #540 ) ) GLOBAL_UNIT_ASSIGNED_CONTEXT ( ( #104, #329, #455 ) ) REPRESENTATION_CONTEXT ( 'NONE', 'WORKASPACE' ) );
#148 = VERTEX_POINT ( 'NONE', #115 ) ;
#149 = AXIS2_PLACEMENT_3D ( 'NONE', #79, #475, #88 ) ;
#150 = DIRECTION ( 'NONE',  ( -1.000000000000000000, 0.000000000000000000, 0.000000000000000000 ) ) ;
#151 = DIRECTION ( 'NONE',  ( -0.000000000000000000, -0.000000000000000000, 1.000000000000000000 ) ) ;
#152 = ADVANCED_FACE ( 'NONE', ( #23 ), #373, .F. ) ;
#153 = CIRCLE ( 'NONE', #324, 2.999999999999999112 ) ;
#154 = CARTESIAN_POINT ( 'NONE',  ( 0.000000000000000000, 0.000000000000000000, -10.00000000000000000 ) ) ;
#155 = DIRECTION ( 'NONE',  ( -1.000000000000000000, 0.000000000000000000, 0.000000000000000000 ) ) ;
#156 = ORIENTED_EDGE ( 'NONE', *, *, #11, .T. ) ;
#157 = CARTESIAN_POINT ( 'NONE',  ( -4.330127018922193649, -2.500000000000000000, -10.00000000000000000 ) ) ;
#158 = ORIENTED_EDGE ( 'NONE', *, *, #171, .F. ) ;
#159 = CARTESIAN_POINT ( 'NONE',  ( 4.000000000000000000, -4.898587196589412829E-16, 0.000000000000000000 ) ) ;
#160 = DIRECTION ( 'NONE',  ( 0.000000000000000000, -0.000000000000000000, 1.000000000000000000 ) ) ;
#161 = ORIENTED_EDGE ( 'NONE', *, *, #348, .T. ) ;
#162 = LINE ( 'NONE', #337, #136 ) ;
#163 = ORIENTED_EDGE ( 'NONE', *, *, #355, .F. ) ;
#164 = AXIS2_PLACEMENT_3D ( 'NONE', #398, #578, #487 ) ;
#165 = DIRECTION ( 'NONE',  ( -1.000000000000000000, 0.000000000000000000, 0.000000000000000000 ) ) ;
#166 = VECTOR ( 'NONE', #77, 1000.000000000000000 ) ;
#167 = EDGE_LOOP ( 'NONE', ( #308, #69, #279, #558 ) ) ;
#168 = APPLICATION_PROTOCOL_DEFINITION ( 'draft international standard', 'automotive_design', 1998, #169 ) ;
#169 = APPLICATION_CONTEXT ( 'automotive_design' ) ;
#170 = EDGE_CURVE ( 'NONE', #67, #31, #244, .T. ) ;
#171 = EDGE_CURVE ( 'NONE', #577, #287, #94, .T. ) ;
#172 = CARTESIAN_POINT ( 'NONE',  ( -7.000000000000000888, 2.500000000000000000, -26.00000000000000355 ) ) ;
#173 = EDGE_LOOP ( 'NONE', ( #161, #460, #84, #579, #480, #333 ) ) ;
#174 = AXIS2_PLACEMENT_3D ( 'NONE', #404, #151, #55 ) ;
#175 = CIRCLE ( 'NONE', #490, 4.000000000000000000 ) ;
#176 = CARTESIAN_POINT ( 'NONE',  ( 0.000000000000000000, -2.500000000000000000, 0.000000000000000000 ) ) ;
#177 = VERTEX_POINT ( 'NONE', #282 ) ;
#178 = AXIS2_PLACEMENT_3D ( 'NONE', #194, #560, #574 ) ;
#179 = LINE ( 'NONE', #350, #13 ) ;
#180 = EDGE_CURVE ( 'NONE', #6, #296, #175, .T. ) ;
#181 = EDGE_LOOP ( 'NONE', ( #283, #429, #163, #318, #516, #374, #220, #427 ) ) ;
#182 = DIRECTION ( 'NONE',  ( 1.000000000000000000, 0.000000000000000000, 0.000000000000000000 ) ) ;
#183 = VERTEX_POINT ( 'NONE', #424 ) ;
#184 = LINE ( 'NONE', #60, #552 ) ;
#185 = AXIS2_PLACEMENT_3D ( 'NONE', #383, #165, #518 ) ;
#186 = CARTESIAN_POINT ( 'NONE',  ( -3.122498999199199154, -2.500000000000000000, -10.00000000000000000 ) ) ;
#187 = CARTESIAN_POINT ( 'NONE',  ( 0.000000000000000000, 0.000000000000000000, -10.00000000000000000 ) ) ;
#188 = ORIENTED_EDGE ( 'NONE', *, *, #10, .F. ) ;
#189 = CARTESIAN_POINT ( 'NONE',  ( 0.000000000000000000, 0.000000000000000000, -10.00000000000000000 ) ) ;
#190 = DIRECTION ( 'NONE',  ( -0.000000000000000000, -0.000000000000000000, 1.000000000000000000 ) ) ;
#191 = AXIS2_PLACEMENT_3D ( 'NONE', #40, #387, #132 ) ;
#192 = DIRECTION ( 'NONE',  ( -1.000000000000000000, 0.000000000000000000, 0.000000000000000000 ) ) ;
#193 = AXIS2_PLACEMENT_3D ( 'NONE', #420, #160, #200 ) ;
#194 = CARTESIAN_POINT ( 'NONE',  ( 0.000000000000000000, 0.000000000000000000, 0.000000000000000000 ) ) ;
#195 = CARTESIAN_POINT ( 'NONE',  ( 0.000000000000000000, 0.000000000000000000, -10.00000000000000000 ) ) ;
#196 = AXIS2_PLACEMENT_3D ( 'NONE', #273, #269, #360 ) ;
#197 = AXIS2_PLACEMENT_3D ( 'NONE', #332, #247, #29 ) ;
#198 = PLANE ( 'NONE',  #239 ) ;
#199 = VERTEX_POINT ( 'NONE', #25 ) ;
#200 = DIRECTION ( 'NONE',  ( -1.000000000000000000, 0.000000000000000000, 0.000000000000000000 ) ) ;
#201 = ORIENTED_EDGE ( 'NONE', *, *, #438, .T. ) ;
#202 = CARTESIAN_POINT ( 'NONE',  ( -7.000000000000000888, 2.500000000000000000, -10.00000000000000000 ) ) ;
#203 = ORIENTED_EDGE ( 'NONE', *, *, #7, .T. ) ;
#204 = CIRCLE ( 'NONE', #174, 4.000000000000000000 ) ;
#205 = CARTESIAN_POINT ( 'NONE',  ( -7.000000000000000888, -2.500000000000000000, -10.00000000000000000 ) ) ;
#206 = VERTEX_POINT ( 'NONE', #453 ) ;
#207 = DIRECTION ( 'NONE',  ( 0.000000000000000000, 0.000000000000000000, -1.000000000000000000 ) ) ;
#208 = ORIENTED_EDGE ( 'NONE', *, *, #16, .T. ) ;
#209 = VECTOR ( 'NONE', #138, 1000.000000000000000 ) ;
#210 = CARTESIAN_POINT ( 'NONE',  ( -7.000000000000000888, 2.500000000000000000, -10.00000000000000000 ) ) ;
#211 = VERTEX_POINT ( 'NONE', #205 ) ;
#212 = CARTESIAN_POINT ( 'NONE',  ( 0.000000000000000000, 7.500000000000000888, -19.00000000000000355 ) ) ;
#213 = PLANE ( 'NONE',  #106 ) ;
#214 = ORIENTED_EDGE ( 'NONE', *, *, #218, .T. ) ;
#215 = CARTESIAN_POINT ( 'NONE',  ( 0.000000000000000000, 0.000000000000000000, -10.00000000000000000 ) ) ;
#216 = CARTESIAN_POINT ( 'NONE',  ( -7.000000000000000888, -5.000000000000000000, -10.00000000000000000 ) ) ;
#217 = CARTESIAN_POINT ( 'NONE',  ( 6.999999999999999112, 2.500000000000000000, -10.00000000000000000 ) ) ;
#218 = EDGE_CURVE ( 'NONE', #296, #385, #117, .T. ) ;
#219 = PLANE ( 'NONE',  #63 ) ;
#220 = ORIENTED_EDGE ( 'NONE', *, *, #496, .F. ) ;
#221 = FACE_OUTER_BOUND ( 'NONE', #431, .T. ) ;
#222 = VERTEX_POINT ( 'NONE', #284 ) ;
#223 = DIRECTION ( 'NONE',  ( 0.000000000000000000, 0.000000000000000000, 1.000000000000000000 ) ) ;
#224 = APPLICATION_CONTEXT ( 'automotive_design' ) ;
#225 = CARTESIAN_POINT ( 'NONE',  ( -7.000000000000000888, -2.500000000000000000, -10.00000000000000000 ) ) ;
#226 = DIRECTION ( 'NONE',  ( 1.000000000000000000, 0.000000000000000000, 0.000000000000000000 ) ) ;
#227 = PRODUCT ( 'MirrorSTD_Gas_Spring_tapered head_\X2\5f006e90\X0\A', 'MirrorSTD_Gas_Spring_tapered head_\X2\5f006e90\X0\A', '', ( #472 ) ) ;
#228 = EDGE_LOOP ( 'NONE', ( #86, #119, #201, #21 ) ) ;
#229 = DIRECTION ( 'NONE',  ( -1.000000000000000000, 0.000000000000000000, 0.000000000000000000 ) ) ;
#230 = VECTOR ( 'NONE', #192, 1000.000000000000000 ) ;
#231 = LINE ( 'NONE', #52, #517 ) ;
#232 = ADVANCED_FACE ( 'NONE', ( #456 ), #506, .T. ) ;
#233 = CARTESIAN_POINT ( 'NONE',  ( 0.000000000000000000, 0.000000000000000000, -10.00000000000000000 ) ) ;
#234 = LINE ( 'NONE', #238, #331 ) ;
#235 = EDGE_CURVE ( 'NONE', #130, #395, #162, .T. ) ;
#236 = EDGE_CURVE ( 'NONE', #75, #249, #295, .T. ) ;
#237 = VECTOR ( 'NONE', #121, 1000.000000000000000 ) ;
#238 = CARTESIAN_POINT ( 'NONE',  ( 6.999999999999999112, 2.500000000000000000, -10.00000000000000000 ) ) ;
#239 = AXIS2_PLACEMENT_3D ( 'NONE', #240, #417, #286 ) ;
#240 = CARTESIAN_POINT ( 'NONE',  ( 0.000000000000000000, -2.500000000000000000, -10.00000000000000000 ) ) ;
#241 = ORIENTED_EDGE ( 'NONE', *, *, #42, .F. ) ;
#242 = AXIS2_PLACEMENT_3D ( 'NONE', #322, #442, #226 ) ;
#243 = VECTOR ( 'NONE', #463, 1000.000000000000000 ) ;
#244 = LINE ( 'NONE', #510, #419 ) ;
#245 = EDGE_LOOP ( 'NONE', ( #156, #126, #342, #39 ) ) ;
#246 = ADVANCED_FACE ( 'NONE', ( #253 ), #68, .T. ) ;
#247 = DIRECTION ( 'NONE',  ( 1.000000000000000000, 0.000000000000000000, -0.000000000000000000 ) ) ;
#248 = AXIS2_PLACEMENT_3D ( 'NONE', #215, #434, #45 ) ;
#249 = VERTEX_POINT ( 'NONE', #544 ) ;
#250 = DIRECTION ( 'NONE',  ( -0.000000000000000000, -0.000000000000000000, 1.000000000000000000 ) ) ;
#251 = VERTEX_POINT ( 'NONE', #325 ) ;
#252 = CLOSED_SHELL ( 'NONE', ( #461, #484, #565, #479, #407, #152, #32, #59, #458, #246, #358, #232, #271, #303, #380, #435, #267 ) ) ;
#253 = FACE_OUTER_BOUND ( 'NONE', #173, .T. ) ;
#254 = ORIENTED_EDGE ( 'NONE', *, *, #509, .F. ) ;
#255 = CARTESIAN_POINT ( 'NONE',  ( 0.000000000000000000, 0.000000000000000000, 0.000000000000000000 ) ) ;
#256 = CARTESIAN_POINT ( 'NONE',  ( -3.122498999199195158, 2.500000000000000000, -10.00000000000000000 ) ) ;
#257 = DIRECTION ( 'NONE',  ( 0.000000000000000000, -1.000000000000000000, 0.000000000000000000 ) ) ;
#258 = EDGE_LOOP ( 'NONE', ( #14, #437, #454, #78, #305 ) ) ;
#259 = DIRECTION ( 'NONE',  ( 1.000000000000000000, 0.000000000000000000, 0.000000000000000000 ) ) ;
#260 = ORIENTED_EDGE ( 'NONE', *, *, #496, .T. ) ;
#261 = CARTESIAN_POINT ( 'NONE',  ( 0.000000000000000000, 2.500000000000000000, 0.000000000000000000 ) ) ;
#262 = ORIENTED_EDGE ( 'NONE', *, *, #16, .F. ) ;
#263 = VECTOR ( 'NONE', #531, 1000.000000000000000 ) ;
#264 = FACE_OUTER_BOUND ( 'NONE', #26, .T. ) ;
#265 = ORIENTED_EDGE ( 'NONE', *, *, #170, .T. ) ;
#266 = AXIS2_PLACEMENT_3D ( 'NONE', #343, #432, #85 ) ;
#267 = ADVANCED_FACE ( 'NONE', ( #64 ), #198, .F. ) ;
#268 = EDGE_CURVE ( 'NONE', #339, #177, #19, .T. ) ;
#269 = DIRECTION ( 'NONE',  ( -0.000000000000000000, -0.000000000000000000, 1.000000000000000000 ) ) ;
#270 = AXIS2_PLACEMENT_3D ( 'NONE', #275, #363, #537 ) ;
#271 = ADVANCED_FACE ( 'NONE', ( #504 ), #545, .F. ) ;
#272 = LINE ( 'NONE', #3, #357 ) ;
#273 = CARTESIAN_POINT ( 'NONE',  ( 0.000000000000000000, 0.000000000000000000, -10.00000000000000000 ) ) ;
#274 = LINE ( 'NONE', #28, #493 ) ;
#275 = CARTESIAN_POINT ( 'NONE',  ( 0.000000000000000000, 0.000000000000000000, 0.000000000000000000 ) ) ;
#276 =( LENGTH_UNIT ( ) NAMED_UNIT ( * ) SI_UNIT ( .MILLI., .METRE. ) );
#277 = LINE ( 'NONE', #410, #263 ) ;
#278 = CARTESIAN_POINT ( 'NONE',  ( 5.000000000000000000, -6.123233995736766282E-16, -10.00000000000000000 ) ) ;
#279 = ORIENTED_EDGE ( 'NONE', *, *, #327, .T. ) ;
#280 = DIRECTION ( 'NONE',  ( -0.000000000000000000, -1.000000000000000000, 0.000000000000000000 ) ) ;
#281 = AXIS2_PLACEMENT_3D ( 'NONE', #498, #527, #141 ) ;
#282 = CARTESIAN_POINT ( 'NONE',  ( -7.000000000000000888, 2.500000000000000000, -26.00000000000000355 ) ) ;
#283 = ORIENTED_EDGE ( 'NONE', *, *, #323, .F. ) ;
#284 = CARTESIAN_POINT ( 'NONE',  ( -5.000000000000000000, 0.000000000000000000, 0.000000000000000000 ) ) ;
#285 = ORIENTED_EDGE ( 'NONE', *, *, #81, .F. ) ;
#286 = DIRECTION ( 'NONE',  ( -1.000000000000000000, 0.000000000000000000, 0.000000000000000000 ) ) ;
#287 = VERTEX_POINT ( 'NONE', #157 ) ;
#288 = FILL_AREA_STYLE_COLOUR ( '', #62 ) ;
#289 = CARTESIAN_POINT ( 'NONE',  ( -4.000000000000000000, 0.000000000000000000, -10.00000000000000000 ) ) ;
#290 = AXIS2_PLACEMENT_3D ( 'NONE', #212, #37, #571 ) ;
#291 = EDGE_LOOP ( 'NONE', ( #538, #468, #382, #188, #214, #388 ) ) ;
#292 =( NAMED_UNIT ( * ) SI_UNIT ( $, .STERADIAN. ) SOLID_ANGLE_UNIT ( ) );
#293 = AXIS2_PLACEMENT_3D ( 'NONE', #38, #428, #430 ) ;
#294 = PRODUCT_RELATED_PRODUCT_CATEGORY ( 'part', '', ( #227 ) ) ;
#295 = LINE ( 'NONE', #111, #340 ) ;
#296 = VERTEX_POINT ( 'NONE', #549 ) ;
#297 = FACE_BOUND ( 'NONE', #34, .T. ) ;
#298 = ORIENTED_EDGE ( 'NONE', *, *, #81, .T. ) ;
#299 = CARTESIAN_POINT ( 'NONE',  ( -5.000000000000000000, 0.000000000000000000, -10.00000000000000000 ) ) ;
#300 = CARTESIAN_POINT ( 'NONE',  ( 0.000000000000000000, -2.499999999999999556, -19.00000000000000355 ) ) ;
#301 = ORIENTED_EDGE ( 'NONE', *, *, #550, .T. ) ;
#302 = MECHANICAL_DESIGN_GEOMETRIC_PRESENTATION_REPRESENTATION (  '', ( #384 ), #147 ) ;
#303 = ADVANCED_FACE ( 'NONE', ( #326 ), #109, .F. ) ;
#304 = DIRECTION ( 'NONE',  ( 0.000000000000000000, 0.000000000000000000, 1.000000000000000000 ) ) ;
#305 = ORIENTED_EDGE ( 'NONE', *, *, #336, .T. ) ;
#306 = VECTOR ( 'NONE', #364, 1000.000000000000000 ) ;
#307 = DIRECTION ( 'NONE',  ( 0.000000000000000000, 0.000000000000000000, 1.000000000000000000 ) ) ;
#308 = ORIENTED_EDGE ( 'NONE', *, *, #367, .T. ) ;
#309 = FACE_OUTER_BOUND ( 'NONE', #392, .T. ) ;
#310 = ORIENTED_EDGE ( 'NONE', *, *, #323, .T. ) ;
#311 = VECTOR ( 'NONE', #182, 1000.000000000000000 ) ;
#312 = FACE_OUTER_BOUND ( 'NONE', #50, .T. ) ;
#313 = CARTESIAN_POINT ( 'NONE',  ( 0.000000000000000000, 0.000000000000000000, -26.00000000000000355 ) ) ;
#314 = CIRCLE ( 'NONE', #90, 4.000000000000000000 ) ;
#315 = DIRECTION ( 'NONE',  ( -1.000000000000000000, 0.000000000000000000, 0.000000000000000000 ) ) ;
#316 = DIRECTION ( 'NONE',  ( -0.000000000000000000, -0.000000000000000000, 1.000000000000000000 ) ) ;
#317 = DIRECTION ( 'NONE',  ( 1.000000000000000000, 0.000000000000000000, 0.000000000000000000 ) ) ;
#318 = ORIENTED_EDGE ( 'NONE', *, *, #336, .F. ) ;
#319 = CIRCLE ( 'NONE', #248, 5.000000000000000000 ) ;
#320 = DIRECTION ( 'NONE',  ( -1.000000000000000000, 0.000000000000000000, 0.000000000000000000 ) ) ;
#321 = LINE ( 'NONE', #91, #338 ) ;
#322 = CARTESIAN_POINT ( 'NONE',  ( 0.000000000000000000, 0.000000000000000000, 0.000000000000000000 ) ) ;
#323 = EDGE_CURVE ( 'NONE', #573, #211, #334, .T. ) ;
#324 = AXIS2_PLACEMENT_3D ( 'NONE', #486, #499, #534 ) ;
#325 = CARTESIAN_POINT ( 'NONE',  ( 5.000000000000000000, -6.123233995736766282E-16, 0.000000000000000000 ) ) ;
#326 = FACE_OUTER_BOUND ( 'NONE', #65, .T. ) ;
#327 = EDGE_CURVE ( 'NONE', #206, #405, #118, .T. ) ;
#328 = ORIENTED_EDGE ( 'NONE', *, *, #396, .F. ) ;
#329 =( NAMED_UNIT ( * ) PLANE_ANGLE_UNIT ( ) SI_UNIT ( $, .RADIAN. ) );
#330 = EDGE_CURVE ( 'NONE', #31, #133, #514, .T. ) ;
#331 = VECTOR ( 'NONE', #414, 1000.000000000000000 ) ;
#332 = CARTESIAN_POINT ( 'NONE',  ( -7.000000000000000888, -5.000000000000000000, -26.00000000000000355 ) ) ;
#333 = ORIENTED_EDGE ( 'NONE', *, *, #143, .T. ) ;
#334 = LINE ( 'NONE', #459, #166 ) ;
#335 = ORIENTED_EDGE ( 'NONE', *, *, #477, .F. ) ;
#336 = EDGE_CURVE ( 'NONE', #31, #130, #523, .T. ) ;
#337 = CARTESIAN_POINT ( 'NONE',  ( 6.999999999999999112, -5.000000000000000000, -10.00000000000000000 ) ) ;
#338 = VECTOR ( 'NONE', #1, 1000.000000000000000 ) ;
#339 = VERTEX_POINT ( 'NONE', #210 ) ;
#340 = VECTOR ( 'NONE', #74, 1000.000000000000000 ) ;
#341 = CARTESIAN_POINT ( 'NONE',  ( 6.999999999999999112, -2.500000000000000000, -10.00000000000000000 ) ) ;
#342 = ORIENTED_EDGE ( 'NONE', *, *, #396, .T. ) ;
#343 = CARTESIAN_POINT ( 'NONE',  ( 0.000000000000000000, 0.000000000000000000, -10.00000000000000000 ) ) ;
#344 = CIRCLE ( 'NONE', #124, 5.000000000000000000 ) ;
#345 = AXIS2_PLACEMENT_3D ( 'NONE', #154, #72, #105 ) ;
#346 = ORIENTED_EDGE ( 'NONE', *, *, #103, .F. ) ;
#347 = DIRECTION ( 'NONE',  ( 0.000000000000000000, -1.000000000000000000, 0.000000000000000000 ) ) ;
#348 = EDGE_CURVE ( 'NONE', #67, #425, #314, .T. ) ;
#349 = LINE ( 'NONE', #217, #406 ) ;
#350 = CARTESIAN_POINT ( 'NONE',  ( 6.999999999999999112, 2.500000000000000000, -10.00000000000000000 ) ) ;
#351 = ORIENTED_EDGE ( 'NONE', *, *, #22, .T. ) ;
#352 = VECTOR ( 'NONE', #280, 1000.000000000000000 ) ;
#353 = PLANE ( 'NONE',  #185 ) ;
#354 = ORIENTED_EDGE ( 'NONE', *, *, #30, .T. ) ;
#355 = EDGE_CURVE ( 'NONE', #130, #75, #473, .T. ) ;
#356 = CARTESIAN_POINT ( 'NONE',  ( 0.000000000000000000, 0.000000000000000000, -10.00000000000000000 ) ) ;
#357 = VECTOR ( 'NONE', #229, 1000.000000000000000 ) ;
#358 = ADVANCED_FACE ( 'NONE', ( #129, #478 ), #219, .F. ) ;
#359 = FACE_OUTER_BOUND ( 'NONE', #546, .T. ) ;
#360 = DIRECTION ( 'NONE',  ( 1.000000000000000000, 0.000000000000000000, 0.000000000000000000 ) ) ;
#361 = CARTESIAN_POINT ( 'NONE',  ( 4.330127018922194537, 2.500000000000000000, -10.00000000000000000 ) ) ;
#362 = LINE ( 'NONE', #12, #352 ) ;
#363 = DIRECTION ( 'NONE',  ( -0.000000000000000000, -0.000000000000000000, 1.000000000000000000 ) ) ;
#364 = DIRECTION ( 'NONE',  ( 1.000000000000000000, 0.000000000000000000, 0.000000000000000000 ) ) ;
#365 = CIRCLE ( 'NONE', #266, 4.000000000000000000 ) ;
#366 = SURFACE_STYLE_FILL_AREA ( #548 ) ;
#367 = EDGE_CURVE ( 'NONE', #199, #183, #465, .T. ) ;
#368 = DIRECTION ( 'NONE',  ( -1.000000000000000000, 0.000000000000000000, 0.000000000000000000 ) ) ;
#369 = CARTESIAN_POINT ( 'NONE',  ( 0.000000000000000000, 0.000000000000000000, 0.000000000000000000 ) ) ;
#370 = EDGE_CURVE ( 'NONE', #67, #47, #365, .T. ) ;
#371 = EDGE_CURVE ( 'NONE', #513, #556, #17, .T. ) ;
#372 = SURFACE_STYLE_USAGE ( .BOTH. , #114 ) ;
#373 = PLANE ( 'NONE',  #197 ) ;
#374 = ORIENTED_EDGE ( 'NONE', *, *, #143, .F. ) ;
#375 = CARTESIAN_POINT ( 'NONE',  ( 0.000000000000000000, 0.000000000000000000, -10.00000000000000000 ) ) ;
#376 = ORIENTED_EDGE ( 'NONE', *, *, #327, .F. ) ;
#377 = AXIS2_PLACEMENT_3D ( 'NONE', #313, #95, #320 ) ;
#378 = DIRECTION ( 'NONE',  ( 1.000000000000000000, 0.000000000000000000, 0.000000000000000000 ) ) ;
#379 = ORIENTED_EDGE ( 'NONE', *, *, #553, .F. ) ;
#380 = ADVANCED_FACE ( 'NONE', ( #309, #426 ), #567, .T. ) ;
#381 = CARTESIAN_POINT ( 'NONE',  ( 0.000000000000000000, 0.000000000000000000, -10.00000000000000000 ) ) ;
#382 = ORIENTED_EDGE ( 'NONE', *, *, #370, .T. ) ;
#383 = CARTESIAN_POINT ( 'NONE',  ( 6.999999999999999112, -5.000000000000000000, -26.00000000000000355 ) ) ;
#384 = STYLED_ITEM ( 'NONE', ( #15 ), #530 ) ;
#385 = VERTEX_POINT ( 'NONE', #575 ) ;
#386 = AXIS2_PLACEMENT_3D ( 'NONE', #195, #18, #368 ) ;
#387 = DIRECTION ( 'NONE',  ( -0.000000000000000000, -0.000000000000000000, 1.000000000000000000 ) ) ;
#388 = ORIENTED_EDGE ( 'NONE', *, *, #49, .T. ) ;
#389 = LINE ( 'NONE', #216, #237 ) ;
#390 = ORIENTED_EDGE ( 'NONE', *, *, #131, .T. ) ;
#391 = FACE_OUTER_BOUND ( 'NONE', #181, .T. ) ;
#392 = EDGE_LOOP ( 'NONE', ( #41, #328, #144, #262, #421, #44, #99, #254 ) ) ;
#393 = AXIS2_PLACEMENT_3D ( 'NONE', #300, #257, #307 ) ;
#394 = DIRECTION ( 'NONE',  ( 0.000000000000000000, 1.000000000000000000, 0.000000000000000000 ) ) ;
#395 = VERTEX_POINT ( 'NONE', #525 ) ;
#396 = EDGE_CURVE ( 'NONE', #177, #249, #481, .T. ) ;
#397 = ADVANCED_BREP_SHAPE_REPRESENTATION ( 'MirrorSTD_Gas_Spring_tapered head_\X2\5f006e90\X0\A', ( #530, #98 ), #71 ) ;
#398 = CARTESIAN_POINT ( 'NONE',  ( 0.000000000000000000, 0.000000000000000000, 0.000000000000000000 ) ) ;
#399 = ORIENTED_EDGE ( 'NONE', *, *, #92, .F. ) ;
#400 = DIRECTION ( 'NONE',  ( -1.000000000000000000, 0.000000000000000000, 0.000000000000000000 ) ) ;
#401 = DIRECTION ( 'NONE',  ( -0.000000000000000000, -0.000000000000000000, 1.000000000000000000 ) ) ;
#402 = ORIENTED_EDGE ( 'NONE', *, *, #507, .T. ) ;
#403 = DIRECTION ( 'NONE',  ( -0.000000000000000000, -0.000000000000000000, 1.000000000000000000 ) ) ;
#404 = CARTESIAN_POINT ( 'NONE',  ( 0.000000000000000000, 0.000000000000000000, -10.00000000000000000 ) ) ;
#405 = VERTEX_POINT ( 'NONE', #515 ) ;
#406 = VECTOR ( 'NONE', #522, 1000.000000000000000 ) ;
#407 = ADVANCED_FACE ( 'NONE', ( #562 ), #353, .F. ) ;
#408 = PRODUCT_DEFINITION ( 'æ™', '', #539, #137 ) ;
#409 = DIRECTION ( 'NONE',  ( 0.000000000000000000, 0.000000000000000000, 1.000000000000000000 ) ) ;
#410 = CARTESIAN_POINT ( 'NONE',  ( 6.999999999999999112, 2.500000000000000000, -10.00000000000000000 ) ) ;
#411 = LINE ( 'NONE', #446, #230 ) ;
#412 =( NAMED_UNIT ( * ) PLANE_ANGLE_UNIT ( ) SI_UNIT ( $, .RADIAN. ) );
#413 = VECTOR ( 'NONE', #304, 1000.000000000000000 ) ;
#414 = DIRECTION ( 'NONE',  ( -1.000000000000000000, 0.000000000000000000, 0.000000000000000000 ) ) ;
#415 = VECTOR ( 'NONE', #555, 1000.000000000000000 ) ;
#416 = EDGE_CURVE ( 'NONE', #339, #211, #389, .T. ) ;
#417 = DIRECTION ( 'NONE',  ( 0.000000000000000000, 0.000000000000000000, 1.000000000000000000 ) ) ;
#418 = ORIENTED_EDGE ( 'NONE', *, *, #370, .F. ) ;
#419 = VECTOR ( 'NONE', #378, 1000.000000000000000 ) ;
#420 = CARTESIAN_POINT ( 'NONE',  ( 0.000000000000000000, 2.500000000000000000, -10.00000000000000000 ) ) ;
#421 = ORIENTED_EDGE ( 'NONE', *, *, #7, .F. ) ;
#422 = DIRECTION ( 'NONE',  ( 1.000000000000000000, 0.000000000000000000, 0.000000000000000000 ) ) ;
#423 = EDGE_LOOP ( 'NONE', ( #457, #89, #128, #80, #505, #379 ) ) ;
#424 = CARTESIAN_POINT ( 'NONE',  ( -3.673940397442060854E-16, 2.499999999999999556, -22.00000000000000355 ) ) ;
#425 = VERTEX_POINT ( 'NONE', #125 ) ;
#426 = FACE_BOUND ( 'NONE', #464, .T. ) ;
#427 = ORIENTED_EDGE ( 'NONE', *, *, #30, .F. ) ;
#428 = DIRECTION ( 'NONE',  ( 0.000000000000000000, 1.000000000000000000, 0.000000000000000000 ) ) ;
#429 = ORIENTED_EDGE ( 'NONE', *, *, #11, .F. ) ;
#430 = DIRECTION ( 'NONE',  ( 0.000000000000000000, 0.000000000000000000, -1.000000000000000000 ) ) ;
#431 = EDGE_LOOP ( 'NONE', ( #433, #208, #73, #354, #158 ) ) ;
#432 = DIRECTION ( 'NONE',  ( -0.000000000000000000, -0.000000000000000000, -1.000000000000000000 ) ) ;
#433 = ORIENTED_EDGE ( 'NONE', *, *, #561, .F. ) ;
#434 = DIRECTION ( 'NONE',  ( -0.000000000000000000, -0.000000000000000000, 1.000000000000000000 ) ) ;
#435 = ADVANCED_FACE ( 'NONE', ( #391, #297 ), #213, .T. ) ;
#436 = DIRECTION ( 'NONE',  ( 1.000000000000000000, 0.000000000000000000, 0.000000000000000000 ) ) ;
#437 = ORIENTED_EDGE ( 'NONE', *, *, #509, .T. ) ;
#438 = EDGE_CURVE ( 'NONE', #249, #395, #127, .T. ) ;
#439 = AXIS2_PLACEMENT_3D ( 'NONE', #375, #66, #155 ) ;
#440 = CARTESIAN_POINT ( 'NONE',  ( -3.673940397442059868E-16, 7.500000000000000888, -22.00000000000000355 ) ) ;
#441 = EDGE_LOOP ( 'NONE', ( #390, #471 ) ) ;
#442 = DIRECTION ( 'NONE',  ( -0.000000000000000000, -0.000000000000000000, 1.000000000000000000 ) ) ;
#443 = CIRCLE ( 'NONE', #196, 4.000000000000000000 ) ;
#444 = CIRCLE ( 'NONE', #270, 5.000000000000000000 ) ;
#445 = CARTESIAN_POINT ( 'NONE',  ( 0.000000000000000000, 0.000000000000000000, -10.00000000000000000 ) ) ;
#446 = CARTESIAN_POINT ( 'NONE',  ( 6.999999999999999112, -2.500000000000000000, -26.00000000000000355 ) ) ;
#447 = EDGE_CURVE ( 'NONE', #148, #6, #179, .T. ) ;
#448 = ORIENTED_EDGE ( 'NONE', *, *, #367, .F. ) ;
#449 = LINE ( 'NONE', #225, #306 ) ;
#450 = ORIENTED_EDGE ( 'NONE', *, *, #218, .F. ) ;
#451 = LINE ( 'NONE', #146, #20 ) ;
#452 = CARTESIAN_POINT ( 'NONE',  ( 6.999999999999999112, -2.500000000000000000, -26.00000000000000355 ) ) ;
#453 = CARTESIAN_POINT ( 'NONE',  ( -3.673940397442060854E-16, -2.499999999999999556, -22.00000000000000355 ) ) ;
#454 = ORIENTED_EDGE ( 'NONE', *, *, #113, .F. ) ;
#455 =( NAMED_UNIT ( * ) SI_UNIT ( $, .STERADIAN. ) SOLID_ANGLE_UNIT ( ) );
#456 = FACE_OUTER_BOUND ( 'NONE', #423, .T. ) ;
#457 = ORIENTED_EDGE ( 'NONE', *, *, #521, .F. ) ;
#458 = ADVANCED_FACE ( 'NONE', ( #359 ), #536, .F. ) ;
#459 = CARTESIAN_POINT ( 'NONE',  ( -7.000000000000000888, -2.500000000000000000, -26.00000000000000355 ) ) ;
#460 = ORIENTED_EDGE ( 'NONE', *, *, #103, .T. ) ;
#461 = ADVANCED_FACE ( 'NONE', ( #264 ), #541, .F. ) ;
#462 = CIRCLE ( 'NONE', #178, 5.000000000000000000 ) ;
#463 = DIRECTION ( 'NONE',  ( -0.000000000000000000, -0.000000000000000000, 1.000000000000000000 ) ) ;
#464 = EDGE_LOOP ( 'NONE', ( #448, #285 ) ) ;
#465 = CIRCLE ( 'NONE', #293, 2.999999999999999112 ) ;
#466 = FACE_OUTER_BOUND ( 'NONE', #167, .T. ) ;
#467 = CARTESIAN_POINT ( 'NONE',  ( 0.000000000000000000, 0.000000000000000000, -10.00000000000000000 ) ) ;
#468 = ORIENTED_EDGE ( 'NONE', *, *, #348, .F. ) ;
#469 = CIRCLE ( 'NONE', #123, 5.000000000000000000 ) ;
#470 = DIRECTION ( 'NONE',  ( -0.000000000000000000, -0.000000000000000000, 1.000000000000000000 ) ) ;
#471 = ORIENTED_EDGE ( 'NONE', *, *, #553, .T. ) ;
#472 = PRODUCT_CONTEXT ( 'NONE', #169, 'mechanical' ) ;
#473 = LINE ( 'NONE', #341, #48 ) ;
#474 = ORIENTED_EDGE ( 'NONE', *, *, #27, .F. ) ;
#475 = DIRECTION ( 'NONE',  ( -0.000000000000000000, -0.000000000000000000, 1.000000000000000000 ) ) ;
#476 = ORIENTED_EDGE ( 'NONE', *, *, #171, .T. ) ;
#477 = EDGE_CURVE ( 'NONE', #183, #206, #100, .T. ) ;
#478 = FACE_BOUND ( 'NONE', #526, .T. ) ;
#479 = ADVANCED_FACE ( 'NONE', ( #221 ), #58, .T. ) ;
#480 = ORIENTED_EDGE ( 'NONE', *, *, #10, .T. ) ;
#481 = LINE ( 'NONE', #172, #311 ) ;
#482 = ORIENTED_EDGE ( 'NONE', *, *, #108, .T. ) ;
#483 = CIRCLE ( 'NONE', #164, 4.000000000000000000 ) ;
#484 = ADVANCED_FACE ( 'NONE', ( #312 ), #53, .T. ) ;
#485 = VECTOR ( 'NONE', #436, 1000.000000000000000 ) ;
#486 = CARTESIAN_POINT ( 'NONE',  ( 0.000000000000000000, -2.499999999999999556, -19.00000000000000355 ) ) ;
#487 = DIRECTION ( 'NONE',  ( 1.000000000000000000, 0.000000000000000000, 0.000000000000000000 ) ) ;
#488 = CARTESIAN_POINT ( 'NONE',  ( 0.000000000000000000, 0.000000000000000000, -10.00000000000000000 ) ) ;
#489 = CIRCLE ( 'NONE', #242, 4.000000000000000000 ) ;
#490 = AXIS2_PLACEMENT_3D ( 'NONE', #467, #250, #422 ) ;
#491 = CARTESIAN_POINT ( 'NONE',  ( 5.000000000000000000, -6.123233995736766282E-16, -10.00000000000000000 ) ) ;
#492 = CARTESIAN_POINT ( 'NONE',  ( 0.000000000000000000, 0.000000000000000000, -10.00000000000000000 ) ) ;
#493 = VECTOR ( 'NONE', #554, 1000.000000000000000 ) ;
#494 = DIRECTION ( 'NONE',  ( -0.000000000000000000, -0.000000000000000000, 1.000000000000000000 ) ) ;
#495 = DIRECTION ( 'NONE',  ( 1.000000000000000000, 0.000000000000000000, 0.000000000000000000 ) ) ;
#496 = EDGE_CURVE ( 'NONE', #287, #47, #321, .T. ) ;
#497 = EDGE_CURVE ( 'NONE', #513, #148, #277, .T. ) ;
#498 = CARTESIAN_POINT ( 'NONE',  ( 0.000000000000000000, 7.500000000000000888, -19.00000000000000355 ) ) ;
#499 = DIRECTION ( 'NONE',  ( 0.000000000000000000, -1.000000000000000000, 0.000000000000000000 ) ) ;
#500 = AXIS2_PLACEMENT_3D ( 'NONE', #492, #409, #102 ) ;
#501 = DIRECTION ( 'NONE',  ( -0.000000000000000000, -0.000000000000000000, 1.000000000000000000 ) ) ;
#502 = ORIENTED_EDGE ( 'NONE', *, *, #42, .T. ) ;
#503 = AXIS2_PLACEMENT_3D ( 'NONE', #233, #403, #400 ) ;
#504 = FACE_OUTER_BOUND ( 'NONE', #291, .T. ) ;
#505 = ORIENTED_EDGE ( 'NONE', *, *, #27, .T. ) ;
#506 = CYLINDRICAL_SURFACE ( 'NONE', #542, 5.000000000000000000 ) ;
#507 = EDGE_CURVE ( 'NONE', #535, #385, #483, .T. ) ;
#508 = ORIENTED_EDGE ( 'NONE', *, *, #131, .F. ) ;
#509 = EDGE_CURVE ( 'NONE', #395, #513, #272, .T. ) ;
#510 = CARTESIAN_POINT ( 'NONE',  ( -7.000000000000000888, -2.500000000000000000, -10.00000000000000000 ) ) ;
#511 = ORIENTED_EDGE ( 'NONE', *, *, #268, .T. ) ;
#512 = DIRECTION ( 'NONE',  ( 0.000000000000000000, 1.000000000000000000, 0.000000000000000000 ) ) ;
#513 = VERTEX_POINT ( 'NONE', #361 ) ;
#514 = CIRCLE ( 'NONE', #149, 5.000000000000000000 ) ;
#515 = CARTESIAN_POINT ( 'NONE',  ( 0.000000000000000000, -2.499999999999999556, -16.00000000000000355 ) ) ;
#516 = ORIENTED_EDGE ( 'NONE', *, *, #170, .F. ) ;
#517 = VECTOR ( 'NONE', #316, 1000.000000000000000 ) ;
#518 = DIRECTION ( 'NONE',  ( 0.000000000000000000, 0.000000000000000000, -1.000000000000000000 ) ) ;
#519 = ORIENTED_EDGE ( 'NONE', *, *, #180, .F. ) ;
#520 = DIRECTION ( 'NONE',  ( 0.000000000000000000, 0.000000000000000000, 1.000000000000000000 ) ) ;
#521 = EDGE_CURVE ( 'NONE', #133, #251, #533, .T. ) ;
#522 = DIRECTION ( 'NONE',  ( -1.000000000000000000, 0.000000000000000000, 0.000000000000000000 ) ) ;
#523 = LINE ( 'NONE', #83, #485 ) ;
#524 = ORIENTED_EDGE ( 'NONE', *, *, #521, .T. ) ;
#525 = CARTESIAN_POINT ( 'NONE',  ( 6.999999999999999112, 2.499999999999999556, -10.00000000000000000 ) ) ;
#526 = EDGE_LOOP ( 'NONE', ( #112, #570 ) ) ;
#527 = DIRECTION ( 'NONE',  ( -0.000000000000000000, -1.000000000000000000, 0.000000000000000000 ) ) ;
#528 = DIRECTION ( 'NONE',  ( -0.000000000000000000, -0.000000000000000000, 1.000000000000000000 ) ) ;
#529 = AXIS2_PLACEMENT_3D ( 'NONE', #445, #223, #150 ) ;
#530 = MANIFOLD_SOLID_BREP ( '<STD_Gas_Spring_tapered head>-<\X2\52079664\X0\-\X2\62c94f38\X0\3>', #252 ) ;
#531 = DIRECTION ( 'NONE',  ( -1.000000000000000000, 0.000000000000000000, 0.000000000000000000 ) ) ;
#532 = PLANE ( 'NONE',  #377 ) ;
#533 = LINE ( 'NONE', #491, #559 ) ;
#534 = DIRECTION ( 'NONE',  ( 0.000000000000000000, 0.000000000000000000, 1.000000000000000000 ) ) ;
#535 = VERTEX_POINT ( 'NONE', #159 ) ;
#536 = CYLINDRICAL_SURFACE ( 'NONE', #281, 2.999999999999999112 ) ;
#537 = DIRECTION ( 'NONE',  ( 1.000000000000000000, 0.000000000000000000, 0.000000000000000000 ) ) ;
#538 = ORIENTED_EDGE ( 'NONE', *, *, #108, .F. ) ;
#539 = PRODUCT_DEFINITION_FORMATION_WITH_SPECIFIED_SOURCE ( 'å¯', '', #227, .NOT_KNOWN. ) ;
#540 = UNCERTAINTY_MEASURE_WITH_UNIT (LENGTH_MEASURE( 1.000000000000000082E-05 ), #104, 'distance_accuracy_value', 'NONE');
#541 = CYLINDRICAL_SURFACE ( 'NONE', #36, 4.000000000000000000 ) ;
#542 = AXIS2_PLACEMENT_3D ( 'NONE', #381, #501, #557 ) ;
#543 = CARTESIAN_POINT ( 'NONE',  ( 4.330127018922193649, -2.500000000000000000, -10.00000000000000000 ) ) ;
#544 = CARTESIAN_POINT ( 'NONE',  ( 6.999999999999999112, 2.500000000000000000, -26.00000000000000355 ) ) ;
#545 = CYLINDRICAL_SURFACE ( 'NONE', #439, 4.000000000000000000 ) ;
#546 = EDGE_LOOP ( 'NONE', ( #335, #298, #301, #563 ) ) ;
#547 = DIRECTION ( 'NONE',  ( 0.000000000000000000, 0.000000000000000000, 1.000000000000000000 ) ) ;
#548 = FILL_AREA_STYLE ('',( #288 ) ) ;
#549 = CARTESIAN_POINT ( 'NONE',  ( -4.000000000000000000, 0.000000000000000000, -10.00000000000000000 ) ) ;
#550 = EDGE_CURVE ( 'NONE', #199, #405, #274, .T. ) ;
#551 = EDGE_LOOP ( 'NONE', ( #265, #399, #260, #418 ) ) ;
#552 = VECTOR ( 'NONE', #57, 1000.000000000000000 ) ;
#553 = EDGE_CURVE ( 'NONE', #251, #222, #462, .T. ) ;
#554 = DIRECTION ( 'NONE',  ( -0.000000000000000000, -1.000000000000000000, 0.000000000000000000 ) ) ;
#555 = DIRECTION ( 'NONE',  ( 0.000000000000000000, 0.000000000000000000, -1.000000000000000000 ) ) ;
#556 = VERTEX_POINT ( 'NONE', #82 ) ;
#557 = DIRECTION ( 'NONE',  ( -1.000000000000000000, 0.000000000000000000, 0.000000000000000000 ) ) ;
#558 = ORIENTED_EDGE ( 'NONE', *, *, #550, .F. ) ;
#559 = VECTOR ( 'NONE', #96, 1000.000000000000000 ) ;
#560 = DIRECTION ( 'NONE',  ( -0.000000000000000000, -0.000000000000000000, 1.000000000000000000 ) ) ;
#561 = EDGE_CURVE ( 'NONE', #556, #577, #319, .T. ) ;
#562 = FACE_OUTER_BOUND ( 'NONE', #228, .T. ) ;
#563 = ORIENTED_EDGE ( 'NONE', *, *, #54, .T. ) ;
#564 = DIRECTION ( 'NONE',  ( 1.000000000000000000, 0.000000000000000000, 0.000000000000000000 ) ) ;
#565 = ADVANCED_FACE ( 'NONE', ( #466 ), #120, .F. ) ;
#566 = CARTESIAN_POINT ( 'NONE',  ( -7.000000000000000888, -2.500000000000000000, -26.00000000000000355 ) ) ;
#567 = PLANE ( 'NONE',  #87 ) ;
#568 = ORIENTED_EDGE ( 'NONE', *, *, #54, .F. ) ;
#569 = DIRECTION ( 'NONE',  ( 0.000000000000000000, 0.000000000000000000, -1.000000000000000000 ) ) ;
#570 = ORIENTED_EDGE ( 'NONE', *, *, #507, .F. ) ;
#571 = DIRECTION ( 'NONE',  ( 0.000000000000000000, 0.000000000000000000, 1.000000000000000000 ) ) ;
#572 = CARTESIAN_POINT ( 'NONE',  ( 6.999999999999999112, 2.500000000000000000, -26.00000000000000355 ) ) ;
#573 = VERTEX_POINT ( 'NONE', #566 ) ;
#574 = DIRECTION ( 'NONE',  ( 1.000000000000000000, 0.000000000000000000, 0.000000000000000000 ) ) ;
#575 = CARTESIAN_POINT ( 'NONE',  ( -4.000000000000000000, 0.000000000000000000, 0.000000000000000000 ) ) ;
#576 = CIRCLE ( 'NONE', #5, 4.000000000000000000 ) ;
#577 = VERTEX_POINT ( 'NONE', #299 ) ;
#578 = DIRECTION ( 'NONE',  ( -0.000000000000000000, -0.000000000000000000, 1.000000000000000000 ) ) ;
#579 = ORIENTED_EDGE ( 'NONE', *, *, #180, .T. ) ;
ENDSEC;
END-ISO-10303-21;
