ISO-10303-21;
HEADER;
FILE_DESCRIPTION (( 'STEP AP214' ),
    '1' );
FILE_NAME ('MirrorSTD_Gas spring_rod_¿ªÔ´A.STEP',
    '2026-08-16T17:26:53',
    ( '' ),
    ( '' ),
    'SwSTEP 2.0',
    'SolidWorks 2025',
    '' );
FILE_SCHEMA (( 'AUTOMOTIVE_DESIGN' ));
ENDSEC;

DATA;
#1 = ORIENTED_EDGE ( 'NONE', *, *, #62, .F. ) ;
#2 = AXIS2_PLACEMENT_3D ( 'NONE', #16, #25, #124 ) ;
#3 = DIRECTION ( 'NONE',  ( 1.000000000000000000, 0.000000000000000000, 0.000000000000000000 ) ) ;
#4 = VERTEX_POINT ( 'NONE', #70 ) ;
#5 = CARTESIAN_POINT ( 'NONE',  ( 0.000000000000000000, 0.000000000000000000, 0.000000000000000000 ) ) ;
#6 = PRODUCT_CONTEXT ( 'NONE', #10, 'mechanical' ) ;
#7 = PRODUCT_RELATED_PRODUCT_CATEGORY ( 'part', '', ( #81 ) ) ;
#8 = ORIENTED_EDGE ( 'NONE', *, *, #69, .F. ) ;
#9 = SURFACE_SIDE_STYLE ('',( #97 ) ) ;
#10 = APPLICATION_CONTEXT ( 'automotive_design' ) ;
#11 = ORIENTED_EDGE ( 'NONE', *, *, #62, .T. ) ;
#12 = ADVANCED_FACE ( 'NONE', ( #117 ), #118, .F. ) ;
#13 = FACE_OUTER_BOUND ( 'NONE', #83, .T. ) ;
#14 = CARTESIAN_POINT ( 'NONE',  ( 0.000000000000000000, 0.000000000000000000, 0.000000000000000000 ) ) ;
#15 = DIRECTION ( 'NONE',  ( -0.000000000000000000, -0.000000000000000000, 1.000000000000000000 ) ) ;
#16 = CARTESIAN_POINT ( 'NONE',  ( 0.000000000000000000, 0.000000000000000000, -80.00000000000000000 ) ) ;
#17 = AXIS2_PLACEMENT_3D ( 'NONE', #88, #33, #48 ) ;
#18 = DIRECTION ( 'NONE',  ( 1.000000000000000000, 0.000000000000000000, 0.000000000000000000 ) ) ;
#19 = PRODUCT_DEFINITION_FORMATION_WITH_SPECIFIED_SOURCE ( 'å¯', '', #81, .NOT_KNOWN. ) ;
#20 = FILL_AREA_STYLE_COLOUR ( '', #103 ) ;
#21 = SURFACE_STYLE_USAGE ( .BOTH. , #9 ) ;
#22 = ORIENTED_EDGE ( 'NONE', *, *, #82, .F. ) ;
#23 = APPLICATION_CONTEXT ( 'automotive_design' ) ;
#24 = CYLINDRICAL_SURFACE ( 'NONE', #96, 4.000000000000000000 ) ;
#25 = DIRECTION ( 'NONE',  ( -0.000000000000000000, -0.000000000000000000, 1.000000000000000000 ) ) ;
#26 = CARTESIAN_POINT ( 'NONE',  ( 4.000000000000000000, -4.898587196589412829E-16, -80.00000000000000000 ) ) ;
#27 = LINE ( 'NONE', #67, #89 ) ;
#28 = APPLICATION_PROTOCOL_DEFINITION ( 'draft international standard', 'automotive_design', 1998, #10 ) ;
#29 = CLOSED_SHELL ( 'NONE', ( #35, #111, #45, #12 ) ) ;
#30 = CIRCLE ( 'NONE', #122, 4.000000000000000000 ) ;
#31 = ORIENTED_EDGE ( 'NONE', *, *, #95, .F. ) ;
#32 = PRODUCT_DEFINITION_CONTEXT ( 'detailed design', #23, 'design' ) ;
#33 = DIRECTION ( 'NONE',  ( 0.000000000000000000, 0.000000000000000000, -1.000000000000000000 ) ) ;
#34 = CARTESIAN_POINT ( 'NONE',  ( 0.000000000000000000, 0.000000000000000000, -80.00000000000000000 ) ) ;
#35 = ADVANCED_FACE ( 'NONE', ( #43 ), #24, .T. ) ;
#36 = CIRCLE ( 'NONE', #44, 4.000000000000000000 ) ;
#37 = EDGE_LOOP ( 'NONE', ( #22, #108, #106, #8 ) ) ;
#38 = DIRECTION ( 'NONE',  ( -0.000000000000000000, -0.000000000000000000, 1.000000000000000000 ) ) ;
#39 = DIRECTION ( 'NONE',  ( 1.000000000000000000, 0.000000000000000000, 0.000000000000000000 ) ) ;
#40 = CARTESIAN_POINT ( 'NONE',  ( 0.000000000000000000, 0.000000000000000000, -80.00000000000000000 ) ) ;
#41 = AXIS2_PLACEMENT_3D ( 'NONE', #14, #92, #3 ) ;
#42 = DIRECTION ( 'NONE',  ( -0.000000000000000000, -0.000000000000000000, 1.000000000000000000 ) ) ;
#43 = FACE_OUTER_BOUND ( 'NONE', #51, .T. ) ;
#44 = AXIS2_PLACEMENT_3D ( 'NONE', #5, #61, #58 ) ;
#45 = ADVANCED_FACE ( 'NONE', ( #13 ), #52, .T. ) ;
#46 = DIRECTION ( 'NONE',  ( -1.000000000000000000, 0.000000000000000000, 0.000000000000000000 ) ) ;
#47 =( GEOMETRIC_REPRESENTATION_CONTEXT ( 3 ) GLOBAL_UNCERTAINTY_ASSIGNED_CONTEXT ( ( #60 ) ) GLOBAL_UNIT_ASSIGNED_CONTEXT ( ( #64, #112, #101 ) ) REPRESENTATION_CONTEXT ( 'NONE', 'WORKASPACE' ) );
#48 = DIRECTION ( 'NONE',  ( 1.000000000000000000, 0.000000000000000000, 0.000000000000000000 ) ) ;
#49 = PRESENTATION_STYLE_ASSIGNMENT (( #21 ) ) ;
#50 = CIRCLE ( 'NONE', #2, 4.000000000000000000 ) ;
#51 = EDGE_LOOP ( 'NONE', ( #80, #72, #1, #31 ) ) ;
#52 = PLANE ( 'NONE',  #76 ) ;
#53 = UNCERTAINTY_MEASURE_WITH_UNIT (LENGTH_MEASURE( 1.000000000000000082E-05 ), #120, 'distance_accuracy_value', 'NONE');
#54 =( NAMED_UNIT ( * ) SI_UNIT ( $, .STERADIAN. ) SOLID_ANGLE_UNIT ( ) );
#55 = STYLED_ITEM ( 'NONE', ( #49 ), #75 ) ;
#56 = PRODUCT_DEFINITION ( 'æ™', '', #19, #32 ) ;
#57 = DIRECTION ( 'NONE',  ( -0.000000000000000000, -0.000000000000000000, 1.000000000000000000 ) ) ;
#58 = DIRECTION ( 'NONE',  ( 1.000000000000000000, 0.000000000000000000, 0.000000000000000000 ) ) ;
#59 =( GEOMETRIC_REPRESENTATION_CONTEXT ( 3 ) GLOBAL_UNCERTAINTY_ASSIGNED_CONTEXT ( ( #53 ) ) GLOBAL_UNIT_ASSIGNED_CONTEXT ( ( #120, #100, #54 ) ) REPRESENTATION_CONTEXT ( 'NONE', 'WORKASPACE' ) );
#60 = UNCERTAINTY_MEASURE_WITH_UNIT (LENGTH_MEASURE( 1.000000000000000082E-05 ), #64, 'distance_accuracy_value', 'NONE');
#61 = DIRECTION ( 'NONE',  ( -0.000000000000000000, -0.000000000000000000, 1.000000000000000000 ) ) ;
#62 = EDGE_CURVE ( 'NONE', #90, #115, #107, .T. ) ;
#63 = ORIENTED_EDGE ( 'NONE', *, *, #99, .F. ) ;
#64 =( LENGTH_UNIT ( ) NAMED_UNIT ( * ) SI_UNIT ( .MILLI., .METRE. ) );
#65 = DIRECTION ( 'NONE',  ( -0.000000000000000000, -0.000000000000000000, 1.000000000000000000 ) ) ;
#66 = SHAPE_DEFINITION_REPRESENTATION ( #91, #79 ) ;
#67 = CARTESIAN_POINT ( 'NONE',  ( -4.000000000000000000, 0.000000000000000000, -80.00000000000000000 ) ) ;
#68 = AXIS2_PLACEMENT_3D ( 'NONE', #40, #38, #46 ) ;
#69 = EDGE_CURVE ( 'NONE', #115, #90, #36, .T. ) ;
#70 = CARTESIAN_POINT ( 'NONE',  ( -4.000000000000000000, 0.000000000000000000, -80.00000000000000000 ) ) ;
#71 = ORIENTED_EDGE ( 'NONE', *, *, #121, .F. ) ;
#72 = ORIENTED_EDGE ( 'NONE', *, *, #82, .T. ) ;
#73 = DIRECTION ( 'NONE',  ( 0.000000000000000000, 0.000000000000000000, -1.000000000000000000 ) ) ;
#74 = DIRECTION ( 'NONE',  ( 0.000000000000000000, 0.000000000000000000, 1.000000000000000000 ) ) ;
#75 = MANIFOLD_SOLID_BREP ( '<STD_Gas spring_rod>-<\X2\51f853f0\X0\-\X2\62c94f38\X0\1>', #29 ) ;
#76 = AXIS2_PLACEMENT_3D ( 'NONE', #34, #73, #18 ) ;
#77 = AXIS2_PLACEMENT_3D ( 'NONE', #102, #74, #113 ) ;
#78 = MECHANICAL_DESIGN_GEOMETRIC_PRESENTATION_REPRESENTATION (  '', ( #55 ), #47 ) ;
#79 = ADVANCED_BREP_SHAPE_REPRESENTATION ( 'MirrorSTD_Gas spring_rod_\X2\5f006e90\X0\A', ( #75, #77 ), #59 ) ;
#80 = ORIENTED_EDGE ( 'NONE', *, *, #121, .T. ) ;
#81 = PRODUCT ( 'MirrorSTD_Gas spring_rod_\X2\5f006e90\X0\A', 'MirrorSTD_Gas spring_rod_\X2\5f006e90\X0\A', '', ( #6 ) ) ;
#82 = EDGE_CURVE ( 'NONE', #119, #115, #104, .T. ) ;
#83 = EDGE_LOOP ( 'NONE', ( #71, #63 ) ) ;
#84 = FILL_AREA_STYLE ('',( #20 ) ) ;
#85 = EDGE_LOOP ( 'NONE', ( #11, #116 ) ) ;
#86 = CARTESIAN_POINT ( 'NONE',  ( -4.000000000000000000, 0.000000000000000000, 0.000000000000000000 ) ) ;
#87 = CARTESIAN_POINT ( 'NONE',  ( 4.000000000000000000, -4.898587196589412829E-16, -80.00000000000000000 ) ) ;
#88 = CARTESIAN_POINT ( 'NONE',  ( 0.000000000000000000, 0.000000000000000000, 0.000000000000000000 ) ) ;
#89 = VECTOR ( 'NONE', #15, 1000.000000000000000 ) ;
#90 = VERTEX_POINT ( 'NONE', #86 ) ;
#91 = PRODUCT_DEFINITION_SHAPE ( 'NONE', 'NONE',  #56 ) ;
#92 = DIRECTION ( 'NONE',  ( -0.000000000000000000, -0.000000000000000000, 1.000000000000000000 ) ) ;
#93 = CARTESIAN_POINT ( 'NONE',  ( 0.000000000000000000, 0.000000000000000000, -80.00000000000000000 ) ) ;
#94 = CARTESIAN_POINT ( 'NONE',  ( 4.000000000000000000, -4.898587196589412829E-16, 0.000000000000000000 ) ) ;
#95 = EDGE_CURVE ( 'NONE', #4, #90, #27, .T. ) ;
#96 = AXIS2_PLACEMENT_3D ( 'NONE', #105, #42, #98 ) ;
#97 = SURFACE_STYLE_FILL_AREA ( #84 ) ;
#98 = DIRECTION ( 'NONE',  ( -1.000000000000000000, 0.000000000000000000, 0.000000000000000000 ) ) ;
#99 = EDGE_CURVE ( 'NONE', #119, #4, #50, .T. ) ;
#100 =( NAMED_UNIT ( * ) PLANE_ANGLE_UNIT ( ) SI_UNIT ( $, .RADIAN. ) );
#101 =( NAMED_UNIT ( * ) SI_UNIT ( $, .STERADIAN. ) SOLID_ANGLE_UNIT ( ) );
#102 = CARTESIAN_POINT ( 'NONE',  ( 0.000000000000000000, 0.000000000000000000, 0.000000000000000000 ) ) ;
#103 = COLOUR_RGB ( '',0.7921568627450980005, 0.8196078431372548767, 0.9333333333333333481 ) ;
#104 = LINE ( 'NONE', #87, #125 ) ;
#105 = CARTESIAN_POINT ( 'NONE',  ( 0.000000000000000000, 0.000000000000000000, -80.00000000000000000 ) ) ;
#106 = ORIENTED_EDGE ( 'NONE', *, *, #95, .T. ) ;
#107 = CIRCLE ( 'NONE', #41, 4.000000000000000000 ) ;
#108 = ORIENTED_EDGE ( 'NONE', *, *, #99, .T. ) ;
#109 = FACE_OUTER_BOUND ( 'NONE', #37, .T. ) ;
#110 = APPLICATION_PROTOCOL_DEFINITION ( 'draft international standard', 'automotive_design', 1998, #23 ) ;
#111 = ADVANCED_FACE ( 'NONE', ( #109 ), #123, .T. ) ;
#112 =( NAMED_UNIT ( * ) PLANE_ANGLE_UNIT ( ) SI_UNIT ( $, .RADIAN. ) );
#113 = DIRECTION ( 'NONE',  ( 1.000000000000000000, 0.000000000000000000, 0.000000000000000000 ) ) ;
#114 = PRESENTATION_LAYER_ASSIGNMENT (  '', '', ( #55 ) ) ;
#115 = VERTEX_POINT ( 'NONE', #94 ) ;
#116 = ORIENTED_EDGE ( 'NONE', *, *, #69, .T. ) ;
#117 = FACE_OUTER_BOUND ( 'NONE', #85, .T. ) ;
#118 = PLANE ( 'NONE',  #17 ) ;
#119 = VERTEX_POINT ( 'NONE', #26 ) ;
#120 =( LENGTH_UNIT ( ) NAMED_UNIT ( * ) SI_UNIT ( .MILLI., .METRE. ) );
#121 = EDGE_CURVE ( 'NONE', #4, #119, #30, .T. ) ;
#122 = AXIS2_PLACEMENT_3D ( 'NONE', #93, #65, #39 ) ;
#123 = CYLINDRICAL_SURFACE ( 'NONE', #68, 4.000000000000000000 ) ;
#124 = DIRECTION ( 'NONE',  ( 1.000000000000000000, 0.000000000000000000, 0.000000000000000000 ) ) ;
#125 = VECTOR ( 'NONE', #57, 1000.000000000000000 ) ;
ENDSEC;
END-ISO-10303-21;
