ISO-10303-21;
HEADER;
FILE_DESCRIPTION (( 'STEP AP214' ),
    '1' );
FILE_NAME ('MirrorSTD_Gas_spring_barrel_¿ªÔ´A.STEP',
    '2026-08-16T17:26:53',
    ( '' ),
    ( '' ),
    'SwSTEP 2.0',
    'SolidWorks 2025',
    '' );
FILE_SCHEMA (( 'AUTOMOTIVE_DESIGN' ));
ENDSEC;

DATA;
#1 = AXIS2_PLACEMENT_3D ( 'NONE', #112, #10, #38 ) ;
#2 = ORIENTED_EDGE ( 'NONE', *, *, #27, .F. ) ;
#3 = ORIENTED_EDGE ( 'NONE', *, *, #90, .T. ) ;
#4 = VERTEX_POINT ( 'NONE', #146 ) ;
#5 = PRESENTATION_LAYER_ASSIGNMENT (  '', '', ( #145 ) ) ;
#6 = CARTESIAN_POINT ( 'NONE',  ( 0.000000000000000000, 0.000000000000000000, 12.50000000000000000 ) ) ;
#7 = FACE_BOUND ( 'NONE', #80, .T. ) ;
#8 = DIRECTION ( 'NONE',  ( -1.000000000000000000, 0.000000000000000000, 0.000000000000000000 ) ) ;
#9 = EDGE_CURVE ( 'NONE', #33, #104, #43, .T. ) ;
#10 = DIRECTION ( 'NONE',  ( 0.000000000000000000, 0.000000000000000000, -1.000000000000000000 ) ) ;
#11 = CYLINDRICAL_SURFACE ( 'NONE', #1, 4.000000000000000000 ) ;
#12 = FACE_OUTER_BOUND ( 'NONE', #21, .T. ) ;
#13 =( NAMED_UNIT ( * ) SI_UNIT ( $, .STERADIAN. ) SOLID_ANGLE_UNIT ( ) );
#14 = EDGE_CURVE ( 'NONE', #178, #130, #30, .T. ) ;
#15 = DIRECTION ( 'NONE',  ( 1.000000000000000000, 0.000000000000000000, 0.000000000000000000 ) ) ;
#16 = ADVANCED_FACE ( 'NONE', ( #7, #163 ), #197, .F. ) ;
#17 = PRODUCT ( 'MirrorSTD_Gas_spring_barrel_\X2\5f006e90\X0\A', 'MirrorSTD_Gas_spring_barrel_\X2\5f006e90\X0\A', '', ( #201 ) ) ;
#18 = ORIENTED_EDGE ( 'NONE', *, *, #176, .T. ) ;
#19 = VERTEX_POINT ( 'NONE', #54 ) ;
#20 = ORIENTED_EDGE ( 'NONE', *, *, #108, .T. ) ;
#21 = EDGE_LOOP ( 'NONE', ( #2, #173 ) ) ;
#22 = VERTEX_POINT ( 'NONE', #105 ) ;
#23 = UNCERTAINTY_MEASURE_WITH_UNIT (LENGTH_MEASURE( 1.000000000000000082E-05 ), #127, 'distance_accuracy_value', 'NONE');
#24 = DIRECTION ( 'NONE',  ( 0.000000000000000000, 0.000000000000000000, -1.000000000000000000 ) ) ;
#25 = CYLINDRICAL_SURFACE ( 'NONE', #203, 9.000000000000000000 ) ;
#26 = CARTESIAN_POINT ( 'NONE',  ( -9.000000000000000000, 0.000000000000000000, 0.000000000000000000 ) ) ;
#27 = EDGE_CURVE ( 'NONE', #19, #4, #177, .T. ) ;
#28 = DIRECTION ( 'NONE',  ( 1.000000000000000000, 0.000000000000000000, 0.000000000000000000 ) ) ;
#29 = LINE ( 'NONE', #151, #129 ) ;
#30 = CIRCLE ( 'NONE', #156, 4.000000000000000000 ) ;
#31 = DIRECTION ( 'NONE',  ( 1.000000000000000000, 0.000000000000000000, 0.000000000000000000 ) ) ;
#32 = DIRECTION ( 'NONE',  ( 1.000000000000000000, 0.000000000000000000, 0.000000000000000000 ) ) ;
#33 = VERTEX_POINT ( 'NONE', #26 ) ;
#34 = ORIENTED_EDGE ( 'NONE', *, *, #170, .T. ) ;
#35 = ORIENTED_EDGE ( 'NONE', *, *, #79, .F. ) ;
#36 = ORIENTED_EDGE ( 'NONE', *, *, #90, .F. ) ;
#37 = EDGE_LOOP ( 'NONE', ( #51, #34 ) ) ;
#38 = DIRECTION ( 'NONE',  ( 1.000000000000000000, 0.000000000000000000, 0.000000000000000000 ) ) ;
#39 = CARTESIAN_POINT ( 'NONE',  ( 0.000000000000000000, 0.000000000000000000, 0.000000000000000000 ) ) ;
#40 = LINE ( 'NONE', #135, #81 ) ;
#41 = DIRECTION ( 'NONE',  ( -0.000000000000000000, -0.000000000000000000, 1.000000000000000000 ) ) ;
#42 = PRESENTATION_STYLE_ASSIGNMENT (( #124 ) ) ;
#43 = CIRCLE ( 'NONE', #126, 9.000000000000000000 ) ;
#44 = AXIS2_PLACEMENT_3D ( 'NONE', #98, #77, #32 ) ;
#45 =( NAMED_UNIT ( * ) PLANE_ANGLE_UNIT ( ) SI_UNIT ( $, .RADIAN. ) );
#46 = PRODUCT_DEFINITION_FORMATION_WITH_SPECIFIED_SOURCE ( 'å¯', '', #17, .NOT_KNOWN. ) ;
#47 = ADVANCED_FACE ( 'NONE', ( #183 ), #107, .T. ) ;
#48 = ORIENTED_EDGE ( 'NONE', *, *, #49, .T. ) ;
#49 = EDGE_CURVE ( 'NONE', #62, #22, #66, .T. ) ;
#50 = AXIS2_PLACEMENT_3D ( 'NONE', #39, #24, #68 ) ;
#51 = ORIENTED_EDGE ( 'NONE', *, *, #9, .T. ) ;
#52 = DIRECTION ( 'NONE',  ( -0.000000000000000000, -0.000000000000000000, 1.000000000000000000 ) ) ;
#53 = DIRECTION ( 'NONE',  ( 1.000000000000000000, 0.000000000000000000, 0.000000000000000000 ) ) ;
#54 = CARTESIAN_POINT ( 'NONE',  ( -9.000000000000000000, 0.000000000000000000, -110.0000000000000000 ) ) ;
#55 = SURFACE_STYLE_FILL_AREA ( #195 ) ;
#56 = FACE_OUTER_BOUND ( 'NONE', #144, .T. ) ;
#57 = MECHANICAL_DESIGN_GEOMETRIC_PRESENTATION_REPRESENTATION (  '', ( #145 ), #149 ) ;
#58 = CARTESIAN_POINT ( 'NONE',  ( 0.000000000000000000, 0.000000000000000000, -110.0000000000000000 ) ) ;
#59 = VECTOR ( 'NONE', #73, 1000.000000000000000 ) ;
#60 =( NAMED_UNIT ( * ) PLANE_ANGLE_UNIT ( ) SI_UNIT ( $, .RADIAN. ) );
#61 = PRODUCT_DEFINITION_SHAPE ( 'NONE', 'NONE',  #202 ) ;
#62 = VERTEX_POINT ( 'NONE', #86 ) ;
#63 = ORIENTED_EDGE ( 'NONE', *, *, #193, .F. ) ;
#64 = ORIENTED_EDGE ( 'NONE', *, *, #9, .F. ) ;
#65 = EDGE_LOOP ( 'NONE', ( #78, #192, #142, #175 ) ) ;
#66 = CIRCLE ( 'NONE', #87, 4.000000000000000000 ) ;
#67 = AXIS2_PLACEMENT_3D ( 'NONE', #205, #200, #15 ) ;
#68 = DIRECTION ( 'NONE',  ( 1.000000000000000000, 0.000000000000000000, 0.000000000000000000 ) ) ;
#69 = DIRECTION ( 'NONE',  ( -0.000000000000000000, -0.000000000000000000, 1.000000000000000000 ) ) ;
#70 = DIRECTION ( 'NONE',  ( 0.000000000000000000, 0.000000000000000000, -1.000000000000000000 ) ) ;
#71 = COLOUR_RGB ( '',0.7921568627450980005, 0.8196078431372548767, 0.9333333333333333481 ) ;
#72 = DIRECTION ( 'NONE',  ( 0.000000000000000000, 0.000000000000000000, -1.000000000000000000 ) ) ;
#73 = DIRECTION ( 'NONE',  ( -0.000000000000000000, -0.000000000000000000, 1.000000000000000000 ) ) ;
#74 = CIRCLE ( 'NONE', #131, 4.000000000000000000 ) ;
#75 = DIRECTION ( 'NONE',  ( -1.000000000000000000, 0.000000000000000000, 0.000000000000000000 ) ) ;
#76 = DIRECTION ( 'NONE',  ( -1.000000000000000000, 0.000000000000000000, 0.000000000000000000 ) ) ;
#77 = DIRECTION ( 'NONE',  ( -0.000000000000000000, -0.000000000000000000, 1.000000000000000000 ) ) ;
#78 = ORIENTED_EDGE ( 'NONE', *, *, #108, .F. ) ;
#79 = EDGE_CURVE ( 'NONE', #19, #33, #181, .T. ) ;
#80 = EDGE_LOOP ( 'NONE', ( #48, #18 ) ) ;
#81 = VECTOR ( 'NONE', #52, 1000.000000000000000 ) ;
#82 = ORIENTED_EDGE ( 'NONE', *, *, #14, .T. ) ;
#83 = ADVANCED_FACE ( 'NONE', ( #199 ), #25, .T. ) ;
#84 = EDGE_LOOP ( 'NONE', ( #158, #20, #64, #35 ) ) ;
#85 = APPLICATION_CONTEXT ( 'automotive_design' ) ;
#86 = CARTESIAN_POINT ( 'NONE',  ( 4.000000000000000000, 0.000000000000000000, 0.000000000000000000 ) ) ;
#87 = AXIS2_PLACEMENT_3D ( 'NONE', #110, #152, #161 ) ;
#88 = CIRCLE ( 'NONE', #44, 9.000000000000000000 ) ;
#89 = DIRECTION ( 'NONE',  ( -0.000000000000000000, -0.000000000000000000, -1.000000000000000000 ) ) ;
#90 = EDGE_CURVE ( 'NONE', #178, #22, #29, .T. ) ;
#91 = CARTESIAN_POINT ( 'NONE',  ( 0.000000000000000000, 0.000000000000000000, -110.0000000000000000 ) ) ;
#92 = DIRECTION ( 'NONE',  ( 1.000000000000000000, 0.000000000000000000, 0.000000000000000000 ) ) ;
#93 = CIRCLE ( 'NONE', #121, 4.000000000000000000 ) ;
#94 = ADVANCED_FACE ( 'NONE', ( #56 ), #11, .T. ) ;
#95 = SURFACE_SIDE_STYLE ('',( #55 ) ) ;
#96 = APPLICATION_PROTOCOL_DEFINITION ( 'draft international standard', 'automotive_design', 1998, #194 ) ;
#97 = FACE_OUTER_BOUND ( 'NONE', #159, .T. ) ;
#98 = CARTESIAN_POINT ( 'NONE',  ( 0.000000000000000000, 0.000000000000000000, -110.0000000000000000 ) ) ;
#99 = AXIS2_PLACEMENT_3D ( 'NONE', #187, #125, #31 ) ;
#100 = CARTESIAN_POINT ( 'NONE',  ( 4.000000000000000000, 0.000000000000000000, 12.50000000000000000 ) ) ;
#101 = ORIENTED_EDGE ( 'NONE', *, *, #176, .F. ) ;
#102 = ORIENTED_EDGE ( 'NONE', *, *, #103, .F. ) ;
#103 = EDGE_CURVE ( 'NONE', #130, #178, #93, .T. ) ;
#104 = VERTEX_POINT ( 'NONE', #122 ) ;
#105 = CARTESIAN_POINT ( 'NONE',  ( -4.000000000000000000, -4.898587196589412829E-16, 0.000000000000000000 ) ) ;
#106 = ADVANCED_BREP_SHAPE_REPRESENTATION ( 'MirrorSTD_Gas_spring_barrel_\X2\5f006e90\X0\A', ( #116, #99 ), #136 ) ;
#107 = CYLINDRICAL_SURFACE ( 'NONE', #186, 9.000000000000000000 ) ;
#108 = EDGE_CURVE ( 'NONE', #4, #104, #40, .T. ) ;
#109 = CARTESIAN_POINT ( 'NONE',  ( 0.000000000000000000, 0.000000000000000000, 12.50000000000000000 ) ) ;
#110 = CARTESIAN_POINT ( 'NONE',  ( 0.000000000000000000, 0.000000000000000000, 0.000000000000000000 ) ) ;
#111 = ADVANCED_FACE ( 'NONE', ( #120 ), #137, .T. ) ;
#112 = CARTESIAN_POINT ( 'NONE',  ( 0.000000000000000000, 0.000000000000000000, 12.50000000000000000 ) ) ;
#113 = DIRECTION ( 'NONE',  ( 0.000000000000000000, 0.000000000000000000, -1.000000000000000000 ) ) ;
#114 = AXIS2_PLACEMENT_3D ( 'NONE', #6, #70, #28 ) ;
#115 = CARTESIAN_POINT ( 'NONE',  ( 4.000000000000000000, 0.000000000000000000, 12.50000000000000000 ) ) ;
#116 = MANIFOLD_SOLID_BREP ( '<STD_Gas_spring_barrel>-<\X2\51f853f0\X0\-\X2\62c94f38\X0\2>', #119 ) ;
#117 = EDGE_LOOP ( 'NONE', ( #160, #3, #191, #63 ) ) ;
#118 = CARTESIAN_POINT ( 'NONE',  ( 0.000000000000000000, 0.000000000000000000, 0.000000000000000000 ) ) ;
#119 = CLOSED_SHELL ( 'NONE', ( #111, #83, #47, #138, #16, #94, #182 ) ) ;
#120 = FACE_OUTER_BOUND ( 'NONE', #117, .T. ) ;
#121 = AXIS2_PLACEMENT_3D ( 'NONE', #196, #89, #8 ) ;
#122 = CARTESIAN_POINT ( 'NONE',  ( 9.000000000000000000, -1.102182119232617714E-15, 0.000000000000000000 ) ) ;
#123 = DIRECTION ( 'NONE',  ( -0.000000000000000000, -0.000000000000000000, 1.000000000000000000 ) ) ;
#124 = SURFACE_STYLE_USAGE ( .BOTH. , #95 ) ;
#125 = DIRECTION ( 'NONE',  ( 0.000000000000000000, 0.000000000000000000, 1.000000000000000000 ) ) ;
#126 = AXIS2_PLACEMENT_3D ( 'NONE', #118, #123, #92 ) ;
#127 =( LENGTH_UNIT ( ) NAMED_UNIT ( * ) SI_UNIT ( .MILLI., .METRE. ) );
#128 = DIRECTION ( 'NONE',  ( 0.000000000000000000, 0.000000000000000000, 1.000000000000000000 ) ) ;
#129 = VECTOR ( 'NONE', #72, 1000.000000000000000 ) ;
#130 = VERTEX_POINT ( 'NONE', #100 ) ;
#131 = AXIS2_PLACEMENT_3D ( 'NONE', #155, #190, #75 ) ;
#132 = PLANE ( 'NONE',  #172 ) ;
#133 = DIRECTION ( 'NONE',  ( -0.000000000000000000, -0.000000000000000000, -1.000000000000000000 ) ) ;
#134 =( LENGTH_UNIT ( ) NAMED_UNIT ( * ) SI_UNIT ( .MILLI., .METRE. ) );
#135 = CARTESIAN_POINT ( 'NONE',  ( 9.000000000000000000, -1.102182119232617714E-15, -110.0000000000000000 ) ) ;
#136 =( GEOMETRIC_REPRESENTATION_CONTEXT ( 3 ) GLOBAL_UNCERTAINTY_ASSIGNED_CONTEXT ( ( #23 ) ) GLOBAL_UNIT_ASSIGNED_CONTEXT ( ( #127, #45, #139 ) ) REPRESENTATION_CONTEXT ( 'NONE', 'WORKASPACE' ) );
#137 = CYLINDRICAL_SURFACE ( 'NONE', #114, 4.000000000000000000 ) ;
#138 = ADVANCED_FACE ( 'NONE', ( #12 ), #132, .T. ) ;
#139 =( NAMED_UNIT ( * ) SI_UNIT ( $, .STERADIAN. ) SOLID_ANGLE_UNIT ( ) );
#140 = CARTESIAN_POINT ( 'NONE',  ( -4.000000000000000000, -4.898587196589412829E-16, 12.50000000000000000 ) ) ;
#141 = PRODUCT_RELATED_PRODUCT_CATEGORY ( 'part', '', ( #17 ) ) ;
#142 = ORIENTED_EDGE ( 'NONE', *, *, #79, .T. ) ;
#143 = UNCERTAINTY_MEASURE_WITH_UNIT (LENGTH_MEASURE( 1.000000000000000082E-05 ), #134, 'distance_accuracy_value', 'NONE');
#144 = EDGE_LOOP ( 'NONE', ( #36, #82, #147, #101 ) ) ;
#145 = STYLED_ITEM ( 'NONE', ( #42 ), #116 ) ;
#146 = CARTESIAN_POINT ( 'NONE',  ( 9.000000000000000000, -1.102182119232617714E-15, -110.0000000000000000 ) ) ;
#147 = ORIENTED_EDGE ( 'NONE', *, *, #193, .T. ) ;
#148 = DIRECTION ( 'NONE',  ( -1.000000000000000000, 0.000000000000000000, 0.000000000000000000 ) ) ;
#149 =( GEOMETRIC_REPRESENTATION_CONTEXT ( 3 ) GLOBAL_UNCERTAINTY_ASSIGNED_CONTEXT ( ( #143 ) ) GLOBAL_UNIT_ASSIGNED_CONTEXT ( ( #134, #60, #13 ) ) REPRESENTATION_CONTEXT ( 'NONE', 'WORKASPACE' ) );
#150 = CARTESIAN_POINT ( 'NONE',  ( 0.000000000000000000, 0.000000000000000000, -110.0000000000000000 ) ) ;
#151 = CARTESIAN_POINT ( 'NONE',  ( -4.000000000000000000, -4.898587196589412829E-16, 12.50000000000000000 ) ) ;
#152 = DIRECTION ( 'NONE',  ( -0.000000000000000000, -0.000000000000000000, -1.000000000000000000 ) ) ;
#153 = EDGE_CURVE ( 'NONE', #4, #19, #88, .T. ) ;
#154 = DIRECTION ( 'NONE',  ( 1.000000000000000000, 0.000000000000000000, 0.000000000000000000 ) ) ;
#155 = CARTESIAN_POINT ( 'NONE',  ( 0.000000000000000000, 0.000000000000000000, 0.000000000000000000 ) ) ;
#156 = AXIS2_PLACEMENT_3D ( 'NONE', #109, #133, #162 ) ;
#157 = CIRCLE ( 'NONE', #67, 9.000000000000000000 ) ;
#158 = ORIENTED_EDGE ( 'NONE', *, *, #27, .T. ) ;
#159 = EDGE_LOOP ( 'NONE', ( #102, #174 ) ) ;
#160 = ORIENTED_EDGE ( 'NONE', *, *, #103, .T. ) ;
#161 = DIRECTION ( 'NONE',  ( -1.000000000000000000, 0.000000000000000000, 0.000000000000000000 ) ) ;
#162 = DIRECTION ( 'NONE',  ( -1.000000000000000000, 0.000000000000000000, 0.000000000000000000 ) ) ;
#163 = FACE_OUTER_BOUND ( 'NONE', #37, .T. ) ;
#164 = AXIS2_PLACEMENT_3D ( 'NONE', #169, #128, #76 ) ;
#165 = CARTESIAN_POINT ( 'NONE',  ( 0.000000000000000000, 0.000000000000000000, -110.0000000000000000 ) ) ;
#166 = DIRECTION ( 'NONE',  ( -0.000000000000000000, -0.000000000000000000, 1.000000000000000000 ) ) ;
#167 = AXIS2_PLACEMENT_3D ( 'NONE', #150, #166, #53 ) ;
#168 = PLANE ( 'NONE',  #164 ) ;
#169 = CARTESIAN_POINT ( 'NONE',  ( 0.000000000000000000, 0.000000000000000000, 12.50000000000000000 ) ) ;
#170 = EDGE_CURVE ( 'NONE', #104, #33, #157, .T. ) ;
#171 = VECTOR ( 'NONE', #113, 1000.000000000000000 ) ;
#172 = AXIS2_PLACEMENT_3D ( 'NONE', #58, #204, #154 ) ;
#173 = ORIENTED_EDGE ( 'NONE', *, *, #153, .F. ) ;
#174 = ORIENTED_EDGE ( 'NONE', *, *, #14, .F. ) ;
#175 = ORIENTED_EDGE ( 'NONE', *, *, #170, .F. ) ;
#176 = EDGE_CURVE ( 'NONE', #22, #62, #74, .T. ) ;
#177 = CIRCLE ( 'NONE', #167, 9.000000000000000000 ) ;
#178 = VERTEX_POINT ( 'NONE', #140 ) ;
#179 = PRODUCT_DEFINITION_CONTEXT ( 'detailed design', #85, 'design' ) ;
#180 = CARTESIAN_POINT ( 'NONE',  ( -9.000000000000000000, 0.000000000000000000, -110.0000000000000000 ) ) ;
#181 = LINE ( 'NONE', #180, #59 ) ;
#182 = ADVANCED_FACE ( 'NONE', ( #97 ), #168, .T. ) ;
#183 = FACE_OUTER_BOUND ( 'NONE', #65, .T. ) ;
#184 = DIRECTION ( 'NONE',  ( -1.000000000000000000, 0.000000000000000000, 0.000000000000000000 ) ) ;
#185 = SHAPE_DEFINITION_REPRESENTATION ( #61, #106 ) ;
#186 = AXIS2_PLACEMENT_3D ( 'NONE', #91, #41, #184 ) ;
#187 = CARTESIAN_POINT ( 'NONE',  ( 0.000000000000000000, 0.000000000000000000, 0.000000000000000000 ) ) ;
#188 = LINE ( 'NONE', #115, #171 ) ;
#189 = APPLICATION_PROTOCOL_DEFINITION ( 'draft international standard', 'automotive_design', 1998, #85 ) ;
#190 = DIRECTION ( 'NONE',  ( -0.000000000000000000, -0.000000000000000000, -1.000000000000000000 ) ) ;
#191 = ORIENTED_EDGE ( 'NONE', *, *, #49, .F. ) ;
#192 = ORIENTED_EDGE ( 'NONE', *, *, #153, .T. ) ;
#193 = EDGE_CURVE ( 'NONE', #130, #62, #188, .T. ) ;
#194 = APPLICATION_CONTEXT ( 'automotive_design' ) ;
#195 = FILL_AREA_STYLE ('',( #198 ) ) ;
#196 = CARTESIAN_POINT ( 'NONE',  ( 0.000000000000000000, 0.000000000000000000, 12.50000000000000000 ) ) ;
#197 = PLANE ( 'NONE',  #50 ) ;
#198 = FILL_AREA_STYLE_COLOUR ( '', #71 ) ;
#199 = FACE_OUTER_BOUND ( 'NONE', #84, .T. ) ;
#200 = DIRECTION ( 'NONE',  ( -0.000000000000000000, -0.000000000000000000, 1.000000000000000000 ) ) ;
#201 = PRODUCT_CONTEXT ( 'NONE', #194, 'mechanical' ) ;
#202 = PRODUCT_DEFINITION ( 'æ™', '', #46, #179 ) ;
#203 = AXIS2_PLACEMENT_3D ( 'NONE', #165, #69, #148 ) ;
#204 = DIRECTION ( 'NONE',  ( 0.000000000000000000, 0.000000000000000000, -1.000000000000000000 ) ) ;
#205 = CARTESIAN_POINT ( 'NONE',  ( 0.000000000000000000, 0.000000000000000000, 0.000000000000000000 ) ) ;
ENDSEC;
END-ISO-10303-21;
