ISO-10303-21;
HEADER;
FILE_DESCRIPTION (( 'STEP AP214' ),
    '1' );
FILE_NAME ('MirrorSTD_Gas_Spring_¿ªÔ´A.STEP',
    '2026-08-16T17:26:53',
    ( '' ),
    ( '' ),
    'SwSTEP 2.0',
    'SolidWorks 2025',
    '' );
FILE_SCHEMA (( 'AUTOMOTIVE_DESIGN' ));
ENDSEC;

DATA;
#1 = DIRECTION ( 'NONE',  ( -0.9980152941806732514, -0.06297199839186386205, -1.665334536937734811E-16 ) ) ;
#2 = CARTESIAN_POINT ( 'NONE',  ( 0.000000000000000000, 0.000000000000000000, 0.000000000000000000 ) ) ;
#3 = PRODUCT_DEFINITION_CONTEXT ( 'detailed design', #137, 'design' ) ;
#4 = PRODUCT_DEFINITION_SHAPE ( 'NONE', 'NONE',  #72 ) ;
#5 = CARTESIAN_POINT ( 'NONE',  ( 1.665334536937734811E-13, 0.000000000000000000, -79.77164175548256253 ) ) ;
#6 = DOCUMENT_FILE ( 'MirrorSTD_Gas_Spring_tapered head_\X2\5f006e90\X0\A.STEP' , '', '', #96, '' ,$ ) ;
#7 =( REPRESENTATION_RELATIONSHIP ('NONE','NONE', #27, #56 ) REPRESENTATION_RELATIONSHIP_WITH_TRANSFORMATION ( #153 )SHAPE_REPRESENTATION_RELATIONSHIP( ) );
#8 = ITEM_DEFINED_TRANSFORMATION ( 'NONE', 'NONE', #135,  #80 ) ;
#9 = OBJECT_ROLE ('mandatory',$ ) ;
#10 = CONTEXT_DEPENDENT_SHAPE_REPRESENTATION ( #40, #54 ) ;
#11 = PROPERTY_DEFINITION ('document property','', #108 ) ;
#12 =( NAMED_UNIT ( * ) SI_UNIT ( $, .STERADIAN. ) SOLID_ANGLE_UNIT ( ) );
#13 = DOCUMENT_TYPE ( 'geometry' ) ;
#14 = DIRECTION ( 'NONE',  ( -3.330669073875469621E-16, -3.469446951953614189E-18, 1.000000000000000000 ) ) ;
#15 = PRODUCT_RELATED_PRODUCT_CATEGORY ( 'part', '', ( #87 ) ) ;
#16 = PRODUCT ( 'MirrorSTD_Gas_Spring_\X2\5f006e90\X0\A', 'MirrorSTD_Gas_Spring_\X2\5f006e90\X0\A', '', ( #123 ) ) ;
#17 = DIRECTION ( 'NONE',  ( 0.000000000000000000, 0.000000000000000000, 1.000000000000000000 ) ) ;
#18 = OBJECT_ROLE ('mandatory',$ ) ;
#19 = UNCERTAINTY_MEASURE_WITH_UNIT (LENGTH_MEASURE( 1.000000000000000082E-05 ), #121, 'distance_accuracy_value', 'NONE');
#20 = PROPERTY_DEFINITION ('document property','', #26 ) ;
#21 = ROLE_ASSOCIATION ( #18, #144 ) ;
#22 = PROPERTY_DEFINITION_REPRESENTATION ( #89, #127 ) ;
#23 = PRODUCT_DEFINITION_SHAPE ( 'NONE', 'NONE',  #170 ) ;
#24 = PROPERTY_DEFINITION_REPRESENTATION ( #20, #56 ) ;
#25 = PROPERTY_DEFINITION_REPRESENTATION ( #60, #127 ) ;
#26 = DOCUMENT_FILE ( 'MirrorSTD_Gas_spring_barrel_\X2\5f006e90\X0\A.STEP' , '', '', #13, '' ,$ ) ;
#27 = SHAPE_REPRESENTATION ( 'MirrorSTD_Gas_Spring_\X2\5f006e90\X0\A', ( #82, #135, #44, #51, #61 ), #53 ) ;
#28 = IDENTIFICATION_ROLE ( 'external document id and location', $) ;
#29 = EXTERNAL_SOURCE (IDENTIFIER('') ) ;
#30 =( NAMED_UNIT ( * ) PLANE_ANGLE_UNIT ( ) SI_UNIT ( $, .RADIAN. ) );
#31 =( NAMED_UNIT ( * ) SI_UNIT ( $, .STERADIAN. ) SOLID_ANGLE_UNIT ( ) );
#32 = PRODUCT_DEFINITION ( 'æ™', '', #116, #3 ) ;
#33 = CARTESIAN_POINT ( 'NONE',  ( 0.000000000000000000, 0.000000000000000000, 0.000000000000000000 ) ) ;
#34 = PRODUCT_DEFINITION_CONTEXT ( 'detailed design', #154, 'design' ) ;
#35 = PROPERTY_DEFINITION ('document property','', #6 ) ;
#36 = DIRECTION ( 'NONE',  ( 0.000000000000000000, 0.000000000000000000, 1.000000000000000000 ) ) ;
#37 = ROLE_ASSOCIATION ( #103, #81 ) ;
#38 = APPLICATION_PROTOCOL_DEFINITION ( 'draft international standard', 'automotive_design', 1998, #143 ) ;
#39 = OBJECT_ROLE ('mandatory',$ ) ;
#40 =( REPRESENTATION_RELATIONSHIP ('NONE','NONE', #27, #106 ) REPRESENTATION_RELATIONSHIP_WITH_TRANSFORMATION ( #166 )SHAPE_REPRESENTATION_RELATIONSHIP( ) );
#41 = APPLICATION_CONTEXT ( 'automotive_design' ) ;
#42 = PRODUCT_DEFINITION_SHAPE ( 'NONE', 'NONE',  #65 ) ;
#43 = APPLICATION_PROTOCOL_DEFINITION ( 'draft international standard', 'automotive_design', 1998, #88 ) ;
#44 = AXIS2_PLACEMENT_3D ( 'NONE', #139, #100, #102 ) ;
#45 = DIRECTION ( 'NONE',  ( 1.000000000000000000, 0.000000000000000000, 0.000000000000000000 ) ) ;
#46 = DIRECTION ( 'NONE',  ( 0.000000000000000000, 0.000000000000000000, 1.000000000000000000 ) ) ;
#47 = APPLICATION_PROTOCOL_DEFINITION ( 'draft international standard', 'automotive_design', 1998, #137 ) ;
#48 = APPLICATION_PROTOCOL_DEFINITION ( 'draft international standard', 'automotive_design', 1998, #41 ) ;
#49 = CONTEXT_DEPENDENT_SHAPE_REPRESENTATION ( #133, #97 ) ;
#50 = PRODUCT_CONTEXT ( 'NONE', #143, 'mechanical' ) ;
#51 = AXIS2_PLACEMENT_3D ( 'NONE', #33, #140, #112 ) ;
#52 = EXTERNAL_SOURCE (IDENTIFIER('') ) ;
#53 =( GEOMETRIC_REPRESENTATION_CONTEXT ( 3 ) GLOBAL_UNCERTAINTY_ASSIGNED_CONTEXT ( ( #85 ) ) GLOBAL_UNIT_ASSIGNED_CONTEXT ( ( #136, #113, #12 ) ) REPRESENTATION_CONTEXT ( 'NONE', 'WORKASPACE' ) );
#54 = PRODUCT_DEFINITION_SHAPE ( 'NONE', 'NONE',  #172 ) ;
#55 =( NAMED_UNIT ( * ) SI_UNIT ( $, .STERADIAN. ) SOLID_ANGLE_UNIT ( ) );
#56 = SHAPE_REPRESENTATION ( 'MirrorSTD_Gas_spring_barrel_\X2\5f006e90\X0\A', ( #109 ), #145 ) ;
#57 =( NAMED_UNIT ( * ) SI_UNIT ( $, .STERADIAN. ) SOLID_ANGLE_UNIT ( ) );
#58 = APPLIED_EXTERNAL_IDENTIFICATION_ASSIGNMENT ( 'MirrorSTD_Gas_spring_barrel_\X2\5f006e90\X0\A.STEP' , #125, #66,( #26) ) ;
#59 = APPLICATION_CONTEXT ( 'automotive_design' ) ;
#60 = PROPERTY_DEFINITION ('external definition','', #6 ) ;
#61 = AXIS2_PLACEMENT_3D ( 'NONE', #5, #14, #76 ) ;
#62 =( GEOMETRIC_REPRESENTATION_CONTEXT ( 3 ) GLOBAL_UNCERTAINTY_ASSIGNED_CONTEXT ( ( #162 ) ) GLOBAL_UNIT_ASSIGNED_CONTEXT ( ( #73, #134, #57 ) ) REPRESENTATION_CONTEXT ( 'NONE', 'WORKASPACE' ) );
#63 = APPLIED_DOCUMENT_REFERENCE ( #108,'',( #72) ) ;
#64 = SHAPE_DEFINITION_REPRESENTATION ( #141, #56 ) ;
#65 = PRODUCT_DEFINITION ( 'æ™', '', #124, #152 ) ;
#66 = EXTERNAL_SOURCE (IDENTIFIER('') ) ;
#67 = SHAPE_DEFINITION_REPRESENTATION ( #42, #106 ) ;
#68 = APPLIED_EXTERNAL_IDENTIFICATION_ASSIGNMENT ( 'MirrorSTD_Gas_Spring_tapered head_\X2\5f006e90\X0\A.STEP' , #90, #29,( #6) ) ;
#69 = DOCUMENT_FILE ( 'MirrorSTD_Gas spring_rod_\X2\5f006e90\X0\A.STEP' , '', '', #99, '' ,$ ) ;
#70 = DIRECTION ( 'NONE',  ( 0.000000000000000000, 0.000000000000000000, 1.000000000000000000 ) ) ;
#71 = PRODUCT_CONTEXT ( 'NONE', #128, 'mechanical' ) ;
#72 = PRODUCT_DEFINITION ( 'æ™', '', #94, #34 ) ;
#73 =( LENGTH_UNIT ( ) NAMED_UNIT ( * ) SI_UNIT ( .MILLI., .METRE. ) );
#74 = PROPERTY_DEFINITION ('external definition','', #69 ) ;
#75 = APPLICATION_PROTOCOL_DEFINITION ( 'draft international standard', 'automotive_design', 1998, #59 ) ;
#76 = DIRECTION ( 'NONE',  ( 0.9668924704652179791, -0.2551841502869404699, 4.996003610813204432E-16 ) ) ;
#77 = DIRECTION ( 'NONE',  ( 1.000000000000000000, 0.000000000000000000, 0.000000000000000000 ) ) ;
#78 = PROPERTY_DEFINITION_REPRESENTATION ( #74, #106 ) ;
#79 = AXIS2_PLACEMENT_3D ( 'NONE', #107, #36, #45 ) ;
#80 = AXIS2_PLACEMENT_3D ( 'NONE', #93, #70, #119 ) ;
#81 = APPLIED_DOCUMENT_REFERENCE ( #69,'',( #65) ) ;
#82 = AXIS2_PLACEMENT_3D ( 'NONE', #160, #46, #142 ) ;
#83 = APPLICATION_CONTEXT ( 'automotive_design' ) ;
#84 = APPLIED_EXTERNAL_IDENTIFICATION_ASSIGNMENT ( 'MirrorSTD_Gas spring_rod_\X2\5f006e90\X0\A.STEP' , #28, #120,( #69) ) ;
#85 = UNCERTAINTY_MEASURE_WITH_UNIT (LENGTH_MEASURE( 1.000000000000000082E-05 ), #136, 'distance_accuracy_value', 'NONE');
#86 = PROPERTY_DEFINITION ('external definition','', #26 ) ;
#87 = PRODUCT ( 'MirrorSTD_Gas spring_rod_\X2\5f006e90\X0\A', 'MirrorSTD_Gas spring_rod_\X2\5f006e90\X0\A', '', ( #71 ) ) ;
#88 = APPLICATION_CONTEXT ( 'automotive_design' ) ;
#89 = PROPERTY_DEFINITION ('external definition','', #108 ) ;
#90 = IDENTIFICATION_ROLE ( 'external document id and location', $) ;
#91 = CONTEXT_DEPENDENT_SHAPE_REPRESENTATION ( #7, #111 ) ;
#92 = APPLICATION_PROTOCOL_DEFINITION ( 'draft international standard', 'automotive_design', 1998, #154 ) ;
#93 = CARTESIAN_POINT ( 'NONE',  ( 0.000000000000000000, 0.000000000000000000, 0.000000000000000000 ) ) ;
#94 = PRODUCT_DEFINITION_FORMATION_WITH_SPECIFIED_SOURCE ( 'å¯', '', #114, .NOT_KNOWN. ) ;
#95 = PRODUCT_RELATED_PRODUCT_CATEGORY ( 'part', '', ( #16 ) ) ;
#96 = DOCUMENT_TYPE ( 'geometry' ) ;
#97 = PRODUCT_DEFINITION_SHAPE ( 'NONE', 'NONE',  #169 ) ;
#98 = PRODUCT_RELATED_PRODUCT_CATEGORY ( 'part', '', ( #147 ) ) ;
#99 = DOCUMENT_TYPE ( 'geometry' ) ;
#100 = DIRECTION ( 'NONE',  ( 5.551115123125782702E-17, -5.551115123125782702E-17, 0.9999999999999998890 ) ) ;
#101 =( LENGTH_UNIT ( ) NAMED_UNIT ( * ) SI_UNIT ( .MILLI., .METRE. ) );
#102 = DIRECTION ( 'NONE',  ( -0.9980152941806731404, -0.06297199839186379267, -1.110223024625156540E-16 ) ) ;
#103 = OBJECT_ROLE ('mandatory',$ ) ;
#104 = APPLICATION_PROTOCOL_DEFINITION ( 'draft international standard', 'automotive_design', 1998, #83 ) ;
#105 = PRODUCT_DEFINITION_FORMATION_WITH_SPECIFIED_SOURCE ( 'å¯', '', #16, .NOT_KNOWN. ) ;
#106 = SHAPE_REPRESENTATION ( 'MirrorSTD_Gas spring_rod_\X2\5f006e90\X0\A', ( #79 ), #148 ) ;
#107 = CARTESIAN_POINT ( 'NONE',  ( 0.000000000000000000, 0.000000000000000000, 0.000000000000000000 ) ) ;
#108 = DOCUMENT_FILE ( 'MirrorSTD_Gas_Spring_tapered head_\X2\5f006e90\X0\A.STEP' , '', '', #161, '' ,$ ) ;
#109 = AXIS2_PLACEMENT_3D ( 'NONE', #2, #17, #77 ) ;
#110 =( REPRESENTATION_RELATIONSHIP ('NONE','NONE', #27, #127 ) REPRESENTATION_RELATIONSHIP_WITH_TRANSFORMATION ( #158 )SHAPE_REPRESENTATION_RELATIONSHIP( ) );
#111 = PRODUCT_DEFINITION_SHAPE ( 'NONE', 'NONE',  #171 ) ;
#112 = DIRECTION ( 'NONE',  ( 1.000000000000000222, 6.938893903907228378E-18, 1.110223024625156540E-16 ) ) ;
#113 =( NAMED_UNIT ( * ) PLANE_ANGLE_UNIT ( ) SI_UNIT ( $, .RADIAN. ) );
#114 = PRODUCT ( 'MirrorSTD_Gas_Spring_tapered head_\X2\5f006e90\X0\A', 'MirrorSTD_Gas_Spring_tapered head_\X2\5f006e90\X0\A', '', ( #131 ) ) ;
#115 = PROPERTY_DEFINITION_REPRESENTATION ( #86, #56 ) ;
#116 = PRODUCT_DEFINITION_FORMATION_WITH_SPECIFIED_SOURCE ( 'å¯', '', #147, .NOT_KNOWN. ) ;
#117 = PROPERTY_DEFINITION_REPRESENTATION ( #138, #106 ) ;
#118 = CONTEXT_DEPENDENT_SHAPE_REPRESENTATION ( #110, #23 ) ;
#119 = DIRECTION ( 'NONE',  ( 1.000000000000000000, 0.000000000000000000, 0.000000000000000000 ) ) ;
#120 = EXTERNAL_SOURCE (IDENTIFIER('') ) ;
#121 =( LENGTH_UNIT ( ) NAMED_UNIT ( * ) SI_UNIT ( .MILLI., .METRE. ) );
#122 = UNCERTAINTY_MEASURE_WITH_UNIT (LENGTH_MEASURE( 1.000000000000000082E-05 ), #101, 'distance_accuracy_value', 'NONE');
#123 = PRODUCT_CONTEXT ( 'NONE', #59, 'mechanical' ) ;
#124 = PRODUCT_DEFINITION_FORMATION_WITH_SPECIFIED_SOURCE ( 'å¯', '', #87, .NOT_KNOWN. ) ;
#125 = IDENTIFICATION_ROLE ( 'external document id and location', $) ;
#126 = CARTESIAN_POINT ( 'NONE',  ( 0.000000000000000000, 0.000000000000000000, 0.000000000000000000 ) ) ;
#127 = SHAPE_REPRESENTATION ( 'MirrorSTD_Gas_Spring_tapered head_\X2\5f006e90\X0\A', ( #80 ), #62 ) ;
#128 = APPLICATION_CONTEXT ( 'automotive_design' ) ;
#129 = ROLE_ASSOCIATION ( #39, #63 ) ;
#130 = PROPERTY_DEFINITION_REPRESENTATION ( #11, #127 ) ;
#131 = PRODUCT_CONTEXT ( 'NONE', #88, 'mechanical' ) ;
#132 = APPLIED_DOCUMENT_REFERENCE ( #26,'',( #32) ) ;
#133 =( REPRESENTATION_RELATIONSHIP ('NONE','NONE', #27, #127 ) REPRESENTATION_RELATIONSHIP_WITH_TRANSFORMATION ( #8 )SHAPE_REPRESENTATION_RELATIONSHIP( ) );
#134 =( NAMED_UNIT ( * ) PLANE_ANGLE_UNIT ( ) SI_UNIT ( $, .RADIAN. ) );
#135 = AXIS2_PLACEMENT_3D ( 'NONE', #126, #150, #1 ) ;
#136 =( LENGTH_UNIT ( ) NAMED_UNIT ( * ) SI_UNIT ( .MILLI., .METRE. ) );
#137 = APPLICATION_CONTEXT ( 'automotive_design' ) ;
#138 = PROPERTY_DEFINITION ('document property','', #69 ) ;
#139 = CARTESIAN_POINT ( 'NONE',  ( 1.110223024625156540E-13, 0.000000000000000000, -149.7716417554825625 ) ) ;
#140 = DIRECTION ( 'NONE',  ( 1.110223024625156540E-16, 0.000000000000000000, 1.000000000000000000 ) ) ;
#141 = PRODUCT_DEFINITION_SHAPE ( 'NONE', 'NONE',  #32 ) ;
#142 = DIRECTION ( 'NONE',  ( 1.000000000000000000, 0.000000000000000000, 0.000000000000000000 ) ) ;
#143 = APPLICATION_CONTEXT ( 'automotive_design' ) ;
#144 = APPLIED_DOCUMENT_REFERENCE ( #6,'',( #72) ) ;
#145 =( GEOMETRIC_REPRESENTATION_CONTEXT ( 3 ) GLOBAL_UNCERTAINTY_ASSIGNED_CONTEXT ( ( #122 ) ) GLOBAL_UNIT_ASSIGNED_CONTEXT ( ( #101, #149, #31 ) ) REPRESENTATION_CONTEXT ( 'NONE', 'WORKASPACE' ) );
#146 = PRODUCT_DEFINITION ( 'æ™', '', #105, #165 ) ;
#147 = PRODUCT ( 'MirrorSTD_Gas_spring_barrel_\X2\5f006e90\X0\A', 'MirrorSTD_Gas_spring_barrel_\X2\5f006e90\X0\A', '', ( #50 ) ) ;
#148 =( GEOMETRIC_REPRESENTATION_CONTEXT ( 3 ) GLOBAL_UNCERTAINTY_ASSIGNED_CONTEXT ( ( #19 ) ) GLOBAL_UNIT_ASSIGNED_CONTEXT ( ( #121, #30, #55 ) ) REPRESENTATION_CONTEXT ( 'NONE', 'WORKASPACE' ) );
#149 =( NAMED_UNIT ( * ) PLANE_ANGLE_UNIT ( ) SI_UNIT ( $, .RADIAN. ) );
#150 = DIRECTION ( 'NONE',  ( -1.110223024625156540E-16, 6.591949208711866959E-17, -1.000000000000000000 ) ) ;
#151 = APPLICATION_PROTOCOL_DEFINITION ( 'draft international standard', 'automotive_design', 1998, #128 ) ;
#152 = PRODUCT_DEFINITION_CONTEXT ( 'detailed design', #41, 'design' ) ;
#153 = ITEM_DEFINED_TRANSFORMATION ( 'NONE', 'NONE', #51,  #109 ) ;
#154 = APPLICATION_CONTEXT ( 'automotive_design' ) ;
#155 = SHAPE_DEFINITION_REPRESENTATION ( #4, #127 ) ;
#156 = ROLE_ASSOCIATION ( #9, #132 ) ;
#157 = PRODUCT_RELATED_PRODUCT_CATEGORY ( 'part', '', ( #114 ) ) ;
#158 = ITEM_DEFINED_TRANSFORMATION ( 'NONE', 'NONE', #44,  #80 ) ;
#159 = SHAPE_DEFINITION_REPRESENTATION ( #163, #27 ) ;
#160 = CARTESIAN_POINT ( 'NONE',  ( 0.000000000000000000, 0.000000000000000000, 0.000000000000000000 ) ) ;
#161 = DOCUMENT_TYPE ( 'geometry' ) ;
#162 = UNCERTAINTY_MEASURE_WITH_UNIT (LENGTH_MEASURE( 1.000000000000000082E-05 ), #73, 'distance_accuracy_value', 'NONE');
#163 = PRODUCT_DEFINITION_SHAPE ( 'NONE', 'NONE',  #146 ) ;
#164 = IDENTIFICATION_ROLE ( 'external document id and location', $) ;
#165 = PRODUCT_DEFINITION_CONTEXT ( 'detailed design', #83, 'design' ) ;
#166 = ITEM_DEFINED_TRANSFORMATION ( 'NONE', 'NONE', #61,  #79 ) ;
#167 = PROPERTY_DEFINITION_REPRESENTATION ( #35, #127 ) ;
#168 = APPLIED_EXTERNAL_IDENTIFICATION_ASSIGNMENT ( 'MirrorSTD_Gas_Spring_tapered head_\X2\5f006e90\X0\A.STEP' , #164, #52,( #108) ) ;
#169 = NEXT_ASSEMBLY_USAGE_OCCURRENCE ( 'NAUO1', ' ', ' ', #146, #72, $ ) ;
#170 = NEXT_ASSEMBLY_USAGE_OCCURRENCE ( 'NAUO2', ' ', ' ', #146, #72, $ ) ;
#171 = NEXT_ASSEMBLY_USAGE_OCCURRENCE ( 'NAUO3', ' ', ' ', #146, #32, $ ) ;
#172 = NEXT_ASSEMBLY_USAGE_OCCURRENCE ( 'NAUO4', ' ', ' ', #146, #65, $ ) ;
ENDSEC;
END-ISO-10303-21;
