ISO-10303-21;
HEADER;
FILE_DESCRIPTION (( 'STEP AP214' ),
    '1' );
FILE_NAME ('NWWA.STEP',
    '2026-08-16T17:27:00',
    ( '' ),
    ( '' ),
    'SwSTEP 2.0',
    'SolidWorks 2025',
    '' );
FILE_SCHEMA (( 'AUTOMOTIVE_DESIGN' ));
ENDSEC;

DATA;
#1 = APPLIED_DOCUMENT_REFERENCE ( #91,'',( #89) ) ;
#2 =( REPRESENTATION_RELATIONSHIP ('NONE','NONE', #74, #18 ) REPRESENTATION_RELATIONSHIP_WITH_TRANSFORMATION ( #30 )SHAPE_REPRESENTATION_RELATIONSHIP( ) );
#3 = EXTERNAL_SOURCE (IDENTIFIER('') ) ;
#4 = SHAPE_DEFINITION_REPRESENTATION ( #87, #74 ) ;
#5 = APPLIED_EXTERNAL_IDENTIFICATION_ASSIGNMENT ( '\X2\8f6e817f51cf901f7bb1603b88c5\X0\A.STEP' , #80, #3,( #8) ) ;
#6 = APPLICATION_CONTEXT ( 'automotive_design' ) ;
#7 =( GEOMETRIC_REPRESENTATION_CONTEXT ( 3 ) GLOBAL_UNCERTAINTY_ASSIGNED_CONTEXT ( ( #15 ) ) GLOBAL_UNIT_ASSIGNED_CONTEXT ( ( #47, #106, #17 ) ) REPRESENTATION_CONTEXT ( 'NONE', 'WORKASPACE' ) );
#8 = DOCUMENT_FILE ( '\X2\8f6e817f51cf901f7bb1603b88c5\X0\A.STEP' , '', '', #10, '' ,$ ) ;
#9 = PROPERTY_DEFINITION ('external definition','', #91 ) ;
#10 = DOCUMENT_TYPE ( 'geometry' ) ;
#11 = PROPERTY_DEFINITION_REPRESENTATION ( #46, #18 ) ;
#12 = AXIS2_PLACEMENT_3D ( 'NONE', #45, #69, #31 ) ;
#13 = APPLIED_DOCUMENT_REFERENCE ( #8,'',( #20) ) ;
#14 = APPLICATION_PROTOCOL_DEFINITION ( 'draft international standard', 'automotive_design', 1998, #23 ) ;
#15 = UNCERTAINTY_MEASURE_WITH_UNIT (LENGTH_MEASURE( 1.000000000000000082E-05 ), #47, 'distance_accuracy_value', 'NONE');
#16 = PRODUCT_RELATED_PRODUCT_CATEGORY ( 'part', '', ( #97 ) ) ;
#17 =( NAMED_UNIT ( * ) SI_UNIT ( $, .STERADIAN. ) SOLID_ANGLE_UNIT ( ) );
#18 = SHAPE_REPRESENTATION ( '\X2\8f6e817f51cf901f7bb1603b88c5\X0\A', ( #104 ), #7 ) ;
#19 =( NAMED_UNIT ( * ) SI_UNIT ( $, .STERADIAN. ) SOLID_ANGLE_UNIT ( ) );
#20 = PRODUCT_DEFINITION ( 'æ™', '', #88, #55 ) ;
#21 = CARTESIAN_POINT ( 'NONE',  ( 1252.205142319878405, 776.1043095618680354, -89.88211720355795364 ) ) ;
#22 = PROPERTY_DEFINITION_REPRESENTATION ( #9, #77 ) ;
#23 = APPLICATION_CONTEXT ( 'automotive_design' ) ;
#24 = CARTESIAN_POINT ( 'NONE',  ( 0.000000000000000000, 0.000000000000000000, 0.000000000000000000 ) ) ;
#25 = APPLICATION_PROTOCOL_DEFINITION ( 'draft international standard', 'automotive_design', 1998, #6 ) ;
#26 = APPLIED_EXTERNAL_IDENTIFICATION_ASSIGNMENT ( 'CNC-\X2\805a6c28916f80f68f6e\X0\A.STEP' , #65, #49,( #91) ) ;
#27 = PRODUCT ( '\X2\8f6e817f51cf901f7bb1603b88c5\X0\A', '\X2\8f6e817f51cf901f7bb1603b88c5\X0\A', '', ( #72 ) ) ;
#28 =( LENGTH_UNIT ( ) NAMED_UNIT ( * ) SI_UNIT ( .MILLI., .METRE. ) );
#29 = APPLICATION_CONTEXT ( 'automotive_design' ) ;
#30 = ITEM_DEFINED_TRANSFORMATION ( 'NONE', 'NONE', #42,  #104 ) ;
#31 = DIRECTION ( 'NONE',  ( 1.000000000000000000, 0.000000000000000000, 0.000000000000000000 ) ) ;
#32 = APPLICATION_CONTEXT ( 'automotive_design' ) ;
#33 = CARTESIAN_POINT ( 'NONE',  ( 0.000000000000000000, 0.000000000000000000, 0.000000000000000000 ) ) ;
#34 = DIRECTION ( 'NONE',  ( 0.1993893490531056800, -2.524354896707237777E-29, -0.9799203475202356017 ) ) ;
#35 = CONTEXT_DEPENDENT_SHAPE_REPRESENTATION ( #2, #64 ) ;
#36 = PRODUCT_DEFINITION ( 'æ™', '', #79, #86 ) ;
#37 = CONTEXT_DEPENDENT_SHAPE_REPRESENTATION ( #41, #59 ) ;
#38 = AXIS2_PLACEMENT_3D ( 'NONE', #24, #60, #96 ) ;
#39 = OBJECT_ROLE ('mandatory',$ ) ;
#40 = ROLE_ASSOCIATION ( #39, #13 ) ;
#41 =( REPRESENTATION_RELATIONSHIP ('NONE','NONE', #74, #77 ) REPRESENTATION_RELATIONSHIP_WITH_TRANSFORMATION ( #90 )SHAPE_REPRESENTATION_RELATIONSHIP( ) );
#42 = AXIS2_PLACEMENT_3D ( 'NONE', #62, #98, #85 ) ;
#43 = PRODUCT_DEFINITION_CONTEXT ( 'detailed design', #29, 'design' ) ;
#44 =( NAMED_UNIT ( * ) PLANE_ANGLE_UNIT ( ) SI_UNIT ( $, .RADIAN. ) );
#45 = CARTESIAN_POINT ( 'NONE',  ( 0.000000000000000000, 0.000000000000000000, 0.000000000000000000 ) ) ;
#46 = PROPERTY_DEFINITION ('document property','', #8 ) ;
#47 =( LENGTH_UNIT ( ) NAMED_UNIT ( * ) SI_UNIT ( .MILLI., .METRE. ) );
#48 = PROPERTY_DEFINITION_REPRESENTATION ( #54, #18 ) ;
#49 = EXTERNAL_SOURCE (IDENTIFIER('') ) ;
#50 = APPLICATION_PROTOCOL_DEFINITION ( 'draft international standard', 'automotive_design', 1998, #32 ) ;
#51 = APPLICATION_PROTOCOL_DEFINITION ( 'draft international standard', 'automotive_design', 1998, #83 ) ;
#52 = DIRECTION ( 'NONE',  ( 0.9799203475202356017, 2.524354896707237777E-29, 0.1993893490531056800 ) ) ;
#53 = PRODUCT_RELATED_PRODUCT_CATEGORY ( 'part', '', ( #27 ) ) ;
#54 = PROPERTY_DEFINITION ('external definition','', #8 ) ;
#55 = PRODUCT_DEFINITION_CONTEXT ( 'detailed design', #23, 'design' ) ;
#56 = SHAPE_DEFINITION_REPRESENTATION ( #78, #77 ) ;
#57 = APPLICATION_CONTEXT ( 'automotive_design' ) ;
#58 = PROPERTY_DEFINITION_REPRESENTATION ( #70, #77 ) ;
#59 = PRODUCT_DEFINITION_SHAPE ( 'NONE', 'NONE',  #107 ) ;
#60 = DIRECTION ( 'NONE',  ( 0.000000000000000000, 0.000000000000000000, 1.000000000000000000 ) ) ;
#61 =( GEOMETRIC_REPRESENTATION_CONTEXT ( 3 ) GLOBAL_UNCERTAINTY_ASSIGNED_CONTEXT ( ( #82 ) ) GLOBAL_UNIT_ASSIGNED_CONTEXT ( ( #95, #44, #19 ) ) REPRESENTATION_CONTEXT ( 'NONE', 'WORKASPACE' ) );
#62 = CARTESIAN_POINT ( 'NONE',  ( 0.000000000000000000, 0.000000000000000000, 0.000000000000000000 ) ) ;
#63 =( GEOMETRIC_REPRESENTATION_CONTEXT ( 3 ) GLOBAL_UNCERTAINTY_ASSIGNED_CONTEXT ( ( #105 ) ) GLOBAL_UNIT_ASSIGNED_CONTEXT ( ( #28, #94, #71 ) ) REPRESENTATION_CONTEXT ( 'NONE', 'WORKASPACE' ) );
#64 = PRODUCT_DEFINITION_SHAPE ( 'NONE', 'NONE',  #108 ) ;
#65 = IDENTIFICATION_ROLE ( 'external document id and location', $) ;
#66 = APPLICATION_PROTOCOL_DEFINITION ( 'draft international standard', 'automotive_design', 1998, #29 ) ;
#67 = AXIS2_PLACEMENT_3D ( 'NONE', #21, #52, #34 ) ;
#68 = DIRECTION ( 'NONE',  ( 1.000000000000000000, 0.000000000000000000, 0.000000000000000000 ) ) ;
#69 = DIRECTION ( 'NONE',  ( 0.000000000000000000, 0.000000000000000000, 1.000000000000000000 ) ) ;
#70 = PROPERTY_DEFINITION ('document property','', #91 ) ;
#71 =( NAMED_UNIT ( * ) SI_UNIT ( $, .STERADIAN. ) SOLID_ANGLE_UNIT ( ) );
#72 = PRODUCT_CONTEXT ( 'NONE', #83, 'mechanical' ) ;
#73 = PRODUCT_DEFINITION_FORMATION_WITH_SPECIFIED_SOURCE ( 'å¯', '', #93, .NOT_KNOWN. ) ;
#74 = SHAPE_REPRESENTATION ( 'NWWA', ( #12, #67, #42 ), #61 ) ;
#75 = DIRECTION ( 'NONE',  ( 0.000000000000000000, 0.000000000000000000, 1.000000000000000000 ) ) ;
#76 = APPLICATION_PROTOCOL_DEFINITION ( 'draft international standard', 'automotive_design', 1998, #57 ) ;
#77 = SHAPE_REPRESENTATION ( 'CNC-\X2\805a6c28916f80f68f6e\X0\A', ( #38 ), #63 ) ;
#78 = PRODUCT_DEFINITION_SHAPE ( 'NONE', 'NONE',  #89 ) ;
#79 = PRODUCT_DEFINITION_FORMATION_WITH_SPECIFIED_SOURCE ( 'å¯', '', #97, .NOT_KNOWN. ) ;
#80 = IDENTIFICATION_ROLE ( 'external document id and location', $) ;
#81 = PRODUCT_DEFINITION_SHAPE ( 'NONE', 'NONE',  #20 ) ;
#82 = UNCERTAINTY_MEASURE_WITH_UNIT (LENGTH_MEASURE( 1.000000000000000082E-05 ), #95, 'distance_accuracy_value', 'NONE');
#83 = APPLICATION_CONTEXT ( 'automotive_design' ) ;
#84 = PRODUCT_CONTEXT ( 'NONE', #6, 'mechanical' ) ;
#85 = DIRECTION ( 'NONE',  ( 1.000000000000000222, 2.524354896707237777E-29, 0.000000000000000000 ) ) ;
#86 = PRODUCT_DEFINITION_CONTEXT ( 'detailed design', #57, 'design' ) ;
#87 = PRODUCT_DEFINITION_SHAPE ( 'NONE', 'NONE',  #36 ) ;
#88 = PRODUCT_DEFINITION_FORMATION_WITH_SPECIFIED_SOURCE ( 'å¯', '', #27, .NOT_KNOWN. ) ;
#89 = PRODUCT_DEFINITION ( 'æ™', '', #73, #43 ) ;
#90 = ITEM_DEFINED_TRANSFORMATION ( 'NONE', 'NONE', #67,  #38 ) ;
#91 = DOCUMENT_FILE ( 'CNC-\X2\805a6c28916f80f68f6e\X0\A.STEP' , '', '', #99, '' ,$ ) ;
#92 = ROLE_ASSOCIATION ( #101, #1 ) ;
#93 = PRODUCT ( 'CNC-\X2\805a6c28916f80f68f6e\X0\A', 'CNC-\X2\805a6c28916f80f68f6e\X0\A', '', ( #102 ) ) ;
#94 =( NAMED_UNIT ( * ) PLANE_ANGLE_UNIT ( ) SI_UNIT ( $, .RADIAN. ) );
#95 =( LENGTH_UNIT ( ) NAMED_UNIT ( * ) SI_UNIT ( .MILLI., .METRE. ) );
#96 = DIRECTION ( 'NONE',  ( 1.000000000000000000, 0.000000000000000000, 0.000000000000000000 ) ) ;
#97 = PRODUCT ( 'NWWA', 'NWWA', '', ( #84 ) ) ;
#98 = DIRECTION ( 'NONE',  ( 0.000000000000000000, 1.893266172530428333E-29, 1.000000000000000222 ) ) ;
#99 = DOCUMENT_TYPE ( 'geometry' ) ;
#100 = SHAPE_DEFINITION_REPRESENTATION ( #81, #18 ) ;
#101 = OBJECT_ROLE ('mandatory',$ ) ;
#102 = PRODUCT_CONTEXT ( 'NONE', #32, 'mechanical' ) ;
#103 = PRODUCT_RELATED_PRODUCT_CATEGORY ( 'part', '', ( #93 ) ) ;
#104 = AXIS2_PLACEMENT_3D ( 'NONE', #33, #75, #68 ) ;
#105 = UNCERTAINTY_MEASURE_WITH_UNIT (LENGTH_MEASURE( 1.000000000000000082E-05 ), #28, 'distance_accuracy_value', 'NONE');
#106 =( NAMED_UNIT ( * ) PLANE_ANGLE_UNIT ( ) SI_UNIT ( $, .RADIAN. ) );
#107 = NEXT_ASSEMBLY_USAGE_OCCURRENCE ( 'NAUO52', ' ', ' ', #36, #89, $ ) ;
#108 = NEXT_ASSEMBLY_USAGE_OCCURRENCE ( 'NAUO53', ' ', ' ', #36, #20, $ ) ;
ENDSEC;
END-ISO-10303-21;
