ISO-10303-21;
HEADER;
FILE_DESCRIPTION (( 'STEP AP214' ),
    '1' );
FILE_NAME ('ÄÚÁù½ÇÔ²ÖùÍ·ÂÝ¶¤ M4x30A.STEP',
    '2026-08-16T17:26:59',
    ( '' ),
    ( '' ),
    'SwSTEP 2.0',
    'SolidWorks 2025',
    '' );
FILE_SCHEMA (( 'AUTOMOTIVE_DESIGN' ));
ENDSEC;

DATA;
#1 = AXIS2_PLACEMENT_3D ( 'NONE', #478, #583, #702 ) ;
#2 = ORIENTED_EDGE ( 'NONE', *, *, #301, .F. ) ;
#3 = PRODUCT_CONTEXT ( 'NONE', #543, 'mechanical' ) ;
#4 =( NAMED_UNIT ( * ) SI_UNIT ( $, .STERADIAN. ) SOLID_ANGLE_UNIT ( ) );
#5 = ADVANCED_FACE ( 'NONE', ( #253 ), #213, .T. ) ;
#6 = ORIENTED_EDGE ( 'NONE', *, *, #447, .F. ) ;
#7 = FACE_OUTER_BOUND ( 'NONE', #680, .T. ) ;
#8 = AXIS2_PLACEMENT_3D ( 'NONE', #148, #354, #35 ) ;
#9 = AXIS2_PLACEMENT_3D ( 'NONE', #444, #612, #666 ) ;
#10 = ORIENTED_EDGE ( 'NONE', *, *, #217, .T. ) ;
#11 = PLANE ( 'NONE',  #438 ) ;
#12 = FACE_OUTER_BOUND ( 'NONE', #66, .T. ) ;
#13 = AXIS2_PLACEMENT_3D ( 'NONE', #18, #553, #232 ) ;
#14 = DIRECTION ( 'NONE',  ( 0.000000000000000000, 0.000000000000000000, -1.000000000000000000 ) ) ;
#15 = DIRECTION ( 'NONE',  ( 0.2499999999999973077, 0.4330127018922148574, -0.8660254037844417052 ) ) ;
#16 = CIRCLE ( 'NONE', #167, 2.000000000000000000 ) ;
#17 = EDGE_LOOP ( 'NONE', ( #544, #592, #310, #112 ) ) ;
#18 = CARTESIAN_POINT ( 'NONE',  ( 0.000000000000000000, 0.000000000000000000, -30.00000000000000000 ) ) ;
#19 = DIRECTION ( 'NONE',  ( 0.8660254037844387076, 0.4999999999999998890, 0.000000000000000000 ) ) ;
#20 = CARTESIAN_POINT ( 'NONE',  ( 1.500000000000000000, -0.8660254037844390407, 4.000000000000000000 ) ) ;
#21 = AXIS2_PLACEMENT_3D ( 'NONE', #536, #321, #597 ) ;
#22 = EDGE_CURVE ( 'NONE', #407, #51, #87, .T. ) ;
#23 = DIRECTION ( 'NONE',  ( 0.4999999999999998890, 0.8660254037844387076, 0.000000000000000000 ) ) ;
#24 = CARTESIAN_POINT ( 'NONE',  ( -1.500000000000000000, -0.8660254037844390407, 4.000000000000000000 ) ) ;
#25 = ORIENTED_EDGE ( 'NONE', *, *, #193, .T. ) ;
#26 = ADVANCED_FACE ( 'NONE', ( #84 ), #305, .T. ) ;
#27 = DIRECTION ( 'NONE',  ( -0.8660254037844387076, -0.4999999999999998890, 0.000000000000000000 ) ) ;
#28 = DIRECTION ( 'NONE',  ( 1.000000000000000000, 0.000000000000000000, 0.000000000000000000 ) ) ;
#29 = ORIENTED_EDGE ( 'NONE', *, *, #335, .F. ) ;
#30 = EDGE_LOOP ( 'NONE', ( #440, #151 ) ) ;
#31 = CARTESIAN_POINT ( 'NONE',  ( 0.000000000000000000, 0.000000000000000000, 0.000000000000000000 ) ) ;
#32 = PLANE ( 'NONE',  #57 ) ;
#33 = ORIENTED_EDGE ( 'NONE', *, *, #514, .F. ) ;
#34 = LINE ( 'NONE', #558, #37 ) ;
#35 = DIRECTION ( 'NONE',  ( 1.000000000000000000, 0.000000000000000000, 0.000000000000000000 ) ) ;
#36 = VECTOR ( 'NONE', #472, 1000.000000000000000 ) ;
#37 = VECTOR ( 'NONE', #75, 1000.000000000000000 ) ;
#38 = ORIENTED_EDGE ( 'NONE', *, *, #512, .T. ) ;
#39 = VERTEX_POINT ( 'NONE', #683 ) ;
#40 = DIRECTION ( 'NONE',  ( 0.000000000000000000, 0.000000000000000000, -1.000000000000000000 ) ) ;
#41 = PLANE ( 'NONE',  #88 ) ;
#42 = PRODUCT_DEFINITION_SHAPE ( 'NONE', 'NONE',  #86 ) ;
#43 = ORIENTED_EDGE ( 'NONE', *, *, #78, .F. ) ;
#44 = CARTESIAN_POINT ( 'NONE',  ( 2.000000000000000000, 0.000000000000000000, -0.1000000000000000056 ) ) ;
#45 = CARTESIAN_POINT ( 'NONE',  ( -2.000000000000000000, 2.449293598294704935E-16, -30.00000000000000000 ) ) ;
#46 = EDGE_CURVE ( 'NONE', #328, #365, #677, .T. ) ;
#47 = EDGE_LOOP ( 'NONE', ( #276, #636 ) ) ;
#48 = CARTESIAN_POINT ( 'NONE',  ( 0.000000000000000000, 0.000000000000000000, -29.50000000000000000 ) ) ;
#49 = CARTESIAN_POINT ( 'NONE',  ( 0.002549734090289875084, 3.192085622283575127E-19, 2.000000000000000000 ) ) ;
#50 = EDGE_LOOP ( 'NONE', ( #273, #202, #563, #214 ) ) ;
#51 = VERTEX_POINT ( 'NONE', #565 ) ;
#52 = DIRECTION ( 'NONE',  ( 0.000000000000000000, 0.000000000000000000, 1.000000000000000000 ) ) ;
#53 = DIRECTION ( 'NONE',  ( 0.000000000000000000, -1.000000000000000000, -7.228014483236589813E-17 ) ) ;
#54 = DIRECTION ( 'NONE',  ( -0.8660254037844387076, 0.4999999999999998890, 0.000000000000000000 ) ) ;
#55 = CARTESIAN_POINT ( 'NONE',  ( -2.100000000000000089, 2.571758278209439985E-16, 3.049318610115480235E-16 ) ) ;
#56 = EDGE_CURVE ( 'NONE', #609, #155, #246, .T. ) ;
#57 = AXIS2_PLACEMENT_3D ( 'NONE', #409, #616, #135 ) ;
#58 = CARTESIAN_POINT ( 'NONE',  ( 1.144294201316464130E-16, 1.732050807568880080, 2.864553314121035310 ) ) ;
#59 = EDGE_CURVE ( 'NONE', #132, #500, #678, .T. ) ;
#60 = ORIENTED_EDGE ( 'NONE', *, *, #78, .T. ) ;
#61 = CARTESIAN_POINT ( 'NONE',  ( 8.684205291724710282E-16, 0.002355343461425419768, 1.999705582067319742 ) ) ;
#62 =( NAMED_UNIT ( * ) PLANE_ANGLE_UNIT ( ) SI_UNIT ( $, .RADIAN. ) );
#63 = CARTESIAN_POINT ( 'NONE',  ( 0.000000000000000000, 0.000000000000000000, 0.000000000000000000 ) ) ;
#64 = DIRECTION ( 'NONE',  ( 0.000000000000000000, 0.000000000000000000, 1.000000000000000000 ) ) ;
#65 = TOROIDAL_SURFACE ( 'NONE', #158, 2.100000000000000089, 0.1000000000000000056 ) ;
#66 = EDGE_LOOP ( 'NONE', ( #559, #25, #416, #471 ) ) ;
#67 = CARTESIAN_POINT ( 'NONE',  ( 0.000000000000000000, 0.000000000000000000, -30.00000000000000000 ) ) ;
#68 = ADVANCED_FACE ( 'NONE', ( #364 ), #65, .F. ) ;
#69 = EDGE_CURVE ( 'NONE', #433, #407, #510, .T. ) ;
#70 = ORIENTED_EDGE ( 'NONE', *, *, #175, .F. ) ;
#71 = FACE_OUTER_BOUND ( 'NONE', #50, .T. ) ;
#72 = AXIS2_PLACEMENT_3D ( 'NONE', #367, #574, #579 ) ;
#73 = VECTOR ( 'NONE', #670, 1000.000000000000000 ) ;
#74 = UNCERTAINTY_MEASURE_WITH_UNIT (LENGTH_MEASURE( 1.000000000000000082E-05 ), #448, 'distance_accuracy_value', 'NONE');
#75 = DIRECTION ( 'NONE',  ( 0.000000000000000000, 0.000000000000000000, 1.000000000000000000 ) ) ;
#76 = LINE ( 'NONE', #618, #501 ) ;
#77 = DIRECTION ( 'NONE',  ( 0.000000000000000000, 0.000000000000000000, -1.000000000000000000 ) ) ;
#78 = EDGE_CURVE ( 'NONE', #347, #190, #309, .T. ) ;
#79 = CIRCLE ( 'NONE', #562, 2.000000000000000000 ) ;
#80 = ORIENTED_EDGE ( 'NONE', *, *, #255, .F. ) ;
#81 = DIRECTION ( 'NONE',  ( 0.000000000000000000, -0.8944271909999184089, 0.4472135954999527652 ) ) ;
#82 = DIRECTION ( 'NONE',  ( 0.000000000000000000, 0.000000000000000000, 1.000000000000000000 ) ) ;
#83 = VERTEX_POINT ( 'NONE', #313 ) ;
#84 = FACE_OUTER_BOUND ( 'NONE', #287, .T. ) ;
#85 = DIRECTION ( 'NONE',  ( 1.433291761649763294E-16, 0.8944271909999187420, -0.4472135954999523766 ) ) ;
#86 = PRODUCT_DEFINITION ( 'æ™', '', #590, #667 ) ;
#87 = LINE ( 'NONE', #24, #283 ) ;
#88 = AXIS2_PLACEMENT_3D ( 'NONE', #651, #219, #258 ) ;
#89 = EDGE_LOOP ( 'NONE', ( #315, #441, #668, #333 ) ) ;
#90 = DIRECTION ( 'NONE',  ( -0.8660254037844387076, -0.4999999999999998890, 0.000000000000000000 ) ) ;
#91 = DIRECTION ( 'NONE',  ( 0.8660254037844387076, -0.4999999999999998890, 0.000000000000000000 ) ) ;
#92 = CIRCLE ( 'NONE', #411, 1.500000000000000000 ) ;
#93 = EDGE_LOOP ( 'NONE', ( #137, #38, #265, #250 ) ) ;
#94 = CARTESIAN_POINT ( 'NONE',  ( 1.500000000000000000, 0.8660254037844390407, 2.000000000000000000 ) ) ;
#95 = LINE ( 'NONE', #99, #332 ) ;
#96 = ORIENTED_EDGE ( 'NONE', *, *, #466, .F. ) ;
#97 = ORIENTED_EDGE ( 'NONE', *, *, #620, .F. ) ;
#98 = LINE ( 'NONE', #108, #439 ) ;
#99 = CARTESIAN_POINT ( 'NONE',  ( -1.500000000000000000, -0.8660254037844390407, 2.000000000000000000 ) ) ;
#100 = VECTOR ( 'NONE', #177, 1000.000000000000000 ) ;
#101 = ORIENTED_EDGE ( 'NONE', *, *, #664, .F. ) ;
#102 = DIRECTION ( 'NONE',  ( 0.000000000000000000, 0.000000000000000000, 1.000000000000000000 ) ) ;
#103 = VECTOR ( 'NONE', #503, 1000.000000000000000 ) ;
#104 = CARTESIAN_POINT ( 'NONE',  ( 6.057093739309399902E-16, -0.002944179326781544859, 2.000000000000000000 ) ) ;
#105 = VECTOR ( 'NONE', #90, 1000.000000000000000 ) ;
#106 = AXIS2_PLACEMENT_3D ( 'NONE', #31, #251, #684 ) ;
#107 = ORIENTED_EDGE ( 'NONE', *, *, #114, .T. ) ;
#108 = CARTESIAN_POINT ( 'NONE',  ( 1.500000000000000000, 0.000000000000000000, -30.00000000000000000 ) ) ;
#109 = ADVANCED_FACE ( 'NONE', ( #523 ), #599, .F. ) ;
#110 = DIRECTION ( 'NONE',  ( 1.000000000000000000, 0.000000000000000000, 0.000000000000000000 ) ) ;
#111 = APPLICATION_CONTEXT ( 'automotive_design' ) ;
#112 = ORIENTED_EDGE ( 'NONE', *, *, #181, .F. ) ;
#113 = DIRECTION ( 'NONE',  ( 0.000000000000000000, 0.000000000000000000, 1.000000000000000000 ) ) ;
#114 = EDGE_CURVE ( 'NONE', #477, #362, #249, .T. ) ;
#115 = FACE_OUTER_BOUND ( 'NONE', #159, .T. ) ;
#116 = VECTOR ( 'NONE', #704, 1000.000000000000000 ) ;
#117 = SURFACE_STYLE_USAGE ( .BOTH. , #488 ) ;
#118 = ORIENTED_EDGE ( 'NONE', *, *, #686, .F. ) ;
#119 = LINE ( 'NONE', #491, #322 ) ;
#120 = DIRECTION ( 'NONE',  ( 1.000000000000000000, 0.000000000000000000, 0.000000000000000000 ) ) ;
#121 = ADVANCED_FACE ( 'NONE', ( #139 ), #32, .F. ) ;
#122 = ADVANCED_FACE ( 'NONE', ( #196 ), #349, .T. ) ;
#123 = ORIENTED_EDGE ( 'NONE', *, *, #581, .T. ) ;
#124 = FILL_AREA_STYLE_COLOUR ( '', #619 ) ;
#125 = ADVANCED_BREP_SHAPE_REPRESENTATION ( '\X2\5185516d89d2570667f1593487ba9489\X0\ M4x30A', ( #344, #355 ), #410 ) ;
#126 = ADVANCED_FACE ( 'NONE', ( #624 ), #611, .T. ) ;
#127 = LINE ( 'NONE', #280, #103 ) ;
#128 = ORIENTED_EDGE ( 'NONE', *, *, #621, .F. ) ;
#129 = ORIENTED_EDGE ( 'NONE', *, *, #308, .T. ) ;
#130 = PLANE ( 'NONE',  #585 ) ;
#131 = AXIS2_PLACEMENT_3D ( 'NONE', #492, #171, #223 ) ;
#132 = VERTEX_POINT ( 'NONE', #405 ) ;
#133 = ORIENTED_EDGE ( 'NONE', *, *, #550, .T. ) ;
#134 = CARTESIAN_POINT ( 'NONE',  ( -0.002549734090290199911, 0.001472089663390689813, 2.000000000000000000 ) ) ;
#135 = DIRECTION ( 'NONE',  ( -0.9607689228305240636, 0.000000000000000000, 0.2773500981126104659 ) ) ;
#136 = VECTOR ( 'NONE', #482, 1000.000000000000000 ) ;
#137 = ORIENTED_EDGE ( 'NONE', *, *, #451, .F. ) ;
#138 = CARTESIAN_POINT ( 'NONE',  ( 1.129916623503601953E-16, -1.732050807568880080, 2.000000000000000000 ) ) ;
#139 = FACE_OUTER_BOUND ( 'NONE', #697, .T. ) ;
#140 = ORIENTED_EDGE ( 'NONE', *, *, #524, .F. ) ;
#141 = FACE_OUTER_BOUND ( 'NONE', #701, .T. ) ;
#142 = CARTESIAN_POINT ( 'NONE',  ( 0.000000000000000000, 0.000000000000000000, 3.461538461538459899 ) ) ;
#143 = ADVANCED_FACE ( 'NONE', ( #268 ), #41, .F. ) ;
#144 = LINE ( 'NONE', #304, #614 ) ;
#145 = ORIENTED_EDGE ( 'NONE', *, *, #633, .T. ) ;
#146 = VERTEX_POINT ( 'NONE', #635 ) ;
#147 = LINE ( 'NONE', #363, #105 ) ;
#148 = CARTESIAN_POINT ( 'NONE',  ( 0.000000000000000000, 0.000000000000000000, 2.000000000000000000 ) ) ;
#149 = VECTOR ( 'NONE', #240, 1000.000000000000000 ) ;
#150 = VECTOR ( 'NONE', #641, 1000.000000000000000 ) ;
#151 = ORIENTED_EDGE ( 'NONE', *, *, #259, .T. ) ;
#152 = DIRECTION ( 'NONE',  ( 0.000000000000000000, 0.000000000000000000, 1.000000000000000000 ) ) ;
#153 = DIRECTION ( 'NONE',  ( 0.000000000000000000, 0.000000000000000000, 1.000000000000000000 ) ) ;
#154 = EDGE_CURVE ( 'NONE', #700, #328, #572, .T. ) ;
#155 = VERTEX_POINT ( 'NONE', #55 ) ;
#156 = LINE ( 'NONE', #376, #625 ) ;
#157 = CARTESIAN_POINT ( 'NONE',  ( 0.002039787272231809948, -0.001177671730712859938, 1.999705582067319742 ) ) ;
#158 = AXIS2_PLACEMENT_3D ( 'NONE', #568, #82, #192 ) ;
#159 = EDGE_LOOP ( 'NONE', ( #582, #705, #480, #450 ) ) ;
#160 = CYLINDRICAL_SURFACE ( 'NONE', #327, 3.500000000000000000 ) ;
#161 = FACE_OUTER_BOUND ( 'NONE', #632, .T. ) ;
#162 = VECTOR ( 'NONE', #711, 1000.000000000000114 ) ;
#163 = ORIENTED_EDGE ( 'NONE', *, *, #512, .F. ) ;
#164 = DIRECTION ( 'NONE',  ( -1.000000000000000000, 0.000000000000000000, 0.000000000000000000 ) ) ;
#165 = FACE_OUTER_BOUND ( 'NONE', #518, .T. ) ;
#166 = CONICAL_SURFACE ( 'NONE', #1, 1.500000000000000000, 0.7853981633974461696 ) ;
#167 = AXIS2_PLACEMENT_3D ( 'NONE', #408, #623, #404 ) ;
#168 = CYLINDRICAL_SURFACE ( 'NONE', #591, 2.000000000000000000 ) ;
#169 = DIRECTION ( 'NONE',  ( 0.000000000000000000, 0.000000000000000000, -1.000000000000000000 ) ) ;
#170 = ORIENTED_EDGE ( 'NONE', *, *, #575, .F. ) ;
#171 = DIRECTION ( 'NONE',  ( 0.000000000000000000, 0.000000000000000000, -1.000000000000000000 ) ) ;
#172 = VERTEX_POINT ( 'NONE', #387 ) ;
#173 = FACE_OUTER_BOUND ( 'NONE', #262, .T. ) ;
#174 = EDGE_CURVE ( 'NONE', #172, #365, #235, .T. ) ;
#175 = EDGE_CURVE ( 'NONE', #241, #39, #584, .T. ) ;
#176 = DIRECTION ( 'NONE',  ( 0.000000000000000000, 0.000000000000000000, 1.000000000000000000 ) ) ;
#177 = DIRECTION ( 'NONE',  ( -0.8660254037844387076, -0.4999999999999998890, 0.000000000000000000 ) ) ;
#178 = ORIENTED_EDGE ( 'NONE', *, *, #514, .T. ) ;
#179 = LINE ( 'NONE', #61, #195 ) ;
#180 = CARTESIAN_POINT ( 'NONE',  ( -1.500000000000000000, 0.8660254037844390407, 2.000000000000000000 ) ) ;
#181 = EDGE_CURVE ( 'NONE', #39, #598, #600, .T. ) ;
#182 = DIRECTION ( 'NONE',  ( 0.000000000000000000, 0.000000000000000000, 1.000000000000000000 ) ) ;
#183 = VERTEX_POINT ( 'NONE', #212 ) ;
#184 = ORIENTED_EDGE ( 'NONE', *, *, #217, .F. ) ;
#185 = CARTESIAN_POINT ( 'NONE',  ( 2.961538461538459899, 0.000000000000000000, 4.000000000000000000 ) ) ;
#186 = DIRECTION ( 'NONE',  ( -1.251928832280965695E-16, 1.000000000000000000, 0.000000000000000000 ) ) ;
#187 = DIRECTION ( 'NONE',  ( 1.251928832280965695E-16, -1.000000000000000000, 0.000000000000000000 ) ) ;
#188 = ORIENTED_EDGE ( 'NONE', *, *, #279, .F. ) ;
#189 = AXIS2_PLACEMENT_3D ( 'NONE', #708, #216, #423 ) ;
#190 = VERTEX_POINT ( 'NONE', #104 ) ;
#191 = FACE_OUTER_BOUND ( 'NONE', #375, .T. ) ;
#192 = DIRECTION ( 'NONE',  ( 1.000000000000000000, 0.000000000000000000, 0.000000000000000000 ) ) ;
#193 = EDGE_CURVE ( 'NONE', #533, #658, #539, .T. ) ;
#194 = DIRECTION ( 'NONE',  ( 0.8660254037844387076, 0.4999999999999998890, 0.000000000000000000 ) ) ;
#195 = VECTOR ( 'NONE', #545, 1000.000000000000000 ) ;
#196 = FACE_OUTER_BOUND ( 'NONE', #414, .T. ) ;
#197 = AXIS2_PLACEMENT_3D ( 'NONE', #453, #449, #653 ) ;
#198 = ORIENTED_EDGE ( 'NONE', *, *, #566, .T. ) ;
#199 = PLANE ( 'NONE',  #106 ) ;
#200 = CARTESIAN_POINT ( 'NONE',  ( 0.000000000000000000, 0.000000000000000000, 0.000000000000000000 ) ) ;
#201 = ADVANCED_FACE ( 'NONE', ( #161 ), #699, .F. ) ;
#202 = ORIENTED_EDGE ( 'NONE', *, *, #175, .T. ) ;
#203 = LINE ( 'NONE', #420, #499 ) ;
#204 = CARTESIAN_POINT ( 'NONE',  ( 1.500000000000000000, 0.8660254037844390407, 4.000000000000000000 ) ) ;
#205 = VECTOR ( 'NONE', #186, 1000.000000000000000 ) ;
#206 = ORIENTED_EDGE ( 'NONE', *, *, #550, .F. ) ;
#207 = EDGE_CURVE ( 'NONE', #533, #407, #95, .T. ) ;
#208 = FACE_OUTER_BOUND ( 'NONE', #694, .T. ) ;
#209 = DIRECTION ( 'NONE',  ( 1.000000000000000000, 0.000000000000000000, 0.000000000000000000 ) ) ;
#210 = ORIENTED_EDGE ( 'NONE', *, *, #243, .T. ) ;
#211 = CARTESIAN_POINT ( 'NONE',  ( 1.144294201316464130E-16, 1.732050807568880080, 2.864553314121035310 ) ) ;
#212 = CARTESIAN_POINT ( 'NONE',  ( 0.002549734090289905008, -0.001472089663391112002, 2.000000000000000000 ) ) ;
#213 = TOROIDAL_SURFACE ( 'NONE', #306, 2.961538461538459899, 0.5384615384615379918 ) ;
#214 = ORIENTED_EDGE ( 'NONE', *, *, #342, .F. ) ;
#215 = CARTESIAN_POINT ( 'NONE',  ( 8.673375234188719479E-16, 0.002944179326782169794, 2.000000000000000000 ) ) ;
#216 = DIRECTION ( 'NONE',  ( 0.000000000000000000, 0.000000000000000000, -1.000000000000000000 ) ) ;
#217 = EDGE_CURVE ( 'NONE', #328, #132, #236, .T. ) ;
#218 = DIRECTION ( 'NONE',  ( 0.000000000000000000, -0.8944271909999186310, 0.4472135954999523211 ) ) ;
#219 = DIRECTION ( 'NONE',  ( -0.4999999999999998890, -0.8660254037844387076, 0.000000000000000000 ) ) ;
#220 = CIRCLE ( 'NONE', #72, 0.1000000000000000056 ) ;
#221 = VECTOR ( 'NONE', #302, 1000.000000000000000 ) ;
#222 =( NAMED_UNIT ( * ) PLANE_ANGLE_UNIT ( ) SI_UNIT ( $, .RADIAN. ) );
#223 = DIRECTION ( 'NONE',  ( -1.000000000000000000, 0.000000000000000000, 0.000000000000000000 ) ) ;
#224 = AXIS2_PLACEMENT_3D ( 'NONE', #180, #391, #182 ) ;
#225 = VERTEX_POINT ( 'NONE', #532 ) ;
#226 = APPLICATION_PROTOCOL_DEFINITION ( 'draft international standard', 'automotive_design', 1998, #111 ) ;
#227 = LINE ( 'NONE', #542, #247 ) ;
#228 = DIRECTION ( 'NONE',  ( 1.000000000000000000, 0.000000000000000000, 0.000000000000000000 ) ) ;
#229 = VECTOR ( 'NONE', #54, 1000.000000000000000 ) ;
#230 = CARTESIAN_POINT ( 'NONE',  ( -0.002549734090290199911, -0.001472089663390147929, 2.000000000000000000 ) ) ;
#231 = EDGE_LOOP ( 'NONE', ( #140, #652, #129, #107 ) ) ;
#232 = DIRECTION ( 'NONE',  ( 1.000000000000000000, 0.000000000000000000, 0.000000000000000000 ) ) ;
#233 = DIRECTION ( 'NONE',  ( -0.9607689228305238416, 0.000000000000000000, -0.2773500981126109100 ) ) ;
#234 = ADVANCED_FACE ( 'NONE', ( #115 ), #485, .F. ) ;
#235 = CIRCLE ( 'NONE', #505, 3.500000000000000000 ) ;
#236 = CIRCLE ( 'NONE', #21, 0.5384615384615379918 ) ;
#237 = CARTESIAN_POINT ( 'NONE',  ( 0.001274867045145045962, -0.002208134495086425033, 2.000000000000000000 ) ) ;
#238 = CARTESIAN_POINT ( 'NONE',  ( 0.000000000000000000, 0.000000000000000000, 3.461538461538459899 ) ) ;
#239 = CARTESIAN_POINT ( 'NONE',  ( 1.500000000000000000, -0.8660254037844390407, 2.864553314121035310 ) ) ;
#240 = DIRECTION ( 'NONE',  ( 0.000000000000000000, -1.000000000000000000, 0.000000000000000000 ) ) ;
#241 = VERTEX_POINT ( 'NONE', #696 ) ;
#242 = VERTEX_POINT ( 'NONE', #589 ) ;
#243 = EDGE_CURVE ( 'NONE', #362, #419, #272, .T. ) ;
#244 = LINE ( 'NONE', #506, #229 ) ;
#245 = CARTESIAN_POINT ( 'NONE',  ( 0.000000000000000000, 0.000000000000000000, 4.000000000000000000 ) ) ;
#246 = CIRCLE ( 'NONE', #493, 2.100000000000000089 ) ;
#247 = VECTOR ( 'NONE', #64, 1000.000000000000000 ) ;
#248 = PLANE ( 'NONE',  #557 ) ;
#249 = LINE ( 'NONE', #671, #205 ) ;
#250 = ORIENTED_EDGE ( 'NONE', *, *, #22, .T. ) ;
#251 = DIRECTION ( 'NONE',  ( 0.000000000000000000, 0.000000000000000000, 1.000000000000000000 ) ) ;
#252 = AXIS2_PLACEMENT_3D ( 'NONE', #434, #102, #645 ) ;
#253 = FACE_OUTER_BOUND ( 'NONE', #384, .T. ) ;
#254 = AXIS2_PLACEMENT_3D ( 'NONE', #457, #23, #348 ) ;
#255 = EDGE_CURVE ( 'NONE', #328, #700, #642, .T. ) ;
#256 = ORIENTED_EDGE ( 'NONE', *, *, #431, .T. ) ;
#257 = CARTESIAN_POINT ( 'NONE',  ( 3.500000000000000000, 4.286263797015735609E-16, 4.000000000000000000 ) ) ;
#258 = DIRECTION ( 'NONE',  ( -0.8660254037844387076, 0.4999999999999998890, 0.000000000000000000 ) ) ;
#259 = EDGE_CURVE ( 'NONE', #155, #609, #654, .T. ) ;
#260 = ORIENTED_EDGE ( 'NONE', *, *, #373, .F. ) ;
#261 = STYLED_ITEM ( 'NONE', ( #496 ), #344 ) ;
#262 = EDGE_LOOP ( 'NONE', ( #256, #33, #101, #502 ) ) ;
#263 = DIRECTION ( 'NONE',  ( -1.000000000000000000, 0.000000000000000000, 0.000000000000000000 ) ) ;
#264 = DIRECTION ( 'NONE',  ( 1.000000000000000000, 0.000000000000000000, 0.000000000000000000 ) ) ;
#265 = ORIENTED_EDGE ( 'NONE', *, *, #207, .T. ) ;
#266 = ORIENTED_EDGE ( 'NONE', *, *, #114, .F. ) ;
#267 = CARTESIAN_POINT ( 'NONE',  ( -2.100000000000000089, 2.571758278209439985E-16, -0.1000000000000000056 ) ) ;
#268 = FACE_OUTER_BOUND ( 'NONE', #93, .T. ) ;
#269 = ORIENTED_EDGE ( 'NONE', *, *, #378, .F. ) ;
#270 = LINE ( 'NONE', #94, #469 ) ;
#271 = ADVANCED_FACE ( 'NONE', ( #165 ), #463, .T. ) ;
#272 = LINE ( 'NONE', #204, #136 ) ;
#273 = ORIENTED_EDGE ( 'NONE', *, *, #399, .T. ) ;
#274 = CARTESIAN_POINT ( 'NONE',  ( 1.144294201316464130E-16, 1.732050807568880080, 2.000000000000000000 ) ) ;
#275 = DIRECTION ( 'NONE',  ( -0.4999999999999998890, 0.8660254037844387076, 0.000000000000000000 ) ) ;
#276 = ORIENTED_EDGE ( 'NONE', *, *, #575, .T. ) ;
#277 = DIRECTION ( 'NONE',  ( 0.4999999999999998890, -0.8660254037844387076, 0.000000000000000000 ) ) ;
#278 = FACE_BOUND ( 'NONE', #388, .T. ) ;
#279 = EDGE_CURVE ( 'NONE', #533, #347, #317, .T. ) ;
#280 = CARTESIAN_POINT ( 'NONE',  ( 0.001274867045145372090, 0.002208134495086990119, 2.000000000000000000 ) ) ;
#281 = PLANE ( 'NONE',  #9 ) ;
#282 = ORIENTED_EDGE ( 'NONE', *, *, #686, .T. ) ;
#283 = VECTOR ( 'NONE', #576, 1000.000000000000000 ) ;
#284 = DIRECTION ( 'NONE',  ( 1.000000000000000000, 0.000000000000000000, 0.000000000000000000 ) ) ;
#285 = FACE_OUTER_BOUND ( 'NONE', #47, .T. ) ;
#286 = AXIS2_PLACEMENT_3D ( 'NONE', #368, #580, #646 ) ;
#287 = EDGE_LOOP ( 'NONE', ( #340, #379, #60, #338, #644, #402 ) ) ;
#288 = CARTESIAN_POINT ( 'NONE',  ( 3.500000000000000000, 4.286263797015735609E-16, 3.461538461538459899 ) ) ;
#289 = EDGE_CURVE ( 'NONE', #511, #183, #476, .T. ) ;
#290 = FILL_AREA_STYLE ('',( #124 ) ) ;
#291 = AXIS2_PLACEMENT_3D ( 'NONE', #425, #325, #316 ) ;
#292 = DIRECTION ( 'NONE',  ( 1.000000000000000000, 0.000000000000000000, 0.000000000000000000 ) ) ;
#293 = VECTOR ( 'NONE', #194, 1000.000000000000000 ) ;
#294 = ADVANCED_FACE ( 'NONE', ( #12 ), #663, .F. ) ;
#295 = CARTESIAN_POINT ( 'NONE',  ( 1.144294201316464130E-16, 1.732050807568880080, 4.000000000000000000 ) ) ;
#296 = AXIS2_PLACEMENT_3D ( 'NONE', #245, #77, #685 ) ;
#297 = AXIS2_PLACEMENT_3D ( 'NONE', #437, #473, #264 ) ;
#298 = LINE ( 'NONE', #138, #221 ) ;
#299 = DIRECTION ( 'NONE',  ( 0.000000000000000000, 0.000000000000000000, 1.000000000000000000 ) ) ;
#300 = ADVANCED_FACE ( 'NONE', ( #397 ), #281, .T. ) ;
#301 = EDGE_CURVE ( 'NONE', #658, #534, #605, .T. ) ;
#302 = DIRECTION ( 'NONE',  ( 0.000000000000000000, 0.000000000000000000, 1.000000000000000000 ) ) ;
#303 = CARTESIAN_POINT ( 'NONE',  ( 0.000000000000000000, 0.000000000000000000, 4.000000000000000000 ) ) ;
#304 = CARTESIAN_POINT ( 'NONE',  ( 6.505213034913029562E-16, -0.002355343461424994761, 1.999705582067319742 ) ) ;
#305 = PLANE ( 'NONE',  #8 ) ;
#306 = AXIS2_PLACEMENT_3D ( 'NONE', #238, #571, #470 ) ;
#307 = DIRECTION ( 'NONE',  ( 0.2499999999999970302, -0.4330127018922146909, -0.8660254037844418162 ) ) ;
#308 = EDGE_CURVE ( 'NONE', #511, #477, #227, .T. ) ;
#309 = LINE ( 'NONE', #460, #396 ) ;
#310 = ORIENTED_EDGE ( 'NONE', *, *, #577, .T. ) ;
#311 = FACE_OUTER_BOUND ( 'NONE', #231, .T. ) ;
#312 = CIRCLE ( 'NONE', #398, 2.000000000000000000 ) ;
#313 = CARTESIAN_POINT ( 'NONE',  ( 2.000000000000000000, 0.000000000000000000, -29.50000000000000000 ) ) ;
#314 = ADVANCED_FACE ( 'NONE', ( #278, #285 ), #657, .T. ) ;
#315 = ORIENTED_EDGE ( 'NONE', *, *, #308, .F. ) ;
#316 = DIRECTION ( 'NONE',  ( 0.000000000000000000, 0.000000000000000000, -1.000000000000000000 ) ) ;
#317 = LINE ( 'NONE', #528, #162 ) ;
#318 = PRESENTATION_LAYER_ASSIGNMENT (  '', '', ( #261 ) ) ;
#319 = ORIENTED_EDGE ( 'NONE', *, *, #193, .F. ) ;
#320 = PLANE ( 'NONE',  #556 ) ;
#321 = DIRECTION ( 'NONE',  ( 1.224646799147351975E-16, 1.000000000000000000, 0.000000000000000000 ) ) ;
#322 = VECTOR ( 'NONE', #385, 1000.000000000000000 ) ;
#323 = ADVANCED_FACE ( 'NONE', ( #173 ), #130, .F. ) ;
#324 = ORIENTED_EDGE ( 'NONE', *, *, #581, .F. ) ;
#325 = DIRECTION ( 'NONE',  ( 0.000000000000000000, -1.000000000000000000, 0.000000000000000000 ) ) ;
#326 = CARTESIAN_POINT ( 'NONE',  ( 0.000000000000000000, 0.000000000000000000, 0.000000000000000000 ) ) ;
#327 = AXIS2_PLACEMENT_3D ( 'NONE', #481, #40, #164 ) ;
#328 = VERTEX_POINT ( 'NONE', #601 ) ;
#329 = FACE_OUTER_BOUND ( 'NONE', #569, .T. ) ;
#330 = DIRECTION ( 'NONE',  ( 1.000000000000000000, 0.000000000000000000, 0.000000000000000000 ) ) ;
#331 = DIRECTION ( 'NONE',  ( 0.4999999999999985567, 6.259644161404744659E-17, -0.8660254037844394848 ) ) ;
#332 = VECTOR ( 'NONE', #377, 1000.000000000000000 ) ;
#333 = ORIENTED_EDGE ( 'NONE', *, *, #373, .T. ) ;
#334 = DIRECTION ( 'NONE',  ( 0.000000000000000000, 0.000000000000000000, -1.000000000000000000 ) ) ;
#335 = EDGE_CURVE ( 'NONE', #606, #369, #389, .T. ) ;
#336 = ORIENTED_EDGE ( 'NONE', *, *, #547, .T. ) ;
#337 = CARTESIAN_POINT ( 'NONE',  ( 0.001274867045145372090, 0.002208134495086990119, 2.000000000000000000 ) ) ;
#338 = ORIENTED_EDGE ( 'NONE', *, *, #498, .T. ) ;
#339 = VERTEX_POINT ( 'NONE', #546 ) ;
#340 = ORIENTED_EDGE ( 'NONE', *, *, #335, .T. ) ;
#341 = PLANE ( 'NONE',  #197 ) ;
#342 = EDGE_CURVE ( 'NONE', #83, #598, #607, .T. ) ;
#343 = AXIS2_PLACEMENT_3D ( 'NONE', #484, #710, #218 ) ;
#344 = MANIFOLD_SOLID_BREP ( 'NONE', #432 ) ;
#345 = VECTOR ( 'NONE', #517, 1000.000000000000000 ) ;
#346 = LINE ( 'NONE', #504, #345 ) ;
#347 = VERTEX_POINT ( 'NONE', #230 ) ;
#348 = DIRECTION ( 'NONE',  ( 0.000000000000000000, 0.000000000000000000, -1.000000000000000000 ) ) ;
#349 = CYLINDRICAL_SURFACE ( 'NONE', #296, 3.500000000000000000 ) ;
#350 = ADVANCED_FACE ( 'NONE', ( #7 ), #341, .F. ) ;
#351 = EDGE_CURVE ( 'NONE', #225, #339, #687, .T. ) ;
#352 = ORIENTED_EDGE ( 'NONE', *, *, #259, .F. ) ;
#353 = LINE ( 'NONE', #626, #522 ) ;
#354 = DIRECTION ( 'NONE',  ( 0.000000000000000000, 0.000000000000000000, 1.000000000000000000 ) ) ;
#355 = AXIS2_PLACEMENT_3D ( 'NONE', #63, #113, #284 ) ;
#356 = ORIENTED_EDGE ( 'NONE', *, *, #621, .T. ) ;
#357 = CARTESIAN_POINT ( 'NONE',  ( -1.500000000000000000, -0.8660254037844390407, 4.000000000000000000 ) ) ;
#358 = DIRECTION ( 'NONE',  ( 0.000000000000000000, 0.000000000000000000, 1.000000000000000000 ) ) ;
#359 = EDGE_CURVE ( 'NONE', #146, #511, #464, .T. ) ;
#360 = ADVANCED_FACE ( 'NONE', ( #560, #191 ), #199, .F. ) ;
#361 = EDGE_LOOP ( 'NONE', ( #468, #516 ) ) ;
#362 = VERTEX_POINT ( 'NONE', #564 ) ;
#363 = CARTESIAN_POINT ( 'NONE',  ( 1.144294201316464130E-16, 1.732050807568880080, 4.000000000000000000 ) ) ;
#364 = FACE_OUTER_BOUND ( 'NONE', #520, .T. ) ;
#365 = VERTEX_POINT ( 'NONE', #570 ) ;
#366 = ORIENTED_EDGE ( 'NONE', *, *, #279, .T. ) ;
#367 = CARTESIAN_POINT ( 'NONE',  ( 2.100000000000000089, 0.000000000000000000, -0.1000000000000000056 ) ) ;
#368 = CARTESIAN_POINT ( 'NONE',  ( 0.000000000000000000, 0.000000000000000000, 0.000000000000000000 ) ) ;
#369 = VERTEX_POINT ( 'NONE', #134 ) ;
#370 = DIRECTION ( 'NONE',  ( 1.224646799147353947E-16, 1.000000000000000000, 0.000000000000000000 ) ) ;
#371 = CARTESIAN_POINT ( 'NONE',  ( 1.144294201316464130E-16, 1.732050807568880080, 2.000000000000000000 ) ) ;
#372 = AXIS2_PLACEMENT_3D ( 'NONE', #303, #299, #401 ) ;
#373 = EDGE_CURVE ( 'NONE', #51, #477, #462, .T. ) ;
#374 = VECTOR ( 'NONE', #393, 1000.000000000000000 ) ;
#375 = EDGE_LOOP ( 'NONE', ( #639, #418 ) ) ;
#376 = CARTESIAN_POINT ( 'NONE',  ( 1.500000000000000000, 0.8660254037844390407, 2.864553314121035310 ) ) ;
#377 = DIRECTION ( 'NONE',  ( 0.000000000000000000, 0.000000000000000000, 1.000000000000000000 ) ) ;
#378 = EDGE_CURVE ( 'NONE', #339, #241, #513, .T. ) ;
#379 = ORIENTED_EDGE ( 'NONE', *, *, #455, .T. ) ;
#380 = CARTESIAN_POINT ( 'NONE',  ( 0.000000000000000000, 0.000000000000000000, -30.00000000000000000 ) ) ;
#381 = DIRECTION ( 'NONE',  ( 1.000000000000000000, 0.000000000000000000, 0.000000000000000000 ) ) ;
#382 = CIRCLE ( 'NONE', #519, 0.09999999999999982514 ) ;
#383 = VECTOR ( 'NONE', #412, 1000.000000000000114 ) ;
#384 = EDGE_LOOP ( 'NONE', ( #184, #428, #123, #578 ) ) ;
#385 = DIRECTION ( 'NONE',  ( -1.251928832280965695E-16, 1.000000000000000000, 0.000000000000000000 ) ) ;
#386 = EDGE_CURVE ( 'NONE', #511, #242, #76, .T. ) ;
#387 = CARTESIAN_POINT ( 'NONE',  ( 3.500000000000000000, 4.286263797015735609E-16, 0.000000000000000000 ) ) ;
#388 = EDGE_LOOP ( 'NONE', ( #266, #260, #537, #394, #97, #689 ) ) ;
#389 = LINE ( 'NONE', #549, #100 ) ;
#390 = CIRCLE ( 'NONE', #622, 3.500000000000000000 ) ;
#391 = DIRECTION ( 'NONE',  ( -1.000000000000000000, 0.000000000000000000, 0.000000000000000000 ) ) ;
#392 = FACE_OUTER_BOUND ( 'NONE', #486, .T. ) ;
#393 = DIRECTION ( 'NONE',  ( 0.000000000000000000, 0.000000000000000000, 1.000000000000000000 ) ) ;
#394 = ORIENTED_EDGE ( 'NONE', *, *, #69, .F. ) ;
#395 = CARTESIAN_POINT ( 'NONE',  ( 0.000000000000000000, 0.000000000000000000, 4.000000000000000000 ) ) ;
#396 = VECTOR ( 'NONE', #91, 1000.000000000000000 ) ;
#397 = FACE_OUTER_BOUND ( 'NONE', #361, .T. ) ;
#398 = AXIS2_PLACEMENT_3D ( 'NONE', #48, #52, #263 ) ;
#399 = EDGE_CURVE ( 'NONE', #83, #241, #16, .T. ) ;
#400 = CARTESIAN_POINT ( 'NONE',  ( 0.002549734090289875084, 0.001472089663391816083, 2.000000000000000000 ) ) ;
#401 = DIRECTION ( 'NONE',  ( 1.000000000000000000, 0.000000000000000000, 0.000000000000000000 ) ) ;
#402 = ORIENTED_EDGE ( 'NONE', *, *, #676, .T. ) ;
#403 = VECTOR ( 'NONE', #627, 1000.000000000000000 ) ;
#404 = DIRECTION ( 'NONE',  ( -1.000000000000000000, 0.000000000000000000, 0.000000000000000000 ) ) ;
#405 = CARTESIAN_POINT ( 'NONE',  ( -2.961538461538459899, 3.956551197245294712E-16, 4.000000000000000000 ) ) ;
#406 = VECTOR ( 'NONE', #19, 1000.000000000000000 ) ;
#407 = VERTEX_POINT ( 'NONE', #357 ) ;
#408 = CARTESIAN_POINT ( 'NONE',  ( 0.000000000000000000, 0.000000000000000000, -29.50000000000000000 ) ) ;
#409 = CARTESIAN_POINT ( 'NONE',  ( -0.001274867045144937976, 0.002208134495086240285, 2.000000000000000000 ) ) ;
#410 =( GEOMETRIC_REPRESENTATION_CONTEXT ( 3 ) GLOBAL_UNCERTAINTY_ASSIGNED_CONTEXT ( ( #74 ) ) GLOBAL_UNIT_ASSIGNED_CONTEXT ( ( #448, #222, #604 ) ) REPRESENTATION_CONTEXT ( 'NONE', 'WORKASPACE' ) );
#411 = AXIS2_PLACEMENT_3D ( 'NONE', #380, #593, #527 ) ;
#412 = DIRECTION ( 'NONE',  ( -0.7071067811865460184, 8.659560562354918067E-17, 0.7071067811865489050 ) ) ;
#413 = VECTOR ( 'NONE', #187, 1000.000000000000000 ) ;
#414 = EDGE_LOOP ( 'NONE', ( #128, #587, #529, #709 ) ) ;
#415 = ADVANCED_FACE ( 'NONE', ( #690 ), #248, .F. ) ;
#416 = ORIENTED_EDGE ( 'NONE', *, *, #466, .T. ) ;
#417 = CARTESIAN_POINT ( 'NONE',  ( -1.500000000000000000, 1.836970198721025250E-16, -30.00000000000000000 ) ) ;
#418 = ORIENTED_EDGE ( 'NONE', *, *, #174, .F. ) ;
#419 = VERTEX_POINT ( 'NONE', #295 ) ;
#420 = CARTESIAN_POINT ( 'NONE',  ( -0.002039787272232290033, 0.001177671730712509740, 1.999705582067319742 ) ) ;
#421 = AXIS2_PLACEMENT_3D ( 'NONE', #515, #458, #28 ) ;
#422 = AXIS2_PLACEMENT_3D ( 'NONE', #49, #331, #53 ) ;
#423 = DIRECTION ( 'NONE',  ( 1.000000000000000000, 0.000000000000000000, 0.000000000000000000 ) ) ;
#424 = ORIENTED_EDGE ( 'NONE', *, *, #594, .F. ) ;
#425 = CARTESIAN_POINT ( 'NONE',  ( 2.961538461538459899, 0.000000000000000000, 3.461538461538459899 ) ) ;
#426 = DIRECTION ( 'NONE',  ( 0.000000000000000000, 0.000000000000000000, 1.000000000000000000 ) ) ;
#427 = ADVANCED_FACE ( 'NONE', ( #141 ), #567, .F. ) ;
#428 = ORIENTED_EDGE ( 'NONE', *, *, #154, .F. ) ;
#429 = FACE_OUTER_BOUND ( 'NONE', #673, .T. ) ;
#430 = CARTESIAN_POINT ( 'NONE',  ( -1.500000000000000000, 0.8660254037844390407, 2.864553314121035310 ) ) ;
#431 = EDGE_CURVE ( 'NONE', #507, #146, #353, .T. ) ;
#432 = CLOSED_SHELL ( 'NONE', ( #109, #350, #608, #121, #415, #323, #234, #5, #271, #300, #703, #26, #427, #201, #294, #143, #643, #602, #314, #122, #360, #525, #660, #586, #126, #68 ) ) ;
#433 = VERTEX_POINT ( 'NONE', #629 ) ;
#434 = CARTESIAN_POINT ( 'NONE',  ( 0.000000000000000000, 0.000000000000000000, 4.000000000000000000 ) ) ;
#435 = CARTESIAN_POINT ( 'NONE',  ( 0.000000000000000000, 0.000000000000000000, 3.461538461538459899 ) ) ;
#436 = CARTESIAN_POINT ( 'NONE',  ( 2.100000000000000089, 0.000000000000000000, 3.049318610115480235E-16 ) ) ;
#437 = CARTESIAN_POINT ( 'NONE',  ( 0.000000000000000000, 0.000000000000000000, -0.1000000000000000056 ) ) ;
#438 = AXIS2_PLACEMENT_3D ( 'NONE', #656, #277, #334 ) ;
#439 = VECTOR ( 'NONE', #588, 1000.000000000000114 ) ;
#440 = ORIENTED_EDGE ( 'NONE', *, *, #56, .T. ) ;
#441 = ORIENTED_EDGE ( 'NONE', *, *, #386, .T. ) ;
#442 = CARTESIAN_POINT ( 'NONE',  ( 0.000000000000000000, 0.000000000000000000, 0.000000000000000000 ) ) ;
#443 = AXIS2_PLACEMENT_3D ( 'NONE', #395, #610, #120 ) ;
#444 = CARTESIAN_POINT ( 'NONE',  ( 0.000000000000000000, 0.000000000000000000, -30.00000000000000000 ) ) ;
#445 = SHAPE_DEFINITION_REPRESENTATION ( #42, #125 ) ;
#446 = CARTESIAN_POINT ( 'NONE',  ( 2.000000000000000000, 0.000000000000000000, -30.00000000000000000 ) ) ;
#447 = EDGE_CURVE ( 'NONE', #242, #190, #144, .T. ) ;
#448 =( LENGTH_UNIT ( ) NAMED_UNIT ( * ) SI_UNIT ( .MILLI., .METRE. ) );
#449 = DIRECTION ( 'NONE',  ( -0.4999999999999985567, 0.000000000000000000, -0.8660254037844394848 ) ) ;
#450 = ORIENTED_EDGE ( 'NONE', *, *, #692, .F. ) ;
#451 = EDGE_CURVE ( 'NONE', #242, #51, #298, .T. ) ;
#452 = ORIENTED_EDGE ( 'NONE', *, *, #378, .T. ) ;
#453 = CARTESIAN_POINT ( 'NONE',  ( -0.002549734090290199911, 0.000000000000000000, 2.000000000000000000 ) ) ;
#454 = ORIENTED_EDGE ( 'NONE', *, *, #547, .F. ) ;
#455 = EDGE_CURVE ( 'NONE', #369, #347, #346, .T. ) ;
#456 = ORIENTED_EDGE ( 'NONE', *, *, #46, .F. ) ;
#457 = CARTESIAN_POINT ( 'NONE',  ( 1.500000000000000000, 0.8660254037844390407, 2.000000000000000000 ) ) ;
#458 = DIRECTION ( 'NONE',  ( 0.000000000000000000, 0.000000000000000000, 1.000000000000000000 ) ) ;
#459 = CARTESIAN_POINT ( 'NONE',  ( 0.001274867045145045962, -0.002208134495086425033, 2.000000000000000000 ) ) ;
#460 = CARTESIAN_POINT ( 'NONE',  ( -0.001274867045144722003, -0.002208134495085865151, 2.000000000000000000 ) ) ;
#461 = ORIENTED_EDGE ( 'NONE', *, *, #255, .T. ) ;
#462 = LINE ( 'NONE', #681, #293 ) ;
#463 = CONICAL_SURFACE ( 'NONE', #682, 1.500000000000000000, 0.7853981633974461696 ) ;
#464 = LINE ( 'NONE', #239, #413 ) ;
#465 = DIRECTION ( 'NONE',  ( 0.000000000000000000, 0.000000000000000000, 1.000000000000000000 ) ) ;
#466 = EDGE_CURVE ( 'NONE', #658, #433, #34, .T. ) ;
#467 = CIRCLE ( 'NONE', #252, 2.961538461538459899 ) ;
#468 = ORIENTED_EDGE ( 'NONE', *, *, #351, .T. ) ;
#469 = VECTOR ( 'NONE', #152, 1000.000000000000000 ) ;
#470 = DIRECTION ( 'NONE',  ( 1.000000000000000000, 0.000000000000000000, 0.000000000000000000 ) ) ;
#471 = ORIENTED_EDGE ( 'NONE', *, *, #69, .T. ) ;
#472 = DIRECTION ( 'NONE',  ( 0.000000000000000000, 0.000000000000000000, -1.000000000000000000 ) ) ;
#473 = DIRECTION ( 'NONE',  ( 0.000000000000000000, 0.000000000000000000, -1.000000000000000000 ) ) ;
#474 = ORIENTED_EDGE ( 'NONE', *, *, #577, .F. ) ;
#475 = DIRECTION ( 'NONE',  ( 0.000000000000000000, 0.000000000000000000, 1.000000000000000000 ) ) ;
#476 = LINE ( 'NONE', #157, #551 ) ;
#477 = VERTEX_POINT ( 'NONE', #20 ) ;
#478 = CARTESIAN_POINT ( 'NONE',  ( 0.000000000000000000, 0.000000000000000000, -30.00000000000000000 ) ) ;
#479 = DIRECTION ( 'NONE',  ( 0.000000000000000000, 0.000000000000000000, 1.000000000000000000 ) ) ;
#480 = ORIENTED_EDGE ( 'NONE', *, *, #431, .F. ) ;
#481 = CARTESIAN_POINT ( 'NONE',  ( 0.000000000000000000, 0.000000000000000000, 4.000000000000000000 ) ) ;
#482 = DIRECTION ( 'NONE',  ( -0.8660254037844387076, 0.4999999999999998890, 0.000000000000000000 ) ) ;
#483 = ORIENTED_EDGE ( 'NONE', *, *, #399, .F. ) ;
#484 = CARTESIAN_POINT ( 'NONE',  ( -0.001274867045144722003, -0.002208134495085865151, 2.000000000000000000 ) ) ;
#485 = PLANE ( 'NONE',  #422 ) ;
#486 = EDGE_LOOP ( 'NONE', ( #70, #133, #669, #282 ) ) ;
#487 = APPLICATION_PROTOCOL_DEFINITION ( 'draft international standard', 'automotive_design', 1998, #543 ) ;
#488 = SURFACE_SIDE_STYLE ('',( #555 ) ) ;
#489 = UNCERTAINTY_MEASURE_WITH_UNIT (LENGTH_MEASURE( 1.000000000000000082E-05 ), #552, 'distance_accuracy_value', 'NONE');
#490 = ORIENTED_EDGE ( 'NONE', *, *, #351, .F. ) ;
#491 = CARTESIAN_POINT ( 'NONE',  ( 0.002549734090289875084, 3.192085622283575127E-19, 2.000000000000000000 ) ) ;
#492 = CARTESIAN_POINT ( 'NONE',  ( 0.000000000000000000, 0.000000000000000000, -30.00000000000000000 ) ) ;
#493 = AXIS2_PLACEMENT_3D ( 'NONE', #200, #465, #630 ) ;
#494 = DIRECTION ( 'NONE',  ( 1.000000000000000000, 0.000000000000000000, 0.000000000000000000 ) ) ;
#495 = MECHANICAL_DESIGN_GEOMETRIC_PRESENTATION_REPRESENTATION (  '', ( #261 ), #650 ) ;
#496 = PRESENTATION_STYLE_ASSIGNMENT (( #117 ) ) ;
#497 = EDGE_LOOP ( 'NONE', ( #80, #10, #170, #324 ) ) ;
#498 = EDGE_CURVE ( 'NONE', #190, #183, #509, .T. ) ;
#499 = VECTOR ( 'NONE', #634, 1000.000000000000114 ) ;
#500 = VERTEX_POINT ( 'NONE', #185 ) ;
#501 = VECTOR ( 'NONE', #27, 1000.000000000000000 ) ;
#502 = ORIENTED_EDGE ( 'NONE', *, *, #676, .F. ) ;
#503 = DIRECTION ( 'NONE',  ( -0.8660254037844387076, 0.4999999999999998890, 0.000000000000000000 ) ) ;
#504 = CARTESIAN_POINT ( 'NONE',  ( -0.002549734090290199911, 0.000000000000000000, 2.000000000000000000 ) ) ;
#505 = AXIS2_PLACEMENT_3D ( 'NONE', #326, #479, #209 ) ;
#506 = CARTESIAN_POINT ( 'NONE',  ( -1.500000000000000000, -0.8660254037844390407, 2.864553314121035310 ) ) ;
#507 = VERTEX_POINT ( 'NONE', #400 ) ;
#508 = ORIENTED_EDGE ( 'NONE', *, *, #554, .T. ) ;
#509 = LINE ( 'NONE', #237, #73 ) ;
#510 = LINE ( 'NONE', #561, #149 ) ;
#511 = VERTEX_POINT ( 'NONE', #615 ) ;
#512 = EDGE_CURVE ( 'NONE', #242, #533, #244, .T. ) ;
#513 = LINE ( 'NONE', #417, #383 ) ;
#514 = EDGE_CURVE ( 'NONE', #534, #146, #156, .T. ) ;
#515 = CARTESIAN_POINT ( 'NONE',  ( 0.000000000000000000, 0.000000000000000000, -0.1000000000000000056 ) ) ;
#516 = ORIENTED_EDGE ( 'NONE', *, *, #594, .T. ) ;
#517 = DIRECTION ( 'NONE',  ( 0.000000000000000000, -1.000000000000000000, 0.000000000000000000 ) ) ;
#518 = EDGE_LOOP ( 'NONE', ( #269, #490, #336, #206 ) ) ;
#519 = AXIS2_PLACEMENT_3D ( 'NONE', #267, #370, #531 ) ;
#520 = EDGE_LOOP ( 'NONE', ( #352, #198, #118, #474 ) ) ;
#521 = LINE ( 'NONE', #257, #36 ) ;
#522 = VECTOR ( 'NONE', #675, 1000.000000000000000 ) ;
#523 = FACE_OUTER_BOUND ( 'NONE', #17, .T. ) ;
#524 = EDGE_CURVE ( 'NONE', #146, #362, #270, .T. ) ;
#525 = ADVANCED_FACE ( 'NONE', ( #208 ), #160, .T. ) ;
#526 = ORIENTED_EDGE ( 'NONE', *, *, #620, .T. ) ;
#527 = DIRECTION ( 'NONE',  ( -1.000000000000000000, 0.000000000000000000, 0.000000000000000000 ) ) ;
#528 = CARTESIAN_POINT ( 'NONE',  ( -0.002039787272232460036, -0.001177671730712107935, 1.999705582067319742 ) ) ;
#529 = ORIENTED_EDGE ( 'NONE', *, *, #46, .T. ) ;
#530 = ORIENTED_EDGE ( 'NONE', *, *, #386, .F. ) ;
#531 = DIRECTION ( 'NONE',  ( -1.000000000000000000, 1.224646799147358384E-16, 0.000000000000000000 ) ) ;
#532 = CARTESIAN_POINT ( 'NONE',  ( 1.500000000000000000, 0.000000000000000000, -30.00000000000000000 ) ) ;
#533 = VERTEX_POINT ( 'NONE', #535 ) ;
#534 = VERTEX_POINT ( 'NONE', #211 ) ;
#535 = CARTESIAN_POINT ( 'NONE',  ( -1.500000000000000000, -0.8660254037844390407, 2.864553314121035310 ) ) ;
#536 = CARTESIAN_POINT ( 'NONE',  ( -2.961538461538459899, 3.626838597474854307E-16, 3.461538461538459899 ) ) ;
#537 = ORIENTED_EDGE ( 'NONE', *, *, #22, .F. ) ;
#538 = PLANE ( 'NONE',  #343 ) ;
#539 = LINE ( 'NONE', #430, #150 ) ;
#540 = AXIS2_PLACEMENT_3D ( 'NONE', #435, #169, #381 ) ;
#541 = AXIS2_PLACEMENT_3D ( 'NONE', #371, #275, #153 ) ;
#542 = CARTESIAN_POINT ( 'NONE',  ( 1.500000000000000000, -0.8660254037844390407, 2.000000000000000000 ) ) ;
#543 = APPLICATION_CONTEXT ( 'automotive_design' ) ;
#544 = ORIENTED_EDGE ( 'NONE', *, *, #566, .F. ) ;
#545 = DIRECTION ( 'NONE',  ( -4.873191989609207426E-16, 0.8944271909999185199, 0.4472135954999527652 ) ) ;
#546 = CARTESIAN_POINT ( 'NONE',  ( -1.500000000000000000, 2.143131898507865093E-16, -30.00000000000000000 ) ) ;
#547 = EDGE_CURVE ( 'NONE', #225, #83, #98, .T. ) ;
#548 = CARTESIAN_POINT ( 'NONE',  ( 0.000000000000000000, 0.000000000000000000, -0.1000000000000000056 ) ) ;
#549 = CARTESIAN_POINT ( 'NONE',  ( -0.001274867045144963996, 0.002208134495086284954, 2.000000000000000000 ) ) ;
#550 = EDGE_CURVE ( 'NONE', #241, #83, #312, .T. ) ;
#551 = VECTOR ( 'NONE', #638, 999.9999999999998863 ) ;
#552 =( LENGTH_UNIT ( ) NAMED_UNIT ( * ) SI_UNIT ( .MILLI., .METRE. ) );
#553 = DIRECTION ( 'NONE',  ( 0.000000000000000000, 0.000000000000000000, 1.000000000000000000 ) ) ;
#554 = EDGE_CURVE ( 'NONE', #534, #419, #637, .T. ) ;
#555 = SURFACE_STYLE_FILL_AREA ( #290 ) ;
#556 = AXIS2_PLACEMENT_3D ( 'NONE', #698, #640, #707 ) ;
#557 = AXIS2_PLACEMENT_3D ( 'NONE', #459, #307, #81 ) ;
#558 = CARTESIAN_POINT ( 'NONE',  ( -1.500000000000000000, 0.8660254037844390407, 2.000000000000000000 ) ) ;
#559 = ORIENTED_EDGE ( 'NONE', *, *, #207, .F. ) ;
#560 = FACE_BOUND ( 'NONE', #30, .T. ) ;
#561 = CARTESIAN_POINT ( 'NONE',  ( -1.500000000000000000, 0.8660254037844390407, 4.000000000000000000 ) ) ;
#562 = AXIS2_PLACEMENT_3D ( 'NONE', #548, #14, #228 ) ;
#563 = ORIENTED_EDGE ( 'NONE', *, *, #181, .T. ) ;
#564 = CARTESIAN_POINT ( 'NONE',  ( 1.500000000000000000, 0.8660254037844390407, 4.000000000000000000 ) ) ;
#565 = CARTESIAN_POINT ( 'NONE',  ( 1.129916623503601953E-16, -1.732050807568880080, 4.000000000000000000 ) ) ;
#566 = EDGE_CURVE ( 'NONE', #155, #39, #382, .T. ) ;
#567 = PLANE ( 'NONE',  #254 ) ;
#568 = CARTESIAN_POINT ( 'NONE',  ( 0.000000000000000000, 0.000000000000000000, -0.1000000000000000056 ) ) ;
#569 = EDGE_LOOP ( 'NONE', ( #693, #43, #188, #163 ) ) ;
#570 = CARTESIAN_POINT ( 'NONE',  ( -3.500000000000000000, 0.000000000000000000, 0.000000000000000000 ) ) ;
#571 = DIRECTION ( 'NONE',  ( 0.000000000000000000, 0.000000000000000000, 1.000000000000000000 ) ) ;
#572 = CIRCLE ( 'NONE', #540, 3.500000000000000000 ) ;
#573 = ORIENTED_EDGE ( 'NONE', *, *, #174, .T. ) ;
#574 = DIRECTION ( 'NONE',  ( 0.000000000000000000, -1.000000000000000000, 0.000000000000000000 ) ) ;
#575 = EDGE_CURVE ( 'NONE', #500, #132, #467, .T. ) ;
#576 = DIRECTION ( 'NONE',  ( 0.8660254037844387076, -0.4999999999999998890, 0.000000000000000000 ) ) ;
#577 = EDGE_CURVE ( 'NONE', #609, #598, #220, .T. ) ;
#578 = ORIENTED_EDGE ( 'NONE', *, *, #59, .F. ) ;
#579 = DIRECTION ( 'NONE',  ( 0.000000000000000000, 0.000000000000000000, -1.000000000000000000 ) ) ;
#580 = DIRECTION ( 'NONE',  ( 0.000000000000000000, 0.000000000000000000, 1.000000000000000000 ) ) ;
#581 = EDGE_CURVE ( 'NONE', #700, #500, #647, .T. ) ;
#582 = ORIENTED_EDGE ( 'NONE', *, *, #289, .F. ) ;
#583 = DIRECTION ( 'NONE',  ( 0.000000000000000000, 0.000000000000000000, 1.000000000000000000 ) ) ;
#584 = LINE ( 'NONE', #45, #116 ) ;
#585 = AXIS2_PLACEMENT_3D ( 'NONE', #337, #15, #233 ) ;
#586 = ADVANCED_FACE ( 'NONE', ( #429 ), #166, .T. ) ;
#587 = ORIENTED_EDGE ( 'NONE', *, *, #154, .T. ) ;
#588 = DIRECTION ( 'NONE',  ( 0.7071067811865460184, 0.000000000000000000, 0.7071067811865489050 ) ) ;
#589 = CARTESIAN_POINT ( 'NONE',  ( 1.129916623503601953E-16, -1.732050807568880080, 2.864553314121035310 ) ) ;
#590 = PRODUCT_DEFINITION_FORMATION_WITH_SPECIFIED_SOURCE ( 'å¯', '', #672, .NOT_KNOWN. ) ;
#591 = AXIS2_PLACEMENT_3D ( 'NONE', #67, #662, #292 ) ;
#592 = ORIENTED_EDGE ( 'NONE', *, *, #56, .F. ) ;
#593 = DIRECTION ( 'NONE',  ( 0.000000000000000000, 0.000000000000000000, -1.000000000000000000 ) ) ;
#594 = EDGE_CURVE ( 'NONE', #339, #225, #92, .T. ) ;
#595 = CARTESIAN_POINT ( 'NONE',  ( 0.000000000000000000, 0.000000000000000000, -30.00000000000000000 ) ) ;
#596 = CYLINDRICAL_SURFACE ( 'NONE', #13, 2.000000000000000000 ) ;
#597 = DIRECTION ( 'NONE',  ( -1.000000000000000000, 1.224646799147351975E-16, 0.000000000000000000 ) ) ;
#598 = VERTEX_POINT ( 'NONE', #44 ) ;
#599 = TOROIDAL_SURFACE ( 'NONE', #421, 2.100000000000000089, 0.1000000000000000056 ) ;
#600 = CIRCLE ( 'NONE', #297, 2.000000000000000000 ) ;
#601 = CARTESIAN_POINT ( 'NONE',  ( -3.500000000000000000, 0.000000000000000000, 3.461538461538459899 ) ) ;
#602 = ADVANCED_FACE ( 'NONE', ( #311 ), #320, .F. ) ;
#603 = ORIENTED_EDGE ( 'NONE', *, *, #664, .T. ) ;
#604 =( NAMED_UNIT ( * ) SI_UNIT ( $, .STERADIAN. ) SOLID_ANGLE_UNIT ( ) );
#605 = LINE ( 'NONE', #58, #406 ) ;
#606 = VERTEX_POINT ( 'NONE', #215 ) ;
#607 = LINE ( 'NONE', #446, #374 ) ;
#608 = ADVANCED_FACE ( 'NONE', ( #329 ), #538, .F. ) ;
#609 = VERTEX_POINT ( 'NONE', #436 ) ;
#610 = DIRECTION ( 'NONE',  ( 0.000000000000000000, 0.000000000000000000, 1.000000000000000000 ) ) ;
#611 = TOROIDAL_SURFACE ( 'NONE', #631, 2.961538461538459899, 0.5384615384615379918 ) ;
#612 = DIRECTION ( 'NONE',  ( 0.000000000000000000, 0.000000000000000000, -1.000000000000000000 ) ) ;
#613 = VECTOR ( 'NONE', #475, 1000.000000000000000 ) ;
#614 = VECTOR ( 'NONE', #85, 999.9999999999998863 ) ;
#615 = CARTESIAN_POINT ( 'NONE',  ( 1.500000000000000000, -0.8660254037844390407, 2.864553314121035310 ) ) ;
#616 = DIRECTION ( 'NONE',  ( -0.2499999999999969469, 0.4330127018922145798, -0.8660254037844420383 ) ) ;
#617 = ORIENTED_EDGE ( 'NONE', *, *, #289, .T. ) ;
#618 = CARTESIAN_POINT ( 'NONE',  ( 1.129916623503601953E-16, -1.732050807568880080, 2.864553314121035310 ) ) ;
#619 = COLOUR_RGB ( '',0.7921568627450980005, 0.8196078431372548767, 0.9333333333333333481 ) ;
#620 = EDGE_CURVE ( 'NONE', #419, #433, #147, .T. ) ;
#621 = EDGE_CURVE ( 'NONE', #700, #172, #521, .T. ) ;
#622 = AXIS2_PLACEMENT_3D ( 'NONE', #442, #176, #494 ) ;
#623 = DIRECTION ( 'NONE',  ( 0.000000000000000000, 0.000000000000000000, 1.000000000000000000 ) ) ;
#624 = FACE_OUTER_BOUND ( 'NONE', #497, .T. ) ;
#625 = VECTOR ( 'NONE', #695, 1000.000000000000000 ) ;
#626 = CARTESIAN_POINT ( 'NONE',  ( 0.002039787272232070157, 0.001177671730713759825, 1.999705582067319742 ) ) ;
#627 = DIRECTION ( 'NONE',  ( 0.000000000000000000, 0.000000000000000000, -1.000000000000000000 ) ) ;
#628 = ORIENTED_EDGE ( 'NONE', *, *, #633, .F. ) ;
#629 = CARTESIAN_POINT ( 'NONE',  ( -1.500000000000000000, 0.8660254037844390407, 4.000000000000000000 ) ) ;
#630 = DIRECTION ( 'NONE',  ( 1.000000000000000000, 0.000000000000000000, 0.000000000000000000 ) ) ;
#631 = AXIS2_PLACEMENT_3D ( 'NONE', #142, #358, #330 ) ;
#632 = EDGE_LOOP ( 'NONE', ( #96, #706, #508, #526 ) ) ;
#633 = EDGE_CURVE ( 'NONE', #369, #658, #203, .T. ) ;
#634 = DIRECTION ( 'NONE',  ( -0.7745966692414852917, 0.4472135954999597041, 0.4472135954999527097 ) ) ;
#635 = CARTESIAN_POINT ( 'NONE',  ( 1.500000000000000000, 0.8660254037844390407, 2.864553314121035310 ) ) ;
#636 = ORIENTED_EDGE ( 'NONE', *, *, #59, .T. ) ;
#637 = LINE ( 'NONE', #274, #613 ) ;
#638 = DIRECTION ( 'NONE',  ( -0.7745966692414858468, 0.4472135954999593710, -0.4472135954999523766 ) ) ;
#639 = ORIENTED_EDGE ( 'NONE', *, *, #674, .F. ) ;
#640 = DIRECTION ( 'NONE',  ( 1.000000000000000000, 1.251928832280965695E-16, 0.000000000000000000 ) ) ;
#641 = DIRECTION ( 'NONE',  ( 0.000000000000000000, 1.000000000000000000, 0.000000000000000000 ) ) ;
#642 = CIRCLE ( 'NONE', #189, 3.500000000000000000 ) ;
#643 = ADVANCED_FACE ( 'NONE', ( #649 ), #11, .F. ) ;
#644 = ORIENTED_EDGE ( 'NONE', *, *, #692, .T. ) ;
#645 = DIRECTION ( 'NONE',  ( 1.000000000000000000, 0.000000000000000000, 0.000000000000000000 ) ) ;
#646 = DIRECTION ( 'NONE',  ( 1.000000000000000000, 0.000000000000000000, 0.000000000000000000 ) ) ;
#647 = CIRCLE ( 'NONE', #291, 0.5384615384615379918 ) ;
#648 = ORIENTED_EDGE ( 'NONE', *, *, #524, .T. ) ;
#649 = FACE_OUTER_BOUND ( 'NONE', #89, .T. ) ;
#650 =( GEOMETRIC_REPRESENTATION_CONTEXT ( 3 ) GLOBAL_UNCERTAINTY_ASSIGNED_CONTEXT ( ( #489 ) ) GLOBAL_UNIT_ASSIGNED_CONTEXT ( ( #552, #62, #4 ) ) REPRESENTATION_CONTEXT ( 'NONE', 'WORKASPACE' ) );
#651 = CARTESIAN_POINT ( 'NONE',  ( -1.500000000000000000, -0.8660254037844390407, 2.000000000000000000 ) ) ;
#652 = ORIENTED_EDGE ( 'NONE', *, *, #359, .T. ) ;
#653 = DIRECTION ( 'NONE',  ( -0.8660254037844394848, 0.000000000000000000, 0.4999999999999985567 ) ) ;
#654 = CIRCLE ( 'NONE', #286, 2.100000000000000089 ) ;
#655 = EDGE_LOOP ( 'NONE', ( #617, #661, #6, #530 ) ) ;
#656 = CARTESIAN_POINT ( 'NONE',  ( 1.129916623503601953E-16, -1.732050807568880080, 2.000000000000000000 ) ) ;
#657 = PLANE ( 'NONE',  #443 ) ;
#658 = VERTEX_POINT ( 'NONE', #659 ) ;
#659 = CARTESIAN_POINT ( 'NONE',  ( -1.500000000000000000, 0.8660254037844390407, 2.864553314121035310 ) ) ;
#660 = ADVANCED_FACE ( 'NONE', ( #71 ), #168, .T. ) ;
#661 = ORIENTED_EDGE ( 'NONE', *, *, #498, .F. ) ;
#662 = DIRECTION ( 'NONE',  ( 0.000000000000000000, 0.000000000000000000, 1.000000000000000000 ) ) ;
#663 = PLANE ( 'NONE',  #224 ) ;
#664 = EDGE_CURVE ( 'NONE', #606, #534, #179, .T. ) ;
#665 = PRODUCT_RELATED_PRODUCT_CATEGORY ( 'part', '', ( #672 ) ) ;
#666 = DIRECTION ( 'NONE',  ( 0.000000000000000000, -1.000000000000000000, 0.000000000000000000 ) ) ;
#667 = PRODUCT_DEFINITION_CONTEXT ( 'detailed design', #111, 'design' ) ;
#668 = ORIENTED_EDGE ( 'NONE', *, *, #451, .T. ) ;
#669 = ORIENTED_EDGE ( 'NONE', *, *, #342, .T. ) ;
#670 = DIRECTION ( 'NONE',  ( 0.8660254037844387076, 0.4999999999999998890, 0.000000000000000000 ) ) ;
#671 = CARTESIAN_POINT ( 'NONE',  ( 1.500000000000000000, -0.8660254037844390407, 4.000000000000000000 ) ) ;
#672 = PRODUCT ( '\X2\5185516d89d2570667f1593487ba9489\X0\ M4x30A', '\X2\5185516d89d2570667f1593487ba9489\X0\ M4x30A', '', ( #3 ) ) ;
#673 = EDGE_LOOP ( 'NONE', ( #424, #452, #483, #454 ) ) ;
#674 = EDGE_CURVE ( 'NONE', #365, #172, #390, .T. ) ;
#675 = DIRECTION ( 'NONE',  ( 0.7745966692414857357, 0.4472135954999588159, 0.4472135954999528207 ) ) ;
#676 = EDGE_CURVE ( 'NONE', #507, #606, #127, .T. ) ;
#677 = LINE ( 'NONE', #691, #403 ) ;
#678 = CIRCLE ( 'NONE', #372, 2.961538461538459899 ) ;
#679 = ORIENTED_EDGE ( 'NONE', *, *, #455, .F. ) ;
#680 = EDGE_LOOP ( 'NONE', ( #145, #319, #366, #679 ) ) ;
#681 = CARTESIAN_POINT ( 'NONE',  ( 1.129916623503601953E-16, -1.732050807568880080, 4.000000000000000000 ) ) ;
#682 = AXIS2_PLACEMENT_3D ( 'NONE', #595, #426, #110 ) ;
#683 = CARTESIAN_POINT ( 'NONE',  ( -2.000000000000000000, 2.449293598294704935E-16, -0.1000000000000000056 ) ) ;
#684 = DIRECTION ( 'NONE',  ( 1.000000000000000000, 0.000000000000000000, 0.000000000000000000 ) ) ;
#685 = DIRECTION ( 'NONE',  ( -1.000000000000000000, 0.000000000000000000, 0.000000000000000000 ) ) ;
#686 = EDGE_CURVE ( 'NONE', #598, #39, #79, .T. ) ;
#687 = CIRCLE ( 'NONE', #131, 1.500000000000000000 ) ;
#688 = ORIENTED_EDGE ( 'NONE', *, *, #554, .F. ) ;
#689 = ORIENTED_EDGE ( 'NONE', *, *, #243, .F. ) ;
#690 = FACE_OUTER_BOUND ( 'NONE', #655, .T. ) ;
#691 = CARTESIAN_POINT ( 'NONE',  ( -3.500000000000000000, 0.000000000000000000, 4.000000000000000000 ) ) ;
#692 = EDGE_CURVE ( 'NONE', #183, #507, #119, .T. ) ;
#693 = ORIENTED_EDGE ( 'NONE', *, *, #447, .T. ) ;
#694 = EDGE_LOOP ( 'NONE', ( #461, #356, #573, #456 ) ) ;
#695 = DIRECTION ( 'NONE',  ( 0.8660254037844387076, -0.4999999999999998890, 0.000000000000000000 ) ) ;
#696 = CARTESIAN_POINT ( 'NONE',  ( -2.000000000000000000, 2.449293598294704935E-16, -29.50000000000000000 ) ) ;
#697 = EDGE_LOOP ( 'NONE', ( #603, #2, #628, #29 ) ) ;
#698 = CARTESIAN_POINT ( 'NONE',  ( 1.500000000000000000, -0.8660254037844390407, 2.000000000000000000 ) ) ;
#699 = PLANE ( 'NONE',  #541 ) ;
#700 = VERTEX_POINT ( 'NONE', #288 ) ;
#701 = EDGE_LOOP ( 'NONE', ( #688, #178, #648, #210 ) ) ;
#702 = DIRECTION ( 'NONE',  ( 1.000000000000000000, 0.000000000000000000, 0.000000000000000000 ) ) ;
#703 = ADVANCED_FACE ( 'NONE', ( #392 ), #596, .T. ) ;
#704 = DIRECTION ( 'NONE',  ( 0.000000000000000000, 0.000000000000000000, 1.000000000000000000 ) ) ;
#705 = ORIENTED_EDGE ( 'NONE', *, *, #359, .F. ) ;
#706 = ORIENTED_EDGE ( 'NONE', *, *, #301, .T. ) ;
#707 = DIRECTION ( 'NONE',  ( -1.251928832280965695E-16, 1.000000000000000000, 0.000000000000000000 ) ) ;
#708 = CARTESIAN_POINT ( 'NONE',  ( 0.000000000000000000, 0.000000000000000000, 3.461538461538459899 ) ) ;
#709 = ORIENTED_EDGE ( 'NONE', *, *, #674, .T. ) ;
#710 = DIRECTION ( 'NONE',  ( -0.2499999999999975020, -0.4330127018922142468, -0.8660254037844420383 ) ) ;
#711 = DIRECTION ( 'NONE',  ( 0.7745966692414851806, 0.4472135954999595930, -0.4472135954999530982 ) ) ;
ENDSEC;
END-ISO-10303-21;
