ISO-10303-21;
HEADER;
FILE_DESCRIPTION (( 'STEP AP214' ),
    '1' );
FILE_NAME ('ÄÚÁù½ÇÆ½Ô²Í·ÂÝ¶¤ M3x14A.STEP',
    '2026-08-16T17:27:00',
    ( '' ),
    ( '' ),
    'SwSTEP 2.0',
    'SolidWorks 2025',
    '' );
FILE_SCHEMA (( 'AUTOMOTIVE_DESIGN' ));
ENDSEC;

DATA;
#1 = ORIENTED_EDGE ( 'NONE', *, *, #550, .F. ) ;
#2 = CARTESIAN_POINT ( 'NONE',  ( -0.001699822726860350042, -0.0009813931089275469959, 0.4000000000000000222 ) ) ;
#3 = ADVANCED_FACE ( 'NONE', ( #418 ), #166, .F. ) ;
#4 = ORIENTED_EDGE ( 'NONE', *, *, #94, .F. ) ;
#5 = DIRECTION ( 'NONE',  ( 0.4999999999999998890, -0.8660254037844387076, 0.000000000000000000 ) ) ;
#6 = CIRCLE ( 'NONE', #428, 1.500000000000000000 ) ;
#7 = EDGE_LOOP ( 'NONE', ( #623, #338, #604, #351 ) ) ;
#8 =( LENGTH_UNIT ( ) NAMED_UNIT ( * ) SI_UNIT ( .MILLI., .METRE. ) );
#9 = LINE ( 'NONE', #308, #305 ) ;
#10 = DIRECTION ( 'NONE',  ( 1.000000000000000000, 0.000000000000000000, 0.000000000000000000 ) ) ;
#11 = ORIENTED_EDGE ( 'NONE', *, *, #564, .F. ) ;
#12 = CARTESIAN_POINT ( 'NONE',  ( 0.0008499113634302569867, 0.001472089663391341853, 0.4000000000000000222 ) ) ;
#13 = DIRECTION ( 'NONE',  ( 2.293266818639624820E-16, 0.8944271909999178538, 0.4472135954999539864 ) ) ;
#14 = AXIS2_PLACEMENT_3D ( 'NONE', #432, #119, #582 ) ;
#15 = EDGE_CURVE ( 'NONE', #318, #25, #519, .T. ) ;
#16 = EDGE_LOOP ( 'NONE', ( #465, #301, #454, #234 ) ) ;
#17 = DIRECTION ( 'NONE',  ( 0.000000000000000000, 0.000000000000000000, -1.000000000000000000 ) ) ;
#18 = CARTESIAN_POINT ( 'NONE',  ( 0.000000000000000000, 0.000000000000000000, 0.000000000000000000 ) ) ;
#19 = AXIS2_PLACEMENT_3D ( 'NONE', #60, #613, #413 ) ;
#20 = EDGE_LOOP ( 'NONE', ( #531, #347, #65, #602 ) ) ;
#21 = ADVANCED_FACE ( 'NONE', ( #471 ), #257, .F. ) ;
#22 = CARTESIAN_POINT ( 'NONE',  ( 1.500000000000000000, 0.000000000000000000, -14.00000000000000000 ) ) ;
#23 = DIRECTION ( 'NONE',  ( 0.000000000000000000, 0.000000000000000000, 1.000000000000000000 ) ) ;
#24 = CIRCLE ( 'NONE', #651, 1.400000000000000133 ) ;
#25 = VERTEX_POINT ( 'NONE', #169 ) ;
#26 = DIRECTION ( 'NONE',  ( 0.000000000000000000, 0.000000000000000000, 1.000000000000000000 ) ) ;
#27 = VECTOR ( 'NONE', #566, 1000.000000000000000 ) ;
#28 = VERTEX_POINT ( 'NONE', #280 ) ;
#29 = LINE ( 'NONE', #379, #111 ) ;
#30 = PLANE ( 'NONE',  #211 ) ;
#31 = ADVANCED_BREP_SHAPE_REPRESENTATION ( '\X2\5185516d89d25e735706593487ba9489\X0\ M3x14A', ( #252, #592 ), #158 ) ;
#32 = EDGE_LOOP ( 'NONE', ( #646, #542 ) ) ;
#33 = ORIENTED_EDGE ( 'NONE', *, *, #473, .F. ) ;
#34 = DIRECTION ( 'NONE',  ( 0.000000000000000000, -1.000000000000000000, 0.000000000000000000 ) ) ;
#35 = CARTESIAN_POINT ( 'NONE',  ( 0.000000000000000000, 0.000000000000000000, -0.1000000000000000056 ) ) ;
#36 = ORIENTED_EDGE ( 'NONE', *, *, #175, .T. ) ;
#37 = CARTESIAN_POINT ( 'NONE',  ( -1.000000000000000000, 0.5773502691896260641, 0.9763688760806910061 ) ) ;
#38 = LINE ( 'NONE', #404, #210 ) ;
#39 = ORIENTED_EDGE ( 'NONE', *, *, #253, .F. ) ;
#40 = DIRECTION ( 'NONE',  ( 0.000000000000000000, 0.000000000000000000, 1.000000000000000000 ) ) ;
#41 = CARTESIAN_POINT ( 'NONE',  ( 4.677021866404049821E-16, -1.154700538379252128, 1.399999999999999911 ) ) ;
#42 = EDGE_LOOP ( 'NONE', ( #250, #217, #204, #52 ) ) ;
#43 = ORIENTED_EDGE ( 'NONE', *, *, #163, .F. ) ;
#44 = CARTESIAN_POINT ( 'NONE',  ( 0.000000000000000000, 0.000000000000000000, -0.1000000000000000056 ) ) ;
#45 = LINE ( 'NONE', #400, #396 ) ;
#46 = LINE ( 'NONE', #355, #567 ) ;
#47 = EDGE_CURVE ( 'NONE', #561, #57, #6, .T. ) ;
#48 = CIRCLE ( 'NONE', #78, 2.850000000000000089 ) ;
#49 = VECTOR ( 'NONE', #452, 1000.000000000000000 ) ;
#50 = CARTESIAN_POINT ( 'NONE',  ( 4.677021866404049821E-16, -1.154700538379252128, 0.4000000000000000222 ) ) ;
#51 = ADVANCED_FACE ( 'NONE', ( #423 ), #194, .T. ) ;
#52 = ORIENTED_EDGE ( 'NONE', *, *, #123, .F. ) ;
#53 = FACE_OUTER_BOUND ( 'NONE', #493, .T. ) ;
#54 = CIRCLE ( 'NONE', #161, 1.600000000000000089 ) ;
#55 = PLANE ( 'NONE',  #660 ) ;
#56 = VECTOR ( 'NONE', #277, 999.9999999999998863 ) ;
#57 = VERTEX_POINT ( 'NONE', #117 ) ;
#58 = CARTESIAN_POINT ( 'NONE',  ( 0.000000000000000000, 0.000000000000000000, 0.000000000000000000 ) ) ;
#59 = EDGE_CURVE ( 'NONE', #517, #408, #320, .T. ) ;
#60 = CARTESIAN_POINT ( 'NONE',  ( 0.000000000000000000, 0.000000000000000000, 1.399999999999999911 ) ) ;
#61 = EDGE_CURVE ( 'NONE', #195, #517, #74, .T. ) ;
#62 = ORIENTED_EDGE ( 'NONE', *, *, #198, .F. ) ;
#63 = DIRECTION ( 'NONE',  ( 0.000000000000000000, 0.000000000000000000, -1.000000000000000000 ) ) ;
#64 = DIRECTION ( 'NONE',  ( 0.000000000000000000, -1.000000000000000000, 0.000000000000000000 ) ) ;
#65 = ORIENTED_EDGE ( 'NONE', *, *, #397, .T. ) ;
#66 = CARTESIAN_POINT ( 'NONE',  ( 1.000000000000000000, 0.5773502691896260641, 0.4000000000000000222 ) ) ;
#67 = DIRECTION ( 'NONE',  ( 0.8660254037844387076, -0.4999999999999998890, 0.000000000000000000 ) ) ;
#68 = EDGE_CURVE ( 'NONE', #318, #408, #467, .T. ) ;
#69 = DIRECTION ( 'NONE',  ( 0.000000000000000000, 0.000000000000000000, 1.000000000000000000 ) ) ;
#70 = CARTESIAN_POINT ( 'NONE',  ( 1.000000000000000000, 0.5773502691896260641, 0.4000000000000000222 ) ) ;
#71 = ORIENTED_EDGE ( 'NONE', *, *, #244, .F. ) ;
#72 = VECTOR ( 'NONE', #34, 1000.000000000000000 ) ;
#73 = APPLICATION_CONTEXT ( 'automotive_design' ) ;
#74 = LINE ( 'NONE', #434, #222 ) ;
#75 = AXIS2_PLACEMENT_3D ( 'NONE', #342, #40, #231 ) ;
#76 = DIRECTION ( 'NONE',  ( -0.8660254037844387076, -0.4999999999999998890, 0.000000000000000000 ) ) ;
#77 = DIRECTION ( 'NONE',  ( 0.000000000000000000, 0.000000000000000000, 1.000000000000000000 ) ) ;
#78 = AXIS2_PLACEMENT_3D ( 'NONE', #378, #245, #499 ) ;
#79 = AXIS2_PLACEMENT_3D ( 'NONE', #269, #69, #124 ) ;
#80 = EDGE_LOOP ( 'NONE', ( #634, #230, #654, #39 ) ) ;
#81 = DIRECTION ( 'NONE',  ( 1.224646799147351975E-16, 1.000000000000000000, 0.000000000000000000 ) ) ;
#82 = DIRECTION ( 'NONE',  ( -0.2499999999999976685, 0.4330127018922157456, -0.8660254037844412611 ) ) ;
#83 = ORIENTED_EDGE ( 'NONE', *, *, #616, .F. ) ;
#84 = DIRECTION ( 'NONE',  ( 0.000000000000000000, 0.000000000000000000, 1.000000000000000000 ) ) ;
#85 = CARTESIAN_POINT ( 'NONE',  ( 0.001359858181488495920, -0.0007851144871423489796, 0.3998037213782145161 ) ) ;
#86 = ORIENTED_EDGE ( 'NONE', *, *, #412, .T. ) ;
#87 = VERTEX_POINT ( 'NONE', #637 ) ;
#88 = CARTESIAN_POINT ( 'NONE',  ( 0.000000000000000000, 0.000000000000000000, 0.000000000000000000 ) ) ;
#89 = ORIENTED_EDGE ( 'NONE', *, *, #68, .T. ) ;
#90 = CARTESIAN_POINT ( 'NONE',  ( -0.001359858181488289922, -0.0007851144871420420420, 0.3998037213782145161 ) ) ;
#91 = DIRECTION ( 'NONE',  ( 0.000000000000000000, 1.000000000000000000, 0.000000000000000000 ) ) ;
#92 = ORIENTED_EDGE ( 'NONE', *, *, #198, .T. ) ;
#93 = FACE_OUTER_BOUND ( 'NONE', #420, .T. ) ;
#94 = EDGE_CURVE ( 'NONE', #516, #87, #299, .T. ) ;
#95 = LINE ( 'NONE', #657, #190 ) ;
#96 = EDGE_LOOP ( 'NONE', ( #389, #463, #426, #62 ) ) ;
#97 = ADVANCED_FACE ( 'NONE', ( #129 ), #180, .F. ) ;
#98 = CARTESIAN_POINT ( 'NONE',  ( -1.000000000000000000, 0.5773502691896260641, 1.399999999999999911 ) ) ;
#99 = AXIS2_PLACEMENT_3D ( 'NONE', #577, #221, #574 ) ;
#100 = PLANE ( 'NONE',  #19 ) ;
#101 = ORIENTED_EDGE ( 'NONE', *, *, #229, .T. ) ;
#102 = AXIS2_PLACEMENT_3D ( 'NONE', #148, #388, #587 ) ;
#103 = DIRECTION ( 'NONE',  ( 0.000000000000000000, 0.000000000000000000, 1.000000000000000000 ) ) ;
#104 = ADVANCED_FACE ( 'NONE', ( #384 ), #267, .T. ) ;
#105 = EDGE_CURVE ( 'NONE', #545, #606, #476, .T. ) ;
#106 = ORIENTED_EDGE ( 'NONE', *, *, #253, .T. ) ;
#107 = AXIS2_PLACEMENT_3D ( 'NONE', #586, #293, #390 ) ;
#108 = FACE_OUTER_BOUND ( 'NONE', #537, .T. ) ;
#109 = ADVANCED_FACE ( 'NONE', ( #632 ), #171, .F. ) ;
#110 = FACE_OUTER_BOUND ( 'NONE', #548, .T. ) ;
#111 = VECTOR ( 'NONE', #76, 1000.000000000000000 ) ;
#112 = EDGE_LOOP ( 'NONE', ( #488, #286, #1, #373 ) ) ;
#113 = ORIENTED_EDGE ( 'NONE', *, *, #484, .T. ) ;
#114 = DIRECTION ( 'NONE',  ( 1.000000000000000000, 0.000000000000000000, 0.000000000000000000 ) ) ;
#115 = ORIENTED_EDGE ( 'NONE', *, *, #350, .T. ) ;
#116 = DIRECTION ( 'NONE',  ( 0.000000000000000000, 0.000000000000000000, 1.000000000000000000 ) ) ;
#117 = CARTESIAN_POINT ( 'NONE',  ( 1.500000000000000000, 0.000000000000000000, -13.70000000000000107 ) ) ;
#118 = CARTESIAN_POINT ( 'NONE',  ( -1.000000000000000000, -0.5773502691896260641, 1.399999999999999911 ) ) ;
#119 = DIRECTION ( 'NONE',  ( 0.000000000000000000, 0.000000000000000000, -1.000000000000000000 ) ) ;
#120 = VERTEX_POINT ( 'NONE', #177 ) ;
#121 = CARTESIAN_POINT ( 'NONE',  ( 4.677021866404049821E-16, -1.154700538379252128, 1.399999999999999911 ) ) ;
#122 = DIRECTION ( 'NONE',  ( 0.000000000000000000, 0.000000000000000000, 1.000000000000000000 ) ) ;
#123 = EDGE_CURVE ( 'NONE', #594, #639, #535, .T. ) ;
#124 = DIRECTION ( 'NONE',  ( 1.000000000000000000, 0.000000000000000000, 0.000000000000000000 ) ) ;
#125 = CARTESIAN_POINT ( 'NONE',  ( 4.677021866404049821E-16, -1.154700538379252128, 0.4000000000000000222 ) ) ;
#126 = ORIENTED_EDGE ( 'NONE', *, *, #334, .T. ) ;
#127 = EDGE_LOOP ( 'NONE', ( #628, #115, #295, #150 ) ) ;
#128 = CARTESIAN_POINT ( 'NONE',  ( 1.600000000000000089, 0.000000000000000000, 3.049318610115480235E-16 ) ) ;
#129 = FACE_OUTER_BOUND ( 'NONE', #127, .T. ) ;
#130 = VECTOR ( 'NONE', #224, 1000.000000000000000 ) ;
#131 = CIRCLE ( 'NONE', #421, 1.500000000000000000 ) ;
#132 = ORIENTED_EDGE ( 'NONE', *, *, #47, .F. ) ;
#133 = DIRECTION ( 'NONE',  ( -0.8660254037844387076, 0.4999999999999998890, 0.000000000000000000 ) ) ;
#134 = LINE ( 'NONE', #85, #554 ) ;
#135 = ADVANCED_FACE ( 'NONE', ( #521 ), #30, .F. ) ;
#136 = VECTOR ( 'NONE', #551, 1000.000000000000000 ) ;
#137 = ORIENTED_EDGE ( 'NONE', *, *, #350, .F. ) ;
#138 = CARTESIAN_POINT ( 'NONE',  ( 1.600000000000000089, 0.000000000000000000, -0.1000000000000000056 ) ) ;
#139 = SURFACE_STYLE_FILL_AREA ( #391 ) ;
#140 = VECTOR ( 'NONE', #287, 1000.000000000000000 ) ;
#141 = AXIS2_PLACEMENT_3D ( 'NONE', #270, #26, #529 ) ;
#142 = EDGE_LOOP ( 'NONE', ( #619, #481, #341, #226 ) ) ;
#143 = FACE_OUTER_BOUND ( 'NONE', #20, .T. ) ;
#144 = CARTESIAN_POINT ( 'NONE',  ( 1.199999999999999956, 0.000000000000000000, -14.00000000000000000 ) ) ;
#145 = AXIS2_PLACEMENT_3D ( 'NONE', #422, #176, #64 ) ;
#146 = ORIENTED_EDGE ( 'NONE', *, *, #105, .T. ) ;
#147 = DIRECTION ( 'NONE',  ( 1.000000000000000000, 0.000000000000000000, 0.000000000000000000 ) ) ;
#148 = CARTESIAN_POINT ( 'NONE',  ( 0.000000000000000000, 0.000000000000000000, -13.70000000000000107 ) ) ;
#149 = CARTESIAN_POINT ( 'NONE',  ( -1.600000000000000089, 1.959434878635764984E-16, 3.049318610115480235E-16 ) ) ;
#150 = ORIENTED_EDGE ( 'NONE', *, *, #261, .T. ) ;
#151 =( NAMED_UNIT ( * ) PLANE_ANGLE_UNIT ( ) SI_UNIT ( $, .RADIAN. ) );
#152 = LINE ( 'NONE', #202, #27 ) ;
#153 = EDGE_LOOP ( 'NONE', ( #159, #86 ) ) ;
#154 = FACE_BOUND ( 'NONE', #382, .T. ) ;
#155 = EDGE_CURVE ( 'NONE', #639, #545, #331, .T. ) ;
#156 = COLOUR_RGB ( '',0.7921568627450980005, 0.8196078431372548767, 0.9333333333333333481 ) ;
#157 = PLANE ( 'NONE',  #610 ) ;
#158 =( GEOMETRIC_REPRESENTATION_CONTEXT ( 3 ) GLOBAL_UNCERTAINTY_ASSIGNED_CONTEXT ( ( #453 ) ) GLOBAL_UNIT_ASSIGNED_CONTEXT ( ( #8, #151, #160 ) ) REPRESENTATION_CONTEXT ( 'NONE', 'WORKASPACE' ) );
#159 = ORIENTED_EDGE ( 'NONE', *, *, #541, .T. ) ;
#160 =( NAMED_UNIT ( * ) SI_UNIT ( $, .STERADIAN. ) SOLID_ANGLE_UNIT ( ) );
#161 = AXIS2_PLACEMENT_3D ( 'NONE', #88, #655, #546 ) ;
#162 = DIRECTION ( 'NONE',  ( 0.000000000000000000, 0.000000000000000000, 1.000000000000000000 ) ) ;
#163 = EDGE_CURVE ( 'NONE', #288, #309, #48, .T. ) ;
#164 = DIRECTION ( 'NONE',  ( -0.9607689228305237306, 0.000000000000000000, -0.2773500981126114096 ) ) ;
#165 = VECTOR ( 'NONE', #520, 1000.000000000000000 ) ;
#166 = PLANE ( 'NONE',  #345 ) ;
#167 = ORIENTED_EDGE ( 'NONE', *, *, #59, .F. ) ;
#168 = DIRECTION ( 'NONE',  ( 0.000000000000000000, 0.000000000000000000, -1.000000000000000000 ) ) ;
#169 = CARTESIAN_POINT ( 'NONE',  ( 3.345902820607675018E-16, -0.001962786217855260092, 0.4000000000000000222 ) ) ;
#170 = LINE ( 'NONE', #375, #424 ) ;
#171 = PLANE ( 'NONE',  #99 ) ;
#172 = EDGE_LOOP ( 'NONE', ( #354, #652, #477, #260 ) ) ;
#173 = FACE_OUTER_BOUND ( 'NONE', #7, .T. ) ;
#174 = DIRECTION ( 'NONE',  ( -0.7745966692414851806, 0.4472135954999590934, 0.4472135954999535978 ) ) ;
#175 = EDGE_CURVE ( 'NONE', #639, #282, #184, .T. ) ;
#176 = DIRECTION ( 'NONE',  ( 0.4999999999999990008, 0.000000000000000000, -0.8660254037844392627 ) ) ;
#177 = CARTESIAN_POINT ( 'NONE',  ( 1.500000000000000000, 0.000000000000000000, -0.1000000000000000056 ) ) ;
#178 = ORIENTED_EDGE ( 'NONE', *, *, #510, .F. ) ;
#179 = DIRECTION ( 'NONE',  ( -0.4999999999999998890, 0.8660254037844387076, 0.000000000000000000 ) ) ;
#180 = PLANE ( 'NONE',  #555 ) ;
#181 = EDGE_CURVE ( 'NONE', #87, #516, #185, .T. ) ;
#182 = ORIENTED_EDGE ( 'NONE', *, *, #291, .F. ) ;
#183 = DIRECTION ( 'NONE',  ( 0.000000000000000000, -1.000000000000000000, 0.000000000000000000 ) ) ;
#184 = LINE ( 'NONE', #437, #266 ) ;
#185 = CIRCLE ( 'NONE', #530, 1.199999999999999956 ) ;
#186 = EDGE_LOOP ( 'NONE', ( #645, #635, #89, #609 ) ) ;
#187 = EDGE_CURVE ( 'NONE', #545, #268, #591, .T. ) ;
#188 = DIRECTION ( 'NONE',  ( -0.7745966692414851806, -0.4472135954999590934, 0.4472135954999535978 ) ) ;
#189 = DIRECTION ( 'NONE',  ( -0.8660254037844387076, 0.4999999999999998890, 0.000000000000000000 ) ) ;
#190 = VECTOR ( 'NONE', #91, 1000.000000000000000 ) ;
#191 = EDGE_LOOP ( 'NONE', ( #238, #146, #504, #584 ) ) ;
#192 = CARTESIAN_POINT ( 'NONE',  ( -1.000000000000000000, 0.5773502691896260641, 0.4000000000000000222 ) ) ;
#193 = CIRCLE ( 'NONE', #107, 0.1000000000000000472 ) ;
#194 = TOROIDAL_SURFACE ( 'NONE', #656, 1.449999999999999956, 1.399999999999999911 ) ;
#195 = VERTEX_POINT ( 'NONE', #290 ) ;
#196 = CARTESIAN_POINT ( 'NONE',  ( 1.449999999999999956, 0.000000000000000000, 1.399999999999999911 ) ) ;
#197 = FACE_OUTER_BOUND ( 'NONE', #485, .T. ) ;
#198 = EDGE_CURVE ( 'NONE', #414, #594, #38, .T. ) ;
#199 = VECTOR ( 'NONE', #624, 1000.000000000000000 ) ;
#200 = DIRECTION ( 'NONE',  ( 1.000000000000000000, 0.000000000000000000, 0.000000000000000000 ) ) ;
#201 = CARTESIAN_POINT ( 'NONE',  ( -0.0008499113634302299901, -0.001472089663391295883, 0.4000000000000000222 ) ) ;
#202 = CARTESIAN_POINT ( 'NONE',  ( -1.500000000000000000, 1.836970198721030181E-16, -14.00000000000000000 ) ) ;
#203 = CARTESIAN_POINT ( 'NONE',  ( 0.000000000000000000, 0.000000000000000000, -14.00000000000000000 ) ) ;
#204 = ORIENTED_EDGE ( 'NONE', *, *, #155, .F. ) ;
#205 = DIRECTION ( 'NONE',  ( 0.000000000000000000, 0.000000000000000000, 1.000000000000000000 ) ) ;
#206 = PLANE ( 'NONE',  #360 ) ;
#207 = ORIENTED_EDGE ( 'NONE', *, *, #557, .F. ) ;
#208 = CARTESIAN_POINT ( 'NONE',  ( 1.000000000000000000, -0.5773502691896260641, 1.399999999999999911 ) ) ;
#209 = EDGE_CURVE ( 'NONE', #28, #394, #134, .T. ) ;
#210 = VECTOR ( 'NONE', #189, 1000.000000000000000 ) ;
#211 = AXIS2_PLACEMENT_3D ( 'NONE', #70, #430, #380 ) ;
#212 = CARTESIAN_POINT ( 'NONE',  ( 0.000000000000000000, 0.000000000000000000, 1.399999999999999911 ) ) ;
#213 = CARTESIAN_POINT ( 'NONE',  ( -1.000000000000000000, -0.5773502691896260641, 1.399999999999999911 ) ) ;
#214 = DIRECTION ( 'NONE',  ( 0.000000000000000000, 0.000000000000000000, 1.000000000000000000 ) ) ;
#215 = VECTOR ( 'NONE', #547, 999.9999999999998863 ) ;
#216 = DIRECTION ( 'NONE',  ( 1.000000000000000000, 0.000000000000000000, 0.000000000000000000 ) ) ;
#217 = ORIENTED_EDGE ( 'NONE', *, *, #105, .F. ) ;
#218 = EDGE_CURVE ( 'NONE', #195, #545, #46, .T. ) ;
#219 = CARTESIAN_POINT ( 'NONE',  ( -1.500000000000000000, 1.836970198721030181E-16, -0.1000000000000000056 ) ) ;
#220 = CIRCLE ( 'NONE', #446, 0.1000000000000000056 ) ;
#221 = DIRECTION ( 'NONE',  ( 0.2499999999999976130, -0.4330127018922154125, -0.8660254037844413721 ) ) ;
#222 = VECTOR ( 'NONE', #122, 1000.000000000000000 ) ;
#223 = PLANE ( 'NONE',  #145 ) ;
#224 = DIRECTION ( 'NONE',  ( 0.8660254037844387076, 0.4999999999999998890, 0.000000000000000000 ) ) ;
#225 = AXIS2_PLACEMENT_3D ( 'NONE', #409, #359, #559 ) ;
#226 = ORIENTED_EDGE ( 'NONE', *, *, #330, .T. ) ;
#227 = CARTESIAN_POINT ( 'NONE',  ( 1.199999999999999956, 0.000000000000000000, -14.00000000000000000 ) ) ;
#228 = CARTESIAN_POINT ( 'NONE',  ( 3.790472438962995003E-16, -0.001570228974284040065, 0.3998037213782145161 ) ) ;
#229 = EDGE_CURVE ( 'NONE', #282, #25, #297, .T. ) ;
#230 = ORIENTED_EDGE ( 'NONE', *, *, #291, .T. ) ;
#231 = DIRECTION ( 'NONE',  ( 1.000000000000000000, 0.000000000000000000, 0.000000000000000000 ) ) ;
#232 = FILL_AREA_STYLE_COLOUR ( '', #156 ) ;
#233 = EDGE_CURVE ( 'NONE', #408, #313, #340, .T. ) ;
#234 = ORIENTED_EDGE ( 'NONE', *, *, #59, .T. ) ;
#235 = ORIENTED_EDGE ( 'NONE', *, *, #412, .F. ) ;
#236 = DIRECTION ( 'NONE',  ( 0.000000000000000000, 0.000000000000000000, 1.000000000000000000 ) ) ;
#237 = SURFACE_STYLE_USAGE ( .BOTH. , #552 ) ;
#238 = ORIENTED_EDGE ( 'NONE', *, *, #187, .F. ) ;
#239 = ORIENTED_EDGE ( 'NONE', *, *, #534, .F. ) ;
#240 = DIRECTION ( 'NONE',  ( 0.000000000000000000, 0.000000000000000000, -1.000000000000000000 ) ) ;
#241 =( GEOMETRIC_REPRESENTATION_CONTEXT ( 3 ) GLOBAL_UNCERTAINTY_ASSIGNED_CONTEXT ( ( #458 ) ) GLOBAL_UNIT_ASSIGNED_CONTEXT ( ( #443, #248, #343 ) ) REPRESENTATION_CONTEXT ( 'NONE', 'WORKASPACE' ) );
#242 = ORIENTED_EDGE ( 'NONE', *, *, #557, .T. ) ;
#243 = CARTESIAN_POINT ( 'NONE',  ( -0.001699822726860350042, 0.0009813931089284939381, 0.4000000000000000222 ) ) ;
#244 = EDGE_CURVE ( 'NONE', #318, #195, #298, .T. ) ;
#245 = DIRECTION ( 'NONE',  ( 0.000000000000000000, 0.000000000000000000, 1.000000000000000000 ) ) ;
#246 = VERTEX_POINT ( 'NONE', #149 ) ;
#247 = CYLINDRICAL_SURFACE ( 'NONE', #593, 1.500000000000000000 ) ;
#248 =( NAMED_UNIT ( * ) PLANE_ANGLE_UNIT ( ) SI_UNIT ( $, .RADIAN. ) );
#249 = AXIS2_PLACEMENT_3D ( 'NONE', #406, #103, #114 ) ;
#250 = ORIENTED_EDGE ( 'NONE', *, *, #475, .T. ) ;
#251 = DIRECTION ( 'NONE',  ( -0.7071067811865441310, 8.659560562354890950E-17, 0.7071067811865510144 ) ) ;
#252 = MANIFOLD_SOLID_BREP ( 'NONE', #456 ) ;
#253 = EDGE_CURVE ( 'NONE', #516, #57, #596, .T. ) ;
#254 = PLANE ( 'NONE',  #327 ) ;
#255 = AXIS2_PLACEMENT_3D ( 'NONE', #395, #533, #352 ) ;
#256 = ORIENTED_EDGE ( 'NONE', *, *, #564, .T. ) ;
#257 = TOROIDAL_SURFACE ( 'NONE', #141, 1.600000000000000089, 0.1000000000000000056 ) ;
#258 = APPLICATION_PROTOCOL_DEFINITION ( 'draft international standard', 'automotive_design', 1998, #407 ) ;
#259 = CARTESIAN_POINT ( 'NONE',  ( -0.001699822726860350042, 0.000000000000000000, 0.4000000000000000222 ) ) ;
#260 = ORIENTED_EDGE ( 'NONE', *, *, #649, .T. ) ;
#261 = EDGE_CURVE ( 'NONE', #313, #641, #95, .T. ) ;
#262 = FACE_OUTER_BOUND ( 'NONE', #451, .T. ) ;
#263 = FACE_OUTER_BOUND ( 'NONE', #96, .T. ) ;
#264 = ADVANCED_FACE ( 'NONE', ( #197 ), #560, .F. ) ;
#265 = CARTESIAN_POINT ( 'NONE',  ( -2.004758377710914985E-16, 1.154700538379252128, 1.399999999999999911 ) ) ;
#266 = VECTOR ( 'NONE', #449, 1000.000000000000000 ) ;
#267 = CONICAL_SURFACE ( 'NONE', #387, 1.199999999999999956, 0.7853981633974433940 ) ;
#268 = VERTEX_POINT ( 'NONE', #98 ) ;
#269 = CARTESIAN_POINT ( 'NONE',  ( 0.000000000000000000, 0.000000000000000000, 0.000000000000000000 ) ) ;
#270 = CARTESIAN_POINT ( 'NONE',  ( 0.000000000000000000, 0.000000000000000000, -0.1000000000000000056 ) ) ;
#271 = EDGE_CURVE ( 'NONE', #57, #561, #590, .T. ) ;
#272 = PRODUCT_RELATED_PRODUCT_CATEGORY ( 'part', '', ( #539 ) ) ;
#273 = DIRECTION ( 'NONE',  ( -0.4999999999999990008, 0.000000000000000000, -0.8660254037844392627 ) ) ;
#274 = PRESENTATION_LAYER_ASSIGNMENT (  '', '', ( #523 ) ) ;
#275 = DIRECTION ( 'NONE',  ( 0.000000000000000000, 1.000000000000000000, 0.000000000000000000 ) ) ;
#276 = CARTESIAN_POINT ( 'NONE',  ( 0.001699822726860570135, -0.0009813931089278390800, 0.4000000000000000222 ) ) ;
#277 = DIRECTION ( 'NONE',  ( -1.146633409319811917E-16, 0.8944271909999178538, -0.4472135954999539864 ) ) ;
#278 = CARTESIAN_POINT ( 'NONE',  ( -2.004758377710914985E-16, 1.154700538379252128, 0.4000000000000000222 ) ) ;
#279 = ADVANCED_FACE ( 'NONE', ( #108 ), #206, .F. ) ;
#280 = CARTESIAN_POINT ( 'NONE',  ( 1.000000000000000000, -0.5773502691896260641, 0.9763688760806910061 ) ) ;
#281 = VECTOR ( 'NONE', #431, 1000.000000000000000 ) ;
#282 = VERTEX_POINT ( 'NONE', #2 ) ;
#283 = LINE ( 'NONE', #482, #72 ) ;
#284 = CARTESIAN_POINT ( 'NONE',  ( 1.000000000000000000, -0.5773502691896260641, 0.4000000000000000222 ) ) ;
#285 = ADVANCED_FACE ( 'NONE', ( #457 ), #157, .F. ) ;
#286 = ORIENTED_EDGE ( 'NONE', *, *, #218, .F. ) ;
#287 = DIRECTION ( 'NONE',  ( -0.8660254037844387076, -0.4999999999999998890, 0.000000000000000000 ) ) ;
#288 = VERTEX_POINT ( 'NONE', #505 ) ;
#289 = DIRECTION ( 'NONE',  ( 1.000000000000000000, 0.000000000000000000, 0.000000000000000000 ) ) ;
#290 = CARTESIAN_POINT ( 'NONE',  ( -1.000000000000000000, -0.5773502691896260641, 0.9763688760806910061 ) ) ;
#291 = EDGE_CURVE ( 'NONE', #87, #561, #9, .T. ) ;
#292 = ORIENTED_EDGE ( 'NONE', *, *, #415, .T. ) ;
#293 = DIRECTION ( 'NONE',  ( 1.224646799147351975E-16, 1.000000000000000000, 0.000000000000000000 ) ) ;
#294 = CARTESIAN_POINT ( 'NONE',  ( 0.000000000000000000, 0.000000000000000000, -14.00000000000000000 ) ) ;
#295 = ORIENTED_EDGE ( 'NONE', *, *, #419, .T. ) ;
#296 = FACE_OUTER_BOUND ( 'NONE', #172, .T. ) ;
#297 = LINE ( 'NONE', #201, #648 ) ;
#298 = LINE ( 'NONE', #540, #506 ) ;
#299 = CIRCLE ( 'NONE', #14, 1.199999999999999956 ) ;
#300 = PRODUCT_DEFINITION_CONTEXT ( 'detailed design', #73, 'design' ) ;
#301 = ORIENTED_EDGE ( 'NONE', *, *, #244, .T. ) ;
#302 = DIRECTION ( 'NONE',  ( 0.000000000000000000, 0.000000000000000000, 1.000000000000000000 ) ) ;
#303 = PLANE ( 'NONE',  #225 ) ;
#304 = ADVANCED_FACE ( 'NONE', ( #263 ), #254, .F. ) ;
#305 = VECTOR ( 'NONE', #251, 999.9999999999998863 ) ;
#306 = ORIENTED_EDGE ( 'NONE', *, *, #209, .T. ) ;
#307 = PRODUCT_DEFINITION_FORMATION_WITH_SPECIFIED_SOURCE ( 'å¯', '', #539, .NOT_KNOWN. ) ;
#308 = CARTESIAN_POINT ( 'NONE',  ( -1.199999999999999956, 1.469576158976823799E-16, -14.00000000000000000 ) ) ;
#309 = VERTEX_POINT ( 'NONE', #361 ) ;
#310 = AXIS2_PLACEMENT_3D ( 'NONE', #44, #486, #200 ) ;
#311 = ORIENTED_EDGE ( 'NONE', *, *, #550, .T. ) ;
#312 = CARTESIAN_POINT ( 'NONE',  ( 0.000000000000000000, 0.000000000000000000, 0.4000000000000000222 ) ) ;
#313 = VERTEX_POINT ( 'NONE', #208 ) ;
#314 = CIRCLE ( 'NONE', #367, 1.399999999999999911 ) ;
#315 = DIRECTION ( 'NONE',  ( -0.2499999999999999445, -0.4330127018922155235, -0.8660254037844405950 ) ) ;
#316 = CARTESIAN_POINT ( 'NONE',  ( 0.001699822726860570135, 0.000000000000000000, 0.4000000000000000222 ) ) ;
#317 = CARTESIAN_POINT ( 'NONE',  ( -0.0008499113634305820305, 0.001472089663391906071, 0.4000000000000000222 ) ) ;
#318 = VERTEX_POINT ( 'NONE', #417 ) ;
#319 = CARTESIAN_POINT ( 'NONE',  ( -2.004758377710914985E-16, 1.154700538379252128, 0.4000000000000000222 ) ) ;
#320 = LINE ( 'NONE', #213, #374 ) ;
#321 = ADVANCED_FACE ( 'NONE', ( #53 ), #562, .T. ) ;
#322 = ADVANCED_FACE ( 'NONE', ( #605, #411 ), #100, .T. ) ;
#323 = DIRECTION ( 'NONE',  ( 0.8660254037844387076, 0.4999999999999998890, 0.000000000000000000 ) ) ;
#324 = CARTESIAN_POINT ( 'NONE',  ( -0.0008499113634306090272, 0.001472089663391952042, 0.4000000000000000222 ) ) ;
#325 = ORIENTED_EDGE ( 'NONE', *, *, #123, .T. ) ;
#326 = CARTESIAN_POINT ( 'NONE',  ( -6.504154243728959715E-16, 0.001570228974284620114, 0.3998037213782145161 ) ) ;
#327 = AXIS2_PLACEMENT_3D ( 'NONE', #12, #511, #164 ) ;
#328 = DIRECTION ( 'NONE',  ( 1.000000000000000000, 0.000000000000000000, 0.000000000000000000 ) ) ;
#329 = ADVANCED_FACE ( 'NONE', ( #262 ), #608, .T. ) ;
#330 = EDGE_CURVE ( 'NONE', #641, #438, #461, .T. ) ;
#331 = LINE ( 'NONE', #630, #366 ) ;
#332 = ORIENTED_EDGE ( 'NONE', *, *, #261, .F. ) ;
#333 = DIRECTION ( 'NONE',  ( -0.4999999999999998890, -0.8660254037844387076, 0.000000000000000000 ) ) ;
#334 = EDGE_CURVE ( 'NONE', #561, #490, #152, .T. ) ;
#335 = CARTESIAN_POINT ( 'NONE',  ( -2.004758377710914985E-16, 1.154700538379252128, 0.9763688760806910061 ) ) ;
#336 = AXIS2_PLACEMENT_3D ( 'NONE', #212, #573, #474 ) ;
#337 = ORIENTED_EDGE ( 'NONE', *, *, #575, .T. ) ;
#338 = ORIENTED_EDGE ( 'NONE', *, *, #640, .T. ) ;
#339 = LINE ( 'NONE', #659, #140 ) ;
#340 = LINE ( 'NONE', #41, #136 ) ;
#341 = ORIENTED_EDGE ( 'NONE', *, *, #460, .T. ) ;
#342 = CARTESIAN_POINT ( 'NONE',  ( 0.000000000000000000, 0.000000000000000000, 0.000000000000000000 ) ) ;
#343 =( NAMED_UNIT ( * ) SI_UNIT ( $, .STERADIAN. ) SOLID_ANGLE_UNIT ( ) );
#344 = CIRCLE ( 'NONE', #75, 1.600000000000000089 ) ;
#345 = AXIS2_PLACEMENT_3D ( 'NONE', #317, #82, #525 ) ;
#346 = ADVANCED_FACE ( 'NONE', ( #154, #110 ), #570, .F. ) ;
#347 = ORIENTED_EDGE ( 'NONE', *, *, #47, .T. ) ;
#348 = DIRECTION ( 'NONE',  ( 0.000000000000000000, 0.000000000000000000, 1.000000000000000000 ) ) ;
#349 = PRESENTATION_STYLE_ASSIGNMENT (( #237 ) ) ;
#350 = EDGE_CURVE ( 'NONE', #416, #28, #357, .T. ) ;
#351 = ORIENTED_EDGE ( 'NONE', *, *, #484, .F. ) ;
#352 = DIRECTION ( 'NONE',  ( 1.000000000000000000, 0.000000000000000000, 0.000000000000000000 ) ) ;
#353 = DIRECTION ( 'NONE',  ( 0.000000000000000000, 1.000000000000000000, 0.000000000000000000 ) ) ;
#354 = ORIENTED_EDGE ( 'NONE', *, *, #61, .F. ) ;
#355 = CARTESIAN_POINT ( 'NONE',  ( -1.000000000000000000, 0.5773502691896260641, 0.9763688760806910061 ) ) ;
#356 = ORIENTED_EDGE ( 'NONE', *, *, #536, .T. ) ;
#357 = LINE ( 'NONE', #502, #49 ) ;
#358 = APPLICATION_PROTOCOL_DEFINITION ( 'draft international standard', 'automotive_design', 1998, #73 ) ;
#359 = DIRECTION ( 'NONE',  ( 0.000000000000000000, 0.000000000000000000, -1.000000000000000000 ) ) ;
#360 = AXIS2_PLACEMENT_3D ( 'NONE', #455, #315, #514 ) ;
#361 = CARTESIAN_POINT ( 'NONE',  ( 2.850000000000000089, 0.000000000000000000, 0.000000000000000000 ) ) ;
#362 = CIRCLE ( 'NONE', #427, 1.449999999999999956 ) ;
#363 = EDGE_LOOP ( 'NONE', ( #292, #239, #569, #137 ) ) ;
#364 = PRODUCT_CONTEXT ( 'NONE', #407, 'mechanical' ) ;
#365 = DIRECTION ( 'NONE',  ( -0.8660254037844387076, 0.4999999999999998890, 0.000000000000000000 ) ) ;
#366 = VECTOR ( 'NONE', #174, 1000.000000000000114 ) ;
#367 = AXIS2_PLACEMENT_3D ( 'NONE', #524, #631, #168 ) ;
#368 = ORIENTED_EDGE ( 'NONE', *, *, #536, .F. ) ;
#369 = DIRECTION ( 'NONE',  ( 1.000000000000000000, 0.000000000000000000, 0.000000000000000000 ) ) ;
#370 = ORIENTED_EDGE ( 'NONE', *, *, #640, .F. ) ;
#371 = ADVANCED_FACE ( 'NONE', ( #556 ), #303, .T. ) ;
#372 = LINE ( 'NONE', #278, #512 ) ;
#373 = ORIENTED_EDGE ( 'NONE', *, *, #175, .F. ) ;
#374 = VECTOR ( 'NONE', #67, 1000.000000000000000 ) ;
#375 = CARTESIAN_POINT ( 'NONE',  ( 0.0008499113634303930541, -0.001472089663391575824, 0.4000000000000000222 ) ) ;
#376 = DIRECTION ( 'NONE',  ( 1.000000000000000000, 0.000000000000000000, 0.000000000000000000 ) ) ;
#377 = DIRECTION ( 'NONE',  ( -0.7745966692414851806, -0.4472135954999590934, -0.4472135954999535978 ) ) ;
#378 = CARTESIAN_POINT ( 'NONE',  ( 0.000000000000000000, 0.000000000000000000, 0.000000000000000000 ) ) ;
#379 = CARTESIAN_POINT ( 'NONE',  ( -2.004758377710914985E-16, 1.154700538379252128, 1.399999999999999911 ) ) ;
#380 = DIRECTION ( 'NONE',  ( 0.000000000000000000, 0.000000000000000000, -1.000000000000000000 ) ) ;
#381 = ADVANCED_FACE ( 'NONE', ( #508 ), #55, .F. ) ;
#382 = EDGE_LOOP ( 'NONE', ( #256, #242 ) ) ;
#383 = LINE ( 'NONE', #316, #165 ) ;
#384 = FACE_OUTER_BOUND ( 'NONE', #80, .T. ) ;
#385 = ORIENTED_EDGE ( 'NONE', *, *, #534, .T. ) ;
#386 = DIRECTION ( 'NONE',  ( 1.000000000000000000, 0.000000000000000000, 0.000000000000000000 ) ) ;
#387 = AXIS2_PLACEMENT_3D ( 'NONE', #480, #626, #328 ) ;
#388 = DIRECTION ( 'NONE',  ( 0.000000000000000000, 0.000000000000000000, 1.000000000000000000 ) ) ;
#389 = ORIENTED_EDGE ( 'NONE', *, *, #415, .F. ) ;
#390 = DIRECTION ( 'NONE',  ( -1.000000000000000000, 1.224646799147350742E-16, 0.000000000000000000 ) ) ;
#391 = FILL_AREA_STYLE ('',( #232 ) ) ;
#392 = MECHANICAL_DESIGN_GEOMETRIC_PRESENTATION_REPRESENTATION (  '', ( #523 ), #241 ) ;
#393 = PRODUCT_DEFINITION ( 'æ™', '', #307, #300 ) ;
#394 = VERTEX_POINT ( 'NONE', #276 ) ;
#395 = CARTESIAN_POINT ( 'NONE',  ( 0.000000000000000000, 0.000000000000000000, -14.00000000000000000 ) ) ;
#396 = VECTOR ( 'NONE', #595, 1000.000000000000000 ) ;
#397 = EDGE_CURVE ( 'NONE', #57, #120, #576, .T. ) ;
#398 = VECTOR ( 'NONE', #23, 1000.000000000000000 ) ;
#399 = ORIENTED_EDGE ( 'NONE', *, *, #15, .F. ) ;
#400 = CARTESIAN_POINT ( 'NONE',  ( 1.000000000000000000, 0.5773502691896260641, 0.9763688760806910061 ) ) ;
#401 = DIRECTION ( 'NONE',  ( 0.000000000000000000, 0.000000000000000000, 1.000000000000000000 ) ) ;
#402 = VECTOR ( 'NONE', #214, 1000.000000000000000 ) ;
#403 = CARTESIAN_POINT ( 'NONE',  ( -1.449999999999999956, 1.775737858763660191E-16, 0.000000000000000000 ) ) ;
#404 = CARTESIAN_POINT ( 'NONE',  ( 0.0008499113634302569867, 0.001472089663391341853, 0.4000000000000000222 ) ) ;
#405 = ORIENTED_EDGE ( 'NONE', *, *, #397, .F. ) ;
#406 = CARTESIAN_POINT ( 'NONE',  ( 0.000000000000000000, 0.000000000000000000, 0.000000000000000000 ) ) ;
#407 = APPLICATION_CONTEXT ( 'automotive_design' ) ;
#408 = VERTEX_POINT ( 'NONE', #121 ) ;
#409 = CARTESIAN_POINT ( 'NONE',  ( 0.000000000000000000, 0.000000000000000000, -14.00000000000000000 ) ) ;
#410 = DIRECTION ( 'NONE',  ( 1.000000000000000000, 0.000000000000000000, 0.000000000000000000 ) ) ;
#411 = FACE_OUTER_BOUND ( 'NONE', #153, .T. ) ;
#412 = EDGE_CURVE ( 'NONE', #580, #565, #618, .T. ) ;
#413 = DIRECTION ( 'NONE',  ( 1.000000000000000000, 0.000000000000000000, 0.000000000000000000 ) ) ;
#414 = VERTEX_POINT ( 'NONE', #464 ) ;
#415 = EDGE_CURVE ( 'NONE', #416, #414, #620, .T. ) ;
#416 = VERTEX_POINT ( 'NONE', #429 ) ;
#417 = CARTESIAN_POINT ( 'NONE',  ( 4.677021866404049821E-16, -1.154700538379252128, 0.9763688760806920053 ) ) ;
#418 = FACE_OUTER_BOUND ( 'NONE', #42, .T. ) ;
#419 = EDGE_CURVE ( 'NONE', #28, #313, #470, .T. ) ;
#420 = EDGE_LOOP ( 'NONE', ( #182, #4, #106, #132 ) ) ;
#421 = AXIS2_PLACEMENT_3D ( 'NONE', #518, #17, #479 ) ;
#422 = CARTESIAN_POINT ( 'NONE',  ( 0.001699822726860570135, 0.000000000000000000, 0.4000000000000000222 ) ) ;
#423 = FACE_OUTER_BOUND ( 'NONE', #468, .T. ) ;
#424 = VECTOR ( 'NONE', #323, 1000.000000000000000 ) ;
#425 = CARTESIAN_POINT ( 'NONE',  ( 1.000000000000000000, -0.5773502691896260641, 0.4000000000000000222 ) ) ;
#426 = ORIENTED_EDGE ( 'NONE', *, *, #475, .F. ) ;
#427 = AXIS2_PLACEMENT_3D ( 'NONE', #589, #599, #147 ) ;
#428 = AXIS2_PLACEMENT_3D ( 'NONE', #621, #483, #572 ) ;
#429 = CARTESIAN_POINT ( 'NONE',  ( 1.000000000000000000, 0.5773502691896260641, 0.9763688760806910061 ) ) ;
#430 = DIRECTION ( 'NONE',  ( 0.4999999999999998890, 0.8660254037844387076, 0.000000000000000000 ) ) ;
#431 = DIRECTION ( 'NONE',  ( 0.000000000000000000, 0.000000000000000000, 1.000000000000000000 ) ) ;
#432 = CARTESIAN_POINT ( 'NONE',  ( 0.000000000000000000, 0.000000000000000000, -14.00000000000000000 ) ) ;
#433 = ORIENTED_EDGE ( 'NONE', *, *, #15, .T. ) ;
#434 = CARTESIAN_POINT ( 'NONE',  ( -1.000000000000000000, -0.5773502691896260641, 0.4000000000000000222 ) ) ;
#435 = ORIENTED_EDGE ( 'NONE', *, *, #271, .T. ) ;
#436 = CARTESIAN_POINT ( 'NONE',  ( 0.000000000000000000, 0.000000000000000000, 0.000000000000000000 ) ) ;
#437 = CARTESIAN_POINT ( 'NONE',  ( -0.001699822726860350042, 0.000000000000000000, 0.4000000000000000222 ) ) ;
#438 = VERTEX_POINT ( 'NONE', #265 ) ;
#439 = DIRECTION ( 'NONE',  ( -1.000000000000000000, 1.224646799147351728E-16, 0.000000000000000000 ) ) ;
#440 = DIRECTION ( 'NONE',  ( 0.000000000000000000, 0.000000000000000000, -1.000000000000000000 ) ) ;
#441 = ORIENTED_EDGE ( 'NONE', *, *, #473, .T. ) ;
#442 = CARTESIAN_POINT ( 'NONE',  ( -1.500000000000000000, 1.836970198721030181E-16, -13.70000000000000107 ) ) ;
#443 =( LENGTH_UNIT ( ) NAMED_UNIT ( * ) SI_UNIT ( .MILLI., .METRE. ) );
#444 = ORIENTED_EDGE ( 'NONE', *, *, #649, .F. ) ;
#445 = LINE ( 'NONE', #90, #563 ) ;
#446 = AXIS2_PLACEMENT_3D ( 'NONE', #138, #183, #240 ) ;
#447 = ORIENTED_EDGE ( 'NONE', *, *, #638, .F. ) ;
#448 = FACE_OUTER_BOUND ( 'NONE', #16, .T. ) ;
#449 = DIRECTION ( 'NONE',  ( 0.000000000000000000, -1.000000000000000000, 0.000000000000000000 ) ) ;
#450 = AXIS2_PLACEMENT_3D ( 'NONE', #319, #179, #466 ) ;
#451 = EDGE_LOOP ( 'NONE', ( #435, #126, #441, #405 ) ) ;
#452 = DIRECTION ( 'NONE',  ( 0.000000000000000000, -1.000000000000000000, 0.000000000000000000 ) ) ;
#453 = UNCERTAINTY_MEASURE_WITH_UNIT (LENGTH_MEASURE( 1.000000000000000082E-05 ), #8, 'distance_accuracy_value', 'NONE');
#454 = ORIENTED_EDGE ( 'NONE', *, *, #61, .T. ) ;
#455 = CARTESIAN_POINT ( 'NONE',  ( -0.0008499113634302029935, -0.001472089663391249912, 0.4000000000000000222 ) ) ;
#456 = CLOSED_SHELL ( 'NONE', ( #21, #279, #109, #381, #507, #3, #304, #544, #321, #135, #522, #597, #625, #285, #97, #371, #615, #51, #322, #346, #500, #329, #104, #264 ) ) ;
#457 = FACE_OUTER_BOUND ( 'NONE', #186, .T. ) ;
#458 = UNCERTAINTY_MEASURE_WITH_UNIT (LENGTH_MEASURE( 1.000000000000000082E-05 ), #443, 'distance_accuracy_value', 'NONE');
#459 = ORIENTED_EDGE ( 'NONE', *, *, #330, .F. ) ;
#460 = EDGE_CURVE ( 'NONE', #416, #641, #629, .T. ) ;
#461 = LINE ( 'NONE', #617, #600 ) ;
#462 = ORIENTED_EDGE ( 'NONE', *, *, #163, .T. ) ;
#463 = ORIENTED_EDGE ( 'NONE', *, *, #611, .F. ) ;
#464 = CARTESIAN_POINT ( 'NONE',  ( 0.001699822726860570135, 0.0009813931089275760525, 0.4000000000000000222 ) ) ;
#465 = ORIENTED_EDGE ( 'NONE', *, *, #68, .F. ) ;
#466 = DIRECTION ( 'NONE',  ( 0.000000000000000000, 0.000000000000000000, 1.000000000000000000 ) ) ;
#467 = LINE ( 'NONE', #125, #398 ) ;
#468 = EDGE_LOOP ( 'NONE', ( #370, #462, #113, #235 ) ) ;
#469 = AXIS2_PLACEMENT_3D ( 'NONE', #35, #401, #601 ) ;
#470 = LINE ( 'NONE', #425, #199 ) ;
#471 = FACE_OUTER_BOUND ( 'NONE', #658, .T. ) ;
#472 = CIRCLE ( 'NONE', #653, 2.850000000000000089 ) ;
#473 = EDGE_CURVE ( 'NONE', #490, #120, #131, .T. ) ;
#474 = DIRECTION ( 'NONE',  ( 1.000000000000000000, 0.000000000000000000, 0.000000000000000000 ) ) ;
#475 = EDGE_CURVE ( 'NONE', #594, #606, #578, .T. ) ;
#476 = LINE ( 'NONE', #335, #130 ) ;
#477 = ORIENTED_EDGE ( 'NONE', *, *, #187, .T. ) ;
#478 = VECTOR ( 'NONE', #377, 1000.000000000000114 ) ;
#479 = DIRECTION ( 'NONE',  ( 1.000000000000000000, 0.000000000000000000, 0.000000000000000000 ) ) ;
#480 = CARTESIAN_POINT ( 'NONE',  ( 0.000000000000000000, 0.000000000000000000, -14.00000000000000000 ) ) ;
#481 = ORIENTED_EDGE ( 'NONE', *, *, #611, .T. ) ;
#482 = CARTESIAN_POINT ( 'NONE',  ( -1.000000000000000000, 0.5773502691896260641, 1.399999999999999911 ) ) ;
#483 = DIRECTION ( 'NONE',  ( 0.000000000000000000, 0.000000000000000000, 1.000000000000000000 ) ) ;
#484 = EDGE_CURVE ( 'NONE', #309, #565, #314, .T. ) ;
#485 = EDGE_LOOP ( 'NONE', ( #207, #526, #447, #497 ) ) ;
#486 = DIRECTION ( 'NONE',  ( 0.000000000000000000, 0.000000000000000000, -1.000000000000000000 ) ) ;
#487 = CARTESIAN_POINT ( 'NONE',  ( -1.000000000000000000, 0.5773502691896260641, 0.4000000000000000222 ) ) ;
#488 = ORIENTED_EDGE ( 'NONE', *, *, #155, .T. ) ;
#489 = PRODUCT_DEFINITION_SHAPE ( 'NONE', 'NONE',  #393 ) ;
#490 = VERTEX_POINT ( 'NONE', #219 ) ;
#491 = CARTESIAN_POINT ( 'NONE',  ( -6.636751280584820239E-16, 0.001962786217855509892, 0.4000000000000000222 ) ) ;
#492 = DIRECTION ( 'NONE',  ( 0.8660254037844387076, -0.4999999999999998890, 0.000000000000000000 ) ) ;
#493 = EDGE_LOOP ( 'NONE', ( #36, #101, #356, #385, #92, #325 ) ) ;
#494 = ORIENTED_EDGE ( 'NONE', *, *, #229, .F. ) ;
#495 = CARTESIAN_POINT ( 'NONE',  ( -1.000000000000000000, -0.5773502691896260641, 0.4000000000000000222 ) ) ;
#496 = DIRECTION ( 'NONE',  ( -1.000000000000000000, 0.000000000000000000, 0.000000000000000000 ) ) ;
#497 = ORIENTED_EDGE ( 'NONE', *, *, #575, .F. ) ;
#498 = CARTESIAN_POINT ( 'NONE',  ( -2.004758377710914985E-16, 1.154700538379252128, 0.9763688760806910061 ) ) ;
#499 = DIRECTION ( 'NONE',  ( 1.000000000000000000, 0.000000000000000000, 0.000000000000000000 ) ) ;
#500 = ADVANCED_FACE ( 'NONE', ( #173 ), #532, .T. ) ;
#501 = VECTOR ( 'NONE', #579, 1000.000000000000000 ) ;
#502 = CARTESIAN_POINT ( 'NONE',  ( 1.000000000000000000, -0.5773502691896260641, 0.9763688760806910061 ) ) ;
#503 = VECTOR ( 'NONE', #13, 999.9999999999998863 ) ;
#504 = ORIENTED_EDGE ( 'NONE', *, *, #513, .T. ) ;
#505 = CARTESIAN_POINT ( 'NONE',  ( -2.850000000000000089, 3.490243377569954582E-16, 0.000000000000000000 ) ) ;
#506 = VECTOR ( 'NONE', #603, 1000.000000000000000 ) ;
#507 = ADVANCED_FACE ( 'NONE', ( #515 ), #223, .F. ) ;
#508 = FACE_OUTER_BOUND ( 'NONE', #112, .T. ) ;
#509 = CIRCLE ( 'NONE', #310, 1.500000000000000000 ) ;
#510 = EDGE_CURVE ( 'NONE', #438, #268, #29, .T. ) ;
#511 = DIRECTION ( 'NONE',  ( 0.2499999999999976685, 0.4330127018922157456, -0.8660254037844412611 ) ) ;
#512 = VECTOR ( 'NONE', #116, 1000.000000000000000 ) ;
#513 = EDGE_CURVE ( 'NONE', #606, #438, #372, .T. ) ;
#514 = DIRECTION ( 'NONE',  ( 0.000000000000000000, -0.8944271909999178538, 0.4472135954999539864 ) ) ;
#515 = FACE_OUTER_BOUND ( 'NONE', #363, .T. ) ;
#516 = VERTEX_POINT ( 'NONE', #227 ) ;
#517 = VERTEX_POINT ( 'NONE', #118 ) ;
#518 = CARTESIAN_POINT ( 'NONE',  ( 0.000000000000000000, 0.000000000000000000, -0.1000000000000000056 ) ) ;
#519 = LINE ( 'NONE', #228, #56 ) ;
#520 = DIRECTION ( 'NONE',  ( 0.000000000000000000, 1.000000000000000000, 0.000000000000000000 ) ) ;
#521 = FACE_OUTER_BOUND ( 'NONE', #142, .T. ) ;
#522 = ADVANCED_FACE ( 'NONE', ( #571 ), #636, .F. ) ;
#523 = STYLED_ITEM ( 'NONE', ( #349 ), #252 ) ;
#524 = CARTESIAN_POINT ( 'NONE',  ( 1.449999999999999956, 0.000000000000000000, 0.000000000000000000 ) ) ;
#525 = DIRECTION ( 'NONE',  ( -0.9607689228305237306, 0.000000000000000000, 0.2773500981126114096 ) ) ;
#526 = ORIENTED_EDGE ( 'NONE', *, *, #616, .T. ) ;
#527 = AXIS2_PLACEMENT_3D ( 'NONE', #192, #642, #84 ) ;
#528 = CARTESIAN_POINT ( 'NONE',  ( 0.001359858181488441927, 0.0007851144871420049623, 0.3998037213782145161 ) ) ;
#529 = DIRECTION ( 'NONE',  ( 1.000000000000000000, 0.000000000000000000, 0.000000000000000000 ) ) ;
#530 = AXIS2_PLACEMENT_3D ( 'NONE', #294, #440, #496 ) ;
#531 = ORIENTED_EDGE ( 'NONE', *, *, #334, .F. ) ;
#532 = TOROIDAL_SURFACE ( 'NONE', #79, 1.449999999999999956, 1.399999999999999911 ) ;
#533 = DIRECTION ( 'NONE',  ( 0.000000000000000000, 0.000000000000000000, 1.000000000000000000 ) ) ;
#534 = EDGE_CURVE ( 'NONE', #394, #414, #383, .T. ) ;
#535 = LINE ( 'NONE', #324, #501 ) ;
#536 = EDGE_CURVE ( 'NONE', #25, #394, #170, .T. ) ;
#537 = EDGE_LOOP ( 'NONE', ( #311, #71, #433, #494 ) ) ;
#538 = PLANE ( 'NONE',  #614 ) ;
#539 = PRODUCT ( '\X2\5185516d89d25e735706593487ba9489\X0\ M3x14A', '\X2\5185516d89d25e735706593487ba9489\X0\ M3x14A', '', ( #364 ) ) ;
#540 = CARTESIAN_POINT ( 'NONE',  ( -1.000000000000000000, -0.5773502691896260641, 0.9763688760806910061 ) ) ;
#541 = EDGE_CURVE ( 'NONE', #565, #580, #362, .T. ) ;
#542 = ORIENTED_EDGE ( 'NONE', *, *, #181, .T. ) ;
#543 = CARTESIAN_POINT ( 'NONE',  ( 0.000000000000000000, 0.000000000000000000, -14.00000000000000000 ) ) ;
#544 = ADVANCED_FACE ( 'NONE', ( #93 ), #627, .T. ) ;
#545 = VERTEX_POINT ( 'NONE', #37 ) ;
#546 = DIRECTION ( 'NONE',  ( 1.000000000000000000, 0.000000000000000000, 0.000000000000000000 ) ) ;
#547 = DIRECTION ( 'NONE',  ( 0.7071067811865441310, 0.000000000000000000, 0.7071067811865510144 ) ) ;
#548 = EDGE_LOOP ( 'NONE', ( #553, #43 ) ) ;
#549 = CARTESIAN_POINT ( 'NONE',  ( -1.449999999999999956, 2.632990618166810221E-16, 1.399999999999999911 ) ) ;
#550 = EDGE_CURVE ( 'NONE', #282, #195, #445, .T. ) ;
#551 = DIRECTION ( 'NONE',  ( 0.8660254037844387076, 0.4999999999999998890, 0.000000000000000000 ) ) ;
#552 = SURFACE_SIDE_STYLE ('',( #139 ) ) ;
#553 = ORIENTED_EDGE ( 'NONE', *, *, #585, .F. ) ;
#554 = VECTOR ( 'NONE', #650, 1000.000000000000114 ) ;
#555 = AXIS2_PLACEMENT_3D ( 'NONE', #284, #216, #275 ) ;
#556 = FACE_OUTER_BOUND ( 'NONE', #32, .T. ) ;
#557 = EDGE_CURVE ( 'NONE', #246, #612, #54, .T. ) ;
#558 = EDGE_LOOP ( 'NONE', ( #306, #368, #399, #598 ) ) ;
#559 = DIRECTION ( 'NONE',  ( 0.000000000000000000, -1.000000000000000000, 0.000000000000000000 ) ) ;
#560 = TOROIDAL_SURFACE ( 'NONE', #469, 1.600000000000000089, 0.1000000000000000056 ) ;
#561 = VERTEX_POINT ( 'NONE', #442 ) ;
#562 = PLANE ( 'NONE',  #622 ) ;
#563 = VECTOR ( 'NONE', #188, 1000.000000000000114 ) ;
#564 = EDGE_CURVE ( 'NONE', #612, #246, #344, .T. ) ;
#565 = VERTEX_POINT ( 'NONE', #196 ) ;
#566 = DIRECTION ( 'NONE',  ( 0.000000000000000000, 0.000000000000000000, 1.000000000000000000 ) ) ;
#567 = VECTOR ( 'NONE', #353, 1000.000000000000000 ) ;
#568 = AXIS2_PLACEMENT_3D ( 'NONE', #203, #162, #369 ) ;
#569 = ORIENTED_EDGE ( 'NONE', *, *, #209, .F. ) ;
#570 = PLANE ( 'NONE',  #249 ) ;
#571 = FACE_OUTER_BOUND ( 'NONE', #191, .T. ) ;
#572 = DIRECTION ( 'NONE',  ( -1.000000000000000000, 0.000000000000000000, 0.000000000000000000 ) ) ;
#573 = DIRECTION ( 'NONE',  ( 0.000000000000000000, 0.000000000000000000, 1.000000000000000000 ) ) ;
#574 = DIRECTION ( 'NONE',  ( 0.000000000000000000, -0.8944271909999180759, 0.4472135954999535978 ) ) ;
#575 = EDGE_CURVE ( 'NONE', #612, #120, #220, .T. ) ;
#576 = LINE ( 'NONE', #22, #402 ) ;
#577 = CARTESIAN_POINT ( 'NONE',  ( 0.0008499113634303930541, -0.001472089663391575824, 0.4000000000000000222 ) ) ;
#578 = LINE ( 'NONE', #326, #503 ) ;
#579 = DIRECTION ( 'NONE',  ( -0.8660254037844387076, -0.4999999999999998890, 0.000000000000000000 ) ) ;
#580 = VERTEX_POINT ( 'NONE', #549 ) ;
#581 = DIRECTION ( 'NONE',  ( -0.8660254037844392627, 0.000000000000000000, 0.4999999999999990008 ) ) ;
#582 = DIRECTION ( 'NONE',  ( -1.000000000000000000, 0.000000000000000000, 0.000000000000000000 ) ) ;
#583 = VECTOR ( 'NONE', #661, 1000.000000000000000 ) ;
#584 = ORIENTED_EDGE ( 'NONE', *, *, #510, .T. ) ;
#585 = EDGE_CURVE ( 'NONE', #309, #288, #472, .T. ) ;
#586 = CARTESIAN_POINT ( 'NONE',  ( -1.600000000000000089, 1.959434878635764984E-16, -0.1000000000000000056 ) ) ;
#587 = DIRECTION ( 'NONE',  ( -1.000000000000000000, 0.000000000000000000, 0.000000000000000000 ) ) ;
#588 = ORIENTED_EDGE ( 'NONE', *, *, #233, .F. ) ;
#589 = CARTESIAN_POINT ( 'NONE',  ( 0.000000000000000000, 0.000000000000000000, 1.399999999999999911 ) ) ;
#590 = CIRCLE ( 'NONE', #102, 1.500000000000000000 ) ;
#591 = LINE ( 'NONE', #487, #583 ) ;
#592 = AXIS2_PLACEMENT_3D ( 'NONE', #58, #302, #410 ) ;
#593 = AXIS2_PLACEMENT_3D ( 'NONE', #543, #348, #386 ) ;
#594 = VERTEX_POINT ( 'NONE', #491 ) ;
#595 = DIRECTION ( 'NONE',  ( 0.8660254037844387076, -0.4999999999999998890, 0.000000000000000000 ) ) ;
#596 = LINE ( 'NONE', #144, #215 ) ;
#597 = ADVANCED_FACE ( 'NONE', ( #296 ), #647, .F. ) ;
#598 = ORIENTED_EDGE ( 'NONE', *, *, #633, .F. ) ;
#599 = DIRECTION ( 'NONE',  ( 0.000000000000000000, 0.000000000000000000, 1.000000000000000000 ) ) ;
#600 = VECTOR ( 'NONE', #365, 1000.000000000000000 ) ;
#601 = DIRECTION ( 'NONE',  ( 1.000000000000000000, 0.000000000000000000, 0.000000000000000000 ) ) ;
#602 = ORIENTED_EDGE ( 'NONE', *, *, #638, .T. ) ;
#603 = DIRECTION ( 'NONE',  ( -0.8660254037844387076, 0.4999999999999998890, 0.000000000000000000 ) ) ;
#604 = ORIENTED_EDGE ( 'NONE', *, *, #541, .F. ) ;
#605 = FACE_BOUND ( 'NONE', #643, .T. ) ;
#606 = VERTEX_POINT ( 'NONE', #498 ) ;
#607 = SHAPE_DEFINITION_REPRESENTATION ( #489, #31 ) ;
#608 = CYLINDRICAL_SURFACE ( 'NONE', #568, 1.500000000000000000 ) ;
#609 = ORIENTED_EDGE ( 'NONE', *, *, #233, .T. ) ;
#610 = AXIS2_PLACEMENT_3D ( 'NONE', #50, #5, #63 ) ;
#611 = EDGE_CURVE ( 'NONE', #606, #416, #45, .T. ) ;
#612 = VERTEX_POINT ( 'NONE', #128 ) ;
#613 = DIRECTION ( 'NONE',  ( 0.000000000000000000, 0.000000000000000000, 1.000000000000000000 ) ) ;
#614 = AXIS2_PLACEMENT_3D ( 'NONE', #495, #333, #133 ) ;
#615 = ADVANCED_FACE ( 'NONE', ( #143 ), #247, .T. ) ;
#616 = EDGE_CURVE ( 'NONE', #246, #490, #193, .T. ) ;
#617 = CARTESIAN_POINT ( 'NONE',  ( 1.000000000000000000, 0.5773502691896260641, 1.399999999999999911 ) ) ;
#618 = CIRCLE ( 'NONE', #336, 1.449999999999999956 ) ;
#619 = ORIENTED_EDGE ( 'NONE', *, *, #513, .F. ) ;
#620 = LINE ( 'NONE', #528, #478 ) ;
#621 = CARTESIAN_POINT ( 'NONE',  ( 0.000000000000000000, 0.000000000000000000, -13.70000000000000107 ) ) ;
#622 = AXIS2_PLACEMENT_3D ( 'NONE', #312, #205, #10 ) ;
#623 = ORIENTED_EDGE ( 'NONE', *, *, #585, .T. ) ;
#624 = DIRECTION ( 'NONE',  ( 0.000000000000000000, 0.000000000000000000, 1.000000000000000000 ) ) ;
#625 = ADVANCED_FACE ( 'NONE', ( #448 ), #538, .F. ) ;
#626 = DIRECTION ( 'NONE',  ( 0.000000000000000000, 0.000000000000000000, 1.000000000000000000 ) ) ;
#627 = CONICAL_SURFACE ( 'NONE', #255, 1.199999999999999956, 0.7853981633974433940 ) ;
#628 = ORIENTED_EDGE ( 'NONE', *, *, #460, .F. ) ;
#629 = LINE ( 'NONE', #66, #281 ) ;
#630 = CARTESIAN_POINT ( 'NONE',  ( -0.001359858181487954036, 0.0007851144871427240051, 0.3998037213782145161 ) ) ;
#631 = DIRECTION ( 'NONE',  ( 0.000000000000000000, -1.000000000000000000, 0.000000000000000000 ) ) ;
#632 = FACE_OUTER_BOUND ( 'NONE', #558, .T. ) ;
#633 = EDGE_CURVE ( 'NONE', #28, #318, #339, .T. ) ;
#634 = ORIENTED_EDGE ( 'NONE', *, *, #181, .F. ) ;
#635 = ORIENTED_EDGE ( 'NONE', *, *, #633, .T. ) ;
#636 = PLANE ( 'NONE',  #450 ) ;
#637 = CARTESIAN_POINT ( 'NONE',  ( -1.199999999999999956, 1.653273178848924895E-16, -14.00000000000000000 ) ) ;
#638 = EDGE_CURVE ( 'NONE', #120, #490, #509, .T. ) ;
#639 = VERTEX_POINT ( 'NONE', #243 ) ;
#640 = EDGE_CURVE ( 'NONE', #288, #580, #24, .T. ) ;
#641 = VERTEX_POINT ( 'NONE', #644 ) ;
#642 = DIRECTION ( 'NONE',  ( -1.000000000000000000, 0.000000000000000000, 0.000000000000000000 ) ) ;
#643 = EDGE_LOOP ( 'NONE', ( #332, #588, #167, #444, #178, #459 ) ) ;
#644 = CARTESIAN_POINT ( 'NONE',  ( 1.000000000000000000, 0.5773502691896260641, 1.399999999999999911 ) ) ;
#645 = ORIENTED_EDGE ( 'NONE', *, *, #419, .F. ) ;
#646 = ORIENTED_EDGE ( 'NONE', *, *, #94, .T. ) ;
#647 = PLANE ( 'NONE',  #527 ) ;
#648 = VECTOR ( 'NONE', #492, 1000.000000000000000 ) ;
#649 = EDGE_CURVE ( 'NONE', #268, #517, #283, .T. ) ;
#650 = DIRECTION ( 'NONE',  ( -0.7745966692414851806, 0.4472135954999590934, -0.4472135954999535978 ) ) ;
#651 = AXIS2_PLACEMENT_3D ( 'NONE', #403, #81, #439 ) ;
#652 = ORIENTED_EDGE ( 'NONE', *, *, #218, .T. ) ;
#653 = AXIS2_PLACEMENT_3D ( 'NONE', #436, #236, #289 ) ;
#654 = ORIENTED_EDGE ( 'NONE', *, *, #271, .F. ) ;
#655 = DIRECTION ( 'NONE',  ( 0.000000000000000000, 0.000000000000000000, 1.000000000000000000 ) ) ;
#656 = AXIS2_PLACEMENT_3D ( 'NONE', #18, #77, #376 ) ;
#657 = CARTESIAN_POINT ( 'NONE',  ( 1.000000000000000000, -0.5773502691896260641, 1.399999999999999911 ) ) ;
#658 = EDGE_LOOP ( 'NONE', ( #83, #11, #337, #33 ) ) ;
#659 = CARTESIAN_POINT ( 'NONE',  ( 4.677021866404049821E-16, -1.154700538379252128, 0.9763688760806920053 ) ) ;
#660 = AXIS2_PLACEMENT_3D ( 'NONE', #259, #273, #581 ) ;
#661 = DIRECTION ( 'NONE',  ( 0.000000000000000000, 0.000000000000000000, 1.000000000000000000 ) ) ;
ENDSEC;
END-ISO-10303-21;
