ISO-10303-21;
HEADER;
FILE_DESCRIPTION (( 'STEP AP214' ),
    '1' );
FILE_NAME ('ÄÚÁù½ÇÔ²ÖùÍ·ÂÝ¶¤ M3x20A.STEP',
    '2026-08-16T17:26:59',
    ( '' ),
    ( '' ),
    'SwSTEP 2.0',
    'SolidWorks 2025',
    '' );
FILE_SCHEMA (( 'AUTOMOTIVE_DESIGN' ));
ENDSEC;

DATA;
#1 = EDGE_LOOP ( 'NONE', ( #75, #122, #662, #687 ) ) ;
#2 = DIRECTION ( 'NONE',  ( 1.000000000000000000, 0.000000000000000000, 0.000000000000000000 ) ) ;
#3 = DIRECTION ( 'NONE',  ( 0.8660254037844387076, -0.4999999999999998890, 0.000000000000000000 ) ) ;
#4 = ADVANCED_FACE ( 'NONE', ( #572 ), #126, .T. ) ;
#5 = ORIENTED_EDGE ( 'NONE', *, *, #574, .T. ) ;
#6 = DIRECTION ( 'NONE',  ( -0.7745966692414859578, 0.4472135954999594820, 0.4472135954999519325 ) ) ;
#7 = PRODUCT_DEFINITION_FORMATION_WITH_SPECIFIED_SOURCE ( 'å¯', '', #171, .NOT_KNOWN. ) ;
#8 = UNCERTAINTY_MEASURE_WITH_UNIT (LENGTH_MEASURE( 1.000000000000000082E-05 ), #364, 'distance_accuracy_value', 'NONE');
#9 = AXIS2_PLACEMENT_3D ( 'NONE', #337, #550, #167 ) ;
#10 = ORIENTED_EDGE ( 'NONE', *, *, #661, .T. ) ;
#11 = PRODUCT_CONTEXT ( 'NONE', #544, 'mechanical' ) ;
#12 = CARTESIAN_POINT ( 'NONE',  ( 1.300000000000000044, -0.7505553499465139611, 1.699999999999999956 ) ) ;
#13 = CIRCLE ( 'NONE', #500, 1.600000000000000089 ) ;
#14 = DIRECTION ( 'NONE',  ( -1.444533268016499903E-16, 1.000000000000000000, 0.000000000000000000 ) ) ;
#15 = ORIENTED_EDGE ( 'NONE', *, *, #702, .F. ) ;
#16 = APPLICATION_PROTOCOL_DEFINITION ( 'draft international standard', 'automotive_design', 1998, #544 ) ;
#17 = AXIS2_PLACEMENT_3D ( 'NONE', #412, #26, #300 ) ;
#18 = CARTESIAN_POINT ( 'NONE',  ( -1.300000000000000044, -0.7505553499465130729, 1.699999999999999956 ) ) ;
#19 = DIRECTION ( 'NONE',  ( 0.000000000000000000, -1.000000000000000000, 0.000000000000000000 ) ) ;
#20 = AXIS2_PLACEMENT_3D ( 'NONE', #425, #99, #209 ) ;
#21 = EDGE_CURVE ( 'NONE', #121, #368, #625, .T. ) ;
#22 = CARTESIAN_POINT ( 'NONE',  ( 0.000000000000000000, 0.000000000000000000, -20.00000000000000000 ) ) ;
#23 = DIRECTION ( 'NONE',  ( -1.000000000000000000, 0.000000000000000000, 0.000000000000000000 ) ) ;
#24 = ORIENTED_EDGE ( 'NONE', *, *, #263, .F. ) ;
#25 = EDGE_CURVE ( 'NONE', #475, #453, #492, .T. ) ;
#26 = DIRECTION ( 'NONE',  ( 0.000000000000000000, 0.000000000000000000, -1.000000000000000000 ) ) ;
#27 = DIRECTION ( 'NONE',  ( 0.000000000000000000, 0.000000000000000000, -1.000000000000000000 ) ) ;
#28 = ORIENTED_EDGE ( 'NONE', *, *, #430, .T. ) ;
#29 = DIRECTION ( 'NONE',  ( -1.000000000000000000, 0.000000000000000000, 0.000000000000000000 ) ) ;
#30 = FACE_OUTER_BOUND ( 'NONE', #140, .T. ) ;
#31 = EDGE_LOOP ( 'NONE', ( #376, #275, #423, #631 ) ) ;
#32 = DIRECTION ( 'NONE',  ( -0.8660254037844420383, 0.000000000000000000, 0.4999999999999941158 ) ) ;
#33 = PLANE ( 'NONE',  #54 ) ;
#34 = ORIENTED_EDGE ( 'NONE', *, *, #523, .T. ) ;
#35 = EDGE_LOOP ( 'NONE', ( #181, #106 ) ) ;
#36 = DIRECTION ( 'NONE',  ( 1.000000000000000000, 0.000000000000000000, 0.000000000000000000 ) ) ;
#37 = LINE ( 'NONE', #539, #64 ) ;
#38 = VECTOR ( 'NONE', #497, 1000.000000000000000 ) ;
#39 = ORIENTED_EDGE ( 'NONE', *, *, #57, .T. ) ;
#40 = CARTESIAN_POINT ( 'NONE',  ( 0.001104884772457969972, 0.001913716562406384903, 1.699999999999999956 ) ) ;
#41 = CARTESIAN_POINT ( 'NONE',  ( -2.750000000000000000, 0.000000000000000000, 0.000000000000000000 ) ) ;
#42 = CIRCLE ( 'NONE', #585, 1.600000000000000089 ) ;
#43 = EDGE_CURVE ( 'NONE', #269, #453, #276, .T. ) ;
#44 = VERTEX_POINT ( 'NONE', #134 ) ;
#45 = DIRECTION ( 'NONE',  ( 0.000000000000000000, 0.000000000000000000, 1.000000000000000000 ) ) ;
#46 = LINE ( 'NONE', #180, #441 ) ;
#47 = ORIENTED_EDGE ( 'NONE', *, *, #282, .T. ) ;
#48 = ORIENTED_EDGE ( 'NONE', *, *, #282, .F. ) ;
#49 = CARTESIAN_POINT ( 'NONE',  ( 0.000000000000000000, 0.000000000000000000, -20.00000000000000000 ) ) ;
#50 = AXIS2_PLACEMENT_3D ( 'NONE', #409, #196, #458 ) ;
#51 = FACE_OUTER_BOUND ( 'NONE', #153, .T. ) ;
#52 = LINE ( 'NONE', #312, #542 ) ;
#53 = ADVANCED_FACE ( 'NONE', ( #689 ), #683, .T. ) ;
#54 = AXIS2_PLACEMENT_3D ( 'NONE', #564, #194, #235 ) ;
#55 = DIRECTION ( 'NONE',  ( 0.000000000000000000, 0.000000000000000000, -1.000000000000000000 ) ) ;
#56 = DIRECTION ( 'NONE',  ( 1.000000000000000000, 0.000000000000000000, 0.000000000000000000 ) ) ;
#57 = EDGE_CURVE ( 'NONE', #236, #519, #190, .T. ) ;
#58 = EDGE_LOOP ( 'NONE', ( #439, #516, #93, #609 ) ) ;
#59 = CARTESIAN_POINT ( 'NONE',  ( 1.129916623503601953E-16, -1.501110699893025036, 3.000000000000000000 ) ) ;
#60 = FACE_OUTER_BOUND ( 'NONE', #678, .T. ) ;
#61 = DIRECTION ( 'NONE',  ( 0.000000000000000000, 0.000000000000000000, 1.000000000000000000 ) ) ;
#62 = DIRECTION ( 'NONE',  ( -1.146633409319815861E-16, 0.8944271909999189640, -0.4472135954999519325 ) ) ;
#63 = AXIS2_PLACEMENT_3D ( 'NONE', #575, #27, #23 ) ;
#64 = VECTOR ( 'NONE', #215, 999.9999999999998863 ) ;
#65 = VERTEX_POINT ( 'NONE', #198 ) ;
#66 = LINE ( 'NONE', #59, #192 ) ;
#67 = EDGE_CURVE ( 'NONE', #475, #253, #78, .T. ) ;
#68 = DIRECTION ( 'NONE',  ( -1.000000000000000000, 0.000000000000000000, 0.000000000000000000 ) ) ;
#69 = EDGE_CURVE ( 'NONE', #220, #455, #362, .T. ) ;
#70 = ORIENTED_EDGE ( 'NONE', *, *, #360, .T. ) ;
#71 = COLOUR_RGB ( '',0.7921568627450980005, 0.8196078431372548767, 0.9333333333333333481 ) ;
#72 = DIRECTION ( 'NONE',  ( 1.000000000000000000, 0.000000000000000000, 0.000000000000000000 ) ) ;
#73 = FACE_OUTER_BOUND ( 'NONE', #58, .T. ) ;
#74 = VECTOR ( 'NONE', #3, 1000.000000000000000 ) ;
#75 = ORIENTED_EDGE ( 'NONE', *, *, #295, .F. ) ;
#76 = CARTESIAN_POINT ( 'NONE',  ( 0.000000000000000000, 0.000000000000000000, -0.1000000000000000056 ) ) ;
#77 = CARTESIAN_POINT ( 'NONE',  ( -1.300000000000000044, 0.7505553499465139611, 3.000000000000000000 ) ) ;
#78 = LINE ( 'NONE', #246, #461 ) ;
#79 = EDGE_CURVE ( 'NONE', #453, #269, #398, .T. ) ;
#80 = CARTESIAN_POINT ( 'NONE',  ( -1.300000000000000044, 0.7505553499465139611, 3.000000000000000000 ) ) ;
#81 = ORIENTED_EDGE ( 'NONE', *, *, #191, .T. ) ;
#82 = ORIENTED_EDGE ( 'NONE', *, *, #375, .F. ) ;
#83 = CARTESIAN_POINT ( 'NONE',  ( -2.326923076923074873, 2.849658898015954420E-16, 2.576923076923075318 ) ) ;
#84 = PLANE ( 'NONE',  #664 ) ;
#85 = PLANE ( 'NONE',  #202 ) ;
#86 = AXIS2_PLACEMENT_3D ( 'NONE', #138, #466, #621 ) ;
#87 = VERTEX_POINT ( 'NONE', #183 ) ;
#88 = EDGE_LOOP ( 'NONE', ( #15, #655, #175, #157 ) ) ;
#89 = ORIENTED_EDGE ( 'NONE', *, *, #213, .F. ) ;
#90 = DIRECTION ( 'NONE',  ( -0.2499999999999970857, -0.4330127018922138582, -0.8660254037844422603 ) ) ;
#91 = DIRECTION ( 'NONE',  ( 0.000000000000000000, 0.000000000000000000, 1.000000000000000000 ) ) ;
#92 = ORIENTED_EDGE ( 'NONE', *, *, #135, .T. ) ;
#93 = ORIENTED_EDGE ( 'NONE', *, *, #115, .T. ) ;
#94 = PRESENTATION_STYLE_ASSIGNMENT (( #479 ) ) ;
#95 = DIRECTION ( 'NONE',  ( 1.000000000000000000, 0.000000000000000000, 0.000000000000000000 ) ) ;
#96 = CONICAL_SURFACE ( 'NONE', #494, 1.125000000000000000, 0.7853981633974518317 ) ;
#97 = ORIENTED_EDGE ( 'NONE', *, *, #309, .F. ) ;
#98 = DIRECTION ( 'NONE',  ( 0.000000000000000000, 0.000000000000000000, 1.000000000000000000 ) ) ;
#99 = DIRECTION ( 'NONE',  ( 0.000000000000000000, 0.000000000000000000, 1.000000000000000000 ) ) ;
#100 = MECHANICAL_DESIGN_GEOMETRIC_PRESENTATION_REPRESENTATION (  '', ( #532 ), #259 ) ;
#101 = ORIENTED_EDGE ( 'NONE', *, *, #67, .F. ) ;
#102 = FACE_OUTER_BOUND ( 'NONE', #432, .T. ) ;
#103 = ADVANCED_FACE ( 'NONE', ( #30 ), #243, .F. ) ;
#104 = DIRECTION ( 'NONE',  ( 0.000000000000000000, 0.000000000000000000, 1.000000000000000000 ) ) ;
#105 = VECTOR ( 'NONE', #19, 1000.000000000000000 ) ;
#106 = ORIENTED_EDGE ( 'NONE', *, *, #548, .T. ) ;
#107 = ADVANCED_FACE ( 'NONE', ( #294 ), #33, .F. ) ;
#108 = DIRECTION ( 'NONE',  ( 1.444533268016499903E-16, -1.000000000000000000, 0.000000000000000000 ) ) ;
#109 = AXIS2_PLACEMENT_3D ( 'NONE', #429, #383, #95 ) ;
#110 = DIRECTION ( 'NONE',  ( 0.000000000000000000, 0.000000000000000000, 1.000000000000000000 ) ) ;
#111 = EDGE_LOOP ( 'NONE', ( #389, #603, #48, #338, #709, #396 ) ) ;
#112 = DIRECTION ( 'NONE',  ( 0.000000000000000000, 0.000000000000000000, 1.000000000000000000 ) ) ;
#113 = CARTESIAN_POINT ( 'NONE',  ( 0.000000000000000000, 0.000000000000000000, -0.1000000000000000056 ) ) ;
#114 = ADVANCED_FACE ( 'NONE', ( #305 ), #85, .F. ) ;
#115 = EDGE_CURVE ( 'NONE', #614, #647, #185, .T. ) ;
#116 = ORIENTED_EDGE ( 'NONE', *, *, #57, .F. ) ;
#117 = FACE_OUTER_BOUND ( 'NONE', #356, .T. ) ;
#118 = ADVANCED_FACE ( 'NONE', ( #459, #406 ), #130, .F. ) ;
#119 = LINE ( 'NONE', #660, #217 ) ;
#120 = ORIENTED_EDGE ( 'NONE', *, *, #548, .F. ) ;
#121 = VERTEX_POINT ( 'NONE', #268 ) ;
#122 = ORIENTED_EDGE ( 'NONE', *, *, #199, .F. ) ;
#123 = DIRECTION ( 'NONE',  ( 0.000000000000000000, 0.000000000000000000, 1.000000000000000000 ) ) ;
#124 = ORIENTED_EDGE ( 'NONE', *, *, #43, .F. ) ;
#125 = DIRECTION ( 'NONE',  ( 1.000000000000000000, 0.000000000000000000, 0.000000000000000000 ) ) ;
#126 = PLANE ( 'NONE',  #431 ) ;
#127 = VECTOR ( 'NONE', #604, 1000.000000000000000 ) ;
#128 = VECTOR ( 'NONE', #477, 1000.000000000000000 ) ;
#129 = CARTESIAN_POINT ( 'NONE',  ( 1.129916623503601953E-16, -1.501110699893025036, 1.699999999999999956 ) ) ;
#130 = PLANE ( 'NONE',  #599 ) ;
#131 = ORIENTED_EDGE ( 'NONE', *, *, #576, .T. ) ;
#132 = ORIENTED_EDGE ( 'NONE', *, *, #178, .T. ) ;
#133 = DIRECTION ( 'NONE',  ( 1.224646799147351975E-16, 1.000000000000000000, 0.000000000000000000 ) ) ;
#134 = CARTESIAN_POINT ( 'NONE',  ( 1.300000000000000044, -0.7505553499465139611, 2.449279538904895137 ) ) ;
#135 = EDGE_CURVE ( 'NONE', #367, #269, #291, .T. ) ;
#136 = DIRECTION ( 'NONE',  ( 0.000000000000000000, -1.000000000000000000, 0.000000000000000000 ) ) ;
#137 = AXIS2_PLACEMENT_3D ( 'NONE', #274, #110, #333 ) ;
#138 = CARTESIAN_POINT ( 'NONE',  ( 0.001104884772458159924, -0.001913716562406710163, 1.699999999999999956 ) ) ;
#139 = ORIENTED_EDGE ( 'NONE', *, *, #79, .T. ) ;
#140 = EDGE_LOOP ( 'NONE', ( #257, #116, #635, #658 ) ) ;
#141 = DIRECTION ( 'NONE',  ( 0.2499999999999970024, 0.4330127018922141913, -0.8660254037844421493 ) ) ;
#142 = CARTESIAN_POINT ( 'NONE',  ( 0.000000000000000000, 0.000000000000000000, 3.000000000000000000 ) ) ;
#143 = VECTOR ( 'NONE', #348, 1000.000000000000000 ) ;
#144 = VECTOR ( 'NONE', #594, 1000.000000000000000 ) ;
#145 = ORIENTED_EDGE ( 'NONE', *, *, #252, .F. ) ;
#146 = PLANE ( 'NONE',  #590 ) ;
#147 = DIRECTION ( 'NONE',  ( 1.000000000000000000, 0.000000000000000000, 0.000000000000000000 ) ) ;
#148 = ADVANCED_FACE ( 'NONE', ( #161 ), #530, .T. ) ;
#149 = ORIENTED_EDGE ( 'NONE', *, *, #204, .T. ) ;
#150 = DIRECTION ( 'NONE',  ( 0.000000000000000000, 0.000000000000000000, 1.000000000000000000 ) ) ;
#151 = LINE ( 'NONE', #373, #254 ) ;
#152 = VECTOR ( 'NONE', #671, 1000.000000000000000 ) ;
#153 = EDGE_LOOP ( 'NONE', ( #537, #669, #124, #642 ) ) ;
#154 = CARTESIAN_POINT ( 'NONE',  ( 1.300000000000000044, 0.7505553499465139611, 2.449279538904895137 ) ) ;
#155 = LINE ( 'NONE', #370, #541 ) ;
#156 = VECTOR ( 'NONE', #399, 1000.000000000000000 ) ;
#157 = ORIENTED_EDGE ( 'NONE', *, *, #691, .T. ) ;
#158 = DIRECTION ( 'NONE',  ( 1.000000000000000000, 0.000000000000000000, 0.000000000000000000 ) ) ;
#159 = CARTESIAN_POINT ( 'NONE',  ( 1.300000000000000044, -0.7505553499465139611, 3.000000000000000000 ) ) ;
#160 = VECTOR ( 'NONE', #372, 1000.000000000000000 ) ;
#161 = FACE_OUTER_BOUND ( 'NONE', #692, .T. ) ;
#162 = CIRCLE ( 'NONE', #17, 2.750000000000000000 ) ;
#163 = ORIENTED_EDGE ( 'NONE', *, *, #467, .T. ) ;
#164 = CARTESIAN_POINT ( 'NONE',  ( 1.686395287559215114E-16, 1.501110699893025036, 2.449279538904895137 ) ) ;
#165 = ORIENTED_EDGE ( 'NONE', *, *, #115, .F. ) ;
#166 = DIRECTION ( 'NONE',  ( 0.000000000000000000, 0.000000000000000000, 1.000000000000000000 ) ) ;
#167 = DIRECTION ( 'NONE',  ( 1.000000000000000000, 0.000000000000000000, 0.000000000000000000 ) ) ;
#168 = EDGE_CURVE ( 'NONE', #545, #297, #155, .T. ) ;
#169 = EDGE_CURVE ( 'NONE', #475, #367, #634, .T. ) ;
#170 = PRESENTATION_LAYER_ASSIGNMENT (  '', '', ( #532 ) ) ;
#171 = PRODUCT ( '\X2\5185516d89d2570667f1593487ba9489\X0\ M3x20A', '\X2\5185516d89d2570667f1593487ba9489\X0\ M3x20A', '', ( #11 ) ) ;
#172 = DIRECTION ( 'NONE',  ( -1.444533268016499903E-16, 1.000000000000000000, 0.000000000000000000 ) ) ;
#173 = LINE ( 'NONE', #615, #654 ) ;
#174 = AXIS2_PLACEMENT_3D ( 'NONE', #674, #245, #456 ) ;
#175 = ORIENTED_EDGE ( 'NONE', *, *, #622, .T. ) ;
#176 = DIRECTION ( 'NONE',  ( 0.000000000000000000, 0.000000000000000000, 1.000000000000000000 ) ) ;
#177 = LINE ( 'NONE', #12, #156 ) ;
#178 = EDGE_CURVE ( 'NONE', #647, #258, #329, .T. ) ;
#179 = AXIS2_PLACEMENT_3D ( 'NONE', #260, #480, #535 ) ;
#180 = CARTESIAN_POINT ( 'NONE',  ( 0.001767815635932599820, -0.001020648833283751980, 1.699744837791679952 ) ) ;
#181 = ORIENTED_EDGE ( 'NONE', *, *, #636, .T. ) ;
#182 = CARTESIAN_POINT ( 'NONE',  ( 1.129916623503601953E-16, -1.501110699893025036, 3.000000000000000000 ) ) ;
#183 = CARTESIAN_POINT ( 'NONE',  ( -0.002209769544916265205, 0.001275811041604758009, 1.699999999999999956 ) ) ;
#184 = CARTESIAN_POINT ( 'NONE',  ( 1.300000000000000044, 0.7505553499465139611, 1.699999999999999956 ) ) ;
#185 = LINE ( 'NONE', #402, #143 ) ;
#186 = VECTOR ( 'NONE', #166, 1000.000000000000000 ) ;
#187 = ORIENTED_EDGE ( 'NONE', *, *, #169, .T. ) ;
#188 = AXIS2_PLACEMENT_3D ( 'NONE', #484, #91, #708 ) ;
#189 = LINE ( 'NONE', #77, #690 ) ;
#190 = LINE ( 'NONE', #239, #374 ) ;
#191 = EDGE_CURVE ( 'NONE', #371, #253, #421, .T. ) ;
#192 = VECTOR ( 'NONE', #656, 1000.000000000000000 ) ;
#193 = CARTESIAN_POINT ( 'NONE',  ( 1.500000000000000000, 0.000000000000000000, -0.1000000000000000056 ) ) ;
#194 = DIRECTION ( 'NONE',  ( 0.4999999999999941158, 7.222666340082397209E-17, -0.8660254037844420383 ) ) ;
#195 = EDGE_LOOP ( 'NONE', ( #70, #427, #163, #403 ) ) ;
#196 = DIRECTION ( 'NONE',  ( -1.000000000000000000, 0.000000000000000000, 0.000000000000000000 ) ) ;
#197 = AXIS2_PLACEMENT_3D ( 'NONE', #22, #293, #29 ) ;
#198 = CARTESIAN_POINT ( 'NONE',  ( -1.600000000000000089, 1.959434878635764984E-16, 3.049318610115480235E-16 ) ) ;
#199 = EDGE_CURVE ( 'NONE', #573, #44, #52, .T. ) ;
#200 = ORIENTED_EDGE ( 'NONE', *, *, #608, .F. ) ;
#201 = CARTESIAN_POINT ( 'NONE',  ( 0.000000000000000000, 0.000000000000000000, 2.576923076923075318 ) ) ;
#202 = AXIS2_PLACEMENT_3D ( 'NONE', #518, #633, #506 ) ;
#203 = VERTEX_POINT ( 'NONE', #159 ) ;
#204 = EDGE_CURVE ( 'NONE', #560, #258, #579, .T. ) ;
#205 = CARTESIAN_POINT ( 'NONE',  ( -0.001104884772458267911, 0.001913716562406899899, 1.699999999999999956 ) ) ;
#206 = CARTESIAN_POINT ( 'NONE',  ( -1.500000000000000000, 1.836970198721030181E-16, -19.62500000000000000 ) ) ;
#207 = ORIENTED_EDGE ( 'NONE', *, *, #263, .T. ) ;
#208 = CARTESIAN_POINT ( 'NONE',  ( 1.125000000000000000, 0.000000000000000000, -20.00000000000000000 ) ) ;
#209 = DIRECTION ( 'NONE',  ( -1.000000000000000000, 0.000000000000000000, 0.000000000000000000 ) ) ;
#210 = ORIENTED_EDGE ( 'NONE', *, *, #673, .T. ) ;
#211 = DIRECTION ( 'NONE',  ( 0.000000000000000000, 0.000000000000000000, 1.000000000000000000 ) ) ;
#212 = CYLINDRICAL_SURFACE ( 'NONE', #188, 1.500000000000000000 ) ;
#213 = EDGE_CURVE ( 'NONE', #697, #416, #433, .T. ) ;
#214 = SURFACE_SIDE_STYLE ('',( #643 ) ) ;
#215 = DIRECTION ( 'NONE',  ( 0.7745966692414859578, 0.4472135954999594820, 0.4472135954999519325 ) ) ;
#216 = LINE ( 'NONE', #442, #595 ) ;
#217 = VECTOR ( 'NONE', #663, 1000.000000000000000 ) ;
#218 = CARTESIAN_POINT ( 'NONE',  ( 1.300000000000000044, 0.7505553499465139611, 2.449279538904895137 ) ) ;
#219 = TOROIDAL_SURFACE ( 'NONE', #314, 1.600000000000000089, 0.1000000000000000056 ) ;
#220 = VERTEX_POINT ( 'NONE', #265 ) ;
#221 = LINE ( 'NONE', #493, #583 ) ;
#222 = DIRECTION ( 'NONE',  ( -0.8660254037844387076, 0.4999999999999998890, 0.000000000000000000 ) ) ;
#223 = CIRCLE ( 'NONE', #354, 1.500000000000000000 ) ;
#224 = CARTESIAN_POINT ( 'NONE',  ( 1.129916623503601953E-16, -1.501110699893025036, 2.449279538904895137 ) ) ;
#225 = AXIS2_PLACEMENT_3D ( 'NONE', #505, #133, #242 ) ;
#226 = ORIENTED_EDGE ( 'NONE', *, *, #191, .F. ) ;
#227 = DIRECTION ( 'NONE',  ( 0.8660254037844387076, 0.4999999999999998890, 0.000000000000000000 ) ) ;
#228 = EDGE_CURVE ( 'NONE', #597, #236, #322, .T. ) ;
#229 = AXIS2_PLACEMENT_3D ( 'NONE', #49, #589, #147 ) ;
#230 = AXIS2_PLACEMENT_3D ( 'NONE', #495, #271, #68 ) ;
#231 = ORIENTED_EDGE ( 'NONE', *, *, #586, .F. ) ;
#232 = CARTESIAN_POINT ( 'NONE',  ( -1.300000000000000044, 0.7505553499465139611, 2.449279538904895137 ) ) ;
#233 = DIRECTION ( 'NONE',  ( 0.8660254037844387076, 0.4999999999999998890, 0.000000000000000000 ) ) ;
#234 = DIRECTION ( 'NONE',  ( 0.000000000000000000, 0.000000000000000000, -1.000000000000000000 ) ) ;
#235 = DIRECTION ( 'NONE',  ( 0.000000000000000000, -1.000000000000000000, -8.340016711426809842E-17 ) ) ;
#236 = VERTEX_POINT ( 'NONE', #644 ) ;
#237 = ADVANCED_FACE ( 'NONE', ( #422 ), #212, .T. ) ;
#238 = CARTESIAN_POINT ( 'NONE',  ( -0.002209769544916265205, 0.000000000000000000, 1.699999999999999956 ) ) ;
#239 = CARTESIAN_POINT ( 'NONE',  ( 0.001104884772458105931, -0.001913716562406619958, 1.699999999999999956 ) ) ;
#240 = CLOSED_SHELL ( 'NONE', ( #349, #512, #565, #114, #103, #580, #107, #693, #361, #4, #148, #514, #498, #623, #454, #296, #414, #685, #400, #445, #118, #53, #237, #287, #602, #334 ) ) ;
#241 = AXIS2_PLACEMENT_3D ( 'NONE', #474, #317, #696 ) ;
#242 = DIRECTION ( 'NONE',  ( -1.000000000000000000, 1.224646799147350742E-16, 0.000000000000000000 ) ) ;
#243 = PLANE ( 'NONE',  #86 ) ;
#244 = ORIENTED_EDGE ( 'NONE', *, *, #351, .T. ) ;
#245 = DIRECTION ( 'NONE',  ( 0.000000000000000000, 0.000000000000000000, -1.000000000000000000 ) ) ;
#246 = CARTESIAN_POINT ( 'NONE',  ( -2.750000000000000000, 0.000000000000000000, 3.000000000000000000 ) ) ;
#247 = EDGE_CURVE ( 'NONE', #545, #573, #37, .T. ) ;
#248 = ORIENTED_EDGE ( 'NONE', *, *, #576, .F. ) ;
#249 = PLANE ( 'NONE',  #386 ) ;
#250 = FACE_OUTER_BOUND ( 'NONE', #460, .T. ) ;
#251 = AXIS2_PLACEMENT_3D ( 'NONE', #392, #176, #72 ) ;
#252 = EDGE_CURVE ( 'NONE', #650, #65, #42, .T. ) ;
#253 = VERTEX_POINT ( 'NONE', #41 ) ;
#254 = VECTOR ( 'NONE', #328, 1000.000000000000000 ) ;
#255 = ORIENTED_EDGE ( 'NONE', *, *, #551, .F. ) ;
#256 = LINE ( 'NONE', #434, #128 ) ;
#257 = ORIENTED_EDGE ( 'NONE', *, *, #295, .T. ) ;
#258 = VERTEX_POINT ( 'NONE', #206 ) ;
#259 =( GEOMETRIC_REPRESENTATION_CONTEXT ( 3 ) GLOBAL_UNCERTAINTY_ASSIGNED_CONTEXT ( ( #8 ) ) GLOBAL_UNIT_ASSIGNED_CONTEXT ( ( #364, #262, #592 ) ) REPRESENTATION_CONTEXT ( 'NONE', 'WORKASPACE' ) );
#260 = CARTESIAN_POINT ( 'NONE',  ( 2.326923076923074873, 0.000000000000000000, 2.576923076923075318 ) ) ;
#261 = ORIENTED_EDGE ( 'NONE', *, *, #79, .F. ) ;
#262 =( NAMED_UNIT ( * ) PLANE_ANGLE_UNIT ( ) SI_UNIT ( $, .RADIAN. ) );
#263 = EDGE_CURVE ( 'NONE', #220, #697, #256, .T. ) ;
#264 = VECTOR ( 'NONE', #563, 1000.000000000000227 ) ;
#265 = CARTESIAN_POINT ( 'NONE',  ( 1.129916623503601953E-16, -1.501110699893025036, 2.449279538904895137 ) ) ;
#266 = ORIENTED_EDGE ( 'NONE', *, *, #586, .T. ) ;
#267 = FACE_OUTER_BOUND ( 'NONE', #88, .T. ) ;
#268 = CARTESIAN_POINT ( 'NONE',  ( 1.300000000000000044, 0.7505553499465139611, 3.000000000000000000 ) ) ;
#269 = VERTEX_POINT ( 'NONE', #387 ) ;
#270 =( NAMED_UNIT ( * ) PLANE_ANGLE_UNIT ( ) SI_UNIT ( $, .RADIAN. ) );
#271 = DIRECTION ( 'NONE',  ( 0.000000000000000000, 0.000000000000000000, 1.000000000000000000 ) ) ;
#272 = EDGE_CURVE ( 'NONE', #367, #371, #596, .T. ) ;
#273 =( LENGTH_UNIT ( ) NAMED_UNIT ( * ) SI_UNIT ( .MILLI., .METRE. ) );
#274 = CARTESIAN_POINT ( 'NONE',  ( 0.000000000000000000, 0.000000000000000000, 3.000000000000000000 ) ) ;
#275 = ORIENTED_EDGE ( 'NONE', *, *, #199, .T. ) ;
#276 = CIRCLE ( 'NONE', #707, 2.326923076923074873 ) ;
#277 = DIRECTION ( 'NONE',  ( 1.000000000000000000, 0.000000000000000000, 0.000000000000000000 ) ) ;
#278 = DIRECTION ( 'NONE',  ( -0.7745966692414861798, 0.4472135954999590379, -0.4472135954999520435 ) ) ;
#279 = AXIS2_PLACEMENT_3D ( 'NONE', #18, #610, #222 ) ;
#280 = ORIENTED_EDGE ( 'NONE', *, *, #646, .F. ) ;
#281 = LINE ( 'NONE', #443, #38 ) ;
#282 = EDGE_CURVE ( 'NONE', #416, #455, #151, .T. ) ;
#283 = CARTESIAN_POINT ( 'NONE',  ( 2.750000000000000000, 3.367778697655220026E-16, 0.000000000000000000 ) ) ;
#284 = CIRCLE ( 'NONE', #659, 1.125000000000000000 ) ;
#285 =( NAMED_UNIT ( * ) SI_UNIT ( $, .STERADIAN. ) SOLID_ANGLE_UNIT ( ) );
#286 = CARTESIAN_POINT ( 'NONE',  ( 1.686395287559215114E-16, 1.501110699893025036, 3.000000000000000000 ) ) ;
#287 = ADVANCED_FACE ( 'NONE', ( #250 ), #680, .T. ) ;
#288 = AXIS2_PLACEMENT_3D ( 'NONE', #76, #234, #125 ) ;
#289 = ORIENTED_EDGE ( 'NONE', *, *, #272, .F. ) ;
#290 = DIRECTION ( 'NONE',  ( 1.000000000000000000, 0.000000000000000000, 0.000000000000000000 ) ) ;
#291 = CIRCLE ( 'NONE', #179, 0.4230769230769231282 ) ;
#292 = VECTOR ( 'NONE', #104, 1000.000000000000000 ) ;
#293 = DIRECTION ( 'NONE',  ( 0.000000000000000000, 0.000000000000000000, -1.000000000000000000 ) ) ;
#294 = FACE_OUTER_BOUND ( 'NONE', #1, .T. ) ;
#295 = EDGE_CURVE ( 'NONE', #44, #519, #46, .T. ) ;
#296 = ADVANCED_FACE ( 'NONE', ( #117 ), #543, .F. ) ;
#297 = VERTEX_POINT ( 'NONE', #343 ) ;
#298 = CARTESIAN_POINT ( 'NONE',  ( -1.500000000000000000, 1.836970198721030181E-16, -0.1000000000000000056 ) ) ;
#299 = CARTESIAN_POINT ( 'NONE',  ( 0.000000000000000000, 0.000000000000000000, -20.00000000000000000 ) ) ;
#300 = DIRECTION ( 'NONE',  ( 1.000000000000000000, 0.000000000000000000, 0.000000000000000000 ) ) ;
#301 = EDGE_LOOP ( 'NONE', ( #528, #508, #92, #261 ) ) ;
#302 = AXIS2_PLACEMENT_3D ( 'NONE', #83, #470, #510 ) ;
#303 = CARTESIAN_POINT ( 'NONE',  ( 0.002209769544915939944, -0.001275811041604600149, 1.699999999999999956 ) ) ;
#304 = EDGE_CURVE ( 'NONE', #203, #121, #557, .T. ) ;
#305 = FACE_OUTER_BOUND ( 'NONE', #335, .T. ) ;
#306 = EDGE_LOOP ( 'NONE', ( #289, #413, #502, #266 ) ) ;
#307 = DIRECTION ( 'NONE',  ( -1.000000000000000000, 0.000000000000000000, 0.000000000000000000 ) ) ;
#308 = VERTEX_POINT ( 'NONE', #164 ) ;
#309 = EDGE_CURVE ( 'NONE', #44, #203, #177, .T. ) ;
#310 = ORIENTED_EDGE ( 'NONE', *, *, #608, .T. ) ;
#311 = DIRECTION ( 'NONE',  ( -0.4999999999999998890, 0.8660254037844387076, 0.000000000000000000 ) ) ;
#312 = CARTESIAN_POINT ( 'NONE',  ( 1.300000000000000044, -0.7505553499465139611, 2.449279538904895137 ) ) ;
#313 = AXIS2_PLACEMENT_3D ( 'NONE', #503, #61, #2 ) ;
#314 = AXIS2_PLACEMENT_3D ( 'NONE', #113, #452, #395 ) ;
#315 = ORIENTED_EDGE ( 'NONE', *, *, #426, .T. ) ;
#316 = DIRECTION ( 'NONE',  ( 0.000000000000000000, 0.000000000000000000, 1.000000000000000000 ) ) ;
#317 = DIRECTION ( 'NONE',  ( 0.000000000000000000, 0.000000000000000000, 1.000000000000000000 ) ) ;
#318 = EDGE_CURVE ( 'NONE', #363, #308, #173, .T. ) ;
#319 = ORIENTED_EDGE ( 'NONE', *, *, #69, .T. ) ;
#320 = CARTESIAN_POINT ( 'NONE',  ( -0.001104884772458159924, -0.001913716562406710163, 1.699999999999999956 ) ) ;
#321 = AXIS2_PLACEMENT_3D ( 'NONE', #538, #316, #158 ) ;
#322 = LINE ( 'NONE', #526, #600 ) ;
#323 = ORIENTED_EDGE ( 'NONE', *, *, #178, .F. ) ;
#324 = DIRECTION ( 'NONE',  ( -0.9607689228305240636, 0.000000000000000000, -0.2773500981126104659 ) ) ;
#325 = CIRCLE ( 'NONE', #197, 1.125000000000000000 ) ;
#326 = DIRECTION ( 'NONE',  ( 0.8660254037844387076, -0.4999999999999998890, 0.000000000000000000 ) ) ;
#327 = LINE ( 'NONE', #440, #186 ) ;
#328 = DIRECTION ( 'NONE',  ( 0.8660254037844387076, -0.4999999999999998890, 0.000000000000000000 ) ) ;
#329 = CIRCLE ( 'NONE', #20, 1.500000000000000000 ) ;
#330 = UNCERTAINTY_MEASURE_WITH_UNIT (LENGTH_MEASURE( 1.000000000000000082E-05 ), #273, 'distance_accuracy_value', 'NONE');
#331 = EDGE_LOOP ( 'NONE', ( #700, #139 ) ) ;
#332 = SHAPE_DEFINITION_REPRESENTATION ( #552, #612 ) ;
#333 = DIRECTION ( 'NONE',  ( 1.000000000000000000, 0.000000000000000000, 0.000000000000000000 ) ) ;
#334 = ADVANCED_FACE ( 'NONE', ( #607 ), #219, .F. ) ;
#335 = EDGE_LOOP ( 'NONE', ( #339, #704, #408, #248 ) ) ;
#336 = PLANE ( 'NONE',  #438 ) ;
#337 = CARTESIAN_POINT ( 'NONE',  ( 0.000000000000000000, 0.000000000000000000, -0.1000000000000000056 ) ) ;
#338 = ORIENTED_EDGE ( 'NONE', *, *, #523, .F. ) ;
#339 = ORIENTED_EDGE ( 'NONE', *, *, #556, .T. ) ;
#340 = APPLICATION_PROTOCOL_DEFINITION ( 'draft international standard', 'automotive_design', 1998, #616 ) ;
#341 = CARTESIAN_POINT ( 'NONE',  ( 0.000000000000000000, 0.000000000000000000, -20.00000000000000000 ) ) ;
#342 = ORIENTED_EDGE ( 'NONE', *, *, #666, .F. ) ;
#343 = CARTESIAN_POINT ( 'NONE',  ( -5.717553256095880239E-16, 0.002551622083208825165, 1.699999999999999956 ) ) ;
#344 = PRODUCT_RELATED_PRODUCT_CATEGORY ( 'part', '', ( #171 ) ) ;
#345 = PLANE ( 'NONE',  #415 ) ;
#346 = ORIENTED_EDGE ( 'NONE', *, *, #551, .T. ) ;
#347 = LINE ( 'NONE', #405, #264 ) ;
#348 = DIRECTION ( 'NONE',  ( 0.7071067811865500152, 0.000000000000000000, 0.7071067811865450192 ) ) ;
#349 = ADVANCED_FACE ( 'NONE', ( #605 ), #464, .F. ) ;
#350 = VECTOR ( 'NONE', #6, 999.9999999999998863 ) ;
#351 = EDGE_CURVE ( 'NONE', #220, #236, #555, .T. ) ;
#352 = CARTESIAN_POINT ( 'NONE',  ( -2.750000000000000000, 0.000000000000000000, 2.576923076923075318 ) ) ;
#353 = DIRECTION ( 'NONE',  ( 0.000000000000000000, 0.000000000000000000, 1.000000000000000000 ) ) ;
#354 = AXIS2_PLACEMENT_3D ( 'NONE', #520, #55, #277 ) ;
#355 = ORIENTED_EDGE ( 'NONE', *, *, #228, .T. ) ;
#356 = EDGE_LOOP ( 'NONE', ( #577, #207, #566, #47 ) ) ;
#357 = DIRECTION ( 'NONE',  ( 0.000000000000000000, 0.000000000000000000, -1.000000000000000000 ) ) ;
#358 = CARTESIAN_POINT ( 'NONE',  ( 0.000000000000000000, 0.000000000000000000, 3.000000000000000000 ) ) ;
#359 = CIRCLE ( 'NONE', #288, 1.500000000000000000 ) ;
#360 = EDGE_CURVE ( 'NONE', #87, #363, #667, .T. ) ;
#361 = ADVANCED_FACE ( 'NONE', ( #73 ), #96, .T. ) ;
#362 = LINE ( 'NONE', #457, #152 ) ;
#363 = VERTEX_POINT ( 'NONE', #547 ) ;
#364 =( LENGTH_UNIT ( ) NAMED_UNIT ( * ) SI_UNIT ( .MILLI., .METRE. ) );
#365 = EDGE_CURVE ( 'NONE', #258, #647, #407, .T. ) ;
#366 = DIRECTION ( 'NONE',  ( 1.000000000000000000, 0.000000000000000000, 0.000000000000000000 ) ) ;
#367 = VERTEX_POINT ( 'NONE', #489 ) ;
#368 = VERTEX_POINT ( 'NONE', #286 ) ;
#369 = DIRECTION ( 'NONE',  ( 1.000000000000000000, 0.000000000000000000, 0.000000000000000000 ) ) ;
#370 = CARTESIAN_POINT ( 'NONE',  ( 0.001104884772457942000, 0.001913716562406335029, 1.699999999999999956 ) ) ;
#371 = VERTEX_POINT ( 'NONE', #283 ) ;
#372 = DIRECTION ( 'NONE',  ( -0.8660254037844387076, -0.4999999999999998890, 0.000000000000000000 ) ) ;
#373 = CARTESIAN_POINT ( 'NONE',  ( -1.300000000000000044, -0.7505553499465130729, 3.000000000000000000 ) ) ;
#374 = VECTOR ( 'NONE', #233, 1000.000000000000000 ) ;
#375 = EDGE_CURVE ( 'NONE', #308, #573, #499, .T. ) ;
#376 = ORIENTED_EDGE ( 'NONE', *, *, #673, .F. ) ;
#377 = CARTESIAN_POINT ( 'NONE',  ( -1.125000000000000000, 1.607348923880900052E-16, -20.00000000000000000 ) ) ;
#378 = DIRECTION ( 'NONE',  ( 1.000000000000000000, 0.000000000000000000, 0.000000000000000000 ) ) ;
#379 = EDGE_CURVE ( 'NONE', #519, #545, #216, .T. ) ;
#380 = ORIENTED_EDGE ( 'NONE', *, *, #702, .T. ) ;
#381 = CARTESIAN_POINT ( 'NONE',  ( -4.876792193816629272E-16, 0.002041297666567199950, 1.699744837791679952 ) ) ;
#382 = CIRCLE ( 'NONE', #558, 0.1000000000000000056 ) ;
#383 = DIRECTION ( 'NONE',  ( 0.000000000000000000, 0.000000000000000000, 1.000000000000000000 ) ) ;
#384 = ORIENTED_EDGE ( 'NONE', *, *, #168, .F. ) ;
#385 = EDGE_CURVE ( 'NONE', #44, #220, #657, .T. ) ;
#386 = AXIS2_PLACEMENT_3D ( 'NONE', #320, #90, #476 ) ;
#387 = CARTESIAN_POINT ( 'NONE',  ( 2.326923076923074873, 0.000000000000000000, 3.000000000000000000 ) ) ;
#388 = TOROIDAL_SURFACE ( 'NONE', #251, 2.326923076923074873, 0.4230769230769230171 ) ;
#389 = ORIENTED_EDGE ( 'NONE', *, *, #304, .F. ) ;
#390 = DIRECTION ( 'NONE',  ( 1.000000000000000000, 1.444533268016499903E-16, 0.000000000000000000 ) ) ;
#391 = PLANE ( 'NONE',  #137 ) ;
#392 = CARTESIAN_POINT ( 'NONE',  ( 0.000000000000000000, 0.000000000000000000, 2.576923076923075318 ) ) ;
#393 = CARTESIAN_POINT ( 'NONE',  ( 1.300000000000000044, -0.7505553499465139611, 3.000000000000000000 ) ) ;
#394 = CARTESIAN_POINT ( 'NONE',  ( 1.600000000000000089, 0.000000000000000000, 3.049318610115480235E-16 ) ) ;
#395 = DIRECTION ( 'NONE',  ( 1.000000000000000000, 0.000000000000000000, 0.000000000000000000 ) ) ;
#396 = ORIENTED_EDGE ( 'NONE', *, *, #21, .F. ) ;
#397 = FACE_BOUND ( 'NONE', #111, .T. ) ;
#398 = CIRCLE ( 'NONE', #611, 2.326923076923074873 ) ;
#399 = DIRECTION ( 'NONE',  ( 0.000000000000000000, 0.000000000000000000, 1.000000000000000000 ) ) ;
#400 = ADVANCED_FACE ( 'NONE', ( #397, #653 ), #391, .T. ) ;
#401 = FACE_OUTER_BOUND ( 'NONE', #195, .T. ) ;
#402 = CARTESIAN_POINT ( 'NONE',  ( 1.125000000000000000, 0.000000000000000000, -20.00000000000000000 ) ) ;
#403 = ORIENTED_EDGE ( 'NONE', *, *, #522, .F. ) ;
#404 = VECTOR ( 'NONE', #629, 1000.000000000000000 ) ;
#405 = CARTESIAN_POINT ( 'NONE',  ( -0.001767815635932989916, -0.001020648833283604095, 1.699744837791679952 ) ) ;
#406 = FACE_OUTER_BOUND ( 'NONE', #490, .T. ) ;
#407 = CIRCLE ( 'NONE', #230, 1.500000000000000000 ) ;
#408 = ORIENTED_EDGE ( 'NONE', *, *, #360, .F. ) ;
#409 = CARTESIAN_POINT ( 'NONE',  ( -1.300000000000000044, 0.7505553499465139611, 1.699999999999999956 ) ) ;
#410 = CARTESIAN_POINT ( 'NONE',  ( 0.000000000000000000, 0.000000000000000000, 0.000000000000000000 ) ) ;
#411 = AXIS2_PLACEMENT_3D ( 'NONE', #424, #311, #211 ) ;
#412 = CARTESIAN_POINT ( 'NONE',  ( 0.000000000000000000, 0.000000000000000000, 2.576923076923075318 ) ) ;
#413 = ORIENTED_EDGE ( 'NONE', *, *, #450, .T. ) ;
#414 = ADVANCED_FACE ( 'NONE', ( #60 ), #491, .F. ) ;
#415 = AXIS2_PLACEMENT_3D ( 'NONE', #559, #624, #290 ) ;
#416 = VERTEX_POINT ( 'NONE', #517 ) ;
#417 = FACE_OUTER_BOUND ( 'NONE', #639, .T. ) ;
#418 = EDGE_LOOP ( 'NONE', ( #89, #28, #380, #34 ) ) ;
#419 = ORIENTED_EDGE ( 'NONE', *, *, #247, .T. ) ;
#420 = AXIS2_PLACEMENT_3D ( 'NONE', #201, #703, #378 ) ;
#421 = CIRCLE ( 'NONE', #109, 2.750000000000000000 ) ;
#422 = FACE_OUTER_BOUND ( 'NONE', #485, .T. ) ;
#423 = ORIENTED_EDGE ( 'NONE', *, *, #309, .T. ) ;
#424 = CARTESIAN_POINT ( 'NONE',  ( 1.686395287559215114E-16, 1.501110699893025036, 1.699999999999999956 ) ) ;
#425 = CARTESIAN_POINT ( 'NONE',  ( 0.000000000000000000, 0.000000000000000000, -19.62500000000000000 ) ) ;
#426 = EDGE_CURVE ( 'NONE', #511, #507, #359, .T. ) ;
#427 = ORIENTED_EDGE ( 'NONE', *, *, #430, .F. ) ;
#428 = FILL_AREA_STYLE ('',( #695 ) ) ;
#429 = CARTESIAN_POINT ( 'NONE',  ( 0.000000000000000000, 0.000000000000000000, 0.000000000000000000 ) ) ;
#430 = EDGE_CURVE ( 'NONE', #697, #363, #670, .T. ) ;
#431 = AXIS2_PLACEMENT_3D ( 'NONE', #299, #681, #562 ) ;
#432 = EDGE_LOOP ( 'NONE', ( #419, #82, #449, #384 ) ) ;
#433 = LINE ( 'NONE', #487, #292 ) ;
#434 = CARTESIAN_POINT ( 'NONE',  ( -1.300000000000000044, -0.7505553499465130729, 2.449279538904895137 ) ) ;
#435 = EDGE_LOOP ( 'NONE', ( #668, #310 ) ) ;
#436 = CARTESIAN_POINT ( 'NONE',  ( -1.300000000000000044, -0.7505553499465130729, 2.449279538904895137 ) ) ;
#437 = CARTESIAN_POINT ( 'NONE',  ( -8.470329472542999539E-19, -0.002041297666567155281, 1.699744837791679952 ) ) ;
#438 = AXIS2_PLACEMENT_3D ( 'NONE', #549, #390, #172 ) ;
#439 = ORIENTED_EDGE ( 'NONE', *, *, #204, .F. ) ;
#440 = CARTESIAN_POINT ( 'NONE',  ( 1.300000000000000044, 0.7505553499465139611, 1.699999999999999956 ) ) ;
#441 = VECTOR ( 'NONE', #278, 1000.000000000000227 ) ;
#442 = CARTESIAN_POINT ( 'NONE',  ( 0.002209769544915939944, 3.192085622280754603E-19, 1.699999999999999956 ) ) ;
#443 = CARTESIAN_POINT ( 'NONE',  ( 1.500000000000000000, 0.000000000000000000, -20.00000000000000000 ) ) ;
#444 = TOROIDAL_SURFACE ( 'NONE', #626, 2.326923076923074873, 0.4230769230769230171 ) ;
#445 = ADVANCED_FACE ( 'NONE', ( #682 ), #571, .T. ) ;
#446 = LINE ( 'NONE', #553, #127 ) ;
#447 = DIRECTION ( 'NONE',  ( -0.8660254037844387076, -0.4999999999999998890, 0.000000000000000000 ) ) ;
#448 = VECTOR ( 'NONE', #447, 1000.000000000000000 ) ;
#449 = ORIENTED_EDGE ( 'NONE', *, *, #556, .F. ) ;
#450 = EDGE_CURVE ( 'NONE', #367, #475, #162, .T. ) ;
#451 = EDGE_LOOP ( 'NONE', ( #244, #482, #686, #24 ) ) ;
#452 = DIRECTION ( 'NONE',  ( 0.000000000000000000, 0.000000000000000000, 1.000000000000000000 ) ) ;
#453 = VERTEX_POINT ( 'NONE', #619 ) ;
#454 = ADVANCED_FACE ( 'NONE', ( #688 ), #462, .F. ) ;
#455 = VERTEX_POINT ( 'NONE', #182 ) ;
#456 = DIRECTION ( 'NONE',  ( -1.000000000000000000, 0.000000000000000000, 0.000000000000000000 ) ) ;
#457 = CARTESIAN_POINT ( 'NONE',  ( 1.129916623503601953E-16, -1.501110699893025036, 1.699999999999999956 ) ) ;
#458 = DIRECTION ( 'NONE',  ( 0.000000000000000000, 0.000000000000000000, 1.000000000000000000 ) ) ;
#459 = FACE_BOUND ( 'NONE', #435, .T. ) ;
#460 = EDGE_LOOP ( 'NONE', ( #120, #149, #323, #165 ) ) ;
#461 = VECTOR ( 'NONE', #618, 1000.000000000000000 ) ;
#462 = PLANE ( 'NONE',  #50 ) ;
#463 = DIRECTION ( 'NONE',  ( 1.000000000000000000, 0.000000000000000000, 0.000000000000000000 ) ) ;
#464 = TOROIDAL_SURFACE ( 'NONE', #9, 1.600000000000000089, 0.1000000000000000056 ) ;
#465 = DIRECTION ( 'NONE',  ( 0.000000000000000000, 1.000000000000000000, 0.000000000000000000 ) ) ;
#466 = DIRECTION ( 'NONE',  ( 0.2499999999999970857, -0.4330127018922138582, -0.8660254037844422603 ) ) ;
#467 = EDGE_CURVE ( 'NONE', #697, #597, #347, .T. ) ;
#468 = VECTOR ( 'NONE', #150, 1000.000000000000000 ) ;
#469 = ORIENTED_EDGE ( 'NONE', *, *, #574, .F. ) ;
#470 = DIRECTION ( 'NONE',  ( 1.224646799147353947E-16, 1.000000000000000000, 0.000000000000000000 ) ) ;
#471 = AXIS2_PLACEMENT_3D ( 'NONE', #238, #617, #32 ) ;
#472 = ORIENTED_EDGE ( 'NONE', *, *, #168, .T. ) ;
#473 = CARTESIAN_POINT ( 'NONE',  ( -0.002209769544916265205, -0.001275811041604449879, 1.699999999999999956 ) ) ;
#474 = CARTESIAN_POINT ( 'NONE',  ( 0.000000000000000000, 0.000000000000000000, -20.00000000000000000 ) ) ;
#475 = VERTEX_POINT ( 'NONE', #352 ) ;
#476 = DIRECTION ( 'NONE',  ( 0.000000000000000000, -0.8944271909999188530, 0.4472135954999519325 ) ) ;
#477 = DIRECTION ( 'NONE',  ( -0.8660254037844387076, 0.4999999999999998890, 0.000000000000000000 ) ) ;
#478 = ORIENTED_EDGE ( 'NONE', *, *, #426, .F. ) ;
#479 = SURFACE_STYLE_USAGE ( .BOTH. , #214 ) ;
#480 = DIRECTION ( 'NONE',  ( 0.000000000000000000, -1.000000000000000000, 0.000000000000000000 ) ) ;
#481 = VECTOR ( 'NONE', #465, 1000.000000000000000 ) ;
#482 = ORIENTED_EDGE ( 'NONE', *, *, #228, .F. ) ;
#483 = DIRECTION ( 'NONE',  ( 3.869887756454374895E-16, 0.8944271909999189640, 0.4472135954999519325 ) ) ;
#484 = CARTESIAN_POINT ( 'NONE',  ( 0.000000000000000000, 0.000000000000000000, -20.00000000000000000 ) ) ;
#485 = EDGE_LOOP ( 'NONE', ( #132, #694, #524, #606 ) ) ;
#486 = CARTESIAN_POINT ( 'NONE',  ( 1.686395287559215114E-16, 1.501110699893025036, 1.699999999999999956 ) ) ;
#487 = CARTESIAN_POINT ( 'NONE',  ( -1.300000000000000044, -0.7505553499465130729, 1.699999999999999956 ) ) ;
#488 = EDGE_LOOP ( 'NONE', ( #131, #701, #355, #39, #587, #472 ) ) ;
#489 = CARTESIAN_POINT ( 'NONE',  ( 2.750000000000000000, 3.367778697655220026E-16, 2.576923076923075318 ) ) ;
#490 = EDGE_LOOP ( 'NONE', ( #231, #226 ) ) ;
#491 = PLANE ( 'NONE',  #569 ) ;
#492 = CIRCLE ( 'NONE', #302, 0.4230769230769231282 ) ;
#493 = CARTESIAN_POINT ( 'NONE',  ( -1.500000000000000000, 1.836970198721030181E-16, -20.00000000000000000 ) ) ;
#494 = AXIS2_PLACEMENT_3D ( 'NONE', #341, #123, #56 ) ;
#495 = CARTESIAN_POINT ( 'NONE',  ( 0.000000000000000000, 0.000000000000000000, -19.62500000000000000 ) ) ;
#496 = VERTEX_POINT ( 'NONE', #80 ) ;
#497 = DIRECTION ( 'NONE',  ( 0.000000000000000000, 0.000000000000000000, 1.000000000000000000 ) ) ;
#498 = ADVANCED_FACE ( 'NONE', ( #417 ), #84, .F. ) ;
#499 = LINE ( 'NONE', #218, #74 ) ;
#500 = AXIS2_PLACEMENT_3D ( 'NONE', #578, #98, #369 ) ;
#501 = ORIENTED_EDGE ( 'NONE', *, *, #365, .T. ) ;
#502 = ORIENTED_EDGE ( 'NONE', *, *, #67, .T. ) ;
#503 = CARTESIAN_POINT ( 'NONE',  ( 0.000000000000000000, 0.000000000000000000, 0.000000000000000000 ) ) ;
#504 = CARTESIAN_POINT ( 'NONE',  ( -0.002209769544916265205, 0.000000000000000000, 1.699999999999999956 ) ) ;
#505 = CARTESIAN_POINT ( 'NONE',  ( -1.600000000000000089, 1.959434878635764984E-16, -0.1000000000000000056 ) ) ;
#506 = DIRECTION ( 'NONE',  ( -0.9607689228305240636, 0.000000000000000000, 0.2773500981126104659 ) ) ;
#507 = VERTEX_POINT ( 'NONE', #298 ) ;
#508 = ORIENTED_EDGE ( 'NONE', *, *, #450, .F. ) ;
#509 = PLANE ( 'NONE',  #471 ) ;
#510 = DIRECTION ( 'NONE',  ( -1.000000000000000000, 1.224646799147353454E-16, 0.000000000000000000 ) ) ;
#511 = VERTEX_POINT ( 'NONE', #193 ) ;
#512 = ADVANCED_FACE ( 'NONE', ( #401 ), #509, .F. ) ;
#513 = CARTESIAN_POINT ( 'NONE',  ( 0.002209769544915939944, 0.001275811041604210053, 1.699999999999999956 ) ) ;
#514 = ADVANCED_FACE ( 'NONE', ( #679 ), #345, .T. ) ;
#515 = DIRECTION ( 'NONE',  ( 0.000000000000000000, 0.000000000000000000, 1.000000000000000000 ) ) ;
#516 = ORIENTED_EDGE ( 'NONE', *, *, #636, .F. ) ;
#517 = CARTESIAN_POINT ( 'NONE',  ( -1.300000000000000044, -0.7505553499465130729, 3.000000000000000000 ) ) ;
#518 = CARTESIAN_POINT ( 'NONE',  ( -0.001104884772458213918, 0.001913716562406805139, 1.699999999999999956 ) ) ;
#519 = VERTEX_POINT ( 'NONE', #303 ) ;
#520 = CARTESIAN_POINT ( 'NONE',  ( 0.000000000000000000, 0.000000000000000000, -0.1000000000000000056 ) ) ;
#521 = CARTESIAN_POINT ( 'NONE',  ( 1.300000000000000044, 0.7505553499465139611, 3.000000000000000000 ) ) ;
#522 = EDGE_CURVE ( 'NONE', #87, #597, #561, .T. ) ;
#523 = EDGE_CURVE ( 'NONE', #496, #416, #189, .T. ) ;
#524 = ORIENTED_EDGE ( 'NONE', *, *, #646, .T. ) ;
#525 = DIRECTION ( 'NONE',  ( 0.000000000000000000, 0.000000000000000000, -1.000000000000000000 ) ) ;
#526 = CARTESIAN_POINT ( 'NONE',  ( -0.001104884772458134120, -0.001913716562406665277, 1.699999999999999956 ) ) ;
#527 = ORIENTED_EDGE ( 'NONE', *, *, #675, .T. ) ;
#528 = ORIENTED_EDGE ( 'NONE', *, *, #25, .F. ) ;
#529 = DIRECTION ( 'NONE',  ( 0.000000000000000000, 0.000000000000000000, -1.000000000000000000 ) ) ;
#530 = CYLINDRICAL_SURFACE ( 'NONE', #229, 1.500000000000000000 ) ;
#531 = EDGE_LOOP ( 'NONE', ( #200, #346, #478, #469 ) ) ;
#532 = STYLED_ITEM ( 'NONE', ( #94 ), #627 ) ;
#533 = ORIENTED_EDGE ( 'NONE', *, *, #375, .T. ) ;
#534 = LINE ( 'NONE', #381, #630 ) ;
#535 = DIRECTION ( 'NONE',  ( 0.000000000000000000, 0.000000000000000000, -1.000000000000000000 ) ) ;
#536 = CIRCLE ( 'NONE', #225, 0.1000000000000000472 ) ;
#537 = ORIENTED_EDGE ( 'NONE', *, *, #169, .F. ) ;
#538 = CARTESIAN_POINT ( 'NONE',  ( 0.000000000000000000, 0.000000000000000000, 0.000000000000000000 ) ) ;
#539 = CARTESIAN_POINT ( 'NONE',  ( 0.001767815635932749874, 0.001020648833283402000, 1.699744837791679952 ) ) ;
#540 = FACE_OUTER_BOUND ( 'NONE', #31, .T. ) ;
#541 = VECTOR ( 'NONE', #651, 1000.000000000000000 ) ;
#542 = VECTOR ( 'NONE', #108, 1000.000000000000000 ) ;
#543 = PLANE ( 'NONE',  #279 ) ;
#544 = APPLICATION_CONTEXT ( 'automotive_design' ) ;
#545 = VERTEX_POINT ( 'NONE', #513 ) ;
#546 = CARTESIAN_POINT ( 'NONE',  ( 1.500000000000000000, 0.000000000000000000, -19.62500000000000000 ) ) ;
#547 = CARTESIAN_POINT ( 'NONE',  ( -1.300000000000000044, 0.7505553499465139611, 2.449279538904895137 ) ) ;
#548 = EDGE_CURVE ( 'NONE', #560, #614, #325, .T. ) ;
#549 = CARTESIAN_POINT ( 'NONE',  ( 1.300000000000000044, -0.7505553499465139611, 1.699999999999999956 ) ) ;
#550 = DIRECTION ( 'NONE',  ( 0.000000000000000000, 0.000000000000000000, 1.000000000000000000 ) ) ;
#551 = EDGE_CURVE ( 'NONE', #65, #507, #536, .T. ) ;
#552 = PRODUCT_DEFINITION_SHAPE ( 'NONE', 'NONE',  #593 ) ;
#553 = CARTESIAN_POINT ( 'NONE',  ( -1.300000000000000044, 0.7505553499465139611, 1.699999999999999956 ) ) ;
#554 = VECTOR ( 'NONE', #62, 999.9999999999998863 ) ;
#555 = LINE ( 'NONE', #437, #554 ) ;
#556 = EDGE_CURVE ( 'NONE', #297, #308, #534, .T. ) ;
#557 = LINE ( 'NONE', #393, #645 ) ;
#558 = AXIS2_PLACEMENT_3D ( 'NONE', #698, #588, #529 ) ;
#559 = CARTESIAN_POINT ( 'NONE',  ( 0.000000000000000000, 0.000000000000000000, 1.699999999999999956 ) ) ;
#560 = VERTEX_POINT ( 'NONE', #377 ) ;
#561 = LINE ( 'NONE', #504, #105 ) ;
#562 = DIRECTION ( 'NONE',  ( 0.000000000000000000, -1.000000000000000000, 0.000000000000000000 ) ) ;
#563 = DIRECTION ( 'NONE',  ( 0.7745966692414861798, 0.4472135954999590379, -0.4472135954999520435 ) ) ;
#564 = CARTESIAN_POINT ( 'NONE',  ( 0.002209769544915939944, 3.192085622280754603E-19, 1.699999999999999956 ) ) ;
#565 = ADVANCED_FACE ( 'NONE', ( #648 ), #249, .F. ) ;
#566 = ORIENTED_EDGE ( 'NONE', *, *, #213, .T. ) ;
#567 = DIRECTION ( 'NONE',  ( 0.000000000000000000, 0.000000000000000000, -1.000000000000000000 ) ) ;
#568 = DIRECTION ( 'NONE',  ( 0.000000000000000000, 0.000000000000000000, 1.000000000000000000 ) ) ;
#569 = AXIS2_PLACEMENT_3D ( 'NONE', #129, #628, #567 ) ;
#570 = EDGE_LOOP ( 'NONE', ( #187, #652, #81, #101 ) ) ;
#571 = CYLINDRICAL_SURFACE ( 'NONE', #174, 2.750000000000000000 ) ;
#572 = FACE_OUTER_BOUND ( 'NONE', #35, .T. ) ;
#573 = VERTEX_POINT ( 'NONE', #154 ) ;
#574 = EDGE_CURVE ( 'NONE', #650, #511, #382, .T. ) ;
#575 = CARTESIAN_POINT ( 'NONE',  ( 0.000000000000000000, 0.000000000000000000, 3.000000000000000000 ) ) ;
#576 = EDGE_CURVE ( 'NONE', #297, #87, #637, .T. ) ;
#577 = ORIENTED_EDGE ( 'NONE', *, *, #69, .F. ) ;
#578 = CARTESIAN_POINT ( 'NONE',  ( 0.000000000000000000, 0.000000000000000000, 0.000000000000000000 ) ) ;
#579 = LINE ( 'NONE', #638, #144 ) ;
#580 = ADVANCED_FACE ( 'NONE', ( #102 ), #146, .F. ) ;
#581 = ORIENTED_EDGE ( 'NONE', *, *, #21, .T. ) ;
#582 = PLANE ( 'NONE',  #411 ) ;
#583 = VECTOR ( 'NONE', #112, 1000.000000000000000 ) ;
#584 = DIRECTION ( 'NONE',  ( 1.000000000000000000, 0.000000000000000000, 0.000000000000000000 ) ) ;
#585 = AXIS2_PLACEMENT_3D ( 'NONE', #649, #711, #584 ) ;
#586 = EDGE_CURVE ( 'NONE', #253, #371, #684, .T. ) ;
#587 = ORIENTED_EDGE ( 'NONE', *, *, #379, .T. ) ;
#588 = DIRECTION ( 'NONE',  ( 0.000000000000000000, -1.000000000000000000, 0.000000000000000000 ) ) ;
#589 = DIRECTION ( 'NONE',  ( 0.000000000000000000, 0.000000000000000000, 1.000000000000000000 ) ) ;
#590 = AXIS2_PLACEMENT_3D ( 'NONE', #40, #141, #324 ) ;
#591 = ORIENTED_EDGE ( 'NONE', *, *, #385, .T. ) ;
#592 =( NAMED_UNIT ( * ) SI_UNIT ( $, .STERADIAN. ) SOLID_ANGLE_UNIT ( ) );
#593 = PRODUCT_DEFINITION ( 'æ™', '', #7, #613 ) ;
#594 = DIRECTION ( 'NONE',  ( -0.7071067811865500152, 8.659560562354959975E-17, 0.7071067811865450192 ) ) ;
#595 = VECTOR ( 'NONE', #14, 1000.000000000000000 ) ;
#596 = LINE ( 'NONE', #699, #620 ) ;
#597 = VERTEX_POINT ( 'NONE', #473 ) ;
#598 = FACE_OUTER_BOUND ( 'NONE', #301, .T. ) ;
#599 = AXIS2_PLACEMENT_3D ( 'NONE', #410, #353, #463 ) ;
#600 = VECTOR ( 'NONE', #326, 1000.000000000000000 ) ;
#601 = CARTESIAN_POINT ( 'NONE',  ( -0.001767815635932944813, 0.001020648833283704059, 1.699744837791679952 ) ) ;
#602 = ADVANCED_FACE ( 'NONE', ( #51 ), #444, .T. ) ;
#603 = ORIENTED_EDGE ( 'NONE', *, *, #661, .F. ) ;
#604 = DIRECTION ( 'NONE',  ( 0.000000000000000000, 0.000000000000000000, 1.000000000000000000 ) ) ;
#605 = FACE_OUTER_BOUND ( 'NONE', #705, .T. ) ;
#606 = ORIENTED_EDGE ( 'NONE', *, *, #675, .F. ) ;
#607 = FACE_OUTER_BOUND ( 'NONE', #531, .T. ) ;
#608 = EDGE_CURVE ( 'NONE', #65, #650, #13, .T. ) ;
#609 = ORIENTED_EDGE ( 'NONE', *, *, #365, .F. ) ;
#610 = DIRECTION ( 'NONE',  ( -0.4999999999999998890, -0.8660254037844387076, 0.000000000000000000 ) ) ;
#611 = AXIS2_PLACEMENT_3D ( 'NONE', #358, #568, #676 ) ;
#612 = ADVANCED_BREP_SHAPE_REPRESENTATION ( '\X2\5185516d89d2570667f1593487ba9489\X0\ M3x20A', ( #627, #313 ), #677 ) ;
#613 = PRODUCT_DEFINITION_CONTEXT ( 'detailed design', #616, 'design' ) ;
#614 = VERTEX_POINT ( 'NONE', #208 ) ;
#615 = CARTESIAN_POINT ( 'NONE',  ( 1.686395287559215114E-16, 1.501110699893025036, 2.449279538904895137 ) ) ;
#616 = APPLICATION_CONTEXT ( 'automotive_design' ) ;
#617 = DIRECTION ( 'NONE',  ( -0.4999999999999941158, 0.000000000000000000, -0.8660254037844420383 ) ) ;
#618 = DIRECTION ( 'NONE',  ( 0.000000000000000000, 0.000000000000000000, -1.000000000000000000 ) ) ;
#619 = CARTESIAN_POINT ( 'NONE',  ( -2.326923076923074873, 3.108718797835590181E-16, 3.000000000000000000 ) ) ;
#620 = VECTOR ( 'NONE', #641, 1000.000000000000000 ) ;
#621 = DIRECTION ( 'NONE',  ( 0.000000000000000000, -0.8944271909999188530, 0.4472135954999519325 ) ) ;
#622 = EDGE_CURVE ( 'NONE', #308, #368, #640, .T. ) ;
#623 = ADVANCED_FACE ( 'NONE', ( #267 ), #582, .F. ) ;
#624 = DIRECTION ( 'NONE',  ( 0.000000000000000000, 0.000000000000000000, 1.000000000000000000 ) ) ;
#625 = LINE ( 'NONE', #521, #404 ) ;
#626 = AXIS2_PLACEMENT_3D ( 'NONE', #706, #45, #36 ) ;
#627 = MANIFOLD_SOLID_BREP ( 'NONE', #240 ) ;
#628 = DIRECTION ( 'NONE',  ( 0.4999999999999998890, -0.8660254037844387076, 0.000000000000000000 ) ) ;
#629 = DIRECTION ( 'NONE',  ( -0.8660254037844387076, 0.4999999999999998890, 0.000000000000000000 ) ) ;
#630 = VECTOR ( 'NONE', #483, 999.9999999999998863 ) ;
#631 = ORIENTED_EDGE ( 'NONE', *, *, #304, .T. ) ;
#632 = DIRECTION ( 'NONE',  ( 0.4999999999999998890, 0.8660254037844387076, 0.000000000000000000 ) ) ;
#633 = DIRECTION ( 'NONE',  ( -0.2499999999999970024, 0.4330127018922141913, -0.8660254037844421493 ) ) ;
#634 = CIRCLE ( 'NONE', #420, 2.750000000000000000 ) ;
#635 = ORIENTED_EDGE ( 'NONE', *, *, #351, .F. ) ;
#636 = EDGE_CURVE ( 'NONE', #614, #560, #284, .T. ) ;
#637 = LINE ( 'NONE', #205, #160 ) ;
#638 = CARTESIAN_POINT ( 'NONE',  ( -1.125000000000000000, 1.377727649040769924E-16, -20.00000000000000000 ) ) ;
#639 = EDGE_LOOP ( 'NONE', ( #672, #533, #210, #581 ) ) ;
#640 = LINE ( 'NONE', #486, #468 ) ;
#641 = DIRECTION ( 'NONE',  ( 0.000000000000000000, 0.000000000000000000, -1.000000000000000000 ) ) ;
#642 = ORIENTED_EDGE ( 'NONE', *, *, #135, .F. ) ;
#643 = SURFACE_STYLE_FILL_AREA ( #428 ) ;
#644 = CARTESIAN_POINT ( 'NONE',  ( -1.397522127253378269E-17, -0.002551622083208859859, 1.699999999999999956 ) ) ;
#645 = VECTOR ( 'NONE', #665, 1000.000000000000000 ) ;
#646 = EDGE_CURVE ( 'NONE', #507, #511, #223, .T. ) ;
#647 = VERTEX_POINT ( 'NONE', #546 ) ;
#648 = FACE_OUTER_BOUND ( 'NONE', #451, .T. ) ;
#649 = CARTESIAN_POINT ( 'NONE',  ( 0.000000000000000000, 0.000000000000000000, 0.000000000000000000 ) ) ;
#650 = VERTEX_POINT ( 'NONE', #394 ) ;
#651 = DIRECTION ( 'NONE',  ( -0.8660254037844387076, 0.4999999999999998890, 0.000000000000000000 ) ) ;
#652 = ORIENTED_EDGE ( 'NONE', *, *, #272, .T. ) ;
#653 = FACE_OUTER_BOUND ( 'NONE', #331, .T. ) ;
#654 = VECTOR ( 'NONE', #227, 1000.000000000000000 ) ;
#655 = ORIENTED_EDGE ( 'NONE', *, *, #318, .T. ) ;
#656 = DIRECTION ( 'NONE',  ( 0.8660254037844387076, 0.4999999999999998890, 0.000000000000000000 ) ) ;
#657 = LINE ( 'NONE', #224, #448 ) ;
#658 = ORIENTED_EDGE ( 'NONE', *, *, #385, .F. ) ;
#659 = AXIS2_PLACEMENT_3D ( 'NONE', #710, #525, #307 ) ;
#660 = CARTESIAN_POINT ( 'NONE',  ( 1.686395287559215114E-16, 1.501110699893025036, 3.000000000000000000 ) ) ;
#661 = EDGE_CURVE ( 'NONE', #455, #203, #66, .T. ) ;
#662 = ORIENTED_EDGE ( 'NONE', *, *, #247, .F. ) ;
#663 = DIRECTION ( 'NONE',  ( -0.8660254037844387076, -0.4999999999999998890, 0.000000000000000000 ) ) ;
#664 = AXIS2_PLACEMENT_3D ( 'NONE', #184, #632, #357 ) ;
#665 = DIRECTION ( 'NONE',  ( -1.444533268016499903E-16, 1.000000000000000000, 0.000000000000000000 ) ) ;
#666 = EDGE_CURVE ( 'NONE', #258, #507, #221, .T. ) ;
#667 = LINE ( 'NONE', #601, #350 ) ;
#668 = ORIENTED_EDGE ( 'NONE', *, *, #252, .T. ) ;
#669 = ORIENTED_EDGE ( 'NONE', *, *, #25, .T. ) ;
#670 = LINE ( 'NONE', #232, #481 ) ;
#671 = DIRECTION ( 'NONE',  ( 0.000000000000000000, 0.000000000000000000, 1.000000000000000000 ) ) ;
#672 = ORIENTED_EDGE ( 'NONE', *, *, #622, .F. ) ;
#673 = EDGE_CURVE ( 'NONE', #573, #121, #327, .T. ) ;
#674 = CARTESIAN_POINT ( 'NONE',  ( 0.000000000000000000, 0.000000000000000000, 3.000000000000000000 ) ) ;
#675 = EDGE_CURVE ( 'NONE', #647, #511, #281, .T. ) ;
#676 = DIRECTION ( 'NONE',  ( 1.000000000000000000, 0.000000000000000000, 0.000000000000000000 ) ) ;
#677 =( GEOMETRIC_REPRESENTATION_CONTEXT ( 3 ) GLOBAL_UNCERTAINTY_ASSIGNED_CONTEXT ( ( #330 ) ) GLOBAL_UNIT_ASSIGNED_CONTEXT ( ( #273, #270, #285 ) ) REPRESENTATION_CONTEXT ( 'NONE', 'WORKASPACE' ) );
#678 = EDGE_LOOP ( 'NONE', ( #97, #591, #319, #10 ) ) ;
#679 = FACE_OUTER_BOUND ( 'NONE', #488, .T. ) ;
#680 = CONICAL_SURFACE ( 'NONE', #241, 1.125000000000000000, 0.7853981633974518317 ) ;
#681 = DIRECTION ( 'NONE',  ( 0.000000000000000000, 0.000000000000000000, -1.000000000000000000 ) ) ;
#682 = FACE_OUTER_BOUND ( 'NONE', #306, .T. ) ;
#683 = CYLINDRICAL_SURFACE ( 'NONE', #63, 2.750000000000000000 ) ;
#684 = CIRCLE ( 'NONE', #321, 2.750000000000000000 ) ;
#685 = ADVANCED_FACE ( 'NONE', ( #540 ), #336, .F. ) ;
#686 = ORIENTED_EDGE ( 'NONE', *, *, #467, .F. ) ;
#687 = ORIENTED_EDGE ( 'NONE', *, *, #379, .F. ) ;
#688 = FACE_OUTER_BOUND ( 'NONE', #418, .T. ) ;
#689 = FACE_OUTER_BOUND ( 'NONE', #570, .T. ) ;
#690 = VECTOR ( 'NONE', #136, 1000.000000000000000 ) ;
#691 = EDGE_CURVE ( 'NONE', #368, #496, #119, .T. ) ;
#692 = EDGE_LOOP ( 'NONE', ( #342, #501, #527, #315 ) ) ;
#693 = ADVANCED_FACE ( 'NONE', ( #598 ), #388, .T. ) ;
#694 = ORIENTED_EDGE ( 'NONE', *, *, #666, .T. ) ;
#695 = FILL_AREA_STYLE_COLOUR ( '', #71 ) ;
#696 = DIRECTION ( 'NONE',  ( 1.000000000000000000, 0.000000000000000000, 0.000000000000000000 ) ) ;
#697 = VERTEX_POINT ( 'NONE', #436 ) ;
#698 = CARTESIAN_POINT ( 'NONE',  ( 1.600000000000000089, 0.000000000000000000, -0.1000000000000000056 ) ) ;
#699 = CARTESIAN_POINT ( 'NONE',  ( 2.750000000000000000, 3.367778697655220026E-16, 3.000000000000000000 ) ) ;
#700 = ORIENTED_EDGE ( 'NONE', *, *, #43, .T. ) ;
#701 = ORIENTED_EDGE ( 'NONE', *, *, #522, .T. ) ;
#702 = EDGE_CURVE ( 'NONE', #363, #496, #446, .T. ) ;
#703 = DIRECTION ( 'NONE',  ( 0.000000000000000000, 0.000000000000000000, -1.000000000000000000 ) ) ;
#704 = ORIENTED_EDGE ( 'NONE', *, *, #318, .F. ) ;
#705 = EDGE_LOOP ( 'NONE', ( #255, #145, #5, #280 ) ) ;
#706 = CARTESIAN_POINT ( 'NONE',  ( 0.000000000000000000, 0.000000000000000000, 2.576923076923075318 ) ) ;
#707 = AXIS2_PLACEMENT_3D ( 'NONE', #142, #515, #366 ) ;
#708 = DIRECTION ( 'NONE',  ( 1.000000000000000000, 0.000000000000000000, 0.000000000000000000 ) ) ;
#709 = ORIENTED_EDGE ( 'NONE', *, *, #691, .F. ) ;
#710 = CARTESIAN_POINT ( 'NONE',  ( 0.000000000000000000, 0.000000000000000000, -20.00000000000000000 ) ) ;
#711 = DIRECTION ( 'NONE',  ( 0.000000000000000000, 0.000000000000000000, 1.000000000000000000 ) ) ;
ENDSEC;
END-ISO-10303-21;
