ISO-10303-21;
HEADER;
FILE_DESCRIPTION (( 'STEP AP214' ),
    '1' );
FILE_NAME ('ÄÚÁù½ÇÔ²ÖùÍ·ÂÝ¶¤ M3x4A.STEP',
    '2026-08-16T17:27:00',
    ( '' ),
    ( '' ),
    'SwSTEP 2.0',
    'SolidWorks 2025',
    '' );
FILE_SCHEMA (( 'AUTOMOTIVE_DESIGN' ));
ENDSEC;

DATA;
#1 = AXIS2_PLACEMENT_3D ( 'NONE', #182, #661, #602 ) ;
#2 = ORIENTED_EDGE ( 'NONE', *, *, #243, .F. ) ;
#3 = CARTESIAN_POINT ( 'NONE',  ( 1.686395287559215114E-16, 1.501110699893025036, 3.000000000000000000 ) ) ;
#4 = DIRECTION ( 'NONE',  ( -0.7745966692414851806, 0.4472135954999590934, -0.4472135954999535978 ) ) ;
#5 = EDGE_CURVE ( 'NONE', #581, #250, #495, .T. ) ;
#6 = ORIENTED_EDGE ( 'NONE', *, *, #299, .T. ) ;
#7 = DIRECTION ( 'NONE',  ( 1.000000000000000000, 0.000000000000000000, 0.000000000000000000 ) ) ;
#8 = FACE_BOUND ( 'NONE', #259, .T. ) ;
#9 = AXIS2_PLACEMENT_3D ( 'NONE', #138, #133, #353 ) ;
#10 = ORIENTED_EDGE ( 'NONE', *, *, #308, .F. ) ;
#11 = CARTESIAN_POINT ( 'NONE',  ( 0.000000000000000000, 0.000000000000000000, -0.1000000000000000056 ) ) ;
#12 = LINE ( 'NONE', #338, #682 ) ;
#13 = DIRECTION ( 'NONE',  ( 1.000000000000000000, 0.000000000000000000, 0.000000000000000000 ) ) ;
#14 = CARTESIAN_POINT ( 'NONE',  ( -0.002209769544918869892, 0.001275811041606023924, 1.699999999999999956 ) ) ;
#15 = ORIENTED_EDGE ( 'NONE', *, *, #451, .F. ) ;
#16 = LINE ( 'NONE', #344, #413 ) ;
#17 = DIRECTION ( 'NONE',  ( -1.000000000000000000, 0.000000000000000000, 0.000000000000000000 ) ) ;
#18 = APPLICATION_PROTOCOL_DEFINITION ( 'draft international standard', 'automotive_design', 1998, #559 ) ;
#19 = EDGE_CURVE ( 'NONE', #98, #379, #306, .T. ) ;
#20 = LINE ( 'NONE', #300, #207 ) ;
#21 = DIRECTION ( 'NONE',  ( 0.000000000000000000, 0.000000000000000000, -1.000000000000000000 ) ) ;
#22 = AXIS2_PLACEMENT_3D ( 'NONE', #618, #570, #360 ) ;
#23 = EDGE_LOOP ( 'NONE', ( #522, #526, #452, #326 ) ) ;
#24 = EDGE_CURVE ( 'NONE', #513, #189, #617, .T. ) ;
#25 = PLANE ( 'NONE',  #266 ) ;
#26 = ORIENTED_EDGE ( 'NONE', *, *, #588, .T. ) ;
#27 = VECTOR ( 'NONE', #493, 1000.000000000000000 ) ;
#28 = ORIENTED_EDGE ( 'NONE', *, *, #56, .T. ) ;
#29 = DIRECTION ( 'NONE',  ( -0.8660254037844387076, 0.4999999999999998890, 0.000000000000000000 ) ) ;
#30 = VERTEX_POINT ( 'NONE', #305 ) ;
#31 = VECTOR ( 'NONE', #648, 1000.000000000000000 ) ;
#32 = ORIENTED_EDGE ( 'NONE', *, *, #641, .T. ) ;
#33 = DIRECTION ( 'NONE',  ( 1.000000000000000000, 0.000000000000000000, 0.000000000000000000 ) ) ;
#34 = DIRECTION ( 'NONE',  ( -1.000000000000000000, 0.000000000000000000, 0.000000000000000000 ) ) ;
#35 = VECTOR ( 'NONE', #172, 1000.000000000000000 ) ;
#36 = ORIENTED_EDGE ( 'NONE', *, *, #118, .F. ) ;
#37 = ORIENTED_EDGE ( 'NONE', *, *, #404, .T. ) ;
#38 = CARTESIAN_POINT ( 'NONE',  ( -0.001104884772459300071, -0.001913716562408685146, 1.699999999999999956 ) ) ;
#39 = CARTESIAN_POINT ( 'NONE',  ( 1.129916623503601953E-16, -1.501110699893025036, 2.449279538904900022 ) ) ;
#40 = EDGE_LOOP ( 'NONE', ( #567, #470, #383, #6 ) ) ;
#41 = CARTESIAN_POINT ( 'NONE',  ( 0.000000000000000000, 0.000000000000000000, 2.576923076923075318 ) ) ;
#42 = CARTESIAN_POINT ( 'NONE',  ( 0.002209769544918545065, -0.001275811041605804264, 1.699999999999999956 ) ) ;
#43 = ORIENTED_EDGE ( 'NONE', *, *, #204, .T. ) ;
#44 = DIRECTION ( 'NONE',  ( -0.8660254037844387076, -0.4999999999999998890, 0.000000000000000000 ) ) ;
#45 = DIRECTION ( 'NONE',  ( 1.000000000000000000, 0.000000000000000000, 0.000000000000000000 ) ) ;
#46 = ORIENTED_EDGE ( 'NONE', *, *, #314, .T. ) ;
#47 = ORIENTED_EDGE ( 'NONE', *, *, #548, .T. ) ;
#48 = CYLINDRICAL_SURFACE ( 'NONE', #340, 1.500000000000000000 ) ;
#49 = LINE ( 'NONE', #210, #86 ) ;
#50 = DIRECTION ( 'NONE',  ( 0.2499999999999976130, -0.4330127018922154125, -0.8660254037844413721 ) ) ;
#51 = CARTESIAN_POINT ( 'NONE',  ( 0.000000000000000000, 0.000000000000000000, 0.000000000000000000 ) ) ;
#52 = EDGE_CURVE ( 'NONE', #189, #263, #419, .T. ) ;
#53 = DIRECTION ( 'NONE',  ( 0.000000000000000000, 0.000000000000000000, 1.000000000000000000 ) ) ;
#54 = DIRECTION ( 'NONE',  ( -0.4999999999999990008, 0.000000000000000000, -0.8660254037844392627 ) ) ;
#55 = MANIFOLD_SOLID_BREP ( 'NONE', #283 ) ;
#56 = EDGE_CURVE ( 'NONE', #141, #80, #365, .T. ) ;
#57 = ORIENTED_EDGE ( 'NONE', *, *, #568, .T. ) ;
#58 = CIRCLE ( 'NONE', #361, 1.600000000000000089 ) ;
#59 = FACE_OUTER_BOUND ( 'NONE', #691, .T. ) ;
#60 = CARTESIAN_POINT ( 'NONE',  ( 0.001104884772459272099, 0.001913716562408635056, 1.699999999999999956 ) ) ;
#61 = AXIS2_PLACEMENT_3D ( 'NONE', #639, #157, #527 ) ;
#62 = PLANE ( 'NONE',  #1 ) ;
#63 = COLOUR_RGB ( '',0.7921568627450980005, 0.8196078431372548767, 0.9333333333333333481 ) ;
#64 = UNCERTAINTY_MEASURE_WITH_UNIT (LENGTH_MEASURE( 1.000000000000000082E-05 ), #75, 'distance_accuracy_value', 'NONE');
#65 = ORIENTED_EDGE ( 'NONE', *, *, #557, .F. ) ;
#66 = CARTESIAN_POINT ( 'NONE',  ( -1.300000000000000044, 0.7505553499465139611, 1.699999999999999956 ) ) ;
#67 = ADVANCED_FACE ( 'NONE', ( #197 ), #369, .F. ) ;
#68 = LINE ( 'NONE', #125, #101 ) ;
#69 = EDGE_CURVE ( 'NONE', #30, #213, #313, .T. ) ;
#70 = EDGE_LOOP ( 'NONE', ( #533, #571, #336, #593 ) ) ;
#71 = CIRCLE ( 'NONE', #163, 2.326923076923074873 ) ;
#72 = CARTESIAN_POINT ( 'NONE',  ( 1.129916623503601953E-16, -1.501110699893025036, 3.000000000000000000 ) ) ;
#73 = DIRECTION ( 'NONE',  ( 0.000000000000000000, 0.000000000000000000, 1.000000000000000000 ) ) ;
#74 = DIRECTION ( 'NONE',  ( -0.7745966692414851806, 0.4472135954999590934, 0.4472135954999535978 ) ) ;
#75 =( LENGTH_UNIT ( ) NAMED_UNIT ( * ) SI_UNIT ( .MILLI., .METRE. ) );
#76 = ADVANCED_FACE ( 'NONE', ( #241 ), #235, .T. ) ;
#77 = DIRECTION ( 'NONE',  ( -0.7071067811865460184, 8.659560562354908206E-17, 0.7071067811865489050 ) ) ;
#78 = SURFACE_STYLE_USAGE ( .BOTH. , #302 ) ;
#79 = AXIS2_PLACEMENT_3D ( 'NONE', #251, #515, #192 ) ;
#80 = VERTEX_POINT ( 'NONE', #583 ) ;
#81 = SHAPE_DEFINITION_REPRESENTATION ( #564, #165 ) ;
#82 = CIRCLE ( 'NONE', #485, 0.4230769230769231282 ) ;
#83 = DIRECTION ( 'NONE',  ( -0.9607689228305237306, 0.000000000000000000, 0.2773500981126114096 ) ) ;
#84 = EDGE_CURVE ( 'NONE', #113, #650, #49, .T. ) ;
#85 = CARTESIAN_POINT ( 'NONE',  ( -6.352747104407249654E-19, -0.002041297666569259935, 1.699744837791679952 ) ) ;
#86 = VECTOR ( 'NONE', #265, 999.9999999999998863 ) ;
#87 = TOROIDAL_SURFACE ( 'NONE', #346, 1.600000000000000089, 0.1000000000000000056 ) ;
#88 = ORIENTED_EDGE ( 'NONE', *, *, #447, .T. ) ;
#89 = DIRECTION ( 'NONE',  ( 0.8660254037844387076, -0.4999999999999998890, 0.000000000000000000 ) ) ;
#90 = AXIS2_PLACEMENT_3D ( 'NONE', #696, #587, #45 ) ;
#91 = ORIENTED_EDGE ( 'NONE', *, *, #288, .T. ) ;
#92 = CARTESIAN_POINT ( 'NONE',  ( 1.500000000000000000, 0.000000000000000000, -4.000000000000000000 ) ) ;
#93 = DIRECTION ( 'NONE',  ( 0.000000000000000000, 0.000000000000000000, 1.000000000000000000 ) ) ;
#94 = ORIENTED_EDGE ( 'NONE', *, *, #257, .T. ) ;
#95 = ORIENTED_EDGE ( 'NONE', *, *, #688, .T. ) ;
#96 = LINE ( 'NONE', #214, #304 ) ;
#97 = CYLINDRICAL_SURFACE ( 'NONE', #422, 2.750000000000000000 ) ;
#98 = VERTEX_POINT ( 'NONE', #256 ) ;
#99 = DIRECTION ( 'NONE',  ( 1.000000000000000000, 0.000000000000000000, 0.000000000000000000 ) ) ;
#100 = DIRECTION ( 'NONE',  ( -0.4999999999999998890, -0.8660254037844387076, 0.000000000000000000 ) ) ;
#101 = VECTOR ( 'NONE', #289, 1000.000000000000000 ) ;
#102 = VERTEX_POINT ( 'NONE', #42 ) ;
#103 = CARTESIAN_POINT ( 'NONE',  ( -1.600000000000000089, 1.959434878635764984E-16, 8.809142651444719829E-17 ) ) ;
#104 = EDGE_CURVE ( 'NONE', #141, #208, #261, .T. ) ;
#105 = DIRECTION ( 'NONE',  ( 0.000000000000000000, 0.000000000000000000, -1.000000000000000000 ) ) ;
#106 = EDGE_LOOP ( 'NONE', ( #46, #633 ) ) ;
#107 = CARTESIAN_POINT ( 'NONE',  ( 1.686395287559215114E-16, 1.501110699893025036, 2.449279538904900022 ) ) ;
#108 = ADVANCED_FACE ( 'NONE', ( #373 ), #148, .T. ) ;
#109 = CARTESIAN_POINT ( 'NONE',  ( 0.000000000000000000, 0.000000000000000000, -4.000000000000000000 ) ) ;
#110 = CIRCLE ( 'NONE', #601, 2.750000000000000000 ) ;
#111 = FACE_OUTER_BOUND ( 'NONE', #167, .T. ) ;
#112 = DIRECTION ( 'NONE',  ( 1.000000000000000000, 0.000000000000000000, 0.000000000000000000 ) ) ;
#113 = VERTEX_POINT ( 'NONE', #201 ) ;
#114 = DIRECTION ( 'NONE',  ( 0.7745966692414851806, 0.4472135954999590934, 0.4472135954999535978 ) ) ;
#115 = VECTOR ( 'NONE', #74, 1000.000000000000114 ) ;
#116 = LINE ( 'NONE', #285, #615 ) ;
#117 = ADVANCED_FACE ( 'NONE', ( #528 ), #97, .T. ) ;
#118 = EDGE_CURVE ( 'NONE', #276, #681, #539, .T. ) ;
#119 = VERTEX_POINT ( 'NONE', #381 ) ;
#120 = CARTESIAN_POINT ( 'NONE',  ( 1.686395287559215114E-16, 1.501110699893025036, 2.449279538904900022 ) ) ;
#121 = AXIS2_PLACEMENT_3D ( 'NONE', #268, #152, #594 ) ;
#122 = CARTESIAN_POINT ( 'NONE',  ( 1.500000000000000000, 0.000000000000000000, -0.1000000000000000056 ) ) ;
#123 = ADVANCED_FACE ( 'NONE', ( #591 ), #426, .F. ) ;
#124 =( NAMED_UNIT ( * ) PLANE_ANGLE_UNIT ( ) SI_UNIT ( $, .RADIAN. ) );
#125 = CARTESIAN_POINT ( 'NONE',  ( -1.300000000000000044, -0.7505553499465130729, 3.000000000000000000 ) ) ;
#126 = PRODUCT_DEFINITION_FORMATION_WITH_SPECIFIED_SOURCE ( 'å¯', '', #325, .NOT_KNOWN. ) ;
#127 = ORIENTED_EDGE ( 'NONE', *, *, #52, .F. ) ;
#128 = ORIENTED_EDGE ( 'NONE', *, *, #104, .F. ) ;
#129 = AXIS2_PLACEMENT_3D ( 'NONE', #606, #402, #558 ) ;
#130 = PLANE ( 'NONE',  #145 ) ;
#131 = VERTEX_POINT ( 'NONE', #270 ) ;
#132 = DIRECTION ( 'NONE',  ( 0.4999999999999998890, -0.8660254037844387076, 0.000000000000000000 ) ) ;
#133 = DIRECTION ( 'NONE',  ( 0.000000000000000000, 0.000000000000000000, 1.000000000000000000 ) ) ;
#134 = DIRECTION ( 'NONE',  ( 1.000000000000000000, 0.000000000000000000, 0.000000000000000000 ) ) ;
#135 = ORIENTED_EDGE ( 'NONE', *, *, #204, .F. ) ;
#136 = ORIENTED_EDGE ( 'NONE', *, *, #701, .F. ) ;
#137 = CARTESIAN_POINT ( 'NONE',  ( -0.001767815635935069849, 0.001020648833284806042, 1.699744837791679952 ) ) ;
#138 = CARTESIAN_POINT ( 'NONE',  ( 0.000000000000000000, 0.000000000000000000, 0.000000000000000000 ) ) ;
#139 = EDGE_CURVE ( 'NONE', #579, #213, #110, .T. ) ;
#140 = FACE_OUTER_BOUND ( 'NONE', #318, .T. ) ;
#141 = VERTEX_POINT ( 'NONE', #39 ) ;
#142 = ORIENTED_EDGE ( 'NONE', *, *, #404, .F. ) ;
#143 = PLANE ( 'NONE',  #281 ) ;
#144 = DIRECTION ( 'NONE',  ( -0.9607689228305237306, 0.000000000000000000, -0.2773500981126114096 ) ) ;
#145 = AXIS2_PLACEMENT_3D ( 'NONE', #543, #54, #391 ) ;
#146 = EDGE_LOOP ( 'NONE', ( #135, #420, #608, #95 ) ) ;
#147 = PLANE ( 'NONE',  #179 ) ;
#148 = PLANE ( 'NONE',  #330 ) ;
#149 = ADVANCED_FACE ( 'NONE', ( #532 ), #645, .T. ) ;
#150 = VECTOR ( 'NONE', #260, 1000.000000000000000 ) ;
#151 = ORIENTED_EDGE ( 'NONE', *, *, #578, .T. ) ;
#152 = DIRECTION ( 'NONE',  ( 0.000000000000000000, 0.000000000000000000, -1.000000000000000000 ) ) ;
#153 = CARTESIAN_POINT ( 'NONE',  ( 0.000000000000000000, 0.000000000000000000, -4.000000000000000000 ) ) ;
#154 = CIRCLE ( 'NONE', #396, 2.750000000000000000 ) ;
#155 = MECHANICAL_DESIGN_GEOMETRIC_PRESENTATION_REPRESENTATION (  '', ( #408 ), #202 ) ;
#156 = ORIENTED_EDGE ( 'NONE', *, *, #308, .T. ) ;
#157 = DIRECTION ( 'NONE',  ( 0.000000000000000000, 0.000000000000000000, 1.000000000000000000 ) ) ;
#158 = DIRECTION ( 'NONE',  ( 0.000000000000000000, -1.000000000000000000, 0.000000000000000000 ) ) ;
#159 = TOROIDAL_SURFACE ( 'NONE', #183, 2.326923076923074873, 0.4230769230769230171 ) ;
#160 = ORIENTED_EDGE ( 'NONE', *, *, #198, .T. ) ;
#161 = DIRECTION ( 'NONE',  ( 0.000000000000000000, -1.000000000000000000, 0.000000000000000000 ) ) ;
#162 = CARTESIAN_POINT ( 'NONE',  ( -1.300000000000000044, 0.7505553499465139611, 2.449279538904900022 ) ) ;
#163 = AXIS2_PLACEMENT_3D ( 'NONE', #176, #550, #112 ) ;
#164 = CARTESIAN_POINT ( 'NONE',  ( -0.002209769544918869892, -0.001275811041605653994, 1.699999999999999956 ) ) ;
#165 = ADVANCED_BREP_SHAPE_REPRESENTATION ( '\X2\5185516d89d2570667f1593487ba9489\X0\ M3x4A', ( #55, #275 ), #644 ) ;
#166 = CARTESIAN_POINT ( 'NONE',  ( -2.326923076923074873, 2.849658898015954420E-16, 2.576923076923075318 ) ) ;
#167 = EDGE_LOOP ( 'NONE', ( #142, #238, #397, #544 ) ) ;
#168 = CARTESIAN_POINT ( 'NONE',  ( 1.300000000000000044, -0.7505553499465139611, 2.449279538904900022 ) ) ;
#169 = CARTESIAN_POINT ( 'NONE',  ( 1.129916623503601953E-16, -1.501110699893025036, 3.000000000000000000 ) ) ;
#170 = VERTEX_POINT ( 'NONE', #636 ) ;
#171 = APPLICATION_PROTOCOL_DEFINITION ( 'draft international standard', 'automotive_design', 1998, #664 ) ;
#172 = DIRECTION ( 'NONE',  ( 0.000000000000000000, 0.000000000000000000, -1.000000000000000000 ) ) ;
#173 = ADVANCED_FACE ( 'NONE', ( #219 ), #193, .T. ) ;
#174 = ADVANCED_FACE ( 'NONE', ( #274 ), #477, .F. ) ;
#175 = CONICAL_SURFACE ( 'NONE', #459, 1.125000000000000000, 0.7853981633974461696 ) ;
#176 = CARTESIAN_POINT ( 'NONE',  ( 0.000000000000000000, 0.000000000000000000, 3.000000000000000000 ) ) ;
#177 = ORIENTED_EDGE ( 'NONE', *, *, #500, .F. ) ;
#178 = FACE_OUTER_BOUND ( 'NONE', #366, .T. ) ;
#179 = AXIS2_PLACEMENT_3D ( 'NONE', #327, #319, #255 ) ;
#180 = DIRECTION ( 'NONE',  ( 0.8660254037844387076, 0.4999999999999998890, 0.000000000000000000 ) ) ;
#181 = ADVANCED_FACE ( 'NONE', ( #484, #206 ), #632, .T. ) ;
#182 = CARTESIAN_POINT ( 'NONE',  ( 0.000000000000000000, 0.000000000000000000, 0.000000000000000000 ) ) ;
#183 = AXIS2_PLACEMENT_3D ( 'NONE', #556, #53, #553 ) ;
#184 = VERTEX_POINT ( 'NONE', #480 ) ;
#185 = DIRECTION ( 'NONE',  ( 0.8660254037844387076, -0.4999999999999998890, 0.000000000000000000 ) ) ;
#186 = VERTEX_POINT ( 'NONE', #693 ) ;
#187 = DIRECTION ( 'NONE',  ( 1.000000000000000000, 0.000000000000000000, 0.000000000000000000 ) ) ;
#188 = CARTESIAN_POINT ( 'NONE',  ( 0.000000000000000000, 0.000000000000000000, -4.000000000000000000 ) ) ;
#189 = VERTEX_POINT ( 'NONE', #708 ) ;
#190 = DIRECTION ( 'NONE',  ( 1.000000000000000000, 0.000000000000000000, 0.000000000000000000 ) ) ;
#191 = EDGE_CURVE ( 'NONE', #184, #254, #215, .T. ) ;
#192 = DIRECTION ( 'NONE',  ( -1.000000000000000000, 1.224646799147350742E-16, 0.000000000000000000 ) ) ;
#193 = TOROIDAL_SURFACE ( 'NONE', #502, 2.326923076923074873, 0.4230769230769230171 ) ;
#194 = CARTESIAN_POINT ( 'NONE',  ( 1.300000000000000044, 0.7505553499465139611, 3.000000000000000000 ) ) ;
#195 = ORIENTED_EDGE ( 'NONE', *, *, #84, .T. ) ;
#196 = CARTESIAN_POINT ( 'NONE',  ( -1.500000000000000000, 1.836970198721030181E-16, -0.1000000000000000056 ) ) ;
#197 = FACE_OUTER_BOUND ( 'NONE', #534, .T. ) ;
#198 = EDGE_CURVE ( 'NONE', #186, #119, #521, .T. ) ;
#199 = VERTEX_POINT ( 'NONE', #122 ) ;
#200 = CARTESIAN_POINT ( 'NONE',  ( -1.300000000000000044, -0.7505553499465130729, 3.000000000000000000 ) ) ;
#201 = CARTESIAN_POINT ( 'NONE',  ( -3.549148911124870385E-16, 0.002551622083211735163, 1.699999999999999956 ) ) ;
#202 =( GEOMETRIC_REPRESENTATION_CONTEXT ( 3 ) GLOBAL_UNCERTAINTY_ASSIGNED_CONTEXT ( ( #64 ) ) GLOBAL_UNIT_ASSIGNED_CONTEXT ( ( #75, #687, #675 ) ) REPRESENTATION_CONTEXT ( 'NONE', 'WORKASPACE' ) );
#203 = EDGE_LOOP ( 'NONE', ( #128, #242, #703, #91 ) ) ;
#204 = EDGE_CURVE ( 'NONE', #98, #412, #12, .T. ) ;
#205 = LINE ( 'NONE', #209, #637 ) ;
#206 = FACE_OUTER_BOUND ( 'NONE', #106, .T. ) ;
#207 = VECTOR ( 'NONE', #185, 1000.000000000000000 ) ;
#208 = VERTEX_POINT ( 'NONE', #72 ) ;
#209 = CARTESIAN_POINT ( 'NONE',  ( -0.001104884772459300071, -0.001913716562408685146, 1.699999999999999956 ) ) ;
#210 = CARTESIAN_POINT ( 'NONE',  ( -4.338926272310154473E-16, 0.002041297666569509735, 1.699744837791679952 ) ) ;
#211 = VECTOR ( 'NONE', #577, 1000.000000000000000 ) ;
#212 = AXIS2_PLACEMENT_3D ( 'NONE', #406, #357, #34 ) ;
#213 = VERTEX_POINT ( 'NONE', #449 ) ;
#214 = CARTESIAN_POINT ( 'NONE',  ( -1.300000000000000044, -0.7505553499465130729, 1.699999999999999956 ) ) ;
#215 = LINE ( 'NONE', #162, #290 ) ;
#216 = ADVANCED_FACE ( 'NONE', ( #59 ), #228, .T. ) ;
#217 = AXIS2_PLACEMENT_3D ( 'NONE', #505, #443, #660 ) ;
#218 = DIRECTION ( 'NONE',  ( 0.000000000000000000, -0.8944271909999180759, 0.4472135954999535978 ) ) ;
#219 = FACE_OUTER_BOUND ( 'NONE', #705, .T. ) ;
#220 = AXIS2_PLACEMENT_3D ( 'NONE', #649, #324, #317 ) ;
#221 = PRODUCT_RELATED_PRODUCT_CATEGORY ( 'part', '', ( #325 ) ) ;
#222 = DIRECTION ( 'NONE',  ( 0.000000000000000000, 0.000000000000000000, 1.000000000000000000 ) ) ;
#223 = FACE_OUTER_BOUND ( 'NONE', #386, .T. ) ;
#224 = CARTESIAN_POINT ( 'NONE',  ( 1.300000000000000044, -0.7505553499465139611, 2.449279538904900022 ) ) ;
#225 = LINE ( 'NONE', #169, #403 ) ;
#226 = ORIENTED_EDGE ( 'NONE', *, *, #56, .F. ) ;
#227 = LINE ( 'NONE', #332, #667 ) ;
#228 = CYLINDRICAL_SURFACE ( 'NONE', #469, 2.750000000000000000 ) ;
#229 =( LENGTH_UNIT ( ) NAMED_UNIT ( * ) SI_UNIT ( .MILLI., .METRE. ) );
#230 = FACE_OUTER_BOUND ( 'NONE', #659, .T. ) ;
#231 = ORIENTED_EDGE ( 'NONE', *, *, #298, .F. ) ;
#232 = LINE ( 'NONE', #107, #31 ) ;
#233 = CARTESIAN_POINT ( 'NONE',  ( 1.125000000000000000, 0.000000000000000000, -4.000000000000000000 ) ) ;
#234 = EDGE_CURVE ( 'NONE', #119, #697, #71, .T. ) ;
#235 = CONICAL_SURFACE ( 'NONE', #628, 1.125000000000000000, 0.7853981633974461696 ) ;
#236 = VECTOR ( 'NONE', #431, 1000.000000000000000 ) ;
#237 = DIRECTION ( 'NONE',  ( 0.000000000000000000, 0.000000000000000000, 1.000000000000000000 ) ) ;
#238 = ORIENTED_EDGE ( 'NONE', *, *, #433, .F. ) ;
#239 = FACE_OUTER_BOUND ( 'NONE', #456, .T. ) ;
#240 = AXIS2_PLACEMENT_3D ( 'NONE', #247, #132, #573 ) ;
#241 = FACE_OUTER_BOUND ( 'NONE', #23, .T. ) ;
#242 = ORIENTED_EDGE ( 'NONE', *, *, #416, .T. ) ;
#243 = EDGE_CURVE ( 'NONE', #647, #141, #16, .T. ) ;
#244 = DIRECTION ( 'NONE',  ( 1.000000000000000000, 1.444533268016499903E-16, 0.000000000000000000 ) ) ;
#245 = CIRCLE ( 'NONE', #217, 1.500000000000000000 ) ;
#246 = ORIENTED_EDGE ( 'NONE', *, *, #540, .F. ) ;
#247 = CARTESIAN_POINT ( 'NONE',  ( 1.129916623503601953E-16, -1.501110699893025036, 1.699999999999999956 ) ) ;
#248 = CARTESIAN_POINT ( 'NONE',  ( 1.300000000000000044, -0.7505553499465139611, 3.000000000000000000 ) ) ;
#249 = AXIS2_PLACEMENT_3D ( 'NONE', #445, #541, #490 ) ;
#250 = VERTEX_POINT ( 'NONE', #554 ) ;
#251 = CARTESIAN_POINT ( 'NONE',  ( -1.600000000000000089, 1.959434878635764984E-16, -0.1000000000000000056 ) ) ;
#252 = VECTOR ( 'NONE', #4, 1000.000000000000114 ) ;
#253 = EDGE_CURVE ( 'NONE', #647, #102, #491, .T. ) ;
#254 = VERTEX_POINT ( 'NONE', #333 ) ;
#255 = DIRECTION ( 'NONE',  ( 0.000000000000000000, 0.000000000000000000, -1.000000000000000000 ) ) ;
#256 = CARTESIAN_POINT ( 'NONE',  ( -1.500000000000000000, 1.836970198721030181E-16, -3.625000000000000000 ) ) ;
#257 = EDGE_CURVE ( 'NONE', #184, #681, #116, .T. ) ;
#258 = ORIENTED_EDGE ( 'NONE', *, *, #451, .T. ) ;
#259 = EDGE_LOOP ( 'NONE', ( #598, #656 ) ) ;
#260 = DIRECTION ( 'NONE',  ( 0.000000000000000000, 0.000000000000000000, 1.000000000000000000 ) ) ;
#261 = LINE ( 'NONE', #596, #236 ) ;
#262 = ORIENTED_EDGE ( 'NONE', *, *, #514, .F. ) ;
#263 = VERTEX_POINT ( 'NONE', #280 ) ;
#264 = CARTESIAN_POINT ( 'NONE',  ( 1.300000000000000044, 0.7505553499465139611, 1.699999999999999956 ) ) ;
#265 = DIRECTION ( 'NONE',  ( 2.436595994804600262E-16, 0.8944271909999180759, 0.4472135954999535978 ) ) ;
#266 = AXIS2_PLACEMENT_3D ( 'NONE', #467, #237, #190 ) ;
#267 = ORIENTED_EDGE ( 'NONE', *, *, #468, .F. ) ;
#268 = CARTESIAN_POINT ( 'NONE',  ( 0.000000000000000000, 0.000000000000000000, -4.000000000000000000 ) ) ;
#269 = EDGE_CURVE ( 'NONE', #170, #471, #293, .T. ) ;
#270 = CARTESIAN_POINT ( 'NONE',  ( 1.125000000000000000, 0.000000000000000000, -4.000000000000000000 ) ) ;
#271 = CIRCLE ( 'NONE', #61, 2.750000000000000000 ) ;
#272 = ORIENTED_EDGE ( 'NONE', *, *, #348, .T. ) ;
#273 = DIRECTION ( 'NONE',  ( 0.000000000000000000, -0.8944271909999180759, 0.4472135954999535978 ) ) ;
#274 = FACE_OUTER_BOUND ( 'NONE', #529, .T. ) ;
#275 = AXIS2_PLACEMENT_3D ( 'NONE', #343, #222, #7 ) ;
#276 = VERTEX_POINT ( 'NONE', #14 ) ;
#277 = LINE ( 'NONE', #3, #401 ) ;
#278 = DIRECTION ( 'NONE',  ( 0.000000000000000000, 0.000000000000000000, 1.000000000000000000 ) ) ;
#279 = EDGE_CURVE ( 'NONE', #131, #379, #494, .T. ) ;
#280 = CARTESIAN_POINT ( 'NONE',  ( 1.686395287559215114E-16, 1.501110699893025036, 3.000000000000000000 ) ) ;
#281 = AXIS2_PLACEMENT_3D ( 'NONE', #38, #710, #218 ) ;
#282 = EDGE_LOOP ( 'NONE', ( #498, #26, #156, #510 ) ) ;
#283 = CLOSED_SHELL ( 'NONE', ( #690, #321, #603, #368, #595, #67, #174, #658, #76, #108, #149, #428, #525, #455, #552, #123, #363, #354, #181, #117, #294, #216, #516, #378, #173, #334 ) ) ;
#284 = CARTESIAN_POINT ( 'NONE',  ( 0.000000000000000000, 0.000000000000000000, -0.1000000000000000056 ) ) ;
#285 = CARTESIAN_POINT ( 'NONE',  ( -0.001767815635935199954, -0.001020648833284503983, 1.699744837791679952 ) ) ;
#286 = ORIENTED_EDGE ( 'NONE', *, *, #416, .F. ) ;
#287 = LINE ( 'NONE', #168, #432 ) ;
#288 = EDGE_CURVE ( 'NONE', #471, #208, #68, .T. ) ;
#289 = DIRECTION ( 'NONE',  ( 0.8660254037844387076, -0.4999999999999998890, 0.000000000000000000 ) ) ;
#290 = VECTOR ( 'NONE', #488, 1000.000000000000000 ) ;
#291 = UNCERTAINTY_MEASURE_WITH_UNIT (LENGTH_MEASURE( 1.000000000000000082E-05 ), #229, 'distance_accuracy_value', 'NONE');
#292 = CARTESIAN_POINT ( 'NONE',  ( 1.300000000000000044, 0.7505553499465139611, 2.449279538904900022 ) ) ;
#293 = LINE ( 'NONE', #652, #646 ) ;
#294 = ADVANCED_FACE ( 'NONE', ( #8, #230 ), #62, .F. ) ;
#295 = CARTESIAN_POINT ( 'NONE',  ( -0.001104884772459460100, 0.001913716562408965087, 1.699999999999999956 ) ) ;
#296 = VECTOR ( 'NONE', #21, 1000.000000000000000 ) ;
#297 = FACE_OUTER_BOUND ( 'NONE', #442, .T. ) ;
#298 = EDGE_CURVE ( 'NONE', #80, #102, #393, .T. ) ;
#299 = EDGE_CURVE ( 'NONE', #208, #513, #225, .T. ) ;
#300 = CARTESIAN_POINT ( 'NONE',  ( 1.300000000000000044, 0.7505553499465139611, 2.449279538904900022 ) ) ;
#301 = AXIS2_PLACEMENT_3D ( 'NONE', #566, #244, #669 ) ;
#302 = SURFACE_SIDE_STYLE ('',( #415 ) ) ;
#303 = CARTESIAN_POINT ( 'NONE',  ( 0.000000000000000000, 0.000000000000000000, -4.000000000000000000 ) ) ;
#304 = VECTOR ( 'NONE', #692, 1000.000000000000000 ) ;
#305 = CARTESIAN_POINT ( 'NONE',  ( 2.750000000000000000, 3.367778697655220026E-16, 2.576923076923075318 ) ) ;
#306 = CIRCLE ( 'NONE', #212, 1.500000000000000000 ) ;
#307 = LINE ( 'NONE', #465, #394 ) ;
#308 = EDGE_CURVE ( 'NONE', #186, #579, #613, .T. ) ;
#309 = CARTESIAN_POINT ( 'NONE',  ( 0.001104884772459243910, 0.001913716562408590170, 1.699999999999999956 ) ) ;
#310 = ORIENTED_EDGE ( 'NONE', *, *, #621, .F. ) ;
#311 = DIRECTION ( 'NONE',  ( 0.000000000000000000, 0.000000000000000000, 1.000000000000000000 ) ) ;
#312 = VECTOR ( 'NONE', #453, 1000.000000000000114 ) ;
#313 = LINE ( 'NONE', #524, #296 ) ;
#314 = EDGE_CURVE ( 'NONE', #697, #119, #440, .T. ) ;
#315 = ORIENTED_EDGE ( 'NONE', *, *, #663, .T. ) ;
#316 = CARTESIAN_POINT ( 'NONE',  ( -2.750000000000000000, 0.000000000000000000, 0.000000000000000000 ) ) ;
#317 = DIRECTION ( 'NONE',  ( 0.000000000000000000, -1.000000000000000000, -8.340016711426849285E-17 ) ) ;
#318 = EDGE_LOOP ( 'NONE', ( #177, #612, #668, #574 ) ) ;
#319 = DIRECTION ( 'NONE',  ( 0.4999999999999998890, 0.8660254037844387076, 0.000000000000000000 ) ) ;
#320 = DIRECTION ( 'NONE',  ( 1.000000000000000000, 0.000000000000000000, 0.000000000000000000 ) ) ;
#321 = ADVANCED_FACE ( 'NONE', ( #614 ), #130, .F. ) ;
#322 = EDGE_LOOP ( 'NONE', ( #246, #530, #462, #489 ) ) ;
#323 = FACE_OUTER_BOUND ( 'NONE', #694, .T. ) ;
#324 = DIRECTION ( 'NONE',  ( 0.4999999999999990008, 7.222666340082408302E-17, -0.8660254037844392627 ) ) ;
#325 = PRODUCT ( '\X2\5185516d89d2570667f1593487ba9489\X0\ M3x4A', '\X2\5185516d89d2570667f1593487ba9489\X0\ M3x4A', '', ( #448 ) ) ;
#326 = ORIENTED_EDGE ( 'NONE', *, *, #19, .F. ) ;
#327 = CARTESIAN_POINT ( 'NONE',  ( 1.300000000000000044, 0.7505553499465139611, 1.699999999999999956 ) ) ;
#328 = CARTESIAN_POINT ( 'NONE',  ( 0.000000000000000000, 0.000000000000000000, 3.000000000000000000 ) ) ;
#329 = DIRECTION ( 'NONE',  ( 1.000000000000000000, 0.000000000000000000, 0.000000000000000000 ) ) ;
#330 = AXIS2_PLACEMENT_3D ( 'NONE', #153, #702, #711 ) ;
#331 = ORIENTED_EDGE ( 'NONE', *, *, #500, .T. ) ;
#332 = CARTESIAN_POINT ( 'NONE',  ( 0.002209769544918545065, 3.192085622284514981E-19, 1.699999999999999956 ) ) ;
#333 = CARTESIAN_POINT ( 'NONE',  ( -1.300000000000000044, 0.7505553499465139611, 2.449279538904900022 ) ) ;
#334 = ADVANCED_FACE ( 'NONE', ( #223 ), #427, .F. ) ;
#335 = VECTOR ( 'NONE', #29, 1000.000000000000000 ) ;
#336 = ORIENTED_EDGE ( 'NONE', *, *, #447, .F. ) ;
#337 = DIRECTION ( 'NONE',  ( 0.000000000000000000, 0.000000000000000000, 1.000000000000000000 ) ) ;
#338 = CARTESIAN_POINT ( 'NONE',  ( -1.500000000000000000, 1.836970198721030181E-16, -4.000000000000000000 ) ) ;
#339 = ORIENTED_EDGE ( 'NONE', *, *, #257, .F. ) ;
#340 = AXIS2_PLACEMENT_3D ( 'NONE', #372, #586, #643 ) ;
#341 = PRODUCT_DEFINITION_CONTEXT ( 'detailed design', #559, 'design' ) ;
#342 = ORIENTED_EDGE ( 'NONE', *, *, #588, .F. ) ;
#343 = CARTESIAN_POINT ( 'NONE',  ( 0.000000000000000000, 0.000000000000000000, 0.000000000000000000 ) ) ;
#344 = CARTESIAN_POINT ( 'NONE',  ( 1.129916623503601953E-16, -1.501110699893025036, 2.449279538904900022 ) ) ;
#345 = ORIENTED_EDGE ( 'NONE', *, *, #118, .T. ) ;
#346 = AXIS2_PLACEMENT_3D ( 'NONE', #11, #337, #13 ) ;
#347 = CARTESIAN_POINT ( 'NONE',  ( 0.001104884772459272099, -0.001913716562408640260, 1.699999999999999956 ) ) ;
#348 = EDGE_CURVE ( 'NONE', #131, #492, #511, .T. ) ;
#349 = VECTOR ( 'NONE', #180, 1000.000000000000000 ) ;
#350 = PLANE ( 'NONE',  #700 ) ;
#351 = EDGE_LOOP ( 'NONE', ( #88, #43, #32, #65 ) ) ;
#352 = FACE_OUTER_BOUND ( 'NONE', #70, .T. ) ;
#353 = DIRECTION ( 'NONE',  ( 1.000000000000000000, 0.000000000000000000, 0.000000000000000000 ) ) ;
#354 = ADVANCED_FACE ( 'NONE', ( #140 ), #561, .F. ) ;
#355 = EDGE_CURVE ( 'NONE', #650, #638, #20, .T. ) ;
#356 = CARTESIAN_POINT ( 'NONE',  ( 1.686395287559215114E-16, 1.501110699893025036, 1.699999999999999956 ) ) ;
#357 = DIRECTION ( 'NONE',  ( 0.000000000000000000, 0.000000000000000000, 1.000000000000000000 ) ) ;
#358 = ORIENTED_EDGE ( 'NONE', *, *, #683, .F. ) ;
#359 = ORIENTED_EDGE ( 'NONE', *, *, #198, .F. ) ;
#360 = DIRECTION ( 'NONE',  ( 0.000000000000000000, 0.000000000000000000, 1.000000000000000000 ) ) ;
#361 = AXIS2_PLACEMENT_3D ( 'NONE', #622, #506, #187 ) ;
#362 = DIRECTION ( 'NONE',  ( -1.444533268016499903E-16, 1.000000000000000000, 0.000000000000000000 ) ) ;
#363 = ADVANCED_FACE ( 'NONE', ( #616 ), #405, .F. ) ;
#364 = EDGE_CURVE ( 'NONE', #650, #263, #512, .T. ) ;
#365 = LINE ( 'NONE', #85, #400 ) ;
#366 = EDGE_LOOP ( 'NONE', ( #359, #342, #458, #684 ) ) ;
#367 = LINE ( 'NONE', #430, #657 ) ;
#368 = ADVANCED_FACE ( 'NONE', ( #239 ), #350, .F. ) ;
#369 = PLANE ( 'NONE',  #600 ) ;
#370 = ORIENTED_EDGE ( 'NONE', *, *, #674, .F. ) ;
#371 = ORIENTED_EDGE ( 'NONE', *, *, #314, .F. ) ;
#372 = CARTESIAN_POINT ( 'NONE',  ( 0.000000000000000000, 0.000000000000000000, -4.000000000000000000 ) ) ;
#373 = FACE_OUTER_BOUND ( 'NONE', #503, .T. ) ;
#374 = ORIENTED_EDGE ( 'NONE', *, *, #568, .F. ) ;
#375 = CARTESIAN_POINT ( 'NONE',  ( -1.125000000000000000, 1.607348923880900052E-16, -4.000000000000000000 ) ) ;
#376 = CIRCLE ( 'NONE', #121, 1.125000000000000000 ) ;
#377 = VECTOR ( 'NONE', #362, 1000.000000000000000 ) ;
#378 = ADVANCED_FACE ( 'NONE', ( #352 ), #175, .T. ) ;
#379 = VERTEX_POINT ( 'NONE', #673 ) ;
#380 = LINE ( 'NONE', #523, #610 ) ;
#381 = CARTESIAN_POINT ( 'NONE',  ( -2.326923076923074873, 3.108718797835590181E-16, 3.000000000000000000 ) ) ;
#382 = EDGE_CURVE ( 'NONE', #492, #98, #307, .T. ) ;
#383 = ORIENTED_EDGE ( 'NONE', *, *, #104, .T. ) ;
#384 = CARTESIAN_POINT ( 'NONE',  ( 0.000000000000000000, 0.000000000000000000, 2.576923076923075318 ) ) ;
#385 = DIRECTION ( 'NONE',  ( 1.000000000000000000, 0.000000000000000000, 0.000000000000000000 ) ) ;
#386 = EDGE_LOOP ( 'NONE', ( #623, #37, #698, #136 ) ) ;
#387 =( NAMED_UNIT ( * ) SI_UNIT ( $, .STERADIAN. ) SOLID_ANGLE_UNIT ( ) );
#388 = DIRECTION ( 'NONE',  ( 1.224646799147353947E-16, 1.000000000000000000, 0.000000000000000000 ) ) ;
#389 = ORIENTED_EDGE ( 'NONE', *, *, #611, .F. ) ;
#390 = DIRECTION ( 'NONE',  ( 1.444533268016499903E-16, -1.000000000000000000, 0.000000000000000000 ) ) ;
#391 = DIRECTION ( 'NONE',  ( -0.8660254037844392627, 0.000000000000000000, 0.4999999999999990008 ) ) ;
#392 = DIRECTION ( 'NONE',  ( 1.000000000000000000, 0.000000000000000000, 0.000000000000000000 ) ) ;
#393 = LINE ( 'NONE', #347, #349 ) ;
#394 = VECTOR ( 'NONE', #77, 1000.000000000000114 ) ;
#395 = CARTESIAN_POINT ( 'NONE',  ( 0.001767815635934809858, -0.001020648833284654037, 1.699744837791679952 ) ) ;
#396 = AXIS2_PLACEMENT_3D ( 'NONE', #41, #706, #99 ) ;
#397 = ORIENTED_EDGE ( 'NONE', *, *, #701, .T. ) ;
#398 = LINE ( 'NONE', #60, #676 ) ;
#399 = DIRECTION ( 'NONE',  ( 0.8660254037844387076, 0.4999999999999998890, 0.000000000000000000 ) ) ;
#400 = VECTOR ( 'NONE', #509, 999.9999999999998863 ) ;
#401 = VECTOR ( 'NONE', #605, 1000.000000000000000 ) ;
#402 = DIRECTION ( 'NONE',  ( 0.000000000000000000, 0.000000000000000000, 1.000000000000000000 ) ) ;
#403 = VECTOR ( 'NONE', #399, 1000.000000000000000 ) ;
#404 = EDGE_CURVE ( 'NONE', #581, #412, #607, .T. ) ;
#405 = PLANE ( 'NONE',  #240 ) ;
#406 = CARTESIAN_POINT ( 'NONE',  ( 0.000000000000000000, 0.000000000000000000, -3.625000000000000000 ) ) ;
#407 = ORIENTED_EDGE ( 'NONE', *, *, #580, .F. ) ;
#408 = STYLED_ITEM ( 'NONE', ( #520 ), #55 ) ;
#409 = PLANE ( 'NONE',  #22 ) ;
#410 = DIRECTION ( 'NONE',  ( 1.000000000000000000, 0.000000000000000000, 0.000000000000000000 ) ) ;
#411 = DIRECTION ( 'NONE',  ( 0.000000000000000000, 0.000000000000000000, 1.000000000000000000 ) ) ;
#412 = VERTEX_POINT ( 'NONE', #196 ) ;
#413 = VECTOR ( 'NONE', #444, 1000.000000000000000 ) ;
#414 = CARTESIAN_POINT ( 'NONE',  ( 0.000000000000000000, 0.000000000000000000, -3.625000000000000000 ) ) ;
#415 = SURFACE_STYLE_FILL_AREA ( #565 ) ;
#416 = EDGE_CURVE ( 'NONE', #141, #184, #624, .T. ) ;
#417 = ORIENTED_EDGE ( 'NONE', *, *, #253, .T. ) ;
#418 = CARTESIAN_POINT ( 'NONE',  ( -1.300000000000000044, -0.7505553499465130729, 2.449279538904900022 ) ) ;
#419 = LINE ( 'NONE', #194, #707 ) ;
#420 = ORIENTED_EDGE ( 'NONE', *, *, #19, .T. ) ;
#421 = FACE_OUTER_BOUND ( 'NONE', #322, .T. ) ;
#422 = AXIS2_PLACEMENT_3D ( 'NONE', #328, #105, #423 ) ;
#423 = DIRECTION ( 'NONE',  ( -1.000000000000000000, 0.000000000000000000, 0.000000000000000000 ) ) ;
#424 = EDGE_LOOP ( 'NONE', ( #478, #625, #461, #482, #653, #127 ) ) ;
#425 = CARTESIAN_POINT ( 'NONE',  ( -1.300000000000000044, 0.7505553499465139611, 1.699999999999999956 ) ) ;
#426 = PLANE ( 'NONE',  #542 ) ;
#427 = TOROIDAL_SURFACE ( 'NONE', #481, 1.600000000000000089, 0.1000000000000000056 ) ;
#428 = ADVANCED_FACE ( 'NONE', ( #626 ), #25, .T. ) ;
#429 = ORIENTED_EDGE ( 'NONE', *, *, #298, .T. ) ;
#430 = CARTESIAN_POINT ( 'NONE',  ( -0.001104884772459460100, 0.001913716562408965087, 1.699999999999999956 ) ) ;
#431 = DIRECTION ( 'NONE',  ( 0.000000000000000000, 0.000000000000000000, 1.000000000000000000 ) ) ;
#432 = VECTOR ( 'NONE', #390, 1000.000000000000000 ) ;
#433 = EDGE_CURVE ( 'NONE', #250, #581, #58, .T. ) ;
#434 = ORIENTED_EDGE ( 'NONE', *, *, #355, .T. ) ;
#435 = CARTESIAN_POINT ( 'NONE',  ( 0.001104884772459297903, -0.001913716562408685146, 1.699999999999999956 ) ) ;
#436 = DIRECTION ( 'NONE',  ( -0.8660254037844387076, 0.4999999999999998890, 0.000000000000000000 ) ) ;
#437 = CIRCLE ( 'NONE', #249, 0.1000000000000000056 ) ;
#438 = FACE_OUTER_BOUND ( 'NONE', #351, .T. ) ;
#439 = CARTESIAN_POINT ( 'NONE',  ( 0.000000000000000000, 0.000000000000000000, 2.576923076923075318 ) ) ;
#440 = CIRCLE ( 'NONE', #129, 2.326923076923074873 ) ;
#441 = ORIENTED_EDGE ( 'NONE', *, *, #253, .F. ) ;
#442 = EDGE_LOOP ( 'NONE', ( #389, #562, #454, #315 ) ) ;
#443 = DIRECTION ( 'NONE',  ( 0.000000000000000000, 0.000000000000000000, -1.000000000000000000 ) ) ;
#444 = DIRECTION ( 'NONE',  ( -0.8660254037844387076, -0.4999999999999998890, 0.000000000000000000 ) ) ;
#445 = CARTESIAN_POINT ( 'NONE',  ( 1.600000000000000089, 0.000000000000000000, -0.1000000000000000056 ) ) ;
#446 = CARTESIAN_POINT ( 'NONE',  ( 0.000000000000000000, 0.000000000000000000, 3.000000000000000000 ) ) ;
#447 = EDGE_CURVE ( 'NONE', #379, #98, #635, .T. ) ;
#448 = PRODUCT_CONTEXT ( 'NONE', #664, 'mechanical' ) ;
#449 = CARTESIAN_POINT ( 'NONE',  ( 2.750000000000000000, 3.367778697655220026E-16, 0.000000000000000000 ) ) ;
#450 = ORIENTED_EDGE ( 'NONE', *, *, #355, .F. ) ;
#451 = EDGE_CURVE ( 'NONE', #276, #254, #563, .T. ) ;
#452 = ORIENTED_EDGE ( 'NONE', *, *, #279, .T. ) ;
#453 = DIRECTION ( 'NONE',  ( 0.7071067811865460184, 0.000000000000000000, 0.7071067811865489050 ) ) ;
#454 = ORIENTED_EDGE ( 'NONE', *, *, #364, .T. ) ;
#455 = ADVANCED_FACE ( 'NONE', ( #297 ), #409, .F. ) ;
#456 = EDGE_LOOP ( 'NONE', ( #195, #370, #15, #267 ) ) ;
#457 = DIRECTION ( 'NONE',  ( 0.000000000000000000, 0.000000000000000000, 1.000000000000000000 ) ) ;
#458 = ORIENTED_EDGE ( 'NONE', *, *, #514, .T. ) ;
#459 = AXIS2_PLACEMENT_3D ( 'NONE', #303, #680, #33 ) ;
#460 = DIRECTION ( 'NONE',  ( -0.2499999999999976685, 0.4330127018922157456, -0.8660254037844412611 ) ) ;
#461 = ORIENTED_EDGE ( 'NONE', *, *, #288, .F. ) ;
#462 = ORIENTED_EDGE ( 'NONE', *, *, #611, .T. ) ;
#463 = CIRCLE ( 'NONE', #572, 2.750000000000000000 ) ;
#464 = PRESENTATION_LAYER_ASSIGNMENT (  '', '', ( #408 ) ) ;
#465 = CARTESIAN_POINT ( 'NONE',  ( -1.125000000000000000, 1.377727649040774115E-16, -4.000000000000000000 ) ) ;
#466 = DIRECTION ( 'NONE',  ( -0.8660254037844387076, 0.4999999999999998890, 0.000000000000000000 ) ) ;
#467 = CARTESIAN_POINT ( 'NONE',  ( 0.000000000000000000, 0.000000000000000000, 1.699999999999999956 ) ) ;
#468 = EDGE_CURVE ( 'NONE', #113, #276, #367, .T. ) ;
#469 = AXIS2_PLACEMENT_3D ( 'NONE', #446, #666, #501 ) ;
#470 = ORIENTED_EDGE ( 'NONE', *, *, #243, .T. ) ;
#471 = VERTEX_POINT ( 'NONE', #200 ) ;
#472 = EDGE_LOOP ( 'NONE', ( #258, #672, #94, #36 ) ) ;
#473 = CARTESIAN_POINT ( 'NONE',  ( 2.326923076923074873, 0.000000000000000000, 2.576923076923075318 ) ) ;
#474 = CARTESIAN_POINT ( 'NONE',  ( -1.300000000000000044, -0.7505553499465130729, 1.699999999999999956 ) ) ;
#475 = ORIENTED_EDGE ( 'NONE', *, *, #580, .T. ) ;
#476 = LINE ( 'NONE', #264, #150 ) ;
#477 = PLANE ( 'NONE',  #220 ) ;
#478 = ORIENTED_EDGE ( 'NONE', *, *, #24, .F. ) ;
#479 = CARTESIAN_POINT ( 'NONE',  ( 1.300000000000000044, -0.7505553499465139611, 3.000000000000000000 ) ) ;
#480 = CARTESIAN_POINT ( 'NONE',  ( -1.300000000000000044, -0.7505553499465130729, 2.449279538904900022 ) ) ;
#481 = AXIS2_PLACEMENT_3D ( 'NONE', #519, #457, #134 ) ;
#482 = ORIENTED_EDGE ( 'NONE', *, *, #269, .F. ) ;
#483 = FACE_OUTER_BOUND ( 'NONE', #585, .T. ) ;
#484 = FACE_BOUND ( 'NONE', #424, .T. ) ;
#485 = AXIS2_PLACEMENT_3D ( 'NONE', #473, #161, #695 ) ;
#486 = EDGE_LOOP ( 'NONE', ( #537, #345, #57, #429, #604, #575 ) ) ;
#487 = FACE_OUTER_BOUND ( 'NONE', #629, .T. ) ;
#488 = DIRECTION ( 'NONE',  ( 0.000000000000000000, 1.000000000000000000, 0.000000000000000000 ) ) ;
#489 = ORIENTED_EDGE ( 'NONE', *, *, #269, .T. ) ;
#490 = DIRECTION ( 'NONE',  ( 0.000000000000000000, 0.000000000000000000, -1.000000000000000000 ) ) ;
#491 = LINE ( 'NONE', #395, #252 ) ;
#492 = VERTEX_POINT ( 'NONE', #375 ) ;
#493 = DIRECTION ( 'NONE',  ( 0.000000000000000000, 0.000000000000000000, 1.000000000000000000 ) ) ;
#494 = LINE ( 'NONE', #233, #312 ) ;
#495 = CIRCLE ( 'NONE', #9, 1.600000000000000089 ) ;
#496 = DIRECTION ( 'NONE',  ( 0.000000000000000000, 0.000000000000000000, -1.000000000000000000 ) ) ;
#497 = DIRECTION ( 'NONE',  ( -1.000000000000000000, 1.224646799147353454E-16, 0.000000000000000000 ) ) ;
#498 = ORIENTED_EDGE ( 'NONE', *, *, #69, .F. ) ;
#499 = CARTESIAN_POINT ( 'NONE',  ( 0.001767815635934820049, 0.001020648833284536075, 1.699744837791679952 ) ) ;
#500 = EDGE_CURVE ( 'NONE', #638, #189, #476, .T. ) ;
#501 = DIRECTION ( 'NONE',  ( -1.000000000000000000, 0.000000000000000000, 0.000000000000000000 ) ) ;
#502 = AXIS2_PLACEMENT_3D ( 'NONE', #439, #536, #329 ) ;
#503 = EDGE_LOOP ( 'NONE', ( #272, #151 ) ) ;
#504 = VERTEX_POINT ( 'NONE', #631 ) ;
#505 = CARTESIAN_POINT ( 'NONE',  ( 0.000000000000000000, 0.000000000000000000, -0.1000000000000000056 ) ) ;
#506 = DIRECTION ( 'NONE',  ( 0.000000000000000000, 0.000000000000000000, 1.000000000000000000 ) ) ;
#507 = VECTOR ( 'NONE', #158, 1000.000000000000000 ) ;
#508 = CARTESIAN_POINT ( 'NONE',  ( 0.000000000000000000, 0.000000000000000000, -4.000000000000000000 ) ) ;
#509 = DIRECTION ( 'NONE',  ( -1.433291761649762061E-16, 0.8944271909999180759, -0.4472135954999535978 ) ) ;
#510 = ORIENTED_EDGE ( 'NONE', *, *, #139, .T. ) ;
#511 = CIRCLE ( 'NONE', #671, 1.125000000000000000 ) ;
#512 = LINE ( 'NONE', #356, #547 ) ;
#513 = VERTEX_POINT ( 'NONE', #479 ) ;
#514 = EDGE_CURVE ( 'NONE', #30, #697, #82, .T. ) ;
#515 = DIRECTION ( 'NONE',  ( 1.224646799147351975E-16, 1.000000000000000000, 0.000000000000000000 ) ) ;
#516 = ADVANCED_FACE ( 'NONE', ( #438 ), #48, .T. ) ;
#517 = ORIENTED_EDGE ( 'NONE', *, *, #548, .F. ) ;
#518 = ORIENTED_EDGE ( 'NONE', *, *, #620, .F. ) ;
#519 = CARTESIAN_POINT ( 'NONE',  ( 0.000000000000000000, 0.000000000000000000, -0.1000000000000000056 ) ) ;
#520 = PRESENTATION_STYLE_ASSIGNMENT (( #78 ) ) ;
#521 = CIRCLE ( 'NONE', #592, 0.4230769230769231282 ) ;
#522 = ORIENTED_EDGE ( 'NONE', *, *, #382, .F. ) ;
#523 = CARTESIAN_POINT ( 'NONE',  ( 1.300000000000000044, -0.7505553499465139611, 1.699999999999999956 ) ) ;
#524 = CARTESIAN_POINT ( 'NONE',  ( 2.750000000000000000, 3.367778697655220026E-16, 3.000000000000000000 ) ) ;
#525 = ADVANCED_FACE ( 'NONE', ( #483 ), #147, .F. ) ;
#526 = ORIENTED_EDGE ( 'NONE', *, *, #348, .F. ) ;
#527 = DIRECTION ( 'NONE',  ( 1.000000000000000000, 0.000000000000000000, 0.000000000000000000 ) ) ;
#528 = FACE_OUTER_BOUND ( 'NONE', #282, .T. ) ;
#529 = EDGE_LOOP ( 'NONE', ( #441, #518, #310, #358 ) ) ;
#530 = ORIENTED_EDGE ( 'NONE', *, *, #191, .T. ) ;
#531 = DIRECTION ( 'NONE',  ( 0.000000000000000000, 0.000000000000000000, -1.000000000000000000 ) ) ;
#532 = FACE_OUTER_BOUND ( 'NONE', #146, .T. ) ;
#533 = ORIENTED_EDGE ( 'NONE', *, *, #578, .F. ) ;
#534 = EDGE_LOOP ( 'NONE', ( #589, #450, #689, #685 ) ) ;
#535 = PLANE ( 'NONE',  #662 ) ;
#536 = DIRECTION ( 'NONE',  ( 0.000000000000000000, 0.000000000000000000, 1.000000000000000000 ) ) ;
#537 = ORIENTED_EDGE ( 'NONE', *, *, #468, .T. ) ;
#538 = DIRECTION ( 'NONE',  ( 1.000000000000000000, 0.000000000000000000, 0.000000000000000000 ) ) ;
#539 = LINE ( 'NONE', #640, #507 ) ;
#540 = EDGE_CURVE ( 'NONE', #184, #471, #96, .T. ) ;
#541 = DIRECTION ( 'NONE',  ( 0.000000000000000000, -1.000000000000000000, 0.000000000000000000 ) ) ;
#542 = AXIS2_PLACEMENT_3D ( 'NONE', #474, #100, #436 ) ;
#543 = CARTESIAN_POINT ( 'NONE',  ( -0.002209769544918869892, 0.000000000000000000, 1.699999999999999956 ) ) ;
#544 = ORIENTED_EDGE ( 'NONE', *, *, #641, .F. ) ;
#545 = CARTESIAN_POINT ( 'NONE',  ( 2.326923076923074873, 0.000000000000000000, 3.000000000000000000 ) ) ;
#546 = DIRECTION ( 'NONE',  ( 0.000000000000000000, -1.000000000000000000, 0.000000000000000000 ) ) ;
#547 = VECTOR ( 'NONE', #73, 1000.000000000000000 ) ;
#548 = EDGE_CURVE ( 'NONE', #186, #30, #463, .T. ) ;
#549 = LINE ( 'NONE', #66, #27 ) ;
#550 = DIRECTION ( 'NONE',  ( 0.000000000000000000, 0.000000000000000000, 1.000000000000000000 ) ) ;
#551 = VECTOR ( 'NONE', #114, 1000.000000000000114 ) ;
#552 = ADVANCED_FACE ( 'NONE', ( #421 ), #582, .F. ) ;
#553 = DIRECTION ( 'NONE',  ( 1.000000000000000000, 0.000000000000000000, 0.000000000000000000 ) ) ;
#554 = CARTESIAN_POINT ( 'NONE',  ( 1.600000000000000089, 0.000000000000000000, 8.809142651444719829E-17 ) ) ;
#555 = CIRCLE ( 'NONE', #576, 1.500000000000000000 ) ;
#556 = CARTESIAN_POINT ( 'NONE',  ( 0.000000000000000000, 0.000000000000000000, 2.576923076923075318 ) ) ;
#557 = EDGE_CURVE ( 'NONE', #379, #199, #699, .T. ) ;
#558 = DIRECTION ( 'NONE',  ( 1.000000000000000000, 0.000000000000000000, 0.000000000000000000 ) ) ;
#559 = APPLICATION_CONTEXT ( 'automotive_design' ) ;
#560 = AXIS2_PLACEMENT_3D ( 'NONE', #109, #597, #385 ) ;
#561 = PLANE ( 'NONE',  #301 ) ;
#562 = ORIENTED_EDGE ( 'NONE', *, *, #674, .T. ) ;
#563 = LINE ( 'NONE', #137, #115 ) ;
#564 = PRODUCT_DEFINITION_SHAPE ( 'NONE', 'NONE',  #665 ) ;
#565 = FILL_AREA_STYLE ('',( #679 ) ) ;
#566 = CARTESIAN_POINT ( 'NONE',  ( 1.300000000000000044, -0.7505553499465139611, 1.699999999999999956 ) ) ;
#567 = ORIENTED_EDGE ( 'NONE', *, *, #584, .F. ) ;
#568 = EDGE_CURVE ( 'NONE', #681, #80, #205, .T. ) ;
#569 = AXIS2_PLACEMENT_3D ( 'NONE', #414, #411, #17 ) ;
#570 = DIRECTION ( 'NONE',  ( -0.4999999999999998890, 0.8660254037844387076, 0.000000000000000000 ) ) ;
#571 = ORIENTED_EDGE ( 'NONE', *, *, #382, .T. ) ;
#572 = AXIS2_PLACEMENT_3D ( 'NONE', #384, #531, #538 ) ;
#573 = DIRECTION ( 'NONE',  ( 0.000000000000000000, 0.000000000000000000, -1.000000000000000000 ) ) ;
#574 = ORIENTED_EDGE ( 'NONE', *, *, #24, .T. ) ;
#575 = ORIENTED_EDGE ( 'NONE', *, *, #630, .T. ) ;
#576 = AXIS2_PLACEMENT_3D ( 'NONE', #284, #496, #392 ) ;
#577 = DIRECTION ( 'NONE',  ( 0.000000000000000000, 0.000000000000000000, 1.000000000000000000 ) ) ;
#578 = EDGE_CURVE ( 'NONE', #492, #131, #376, .T. ) ;
#579 = VERTEX_POINT ( 'NONE', #316 ) ;
#580 = EDGE_CURVE ( 'NONE', #213, #579, #271, .T. ) ;
#581 = VERTEX_POINT ( 'NONE', #103 ) ;
#582 = PLANE ( 'NONE',  #704 ) ;
#583 = CARTESIAN_POINT ( 'NONE',  ( -1.397522127253402304E-17, -0.002551622083211549982, 1.699999999999999956 ) ) ;
#584 = EDGE_CURVE ( 'NONE', #647, #513, #380, .T. ) ;
#585 = EDGE_LOOP ( 'NONE', ( #642, #434, #331, #677 ) ) ;
#586 = DIRECTION ( 'NONE',  ( 0.000000000000000000, 0.000000000000000000, 1.000000000000000000 ) ) ;
#587 = DIRECTION ( 'NONE',  ( 0.000000000000000000, 0.000000000000000000, 1.000000000000000000 ) ) ;
#588 = EDGE_CURVE ( 'NONE', #30, #186, #154, .T. ) ;
#589 = ORIENTED_EDGE ( 'NONE', *, *, #621, .T. ) ;
#590 = DIRECTION ( 'NONE',  ( 0.000000000000000000, 0.000000000000000000, 1.000000000000000000 ) ) ;
#591 = FACE_OUTER_BOUND ( 'NONE', #203, .T. ) ;
#592 = AXIS2_PLACEMENT_3D ( 'NONE', #166, #388, #497 ) ;
#593 = ORIENTED_EDGE ( 'NONE', *, *, #279, .F. ) ;
#594 = DIRECTION ( 'NONE',  ( -1.000000000000000000, 0.000000000000000000, 0.000000000000000000 ) ) ;
#595 = ADVANCED_FACE ( 'NONE', ( #323 ), #535, .F. ) ;
#596 = CARTESIAN_POINT ( 'NONE',  ( 1.129916623503601953E-16, -1.501110699893025036, 1.699999999999999956 ) ) ;
#597 = DIRECTION ( 'NONE',  ( 0.000000000000000000, 0.000000000000000000, 1.000000000000000000 ) ) ;
#598 = ORIENTED_EDGE ( 'NONE', *, *, #433, .T. ) ;
#599 = DIRECTION ( 'NONE',  ( -1.444533268016499903E-16, 1.000000000000000000, 0.000000000000000000 ) ) ;
#600 = AXIS2_PLACEMENT_3D ( 'NONE', #309, #627, #144 ) ;
#601 = AXIS2_PLACEMENT_3D ( 'NONE', #51, #93, #320 ) ;
#602 = DIRECTION ( 'NONE',  ( 1.000000000000000000, 0.000000000000000000, 0.000000000000000000 ) ) ;
#603 = ADVANCED_FACE ( 'NONE', ( #487 ), #143, .F. ) ;
#604 = ORIENTED_EDGE ( 'NONE', *, *, #683, .T. ) ;
#605 = DIRECTION ( 'NONE',  ( -0.8660254037844387076, -0.4999999999999998890, 0.000000000000000000 ) ) ;
#606 = CARTESIAN_POINT ( 'NONE',  ( 0.000000000000000000, 0.000000000000000000, 3.000000000000000000 ) ) ;
#607 = CIRCLE ( 'NONE', #79, 0.1000000000000000472 ) ;
#608 = ORIENTED_EDGE ( 'NONE', *, *, #557, .T. ) ;
#609 = DIRECTION ( 'NONE',  ( 0.7745966692414851806, 0.4472135954999590934, -0.4472135954999535978 ) ) ;
#610 = VECTOR ( 'NONE', #590, 1000.000000000000000 ) ;
#611 = EDGE_CURVE ( 'NONE', #254, #170, #549, .T. ) ;
#612 = ORIENTED_EDGE ( 'NONE', *, *, #620, .T. ) ;
#613 = LINE ( 'NONE', #655, #35 ) ;
#614 = FACE_OUTER_BOUND ( 'NONE', #472, .T. ) ;
#615 = VECTOR ( 'NONE', #609, 1000.000000000000114 ) ;
#616 = FACE_OUTER_BOUND ( 'NONE', #40, .T. ) ;
#617 = LINE ( 'NONE', #248, #377 ) ;
#618 = CARTESIAN_POINT ( 'NONE',  ( 1.686395287559215114E-16, 1.501110699893025036, 1.699999999999999956 ) ) ;
#619 = DIRECTION ( 'NONE',  ( 0.000000000000000000, 0.000000000000000000, 1.000000000000000000 ) ) ;
#620 = EDGE_CURVE ( 'NONE', #638, #647, #287, .T. ) ;
#621 = EDGE_CURVE ( 'NONE', #504, #638, #651, .T. ) ;
#622 = CARTESIAN_POINT ( 'NONE',  ( 0.000000000000000000, 0.000000000000000000, 0.000000000000000000 ) ) ;
#623 = ORIENTED_EDGE ( 'NONE', *, *, #5, .F. ) ;
#624 = LINE ( 'NONE', #418, #335 ) ;
#625 = ORIENTED_EDGE ( 'NONE', *, *, #299, .F. ) ;
#626 = FACE_OUTER_BOUND ( 'NONE', #486, .T. ) ;
#627 = DIRECTION ( 'NONE',  ( 0.2499999999999976685, 0.4330127018922157456, -0.8660254037844412611 ) ) ;
#628 = AXIS2_PLACEMENT_3D ( 'NONE', #188, #619, #410 ) ;
#629 = EDGE_LOOP ( 'NONE', ( #28, #374, #339, #286 ) ) ;
#630 = EDGE_CURVE ( 'NONE', #504, #113, #398, .T. ) ;
#631 = CARTESIAN_POINT ( 'NONE',  ( 0.002209769544918545065, 0.001275811041605730105, 1.699999999999999956 ) ) ;
#632 = PLANE ( 'NONE',  #90 ) ;
#633 = ORIENTED_EDGE ( 'NONE', *, *, #234, .T. ) ;
#634 = DIRECTION ( 'NONE',  ( -1.000000000000000000, 0.000000000000000000, 0.000000000000000000 ) ) ;
#635 = CIRCLE ( 'NONE', #569, 1.500000000000000000 ) ;
#636 = CARTESIAN_POINT ( 'NONE',  ( -1.300000000000000044, 0.7505553499465139611, 3.000000000000000000 ) ) ;
#637 = VECTOR ( 'NONE', #89, 1000.000000000000000 ) ;
#638 = VERTEX_POINT ( 'NONE', #292 ) ;
#639 = CARTESIAN_POINT ( 'NONE',  ( 0.000000000000000000, 0.000000000000000000, 0.000000000000000000 ) ) ;
#640 = CARTESIAN_POINT ( 'NONE',  ( -0.002209769544918869892, 0.000000000000000000, 1.699999999999999956 ) ) ;
#641 = EDGE_CURVE ( 'NONE', #412, #199, #245, .T. ) ;
#642 = ORIENTED_EDGE ( 'NONE', *, *, #364, .F. ) ;
#643 = DIRECTION ( 'NONE',  ( 1.000000000000000000, 0.000000000000000000, 0.000000000000000000 ) ) ;
#644 =( GEOMETRIC_REPRESENTATION_CONTEXT ( 3 ) GLOBAL_UNCERTAINTY_ASSIGNED_CONTEXT ( ( #291 ) ) GLOBAL_UNIT_ASSIGNED_CONTEXT ( ( #229, #124, #387 ) ) REPRESENTATION_CONTEXT ( 'NONE', 'WORKASPACE' ) );
#645 = CYLINDRICAL_SURFACE ( 'NONE', #560, 1.500000000000000000 ) ;
#646 = VECTOR ( 'NONE', #546, 1000.000000000000000 ) ;
#647 = VERTEX_POINT ( 'NONE', #224 ) ;
#648 = DIRECTION ( 'NONE',  ( 0.8660254037844387076, 0.4999999999999998890, 0.000000000000000000 ) ) ;
#649 = CARTESIAN_POINT ( 'NONE',  ( 0.002209769544918545065, 3.192085622284514981E-19, 1.699999999999999956 ) ) ;
#650 = VERTEX_POINT ( 'NONE', #120 ) ;
#651 = LINE ( 'NONE', #499, #551 ) ;
#652 = CARTESIAN_POINT ( 'NONE',  ( -1.300000000000000044, 0.7505553499465139611, 3.000000000000000000 ) ) ;
#653 = ORIENTED_EDGE ( 'NONE', *, *, #663, .F. ) ;
#654 = DIRECTION ( 'NONE',  ( -0.8660254037844387076, 0.4999999999999998890, 0.000000000000000000 ) ) ;
#655 = CARTESIAN_POINT ( 'NONE',  ( -2.750000000000000000, 0.000000000000000000, 3.000000000000000000 ) ) ;
#656 = ORIENTED_EDGE ( 'NONE', *, *, #5, .T. ) ;
#657 = VECTOR ( 'NONE', #44, 1000.000000000000000 ) ;
#658 = ADVANCED_FACE ( 'NONE', ( #178 ), #159, .T. ) ;
#659 = EDGE_LOOP ( 'NONE', ( #670, #407 ) ) ;
#660 = DIRECTION ( 'NONE',  ( 1.000000000000000000, 0.000000000000000000, 0.000000000000000000 ) ) ;
#661 = DIRECTION ( 'NONE',  ( 0.000000000000000000, 0.000000000000000000, 1.000000000000000000 ) ) ;
#662 = AXIS2_PLACEMENT_3D ( 'NONE', #435, #50, #273 ) ;
#663 = EDGE_CURVE ( 'NONE', #263, #170, #277, .T. ) ;
#664 = APPLICATION_CONTEXT ( 'automotive_design' ) ;
#665 = PRODUCT_DEFINITION ( 'æ™', '', #126, #341 ) ;
#666 = DIRECTION ( 'NONE',  ( 0.000000000000000000, 0.000000000000000000, -1.000000000000000000 ) ) ;
#667 = VECTOR ( 'NONE', #599, 1000.000000000000000 ) ;
#668 = ORIENTED_EDGE ( 'NONE', *, *, #584, .T. ) ;
#669 = DIRECTION ( 'NONE',  ( -1.444533268016499903E-16, 1.000000000000000000, 0.000000000000000000 ) ) ;
#670 = ORIENTED_EDGE ( 'NONE', *, *, #139, .F. ) ;
#671 = AXIS2_PLACEMENT_3D ( 'NONE', #508, #686, #678 ) ;
#672 = ORIENTED_EDGE ( 'NONE', *, *, #191, .F. ) ;
#673 = CARTESIAN_POINT ( 'NONE',  ( 1.500000000000000000, 0.000000000000000000, -3.625000000000000000 ) ) ;
#674 = EDGE_CURVE ( 'NONE', #254, #650, #232, .T. ) ;
#675 =( NAMED_UNIT ( * ) SI_UNIT ( $, .STERADIAN. ) SOLID_ANGLE_UNIT ( ) );
#676 = VECTOR ( 'NONE', #654, 1000.000000000000000 ) ;
#677 = ORIENTED_EDGE ( 'NONE', *, *, #52, .T. ) ;
#678 = DIRECTION ( 'NONE',  ( -1.000000000000000000, 0.000000000000000000, 0.000000000000000000 ) ) ;
#679 = FILL_AREA_STYLE_COLOUR ( '', #63 ) ;
#680 = DIRECTION ( 'NONE',  ( 0.000000000000000000, 0.000000000000000000, 1.000000000000000000 ) ) ;
#681 = VERTEX_POINT ( 'NONE', #164 ) ;
#682 = VECTOR ( 'NONE', #278, 1000.000000000000000 ) ;
#683 = EDGE_CURVE ( 'NONE', #102, #504, #227, .T. ) ;
#684 = ORIENTED_EDGE ( 'NONE', *, *, #234, .F. ) ;
#685 = ORIENTED_EDGE ( 'NONE', *, *, #630, .F. ) ;
#686 = DIRECTION ( 'NONE',  ( 0.000000000000000000, 0.000000000000000000, -1.000000000000000000 ) ) ;
#687 =( NAMED_UNIT ( * ) PLANE_ANGLE_UNIT ( ) SI_UNIT ( $, .RADIAN. ) );
#688 = EDGE_CURVE ( 'NONE', #199, #412, #555, .T. ) ;
#689 = ORIENTED_EDGE ( 'NONE', *, *, #84, .F. ) ;
#690 = ADVANCED_FACE ( 'NONE', ( #111 ), #87, .F. ) ;
#691 = EDGE_LOOP ( 'NONE', ( #47, #709, #475, #10 ) ) ;
#692 = DIRECTION ( 'NONE',  ( 0.000000000000000000, 0.000000000000000000, 1.000000000000000000 ) ) ;
#693 = CARTESIAN_POINT ( 'NONE',  ( -2.750000000000000000, 0.000000000000000000, 2.576923076923075318 ) ) ;
#694 = EDGE_LOOP ( 'NONE', ( #417, #231, #226, #2 ) ) ;
#695 = DIRECTION ( 'NONE',  ( 0.000000000000000000, 0.000000000000000000, -1.000000000000000000 ) ) ;
#696 = CARTESIAN_POINT ( 'NONE',  ( 0.000000000000000000, 0.000000000000000000, 3.000000000000000000 ) ) ;
#697 = VERTEX_POINT ( 'NONE', #545 ) ;
#698 = ORIENTED_EDGE ( 'NONE', *, *, #688, .F. ) ;
#699 = LINE ( 'NONE', #92, #211 ) ;
#700 = AXIS2_PLACEMENT_3D ( 'NONE', #295, #460, #83 ) ;
#701 = EDGE_CURVE ( 'NONE', #250, #199, #437, .T. ) ;
#702 = DIRECTION ( 'NONE',  ( 0.000000000000000000, 0.000000000000000000, -1.000000000000000000 ) ) ;
#703 = ORIENTED_EDGE ( 'NONE', *, *, #540, .T. ) ;
#704 = AXIS2_PLACEMENT_3D ( 'NONE', #425, #634, #311 ) ;
#705 = EDGE_LOOP ( 'NONE', ( #517, #160, #371, #262 ) ) ;
#706 = DIRECTION ( 'NONE',  ( 0.000000000000000000, 0.000000000000000000, -1.000000000000000000 ) ) ;
#707 = VECTOR ( 'NONE', #466, 1000.000000000000000 ) ;
#708 = CARTESIAN_POINT ( 'NONE',  ( 1.300000000000000044, 0.7505553499465139611, 3.000000000000000000 ) ) ;
#709 = ORIENTED_EDGE ( 'NONE', *, *, #69, .T. ) ;
#710 = DIRECTION ( 'NONE',  ( -0.2499999999999976130, -0.4330127018922154125, -0.8660254037844413721 ) ) ;
#711 = DIRECTION ( 'NONE',  ( 0.000000000000000000, -1.000000000000000000, 0.000000000000000000 ) ) ;
ENDSEC;
END-ISO-10303-21;
