ISO-10303-21;
HEADER;
FILE_DESCRIPTION (( 'STEP AP214' ),
    '1' );
FILE_NAME ('Èû´òÂÝ¶¤(¿ªÔ´)A.STEP',
    '2026-08-16T17:26:54',
    ( '' ),
    ( '' ),
    'SwSTEP 2.0',
    'SolidWorks 2025',
    '' );
FILE_SCHEMA (( 'AUTOMOTIVE_DESIGN' ));
ENDSEC;

DATA;
#1 = CARTESIAN_POINT ( 'NONE',  ( 33.00000000000000000, 3.000000000000000000, 0.000000000000000000 ) ) ;
#2 = PLANE ( 'NONE',  #44 ) ;
#3 = CARTESIAN_POINT ( 'NONE',  ( 3.000000000000000000, 0.000000000000000000, 0.000000000000000000 ) ) ;
#4 = FACE_OUTER_BOUND ( 'NONE', #132, .T. ) ;
#5 = VECTOR ( 'NONE', #307, 1000.000000000000000 ) ;
#6 = EDGE_CURVE ( 'NONE', #319, #484, #37, .T. ) ;
#7 = EDGE_CURVE ( 'NONE', #40, #292, #450, .T. ) ;
#8 = PLANE ( 'NONE',  #282 ) ;
#9 = CARTESIAN_POINT ( 'NONE',  ( 0.000000000000000000, 7.960204194457795477E-16, -6.500000000000000000 ) ) ;
#10 = EDGE_CURVE ( 'NONE', #404, #471, #51, .T. ) ;
#11 = AXIS2_PLACEMENT_3D ( 'NONE', #3, #305, #458 ) ;
#12 = FACE_BOUND ( 'NONE', #476, .T. ) ;
#13 = AXIS2_PLACEMENT_3D ( 'NONE', #449, #257, #184 ) ;
#14 = EDGE_CURVE ( 'NONE', #319, #221, #84, .T. ) ;
#15 = CARTESIAN_POINT ( 'NONE',  ( 2.000000000000000000, -1.499999999999999334, -0.8660254037844375974 ) ) ;
#16 = CARTESIAN_POINT ( 'NONE',  ( 2.000000000000000000, 1.995021003971751010E-16, 1.732050807568877415 ) ) ;
#17 = AXIS2_PLACEMENT_3D ( 'NONE', #314, #434, #101 ) ;
#18 = ORIENTED_EDGE ( 'NONE', *, *, #42, .F. ) ;
#19 = FACE_OUTER_BOUND ( 'NONE', #69, .T. ) ;
#20 = ORIENTED_EDGE ( 'NONE', *, *, #425, .T. ) ;
#21 = PLANE ( 'NONE',  #127 ) ;
#22 = EDGE_LOOP ( 'NONE', ( #326, #176, #438, #27 ) ) ;
#23 = EDGE_CURVE ( 'NONE', #292, #130, #341, .T. ) ;
#24 = CARTESIAN_POINT ( 'NONE',  ( 0.000000000000000000, 0.000000000000000000, 0.000000000000000000 ) ) ;
#25 = EDGE_LOOP ( 'NONE', ( #368, #240, #296, #481, #208, #280 ) ) ;
#26 = FACE_OUTER_BOUND ( 'NONE', #25, .T. ) ;
#27 = ORIENTED_EDGE ( 'NONE', *, *, #369, .T. ) ;
#28 = VECTOR ( 'NONE', #487, 1000.000000000000227 ) ;
#29 = FACE_OUTER_BOUND ( 'NONE', #22, .T. ) ;
#30 = ADVANCED_FACE ( 'NONE', ( #267, #12 ), #48, .F. ) ;
#31 = VERTEX_POINT ( 'NONE', #193 ) ;
#32 = MANIFOLD_SOLID_BREP ( '\X2\52079664\X0\-\X2\62c94f38\X0\1', #111 ) ;
#33 = PLANE ( 'NONE',  #387 ) ;
#34 = ORIENTED_EDGE ( 'NONE', *, *, #482, .F. ) ;
#35 = ADVANCED_FACE ( 'NONE', ( #45 ), #2, .F. ) ;
#36 = CYLINDRICAL_SURFACE ( 'NONE', #13, 4.000000000000000000 ) ;
#37 = LINE ( 'NONE', #150, #297 ) ;
#38 = CIRCLE ( 'NONE', #197, 3.000000000000000000 ) ;
#39 = DIRECTION ( 'NONE',  ( 0.000000000000000000, 0.000000000000000000, 1.000000000000000000 ) ) ;
#40 = VERTEX_POINT ( 'NONE', #306 ) ;
#41 = EDGE_CURVE ( 'NONE', #375, #104, #125, .T. ) ;
#42 = EDGE_CURVE ( 'NONE', #62, #221, #456, .T. ) ;
#43 = EDGE_LOOP ( 'NONE', ( #144, #94, #55, #110 ) ) ;
#44 = AXIS2_PLACEMENT_3D ( 'NONE', #199, #308, #416 ) ;
#45 = FACE_OUTER_BOUND ( 'NONE', #173, .T. ) ;
#46 = DIRECTION ( 'NONE',  ( 0.000000000000000000, 0.000000000000000000, 1.000000000000000000 ) ) ;
#47 = EDGE_CURVE ( 'NONE', #147, #130, #86, .T. ) ;
#48 = PLANE ( 'NONE',  #171 ) ;
#49 = PRODUCT_DEFINITION_CONTEXT ( 'detailed design', #327, 'design' ) ;
#50 = DIRECTION ( 'NONE',  ( 0.000000000000000000, 0.000000000000000000, 1.000000000000000000 ) ) ;
#51 = LINE ( 'NONE', #117, #342 ) ;
#52 = AXIS2_PLACEMENT_3D ( 'NONE', #362, #286, #68 ) ;
#53 = CYLINDRICAL_SURFACE ( 'NONE', #160, 6.500000000000000000 ) ;
#54 = DIRECTION ( 'NONE',  ( 0.000000000000000000, 0.000000000000000000, 1.000000000000000000 ) ) ;
#55 = ORIENTED_EDGE ( 'NONE', *, *, #415, .F. ) ;
#56 = CARTESIAN_POINT ( 'NONE',  ( 2.000000000000000000, 1.500000000000000000, 0.8660254037844382635 ) ) ;
#57 = EDGE_LOOP ( 'NONE', ( #359, #256, #443, #242 ) ) ;
#58 = SHAPE_DEFINITION_REPRESENTATION ( #235, #380 ) ;
#59 = CARTESIAN_POINT ( 'NONE',  ( 0.000000000000000000, 1.995021003971751010E-16, 1.732050807568877415 ) ) ;
#60 = ORIENTED_EDGE ( 'NONE', *, *, #382, .F. ) ;
#61 = DIRECTION ( 'NONE',  ( -1.000000000000000000, 0.000000000000000000, -0.000000000000000000 ) ) ;
#62 = VERTEX_POINT ( 'NONE', #77 ) ;
#63 = CARTESIAN_POINT ( 'NONE',  ( 3.000000000000000000, 7.960204194457795477E-16, -6.500000000000000000 ) ) ;
#64 = ORIENTED_EDGE ( 'NONE', *, *, #382, .T. ) ;
#65 = DIRECTION ( 'NONE',  ( -1.000000000000000000, -0.000000000000000000, -0.000000000000000000 ) ) ;
#66 = VERTEX_POINT ( 'NONE', #227 ) ;
#67 = ADVANCED_FACE ( 'NONE', ( #4 ), #376, .T. ) ;
#68 = DIRECTION ( 'NONE',  ( 0.000000000000000000, 0.000000000000000000, -1.000000000000000000 ) ) ;
#69 = EDGE_LOOP ( 'NONE', ( #108, #335, #402, #253 ) ) ;
#70 = LINE ( 'NONE', #403, #222 ) ;
#71 = ORIENTED_EDGE ( 'NONE', *, *, #96, .T. ) ;
#72 = CIRCLE ( 'NONE', #11, 6.500000000000000000 ) ;
#73 = FACE_OUTER_BOUND ( 'NONE', #436, .T. ) ;
#74 = ORIENTED_EDGE ( 'NONE', *, *, #406, .T. ) ;
#75 = CARTESIAN_POINT ( 'NONE',  ( 3.000000000000000000, 0.000000000000000000, 0.000000000000000000 ) ) ;
#76 = EDGE_CURVE ( 'NONE', #141, #62, #82, .T. ) ;
#77 = CARTESIAN_POINT ( 'NONE',  ( 0.000000000000000000, 1.500000000000000222, -0.8660254037844379305 ) ) ;
#78 = EDGE_CURVE ( 'NONE', #292, #187, #266, .T. ) ;
#79 = VECTOR ( 'NONE', #204, 1000.000000000000000 ) ;
#80 = CARTESIAN_POINT ( 'NONE',  ( 2.000000000000000000, 1.995021003971751010E-16, 1.732050807568877415 ) ) ;
#81 = DIRECTION ( 'NONE',  ( -1.000000000000000000, -0.000000000000000000, -0.000000000000000000 ) ) ;
#82 = LINE ( 'NONE', #157, #202 ) ;
#83 = CARTESIAN_POINT ( 'NONE',  ( 2.000000000000000000, 1.500000000000000000, 0.8660254037844382635 ) ) ;
#84 = LINE ( 'NONE', #462, #490 ) ;
#85 = UNCERTAINTY_MEASURE_WITH_UNIT (LENGTH_MEASURE( 1.000000000000000082E-05 ), #383, 'distance_accuracy_value', 'NONE');
#86 = LINE ( 'NONE', #236, #105 ) ;
#87 = EDGE_CURVE ( 'NONE', #31, #258, #381, .T. ) ;
#88 = ADVANCED_FACE ( 'NONE', ( #19 ), #211, .T. ) ;
#89 = CARTESIAN_POINT ( 'NONE',  ( 23.00000000000000000, 4.898587196589412829E-16, -4.000000000000000000 ) ) ;
#90 = VECTOR ( 'NONE', #255, 1000.000000000000000 ) ;
#91 = ORIENTED_EDGE ( 'NONE', *, *, #92, .F. ) ;
#92 = EDGE_CURVE ( 'NONE', #484, #40, #470, .T. ) ;
#93 = CARTESIAN_POINT ( 'NONE',  ( 0.000000000000000000, 3.673940397442059868E-16, -3.000000000000000000 ) ) ;
#94 = ORIENTED_EDGE ( 'NONE', *, *, #142, .T. ) ;
#95 = CARTESIAN_POINT ( 'NONE',  ( 0.000000000000000000, 4.898587196589412829E-16, -4.000000000000000000 ) ) ;
#96 = EDGE_CURVE ( 'NONE', #250, #407, #291, .T. ) ;
#97 = PRODUCT_CONTEXT ( 'NONE', #431, 'mechanical' ) ;
#98 = AXIS2_PLACEMENT_3D ( 'NONE', #188, #374, #336 ) ;
#99 = DIRECTION ( 'NONE',  ( 0.000000000000000000, 0.000000000000000000, 1.000000000000000000 ) ) ;
#100 = ORIENTED_EDGE ( 'NONE', *, *, #300, .F. ) ;
#101 = DIRECTION ( 'NONE',  ( 0.000000000000000000, 0.000000000000000000, 1.000000000000000000 ) ) ;
#102 = ORIENTED_EDGE ( 'NONE', *, *, #261, .F. ) ;
#103 = PLANE ( 'NONE',  #155 ) ;
#104 = VERTEX_POINT ( 'NONE', #321 ) ;
#105 = VECTOR ( 'NONE', #385, 1000.000000000000114 ) ;
#106 = VECTOR ( 'NONE', #466, 1000.000000000000000 ) ;
#107 = CARTESIAN_POINT ( 'NONE',  ( 0.000000000000000000, 0.000000000000000000, 0.000000000000000000 ) ) ;
#108 = ORIENTED_EDGE ( 'NONE', *, *, #482, .T. ) ;
#109 = CARTESIAN_POINT ( 'NONE',  ( 0.000000000000000000, 1.995021003971751010E-16, 1.732050807568877415 ) ) ;
#110 = ORIENTED_EDGE ( 'NONE', *, *, #424, .F. ) ;
#111 = CLOSED_SHELL ( 'NONE', ( #88, #229, #275, #254, #226, #194, #303, #30, #67, #384, #149, #35, #196, #447, #126, #271, #251 ) ) ;
#112 = FACE_OUTER_BOUND ( 'NONE', #389, .T. ) ;
#113 = CARTESIAN_POINT ( 'NONE',  ( 2.000000000000000000, -1.499999999999999112, 0.8660254037844395958 ) ) ;
#114 = EDGE_CURVE ( 'NONE', #216, #62, #312, .T. ) ;
#115 = DIRECTION ( 'NONE',  ( -1.000000000000000000, -0.000000000000000000, -0.000000000000000000 ) ) ;
#116 = EDGE_LOOP ( 'NONE', ( #178, #64, #294, #337 ) ) ;
#117 = CARTESIAN_POINT ( 'NONE',  ( 0.000000000000000000, 0.000000000000000000, 6.500000000000000000 ) ) ;
#118 = DIRECTION ( 'NONE',  ( -1.000000000000000000, -0.000000000000000000, -0.000000000000000000 ) ) ;
#119 = CARTESIAN_POINT ( 'NONE',  ( 0.000000000000000000, 0.000000000000000000, 0.000000000000000000 ) ) ;
#120 = CARTESIAN_POINT ( 'NONE',  ( 23.00000000000000000, 0.000000000000000000, 0.000000000000000000 ) ) ;
#121 = CARTESIAN_POINT ( 'NONE',  ( 2.000000000000000000, 1.995021003971751010E-16, 1.732050807568877415 ) ) ;
#122 = AXIS2_PLACEMENT_3D ( 'NONE', #120, #234, #46 ) ;
#123 = CARTESIAN_POINT ( 'NONE',  ( 23.00000000000000000, 4.000000000000000000, 0.000000000000000000 ) ) ;
#124 = CARTESIAN_POINT ( 'NONE',  ( 3.000000000000000000, 0.000000000000000000, 6.500000000000000000 ) ) ;
#125 = LINE ( 'NONE', #9, #145 ) ;
#126 = ADVANCED_FACE ( 'NONE', ( #318 ), #209, .F. ) ;
#127 = AXIS2_PLACEMENT_3D ( 'NONE', #170, #61, #245 ) ;
#128 = FACE_OUTER_BOUND ( 'NONE', #445, .T. ) ;
#129 = DIRECTION ( 'NONE',  ( -1.000000000000000000, -0.000000000000000000, -0.000000000000000000 ) ) ;
#130 = VERTEX_POINT ( 'NONE', #59 ) ;
#131 = DIRECTION ( 'NONE',  ( -0.000000000000000000, 0.5000000000000003331, 0.8660254037844385966 ) ) ;
#132 = EDGE_LOOP ( 'NONE', ( #392, #185, #366, #351 ) ) ;
#133 = APPLICATION_PROTOCOL_DEFINITION ( 'draft international standard', 'automotive_design', 1998, #431 ) ;
#134 = DIRECTION ( 'NONE',  ( 0.000000000000000000, 0.5000000000000001110, -0.8660254037844387076 ) ) ;
#135 = ORIENTED_EDGE ( 'NONE', *, *, #424, .T. ) ;
#136 = CIRCLE ( 'NONE', #243, 6.500000000000000000 ) ;
#137 = CARTESIAN_POINT ( 'NONE',  ( 0.000000000000000000, 0.000000000000000000, 3.000000000000000000 ) ) ;
#138 = ORIENTED_EDGE ( 'NONE', *, *, #10, .F. ) ;
#139 = VECTOR ( 'NONE', #358, 1000.000000000000000 ) ;
#140 = DIRECTION ( 'NONE',  ( -1.000000000000000000, -0.000000000000000000, -0.000000000000000000 ) ) ;
#141 = VERTEX_POINT ( 'NONE', #165 ) ;
#142 = EDGE_CURVE ( 'NONE', #210, #250, #398, .T. ) ;
#143 = CARTESIAN_POINT ( 'NONE',  ( 2.000000000000000000, -1.499999999999999112, 0.8660254037844395958 ) ) ;
#144 = ORIENTED_EDGE ( 'NONE', *, *, #206, .T. ) ;
#145 = VECTOR ( 'NONE', #346, 1000.000000000000000 ) ;
#146 = CARTESIAN_POINT ( 'NONE',  ( 23.00000000000000000, 0.000000000000000000, 3.000000000000000000 ) ) ;
#147 = VERTEX_POINT ( 'NONE', #475 ) ;
#148 = DIRECTION ( 'NONE',  ( 0.000000000000000000, 0.000000000000000000, 1.000000000000000000 ) ) ;
#149 = ADVANCED_FACE ( 'NONE', ( #310 ), #241, .F. ) ;
#150 = CARTESIAN_POINT ( 'NONE',  ( 2.000000000000000000, 4.541175225040599946E-16, -1.732050807568876527 ) ) ;
#151 = VECTOR ( 'NONE', #423, 1000.000000000000114 ) ;
#152 = CARTESIAN_POINT ( 'NONE',  ( 2.000000000000000000, 4.541175225040599946E-16, -1.732050807568876527 ) ) ;
#153 = ORIENTED_EDGE ( 'NONE', *, *, #393, .F. ) ;
#154 = DIRECTION ( 'NONE',  ( -0.000000000000000000, 0.000000000000000000, 1.000000000000000000 ) ) ;
#155 = AXIS2_PLACEMENT_3D ( 'NONE', #213, #259, #39 ) ;
#156 = FILL_AREA_STYLE_COLOUR ( '', #317 ) ;
#157 = CARTESIAN_POINT ( 'NONE',  ( 2.000000000000000000, 1.500000000000000222, -0.8660254037844379305 ) ) ;
#158 = FACE_OUTER_BOUND ( 'NONE', #399, .T. ) ;
#159 = VECTOR ( 'NONE', #453, 1000.000000000000000 ) ;
#160 = AXIS2_PLACEMENT_3D ( 'NONE', #239, #391, #54 ) ;
#161 = DIRECTION ( 'NONE',  ( -1.000000000000000000, -0.000000000000000000, -0.000000000000000000 ) ) ;
#162 = DIRECTION ( 'NONE',  ( 0.000000000000000000, 0.000000000000000000, 1.000000000000000000 ) ) ;
#163 = VECTOR ( 'NONE', #465, 1000.000000000000227 ) ;
#164 = AXIS2_PLACEMENT_3D ( 'NONE', #388, #129, #99 ) ;
#165 = CARTESIAN_POINT ( 'NONE',  ( 2.000000000000000000, 1.500000000000000222, -0.8660254037844379305 ) ) ;
#166 = VERTEX_POINT ( 'NONE', #394 ) ;
#167 = CARTESIAN_POINT ( 'NONE',  ( 0.000000000000000000, 1.500000000000000000, 0.8660254037844382635 ) ) ;
#168 = ORIENTED_EDGE ( 'NONE', *, *, #281, .T. ) ;
#169 =( NAMED_UNIT ( * ) SI_UNIT ( $, .STERADIAN. ) SOLID_ANGLE_UNIT ( ) );
#170 = CARTESIAN_POINT ( 'NONE',  ( 3.000000000000000000, 6.500000000000000000, 0.000000000000000000 ) ) ;
#171 = AXIS2_PLACEMENT_3D ( 'NONE', #123, #459, #154 ) ;
#172 = DIRECTION ( 'NONE',  ( -1.000000000000000000, -0.000000000000000000, -0.000000000000000000 ) ) ;
#173 = EDGE_LOOP ( 'NONE', ( #201, #468, #410, #274 ) ) ;
#174 = DIRECTION ( 'NONE',  ( 0.000000000000000000, 0.000000000000000000, 1.000000000000000000 ) ) ;
#175 = DIRECTION ( 'NONE',  ( 0.000000000000000000, 0.000000000000000000, 1.000000000000000000 ) ) ;
#176 = ORIENTED_EDGE ( 'NONE', *, *, #23, .F. ) ;
#177 = CYLINDRICAL_SURFACE ( 'NONE', #237, 4.000000000000000000 ) ;
#178 = ORIENTED_EDGE ( 'NONE', *, *, #41, .F. ) ;
#179 = PRODUCT_DEFINITION_FORMATION_WITH_SPECIFIED_SOURCE ( 'å¯', '', #463, .NOT_KNOWN. ) ;
#180 = CARTESIAN_POINT ( 'NONE',  ( 3.000000000000000444, 4.898587196589412829E-16, -4.000000000000000000 ) ) ;
#181 = VECTOR ( 'NONE', #401, 1000.000000000000227 ) ;
#182 = DIRECTION ( 'NONE',  ( 0.000000000000000000, -0.8660254037844384856, 0.5000000000000001110 ) ) ;
#183 = EDGE_CURVE ( 'NONE', #210, #278, #378, .T. ) ;
#184 = DIRECTION ( 'NONE',  ( 0.000000000000000000, 0.000000000000000000, 1.000000000000000000 ) ) ;
#185 = ORIENTED_EDGE ( 'NONE', *, *, #300, .T. ) ;
#186 = DIRECTION ( 'NONE',  ( -1.000000000000000000, -0.000000000000000000, -0.000000000000000000 ) ) ;
#187 = VERTEX_POINT ( 'NONE', #56 ) ;
#188 = CARTESIAN_POINT ( 'NONE',  ( 0.000000000000000000, 0.000000000000000000, 0.000000000000000000 ) ) ;
#189 = DIRECTION ( 'NONE',  ( -1.000000000000000000, -0.000000000000000000, -0.000000000000000000 ) ) ;
#190 = PRESENTATION_STYLE_ASSIGNMENT (( #233 ) ) ;
#191 = DIRECTION ( 'NONE',  ( -1.000000000000000000, -0.000000000000000000, -0.000000000000000000 ) ) ;
#192 = PRESENTATION_LAYER_ASSIGNMENT (  '', '', ( #276 ) ) ;
#193 = CARTESIAN_POINT ( 'NONE',  ( 33.00000000000000000, 0.000000000000000000, 3.000000000000000000 ) ) ;
#194 = ADVANCED_FACE ( 'NONE', ( #432, #207 ), #21, .F. ) ;
#195 = CARTESIAN_POINT ( 'NONE',  ( 2.000000000000000000, -1.499999999999999334, -0.8660254037844375974 ) ) ;
#196 = ADVANCED_FACE ( 'NONE', ( #128 ), #353, .F. ) ;
#197 = AXIS2_PLACEMENT_3D ( 'NONE', #265, #230, #379 ) ;
#198 = CIRCLE ( 'NONE', #454, 4.000000000000000000 ) ;
#199 = CARTESIAN_POINT ( 'NONE',  ( 2.000000000000000000, 4.541175225040599946E-16, -1.732050807568876527 ) ) ;
#200 = FACE_OUTER_BOUND ( 'NONE', #43, .T. ) ;
#201 = ORIENTED_EDGE ( 'NONE', *, *, #309, .T. ) ;
#202 = VECTOR ( 'NONE', #339, 1000.000000000000000 ) ;
#203 = AXIS2_PLACEMENT_3D ( 'NONE', #24, #437, #162 ) ;
#204 = DIRECTION ( 'NONE',  ( 0.000000000000000000, 1.251928832280966928E-16, -1.000000000000000000 ) ) ;
#205 = ORIENTED_EDGE ( 'NONE', *, *, #311, .T. ) ;
#206 = EDGE_CURVE ( 'NONE', #278, #210, #198, .T. ) ;
#207 = FACE_BOUND ( 'NONE', #429, .T. ) ;
#208 = ORIENTED_EDGE ( 'NONE', *, *, #373, .T. ) ;
#209 = PLANE ( 'NONE',  #352 ) ;
#210 = VERTEX_POINT ( 'NONE', #89 ) ;
#211 = CYLINDRICAL_SURFACE ( 'NONE', #203, 3.000000000000000000 ) ;
#212 = ORIENTED_EDGE ( 'NONE', *, *, #311, .F. ) ;
#213 = CARTESIAN_POINT ( 'NONE',  ( 2.000000000000000000, 0.000000000000000000, 0.000000000000000000 ) ) ;
#214 = ORIENTED_EDGE ( 'NONE', *, *, #76, .T. ) ;
#215 = CARTESIAN_POINT ( 'NONE',  ( 23.00000000000000000, 0.000000000000000000, 4.000000000000000000 ) ) ;
#216 = VERTEX_POINT ( 'NONE', #440 ) ;
#217 = DIRECTION ( 'NONE',  ( -1.000000000000000000, -0.000000000000000000, -0.000000000000000000 ) ) ;
#218 = ORIENTED_EDGE ( 'NONE', *, *, #42, .T. ) ;
#219 = DIRECTION ( 'NONE',  ( 0.000000000000000000, -0.8660254037844384856, 0.5000000000000001110 ) ) ;
#220 = CIRCLE ( 'NONE', #98, 6.500000000000000000 ) ;
#221 = VERTEX_POINT ( 'NONE', #247 ) ;
#222 = VECTOR ( 'NONE', #219, 1000.000000000000227 ) ;
#223 = DIRECTION ( 'NONE',  ( 0.000000000000000000, -1.251928832280966928E-16, 1.000000000000000000 ) ) ;
#224 = EDGE_LOOP ( 'NONE', ( #246, #357, #413, #18, #364, #102 ) ) ;
#225 = EDGE_CURVE ( 'NONE', #331, #166, #397, .T. ) ;
#226 = ADVANCED_FACE ( 'NONE', ( #238 ), #53, .T. ) ;
#227 = CARTESIAN_POINT ( 'NONE',  ( 0.000000000000000000, -1.499999999999999334, -0.8660254037844375974 ) ) ;
#228 = VECTOR ( 'NONE', #277, 1000.000000000000000 ) ;
#229 = ADVANCED_FACE ( 'NONE', ( #200 ), #177, .T. ) ;
#230 = DIRECTION ( 'NONE',  ( -1.000000000000000000, -0.000000000000000000, -0.000000000000000000 ) ) ;
#231 = DIRECTION ( 'NONE',  ( 0.000000000000000000, 0.8660254037844384856, -0.5000000000000002220 ) ) ;
#232 = LINE ( 'NONE', #83, #159 ) ;
#233 = SURFACE_STYLE_USAGE ( .BOTH. , #427 ) ;
#234 = DIRECTION ( 'NONE',  ( -1.000000000000000000, -0.000000000000000000, -0.000000000000000000 ) ) ;
#235 = PRODUCT_DEFINITION_SHAPE ( 'NONE', 'NONE',  #409 ) ;
#236 = CARTESIAN_POINT ( 'NONE',  ( 0.000000000000000000, -1.499999999999999112, 0.8660254037844395958 ) ) ;
#237 = AXIS2_PLACEMENT_3D ( 'NONE', #330, #65, #175 ) ;
#238 = FACE_OUTER_BOUND ( 'NONE', #116, .T. ) ;
#239 = CARTESIAN_POINT ( 'NONE',  ( 0.000000000000000000, 0.000000000000000000, 0.000000000000000000 ) ) ;
#240 = ORIENTED_EDGE ( 'NONE', *, *, #7, .T. ) ;
#241 = PLANE ( 'NONE',  #419 ) ;
#242 = ORIENTED_EDGE ( 'NONE', *, *, #393, .T. ) ;
#243 = AXIS2_PLACEMENT_3D ( 'NONE', #75, #118, #338 ) ;
#244 = APPLICATION_PROTOCOL_DEFINITION ( 'draft international standard', 'automotive_design', 1998, #327 ) ;
#245 = DIRECTION ( 'NONE',  ( -0.000000000000000000, 0.000000000000000000, 1.000000000000000000 ) ) ;
#246 = ORIENTED_EDGE ( 'NONE', *, *, #47, .F. ) ;
#247 = CARTESIAN_POINT ( 'NONE',  ( 0.000000000000000000, 4.541175225040599946E-16, -1.732050807568876527 ) ) ;
#248 = ORIENTED_EDGE ( 'NONE', *, *, #142, .F. ) ;
#249 = CARTESIAN_POINT ( 'NONE',  ( 2.000000000000000000, 1.500000000000000222, -0.8660254037844379305 ) ) ;
#250 = VERTEX_POINT ( 'NONE', #180 ) ;
#251 = ADVANCED_FACE ( 'NONE', ( #26 ), #103, .T. ) ;
#252 = FACE_OUTER_BOUND ( 'NONE', #322, .T. ) ;
#253 = ORIENTED_EDGE ( 'NONE', *, *, #87, .F. ) ;
#254 = ADVANCED_FACE ( 'NONE', ( #328, #73 ), #412, .F. ) ;
#255 = DIRECTION ( 'NONE',  ( 0.000000000000000000, 1.251928832280966928E-16, -1.000000000000000000 ) ) ;
#256 = ORIENTED_EDGE ( 'NONE', *, *, #76, .F. ) ;
#257 = DIRECTION ( 'NONE',  ( -1.000000000000000000, -0.000000000000000000, -0.000000000000000000 ) ) ;
#258 = VERTEX_POINT ( 'NONE', #146 ) ;
#259 = DIRECTION ( 'NONE',  ( -1.000000000000000000, 0.000000000000000000, 0.000000000000000000 ) ) ;
#260 = ORIENTED_EDGE ( 'NONE', *, *, #206, .F. ) ;
#261 = EDGE_CURVE ( 'NONE', #130, #216, #332, .T. ) ;
#262 = AXIS2_PLACEMENT_3D ( 'NONE', #451, #115, #174 ) ;
#263 = CARTESIAN_POINT ( 'NONE',  ( 2.000000000000000000, 1.500000000000000000, 0.8660254037844382635 ) ) ;
#264 = DIRECTION ( 'NONE',  ( -1.000000000000000000, -0.000000000000000000, -0.000000000000000000 ) ) ;
#265 = CARTESIAN_POINT ( 'NONE',  ( 33.00000000000000000, 0.000000000000000000, 0.000000000000000000 ) ) ;
#266 = LINE ( 'NONE', #80, #377 ) ;
#267 = FACE_OUTER_BOUND ( 'NONE', #452, .T. ) ;
#268 = SURFACE_STYLE_FILL_AREA ( #301 ) ;
#269 = PLANE ( 'NONE',  #439 ) ;
#270 =( NAMED_UNIT ( * ) SI_UNIT ( $, .STERADIAN. ) SOLID_ANGLE_UNIT ( ) );
#271 = ADVANCED_FACE ( 'NONE', ( #29 ), #33, .F. ) ;
#272 = CARTESIAN_POINT ( 'NONE',  ( 23.00000000000000000, 0.000000000000000000, 0.000000000000000000 ) ) ;
#273 = DIRECTION ( 'NONE',  ( 0.000000000000000000, -1.251928832280966188E-16, -1.000000000000000000 ) ) ;
#274 = ORIENTED_EDGE ( 'NONE', *, *, #14, .T. ) ;
#275 = ADVANCED_FACE ( 'NONE', ( #112 ), #408, .T. ) ;
#276 = STYLED_ITEM ( 'NONE', ( #190 ), #32 ) ;
#277 = DIRECTION ( 'NONE',  ( 0.000000000000000000, 1.251928832280966188E-16, 1.000000000000000000 ) ) ;
#278 = VERTEX_POINT ( 'NONE', #215 ) ;
#279 = DIRECTION ( 'NONE',  ( 0.000000000000000000, 0.8660254037844385966, 0.5000000000000000000 ) ) ;
#280 = ORIENTED_EDGE ( 'NONE', *, *, #6, .T. ) ;
#281 = EDGE_CURVE ( 'NONE', #66, #147, #293, .T. ) ;
#282 = AXIS2_PLACEMENT_3D ( 'NONE', #1, #345, #455 ) ;
#283 = DIRECTION ( 'NONE',  ( -1.000000000000000000, -0.000000000000000000, -0.000000000000000000 ) ) ;
#284 = CIRCLE ( 'NONE', #348, 6.500000000000000000 ) ;
#285 = ORIENTED_EDGE ( 'NONE', *, *, #41, .T. ) ;
#286 = DIRECTION ( 'NONE',  ( 1.000000000000000000, 0.000000000000000000, 0.000000000000000000 ) ) ;
#287 = ORIENTED_EDGE ( 'NONE', *, *, #435, .T. ) ;
#288 = EDGE_CURVE ( 'NONE', #187, #141, #444, .T. ) ;
#289 = CARTESIAN_POINT ( 'NONE',  ( 0.000000000000000000, -1.499999999999999334, -0.8660254037844375974 ) ) ;
#290 = AXIS2_PLACEMENT_3D ( 'NONE', #119, #189, #421 ) ;
#291 = CIRCLE ( 'NONE', #17, 4.000000000000000000 ) ;
#292 = VERTEX_POINT ( 'NONE', #295 ) ;
#293 = LINE ( 'NONE', #289, #302 ) ;
#294 = ORIENTED_EDGE ( 'NONE', *, *, #10, .T. ) ;
#295 = CARTESIAN_POINT ( 'NONE',  ( 2.000000000000000000, 1.995021003971751010E-16, 1.732050807568877415 ) ) ;
#296 = ORIENTED_EDGE ( 'NONE', *, *, #78, .T. ) ;
#297 = VECTOR ( 'NONE', #182, 1000.000000000000227 ) ;
#298 = CARTESIAN_POINT ( 'NONE',  ( 33.00000000000000000, 3.673940397442059868E-16, -3.000000000000000000 ) ) ;
#299 = ORIENTED_EDGE ( 'NONE', *, *, #369, .F. ) ;
#300 = EDGE_CURVE ( 'NONE', #331, #31, #363, .T. ) ;
#301 = FILL_AREA_STYLE ('',( #156 ) ) ;
#302 = VECTOR ( 'NONE', #446, 1000.000000000000000 ) ;
#303 = ADVANCED_FACE ( 'NONE', ( #252 ), #36, .T. ) ;
#304 = CARTESIAN_POINT ( 'NONE',  ( 0.000000000000000000, 0.000000000000000000, 4.000000000000000000 ) ) ;
#305 = DIRECTION ( 'NONE',  ( -1.000000000000000000, -0.000000000000000000, -0.000000000000000000 ) ) ;
#306 = CARTESIAN_POINT ( 'NONE',  ( 2.000000000000000000, -1.499999999999999112, 0.8660254037844395958 ) ) ;
#307 = DIRECTION ( 'NONE',  ( -1.000000000000000000, -0.000000000000000000, -0.000000000000000000 ) ) ;
#308 = DIRECTION ( 'NONE',  ( 0.000000000000000000, -0.5000000000000002220, -0.8660254037844385966 ) ) ;
#309 = EDGE_CURVE ( 'NONE', #221, #66, #70, .T. ) ;
#310 = FACE_OUTER_BOUND ( 'NONE', #488, .T. ) ;
#311 = EDGE_CURVE ( 'NONE', #471, #104, #284, .T. ) ;
#312 = LINE ( 'NONE', #167, #79 ) ;
#313 = ORIENTED_EDGE ( 'NONE', *, *, #261, .T. ) ;
#314 = CARTESIAN_POINT ( 'NONE',  ( 3.000000000000000444, 0.000000000000000000, 0.000000000000000000 ) ) ;
#315 = ORIENTED_EDGE ( 'NONE', *, *, #78, .F. ) ;
#316 = DIRECTION ( 'NONE',  ( 1.000000000000000000, 0.000000000000000000, 0.000000000000000000 ) ) ;
#317 = COLOUR_RGB ( '',0.7921568627450980005, 0.8196078431372548767, 0.9333333333333333481 ) ;
#318 = FACE_OUTER_BOUND ( 'NONE', #486, .T. ) ;
#319 = VERTEX_POINT ( 'NONE', #152 ) ;
#320 = PRODUCT_RELATED_PRODUCT_CATEGORY ( 'part', '', ( #463 ) ) ;
#321 = CARTESIAN_POINT ( 'NONE',  ( 0.000000000000000000, 7.960204194457795477E-16, -6.500000000000000000 ) ) ;
#322 = EDGE_LOOP ( 'NONE', ( #248, #372, #135, #448 ) ) ;
#323 = VECTOR ( 'NONE', #140, 1000.000000000000000 ) ;
#324 = LINE ( 'NONE', #480, #323 ) ;
#325 = AXIS2_PLACEMENT_3D ( 'NONE', #474, #134, #279 ) ;
#326 = ORIENTED_EDGE ( 'NONE', *, *, #47, .T. ) ;
#327 = APPLICATION_CONTEXT ( 'automotive_design' ) ;
#328 = FACE_BOUND ( 'NONE', #224, .T. ) ;
#329 = ORIENTED_EDGE ( 'NONE', *, *, #479, .F. ) ;
#330 = CARTESIAN_POINT ( 'NONE',  ( 0.000000000000000000, 0.000000000000000000, 0.000000000000000000 ) ) ;
#331 = VERTEX_POINT ( 'NONE', #298 ) ;
#332 = LINE ( 'NONE', #109, #28 ) ;
#333 = ORIENTED_EDGE ( 'NONE', *, *, #373, .F. ) ;
#334 = DIRECTION ( 'NONE',  ( -1.000000000000000000, -0.000000000000000000, -0.000000000000000000 ) ) ;
#335 = ORIENTED_EDGE ( 'NONE', *, *, #225, .T. ) ;
#336 = DIRECTION ( 'NONE',  ( 0.000000000000000000, 0.000000000000000000, 1.000000000000000000 ) ) ;
#337 = ORIENTED_EDGE ( 'NONE', *, *, #406, .F. ) ;
#338 = DIRECTION ( 'NONE',  ( 0.000000000000000000, 0.000000000000000000, 1.000000000000000000 ) ) ;
#339 = DIRECTION ( 'NONE',  ( -1.000000000000000000, -0.000000000000000000, -0.000000000000000000 ) ) ;
#340 = CARTESIAN_POINT ( 'NONE',  ( 2.000000000000000000, -1.499999999999999334, -0.8660254037844375974 ) ) ;
#341 = LINE ( 'NONE', #121, #5 ) ;
#342 = VECTOR ( 'NONE', #264, 1000.000000000000000 ) ;
#343 = EDGE_CURVE ( 'NONE', #166, #258, #478, .T. ) ;
#344 =( NAMED_UNIT ( * ) PLANE_ANGLE_UNIT ( ) SI_UNIT ( $, .RADIAN. ) );
#345 = DIRECTION ( 'NONE',  ( -1.000000000000000000, 0.000000000000000000, -0.000000000000000000 ) ) ;
#346 = DIRECTION ( 'NONE',  ( -1.000000000000000000, -0.000000000000000000, -0.000000000000000000 ) ) ;
#347 = AXIS2_PLACEMENT_3D ( 'NONE', #420, #191, #50 ) ;
#348 = AXIS2_PLACEMENT_3D ( 'NONE', #371, #334, #489 ) ;
#349 = CARTESIAN_POINT ( 'NONE',  ( 0.000000000000000000, 1.500000000000000222, -0.8660254037844379305 ) ) ;
#350 = CARTESIAN_POINT ( 'NONE',  ( 2.000000000000000000, -1.499999999999999334, -0.8660254037844375974 ) ) ;
#351 = ORIENTED_EDGE ( 'NONE', *, *, #343, .F. ) ;
#352 = AXIS2_PLACEMENT_3D ( 'NONE', #16, #131, #467 ) ;
#353 = PLANE ( 'NONE',  #325 ) ;
#354 = ORIENTED_EDGE ( 'NONE', *, *, #183, .F. ) ;
#355 = DIRECTION ( 'NONE',  ( 0.000000000000000000, 0.000000000000000000, 1.000000000000000000 ) ) ;
#356 = DIRECTION ( 'NONE',  ( 0.000000000000000000, -1.000000000000000000, 1.251928832280966188E-16 ) ) ;
#357 = ORIENTED_EDGE ( 'NONE', *, *, #281, .F. ) ;
#358 = DIRECTION ( 'NONE',  ( -1.000000000000000000, -0.000000000000000000, -0.000000000000000000 ) ) ;
#359 = ORIENTED_EDGE ( 'NONE', *, *, #114, .T. ) ;
#360 = DIRECTION ( 'NONE',  ( 0.000000000000000000, -0.8660254037844387076, -0.4999999999999997224 ) ) ;
#361 = ORIENTED_EDGE ( 'NONE', *, *, #23, .T. ) ;
#362 = CARTESIAN_POINT ( 'NONE',  ( 0.000000000000000000, 0.000000000000000000, 0.000000000000000000 ) ) ;
#363 = CIRCLE ( 'NONE', #430, 3.000000000000000000 ) ;
#364 = ORIENTED_EDGE ( 'NONE', *, *, #114, .F. ) ;
#365 = DIRECTION ( 'NONE',  ( 0.000000000000000000, 0.000000000000000000, 1.000000000000000000 ) ) ;
#366 = ORIENTED_EDGE ( 'NONE', *, *, #87, .T. ) ;
#367 = CARTESIAN_POINT ( 'NONE',  ( 2.000000000000000000, 1.500000000000000000, 0.8660254037844382635 ) ) ;
#368 = ORIENTED_EDGE ( 'NONE', *, *, #92, .T. ) ;
#369 = EDGE_CURVE ( 'NONE', #40, #147, #324, .T. ) ;
#370 = CIRCLE ( 'NONE', #122, 3.000000000000000000 ) ;
#371 = CARTESIAN_POINT ( 'NONE',  ( 0.000000000000000000, 0.000000000000000000, 0.000000000000000000 ) ) ;
#372 = ORIENTED_EDGE ( 'NONE', *, *, #183, .T. ) ;
#373 = EDGE_CURVE ( 'NONE', #141, #319, #442, .T. ) ;
#374 = DIRECTION ( 'NONE',  ( -1.000000000000000000, -0.000000000000000000, -0.000000000000000000 ) ) ;
#375 = VERTEX_POINT ( 'NONE', #63 ) ;
#376 = CYLINDRICAL_SURFACE ( 'NONE', #290, 3.000000000000000000 ) ;
#377 = VECTOR ( 'NONE', #231, 1000.000000000000227 ) ;
#378 = CIRCLE ( 'NONE', #164, 4.000000000000000000 ) ;
#379 = DIRECTION ( 'NONE',  ( 0.000000000000000000, 0.000000000000000000, 1.000000000000000000 ) ) ;
#380 = ADVANCED_BREP_SHAPE_REPRESENTATION ( '\X2\585e625387ba9489\X0\(\X2\5f006e90\X0\)A_\X2\5e735934\X0\ 3 13 8 20 10 m6', ( #32, #396 ), #386 ) ;
#381 = LINE ( 'NONE', #137, #418 ) ;
#382 = EDGE_CURVE ( 'NONE', #375, #404, #72, .T. ) ;
#383 =( LENGTH_UNIT ( ) NAMED_UNIT ( * ) SI_UNIT ( .MILLI., .METRE. ) );
#384 = ADVANCED_FACE ( 'NONE', ( #158 ), #8, .F. ) ;
#385 = DIRECTION ( 'NONE',  ( 0.000000000000000000, 0.8660254037844387076, 0.4999999999999997780 ) ) ;
#386 =( GEOMETRIC_REPRESENTATION_CONTEXT ( 3 ) GLOBAL_UNCERTAINTY_ASSIGNED_CONTEXT ( ( #457 ) ) GLOBAL_UNIT_ASSIGNED_CONTEXT ( ( #469, #473, #169 ) ) REPRESENTATION_CONTEXT ( 'NONE', 'WORKASPACE' ) );
#387 = AXIS2_PLACEMENT_3D ( 'NONE', #143, #485, #360 ) ;
#388 = CARTESIAN_POINT ( 'NONE',  ( 23.00000000000000000, 0.000000000000000000, 0.000000000000000000 ) ) ;
#389 = EDGE_LOOP ( 'NONE', ( #493, #285, #212, #138 ) ) ;
#390 = CARTESIAN_POINT ( 'NONE',  ( 0.000000000000000000, 0.000000000000000000, 0.000000000000000000 ) ) ;
#391 = DIRECTION ( 'NONE',  ( -1.000000000000000000, -0.000000000000000000, -0.000000000000000000 ) ) ;
#392 = ORIENTED_EDGE ( 'NONE', *, *, #225, .F. ) ;
#393 = EDGE_CURVE ( 'NONE', #187, #216, #232, .T. ) ;
#394 = CARTESIAN_POINT ( 'NONE',  ( 23.00000000000000000, 3.673940397442059868E-16, -3.000000000000000000 ) ) ;
#395 = ORIENTED_EDGE ( 'NONE', *, *, #415, .T. ) ;
#396 = AXIS2_PLACEMENT_3D ( 'NONE', #390, #355, #316 ) ;
#397 = LINE ( 'NONE', #93, #139 ) ;
#398 = LINE ( 'NONE', #95, #106 ) ;
#399 = EDGE_LOOP ( 'NONE', ( #34, #100 ) ) ;
#400 =( GEOMETRIC_REPRESENTATION_CONTEXT ( 3 ) GLOBAL_UNCERTAINTY_ASSIGNED_CONTEXT ( ( #85 ) ) GLOBAL_UNIT_ASSIGNED_CONTEXT ( ( #383, #344, #270 ) ) REPRESENTATION_CONTEXT ( 'NONE', 'WORKASPACE' ) );
#401 = DIRECTION ( 'NONE',  ( 0.000000000000000000, -0.8660254037844385966, -0.5000000000000000000 ) ) ;
#402 = ORIENTED_EDGE ( 'NONE', *, *, #425, .F. ) ;
#403 = CARTESIAN_POINT ( 'NONE',  ( 0.000000000000000000, 4.541175225040599946E-16, -1.732050807568876527 ) ) ;
#404 = VERTEX_POINT ( 'NONE', #124 ) ;
#405 = CARTESIAN_POINT ( 'NONE',  ( 33.00000000000000000, 0.000000000000000000, 0.000000000000000000 ) ) ;
#406 = EDGE_CURVE ( 'NONE', #104, #471, #220, .T. ) ;
#407 = VERTEX_POINT ( 'NONE', #417 ) ;
#408 = CYLINDRICAL_SURFACE ( 'NONE', #414, 6.500000000000000000 ) ;
#409 = PRODUCT_DEFINITION ( 'æ™', '', #179, #49 ) ;
#410 = ORIENTED_EDGE ( 'NONE', *, *, #6, .F. ) ;
#411 = VECTOR ( 'NONE', #186, 1000.000000000000000 ) ;
#412 = PLANE ( 'NONE',  #52 ) ;
#413 = ORIENTED_EDGE ( 'NONE', *, *, #309, .F. ) ;
#414 = AXIS2_PLACEMENT_3D ( 'NONE', #107, #483, #365 ) ;
#415 = EDGE_CURVE ( 'NONE', #407, #250, #461, .T. ) ;
#416 = DIRECTION ( 'NONE',  ( 0.000000000000000000, 0.8660254037844385966, -0.5000000000000002220 ) ) ;
#417 = CARTESIAN_POINT ( 'NONE',  ( 3.000000000000000444, 0.000000000000000000, 4.000000000000000000 ) ) ;
#418 = VECTOR ( 'NONE', #283, 1000.000000000000000 ) ;
#419 = AXIS2_PLACEMENT_3D ( 'NONE', #15, #356, #273 ) ;
#420 = CARTESIAN_POINT ( 'NONE',  ( 3.000000000000000444, 0.000000000000000000, 0.000000000000000000 ) ) ;
#421 = DIRECTION ( 'NONE',  ( 0.000000000000000000, 0.000000000000000000, 1.000000000000000000 ) ) ;
#422 = LINE ( 'NONE', #304, #477 ) ;
#423 = DIRECTION ( 'NONE',  ( 0.000000000000000000, 0.8660254037844387076, 0.4999999999999997780 ) ) ;
#424 = EDGE_CURVE ( 'NONE', #278, #407, #422, .T. ) ;
#425 = EDGE_CURVE ( 'NONE', #258, #166, #370, .T. ) ;
#426 = DIRECTION ( 'NONE',  ( -0.000000000000000000, 1.000000000000000000, 1.251928832280966928E-16 ) ) ;
#427 = SURFACE_SIDE_STYLE ('',( #268 ) ) ;
#428 = DIRECTION ( 'NONE',  ( 0.000000000000000000, 0.000000000000000000, 1.000000000000000000 ) ) ;
#429 = EDGE_LOOP ( 'NONE', ( #395, #71 ) ) ;
#430 = AXIS2_PLACEMENT_3D ( 'NONE', #405, #217, #148 ) ;
#431 = APPLICATION_CONTEXT ( 'automotive_design' ) ;
#432 = FACE_OUTER_BOUND ( 'NONE', #491, .T. ) ;
#433 = ORIENTED_EDGE ( 'NONE', *, *, #343, .T. ) ;
#434 = DIRECTION ( 'NONE',  ( -1.000000000000000000, -0.000000000000000000, -0.000000000000000000 ) ) ;
#435 = EDGE_CURVE ( 'NONE', #484, #66, #460, .T. ) ;
#436 = EDGE_LOOP ( 'NONE', ( #205, #74 ) ) ;
#437 = DIRECTION ( 'NONE',  ( -1.000000000000000000, -0.000000000000000000, -0.000000000000000000 ) ) ;
#438 = ORIENTED_EDGE ( 'NONE', *, *, #7, .F. ) ;
#439 = AXIS2_PLACEMENT_3D ( 'NONE', #263, #426, #223 ) ;
#440 = CARTESIAN_POINT ( 'NONE',  ( 0.000000000000000000, 1.500000000000000000, 0.8660254037844382635 ) ) ;
#441 = ORIENTED_EDGE ( 'NONE', *, *, #14, .F. ) ;
#442 = LINE ( 'NONE', #249, #181 ) ;
#443 = ORIENTED_EDGE ( 'NONE', *, *, #288, .F. ) ;
#444 = LINE ( 'NONE', #367, #90 ) ;
#445 = EDGE_LOOP ( 'NONE', ( #218, #441, #333, #214 ) ) ;
#446 = DIRECTION ( 'NONE',  ( 0.000000000000000000, 1.251928832280966188E-16, 1.000000000000000000 ) ) ;
#447 = ADVANCED_FACE ( 'NONE', ( #464 ), #269, .F. ) ;
#448 = ORIENTED_EDGE ( 'NONE', *, *, #96, .F. ) ;
#449 = CARTESIAN_POINT ( 'NONE',  ( 0.000000000000000000, 0.000000000000000000, 0.000000000000000000 ) ) ;
#450 = LINE ( 'NONE', #113, #151 ) ;
#451 = CARTESIAN_POINT ( 'NONE',  ( 23.00000000000000000, 0.000000000000000000, 0.000000000000000000 ) ) ;
#452 = EDGE_LOOP ( 'NONE', ( #260, #354 ) ) ;
#453 = DIRECTION ( 'NONE',  ( -1.000000000000000000, -0.000000000000000000, -0.000000000000000000 ) ) ;
#454 = AXIS2_PLACEMENT_3D ( 'NONE', #272, #172, #428 ) ;
#455 = DIRECTION ( 'NONE',  ( -0.000000000000000000, 0.000000000000000000, 1.000000000000000000 ) ) ;
#456 = LINE ( 'NONE', #349, #163 ) ;
#457 = UNCERTAINTY_MEASURE_WITH_UNIT (LENGTH_MEASURE( 1.000000000000000082E-05 ), #469, 'distance_accuracy_value', 'NONE');
#458 = DIRECTION ( 'NONE',  ( 0.000000000000000000, 0.000000000000000000, 1.000000000000000000 ) ) ;
#459 = DIRECTION ( 'NONE',  ( -1.000000000000000000, 0.000000000000000000, -0.000000000000000000 ) ) ;
#460 = LINE ( 'NONE', #195, #411 ) ;
#461 = CIRCLE ( 'NONE', #347, 4.000000000000000000 ) ;
#462 = CARTESIAN_POINT ( 'NONE',  ( 2.000000000000000000, 4.541175225040599946E-16, -1.732050807568876527 ) ) ;
#463 = PRODUCT ( '\X2\585e625387ba9489\X0\(\X2\5f006e90\X0\)A_\X2\5e735934\X0\ 3 13 8 20 10 m6', '\X2\585e625387ba9489\X0\(\X2\5f006e90\X0\)A_\X2\5e735934\X0\ 3 13 8 20 10 m6', '', ( #97 ) ) ;
#464 = FACE_OUTER_BOUND ( 'NONE', #57, .T. ) ;
#465 = DIRECTION ( 'NONE',  ( 0.000000000000000000, -0.8660254037844385966, -0.5000000000000000000 ) ) ;
#466 = DIRECTION ( 'NONE',  ( -1.000000000000000000, -0.000000000000000000, -0.000000000000000000 ) ) ;
#467 = DIRECTION ( 'NONE',  ( 0.000000000000000000, -0.8660254037844384856, 0.5000000000000002220 ) ) ;
#468 = ORIENTED_EDGE ( 'NONE', *, *, #435, .F. ) ;
#469 =( LENGTH_UNIT ( ) NAMED_UNIT ( * ) SI_UNIT ( .MILLI., .METRE. ) );
#470 = LINE ( 'NONE', #350, #228 ) ;
#471 = VERTEX_POINT ( 'NONE', #492 ) ;
#472 = MECHANICAL_DESIGN_GEOMETRIC_PRESENTATION_REPRESENTATION (  '', ( #276 ), #400 ) ;
#473 =( NAMED_UNIT ( * ) PLANE_ANGLE_UNIT ( ) SI_UNIT ( $, .RADIAN. ) );
#474 = CARTESIAN_POINT ( 'NONE',  ( 2.000000000000000000, 1.500000000000000222, -0.8660254037844379305 ) ) ;
#475 = CARTESIAN_POINT ( 'NONE',  ( 0.000000000000000000, -1.499999999999999112, 0.8660254037844398178 ) ) ;
#476 = EDGE_LOOP ( 'NONE', ( #20, #433 ) ) ;
#477 = VECTOR ( 'NONE', #81, 1000.000000000000000 ) ;
#478 = CIRCLE ( 'NONE', #262, 3.000000000000000000 ) ;
#479 = EDGE_CURVE ( 'NONE', #404, #375, #136, .T. ) ;
#480 = CARTESIAN_POINT ( 'NONE',  ( 2.000000000000000000, -1.499999999999999112, 0.8660254037844395958 ) ) ;
#481 = ORIENTED_EDGE ( 'NONE', *, *, #288, .T. ) ;
#482 = EDGE_CURVE ( 'NONE', #31, #331, #38, .T. ) ;
#483 = DIRECTION ( 'NONE',  ( -1.000000000000000000, -0.000000000000000000, -0.000000000000000000 ) ) ;
#484 = VERTEX_POINT ( 'NONE', #340 ) ;
#485 = DIRECTION ( 'NONE',  ( 0.000000000000000000, -0.4999999999999997780, 0.8660254037844388186 ) ) ;
#486 = EDGE_LOOP ( 'NONE', ( #313, #153, #315, #361 ) ) ;
#487 = DIRECTION ( 'NONE',  ( 0.000000000000000000, 0.8660254037844384856, -0.5000000000000002220 ) ) ;
#488 = EDGE_LOOP ( 'NONE', ( #168, #299, #91, #287 ) ) ;
#489 = DIRECTION ( 'NONE',  ( 0.000000000000000000, 0.000000000000000000, 1.000000000000000000 ) ) ;
#490 = VECTOR ( 'NONE', #161, 1000.000000000000000 ) ;
#491 = EDGE_LOOP ( 'NONE', ( #329, #60 ) ) ;
#492 = CARTESIAN_POINT ( 'NONE',  ( 0.000000000000000000, 0.000000000000000000, 6.500000000000000000 ) ) ;
#493 = ORIENTED_EDGE ( 'NONE', *, *, #479, .T. ) ;
ENDSEC;
END-ISO-10303-21;
