ISO-10303-21;
HEADER;
FILE_DESCRIPTION (( 'STEP AP214' ),
    '1' );
FILE_NAME ('Èû´òÂÝ¶¤D8L16A.STEP',
    '2026-08-16T17:27:00',
    ( '' ),
    ( '' ),
    'SwSTEP 2.0',
    'SolidWorks 2025',
    '' );
FILE_SCHEMA (( 'AUTOMOTIVE_DESIGN' ));
ENDSEC;

DATA;
#1 = DIRECTION ( 'NONE',  ( 0.000000000000000000, 0.000000000000000000, 1.000000000000000000 ) ) ;
#2 = ADVANCED_FACE ( 'NONE', ( #123, #114 ), #263, .F. ) ;
#3 = CARTESIAN_POINT ( 'NONE',  ( 2.000000000000000000, 4.541175225040599946E-16, -1.732050807568876527 ) ) ;
#4 = DIRECTION ( 'NONE',  ( 0.000000000000000000, 1.251928832280966928E-16, -1.000000000000000000 ) ) ;
#5 = PRODUCT_RELATED_PRODUCT_CATEGORY ( 'part', '', ( #437 ) ) ;
#6 = LINE ( 'NONE', #261, #267 ) ;
#7 = ORIENTED_EDGE ( 'NONE', *, *, #335, .F. ) ;
#8 = VECTOR ( 'NONE', #195, 1000.000000000000227 ) ;
#9 = FACE_OUTER_BOUND ( 'NONE', #266, .T. ) ;
#10 = CARTESIAN_POINT ( 'NONE',  ( 0.000000000000000000, -1.499999999999999334, -0.8660254037844375974 ) ) ;
#11 = CARTESIAN_POINT ( 'NONE',  ( 19.00000000000000000, 0.000000000000000000, 4.000000000000000000 ) ) ;
#12 = AXIS2_PLACEMENT_3D ( 'NONE', #284, #438, #98 ) ;
#13 = ORIENTED_EDGE ( 'NONE', *, *, #198, .F. ) ;
#14 = EDGE_CURVE ( 'NONE', #285, #454, #44, .T. ) ;
#15 = DIRECTION ( 'NONE',  ( -1.000000000000000000, -0.000000000000000000, -0.000000000000000000 ) ) ;
#16 = ORIENTED_EDGE ( 'NONE', *, *, #94, .T. ) ;
#17 = CARTESIAN_POINT ( 'NONE',  ( 2.000000000000000000, 1.500000000000000222, -0.8660254037844379305 ) ) ;
#18 = CARTESIAN_POINT ( 'NONE',  ( 2.000000000000000000, -1.499999999999999334, -0.8660254037844375974 ) ) ;
#19 = ORIENTED_EDGE ( 'NONE', *, *, #367, .F. ) ;
#20 = DIRECTION ( 'NONE',  ( -1.000000000000000000, -0.000000000000000000, -0.000000000000000000 ) ) ;
#21 = DIRECTION ( 'NONE',  ( 0.000000000000000000, 0.000000000000000000, 1.000000000000000000 ) ) ;
#22 = ORIENTED_EDGE ( 'NONE', *, *, #358, .T. ) ;
#23 = AXIS2_PLACEMENT_3D ( 'NONE', #419, #220, #492 ) ;
#24 = ORIENTED_EDGE ( 'NONE', *, *, #238, .T. ) ;
#25 = AXIS2_PLACEMENT_3D ( 'NONE', #417, #458, #1 ) ;
#26 = CARTESIAN_POINT ( 'NONE',  ( 2.000000000000000000, 4.541175225040599946E-16, -1.732050807568876527 ) ) ;
#27 = DIRECTION ( 'NONE',  ( -1.000000000000000000, -0.000000000000000000, -0.000000000000000000 ) ) ;
#28 = EDGE_CURVE ( 'NONE', #450, #479, #32, .T. ) ;
#29 = LINE ( 'NONE', #173, #360 ) ;
#30 = CARTESIAN_POINT ( 'NONE',  ( 2.000000000000000000, -1.499999999999999112, 0.8660254037844395958 ) ) ;
#31 = CARTESIAN_POINT ( 'NONE',  ( 2.000000000000000000, 1.500000000000000222, -0.8660254037844379305 ) ) ;
#32 = CIRCLE ( 'NONE', #421, 3.000000000000000000 ) ;
#33 = VECTOR ( 'NONE', #302, 1000.000000000000000 ) ;
#34 = CARTESIAN_POINT ( 'NONE',  ( 2.000000000000000000, 1.995021003971751010E-16, 1.732050807568877415 ) ) ;
#35 = EDGE_CURVE ( 'NONE', #297, #110, #190, .T. ) ;
#36 = CARTESIAN_POINT ( 'NONE',  ( 0.000000000000000000, 7.960204194457795477E-16, -6.500000000000000000 ) ) ;
#37 = DIRECTION ( 'NONE',  ( 0.000000000000000000, 0.000000000000000000, 1.000000000000000000 ) ) ;
#38 = ORIENTED_EDGE ( 'NONE', *, *, #340, .T. ) ;
#39 = ORIENTED_EDGE ( 'NONE', *, *, #367, .T. ) ;
#40 = AXIS2_PLACEMENT_3D ( 'NONE', #209, #130, #87 ) ;
#41 = ORIENTED_EDGE ( 'NONE', *, *, #224, .F. ) ;
#42 = MANIFOLD_SOLID_BREP ( '\X2\52079664\X0\-\X2\62c94f38\X0\1', #411 ) ;
#43 = DIRECTION ( 'NONE',  ( 0.000000000000000000, 0.000000000000000000, 1.000000000000000000 ) ) ;
#44 = LINE ( 'NONE', #34, #395 ) ;
#45 = ADVANCED_FACE ( 'NONE', ( #429 ), #154, .F. ) ;
#46 = CARTESIAN_POINT ( 'NONE',  ( 3.000000000000000444, 0.000000000000000000, 0.000000000000000000 ) ) ;
#47 = EDGE_LOOP ( 'NONE', ( #274, #384 ) ) ;
#48 = DIRECTION ( 'NONE',  ( 0.000000000000000000, 1.251928832280966188E-16, 1.000000000000000000 ) ) ;
#49 = VERTEX_POINT ( 'NONE', #52 ) ;
#50 = ORIENTED_EDGE ( 'NONE', *, *, #376, .T. ) ;
#51 = EDGE_CURVE ( 'NONE', #204, #116, #425, .T. ) ;
#52 = CARTESIAN_POINT ( 'NONE',  ( 28.99999999999999645, 3.673940397442059868E-16, -3.000000000000000000 ) ) ;
#53 = EDGE_LOOP ( 'NONE', ( #50, #295, #415, #439 ) ) ;
#54 = DIRECTION ( 'NONE',  ( 0.000000000000000000, 0.000000000000000000, 1.000000000000000000 ) ) ;
#55 = FACE_OUTER_BOUND ( 'NONE', #418, .T. ) ;
#56 = FACE_OUTER_BOUND ( 'NONE', #455, .T. ) ;
#57 = ORIENTED_EDGE ( 'NONE', *, *, #426, .F. ) ;
#58 = CARTESIAN_POINT ( 'NONE',  ( 28.99999999999999645, 0.000000000000000000, 3.000000000000000000 ) ) ;
#59 = DIRECTION ( 'NONE',  ( -1.000000000000000000, -0.000000000000000000, -0.000000000000000000 ) ) ;
#60 = ORIENTED_EDGE ( 'NONE', *, *, #245, .T. ) ;
#61 = AXIS2_PLACEMENT_3D ( 'NONE', #26, #65, #391 ) ;
#62 = CARTESIAN_POINT ( 'NONE',  ( 0.000000000000000000, 0.000000000000000000, 3.000000000000000000 ) ) ;
#63 = ORIENTED_EDGE ( 'NONE', *, *, #482, .F. ) ;
#64 = LINE ( 'NONE', #359, #291 ) ;
#65 = DIRECTION ( 'NONE',  ( 0.000000000000000000, -0.5000000000000002220, -0.8660254037844385966 ) ) ;
#66 = LINE ( 'NONE', #62, #379 ) ;
#67 = LINE ( 'NONE', #182, #338 ) ;
#68 = AXIS2_PLACEMENT_3D ( 'NONE', #330, #292, #43 ) ;
#69 = CARTESIAN_POINT ( 'NONE',  ( 0.000000000000000000, -1.499999999999999112, 0.8660254037844398178 ) ) ;
#70 = DIRECTION ( 'NONE',  ( -1.000000000000000000, -0.000000000000000000, -0.000000000000000000 ) ) ;
#71 = EDGE_CURVE ( 'NONE', #454, #297, #239, .T. ) ;
#72 = ORIENTED_EDGE ( 'NONE', *, *, #299, .T. ) ;
#73 = FACE_BOUND ( 'NONE', #290, .T. ) ;
#74 = EDGE_LOOP ( 'NONE', ( #473, #156, #57, #19 ) ) ;
#75 = ADVANCED_FACE ( 'NONE', ( #199 ), #268, .T. ) ;
#76 = CARTESIAN_POINT ( 'NONE',  ( 2.000000000000000000, 4.541175225040599946E-16, -1.732050807568876527 ) ) ;
#77 = EDGE_LOOP ( 'NONE', ( #463, #165, #13, #312 ) ) ;
#78 = EDGE_CURVE ( 'NONE', #479, #450, #332, .T. ) ;
#79 = CARTESIAN_POINT ( 'NONE',  ( 2.000000000000000000, -1.499999999999999334, -0.8660254037844375974 ) ) ;
#80 = DIRECTION ( 'NONE',  ( 0.000000000000000000, -0.8660254037844384856, 0.5000000000000001110 ) ) ;
#81 = VECTOR ( 'NONE', #449, 1000.000000000000227 ) ;
#82 = ORIENTED_EDGE ( 'NONE', *, *, #316, .F. ) ;
#83 = ADVANCED_BREP_SHAPE_REPRESENTATION ( '\X2\585e625387ba9489\X0\D8L16A_\X2\5e735934\X0\ 3 13 8 20 10 m6', ( #42, #348 ), #120 ) ;
#84 = LINE ( 'NONE', #166, #356 ) ;
#85 = ORIENTED_EDGE ( 'NONE', *, *, #224, .T. ) ;
#86 =( NAMED_UNIT ( * ) SI_UNIT ( $, .STERADIAN. ) SOLID_ANGLE_UNIT ( ) );
#87 = DIRECTION ( 'NONE',  ( 0.000000000000000000, 0.000000000000000000, 1.000000000000000000 ) ) ;
#88 = EDGE_LOOP ( 'NONE', ( #119, #276, #24, #446 ) ) ;
#89 = PRODUCT_CONTEXT ( 'NONE', #260, 'mechanical' ) ;
#90 = CARTESIAN_POINT ( 'NONE',  ( 2.000000000000000000, -1.499999999999999112, 0.8660254037844395958 ) ) ;
#91 = UNCERTAINTY_MEASURE_WITH_UNIT (LENGTH_MEASURE( 1.000000000000000082E-05 ), #269, 'distance_accuracy_value', 'NONE');
#92 = CARTESIAN_POINT ( 'NONE',  ( 3.000000000000000444, 4.898587196589412829E-16, -4.000000000000000000 ) ) ;
#93 = ORIENTED_EDGE ( 'NONE', *, *, #189, .F. ) ;
#94 = EDGE_CURVE ( 'NONE', #285, #443, #351, .T. ) ;
#95 = FACE_OUTER_BOUND ( 'NONE', #378, .T. ) ;
#96 = VERTEX_POINT ( 'NONE', #11 ) ;
#97 = PLANE ( 'NONE',  #249 ) ;
#98 = DIRECTION ( 'NONE',  ( 0.000000000000000000, -0.8660254037844384856, 0.5000000000000002220 ) ) ;
#99 = CARTESIAN_POINT ( 'NONE',  ( 2.000000000000000000, -1.499999999999999112, 0.8660254037844395958 ) ) ;
#100 = AXIS2_PLACEMENT_3D ( 'NONE', #212, #386, #159 ) ;
#101 = VECTOR ( 'NONE', #398, 1000.000000000000227 ) ;
#102 = DIRECTION ( 'NONE',  ( -1.000000000000000000, -0.000000000000000000, -0.000000000000000000 ) ) ;
#103 = EDGE_CURVE ( 'NONE', #457, #223, #221, .T. ) ;
#104 = LINE ( 'NONE', #400, #407 ) ;
#105 = PRODUCT_DEFINITION_FORMATION_WITH_SPECIFIED_SOURCE ( 'å¯', '', #437, .NOT_KNOWN. ) ;
#106 = ADVANCED_FACE ( 'NONE', ( #95 ), #344, .F. ) ;
#107 = CARTESIAN_POINT ( 'NONE',  ( 0.000000000000000000, 0.000000000000000000, 0.000000000000000000 ) ) ;
#108 = CIRCLE ( 'NONE', #327, 3.000000000000000000 ) ;
#109 = DIRECTION ( 'NONE',  ( 0.000000000000000000, 0.000000000000000000, 1.000000000000000000 ) ) ;
#110 = VERTEX_POINT ( 'NONE', #133 ) ;
#111 = AXIS2_PLACEMENT_3D ( 'NONE', #107, #217, #396 ) ;
#112 = ORIENTED_EDGE ( 'NONE', *, *, #406, .T. ) ;
#113 = DIRECTION ( 'NONE',  ( -1.000000000000000000, -0.000000000000000000, -0.000000000000000000 ) ) ;
#114 = FACE_OUTER_BOUND ( 'NONE', #467, .T. ) ;
#115 = DIRECTION ( 'NONE',  ( -1.000000000000000000, -0.000000000000000000, -0.000000000000000000 ) ) ;
#116 = VERTEX_POINT ( 'NONE', #92 ) ;
#117 = ORIENTED_EDGE ( 'NONE', *, *, #14, .F. ) ;
#118 = EDGE_CURVE ( 'NONE', #150, #168, #301, .T. ) ;
#119 = ORIENTED_EDGE ( 'NONE', *, *, #373, .F. ) ;
#120 =( GEOMETRIC_REPRESENTATION_CONTEXT ( 3 ) GLOBAL_UNCERTAINTY_ASSIGNED_CONTEXT ( ( #208 ) ) GLOBAL_UNIT_ASSIGNED_CONTEXT ( ( #280, #428, #86 ) ) REPRESENTATION_CONTEXT ( 'NONE', 'WORKASPACE' ) );
#121 = EDGE_CURVE ( 'NONE', #49, #476, #283, .T. ) ;
#122 = DIRECTION ( 'NONE',  ( -1.000000000000000000, -0.000000000000000000, -0.000000000000000000 ) ) ;
#123 = FACE_BOUND ( 'NONE', #210, .T. ) ;
#124 = DIRECTION ( 'NONE',  ( -0.000000000000000000, 1.000000000000000000, 1.251928832280966928E-16 ) ) ;
#125 = VECTOR ( 'NONE', #265, 1000.000000000000000 ) ;
#126 = FACE_OUTER_BOUND ( 'NONE', #306, .T. ) ;
#127 = PRESENTATION_STYLE_ASSIGNMENT (( #305 ) ) ;
#128 = ORIENTED_EDGE ( 'NONE', *, *, #78, .T. ) ;
#129 = SHAPE_DEFINITION_REPRESENTATION ( #481, #83 ) ;
#130 = DIRECTION ( 'NONE',  ( -1.000000000000000000, -0.000000000000000000, -0.000000000000000000 ) ) ;
#131 = ORIENTED_EDGE ( 'NONE', *, *, #426, .T. ) ;
#132 = DIRECTION ( 'NONE',  ( 0.000000000000000000, 0.000000000000000000, 1.000000000000000000 ) ) ;
#133 = CARTESIAN_POINT ( 'NONE',  ( 0.000000000000000000, 1.500000000000000222, -0.8660254037844379305 ) ) ;
#134 = ORIENTED_EDGE ( 'NONE', *, *, #205, .T. ) ;
#135 = LINE ( 'NONE', #469, #172 ) ;
#136 = CARTESIAN_POINT ( 'NONE',  ( 0.000000000000000000, 4.898587196589412829E-16, -4.000000000000000000 ) ) ;
#137 = EDGE_LOOP ( 'NONE', ( #41, #430, #60, #333 ) ) ;
#138 = AXIS2_PLACEMENT_3D ( 'NONE', #448, #102, #251 ) ;
#139 = CARTESIAN_POINT ( 'NONE',  ( 2.000000000000000000, 1.995021003971751010E-16, 1.732050807568877415 ) ) ;
#140 = ORIENTED_EDGE ( 'NONE', *, *, #286, .F. ) ;
#141 = FACE_OUTER_BOUND ( 'NONE', #74, .T. ) ;
#142 = STYLED_ITEM ( 'NONE', ( #127 ), #42 ) ;
#143 = CARTESIAN_POINT ( 'NONE',  ( 3.000000000000000444, 0.000000000000000000, 0.000000000000000000 ) ) ;
#144 = ADVANCED_FACE ( 'NONE', ( #56 ), #164, .T. ) ;
#145 = FACE_OUTER_BOUND ( 'NONE', #47, .T. ) ;
#146 = MECHANICAL_DESIGN_GEOMETRIC_PRESENTATION_REPRESENTATION (  '', ( #142 ), #491 ) ;
#147 = CARTESIAN_POINT ( 'NONE',  ( 3.000000000000000000, 0.000000000000000000, 6.500000000000000000 ) ) ;
#148 = PRODUCT_DEFINITION_CONTEXT ( 'detailed design', #187, 'design' ) ;
#149 = AXIS2_PLACEMENT_3D ( 'NONE', #272, #303, #346 ) ;
#150 = VERTEX_POINT ( 'NONE', #10 ) ;
#151 = ADVANCED_FACE ( 'NONE', ( #170 ), #281, .F. ) ;
#152 = VECTOR ( 'NONE', #70, 1000.000000000000000 ) ;
#153 = DIRECTION ( 'NONE',  ( -1.000000000000000000, -0.000000000000000000, -0.000000000000000000 ) ) ;
#154 = PLANE ( 'NONE',  #470 ) ;
#155 = LINE ( 'NONE', #371, #397 ) ;
#156 = ORIENTED_EDGE ( 'NONE', *, *, #51, .T. ) ;
#157 = AXIS2_PLACEMENT_3D ( 'NONE', #444, #252, #321 ) ;
#158 = DIRECTION ( 'NONE',  ( 0.000000000000000000, 0.000000000000000000, 1.000000000000000000 ) ) ;
#159 = DIRECTION ( 'NONE',  ( 0.000000000000000000, 0.000000000000000000, 1.000000000000000000 ) ) ;
#160 = VECTOR ( 'NONE', #4, 1000.000000000000000 ) ;
#161 = AXIS2_PLACEMENT_3D ( 'NONE', #311, #423, #472 ) ;
#162 = CARTESIAN_POINT ( 'NONE',  ( 28.99999999999999645, 0.000000000000000000, 0.000000000000000000 ) ) ;
#163 = EDGE_LOOP ( 'NONE', ( #243, #237, #63, #213 ) ) ;
#164 = CYLINDRICAL_SURFACE ( 'NONE', #100, 6.500000000000000000 ) ;
#165 = ORIENTED_EDGE ( 'NONE', *, *, #484, .F. ) ;
#166 = CARTESIAN_POINT ( 'NONE',  ( 0.000000000000000000, 4.541175225040599946E-16, -1.732050807568876527 ) ) ;
#167 =( NAMED_UNIT ( * ) PLANE_ANGLE_UNIT ( ) SI_UNIT ( $, .RADIAN. ) );
#168 = VERTEX_POINT ( 'NONE', #69 ) ;
#169 = VECTOR ( 'NONE', #435, 1000.000000000000000 ) ;
#170 = FACE_OUTER_BOUND ( 'NONE', #389, .T. ) ;
#171 = ORIENTED_EDGE ( 'NONE', *, *, #78, .F. ) ;
#172 = VECTOR ( 'NONE', #464, 1000.000000000000000 ) ;
#173 = CARTESIAN_POINT ( 'NONE',  ( 2.000000000000000000, 1.500000000000000000, 0.8660254037844382635 ) ) ;
#174 = VERTEX_POINT ( 'NONE', #215 ) ;
#175 = CIRCLE ( 'NONE', #451, 4.000000000000000000 ) ;
#176 = EDGE_CURVE ( 'NONE', #443, #297, #178, .T. ) ;
#177 = CARTESIAN_POINT ( 'NONE',  ( 2.000000000000000000, -1.499999999999999334, -0.8660254037844375974 ) ) ;
#178 = LINE ( 'NONE', #478, #202 ) ;
#179 = DIRECTION ( 'NONE',  ( 0.000000000000000000, -0.4999999999999997780, 0.8660254037844388186 ) ) ;
#180 = PRODUCT_DEFINITION ( 'æ™', '', #105, #148 ) ;
#181 = CARTESIAN_POINT ( 'NONE',  ( 2.000000000000000000, 4.541175225040599946E-16, -1.732050807568876527 ) ) ;
#182 = CARTESIAN_POINT ( 'NONE',  ( 2.000000000000000000, -1.499999999999999112, 0.8660254037844395958 ) ) ;
#183 = ADVANCED_FACE ( 'NONE', ( #247 ), #320, .T. ) ;
#184 = CARTESIAN_POINT ( 'NONE',  ( 28.99999999999999645, 0.000000000000000000, 0.000000000000000000 ) ) ;
#185 = AXIS2_PLACEMENT_3D ( 'NONE', #382, #465, #339 ) ;
#186 = LINE ( 'NONE', #3, #8 ) ;
#187 = APPLICATION_CONTEXT ( 'automotive_design' ) ;
#188 = DIRECTION ( 'NONE',  ( 0.000000000000000000, 0.8660254037844384856, -0.5000000000000002220 ) ) ;
#189 = EDGE_CURVE ( 'NONE', #420, #168, #67, .T. ) ;
#190 = LINE ( 'NONE', #331, #160 ) ;
#191 = ORIENTED_EDGE ( 'NONE', *, *, #118, .T. ) ;
#192 = CARTESIAN_POINT ( 'NONE',  ( 0.000000000000000000, 4.541175225040599946E-16, -1.732050807568876527 ) ) ;
#193 = PRESENTATION_LAYER_ASSIGNMENT (  '', '', ( #142 ) ) ;
#194 = ORIENTED_EDGE ( 'NONE', *, *, #176, .T. ) ;
#195 = DIRECTION ( 'NONE',  ( 0.000000000000000000, -0.8660254037844384856, 0.5000000000000001110 ) ) ;
#196 = VECTOR ( 'NONE', #355, 1000.000000000000000 ) ;
#197 = DIRECTION ( 'NONE',  ( 1.000000000000000000, 0.000000000000000000, 0.000000000000000000 ) ) ;
#198 = EDGE_CURVE ( 'NONE', #454, #200, #29, .T. ) ;
#199 = FACE_OUTER_BOUND ( 'NONE', #88, .T. ) ;
#200 = VERTEX_POINT ( 'NONE', #31 ) ;
#201 = AXIS2_PLACEMENT_3D ( 'NONE', #293, #197, #228 ) ;
#202 = VECTOR ( 'NONE', #324, 1000.000000000000227 ) ;
#203 = CARTESIAN_POINT ( 'NONE',  ( 2.000000000000000000, 1.500000000000000000, 0.8660254037844382635 ) ) ;
#204 = VERTEX_POINT ( 'NONE', #441 ) ;
#205 = EDGE_CURVE ( 'NONE', #433, #381, #219, .T. ) ;
#206 = ORIENTED_EDGE ( 'NONE', *, *, #35, .F. ) ;
#207 = CARTESIAN_POINT ( 'NONE',  ( 19.00000000000000000, 0.000000000000000000, 3.000000000000000000 ) ) ;
#208 = UNCERTAINTY_MEASURE_WITH_UNIT (LENGTH_MEASURE( 1.000000000000000082E-05 ), #280, 'distance_accuracy_value', 'NONE');
#209 = CARTESIAN_POINT ( 'NONE',  ( 0.000000000000000000, 0.000000000000000000, 0.000000000000000000 ) ) ;
#210 = EDGE_LOOP ( 'NONE', ( #393, #234, #368, #7, #206, #424 ) ) ;
#211 = LINE ( 'NONE', #17, #101 ) ;
#212 = CARTESIAN_POINT ( 'NONE',  ( 0.000000000000000000, 0.000000000000000000, 0.000000000000000000 ) ) ;
#213 = ORIENTED_EDGE ( 'NONE', *, *, #484, .T. ) ;
#214 = AXIS2_PLACEMENT_3D ( 'NONE', #177, #489, #483 ) ;
#215 = CARTESIAN_POINT ( 'NONE',  ( 3.000000000000000444, 0.000000000000000000, 4.000000000000000000 ) ) ;
#216 = ADVANCED_FACE ( 'NONE', ( #365 ), #490, .F. ) ;
#217 = DIRECTION ( 'NONE',  ( -1.000000000000000000, -0.000000000000000000, -0.000000000000000000 ) ) ;
#218 = DIRECTION ( 'NONE',  ( 0.000000000000000000, 1.251928832280966928E-16, -1.000000000000000000 ) ) ;
#219 = CIRCLE ( 'NONE', #111, 6.500000000000000000 ) ;
#220 = DIRECTION ( 'NONE',  ( -1.000000000000000000, 0.000000000000000000, -0.000000000000000000 ) ) ;
#221 = CIRCLE ( 'NONE', #369, 6.500000000000000000 ) ;
#222 = LINE ( 'NONE', #76, #152 ) ;
#223 = VERTEX_POINT ( 'NONE', #147 ) ;
#224 = EDGE_CURVE ( 'NONE', #49, #450, #64, .T. ) ;
#225 = PLANE ( 'NONE',  #23 ) ;
#226 = CARTESIAN_POINT ( 'NONE',  ( 2.000000000000000000, 1.500000000000000000, 0.8660254037844382635 ) ) ;
#227 = LINE ( 'NONE', #456, #81 ) ;
#228 = DIRECTION ( 'NONE',  ( 0.000000000000000000, 0.000000000000000000, -1.000000000000000000 ) ) ;
#229 = CARTESIAN_POINT ( 'NONE',  ( 19.00000000000000000, 3.673940397442059868E-16, -3.000000000000000000 ) ) ;
#230 = AXIS2_PLACEMENT_3D ( 'NONE', #328, #122, #453 ) ;
#231 = ORIENTED_EDGE ( 'NONE', *, *, #245, .F. ) ;
#232 = EDGE_CURVE ( 'NONE', #427, #420, #104, .T. ) ;
#233 = CIRCLE ( 'NONE', #25, 6.500000000000000000 ) ;
#234 = ORIENTED_EDGE ( 'NONE', *, *, #118, .F. ) ;
#235 = PLANE ( 'NONE',  #377 ) ;
#236 = DIRECTION ( 'NONE',  ( 0.000000000000000000, 0.000000000000000000, 1.000000000000000000 ) ) ;
#237 = ORIENTED_EDGE ( 'NONE', *, *, #340, .F. ) ;
#238 = EDGE_CURVE ( 'NONE', #223, #433, #403, .T. ) ;
#239 = LINE ( 'NONE', #307, #273 ) ;
#240 = ORIENTED_EDGE ( 'NONE', *, *, #205, .F. ) ;
#241 = CARTESIAN_POINT ( 'NONE',  ( 0.000000000000000000, 0.000000000000000000, 6.500000000000000000 ) ) ;
#242 = FILL_AREA_STYLE_COLOUR ( '', #440 ) ;
#243 = ORIENTED_EDGE ( 'NONE', *, *, #335, .T. ) ;
#244 = DIRECTION ( 'NONE',  ( 0.000000000000000000, 0.000000000000000000, 1.000000000000000000 ) ) ;
#245 = EDGE_CURVE ( 'NONE', #476, #479, #66, .T. ) ;
#246 = ORIENTED_EDGE ( 'NONE', *, *, #459, .T. ) ;
#247 = FACE_OUTER_BOUND ( 'NONE', #137, .T. ) ;
#248 = ADVANCED_FACE ( 'NONE', ( #141 ), #282, .T. ) ;
#249 = AXIS2_PLACEMENT_3D ( 'NONE', #30, #179, #487 ) ;
#250 = CARTESIAN_POINT ( 'NONE',  ( 0.000000000000000000, 1.995021003971751010E-16, 1.732050807568877415 ) ) ;
#251 = DIRECTION ( 'NONE',  ( 0.000000000000000000, 0.000000000000000000, 1.000000000000000000 ) ) ;
#252 = DIRECTION ( 'NONE',  ( 0.000000000000000000, 0.5000000000000001110, -0.8660254037844387076 ) ) ;
#253 = VECTOR ( 'NONE', #392, 1000.000000000000000 ) ;
#254 = DIRECTION ( 'NONE',  ( -1.000000000000000000, -0.000000000000000000, -0.000000000000000000 ) ) ;
#255 = ADVANCED_FACE ( 'NONE', ( #145, #256 ), #363, .F. ) ;
#256 = FACE_BOUND ( 'NONE', #279, .T. ) ;
#257 = AXIS2_PLACEMENT_3D ( 'NONE', #404, #486, #317 ) ;
#258 = CARTESIAN_POINT ( 'NONE',  ( 0.000000000000000000, 1.500000000000000000, 0.8660254037844382635 ) ) ;
#259 = ORIENTED_EDGE ( 'NONE', *, *, #352, .T. ) ;
#260 = APPLICATION_CONTEXT ( 'automotive_design' ) ;
#261 = CARTESIAN_POINT ( 'NONE',  ( 0.000000000000000000, 0.000000000000000000, 4.000000000000000000 ) ) ;
#262 = ORIENTED_EDGE ( 'NONE', *, *, #482, .T. ) ;
#263 = PLANE ( 'NONE',  #201 ) ;
#264 = ORIENTED_EDGE ( 'NONE', *, *, #459, .F. ) ;
#265 = DIRECTION ( 'NONE',  ( -1.000000000000000000, -0.000000000000000000, -0.000000000000000000 ) ) ;
#266 = EDGE_LOOP ( 'NONE', ( #22, #85, #171, #231 ) ) ;
#267 = VECTOR ( 'NONE', #115, 1000.000000000000000 ) ;
#268 = CYLINDRICAL_SURFACE ( 'NONE', #40, 6.500000000000000000 ) ;
#269 =( LENGTH_UNIT ( ) NAMED_UNIT ( * ) SI_UNIT ( .MILLI., .METRE. ) );
#270 = VERTEX_POINT ( 'NONE', #181 ) ;
#271 = CARTESIAN_POINT ( 'NONE',  ( 2.000000000000000000, 0.000000000000000000, 0.000000000000000000 ) ) ;
#272 = CARTESIAN_POINT ( 'NONE',  ( 19.00000000000000000, 0.000000000000000000, 0.000000000000000000 ) ) ;
#273 = VECTOR ( 'NONE', #59, 1000.000000000000000 ) ;
#274 = ORIENTED_EDGE ( 'NONE', *, *, #431, .F. ) ;
#275 = CARTESIAN_POINT ( 'NONE',  ( 0.000000000000000000, -1.499999999999999334, -0.8660254037844375974 ) ) ;
#276 = ORIENTED_EDGE ( 'NONE', *, *, #103, .T. ) ;
#277 = APPLICATION_PROTOCOL_DEFINITION ( 'draft international standard', 'automotive_design', 1998, #260 ) ;
#278 = SURFACE_STYLE_FILL_AREA ( #341 ) ;
#279 = EDGE_LOOP ( 'NONE', ( #128, #410 ) ) ;
#280 =( LENGTH_UNIT ( ) NAMED_UNIT ( * ) SI_UNIT ( .MILLI., .METRE. ) );
#281 = PLANE ( 'NONE',  #12 ) ;
#282 = CYLINDRICAL_SURFACE ( 'NONE', #138, 4.000000000000000000 ) ;
#283 = CIRCLE ( 'NONE', #343, 3.000000000000000000 ) ;
#284 = CARTESIAN_POINT ( 'NONE',  ( 2.000000000000000000, 1.995021003971751010E-16, 1.732050807568877415 ) ) ;
#285 = VERTEX_POINT ( 'NONE', #139 ) ;
#286 = EDGE_CURVE ( 'NONE', #116, #174, #175, .T. ) ;
#287 = DIRECTION ( 'NONE',  ( 0.000000000000000000, 0.000000000000000000, 1.000000000000000000 ) ) ;
#288 = DIRECTION ( 'NONE',  ( -1.000000000000000000, -0.000000000000000000, -0.000000000000000000 ) ) ;
#289 = CIRCLE ( 'NONE', #149, 4.000000000000000000 ) ;
#290 = EDGE_LOOP ( 'NONE', ( #131, #436 ) ) ;
#291 = VECTOR ( 'NONE', #288, 1000.000000000000000 ) ;
#292 = DIRECTION ( 'NONE',  ( -1.000000000000000000, -0.000000000000000000, -0.000000000000000000 ) ) ;
#293 = CARTESIAN_POINT ( 'NONE',  ( 0.000000000000000000, 0.000000000000000000, 0.000000000000000000 ) ) ;
#294 = FACE_OUTER_BOUND ( 'NONE', #336, .T. ) ;
#295 = ORIENTED_EDGE ( 'NONE', *, *, #94, .F. ) ;
#296 = ORIENTED_EDGE ( 'NONE', *, *, #121, .F. ) ;
#297 = VERTEX_POINT ( 'NONE', #258 ) ;
#298 = LINE ( 'NONE', #79, #33 ) ;
#299 = EDGE_CURVE ( 'NONE', #381, #433, #233, .T. ) ;
#300 = PLANE ( 'NONE',  #214 ) ;
#301 = LINE ( 'NONE', #275, #412 ) ;
#302 = DIRECTION ( 'NONE',  ( -1.000000000000000000, -0.000000000000000000, -0.000000000000000000 ) ) ;
#303 = DIRECTION ( 'NONE',  ( -1.000000000000000000, -0.000000000000000000, -0.000000000000000000 ) ) ;
#304 = CIRCLE ( 'NONE', #422, 4.000000000000000000 ) ;
#305 = SURFACE_STYLE_USAGE ( .BOTH. , #388 ) ;
#306 = EDGE_LOOP ( 'NONE', ( #387, #323, #357, #401, #262, #259 ) ) ;
#307 = CARTESIAN_POINT ( 'NONE',  ( 2.000000000000000000, 1.500000000000000000, 0.8660254037844382635 ) ) ;
#308 = ORIENTED_EDGE ( 'NONE', *, *, #103, .F. ) ;
#309 = CARTESIAN_POINT ( 'NONE',  ( 19.00000000000000000, 0.000000000000000000, 0.000000000000000000 ) ) ;
#310 = AXIS2_PLACEMENT_3D ( 'NONE', #314, #347, #236 ) ;
#311 = CARTESIAN_POINT ( 'NONE',  ( 28.99999999999999645, 3.000000000000000000, 0.000000000000000000 ) ) ;
#312 = ORIENTED_EDGE ( 'NONE', *, *, #71, .T. ) ;
#313 = LINE ( 'NONE', #99, #461 ) ;
#314 = CARTESIAN_POINT ( 'NONE',  ( 19.00000000000000000, 0.000000000000000000, 0.000000000000000000 ) ) ;
#315 = VERTEX_POINT ( 'NONE', #192 ) ;
#316 = EDGE_CURVE ( 'NONE', #223, #457, #434, .T. ) ;
#317 = DIRECTION ( 'NONE',  ( -0.000000000000000000, 0.000000000000000000, 1.000000000000000000 ) ) ;
#318 = AXIS2_PLACEMENT_3D ( 'NONE', #485, #254, #109 ) ;
#319 = EDGE_LOOP ( 'NONE', ( #82, #308 ) ) ;
#320 = CYLINDRICAL_SURFACE ( 'NONE', #318, 3.000000000000000000 ) ;
#321 = DIRECTION ( 'NONE',  ( 0.000000000000000000, 0.8660254037844385966, 0.5000000000000000000 ) ) ;
#322 = DIRECTION ( 'NONE',  ( -1.000000000000000000, -0.000000000000000000, -0.000000000000000000 ) ) ;
#323 = ORIENTED_EDGE ( 'NONE', *, *, #468, .T. ) ;
#324 = DIRECTION ( 'NONE',  ( 0.000000000000000000, 0.8660254037844384856, -0.5000000000000002220 ) ) ;
#325 = DIRECTION ( 'NONE',  ( 0.000000000000000000, 0.8660254037844387076, 0.4999999999999997780 ) ) ;
#326 = ORIENTED_EDGE ( 'NONE', *, *, #316, .T. ) ;
#327 = AXIS2_PLACEMENT_3D ( 'NONE', #184, #113, #334 ) ;
#328 = CARTESIAN_POINT ( 'NONE',  ( 0.000000000000000000, 0.000000000000000000, 0.000000000000000000 ) ) ;
#329 = CARTESIAN_POINT ( 'NONE',  ( 19.00000000000000000, 0.000000000000000000, 0.000000000000000000 ) ) ;
#330 = CARTESIAN_POINT ( 'NONE',  ( 3.000000000000000000, 0.000000000000000000, 0.000000000000000000 ) ) ;
#331 = CARTESIAN_POINT ( 'NONE',  ( 0.000000000000000000, 1.500000000000000000, 0.8660254037844382635 ) ) ;
#332 = CIRCLE ( 'NONE', #310, 3.000000000000000000 ) ;
#333 = ORIENTED_EDGE ( 'NONE', *, *, #28, .F. ) ;
#334 = DIRECTION ( 'NONE',  ( 0.000000000000000000, 0.000000000000000000, 1.000000000000000000 ) ) ;
#335 = EDGE_CURVE ( 'NONE', #110, #315, #227, .T. ) ;
#336 = EDGE_LOOP ( 'NONE', ( #372, #112, #39, #140 ) ) ;
#337 = CARTESIAN_POINT ( 'NONE',  ( 3.000000000000000000, 7.960204194457795477E-16, -6.500000000000000000 ) ) ;
#338 = VECTOR ( 'NONE', #488, 1000.000000000000000 ) ;
#339 = DIRECTION ( 'NONE',  ( 0.000000000000000000, 0.000000000000000000, 1.000000000000000000 ) ) ;
#340 = EDGE_CURVE ( 'NONE', #270, #315, #222, .T. ) ;
#341 = FILL_AREA_STYLE ('',( #242 ) ) ;
#342 = ORIENTED_EDGE ( 'NONE', *, *, #402, .T. ) ;
#343 = AXIS2_PLACEMENT_3D ( 'NONE', #162, #15, #244 ) ;
#344 = PLANE ( 'NONE',  #161 ) ;
#345 = ORIENTED_EDGE ( 'NONE', *, *, #71, .F. ) ;
#346 = DIRECTION ( 'NONE',  ( 0.000000000000000000, 0.000000000000000000, 1.000000000000000000 ) ) ;
#347 = DIRECTION ( 'NONE',  ( -1.000000000000000000, -0.000000000000000000, -0.000000000000000000 ) ) ;
#348 = AXIS2_PLACEMENT_3D ( 'NONE', #350, #54, #480 ) ;
#349 = ORIENTED_EDGE ( 'NONE', *, *, #358, .F. ) ;
#350 = CARTESIAN_POINT ( 'NONE',  ( 0.000000000000000000, 0.000000000000000000, 0.000000000000000000 ) ) ;
#351 = LINE ( 'NONE', #380, #169 ) ;
#352 = EDGE_CURVE ( 'NONE', #270, #427, #186, .T. ) ;
#353 = ORIENTED_EDGE ( 'NONE', *, *, #232, .F. ) ;
#354 = ADVANCED_FACE ( 'NONE', ( #294 ), #452, .T. ) ;
#355 = DIRECTION ( 'NONE',  ( -1.000000000000000000, -0.000000000000000000, -0.000000000000000000 ) ) ;
#356 = VECTOR ( 'NONE', #80, 1000.000000000000227 ) ;
#357 = ORIENTED_EDGE ( 'NONE', *, *, #14, .T. ) ;
#358 = EDGE_CURVE ( 'NONE', #476, #49, #108, .T. ) ;
#359 = CARTESIAN_POINT ( 'NONE',  ( 0.000000000000000000, 3.673940397442059868E-16, -3.000000000000000000 ) ) ;
#360 = VECTOR ( 'NONE', #218, 1000.000000000000000 ) ;
#361 = CARTESIAN_POINT ( 'NONE',  ( 0.000000000000000000, 0.000000000000000000, 6.500000000000000000 ) ) ;
#362 = FACE_OUTER_BOUND ( 'NONE', #53, .T. ) ;
#363 = PLANE ( 'NONE',  #257 ) ;
#364 = PLANE ( 'NONE',  #61 ) ;
#365 = FACE_OUTER_BOUND ( 'NONE', #163, .T. ) ;
#366 = LINE ( 'NONE', #409, #125 ) ;
#367 = EDGE_CURVE ( 'NONE', #96, #174, #6, .T. ) ;
#368 = ORIENTED_EDGE ( 'NONE', *, *, #402, .F. ) ;
#369 = AXIS2_PLACEMENT_3D ( 'NONE', #475, #383, #21 ) ;
#370 = CIRCLE ( 'NONE', #493, 4.000000000000000000 ) ;
#371 = CARTESIAN_POINT ( 'NONE',  ( 0.000000000000000000, -1.499999999999999112, 0.8660254037844395958 ) ) ;
#372 = ORIENTED_EDGE ( 'NONE', *, *, #51, .F. ) ;
#373 = EDGE_CURVE ( 'NONE', #457, #381, #366, .T. ) ;
#374 = ORIENTED_EDGE ( 'NONE', *, *, #238, .F. ) ;
#375 = ORIENTED_EDGE ( 'NONE', *, *, #373, .T. ) ;
#376 = EDGE_CURVE ( 'NONE', #168, #443, #155, .T. ) ;
#377 = AXIS2_PLACEMENT_3D ( 'NONE', #271, #390, #474 ) ;
#378 = EDGE_LOOP ( 'NONE', ( #349, #296 ) ) ;
#379 = VECTOR ( 'NONE', #27, 1000.000000000000000 ) ;
#380 = CARTESIAN_POINT ( 'NONE',  ( 2.000000000000000000, 1.995021003971751010E-16, 1.732050807568877415 ) ) ;
#381 = VERTEX_POINT ( 'NONE', #36 ) ;
#382 = CARTESIAN_POINT ( 'NONE',  ( 0.000000000000000000, 0.000000000000000000, 0.000000000000000000 ) ) ;
#383 = DIRECTION ( 'NONE',  ( -1.000000000000000000, -0.000000000000000000, -0.000000000000000000 ) ) ;
#384 = ORIENTED_EDGE ( 'NONE', *, *, #406, .F. ) ;
#385 = DIRECTION ( 'NONE',  ( 0.000000000000000000, 0.8660254037844387076, 0.4999999999999997780 ) ) ;
#386 = DIRECTION ( 'NONE',  ( -1.000000000000000000, -0.000000000000000000, -0.000000000000000000 ) ) ;
#387 = ORIENTED_EDGE ( 'NONE', *, *, #232, .T. ) ;
#388 = SURFACE_SIDE_STYLE ('',( #278 ) ) ;
#389 = EDGE_LOOP ( 'NONE', ( #194, #345, #117, #16 ) ) ;
#390 = DIRECTION ( 'NONE',  ( -1.000000000000000000, 0.000000000000000000, 0.000000000000000000 ) ) ;
#391 = DIRECTION ( 'NONE',  ( 0.000000000000000000, 0.8660254037844385966, -0.5000000000000002220 ) ) ;
#392 = DIRECTION ( 'NONE',  ( -1.000000000000000000, -0.000000000000000000, -0.000000000000000000 ) ) ;
#393 = ORIENTED_EDGE ( 'NONE', *, *, #376, .F. ) ;
#394 = APPLICATION_PROTOCOL_DEFINITION ( 'draft international standard', 'automotive_design', 1998, #187 ) ;
#395 = VECTOR ( 'NONE', #188, 1000.000000000000227 ) ;
#396 = DIRECTION ( 'NONE',  ( 0.000000000000000000, 0.000000000000000000, 1.000000000000000000 ) ) ;
#397 = VECTOR ( 'NONE', #325, 1000.000000000000114 ) ;
#398 = DIRECTION ( 'NONE',  ( 0.000000000000000000, -0.8660254037844385966, -0.5000000000000000000 ) ) ;
#399 = ADVANCED_FACE ( 'NONE', ( #414, #73 ), #225, .F. ) ;
#400 = CARTESIAN_POINT ( 'NONE',  ( 2.000000000000000000, -1.499999999999999334, -0.8660254037844375974 ) ) ;
#401 = ORIENTED_EDGE ( 'NONE', *, *, #198, .T. ) ;
#402 = EDGE_CURVE ( 'NONE', #315, #150, #84, .T. ) ;
#403 = LINE ( 'NONE', #361, #196 ) ;
#404 = CARTESIAN_POINT ( 'NONE',  ( 19.00000000000000000, 4.000000000000000000, 0.000000000000000000 ) ) ;
#405 = DIRECTION ( 'NONE',  ( 0.000000000000000000, 1.251928832280966188E-16, 1.000000000000000000 ) ) ;
#406 = EDGE_CURVE ( 'NONE', #204, #96, #289, .T. ) ;
#407 = VECTOR ( 'NONE', #405, 1000.000000000000000 ) ;
#408 = EDGE_LOOP ( 'NONE', ( #342, #264, #416, #38 ) ) ;
#409 = CARTESIAN_POINT ( 'NONE',  ( 0.000000000000000000, 7.960204194457795477E-16, -6.500000000000000000 ) ) ;
#410 = ORIENTED_EDGE ( 'NONE', *, *, #28, .T. ) ;
#411 = CLOSED_SHELL ( 'NONE', ( #413, #248, #144, #2, #75, #399, #354, #255, #183, #106, #442, #445, #216, #45, #151, #447, #460 ) ) ;
#412 = VECTOR ( 'NONE', #48, 1000.000000000000000 ) ;
#413 = ADVANCED_FACE ( 'NONE', ( #9 ), #462, .T. ) ;
#414 = FACE_OUTER_BOUND ( 'NONE', #319, .T. ) ;
#415 = ORIENTED_EDGE ( 'NONE', *, *, #468, .F. ) ;
#416 = ORIENTED_EDGE ( 'NONE', *, *, #352, .F. ) ;
#417 = CARTESIAN_POINT ( 'NONE',  ( 0.000000000000000000, 0.000000000000000000, 0.000000000000000000 ) ) ;
#418 = EDGE_LOOP ( 'NONE', ( #191, #93, #353, #246 ) ) ;
#419 = CARTESIAN_POINT ( 'NONE',  ( 3.000000000000000000, 6.500000000000000000, 0.000000000000000000 ) ) ;
#420 = VERTEX_POINT ( 'NONE', #90 ) ;
#421 = AXIS2_PLACEMENT_3D ( 'NONE', #329, #153, #37 ) ;
#422 = AXIS2_PLACEMENT_3D ( 'NONE', #46, #20, #158 ) ;
#423 = DIRECTION ( 'NONE',  ( -1.000000000000000000, 0.000000000000000000, -0.000000000000000000 ) ) ;
#424 = ORIENTED_EDGE ( 'NONE', *, *, #176, .F. ) ;
#425 = LINE ( 'NONE', #136, #253 ) ;
#426 = EDGE_CURVE ( 'NONE', #174, #116, #304, .T. ) ;
#427 = VERTEX_POINT ( 'NONE', #18 ) ;
#428 =( NAMED_UNIT ( * ) PLANE_ANGLE_UNIT ( ) SI_UNIT ( $, .RADIAN. ) );
#429 = FACE_OUTER_BOUND ( 'NONE', #77, .T. ) ;
#430 = ORIENTED_EDGE ( 'NONE', *, *, #121, .T. ) ;
#431 = EDGE_CURVE ( 'NONE', #96, #204, #370, .T. ) ;
#432 =( NAMED_UNIT ( * ) SI_UNIT ( $, .STERADIAN. ) SOLID_ANGLE_UNIT ( ) );
#433 = VERTEX_POINT ( 'NONE', #241 ) ;
#434 = CIRCLE ( 'NONE', #68, 6.500000000000000000 ) ;
#435 = DIRECTION ( 'NONE',  ( -1.000000000000000000, -0.000000000000000000, -0.000000000000000000 ) ) ;
#436 = ORIENTED_EDGE ( 'NONE', *, *, #286, .T. ) ;
#437 = PRODUCT ( '\X2\585e625387ba9489\X0\D8L16A_\X2\5e735934\X0\ 3 13 8 20 10 m6', '\X2\585e625387ba9489\X0\D8L16A_\X2\5e735934\X0\ 3 13 8 20 10 m6', '', ( #89 ) ) ;
#438 = DIRECTION ( 'NONE',  ( -0.000000000000000000, 0.5000000000000003331, 0.8660254037844385966 ) ) ;
#439 = ORIENTED_EDGE ( 'NONE', *, *, #189, .T. ) ;
#440 = COLOUR_RGB ( '',0.7921568627450980005, 0.8196078431372548767, 0.9333333333333333481 ) ;
#441 = CARTESIAN_POINT ( 'NONE',  ( 19.00000000000000000, 4.898587196589412829E-16, -4.000000000000000000 ) ) ;
#442 = ADVANCED_FACE ( 'NONE', ( #55 ), #300, .F. ) ;
#443 = VERTEX_POINT ( 'NONE', #250 ) ;
#444 = CARTESIAN_POINT ( 'NONE',  ( 2.000000000000000000, 1.500000000000000222, -0.8660254037844379305 ) ) ;
#445 = ADVANCED_FACE ( 'NONE', ( #477 ), #364, .F. ) ;
#446 = ORIENTED_EDGE ( 'NONE', *, *, #299, .F. ) ;
#447 = ADVANCED_FACE ( 'NONE', ( #362 ), #97, .F. ) ;
#448 = CARTESIAN_POINT ( 'NONE',  ( 0.000000000000000000, 0.000000000000000000, 0.000000000000000000 ) ) ;
#449 = DIRECTION ( 'NONE',  ( 0.000000000000000000, -0.8660254037844385966, -0.5000000000000000000 ) ) ;
#450 = VERTEX_POINT ( 'NONE', #229 ) ;
#451 = AXIS2_PLACEMENT_3D ( 'NONE', #143, #322, #287 ) ;
#452 = CYLINDRICAL_SURFACE ( 'NONE', #230, 4.000000000000000000 ) ;
#453 = DIRECTION ( 'NONE',  ( 0.000000000000000000, 0.000000000000000000, 1.000000000000000000 ) ) ;
#454 = VERTEX_POINT ( 'NONE', #226 ) ;
#455 = EDGE_LOOP ( 'NONE', ( #326, #375, #240, #374 ) ) ;
#456 = CARTESIAN_POINT ( 'NONE',  ( 0.000000000000000000, 1.500000000000000222, -0.8660254037844379305 ) ) ;
#457 = VERTEX_POINT ( 'NONE', #337 ) ;
#458 = DIRECTION ( 'NONE',  ( -1.000000000000000000, -0.000000000000000000, -0.000000000000000000 ) ) ;
#459 = EDGE_CURVE ( 'NONE', #427, #150, #298, .T. ) ;
#460 = ADVANCED_FACE ( 'NONE', ( #126 ), #235, .T. ) ;
#461 = VECTOR ( 'NONE', #385, 1000.000000000000114 ) ;
#462 = CYLINDRICAL_SURFACE ( 'NONE', #185, 3.000000000000000000 ) ;
#463 = ORIENTED_EDGE ( 'NONE', *, *, #35, .T. ) ;
#464 = DIRECTION ( 'NONE',  ( -1.000000000000000000, -0.000000000000000000, -0.000000000000000000 ) ) ;
#465 = DIRECTION ( 'NONE',  ( -1.000000000000000000, -0.000000000000000000, -0.000000000000000000 ) ) ;
#466 = DIRECTION ( 'NONE',  ( 0.000000000000000000, -1.251928832280966928E-16, 1.000000000000000000 ) ) ;
#467 = EDGE_LOOP ( 'NONE', ( #134, #72 ) ) ;
#468 = EDGE_CURVE ( 'NONE', #420, #285, #313, .T. ) ;
#469 = CARTESIAN_POINT ( 'NONE',  ( 2.000000000000000000, 1.500000000000000222, -0.8660254037844379305 ) ) ;
#470 = AXIS2_PLACEMENT_3D ( 'NONE', #203, #124, #466 ) ;
#471 = DIRECTION ( 'NONE',  ( -1.000000000000000000, -0.000000000000000000, -0.000000000000000000 ) ) ;
#472 = DIRECTION ( 'NONE',  ( -0.000000000000000000, 0.000000000000000000, 1.000000000000000000 ) ) ;
#473 = ORIENTED_EDGE ( 'NONE', *, *, #431, .T. ) ;
#474 = DIRECTION ( 'NONE',  ( 0.000000000000000000, 0.000000000000000000, 1.000000000000000000 ) ) ;
#475 = CARTESIAN_POINT ( 'NONE',  ( 3.000000000000000000, 0.000000000000000000, 0.000000000000000000 ) ) ;
#476 = VERTEX_POINT ( 'NONE', #58 ) ;
#477 = FACE_OUTER_BOUND ( 'NONE', #408, .T. ) ;
#478 = CARTESIAN_POINT ( 'NONE',  ( 0.000000000000000000, 1.995021003971751010E-16, 1.732050807568877415 ) ) ;
#479 = VERTEX_POINT ( 'NONE', #207 ) ;
#480 = DIRECTION ( 'NONE',  ( 1.000000000000000000, 0.000000000000000000, 0.000000000000000000 ) ) ;
#481 = PRODUCT_DEFINITION_SHAPE ( 'NONE', 'NONE',  #180 ) ;
#482 = EDGE_CURVE ( 'NONE', #200, #270, #211, .T. ) ;
#483 = DIRECTION ( 'NONE',  ( 0.000000000000000000, -1.251928832280966188E-16, -1.000000000000000000 ) ) ;
#484 = EDGE_CURVE ( 'NONE', #200, #110, #135, .T. ) ;
#485 = CARTESIAN_POINT ( 'NONE',  ( 0.000000000000000000, 0.000000000000000000, 0.000000000000000000 ) ) ;
#486 = DIRECTION ( 'NONE',  ( -1.000000000000000000, 0.000000000000000000, -0.000000000000000000 ) ) ;
#487 = DIRECTION ( 'NONE',  ( 0.000000000000000000, -0.8660254037844387076, -0.4999999999999997224 ) ) ;
#488 = DIRECTION ( 'NONE',  ( -1.000000000000000000, -0.000000000000000000, -0.000000000000000000 ) ) ;
#489 = DIRECTION ( 'NONE',  ( 0.000000000000000000, -1.000000000000000000, 1.251928832280966188E-16 ) ) ;
#490 = PLANE ( 'NONE',  #157 ) ;
#491 =( GEOMETRIC_REPRESENTATION_CONTEXT ( 3 ) GLOBAL_UNCERTAINTY_ASSIGNED_CONTEXT ( ( #91 ) ) GLOBAL_UNIT_ASSIGNED_CONTEXT ( ( #269, #167, #432 ) ) REPRESENTATION_CONTEXT ( 'NONE', 'WORKASPACE' ) );
#492 = DIRECTION ( 'NONE',  ( -0.000000000000000000, 0.000000000000000000, 1.000000000000000000 ) ) ;
#493 = AXIS2_PLACEMENT_3D ( 'NONE', #309, #471, #132 ) ;
ENDSEC;
END-ISO-10303-21;
