ISO-10303-21;
HEADER;
FILE_DESCRIPTION (( 'STEP AP214' ),
    '1' );
FILE_NAME ('Èû´òÂÝ¶¤(¿ªÔ´)A.STEP',
    '2026-08-16T17:26:54',
    ( '' ),
    ( '' ),
    'SwSTEP 2.0',
    'SolidWorks 2025',
    '' );
FILE_SCHEMA (( 'AUTOMOTIVE_DESIGN' ));
ENDSEC;

DATA;
#1 = DIRECTION ( 'NONE',  ( -1.000000000000000000, -0.000000000000000000, -0.000000000000000000 ) ) ;
#2 = CARTESIAN_POINT ( 'NONE',  ( 2.000000000000000000, 1.500000000000000000, 0.8660254037844382635 ) ) ;
#3 = DIRECTION ( 'NONE',  ( 0.000000000000000000, 0.000000000000000000, 1.000000000000000000 ) ) ;
#4 = FACE_OUTER_BOUND ( 'NONE', #387, .T. ) ;
#5 = VECTOR ( 'NONE', #308, 1000.000000000000114 ) ;
#6 = EDGE_CURVE ( 'NONE', #316, #25, #149, .T. ) ;
#7 = EDGE_CURVE ( 'NONE', #365, #27, #297, .T. ) ;
#8 = DIRECTION ( 'NONE',  ( -1.000000000000000000, -0.000000000000000000, -0.000000000000000000 ) ) ;
#9 = DIRECTION ( 'NONE',  ( 0.000000000000000000, 0.000000000000000000, 1.000000000000000000 ) ) ;
#10 = PRODUCT_RELATED_PRODUCT_CATEGORY ( 'part', '', ( #90 ) ) ;
#11 = CARTESIAN_POINT ( 'NONE',  ( 2.000000000000000000, -1.499999999999999334, -0.8660254037844375974 ) ) ;
#12 = EDGE_CURVE ( 'NONE', #337, #493, #83, .T. ) ;
#13 = AXIS2_PLACEMENT_3D ( 'NONE', #111, #141, #489 ) ;
#14 = SURFACE_STYLE_FILL_AREA ( #392 ) ;
#15 = LINE ( 'NONE', #88, #75 ) ;
#16 = AXIS2_PLACEMENT_3D ( 'NONE', #60, #351, #246 ) ;
#17 = EDGE_LOOP ( 'NONE', ( #131, #299, #139, #443, #446, #480 ) ) ;
#18 = LINE ( 'NONE', #359, #185 ) ;
#19 = VERTEX_POINT ( 'NONE', #269 ) ;
#20 =( LENGTH_UNIT ( ) NAMED_UNIT ( * ) SI_UNIT ( .MILLI., .METRE. ) );
#21 = EDGE_LOOP ( 'NONE', ( #491, #396, #284, #322 ) ) ;
#22 = ADVANCED_BREP_SHAPE_REPRESENTATION ( '\X2\585e625387ba9489\X0\(\X2\5f006e90\X0\)A_\X2\5e735934\X0\ 3 13 8 30 10 m6', ( #176, #54 ), #441 ) ;
#23 = EDGE_CURVE ( 'NONE', #93, #170, #157, .T. ) ;
#24 = DIRECTION ( 'NONE',  ( 0.000000000000000000, -0.8660254037844385966, -0.5000000000000000000 ) ) ;
#25 = VERTEX_POINT ( 'NONE', #307 ) ;
#26 = PLANE ( 'NONE',  #265 ) ;
#27 = VERTEX_POINT ( 'NONE', #377 ) ;
#28 = VECTOR ( 'NONE', #461, 1000.000000000000000 ) ;
#29 = DIRECTION ( 'NONE',  ( -1.000000000000000000, -0.000000000000000000, -0.000000000000000000 ) ) ;
#30 = EDGE_CURVE ( 'NONE', #104, #134, #384, .T. ) ;
#31 = EDGE_LOOP ( 'NONE', ( #473, #390, #136, #69 ) ) ;
#32 = CARTESIAN_POINT ( 'NONE',  ( 2.000000000000000000, 4.541175225040599946E-16, -1.732050807568876527 ) ) ;
#33 = EDGE_LOOP ( 'NONE', ( #38, #274 ) ) ;
#34 = EDGE_CURVE ( 'NONE', #134, #19, #47, .T. ) ;
#35 = PLANE ( 'NONE',  #433 ) ;
#36 = EDGE_LOOP ( 'NONE', ( #413, #362 ) ) ;
#37 = DIRECTION ( 'NONE',  ( 0.000000000000000000, 0.000000000000000000, 1.000000000000000000 ) ) ;
#38 = ORIENTED_EDGE ( 'NONE', *, *, #87, .F. ) ;
#39 = CIRCLE ( 'NONE', #397, 6.500000000000000000 ) ;
#40 = EDGE_CURVE ( 'NONE', #184, #93, #464, .T. ) ;
#41 = ADVANCED_FACE ( 'NONE', ( #233, #53 ), #124, .F. ) ;
#42 = ORIENTED_EDGE ( 'NONE', *, *, #23, .T. ) ;
#43 = VECTOR ( 'NONE', #189, 1000.000000000000000 ) ;
#44 = DIRECTION ( 'NONE',  ( 1.000000000000000000, 0.000000000000000000, 0.000000000000000000 ) ) ;
#45 = LINE ( 'NONE', #340, #28 ) ;
#46 = ADVANCED_FACE ( 'NONE', ( #198 ), #85, .T. ) ;
#47 = LINE ( 'NONE', #193, #277 ) ;
#48 = FACE_OUTER_BOUND ( 'NONE', #223, .T. ) ;
#49 = AXIS2_PLACEMENT_3D ( 'NONE', #66, #217, #367 ) ;
#50 = FACE_OUTER_BOUND ( 'NONE', #210, .T. ) ;
#51 = LINE ( 'NONE', #120, #143 ) ;
#52 = PRODUCT_CONTEXT ( 'NONE', #403, 'mechanical' ) ;
#53 = FACE_OUTER_BOUND ( 'NONE', #399, .T. ) ;
#54 = AXIS2_PLACEMENT_3D ( 'NONE', #275, #166, #319 ) ;
#55 = CIRCLE ( 'NONE', #350, 3.000000000000000000 ) ;
#56 = ORIENTED_EDGE ( 'NONE', *, *, #7, .F. ) ;
#57 = DIRECTION ( 'NONE',  ( 0.000000000000000000, 0.000000000000000000, 1.000000000000000000 ) ) ;
#58 = VERTEX_POINT ( 'NONE', #301 ) ;
#59 = CARTESIAN_POINT ( 'NONE',  ( 2.000000000000000000, 1.995021003971751010E-16, 1.732050807568877415 ) ) ;
#60 = CARTESIAN_POINT ( 'NONE',  ( 33.00000000000000000, 0.000000000000000000, 0.000000000000000000 ) ) ;
#61 = ORIENTED_EDGE ( 'NONE', *, *, #344, .T. ) ;
#62 = AXIS2_PLACEMENT_3D ( 'NONE', #442, #313, #468 ) ;
#63 = CARTESIAN_POINT ( 'NONE',  ( 0.000000000000000000, 7.960204194457795477E-16, -6.500000000000000000 ) ) ;
#64 = ORIENTED_EDGE ( 'NONE', *, *, #206, .T. ) ;
#65 = DIRECTION ( 'NONE',  ( 0.000000000000000000, 0.000000000000000000, 1.000000000000000000 ) ) ;
#66 = CARTESIAN_POINT ( 'NONE',  ( 0.000000000000000000, 0.000000000000000000, 0.000000000000000000 ) ) ;
#67 = ADVANCED_FACE ( 'NONE', ( #48 ), #343, .F. ) ;
#68 = CARTESIAN_POINT ( 'NONE',  ( 2.000000000000000000, 1.500000000000000000, 0.8660254037844382635 ) ) ;
#69 = ORIENTED_EDGE ( 'NONE', *, *, #77, .T. ) ;
#70 = DIRECTION ( 'NONE',  ( 0.000000000000000000, 0.000000000000000000, 1.000000000000000000 ) ) ;
#71 = VERTEX_POINT ( 'NONE', #305 ) ;
#72 = AXIS2_PLACEMENT_3D ( 'NONE', #456, #76, #463 ) ;
#73 = PLANE ( 'NONE',  #101 ) ;
#74 = ORIENTED_EDGE ( 'NONE', *, *, #226, .F. ) ;
#75 = VECTOR ( 'NONE', #167, 1000.000000000000227 ) ;
#76 = DIRECTION ( 'NONE',  ( -1.000000000000000000, -0.000000000000000000, -0.000000000000000000 ) ) ;
#77 = EDGE_CURVE ( 'NONE', #184, #19, #382, .T. ) ;
#78 = DIRECTION ( 'NONE',  ( -1.000000000000000000, -0.000000000000000000, -0.000000000000000000 ) ) ;
#79 = ADVANCED_FACE ( 'NONE', ( #4 ), #467, .T. ) ;
#80 = COLOUR_RGB ( '',0.7921568627450980005, 0.8196078431372548767, 0.9333333333333333481 ) ;
#81 = CARTESIAN_POINT ( 'NONE',  ( 33.00000000000000000, 0.000000000000000000, 0.000000000000000000 ) ) ;
#82 = LINE ( 'NONE', #418, #302 ) ;
#83 = LINE ( 'NONE', #2, #490 ) ;
#84 = CARTESIAN_POINT ( 'NONE',  ( 0.000000000000000000, 0.000000000000000000, 0.000000000000000000 ) ) ;
#85 = CYLINDRICAL_SURFACE ( 'NONE', #105, 4.000000000000000000 ) ;
#86 = EDGE_CURVE ( 'NONE', #215, #27, #51, .T. ) ;
#87 = EDGE_CURVE ( 'NONE', #440, #332, #400, .T. ) ;
#88 = CARTESIAN_POINT ( 'NONE',  ( 2.000000000000000000, 1.995021003971751010E-16, 1.732050807568877415 ) ) ;
#89 = EDGE_LOOP ( 'NONE', ( #471, #168 ) ) ;
#90 = PRODUCT ( '\X2\585e625387ba9489\X0\(\X2\5f006e90\X0\)A_\X2\5e735934\X0\ 3 13 8 30 10 m6', '\X2\585e625387ba9489\X0\(\X2\5f006e90\X0\)A_\X2\5e735934\X0\ 3 13 8 30 10 m6', '', ( #52 ) ) ;
#91 = ADVANCED_FACE ( 'NONE', ( #341 ), #196, .F. ) ;
#92 = CARTESIAN_POINT ( 'NONE',  ( 0.000000000000000000, 0.000000000000000000, 0.000000000000000000 ) ) ;
#93 = VERTEX_POINT ( 'NONE', #309 ) ;
#94 = CARTESIAN_POINT ( 'NONE',  ( 3.000000000000000444, 0.000000000000000000, 0.000000000000000000 ) ) ;
#95 = ORIENTED_EDGE ( 'NONE', *, *, #6, .F. ) ;
#96 = ADVANCED_FACE ( 'NONE', ( #457 ), #236, .T. ) ;
#97 = APPLICATION_PROTOCOL_DEFINITION ( 'draft international standard', 'automotive_design', 1998, #411 ) ;
#98 = DIRECTION ( 'NONE',  ( 0.000000000000000000, -0.8660254037844385966, -0.5000000000000000000 ) ) ;
#99 = ORIENTED_EDGE ( 'NONE', *, *, #86, .T. ) ;
#100 = DIRECTION ( 'NONE',  ( -1.000000000000000000, -0.000000000000000000, -0.000000000000000000 ) ) ;
#101 = AXIS2_PLACEMENT_3D ( 'NONE', #175, #254, #216 ) ;
#102 = ORIENTED_EDGE ( 'NONE', *, *, #300, .T. ) ;
#103 = FACE_OUTER_BOUND ( 'NONE', #435, .T. ) ;
#104 = VERTEX_POINT ( 'NONE', #379 ) ;
#105 = AXIS2_PLACEMENT_3D ( 'NONE', #154, #349, #345 ) ;
#106 = MECHANICAL_DESIGN_GEOMETRIC_PRESENTATION_REPRESENTATION (  '', ( #203 ), #199 ) ;
#107 = CARTESIAN_POINT ( 'NONE',  ( 2.000000000000000000, 4.541175225040599946E-16, -1.732050807568876527 ) ) ;
#108 = ORIENTED_EDGE ( 'NONE', *, *, #197, .T. ) ;
#109 = CARTESIAN_POINT ( 'NONE',  ( 33.00000000000000000, 4.898587196589412829E-16, -4.000000000000000000 ) ) ;
#110 = ORIENTED_EDGE ( 'NONE', *, *, #478, .T. ) ;
#111 = CARTESIAN_POINT ( 'NONE',  ( 33.00000000000000000, 4.000000000000000000, 0.000000000000000000 ) ) ;
#112 = ORIENTED_EDGE ( 'NONE', *, *, #87, .T. ) ;
#113 = EDGE_CURVE ( 'NONE', #408, #134, #122, .T. ) ;
#114 = LINE ( 'NONE', #150, #117 ) ;
#115 = ORIENTED_EDGE ( 'NONE', *, *, #450, .T. ) ;
#116 = DIRECTION ( 'NONE',  ( 0.000000000000000000, 0.000000000000000000, 1.000000000000000000 ) ) ;
#117 = VECTOR ( 'NONE', #146, 1000.000000000000000 ) ;
#118 = UNCERTAINTY_MEASURE_WITH_UNIT (LENGTH_MEASURE( 1.000000000000000082E-05 ), #20, 'distance_accuracy_value', 'NONE');
#119 = DIRECTION ( 'NONE',  ( -1.000000000000000000, -0.000000000000000000, -0.000000000000000000 ) ) ;
#120 = CARTESIAN_POINT ( 'NONE',  ( 0.000000000000000000, 0.000000000000000000, 3.000000000000000000 ) ) ;
#121 = DIRECTION ( 'NONE',  ( 0.000000000000000000, 0.000000000000000000, 1.000000000000000000 ) ) ;
#122 = LINE ( 'NONE', #264, #129 ) ;
#123 = PRODUCT_DEFINITION_CONTEXT ( 'detailed design', #411, 'design' ) ;
#124 = PLANE ( 'NONE',  #320 ) ;
#125 = VECTOR ( 'NONE', #98, 1000.000000000000227 ) ;
#126 = CYLINDRICAL_SURFACE ( 'NONE', #327, 3.000000000000000000 ) ;
#127 = DIRECTION ( 'NONE',  ( 0.000000000000000000, 0.000000000000000000, -1.000000000000000000 ) ) ;
#128 = ADVANCED_FACE ( 'NONE', ( #472 ), #207, .F. ) ;
#129 = VECTOR ( 'NONE', #24, 1000.000000000000227 ) ;
#130 = DIRECTION ( 'NONE',  ( -1.000000000000000000, -0.000000000000000000, -0.000000000000000000 ) ) ;
#131 = ORIENTED_EDGE ( 'NONE', *, *, #427, .F. ) ;
#132 = CARTESIAN_POINT ( 'NONE',  ( 3.000000000000000000, 0.000000000000000000, 0.000000000000000000 ) ) ;
#133 = VERTEX_POINT ( 'NONE', #398 ) ;
#134 = VERTEX_POINT ( 'NONE', #162 ) ;
#135 = CARTESIAN_POINT ( 'NONE',  ( 2.000000000000000000, -1.499999999999999334, -0.8660254037844375974 ) ) ;
#136 = ORIENTED_EDGE ( 'NONE', *, *, #40, .F. ) ;
#137 = CARTESIAN_POINT ( 'NONE',  ( 33.00000000000000000, 3.673940397442059868E-16, -3.000000000000000000 ) ) ;
#138 = AXIS2_PLACEMENT_3D ( 'NONE', #333, #449, #487 ) ;
#139 = ORIENTED_EDGE ( 'NONE', *, *, #34, .F. ) ;
#140 = ADVANCED_FACE ( 'NONE', ( #434 ), #436, .F. ) ;
#141 = DIRECTION ( 'NONE',  ( -1.000000000000000000, 0.000000000000000000, -0.000000000000000000 ) ) ;
#142 = ORIENTED_EDGE ( 'NONE', *, *, #391, .F. ) ;
#143 = VECTOR ( 'NONE', #155, 1000.000000000000000 ) ;
#144 = PLANE ( 'NONE',  #328 ) ;
#145 = DIRECTION ( 'NONE',  ( -1.000000000000000000, -0.000000000000000000, -0.000000000000000000 ) ) ;
#146 = DIRECTION ( 'NONE',  ( -1.000000000000000000, -0.000000000000000000, -0.000000000000000000 ) ) ;
#147 = EDGE_CURVE ( 'NONE', #332, #440, #354, .T. ) ;
#148 = ORIENTED_EDGE ( 'NONE', *, *, #229, .T. ) ;
#149 = CIRCLE ( 'NONE', #49, 6.500000000000000000 ) ;
#150 = CARTESIAN_POINT ( 'NONE',  ( 0.000000000000000000, 0.000000000000000000, 6.500000000000000000 ) ) ;
#151 = VERTEX_POINT ( 'NONE', #212 ) ;
#152 = DIRECTION ( 'NONE',  ( 0.000000000000000000, 0.8660254037844385966, 0.5000000000000000000 ) ) ;
#153 = VECTOR ( 'NONE', #306, 1000.000000000000000 ) ;
#154 = CARTESIAN_POINT ( 'NONE',  ( 0.000000000000000000, 0.000000000000000000, 0.000000000000000000 ) ) ;
#155 = DIRECTION ( 'NONE',  ( -1.000000000000000000, -0.000000000000000000, -0.000000000000000000 ) ) ;
#156 = DIRECTION ( 'NONE',  ( 0.000000000000000000, 0.000000000000000000, 1.000000000000000000 ) ) ;
#157 = LINE ( 'NONE', #425, #5 ) ;
#158 = UNCERTAINTY_MEASURE_WITH_UNIT (LENGTH_MEASURE( 1.000000000000000082E-05 ), #317, 'distance_accuracy_value', 'NONE');
#159 = DIRECTION ( 'NONE',  ( 0.000000000000000000, 0.5000000000000001110, -0.8660254037844387076 ) ) ;
#160 = DIRECTION ( 'NONE',  ( 0.000000000000000000, -1.000000000000000000, 1.251928832280966188E-16 ) ) ;
#161 = AXIS2_PLACEMENT_3D ( 'NONE', #423, #78, #9 ) ;
#162 = CARTESIAN_POINT ( 'NONE',  ( 0.000000000000000000, 4.541175225040599946E-16, -1.732050807568876527 ) ) ;
#163 = ORIENTED_EDGE ( 'NONE', *, *, #225, .F. ) ;
#164 = PRESENTATION_STYLE_ASSIGNMENT (( #476 ) ) ;
#165 = VERTEX_POINT ( 'NONE', #470 ) ;
#166 = DIRECTION ( 'NONE',  ( 0.000000000000000000, 0.000000000000000000, 1.000000000000000000 ) ) ;
#167 = DIRECTION ( 'NONE',  ( 0.000000000000000000, 0.8660254037844384856, -0.5000000000000002220 ) ) ;
#168 = ORIENTED_EDGE ( 'NONE', *, *, #7, .T. ) ;
#169 = FILL_AREA_STYLE_COLOUR ( '', #80 ) ;
#170 = VERTEX_POINT ( 'NONE', #59 ) ;
#171 = EDGE_CURVE ( 'NONE', #181, #71, #291, .T. ) ;
#172 = DIRECTION ( 'NONE',  ( -1.000000000000000000, -0.000000000000000000, -0.000000000000000000 ) ) ;
#173 = ORIENTED_EDGE ( 'NONE', *, *, #30, .F. ) ;
#174 = VECTOR ( 'NONE', #1, 1000.000000000000000 ) ;
#175 = CARTESIAN_POINT ( 'NONE',  ( 3.000000000000000000, 6.500000000000000000, 0.000000000000000000 ) ) ;
#176 = MANIFOLD_SOLID_BREP ( '\X2\52079664\X0\-\X2\62c94f38\X0\1', #211 ) ;
#177 = ORIENTED_EDGE ( 'NONE', *, *, #437, .F. ) ;
#178 = FACE_BOUND ( 'NONE', #36, .T. ) ;
#179 = ORIENTED_EDGE ( 'NONE', *, *, #229, .F. ) ;
#180 = PLANE ( 'NONE',  #138 ) ;
#181 = VERTEX_POINT ( 'NONE', #315 ) ;
#182 = PRODUCT_DEFINITION ( 'æ™', '', #394, #123 ) ;
#183 = CARTESIAN_POINT ( 'NONE',  ( 2.000000000000000000, 1.500000000000000222, -0.8660254037844379305 ) ) ;
#184 = VERTEX_POINT ( 'NONE', #135 ) ;
#185 = VECTOR ( 'NONE', #298, 1000.000000000000000 ) ;
#186 = CARTESIAN_POINT ( 'NONE',  ( 0.000000000000000000, 0.000000000000000000, 0.000000000000000000 ) ) ;
#187 = ORIENTED_EDGE ( 'NONE', *, *, #113, .T. ) ;
#188 = CARTESIAN_POINT ( 'NONE',  ( 0.000000000000000000, -1.499999999999999112, 0.8660254037844395958 ) ) ;
#189 = DIRECTION ( 'NONE',  ( -1.000000000000000000, -0.000000000000000000, -0.000000000000000000 ) ) ;
#190 = DIRECTION ( 'NONE',  ( 0.000000000000000000, -0.8660254037844384856, 0.5000000000000001110 ) ) ;
#191 = CARTESIAN_POINT ( 'NONE',  ( 0.000000000000000000, 0.000000000000000000, 4.000000000000000000 ) ) ;
#192 = AXIS2_PLACEMENT_3D ( 'NONE', #486, #145, #451 ) ;
#193 = CARTESIAN_POINT ( 'NONE',  ( 0.000000000000000000, 4.541175225040599946E-16, -1.732050807568876527 ) ) ;
#194 = EDGE_CURVE ( 'NONE', #170, #337, #15, .T. ) ;
#195 = CARTESIAN_POINT ( 'NONE',  ( 0.000000000000000000, 0.000000000000000000, 0.000000000000000000 ) ) ;
#196 = PLANE ( 'NONE',  #420 ) ;
#197 = EDGE_CURVE ( 'NONE', #165, #133, #321, .T. ) ;
#198 = FACE_OUTER_BOUND ( 'NONE', #432, .T. ) ;
#199 =( GEOMETRIC_REPRESENTATION_CONTEXT ( 3 ) GLOBAL_UNCERTAINTY_ASSIGNED_CONTEXT ( ( #158 ) ) GLOBAL_UNIT_ASSIGNED_CONTEXT ( ( #317, #357, #431 ) ) REPRESENTATION_CONTEXT ( 'NONE', 'WORKASPACE' ) );
#200 = LINE ( 'NONE', #475, #416 ) ;
#201 = EDGE_LOOP ( 'NONE', ( #148, #360, #95, #372 ) ) ;
#202 = AXIS2_PLACEMENT_3D ( 'NONE', #324, #160, #278 ) ;
#203 = STYLED_ITEM ( 'NONE', ( #164 ), #176 ) ;
#204 = DIRECTION ( 'NONE',  ( -1.000000000000000000, -0.000000000000000000, -0.000000000000000000 ) ) ;
#205 = VERTEX_POINT ( 'NONE', #282 ) ;
#206 = EDGE_CURVE ( 'NONE', #337, #133, #200, .T. ) ;
#207 = PLANE ( 'NONE',  #202 ) ;
#208 = ORIENTED_EDGE ( 'NONE', *, *, #312, .T. ) ;
#209 = CARTESIAN_POINT ( 'NONE',  ( 43.00000000000000711, 0.000000000000000000, 3.000000000000000000 ) ) ;
#210 = EDGE_LOOP ( 'NONE', ( #177, #339, #110, #402 ) ) ;
#211 = CLOSED_SHELL ( 'NONE', ( #96, #46, #380, #41, #79, #261, #407, #303, #383, #370, #128, #314, #67, #140, #276, #91, #323 ) ) ;
#212 = CARTESIAN_POINT ( 'NONE',  ( 43.00000000000000711, 3.673940397442059868E-16, -3.000000000000000000 ) ) ;
#213 = ORIENTED_EDGE ( 'NONE', *, *, #40, .T. ) ;
#214 = CARTESIAN_POINT ( 'NONE',  ( 43.00000000000000711, 0.000000000000000000, 0.000000000000000000 ) ) ;
#215 = VERTEX_POINT ( 'NONE', #209 ) ;
#216 = DIRECTION ( 'NONE',  ( -0.000000000000000000, 0.000000000000000000, 1.000000000000000000 ) ) ;
#217 = DIRECTION ( 'NONE',  ( -1.000000000000000000, -0.000000000000000000, -0.000000000000000000 ) ) ;
#218 = DIRECTION ( 'NONE',  ( -1.000000000000000000, -0.000000000000000000, -0.000000000000000000 ) ) ;
#219 = ORIENTED_EDGE ( 'NONE', *, *, #478, .F. ) ;
#220 = DIRECTION ( 'NONE',  ( -1.000000000000000000, -0.000000000000000000, -0.000000000000000000 ) ) ;
#221 = EDGE_LOOP ( 'NONE', ( #356, #488, #393, #61 ) ) ;
#222 = LINE ( 'NONE', #270, #174 ) ;
#223 = EDGE_LOOP ( 'NONE', ( #187, #173, #74, #242 ) ) ;
#224 = CIRCLE ( 'NONE', #285, 6.500000000000000000 ) ;
#225 = EDGE_CURVE ( 'NONE', #25, #316, #224, .T. ) ;
#226 = EDGE_CURVE ( 'NONE', #493, #104, #280, .T. ) ;
#227 = DIRECTION ( 'NONE',  ( 0.000000000000000000, 1.251928832280966188E-16, 1.000000000000000000 ) ) ;
#228 = PRESENTATION_LAYER_ASSIGNMENT (  '', '', ( #203 ) ) ;
#229 = EDGE_CURVE ( 'NONE', #205, #330, #39, .T. ) ;
#230 = LINE ( 'NONE', #188, #262 ) ;
#231 = DIRECTION ( 'NONE',  ( 0.000000000000000000, 0.000000000000000000, 1.000000000000000000 ) ) ;
#232 = DIRECTION ( 'NONE',  ( -1.000000000000000000, -0.000000000000000000, -0.000000000000000000 ) ) ;
#233 = FACE_BOUND ( 'NONE', #17, .T. ) ;
#234 = DIRECTION ( 'NONE',  ( -1.000000000000000000, -0.000000000000000000, -0.000000000000000000 ) ) ;
#235 = CARTESIAN_POINT ( 'NONE',  ( 2.000000000000000000, -1.499999999999999334, -0.8660254037844375974 ) ) ;
#236 = CYLINDRICAL_SURFACE ( 'NONE', #430, 3.000000000000000000 ) ;
#237 = VECTOR ( 'NONE', #218, 1000.000000000000000 ) ;
#238 = CARTESIAN_POINT ( 'NONE',  ( 0.000000000000000000, 1.995021003971751010E-16, 1.732050807568877415 ) ) ;
#239 = ORIENTED_EDGE ( 'NONE', *, *, #86, .F. ) ;
#240 = EDGE_LOOP ( 'NONE', ( #179, #142 ) ) ;
#241 = DIRECTION ( 'NONE',  ( 0.000000000000000000, 0.000000000000000000, 1.000000000000000000 ) ) ;
#242 = ORIENTED_EDGE ( 'NONE', *, *, #288, .T. ) ;
#243 = SHAPE_DEFINITION_REPRESENTATION ( #353, #22 ) ;
#244 = ORIENTED_EDGE ( 'NONE', *, *, #373, .F. ) ;
#245 = VECTOR ( 'NONE', #412, 1000.000000000000227 ) ;
#246 = DIRECTION ( 'NONE',  ( 0.000000000000000000, 0.000000000000000000, 1.000000000000000000 ) ) ;
#247 = ORIENTED_EDGE ( 'NONE', *, *, #206, .F. ) ;
#248 = DIRECTION ( 'NONE',  ( -0.000000000000000000, 0.000000000000000000, 1.000000000000000000 ) ) ;
#249 = ORIENTED_EDGE ( 'NONE', *, *, #12, .F. ) ;
#250 = EDGE_CURVE ( 'NONE', #133, #408, #18, .T. ) ;
#251 = FACE_OUTER_BOUND ( 'NONE', #240, .T. ) ;
#252 = ORIENTED_EDGE ( 'NONE', *, *, #226, .T. ) ;
#253 = EDGE_CURVE ( 'NONE', #27, #365, #55, .T. ) ;
#254 = DIRECTION ( 'NONE',  ( -1.000000000000000000, 0.000000000000000000, -0.000000000000000000 ) ) ;
#255 = ORIENTED_EDGE ( 'NONE', *, *, #171, .F. ) ;
#256 = VECTOR ( 'NONE', #227, 1000.000000000000000 ) ;
#257 = CARTESIAN_POINT ( 'NONE',  ( 2.000000000000000000, 0.000000000000000000, 0.000000000000000000 ) ) ;
#258 = ORIENTED_EDGE ( 'NONE', *, *, #482, .T. ) ;
#259 = DIRECTION ( 'NONE',  ( -1.000000000000000000, -0.000000000000000000, -0.000000000000000000 ) ) ;
#260 = EDGE_LOOP ( 'NONE', ( #484, #292, #249, #64 ) ) ;
#261 = ADVANCED_FACE ( 'NONE', ( #251, #178 ), #73, .F. ) ;
#262 = VECTOR ( 'NONE', #304, 1000.000000000000114 ) ;
#263 = CARTESIAN_POINT ( 'NONE',  ( 33.00000000000000000, 0.000000000000000000, 4.000000000000000000 ) ) ;
#264 = CARTESIAN_POINT ( 'NONE',  ( 0.000000000000000000, 1.500000000000000222, -0.8660254037844379305 ) ) ;
#265 = AXIS2_PLACEMENT_3D ( 'NONE', #107, #404, #293 ) ;
#266 = LINE ( 'NONE', #191, #364 ) ;
#267 = DIRECTION ( 'NONE',  ( -1.000000000000000000, -0.000000000000000000, -0.000000000000000000 ) ) ;
#268 = CARTESIAN_POINT ( 'NONE',  ( 0.000000000000000000, 0.000000000000000000, 0.000000000000000000 ) ) ;
#269 = CARTESIAN_POINT ( 'NONE',  ( 0.000000000000000000, -1.499999999999999334, -0.8660254037844375974 ) ) ;
#270 = CARTESIAN_POINT ( 'NONE',  ( 2.000000000000000000, 1.995021003971751010E-16, 1.732050807568877415 ) ) ;
#271 = DIRECTION ( 'NONE',  ( 0.000000000000000000, -0.4999999999999997780, 0.8660254037844388186 ) ) ;
#272 = EDGE_CURVE ( 'NONE', #71, #181, #444, .T. ) ;
#273 = AXIS2_PLACEMENT_3D ( 'NONE', #81, #267, #231 ) ;
#274 = ORIENTED_EDGE ( 'NONE', *, *, #147, .F. ) ;
#275 = CARTESIAN_POINT ( 'NONE',  ( 0.000000000000000000, 0.000000000000000000, 0.000000000000000000 ) ) ;
#276 = ADVANCED_FACE ( 'NONE', ( #103 ), #180, .F. ) ;
#277 = VECTOR ( 'NONE', #190, 1000.000000000000227 ) ;
#278 = DIRECTION ( 'NONE',  ( 0.000000000000000000, -1.251928832280966188E-16, -1.000000000000000000 ) ) ;
#279 = ORIENTED_EDGE ( 'NONE', *, *, #281, .F. ) ;
#280 = LINE ( 'NONE', #439, #125 ) ;
#281 = EDGE_CURVE ( 'NONE', #151, #215, #374, .T. ) ;
#282 = CARTESIAN_POINT ( 'NONE',  ( 3.000000000000000000, 0.000000000000000000, 6.500000000000000000 ) ) ;
#283 = AXIS2_PLACEMENT_3D ( 'NONE', #186, #465, #338 ) ;
#284 = ORIENTED_EDGE ( 'NONE', *, *, #312, .F. ) ;
#285 = AXIS2_PLACEMENT_3D ( 'NONE', #92, #389, #57 ) ;
#286 = CARTESIAN_POINT ( 'NONE',  ( 43.00000000000000711, 3.000000000000000000, 0.000000000000000000 ) ) ;
#287 = EDGE_LOOP ( 'NONE', ( #115, #258, #455, #239 ) ) ;
#288 = EDGE_CURVE ( 'NONE', #493, #408, #295, .T. ) ;
#289 = CARTESIAN_POINT ( 'NONE',  ( 33.00000000000000000, 0.000000000000000000, 0.000000000000000000 ) ) ;
#290 = AXIS2_PLACEMENT_3D ( 'NONE', #417, #159, #152 ) ;
#291 = CIRCLE ( 'NONE', #421, 4.000000000000000000 ) ;
#292 = ORIENTED_EDGE ( 'NONE', *, *, #288, .F. ) ;
#293 = DIRECTION ( 'NONE',  ( 0.000000000000000000, 0.8660254037844385966, -0.5000000000000002220 ) ) ;
#294 = ORIENTED_EDGE ( 'NONE', *, *, #12, .T. ) ;
#295 = LINE ( 'NONE', #183, #481 ) ;
#296 = EDGE_LOOP ( 'NONE', ( #438, #279 ) ) ;
#297 = CIRCLE ( 'NONE', #192, 3.000000000000000000 ) ;
#298 = DIRECTION ( 'NONE',  ( 0.000000000000000000, 1.251928832280966928E-16, -1.000000000000000000 ) ) ;
#299 = ORIENTED_EDGE ( 'NONE', *, *, #426, .F. ) ;
#300 = EDGE_CURVE ( 'NONE', #205, #316, #114, .T. ) ;
#301 = CARTESIAN_POINT ( 'NONE',  ( 0.000000000000000000, -1.499999999999999112, 0.8660254037844398178 ) ) ;
#302 = VECTOR ( 'NONE', #8, 1000.000000000000000 ) ;
#303 = ADVANCED_FACE ( 'NONE', ( #452, #331 ), #366, .F. ) ;
#304 = DIRECTION ( 'NONE',  ( 0.000000000000000000, 0.8660254037844387076, 0.4999999999999997780 ) ) ;
#305 = CARTESIAN_POINT ( 'NONE',  ( 3.000000000000000444, 4.898587196589412829E-16, -4.000000000000000000 ) ) ;
#306 = DIRECTION ( 'NONE',  ( 0.000000000000000000, 1.251928832280966188E-16, 1.000000000000000000 ) ) ;
#307 = CARTESIAN_POINT ( 'NONE',  ( 0.000000000000000000, 7.960204194457795477E-16, -6.500000000000000000 ) ) ;
#308 = DIRECTION ( 'NONE',  ( 0.000000000000000000, 0.8660254037844387076, 0.4999999999999997780 ) ) ;
#309 = CARTESIAN_POINT ( 'NONE',  ( 2.000000000000000000, -1.499999999999999112, 0.8660254037844395958 ) ) ;
#310 = AXIS2_PLACEMENT_3D ( 'NONE', #485, #172, #447 ) ;
#311 =( NAMED_UNIT ( * ) SI_UNIT ( $, .STERADIAN. ) SOLID_ANGLE_UNIT ( ) );
#312 = EDGE_CURVE ( 'NONE', #104, #184, #336, .T. ) ;
#313 = DIRECTION ( 'NONE',  ( -0.000000000000000000, 1.000000000000000000, 1.251928832280966928E-16 ) ) ;
#314 = ADVANCED_FACE ( 'NONE', ( #454 ), #26, .F. ) ;
#315 = CARTESIAN_POINT ( 'NONE',  ( 3.000000000000000444, 0.000000000000000000, 4.000000000000000000 ) ) ;
#316 = VERTEX_POINT ( 'NONE', #409 ) ;
#317 =( LENGTH_UNIT ( ) NAMED_UNIT ( * ) SI_UNIT ( .MILLI., .METRE. ) );
#318 = ORIENTED_EDGE ( 'NONE', *, *, #194, .F. ) ;
#319 = DIRECTION ( 'NONE',  ( 1.000000000000000000, 0.000000000000000000, 0.000000000000000000 ) ) ;
#320 = AXIS2_PLACEMENT_3D ( 'NONE', #84, #44, #127 ) ;
#321 = LINE ( 'NONE', #238, #335 ) ;
#322 = ORIENTED_EDGE ( 'NONE', *, *, #30, .T. ) ;
#323 = ADVANCED_FACE ( 'NONE', ( #406 ), #144, .T. ) ;
#324 = CARTESIAN_POINT ( 'NONE',  ( 2.000000000000000000, -1.499999999999999334, -0.8660254037844375974 ) ) ;
#325 = ORIENTED_EDGE ( 'NONE', *, *, #482, .F. ) ;
#326 = LINE ( 'NONE', #479, #237 ) ;
#327 = AXIS2_PLACEMENT_3D ( 'NONE', #428, #234, #156 ) ;
#328 = AXIS2_PLACEMENT_3D ( 'NONE', #257, #363, #70 ) ;
#329 = FACE_OUTER_BOUND ( 'NONE', #201, .T. ) ;
#330 = VERTEX_POINT ( 'NONE', #361 ) ;
#331 = FACE_BOUND ( 'NONE', #89, .T. ) ;
#332 = VERTEX_POINT ( 'NONE', #109 ) ;
#333 = CARTESIAN_POINT ( 'NONE',  ( 2.000000000000000000, 1.995021003971751010E-16, 1.732050807568877415 ) ) ;
#334 = ORIENTED_EDGE ( 'NONE', *, *, #391, .T. ) ;
#335 = VECTOR ( 'NONE', #386, 1000.000000000000227 ) ;
#336 = LINE ( 'NONE', #32, #245 ) ;
#337 = VERTEX_POINT ( 'NONE', #68 ) ;
#338 = DIRECTION ( 'NONE',  ( 0.000000000000000000, 0.000000000000000000, 1.000000000000000000 ) ) ;
#339 = ORIENTED_EDGE ( 'NONE', *, *, #147, .T. ) ;
#340 = CARTESIAN_POINT ( 'NONE',  ( 0.000000000000000000, 4.898587196589412829E-16, -4.000000000000000000 ) ) ;
#341 = FACE_OUTER_BOUND ( 'NONE', #221, .T. ) ;
#342 = CARTESIAN_POINT ( 'NONE',  ( 0.000000000000000000, 1.500000000000000222, -0.8660254037844379305 ) ) ;
#343 = PLANE ( 'NONE',  #290 ) ;
#344 = EDGE_CURVE ( 'NONE', #93, #58, #326, .T. ) ;
#345 = DIRECTION ( 'NONE',  ( 0.000000000000000000, 0.000000000000000000, 1.000000000000000000 ) ) ;
#346 = LINE ( 'NONE', #492, #153 ) ;
#347 = CARTESIAN_POINT ( 'NONE',  ( 2.000000000000000000, -1.499999999999999112, 0.8660254037844395958 ) ) ;
#348 = AXIS2_PLACEMENT_3D ( 'NONE', #459, #119, #121 ) ;
#349 = DIRECTION ( 'NONE',  ( -1.000000000000000000, -0.000000000000000000, -0.000000000000000000 ) ) ;
#350 = AXIS2_PLACEMENT_3D ( 'NONE', #289, #220, #65 ) ;
#351 = DIRECTION ( 'NONE',  ( -1.000000000000000000, -0.000000000000000000, -0.000000000000000000 ) ) ;
#352 = ORIENTED_EDGE ( 'NONE', *, *, #281, .T. ) ;
#353 = PRODUCT_DEFINITION_SHAPE ( 'NONE', 'NONE',  #182 ) ;
#354 = CIRCLE ( 'NONE', #16, 4.000000000000000000 ) ;
#355 = DIRECTION ( 'NONE',  ( 0.000000000000000000, 0.000000000000000000, 1.000000000000000000 ) ) ;
#356 = ORIENTED_EDGE ( 'NONE', *, *, #427, .T. ) ;
#357 =( NAMED_UNIT ( * ) PLANE_ANGLE_UNIT ( ) SI_UNIT ( $, .RADIAN. ) );
#358 = ORIENTED_EDGE ( 'NONE', *, *, #225, .T. ) ;
#359 = CARTESIAN_POINT ( 'NONE',  ( 0.000000000000000000, 1.500000000000000000, 0.8660254037844382635 ) ) ;
#360 = ORIENTED_EDGE ( 'NONE', *, *, #373, .T. ) ;
#361 = CARTESIAN_POINT ( 'NONE',  ( 3.000000000000000000, 7.960204194457795477E-16, -6.500000000000000000 ) ) ;
#362 = ORIENTED_EDGE ( 'NONE', *, *, #272, .T. ) ;
#363 = DIRECTION ( 'NONE',  ( -1.000000000000000000, 0.000000000000000000, 0.000000000000000000 ) ) ;
#364 = VECTOR ( 'NONE', #232, 1000.000000000000000 ) ;
#365 = VERTEX_POINT ( 'NONE', #137 ) ;
#366 = PLANE ( 'NONE',  #13 ) ;
#367 = DIRECTION ( 'NONE',  ( 0.000000000000000000, 0.000000000000000000, 1.000000000000000000 ) ) ;
#368 = FACE_OUTER_BOUND ( 'NONE', #296, .T. ) ;
#369 = EDGE_LOOP ( 'NONE', ( #325, #352, #99, #56 ) ) ;
#370 = ADVANCED_FACE ( 'NONE', ( #368 ), #35, .F. ) ;
#371 = DIRECTION ( 'NONE',  ( -1.000000000000000000, -0.000000000000000000, -0.000000000000000000 ) ) ;
#372 = ORIENTED_EDGE ( 'NONE', *, *, #300, .F. ) ;
#373 = EDGE_CURVE ( 'NONE', #330, #25, #401, .T. ) ;
#374 = CIRCLE ( 'NONE', #466, 3.000000000000000000 ) ;
#375 = DIRECTION ( 'NONE',  ( -1.000000000000000000, -0.000000000000000000, -0.000000000000000000 ) ) ;
#376 = ORIENTED_EDGE ( 'NONE', *, *, #194, .T. ) ;
#377 = CARTESIAN_POINT ( 'NONE',  ( 33.00000000000000000, 0.000000000000000000, 3.000000000000000000 ) ) ;
#378 = FACE_OUTER_BOUND ( 'NONE', #369, .T. ) ;
#379 = CARTESIAN_POINT ( 'NONE',  ( 2.000000000000000000, 4.541175225040599946E-16, -1.732050807568876527 ) ) ;
#380 = ADVANCED_FACE ( 'NONE', ( #329 ), #483, .T. ) ;
#381 = CARTESIAN_POINT ( 'NONE',  ( 2.000000000000000000, 4.541175225040599946E-16, -1.732050807568876527 ) ) ;
#382 = LINE ( 'NONE', #11, #43 ) ;
#383 = ADVANCED_FACE ( 'NONE', ( #378 ), #126, .T. ) ;
#384 = LINE ( 'NONE', #381, #474 ) ;
#385 = AXIS2_PLACEMENT_3D ( 'NONE', #195, #375, #3 ) ;
#386 = DIRECTION ( 'NONE',  ( 0.000000000000000000, 0.8660254037844384856, -0.5000000000000002220 ) ) ;
#387 = EDGE_LOOP ( 'NONE', ( #244, #334, #102, #163 ) ) ;
#388 =( NAMED_UNIT ( * ) PLANE_ANGLE_UNIT ( ) SI_UNIT ( $, .RADIAN. ) );
#389 = DIRECTION ( 'NONE',  ( -1.000000000000000000, -0.000000000000000000, -0.000000000000000000 ) ) ;
#390 = ORIENTED_EDGE ( 'NONE', *, *, #344, .F. ) ;
#391 = EDGE_CURVE ( 'NONE', #330, #205, #477, .T. ) ;
#392 = FILL_AREA_STYLE ('',( #169 ) ) ;
#393 = ORIENTED_EDGE ( 'NONE', *, *, #23, .F. ) ;
#394 = PRODUCT_DEFINITION_FORMATION_WITH_SPECIFIED_SOURCE ( 'å¯', '', #90, .NOT_KNOWN. ) ;
#395 = SURFACE_SIDE_STYLE ('',( #14 ) ) ;
#396 = ORIENTED_EDGE ( 'NONE', *, *, #77, .F. ) ;
#397 = AXIS2_PLACEMENT_3D ( 'NONE', #132, #204, #355 ) ;
#398 = CARTESIAN_POINT ( 'NONE',  ( 0.000000000000000000, 1.500000000000000000, 0.8660254037844382635 ) ) ;
#399 = EDGE_LOOP ( 'NONE', ( #410, #358 ) ) ;
#400 = CIRCLE ( 'NONE', #273, 4.000000000000000000 ) ;
#401 = LINE ( 'NONE', #63, #414 ) ;
#402 = ORIENTED_EDGE ( 'NONE', *, *, #272, .F. ) ;
#403 = APPLICATION_CONTEXT ( 'automotive_design' ) ;
#404 = DIRECTION ( 'NONE',  ( 0.000000000000000000, -0.5000000000000002220, -0.8660254037844385966 ) ) ;
#405 = ORIENTED_EDGE ( 'NONE', *, *, #437, .T. ) ;
#406 = FACE_OUTER_BOUND ( 'NONE', #448, .T. ) ;
#407 = ADVANCED_FACE ( 'NONE', ( #50 ), #422, .T. ) ;
#408 = VERTEX_POINT ( 'NONE', #342 ) ;
#409 = CARTESIAN_POINT ( 'NONE',  ( 0.000000000000000000, 0.000000000000000000, 6.500000000000000000 ) ) ;
#410 = ORIENTED_EDGE ( 'NONE', *, *, #6, .T. ) ;
#411 = APPLICATION_CONTEXT ( 'automotive_design' ) ;
#412 = DIRECTION ( 'NONE',  ( 0.000000000000000000, -0.8660254037844384856, 0.5000000000000001110 ) ) ;
#413 = ORIENTED_EDGE ( 'NONE', *, *, #171, .T. ) ;
#414 = VECTOR ( 'NONE', #29, 1000.000000000000000 ) ;
#415 = EDGE_CURVE ( 'NONE', #170, #165, #222, .T. ) ;
#416 = VECTOR ( 'NONE', #130, 1000.000000000000000 ) ;
#417 = CARTESIAN_POINT ( 'NONE',  ( 2.000000000000000000, 1.500000000000000222, -0.8660254037844379305 ) ) ;
#418 = CARTESIAN_POINT ( 'NONE',  ( 0.000000000000000000, 3.673940397442059868E-16, -3.000000000000000000 ) ) ;
#419 = DIRECTION ( 'NONE',  ( 0.000000000000000000, -0.8660254037844387076, -0.4999999999999997224 ) ) ;
#420 = AXIS2_PLACEMENT_3D ( 'NONE', #347, #271, #419 ) ;
#421 = AXIS2_PLACEMENT_3D ( 'NONE', #94, #100, #241 ) ;
#422 = CYLINDRICAL_SURFACE ( 'NONE', #385, 4.000000000000000000 ) ;
#423 = CARTESIAN_POINT ( 'NONE',  ( 0.000000000000000000, 0.000000000000000000, 0.000000000000000000 ) ) ;
#424 = CARTESIAN_POINT ( 'NONE',  ( 2.000000000000000000, 1.500000000000000222, -0.8660254037844379305 ) ) ;
#425 = CARTESIAN_POINT ( 'NONE',  ( 2.000000000000000000, -1.499999999999999112, 0.8660254037844395958 ) ) ;
#426 = EDGE_CURVE ( 'NONE', #19, #58, #346, .T. ) ;
#427 = EDGE_CURVE ( 'NONE', #58, #165, #230, .T. ) ;
#428 = CARTESIAN_POINT ( 'NONE',  ( 0.000000000000000000, 0.000000000000000000, 0.000000000000000000 ) ) ;
#429 = DIRECTION ( 'NONE',  ( 0.000000000000000000, 1.251928832280966928E-16, -1.000000000000000000 ) ) ;
#430 = AXIS2_PLACEMENT_3D ( 'NONE', #268, #462, #116 ) ;
#431 =( NAMED_UNIT ( * ) SI_UNIT ( $, .STERADIAN. ) SOLID_ANGLE_UNIT ( ) );
#432 = EDGE_LOOP ( 'NONE', ( #112, #405, #255, #219 ) ) ;
#433 = AXIS2_PLACEMENT_3D ( 'NONE', #286, #445, #248 ) ;
#434 = FACE_OUTER_BOUND ( 'NONE', #260, .T. ) ;
#435 = EDGE_LOOP ( 'NONE', ( #108, #247, #318, #453 ) ) ;
#436 = PLANE ( 'NONE',  #62 ) ;
#437 = EDGE_CURVE ( 'NONE', #332, #71, #45, .T. ) ;
#438 = ORIENTED_EDGE ( 'NONE', *, *, #450, .F. ) ;
#439 = CARTESIAN_POINT ( 'NONE',  ( 2.000000000000000000, 1.500000000000000222, -0.8660254037844379305 ) ) ;
#440 = VERTEX_POINT ( 'NONE', #263 ) ;
#441 =( GEOMETRIC_REPRESENTATION_CONTEXT ( 3 ) GLOBAL_UNCERTAINTY_ASSIGNED_CONTEXT ( ( #118 ) ) GLOBAL_UNIT_ASSIGNED_CONTEXT ( ( #20, #388, #311 ) ) REPRESENTATION_CONTEXT ( 'NONE', 'WORKASPACE' ) );
#442 = CARTESIAN_POINT ( 'NONE',  ( 2.000000000000000000, 1.500000000000000000, 0.8660254037844382635 ) ) ;
#443 = ORIENTED_EDGE ( 'NONE', *, *, #113, .F. ) ;
#444 = CIRCLE ( 'NONE', #310, 4.000000000000000000 ) ;
#445 = DIRECTION ( 'NONE',  ( -1.000000000000000000, 0.000000000000000000, -0.000000000000000000 ) ) ;
#446 = ORIENTED_EDGE ( 'NONE', *, *, #250, .F. ) ;
#447 = DIRECTION ( 'NONE',  ( 0.000000000000000000, 0.000000000000000000, 1.000000000000000000 ) ) ;
#448 = EDGE_LOOP ( 'NONE', ( #213, #42, #376, #294, #252, #208 ) ) ;
#449 = DIRECTION ( 'NONE',  ( -0.000000000000000000, 0.5000000000000003331, 0.8660254037844385966 ) ) ;
#450 = EDGE_CURVE ( 'NONE', #215, #151, #458, .T. ) ;
#451 = DIRECTION ( 'NONE',  ( 0.000000000000000000, 0.000000000000000000, 1.000000000000000000 ) ) ;
#452 = FACE_OUTER_BOUND ( 'NONE', #33, .T. ) ;
#453 = ORIENTED_EDGE ( 'NONE', *, *, #415, .T. ) ;
#454 = FACE_OUTER_BOUND ( 'NONE', #21, .T. ) ;
#455 = ORIENTED_EDGE ( 'NONE', *, *, #253, .F. ) ;
#456 = CARTESIAN_POINT ( 'NONE',  ( 3.000000000000000000, 0.000000000000000000, 0.000000000000000000 ) ) ;
#457 = FACE_OUTER_BOUND ( 'NONE', #287, .T. ) ;
#458 = CIRCLE ( 'NONE', #348, 3.000000000000000000 ) ;
#459 = CARTESIAN_POINT ( 'NONE',  ( 43.00000000000000711, 0.000000000000000000, 0.000000000000000000 ) ) ;
#460 = DIRECTION ( 'NONE',  ( -1.000000000000000000, -0.000000000000000000, -0.000000000000000000 ) ) ;
#461 = DIRECTION ( 'NONE',  ( -1.000000000000000000, -0.000000000000000000, -0.000000000000000000 ) ) ;
#462 = DIRECTION ( 'NONE',  ( -1.000000000000000000, -0.000000000000000000, -0.000000000000000000 ) ) ;
#463 = DIRECTION ( 'NONE',  ( 0.000000000000000000, 0.000000000000000000, 1.000000000000000000 ) ) ;
#464 = LINE ( 'NONE', #235, #256 ) ;
#465 = DIRECTION ( 'NONE',  ( -1.000000000000000000, -0.000000000000000000, -0.000000000000000000 ) ) ;
#466 = AXIS2_PLACEMENT_3D ( 'NONE', #214, #259, #37 ) ;
#467 = CYLINDRICAL_SURFACE ( 'NONE', #161, 6.500000000000000000 ) ;
#468 = DIRECTION ( 'NONE',  ( 0.000000000000000000, -1.251928832280966928E-16, 1.000000000000000000 ) ) ;
#469 = APPLICATION_PROTOCOL_DEFINITION ( 'draft international standard', 'automotive_design', 1998, #403 ) ;
#470 = CARTESIAN_POINT ( 'NONE',  ( 0.000000000000000000, 1.995021003971751010E-16, 1.732050807568877415 ) ) ;
#471 = ORIENTED_EDGE ( 'NONE', *, *, #253, .T. ) ;
#472 = FACE_OUTER_BOUND ( 'NONE', #31, .T. ) ;
#473 = ORIENTED_EDGE ( 'NONE', *, *, #426, .T. ) ;
#474 = VECTOR ( 'NONE', #460, 1000.000000000000000 ) ;
#475 = CARTESIAN_POINT ( 'NONE',  ( 2.000000000000000000, 1.500000000000000000, 0.8660254037844382635 ) ) ;
#476 = SURFACE_STYLE_USAGE ( .BOTH. , #395 ) ;
#477 = CIRCLE ( 'NONE', #72, 6.500000000000000000 ) ;
#478 = EDGE_CURVE ( 'NONE', #440, #181, #266, .T. ) ;
#479 = CARTESIAN_POINT ( 'NONE',  ( 2.000000000000000000, -1.499999999999999112, 0.8660254037844395958 ) ) ;
#480 = ORIENTED_EDGE ( 'NONE', *, *, #197, .F. ) ;
#481 = VECTOR ( 'NONE', #371, 1000.000000000000000 ) ;
#482 = EDGE_CURVE ( 'NONE', #151, #365, #82, .T. ) ;
#483 = CYLINDRICAL_SURFACE ( 'NONE', #283, 6.500000000000000000 ) ;
#484 = ORIENTED_EDGE ( 'NONE', *, *, #250, .T. ) ;
#485 = CARTESIAN_POINT ( 'NONE',  ( 3.000000000000000444, 0.000000000000000000, 0.000000000000000000 ) ) ;
#486 = CARTESIAN_POINT ( 'NONE',  ( 33.00000000000000000, 0.000000000000000000, 0.000000000000000000 ) ) ;
#487 = DIRECTION ( 'NONE',  ( 0.000000000000000000, -0.8660254037844384856, 0.5000000000000002220 ) ) ;
#488 = ORIENTED_EDGE ( 'NONE', *, *, #415, .F. ) ;
#489 = DIRECTION ( 'NONE',  ( -0.000000000000000000, 0.000000000000000000, 1.000000000000000000 ) ) ;
#490 = VECTOR ( 'NONE', #429, 1000.000000000000000 ) ;
#491 = ORIENTED_EDGE ( 'NONE', *, *, #34, .T. ) ;
#492 = CARTESIAN_POINT ( 'NONE',  ( 0.000000000000000000, -1.499999999999999334, -0.8660254037844375974 ) ) ;
#493 = VERTEX_POINT ( 'NONE', #424 ) ;
ENDSEC;
END-ISO-10303-21;
