ISO-10303-21;
HEADER;
FILE_DESCRIPTION (( 'STEP AP214' ),
    '1' );
FILE_NAME ('Èû´òÂÝË¿6-m5-24A.STEP',
    '2026-08-16T17:26:53',
    ( '' ),
    ( '' ),
    'SwSTEP 2.0',
    'SolidWorks 2025',
    '' );
FILE_SCHEMA (( 'AUTOMOTIVE_DESIGN' ));
ENDSEC;

DATA;
#1 = CARTESIAN_POINT ( 'NONE',  ( 2.000000000000000000, 1.500000000000000000, 0.8660254037844382635 ) ) ;
#2 = DIRECTION ( 'NONE',  ( -1.000000000000000000, 0.000000000000000000, -0.000000000000000000 ) ) ;
#3 = DIRECTION ( 'NONE',  ( 0.000000000000000000, 0.000000000000000000, 1.000000000000000000 ) ) ;
#4 = VECTOR ( 'NONE', #400, 1000.000000000000000 ) ;
#5 = UNCERTAINTY_MEASURE_WITH_UNIT (LENGTH_MEASURE( 1.000000000000000082E-05 ), #6, 'distance_accuracy_value', 'NONE');
#6 =( LENGTH_UNIT ( ) NAMED_UNIT ( * ) SI_UNIT ( .MILLI., .METRE. ) );
#7 = CARTESIAN_POINT ( 'NONE',  ( 2.000000000000000000, 1.995021003971751010E-16, 1.732050807568877415 ) ) ;
#8 = ADVANCED_FACE ( 'NONE', ( #30 ), #398, .F. ) ;
#9 = VECTOR ( 'NONE', #359, 1000.000000000000000 ) ;
#10 = CARTESIAN_POINT ( 'NONE',  ( 0.000000000000000000, 1.995021003971751010E-16, 1.732050807568877415 ) ) ;
#11 = CARTESIAN_POINT ( 'NONE',  ( 27.00000000000000000, 3.673940397442059868E-16, -3.000000000000000000 ) ) ;
#12 = AXIS2_PLACEMENT_3D ( 'NONE', #163, #351, #97 ) ;
#13 = ORIENTED_EDGE ( 'NONE', *, *, #52, .T. ) ;
#14 = EDGE_CURVE ( 'NONE', #25, #352, #440, .T. ) ;
#15 = FACE_BOUND ( 'NONE', #479, .T. ) ;
#16 = ORIENTED_EDGE ( 'NONE', *, *, #427, .F. ) ;
#17 = PRODUCT_DEFINITION ( 'æ™', '', #329, #120 ) ;
#18 = DIRECTION ( 'NONE',  ( -1.000000000000000000, 0.000000000000000000, -0.000000000000000000 ) ) ;
#19 = VERTEX_POINT ( 'NONE', #218 ) ;
#20 = VECTOR ( 'NONE', #415, 1000.000000000000000 ) ;
#21 = CARTESIAN_POINT ( 'NONE',  ( 0.000000000000000000, 1.500000000000000000, 0.8660254037844382635 ) ) ;
#22 = EDGE_CURVE ( 'NONE', #406, #381, #194, .T. ) ;
#23 = ORIENTED_EDGE ( 'NONE', *, *, #378, .T. ) ;
#24 = DIRECTION ( 'NONE',  ( 0.000000000000000000, -0.4999999999999997780, 0.8660254037844388186 ) ) ;
#25 = VERTEX_POINT ( 'NONE', #155 ) ;
#26 = FACE_OUTER_BOUND ( 'NONE', #299, .T. ) ;
#27 = ORIENTED_EDGE ( 'NONE', *, *, #433, .F. ) ;
#28 = CARTESIAN_POINT ( 'NONE',  ( 2.000000000000000000, -1.499999999999999334, -0.8660254037844375974 ) ) ;
#29 = ADVANCED_BREP_SHAPE_REPRESENTATION ( '\X2\585e625387ba4e1d\X0\6-m5-24A_\X2\5e735934\X0\ 3 13 8 20 10 m6', ( #161, #354 ), #269 ) ;
#30 = FACE_OUTER_BOUND ( 'NONE', #91, .T. ) ;
#31 = EDGE_CURVE ( 'NONE', #143, #246, #300, .T. ) ;
#32 = FACE_OUTER_BOUND ( 'NONE', #314, .T. ) ;
#33 = ORIENTED_EDGE ( 'NONE', *, *, #341, .T. ) ;
#34 = AXIS2_PLACEMENT_3D ( 'NONE', #317, #18, #281 ) ;
#35 = LINE ( 'NONE', #28, #332 ) ;
#36 = ORIENTED_EDGE ( 'NONE', *, *, #244, .F. ) ;
#37 = ORIENTED_EDGE ( 'NONE', *, *, #458, .T. ) ;
#38 = EDGE_CURVE ( 'NONE', #368, #143, #48, .T. ) ;
#39 = STYLED_ITEM ( 'NONE', ( #305 ), #161 ) ;
#40 = DIRECTION ( 'NONE',  ( 0.000000000000000000, -0.8660254037844384856, 0.5000000000000001110 ) ) ;
#41 = DIRECTION ( 'NONE',  ( -1.000000000000000000, -0.000000000000000000, -0.000000000000000000 ) ) ;
#42 = DIRECTION ( 'NONE',  ( 0.000000000000000000, 0.8660254037844384856, -0.5000000000000002220 ) ) ;
#43 = AXIS2_PLACEMENT_3D ( 'NONE', #1, #114, #338 ) ;
#44 = SURFACE_STYLE_USAGE ( .BOTH. , #375 ) ;
#45 = VECTOR ( 'NONE', #42, 1000.000000000000227 ) ;
#46 = DIRECTION ( 'NONE',  ( -1.000000000000000000, -0.000000000000000000, -0.000000000000000000 ) ) ;
#47 = EDGE_CURVE ( 'NONE', #204, #353, #278, .T. ) ;
#48 = LINE ( 'NONE', #452, #254 ) ;
#49 = CIRCLE ( 'NONE', #346, 6.500000000000000000 ) ;
#50 = PLANE ( 'NONE',  #316 ) ;
#51 = ORIENTED_EDGE ( 'NONE', *, *, #355, .F. ) ;
#52 = EDGE_CURVE ( 'NONE', #243, #75, #197, .T. ) ;
#53 = CARTESIAN_POINT ( 'NONE',  ( 0.000000000000000000, 0.000000000000000000, 4.000000000000000000 ) ) ;
#54 = EDGE_LOOP ( 'NONE', ( #56, #356, #221, #422 ) ) ;
#55 = DIRECTION ( 'NONE',  ( 0.000000000000000000, 0.000000000000000000, 1.000000000000000000 ) ) ;
#56 = ORIENTED_EDGE ( 'NONE', *, *, #125, .T. ) ;
#57 = ADVANCED_FACE ( 'NONE', ( #79 ), #50, .F. ) ;
#58 = DIRECTION ( 'NONE',  ( 0.000000000000000000, 0.000000000000000000, 1.000000000000000000 ) ) ;
#59 = ORIENTED_EDGE ( 'NONE', *, *, #427, .T. ) ;
#60 = CIRCLE ( 'NONE', #123, 4.000000000000000000 ) ;
#61 = CARTESIAN_POINT ( 'NONE',  ( 2.000000000000000000, 4.541175225040599946E-16, -1.732050807568876527 ) ) ;
#62 = VERTEX_POINT ( 'NONE', #85 ) ;
#63 = AXIS2_PLACEMENT_3D ( 'NONE', #414, #2, #154 ) ;
#64 = DIRECTION ( 'NONE',  ( 0.000000000000000000, 0.000000000000000000, 1.000000000000000000 ) ) ;
#65 = EDGE_LOOP ( 'NONE', ( #252, #443, #164, #424 ) ) ;
#66 = CARTESIAN_POINT ( 'NONE',  ( 2.000000000000000000, 1.995021003971751010E-16, 1.732050807568877415 ) ) ;
#67 = CARTESIAN_POINT ( 'NONE',  ( 36.99999999999999289, 3.000000000000000000, 0.000000000000000000 ) ) ;
#68 = CARTESIAN_POINT ( 'NONE',  ( 27.00000000000000000, 0.000000000000000000, 3.000000000000000000 ) ) ;
#69 = ORIENTED_EDGE ( 'NONE', *, *, #198, .T. ) ;
#70 = PLANE ( 'NONE',  #476 ) ;
#71 = ORIENTED_EDGE ( 'NONE', *, *, #255, .F. ) ;
#72 = AXIS2_PLACEMENT_3D ( 'NONE', #160, #311, #273 ) ;
#73 = DIRECTION ( 'NONE',  ( 0.000000000000000000, 0.000000000000000000, 1.000000000000000000 ) ) ;
#74 = EDGE_CURVE ( 'NONE', #96, #250, #121, .T. ) ;
#75 = VERTEX_POINT ( 'NONE', #342 ) ;
#76 = CARTESIAN_POINT ( 'NONE',  ( 36.99999999999999289, 0.000000000000000000, 3.000000000000000000 ) ) ;
#77 = LINE ( 'NONE', #302, #272 ) ;
#78 = CIRCLE ( 'NONE', #350, 3.000000000000000000 ) ;
#79 = FACE_OUTER_BOUND ( 'NONE', #335, .T. ) ;
#80 = CARTESIAN_POINT ( 'NONE',  ( 0.000000000000000000, 0.000000000000000000, 0.000000000000000000 ) ) ;
#81 = SURFACE_STYLE_FILL_AREA ( #153 ) ;
#82 = EDGE_CURVE ( 'NONE', #75, #146, #77, .T. ) ;
#83 = CARTESIAN_POINT ( 'NONE',  ( 0.000000000000000000, 0.000000000000000000, 6.500000000000000000 ) ) ;
#84 = VECTOR ( 'NONE', #226, 1000.000000000000000 ) ;
#85 = CARTESIAN_POINT ( 'NONE',  ( 2.000000000000000000, -1.499999999999999112, 0.8660254037844395958 ) ) ;
#86 = CARTESIAN_POINT ( 'NONE',  ( 0.000000000000000000, 4.541175225040599946E-16, -1.732050807568876527 ) ) ;
#87 = CARTESIAN_POINT ( 'NONE',  ( 2.000000000000000000, -1.499999999999999112, 0.8660254037844395958 ) ) ;
#88 = VERTEX_POINT ( 'NONE', #191 ) ;
#89 = DIRECTION ( 'NONE',  ( -1.000000000000000000, -0.000000000000000000, -0.000000000000000000 ) ) ;
#90 = APPLICATION_CONTEXT ( 'automotive_design' ) ;
#91 = EDGE_LOOP ( 'NONE', ( #100, #276 ) ) ;
#92 = DIRECTION ( 'NONE',  ( -1.000000000000000000, -0.000000000000000000, -0.000000000000000000 ) ) ;
#93 = APPLICATION_PROTOCOL_DEFINITION ( 'draft international standard', 'automotive_design', 1998, #90 ) ;
#94 = AXIS2_PLACEMENT_3D ( 'NONE', #425, #129, #431 ) ;
#95 = CARTESIAN_POINT ( 'NONE',  ( 2.000000000000000000, 1.500000000000000222, -0.8660254037844379305 ) ) ;
#96 = VERTEX_POINT ( 'NONE', #460 ) ;
#97 = DIRECTION ( 'NONE',  ( 0.000000000000000000, 0.000000000000000000, 1.000000000000000000 ) ) ;
#98 = EDGE_LOOP ( 'NONE', ( #248, #135 ) ) ;
#99 = CARTESIAN_POINT ( 'NONE',  ( 2.000000000000000000, 1.995021003971751010E-16, 1.732050807568877415 ) ) ;
#100 = ORIENTED_EDGE ( 'NONE', *, *, #205, .F. ) ;
#101 = AXIS2_PLACEMENT_3D ( 'NONE', #384, #208, #203 ) ;
#102 = DIRECTION ( 'NONE',  ( -1.000000000000000000, -0.000000000000000000, -0.000000000000000000 ) ) ;
#103 = ORIENTED_EDGE ( 'NONE', *, *, #211, .T. ) ;
#104 = DIRECTION ( 'NONE',  ( 0.000000000000000000, 1.251928832280966188E-16, 1.000000000000000000 ) ) ;
#105 = CARTESIAN_POINT ( 'NONE',  ( 0.000000000000000000, 4.898587196589412829E-16, -4.000000000000000000 ) ) ;
#106 = VECTOR ( 'NONE', #267, 1000.000000000000227 ) ;
#107 = DIRECTION ( 'NONE',  ( 0.000000000000000000, 0.8660254037844384856, -0.5000000000000002220 ) ) ;
#108 = EDGE_LOOP ( 'NONE', ( #33, #71, #493, #37 ) ) ;
#109 = CARTESIAN_POINT ( 'NONE',  ( 0.000000000000000000, 1.500000000000000222, -0.8660254037844379305 ) ) ;
#110 = EDGE_LOOP ( 'NONE', ( #36, #175 ) ) ;
#111 = AXIS2_PLACEMENT_3D ( 'NONE', #87, #24, #256 ) ;
#112 = CARTESIAN_POINT ( 'NONE',  ( 2.000000000000000000, 4.541175225040599946E-16, -1.732050807568876527 ) ) ;
#113 = UNCERTAINTY_MEASURE_WITH_UNIT (LENGTH_MEASURE( 1.000000000000000082E-05 ), #382, 'distance_accuracy_value', 'NONE');
#114 = DIRECTION ( 'NONE',  ( -0.000000000000000000, 1.000000000000000000, 1.251928832280966928E-16 ) ) ;
#115 = CARTESIAN_POINT ( 'NONE',  ( 0.000000000000000000, 1.500000000000000000, 0.8660254037844382635 ) ) ;
#116 = CARTESIAN_POINT ( 'NONE',  ( 2.000000000000000000, 1.500000000000000000, 0.8660254037844382635 ) ) ;
#117 = FACE_OUTER_BOUND ( 'NONE', #130, .T. ) ;
#118 = ADVANCED_FACE ( 'NONE', ( #234, #409 ), #337, .F. ) ;
#119 = VECTOR ( 'NONE', #428, 1000.000000000000000 ) ;
#120 = PRODUCT_DEFINITION_CONTEXT ( 'detailed design', #90, 'design' ) ;
#121 = LINE ( 'NONE', #86, #106 ) ;
#122 = CARTESIAN_POINT ( 'NONE',  ( 2.000000000000000000, -1.499999999999999112, 0.8660254037844395958 ) ) ;
#123 = AXIS2_PLACEMENT_3D ( 'NONE', #397, #357, #64 ) ;
#124 = DIRECTION ( 'NONE',  ( -0.000000000000000000, 0.5000000000000003331, 0.8660254037844385966 ) ) ;
#125 = EDGE_CURVE ( 'NONE', #246, #285, #195, .T. ) ;
#126 = AXIS2_PLACEMENT_3D ( 'NONE', #7, #124, #157 ) ;
#127 = CARTESIAN_POINT ( 'NONE',  ( 36.99999999999999289, 0.000000000000000000, 0.000000000000000000 ) ) ;
#128 = PRODUCT_DEFINITION_SHAPE ( 'NONE', 'NONE',  #17 ) ;
#129 = DIRECTION ( 'NONE',  ( -1.000000000000000000, -0.000000000000000000, -0.000000000000000000 ) ) ;
#130 = EDGE_LOOP ( 'NONE', ( #237, #319, #166, #349, #13, #360 ) ) ;
#131 = DIRECTION ( 'NONE',  ( 0.000000000000000000, 0.000000000000000000, 1.000000000000000000 ) ) ;
#132 = ORIENTED_EDGE ( 'NONE', *, *, #417, .F. ) ;
#133 = APPLICATION_PROTOCOL_DEFINITION ( 'draft international standard', 'automotive_design', 1998, #451 ) ;
#134 = CYLINDRICAL_SURFACE ( 'NONE', #101, 3.000000000000000000 ) ;
#135 = ORIENTED_EDGE ( 'NONE', *, *, #22, .T. ) ;
#136 = ADVANCED_FACE ( 'NONE', ( #374 ), #192, .F. ) ;
#137 = VECTOR ( 'NONE', #210, 1000.000000000000000 ) ;
#138 = ORIENTED_EDGE ( 'NONE', *, *, #262, .F. ) ;
#139 = LINE ( 'NONE', #453, #20 ) ;
#140 = ORIENTED_EDGE ( 'NONE', *, *, #467, .T. ) ;
#141 = ADVANCED_FACE ( 'NONE', ( #230 ), #454, .F. ) ;
#142 = LINE ( 'NONE', #109, #283 ) ;
#143 = VERTEX_POINT ( 'NONE', #308 ) ;
#144 = AXIS2_PLACEMENT_3D ( 'NONE', #266, #416, #271 ) ;
#145 = CARTESIAN_POINT ( 'NONE',  ( 0.000000000000000000, 1.500000000000000222, -0.8660254037844379305 ) ) ;
#146 = VERTEX_POINT ( 'NONE', #376 ) ;
#147 = CARTESIAN_POINT ( 'NONE',  ( 0.000000000000000000, -1.499999999999999112, 0.8660254037844398178 ) ) ;
#148 = ORIENTED_EDGE ( 'NONE', *, *, #14, .T. ) ;
#149 = VECTOR ( 'NONE', #334, 1000.000000000000000 ) ;
#150 = CARTESIAN_POINT ( 'NONE',  ( 0.000000000000000000, 7.960204194457795477E-16, -6.500000000000000000 ) ) ;
#151 = ORIENTED_EDGE ( 'NONE', *, *, #318, .F. ) ;
#152 = ADVANCED_FACE ( 'NONE', ( #117 ), #235, .T. ) ;
#153 = FILL_AREA_STYLE ('',( #419 ) ) ;
#154 = DIRECTION ( 'NONE',  ( -0.000000000000000000, 0.000000000000000000, 1.000000000000000000 ) ) ;
#155 = CARTESIAN_POINT ( 'NONE',  ( 27.00000000000000000, 4.898587196589412829E-16, -4.000000000000000000 ) ) ;
#156 = CARTESIAN_POINT ( 'NONE',  ( 0.000000000000000000, 0.000000000000000000, 0.000000000000000000 ) ) ;
#157 = DIRECTION ( 'NONE',  ( 0.000000000000000000, -0.8660254037844384856, 0.5000000000000002220 ) ) ;
#158 = AXIS2_PLACEMENT_3D ( 'NONE', #313, #464, #55 ) ;
#159 = DIRECTION ( 'NONE',  ( -1.000000000000000000, -0.000000000000000000, -0.000000000000000000 ) ) ;
#160 = CARTESIAN_POINT ( 'NONE',  ( 27.00000000000000000, 0.000000000000000000, 0.000000000000000000 ) ) ;
#161 = MANIFOLD_SOLID_BREP ( '\X2\52079664\X0\-\X2\62c94f38\X0\1', #490 ) ;
#162 = CIRCLE ( 'NONE', #225, 3.000000000000000000 ) ;
#163 = CARTESIAN_POINT ( 'NONE',  ( 3.000000000000000444, 0.000000000000000000, 0.000000000000000000 ) ) ;
#164 = ORIENTED_EDGE ( 'NONE', *, *, #355, .T. ) ;
#165 = FACE_OUTER_BOUND ( 'NONE', #385, .T. ) ;
#166 = ORIENTED_EDGE ( 'NONE', *, *, #333, .T. ) ;
#167 = CYLINDRICAL_SURFACE ( 'NONE', #158, 3.000000000000000000 ) ;
#168 = EDGE_CURVE ( 'NONE', #429, #352, #411, .T. ) ;
#169 = VECTOR ( 'NONE', #46, 1000.000000000000000 ) ;
#170 = ORIENTED_EDGE ( 'NONE', *, *, #179, .T. ) ;
#171 = VECTOR ( 'NONE', #407, 1000.000000000000227 ) ;
#172 = CARTESIAN_POINT ( 'NONE',  ( 0.000000000000000000, -1.499999999999999334, -0.8660254037844375974 ) ) ;
#173 = ORIENTED_EDGE ( 'NONE', *, *, #14, .F. ) ;
#174 = FACE_OUTER_BOUND ( 'NONE', #482, .T. ) ;
#175 = ORIENTED_EDGE ( 'NONE', *, *, #467, .F. ) ;
#176 = ADVANCED_FACE ( 'NONE', ( #348 ), #134, .T. ) ;
#177 = DIRECTION ( 'NONE',  ( -1.000000000000000000, -0.000000000000000000, -0.000000000000000000 ) ) ;
#178 = ORIENTED_EDGE ( 'NONE', *, *, #47, .T. ) ;
#179 = EDGE_CURVE ( 'NONE', #353, #204, #162, .T. ) ;
#180 = DIRECTION ( 'NONE',  ( -1.000000000000000000, -0.000000000000000000, -0.000000000000000000 ) ) ;
#181 = EDGE_LOOP ( 'NONE', ( #432, #69 ) ) ;
#182 = CARTESIAN_POINT ( 'NONE',  ( 2.000000000000000000, 1.500000000000000000, 0.8660254037844382635 ) ) ;
#183 = ORIENTED_EDGE ( 'NONE', *, *, #255, .T. ) ;
#184 = DIRECTION ( 'NONE',  ( -1.000000000000000000, -0.000000000000000000, -0.000000000000000000 ) ) ;
#185 = PRODUCT_RELATED_PRODUCT_CATEGORY ( 'part', '', ( #268 ) ) ;
#186 = ORIENTED_EDGE ( 'NONE', *, *, #344, .F. ) ;
#187 = AXIS2_PLACEMENT_3D ( 'NONE', #321, #180, #325 ) ;
#188 = DIRECTION ( 'NONE',  ( 0.000000000000000000, 0.000000000000000000, 1.000000000000000000 ) ) ;
#189 = ORIENTED_EDGE ( 'NONE', *, *, #239, .T. ) ;
#190 = DIRECTION ( 'NONE',  ( -1.000000000000000000, -0.000000000000000000, -0.000000000000000000 ) ) ;
#191 = CARTESIAN_POINT ( 'NONE',  ( 3.000000000000000000, 0.000000000000000000, 6.500000000000000000 ) ) ;
#192 = PLANE ( 'NONE',  #289 ) ;
#193 = CIRCLE ( 'NONE', #488, 6.500000000000000000 ) ;
#194 = CIRCLE ( 'NONE', #470, 6.500000000000000000 ) ;
#195 = LINE ( 'NONE', #115, #202 ) ;
#196 = FACE_OUTER_BOUND ( 'NONE', #98, .T. ) ;
#197 = LINE ( 'NONE', #263, #171 ) ;
#198 = EDGE_CURVE ( 'NONE', #352, #429, #290, .T. ) ;
#199 = VECTOR ( 'NONE', #439, 1000.000000000000000 ) ;
#200 = DIRECTION ( 'NONE',  ( 0.000000000000000000, 0.5000000000000001110, -0.8660254037844387076 ) ) ;
#201 = ORIENTED_EDGE ( 'NONE', *, *, #444, .F. ) ;
#202 = VECTOR ( 'NONE', #265, 1000.000000000000000 ) ;
#203 = DIRECTION ( 'NONE',  ( 0.000000000000000000, 0.000000000000000000, 1.000000000000000000 ) ) ;
#204 = VERTEX_POINT ( 'NONE', #11 ) ;
#205 = EDGE_CURVE ( 'NONE', #446, #403, #78, .T. ) ;
#206 = LINE ( 'NONE', #472, #119 ) ;
#207 = ORIENTED_EDGE ( 'NONE', *, *, #341, .F. ) ;
#208 = DIRECTION ( 'NONE',  ( -1.000000000000000000, -0.000000000000000000, -0.000000000000000000 ) ) ;
#209 = ORIENTED_EDGE ( 'NONE', *, *, #444, .T. ) ;
#210 = DIRECTION ( 'NONE',  ( -1.000000000000000000, -0.000000000000000000, -0.000000000000000000 ) ) ;
#211 = EDGE_CURVE ( 'NONE', #358, #429, #423, .T. ) ;
#212 = ORIENTED_EDGE ( 'NONE', *, *, #401, .F. ) ;
#213 = CARTESIAN_POINT ( 'NONE',  ( 0.000000000000000000, 0.000000000000000000, 6.500000000000000000 ) ) ;
#214 = ORIENTED_EDGE ( 'NONE', *, *, #168, .F. ) ;
#215 = DIRECTION ( 'NONE',  ( 0.000000000000000000, 1.251928832280966928E-16, -1.000000000000000000 ) ) ;
#216 = DIRECTION ( 'NONE',  ( -1.000000000000000000, 0.000000000000000000, -0.000000000000000000 ) ) ;
#217 = CARTESIAN_POINT ( 'NONE',  ( 0.000000000000000000, 0.000000000000000000, 0.000000000000000000 ) ) ;
#218 = CARTESIAN_POINT ( 'NONE',  ( 2.000000000000000000, 1.995021003971751010E-16, 1.732050807568877415 ) ) ;
#219 = ADVANCED_FACE ( 'NONE', ( #391, #15 ), #245, .F. ) ;
#220 = LINE ( 'NONE', #298, #441 ) ;
#221 = ORIENTED_EDGE ( 'NONE', *, *, #395, .F. ) ;
#222 = PLANE ( 'NONE',  #469 ) ;
#223 = ORIENTED_EDGE ( 'NONE', *, *, #205, .T. ) ;
#224 = DIRECTION ( 'NONE',  ( -1.000000000000000000, -0.000000000000000000, -0.000000000000000000 ) ) ;
#225 = AXIS2_PLACEMENT_3D ( 'NONE', #240, #92, #242 ) ;
#226 = DIRECTION ( 'NONE',  ( -1.000000000000000000, -0.000000000000000000, -0.000000000000000000 ) ) ;
#227 = DIRECTION ( 'NONE',  ( 0.000000000000000000, 0.000000000000000000, 1.000000000000000000 ) ) ;
#228 = ADVANCED_FACE ( 'NONE', ( #165 ), #167, .T. ) ;
#229 = DIRECTION ( 'NONE',  ( 1.000000000000000000, 0.000000000000000000, 0.000000000000000000 ) ) ;
#230 = FACE_OUTER_BOUND ( 'NONE', #260, .T. ) ;
#231 = VECTOR ( 'NONE', #215, 1000.000000000000000 ) ;
#232 = EDGE_CURVE ( 'NONE', #403, #446, #259, .T. ) ;
#233 = LINE ( 'NONE', #122, #149 ) ;
#234 = FACE_OUTER_BOUND ( 'NONE', #110, .T. ) ;
#235 = PLANE ( 'NONE',  #144 ) ;
#236 = DIRECTION ( 'NONE',  ( -1.000000000000000000, -0.000000000000000000, -0.000000000000000000 ) ) ;
#237 = ORIENTED_EDGE ( 'NONE', *, *, #318, .T. ) ;
#238 = ORIENTED_EDGE ( 'NONE', *, *, #387, .F. ) ;
#239 = EDGE_CURVE ( 'NONE', #250, #368, #206, .T. ) ;
#240 = CARTESIAN_POINT ( 'NONE',  ( 27.00000000000000000, 0.000000000000000000, 0.000000000000000000 ) ) ;
#241 = SHAPE_DEFINITION_REPRESENTATION ( #128, #29 ) ;
#242 = DIRECTION ( 'NONE',  ( 0.000000000000000000, 0.000000000000000000, 1.000000000000000000 ) ) ;
#243 = VERTEX_POINT ( 'NONE', #95 ) ;
#244 = EDGE_CURVE ( 'NONE', #88, #293, #49, .T. ) ;
#245 = PLANE ( 'NONE',  #34 ) ;
#246 = VERTEX_POINT ( 'NONE', #21 ) ;
#247 = CARTESIAN_POINT ( 'NONE',  ( 3.000000000000000000, 7.960204194457795477E-16, -6.500000000000000000 ) ) ;
#248 = ORIENTED_EDGE ( 'NONE', *, *, #433, .T. ) ;
#249 = LINE ( 'NONE', #99, #430 ) ;
#250 = VERTEX_POINT ( 'NONE', #172 ) ;
#251 = CARTESIAN_POINT ( 'NONE',  ( 36.99999999999999289, 3.673940397442059868E-16, -3.000000000000000000 ) ) ;
#252 = ORIENTED_EDGE ( 'NONE', *, *, #486, .F. ) ;
#253 = VECTOR ( 'NONE', #41, 1000.000000000000000 ) ;
#254 = VECTOR ( 'NONE', #377, 1000.000000000000114 ) ;
#255 = EDGE_CURVE ( 'NONE', #75, #96, #474, .T. ) ;
#256 = DIRECTION ( 'NONE',  ( 0.000000000000000000, -0.8660254037844387076, -0.4999999999999997224 ) ) ;
#257 = ORIENTED_EDGE ( 'NONE', *, *, #38, .T. ) ;
#258 = DIRECTION ( 'NONE',  ( 0.000000000000000000, -0.8660254037844385966, -0.5000000000000000000 ) ) ;
#259 = CIRCLE ( 'NONE', #94, 3.000000000000000000 ) ;
#260 = EDGE_LOOP ( 'NONE', ( #475, #320, #392, #389 ) ) ;
#261 = CARTESIAN_POINT ( 'NONE',  ( 0.000000000000000000, 0.000000000000000000, 0.000000000000000000 ) ) ;
#262 = EDGE_CURVE ( 'NONE', #358, #25, #306, .T. ) ;
#263 = CARTESIAN_POINT ( 'NONE',  ( 2.000000000000000000, 1.500000000000000222, -0.8660254037844379305 ) ) ;
#264 = LINE ( 'NONE', #408, #84 ) ;
#265 = DIRECTION ( 'NONE',  ( 0.000000000000000000, 1.251928832280966928E-16, -1.000000000000000000 ) ) ;
#266 = CARTESIAN_POINT ( 'NONE',  ( 2.000000000000000000, 0.000000000000000000, 0.000000000000000000 ) ) ;
#267 = DIRECTION ( 'NONE',  ( 0.000000000000000000, -0.8660254037844384856, 0.5000000000000001110 ) ) ;
#268 = PRODUCT ( '\X2\585e625387ba4e1d\X0\6-m5-24A_\X2\5e735934\X0\ 3 13 8 20 10 m6', '\X2\585e625387ba4e1d\X0\6-m5-24A_\X2\5e735934\X0\ 3 13 8 20 10 m6', '', ( #463 ) ) ;
#269 =( GEOMETRIC_REPRESENTATION_CONTEXT ( 3 ) GLOBAL_UNCERTAINTY_ASSIGNED_CONTEXT ( ( #5 ) ) GLOBAL_UNIT_ASSIGNED_CONTEXT ( ( #6, #310, #277 ) ) REPRESENTATION_CONTEXT ( 'NONE', 'WORKASPACE' ) );
#270 = LINE ( 'NONE', #116, #390 ) ;
#271 = DIRECTION ( 'NONE',  ( 0.000000000000000000, 0.000000000000000000, 1.000000000000000000 ) ) ;
#272 = VECTOR ( 'NONE', #40, 1000.000000000000227 ) ;
#273 = DIRECTION ( 'NONE',  ( 0.000000000000000000, 0.000000000000000000, 1.000000000000000000 ) ) ;
#274 =( NAMED_UNIT ( * ) SI_UNIT ( $, .STERADIAN. ) SOLID_ANGLE_UNIT ( ) );
#275 = ADVANCED_FACE ( 'NONE', ( #462 ), #421, .F. ) ;
#276 = ORIENTED_EDGE ( 'NONE', *, *, #232, .F. ) ;
#277 =( NAMED_UNIT ( * ) SI_UNIT ( $, .STERADIAN. ) SOLID_ANGLE_UNIT ( ) );
#278 = CIRCLE ( 'NONE', #340, 3.000000000000000000 ) ;
#279 = DIRECTION ( 'NONE',  ( 0.000000000000000000, 0.000000000000000000, 1.000000000000000000 ) ) ;
#280 = ORIENTED_EDGE ( 'NONE', *, *, #239, .F. ) ;
#281 = DIRECTION ( 'NONE',  ( -0.000000000000000000, 0.000000000000000000, 1.000000000000000000 ) ) ;
#282 = ORIENTED_EDGE ( 'NONE', *, *, #82, .F. ) ;
#283 = VECTOR ( 'NONE', #258, 1000.000000000000227 ) ;
#284 = DIRECTION ( 'NONE',  ( -1.000000000000000000, -0.000000000000000000, -0.000000000000000000 ) ) ;
#285 = VERTEX_POINT ( 'NONE', #145 ) ;
#286 = DIRECTION ( 'NONE',  ( 0.000000000000000000, 0.000000000000000000, 1.000000000000000000 ) ) ;
#287 = ORIENTED_EDGE ( 'NONE', *, *, #74, .T. ) ;
#288 = FACE_OUTER_BOUND ( 'NONE', #426, .T. ) ;
#289 = AXIS2_PLACEMENT_3D ( 'NONE', #339, #200, #347 ) ;
#290 = CIRCLE ( 'NONE', #12, 4.000000000000000000 ) ;
#291 = EDGE_LOOP ( 'NONE', ( #257, #186, #238, #209 ) ) ;
#292 = CARTESIAN_POINT ( 'NONE',  ( 2.000000000000000000, -1.499999999999999334, -0.8660254037844375974 ) ) ;
#293 = VERTEX_POINT ( 'NONE', #247 ) ;
#294 = CYLINDRICAL_SURFACE ( 'NONE', #386, 6.500000000000000000 ) ;
#295 = ORIENTED_EDGE ( 'NONE', *, *, #125, .F. ) ;
#296 = CIRCLE ( 'NONE', #461, 6.500000000000000000 ) ;
#297 = AXIS2_PLACEMENT_3D ( 'NONE', #67, #216, #484 ) ;
#298 = CARTESIAN_POINT ( 'NONE',  ( 2.000000000000000000, -1.499999999999999112, 0.8660254037844395958 ) ) ;
#299 = EDGE_LOOP ( 'NONE', ( #173, #23, #103, #363 ) ) ;
#300 = LINE ( 'NONE', #10, #45 ) ;
#301 = CARTESIAN_POINT ( 'NONE',  ( 3.000000000000000000, 0.000000000000000000, 0.000000000000000000 ) ) ;
#302 = CARTESIAN_POINT ( 'NONE',  ( 2.000000000000000000, 4.541175225040599946E-16, -1.732050807568876527 ) ) ;
#303 = DIRECTION ( 'NONE',  ( 0.000000000000000000, 0.000000000000000000, 1.000000000000000000 ) ) ;
#304 = DIRECTION ( 'NONE',  ( 0.000000000000000000, -0.5000000000000002220, -0.8660254037844385966 ) ) ;
#305 = PRESENTATION_STYLE_ASSIGNMENT (( #44 ) ) ;
#306 = CIRCLE ( 'NONE', #72, 4.000000000000000000 ) ;
#307 = ADVANCED_FACE ( 'NONE', ( #402 ), #294, .T. ) ;
#308 = CARTESIAN_POINT ( 'NONE',  ( 0.000000000000000000, 1.995021003971751010E-16, 1.732050807568877415 ) ) ;
#309 = ADVANCED_FACE ( 'NONE', ( #26 ), #445, .T. ) ;
#310 =( NAMED_UNIT ( * ) PLANE_ANGLE_UNIT ( ) SI_UNIT ( $, .RADIAN. ) );
#311 = DIRECTION ( 'NONE',  ( -1.000000000000000000, -0.000000000000000000, -0.000000000000000000 ) ) ;
#312 = ADVANCED_FACE ( 'NONE', ( #32 ), #323, .T. ) ;
#313 = CARTESIAN_POINT ( 'NONE',  ( 0.000000000000000000, 0.000000000000000000, 0.000000000000000000 ) ) ;
#314 = EDGE_LOOP ( 'NONE', ( #365, #370, #27, #16 ) ) ;
#315 = DIRECTION ( 'NONE',  ( 0.000000000000000000, 0.000000000000000000, 1.000000000000000000 ) ) ;
#316 = AXIS2_PLACEMENT_3D ( 'NONE', #112, #304, #345 ) ;
#317 = CARTESIAN_POINT ( 'NONE',  ( 27.00000000000000000, 4.000000000000000000, 0.000000000000000000 ) ) ;
#318 = EDGE_CURVE ( 'NONE', #146, #62, #489, .T. ) ;
#319 = ORIENTED_EDGE ( 'NONE', *, *, #387, .T. ) ;
#320 = ORIENTED_EDGE ( 'NONE', *, *, #450, .F. ) ;
#321 = CARTESIAN_POINT ( 'NONE',  ( 0.000000000000000000, 0.000000000000000000, 0.000000000000000000 ) ) ;
#322 = ORIENTED_EDGE ( 'NONE', *, *, #486, .T. ) ;
#323 = CYLINDRICAL_SURFACE ( 'NONE', #366, 6.500000000000000000 ) ;
#324 = ORIENTED_EDGE ( 'NONE', *, *, #401, .T. ) ;
#325 = DIRECTION ( 'NONE',  ( 0.000000000000000000, 0.000000000000000000, 1.000000000000000000 ) ) ;
#326 = EDGE_LOOP ( 'NONE', ( #138, #396 ) ) ;
#327 = LINE ( 'NONE', #66, #9 ) ;
#328 = EDGE_LOOP ( 'NONE', ( #132, #140, #59, #487 ) ) ;
#329 = PRODUCT_DEFINITION_FORMATION_WITH_SPECIFIED_SOURCE ( 'å¯', '', #268, .NOT_KNOWN. ) ;
#330 = LINE ( 'NONE', #485, #199 ) ;
#331 = ORIENTED_EDGE ( 'NONE', *, *, #74, .F. ) ;
#332 = VECTOR ( 'NONE', #184, 1000.000000000000000 ) ;
#333 = EDGE_CURVE ( 'NONE', #19, #491, #249, .T. ) ;
#334 = DIRECTION ( 'NONE',  ( -1.000000000000000000, -0.000000000000000000, -0.000000000000000000 ) ) ;
#335 = EDGE_LOOP ( 'NONE', ( #287, #212, #282, #183 ) ) ;
#336 = PLANE ( 'NONE',  #43 ) ;
#337 = PLANE ( 'NONE',  #63 ) ;
#338 = DIRECTION ( 'NONE',  ( 0.000000000000000000, -1.251928832280966928E-16, 1.000000000000000000 ) ) ;
#339 = CARTESIAN_POINT ( 'NONE',  ( 2.000000000000000000, 1.500000000000000222, -0.8660254037844379305 ) ) ;
#340 = AXIS2_PLACEMENT_3D ( 'NONE', #371, #159, #227 ) ;
#341 = EDGE_CURVE ( 'NONE', #285, #96, #142, .T. ) ;
#342 = CARTESIAN_POINT ( 'NONE',  ( 2.000000000000000000, 4.541175225040599946E-16, -1.732050807568876527 ) ) ;
#343 = DIRECTION ( 'NONE',  ( -1.000000000000000000, -0.000000000000000000, -0.000000000000000000 ) ) ;
#344 = EDGE_CURVE ( 'NONE', #19, #143, #327, .T. ) ;
#345 = DIRECTION ( 'NONE',  ( 0.000000000000000000, 0.8660254037844385966, -0.5000000000000002220 ) ) ;
#346 = AXIS2_PLACEMENT_3D ( 'NONE', #388, #89, #58 ) ;
#347 = DIRECTION ( 'NONE',  ( 0.000000000000000000, 0.8660254037844385966, 0.5000000000000000000 ) ) ;
#348 = FACE_OUTER_BOUND ( 'NONE', #65, .T. ) ;
#349 = ORIENTED_EDGE ( 'NONE', *, *, #395, .T. ) ;
#350 = AXIS2_PLACEMENT_3D ( 'NONE', #127, #380, #279 ) ;
#351 = DIRECTION ( 'NONE',  ( -1.000000000000000000, -0.000000000000000000, -0.000000000000000000 ) ) ;
#352 = VERTEX_POINT ( 'NONE', #478 ) ;
#353 = VERTEX_POINT ( 'NONE', #68 ) ;
#354 = AXIS2_PLACEMENT_3D ( 'NONE', #156, #315, #471 ) ;
#355 = EDGE_CURVE ( 'NONE', #446, #353, #330, .T. ) ;
#356 = ORIENTED_EDGE ( 'NONE', *, *, #458, .F. ) ;
#357 = DIRECTION ( 'NONE',  ( -1.000000000000000000, -0.000000000000000000, -0.000000000000000000 ) ) ;
#358 = VERTEX_POINT ( 'NONE', #362 ) ;
#359 = DIRECTION ( 'NONE',  ( -1.000000000000000000, -0.000000000000000000, -0.000000000000000000 ) ) ;
#360 = ORIENTED_EDGE ( 'NONE', *, *, #82, .T. ) ;
#361 = ADVANCED_FACE ( 'NONE', ( #288 ), #70, .F. ) ;
#362 = CARTESIAN_POINT ( 'NONE',  ( 27.00000000000000000, 0.000000000000000000, 4.000000000000000000 ) ) ;
#363 = ORIENTED_EDGE ( 'NONE', *, *, #198, .F. ) ;
#364 = DIRECTION ( 'NONE',  ( 0.000000000000000000, -1.251928832280966188E-16, -1.000000000000000000 ) ) ;
#365 = ORIENTED_EDGE ( 'NONE', *, *, #244, .T. ) ;
#366 = AXIS2_PLACEMENT_3D ( 'NONE', #217, #102, #286 ) ;
#367 = LINE ( 'NONE', #182, #231 ) ;
#368 = VERTEX_POINT ( 'NONE', #147 ) ;
#369 = DIRECTION ( 'NONE',  ( 0.000000000000000000, 0.000000000000000000, -1.000000000000000000 ) ) ;
#370 = ORIENTED_EDGE ( 'NONE', *, *, #417, .T. ) ;
#371 = CARTESIAN_POINT ( 'NONE',  ( 27.00000000000000000, 0.000000000000000000, 0.000000000000000000 ) ) ;
#372 = AXIS2_PLACEMENT_3D ( 'NONE', #448, #236, #131 ) ;
#373 = CARTESIAN_POINT ( 'NONE',  ( 2.000000000000000000, 1.500000000000000000, 0.8660254037844382635 ) ) ;
#374 = FACE_OUTER_BOUND ( 'NONE', #108, .T. ) ;
#375 = SURFACE_SIDE_STYLE ('',( #81 ) ) ;
#376 = CARTESIAN_POINT ( 'NONE',  ( 2.000000000000000000, -1.499999999999999334, -0.8660254037844375974 ) ) ;
#377 = DIRECTION ( 'NONE',  ( 0.000000000000000000, 0.8660254037844387076, 0.4999999999999997780 ) ) ;
#378 = EDGE_CURVE ( 'NONE', #25, #358, #60, .T. ) ;
#379 = AXIS2_PLACEMENT_3D ( 'NONE', #394, #177, #73 ) ;
#380 = DIRECTION ( 'NONE',  ( -1.000000000000000000, -0.000000000000000000, -0.000000000000000000 ) ) ;
#381 = VERTEX_POINT ( 'NONE', #213 ) ;
#382 =( LENGTH_UNIT ( ) NAMED_UNIT ( * ) SI_UNIT ( .MILLI., .METRE. ) );
#383 = EDGE_LOOP ( 'NONE', ( #473, #280, #331, #207, #295, #465 ) ) ;
#384 = CARTESIAN_POINT ( 'NONE',  ( 0.000000000000000000, 0.000000000000000000, 0.000000000000000000 ) ) ;
#385 = EDGE_LOOP ( 'NONE', ( #223, #322, #435, #51 ) ) ;
#386 = AXIS2_PLACEMENT_3D ( 'NONE', #483, #442, #481 ) ;
#387 = EDGE_CURVE ( 'NONE', #62, #19, #220, .T. ) ;
#388 = CARTESIAN_POINT ( 'NONE',  ( 3.000000000000000000, 0.000000000000000000, 0.000000000000000000 ) ) ;
#389 = ORIENTED_EDGE ( 'NONE', *, *, #344, .T. ) ;
#390 = VECTOR ( 'NONE', #343, 1000.000000000000000 ) ;
#391 = FACE_OUTER_BOUND ( 'NONE', #326, .T. ) ;
#392 = ORIENTED_EDGE ( 'NONE', *, *, #333, .F. ) ;
#393 = MECHANICAL_DESIGN_GEOMETRIC_PRESENTATION_REPRESENTATION (  '', ( #39 ), #436 ) ;
#394 = CARTESIAN_POINT ( 'NONE',  ( 0.000000000000000000, 0.000000000000000000, 0.000000000000000000 ) ) ;
#395 = EDGE_CURVE ( 'NONE', #491, #243, #367, .T. ) ;
#396 = ORIENTED_EDGE ( 'NONE', *, *, #378, .F. ) ;
#397 = CARTESIAN_POINT ( 'NONE',  ( 27.00000000000000000, 0.000000000000000000, 0.000000000000000000 ) ) ;
#398 = PLANE ( 'NONE',  #297 ) ;
#399 = CYLINDRICAL_SURFACE ( 'NONE', #187, 4.000000000000000000 ) ;
#400 = DIRECTION ( 'NONE',  ( -1.000000000000000000, -0.000000000000000000, -0.000000000000000000 ) ) ;
#401 = EDGE_CURVE ( 'NONE', #146, #250, #35, .T. ) ;
#402 = FACE_OUTER_BOUND ( 'NONE', #328, .T. ) ;
#403 = VERTEX_POINT ( 'NONE', #251 ) ;
#404 = VECTOR ( 'NONE', #284, 1000.000000000000000 ) ;
#405 = CARTESIAN_POINT ( 'NONE',  ( 2.000000000000000000, -1.499999999999999334, -0.8660254037844375974 ) ) ;
#406 = VERTEX_POINT ( 'NONE', #150 ) ;
#407 = DIRECTION ( 'NONE',  ( 0.000000000000000000, -0.8660254037844385966, -0.5000000000000000000 ) ) ;
#408 = CARTESIAN_POINT ( 'NONE',  ( 0.000000000000000000, 3.673940397442059868E-16, -3.000000000000000000 ) ) ;
#409 = FACE_BOUND ( 'NONE', #181, .T. ) ;
#410 = COLOUR_RGB ( '',0.7921568627450980005, 0.8196078431372548767, 0.9333333333333333481 ) ;
#411 = CIRCLE ( 'NONE', #372, 4.000000000000000000 ) ;
#412 = ADVANCED_FACE ( 'NONE', ( #174 ), #399, .T. ) ;
#413 = FACE_BOUND ( 'NONE', #383, .T. ) ;
#414 = CARTESIAN_POINT ( 'NONE',  ( 3.000000000000000000, 6.500000000000000000, 0.000000000000000000 ) ) ;
#415 = DIRECTION ( 'NONE',  ( -1.000000000000000000, -0.000000000000000000, -0.000000000000000000 ) ) ;
#416 = DIRECTION ( 'NONE',  ( -1.000000000000000000, 0.000000000000000000, 0.000000000000000000 ) ) ;
#417 = EDGE_CURVE ( 'NONE', #293, #406, #139, .T. ) ;
#418 = CARTESIAN_POINT ( 'NONE',  ( 2.000000000000000000, 1.500000000000000222, -0.8660254037844379305 ) ) ;
#419 = FILL_AREA_STYLE_COLOUR ( '', #410 ) ;
#420 = PRESENTATION_LAYER_ASSIGNMENT (  '', '', ( #39 ) ) ;
#421 = PLANE ( 'NONE',  #111 ) ;
#422 = ORIENTED_EDGE ( 'NONE', *, *, #450, .T. ) ;
#423 = LINE ( 'NONE', #53, #404 ) ;
#424 = ORIENTED_EDGE ( 'NONE', *, *, #47, .F. ) ;
#425 = CARTESIAN_POINT ( 'NONE',  ( 36.99999999999999289, 0.000000000000000000, 0.000000000000000000 ) ) ;
#426 = EDGE_LOOP ( 'NONE', ( #189, #201, #151, #324 ) ) ;
#427 = EDGE_CURVE ( 'NONE', #88, #381, #459, .T. ) ;
#428 = DIRECTION ( 'NONE',  ( 0.000000000000000000, 1.251928832280966188E-16, 1.000000000000000000 ) ) ;
#429 = VERTEX_POINT ( 'NONE', #455 ) ;
#430 = VECTOR ( 'NONE', #107, 1000.000000000000227 ) ;
#431 = DIRECTION ( 'NONE',  ( 0.000000000000000000, 0.000000000000000000, 1.000000000000000000 ) ) ;
#432 = ORIENTED_EDGE ( 'NONE', *, *, #168, .T. ) ;
#433 = EDGE_CURVE ( 'NONE', #381, #406, #296, .T. ) ;
#434 = DIRECTION ( 'NONE',  ( 0.000000000000000000, 0.8660254037844387076, 0.4999999999999997780 ) ) ;
#435 = ORIENTED_EDGE ( 'NONE', *, *, #179, .F. ) ;
#436 =( GEOMETRIC_REPRESENTATION_CONTEXT ( 3 ) GLOBAL_UNCERTAINTY_ASSIGNED_CONTEXT ( ( #113 ) ) GLOBAL_UNIT_ASSIGNED_CONTEXT ( ( #382, #466, #274 ) ) REPRESENTATION_CONTEXT ( 'NONE', 'WORKASPACE' ) );
#437 = DIRECTION ( 'NONE',  ( 0.000000000000000000, -1.000000000000000000, 1.251928832280966188E-16 ) ) ;
#438 = ORIENTED_EDGE ( 'NONE', *, *, #262, .T. ) ;
#439 = DIRECTION ( 'NONE',  ( -1.000000000000000000, -0.000000000000000000, -0.000000000000000000 ) ) ;
#440 = LINE ( 'NONE', #105, #4 ) ;
#441 = VECTOR ( 'NONE', #434, 1000.000000000000114 ) ;
#442 = DIRECTION ( 'NONE',  ( -1.000000000000000000, -0.000000000000000000, -0.000000000000000000 ) ) ;
#443 = ORIENTED_EDGE ( 'NONE', *, *, #232, .T. ) ;
#444 = EDGE_CURVE ( 'NONE', #62, #368, #233, .T. ) ;
#445 = CYLINDRICAL_SURFACE ( 'NONE', #379, 4.000000000000000000 ) ;
#446 = VERTEX_POINT ( 'NONE', #76 ) ;
#447 = FACE_OUTER_BOUND ( 'NONE', #54, .T. ) ;
#448 = CARTESIAN_POINT ( 'NONE',  ( 3.000000000000000444, 0.000000000000000000, 0.000000000000000000 ) ) ;
#449 = DIRECTION ( 'NONE',  ( -1.000000000000000000, -0.000000000000000000, -0.000000000000000000 ) ) ;
#450 = EDGE_CURVE ( 'NONE', #491, #246, #270, .T. ) ;
#451 = APPLICATION_CONTEXT ( 'automotive_design' ) ;
#452 = CARTESIAN_POINT ( 'NONE',  ( 0.000000000000000000, -1.499999999999999112, 0.8660254037844395958 ) ) ;
#453 = CARTESIAN_POINT ( 'NONE',  ( 0.000000000000000000, 7.960204194457795477E-16, -6.500000000000000000 ) ) ;
#454 = PLANE ( 'NONE',  #126 ) ;
#455 = CARTESIAN_POINT ( 'NONE',  ( 3.000000000000000444, 0.000000000000000000, 4.000000000000000000 ) ) ;
#456 = VECTOR ( 'NONE', #104, 1000.000000000000000 ) ;
#457 = CARTESIAN_POINT ( 'NONE',  ( 0.000000000000000000, 0.000000000000000000, 0.000000000000000000 ) ) ;
#458 = EDGE_CURVE ( 'NONE', #243, #285, #492, .T. ) ;
#459 = LINE ( 'NONE', #83, #253 ) ;
#460 = CARTESIAN_POINT ( 'NONE',  ( 0.000000000000000000, 4.541175225040599946E-16, -1.732050807568876527 ) ) ;
#461 = AXIS2_PLACEMENT_3D ( 'NONE', #261, #190, #188 ) ;
#462 = FACE_OUTER_BOUND ( 'NONE', #291, .T. ) ;
#463 = PRODUCT_CONTEXT ( 'NONE', #451, 'mechanical' ) ;
#464 = DIRECTION ( 'NONE',  ( -1.000000000000000000, -0.000000000000000000, -0.000000000000000000 ) ) ;
#465 = ORIENTED_EDGE ( 'NONE', *, *, #31, .F. ) ;
#466 =( NAMED_UNIT ( * ) PLANE_ANGLE_UNIT ( ) SI_UNIT ( $, .RADIAN. ) );
#467 = EDGE_CURVE ( 'NONE', #293, #88, #193, .T. ) ;
#468 = ORIENTED_EDGE ( 'NONE', *, *, #211, .F. ) ;
#469 = AXIS2_PLACEMENT_3D ( 'NONE', #80, #229, #369 ) ;
#470 = AXIS2_PLACEMENT_3D ( 'NONE', #457, #224, #3 ) ;
#471 = DIRECTION ( 'NONE',  ( 1.000000000000000000, 0.000000000000000000, 0.000000000000000000 ) ) ;
#472 = CARTESIAN_POINT ( 'NONE',  ( 0.000000000000000000, -1.499999999999999334, -0.8660254037844375974 ) ) ;
#473 = ORIENTED_EDGE ( 'NONE', *, *, #38, .F. ) ;
#474 = LINE ( 'NONE', #61, #137 ) ;
#475 = ORIENTED_EDGE ( 'NONE', *, *, #31, .T. ) ;
#476 = AXIS2_PLACEMENT_3D ( 'NONE', #405, #437, #364 ) ;
#477 = ADVANCED_FACE ( 'NONE', ( #413, #196 ), #222, .F. ) ;
#478 = CARTESIAN_POINT ( 'NONE',  ( 3.000000000000000444, 4.898587196589412829E-16, -4.000000000000000000 ) ) ;
#479 = EDGE_LOOP ( 'NONE', ( #170, #178 ) ) ;
#480 = ADVANCED_FACE ( 'NONE', ( #447 ), #336, .F. ) ;
#481 = DIRECTION ( 'NONE',  ( 0.000000000000000000, 0.000000000000000000, 1.000000000000000000 ) ) ;
#482 = EDGE_LOOP ( 'NONE', ( #438, #148, #214, #468 ) ) ;
#483 = CARTESIAN_POINT ( 'NONE',  ( 0.000000000000000000, 0.000000000000000000, 0.000000000000000000 ) ) ;
#484 = DIRECTION ( 'NONE',  ( -0.000000000000000000, 0.000000000000000000, 1.000000000000000000 ) ) ;
#485 = CARTESIAN_POINT ( 'NONE',  ( 0.000000000000000000, 0.000000000000000000, 3.000000000000000000 ) ) ;
#486 = EDGE_CURVE ( 'NONE', #403, #204, #264, .T. ) ;
#487 = ORIENTED_EDGE ( 'NONE', *, *, #22, .F. ) ;
#488 = AXIS2_PLACEMENT_3D ( 'NONE', #301, #449, #303 ) ;
#489 = LINE ( 'NONE', #292, #456 ) ;
#490 = CLOSED_SHELL ( 'NONE', ( #228, #412, #312, #477, #307, #118, #309, #219, #176, #8, #361, #57, #136, #480, #141, #275, #152 ) ) ;
#491 = VERTEX_POINT ( 'NONE', #373 ) ;
#492 = LINE ( 'NONE', #418, #169 ) ;
#493 = ORIENTED_EDGE ( 'NONE', *, *, #52, .F. ) ;
ENDSEC;
END-ISO-10303-21;
