ISO-10303-21;
HEADER;
FILE_DESCRIPTION (( 'STEP AP214' ),
    '1' );
FILE_NAME ('´ó¹Ø½ÚÖá-1A.STEP',
    '2026-08-16T17:26:53',
    ( '' ),
    ( '' ),
    'SwSTEP 2.0',
    'SolidWorks 2025',
    '' );
FILE_SCHEMA (( 'AUTOMOTIVE_DESIGN' ));
ENDSEC;

DATA;
#1 = CARTESIAN_POINT ( 'NONE',  ( -2.265596578422505972E-15, -18.50000000000000355, 24.00000000000000000 ) ) ;
#2 = DIRECTION ( 'NONE',  ( 0.000000000000000000, 0.000000000000000000, 1.000000000000000000 ) ) ;
#3 = AXIS2_PLACEMENT_3D ( 'NONE', #1283, #759, #1181 ) ;
#4 = ORIENTED_EDGE ( 'NONE', *, *, #255, .T. ) ;
#5 = FACE_BOUND ( 'NONE', #356, .T. ) ;
#6 = FACE_OUTER_BOUND ( 'NONE', #120, .T. ) ;
#7 = DIRECTION ( 'NONE',  ( 1.000000000000000000, 0.000000000000000000, 0.000000000000000000 ) ) ;
#8 = DIRECTION ( 'NONE',  ( 0.000000000000000000, 0.000000000000000000, 1.000000000000000000 ) ) ;
#9 = DIRECTION ( 'NONE',  ( -0.000000000000000000, -0.000000000000000000, -1.000000000000000000 ) ) ;
#10 = ADVANCED_FACE ( 'NONE', ( #6, #210 ), #22, .T. ) ;
#11 = ORIENTED_EDGE ( 'NONE', *, *, #1126, .F. ) ;
#12 = CARTESIAN_POINT ( 'NONE',  ( 11.34999999999979714, 16.02146997001223383, 13.54999999999999893 ) ) ;
#13 = ORIENTED_EDGE ( 'NONE', *, *, #174, .T. ) ;
#14 = EDGE_CURVE ( 'NONE', #766, #952, #773, .T. ) ;
#15 = CARTESIAN_POINT ( 'NONE',  ( 0.000000000000000000, 0.000000000000000000, 0.000000000000000000 ) ) ;
#16 = DIRECTION ( 'NONE',  ( -0.000000000000000000, -0.000000000000000000, -1.000000000000000000 ) ) ;
#17 = ADVANCED_FACE ( 'NONE', ( #1134 ), #218, .T. ) ;
#18 = ORIENTED_EDGE ( 'NONE', *, *, #745, .F. ) ;
#19 = FACE_BOUND ( 'NONE', #1067, .T. ) ;
#20 = VECTOR ( 'NONE', #1156, 1000.000000000000000 ) ;
#21 = EDGE_CURVE ( 'NONE', #580, #486, #523, .T. ) ;
#22 = PLANE ( 'NONE',  #343 ) ;
#23 = LINE ( 'NONE', #117, #403 ) ;
#24 = PRODUCT_DEFINITION ( 'æ™', '', #880, #1263 ) ;
#25 = SURFACE_STYLE_USAGE ( .BOTH. , #517 ) ;
#26 = CIRCLE ( 'NONE', #756, 2.100000000000000977 ) ;
#27 = FACE_BOUND ( 'NONE', #742, .T. ) ;
#28 = DIRECTION ( 'NONE',  ( -0.000000000000000000, -0.000000000000000000, -1.000000000000000000 ) ) ;
#29 = AXIS2_PLACEMENT_3D ( 'NONE', #1190, #765, #71 ) ;
#30 = DIRECTION ( 'NONE',  ( -0.000000000000000000, -0.000000000000000000, -1.000000000000000000 ) ) ;
#31 = CARTESIAN_POINT ( 'NONE',  ( -13.92146997001211517, 9.250000000000003553, 0.000000000000000000 ) ) ;
#32 = ORIENTED_EDGE ( 'NONE', *, *, #75, .T. ) ;
#33 = EDGE_CURVE ( 'NONE', #166, #1291, #934, .T. ) ;
#34 = FACE_BOUND ( 'NONE', #887, .T. ) ;
#35 = ORIENTED_EDGE ( 'NONE', *, *, #376, .T. ) ;
#36 = ORIENTED_EDGE ( 'NONE', *, *, #75, .F. ) ;
#37 = DIRECTION ( 'NONE',  ( -1.000000000000000000, 0.000000000000000000, 0.000000000000000000 ) ) ;
#38 = FACE_OUTER_BOUND ( 'NONE', #973, .T. ) ;
#39 = FACE_OUTER_BOUND ( 'NONE', #1158, .T. ) ;
#40 = DIRECTION ( 'NONE',  ( 1.000000000000000000, 0.000000000000000000, 0.000000000000000000 ) ) ;
#41 = AXIS2_PLACEMENT_3D ( 'NONE', #1280, #50, #466 ) ;
#42 = ADVANCED_FACE ( 'NONE', ( #1252 ), #927, .F. ) ;
#43 = DIRECTION ( 'NONE',  ( 0.000000000000000000, 0.000000000000000000, 1.000000000000000000 ) ) ;
#44 = EDGE_CURVE ( 'NONE', #1132, #435, #548, .T. ) ;
#45 = FACE_OUTER_BOUND ( 'NONE', #899, .T. ) ;
#46 = ORIENTED_EDGE ( 'NONE', *, *, #21, .T. ) ;
#47 = VERTEX_POINT ( 'NONE', #425 ) ;
#48 = FACE_OUTER_BOUND ( 'NONE', #977, .T. ) ;
#49 = EDGE_CURVE ( 'NONE', #1054, #173, #116, .T. ) ;
#50 = DIRECTION ( 'NONE',  ( -0.000000000000000000, -0.000000000000000000, -1.000000000000000000 ) ) ;
#51 = ORIENTED_EDGE ( 'NONE', *, *, #1170, .T. ) ;
#52 = ADVANCED_FACE ( 'NONE', ( #45 ), #1062, .F. ) ;
#53 = VERTEX_POINT ( 'NONE', #862 ) ;
#54 = CARTESIAN_POINT ( 'NONE',  ( 16.40000000000000213, -3.398394867633783610E-15, 0.000000000000000000 ) ) ;
#55 = CARTESIAN_POINT ( 'NONE',  ( -9.250000000000017764, 16.02146997001210238, 0.000000000000000000 ) ) ;
#56 = EDGE_LOOP ( 'NONE', ( #1073, #891 ) ) ;
#57 = FACE_BOUND ( 'NONE', #1264, .T. ) ;
#58 = CIRCLE ( 'NONE', #1155, 21.98999999999999844 ) ;
#59 = DIRECTION ( 'NONE',  ( 0.000000000000000000, 0.000000000000000000, 1.000000000000000000 ) ) ;
#60 = ORIENTED_EDGE ( 'NONE', *, *, #1110, .F. ) ;
#61 = FACE_OUTER_BOUND ( 'NONE', #244, .T. ) ;
#62 = ORIENTED_EDGE ( 'NONE', *, *, #981, .T. ) ;
#63 = CIRCLE ( 'NONE', #169, 2.100000000000000977 ) ;
#64 = VERTEX_POINT ( 'NONE', #651 ) ;
#65 = CARTESIAN_POINT ( 'NONE',  ( 9.249999999999795719, 16.02146997001223383, 0.000000000000000000 ) ) ;
#66 = VERTEX_POINT ( 'NONE', #1051 ) ;
#67 = CYLINDRICAL_SURFACE ( 'NONE', #896, 2.100000000000000977 ) ;
#68 = EDGE_CURVE ( 'NONE', #285, #283, #748, .T. ) ;
#69 = VERTEX_POINT ( 'NONE', #448 ) ;
#70 = ADVANCED_FACE ( 'NONE', ( #61 ), #868, .T. ) ;
#71 = DIRECTION ( 'NONE',  ( 1.000000000000000000, 0.000000000000000000, 0.000000000000000000 ) ) ;
#72 = ORIENTED_EDGE ( 'NONE', *, *, #1186, .F. ) ;
#73 = DIRECTION ( 'NONE',  ( -0.000000000000000000, -0.000000000000000000, -1.000000000000000000 ) ) ;
#74 = ORIENTED_EDGE ( 'NONE', *, *, #933, .T. ) ;
#75 = EDGE_CURVE ( 'NONE', #105, #624, #1074, .T. ) ;
#76 = AXIS2_PLACEMENT_3D ( 'NONE', #502, #381, #804 ) ;
#77 = DIRECTION ( 'NONE',  ( 0.000000000000000000, 0.000000000000000000, -1.000000000000000000 ) ) ;
#78 = DIRECTION ( 'NONE',  ( -1.000000000000000000, 0.000000000000000000, 0.000000000000000000 ) ) ;
#79 = ADVANCED_FACE ( 'NONE', ( #767 ), #366, .F. ) ;
#80 = EDGE_LOOP ( 'NONE', ( #94, #622, #1284, #467 ) ) ;
#81 = FACE_OUTER_BOUND ( 'NONE', #162, .T. ) ;
#82 = VERTEX_POINT ( 'NONE', #855 ) ;
#83 = CARTESIAN_POINT ( 'NONE',  ( 0.000000000000000000, 0.000000000000000000, 1.249999999999999778 ) ) ;
#84 = ORIENTED_EDGE ( 'NONE', *, *, #1035, .F. ) ;
#85 = CARTESIAN_POINT ( 'NONE',  ( 0.000000000000000000, 0.000000000000000000, 13.54999999999999893 ) ) ;
#86 = VERTEX_POINT ( 'NONE', #639 ) ;
#87 = CARTESIAN_POINT ( 'NONE',  ( 13.92146997001211162, -9.250000000000008882, 0.000000000000000000 ) ) ;
#88 = ORIENTED_EDGE ( 'NONE', *, *, #1043, .F. ) ;
#89 = ADVANCED_FACE ( 'NONE', ( #355 ), #360, .T. ) ;
#90 = DIRECTION ( 'NONE',  ( 1.000000000000000000, 0.000000000000000000, 0.000000000000000000 ) ) ;
#91 = DIRECTION ( 'NONE',  ( -0.000000000000000000, -0.000000000000000000, -1.000000000000000000 ) ) ;
#92 = FACE_BOUND ( 'NONE', #1001, .T. ) ;
#93 = DIRECTION ( 'NONE',  ( -0.000000000000000000, -0.000000000000000000, -1.000000000000000000 ) ) ;
#94 = ORIENTED_EDGE ( 'NONE', *, *, #599, .F. ) ;
#95 = EDGE_CURVE ( 'NONE', #486, #993, #521, .T. ) ;
#96 = CARTESIAN_POINT ( 'NONE',  ( -18.50000000000000355, 1.132798289211179030E-15, 0.000000000000000000 ) ) ;
#97 = CARTESIAN_POINT ( 'NONE',  ( 2.100000000000000533, 18.50000000000000355, 0.000000000000000000 ) ) ;
#98 = CIRCLE ( 'NONE', #734, 2.100000000000000533 ) ;
#99 = DIRECTION ( 'NONE',  ( 0.000000000000000000, 0.000000000000000000, 1.000000000000000000 ) ) ;
#100 = ORIENTED_EDGE ( 'NONE', *, *, #1170, .F. ) ;
#101 = DIRECTION ( 'NONE',  ( -0.000000000000000000, -0.000000000000000000, -1.000000000000000000 ) ) ;
#102 = EDGE_CURVE ( 'NONE', #380, #1099, #774, .T. ) ;
#103 = CARTESIAN_POINT ( 'NONE',  ( -11.35000000000000853, -16.02146997001211659, 24.00000000000000000 ) ) ;
#104 = FACE_OUTER_BOUND ( 'NONE', #877, .T. ) ;
#105 = VERTEX_POINT ( 'NONE', #645 ) ;
#106 = DIRECTION ( 'NONE',  ( -1.000000000000000000, 0.000000000000000000, 0.000000000000000000 ) ) ;
#107 = EDGE_CURVE ( 'NONE', #938, #580, #208, .T. ) ;
#108 = ORIENTED_EDGE ( 'NONE', *, *, #44, .F. ) ;
#109 = DIRECTION ( 'NONE',  ( -0.000000000000000000, -0.000000000000000000, -1.000000000000000000 ) ) ;
#110 =( LENGTH_UNIT ( ) NAMED_UNIT ( * ) SI_UNIT ( .MILLI., .METRE. ) );
#111 = FACE_BOUND ( 'NONE', #640, .T. ) ;
#112 = DIRECTION ( 'NONE',  ( -0.000000000000000000, -0.000000000000000000, -1.000000000000000000 ) ) ;
#113 = LINE ( 'NONE', #1133, #764 ) ;
#114 = AXIS2_PLACEMENT_3D ( 'NONE', #96, #908, #1231 ) ;
#115 = EDGE_LOOP ( 'NONE', ( #594, #656 ) ) ;
#116 = CIRCLE ( 'NONE', #397, 2.100000000000000977 ) ;
#117 = CARTESIAN_POINT ( 'NONE',  ( 18.12146997001211446, -9.250000000000008882, 24.00000000000000000 ) ) ;
#118 = DIRECTION ( 'NONE',  ( -0.000000000000000000, -0.000000000000000000, -1.000000000000000000 ) ) ;
#119 = CARTESIAN_POINT ( 'NONE',  ( 9.249999999999996447, -16.02146997001212014, 13.54999999999999893 ) ) ;
#120 = EDGE_LOOP ( 'NONE', ( #771, #646 ) ) ;
#121 = FACE_BOUND ( 'NONE', #445, .T. ) ;
#122 = EDGE_CURVE ( 'NONE', #191, #1182, #274, .T. ) ;
#123 = AXIS2_PLACEMENT_3D ( 'NONE', #414, #812, #314 ) ;
#124 = ORIENTED_EDGE ( 'NONE', *, *, #1210, .F. ) ;
#125 = EDGE_CURVE ( 'NONE', #1319, #864, #1124, .T. ) ;
#126 = DIRECTION ( 'NONE',  ( 0.000000000000000000, 0.000000000000000000, -1.000000000000000000 ) ) ;
#127 = LINE ( 'NONE', #1147, #20 ) ;
#128 = ORIENTED_EDGE ( 'NONE', *, *, #1007, .T. ) ;
#129 = AXIS2_PLACEMENT_3D ( 'NONE', #852, #1050, #136 ) ;
#130 = DIRECTION ( 'NONE',  ( 0.000000000000000000, 0.000000000000000000, -1.000000000000000000 ) ) ;
#131 = CIRCLE ( 'NONE', #1286, 2.100000000000000977 ) ;
#132 = ORIENTED_EDGE ( 'NONE', *, *, #621, .F. ) ;
#133 = AXIS2_PLACEMENT_3D ( 'NONE', #1304, #289, #1205 ) ;
#134 = CARTESIAN_POINT ( 'NONE',  ( -16.02146997001211659, 9.250000000000003553, 13.54999999999999893 ) ) ;
#135 = DIRECTION ( 'NONE',  ( 1.000000000000000000, 0.000000000000000000, 0.000000000000000000 ) ) ;
#136 = DIRECTION ( 'NONE',  ( 1.000000000000000000, 0.000000000000000000, 0.000000000000000000 ) ) ;
#137 = AXIS2_PLACEMENT_3D ( 'NONE', #1005, #779, #1200 ) ;
#138 = AXIS2_PLACEMENT_3D ( 'NONE', #15, #308, #90 ) ;
#139 = DIRECTION ( 'NONE',  ( 1.000000000000000000, 0.000000000000000000, 0.000000000000000000 ) ) ;
#140 = EDGE_CURVE ( 'NONE', #1095, #330, #1012, .T. ) ;
#141 = DIRECTION ( 'NONE',  ( -0.000000000000000000, -0.000000000000000000, -1.000000000000000000 ) ) ;
#142 = CARTESIAN_POINT ( 'NONE',  ( 2.099999999999998757, -18.50000000000000355, 13.54999999999999893 ) ) ;
#143 = ORIENTED_EDGE ( 'NONE', *, *, #826, .T. ) ;
#144 = DIRECTION ( 'NONE',  ( -1.000000000000000000, 0.000000000000000000, 0.000000000000000000 ) ) ;
#145 = ORIENTED_EDGE ( 'NONE', *, *, #384, .T. ) ;
#146 = EDGE_CURVE ( 'NONE', #435, #1132, #131, .T. ) ;
#147 = LINE ( 'NONE', #951, #693 ) ;
#148 = ORIENTED_EDGE ( 'NONE', *, *, #790, .T. ) ;
#149 = CARTESIAN_POINT ( 'NONE',  ( 0.000000000000000000, 0.000000000000000000, -61.36132603554181486 ) ) ;
#150 = ORIENTED_EDGE ( 'NONE', *, *, #974, .T. ) ;
#151 = CIRCLE ( 'NONE', #957, 2.100000000000000977 ) ;
#152 = ORIENTED_EDGE ( 'NONE', *, *, #487, .F. ) ;
#153 = CYLINDRICAL_SURFACE ( 'NONE', #369, 14.51999999999999957 ) ;
#154 = EDGE_CURVE ( 'NONE', #775, #736, #872, .T. ) ;
#155 = VERTEX_POINT ( 'NONE', #264 ) ;
#156 = CARTESIAN_POINT ( 'NONE',  ( 0.000000000000000000, 0.000000000000000000, 1.249999999999999778 ) ) ;
#157 = ORIENTED_EDGE ( 'NONE', *, *, #1193, .T. ) ;
#158 = CARTESIAN_POINT ( 'NONE',  ( 0.000000000000000000, 0.000000000000000000, 2.349999999999999645 ) ) ;
#159 = ORIENTED_EDGE ( 'NONE', *, *, #201, .F. ) ;
#160 = DIRECTION ( 'NONE',  ( -0.000000000000000000, -0.000000000000000000, -1.000000000000000000 ) ) ;
#161 = EDGE_CURVE ( 'NONE', #955, #285, #535, .T. ) ;
#162 = EDGE_LOOP ( 'NONE', ( #591, #1195, #4, #72 ) ) ;
#163 = AXIS2_PLACEMENT_3D ( 'NONE', #729, #1152, #710 ) ;
#164 = CIRCLE ( 'NONE', #1172, 2.100000000000000977 ) ;
#165 = CYLINDRICAL_SURFACE ( 'NONE', #496, 2.100000000000000977 ) ;
#166 = VERTEX_POINT ( 'NONE', #850 ) ;
#167 = FACE_OUTER_BOUND ( 'NONE', #1192, .T. ) ;
#168 = ORIENTED_EDGE ( 'NONE', *, *, #44, .T. ) ;
#169 = AXIS2_PLACEMENT_3D ( 'NONE', #192, #271, #1089 ) ;
#170 = DIRECTION ( 'NONE',  ( -1.000000000000000000, 0.000000000000000000, 0.000000000000000000 ) ) ;
#171 = EDGE_LOOP ( 'NONE', ( #471, #1279, #856, #100 ) ) ;
#172 = CARTESIAN_POINT ( 'NONE',  ( -13.92146997001211517, 9.250000000000003553, 24.00000000000000000 ) ) ;
#173 = VERTEX_POINT ( 'NONE', #741 ) ;
#174 = EDGE_CURVE ( 'NONE', #250, #423, #739, .T. ) ;
#175 = ORIENTED_EDGE ( 'NONE', *, *, #376, .F. ) ;
#176 = DIRECTION ( 'NONE',  ( -1.000000000000000000, 0.000000000000000000, 0.000000000000000000 ) ) ;
#177 = ORIENTED_EDGE ( 'NONE', *, *, #901, .T. ) ;
#178 = LINE ( 'NONE', #1194, #593 ) ;
#179 = ORIENTED_EDGE ( 'NONE', *, *, #95, .F. ) ;
#180 = VECTOR ( 'NONE', #30, 1000.000000000000000 ) ;
#181 = DIRECTION ( 'NONE',  ( 1.000000000000000000, 0.000000000000000000, 0.000000000000000000 ) ) ;
#182 = DIRECTION ( 'NONE',  ( -0.000000000000000000, -0.000000000000000000, -1.000000000000000000 ) ) ;
#183 = ORIENTED_EDGE ( 'NONE', *, *, #1211, .F. ) ;
#184 = DIRECTION ( 'NONE',  ( 1.000000000000000000, 0.000000000000000000, 0.000000000000000000 ) ) ;
#185 = ORIENTED_EDGE ( 'NONE', *, *, #1247, .T. ) ;
#186 = VECTOR ( 'NONE', #1258, 1000.000000000000000 ) ;
#187 = AXIS2_PLACEMENT_3D ( 'NONE', #1302, #1079, #676 ) ;
#188 = CARTESIAN_POINT ( 'NONE',  ( -18.12146997001212156, -9.249999999999998224, 0.000000000000000000 ) ) ;
#189 = DIRECTION ( 'NONE',  ( 0.000000000000000000, 0.000000000000000000, -1.000000000000000000 ) ) ;
#190 = VECTOR ( 'NONE', #1162, 1000.000000000000000 ) ;
#191 = VERTEX_POINT ( 'NONE', #692 ) ;
#192 = CARTESIAN_POINT ( 'NONE',  ( -16.02146997001211659, 9.250000000000003553, 0.000000000000000000 ) ) ;
#193 = EDGE_CURVE ( 'NONE', #573, #69, #936, .T. ) ;
#194 = ORIENTED_EDGE ( 'NONE', *, *, #334, .F. ) ;
#195 = AXIS2_PLACEMENT_3D ( 'NONE', #1042, #1028, #1222 ) ;
#196 = CARTESIAN_POINT ( 'NONE',  ( 0.000000000000000000, 0.000000000000000000, 2.349999999999999645 ) ) ;
#197 = CIRCLE ( 'NONE', #309, 2.100000000000000977 ) ;
#198 = DIRECTION ( 'NONE',  ( 1.000000000000000000, 0.000000000000000000, 0.000000000000000000 ) ) ;
#199 = ORIENTED_EDGE ( 'NONE', *, *, #552, .F. ) ;
#200 = CARTESIAN_POINT ( 'NONE',  ( -9.250000000000008882, -16.02146997001211659, 0.000000000000000000 ) ) ;
#201 = EDGE_CURVE ( 'NONE', #582, #243, #757, .T. ) ;
#202 = EDGE_CURVE ( 'NONE', #1182, #191, #975, .T. ) ;
#203 = ORIENTED_EDGE ( 'NONE', *, *, #102, .F. ) ;
#204 = CARTESIAN_POINT ( 'NONE',  ( -18.12146997001211801, 9.250000000000003553, 24.00000000000000000 ) ) ;
#205 = LINE ( 'NONE', #103, #387 ) ;
#206 = DIRECTION ( 'NONE',  ( -1.000000000000000000, 0.000000000000000000, 0.000000000000000000 ) ) ;
#207 = EDGE_CURVE ( 'NONE', #1321, #1069, #1106, .T. ) ;
#208 = CIRCLE ( 'NONE', #950, 2.100000000000000533 ) ;
#209 = PLANE ( 'NONE',  #1114 ) ;
#210 = FACE_BOUND ( 'NONE', #1140, .T. ) ;
#211 = CARTESIAN_POINT ( 'NONE',  ( -7.150000000000017231, 16.02146997001210238, 0.000000000000000000 ) ) ;
#212 = CARTESIAN_POINT ( 'NONE',  ( 0.000000000000000000, 0.000000000000000000, 1.249999999999999778 ) ) ;
#213 = DIRECTION ( 'NONE',  ( -1.000000000000000000, 0.000000000000000000, 0.000000000000000000 ) ) ;
#214 = CYLINDRICAL_SURFACE ( 'NONE', #678, 2.100000000000000977 ) ;
#215 = ORIENTED_EDGE ( 'NONE', *, *, #997, .T. ) ;
#216 = LINE ( 'NONE', #513, #1003 ) ;
#217 =( GEOMETRIC_REPRESENTATION_CONTEXT ( 3 ) GLOBAL_UNCERTAINTY_ASSIGNED_CONTEXT ( ( #1139 ) ) GLOBAL_UNIT_ASSIGNED_CONTEXT ( ( #420, #1240, #1025 ) ) REPRESENTATION_CONTEXT ( 'NONE', 'WORKASPACE' ) );
#218 = CYLINDRICAL_SURFACE ( 'NONE', #1011, 22.48499999999999943 ) ;
#219 = CARTESIAN_POINT ( 'NONE',  ( -20.60000000000000497, 1.132798289211179030E-15, 24.00000000000000000 ) ) ;
#220 = CARTESIAN_POINT ( 'NONE',  ( -18.12146997001212156, -9.249999999999998224, 24.00000000000000000 ) ) ;
#221 = DIRECTION ( 'NONE',  ( -0.000000000000000000, -0.000000000000000000, -1.000000000000000000 ) ) ;
#222 = DIRECTION ( 'NONE',  ( 1.000000000000000000, 0.000000000000000000, 0.000000000000000000 ) ) ;
#223 = ADVANCED_FACE ( 'NONE', ( #284 ), #890, .F. ) ;
#224 = EDGE_LOOP ( 'NONE', ( #1274, #694, #661, #1207 ) ) ;
#225 = DIRECTION ( 'NONE',  ( -1.000000000000000000, 0.000000000000000000, 0.000000000000000000 ) ) ;
#226 = CIRCLE ( 'NONE', #286, 24.49999999999999645 ) ;
#227 = CIRCLE ( 'NONE', #726, 2.100000000000000977 ) ;
#228 = ORIENTED_EDGE ( 'NONE', *, *, #574, .T. ) ;
#229 = DIRECTION ( 'NONE',  ( -1.000000000000000000, 0.000000000000000000, 0.000000000000000000 ) ) ;
#230 = LINE ( 'NONE', #946, #1236 ) ;
#231 = EDGE_CURVE ( 'NONE', #66, #1099, #405, .T. ) ;
#232 = FACE_BOUND ( 'NONE', #417, .T. ) ;
#233 = AXIS2_PLACEMENT_3D ( 'NONE', #134, #109, #1047 ) ;
#234 = DIRECTION ( 'NONE',  ( -0.000000000000000000, -0.000000000000000000, -1.000000000000000000 ) ) ;
#235 = DIRECTION ( 'NONE',  ( -0.000000000000000000, -0.000000000000000000, 1.000000000000000000 ) ) ;
#236 = ADVANCED_FACE ( 'NONE', ( #81 ), #886, .F. ) ;
#237 = ORIENTED_EDGE ( 'NONE', *, *, #263, .T. ) ;
#238 = ADVANCED_FACE ( 'NONE', ( #985 ), #1000, .F. ) ;
#239 = CARTESIAN_POINT ( 'NONE',  ( 13.92146997001211162, -9.250000000000008882, 24.00000000000000000 ) ) ;
#240 = ORIENTED_EDGE ( 'NONE', *, *, #631, .F. ) ;
#241 = CARTESIAN_POINT ( 'NONE',  ( 16.02146997001211304, -9.250000000000008882, 0.000000000000000000 ) ) ;
#242 = AXIS2_PLACEMENT_3D ( 'NONE', #1292, #373, #1188 ) ;
#243 = VERTEX_POINT ( 'NONE', #1097 ) ;
#244 = EDGE_LOOP ( 'NONE', ( #1305, #727, #18, #152 ) ) ;
#245 = AXIS2_PLACEMENT_3D ( 'NONE', #983, #490, #282 ) ;
#246 = ORIENTED_EDGE ( 'NONE', *, *, #453, .F. ) ;
#247 = DIRECTION ( 'NONE',  ( -0.000000000000000000, -0.000000000000000000, -1.000000000000000000 ) ) ;
#248 = VERTEX_POINT ( 'NONE', #87 ) ;
#249 = CARTESIAN_POINT ( 'NONE',  ( 0.000000000000000000, 0.000000000000000000, 2.250000000000000000 ) ) ;
#250 = VERTEX_POINT ( 'NONE', #492 ) ;
#251 = DIRECTION ( 'NONE',  ( 0.000000000000000000, 0.000000000000000000, 1.000000000000000000 ) ) ;
#252 = DIRECTION ( 'NONE',  ( -0.000000000000000000, -0.000000000000000000, 1.000000000000000000 ) ) ;
#253 = AXIS2_PLACEMENT_3D ( 'NONE', #601, #818, #1238 ) ;
#254 = ORIENTED_EDGE ( 'NONE', *, *, #125, .F. ) ;
#255 = EDGE_CURVE ( 'NONE', #1069, #86, #63, .T. ) ;
#256 = ORIENTED_EDGE ( 'NONE', *, *, #231, .T. ) ;
#257 = CARTESIAN_POINT ( 'NONE',  ( 16.02146997001200290, 9.250000000000182965, 24.00000000000000000 ) ) ;
#258 = CIRCLE ( 'NONE', #871, 24.49999999999999645 ) ;
#259 = ORIENTED_EDGE ( 'NONE', *, *, #493, .T. ) ;
#260 = DIRECTION ( 'NONE',  ( 0.000000000000000000, 0.000000000000000000, 1.000000000000000000 ) ) ;
#261 = ORIENTED_EDGE ( 'NONE', *, *, #68, .F. ) ;
#262 = CARTESIAN_POINT ( 'NONE',  ( 0.000000000000000000, 0.000000000000000000, 0.000000000000000000 ) ) ;
#263 = EDGE_CURVE ( 'NONE', #268, #1221, #803, .T. ) ;
#264 = CARTESIAN_POINT ( 'NONE',  ( -16.40000000000000213, 1.389974117032123275E-15, 0.000000000000000000 ) ) ;
#265 = AXIS2_PLACEMENT_3D ( 'NONE', #536, #1244, #1227 ) ;
#266 = ORIENTED_EDGE ( 'NONE', *, *, #1040, .F. ) ;
#267 = PLANE ( 'NONE',  #76 ) ;
#268 = VERTEX_POINT ( 'NONE', #291 ) ;
#269 = CYLINDRICAL_SURFACE ( 'NONE', #589, 2.100000000000000977 ) ;
#270 = VERTEX_POINT ( 'NONE', #796 ) ;
#271 = DIRECTION ( 'NONE',  ( 0.000000000000000000, 0.000000000000000000, -1.000000000000000000 ) ) ;
#272 = ORIENTED_EDGE ( 'NONE', *, *, #469, .T. ) ;
#273 = VECTOR ( 'NONE', #28, 1000.000000000000000 ) ;
#274 = CIRCLE ( 'NONE', #41, 2.100000000000000977 ) ;
#275 = AXIS2_PLACEMENT_3D ( 'NONE', #944, #323, #738 ) ;
#276 = CARTESIAN_POINT ( 'NONE',  ( -16.02146997001212014, -9.249999999999998224, 24.00000000000000000 ) ) ;
#277 = ORIENTED_EDGE ( 'NONE', *, *, #1107, .F. ) ;
#278 = CARTESIAN_POINT ( 'NONE',  ( -9.250000000000017764, 16.02146997001210238, 24.00000000000000000 ) ) ;
#279 = ORIENTED_EDGE ( 'NONE', *, *, #193, .F. ) ;
#280 = ADVANCED_FACE ( 'NONE', ( #167 ), #1215, .F. ) ;
#281 = AXIS2_PLACEMENT_3D ( 'NONE', #83, #1218, #181 ) ;
#282 = DIRECTION ( 'NONE',  ( 1.000000000000000000, 0.000000000000000000, 0.000000000000000000 ) ) ;
#283 = VERTEX_POINT ( 'NONE', #572 ) ;
#284 = FACE_OUTER_BOUND ( 'NONE', #392, .T. ) ;
#285 = VERTEX_POINT ( 'NONE', #1311 ) ;
#286 = AXIS2_PLACEMENT_3D ( 'NONE', #212, #1100, #419 ) ;
#287 = ADVANCED_FACE ( 'NONE', ( #978 ), #67, .F. ) ;
#288 = AXIS2_PLACEMENT_3D ( 'NONE', #498, #1113, #198 ) ;
#289 = DIRECTION ( 'NONE',  ( 0.000000000000000000, 0.000000000000000000, 1.000000000000000000 ) ) ;
#290 = ORIENTED_EDGE ( 'NONE', *, *, #642, .F. ) ;
#291 = CARTESIAN_POINT ( 'NONE',  ( 18.12146997001200077, 9.250000000000182965, 0.000000000000000000 ) ) ;
#292 = ORIENTED_EDGE ( 'NONE', *, *, #870, .F. ) ;
#293 = EDGE_CURVE ( 'NONE', #378, #963, #178, .T. ) ;
#294 =( NAMED_UNIT ( * ) PLANE_ANGLE_UNIT ( ) SI_UNIT ( $, .RADIAN. ) );
#295 = CIRCLE ( 'NONE', #1191, 2.100000000000000977 ) ;
#296 = DIRECTION ( 'NONE',  ( -0.000000000000000000, -0.000000000000000000, -1.000000000000000000 ) ) ;
#297 = CARTESIAN_POINT ( 'NONE',  ( -14.51999999999999957, 0.000000000000000000, 2.250000000000000000 ) ) ;
#298 = ORIENTED_EDGE ( 'NONE', *, *, #1271, .F. ) ;
#299 = DIRECTION ( 'NONE',  ( -0.000000000000000000, -0.000000000000000000, -1.000000000000000000 ) ) ;
#300 = EDGE_LOOP ( 'NONE', ( #749, #345 ) ) ;
#301 = CIRCLE ( 'NONE', #1045, 2.100000000000000977 ) ;
#302 = AXIS2_PLACEMENT_3D ( 'NONE', #1084, #684, #184 ) ;
#303 = PRODUCT_CONTEXT ( 'NONE', #685, 'mechanical' ) ;
#304 = CARTESIAN_POINT ( 'NONE',  ( -20.60000000000000497, 1.132798289211179030E-15, 0.000000000000000000 ) ) ;
#305 = FACE_BOUND ( 'NONE', #528, .T. ) ;
#306 = ORIENTED_EDGE ( 'NONE', *, *, #964, .F. ) ;
#307 = CIRCLE ( 'NONE', #333, 2.100000000000000977 ) ;
#308 = DIRECTION ( 'NONE',  ( 0.000000000000000000, 0.000000000000000000, 1.000000000000000000 ) ) ;
#309 = AXIS2_PLACEMENT_3D ( 'NONE', #806, #617, #516 ) ;
#310 = DIRECTION ( 'NONE',  ( -1.000000000000000000, 0.000000000000000000, 0.000000000000000000 ) ) ;
#311 = ORIENTED_EDGE ( 'NONE', *, *, #655, .F. ) ;
#312 = FACE_OUTER_BOUND ( 'NONE', #564, .T. ) ;
#313 = DIRECTION ( 'NONE',  ( 1.000000000000000000, 0.000000000000000000, 0.000000000000000000 ) ) ;
#314 = DIRECTION ( 'NONE',  ( -1.000000000000000000, 0.000000000000000000, 0.000000000000000000 ) ) ;
#315 = FACE_OUTER_BOUND ( 'NONE', #450, .T. ) ;
#316 = CARTESIAN_POINT ( 'NONE',  ( -9.860761315262647568E-29, 18.50000000000000355, 13.54999999999999893 ) ) ;
#317 = CARTESIAN_POINT ( 'NONE',  ( 9.249999999999996447, -16.02146997001212014, 13.54999999999999893 ) ) ;
#318 = CIRCLE ( 'NONE', #422, 2.100000000000000977 ) ;
#319 = ORIENTED_EDGE ( 'NONE', *, *, #255, .F. ) ;
#320 = DIRECTION ( 'NONE',  ( 0.000000000000000000, 0.000000000000000000, -1.000000000000000000 ) ) ;
#321 = CARTESIAN_POINT ( 'NONE',  ( -18.50000000000000355, 1.132798289211179030E-15, 13.54999999999999893 ) ) ;
#322 = ADVANCED_FACE ( 'NONE', ( #992 ), #485, .F. ) ;
#323 = DIRECTION ( 'NONE',  ( -0.000000000000000000, -0.000000000000000000, -1.000000000000000000 ) ) ;
#324 = ADVANCED_FACE ( 'NONE', ( #412 ), #1115, .F. ) ;
#325 = AXIS2_PLACEMENT_3D ( 'NONE', #257, #1282, #1157 ) ;
#326 = CARTESIAN_POINT ( 'NONE',  ( -2.100000000000002753, -18.50000000000000355, 0.000000000000000000 ) ) ;
#327 = FACE_OUTER_BOUND ( 'NONE', #704, .T. ) ;
#328 = DIRECTION ( 'NONE',  ( -0.000000000000000000, -0.000000000000000000, 1.000000000000000000 ) ) ;
#329 = PRESENTATION_LAYER_ASSIGNMENT (  '', '', ( #1136 ) ) ;
#330 = VERTEX_POINT ( 'NONE', #434 ) ;
#331 = DIRECTION ( 'NONE',  ( 0.000000000000000000, 0.000000000000000000, -1.000000000000000000 ) ) ;
#332 = LINE ( 'NONE', #633, #970 ) ;
#333 = AXIS2_PLACEMENT_3D ( 'NONE', #200, #130, #810 ) ;
#334 = EDGE_CURVE ( 'NONE', #1004, #1105, #307, .T. ) ;
#335 = ORIENTED_EDGE ( 'NONE', *, *, #337, .T. ) ;
#336 = CYLINDRICAL_SURFACE ( 'NONE', #265, 21.98999999999999844 ) ;
#337 = EDGE_CURVE ( 'NONE', #330, #573, #216, .T. ) ;
#338 = CARTESIAN_POINT ( 'NONE',  ( 14.51999999999999957, 1.778187152361956765E-15, 2.250000000000000000 ) ) ;
#339 = DIRECTION ( 'NONE',  ( -0.000000000000000000, -0.000000000000000000, -1.000000000000000000 ) ) ;
#340 = SURFACE_STYLE_FILL_AREA ( #776 ) ;
#341 = ADVANCED_FACE ( 'NONE', ( #715 ), #336, .T. ) ;
#342 = DIRECTION ( 'NONE',  ( 1.000000000000000000, 0.000000000000000000, 0.000000000000000000 ) ) ;
#343 = AXIS2_PLACEMENT_3D ( 'NONE', #514, #1036, #430 ) ;
#344 = AXIS2_PLACEMENT_3D ( 'NONE', #1262, #829, #135 ) ;
#345 = ORIENTED_EDGE ( 'NONE', *, *, #1040, .T. ) ;
#346 = EDGE_LOOP ( 'NONE', ( #108, #482, #491, #604 ) ) ;
#347 = DIRECTION ( 'NONE',  ( -1.000000000000000000, 0.000000000000000000, 0.000000000000000000 ) ) ;
#348 = EDGE_LOOP ( 'NONE', ( #665, #32, #259, #277 ) ) ;
#349 = CARTESIAN_POINT ( 'NONE',  ( 18.12146997001211446, -9.250000000000008882, 13.54999999999999893 ) ) ;
#350 = DIRECTION ( 'NONE',  ( -1.000000000000000000, 0.000000000000000000, 0.000000000000000000 ) ) ;
#351 = CARTESIAN_POINT ( 'NONE',  ( 9.249999999999996447, -16.02146997001212014, 0.000000000000000000 ) ) ;
#352 = EDGE_LOOP ( 'NONE', ( #1226, #168 ) ) ;
#353 = FACE_BOUND ( 'NONE', #815, .T. ) ;
#354 = DIRECTION ( 'NONE',  ( 1.000000000000000000, 0.000000000000000000, 0.000000000000000000 ) ) ;
#355 = FACE_OUTER_BOUND ( 'NONE', #1083, .T. ) ;
#356 = EDGE_LOOP ( 'NONE', ( #672, #1234 ) ) ;
#357 = ORIENTED_EDGE ( 'NONE', *, *, #493, .F. ) ;
#358 = DIRECTION ( 'NONE',  ( 0.000000000000000000, 0.000000000000000000, -1.000000000000000000 ) ) ;
#359 = ORIENTED_EDGE ( 'NONE', *, *, #1107, .T. ) ;
#360 = CYLINDRICAL_SURFACE ( 'NONE', #920, 22.48499999999999943 ) ;
#361 = AXIS2_PLACEMENT_3D ( 'NONE', #625, #436, #229 ) ;
#362 = ORIENTED_EDGE ( 'NONE', *, *, #1300, .T. ) ;
#363 = EDGE_CURVE ( 'NONE', #406, #931, #943, .T. ) ;
#364 = DIRECTION ( 'NONE',  ( -1.000000000000000000, 0.000000000000000000, 0.000000000000000000 ) ) ;
#365 = CIRCLE ( 'NONE', #1243, 22.48499999999999943 ) ;
#366 = CYLINDRICAL_SURFACE ( 'NONE', #1276, 14.51999999999999957 ) ;
#367 = AXIS2_PLACEMENT_3D ( 'NONE', #662, #898, #906 ) ;
#368 = ORIENTED_EDGE ( 'NONE', *, *, #201, .T. ) ;
#369 = AXIS2_PLACEMENT_3D ( 'NONE', #559, #962, #976 ) ;
#370 = FACE_BOUND ( 'NONE', #1075, .T. ) ;
#371 = DIRECTION ( 'NONE',  ( -0.000000000000000000, -0.000000000000000000, -1.000000000000000000 ) ) ;
#372 = ORIENTED_EDGE ( 'NONE', *, *, #1093, .T. ) ;
#373 = DIRECTION ( 'NONE',  ( -0.000000000000000000, -0.000000000000000000, -1.000000000000000000 ) ) ;
#374 = CIRCLE ( 'NONE', #1183, 2.100000000000000533 ) ;
#375 = ORIENTED_EDGE ( 'NONE', *, *, #337, .F. ) ;
#376 = EDGE_CURVE ( 'NONE', #993, #486, #374, .T. ) ;
#377 = LINE ( 'NONE', #396, #979 ) ;
#378 = VERTEX_POINT ( 'NONE', #12 ) ;
#379 = DIRECTION ( 'NONE',  ( -1.000000000000000000, 0.000000000000000000, 0.000000000000000000 ) ) ;
#380 = VERTEX_POINT ( 'NONE', #1250 ) ;
#381 = DIRECTION ( 'NONE',  ( 0.000000000000000000, 0.000000000000000000, 1.000000000000000000 ) ) ;
#382 = FACE_OUTER_BOUND ( 'NONE', #348, .T. ) ;
#383 = EDGE_LOOP ( 'NONE', ( #1324, #62, #941, #398 ) ) ;
#384 = EDGE_CURVE ( 'NONE', #954, #716, #113, .T. ) ;
#385 = DIRECTION ( 'NONE',  ( -1.000000000000000000, 0.000000000000000000, 0.000000000000000000 ) ) ;
#386 = EDGE_LOOP ( 'NONE', ( #999, #319 ) ) ;
#387 = VECTOR ( 'NONE', #914, 1000.000000000000000 ) ;
#388 = CARTESIAN_POINT ( 'NONE',  ( -16.40000000000000213, 1.389974117032123275E-15, 13.54999999999999893 ) ) ;
#389 = EDGE_LOOP ( 'NONE', ( #183, #585 ) ) ;
#390 = CARTESIAN_POINT ( 'NONE',  ( 9.249999999999795719, 16.02146997001223383, 24.00000000000000000 ) ) ;
#391 = ADVANCED_FACE ( 'NONE', ( #27, #121, #232, #416, #942, #305, #629, #19, #34, #1235, #1122, #5, #522, #428 ), #613, .F. ) ;
#392 = EDGE_LOOP ( 'NONE', ( #988, #256, #400, #459 ) ) ;
#393 = DIRECTION ( 'NONE',  ( -0.000000000000000000, -0.000000000000000000, -1.000000000000000000 ) ) ;
#394 = CIRCLE ( 'NONE', #1318, 2.100000000000000977 ) ;
#395 = DIRECTION ( 'NONE',  ( -1.000000000000000000, 0.000000000000000000, 0.000000000000000000 ) ) ;
#396 = CARTESIAN_POINT ( 'NONE',  ( 7.149999999999795186, 16.02146997001223383, 24.00000000000000000 ) ) ;
#397 = AXIS2_PLACEMENT_3D ( 'NONE', #1125, #234, #606 ) ;
#398 = ORIENTED_EDGE ( 'NONE', *, *, #1093, .F. ) ;
#399 = CARTESIAN_POINT ( 'NONE',  ( 16.02146997001200290, 9.250000000000182965, 0.000000000000000000 ) ) ;
#400 = ORIENTED_EDGE ( 'NONE', *, *, #1146, .T. ) ;
#401 = ADVANCED_FACE ( 'NONE', ( #1019, #312 ), #209, .T. ) ;
#402 = DIRECTION ( 'NONE',  ( 0.000000000000000000, 0.000000000000000000, 1.000000000000000000 ) ) ;
#403 = VECTOR ( 'NONE', #1245, 1000.000000000000000 ) ;
#404 = DIRECTION ( 'NONE',  ( 1.000000000000000000, 0.000000000000000000, -0.000000000000000000 ) ) ;
#405 = LINE ( 'NONE', #577, #1220 ) ;
#406 = VERTEX_POINT ( 'NONE', #598 ) ;
#407 = AXIS2_PLACEMENT_3D ( 'NONE', #278, #299, #1326 ) ;
#408 = CARTESIAN_POINT ( 'NONE',  ( -9.860761315262647568E-29, 18.50000000000000355, 0.000000000000000000 ) ) ;
#409 = CARTESIAN_POINT ( 'NONE',  ( 20.60000000000000497, -3.141219039812839562E-15, 13.54999999999999893 ) ) ;
#410 = ADVANCED_FACE ( 'NONE', ( #1010 ), #605, .F. ) ;
#411 = CIRCLE ( 'NONE', #245, 21.98999999999999844 ) ;
#412 = FACE_OUTER_BOUND ( 'NONE', #224, .T. ) ;
#413 = DIRECTION ( 'NONE',  ( -0.000000000000000000, -0.000000000000000000, -1.000000000000000000 ) ) ;
#414 = CARTESIAN_POINT ( 'NONE',  ( 18.50000000000000355, -3.398394867633783610E-15, 24.00000000000000000 ) ) ;
#415 = CARTESIAN_POINT ( 'NONE',  ( -16.02146997001211659, 9.250000000000003553, 13.54999999999999893 ) ) ;
#416 = FACE_BOUND ( 'NONE', #768, .T. ) ;
#417 = EDGE_LOOP ( 'NONE', ( #175, #179 ) ) ;
#418 = CARTESIAN_POINT ( 'NONE',  ( -9.250000000000017764, 16.02146997001210238, 24.00000000000000000 ) ) ;
#419 = DIRECTION ( 'NONE',  ( 1.000000000000000000, 0.000000000000000000, 0.000000000000000000 ) ) ;
#420 =( LENGTH_UNIT ( ) NAMED_UNIT ( * ) SI_UNIT ( .MILLI., .METRE. ) );
#421 = DIRECTION ( 'NONE',  ( -0.000000000000000000, -0.000000000000000000, -1.000000000000000000 ) ) ;
#422 = AXIS2_PLACEMENT_3D ( 'NONE', #913, #339, #7 ) ;
#423 = VERTEX_POINT ( 'NONE', #830 ) ;
#424 = CARTESIAN_POINT ( 'NONE',  ( -11.35000000000000853, -16.02146997001211659, 13.54999999999999893 ) ) ;
#425 = CARTESIAN_POINT ( 'NONE',  ( -14.51999999999999957, 0.000000000000000000, 13.54999999999999893 ) ) ;
#426 = CARTESIAN_POINT ( 'NONE',  ( 18.12146997001200077, 9.250000000000182965, 13.54999999999999893 ) ) ;
#427 = AXIS2_PLACEMENT_3D ( 'NONE', #241, #643, #452 ) ;
#428 = FACE_BOUND ( 'NONE', #1310, .T. ) ;
#429 = CIRCLE ( 'NONE', #1049, 2.100000000000000977 ) ;
#430 = DIRECTION ( 'NONE',  ( 1.000000000000000000, 0.000000000000000000, -0.000000000000000000 ) ) ;
#431 = PRODUCT_DEFINITION_SHAPE ( 'NONE', 'NONE',  #24 ) ;
#432 = AXIS2_PLACEMENT_3D ( 'NONE', #728, #911, #917 ) ;
#433 = EDGE_LOOP ( 'NONE', ( #1301, #177 ) ) ;
#434 = CARTESIAN_POINT ( 'NONE',  ( 24.00000000001794476, 0.000000000000000000, 1.249999999999999778 ) ) ;
#435 = VERTEX_POINT ( 'NONE', #424 ) ;
#436 = DIRECTION ( 'NONE',  ( 0.000000000000000000, 0.000000000000000000, -1.000000000000000000 ) ) ;
#437 = DIRECTION ( 'NONE',  ( -0.000000000000000000, -0.000000000000000000, -1.000000000000000000 ) ) ;
#438 = ADVANCED_FACE ( 'NONE', ( #823 ), #1141, .F. ) ;
#439 = CARTESIAN_POINT ( 'NONE',  ( -13.92146997001211872, -9.249999999999998224, 24.00000000000000000 ) ) ;
#440 = AXIS2_PLACEMENT_3D ( 'NONE', #321, #413, #313 ) ;
#441 = AXIS2_PLACEMENT_3D ( 'NONE', #156, #260, #545 ) ;
#442 = VECTOR ( 'NONE', #615, 1000.000000000000000 ) ;
#443 = ORIENTED_EDGE ( 'NONE', *, *, #1033, .F. ) ;
#444 = DIRECTION ( 'NONE',  ( -0.000000000000000000, -0.000000000000000000, -1.000000000000000000 ) ) ;
#445 = EDGE_LOOP ( 'NONE', ( #520, #254 ) ) ;
#446 = DIRECTION ( 'NONE',  ( 0.000000000000000000, 0.000000000000000000, -1.000000000000000000 ) ) ;
#447 = ORIENTED_EDGE ( 'NONE', *, *, #568, .F. ) ;
#448 = CARTESIAN_POINT ( 'NONE',  ( -24.00000000001794476, 2.939152317955845266E-15, 2.349999999999999645 ) ) ;
#449 = VECTOR ( 'NONE', #637, 1000.000000000000000 ) ;
#450 = EDGE_LOOP ( 'NONE', ( #1057, #650, #700, #35 ) ) ;
#451 = ORIENTED_EDGE ( 'NONE', *, *, #1090, .F. ) ;
#452 = DIRECTION ( 'NONE',  ( -1.000000000000000000, 0.000000000000000000, 0.000000000000000000 ) ) ;
#453 = EDGE_CURVE ( 'NONE', #243, #582, #301, .T. ) ;
#454 = DIRECTION ( 'NONE',  ( 0.000000000000000000, 0.000000000000000000, -1.000000000000000000 ) ) ;
#455 = CIRCLE ( 'NONE', #1071, 21.98999999999999844 ) ;
#456 = ORIENTED_EDGE ( 'NONE', *, *, #1081, .T. ) ;
#457 = VECTOR ( 'NONE', #252, 1000.000000000000000 ) ;
#458 = DIRECTION ( 'NONE',  ( -1.000000000000000000, 0.000000000000000000, 0.000000000000000000 ) ) ;
#459 = ORIENTED_EDGE ( 'NONE', *, *, #574, .F. ) ;
#460 = DIRECTION ( 'NONE',  ( -0.000000000000000000, -0.000000000000000000, -1.000000000000000000 ) ) ;
#461 = CIRCLE ( 'NONE', #866, 2.100000000000000977 ) ;
#462 = ORIENTED_EDGE ( 'NONE', *, *, #1110, .T. ) ;
#463 = FACE_BOUND ( 'NONE', #115, .T. ) ;
#464 = DIRECTION ( 'NONE',  ( 1.000000000000000000, 0.000000000000000000, 0.000000000000000000 ) ) ;
#465 = ORIENTED_EDGE ( 'NONE', *, *, #1247, .F. ) ;
#466 = DIRECTION ( 'NONE',  ( 1.000000000000000000, 0.000000000000000000, 0.000000000000000000 ) ) ;
#467 = ORIENTED_EDGE ( 'NONE', *, *, #1202, .T. ) ;
#468 = AXIS2_PLACEMENT_3D ( 'NONE', #1082, #371, #1087 ) ;
#469 = EDGE_CURVE ( 'NONE', #952, #766, #1103, .T. ) ;
#470 = FACE_OUTER_BOUND ( 'NONE', #80, .T. ) ;
#471 = ORIENTED_EDGE ( 'NONE', *, *, #14, .F. ) ;
#472 = CARTESIAN_POINT ( 'NONE',  ( 16.02146997001211304, -9.250000000000008882, 24.00000000000000000 ) ) ;
#473 = CIRCLE ( 'NONE', #542, 2.100000000000000977 ) ;
#474 = ORIENTED_EDGE ( 'NONE', *, *, #553, .F. ) ;
#475 = ADVANCED_FACE ( 'NONE', ( #39 ), #543, .F. ) ;
#476 = ORIENTED_EDGE ( 'NONE', *, *, #161, .T. ) ;
#477 = DIRECTION ( 'NONE',  ( -0.000000000000000000, -0.000000000000000000, -1.000000000000000000 ) ) ;
#478 = ORIENTED_EDGE ( 'NONE', *, *, #997, .F. ) ;
#479 = CARTESIAN_POINT ( 'NONE',  ( -18.50000000000000355, 1.132798289211179030E-15, 24.00000000000000000 ) ) ;
#480 = ORIENTED_EDGE ( 'NONE', *, *, #667, .F. ) ;
#481 = VECTOR ( 'NONE', #393, 1000.000000000000000 ) ;
#482 = ORIENTED_EDGE ( 'NONE', *, *, #870, .T. ) ;
#483 = LINE ( 'NONE', #888, #1206 ) ;
#484 = ORIENTED_EDGE ( 'NONE', *, *, #964, .T. ) ;
#485 = CYLINDRICAL_SURFACE ( 'NONE', #832, 2.100000000000000977 ) ;
#486 = VERTEX_POINT ( 'NONE', #740 ) ;
#487 = EDGE_CURVE ( 'NONE', #955, #995, #147, .T. ) ;
#488 =( NAMED_UNIT ( * ) SI_UNIT ( $, .STERADIAN. ) SOLID_ANGLE_UNIT ( ) );
#489 = VECTOR ( 'NONE', #296, 1000.000000000000000 ) ;
#490 = DIRECTION ( 'NONE',  ( 0.000000000000000000, 0.000000000000000000, 1.000000000000000000 ) ) ;
#491 = ORIENTED_EDGE ( 'NONE', *, *, #1210, .T. ) ;
#492 = CARTESIAN_POINT ( 'NONE',  ( -18.12146997001212156, -9.249999999999998224, 13.54999999999999893 ) ) ;
#493 = EDGE_CURVE ( 'NONE', #624, #588, #258, .T. ) ;
#494 = AXIS2_PLACEMENT_3D ( 'NONE', #1150, #932, #507 ) ;
#495 = ORIENTED_EDGE ( 'NONE', *, *, #924, .F. ) ;
#496 = AXIS2_PLACEMENT_3D ( 'NONE', #570, #1299, #170 ) ;
#497 = CYLINDRICAL_SURFACE ( 'NONE', #560, 2.100000000000000533 ) ;
#498 = CARTESIAN_POINT ( 'NONE',  ( 0.000000000000000000, 0.000000000000000000, 1.249999999999999778 ) ) ;
#499 = ORIENTED_EDGE ( 'NONE', *, *, #982, .T. ) ;
#500 = DIRECTION ( 'NONE',  ( 1.000000000000000000, 0.000000000000000000, 0.000000000000000000 ) ) ;
#501 = EDGE_LOOP ( 'NONE', ( #556, #451, #677, #74 ) ) ;
#502 = CARTESIAN_POINT ( 'NONE',  ( 0.000000000000000000, 0.000000000000000000, 13.54999999999999893 ) ) ;
#503 = DIRECTION ( 'NONE',  ( -0.000000000000000000, -0.000000000000000000, -1.000000000000000000 ) ) ;
#504 = AXIS2_PLACEMENT_3D ( 'NONE', #939, #437, #213 ) ;
#505 = DIRECTION ( 'NONE',  ( 1.000000000000000000, 0.000000000000000000, 0.000000000000000000 ) ) ;
#506 = ORIENTED_EDGE ( 'NONE', *, *, #981, .F. ) ;
#507 = DIRECTION ( 'NONE',  ( -1.000000000000000000, 0.000000000000000000, 0.000000000000000000 ) ) ;
#508 = ORIENTED_EDGE ( 'NONE', *, *, #539, .T. ) ;
#509 = CYLINDRICAL_SURFACE ( 'NONE', #123, 2.100000000000000977 ) ;
#510 = FILL_AREA_STYLE_COLOUR ( '', #1023 ) ;
#511 = DIRECTION ( 'NONE',  ( 1.000000000000000000, 0.000000000000000000, 0.000000000000000000 ) ) ;
#512 = EDGE_CURVE ( 'NONE', #588, #624, #1285, .T. ) ;
#513 = CARTESIAN_POINT ( 'NONE',  ( 24.00000000001794476, 0.000000000000000000, 1.249999999999999778 ) ) ;
#514 = CARTESIAN_POINT ( 'NONE',  ( 0.000000000000000000, 0.000000000000000000, 9.350000000000001421 ) ) ;
#515 = CARTESIAN_POINT ( 'NONE',  ( -24.49999999999999645, 0.000000000000000000, 2.250000000000000000 ) ) ;
#516 = DIRECTION ( 'NONE',  ( 1.000000000000000000, 0.000000000000000000, 0.000000000000000000 ) ) ;
#517 = SURFACE_SIDE_STYLE ('',( #340 ) ) ;
#518 = CYLINDRICAL_SURFACE ( 'NONE', #781, 2.100000000000000977 ) ;
#519 = AXIS2_PLACEMENT_3D ( 'NONE', #784, #477, #176 ) ;
#520 = ORIENTED_EDGE ( 'NONE', *, *, #1202, .F. ) ;
#521 = CIRCLE ( 'NONE', #679, 2.100000000000000533 ) ;
#522 = FACE_OUTER_BOUND ( 'NONE', #1018, .T. ) ;
#523 = LINE ( 'NONE', #1260, #273 ) ;
#524 = DIRECTION ( 'NONE',  ( -1.000000000000000000, 0.000000000000000000, 0.000000000000000000 ) ) ;
#525 = LINE ( 'NONE', #725, #583 ) ;
#526 = AXIS2_PLACEMENT_3D ( 'NONE', #1038, #126, #347 ) ;
#527 = ADVANCED_FACE ( 'NONE', ( #48 ), #654, .F. ) ;
#528 = EDGE_LOOP ( 'NONE', ( #566, #1091 ) ) ;
#529 = DIRECTION ( 'NONE',  ( -0.000000000000000000, -0.000000000000000000, -1.000000000000000000 ) ) ;
#530 = CARTESIAN_POINT ( 'NONE',  ( 0.000000000000000000, 0.000000000000000000, 9.350000000000001421 ) ) ;
#531 = FACE_OUTER_BOUND ( 'NONE', #383, .T. ) ;
#532 = EDGE_CURVE ( 'NONE', #82, #248, #587, .T. ) ;
#533 = CIRCLE ( 'NONE', #1178, 2.100000000000000977 ) ;
#534 = CARTESIAN_POINT ( 'NONE',  ( -14.51999999999999957, 0.000000000000000000, 0.000000000000000000 ) ) ;
#535 = CIRCLE ( 'NONE', #242, 21.98999999999999844 ) ;
#536 = CARTESIAN_POINT ( 'NONE',  ( 0.000000000000000000, 0.000000000000000000, -61.36132603554181486 ) ) ;
#537 = CIRCLE ( 'NONE', #133, 22.48499999999999943 ) ;
#538 = ORIENTED_EDGE ( 'NONE', *, *, #122, .F. ) ;
#539 = EDGE_CURVE ( 'NONE', #802, #155, #26, .T. ) ;
#540 = CARTESIAN_POINT ( 'NONE',  ( -2.265596578422505972E-15, -18.50000000000000355, 13.54999999999999893 ) ) ;
#541 = DIRECTION ( 'NONE',  ( 0.000000000000000000, 0.000000000000000000, -1.000000000000000000 ) ) ;
#542 = AXIS2_PLACEMENT_3D ( 'NONE', #1016, #893, #921 ) ;
#543 = CYLINDRICAL_SURFACE ( 'NONE', #998, 2.100000000000000533 ) ;
#544 = EDGE_LOOP ( 'NONE', ( #897, #484, #237, #722 ) ) ;
#545 = DIRECTION ( 'NONE',  ( 1.000000000000000000, 0.000000000000000000, 0.000000000000000000 ) ) ;
#546 = CARTESIAN_POINT ( 'NONE',  ( 0.000000000000000000, 0.000000000000000000, 9.350000000000001421 ) ) ;
#547 = CARTESIAN_POINT ( 'NONE',  ( -2.265596578422505972E-15, -18.50000000000000355, 24.00000000000000000 ) ) ;
#548 = CIRCLE ( 'NONE', #163, 2.100000000000000977 ) ;
#549 = AXIS2_PLACEMENT_3D ( 'NONE', #351, #454, #1266 ) ;
#550 = DIRECTION ( 'NONE',  ( -1.000000000000000000, 0.000000000000000000, 0.000000000000000000 ) ) ;
#551 = EDGE_LOOP ( 'NONE', ( #1249, #1165 ) ) ;
#552 = EDGE_CURVE ( 'NONE', #423, #406, #638, .T. ) ;
#553 = EDGE_CURVE ( 'NONE', #1013, #716, #365, .T. ) ;
#554 = LINE ( 'NONE', #956, #697 ) ;
#555 = EDGE_CURVE ( 'NONE', #931, #406, #533, .T. ) ;
#556 = ORIENTED_EDGE ( 'NONE', *, *, #763, .F. ) ;
#557 = CARTESIAN_POINT ( 'NONE',  ( -2.265596578422505972E-15, -18.50000000000000355, 13.54999999999999893 ) ) ;
#558 = ORIENTED_EDGE ( 'NONE', *, *, #642, .T. ) ;
#559 = CARTESIAN_POINT ( 'NONE',  ( 0.000000000000000000, 0.000000000000000000, 2.250000000000000000 ) ) ;
#560 = AXIS2_PLACEMENT_3D ( 'NONE', #1, #1118, #395 ) ;
#561 = VERTEX_POINT ( 'NONE', #969 ) ;
#562 = CARTESIAN_POINT ( 'NONE',  ( -9.250000000000008882, -16.02146997001211659, 13.54999999999999893 ) ) ;
#563 = AXIS2_PLACEMENT_3D ( 'NONE', #1225, #699, #511 ) ;
#564 = EDGE_LOOP ( 'NONE', ( #150, #1078 ) ) ;
#565 = CARTESIAN_POINT ( 'NONE',  ( -16.02146997001212014, -9.249999999999998224, 0.000000000000000000 ) ) ;
#566 = ORIENTED_EDGE ( 'NONE', *, *, #539, .F. ) ;
#567 = DIRECTION ( 'NONE',  ( -0.000000000000000000, -0.000000000000000000, -1.000000000000000000 ) ) ;
#568 = EDGE_CURVE ( 'NONE', #166, #47, #935, .T. ) ;
#569 = ORIENTED_EDGE ( 'NONE', *, *, #174, .F. ) ;
#570 = CARTESIAN_POINT ( 'NONE',  ( -16.02146997001212014, -9.249999999999998224, 24.00000000000000000 ) ) ;
#571 = ORIENTED_EDGE ( 'NONE', *, *, #102, .T. ) ;
#572 = CARTESIAN_POINT ( 'NONE',  ( -21.98999999999999844, 2.692998311325029237E-15, 13.54999999999999893 ) ) ;
#573 = VERTEX_POINT ( 'NONE', #947 ) ;
#574 = EDGE_CURVE ( 'NONE', #1109, #380, #744, .T. ) ;
#575 = CARTESIAN_POINT ( 'NONE',  ( 24.49999999999999645, 3.000384657911015074E-15, 0.000000000000000000 ) ) ;
#576 = ORIENTED_EDGE ( 'NONE', *, *, #1186, .T. ) ;
#577 = CARTESIAN_POINT ( 'NONE',  ( -7.150000000000017231, 16.02146997001210238, 24.00000000000000000 ) ) ;
#578 = VERTEX_POINT ( 'NONE', #1055 ) ;
#579 = DIRECTION ( 'NONE',  ( 0.000000000000000000, 0.000000000000000000, 1.000000000000000000 ) ) ;
#580 = VERTEX_POINT ( 'NONE', #142 ) ;
#581 = DIRECTION ( 'NONE',  ( -0.000000000000000000, -0.000000000000000000, -1.000000000000000000 ) ) ;
#582 = VERTEX_POINT ( 'NONE', #54 ) ;
#583 = VECTOR ( 'NONE', #141, 1000.000000000000000 ) ;
#584 = CARTESIAN_POINT ( 'NONE',  ( 0.000000000000000000, 0.000000000000000000, 13.54999999999999893 ) ) ;
#585 = ORIENTED_EDGE ( 'NONE', *, *, #263, .F. ) ;
#586 = DIRECTION ( 'NONE',  ( -0.000000000000000000, -0.000000000000000000, -1.000000000000000000 ) ) ;
#587 = CIRCLE ( 'NONE', #427, 2.100000000000000977 ) ;
#588 = VERTEX_POINT ( 'NONE', #1270 ) ;
#589 = AXIS2_PLACEMENT_3D ( 'NONE', #276, #182, #669 ) ;
#590 = FACE_OUTER_BOUND ( 'NONE', #743, .T. ) ;
#591 = ORIENTED_EDGE ( 'NONE', *, *, #1142, .F. ) ;
#592 = DIRECTION ( 'NONE',  ( 0.000000000000000000, 0.000000000000000000, -1.000000000000000000 ) ) ;
#593 = VECTOR ( 'NONE', #581, 1000.000000000000000 ) ;
#594 = ORIENTED_EDGE ( 'NONE', *, *, #122, .T. ) ;
#595 = EDGE_CURVE ( 'NONE', #270, #1013, #554, .T. ) ;
#596 = DIRECTION ( 'NONE',  ( -0.000000000000000000, -0.000000000000000000, -1.000000000000000000 ) ) ;
#597 = CARTESIAN_POINT ( 'NONE',  ( 0.000000000000000000, 0.000000000000000000, 2.349999999999999645 ) ) ;
#598 = CARTESIAN_POINT ( 'NONE',  ( -13.92146997001211872, -9.249999999999998224, 0.000000000000000000 ) ) ;
#599 = EDGE_CURVE ( 'NONE', #843, #1319, #1278, .T. ) ;
#600 = ORIENTED_EDGE ( 'NONE', *, *, #140, .F. ) ;
#601 = CARTESIAN_POINT ( 'NONE',  ( -9.250000000000017764, 16.02146997001210238, 0.000000000000000000 ) ) ;
#602 = AXIS2_PLACEMENT_3D ( 'NONE', #55, #1272, #1169 ) ;
#603 = CARTESIAN_POINT ( 'NONE',  ( 7.149999999999995026, -16.02146997001212014, 0.000000000000000000 ) ) ;
#604 = ORIENTED_EDGE ( 'NONE', *, *, #966, .F. ) ;
#605 = CYLINDRICAL_SURFACE ( 'NONE', #703, 2.100000000000000977 ) ;
#606 = DIRECTION ( 'NONE',  ( 1.000000000000000000, 0.000000000000000000, 0.000000000000000000 ) ) ;
#607 = DIRECTION ( 'NONE',  ( 1.000000000000000000, 0.000000000000000000, 0.000000000000000000 ) ) ;
#608 = ADVANCED_FACE ( 'NONE', ( #649 ), #153, .F. ) ;
#609 = FACE_OUTER_BOUND ( 'NONE', #501, .T. ) ;
#610 = CARTESIAN_POINT ( 'NONE',  ( 21.98999999999999844, 0.000000000000000000, 13.54999999999999893 ) ) ;
#611 = DIRECTION ( 'NONE',  ( -0.000000000000000000, -0.000000000000000000, -1.000000000000000000 ) ) ;
#612 = VERTEX_POINT ( 'NONE', #674 ) ;
#613 = PLANE ( 'NONE',  #195 ) ;
#614 = DIRECTION ( 'NONE',  ( -0.000000000000000000, -0.000000000000000000, -1.000000000000000000 ) ) ;
#615 = DIRECTION ( 'NONE',  ( -0.000000000000000000, -0.000000000000000000, -1.000000000000000000 ) ) ;
#616 = EDGE_LOOP ( 'NONE', ( #1117, #1327, #480, #240 ) ) ;
#617 = DIRECTION ( 'NONE',  ( -0.000000000000000000, -0.000000000000000000, -1.000000000000000000 ) ) ;
#618 = DIRECTION ( 'NONE',  ( 1.000000000000000000, 0.000000000000000000, 0.000000000000000000 ) ) ;
#619 = CIRCLE ( 'NONE', #1254, 22.48499999999999943 ) ;
#620 = UNCERTAINTY_MEASURE_WITH_UNIT (LENGTH_MEASURE( 1.000000000000000082E-05 ), #110, 'distance_accuracy_value', 'NONE');
#621 = EDGE_CURVE ( 'NONE', #1289, #53, #377, .T. ) ;
#622 = ORIENTED_EDGE ( 'NONE', *, *, #835, .F. ) ;
#623 = CARTESIAN_POINT ( 'NONE',  ( 9.249999999999996447, -16.02146997001212014, 24.00000000000000000 ) ) ;
#624 = VERTEX_POINT ( 'NONE', #575 ) ;
#625 = CARTESIAN_POINT ( 'NONE',  ( -9.250000000000008882, -16.02146997001211659, 0.000000000000000000 ) ) ;
#626 = EDGE_LOOP ( 'NONE', ( #874, #1237, #576, #362 ) ) ;
#627 = DIRECTION ( 'NONE',  ( -0.000000000000000000, -0.000000000000000000, -1.000000000000000000 ) ) ;
#628 = CIRCLE ( 'NONE', #275, 2.100000000000000977 ) ;
#629 = FACE_BOUND ( 'NONE', #386, .T. ) ;
#630 = ORIENTED_EDGE ( 'NONE', *, *, #1142, .T. ) ;
#631 = EDGE_CURVE ( 'NONE', #47, #971, #770, .T. ) ;
#632 = CARTESIAN_POINT ( 'NONE',  ( -7.150000000000007461, -16.02146997001211659, 0.000000000000000000 ) ) ;
#633 = CARTESIAN_POINT ( 'NONE',  ( 13.92146997001199971, 9.250000000000182965, 24.00000000000000000 ) ) ;
#634 = CARTESIAN_POINT ( 'NONE',  ( 0.000000000000000000, 0.000000000000000000, 0.000000000000000000 ) ) ;
#635 = DIRECTION ( 'NONE',  ( -1.000000000000000000, 0.000000000000000000, 0.000000000000000000 ) ) ;
#636 = EDGE_LOOP ( 'NONE', ( #292, #869, #840, #912 ) ) ;
#637 = DIRECTION ( 'NONE',  ( -0.000000000000000000, -0.000000000000000000, -1.000000000000000000 ) ) ;
#638 = LINE ( 'NONE', #439, #186 ) ;
#639 = CARTESIAN_POINT ( 'NONE',  ( -18.12146997001211801, 9.250000000000003553, 0.000000000000000000 ) ) ;
#640 = EDGE_LOOP ( 'NONE', ( #683, #447 ) ) ;
#641 = EDGE_CURVE ( 'NONE', #270, #954, #537, .T. ) ;
#642 = EDGE_CURVE ( 'NONE', #283, #995, #411, .T. ) ;
#643 = DIRECTION ( 'NONE',  ( 0.000000000000000000, 0.000000000000000000, -1.000000000000000000 ) ) ;
#644 = CIRCLE ( 'NONE', #991, 2.100000000000000533 ) ;
#645 = CARTESIAN_POINT ( 'NONE',  ( 24.49999999999999645, 3.000384657911015074E-15, 1.249999999999999778 ) ) ;
#646 = ORIENTED_EDGE ( 'NONE', *, *, #1035, .T. ) ;
#647 = AXIS2_PLACEMENT_3D ( 'NONE', #865, #735, #758 ) ;
#648 = EDGE_LOOP ( 'NONE', ( #778, #1307, #851, #478 ) ) ;
#649 = FACE_OUTER_BOUND ( 'NONE', #616, .T. ) ;
#650 = ORIENTED_EDGE ( 'NONE', *, *, #107, .F. ) ;
#651 = CARTESIAN_POINT ( 'NONE',  ( 7.149999999999995026, -16.02146997001212014, 13.54999999999999893 ) ) ;
#652 = CIRCLE ( 'NONE', #1268, 24.49999999999999645 ) ;
#653 = EDGE_LOOP ( 'NONE', ( #885, #1175, #1293, #88 ) ) ;
#654 = CYLINDRICAL_SURFACE ( 'NONE', #325, 2.100000000000000977 ) ;
#655 = EDGE_CURVE ( 'NONE', #330, #1095, #940, .T. ) ;
#656 = ORIENTED_EDGE ( 'NONE', *, *, #202, .T. ) ;
#657 = CARTESIAN_POINT ( 'NONE',  ( -21.98999999999999844, 2.692998311325029237E-15, -61.36132603554181486 ) ) ;
#658 = EDGE_CURVE ( 'NONE', #47, #166, #876, .T. ) ;
#659 = ORIENTED_EDGE ( 'NONE', *, *, #1027, .T. ) ;
#660 = DIRECTION ( 'NONE',  ( -0.000000000000000000, -0.000000000000000000, -1.000000000000000000 ) ) ;
#661 = ORIENTED_EDGE ( 'NONE', *, *, #532, .T. ) ;
#662 = CARTESIAN_POINT ( 'NONE',  ( 18.50000000000000355, -3.398394867633783610E-15, 0.000000000000000000 ) ) ;
#663 = CIRCLE ( 'NONE', #1214, 22.48499999999999943 ) ;
#664 = ADVANCED_FACE ( 'NONE', ( #682 ), #269, .F. ) ;
#665 = ORIENTED_EDGE ( 'NONE', *, *, #1297, .F. ) ;
#666 = FACE_BOUND ( 'NONE', #1063, .T. ) ;
#667 = EDGE_CURVE ( 'NONE', #971, #1291, #805, .T. ) ;
#668 = ORIENTED_EDGE ( 'NONE', *, *, #140, .T. ) ;
#669 = DIRECTION ( 'NONE',  ( -1.000000000000000000, 0.000000000000000000, 0.000000000000000000 ) ) ;
#670 = ORIENTED_EDGE ( 'NONE', *, *, #1294, .T. ) ;
#671 = DIRECTION ( 'NONE',  ( -1.000000000000000000, 0.000000000000000000, 0.000000000000000000 ) ) ;
#672 = ORIENTED_EDGE ( 'NONE', *, *, #933, .F. ) ;
#673 = EDGE_CURVE ( 'NONE', #963, #53, #429, .T. ) ;
#674 = CARTESIAN_POINT ( 'NONE',  ( -24.49999999999999645, 0.000000000000000000, 1.249999999999999778 ) ) ;
#675 = ORIENTED_EDGE ( 'NONE', *, *, #487, .T. ) ;
#676 = DIRECTION ( 'NONE',  ( -1.000000000000000000, 0.000000000000000000, 0.000000000000000000 ) ) ;
#677 = ORIENTED_EDGE ( 'NONE', *, *, #1021, .T. ) ;
#678 = AXIS2_PLACEMENT_3D ( 'NONE', #1219, #1131, #707 ) ;
#679 = AXIS2_PLACEMENT_3D ( 'NONE', #1068, #1056, #635 ) ;
#680 = EDGE_CURVE ( 'NONE', #66, #1109, #760, .T. ) ;
#681 = CARTESIAN_POINT ( 'NONE',  ( -2.100000000000002753, -18.50000000000000355, 13.54999999999999893 ) ) ;
#682 = FACE_OUTER_BOUND ( 'NONE', #848, .T. ) ;
#683 = ORIENTED_EDGE ( 'NONE', *, *, #658, .F. ) ;
#684 = DIRECTION ( 'NONE',  ( 0.000000000000000000, 0.000000000000000000, 1.000000000000000000 ) ) ;
#685 = APPLICATION_CONTEXT ( 'automotive_design' ) ;
#686 = ORIENTED_EDGE ( 'NONE', *, *, #555, .T. ) ;
#687 = CIRCLE ( 'NONE', #1039, 2.100000000000000977 ) ;
#688 = ADVANCED_FACE ( 'NONE', ( #590 ), #1290, .F. ) ;
#689 = LINE ( 'NONE', #1315, #1116 ) ;
#690 = CARTESIAN_POINT ( 'NONE',  ( 0.000000000000000000, 0.000000000000000000, 0.000000000000000000 ) ) ;
#691 = ORIENTED_EDGE ( 'NONE', *, *, #1021, .F. ) ;
#692 = CARTESIAN_POINT ( 'NONE',  ( 13.92146997001199971, 9.250000000000182965, 13.54999999999999893 ) ) ;
#693 = VECTOR ( 'NONE', #1180, 1000.000000000000000 ) ;
#694 = ORIENTED_EDGE ( 'NONE', *, *, #1173, .T. ) ;
#695 = AXIS2_PLACEMENT_3D ( 'NONE', #1163, #73, #500 ) ;
#696 = CARTESIAN_POINT ( 'NONE',  ( -9.860761315262647568E-29, 18.50000000000000355, 13.54999999999999893 ) ) ;
#697 = VECTOR ( 'NONE', #859, 1000.000000000000000 ) ;
#698 = APPLICATION_PROTOCOL_DEFINITION ( 'draft international standard', 'automotive_design', 1998, #828 ) ;
#699 = DIRECTION ( 'NONE',  ( -0.000000000000000000, -0.000000000000000000, -1.000000000000000000 ) ) ;
#700 = ORIENTED_EDGE ( 'NONE', *, *, #1033, .T. ) ;
#701 = CARTESIAN_POINT ( 'NONE',  ( 0.000000000000000000, 0.000000000000000000, 1.249999999999999778 ) ) ;
#702 = ADVANCED_FACE ( 'NONE', ( #470 ), #884, .F. ) ;
#703 = AXIS2_PLACEMENT_3D ( 'NONE', #709, #925, #106 ) ;
#704 = EDGE_LOOP ( 'NONE', ( #1223, #1143, #279, #375 ) ) ;
#705 = DIRECTION ( 'NONE',  ( -0.000000000000000000, -0.000000000000000000, -1.000000000000000000 ) ) ;
#706 = CARTESIAN_POINT ( 'NONE',  ( 18.12146997001200077, 9.250000000000182965, 24.00000000000000000 ) ) ;
#707 = DIRECTION ( 'NONE',  ( -1.000000000000000000, 0.000000000000000000, 0.000000000000000000 ) ) ;
#708 = ORIENTED_EDGE ( 'NONE', *, *, #1164, .F. ) ;
#709 = CARTESIAN_POINT ( 'NONE',  ( 18.50000000000000355, -3.398394867633783610E-15, 24.00000000000000000 ) ) ;
#710 = DIRECTION ( 'NONE',  ( 1.000000000000000000, 0.000000000000000000, 0.000000000000000000 ) ) ;
#711 = CARTESIAN_POINT ( 'NONE',  ( -9.250000000000017764, 16.02146997001210238, 13.54999999999999893 ) ) ;
#712 = DIRECTION ( 'NONE',  ( -1.000000000000000000, 0.000000000000000000, 0.000000000000000000 ) ) ;
#713 = DIRECTION ( 'NONE',  ( -0.000000000000000000, -0.000000000000000000, -1.000000000000000000 ) ) ;
#714 = CARTESIAN_POINT ( 'NONE',  ( 16.02146997001200290, 9.250000000000182965, 24.00000000000000000 ) ) ;
#715 = FACE_OUTER_BOUND ( 'NONE', #837, .T. ) ;
#716 = VERTEX_POINT ( 'NONE', #1317 ) ;
#717 = CYLINDRICAL_SURFACE ( 'NONE', #945, 2.100000000000000533 ) ;
#718 = DIRECTION ( 'NONE',  ( 1.000000000000000000, 0.000000000000000000, 0.000000000000000000 ) ) ;
#719 = FACE_OUTER_BOUND ( 'NONE', #626, .T. ) ;
#720 = AXIS2_PLACEMENT_3D ( 'NONE', #1032, #421, #206 ) ;
#721 = DIRECTION ( 'NONE',  ( 1.000000000000000000, 0.000000000000000000, -0.000000000000000000 ) ) ;
#722 = ORIENTED_EDGE ( 'NONE', *, *, #1007, .F. ) ;
#723 = ADVANCED_BREP_SHAPE_REPRESENTATION ( '\X2\5927517382828f74\X0\-1A', ( #967, #138 ), #1275 ) ;
#724 = DIRECTION ( 'NONE',  ( -0.000000000000000000, -0.000000000000000000, -1.000000000000000000 ) ) ;
#725 = CARTESIAN_POINT ( 'NONE',  ( -2.100000000000000533, 18.50000000000000355, 24.00000000000000000 ) ) ;
#726 = AXIS2_PLACEMENT_3D ( 'NONE', #415, #1138, #222 ) ;
#727 = ORIENTED_EDGE ( 'NONE', *, *, #68, .T. ) ;
#728 = CARTESIAN_POINT ( 'NONE',  ( -16.02146997001212014, -9.249999999999998224, 0.000000000000000000 ) ) ;
#729 = CARTESIAN_POINT ( 'NONE',  ( -9.250000000000008882, -16.02146997001211659, 13.54999999999999893 ) ) ;
#730 = ADVANCED_FACE ( 'NONE', ( #382 ), #1185, .T. ) ;
#731 = DIRECTION ( 'NONE',  ( 0.000000000000000000, 0.000000000000000000, -1.000000000000000000 ) ) ;
#732 = CARTESIAN_POINT ( 'NONE',  ( 20.60000000000000497, -3.141219039812839562E-15, 24.00000000000000000 ) ) ;
#733 = AXIS2_PLACEMENT_3D ( 'NONE', #1029, #1020, #831 ) ;
#734 = AXIS2_PLACEMENT_3D ( 'NONE', #696, #987, #994 ) ;
#735 = DIRECTION ( 'NONE',  ( -0.000000000000000000, -0.000000000000000000, -1.000000000000000000 ) ) ;
#736 = VERTEX_POINT ( 'NONE', #1002 ) ;
#737 = ORIENTED_EDGE ( 'NONE', *, *, #1148, .F. ) ;
#738 = DIRECTION ( 'NONE',  ( 1.000000000000000000, 0.000000000000000000, 0.000000000000000000 ) ) ;
#739 = CIRCLE ( 'NONE', #695, 2.100000000000000977 ) ;
#740 = CARTESIAN_POINT ( 'NONE',  ( 2.099999999999998757, -18.50000000000000355, 0.000000000000000000 ) ) ;
#741 = CARTESIAN_POINT ( 'NONE',  ( 13.92146997001211162, -9.250000000000008882, 13.54999999999999893 ) ) ;
#742 = EDGE_LOOP ( 'NONE', ( #761, #1277 ) ) ;
#743 = EDGE_LOOP ( 'NONE', ( #854, #11, #1006, #659 ) ) ;
#744 = LINE ( 'NONE', #849, #190 ) ;
#745 = EDGE_CURVE ( 'NONE', #995, #283, #455, .T. ) ;
#746 = AXIS2_PLACEMENT_3D ( 'NONE', #965, #752, #875 ) ;
#747 = ORIENTED_EDGE ( 'NONE', *, *, #469, .F. ) ;
#748 = LINE ( 'NONE', #657, #457 ) ;
#749 = ORIENTED_EDGE ( 'NONE', *, *, #1090, .T. ) ;
#750 = CARTESIAN_POINT ( 'NONE',  ( 11.34999999999999787, -16.02146997001212014, 24.00000000000000000 ) ) ;
#751 = CIRCLE ( 'NONE', #233, 2.100000000000000977 ) ;
#752 = DIRECTION ( 'NONE',  ( -0.000000000000000000, -0.000000000000000000, -1.000000000000000000 ) ) ;
#753 = EDGE_LOOP ( 'NONE', ( #185, #918 ) ) ;
#754 = ADVANCED_FACE ( 'NONE', ( #1076 ), #165, .F. ) ;
#755 = FACE_BOUND ( 'NONE', #433, .T. ) ;
#756 = AXIS2_PLACEMENT_3D ( 'NONE', #1065, #1061, #838 ) ;
#757 = CIRCLE ( 'NONE', #367, 2.100000000000000977 ) ;
#758 = DIRECTION ( 'NONE',  ( 1.000000000000000000, 0.000000000000000000, 0.000000000000000000 ) ) ;
#759 = DIRECTION ( 'NONE',  ( 0.000000000000000000, 0.000000000000000000, -1.000000000000000000 ) ) ;
#760 = CIRCLE ( 'NONE', #468, 2.100000000000000977 ) ;
#761 = ORIENTED_EDGE ( 'NONE', *, *, #1193, .F. ) ;
#762 = FACE_BOUND ( 'NONE', #300, .T. ) ;
#763 = EDGE_CURVE ( 'NONE', #1303, #775, #483, .T. ) ;
#764 = VECTOR ( 'NONE', #529, 1000.000000000000000 ) ;
#765 = DIRECTION ( 'NONE',  ( 0.000000000000000000, 0.000000000000000000, 1.000000000000000000 ) ) ;
#766 = VERTEX_POINT ( 'NONE', #388 ) ;
#767 = FACE_OUTER_BOUND ( 'NONE', #648, .T. ) ;
#768 = EDGE_LOOP ( 'NONE', ( #194, #124 ) ) ;
#769 = ADVANCED_FACE ( 'NONE', ( #327 ), #904, .T. ) ;
#770 = LINE ( 'NONE', #297, #1108 ) ;
#771 = ORIENTED_EDGE ( 'NONE', *, *, #641, .T. ) ;
#772 = CARTESIAN_POINT ( 'NONE',  ( 16.02146997001200290, 9.250000000000182965, 13.54999999999999893 ) ) ;
#773 = CIRCLE ( 'NONE', #440, 2.100000000000000977 ) ;
#774 = CIRCLE ( 'NONE', #602, 2.100000000000000977 ) ;
#775 = VERTEX_POINT ( 'NONE', #97 ) ;
#776 = FILL_AREA_STYLE ('',( #510 ) ) ;
#777 = DIRECTION ( 'NONE',  ( -0.000000000000000000, -0.000000000000000000, -1.000000000000000000 ) ) ;
#778 = ORIENTED_EDGE ( 'NONE', *, *, #33, .F. ) ;
#779 = DIRECTION ( 'NONE',  ( -0.000000000000000000, -0.000000000000000000, -1.000000000000000000 ) ) ;
#780 = EDGE_LOOP ( 'NONE', ( #199, #569, #907, #686 ) ) ;
#781 = AXIS2_PLACEMENT_3D ( 'NONE', #714, #16, #310 ) ;
#782 = ADVANCED_FACE ( 'NONE', ( #719 ), #214, .F. ) ;
#783 = DIRECTION ( 'NONE',  ( 1.000000000000000000, 0.000000000000000000, 0.000000000000000000 ) ) ;
#784 = CARTESIAN_POINT ( 'NONE',  ( 9.249999999999795719, 16.02146997001223383, 24.00000000000000000 ) ) ;
#785 = ORIENTED_EDGE ( 'NONE', *, *, #512, .F. ) ;
#786 = DIRECTION ( 'NONE',  ( -0.000000000000000000, -0.000000000000000000, -1.000000000000000000 ) ) ;
#787 = VECTOR ( 'NONE', #705, 1000.000000000000000 ) ;
#788 = ORIENTED_EDGE ( 'NONE', *, *, #641, .F. ) ;
#789 = CIRCLE ( 'NONE', #563, 2.100000000000000977 ) ;
#790 = EDGE_CURVE ( 'NONE', #857, #861, #789, .T. ) ;
#791 = CARTESIAN_POINT ( 'NONE',  ( -24.00000000001794476, 2.939152317955845266E-15, 1.249999999999999778 ) ) ;
#792 = VECTOR ( 'NONE', #160, 1000.000000000000000 ) ;
#793 = LINE ( 'NONE', #706, #489 ) ;
#794 = DIRECTION ( 'NONE',  ( 0.000000000000000000, 0.000000000000000000, 1.000000000000000000 ) ) ;
#795 = ORIENTED_EDGE ( 'NONE', *, *, #1257, .F. ) ;
#796 = CARTESIAN_POINT ( 'NONE',  ( -22.48499999999999943, 0.000000000000000000, 9.350000000000001421 ) ) ;
#797 = ORIENTED_EDGE ( 'NONE', *, *, #595, .T. ) ;
#798 = AXIS2_PLACEMENT_3D ( 'NONE', #418, #101, #524 ) ;
#799 = APPLICATION_PROTOCOL_DEFINITION ( 'draft international standard', 'automotive_design', 1998, #685 ) ;
#800 = CYLINDRICAL_SURFACE ( 'NONE', #720, 2.100000000000000977 ) ;
#801 = DIRECTION ( 'NONE',  ( -0.000000000000000000, -0.000000000000000000, -1.000000000000000000 ) ) ;
#802 = VERTEX_POINT ( 'NONE', #304 ) ;
#803 = CIRCLE ( 'NONE', #1251, 2.100000000000000977 ) ;
#804 = DIRECTION ( 'NONE',  ( 1.000000000000000000, 0.000000000000000000, -0.000000000000000000 ) ) ;
#805 = CIRCLE ( 'NONE', #1161, 14.51999999999999957 ) ;
#806 = CARTESIAN_POINT ( 'NONE',  ( -16.02146997001212014, -9.249999999999998224, 13.54999999999999893 ) ) ;
#807 = DIRECTION ( 'NONE',  ( 0.000000000000000000, 0.000000000000000000, 1.000000000000000000 ) ) ;
#808 = EDGE_CURVE ( 'NONE', #561, #1321, #227, .T. ) ;
#809 = EDGE_LOOP ( 'NONE', ( #84, #145, #143, #889 ) ) ;
#810 = DIRECTION ( 'NONE',  ( -1.000000000000000000, 0.000000000000000000, 0.000000000000000000 ) ) ;
#811 = ORIENTED_EDGE ( 'NONE', *, *, #293, .T. ) ;
#812 = DIRECTION ( 'NONE',  ( -0.000000000000000000, -0.000000000000000000, -1.000000000000000000 ) ) ;
#813 = DIRECTION ( 'NONE',  ( 1.000000000000000000, 0.000000000000000000, 0.000000000000000000 ) ) ;
#814 = DIRECTION ( 'NONE',  ( -0.000000000000000000, -0.000000000000000000, -1.000000000000000000 ) ) ;
#815 = EDGE_LOOP ( 'NONE', ( #1149, #462 ) ) ;
#816 = CARTESIAN_POINT ( 'NONE',  ( -2.265596578422505972E-15, -18.50000000000000355, 0.000000000000000000 ) ) ;
#817 = ORIENTED_EDGE ( 'NONE', *, *, #512, .T. ) ;
#818 = DIRECTION ( 'NONE',  ( 0.000000000000000000, 0.000000000000000000, -1.000000000000000000 ) ) ;
#819 = CIRCLE ( 'NONE', #344, 14.51999999999999957 ) ;
#820 = LINE ( 'NONE', #220, #787 ) ;
#821 = DIRECTION ( 'NONE',  ( 0.000000000000000000, 0.000000000000000000, 1.000000000000000000 ) ) ;
#822 = CARTESIAN_POINT ( 'NONE',  ( 16.02146997001211304, -9.250000000000008882, 13.54999999999999893 ) ) ;
#823 = FACE_OUTER_BOUND ( 'NONE', #653, .T. ) ;
#824 = ORIENTED_EDGE ( 'NONE', *, *, #49, .T. ) ;
#825 = AXIS2_PLACEMENT_3D ( 'NONE', #623, #1034, #1265 ) ;
#826 = EDGE_CURVE ( 'NONE', #716, #1013, #619, .T. ) ;
#827 = LINE ( 'NONE', #1253, #1060 ) ;
#828 = APPLICATION_CONTEXT ( 'automotive_design' ) ;
#829 = DIRECTION ( 'NONE',  ( 0.000000000000000000, 0.000000000000000000, 1.000000000000000000 ) ) ;
#830 = CARTESIAN_POINT ( 'NONE',  ( -13.92146997001211872, -9.249999999999998224, 13.54999999999999893 ) ) ;
#831 = DIRECTION ( 'NONE',  ( -1.000000000000000000, 0.000000000000000000, 0.000000000000000000 ) ) ;
#832 = AXIS2_PLACEMENT_3D ( 'NONE', #390, #786, #1208 ) ;
#833 = CYLINDRICAL_SURFACE ( 'NONE', #798, 2.100000000000000977 ) ;
#834 = ORIENTED_EDGE ( 'NONE', *, *, #974, .F. ) ;
#835 = EDGE_CURVE ( 'NONE', #64, #843, #900, .T. ) ;
#836 = DIRECTION ( 'NONE',  ( 1.000000000000000000, 0.000000000000000000, 0.000000000000000000 ) ) ;
#837 = EDGE_LOOP ( 'NONE', ( #261, #1242, #675, #290 ) ) ;
#838 = DIRECTION ( 'NONE',  ( -1.000000000000000000, 0.000000000000000000, 0.000000000000000000 ) ) ;
#839 = EDGE_CURVE ( 'NONE', #173, #1054, #394, .T. ) ;
#840 = ORIENTED_EDGE ( 'NONE', *, *, #966, .T. ) ;
#841 = DIRECTION ( 'NONE',  ( -1.000000000000000000, 0.000000000000000000, 0.000000000000000000 ) ) ;
#842 = CARTESIAN_POINT ( 'NONE',  ( -11.35000000000001918, 16.02146997001210238, 13.54999999999999893 ) ) ;
#843 = VERTEX_POINT ( 'NONE', #1026 ) ;
#844 = ADVANCED_FACE ( 'NONE', ( #104, #92 ), #909, .T. ) ;
#845 = DIRECTION ( 'NONE',  ( -0.000000000000000000, -0.000000000000000000, -1.000000000000000000 ) ) ;
#846 = VECTOR ( 'NONE', #937, 1000.000000000000000 ) ;
#847 = ADVANCED_FACE ( 'NONE', ( #1323 ), #518, .F. ) ;
#848 = EDGE_LOOP ( 'NONE', ( #1216, #1269, #959, #1314 ) ) ;
#849 = CARTESIAN_POINT ( 'NONE',  ( -11.35000000000001918, 16.02146997001210238, 24.00000000000000000 ) ) ;
#850 = CARTESIAN_POINT ( 'NONE',  ( 14.51999999999999957, 1.778187152361956765E-15, 13.54999999999999893 ) ) ;
#851 = ORIENTED_EDGE ( 'NONE', *, *, #631, .T. ) ;
#852 = CARTESIAN_POINT ( 'NONE',  ( 0.000000000000000000, 0.000000000000000000, 13.54999999999999893 ) ) ;
#853 = AXIS2_PLACEMENT_3D ( 'NONE', #408, #77, #1119 ) ;
#854 = ORIENTED_EDGE ( 'NONE', *, *, #293, .F. ) ;
#855 = CARTESIAN_POINT ( 'NONE',  ( 18.12146997001211446, -9.250000000000008882, 0.000000000000000000 ) ) ;
#856 = ORIENTED_EDGE ( 'NONE', *, *, #1273, .T. ) ;
#857 = VERTEX_POINT ( 'NONE', #409 ) ;
#858 = AXIS2_PLACEMENT_3D ( 'NONE', #895, #873, #996 ) ;
#859 = DIRECTION ( 'NONE',  ( -0.000000000000000000, -0.000000000000000000, -1.000000000000000000 ) ) ;
#860 = AXIS2_PLACEMENT_3D ( 'NONE', #149, #949, #139 ) ;
#861 = VERTEX_POINT ( 'NONE', #923 ) ;
#862 = CARTESIAN_POINT ( 'NONE',  ( 7.149999999999795186, 16.02146997001223383, 0.000000000000000000 ) ) ;
#863 = ADVANCED_FACE ( 'NONE', ( #915 ), #800, .F. ) ;
#864 = VERTEX_POINT ( 'NONE', #603 ) ;
#865 = CARTESIAN_POINT ( 'NONE',  ( -18.50000000000000355, 1.132798289211179030E-15, 13.54999999999999893 ) ) ;
#866 = AXIS2_PLACEMENT_3D ( 'NONE', #930, #541, #1232 ) ;
#867 = ORIENTED_EDGE ( 'NONE', *, *, #363, .F. ) ;
#868 = CYLINDRICAL_SURFACE ( 'NONE', #860, 21.98999999999999844 ) ;
#869 = ORIENTED_EDGE ( 'NONE', *, *, #146, .F. ) ;
#870 = EDGE_CURVE ( 'NONE', #1132, #1105, #1017, .T. ) ;
#871 = AXIS2_PLACEMENT_3D ( 'NONE', #634, #251, #1072 ) ;
#872 = CIRCLE ( 'NONE', #3, 2.100000000000000533 ) ;
#873 = DIRECTION ( 'NONE',  ( -0.000000000000000000, -0.000000000000000000, -1.000000000000000000 ) ) ;
#874 = ORIENTED_EDGE ( 'NONE', *, *, #207, .F. ) ;
#875 = DIRECTION ( 'NONE',  ( -1.000000000000000000, 0.000000000000000000, 0.000000000000000000 ) ) ;
#876 = CIRCLE ( 'NONE', #1288, 14.51999999999999957 ) ;
#877 = EDGE_LOOP ( 'NONE', ( #1189, #1171 ) ) ;
#878 = FACE_BOUND ( 'NONE', #352, .T. ) ;
#879 = CARTESIAN_POINT ( 'NONE',  ( 0.000000000000000000, 0.000000000000000000, 2.250000000000000000 ) ) ;
#880 = PRODUCT_DEFINITION_FORMATION_WITH_SPECIFIED_SOURCE ( 'å¯', '', #1037, .NOT_KNOWN. ) ;
#881 = ORIENTED_EDGE ( 'NONE', *, *, #808, .T. ) ;
#882 = DIRECTION ( 'NONE',  ( -0.000000000000000000, -0.000000000000000000, -1.000000000000000000 ) ) ;
#883 = ORIENTED_EDGE ( 'NONE', *, *, #924, .T. ) ;
#884 = CYLINDRICAL_SURFACE ( 'NONE', #858, 2.100000000000000977 ) ;
#885 = ORIENTED_EDGE ( 'NONE', *, *, #901, .F. ) ;
#886 = CYLINDRICAL_SURFACE ( 'NONE', #187, 2.100000000000000977 ) ;
#887 = EDGE_LOOP ( 'NONE', ( #159, #246 ) ) ;
#888 = CARTESIAN_POINT ( 'NONE',  ( 2.100000000000000533, 18.50000000000000355, 24.00000000000000000 ) ) ;
#889 = ORIENTED_EDGE ( 'NONE', *, *, #595, .F. ) ;
#890 = CYLINDRICAL_SURFACE ( 'NONE', #407, 2.100000000000000977 ) ;
#891 = ORIENTED_EDGE ( 'NONE', *, *, #1164, .T. ) ;
#892 = CIRCLE ( 'NONE', #853, 2.100000000000000533 ) ;
#893 = DIRECTION ( 'NONE',  ( 0.000000000000000000, 0.000000000000000000, -1.000000000000000000 ) ) ;
#894 = CARTESIAN_POINT ( 'NONE',  ( 11.34999999999979714, 16.02146997001223383, 0.000000000000000000 ) ) ;
#895 = CARTESIAN_POINT ( 'NONE',  ( 9.249999999999996447, -16.02146997001212014, 24.00000000000000000 ) ) ;
#896 = AXIS2_PLACEMENT_3D ( 'NONE', #472, #882, #379 ) ;
#897 = ORIENTED_EDGE ( 'NONE', *, *, #202, .F. ) ;
#898 = DIRECTION ( 'NONE',  ( 0.000000000000000000, 0.000000000000000000, -1.000000000000000000 ) ) ;
#899 = EDGE_LOOP ( 'NONE', ( #266, #1281, #1209, #691 ) ) ;
#900 = CIRCLE ( 'NONE', #961, 2.100000000000000977 ) ;
#901 = EDGE_CURVE ( 'NONE', #843, #64, #1066, .T. ) ;
#902 = CARTESIAN_POINT ( 'NONE',  ( 11.34999999999999787, -16.02146997001212014, 0.000000000000000000 ) ) ;
#903 = CARTESIAN_POINT ( 'NONE',  ( 22.48499999999999943, 2.753618327882823419E-15, 9.350000000000001421 ) ) ;
#904 = CYLINDRICAL_SURFACE ( 'NONE', #288, 24.00000000001794476 ) ;
#905 = EDGE_LOOP ( 'NONE', ( #272, #984 ) ) ;
#906 = DIRECTION ( 'NONE',  ( -1.000000000000000000, 0.000000000000000000, 0.000000000000000000 ) ) ;
#907 = ORIENTED_EDGE ( 'NONE', *, *, #1287, .T. ) ;
#908 = DIRECTION ( 'NONE',  ( 0.000000000000000000, 0.000000000000000000, -1.000000000000000000 ) ) ;
#909 = PLANE ( 'NONE',  #1145 ) ;
#910 = ORIENTED_EDGE ( 'NONE', *, *, #231, .F. ) ;
#911 = DIRECTION ( 'NONE',  ( 0.000000000000000000, 0.000000000000000000, -1.000000000000000000 ) ) ;
#912 = ORIENTED_EDGE ( 'NONE', *, *, #334, .T. ) ;
#913 = CARTESIAN_POINT ( 'NONE',  ( 9.249999999999795719, 16.02146997001223383, 13.54999999999999893 ) ) ;
#914 = DIRECTION ( 'NONE',  ( -0.000000000000000000, -0.000000000000000000, -1.000000000000000000 ) ) ;
#915 = FACE_OUTER_BOUND ( 'NONE', #636, .T. ) ;
#916 = EDGE_LOOP ( 'NONE', ( #1203, #1259, #456, #157 ) ) ;
#917 = DIRECTION ( 'NONE',  ( -1.000000000000000000, 0.000000000000000000, 0.000000000000000000 ) ) ;
#918 = ORIENTED_EDGE ( 'NONE', *, *, #680, .T. ) ;
#919 = FACE_OUTER_BOUND ( 'NONE', #986, .T. ) ;
#920 = AXIS2_PLACEMENT_3D ( 'NONE', #953, #444, #144 ) ;
#921 = DIRECTION ( 'NONE',  ( -1.000000000000000000, 0.000000000000000000, 0.000000000000000000 ) ) ;
#922 = PRESENTATION_STYLE_ASSIGNMENT (( #25 ) ) ;
#923 = CARTESIAN_POINT ( 'NONE',  ( 16.40000000000000213, -3.398394867633783610E-15, 13.54999999999999893 ) ) ;
#924 = EDGE_CURVE ( 'NONE', #861, #857, #151, .T. ) ;
#925 = DIRECTION ( 'NONE',  ( -0.000000000000000000, -0.000000000000000000, -1.000000000000000000 ) ) ;
#926 = ADVANCED_FACE ( 'NONE', ( #1197 ), #1204, .T. ) ;
#927 = CYLINDRICAL_SURFACE ( 'NONE', #733, 2.100000000000000977 ) ;
#928 = DIRECTION ( 'NONE',  ( -1.000000000000000000, 0.000000000000000000, 0.000000000000000000 ) ) ;
#929 = CIRCLE ( 'NONE', #361, 2.100000000000000977 ) ;
#930 = CARTESIAN_POINT ( 'NONE',  ( 9.249999999999795719, 16.02146997001223383, 0.000000000000000000 ) ) ;
#931 = VERTEX_POINT ( 'NONE', #188 ) ;
#932 = DIRECTION ( 'NONE',  ( -0.000000000000000000, -0.000000000000000000, -1.000000000000000000 ) ) ;
#933 = EDGE_CURVE ( 'NONE', #736, #775, #892, .T. ) ;
#934 = LINE ( 'NONE', #338, #1153 ) ;
#935 = CIRCLE ( 'NONE', #129, 14.51999999999999957 ) ;
#936 = CIRCLE ( 'NONE', #302, 24.00000000001794476 ) ;
#937 = DIRECTION ( 'NONE',  ( -0.000000000000000000, -0.000000000000000000, -1.000000000000000000 ) ) ;
#938 = VERTEX_POINT ( 'NONE', #681 ) ;
#939 = CARTESIAN_POINT ( 'NONE',  ( 0.000000000000000000, 0.000000000000000000, 2.250000000000000000 ) ) ;
#940 = CIRCLE ( 'NONE', #29, 24.00000000001794476 ) ;
#941 = ORIENTED_EDGE ( 'NONE', *, *, #453, .T. ) ;
#942 = FACE_BOUND ( 'NONE', #948, .T. ) ;
#943 = CIRCLE ( 'NONE', #432, 2.100000000000000977 ) ;
#944 = CARTESIAN_POINT ( 'NONE',  ( 9.249999999999795719, 16.02146997001223383, 13.54999999999999893 ) ) ;
#945 = AXIS2_PLACEMENT_3D ( 'NONE', #1024, #596, #712 ) ;
#946 = CARTESIAN_POINT ( 'NONE',  ( 7.149999999999995026, -16.02146997001212014, 24.00000000000000000 ) ) ;
#947 = CARTESIAN_POINT ( 'NONE',  ( 24.00000000001794476, 0.000000000000000000, 2.349999999999999645 ) ) ;
#948 = EDGE_LOOP ( 'NONE', ( #990, #867 ) ) ;
#949 = DIRECTION ( 'NONE',  ( -0.000000000000000000, -0.000000000000000000, 1.000000000000000000 ) ) ;
#950 = AXIS2_PLACEMENT_3D ( 'NONE', #557, #567, #958 ) ;
#951 = CARTESIAN_POINT ( 'NONE',  ( 21.98999999999999844, 0.000000000000000000, -61.36132603554181486 ) ) ;
#952 = VERTEX_POINT ( 'NONE', #1112 ) ;
#953 = CARTESIAN_POINT ( 'NONE',  ( 0.000000000000000000, 0.000000000000000000, 9.350000000000001421 ) ) ;
#954 = VERTEX_POINT ( 'NONE', #903 ) ;
#955 = VERTEX_POINT ( 'NONE', #1092 ) ;
#956 = CARTESIAN_POINT ( 'NONE',  ( -22.48499999999999943, 0.000000000000000000, 9.350000000000001421 ) ) ;
#957 = AXIS2_PLACEMENT_3D ( 'NONE', #1151, #91, #783 ) ;
#958 = DIRECTION ( 'NONE',  ( 1.000000000000000000, 0.000000000000000000, 0.000000000000000000 ) ) ;
#959 = ORIENTED_EDGE ( 'NONE', *, *, #363, .T. ) ;
#960 = FACE_OUTER_BOUND ( 'NONE', #1177, .T. ) ;
#961 = AXIS2_PLACEMENT_3D ( 'NONE', #317, #611, #505 ) ;
#962 = DIRECTION ( 'NONE',  ( -0.000000000000000000, -0.000000000000000000, -1.000000000000000000 ) ) ;
#963 = VERTEX_POINT ( 'NONE', #894 ) ;
#964 = EDGE_CURVE ( 'NONE', #1182, #268, #793, .T. ) ;
#965 = CARTESIAN_POINT ( 'NONE',  ( -9.860761315262647568E-29, 18.50000000000000355, 24.00000000000000000 ) ) ;
#966 = EDGE_CURVE ( 'NONE', #435, #1004, #205, .T. ) ;
#967 = MANIFOLD_SOLID_BREP ( '\X2\51f853f0\X0\-\X2\62c94f38\X0\4', #1123 ) ;
#968 = ORIENTED_EDGE ( 'NONE', *, *, #1146, .F. ) ;
#969 = CARTESIAN_POINT ( 'NONE',  ( -18.12146997001211801, 9.250000000000003553, 13.54999999999999893 ) ) ;
#970 = VECTOR ( 'NONE', #221, 1000.000000000000000 ) ;
#971 = VERTEX_POINT ( 'NONE', #534 ) ;
#972 = CARTESIAN_POINT ( 'NONE',  ( 24.49999999999999645, 3.000384657911015074E-15, 2.250000000000000000 ) ) ;
#973 = EDGE_LOOP ( 'NONE', ( #36, #834, #359, #817 ) ) ;
#974 = EDGE_CURVE ( 'NONE', #612, #105, #652, .T. ) ;
#975 = CIRCLE ( 'NONE', #1104, 2.100000000000000977 ) ;
#976 = DIRECTION ( 'NONE',  ( -1.000000000000000000, 0.000000000000000000, 0.000000000000000000 ) ) ;
#977 = EDGE_LOOP ( 'NONE', ( #306, #538, #128, #1267 ) ) ;
#978 = FACE_OUTER_BOUND ( 'NONE', #916, .T. ) ;
#979 = VECTOR ( 'NONE', #1094, 1000.000000000000000 ) ;
#980 = EDGE_LOOP ( 'NONE', ( #311, #600 ) ) ;
#981 = EDGE_CURVE ( 'NONE', #857, #243, #1048, .T. ) ;
#982 = EDGE_CURVE ( 'NONE', #285, #955, #58, .T. ) ;
#983 = CARTESIAN_POINT ( 'NONE',  ( 0.000000000000000000, 0.000000000000000000, 13.54999999999999893 ) ) ;
#984 = ORIENTED_EDGE ( 'NONE', *, *, #14, .T. ) ;
#985 = FACE_OUTER_BOUND ( 'NONE', #171, .T. ) ;
#986 = EDGE_LOOP ( 'NONE', ( #910, #465, #228, #571 ) ) ;
#987 = DIRECTION ( 'NONE',  ( -0.000000000000000000, -0.000000000000000000, -1.000000000000000000 ) ) ;
#988 = ORIENTED_EDGE ( 'NONE', *, *, #680, .F. ) ;
#989 = DIRECTION ( 'NONE',  ( 1.000000000000000000, 0.000000000000000000, 0.000000000000000000 ) ) ;
#990 = ORIENTED_EDGE ( 'NONE', *, *, #555, .F. ) ;
#991 = AXIS2_PLACEMENT_3D ( 'NONE', #316, #713, #1130 ) ;
#992 = FACE_OUTER_BOUND ( 'NONE', #1187, .T. ) ;
#993 = VERTEX_POINT ( 'NONE', #326 ) ;
#994 = DIRECTION ( 'NONE',  ( 1.000000000000000000, 0.000000000000000000, 0.000000000000000000 ) ) ;
#995 = VERTEX_POINT ( 'NONE', #610 ) ;
#996 = DIRECTION ( 'NONE',  ( -1.000000000000000000, 0.000000000000000000, 0.000000000000000000 ) ) ;
#997 = EDGE_CURVE ( 'NONE', #1291, #971, #819, .T. ) ;
#998 = AXIS2_PLACEMENT_3D ( 'NONE', #547, #247, #364 ) ;
#999 = ORIENTED_EDGE ( 'NONE', *, *, #1300, .F. ) ;
#1000 = CYLINDRICAL_SURFACE ( 'NONE', #1159, 2.100000000000000977 ) ;
#1001 = EDGE_LOOP ( 'NONE', ( #474, #1121 ) ) ;
#1002 = CARTESIAN_POINT ( 'NONE',  ( -2.100000000000000533, 18.50000000000000355, 0.000000000000000000 ) ) ;
#1003 = VECTOR ( 'NONE', #328, 1000.000000000000000 ) ;
#1004 = VERTEX_POINT ( 'NONE', #1137 ) ;
#1005 = CARTESIAN_POINT ( 'NONE',  ( -18.50000000000000355, 1.132798289211179030E-15, 24.00000000000000000 ) ) ;
#1006 = ORIENTED_EDGE ( 'NONE', *, *, #621, .T. ) ;
#1007 = EDGE_CURVE ( 'NONE', #191, #1221, #332, .T. ) ;
#1008 = CARTESIAN_POINT ( 'NONE',  ( 7.149999999999795186, 16.02146997001223383, 13.54999999999999893 ) ) ;
#1009 = DIRECTION ( 'NONE',  ( 1.000000000000000000, 0.000000000000000000, 0.000000000000000000 ) ) ;
#1010 = FACE_OUTER_BOUND ( 'NONE', #1199, .T. ) ;
#1011 = AXIS2_PLACEMENT_3D ( 'NONE', #530, #614, #841 ) ;
#1012 = CIRCLE ( 'NONE', #441, 24.00000000001794476 ) ;
#1013 = VERTEX_POINT ( 'NONE', #1053 ) ;
#1014 = CIRCLE ( 'NONE', #253, 2.100000000000000977 ) ;
#1015 = CARTESIAN_POINT ( 'NONE',  ( 13.92146997001199971, 9.250000000000182965, 0.000000000000000000 ) ) ;
#1016 = CARTESIAN_POINT ( 'NONE',  ( -16.02146997001211659, 9.250000000000003553, 0.000000000000000000 ) ) ;
#1017 = LINE ( 'NONE', #1241, #1312 ) ;
#1018 = EDGE_LOOP ( 'NONE', ( #785, #357 ) ) ;
#1019 = FACE_BOUND ( 'NONE', #980, .T. ) ;
#1020 = DIRECTION ( 'NONE',  ( -0.000000000000000000, -0.000000000000000000, -1.000000000000000000 ) ) ;
#1021 = EDGE_CURVE ( 'NONE', #578, #736, #525, .T. ) ;
#1022 = CARTESIAN_POINT ( 'NONE',  ( -7.150000000000007461, -16.02146997001211659, 13.54999999999999893 ) ) ;
#1023 = COLOUR_RGB ( '',0.7921568627450980005, 0.8196078431372548767, 0.9333333333333333481 ) ;
#1024 = CARTESIAN_POINT ( 'NONE',  ( -9.860761315262647568E-29, 18.50000000000000355, 24.00000000000000000 ) ) ;
#1025 =( NAMED_UNIT ( * ) SI_UNIT ( $, .STERADIAN. ) SOLID_ANGLE_UNIT ( ) );
#1026 = CARTESIAN_POINT ( 'NONE',  ( 11.34999999999999787, -16.02146997001212014, 13.54999999999999893 ) ) ;
#1027 = EDGE_CURVE ( 'NONE', #53, #963, #461, .T. ) ;
#1028 = DIRECTION ( 'NONE',  ( 0.000000000000000000, 0.000000000000000000, 1.000000000000000000 ) ) ;
#1029 = CARTESIAN_POINT ( 'NONE',  ( -9.250000000000008882, -16.02146997001211659, 24.00000000000000000 ) ) ;
#1030 = LINE ( 'NONE', #515, #846 ) ;
#1031 = AXIS2_PLACEMENT_3D ( 'NONE', #879, #660, #78 ) ;
#1032 = CARTESIAN_POINT ( 'NONE',  ( -9.250000000000008882, -16.02146997001211659, 24.00000000000000000 ) ) ;
#1033 = EDGE_CURVE ( 'NONE', #938, #993, #127, .T. ) ;
#1034 = DIRECTION ( 'NONE',  ( -0.000000000000000000, -0.000000000000000000, -1.000000000000000000 ) ) ;
#1035 = EDGE_CURVE ( 'NONE', #954, #270, #663, .T. ) ;
#1036 = DIRECTION ( 'NONE',  ( 0.000000000000000000, 0.000000000000000000, 1.000000000000000000 ) ) ;
#1037 = PRODUCT ( '\X2\5927517382828f74\X0\-1A', '\X2\5927517382828f74\X0\-1A', '', ( #303 ) ) ;
#1038 = CARTESIAN_POINT ( 'NONE',  ( 16.02146997001200290, 9.250000000000182965, 0.000000000000000000 ) ) ;
#1039 = AXIS2_PLACEMENT_3D ( 'NONE', #711, #1127, #813 ) ;
#1040 = EDGE_CURVE ( 'NONE', #1303, #578, #644, .T. ) ;
#1041 = CYLINDRICAL_SURFACE ( 'NONE', #504, 24.49999999999999645 ) ;
#1042 = CARTESIAN_POINT ( 'NONE',  ( 0.000000000000000000, 0.000000000000000000, 0.000000000000000000 ) ) ;
#1043 = EDGE_CURVE ( 'NONE', #64, #864, #230, .T. ) ;
#1044 = ORIENTED_EDGE ( 'NONE', *, *, #839, .T. ) ;
#1045 = AXIS2_PLACEMENT_3D ( 'NONE', #1168, #446, #458 ) ;
#1046 = VECTOR ( 'NONE', #1306, 1000.000000000000000 ) ;
#1047 = DIRECTION ( 'NONE',  ( 1.000000000000000000, 0.000000000000000000, 0.000000000000000000 ) ) ;
#1048 = LINE ( 'NONE', #732, #449 ) ;
#1049 = AXIS2_PLACEMENT_3D ( 'NONE', #65, #189, #1198 ) ;
#1050 = DIRECTION ( 'NONE',  ( 0.000000000000000000, 0.000000000000000000, 1.000000000000000000 ) ) ;
#1051 = CARTESIAN_POINT ( 'NONE',  ( -7.150000000000017231, 16.02146997001210238, 13.54999999999999893 ) ) ;
#1052 = AXIS2_PLACEMENT_3D ( 'NONE', #196, #402, #1217 ) ;
#1053 = CARTESIAN_POINT ( 'NONE',  ( -22.48499999999999943, 0.000000000000000000, 2.349999999999999645 ) ) ;
#1054 = VERTEX_POINT ( 'NONE', #349 ) ;
#1055 = CARTESIAN_POINT ( 'NONE',  ( -2.100000000000000533, 18.50000000000000355, 13.54999999999999893 ) ) ;
#1056 = DIRECTION ( 'NONE',  ( 0.000000000000000000, 0.000000000000000000, -1.000000000000000000 ) ) ;
#1057 = ORIENTED_EDGE ( 'NONE', *, *, #21, .F. ) ;
#1058 = ADVANCED_FACE ( 'NONE', ( #38 ), #1041, .T. ) ;
#1059 = FACE_BOUND ( 'NONE', #56, .T. ) ;
#1060 = VECTOR ( 'NONE', #235, 1000.000000000000000 ) ;
#1061 = DIRECTION ( 'NONE',  ( 0.000000000000000000, 0.000000000000000000, -1.000000000000000000 ) ) ;
#1062 = CYLINDRICAL_SURFACE ( 'NONE', #746, 2.100000000000000533 ) ;
#1063 = EDGE_LOOP ( 'NONE', ( #1044, #824 ) ) ;
#1064 = AXIS2_PLACEMENT_3D ( 'NONE', #262, #59, #354 ) ;
#1065 = CARTESIAN_POINT ( 'NONE',  ( -18.50000000000000355, 1.132798289211179030E-15, 0.000000000000000000 ) ) ;
#1066 = CIRCLE ( 'NONE', #1201, 2.100000000000000977 ) ;
#1067 = EDGE_LOOP ( 'NONE', ( #203, #968 ) ) ;
#1068 = CARTESIAN_POINT ( 'NONE',  ( -2.265596578422505972E-15, -18.50000000000000355, 0.000000000000000000 ) ) ;
#1069 = VERTEX_POINT ( 'NONE', #31 ) ;
#1070 = ORIENTED_EDGE ( 'NONE', *, *, #673, .T. ) ;
#1071 = AXIS2_PLACEMENT_3D ( 'NONE', #85, #579, #464 ) ;
#1072 = DIRECTION ( 'NONE',  ( 1.000000000000000000, 0.000000000000000000, 0.000000000000000000 ) ) ;
#1073 = ORIENTED_EDGE ( 'NONE', *, *, #1126, .T. ) ;
#1074 = LINE ( 'NONE', #972, #792 ) ;
#1075 = EDGE_LOOP ( 'NONE', ( #883, #148 ) ) ;
#1076 = FACE_OUTER_BOUND ( 'NONE', #780, .T. ) ;
#1077 = CIRCLE ( 'NONE', #1261, 2.100000000000000533 ) ;
#1078 = ORIENTED_EDGE ( 'NONE', *, *, #1297, .T. ) ;
#1079 = DIRECTION ( 'NONE',  ( -0.000000000000000000, -0.000000000000000000, -1.000000000000000000 ) ) ;
#1080 = ORIENTED_EDGE ( 'NONE', *, *, #667, .T. ) ;
#1081 = EDGE_CURVE ( 'NONE', #173, #248, #1255, .T. ) ;
#1082 = CARTESIAN_POINT ( 'NONE',  ( -9.250000000000017764, 16.02146997001210238, 13.54999999999999893 ) ) ;
#1083 = EDGE_LOOP ( 'NONE', ( #1298, #788, #797, #1085 ) ) ;
#1084 = CARTESIAN_POINT ( 'NONE',  ( 0.000000000000000000, 0.000000000000000000, 2.349999999999999645 ) ) ;
#1085 = ORIENTED_EDGE ( 'NONE', *, *, #553, .T. ) ;
#1086 = ADVANCED_FACE ( 'NONE', ( #111, #960, #666, #755, #353, #878, #1184, #1295, #57, #1167, #370, #463, #1059, #762 ), #267, .T. ) ;
#1087 = DIRECTION ( 'NONE',  ( 1.000000000000000000, 0.000000000000000000, 0.000000000000000000 ) ) ;
#1088 = EDGE_LOOP ( 'NONE', ( #13, #670 ) ) ;
#1089 = DIRECTION ( 'NONE',  ( -1.000000000000000000, 0.000000000000000000, 0.000000000000000000 ) ) ;
#1090 = EDGE_CURVE ( 'NONE', #578, #1303, #98, .T. ) ;
#1091 = ORIENTED_EDGE ( 'NONE', *, *, #1273, .F. ) ;
#1092 = CARTESIAN_POINT ( 'NONE',  ( 21.98999999999999844, 0.000000000000000000, 9.349999999999997868 ) ) ;
#1093 = EDGE_CURVE ( 'NONE', #861, #582, #1224, .T. ) ;
#1094 = DIRECTION ( 'NONE',  ( -0.000000000000000000, -0.000000000000000000, -1.000000000000000000 ) ) ;
#1095 = VERTEX_POINT ( 'NONE', #791 ) ;
#1096 = CIRCLE ( 'NONE', #526, 2.100000000000000977 ) ;
#1097 = CARTESIAN_POINT ( 'NONE',  ( 20.60000000000000497, -3.141219039812839562E-15, 0.000000000000000000 ) ) ;
#1098 = PRODUCT_RELATED_PRODUCT_CATEGORY ( 'part', '', ( #1037 ) ) ;
#1099 = VERTEX_POINT ( 'NONE', #211 ) ;
#1100 = DIRECTION ( 'NONE',  ( 0.000000000000000000, 0.000000000000000000, 1.000000000000000000 ) ) ;
#1101 = CARTESIAN_POINT ( 'NONE',  ( 0.000000000000000000, 0.000000000000000000, 1.249999999999999778 ) ) ;
#1102 = DIRECTION ( 'NONE',  ( 1.000000000000000000, 0.000000000000000000, 0.000000000000000000 ) ) ;
#1103 = CIRCLE ( 'NONE', #647, 2.100000000000000977 ) ;
#1104 = AXIS2_PLACEMENT_3D ( 'NONE', #772, #586, #1320 ) ;
#1105 = VERTEX_POINT ( 'NONE', #632 ) ;
#1106 = LINE ( 'NONE', #172, #1046 ) ;
#1107 = EDGE_CURVE ( 'NONE', #612, #588, #1030, .T. ) ;
#1108 = VECTOR ( 'NONE', #777, 1000.000000000000000 ) ;
#1109 = VERTEX_POINT ( 'NONE', #842 ) ;
#1110 = EDGE_CURVE ( 'NONE', #580, #938, #1077, .T. ) ;
#1111 = SHAPE_DEFINITION_REPRESENTATION ( #431, #723 ) ;
#1112 = CARTESIAN_POINT ( 'NONE',  ( -20.60000000000000497, 1.132798289211179030E-15, 13.54999999999999893 ) ) ;
#1113 = DIRECTION ( 'NONE',  ( -0.000000000000000000, -0.000000000000000000, 1.000000000000000000 ) ) ;
#1114 = AXIS2_PLACEMENT_3D ( 'NONE', #701, #99, #721 ) ;
#1115 = CYLINDRICAL_SURFACE ( 'NONE', #494, 2.100000000000000977 ) ;
#1116 = VECTOR ( 'NONE', #503, 1000.000000000000000 ) ;
#1117 = ORIENTED_EDGE ( 'NONE', *, *, #658, .T. ) ;
#1118 = DIRECTION ( 'NONE',  ( -0.000000000000000000, -0.000000000000000000, -1.000000000000000000 ) ) ;
#1119 = DIRECTION ( 'NONE',  ( -1.000000000000000000, 0.000000000000000000, 0.000000000000000000 ) ) ;
#1120 = CARTESIAN_POINT ( 'NONE',  ( 0.000000000000000000, 0.000000000000000000, 2.349999999999999645 ) ) ;
#1121 = ORIENTED_EDGE ( 'NONE', *, *, #826, .F. ) ;
#1122 = FACE_BOUND ( 'NONE', #551, .T. ) ;
#1123 = CLOSED_SHELL ( 'NONE', ( #17, #769, #70, #324, #438, #475, #42, #664, #238, #236, #223, #1228, #847, #322, #52, #608, #730, #844, #1058, #79, #1256, #688, #527, #410, #1128, #782, #280, #754, #863, #1313, #702, #287, #341, #391, #1086, #401, #926, #10, #89 ) ) ;
#1124 = CIRCLE ( 'NONE', #549, 2.100000000000000977 ) ;
#1125 = CARTESIAN_POINT ( 'NONE',  ( 16.02146997001211304, -9.250000000000008882, 13.54999999999999893 ) ) ;
#1126 = EDGE_CURVE ( 'NONE', #1289, #378, #628, .T. ) ;
#1127 = DIRECTION ( 'NONE',  ( -0.000000000000000000, -0.000000000000000000, -1.000000000000000000 ) ) ;
#1128 = ADVANCED_FACE ( 'NONE', ( #919 ), #833, .F. ) ;
#1129 = CARTESIAN_POINT ( 'NONE',  ( 14.51999999999999957, 1.778187152361956765E-15, 0.000000000000000000 ) ) ;
#1130 = DIRECTION ( 'NONE',  ( 1.000000000000000000, 0.000000000000000000, 0.000000000000000000 ) ) ;
#1131 = DIRECTION ( 'NONE',  ( -0.000000000000000000, -0.000000000000000000, -1.000000000000000000 ) ) ;
#1132 = VERTEX_POINT ( 'NONE', #1022 ) ;
#1133 = CARTESIAN_POINT ( 'NONE',  ( 22.48499999999999943, 2.753618327882823419E-15, 9.350000000000001421 ) ) ;
#1134 = FACE_OUTER_BOUND ( 'NONE', #809, .T. ) ;
#1135 = LINE ( 'NONE', #219, #442 ) ;
#1136 = STYLED_ITEM ( 'NONE', ( #922 ), #967 ) ;
#1137 = CARTESIAN_POINT ( 'NONE',  ( -11.35000000000000853, -16.02146997001211659, 0.000000000000000000 ) ) ;
#1138 = DIRECTION ( 'NONE',  ( -0.000000000000000000, -0.000000000000000000, -1.000000000000000000 ) ) ;
#1139 = UNCERTAINTY_MEASURE_WITH_UNIT (LENGTH_MEASURE( 1.000000000000000082E-05 ), #420, 'distance_accuracy_value', 'NONE');
#1140 = EDGE_LOOP ( 'NONE', ( #476, #499 ) ) ;
#1141 = CYLINDRICAL_SURFACE ( 'NONE', #825, 2.100000000000000977 ) ;
#1142 = EDGE_CURVE ( 'NONE', #1321, #561, #751, .T. ) ;
#1143 = ORIENTED_EDGE ( 'NONE', *, *, #1148, .T. ) ;
#1144 = CARTESIAN_POINT ( 'NONE',  ( 9.249999999999996447, -16.02146997001212014, 0.000000000000000000 ) ) ;
#1145 = AXIS2_PLACEMENT_3D ( 'NONE', #1120, #2, #404 ) ;
#1146 = EDGE_CURVE ( 'NONE', #1099, #380, #1014, .T. ) ;
#1147 = CARTESIAN_POINT ( 'NONE',  ( -2.100000000000002753, -18.50000000000000355, 24.00000000000000000 ) ) ;
#1148 = EDGE_CURVE ( 'NONE', #1095, #69, #827, .T. ) ;
#1149 = ORIENTED_EDGE ( 'NONE', *, *, #107, .T. ) ;
#1150 = CARTESIAN_POINT ( 'NONE',  ( 16.02146997001211304, -9.250000000000008882, 24.00000000000000000 ) ) ;
#1151 = CARTESIAN_POINT ( 'NONE',  ( 18.50000000000000355, -3.398394867633783610E-15, 13.54999999999999893 ) ) ;
#1152 = DIRECTION ( 'NONE',  ( -0.000000000000000000, -0.000000000000000000, -1.000000000000000000 ) ) ;
#1153 = VECTOR ( 'NONE', #1229, 1000.000000000000000 ) ;
#1154 = LINE ( 'NONE', #204, #180 ) ;
#1155 = AXIS2_PLACEMENT_3D ( 'NONE', #1248, #118, #718 ) ;
#1156 = DIRECTION ( 'NONE',  ( -0.000000000000000000, -0.000000000000000000, -1.000000000000000000 ) ) ;
#1157 = DIRECTION ( 'NONE',  ( -1.000000000000000000, 0.000000000000000000, 0.000000000000000000 ) ) ;
#1158 = EDGE_LOOP ( 'NONE', ( #60, #46, #1316, #443 ) ) ;
#1159 = AXIS2_PLACEMENT_3D ( 'NONE', #479, #801, #385 ) ;
#1160 = DIRECTION ( 'NONE',  ( 1.000000000000000000, 0.000000000000000000, 0.000000000000000000 ) ) ;
#1161 = AXIS2_PLACEMENT_3D ( 'NONE', #690, #1212, #1102 ) ;
#1162 = DIRECTION ( 'NONE',  ( -0.000000000000000000, -0.000000000000000000, -1.000000000000000000 ) ) ;
#1163 = CARTESIAN_POINT ( 'NONE',  ( -16.02146997001212014, -9.249999999999998224, 13.54999999999999893 ) ) ;
#1164 = EDGE_CURVE ( 'NONE', #378, #1289, #318, .T. ) ;
#1165 = ORIENTED_EDGE ( 'NONE', *, *, #673, .F. ) ;
#1166 = CIRCLE ( 'NONE', #1052, 24.00000000001794476 ) ;
#1167 = FACE_BOUND ( 'NONE', #753, .T. ) ;
#1168 = CARTESIAN_POINT ( 'NONE',  ( 18.50000000000000355, -3.398394867633783610E-15, 0.000000000000000000 ) ) ;
#1169 = DIRECTION ( 'NONE',  ( -1.000000000000000000, 0.000000000000000000, 0.000000000000000000 ) ) ;
#1170 = EDGE_CURVE ( 'NONE', #952, #802, #1135, .T. ) ;
#1171 = ORIENTED_EDGE ( 'NONE', *, *, #1271, .T. ) ;
#1172 = AXIS2_PLACEMENT_3D ( 'NONE', #1230, #331, #928 ) ;
#1173 = EDGE_CURVE ( 'NONE', #1054, #82, #23, .T. ) ;
#1174 = DIRECTION ( 'NONE',  ( -0.000000000000000000, -0.000000000000000000, -1.000000000000000000 ) ) ;
#1175 = ORIENTED_EDGE ( 'NONE', *, *, #599, .T. ) ;
#1176 = DIRECTION ( 'NONE',  ( -0.000000000000000000, -0.000000000000000000, -1.000000000000000000 ) ) ;
#1177 = EDGE_LOOP ( 'NONE', ( #1308, #558 ) ) ;
#1178 = AXIS2_PLACEMENT_3D ( 'NONE', #565, #358, #350 ) ;
#1179 = VECTOR ( 'NONE', #1174, 1000.000000000000000 ) ;
#1180 = DIRECTION ( 'NONE',  ( -0.000000000000000000, -0.000000000000000000, 1.000000000000000000 ) ) ;
#1181 = DIRECTION ( 'NONE',  ( -1.000000000000000000, 0.000000000000000000, 0.000000000000000000 ) ) ;
#1182 = VERTEX_POINT ( 'NONE', #426 ) ;
#1183 = AXIS2_PLACEMENT_3D ( 'NONE', #816, #320, #225 ) ;
#1184 = FACE_BOUND ( 'NONE', #1088, .T. ) ;
#1185 = CYLINDRICAL_SURFACE ( 'NONE', #1031, 24.49999999999999645 ) ;
#1186 = EDGE_CURVE ( 'NONE', #561, #86, #1154, .T. ) ;
#1187 = EDGE_LOOP ( 'NONE', ( #708, #811, #1070, #132 ) ) ;
#1188 = DIRECTION ( 'NONE',  ( 1.000000000000000000, 0.000000000000000000, 0.000000000000000000 ) ) ;
#1189 = ORIENTED_EDGE ( 'NONE', *, *, #193, .T. ) ;
#1190 = CARTESIAN_POINT ( 'NONE',  ( 0.000000000000000000, 0.000000000000000000, 1.249999999999999778 ) ) ;
#1191 = AXIS2_PLACEMENT_3D ( 'NONE', #1144, #731, #37 ) ;
#1192 = EDGE_LOOP ( 'NONE', ( #795, #747, #51, #508 ) ) ;
#1193 = EDGE_CURVE ( 'NONE', #248, #82, #164, .T. ) ;
#1194 = CARTESIAN_POINT ( 'NONE',  ( 11.34999999999979714, 16.02146997001223383, 24.00000000000000000 ) ) ;
#1195 = ORIENTED_EDGE ( 'NONE', *, *, #207, .T. ) ;
#1196 = CARTESIAN_POINT ( 'NONE',  ( 16.40000000000000213, -3.398394867633783610E-15, 24.00000000000000000 ) ) ;
#1197 = FACE_OUTER_BOUND ( 'NONE', #1213, .T. ) ;
#1198 = DIRECTION ( 'NONE',  ( -1.000000000000000000, 0.000000000000000000, 0.000000000000000000 ) ) ;
#1199 = EDGE_LOOP ( 'NONE', ( #506, #495, #372, #368 ) ) ;
#1200 = DIRECTION ( 'NONE',  ( -1.000000000000000000, 0.000000000000000000, 0.000000000000000000 ) ) ;
#1201 = AXIS2_PLACEMENT_3D ( 'NONE', #119, #814, #1233 ) ;
#1202 = EDGE_CURVE ( 'NONE', #864, #1319, #295, .T. ) ;
#1203 = ORIENTED_EDGE ( 'NONE', *, *, #1173, .F. ) ;
#1204 = CYLINDRICAL_SURFACE ( 'NONE', #281, 24.00000000001794476 ) ;
#1205 = DIRECTION ( 'NONE',  ( 1.000000000000000000, 0.000000000000000000, 0.000000000000000000 ) ) ;
#1206 = VECTOR ( 'NONE', #1309, 1000.000000000000000 ) ;
#1207 = ORIENTED_EDGE ( 'NONE', *, *, #1081, .F. ) ;
#1208 = DIRECTION ( 'NONE',  ( -1.000000000000000000, 0.000000000000000000, 0.000000000000000000 ) ) ;
#1209 = ORIENTED_EDGE ( 'NONE', *, *, #154, .T. ) ;
#1210 = EDGE_CURVE ( 'NONE', #1105, #1004, #929, .T. ) ;
#1211 = EDGE_CURVE ( 'NONE', #1221, #268, #1096, .T. ) ;
#1212 = DIRECTION ( 'NONE',  ( 0.000000000000000000, 0.000000000000000000, 1.000000000000000000 ) ) ;
#1213 = EDGE_LOOP ( 'NONE', ( #737, #668, #335, #298 ) ) ;
#1214 = AXIS2_PLACEMENT_3D ( 'NONE', #546, #8, #836 ) ;
#1215 = CYLINDRICAL_SURFACE ( 'NONE', #137, 2.100000000000000977 ) ;
#1216 = ORIENTED_EDGE ( 'NONE', *, *, #1294, .F. ) ;
#1217 = DIRECTION ( 'NONE',  ( 1.000000000000000000, 0.000000000000000000, 0.000000000000000000 ) ) ;
#1218 = DIRECTION ( 'NONE',  ( -0.000000000000000000, -0.000000000000000000, 1.000000000000000000 ) ) ;
#1219 = CARTESIAN_POINT ( 'NONE',  ( -16.02146997001211659, 9.250000000000003553, 24.00000000000000000 ) ) ;
#1220 = VECTOR ( 'NONE', #93, 1000.000000000000000 ) ;
#1221 = VERTEX_POINT ( 'NONE', #1015 ) ;
#1222 = DIRECTION ( 'NONE',  ( 1.000000000000000000, 0.000000000000000000, -0.000000000000000000 ) ) ;
#1223 = ORIENTED_EDGE ( 'NONE', *, *, #655, .T. ) ;
#1224 = LINE ( 'NONE', #1196, #481 ) ;
#1225 = CARTESIAN_POINT ( 'NONE',  ( 18.50000000000000355, -3.398394867633783610E-15, 13.54999999999999893 ) ) ;
#1226 = ORIENTED_EDGE ( 'NONE', *, *, #146, .T. ) ;
#1227 = DIRECTION ( 'NONE',  ( 1.000000000000000000, 0.000000000000000000, 0.000000000000000000 ) ) ;
#1228 = ADVANCED_FACE ( 'NONE', ( #531 ), #509, .F. ) ;
#1229 = DIRECTION ( 'NONE',  ( -0.000000000000000000, -0.000000000000000000, -1.000000000000000000 ) ) ;
#1230 = CARTESIAN_POINT ( 'NONE',  ( 16.02146997001211304, -9.250000000000008882, 0.000000000000000000 ) ) ;
#1231 = DIRECTION ( 'NONE',  ( -1.000000000000000000, 0.000000000000000000, 0.000000000000000000 ) ) ;
#1232 = DIRECTION ( 'NONE',  ( -1.000000000000000000, 0.000000000000000000, 0.000000000000000000 ) ) ;
#1233 = DIRECTION ( 'NONE',  ( 1.000000000000000000, 0.000000000000000000, 0.000000000000000000 ) ) ;
#1234 = ORIENTED_EDGE ( 'NONE', *, *, #154, .F. ) ;
#1235 = FACE_BOUND ( 'NONE', #389, .T. ) ;
#1236 = VECTOR ( 'NONE', #627, 1000.000000000000000 ) ;
#1237 = ORIENTED_EDGE ( 'NONE', *, *, #808, .F. ) ;
#1238 = DIRECTION ( 'NONE',  ( -1.000000000000000000, 0.000000000000000000, 0.000000000000000000 ) ) ;
#1239 = CARTESIAN_POINT ( 'NONE',  ( 2.100000000000000533, 18.50000000000000355, 13.54999999999999893 ) ) ;
#1240 =( NAMED_UNIT ( * ) PLANE_ANGLE_UNIT ( ) SI_UNIT ( $, .RADIAN. ) );
#1241 = CARTESIAN_POINT ( 'NONE',  ( -7.150000000000007461, -16.02146997001211659, 24.00000000000000000 ) ) ;
#1242 = ORIENTED_EDGE ( 'NONE', *, *, #161, .F. ) ;
#1243 = AXIS2_PLACEMENT_3D ( 'NONE', #158, #43, #342 ) ;
#1244 = DIRECTION ( 'NONE',  ( -0.000000000000000000, -0.000000000000000000, 1.000000000000000000 ) ) ;
#1245 = DIRECTION ( 'NONE',  ( -0.000000000000000000, -0.000000000000000000, -1.000000000000000000 ) ) ;
#1246 = MECHANICAL_DESIGN_GEOMETRIC_PRESENTATION_REPRESENTATION (  '', ( #1136 ), #217 ) ;
#1247 = EDGE_CURVE ( 'NONE', #1109, #66, #687, .T. ) ;
#1248 = CARTESIAN_POINT ( 'NONE',  ( 0.000000000000000000, 0.000000000000000000, 9.349999999999997868 ) ) ;
#1249 = ORIENTED_EDGE ( 'NONE', *, *, #1027, .F. ) ;
#1250 = CARTESIAN_POINT ( 'NONE',  ( -11.35000000000001918, 16.02146997001210238, 0.000000000000000000 ) ) ;
#1251 = AXIS2_PLACEMENT_3D ( 'NONE', #399, #592, #671 ) ;
#1252 = FACE_OUTER_BOUND ( 'NONE', #346, .T. ) ;
#1253 = CARTESIAN_POINT ( 'NONE',  ( -24.00000000001794476, 2.939152317955845266E-15, 1.249999999999999778 ) ) ;
#1254 = AXIS2_PLACEMENT_3D ( 'NONE', #597, #807, #618 ) ;
#1255 = LINE ( 'NONE', #239, #1325 ) ;
#1256 = ADVANCED_FACE ( 'NONE', ( #609 ), #717, .F. ) ;
#1257 = EDGE_CURVE ( 'NONE', #766, #155, #689, .T. ) ;
#1258 = DIRECTION ( 'NONE',  ( -0.000000000000000000, -0.000000000000000000, -1.000000000000000000 ) ) ;
#1259 = ORIENTED_EDGE ( 'NONE', *, *, #839, .F. ) ;
#1260 = CARTESIAN_POINT ( 'NONE',  ( 2.099999999999998757, -18.50000000000000355, 24.00000000000000000 ) ) ;
#1261 = AXIS2_PLACEMENT_3D ( 'NONE', #540, #724, #607 ) ;
#1262 = CARTESIAN_POINT ( 'NONE',  ( 0.000000000000000000, 0.000000000000000000, 0.000000000000000000 ) ) ;
#1263 = PRODUCT_DEFINITION_CONTEXT ( 'detailed design', #828, 'design' ) ;
#1264 = EDGE_LOOP ( 'NONE', ( #881, #630 ) ) ;
#1265 = DIRECTION ( 'NONE',  ( -1.000000000000000000, 0.000000000000000000, 0.000000000000000000 ) ) ;
#1266 = DIRECTION ( 'NONE',  ( -1.000000000000000000, 0.000000000000000000, 0.000000000000000000 ) ) ;
#1267 = ORIENTED_EDGE ( 'NONE', *, *, #1211, .T. ) ;
#1268 = AXIS2_PLACEMENT_3D ( 'NONE', #1101, #821, #1160 ) ;
#1269 = ORIENTED_EDGE ( 'NONE', *, *, #552, .T. ) ;
#1270 = CARTESIAN_POINT ( 'NONE',  ( -24.49999999999999645, 0.000000000000000000, 0.000000000000000000 ) ) ;
#1271 = EDGE_CURVE ( 'NONE', #69, #573, #1166, .T. ) ;
#1272 = DIRECTION ( 'NONE',  ( 0.000000000000000000, 0.000000000000000000, -1.000000000000000000 ) ) ;
#1273 = EDGE_CURVE ( 'NONE', #155, #802, #1296, .T. ) ;
#1274 = ORIENTED_EDGE ( 'NONE', *, *, #49, .F. ) ;
#1275 =( GEOMETRIC_REPRESENTATION_CONTEXT ( 3 ) GLOBAL_UNCERTAINTY_ASSIGNED_CONTEXT ( ( #620 ) ) GLOBAL_UNIT_ASSIGNED_CONTEXT ( ( #110, #294, #488 ) ) REPRESENTATION_CONTEXT ( 'NONE', 'WORKASPACE' ) );
#1276 = AXIS2_PLACEMENT_3D ( 'NONE', #249, #1176, #550 ) ;
#1277 = ORIENTED_EDGE ( 'NONE', *, *, #532, .F. ) ;
#1278 = LINE ( 'NONE', #750, #1179 ) ;
#1279 = ORIENTED_EDGE ( 'NONE', *, *, #1257, .T. ) ;
#1280 = CARTESIAN_POINT ( 'NONE',  ( 16.02146997001200290, 9.250000000000182965, 13.54999999999999893 ) ) ;
#1281 = ORIENTED_EDGE ( 'NONE', *, *, #763, .T. ) ;
#1282 = DIRECTION ( 'NONE',  ( -0.000000000000000000, -0.000000000000000000, -1.000000000000000000 ) ) ;
#1283 = CARTESIAN_POINT ( 'NONE',  ( -9.860761315262647568E-29, 18.50000000000000355, 0.000000000000000000 ) ) ;
#1284 = ORIENTED_EDGE ( 'NONE', *, *, #1043, .T. ) ;
#1285 = CIRCLE ( 'NONE', #1064, 24.49999999999999645 ) ;
#1286 = AXIS2_PLACEMENT_3D ( 'NONE', #562, #460, #40 ) ;
#1287 = EDGE_CURVE ( 'NONE', #250, #931, #820, .T. ) ;
#1288 = AXIS2_PLACEMENT_3D ( 'NONE', #584, #794, #989 ) ;
#1289 = VERTEX_POINT ( 'NONE', #1008 ) ;
#1290 = CYLINDRICAL_SURFACE ( 'NONE', #519, 2.100000000000000977 ) ;
#1291 = VERTEX_POINT ( 'NONE', #1129 ) ;
#1292 = CARTESIAN_POINT ( 'NONE',  ( 0.000000000000000000, 0.000000000000000000, 9.349999999999997868 ) ) ;
#1293 = ORIENTED_EDGE ( 'NONE', *, *, #125, .T. ) ;
#1294 = EDGE_CURVE ( 'NONE', #423, #250, #197, .T. ) ;
#1295 = FACE_BOUND ( 'NONE', #905, .T. ) ;
#1296 = CIRCLE ( 'NONE', #114, 2.100000000000000977 ) ;
#1297 = EDGE_CURVE ( 'NONE', #105, #612, #226, .T. ) ;
#1298 = ORIENTED_EDGE ( 'NONE', *, *, #384, .F. ) ;
#1299 = DIRECTION ( 'NONE',  ( -0.000000000000000000, -0.000000000000000000, -1.000000000000000000 ) ) ;
#1300 = EDGE_CURVE ( 'NONE', #86, #1069, #473, .T. ) ;
#1301 = ORIENTED_EDGE ( 'NONE', *, *, #835, .T. ) ;
#1302 = CARTESIAN_POINT ( 'NONE',  ( -16.02146997001211659, 9.250000000000003553, 24.00000000000000000 ) ) ;
#1303 = VERTEX_POINT ( 'NONE', #1239 ) ;
#1304 = CARTESIAN_POINT ( 'NONE',  ( 0.000000000000000000, 0.000000000000000000, 9.350000000000001421 ) ) ;
#1305 = ORIENTED_EDGE ( 'NONE', *, *, #982, .F. ) ;
#1306 = DIRECTION ( 'NONE',  ( -0.000000000000000000, -0.000000000000000000, -1.000000000000000000 ) ) ;
#1307 = ORIENTED_EDGE ( 'NONE', *, *, #568, .T. ) ;
#1308 = ORIENTED_EDGE ( 'NONE', *, *, #745, .T. ) ;
#1309 = DIRECTION ( 'NONE',  ( -0.000000000000000000, -0.000000000000000000, -1.000000000000000000 ) ) ;
#1310 = EDGE_LOOP ( 'NONE', ( #1080, #215 ) ) ;
#1311 = CARTESIAN_POINT ( 'NONE',  ( -21.98999999999999844, 2.692998311325029237E-15, 9.349999999999997868 ) ) ;
#1312 = VECTOR ( 'NONE', #9, 1000.000000000000000 ) ;
#1313 = ADVANCED_FACE ( 'NONE', ( #315 ), #497, .F. ) ;
#1314 = ORIENTED_EDGE ( 'NONE', *, *, #1287, .F. ) ;
#1315 = CARTESIAN_POINT ( 'NONE',  ( -16.40000000000000213, 1.389974117032123275E-15, 24.00000000000000000 ) ) ;
#1316 = ORIENTED_EDGE ( 'NONE', *, *, #95, .T. ) ;
#1317 = CARTESIAN_POINT ( 'NONE',  ( 22.48499999999999943, 2.753618327882823419E-15, 2.349999999999999645 ) ) ;
#1318 = AXIS2_PLACEMENT_3D ( 'NONE', #822, #112, #1009 ) ;
#1319 = VERTEX_POINT ( 'NONE', #902 ) ;
#1320 = DIRECTION ( 'NONE',  ( 1.000000000000000000, 0.000000000000000000, 0.000000000000000000 ) ) ;
#1321 = VERTEX_POINT ( 'NONE', #1322 ) ;
#1322 = CARTESIAN_POINT ( 'NONE',  ( -13.92146997001211517, 9.250000000000003553, 13.54999999999999893 ) ) ;
#1323 = FACE_OUTER_BOUND ( 'NONE', #544, .T. ) ;
#1324 = ORIENTED_EDGE ( 'NONE', *, *, #790, .F. ) ;
#1325 = VECTOR ( 'NONE', #845, 1000.000000000000000 ) ;
#1326 = DIRECTION ( 'NONE',  ( -1.000000000000000000, 0.000000000000000000, 0.000000000000000000 ) ) ;
#1327 = ORIENTED_EDGE ( 'NONE', *, *, #33, .T. ) ;
ENDSEC;
END-ISO-10303-21;
