ISO-10303-21;
HEADER;
FILE_DESCRIPTION (( 'STEP AP214' ),
    '1' );
FILE_NAME ('´ó¹Ø½ÚÖá¸ÄA.STEP',
    '2026-08-16T17:26:54',
    ( '' ),
    ( '' ),
    'SwSTEP 2.0',
    'SolidWorks 2025',
    '' );
FILE_SCHEMA (( 'AUTOMOTIVE_DESIGN' ));
ENDSEC;

DATA;
#1 =( NAMED_UNIT ( * ) PLANE_ANGLE_UNIT ( ) SI_UNIT ( $, .RADIAN. ) );
#2 = CONTEXT_DEPENDENT_SHAPE_REPRESENTATION ( #391, #74 ) ;
#3 =( GEOMETRIC_REPRESENTATION_CONTEXT ( 3 ) GLOBAL_UNCERTAINTY_ASSIGNED_CONTEXT ( ( #102 ) ) GLOBAL_UNIT_ASSIGNED_CONTEXT ( ( #247, #151, #93 ) ) REPRESENTATION_CONTEXT ( 'NONE', 'WORKASPACE' ) );
#4 = IDENTIFICATION_ROLE ( 'external document id and location', $) ;
#5 = PRODUCT ( '\X2\5927517382828f74\X0\-\X2\6cd55170\X0\A', '\X2\5927517382828f74\X0\-\X2\6cd55170\X0\A', '', ( #29 ) ) ;
#6 = UNCERTAINTY_MEASURE_WITH_UNIT (LENGTH_MEASURE( 1.000000000000000082E-05 ), #100, 'distance_accuracy_value', 'NONE');
#7 = CONTEXT_DEPENDENT_SHAPE_REPRESENTATION ( #20, #134 ) ;
#8 = PRODUCT_RELATED_PRODUCT_CATEGORY ( 'part', '', ( #170 ) ) ;
#9 = APPLICATION_CONTEXT ( 'automotive_design' ) ;
#10 = ITEM_DEFINED_TRANSFORMATION ( 'NONE', 'NONE', #94,  #143 ) ;
#11 = UNCERTAINTY_MEASURE_WITH_UNIT (LENGTH_MEASURE( 1.000000000000000082E-05 ), #18, 'distance_accuracy_value', 'NONE');
#12 = APPLIED_DOCUMENT_REFERENCE ( #73,'',( #45) ) ;
#13 = APPLIED_EXTERNAL_IDENTIFICATION_ASSIGNMENT ( '\X2\5c0f817f\X0\A.STEP' , #382, #372,( #225) ) ;
#14 = DIRECTION ( 'NONE',  ( 1.000000000000000000, 0.000000000000000000, 0.000000000000000000 ) ) ;
#15 = PROPERTY_DEFINITION ('document property','', #225 ) ;
#16 =( GEOMETRIC_REPRESENTATION_CONTEXT ( 3 ) GLOBAL_UNCERTAINTY_ASSIGNED_CONTEXT ( ( #6 ) ) GLOBAL_UNIT_ASSIGNED_CONTEXT ( ( #100, #162, #388 ) ) REPRESENTATION_CONTEXT ( 'NONE', 'WORKASPACE' ) );
#17 = DIRECTION ( 'NONE',  ( 0.000000000000000000, 0.000000000000000000, 1.000000000000000000 ) ) ;
#18 =( LENGTH_UNIT ( ) NAMED_UNIT ( * ) SI_UNIT ( .MILLI., .METRE. ) );
#19 = SHAPE_REPRESENTATION ( '\X2\5927817f4ece52a894fe8f6e\X0\aA', ( #149 ), #221 ) ;
#20 =( REPRESENTATION_RELATIONSHIP ('NONE','NONE', #205, #201 ) REPRESENTATION_RELATIONSHIP_WITH_TRANSFORMATION ( #377 )SHAPE_REPRESENTATION_RELATIONSHIP( ) );
#21 =( NAMED_UNIT ( * ) PLANE_ANGLE_UNIT ( ) SI_UNIT ( $, .RADIAN. ) );
#22 = APPLICATION_CONTEXT ( 'automotive_design' ) ;
#23 = AXIS2_PLACEMENT_3D ( 'NONE', #80, #318, #239 ) ;
#24 = ROLE_ASSOCIATION ( #295, #300 ) ;
#25 = APPLIED_EXTERNAL_IDENTIFICATION_ASSIGNMENT ( '\X2\5927517382828f74\X0\-4A.STEP' , #359, #127,( #167) ) ;
#26 = ITEM_DEFINED_TRANSFORMATION ( 'NONE', 'NONE', #57,  #394 ) ;
#27 = CARTESIAN_POINT ( 'NONE',  ( 0.000000000000000000, 0.000000000000000000, 0.000000000000000000 ) ) ;
#28 = PRODUCT_RELATED_PRODUCT_CATEGORY ( 'part', '', ( #5 ) ) ;
#29 = PRODUCT_CONTEXT ( 'NONE', #227, 'mechanical' ) ;
#30 =( NAMED_UNIT ( * ) PLANE_ANGLE_UNIT ( ) SI_UNIT ( $, .RADIAN. ) );
#31 = APPLICATION_PROTOCOL_DEFINITION ( 'draft international standard', 'automotive_design', 1998, #179 ) ;
#32 = APPLICATION_CONTEXT ( 'automotive_design' ) ;
#33 = DIRECTION ( 'NONE',  ( 1.000000000000000000, 0.000000000000000000, 0.000000000000000000 ) ) ;
#34 = APPLIED_EXTERNAL_IDENTIFICATION_ASSIGNMENT ( '\X2\5927517382828f7490e8592787ba6bcd\X0\A.STEP' , #82, #334,( #38) ) ;
#35 = SHAPE_DEFINITION_REPRESENTATION ( #234, #331 ) ;
#36 = PRODUCT_DEFINITION ( 'æ™', '', #171, #44 ) ;
#37 = PRODUCT_DEFINITION_SHAPE ( 'NONE', 'NONE',  #45 ) ;
#38 = DOCUMENT_FILE ( '\X2\5927517382828f7490e8592787ba6bcd\X0\A.STEP' , '', '', #110, '' ,$ ) ;
#39 =( REPRESENTATION_RELATIONSHIP ('NONE','NONE', #205, #19 ) REPRESENTATION_RELATIONSHIP_WITH_TRANSFORMATION ( #222 )SHAPE_REPRESENTATION_RELATIONSHIP( ) );
#40 = PROPERTY_DEFINITION ('external definition','', #225 ) ;
#41 = DIRECTION ( 'NONE',  ( 1.000000000000000000, 0.000000000000000000, 0.000000000000000000 ) ) ;
#42 = IDENTIFICATION_ROLE ( 'external document id and location', $) ;
#43 = AXIS2_PLACEMENT_3D ( 'NONE', #219, #160, #67 ) ;
#44 = PRODUCT_DEFINITION_CONTEXT ( 'detailed design', #389, 'design' ) ;
#45 = PRODUCT_DEFINITION ( 'æ™', '', #237, #380 ) ;
#46 = ROLE_ASSOCIATION ( #215, #257 ) ;
#47 = AXIS2_PLACEMENT_3D ( 'NONE', #76, #210, #320 ) ;
#48 = PRODUCT_DEFINITION_SHAPE ( 'NONE', 'NONE',  #117 ) ;
#49 = UNCERTAINTY_MEASURE_WITH_UNIT (LENGTH_MEASURE( 1.000000000000000082E-05 ), #338, 'distance_accuracy_value', 'NONE');
#50 = PRODUCT_DEFINITION_FORMATION_WITH_SPECIFIED_SOURCE ( 'å¯', '', #52, .NOT_KNOWN. ) ;
#51 = DIRECTION ( 'NONE',  ( -0.5381047955397143534, -0.06149068022447206489, 0.8406319796811765332 ) ) ;
#52 = PRODUCT ( '\X2\5927517382828f74\X0\-4A', '\X2\5927517382828f74\X0\-4A', '', ( #268 ) ) ;
#53 = DIRECTION ( 'NONE',  ( -0.8279972733886646896, -0.1480142921799548761, -0.5408440482906358149 ) ) ;
#54 = CARTESIAN_POINT ( 'NONE',  ( 49.44302185088228185, -64.35161298833430976, -149.5546540251324075 ) ) ;
#55 = APPLICATION_CONTEXT ( 'automotive_design' ) ;
#56 = CARTESIAN_POINT ( 'NONE',  ( 40.57005946042679767, -65.36589924583718414, -135.6924080996850250 ) ) ;
#57 = AXIS2_PLACEMENT_3D ( 'NONE', #172, #144, #114 ) ;
#58 =( NAMED_UNIT ( * ) SI_UNIT ( $, .STERADIAN. ) SOLID_ANGLE_UNIT ( ) );
#59 = APPLICATION_PROTOCOL_DEFINITION ( 'draft international standard', 'automotive_design', 1998, #91 ) ;
#60 = PROPERTY_DEFINITION_REPRESENTATION ( #166, #183 ) ;
#61 = PRODUCT ( '\X2\5927517382828f74\X0\-2A', '\X2\5927517382828f74\X0\-2A', '', ( #217 ) ) ;
#62 = ITEM_DEFINED_TRANSFORMATION ( 'NONE', 'NONE', #233,  #43 ) ;
#63 = PRODUCT_DEFINITION ( 'æ™', '', #290, #133 ) ;
#64 = PRODUCT_DEFINITION_FORMATION_WITH_SPECIFIED_SOURCE ( 'å¯', '', #170, .NOT_KNOWN. ) ;
#65 = DOCUMENT_TYPE ( 'geometry' ) ;
#66 = PROPERTY_DEFINITION_REPRESENTATION ( #265, #19 ) ;
#67 = DIRECTION ( 'NONE',  ( 1.000000000000000000, 0.000000000000000000, 0.000000000000000000 ) ) ;
#68 = PRODUCT_DEFINITION_SHAPE ( 'NONE', 'NONE',  #101 ) ;
#69 =( LENGTH_UNIT ( ) NAMED_UNIT ( * ) SI_UNIT ( .MILLI., .METRE. ) );
#70 =( REPRESENTATION_RELATIONSHIP ('NONE','NONE', #205, #238 ) REPRESENTATION_RELATIONSHIP_WITH_TRANSFORMATION ( #161 )SHAPE_REPRESENTATION_RELATIONSHIP( ) );
#71 = PROPERTY_DEFINITION_REPRESENTATION ( #345, #201 ) ;
#72 = UNCERTAINTY_MEASURE_WITH_UNIT (LENGTH_MEASURE( 1.000000000000000082E-05 ), #88, 'distance_accuracy_value', 'NONE');
#73 = DOCUMENT_FILE ( '\X2\5927817f4ece52a894fe8f6e\X0\aA.STEP' , '', '', #75, '' ,$ ) ;
#74 = PRODUCT_DEFINITION_SHAPE ( 'NONE', 'NONE',  #404 ) ;
#75 = DOCUMENT_TYPE ( 'geometry' ) ;
#76 = CARTESIAN_POINT ( 'NONE',  ( 35.45299430888082526, -65.95109725697506065, -127.6978294475157298 ) ) ;
#77 = OBJECT_ROLE ('mandatory',$ ) ;
#78 = CARTESIAN_POINT ( 'NONE',  ( 56.70813373266408774, -63.52221538776581156, -160.9027926449196002 ) ) ;
#79 = EXTERNAL_SOURCE (IDENTIFIER('') ) ;
#80 = CARTESIAN_POINT ( 'NONE',  ( 55.09381934605212194, -63.70668742850033084, -158.3808967058755570 ) ) ;
#81 = APPLIED_EXTERNAL_IDENTIFICATION_ASSIGNMENT ( '\X2\5927517382828f74\X0\-3A.STEP' , #106, #79,( #289) ) ;
#82 = IDENTIFICATION_ROLE ( 'external document id and location', $) ;
#83 = APPLICATION_PROTOCOL_DEFINITION ( 'draft international standard', 'automotive_design', 1998, #22 ) ;
#84 = AXIS2_PLACEMENT_3D ( 'NONE', #192, #109, #14 ) ;
#85 = SHAPE_DEFINITION_REPRESENTATION ( #126, #107 ) ;
#86 = CARTESIAN_POINT ( 'NONE',  ( 0.000000000000000000, 0.000000000000000000, 0.000000000000000000 ) ) ;
#87 = APPLICATION_PROTOCOL_DEFINITION ( 'draft international standard', 'automotive_design', 1998, #132 ) ;
#88 =( LENGTH_UNIT ( ) NAMED_UNIT ( * ) SI_UNIT ( .MILLI., .METRE. ) );
#89 = DOCUMENT_FILE ( '\X2\5927517382828f74\X0\-1A.STEP' , '', '', #158, '' ,$ ) ;
#90 =( NAMED_UNIT ( * ) SI_UNIT ( $, .STERADIAN. ) SOLID_ANGLE_UNIT ( ) );
#91 = APPLICATION_CONTEXT ( 'automotive_design' ) ;
#92 = APPLICATION_PROTOCOL_DEFINITION ( 'draft international standard', 'automotive_design', 1998, #389 ) ;
#93 =( NAMED_UNIT ( * ) SI_UNIT ( $, .STERADIAN. ) SOLID_ANGLE_UNIT ( ) );
#94 = AXIS2_PLACEMENT_3D ( 'NONE', #322, #317, #174 ) ;
#95 = APPLIED_DOCUMENT_REFERENCE ( #167,'',( #168) ) ;
#96 = APPLICATION_CONTEXT ( 'automotive_design' ) ;
#97 = UNCERTAINTY_MEASURE_WITH_UNIT (LENGTH_MEASURE( 1.000000000000000082E-05 ), #69, 'distance_accuracy_value', 'NONE');
#98 = PROPERTY_DEFINITION ('external definition','', #129 ) ;
#99 = APPLIED_DOCUMENT_REFERENCE ( #130,'',( #235) ) ;
#100 =( LENGTH_UNIT ( ) NAMED_UNIT ( * ) SI_UNIT ( .MILLI., .METRE. ) );
#101 = PRODUCT_DEFINITION ( 'æ™', '', #211, #260 ) ;
#102 = UNCERTAINTY_MEASURE_WITH_UNIT (LENGTH_MEASURE( 1.000000000000000082E-05 ), #247, 'distance_accuracy_value', 'NONE');
#103 = PROPERTY_DEFINITION_REPRESENTATION ( #226, #201 ) ;
#104 = PRODUCT_DEFINITION_SHAPE ( 'NONE', 'NONE',  #408 ) ;
#105 = APPLIED_EXTERNAL_IDENTIFICATION_ASSIGNMENT ( '\X2\5927517382828f74\X0\-2A.STEP' , #316, #355,( #130) ) ;
#106 = IDENTIFICATION_ROLE ( 'external document id and location', $) ;
#107 = SHAPE_REPRESENTATION ( '\X2\5927517382828f7490e8592787ba6bcd\X0\A', ( #341 ), #294 ) ;
#108 =( GEOMETRIC_REPRESENTATION_CONTEXT ( 3 ) GLOBAL_UNCERTAINTY_ASSIGNED_CONTEXT ( ( #49 ) ) GLOBAL_UNIT_ASSIGNED_CONTEXT ( ( #338, #242, #58 ) ) REPRESENTATION_CONTEXT ( 'NONE', 'WORKASPACE' ) );
#109 = DIRECTION ( 'NONE',  ( 0.000000000000000000, 0.000000000000000000, 1.000000000000000000 ) ) ;
#110 = DOCUMENT_TYPE ( 'geometry' ) ;
#111 = SHAPE_DEFINITION_REPRESENTATION ( #276, #205 ) ;
#112 = PRODUCT_RELATED_PRODUCT_CATEGORY ( 'part', '', ( #248 ) ) ;
#113 = APPLICATION_CONTEXT ( 'automotive_design' ) ;
#114 = DIRECTION ( 'NONE',  ( 0.6382254650771348459, 0.6217200187144639179, 0.4540181428718033096 ) ) ;
#115 = CONTEXT_DEPENDENT_SHAPE_REPRESENTATION ( #165, #224 ) ;
#116 = PRODUCT_DEFINITION_FORMATION_WITH_SPECIFIED_SOURCE ( 'å¯', '', #163, .NOT_KNOWN. ) ;
#117 = PRODUCT_DEFINITION ( 'æ™', '', #64, #291 ) ;
#118 = PROPERTY_DEFINITION_REPRESENTATION ( #98, #241 ) ;
#119 = AXIS2_PLACEMENT_3D ( 'NONE', #154, #272, #122 ) ;
#120 = OBJECT_ROLE ('mandatory',$ ) ;
#121 = PRODUCT_CONTEXT ( 'NONE', #297, 'mechanical' ) ;
#122 = DIRECTION ( 'NONE',  ( 1.000000000000000000, 0.000000000000000000, 0.000000000000000000 ) ) ;
#123 = PRODUCT_DEFINITION_SHAPE ( 'NONE', 'NONE',  #409 ) ;
#124 = PRODUCT_CONTEXT ( 'NONE', #179, 'mechanical' ) ;
#125 = APPLICATION_PROTOCOL_DEFINITION ( 'draft international standard', 'automotive_design', 1998, #362 ) ;
#126 = PRODUCT_DEFINITION_SHAPE ( 'NONE', 'NONE',  #342 ) ;
#127 = EXTERNAL_SOURCE (IDENTIFIER('') ) ;
#128 = CARTESIAN_POINT ( 'NONE',  ( 0.000000000000000000, 0.000000000000000000, 0.000000000000000000 ) ) ;
#129 = DOCUMENT_FILE ( '\X2\5927517382828f74\X0\-\X2\6cd55170\X0\A.STEP' , '', '', #271, '' ,$ ) ;
#130 = DOCUMENT_FILE ( '\X2\5927517382828f74\X0\-2A.STEP' , '', '', #65, '' ,$ ) ;
#131 =( NAMED_UNIT ( * ) PLANE_ANGLE_UNIT ( ) SI_UNIT ( $, .RADIAN. ) );
#132 = APPLICATION_CONTEXT ( 'automotive_design' ) ;
#133 = PRODUCT_DEFINITION_CONTEXT ( 'detailed design', #22, 'design' ) ;
#134 = PRODUCT_DEFINITION_SHAPE ( 'NONE', 'NONE',  #407 ) ;
#135 =( NAMED_UNIT ( * ) SI_UNIT ( $, .STERADIAN. ) SOLID_ANGLE_UNIT ( ) );
#136 = UNCERTAINTY_MEASURE_WITH_UNIT (LENGTH_MEASURE( 1.000000000000000082E-05 ), #356, 'distance_accuracy_value', 'NONE');
#137 = PROPERTY_DEFINITION_REPRESENTATION ( #293, #364 ) ;
#138 = IDENTIFICATION_ROLE ( 'external document id and location', $) ;
#139 = AXIS2_PLACEMENT_3D ( 'NONE', #395, #17, #262 ) ;
#140 = PROPERTY_DEFINITION_REPRESENTATION ( #357, #19 ) ;
#141 = DIRECTION ( 'NONE',  ( 1.000000000000000000, 0.000000000000000000, 0.000000000000000000 ) ) ;
#142 = PROPERTY_DEFINITION ('document property','', #218 ) ;
#143 = AXIS2_PLACEMENT_3D ( 'NONE', #374, #367, #197 ) ;
#144 = DIRECTION ( 'NONE',  ( 0.5381047955397151306, 0.06149068022447197468, -0.8406319796811758671 ) ) ;
#145 =( REPRESENTATION_RELATIONSHIP ('NONE','NONE', #205, #107 ) REPRESENTATION_RELATIONSHIP_WITH_TRANSFORMATION ( #228 )SHAPE_REPRESENTATION_RELATIONSHIP( ) );
#146 = DIRECTION ( 'NONE',  ( 0.8053437499253268683, -0.3318135292699794792, 0.4912445686718711624 ) ) ;
#147 = PRODUCT_RELATED_PRODUCT_CATEGORY ( 'part', '', ( #52 ) ) ;
#148 = DOCUMENT_TYPE ( 'geometry' ) ;
#149 = AXIS2_PLACEMENT_3D ( 'NONE', #284, #177, #261 ) ;
#150 = EXTERNAL_SOURCE (IDENTIFIER('') ) ;
#151 =( NAMED_UNIT ( * ) PLANE_ANGLE_UNIT ( ) SI_UNIT ( $, .RADIAN. ) );
#152 = DOCUMENT_TYPE ( 'geometry' ) ;
#153 = SHAPE_DEFINITION_REPRESENTATION ( #48, #201 ) ;
#154 = CARTESIAN_POINT ( 'NONE',  ( 0.000000000000000000, 0.000000000000000000, 0.000000000000000000 ) ) ;
#155 = PRODUCT_CONTEXT ( 'NONE', #91, 'mechanical' ) ;
#156 = SHAPE_DEFINITION_REPRESENTATION ( #37, #19 ) ;
#157 = PRODUCT_DEFINITION_SHAPE ( 'NONE', 'NONE',  #401 ) ;
#158 = DOCUMENT_TYPE ( 'geometry' ) ;
#159 = SHAPE_DEFINITION_REPRESENTATION ( #253, #364 ) ;
#160 = DIRECTION ( 'NONE',  ( 0.000000000000000000, 0.000000000000000000, 1.000000000000000000 ) ) ;
#161 = ITEM_DEFINED_TRANSFORMATION ( 'NONE', 'NONE', #313,  #353 ) ;
#162 =( NAMED_UNIT ( * ) PLANE_ANGLE_UNIT ( ) SI_UNIT ( $, .RADIAN. ) );
#163 = PRODUCT ( '\X2\5c0f817f\X0\A', '\X2\5c0f817f\X0\A', '', ( #245 ) ) ;
#164 = PROPERTY_DEFINITION_REPRESENTATION ( #40, #327 ) ;
#165 =( REPRESENTATION_RELATIONSHIP ('NONE','NONE', #205, #241 ) REPRESENTATION_RELATIONSHIP_WITH_TRANSFORMATION ( #62 )SHAPE_REPRESENTATION_RELATIONSHIP( ) );
#166 = PROPERTY_DEFINITION ('external definition','', #218 ) ;
#167 = DOCUMENT_FILE ( '\X2\5927517382828f74\X0\-4A.STEP' , '', '', #148, '' ,$ ) ;
#168 = PRODUCT_DEFINITION ( 'æ™', '', #50, #352 ) ;
#169 = UNCERTAINTY_MEASURE_WITH_UNIT (LENGTH_MEASURE( 1.000000000000000082E-05 ), #371, 'distance_accuracy_value', 'NONE');
#170 = PRODUCT ( '\X2\5927517382828f74\X0\-3A', '\X2\5927517382828f74\X0\-3A', '', ( #124 ) ) ;
#171 = PRODUCT_DEFINITION_FORMATION_WITH_SPECIFIED_SOURCE ( 'å¯', '', #277, .NOT_KNOWN. ) ;
#172 = CARTESIAN_POINT ( 'NONE',  ( 56.70813373266398116, -63.52221538776914400, -160.9027926449193728 ) ) ;
#173 = IDENTIFICATION_ROLE ( 'external document id and location', $) ;
#174 = DIRECTION ( 'NONE',  ( -0.2774416588095393044, -0.9288363683141048766, -0.2455384427214519771 ) ) ;
#175 = PRODUCT_RELATED_PRODUCT_CATEGORY ( 'part', '', ( #163 ) ) ;
#176 = APPLICATION_PROTOCOL_DEFINITION ( 'draft international standard', 'automotive_design', 1998, #113 ) ;
#177 = DIRECTION ( 'NONE',  ( 0.000000000000000000, 0.000000000000000000, 1.000000000000000000 ) ) ;
#178 = AXIS2_PLACEMENT_3D ( 'NONE', #337, #330, #275 ) ;
#179 = APPLICATION_CONTEXT ( 'automotive_design' ) ;
#180 = CARTESIAN_POINT ( 'NONE',  ( 51.05803337950259646, -64.16786753018027412, -152.0761568582645111 ) ) ;
#181 = APPLICATION_PROTOCOL_DEFINITION ( 'draft international standard', 'automotive_design', 1998, #319 ) ;
#182 = APPLICATION_PROTOCOL_DEFINITION ( 'draft international standard', 'automotive_design', 1998, #96 ) ;
#183 = SHAPE_REPRESENTATION ( '\X2\5c0f817f4ece52a894fe8f6e\X0\1aA', ( #178 ), #281 ) ;
#184 = PRODUCT_CONTEXT ( 'NONE', #255, 'mechanical' ) ;
#185 = APPLICATION_CONTEXT ( 'automotive_design' ) ;
#186 = APPLICATION_PROTOCOL_DEFINITION ( 'draft international standard', 'automotive_design', 1998, #312 ) ;
#187 = PRODUCT ( '\X2\5927517382828f7490e8592787ba6bcd\X0\A', '\X2\5927517382828f7490e8592787ba6bcd\X0\A', '', ( #121 ) ) ;
#188 = PROPERTY_DEFINITION_REPRESENTATION ( #288, #331 ) ;
#189 = APPLICATION_PROTOCOL_DEFINITION ( 'draft international standard', 'automotive_design', 1998, #236 ) ;
#190 = DIRECTION ( 'NONE',  ( 0.000000000000000000, 0.000000000000000000, 1.000000000000000000 ) ) ;
#191 = PRODUCT_DEFINITION_SHAPE ( 'NONE', 'NONE',  #349 ) ;
#192 = CARTESIAN_POINT ( 'NONE',  ( 0.000000000000000000, 0.000000000000000000, 0.000000000000000000 ) ) ;
#193 = PRODUCT_DEFINITION_CONTEXT ( 'detailed design', #209, 'design' ) ;
#194 =( LENGTH_UNIT ( ) NAMED_UNIT ( * ) SI_UNIT ( .MILLI., .METRE. ) );
#195 = PROPERTY_DEFINITION ('document property','', #38 ) ;
#196 = CONTEXT_DEPENDENT_SHAPE_REPRESENTATION ( #328, #379 ) ;
#197 = DIRECTION ( 'NONE',  ( 1.000000000000000000, 0.000000000000000000, 0.000000000000000000 ) ) ;
#198 = PRODUCT_DEFINITION_CONTEXT ( 'detailed design', #113, 'design' ) ;
#199 = PROPERTY_DEFINITION ('document property','', #130 ) ;
#200 =( LENGTH_UNIT ( ) NAMED_UNIT ( * ) SI_UNIT ( .MILLI., .METRE. ) );
#201 = SHAPE_REPRESENTATION ( '\X2\5927517382828f74\X0\-3A', ( #84 ), #335 ) ;
#202 = AXIS2_PLACEMENT_3D ( 'NONE', #54, #360, #204 ) ;
#203 = PRODUCT ( '\X2\5927817f4ece52a894fe8f6e\X0\aA', '\X2\5927817f4ece52a894fe8f6e\X0\aA', '', ( #321 ) ) ;
#204 = DIRECTION ( 'NONE',  ( 0.8053402117992181086, -0.3318269194618850282, 0.4912413243810278551 ) ) ;
#205 = SHAPE_REPRESENTATION ( '\X2\5927517382828f746539\X0\A', ( #139, #57, #299, #233, #47, #94, #23, #202, #313, #375 ), #287 ) ;
#206 =( NAMED_UNIT ( * ) PLANE_ANGLE_UNIT ( ) SI_UNIT ( $, .RADIAN. ) );
#207 = PRODUCT_DEFINITION ( 'æ™', '', #223, #198 ) ;
#208 = OBJECT_ROLE ('mandatory',$ ) ;
#209 = APPLICATION_CONTEXT ( 'automotive_design' ) ;
#210 = DIRECTION ( 'NONE',  ( -0.5381047955397136873, -0.06149068022447343185, 0.8406319796811766443 ) ) ;
#211 = PRODUCT_DEFINITION_FORMATION_WITH_SPECIFIED_SOURCE ( 'å¯', '', #5, .NOT_KNOWN. ) ;
#212 = PRODUCT_RELATED_PRODUCT_CATEGORY ( 'part', '', ( #187 ) ) ;
#213 = DIRECTION ( 'NONE',  ( -0.1576824158828233347, 0.9870717631233238976, -0.02873308486690379082 ) ) ;
#214 = CONTEXT_DEPENDENT_SHAPE_REPRESENTATION ( #340, #351 ) ;
#215 = OBJECT_ROLE ('mandatory',$ ) ;
#216 = ROLE_ASSOCIATION ( #396, #303 ) ;
#217 = PRODUCT_CONTEXT ( 'NONE', #236, 'mechanical' ) ;
#218 = DOCUMENT_FILE ( '\X2\5c0f817f4ece52a894fe8f6e\X0\1aA.STEP' , '', '', #152, '' ,$ ) ;
#219 = CARTESIAN_POINT ( 'NONE',  ( 0.000000000000000000, 0.000000000000000000, 0.000000000000000000 ) ) ;
#220 = CONTEXT_DEPENDENT_SHAPE_REPRESENTATION ( #246, #157 ) ;
#221 =( GEOMETRIC_REPRESENTATION_CONTEXT ( 3 ) GLOBAL_UNCERTAINTY_ASSIGNED_CONTEXT ( ( #136 ) ) GLOBAL_UNIT_ASSIGNED_CONTEXT ( ( #356, #206, #266 ) ) REPRESENTATION_CONTEXT ( 'NONE', 'WORKASPACE' ) );
#222 = ITEM_DEFINED_TRANSFORMATION ( 'NONE', 'NONE', #375,  #149 ) ;
#223 = PRODUCT_DEFINITION_FORMATION_WITH_SPECIFIED_SOURCE ( 'å¯', '', #248, .NOT_KNOWN. ) ;
#224 = PRODUCT_DEFINITION_SHAPE ( 'NONE', 'NONE',  #403 ) ;
#225 = DOCUMENT_FILE ( '\X2\5c0f817f\X0\A.STEP' , '', '', #308, '' ,$ ) ;
#226 = PROPERTY_DEFINITION ('document property','', #289 ) ;
#227 = APPLICATION_CONTEXT ( 'automotive_design' ) ;
#228 = ITEM_DEFINED_TRANSFORMATION ( 'NONE', 'NONE', #23,  #341 ) ;
#229 =( NAMED_UNIT ( * ) SI_UNIT ( $, .STERADIAN. ) SOLID_ANGLE_UNIT ( ) );
#230 = ROLE_ASSOCIATION ( #369, #95 ) ;
#231 = DIRECTION ( 'NONE',  ( 0.000000000000000000, 0.000000000000000000, 1.000000000000000000 ) ) ;
#232 = PROPERTY_DEFINITION ('external definition','', #38 ) ;
#233 = AXIS2_PLACEMENT_3D ( 'NONE', #397, #363, #53 ) ;
#234 = PRODUCT_DEFINITION_SHAPE ( 'NONE', 'NONE',  #36 ) ;
#235 = PRODUCT_DEFINITION ( 'æ™', '', #361, #193 ) ;
#236 = APPLICATION_CONTEXT ( 'automotive_design' ) ;
#237 = PRODUCT_DEFINITION_FORMATION_WITH_SPECIFIED_SOURCE ( 'å¯', '', #203, .NOT_KNOWN. ) ;
#238 = SHAPE_REPRESENTATION ( '\X2\5927517382828f74\X0\-4A', ( #353 ), #252 ) ;
#239 = DIRECTION ( 'NONE',  ( -0.8279972733883332880, -0.1480142921820333246, -0.5408440482905746416 ) ) ;
#240 = PROPERTY_DEFINITION_REPRESENTATION ( #311, #241 ) ;
#241 = SHAPE_REPRESENTATION ( '\X2\5927517382828f74\X0\-\X2\6cd55170\X0\A', ( #43 ), #108 ) ;
#242 =( NAMED_UNIT ( * ) PLANE_ANGLE_UNIT ( ) SI_UNIT ( $, .RADIAN. ) );
#243 = OBJECT_ROLE ('mandatory',$ ) ;
#244 = APPLICATION_PROTOCOL_DEFINITION ( 'draft international standard', 'automotive_design', 1998, #9 ) ;
#245 = PRODUCT_CONTEXT ( 'NONE', #348, 'mechanical' ) ;
#246 =( REPRESENTATION_RELATIONSHIP ('NONE','NONE', #205, #331 ) REPRESENTATION_RELATIONSHIP_WITH_TRANSFORMATION ( #26 )SHAPE_REPRESENTATION_RELATIONSHIP( ) );
#247 =( LENGTH_UNIT ( ) NAMED_UNIT ( * ) SI_UNIT ( .MILLI., .METRE. ) );
#248 = PRODUCT ( '\X2\5927517382828f746539\X0\A', '\X2\5927517382828f746539\X0\A', '', ( #298 ) ) ;
#249 = SHAPE_DEFINITION_REPRESENTATION ( #68, #241 ) ;
#250 = PROPERTY_DEFINITION ('document property','', #167 ) ;
#251 = APPLICATION_PROTOCOL_DEFINITION ( 'draft international standard', 'automotive_design', 1998, #227 ) ;
#252 =( GEOMETRIC_REPRESENTATION_CONTEXT ( 3 ) GLOBAL_UNCERTAINTY_ASSIGNED_CONTEXT ( ( #278 ) ) GLOBAL_UNIT_ASSIGNED_CONTEXT ( ( #200, #131, #280 ) ) REPRESENTATION_CONTEXT ( 'NONE', 'WORKASPACE' ) );
#253 = PRODUCT_DEFINITION_SHAPE ( 'NONE', 'NONE',  #235 ) ;
#254 = PROPERTY_DEFINITION_REPRESENTATION ( #250, #238 ) ;
#255 = APPLICATION_CONTEXT ( 'automotive_design' ) ;
#256 = PRODUCT_DEFINITION_SHAPE ( 'NONE', 'NONE',  #168 ) ;
#257 = APPLIED_DOCUMENT_REFERENCE ( #289,'',( #117) ) ;
#258 = CONTEXT_DEPENDENT_SHAPE_REPRESENTATION ( #145, #307 ) ;
#259 = APPLICATION_PROTOCOL_DEFINITION ( 'draft international standard', 'automotive_design', 1998, #209 ) ;
#260 = PRODUCT_DEFINITION_CONTEXT ( 'detailed design', #362, 'design' ) ;
#261 = DIRECTION ( 'NONE',  ( 1.000000000000000000, 0.000000000000000000, 0.000000000000000000 ) ) ;
#262 = DIRECTION ( 'NONE',  ( 1.000000000000000000, 0.000000000000000000, 0.000000000000000000 ) ) ;
#263 =( NAMED_UNIT ( * ) SI_UNIT ( $, .STERADIAN. ) SOLID_ANGLE_UNIT ( ) );
#264 = EXTERNAL_SOURCE (IDENTIFIER('') ) ;
#265 = PROPERTY_DEFINITION ('document property','', #73 ) ;
#266 =( NAMED_UNIT ( * ) SI_UNIT ( $, .STERADIAN. ) SOLID_ANGLE_UNIT ( ) );
#267 = PRODUCT_DEFINITION_FORMATION_WITH_SPECIFIED_SOURCE ( 'å¯', '', #187, .NOT_KNOWN. ) ;
#268 = PRODUCT_CONTEXT ( 'NONE', #32, 'mechanical' ) ;
#269 = APPLIED_EXTERNAL_IDENTIFICATION_ASSIGNMENT ( '\X2\5927817f4ece52a894fe8f6e\X0\aA.STEP' , #4, #150,( #73) ) ;
#270 = SHAPE_DEFINITION_REPRESENTATION ( #256, #238 ) ;
#271 = DOCUMENT_TYPE ( 'geometry' ) ;
#272 = DIRECTION ( 'NONE',  ( 0.000000000000000000, 0.000000000000000000, 1.000000000000000000 ) ) ;
#273 = APPLIED_EXTERNAL_IDENTIFICATION_ASSIGNMENT ( '\X2\5c0f817f4ece52a894fe8f6e\X0\1aA.STEP' , #42, #365,( #218) ) ;
#274 = APPLICATION_PROTOCOL_DEFINITION ( 'draft international standard', 'automotive_design', 1998, #348 ) ;
#275 = DIRECTION ( 'NONE',  ( 1.000000000000000000, 0.000000000000000000, 0.000000000000000000 ) ) ;
#276 = PRODUCT_DEFINITION_SHAPE ( 'NONE', 'NONE',  #207 ) ;
#277 = PRODUCT ( '\X2\5927517382828f74\X0\-1A', '\X2\5927517382828f74\X0\-1A', '', ( #155 ) ) ;
#278 = UNCERTAINTY_MEASURE_WITH_UNIT (LENGTH_MEASURE( 1.000000000000000082E-05 ), #200, 'distance_accuracy_value', 'NONE');
#279 = ROLE_ASSOCIATION ( #243, #12 ) ;
#280 =( NAMED_UNIT ( * ) SI_UNIT ( $, .STERADIAN. ) SOLID_ANGLE_UNIT ( ) );
#281 =( GEOMETRIC_REPRESENTATION_CONTEXT ( 3 ) GLOBAL_UNCERTAINTY_ASSIGNED_CONTEXT ( ( #169 ) ) GLOBAL_UNIT_ASSIGNED_CONTEXT ( ( #371, #400, #90 ) ) REPRESENTATION_CONTEXT ( 'NONE', 'WORKASPACE' ) );
#282 = ROLE_ASSOCIATION ( #208, #99 ) ;
#283 = PRODUCT ( '\X2\5c0f817f4ece52a894fe8f6e\X0\1aA', '\X2\5c0f817f4ece52a894fe8f6e\X0\1aA', '', ( #184 ) ) ;
#284 = CARTESIAN_POINT ( 'NONE',  ( 0.000000000000000000, 0.000000000000000000, 0.000000000000000000 ) ) ;
#285 = OBJECT_ROLE ('mandatory',$ ) ;
#286 = PROPERTY_DEFINITION_REPRESENTATION ( #232, #107 ) ;
#287 =( GEOMETRIC_REPRESENTATION_CONTEXT ( 3 ) GLOBAL_UNCERTAINTY_ASSIGNED_CONTEXT ( ( #11 ) ) GLOBAL_UNIT_ASSIGNED_CONTEXT ( ( #18, #21, #263 ) ) REPRESENTATION_CONTEXT ( 'NONE', 'WORKASPACE' ) );
#288 = PROPERTY_DEFINITION ('external definition','', #89 ) ;
#289 = DOCUMENT_FILE ( '\X2\5927517382828f74\X0\-3A.STEP' , '', '', #387, '' ,$ ) ;
#290 = PRODUCT_DEFINITION_FORMATION_WITH_SPECIFIED_SOURCE ( 'å¯', '', #283, .NOT_KNOWN. ) ;
#291 = PRODUCT_DEFINITION_CONTEXT ( 'detailed design', #96, 'design' ) ;
#292 = DIRECTION ( 'NONE',  ( -0.5381047955397145754, -0.06149068022447259224, 0.8406319796811763112 ) ) ;
#293 = PROPERTY_DEFINITION ('external definition','', #130 ) ;
#294 =( GEOMETRIC_REPRESENTATION_CONTEXT ( 3 ) GLOBAL_UNCERTAINTY_ASSIGNED_CONTEXT ( ( #97 ) ) GLOBAL_UNIT_ASSIGNED_CONTEXT ( ( #69, #378, #135 ) ) REPRESENTATION_CONTEXT ( 'NONE', 'WORKASPACE' ) );
#295 = OBJECT_ROLE ('mandatory',$ ) ;
#296 = DIRECTION ( 'NONE',  ( -0.5730676322739107764, 0.7580466756214965240, -0.3113819622572430723 ) ) ;
#297 = APPLICATION_CONTEXT ( 'automotive_design' ) ;
#298 = PRODUCT_CONTEXT ( 'NONE', #185, 'mechanical' ) ;
#299 = AXIS2_PLACEMENT_3D ( 'NONE', #78, #292, #213 ) ;
#300 = APPLIED_DOCUMENT_REFERENCE ( #129,'',( #101) ) ;
#301 = PRODUCT_RELATED_PRODUCT_CATEGORY ( 'part', '', ( #203 ) ) ;
#302 = PROPERTY_DEFINITION_REPRESENTATION ( #354, #331 ) ;
#303 = APPLIED_DOCUMENT_REFERENCE ( #89,'',( #36) ) ;
#304 = PROPERTY_DEFINITION_REPRESENTATION ( #142, #183 ) ;
#305 = APPLIED_EXTERNAL_IDENTIFICATION_ASSIGNMENT ( '\X2\5927517382828f74\X0\-1A.STEP' , #138, #315,( #89) ) ;
#306 =( NAMED_UNIT ( * ) SI_UNIT ( $, .STERADIAN. ) SOLID_ANGLE_UNIT ( ) );
#307 = PRODUCT_DEFINITION_SHAPE ( 'NONE', 'NONE',  #406 ) ;
#308 = DOCUMENT_TYPE ( 'geometry' ) ;
#309 = PROPERTY_DEFINITION_REPRESENTATION ( #199, #364 ) ;
#310 = CONTEXT_DEPENDENT_SHAPE_REPRESENTATION ( #70, #104 ) ;
#311 = PROPERTY_DEFINITION ('document property','', #129 ) ;
#312 = APPLICATION_CONTEXT ( 'automotive_design' ) ;
#313 = AXIS2_PLACEMENT_3D ( 'NONE', #56, #314, #146 ) ;
#314 = DIRECTION ( 'NONE',  ( -0.5381047955397146865, -0.06149068022447504167, 0.8406319796811757561 ) ) ;
#315 = EXTERNAL_SOURCE (IDENTIFIER('') ) ;
#316 = IDENTIFICATION_ROLE ( 'external document id and location', $) ;
#317 = DIRECTION ( 'NONE',  ( -0.5381047955397122440, -0.06149068022447155141, 0.8406319796811779765 ) ) ;
#318 = DIRECTION ( 'NONE',  ( -0.5381047955397147975, -0.06149068022447197468, 0.8406319796811760892 ) ) ;
#319 = APPLICATION_CONTEXT ( 'automotive_design' ) ;
#320 = DIRECTION ( 'NONE',  ( 0.8279972733886653558, 0.1480142921799579292, 0.5408440482906340385 ) ) ;
#321 = PRODUCT_CONTEXT ( 'NONE', #55, 'mechanical' ) ;
#322 = CARTESIAN_POINT ( 'NONE',  ( 71.45220513045225630, -61.83737074961926083, -183.9361088881838100 ) ) ;
#323 =( GEOMETRIC_REPRESENTATION_CONTEXT ( 3 ) GLOBAL_UNCERTAINTY_ASSIGNED_CONTEXT ( ( #72 ) ) GLOBAL_UNIT_ASSIGNED_CONTEXT ( ( #88, #30, #229 ) ) REPRESENTATION_CONTEXT ( 'NONE', 'WORKASPACE' ) );
#324 = APPLIED_DOCUMENT_REFERENCE ( #218,'',( #63) ) ;
#325 = PRODUCT_RELATED_PRODUCT_CATEGORY ( 'part', '', ( #61 ) ) ;
#326 = ITEM_DEFINED_TRANSFORMATION ( 'NONE', 'NONE', #47,  #119 ) ;
#327 = SHAPE_REPRESENTATION ( '\X2\5c0f817f\X0\A', ( #119 ), #323 ) ;
#328 =( REPRESENTATION_RELATIONSHIP ('NONE','NONE', #205, #364 ) REPRESENTATION_RELATIONSHIP_WITH_TRANSFORMATION ( #10 )SHAPE_REPRESENTATION_RELATIONSHIP( ) );
#329 = SHAPE_DEFINITION_REPRESENTATION ( #191, #327 ) ;
#330 = DIRECTION ( 'NONE',  ( 0.000000000000000000, 0.000000000000000000, 1.000000000000000000 ) ) ;
#331 = SHAPE_REPRESENTATION ( '\X2\5927517382828f74\X0\-1A', ( #394 ), #3 ) ;
#332 = PRODUCT_RELATED_PRODUCT_CATEGORY ( 'part', '', ( #277 ) ) ;
#333 = ROLE_ASSOCIATION ( #77, #324 ) ;
#334 = EXTERNAL_SOURCE (IDENTIFIER('') ) ;
#335 =( GEOMETRIC_REPRESENTATION_CONTEXT ( 3 ) GLOBAL_UNCERTAINTY_ASSIGNED_CONTEXT ( ( #346 ) ) GLOBAL_UNIT_ASSIGNED_CONTEXT ( ( #194, #1, #306 ) ) REPRESENTATION_CONTEXT ( 'NONE', 'WORKASPACE' ) );
#336 = PRODUCT_DEFINITION_SHAPE ( 'NONE', 'NONE',  #63 ) ;
#337 = CARTESIAN_POINT ( 'NONE',  ( 0.000000000000000000, 0.000000000000000000, 0.000000000000000000 ) ) ;
#338 =( LENGTH_UNIT ( ) NAMED_UNIT ( * ) SI_UNIT ( .MILLI., .METRE. ) );
#339 = CONTEXT_DEPENDENT_SHAPE_REPRESENTATION ( #39, #123 ) ;
#340 =( REPRESENTATION_RELATIONSHIP ('NONE','NONE', #205, #183 ) REPRESENTATION_RELATIONSHIP_WITH_TRANSFORMATION ( #373 )SHAPE_REPRESENTATION_RELATIONSHIP( ) );
#341 = AXIS2_PLACEMENT_3D ( 'NONE', #128, #344, #141 ) ;
#342 = PRODUCT_DEFINITION ( 'æ™', '', #267, #390 ) ;
#343 = APPLIED_DOCUMENT_REFERENCE ( #225,'',( #349) ) ;
#344 = DIRECTION ( 'NONE',  ( 0.000000000000000000, 0.000000000000000000, 1.000000000000000000 ) ) ;
#345 = PROPERTY_DEFINITION ('external definition','', #289 ) ;
#346 = UNCERTAINTY_MEASURE_WITH_UNIT (LENGTH_MEASURE( 1.000000000000000082E-05 ), #194, 'distance_accuracy_value', 'NONE');
#347 = PROPERTY_DEFINITION_REPRESENTATION ( #195, #107 ) ;
#348 = APPLICATION_CONTEXT ( 'automotive_design' ) ;
#349 = PRODUCT_DEFINITION ( 'æ™', '', #116, #385 ) ;
#350 = PROPERTY_DEFINITION_REPRESENTATION ( #384, #238 ) ;
#351 = PRODUCT_DEFINITION_SHAPE ( 'NONE', 'NONE',  #402 ) ;
#352 = PRODUCT_DEFINITION_CONTEXT ( 'detailed design', #132, 'design' ) ;
#353 = AXIS2_PLACEMENT_3D ( 'NONE', #27, #231, #41 ) ;
#354 = PROPERTY_DEFINITION ('document property','', #89 ) ;
#355 = EXTERNAL_SOURCE (IDENTIFIER('') ) ;
#356 =( LENGTH_UNIT ( ) NAMED_UNIT ( * ) SI_UNIT ( .MILLI., .METRE. ) );
#357 = PROPERTY_DEFINITION ('external definition','', #73 ) ;
#358 = APPLICATION_PROTOCOL_DEFINITION ( 'draft international standard', 'automotive_design', 1998, #55 ) ;
#359 = IDENTIFICATION_ROLE ( 'external document id and location', $) ;
#360 = DIRECTION ( 'NONE',  ( -0.5381047955397152416, -0.06149068022447448656, 0.8406319796811756451 ) ) ;
#361 = PRODUCT_DEFINITION_FORMATION_WITH_SPECIFIED_SOURCE ( 'å¯', '', #61, .NOT_KNOWN. ) ;
#362 = APPLICATION_CONTEXT ( 'automotive_design' ) ;
#363 = DIRECTION ( 'NONE',  ( -0.5381047955397155746, -0.06149068022447149590, 0.8406319796811755340 ) ) ;
#364 = SHAPE_REPRESENTATION ( '\X2\5927517382828f74\X0\-2A', ( #143 ), #16 ) ;
#365 = EXTERNAL_SOURCE (IDENTIFIER('') ) ;
#366 = APPLICATION_PROTOCOL_DEFINITION ( 'draft international standard', 'automotive_design', 1998, #297 ) ;
#367 = DIRECTION ( 'NONE',  ( 0.000000000000000000, 0.000000000000000000, 1.000000000000000000 ) ) ;
#368 = APPLICATION_PROTOCOL_DEFINITION ( 'draft international standard', 'automotive_design', 1998, #32 ) ;
#369 = OBJECT_ROLE ('mandatory',$ ) ;
#370 = SHAPE_DEFINITION_REPRESENTATION ( #336, #183 ) ;
#371 =( LENGTH_UNIT ( ) NAMED_UNIT ( * ) SI_UNIT ( .MILLI., .METRE. ) );
#372 = EXTERNAL_SOURCE (IDENTIFIER('') ) ;
#373 = ITEM_DEFINED_TRANSFORMATION ( 'NONE', 'NONE', #299,  #178 ) ;
#374 = CARTESIAN_POINT ( 'NONE',  ( 0.000000000000000000, 0.000000000000000000, 0.000000000000000000 ) ) ;
#375 = AXIS2_PLACEMENT_3D ( 'NONE', #180, #51, #296 ) ;
#376 = ROLE_ASSOCIATION ( #285, #343 ) ;
#377 = ITEM_DEFINED_TRANSFORMATION ( 'NONE', 'NONE', #202,  #84 ) ;
#378 =( NAMED_UNIT ( * ) PLANE_ANGLE_UNIT ( ) SI_UNIT ( $, .RADIAN. ) );
#379 = PRODUCT_DEFINITION_SHAPE ( 'NONE', 'NONE',  #405 ) ;
#380 = PRODUCT_DEFINITION_CONTEXT ( 'detailed design', #9, 'design' ) ;
#381 = APPLIED_DOCUMENT_REFERENCE ( #38,'',( #342) ) ;
#382 = IDENTIFICATION_ROLE ( 'external document id and location', $) ;
#383 = PROPERTY_DEFINITION_REPRESENTATION ( #15, #327 ) ;
#384 = PROPERTY_DEFINITION ('external definition','', #167 ) ;
#385 = PRODUCT_DEFINITION_CONTEXT ( 'detailed design', #312, 'design' ) ;
#386 = ROLE_ASSOCIATION ( #120, #381 ) ;
#387 = DOCUMENT_TYPE ( 'geometry' ) ;
#388 =( NAMED_UNIT ( * ) SI_UNIT ( $, .STERADIAN. ) SOLID_ANGLE_UNIT ( ) );
#389 = APPLICATION_CONTEXT ( 'automotive_design' ) ;
#390 = PRODUCT_DEFINITION_CONTEXT ( 'detailed design', #319, 'design' ) ;
#391 =( REPRESENTATION_RELATIONSHIP ('NONE','NONE', #205, #327 ) REPRESENTATION_RELATIONSHIP_WITH_TRANSFORMATION ( #326 )SHAPE_REPRESENTATION_RELATIONSHIP( ) );
#392 = PRODUCT_RELATED_PRODUCT_CATEGORY ( 'part', '', ( #283 ) ) ;
#393 = APPLICATION_PROTOCOL_DEFINITION ( 'draft international standard', 'automotive_design', 1998, #185 ) ;
#394 = AXIS2_PLACEMENT_3D ( 'NONE', #86, #190, #33 ) ;
#395 = CARTESIAN_POINT ( 'NONE',  ( 0.000000000000000000, 0.000000000000000000, 0.000000000000000000 ) ) ;
#396 = OBJECT_ROLE ('mandatory',$ ) ;
#397 = CARTESIAN_POINT ( 'NONE',  ( 47.02224741297050770, -64.62904763182825718, -145.7714170106460188 ) ) ;
#398 = APPLIED_EXTERNAL_IDENTIFICATION_ASSIGNMENT ( '\X2\5927517382828f74\X0\-\X2\6cd55170\X0\A.STEP' , #173, #264,( #129) ) ;
#399 = APPLICATION_PROTOCOL_DEFINITION ( 'draft international standard', 'automotive_design', 1998, #255 ) ;
#400 =( NAMED_UNIT ( * ) PLANE_ANGLE_UNIT ( ) SI_UNIT ( $, .RADIAN. ) );
#401 = NEXT_ASSEMBLY_USAGE_OCCURRENCE ( 'NAUO5', ' ', ' ', #207, #36, $ ) ;
#402 = NEXT_ASSEMBLY_USAGE_OCCURRENCE ( 'NAUO6', ' ', ' ', #207, #63, $ ) ;
#403 = NEXT_ASSEMBLY_USAGE_OCCURRENCE ( 'NAUO7', ' ', ' ', #207, #101, $ ) ;
#404 = NEXT_ASSEMBLY_USAGE_OCCURRENCE ( 'NAUO8', ' ', ' ', #207, #349, $ ) ;
#405 = NEXT_ASSEMBLY_USAGE_OCCURRENCE ( 'NAUO9', ' ', ' ', #207, #235, $ ) ;
#406 = NEXT_ASSEMBLY_USAGE_OCCURRENCE ( 'NAUO10', ' ', ' ', #207, #342, $ ) ;
#407 = NEXT_ASSEMBLY_USAGE_OCCURRENCE ( 'NAUO11', ' ', ' ', #207, #117, $ ) ;
#408 = NEXT_ASSEMBLY_USAGE_OCCURRENCE ( 'NAUO12', ' ', ' ', #207, #168, $ ) ;
#409 = NEXT_ASSEMBLY_USAGE_OCCURRENCE ( 'NAUO13', ' ', ' ', #207, #45, $ ) ;
ENDSEC;
END-ISO-10303-21;
