ISO-10303-21;
HEADER;
FILE_DESCRIPTION (( 'STEP AP214' ),
    '1' );
FILE_NAME ('大关节轴部大螺母A.STEP',
    '2026-08-16T17:26:54',
    ( '' ),
    ( '' ),
    'SwSTEP 2.0',
    'SolidWorks 2025',
    '' );
FILE_SCHEMA (( 'AUTOMOTIVE_DESIGN' ));
ENDSEC;

DATA;
#1 = DIRECTION ( 'NONE',  ( -1.000000000000000000, 0.000000000000000000, 0.000000000000000000 ) ) ;
#2 = AXIS2_PLACEMENT_3D ( 'NONE', #617, #117, #684 ) ;
#3 = EDGE_LOOP ( 'NONE', ( #373, #545 ) ) ;
#4 = CARTESIAN_POINT ( 'NONE',  ( 16.02146997001213791, 9.249999999999962697, 15.00000000000000000 ) ) ;
#5 = DIRECTION ( 'NONE',  ( 0.000000000000000000, 0.000000000000000000, 1.000000000000000000 ) ) ;
#6 = FACE_OUTER_BOUND ( 'NONE', #928, .T. ) ;
#7 = EDGE_CURVE ( 'NONE', #777, #504, #652, .T. ) ;
#8 = EDGE_LOOP ( 'NONE', ( #511, #380, #735, #530 ) ) ;
#9 = DIRECTION ( 'NONE',  ( 0.000000000000000000, 0.000000000000000000, 1.000000000000000000 ) ) ;
#10 = CARTESIAN_POINT ( 'NONE',  ( -7.600000000000131095, -16.02146997001203488, 15.00000000000000000 ) ) ;
#11 = CIRCLE ( 'NONE', #322, 1.650000000000000355 ) ;
#12 = AXIS2_PLACEMENT_3D ( 'NONE', #666, #339, #496 ) ;
#13 = DIRECTION ( 'NONE',  ( 0.000000000000000000, 0.000000000000000000, 1.000000000000000000 ) ) ;
#14 = ORIENTED_EDGE ( 'NONE', *, *, #941, .T. ) ;
#15 =( NAMED_UNIT ( * ) SI_UNIT ( $, .STERADIAN. ) SOLID_ANGLE_UNIT ( ) );
#16 = EDGE_CURVE ( 'NONE', #302, #290, #426, .T. ) ;
#17 = DIRECTION ( 'NONE',  ( -0.000000000000000000, -0.000000000000000000, -1.000000000000000000 ) ) ;
#18 = AXIS2_PLACEMENT_3D ( 'NONE', #1066, #404, #311 ) ;
#19 = CARTESIAN_POINT ( 'NONE',  ( 25.50000000000000000, 3.122849337825750222E-15, 0.000000000000000000 ) ) ;
#20 = DIRECTION ( 'NONE',  ( -0.000000000000000000, -0.000000000000000000, -1.000000000000000000 ) ) ;
#21 = VECTOR ( 'NONE', #935, 1000.000000000000000 ) ;
#22 = ORIENTED_EDGE ( 'NONE', *, *, #800, .T. ) ;
#23 = CARTESIAN_POINT ( 'NONE',  ( 10.90000000000001990, 16.02146997001210238, 15.00000000000000000 ) ) ;
#24 = ORIENTED_EDGE ( 'NONE', *, *, #754, .F. ) ;
#25 = DIRECTION ( 'NONE',  ( 1.000000000000000000, 0.000000000000000000, 0.000000000000000000 ) ) ;
#26 = DIRECTION ( 'NONE',  ( 1.000000000000000000, 0.000000000000000000, 0.000000000000000000 ) ) ;
#27 = ORIENTED_EDGE ( 'NONE', *, *, #38, .T. ) ;
#28 = CARTESIAN_POINT ( 'NONE',  ( -9.249999999999795719, 16.02146997001223383, 15.00000000000000000 ) ) ;
#29 = AXIS2_PLACEMENT_3D ( 'NONE', #723, #149, #1065 ) ;
#30 = EDGE_CURVE ( 'NONE', #607, #967, #11, .T. ) ;
#31 = DIRECTION ( 'NONE',  ( -0.000000000000000000, -0.000000000000000000, -1.000000000000000000 ) ) ;
#32 = EDGE_CURVE ( 'NONE', #967, #361, #162, .T. ) ;
#33 = ORIENTED_EDGE ( 'NONE', *, *, #265, .T. ) ;
#34 = DIRECTION ( 'NONE',  ( 0.000000000000000000, 0.000000000000000000, 1.000000000000000000 ) ) ;
#35 = ORIENTED_EDGE ( 'NONE', *, *, #325, .F. ) ;
#36 = VERTEX_POINT ( 'NONE', #390 ) ;
#37 = CARTESIAN_POINT ( 'NONE',  ( 17.67146997001207254, -9.250000000000076383, 15.00000000000000000 ) ) ;
#38 = EDGE_CURVE ( 'NONE', #405, #973, #580, .T. ) ;
#39 = ORIENTED_EDGE ( 'NONE', *, *, #577, .F. ) ;
#40 = FACE_BOUND ( 'NONE', #774, .T. ) ;
#41 = ORIENTED_EDGE ( 'NONE', *, *, #47, .F. ) ;
#42 = CIRCLE ( 'NONE', #92, 1.650000000000000355 ) ;
#43 = VERTEX_POINT ( 'NONE', #981 ) ;
#44 = DIRECTION ( 'NONE',  ( 0.000000000000000000, 0.000000000000000000, 1.000000000000000000 ) ) ;
#45 = ORIENTED_EDGE ( 'NONE', *, *, #662, .F. ) ;
#46 = DIRECTION ( 'NONE',  ( 0.000000000000000000, 0.000000000000000000, 1.000000000000000000 ) ) ;
#47 = EDGE_CURVE ( 'NONE', #879, #589, #1036, .T. ) ;
#48 = ORIENTED_EDGE ( 'NONE', *, *, #313, .T. ) ;
#49 = EDGE_CURVE ( 'NONE', #1076, #859, #238, .T. ) ;
#50 = DIRECTION ( 'NONE',  ( -1.000000000000000000, 0.000000000000000000, 0.000000000000000000 ) ) ;
#51 = ORIENTED_EDGE ( 'NONE', *, *, #677, .T. ) ;
#52 = CARTESIAN_POINT ( 'NONE',  ( 7.599999999999901945, -16.02146997001216278, 15.00000000000000000 ) ) ;
#53 = CARTESIAN_POINT ( 'NONE',  ( -18.50000000000000000, 1.937772143057939075E-13, 0.000000000000000000 ) ) ;
#54 = VECTOR ( 'NONE', #933, 1000.000000000000000 ) ;
#55 = ORIENTED_EDGE ( 'NONE', *, *, #878, .F. ) ;
#56 = FACE_BOUND ( 'NONE', #795, .T. ) ;
#57 = ORIENTED_EDGE ( 'NONE', *, *, #560, .F. ) ;
#58 = DIRECTION ( 'NONE',  ( 0.000000000000000000, 0.000000000000000000, 1.000000000000000000 ) ) ;
#59 = CIRCLE ( 'NONE', #163, 1.650000000000000355 ) ;
#60 = DIRECTION ( 'NONE',  ( -0.000000000000000000, -0.000000000000000000, -1.000000000000000000 ) ) ;
#61 = EDGE_CURVE ( 'NONE', #1005, #962, #234, .T. ) ;
#62 = DIRECTION ( 'NONE',  ( -0.000000000000000000, -0.000000000000000000, -1.000000000000000000 ) ) ;
#63 = VERTEX_POINT ( 'NONE', #815 ) ;
#64 = CARTESIAN_POINT ( 'NONE',  ( -9.250000000000131450, -16.02146997001203488, 15.00000000000000000 ) ) ;
#65 = CARTESIAN_POINT ( 'NONE',  ( 14.51999999999999957, 1.778187152361956765E-15, 15.00000000000000000 ) ) ;
#66 = LINE ( 'NONE', #972, #1009 ) ;
#67 = EDGE_CURVE ( 'NONE', #405, #475, #965, .T. ) ;
#68 = ORIENTED_EDGE ( 'NONE', *, *, #968, .T. ) ;
#69 = DIRECTION ( 'NONE',  ( 0.000000000000000000, 0.000000000000000000, 1.000000000000000000 ) ) ;
#70 = CARTESIAN_POINT ( 'NONE',  ( 16.02146997001213791, 9.249999999999962697, 15.00000000000000000 ) ) ;
#71 = AXIS2_PLACEMENT_3D ( 'NONE', #157, #812, #567 ) ;
#72 = ORIENTED_EDGE ( 'NONE', *, *, #148, .F. ) ;
#73 = FACE_BOUND ( 'NONE', #1060, .T. ) ;
#74 = ORIENTED_EDGE ( 'NONE', *, *, #407, .F. ) ;
#75 = CARTESIAN_POINT ( 'NONE',  ( -16.02146997001211304, -9.250000000000008882, 0.000000000000000000 ) ) ;
#76 = FACE_OUTER_BOUND ( 'NONE', #950, .T. ) ;
#77 = AXIS2_PLACEMENT_3D ( 'NONE', #335, #840, #824 ) ;
#78 = CYLINDRICAL_SURFACE ( 'NONE', #470, 1.650000000000000355 ) ;
#79 = DIRECTION ( 'NONE',  ( -0.000000000000000000, -0.000000000000000000, -1.000000000000000000 ) ) ;
#80 = FACE_OUTER_BOUND ( 'NONE', #221, .T. ) ;
#81 = EDGE_CURVE ( 'NONE', #393, #416, #638, .T. ) ;
#82 = CARTESIAN_POINT ( 'NONE',  ( -1.650000000000128919, -18.50000000000000000, 15.00000000000000000 ) ) ;
#83 = AXIS2_PLACEMENT_3D ( 'NONE', #319, #732, #241 ) ;
#84 = DIRECTION ( 'NONE',  ( 1.000000000000000000, 0.000000000000000000, 0.000000000000000000 ) ) ;
#85 = ADVANCED_FACE ( 'NONE', ( #80 ), #810, .F. ) ;
#86 =( NAMED_UNIT ( * ) SI_UNIT ( $, .STERADIAN. ) SOLID_ANGLE_UNIT ( ) );
#87 = DIRECTION ( 'NONE',  ( 1.000000000000000000, 0.000000000000000000, 0.000000000000000000 ) ) ;
#88 = EDGE_LOOP ( 'NONE', ( #697, #14, #748, #528 ) ) ;
#89 = CARTESIAN_POINT ( 'NONE',  ( 0.000000000000000000, 0.000000000000000000, 15.00000000000000000 ) ) ;
#90 = CARTESIAN_POINT ( 'NONE',  ( 0.000000000000000000, 0.000000000000000000, 15.00000000000000000 ) ) ;
#91 = DIRECTION ( 'NONE',  ( 1.000000000000000000, 0.000000000000000000, 0.000000000000000000 ) ) ;
#92 = AXIS2_PLACEMENT_3D ( 'NONE', #785, #125, #529 ) ;
#93 = DIRECTION ( 'NONE',  ( 1.000000000000000000, 0.000000000000000000, 0.000000000000000000 ) ) ;
#94 = VECTOR ( 'NONE', #490, 1000.000000000000000 ) ;
#95 = ORIENTED_EDGE ( 'NONE', *, *, #392, .T. ) ;
#96 = DIRECTION ( 'NONE',  ( 1.000000000000000000, 0.000000000000000000, 0.000000000000000000 ) ) ;
#97 = ADVANCED_FACE ( 'NONE', ( #76 ), #481, .F. ) ;
#98 = DIRECTION ( 'NONE',  ( 1.000000000000000000, 0.000000000000000000, 0.000000000000000000 ) ) ;
#99 = EDGE_CURVE ( 'NONE', #589, #1076, #169, .T. ) ;
#100 = ORIENTED_EDGE ( 'NONE', *, *, #131, .F. ) ;
#101 = AXIS2_PLACEMENT_3D ( 'NONE', #394, #62, #469 ) ;
#102 = CARTESIAN_POINT ( 'NONE',  ( 0.000000000000000000, 0.000000000000000000, 0.000000000000000000 ) ) ;
#103 = AXIS2_PLACEMENT_3D ( 'NONE', #283, #375, #776 ) ;
#104 = LINE ( 'NONE', #429, #196 ) ;
#105 = AXIS2_PLACEMENT_3D ( 'NONE', #907, #918, #591 ) ;
#106 = DIRECTION ( 'NONE',  ( 0.000000000000000000, 0.000000000000000000, 1.000000000000000000 ) ) ;
#107 = VECTOR ( 'NONE', #140, 1000.000000000000000 ) ;
#108 = ORIENTED_EDGE ( 'NONE', *, *, #81, .T. ) ;
#109 = LINE ( 'NONE', #441, #978 ) ;
#110 = ADVANCED_FACE ( 'NONE', ( #409 ), #326, .F. ) ;
#111 = STYLED_ITEM ( 'NONE', ( #753 ), #738 ) ;
#112 = DIRECTION ( 'NONE',  ( -0.000000000000000000, -0.000000000000000000, -1.000000000000000000 ) ) ;
#113 = ORIENTED_EDGE ( 'NONE', *, *, #916, .F. ) ;
#114 = FACE_BOUND ( 'NONE', #1052, .T. ) ;
#115 = EDGE_LOOP ( 'NONE', ( #495, #460, #146, #1047 ) ) ;
#116 = ADVANCED_FACE ( 'NONE', ( #970 ), #397, .F. ) ;
#117 = DIRECTION ( 'NONE',  ( 0.000000000000000000, 0.000000000000000000, 1.000000000000000000 ) ) ;
#118 = ORIENTED_EDGE ( 'NONE', *, *, #313, .F. ) ;
#119 = FACE_BOUND ( 'NONE', #395, .T. ) ;
#120 = EDGE_LOOP ( 'NONE', ( #624, #471 ) ) ;
#121 = EDGE_LOOP ( 'NONE', ( #204, #450, #648, #129 ) ) ;
#122 = DIRECTION ( 'NONE',  ( 1.000000000000000000, 0.000000000000000000, 0.000000000000000000 ) ) ;
#123 = EDGE_CURVE ( 'NONE', #276, #135, #358, .T. ) ;
#124 = ORIENTED_EDGE ( 'NONE', *, *, #1033, .T. ) ;
#125 = DIRECTION ( 'NONE',  ( 0.000000000000000000, 0.000000000000000000, 1.000000000000000000 ) ) ;
#126 = VERTEX_POINT ( 'NONE', #65 ) ;
#127 = CIRCLE ( 'NONE', #269, 1.649999999999998579 ) ;
#128 = CARTESIAN_POINT ( 'NONE',  ( 14.51999999999999957, 1.778187152361956765E-15, 15.00000000000000000 ) ) ;
#129 = ORIENTED_EDGE ( 'NONE', *, *, #499, .F. ) ;
#130 = CARTESIAN_POINT ( 'NONE',  ( -1.291848095371959215E-13, -18.50000000000000000, 15.00000000000000000 ) ) ;
#131 = EDGE_CURVE ( 'NONE', #501, #152, #492, .T. ) ;
#132 = ORIENTED_EDGE ( 'NONE', *, *, #264, .F. ) ;
#133 = AXIS2_PLACEMENT_3D ( 'NONE', #70, #154, #737 ) ;
#134 = DIRECTION ( 'NONE',  ( -0.000000000000000000, -0.000000000000000000, -1.000000000000000000 ) ) ;
#135 = VERTEX_POINT ( 'NONE', #650 ) ;
#136 = CARTESIAN_POINT ( 'NONE',  ( -18.50000000000000000, 1.937772143057939075E-13, 15.00000000000000000 ) ) ;
#137 = CARTESIAN_POINT ( 'NONE',  ( 18.49999999999999645, -6.459240476859796076E-14, 15.00000000000000000 ) ) ;
#138 = FACE_OUTER_BOUND ( 'NONE', #239, .T. ) ;
#139 = ORIENTED_EDGE ( 'NONE', *, *, #61, .F. ) ;
#140 = DIRECTION ( 'NONE',  ( -0.000000000000000000, -0.000000000000000000, -1.000000000000000000 ) ) ;
#141 = AXIS2_PLACEMENT_3D ( 'NONE', #419, #500, #505 ) ;
#142 = DIRECTION ( 'NONE',  ( -0.000000000000000000, -0.000000000000000000, -1.000000000000000000 ) ) ;
#143 = EDGE_LOOP ( 'NONE', ( #894, #616, #100, #548 ) ) ;
#144 = DIRECTION ( 'NONE',  ( -0.000000000000000000, -0.000000000000000000, -1.000000000000000000 ) ) ;
#145 = AXIS2_PLACEMENT_3D ( 'NONE', #998, #9, #96 ) ;
#146 = ORIENTED_EDGE ( 'NONE', *, *, #780, .F. ) ;
#147 = LINE ( 'NONE', #637, #372 ) ;
#148 = EDGE_CURVE ( 'NONE', #659, #446, #639, .T. ) ;
#149 = DIRECTION ( 'NONE',  ( 0.000000000000000000, 0.000000000000000000, 1.000000000000000000 ) ) ;
#150 =( NAMED_UNIT ( * ) PLANE_ANGLE_UNIT ( ) SI_UNIT ( $, .RADIAN. ) );
#151 = FACE_BOUND ( 'NONE', #942, .T. ) ;
#152 = VERTEX_POINT ( 'NONE', #905 ) ;
#153 = DIRECTION ( 'NONE',  ( 0.000000000000000000, 0.000000000000000000, 1.000000000000000000 ) ) ;
#154 = DIRECTION ( 'NONE',  ( 0.000000000000000000, 0.000000000000000000, 1.000000000000000000 ) ) ;
#155 = CIRCLE ( 'NONE', #71, 25.50000000000000000 ) ;
#156 = AXIS2_PLACEMENT_3D ( 'NONE', #439, #31, #938 ) ;
#157 = CARTESIAN_POINT ( 'NONE',  ( 0.000000000000000000, 0.000000000000000000, 15.00000000000000000 ) ) ;
#158 = AXIS2_PLACEMENT_3D ( 'NONE', #436, #667, #98 ) ;
#159 = ORIENTED_EDGE ( 'NONE', *, *, #385, .T. ) ;
#160 = DIRECTION ( 'NONE',  ( 1.000000000000000000, 0.000000000000000000, 0.000000000000000000 ) ) ;
#161 = EDGE_CURVE ( 'NONE', #290, #176, #821, .T. ) ;
#162 = LINE ( 'NONE', #229, #458 ) ;
#163 = AXIS2_PLACEMENT_3D ( 'NONE', #664, #175, #87 ) ;
#164 = VECTOR ( 'NONE', #401, 1000.000000000000000 ) ;
#165 = FACE_OUTER_BOUND ( 'NONE', #912, .T. ) ;
#166 = VERTEX_POINT ( 'NONE', #336 ) ;
#167 = CARTESIAN_POINT ( 'NONE',  ( -14.37146997001200077, 9.250000000000182965, 15.00000000000000000 ) ) ;
#168 = ADVANCED_FACE ( 'NONE', ( #586 ), #679, .F. ) ;
#169 = LINE ( 'NONE', #309, #224 ) ;
#170 = APPLICATION_PROTOCOL_DEFINITION ( 'draft international standard', 'automotive_design', 1998, #363 ) ;
#171 = DIRECTION ( 'NONE',  ( -0.000000000000000000, -0.000000000000000000, -1.000000000000000000 ) ) ;
#172 = DIRECTION ( 'NONE',  ( 1.000000000000000000, 0.000000000000000000, 0.000000000000000000 ) ) ;
#173 = VERTEX_POINT ( 'NONE', #273 ) ;
#174 = DIRECTION ( 'NONE',  ( -1.000000000000000000, 0.000000000000000000, 0.000000000000000000 ) ) ;
#175 = DIRECTION ( 'NONE',  ( 0.000000000000000000, 0.000000000000000000, 1.000000000000000000 ) ) ;
#176 = VERTEX_POINT ( 'NONE', #597 ) ;
#177 = SURFACE_STYLE_FILL_AREA ( #188 ) ;
#178 = DIRECTION ( 'NONE',  ( 1.000000000000000000, 0.000000000000000000, 0.000000000000000000 ) ) ;
#179 =( GEOMETRIC_REPRESENTATION_CONTEXT ( 3 ) GLOBAL_UNCERTAINTY_ASSIGNED_CONTEXT ( ( #1022 ) ) GLOBAL_UNIT_ASSIGNED_CONTEXT ( ( #930, #150, #86 ) ) REPRESENTATION_CONTEXT ( 'NONE', 'WORKASPACE' ) );
#180 = EDGE_CURVE ( 'NONE', #440, #985, #847, .T. ) ;
#181 = DIRECTION ( 'NONE',  ( 0.000000000000000000, 0.000000000000000000, 1.000000000000000000 ) ) ;
#182 = ADVANCED_FACE ( 'NONE', ( #257 ), #345, .F. ) ;
#183 = EDGE_LOOP ( 'NONE', ( #45, #604 ) ) ;
#184 = AXIS2_PLACEMENT_3D ( 'NONE', #136, #980, #726 ) ;
#185 = CARTESIAN_POINT ( 'NONE',  ( -10.90000000000013181, -16.02146997001203488, 0.000000000000000000 ) ) ;
#186 = ADVANCED_FACE ( 'NONE', ( #268 ), #925, .F. ) ;
#187 = EDGE_CURVE ( 'NONE', #36, #361, #663, .T. ) ;
#188 = FILL_AREA_STYLE ('',( #913 ) ) ;
#189 = DIRECTION ( 'NONE',  ( 0.000000000000000000, 0.000000000000000000, 1.000000000000000000 ) ) ;
#190 = ORIENTED_EDGE ( 'NONE', *, *, #1017, .T. ) ;
#191 = EDGE_LOOP ( 'NONE', ( #72, #634 ) ) ;
#192 = CYLINDRICAL_SURFACE ( 'NONE', #156, 1.650000000000000355 ) ;
#193 = CIRCLE ( 'NONE', #103, 1.650000000000000355 ) ;
#194 = ORIENTED_EDGE ( 'NONE', *, *, #839, .F. ) ;
#195 = DIRECTION ( 'NONE',  ( -1.000000000000000000, 0.000000000000000000, 0.000000000000000000 ) ) ;
#196 = VECTOR ( 'NONE', #20, 1000.000000000000000 ) ;
#197 = ORIENTED_EDGE ( 'NONE', *, *, #1054, .F. ) ;
#198 = DIRECTION ( 'NONE',  ( 1.000000000000000000, 0.000000000000000000, 0.000000000000000000 ) ) ;
#199 = EDGE_LOOP ( 'NONE', ( #524, #1063, #699, #55 ) ) ;
#200 = CARTESIAN_POINT ( 'NONE',  ( 17.67146997001213649, 9.249999999999962697, 15.00000000000000000 ) ) ;
#201 = ORIENTED_EDGE ( 'NONE', *, *, #293, .F. ) ;
#202 = CIRCLE ( 'NONE', #582, 1.649999999999998579 ) ;
#203 = CARTESIAN_POINT ( 'NONE',  ( 0.000000000000000000, 0.000000000000000000, 0.000000000000000000 ) ) ;
#204 = ORIENTED_EDGE ( 'NONE', *, *, #355, .T. ) ;
#205 = DIRECTION ( 'NONE',  ( 1.000000000000000000, 0.000000000000000000, 0.000000000000000000 ) ) ;
#206 = EDGE_LOOP ( 'NONE', ( #578, #683, #830, #57 ) ) ;
#207 = VERTEX_POINT ( 'NONE', #1000 ) ;
#208 = DIRECTION ( 'NONE',  ( 1.000000000000000000, 0.000000000000000000, 0.000000000000000000 ) ) ;
#209 = CIRCLE ( 'NONE', #765, 1.649999999999999689 ) ;
#210 = ORIENTED_EDGE ( 'NONE', *, *, #38, .F. ) ;
#211 = DIRECTION ( 'NONE',  ( 0.000000000000000000, 0.000000000000000000, 1.000000000000000000 ) ) ;
#212 = VERTEX_POINT ( 'NONE', #185 ) ;
#213 = CARTESIAN_POINT ( 'NONE',  ( -1.650000000000128919, -18.50000000000000000, 15.00000000000000000 ) ) ;
#214 = ADVANCED_FACE ( 'NONE', ( #915 ), #422, .F. ) ;
#215 = ORIENTED_EDGE ( 'NONE', *, *, #123, .F. ) ;
#216 = PLANE ( 'NONE',  #926 ) ;
#217 = AXIS2_PLACEMENT_3D ( 'NONE', #89, #509, #745 ) ;
#218 = ORIENTED_EDGE ( 'NONE', *, *, #327, .T. ) ;
#219 = ORIENTED_EDGE ( 'NONE', *, *, #333, .T. ) ;
#220 = CARTESIAN_POINT ( 'NONE',  ( 1.649999999999999689, 18.50000000000000355, 15.00000000000000000 ) ) ;
#221 = EDGE_LOOP ( 'NONE', ( #540, #48, #1034, #280 ) ) ;
#222 = CARTESIAN_POINT ( 'NONE',  ( 18.49999999999999645, -6.459240476859796076E-14, 15.00000000000000000 ) ) ;
#223 = ORIENTED_EDGE ( 'NONE', *, *, #30, .T. ) ;
#224 = VECTOR ( 'NONE', #60, 1000.000000000000000 ) ;
#225 = VECTOR ( 'NONE', #593, 1000.000000000000000 ) ;
#226 = DIRECTION ( 'NONE',  ( -0.000000000000000000, -0.000000000000000000, -1.000000000000000000 ) ) ;
#227 = EDGE_LOOP ( 'NONE', ( #1067, #730 ) ) ;
#228 = CARTESIAN_POINT ( 'NONE',  ( -20.14999999999999858, 1.937772143057939075E-13, 15.00000000000000000 ) ) ;
#229 = CARTESIAN_POINT ( 'NONE',  ( 7.600000000000018296, 16.02146997001210238, 15.00000000000000000 ) ) ;
#230 = EDGE_CURVE ( 'NONE', #276, #212, #104, .T. ) ;
#231 = FACE_BOUND ( 'NONE', #298, .T. ) ;
#232 = EDGE_LOOP ( 'NONE', ( #376, #519, #27, #636 ) ) ;
#233 = FACE_OUTER_BOUND ( 'NONE', #691, .T. ) ;
#234 = LINE ( 'NONE', #491, #874 ) ;
#235 = ADVANCED_FACE ( 'NONE', ( #498 ), #749, .T. ) ;
#236 = CIRCLE ( 'NONE', #410, 1.650000000000000355 ) ;
#237 = FACE_OUTER_BOUND ( 'NONE', #121, .T. ) ;
#238 = CIRCLE ( 'NONE', #598, 1.649999999999999689 ) ;
#239 = EDGE_LOOP ( 'NONE', ( #295, #288, #849, #39 ) ) ;
#240 = CARTESIAN_POINT ( 'NONE',  ( 18.49999999999999645, -6.459240476859796076E-14, 15.00000000000000000 ) ) ;
#241 = DIRECTION ( 'NONE',  ( -1.000000000000000000, 0.000000000000000000, 0.000000000000000000 ) ) ;
#242 = LINE ( 'NONE', #714, #266 ) ;
#243 = ORIENTED_EDGE ( 'NONE', *, *, #513, .T. ) ;
#244 = CARTESIAN_POINT ( 'NONE',  ( -16.85000000000000142, 1.939792810276531915E-13, 15.00000000000000000 ) ) ;
#245 = CARTESIAN_POINT ( 'NONE',  ( 9.249999999999902300, -16.02146997001216278, 15.00000000000000000 ) ) ;
#246 = CIRCLE ( 'NONE', #676, 1.649999999999999689 ) ;
#247 = CIRCLE ( 'NONE', #622, 1.650000000000000355 ) ;
#248 = DIRECTION ( 'NONE',  ( -1.000000000000000000, 0.000000000000000000, 0.000000000000000000 ) ) ;
#249 = AXIS2_PLACEMENT_3D ( 'NONE', #1006, #354, #277 ) ;
#250 = DIRECTION ( 'NONE',  ( 0.000000000000000000, 0.000000000000000000, 1.000000000000000000 ) ) ;
#251 = ORIENTED_EDGE ( 'NONE', *, *, #468, .F. ) ;
#252 = CARTESIAN_POINT ( 'NONE',  ( -1.291848095371959215E-13, -18.50000000000000000, 0.000000000000000000 ) ) ;
#253 = AXIS2_PLACEMENT_3D ( 'NONE', #240, #466, #569 ) ;
#254 = FACE_OUTER_BOUND ( 'NONE', #206, .T. ) ;
#255 = EDGE_LOOP ( 'NONE', ( #665, #575 ) ) ;
#256 = CARTESIAN_POINT ( 'NONE',  ( 16.84999999999999787, -6.459240476859796076E-14, 0.000000000000000000 ) ) ;
#257 = FACE_OUTER_BOUND ( 'NONE', #292, .T. ) ;
#258 = PRODUCT_DEFINITION_SHAPE ( 'NONE', 'NONE',  #728 ) ;
#259 = DIRECTION ( 'NONE',  ( 0.000000000000000000, 0.000000000000000000, 1.000000000000000000 ) ) ;
#260 = ORIENTED_EDGE ( 'NONE', *, *, #705, .T. ) ;
#261 = CARTESIAN_POINT ( 'NONE',  ( 16.02146997001207396, -9.250000000000076383, 15.00000000000000000 ) ) ;
#262 = ORIENTED_EDGE ( 'NONE', *, *, #858, .T. ) ;
#263 = CARTESIAN_POINT ( 'NONE',  ( -10.90000000000013181, -16.02146997001203488, 15.00000000000000000 ) ) ;
#264 = EDGE_CURVE ( 'NONE', #126, #63, #482, .T. ) ;
#265 = EDGE_CURVE ( 'NONE', #135, #563, #1015, .T. ) ;
#266 = VECTOR ( 'NONE', #1061, 1000.000000000000000 ) ;
#267 = LINE ( 'NONE', #82, #301 ) ;
#268 = FACE_OUTER_BOUND ( 'NONE', #284, .T. ) ;
#269 = AXIS2_PLACEMENT_3D ( 'NONE', #222, #153, #1073 ) ;
#270 = EDGE_CURVE ( 'NONE', #806, #973, #1051, .T. ) ;
#271 = EDGE_LOOP ( 'NONE', ( #113, #388 ) ) ;
#272 = CARTESIAN_POINT ( 'NONE',  ( -16.02146997001211304, -9.250000000000008882, 15.00000000000000000 ) ) ;
#273 = CARTESIAN_POINT ( 'NONE',  ( -10.89999999999979785, 16.02146997001223383, 0.000000000000000000 ) ) ;
#274 = EDGE_CURVE ( 'NONE', #787, #364, #954, .T. ) ;
#275 = DIRECTION ( 'NONE',  ( 0.000000000000000000, 0.000000000000000000, 1.000000000000000000 ) ) ;
#276 = VERTEX_POINT ( 'NONE', #263 ) ;
#277 = DIRECTION ( 'NONE',  ( 1.000000000000000000, 0.000000000000000000, 0.000000000000000000 ) ) ;
#278 = ORIENTED_EDGE ( 'NONE', *, *, #333, .F. ) ;
#279 = CARTESIAN_POINT ( 'NONE',  ( 9.250000000000017764, 16.02146997001210238, 15.00000000000000000 ) ) ;
#280 = ORIENTED_EDGE ( 'NONE', *, *, #800, .F. ) ;
#281 = CARTESIAN_POINT ( 'NONE',  ( 16.02146997001207396, -9.250000000000076383, 0.000000000000000000 ) ) ;
#282 = EDGE_LOOP ( 'NONE', ( #1008, #219 ) ) ;
#283 = CARTESIAN_POINT ( 'NONE',  ( 9.250000000000017764, 16.02146997001210238, 0.000000000000000000 ) ) ;
#284 = EDGE_LOOP ( 'NONE', ( #856, #1012, #620, #412 ) ) ;
#285 = CARTESIAN_POINT ( 'NONE',  ( -17.67146997001200504, 9.250000000000182965, 15.00000000000000000 ) ) ;
#286 = ORIENTED_EDGE ( 'NONE', *, *, #7, .F. ) ;
#287 = AXIS2_PLACEMENT_3D ( 'NONE', #991, #250, #576 ) ;
#288 = ORIENTED_EDGE ( 'NONE', *, *, #605, .T. ) ;
#289 = FACE_OUTER_BOUND ( 'NONE', #595, .T. ) ;
#290 = VERTEX_POINT ( 'NONE', #1021 ) ;
#291 = DIRECTION ( 'NONE',  ( 1.000000000000000000, 0.000000000000000000, 0.000000000000000000 ) ) ;
#292 = EDGE_LOOP ( 'NONE', ( #789, #262, #24, #201 ) ) ;
#293 = EDGE_CURVE ( 'NONE', #659, #1072, #686, .T. ) ;
#294 = DIRECTION ( 'NONE',  ( 1.000000000000000000, 0.000000000000000000, 0.000000000000000000 ) ) ;
#295 = ORIENTED_EDGE ( 'NONE', *, *, #916, .T. ) ;
#296 = FACE_BOUND ( 'NONE', #627, .T. ) ;
#297 = VECTOR ( 'NONE', #112, 1000.000000000000000 ) ;
#298 = EDGE_LOOP ( 'NONE', ( #695, #568 ) ) ;
#299 = AXIS2_PLACEMENT_3D ( 'NONE', #746, #5, #93 ) ;
#300 = CARTESIAN_POINT ( 'NONE',  ( 7.599999999999901945, -16.02146997001216278, 0.000000000000000000 ) ) ;
#301 = VECTOR ( 'NONE', #1002, 1000.000000000000000 ) ;
#302 = VERTEX_POINT ( 'NONE', #836 ) ;
#303 = FACE_BOUND ( 'NONE', #522, .T. ) ;
#304 = EDGE_LOOP ( 'NONE', ( #934, #190, #811, #210 ) ) ;
#305 = APPLICATION_CONTEXT ( 'automotive_design' ) ;
#306 = FACE_OUTER_BOUND ( 'NONE', #304, .T. ) ;
#307 = ORIENTED_EDGE ( 'NONE', *, *, #230, .F. ) ;
#308 = DIRECTION ( 'NONE',  ( -0.000000000000000000, -0.000000000000000000, -1.000000000000000000 ) ) ;
#309 = CARTESIAN_POINT ( 'NONE',  ( 1.649999999999870459, -18.50000000000000000, 15.00000000000000000 ) ) ;
#310 = AXIS2_PLACEMENT_3D ( 'NONE', #565, #975, #660 ) ;
#311 = DIRECTION ( 'NONE',  ( -1.000000000000000000, 0.000000000000000000, 0.000000000000000000 ) ) ;
#312 = ORIENTED_EDGE ( 'NONE', *, *, #1018, .T. ) ;
#313 = EDGE_CURVE ( 'NONE', #135, #276, #348, .T. ) ;
#314 = CYLINDRICAL_SURFACE ( 'NONE', #184, 1.649999999999998579 ) ;
#315 = DIRECTION ( 'NONE',  ( 1.000000000000000000, 0.000000000000000000, 0.000000000000000000 ) ) ;
#316 = FACE_OUTER_BOUND ( 'NONE', #183, .T. ) ;
#317 = ORIENTED_EDGE ( 'NONE', *, *, #605, .F. ) ;
#318 = DIRECTION ( 'NONE',  ( 1.000000000000000000, 0.000000000000000000, 0.000000000000000000 ) ) ;
#319 = CARTESIAN_POINT ( 'NONE',  ( -9.250000000000131450, -16.02146997001203488, 15.00000000000000000 ) ) ;
#320 = CIRCLE ( 'NONE', #506, 1.649999999999998579 ) ;
#321 = DIRECTION ( 'NONE',  ( 1.000000000000000000, 0.000000000000000000, 0.000000000000000000 ) ) ;
#322 = AXIS2_PLACEMENT_3D ( 'NONE', #414, #1087, #315 ) ;
#323 = EDGE_LOOP ( 'NONE', ( #939, #768, #1041, #497 ) ) ;
#324 = LINE ( 'NONE', #655, #630 ) ;
#325 = EDGE_CURVE ( 'NONE', #1043, #919, #755, .T. ) ;
#326 = CYLINDRICAL_SURFACE ( 'NONE', #932, 1.650000000000000355 ) ;
#327 = EDGE_CURVE ( 'NONE', #1043, #457, #825, .T. ) ;
#328 = DIRECTION ( 'NONE',  ( -0.000000000000000000, -0.000000000000000000, -1.000000000000000000 ) ) ;
#329 = CARTESIAN_POINT ( 'NONE',  ( -14.37146997001211268, -9.250000000000008882, 15.00000000000000000 ) ) ;
#330 = DIRECTION ( 'NONE',  ( 0.000000000000000000, 0.000000000000000000, 1.000000000000000000 ) ) ;
#331 = CIRCLE ( 'NONE', #661, 1.650000000000000355 ) ;
#332 = DIRECTION ( 'NONE',  ( 0.000000000000000000, 0.000000000000000000, 1.000000000000000000 ) ) ;
#333 = EDGE_CURVE ( 'NONE', #532, #1072, #320, .T. ) ;
#334 = AXIS2_PLACEMENT_3D ( 'NONE', #831, #590, #25 ) ;
#335 = CARTESIAN_POINT ( 'NONE',  ( 0.000000000000000000, 18.50000000000000355, 15.00000000000000000 ) ) ;
#336 = CARTESIAN_POINT ( 'NONE',  ( 14.37146997001213755, 9.249999999999962697, 0.000000000000000000 ) ) ;
#337 = CARTESIAN_POINT ( 'NONE',  ( 14.37146997001207538, -9.250000000000076383, 0.000000000000000000 ) ) ;
#338 = PRODUCT_DEFINITION_CONTEXT ( 'detailed design', #305, 'design' ) ;
#339 = DIRECTION ( 'NONE',  ( 0.000000000000000000, 0.000000000000000000, 1.000000000000000000 ) ) ;
#340 = MECHANICAL_DESIGN_GEOMETRIC_PRESENTATION_REPRESENTATION (  '', ( #111 ), #615 ) ;
#341 = CARTESIAN_POINT ( 'NONE',  ( 14.37146997001207538, -9.250000000000076383, 15.00000000000000000 ) ) ;
#342 = CYLINDRICAL_SURFACE ( 'NONE', #105, 1.650000000000002132 ) ;
#343 = ORIENTED_EDGE ( 'NONE', *, *, #799, .F. ) ;
#344 = LINE ( 'NONE', #23, #391 ) ;
#345 = CYLINDRICAL_SURFACE ( 'NONE', #626, 1.649999999999998579 ) ;
#346 = CIRCLE ( 'NONE', #953, 1.649999999999999689 ) ;
#347 = SURFACE_SIDE_STYLE ('',( #177 ) ) ;
#348 = CIRCLE ( 'NONE', #299, 1.650000000000000355 ) ;
#349 = CARTESIAN_POINT ( 'NONE',  ( 0.000000000000000000, 0.000000000000000000, 15.00000000000000000 ) ) ;
#350 = CIRCLE ( 'NONE', #698, 1.649999999999998579 ) ;
#351 = ORIENTED_EDGE ( 'NONE', *, *, #878, .T. ) ;
#352 = DIRECTION ( 'NONE',  ( -0.000000000000000000, -0.000000000000000000, -1.000000000000000000 ) ) ;
#353 = ORIENTED_EDGE ( 'NONE', *, *, #16, .F. ) ;
#354 = DIRECTION ( 'NONE',  ( 0.000000000000000000, 0.000000000000000000, 1.000000000000000000 ) ) ;
#355 = EDGE_CURVE ( 'NONE', #457, #1043, #236, .T. ) ;
#356 = DIRECTION ( 'NONE',  ( 0.000000000000000000, 0.000000000000000000, 1.000000000000000000 ) ) ;
#357 = AXIS2_PLACEMENT_3D ( 'NONE', #910, #142, #993 ) ;
#358 = CIRCLE ( 'NONE', #443, 1.650000000000000355 ) ;
#359 = EDGE_LOOP ( 'NONE', ( #425, #964, #854, #139 ) ) ;
#360 = CARTESIAN_POINT ( 'NONE',  ( -9.249999999999795719, 16.02146997001223383, 15.00000000000000000 ) ) ;
#361 = VERTEX_POINT ( 'NONE', #778 ) ;
#362 = FACE_OUTER_BOUND ( 'NONE', #366, .T. ) ;
#363 = APPLICATION_CONTEXT ( 'automotive_design' ) ;
#364 = VERTEX_POINT ( 'NONE', #769 ) ;
#365 = DIRECTION ( 'NONE',  ( 1.000000000000000000, 0.000000000000000000, 0.000000000000000000 ) ) ;
#366 = EDGE_LOOP ( 'NONE', ( #997, #744, #1028, #74 ) ) ;
#367 = ORIENTED_EDGE ( 'NONE', *, *, #187, .F. ) ;
#368 = CARTESIAN_POINT ( 'NONE',  ( -16.85000000000000142, 1.939792810276531915E-13, 0.000000000000000000 ) ) ;
#369 = EDGE_LOOP ( 'NONE', ( #1045, #465, #351, #251 ) ) ;
#370 = ADVANCED_FACE ( 'NONE', ( #518 ), #1056, .T. ) ;
#371 = FACE_BOUND ( 'NONE', #479, .T. ) ;
#372 = VECTOR ( 'NONE', #79, 1000.000000000000000 ) ;
#373 = ORIENTED_EDGE ( 'NONE', *, *, #961, .T. ) ;
#374 = CLOSED_SHELL ( 'NONE', ( #948, #834, #214, #682, #539, #186, #999, #182, #116, #927, #841, #525, #168, #235, #447, #983, #370, #97, #1031, #1059, #646, #547, #784, #110, #432, #85, #982, #462, #1050, #1038 ) ) ;
#375 = DIRECTION ( 'NONE',  ( 0.000000000000000000, 0.000000000000000000, 1.000000000000000000 ) ) ;
#376 = ORIENTED_EDGE ( 'NONE', *, *, #1017, .F. ) ;
#377 = CARTESIAN_POINT ( 'NONE',  ( -1.291848095371959215E-13, -18.50000000000000000, 15.00000000000000000 ) ) ;
#378 = ORIENTED_EDGE ( 'NONE', *, *, #885, .F. ) ;
#379 = CARTESIAN_POINT ( 'NONE',  ( -17.67146997001211517, -9.250000000000008882, 0.000000000000000000 ) ) ;
#380 = ORIENTED_EDGE ( 'NONE', *, *, #161, .T. ) ;
#381 = DIRECTION ( 'NONE',  ( -1.000000000000000000, 0.000000000000000000, 0.000000000000000000 ) ) ;
#382 = AXIS2_PLACEMENT_3D ( 'NONE', #955, #106, #527 ) ;
#383 = DIRECTION ( 'NONE',  ( 0.000000000000000000, 0.000000000000000000, 1.000000000000000000 ) ) ;
#384 = AXIS2_PLACEMENT_3D ( 'NONE', #417, #433, #174 ) ;
#385 = EDGE_CURVE ( 'NONE', #589, #879, #700, .T. ) ;
#386 = FACE_BOUND ( 'NONE', #882, .T. ) ;
#387 = CIRCLE ( 'NONE', #555, 1.649999999999999689 ) ;
#388 = ORIENTED_EDGE ( 'NONE', *, *, #81, .F. ) ;
#389 = DIRECTION ( 'NONE',  ( 1.000000000000000000, 0.000000000000000000, 0.000000000000000000 ) ) ;
#390 = CARTESIAN_POINT ( 'NONE',  ( 10.90000000000001990, 16.02146997001210238, 0.000000000000000000 ) ) ;
#391 = VECTOR ( 'NONE', #352, 1000.000000000000000 ) ;
#392 = EDGE_CURVE ( 'NONE', #534, #43, #535, .T. ) ;
#393 = VERTEX_POINT ( 'NONE', #200 ) ;
#394 = CARTESIAN_POINT ( 'NONE',  ( 16.02146997001213791, 9.249999999999962697, 15.00000000000000000 ) ) ;
#395 = EDGE_LOOP ( 'NONE', ( #353, #725 ) ) ;
#396 = CARTESIAN_POINT ( 'NONE',  ( 17.67146997001207254, -9.250000000000076383, 0.000000000000000000 ) ) ;
#397 = CYLINDRICAL_SURFACE ( 'NONE', #914, 1.649999999999998579 ) ;
#398 = EDGE_LOOP ( 'NONE', ( #1070, #828 ) ) ;
#399 = CARTESIAN_POINT ( 'NONE',  ( 0.000000000000000000, 0.000000000000000000, 0.000000000000000000 ) ) ;
#400 = EDGE_LOOP ( 'NONE', ( #51, #710 ) ) ;
#401 = DIRECTION ( 'NONE',  ( -0.000000000000000000, -0.000000000000000000, -1.000000000000000000 ) ) ;
#402 = CIRCLE ( 'NONE', #621, 1.649999999999998579 ) ;
#403 = DIRECTION ( 'NONE',  ( -0.000000000000000000, -0.000000000000000000, -1.000000000000000000 ) ) ;
#404 = DIRECTION ( 'NONE',  ( -0.000000000000000000, -0.000000000000000000, -1.000000000000000000 ) ) ;
#405 = VERTEX_POINT ( 'NONE', #52 ) ;
#406 = DIRECTION ( 'NONE',  ( 0.000000000000000000, 0.000000000000000000, 1.000000000000000000 ) ) ;
#407 = EDGE_CURVE ( 'NONE', #787, #1025, #692, .T. ) ;
#408 = CIRCLE ( 'NONE', #217, 14.51999999999999957 ) ;
#409 = FACE_OUTER_BOUND ( 'NONE', #232, .T. ) ;
#410 = AXIS2_PLACEMENT_3D ( 'NONE', #28, #34, #365 ) ;
#411 = CARTESIAN_POINT ( 'NONE',  ( 0.000000000000000000, 0.000000000000000000, 0.000000000000000000 ) ) ;
#412 = ORIENTED_EDGE ( 'NONE', *, *, #1033, .F. ) ;
#413 = LINE ( 'NONE', #741, #107 ) ;
#414 = CARTESIAN_POINT ( 'NONE',  ( 9.250000000000017764, 16.02146997001210238, 15.00000000000000000 ) ) ;
#415 = CARTESIAN_POINT ( 'NONE',  ( -9.249999999999795719, 16.02146997001223383, 15.00000000000000000 ) ) ;
#416 = VERTEX_POINT ( 'NONE', #606 ) ;
#417 = CARTESIAN_POINT ( 'NONE',  ( -1.291848095371959215E-13, -18.50000000000000000, 15.00000000000000000 ) ) ;
#418 = SHAPE_DEFINITION_REPRESENTATION ( #258, #994 ) ;
#419 = CARTESIAN_POINT ( 'NONE',  ( -16.02146997001200290, 9.250000000000182965, 15.00000000000000000 ) ) ;
#420 = EDGE_CURVE ( 'NONE', #901, #207, #1016, .T. ) ;
#421 = FACE_OUTER_BOUND ( 'NONE', #199, .T. ) ;
#422 = CYLINDRICAL_SURFACE ( 'NONE', #797, 1.649999999999998579 ) ;
#423 = CARTESIAN_POINT ( 'NONE',  ( 1.649999999999870459, -18.50000000000000000, 0.000000000000000000 ) ) ;
#424 = AXIS2_PLACEMENT_3D ( 'NONE', #130, #445, #381 ) ;
#425 = ORIENTED_EDGE ( 'NONE', *, *, #917, .F. ) ;
#426 = CIRCLE ( 'NONE', #1082, 1.649999999999998579 ) ;
#427 = FACE_OUTER_BOUND ( 'NONE', #708, .T. ) ;
#428 = CIRCLE ( 'NONE', #145, 1.649999999999998579 ) ;
#429 = CARTESIAN_POINT ( 'NONE',  ( -10.90000000000013181, -16.02146997001203488, 15.00000000000000000 ) ) ;
#430 = ORIENTED_EDGE ( 'NONE', *, *, #577, .T. ) ;
#431 =( LENGTH_UNIT ( ) NAMED_UNIT ( * ) SI_UNIT ( .MILLI., .METRE. ) );
#432 = ADVANCED_FACE ( 'NONE', ( #865 ), #709, .F. ) ;
#433 = DIRECTION ( 'NONE',  ( -0.000000000000000000, -0.000000000000000000, -1.000000000000000000 ) ) ;
#434 = CIRCLE ( 'NONE', #989, 1.650000000000000355 ) ;
#435 = DIRECTION ( 'NONE',  ( -0.000000000000000000, -0.000000000000000000, -1.000000000000000000 ) ) ;
#436 = CARTESIAN_POINT ( 'NONE',  ( 9.250000000000017764, 16.02146997001210238, 0.000000000000000000 ) ) ;
#437 = EDGE_CURVE ( 'NONE', #973, #806, #42, .T. ) ;
#438 = AXIS2_PLACEMENT_3D ( 'NONE', #64, #486, #1086 ) ;
#439 = CARTESIAN_POINT ( 'NONE',  ( 9.250000000000017764, 16.02146997001210238, 15.00000000000000000 ) ) ;
#440 = VERTEX_POINT ( 'NONE', #633 ) ;
#441 = CARTESIAN_POINT ( 'NONE',  ( 25.50000000000000000, 3.122849337825750222E-15, 15.00000000000000000 ) ) ;
#442 = DIRECTION ( 'NONE',  ( -1.000000000000000000, 0.000000000000000000, 0.000000000000000000 ) ) ;
#443 = AXIS2_PLACEMENT_3D ( 'NONE', #805, #1069, #891 ) ;
#444 = VERTEX_POINT ( 'NONE', #940 ) ;
#445 = DIRECTION ( 'NONE',  ( -0.000000000000000000, -0.000000000000000000, -1.000000000000000000 ) ) ;
#446 = VERTEX_POINT ( 'NONE', #855 ) ;
#447 = ADVANCED_FACE ( 'NONE', ( #1046, #619, #114, #716, #625, #296, #461, #957, #860, #119, #40, #371, #704, #303 ), #216, .T. ) ;
#448 = LINE ( 'NONE', #37, #514 ) ;
#449 = EDGE_CURVE ( 'NONE', #813, #715, #109, .T. ) ;
#450 = ORIENTED_EDGE ( 'NONE', *, *, #325, .T. ) ;
#451 = DIRECTION ( 'NONE',  ( -0.000000000000000000, -0.000000000000000000, -1.000000000000000000 ) ) ;
#452 = ORIENTED_EDGE ( 'NONE', *, *, #858, .F. ) ;
#453 = DIRECTION ( 'NONE',  ( -0.000000000000000000, -0.000000000000000000, -1.000000000000000000 ) ) ;
#454 = ORIENTED_EDGE ( 'NONE', *, *, #941, .F. ) ;
#455 = DIRECTION ( 'NONE',  ( -1.000000000000000000, 0.000000000000000000, 0.000000000000000000 ) ) ;
#456 = CIRCLE ( 'NONE', #594, 1.650000000000000355 ) ;
#457 = VERTEX_POINT ( 'NONE', #809 ) ;
#458 = VECTOR ( 'NONE', #473, 1000.000000000000000 ) ;
#459 = DIRECTION ( 'NONE',  ( 0.000000000000000000, 0.000000000000000000, 1.000000000000000000 ) ) ;
#460 = ORIENTED_EDGE ( 'NONE', *, *, #526, .T. ) ;
#461 = FACE_OUTER_BOUND ( 'NONE', #400, .T. ) ;
#462 = ADVANCED_FACE ( 'NONE', ( #233 ), #314, .F. ) ;
#463 = EDGE_LOOP ( 'NONE', ( #454, #312, #95, #610 ) ) ;
#464 = FACE_BOUND ( 'NONE', #282, .T. ) ;
#465 = ORIENTED_EDGE ( 'NONE', *, *, #1054, .T. ) ;
#466 = DIRECTION ( 'NONE',  ( -0.000000000000000000, -0.000000000000000000, -1.000000000000000000 ) ) ;
#467 = DIRECTION ( 'NONE',  ( 0.000000000000000000, 0.000000000000000000, 1.000000000000000000 ) ) ;
#468 = EDGE_CURVE ( 'NONE', #207, #901, #456, .T. ) ;
#469 = DIRECTION ( 'NONE',  ( -1.000000000000000000, 0.000000000000000000, 0.000000000000000000 ) ) ;
#470 = AXIS2_PLACEMENT_3D ( 'NONE', #415, #328, #1 ) ;
#471 = ORIENTED_EDGE ( 'NONE', *, *, #1074, .F. ) ;
#472 = CYLINDRICAL_SURFACE ( 'NONE', #579, 1.649999999999999689 ) ;
#473 = DIRECTION ( 'NONE',  ( -0.000000000000000000, -0.000000000000000000, -1.000000000000000000 ) ) ;
#474 = PLANE ( 'NONE',  #900 ) ;
#475 = VERTEX_POINT ( 'NONE', #557 ) ;
#476 = CYLINDRICAL_SURFACE ( 'NONE', #253, 1.649999999999998579 ) ;
#477 = DIRECTION ( 'NONE',  ( 1.000000000000000000, 0.000000000000000000, 0.000000000000000000 ) ) ;
#478 = FACE_BOUND ( 'NONE', #227, .T. ) ;
#479 = EDGE_LOOP ( 'NONE', ( #215, #118 ) ) ;
#480 = CARTESIAN_POINT ( 'NONE',  ( -9.250000000000131450, -16.02146997001203488, 0.000000000000000000 ) ) ;
#481 = CYLINDRICAL_SURFACE ( 'NONE', #357, 14.51999999999999957 ) ;
#482 = CIRCLE ( 'NONE', #334, 14.51999999999999957 ) ;
#483 = DIRECTION ( 'NONE',  ( -1.000000000000000000, 0.000000000000000000, 0.000000000000000000 ) ) ;
#484 = VECTOR ( 'NONE', #493, 1000.000000000000000 ) ;
#485 = VERTEX_POINT ( 'NONE', #244 ) ;
#486 = DIRECTION ( 'NONE',  ( -0.000000000000000000, -0.000000000000000000, -1.000000000000000000 ) ) ;
#487 = CIRCLE ( 'NONE', #537, 1.650000000000000355 ) ;
#488 = DIRECTION ( 'NONE',  ( -0.000000000000000000, -0.000000000000000000, -1.000000000000000000 ) ) ;
#489 = CARTESIAN_POINT ( 'NONE',  ( 9.250000000000017764, 16.02146997001210238, 15.00000000000000000 ) ) ;
#490 = DIRECTION ( 'NONE',  ( -0.000000000000000000, -0.000000000000000000, -1.000000000000000000 ) ) ;
#491 = CARTESIAN_POINT ( 'NONE',  ( -25.50000000000000000, 0.000000000000000000, 15.00000000000000000 ) ) ;
#492 = CIRCLE ( 'NONE', #29, 14.51999999999999957 ) ;
#493 = DIRECTION ( 'NONE',  ( -0.000000000000000000, -0.000000000000000000, -1.000000000000000000 ) ) ;
#494 = UNCERTAINTY_MEASURE_WITH_UNIT (LENGTH_MEASURE( 1.000000000000000082E-05 ), #431, 'distance_accuracy_value', 'NONE');
#495 = ORIENTED_EDGE ( 'NONE', *, *, #1062, .T. ) ;
#496 = DIRECTION ( 'NONE',  ( 1.000000000000000000, 0.000000000000000000, 0.000000000000000000 ) ) ;
#497 = ORIENTED_EDGE ( 'NONE', *, *, #566, .F. ) ;
#498 = FACE_OUTER_BOUND ( 'NONE', #359, .T. ) ;
#499 = EDGE_CURVE ( 'NONE', #457, #173, #147, .T. ) ;
#500 = DIRECTION ( 'NONE',  ( 0.000000000000000000, 0.000000000000000000, 1.000000000000000000 ) ) ;
#501 = VERTEX_POINT ( 'NONE', #877 ) ;
#502 = CYLINDRICAL_SURFACE ( 'NONE', #908, 1.649999999999998579 ) ;
#503 = DIRECTION ( 'NONE',  ( 0.000000000000000000, 0.000000000000000000, 1.000000000000000000 ) ) ;
#504 = VERTEX_POINT ( 'NONE', #895 ) ;
#505 = DIRECTION ( 'NONE',  ( 1.000000000000000000, 0.000000000000000000, 0.000000000000000000 ) ) ;
#506 = AXIS2_PLACEMENT_3D ( 'NONE', #281, #46, #291 ) ;
#507 = EDGE_CURVE ( 'NONE', #290, #302, #127, .T. ) ;
#508 = ORIENTED_EDGE ( 'NONE', *, *, #61, .T. ) ;
#509 = DIRECTION ( 'NONE',  ( 0.000000000000000000, 0.000000000000000000, 1.000000000000000000 ) ) ;
#510 = CARTESIAN_POINT ( 'NONE',  ( -16.02146997001211304, -9.250000000000008882, 15.00000000000000000 ) ) ;
#511 = ORIENTED_EDGE ( 'NONE', *, *, #16, .T. ) ;
#512 = CARTESIAN_POINT ( 'NONE',  ( 9.249999999999902300, -16.02146997001216278, 0.000000000000000000 ) ) ;
#513 = EDGE_CURVE ( 'NONE', #212, #563, #487, .T. ) ;
#514 = VECTOR ( 'NONE', #1040, 1000.000000000000000 ) ;
#515 = CARTESIAN_POINT ( 'NONE',  ( -17.67146997001211517, -9.250000000000008882, 15.00000000000000000 ) ) ;
#516 = AXIS2_PLACEMENT_3D ( 'NONE', #510, #503, #84 ) ;
#517 = VERTEX_POINT ( 'NONE', #228 ) ;
#518 = FACE_OUTER_BOUND ( 'NONE', #779, .T. ) ;
#519 = ORIENTED_EDGE ( 'NONE', *, *, #896, .T. ) ;
#520 = AXIS2_PLACEMENT_3D ( 'NONE', #911, #171, #743 ) ;
#521 = CARTESIAN_POINT ( 'NONE',  ( -9.249999999999795719, 16.02146997001223383, 0.000000000000000000 ) ) ;
#522 = EDGE_LOOP ( 'NONE', ( #952, #866 ) ) ;
#523 = DIRECTION ( 'NONE',  ( -0.000000000000000000, -0.000000000000000000, -1.000000000000000000 ) ) ;
#524 = ORIENTED_EDGE ( 'NONE', *, *, #180, .T. ) ;
#525 = ADVANCED_FACE ( 'NONE', ( #889 ), #472, .F. ) ;
#526 = EDGE_CURVE ( 'NONE', #485, #777, #413, .T. ) ;
#527 = DIRECTION ( 'NONE',  ( 1.000000000000000000, 0.000000000000000000, 0.000000000000000000 ) ) ;
#528 = ORIENTED_EDGE ( 'NONE', *, *, #392, .F. ) ;
#529 = DIRECTION ( 'NONE',  ( 1.000000000000000000, 0.000000000000000000, 0.000000000000000000 ) ) ;
#530 = ORIENTED_EDGE ( 'NONE', *, *, #903, .F. ) ;
#531 = VECTOR ( 'NONE', #875, 1000.000000000000000 ) ;
#532 = VERTEX_POINT ( 'NONE', #396 ) ;
#533 = CARTESIAN_POINT ( 'NONE',  ( -18.50000000000000000, 1.937772143057939075E-13, 0.000000000000000000 ) ) ;
#534 = VERTEX_POINT ( 'NONE', #546 ) ;
#535 = LINE ( 'NONE', #1026, #1035 ) ;
#536 = ORIENTED_EDGE ( 'NONE', *, *, #566, .T. ) ;
#537 = AXIS2_PLACEMENT_3D ( 'NONE', #480, #406, #160 ) ;
#538 = FACE_OUTER_BOUND ( 'NONE', #618, .T. ) ;
#539 = ADVANCED_FACE ( 'NONE', ( #552 ), #731, .F. ) ;
#540 = ORIENTED_EDGE ( 'NONE', *, *, #265, .F. ) ;
#541 = CARTESIAN_POINT ( 'NONE',  ( 0.000000000000000000, 0.000000000000000000, 15.00000000000000000 ) ) ;
#542 = EDGE_CURVE ( 'NONE', #985, #207, #721, .T. ) ;
#543 = ORIENTED_EDGE ( 'NONE', *, *, #180, .F. ) ;
#544 = CYLINDRICAL_SURFACE ( 'NONE', #18, 1.650000000000002132 ) ;
#545 = ORIENTED_EDGE ( 'NONE', *, *, #49, .T. ) ;
#546 = CARTESIAN_POINT ( 'NONE',  ( -1.649999999999999689, 18.50000000000000355, 15.00000000000000000 ) ) ;
#547 = ADVANCED_FACE ( 'NONE', ( #803 ), #476, .F. ) ;
#548 = ORIENTED_EDGE ( 'NONE', *, *, #968, .F. ) ;
#549 = ORIENTED_EDGE ( 'NONE', *, *, #123, .T. ) ;
#550 = CARTESIAN_POINT ( 'NONE',  ( 16.02146997001213791, 9.249999999999962697, 15.00000000000000000 ) ) ;
#551 = EDGE_LOOP ( 'NONE', ( #543, #197 ) ) ;
#552 = FACE_OUTER_BOUND ( 'NONE', #685, .T. ) ;
#553 = DIRECTION ( 'NONE',  ( 1.000000000000000000, 0.000000000000000000, 0.000000000000000000 ) ) ;
#554 = FACE_BOUND ( 'NONE', #868, .T. ) ;
#555 = AXIS2_PLACEMENT_3D ( 'NONE', #1084, #332, #587 ) ;
#556 = ORIENTED_EDGE ( 'NONE', *, *, #264, .T. ) ;
#557 = CARTESIAN_POINT ( 'NONE',  ( 10.89999999999990266, -16.02146997001216278, 15.00000000000000000 ) ) ;
#558 = DIRECTION ( 'NONE',  ( -1.000000000000000000, 0.000000000000000000, 0.000000000000000000 ) ) ;
#559 = VECTOR ( 'NONE', #614, 1000.000000000000000 ) ;
#560 = EDGE_CURVE ( 'NONE', #693, #1025, #867, .T. ) ;
#561 = PRESENTATION_LAYER_ASSIGNMENT (  '', '', ( #111 ) ) ;
#562 = FACE_OUTER_BOUND ( 'NONE', #369, .T. ) ;
#563 = VERTEX_POINT ( 'NONE', #649 ) ;
#564 = LINE ( 'NONE', #974, #164 ) ;
#565 = CARTESIAN_POINT ( 'NONE',  ( 9.249999999999902300, -16.02146997001216278, 15.00000000000000000 ) ) ;
#566 = EDGE_CURVE ( 'NONE', #176, #613, #680, .T. ) ;
#567 = DIRECTION ( 'NONE',  ( 1.000000000000000000, 0.000000000000000000, 0.000000000000000000 ) ) ;
#568 = ORIENTED_EDGE ( 'NONE', *, *, #1011, .T. ) ;
#569 = DIRECTION ( 'NONE',  ( -1.000000000000000000, 0.000000000000000000, 0.000000000000000000 ) ) ;
#570 = CIRCLE ( 'NONE', #712, 1.650000000000000355 ) ;
#571 = DIRECTION ( 'NONE',  ( 1.000000000000000000, 0.000000000000000000, 0.000000000000000000 ) ) ;
#572 = CIRCLE ( 'NONE', #1049, 25.50000000000000000 ) ;
#573 = AXIS2_PLACEMENT_3D ( 'NONE', #512, #189, #178 ) ;
#574 = DIRECTION ( 'NONE',  ( -1.000000000000000000, 0.000000000000000000, 0.000000000000000000 ) ) ;
#575 = ORIENTED_EDGE ( 'NONE', *, *, #270, .T. ) ;
#576 = DIRECTION ( 'NONE',  ( 1.000000000000000000, 0.000000000000000000, 0.000000000000000000 ) ) ;
#577 = EDGE_CURVE ( 'NONE', #416, #166, #564, .T. ) ;
#578 = ORIENTED_EDGE ( 'NONE', *, *, #758, .F. ) ;
#579 = AXIS2_PLACEMENT_3D ( 'NONE', #883, #308, #820 ) ;
#580 = LINE ( 'NONE', #727, #612 ) ;
#581 = EDGE_CURVE ( 'NONE', #613, #176, #818, .T. ) ;
#582 = AXIS2_PLACEMENT_3D ( 'NONE', #261, #829, #592 ) ;
#583 = CARTESIAN_POINT ( 'NONE',  ( -25.50000000000000000, 0.000000000000000000, 15.00000000000000000 ) ) ;
#584 = ORIENTED_EDGE ( 'NONE', *, *, #99, .F. ) ;
#585 = CARTESIAN_POINT ( 'NONE',  ( 16.02146997001213791, 9.249999999999962697, 0.000000000000000000 ) ) ;
#586 = FACE_OUTER_BOUND ( 'NONE', #143, .T. ) ;
#587 = DIRECTION ( 'NONE',  ( 1.000000000000000000, 0.000000000000000000, 0.000000000000000000 ) ) ;
#588 = DIRECTION ( 'NONE',  ( 0.000000000000000000, 0.000000000000000000, 1.000000000000000000 ) ) ;
#589 = VERTEX_POINT ( 'NONE', #1081 ) ;
#590 = DIRECTION ( 'NONE',  ( 0.000000000000000000, 0.000000000000000000, 1.000000000000000000 ) ) ;
#591 = DIRECTION ( 'NONE',  ( -1.000000000000000000, 0.000000000000000000, 0.000000000000000000 ) ) ;
#592 = DIRECTION ( 'NONE',  ( 1.000000000000000000, 0.000000000000000000, 0.000000000000000000 ) ) ;
#593 = DIRECTION ( 'NONE',  ( -0.000000000000000000, -0.000000000000000000, -1.000000000000000000 ) ) ;
#594 = AXIS2_PLACEMENT_3D ( 'NONE', #75, #902, #796 ) ;
#595 = EDGE_LOOP ( 'NONE', ( #452, #888, #876, #278 ) ) ;
#596 = CARTESIAN_POINT ( 'NONE',  ( 10.90000000000001990, 16.02146997001210238, 15.00000000000000000 ) ) ;
#597 = CARTESIAN_POINT ( 'NONE',  ( 20.14999999999999503, -6.439033804673865155E-14, 0.000000000000000000 ) ) ;
#598 = AXIS2_PLACEMENT_3D ( 'NONE', #252, #330, #553 ) ;
#599 = CARTESIAN_POINT ( 'NONE',  ( 0.000000000000000000, 18.50000000000000355, 0.000000000000000000 ) ) ;
#600 = ORIENTED_EDGE ( 'NONE', *, *, #822, .F. ) ;
#601 = CARTESIAN_POINT ( 'NONE',  ( -18.50000000000000000, 1.937772143057939075E-13, 15.00000000000000000 ) ) ;
#602 = CIRCLE ( 'NONE', #382, 1.650000000000000355 ) ;
#603 = DIRECTION ( 'NONE',  ( 0.000000000000000000, 0.000000000000000000, 1.000000000000000000 ) ) ;
#604 = ORIENTED_EDGE ( 'NONE', *, *, #792, .F. ) ;
#605 = EDGE_CURVE ( 'NONE', #393, #444, #324, .T. ) ;
#606 = CARTESIAN_POINT ( 'NONE',  ( 14.37146997001213755, 9.249999999999962697, 15.00000000000000000 ) ) ;
#607 = VERTEX_POINT ( 'NONE', #596 ) ;
#608 = AXIS2_PLACEMENT_3D ( 'NONE', #411, #976, #641 ) ;
#609 = PRODUCT_RELATED_PRODUCT_CATEGORY ( 'part', '', ( #832 ) ) ;
#610 = ORIENTED_EDGE ( 'NONE', *, *, #1011, .F. ) ;
#611 = CYLINDRICAL_SURFACE ( 'NONE', #793, 1.650000000000002132 ) ;
#612 = VECTOR ( 'NONE', #488, 1000.000000000000000 ) ;
#613 = VERTEX_POINT ( 'NONE', #256 ) ;
#614 = DIRECTION ( 'NONE',  ( -0.000000000000000000, -0.000000000000000000, -1.000000000000000000 ) ) ;
#615 =( GEOMETRIC_REPRESENTATION_CONTEXT ( 3 ) GLOBAL_UNCERTAINTY_ASSIGNED_CONTEXT ( ( #494 ) ) GLOBAL_UNIT_ASSIGNED_CONTEXT ( ( #431, #924, #15 ) ) REPRESENTATION_CONTEXT ( 'NONE', 'WORKASPACE' ) );
#616 = ORIENTED_EDGE ( 'NONE', *, *, #885, .T. ) ;
#617 = CARTESIAN_POINT ( 'NONE',  ( -18.50000000000000000, 1.937772143057939075E-13, 15.00000000000000000 ) ) ;
#618 = EDGE_LOOP ( 'NONE', ( #979, #706, #600, #1039 ) ) ;
#619 = FACE_BOUND ( 'NONE', #551, .T. ) ;
#620 = ORIENTED_EDGE ( 'NONE', *, *, #961, .F. ) ;
#621 = AXIS2_PLACEMENT_3D ( 'NONE', #550, #1071, #899 ) ;
#622 = AXIS2_PLACEMENT_3D ( 'NONE', #279, #459, #208 ) ;
#623 = CARTESIAN_POINT ( 'NONE',  ( -9.250000000000131450, -16.02146997001203488, 0.000000000000000000 ) ) ;
#624 = ORIENTED_EDGE ( 'NONE', *, *, #274, .F. ) ;
#625 = FACE_BOUND ( 'NONE', #271, .T. ) ;
#626 = AXIS2_PLACEMENT_3D ( 'NONE', #842, #675, #826 ) ;
#627 = EDGE_LOOP ( 'NONE', ( #852, #947 ) ) ;
#628 = CIRCLE ( 'NONE', #141, 1.650000000000000355 ) ;
#629 = EDGE_CURVE ( 'NONE', #63, #126, #408, .T. ) ;
#630 = VECTOR ( 'NONE', #986, 1000.000000000000000 ) ;
#631 = FACE_BOUND ( 'NONE', #689, .T. ) ;
#632 = EDGE_LOOP ( 'NONE', ( #1003, #764 ) ) ;
#633 = CARTESIAN_POINT ( 'NONE',  ( -17.67146997001211517, -9.250000000000008882, 15.00000000000000000 ) ) ;
#634 = ORIENTED_EDGE ( 'NONE', *, *, #711, .F. ) ;
#635 = CYLINDRICAL_SURFACE ( 'NONE', #1048, 1.650000000000000355 ) ;
#636 = ORIENTED_EDGE ( 'NONE', *, *, #270, .F. ) ;
#637 = CARTESIAN_POINT ( 'NONE',  ( -10.89999999999979785, 16.02146997001223383, 15.00000000000000000 ) ) ;
#638 = CIRCLE ( 'NONE', #133, 1.649999999999998579 ) ;
#639 = CIRCLE ( 'NONE', #770, 1.649999999999998579 ) ;
#640 = CARTESIAN_POINT ( 'NONE',  ( 18.49999999999999645, -6.459240476859796076E-14, 15.00000000000000000 ) ) ;
#641 = DIRECTION ( 'NONE',  ( 1.000000000000000000, 0.000000000000000000, 0.000000000000000000 ) ) ;
#642 = FACE_BOUND ( 'NONE', #398, .T. ) ;
#643 = EDGE_LOOP ( 'NONE', ( #1027, #864 ) ) ;
#644 = DIRECTION ( 'NONE',  ( 0.000000000000000000, 0.000000000000000000, 1.000000000000000000 ) ) ;
#645 = DIRECTION ( 'NONE',  ( -0.000000000000000000, -0.000000000000000000, -1.000000000000000000 ) ) ;
#646 = ADVANCED_FACE ( 'NONE', ( #427 ), #502, .F. ) ;
#647 = DIRECTION ( 'NONE',  ( 0.000000000000000000, 0.000000000000000000, 1.000000000000000000 ) ) ;
#648 = ORIENTED_EDGE ( 'NONE', *, *, #898, .F. ) ;
#649 = CARTESIAN_POINT ( 'NONE',  ( -7.600000000000131095, -16.02146997001203488, 0.000000000000000000 ) ) ;
#650 = CARTESIAN_POINT ( 'NONE',  ( -7.600000000000131095, -16.02146997001203488, 15.00000000000000000 ) ) ;
#651 = EDGE_CURVE ( 'NONE', #534, #923, #1058, .T. ) ;
#652 = CIRCLE ( 'NONE', #750, 1.649999999999998579 ) ;
#653 = LINE ( 'NONE', #960, #531 ) ;
#654 = ORIENTED_EDGE ( 'NONE', *, *, #526, .F. ) ;
#655 = CARTESIAN_POINT ( 'NONE',  ( 17.67146997001213649, 9.249999999999962697, 15.00000000000000000 ) ) ;
#656 = DIRECTION ( 'NONE',  ( 0.000000000000000000, 0.000000000000000000, 1.000000000000000000 ) ) ;
#657 = DIRECTION ( 'NONE',  ( -0.000000000000000000, -0.000000000000000000, -1.000000000000000000 ) ) ;
#658 = DIRECTION ( 'NONE',  ( -0.000000000000000000, -0.000000000000000000, -1.000000000000000000 ) ) ;
#659 = VERTEX_POINT ( 'NONE', #678 ) ;
#660 = DIRECTION ( 'NONE',  ( 1.000000000000000000, 0.000000000000000000, 0.000000000000000000 ) ) ;
#661 = AXIS2_PLACEMENT_3D ( 'NONE', #623, #44, #294 ) ;
#662 = EDGE_CURVE ( 'NONE', #962, #715, #1001, .T. ) ;
#663 = CIRCLE ( 'NONE', #158, 1.650000000000000355 ) ;
#664 = CARTESIAN_POINT ( 'NONE',  ( -16.02146997001211304, -9.250000000000008882, 15.00000000000000000 ) ) ;
#665 = ORIENTED_EDGE ( 'NONE', *, *, #437, .T. ) ;
#666 = CARTESIAN_POINT ( 'NONE',  ( 0.000000000000000000, 0.000000000000000000, 15.00000000000000000 ) ) ;
#667 = DIRECTION ( 'NONE',  ( 0.000000000000000000, 0.000000000000000000, 1.000000000000000000 ) ) ;
#668 = AXIS2_PLACEMENT_3D ( 'NONE', #102, #674, #172 ) ;
#669 = LINE ( 'NONE', #988, #484 ) ;
#670 = ORIENTED_EDGE ( 'NONE', *, *, #67, .F. ) ;
#671 = CARTESIAN_POINT ( 'NONE',  ( -14.37146997001200077, 9.250000000000182965, 0.000000000000000000 ) ) ;
#672 = DIRECTION ( 'NONE',  ( -0.000000000000000000, -0.000000000000000000, -1.000000000000000000 ) ) ;
#673 = CARTESIAN_POINT ( 'NONE',  ( -18.50000000000000000, 1.937772143057939075E-13, 15.00000000000000000 ) ) ;
#674 = DIRECTION ( 'NONE',  ( 0.000000000000000000, 0.000000000000000000, 1.000000000000000000 ) ) ;
#675 = DIRECTION ( 'NONE',  ( -0.000000000000000000, -0.000000000000000000, -1.000000000000000000 ) ) ;
#676 = AXIS2_PLACEMENT_3D ( 'NONE', #984, #729, #893 ) ;
#677 = EDGE_CURVE ( 'NONE', #1005, #813, #722, .T. ) ;
#678 = CARTESIAN_POINT ( 'NONE',  ( 14.37146997001207538, -9.250000000000076383, 15.00000000000000000 ) ) ;
#679 = CYLINDRICAL_SURFACE ( 'NONE', #992, 14.51999999999999957 ) ;
#680 = CIRCLE ( 'NONE', #1014, 1.649999999999998579 ) ;
#681 = ORIENTED_EDGE ( 'NONE', *, *, #32, .T. ) ;
#682 = ADVANCED_FACE ( 'NONE', ( #421 ), #835, .F. ) ;
#683 = ORIENTED_EDGE ( 'NONE', *, *, #1074, .T. ) ;
#684 = DIRECTION ( 'NONE',  ( 1.000000000000000000, 0.000000000000000000, 0.000000000000000000 ) ) ;
#685 = EDGE_LOOP ( 'NONE', ( #549, #33, #819, #307 ) ) ;
#686 = LINE ( 'NONE', #341, #937 ) ;
#687 = ORIENTED_EDGE ( 'NONE', *, *, #1078, .F. ) ;
#688 = EDGE_CURVE ( 'NONE', #444, #166, #428, .T. ) ;
#689 = EDGE_LOOP ( 'NONE', ( #260, #990 ) ) ;
#690 = CARTESIAN_POINT ( 'NONE',  ( 9.249999999999902300, -16.02146997001216278, 15.00000000000000000 ) ) ;
#691 = EDGE_LOOP ( 'NONE', ( #654, #1023, #1080, #286 ) ) ;
#692 = LINE ( 'NONE', #285, #559 ) ;
#693 = VERTEX_POINT ( 'NONE', #671 ) ;
#694 = DIRECTION ( 'NONE',  ( 1.000000000000000000, 0.000000000000000000, 0.000000000000000000 ) ) ;
#695 = ORIENTED_EDGE ( 'NONE', *, *, #892, .T. ) ;
#696 = CARTESIAN_POINT ( 'NONE',  ( 0.000000000000000000, 0.000000000000000000, 15.00000000000000000 ) ) ;
#697 = ORIENTED_EDGE ( 'NONE', *, *, #651, .T. ) ;
#698 = AXIS2_PLACEMENT_3D ( 'NONE', #673, #181, #996 ) ;
#699 = ORIENTED_EDGE ( 'NONE', *, *, #420, .F. ) ;
#700 = CIRCLE ( 'NONE', #1079, 1.649999999999999689 ) ;
#701 = CARTESIAN_POINT ( 'NONE',  ( 25.50000000000000000, 3.122849337825750222E-15, 15.00000000000000000 ) ) ;
#702 = AXIS2_PLACEMENT_3D ( 'NONE', #987, #897, #477 ) ;
#703 = ORIENTED_EDGE ( 'NONE', *, *, #449, .F. ) ;
#704 = FACE_BOUND ( 'NONE', #775, .T. ) ;
#705 = EDGE_CURVE ( 'NONE', #166, #444, #890, .T. ) ;
#706 = ORIENTED_EDGE ( 'NONE', *, *, #739, .T. ) ;
#707 = CARTESIAN_POINT ( 'NONE',  ( -1.650000000000128919, -18.50000000000000000, 0.000000000000000000 ) ) ;
#708 = EDGE_LOOP ( 'NONE', ( #317, #108, #430, #717 ) ) ;
#709 = CYLINDRICAL_SURFACE ( 'NONE', #424, 1.649999999999999689 ) ;
#710 = ORIENTED_EDGE ( 'NONE', *, *, #917, .T. ) ;
#711 = EDGE_CURVE ( 'NONE', #446, #659, #202, .T. ) ;
#712 = AXIS2_PLACEMENT_3D ( 'NONE', #521, #733, #321 ) ;
#713 = CIRCLE ( 'NONE', #2, 1.649999999999998579 ) ;
#714 = CARTESIAN_POINT ( 'NONE',  ( -14.51999999999999957, 0.000000000000000000, 15.00000000000000000 ) ) ;
#715 = VERTEX_POINT ( 'NONE', #19 ) ;
#716 = FACE_BOUND ( 'NONE', #191, .T. ) ;
#717 = ORIENTED_EDGE ( 'NONE', *, *, #688, .F. ) ;
#718 = CIRCLE ( 'NONE', #995, 14.51999999999999957 ) ;
#719 = FACE_BOUND ( 'NONE', #643, .T. ) ;
#720 = ORIENTED_EDGE ( 'NONE', *, *, #49, .F. ) ;
#721 = LINE ( 'NONE', #329, #959 ) ;
#722 = CIRCLE ( 'NONE', #12, 25.50000000000000000 ) ;
#723 = CARTESIAN_POINT ( 'NONE',  ( 0.000000000000000000, 0.000000000000000000, 0.000000000000000000 ) ) ;
#724 = CARTESIAN_POINT ( 'NONE',  ( -25.50000000000000000, 0.000000000000000000, 0.000000000000000000 ) ) ;
#725 = ORIENTED_EDGE ( 'NONE', *, *, #507, .F. ) ;
#726 = DIRECTION ( 'NONE',  ( -1.000000000000000000, 0.000000000000000000, 0.000000000000000000 ) ) ;
#727 = CARTESIAN_POINT ( 'NONE',  ( 7.599999999999901945, -16.02146997001216278, 15.00000000000000000 ) ) ;
#728 = PRODUCT_DEFINITION ( '鏅', '', #886, #338 ) ;
#729 = DIRECTION ( 'NONE',  ( 0.000000000000000000, 0.000000000000000000, 1.000000000000000000 ) ) ;
#730 = ORIENTED_EDGE ( 'NONE', *, *, #187, .T. ) ;
#731 = CYLINDRICAL_SURFACE ( 'NONE', #438, 1.650000000000000355 ) ;
#732 = DIRECTION ( 'NONE',  ( -0.000000000000000000, -0.000000000000000000, -1.000000000000000000 ) ) ;
#733 = DIRECTION ( 'NONE',  ( 0.000000000000000000, 0.000000000000000000, 1.000000000000000000 ) ) ;
#734 = AXIS2_PLACEMENT_3D ( 'NONE', #814, #69, #318 ) ;
#735 = ORIENTED_EDGE ( 'NONE', *, *, #581, .F. ) ;
#736 = CARTESIAN_POINT ( 'NONE',  ( 18.49999999999999645, -6.459240476859796076E-14, 0.000000000000000000 ) ) ;
#737 = DIRECTION ( 'NONE',  ( 1.000000000000000000, 0.000000000000000000, 0.000000000000000000 ) ) ;
#738 = MANIFOLD_SOLID_BREP ( '\X2\51f853f0\X0\-\X2\62c94f38\X0\1', #374 ) ;
#739 = EDGE_CURVE ( 'NONE', #607, #36, #344, .T. ) ;
#740 = ORIENTED_EDGE ( 'NONE', *, *, #662, .T. ) ;
#741 = CARTESIAN_POINT ( 'NONE',  ( -16.85000000000000142, 1.939792810276531915E-13, 15.00000000000000000 ) ) ;
#742 = CARTESIAN_POINT ( 'NONE',  ( 20.14999999999999503, -6.439033804673865155E-14, 15.00000000000000000 ) ) ;
#743 = DIRECTION ( 'NONE',  ( -1.000000000000000000, 0.000000000000000000, 0.000000000000000000 ) ) ;
#744 = ORIENTED_EDGE ( 'NONE', *, *, #758, .T. ) ;
#745 = DIRECTION ( 'NONE',  ( 1.000000000000000000, 0.000000000000000000, 0.000000000000000000 ) ) ;
#746 = CARTESIAN_POINT ( 'NONE',  ( -9.250000000000131450, -16.02146997001203488, 15.00000000000000000 ) ) ;
#747 = CARTESIAN_POINT ( 'NONE',  ( 0.000000000000000000, 0.000000000000000000, 0.000000000000000000 ) ) ;
#748 = ORIENTED_EDGE ( 'NONE', *, *, #892, .F. ) ;
#749 = CYLINDRICAL_SURFACE ( 'NONE', #763, 25.50000000000000000 ) ;
#750 = AXIS2_PLACEMENT_3D ( 'NONE', #53, #383, #1057 ) ;
#751 = CIRCLE ( 'NONE', #287, 1.649999999999998579 ) ;
#752 = FACE_OUTER_BOUND ( 'NONE', #463, .T. ) ;
#753 = PRESENTATION_STYLE_ASSIGNMENT (( #1010 ) ) ;
#754 = EDGE_CURVE ( 'NONE', #1072, #532, #751, .T. ) ;
#755 = LINE ( 'NONE', #872, #904 ) ;
#756 = ORIENTED_EDGE ( 'NONE', *, *, #739, .F. ) ;
#757 = DIRECTION ( 'NONE',  ( -0.000000000000000000, -0.000000000000000000, -1.000000000000000000 ) ) ;
#758 = EDGE_CURVE ( 'NONE', #364, #693, #909, .T. ) ;
#759 = DIRECTION ( 'NONE',  ( -0.000000000000000000, -0.000000000000000000, -1.000000000000000000 ) ) ;
#760 = CIRCLE ( 'NONE', #862, 1.650000000000000355 ) ;
#761 = VECTOR ( 'NONE', #1044, 1000.000000000000000 ) ;
#762 = ORIENTED_EDGE ( 'NONE', *, *, #786, .T. ) ;
#763 = AXIS2_PLACEMENT_3D ( 'NONE', #349, #931, #921 ) ;
#764 = ORIENTED_EDGE ( 'NONE', *, *, #30, .F. ) ;
#765 = AXIS2_PLACEMENT_3D ( 'NONE', #1007, #259, #91 ) ;
#766 = AXIS2_PLACEMENT_3D ( 'NONE', #736, #58, #389 ) ;
#767 = DIRECTION ( 'NONE',  ( 0.000000000000000000, 0.000000000000000000, 1.000000000000000000 ) ) ;
#768 = ORIENTED_EDGE ( 'NONE', *, *, #507, .T. ) ;
#769 = CARTESIAN_POINT ( 'NONE',  ( -14.37146997001200077, 9.250000000000182965, 15.00000000000000000 ) ) ;
#770 = AXIS2_PLACEMENT_3D ( 'NONE', #1083, #656, #571 ) ;
#771 = CYLINDRICAL_SURFACE ( 'NONE', #936, 1.649999999999998579 ) ;
#772 = VERTEX_POINT ( 'NONE', #920 ) ;
#773 = DIRECTION ( 'NONE',  ( 1.000000000000000000, 0.000000000000000000, 0.000000000000000000 ) ) ;
#774 = EDGE_LOOP ( 'NONE', ( #670, #861 ) ) ;
#775 = EDGE_LOOP ( 'NONE', ( #871, #194 ) ) ;
#776 = DIRECTION ( 'NONE',  ( 1.000000000000000000, 0.000000000000000000, 0.000000000000000000 ) ) ;
#777 = VERTEX_POINT ( 'NONE', #368 ) ;
#778 = CARTESIAN_POINT ( 'NONE',  ( 7.600000000000018296, 16.02146997001210238, 0.000000000000000000 ) ) ;
#779 = EDGE_LOOP ( 'NONE', ( #703, #1055, #508, #740 ) ) ;
#780 = EDGE_CURVE ( 'NONE', #504, #777, #851, .T. ) ;
#781 = AXIS2_PLACEMENT_3D ( 'NONE', #696, #523, #455 ) ;
#782 = CARTESIAN_POINT ( 'NONE',  ( -9.249999999999795719, 16.02146997001223383, 0.000000000000000000 ) ) ;
#783 = EDGE_LOOP ( 'NONE', ( #802, #132 ) ) ;
#784 = ADVANCED_FACE ( 'NONE', ( #289 ), #771, .F. ) ;
#785 = CARTESIAN_POINT ( 'NONE',  ( 9.249999999999902300, -16.02146997001216278, 0.000000000000000000 ) ) ;
#786 = EDGE_CURVE ( 'NONE', #1025, #693, #602, .T. ) ;
#787 = VERTEX_POINT ( 'NONE', #1029 ) ;
#788 = CARTESIAN_POINT ( 'NONE',  ( 10.89999999999990266, -16.02146997001216278, 0.000000000000000000 ) ) ;
#789 = ORIENTED_EDGE ( 'NONE', *, *, #148, .T. ) ;
#790 = DIRECTION ( 'NONE',  ( 0.000000000000000000, 0.000000000000000000, 1.000000000000000000 ) ) ;
#791 = ORIENTED_EDGE ( 'NONE', *, *, #7, .T. ) ;
#792 = EDGE_CURVE ( 'NONE', #715, #962, #572, .T. ) ;
#793 = AXIS2_PLACEMENT_3D ( 'NONE', #1024, #944, #50 ) ;
#794 = FACE_BOUND ( 'NONE', #255, .T. ) ;
#795 = EDGE_LOOP ( 'NONE', ( #808, #791 ) ) ;
#796 = DIRECTION ( 'NONE',  ( 1.000000000000000000, 0.000000000000000000, 0.000000000000000000 ) ) ;
#797 = AXIS2_PLACEMENT_3D ( 'NONE', #601, #759, #844 ) ;
#798 = DIRECTION ( 'NONE',  ( 1.000000000000000000, 0.000000000000000000, 0.000000000000000000 ) ) ;
#799 = EDGE_CURVE ( 'NONE', #919, #173, #434, .T. ) ;
#800 = EDGE_CURVE ( 'NONE', #563, #212, #331, .T. ) ;
#801 = CARTESIAN_POINT ( 'NONE',  ( -9.249999999999795719, 16.02146997001223383, 15.00000000000000000 ) ) ;
#802 = ORIENTED_EDGE ( 'NONE', *, *, #629, .F. ) ;
#803 = FACE_OUTER_BOUND ( 'NONE', #323, .T. ) ;
#804 = AXIS2_PLACEMENT_3D ( 'NONE', #272, #435, #1013 ) ;
#805 = CARTESIAN_POINT ( 'NONE',  ( -9.250000000000131450, -16.02146997001203488, 15.00000000000000000 ) ) ;
#806 = VERTEX_POINT ( 'NONE', #788 ) ;
#807 = FACE_BOUND ( 'NONE', #3, .T. ) ;
#808 = ORIENTED_EDGE ( 'NONE', *, *, #780, .T. ) ;
#809 = CARTESIAN_POINT ( 'NONE',  ( -10.89999999999979785, 16.02146997001223383, 15.00000000000000000 ) ) ;
#810 = CYLINDRICAL_SURFACE ( 'NONE', #83, 1.650000000000000355 ) ;
#811 = ORIENTED_EDGE ( 'NONE', *, *, #437, .F. ) ;
#812 = DIRECTION ( 'NONE',  ( 0.000000000000000000, 0.000000000000000000, 1.000000000000000000 ) ) ;
#813 = VERTEX_POINT ( 'NONE', #701 ) ;
#814 = CARTESIAN_POINT ( 'NONE',  ( -16.02146997001200290, 9.250000000000182965, 0.000000000000000000 ) ) ;
#815 = CARTESIAN_POINT ( 'NONE',  ( -14.51999999999999957, 0.000000000000000000, 15.00000000000000000 ) ) ;
#816 = AXIS2_PLACEMENT_3D ( 'NONE', #489, #657, #574 ) ;
#817 = CARTESIAN_POINT ( 'NONE',  ( -7.599999999999796252, 16.02146997001223383, 0.000000000000000000 ) ) ;
#818 = CIRCLE ( 'NONE', #766, 1.649999999999998579 ) ;
#819 = ORIENTED_EDGE ( 'NONE', *, *, #513, .F. ) ;
#820 = DIRECTION ( 'NONE',  ( -1.000000000000000000, 0.000000000000000000, 0.000000000000000000 ) ) ;
#821 = LINE ( 'NONE', #742, #225 ) ;
#822 = EDGE_CURVE ( 'NONE', #361, #36, #193, .T. ) ;
#823 = CARTESIAN_POINT ( 'NONE',  ( -7.599999999999796252, 16.02146997001223383, 15.00000000000000000 ) ) ;
#824 = DIRECTION ( 'NONE',  ( 1.000000000000000000, 0.000000000000000000, 0.000000000000000000 ) ) ;
#825 = CIRCLE ( 'NONE', #869, 1.650000000000000355 ) ;
#826 = DIRECTION ( 'NONE',  ( -1.000000000000000000, 0.000000000000000000, 0.000000000000000000 ) ) ;
#827 = CARTESIAN_POINT ( 'NONE',  ( -17.67146997001200504, 9.250000000000182965, 0.000000000000000000 ) ) ;
#828 = ORIENTED_EDGE ( 'NONE', *, *, #1078, .T. ) ;
#829 = DIRECTION ( 'NONE',  ( 0.000000000000000000, 0.000000000000000000, 1.000000000000000000 ) ) ;
#830 = ORIENTED_EDGE ( 'NONE', *, *, #407, .T. ) ;
#831 = CARTESIAN_POINT ( 'NONE',  ( 0.000000000000000000, 0.000000000000000000, 15.00000000000000000 ) ) ;
#832 = PRODUCT ( '\X2\5927517382828f7490e8592787ba6bcd\X0\A', '\X2\5927517382828f7490e8592787ba6bcd\X0\A', '', ( #906 ) ) ;
#833 = CYLINDRICAL_SURFACE ( 'NONE', #520, 1.649999999999999689 ) ;
#834 = ADVANCED_FACE ( 'NONE', ( #362 ), #611, .F. ) ;
#835 = CYLINDRICAL_SURFACE ( 'NONE', #804, 1.650000000000002132 ) ;
#836 = CARTESIAN_POINT ( 'NONE',  ( 16.84999999999999787, -6.459240476859796076E-14, 15.00000000000000000 ) ) ;
#837 = AXIS2_PLACEMENT_3D ( 'NONE', #946, #1042, #205 ) ;
#838 = DIRECTION ( 'NONE',  ( 1.000000000000000000, 0.000000000000000000, 0.000000000000000000 ) ) ;
#839 = EDGE_CURVE ( 'NONE', #485, #517, #713, .T. ) ;
#840 = DIRECTION ( 'NONE',  ( 0.000000000000000000, 0.000000000000000000, 1.000000000000000000 ) ) ;
#841 = ADVANCED_FACE ( 'NONE', ( #538 ), #192, .F. ) ;
#842 = CARTESIAN_POINT ( 'NONE',  ( 16.02146997001207396, -9.250000000000076383, 15.00000000000000000 ) ) ;
#843 = EDGE_CURVE ( 'NONE', #967, #607, #247, .T. ) ;
#844 = DIRECTION ( 'NONE',  ( -1.000000000000000000, 0.000000000000000000, 0.000000000000000000 ) ) ;
#845 = AXIS2_PLACEMENT_3D ( 'NONE', #801, #134, #483 ) ;
#846 = AXIS2_PLACEMENT_3D ( 'NONE', #533, #275, #694 ) ;
#847 = CIRCLE ( 'NONE', #516, 1.650000000000000355 ) ;
#848 = LINE ( 'NONE', #853, #297 ) ;
#849 = ORIENTED_EDGE ( 'NONE', *, *, #705, .F. ) ;
#850 = DIRECTION ( 'NONE',  ( 1.000000000000000000, 0.000000000000000000, -0.000000000000000000 ) ) ;
#851 = CIRCLE ( 'NONE', #846, 1.649999999999998579 ) ;
#852 = ORIENTED_EDGE ( 'NONE', *, *, #651, .F. ) ;
#853 = CARTESIAN_POINT ( 'NONE',  ( -20.14999999999999858, 1.937772143057939075E-13, 15.00000000000000000 ) ) ;
#854 = ORIENTED_EDGE ( 'NONE', *, *, #792, .T. ) ;
#855 = CARTESIAN_POINT ( 'NONE',  ( 17.67146997001207254, -9.250000000000076383, 15.00000000000000000 ) ) ;
#856 = ORIENTED_EDGE ( 'NONE', *, *, #47, .T. ) ;
#857 = DIRECTION ( 'NONE',  ( 1.000000000000000000, 0.000000000000000000, 0.000000000000000000 ) ) ;
#858 = EDGE_CURVE ( 'NONE', #446, #532, #448, .T. ) ;
#859 = VERTEX_POINT ( 'NONE', #707 ) ;
#860 = FACE_BOUND ( 'NONE', #632, .T. ) ;
#861 = ORIENTED_EDGE ( 'NONE', *, *, #896, .F. ) ;
#862 = AXIS2_PLACEMENT_3D ( 'NONE', #690, #603, #198 ) ;
#863 = CARTESIAN_POINT ( 'NONE',  ( 16.02146997001207396, -9.250000000000076383, 15.00000000000000000 ) ) ;
#864 = ORIENTED_EDGE ( 'NONE', *, *, #799, .T. ) ;
#865 = FACE_OUTER_BOUND ( 'NONE', #956, .T. ) ;
#866 = ORIENTED_EDGE ( 'NONE', *, *, #327, .F. ) ;
#867 = CIRCLE ( 'NONE', #734, 1.650000000000000355 ) ;
#868 = EDGE_LOOP ( 'NONE', ( #243, #22 ) ) ;
#869 = AXIS2_PLACEMENT_3D ( 'NONE', #360, #790, #1032 ) ;
#870 = LINE ( 'NONE', #515, #761 ) ;
#871 = ORIENTED_EDGE ( 'NONE', *, *, #1062, .F. ) ;
#872 = CARTESIAN_POINT ( 'NONE',  ( -7.599999999999796252, 16.02146997001223383, 15.00000000000000000 ) ) ;
#873 = ORIENTED_EDGE ( 'NONE', *, *, #560, .T. ) ;
#874 = VECTOR ( 'NONE', #884, 1000.000000000000000 ) ;
#875 = DIRECTION ( 'NONE',  ( -0.000000000000000000, -0.000000000000000000, -1.000000000000000000 ) ) ;
#876 = ORIENTED_EDGE ( 'NONE', *, *, #293, .T. ) ;
#877 = CARTESIAN_POINT ( 'NONE',  ( -14.51999999999999957, 0.000000000000000000, 0.000000000000000000 ) ) ;
#878 = EDGE_CURVE ( 'NONE', #440, #901, #870, .T. ) ;
#879 = VERTEX_POINT ( 'NONE', #213 ) ;
#880 = EDGE_CURVE ( 'NONE', #517, #504, #848, .T. ) ;
#881 = CYLINDRICAL_SURFACE ( 'NONE', #845, 1.650000000000000355 ) ;
#882 = EDGE_LOOP ( 'NONE', ( #762, #873 ) ) ;
#883 = CARTESIAN_POINT ( 'NONE',  ( 0.000000000000000000, 18.50000000000000355, 15.00000000000000000 ) ) ;
#884 = DIRECTION ( 'NONE',  ( -0.000000000000000000, -0.000000000000000000, -1.000000000000000000 ) ) ;
#885 = EDGE_CURVE ( 'NONE', #126, #152, #1019, .T. ) ;
#886 = PRODUCT_DEFINITION_FORMATION_WITH_SPECIFIED_SOURCE ( '瀵', '', #832, .NOT_KNOWN. ) ;
#887 = CARTESIAN_POINT ( 'NONE',  ( 7.600000000000018296, 16.02146997001210238, 15.00000000000000000 ) ) ;
#888 = ORIENTED_EDGE ( 'NONE', *, *, #711, .T. ) ;
#889 = FACE_OUTER_BOUND ( 'NONE', #88, .T. ) ;
#890 = CIRCLE ( 'NONE', #1037, 1.649999999999998579 ) ;
#891 = DIRECTION ( 'NONE',  ( 1.000000000000000000, 0.000000000000000000, 0.000000000000000000 ) ) ;
#892 = EDGE_CURVE ( 'NONE', #43, #772, #346, .T. ) ;
#893 = DIRECTION ( 'NONE',  ( 1.000000000000000000, 0.000000000000000000, 0.000000000000000000 ) ) ;
#894 = ORIENTED_EDGE ( 'NONE', *, *, #629, .T. ) ;
#895 = CARTESIAN_POINT ( 'NONE',  ( -20.14999999999999858, 1.937772143057939075E-13, 0.000000000000000000 ) ) ;
#896 = EDGE_CURVE ( 'NONE', #475, #405, #760, .T. ) ;
#897 = DIRECTION ( 'NONE',  ( 0.000000000000000000, 0.000000000000000000, 1.000000000000000000 ) ) ;
#898 = EDGE_CURVE ( 'NONE', #173, #919, #570, .T. ) ;
#899 = DIRECTION ( 'NONE',  ( 1.000000000000000000, 0.000000000000000000, 0.000000000000000000 ) ) ;
#900 = AXIS2_PLACEMENT_3D ( 'NONE', #399, #647, #977 ) ;
#901 = VERTEX_POINT ( 'NONE', #379 ) ;
#902 = DIRECTION ( 'NONE',  ( 0.000000000000000000, 0.000000000000000000, 1.000000000000000000 ) ) ;
#903 = EDGE_CURVE ( 'NONE', #302, #613, #653, .T. ) ;
#904 = VECTOR ( 'NONE', #951, 1000.000000000000000 ) ;
#905 = CARTESIAN_POINT ( 'NONE',  ( 14.51999999999999957, 1.778187152361956765E-15, 0.000000000000000000 ) ) ;
#906 = PRODUCT_CONTEXT ( 'NONE', #363, 'mechanical' ) ;
#907 = CARTESIAN_POINT ( 'NONE',  ( -16.02146997001200290, 9.250000000000182965, 15.00000000000000000 ) ) ;
#908 = AXIS2_PLACEMENT_3D ( 'NONE', #4, #757, #929 ) ;
#909 = LINE ( 'NONE', #167, #94 ) ;
#910 = CARTESIAN_POINT ( 'NONE',  ( 0.000000000000000000, 0.000000000000000000, 15.00000000000000000 ) ) ;
#911 = CARTESIAN_POINT ( 'NONE',  ( 0.000000000000000000, 18.50000000000000355, 15.00000000000000000 ) ) ;
#912 = EDGE_LOOP ( 'NONE', ( #756, #223, #681, #367 ) ) ;
#913 = FILL_AREA_STYLE_COLOUR ( '', #943 ) ;
#914 = AXIS2_PLACEMENT_3D ( 'NONE', #640, #645, #558 ) ;
#915 = FACE_OUTER_BOUND ( 'NONE', #115, .T. ) ;
#916 = EDGE_CURVE ( 'NONE', #416, #393, #402, .T. ) ;
#917 = EDGE_CURVE ( 'NONE', #813, #1005, #155, .T. ) ;
#918 = DIRECTION ( 'NONE',  ( -0.000000000000000000, -0.000000000000000000, -1.000000000000000000 ) ) ;
#919 = VERTEX_POINT ( 'NONE', #817 ) ;
#920 = CARTESIAN_POINT ( 'NONE',  ( 1.649999999999999689, 18.50000000000000355, 0.000000000000000000 ) ) ;
#921 = DIRECTION ( 'NONE',  ( -1.000000000000000000, 0.000000000000000000, 0.000000000000000000 ) ) ;
#922 = CYLINDRICAL_SURFACE ( 'NONE', #816, 1.650000000000000355 ) ;
#923 = VERTEX_POINT ( 'NONE', #220 ) ;
#924 =( NAMED_UNIT ( * ) PLANE_ANGLE_UNIT ( ) SI_UNIT ( $, .RADIAN. ) );
#925 = CYLINDRICAL_SURFACE ( 'NONE', #384, 1.649999999999999689 ) ;
#926 = AXIS2_PLACEMENT_3D ( 'NONE', #541, #963, #850 ) ;
#927 = ADVANCED_FACE ( 'NONE', ( #138 ), #1053, .F. ) ;
#928 = EDGE_LOOP ( 'NONE', ( #35, #218, #945, #343 ) ) ;
#929 = DIRECTION ( 'NONE',  ( -1.000000000000000000, 0.000000000000000000, 0.000000000000000000 ) ) ;
#930 =( LENGTH_UNIT ( ) NAMED_UNIT ( * ) SI_UNIT ( .MILLI., .METRE. ) );
#931 = DIRECTION ( 'NONE',  ( -0.000000000000000000, -0.000000000000000000, -1.000000000000000000 ) ) ;
#932 = AXIS2_PLACEMENT_3D ( 'NONE', #245, #403, #1075 ) ;
#933 = DIRECTION ( 'NONE',  ( -0.000000000000000000, -0.000000000000000000, -1.000000000000000000 ) ) ;
#934 = ORIENTED_EDGE ( 'NONE', *, *, #67, .T. ) ;
#935 = DIRECTION ( 'NONE',  ( -0.000000000000000000, -0.000000000000000000, -1.000000000000000000 ) ) ;
#936 = AXIS2_PLACEMENT_3D ( 'NONE', #863, #453, #442 ) ;
#937 = VECTOR ( 'NONE', #672, 1000.000000000000000 ) ;
#938 = DIRECTION ( 'NONE',  ( -1.000000000000000000, 0.000000000000000000, 0.000000000000000000 ) ) ;
#939 = ORIENTED_EDGE ( 'NONE', *, *, #161, .F. ) ;
#940 = CARTESIAN_POINT ( 'NONE',  ( 17.67146997001213649, 9.249999999999962697, 0.000000000000000000 ) ) ;
#941 = EDGE_CURVE ( 'NONE', #923, #772, #66, .T. ) ;
#942 = EDGE_LOOP ( 'NONE', ( #1085, #536 ) ) ;
#943 = COLOUR_RGB ( '',0.7921568627450980005, 0.8196078431372548767, 0.9333333333333333481 ) ;
#944 = DIRECTION ( 'NONE',  ( -0.000000000000000000, -0.000000000000000000, -1.000000000000000000 ) ) ;
#945 = ORIENTED_EDGE ( 'NONE', *, *, #499, .T. ) ;
#946 = CARTESIAN_POINT ( 'NONE',  ( -16.02146997001211304, -9.250000000000008882, 0.000000000000000000 ) ) ;
#947 = ORIENTED_EDGE ( 'NONE', *, *, #1018, .F. ) ;
#948 = ADVANCED_FACE ( 'NONE', ( #237 ), #881, .F. ) ;
#949 = DIRECTION ( 'NONE',  ( 0.000000000000000000, 0.000000000000000000, 1.000000000000000000 ) ) ;
#950 = EDGE_LOOP ( 'NONE', ( #378, #556, #68, #687 ) ) ;
#951 = DIRECTION ( 'NONE',  ( -0.000000000000000000, -0.000000000000000000, -1.000000000000000000 ) ) ;
#952 = ORIENTED_EDGE ( 'NONE', *, *, #355, .F. ) ;
#953 = AXIS2_PLACEMENT_3D ( 'NONE', #599, #767, #26 ) ;
#954 = CIRCLE ( 'NONE', #249, 1.650000000000000355 ) ;
#955 = CARTESIAN_POINT ( 'NONE',  ( -16.02146997001200290, 9.250000000000182965, 0.000000000000000000 ) ) ;
#956 = EDGE_LOOP ( 'NONE', ( #584, #159, #124, #720 ) ) ;
#957 = FACE_BOUND ( 'NONE', #783, .T. ) ;
#958 = ORIENTED_EDGE ( 'NONE', *, *, #468, .T. ) ;
#959 = VECTOR ( 'NONE', #969, 1000.000000000000000 ) ;
#960 = CARTESIAN_POINT ( 'NONE',  ( 16.84999999999999787, -6.459240476859796076E-14, 15.00000000000000000 ) ) ;
#961 = EDGE_CURVE ( 'NONE', #859, #1076, #246, .T. ) ;
#962 = VERTEX_POINT ( 'NONE', #724 ) ;
#963 = DIRECTION ( 'NONE',  ( 0.000000000000000000, 0.000000000000000000, 1.000000000000000000 ) ) ;
#964 = ORIENTED_EDGE ( 'NONE', *, *, #449, .T. ) ;
#965 = CIRCLE ( 'NONE', #310, 1.650000000000000355 ) ;
#966 = CARTESIAN_POINT ( 'NONE',  ( 9.249999999999902300, -16.02146997001216278, 15.00000000000000000 ) ) ;
#967 = VERTEX_POINT ( 'NONE', #887 ) ;
#968 = EDGE_CURVE ( 'NONE', #63, #501, #242, .T. ) ;
#969 = DIRECTION ( 'NONE',  ( -0.000000000000000000, -0.000000000000000000, -1.000000000000000000 ) ) ;
#970 = FACE_OUTER_BOUND ( 'NONE', #8, .T. ) ;
#971 = APPLICATION_PROTOCOL_DEFINITION ( 'draft international standard', 'automotive_design', 1998, #305 ) ;
#972 = CARTESIAN_POINT ( 'NONE',  ( 1.649999999999999689, 18.50000000000000355, 15.00000000000000000 ) ) ;
#973 = VERTEX_POINT ( 'NONE', #300 ) ;
#974 = CARTESIAN_POINT ( 'NONE',  ( 14.37146997001213755, 9.249999999999962697, 15.00000000000000000 ) ) ;
#975 = DIRECTION ( 'NONE',  ( 0.000000000000000000, 0.000000000000000000, 1.000000000000000000 ) ) ;
#976 = DIRECTION ( 'NONE',  ( 0.000000000000000000, 0.000000000000000000, 1.000000000000000000 ) ) ;
#977 = DIRECTION ( 'NONE',  ( 1.000000000000000000, 0.000000000000000000, -0.000000000000000000 ) ) ;
#978 = VECTOR ( 'NONE', #658, 1000.000000000000000 ) ;
#979 = ORIENTED_EDGE ( 'NONE', *, *, #843, .T. ) ;
#980 = DIRECTION ( 'NONE',  ( -0.000000000000000000, -0.000000000000000000, -1.000000000000000000 ) ) ;
#981 = CARTESIAN_POINT ( 'NONE',  ( -1.649999999999999689, 18.50000000000000355, 0.000000000000000000 ) ) ;
#982 = ADVANCED_FACE ( 'NONE', ( #562 ), #544, .F. ) ;
#983 = ADVANCED_FACE ( 'NONE', ( #316, #642, #231, #478, #631, #151, #464, #794, #807, #554, #73, #56, #386, #719 ), #474, .F. ) ;
#984 = CARTESIAN_POINT ( 'NONE',  ( -1.291848095371959215E-13, -18.50000000000000000, 0.000000000000000000 ) ) ;
#985 = VERTEX_POINT ( 'NONE', #1077 ) ;
#986 = DIRECTION ( 'NONE',  ( -0.000000000000000000, -0.000000000000000000, -1.000000000000000000 ) ) ;
#987 = CARTESIAN_POINT ( 'NONE',  ( -1.291848095371959215E-13, -18.50000000000000000, 15.00000000000000000 ) ) ;
#988 = CARTESIAN_POINT ( 'NONE',  ( 10.89999999999990266, -16.02146997001216278, 15.00000000000000000 ) ) ;
#989 = AXIS2_PLACEMENT_3D ( 'NONE', #782, #356, #857 ) ;
#990 = ORIENTED_EDGE ( 'NONE', *, *, #688, .T. ) ;
#991 = CARTESIAN_POINT ( 'NONE',  ( 16.02146997001207396, -9.250000000000076383, 0.000000000000000000 ) ) ;
#992 = AXIS2_PLACEMENT_3D ( 'NONE', #90, #17, #195 ) ;
#993 = DIRECTION ( 'NONE',  ( -1.000000000000000000, 0.000000000000000000, 0.000000000000000000 ) ) ;
#994 = ADVANCED_BREP_SHAPE_REPRESENTATION ( '\X2\5927517382828f7490e8592787ba6bcd\X0\A', ( #738, #608 ), #179 ) ;
#995 = AXIS2_PLACEMENT_3D ( 'NONE', #747, #13, #838 ) ;
#996 = DIRECTION ( 'NONE',  ( 1.000000000000000000, 0.000000000000000000, 0.000000000000000000 ) ) ;
#997 = ORIENTED_EDGE ( 'NONE', *, *, #274, .T. ) ;
#998 = CARTESIAN_POINT ( 'NONE',  ( 16.02146997001213791, 9.249999999999962697, 0.000000000000000000 ) ) ;
#999 = ADVANCED_FACE ( 'NONE', ( #306 ), #635, .F. ) ;
#1000 = CARTESIAN_POINT ( 'NONE',  ( -14.37146997001211268, -9.250000000000008882, 0.000000000000000000 ) ) ;
#1001 = CIRCLE ( 'NONE', #668, 25.50000000000000000 ) ;
#1002 = DIRECTION ( 'NONE',  ( -0.000000000000000000, -0.000000000000000000, -1.000000000000000000 ) ) ;
#1003 = ORIENTED_EDGE ( 'NONE', *, *, #843, .F. ) ;
#1004 = DIRECTION ( 'NONE',  ( 1.000000000000000000, 0.000000000000000000, 0.000000000000000000 ) ) ;
#1005 = VERTEX_POINT ( 'NONE', #583 ) ;
#1006 = CARTESIAN_POINT ( 'NONE',  ( -16.02146997001200290, 9.250000000000182965, 15.00000000000000000 ) ) ;
#1007 = CARTESIAN_POINT ( 'NONE',  ( 0.000000000000000000, 18.50000000000000355, 0.000000000000000000 ) ) ;
#1008 = ORIENTED_EDGE ( 'NONE', *, *, #754, .T. ) ;
#1009 = VECTOR ( 'NONE', #144, 1000.000000000000000 ) ;
#1010 = SURFACE_STYLE_USAGE ( .BOTH. , #347 ) ;
#1011 = EDGE_CURVE ( 'NONE', #772, #43, #209, .T. ) ;
#1012 = ORIENTED_EDGE ( 'NONE', *, *, #99, .T. ) ;
#1013 = DIRECTION ( 'NONE',  ( -1.000000000000000000, 0.000000000000000000, 0.000000000000000000 ) ) ;
#1014 = AXIS2_PLACEMENT_3D ( 'NONE', #1068, #644, #1064 ) ;
#1015 = LINE ( 'NONE', #10, #21 ) ;
#1016 = CIRCLE ( 'NONE', #837, 1.650000000000000355 ) ;
#1017 = EDGE_CURVE ( 'NONE', #475, #806, #669, .T. ) ;
#1018 = EDGE_CURVE ( 'NONE', #923, #534, #387, .T. ) ;
#1019 = LINE ( 'NONE', #128, #54 ) ;
#1020 = ORIENTED_EDGE ( 'NONE', *, *, #385, .F. ) ;
#1021 = CARTESIAN_POINT ( 'NONE',  ( 20.14999999999999503, -6.439033804673865155E-14, 15.00000000000000000 ) ) ;
#1022 = UNCERTAINTY_MEASURE_WITH_UNIT (LENGTH_MEASURE( 1.000000000000000082E-05 ), #930, 'distance_accuracy_value', 'NONE');
#1023 = ORIENTED_EDGE ( 'NONE', *, *, #839, .T. ) ;
#1024 = CARTESIAN_POINT ( 'NONE',  ( -16.02146997001200290, 9.250000000000182965, 15.00000000000000000 ) ) ;
#1025 = VERTEX_POINT ( 'NONE', #827 ) ;
#1026 = CARTESIAN_POINT ( 'NONE',  ( -1.649999999999999689, 18.50000000000000355, 15.00000000000000000 ) ) ;
#1027 = ORIENTED_EDGE ( 'NONE', *, *, #898, .T. ) ;
#1028 = ORIENTED_EDGE ( 'NONE', *, *, #786, .F. ) ;
#1029 = CARTESIAN_POINT ( 'NONE',  ( -17.67146997001200504, 9.250000000000182965, 15.00000000000000000 ) ) ;
#1030 = ORIENTED_EDGE ( 'NONE', *, *, #420, .T. ) ;
#1031 = ADVANCED_FACE ( 'NONE', ( #752 ), #833, .F. ) ;
#1032 = DIRECTION ( 'NONE',  ( 1.000000000000000000, 0.000000000000000000, 0.000000000000000000 ) ) ;
#1033 = EDGE_CURVE ( 'NONE', #879, #859, #267, .T. ) ;
#1034 = ORIENTED_EDGE ( 'NONE', *, *, #230, .T. ) ;
#1035 = VECTOR ( 'NONE', #451, 1000.000000000000000 ) ;
#1036 = CIRCLE ( 'NONE', #702, 1.649999999999999689 ) ;
#1037 = AXIS2_PLACEMENT_3D ( 'NONE', #585, #588, #1004 ) ;
#1038 = ADVANCED_FACE ( 'NONE', ( #6 ), #78, .F. ) ;
#1039 = ORIENTED_EDGE ( 'NONE', *, *, #32, .F. ) ;
#1040 = DIRECTION ( 'NONE',  ( -0.000000000000000000, -0.000000000000000000, -1.000000000000000000 ) ) ;
#1041 = ORIENTED_EDGE ( 'NONE', *, *, #903, .T. ) ;
#1042 = DIRECTION ( 'NONE',  ( 0.000000000000000000, 0.000000000000000000, 1.000000000000000000 ) ) ;
#1043 = VERTEX_POINT ( 'NONE', #823 ) ;
#1044 = DIRECTION ( 'NONE',  ( -0.000000000000000000, -0.000000000000000000, -1.000000000000000000 ) ) ;
#1045 = ORIENTED_EDGE ( 'NONE', *, *, #542, .F. ) ;
#1046 = FACE_BOUND ( 'NONE', #120, .T. ) ;
#1047 = ORIENTED_EDGE ( 'NONE', *, *, #880, .F. ) ;
#1048 = AXIS2_PLACEMENT_3D ( 'NONE', #966, #226, #248 ) ;
#1049 = AXIS2_PLACEMENT_3D ( 'NONE', #203, #949, #122 ) ;
#1050 = ADVANCED_FACE ( 'NONE', ( #254 ), #342, .F. ) ;
#1051 = CIRCLE ( 'NONE', #573, 1.650000000000000355 ) ;
#1052 = EDGE_LOOP ( 'NONE', ( #41, #1020 ) ) ;
#1053 = CYLINDRICAL_SURFACE ( 'NONE', #101, 1.649999999999998579 ) ;
#1054 = EDGE_CURVE ( 'NONE', #985, #440, #59, .T. ) ;
#1055 = ORIENTED_EDGE ( 'NONE', *, *, #677, .F. ) ;
#1056 = CYLINDRICAL_SURFACE ( 'NONE', #781, 25.50000000000000000 ) ;
#1057 = DIRECTION ( 'NONE',  ( 1.000000000000000000, 0.000000000000000000, 0.000000000000000000 ) ) ;
#1058 = CIRCLE ( 'NONE', #77, 1.649999999999999689 ) ;
#1059 = ADVANCED_FACE ( 'NONE', ( #165 ), #922, .F. ) ;
#1060 = EDGE_LOOP ( 'NONE', ( #1030, #958 ) ) ;
#1061 = DIRECTION ( 'NONE',  ( -0.000000000000000000, -0.000000000000000000, -1.000000000000000000 ) ) ;
#1062 = EDGE_CURVE ( 'NONE', #517, #485, #350, .T. ) ;
#1063 = ORIENTED_EDGE ( 'NONE', *, *, #542, .T. ) ;
#1064 = DIRECTION ( 'NONE',  ( 1.000000000000000000, 0.000000000000000000, 0.000000000000000000 ) ) ;
#1065 = DIRECTION ( 'NONE',  ( 1.000000000000000000, 0.000000000000000000, 0.000000000000000000 ) ) ;
#1066 = CARTESIAN_POINT ( 'NONE',  ( -16.02146997001211304, -9.250000000000008882, 15.00000000000000000 ) ) ;
#1067 = ORIENTED_EDGE ( 'NONE', *, *, #822, .T. ) ;
#1068 = CARTESIAN_POINT ( 'NONE',  ( 18.49999999999999645, -6.459240476859796076E-14, 0.000000000000000000 ) ) ;
#1069 = DIRECTION ( 'NONE',  ( 0.000000000000000000, 0.000000000000000000, 1.000000000000000000 ) ) ;
#1070 = ORIENTED_EDGE ( 'NONE', *, *, #131, .T. ) ;
#1071 = DIRECTION ( 'NONE',  ( 0.000000000000000000, 0.000000000000000000, 1.000000000000000000 ) ) ;
#1072 = VERTEX_POINT ( 'NONE', #337 ) ;
#1073 = DIRECTION ( 'NONE',  ( 1.000000000000000000, 0.000000000000000000, 0.000000000000000000 ) ) ;
#1074 = EDGE_CURVE ( 'NONE', #364, #787, #628, .T. ) ;
#1075 = DIRECTION ( 'NONE',  ( -1.000000000000000000, 0.000000000000000000, 0.000000000000000000 ) ) ;
#1076 = VERTEX_POINT ( 'NONE', #423 ) ;
#1077 = CARTESIAN_POINT ( 'NONE',  ( -14.37146997001211268, -9.250000000000008882, 15.00000000000000000 ) ) ;
#1078 = EDGE_CURVE ( 'NONE', #152, #501, #718, .T. ) ;
#1079 = AXIS2_PLACEMENT_3D ( 'NONE', #377, #211, #773 ) ;
#1080 = ORIENTED_EDGE ( 'NONE', *, *, #880, .T. ) ;
#1081 = CARTESIAN_POINT ( 'NONE',  ( 1.649999999999870459, -18.50000000000000000, 15.00000000000000000 ) ) ;
#1082 = AXIS2_PLACEMENT_3D ( 'NONE', #137, #467, #798 ) ;
#1083 = CARTESIAN_POINT ( 'NONE',  ( 16.02146997001207396, -9.250000000000076383, 15.00000000000000000 ) ) ;
#1084 = CARTESIAN_POINT ( 'NONE',  ( 0.000000000000000000, 18.50000000000000355, 15.00000000000000000 ) ) ;
#1085 = ORIENTED_EDGE ( 'NONE', *, *, #581, .T. ) ;
#1086 = DIRECTION ( 'NONE',  ( -1.000000000000000000, 0.000000000000000000, 0.000000000000000000 ) ) ;
#1087 = DIRECTION ( 'NONE',  ( 0.000000000000000000, 0.000000000000000000, 1.000000000000000000 ) ) ;
ENDSEC;
END-ISO-10303-21;
