ISO-10303-21;
HEADER;
FILE_DESCRIPTION (( 'STEP AP214' ),
    '1' );
FILE_NAME ('´ó¹Ø½ÚÖáµæÆ¬A.STEP',
    '2026-08-16T17:26:55',
    ( '' ),
    ( '' ),
    'SwSTEP 2.0',
    'SolidWorks 2025',
    '' );
FILE_SCHEMA (( 'AUTOMOTIVE_DESIGN' ));
ENDSEC;

DATA;
#1 = SURFACE_STYLE_USAGE ( .BOTH. , #654 ) ;
#2 = VERTEX_POINT ( 'NONE', #196 ) ;
#3 = EDGE_CURVE ( 'NONE', #535, #474, #144, .T. ) ;
#4 = SURFACE_STYLE_FILL_AREA ( #104 ) ;
#5 = VERTEX_POINT ( 'NONE', #253 ) ;
#6 = VECTOR ( 'NONE', #324, 1000.000000000000000 ) ;
#7 = ORIENTED_EDGE ( 'NONE', *, *, #381, .T. ) ;
#8 = ADVANCED_FACE ( 'NONE', ( #452, #74, #66 ), #169, .F. ) ;
#9 = CIRCLE ( 'NONE', #239, 2.299999999999999822 ) ;
#10 = EDGE_LOOP ( 'NONE', ( #564, #53 ) ) ;
#11 = AXIS2_PLACEMENT_3D ( 'NONE', #653, #389, #194 ) ;
#12 = CARTESIAN_POINT ( 'NONE',  ( -19.61885129310345732, -26.27918641928430077, 8.400000000000000355 ) ) ;
#13 = DIRECTION ( 'NONE',  ( 0.000000000000000000, 0.000000000000000000, 1.000000000000000000 ) ) ;
#14 = DIRECTION ( 'NONE',  ( -0.000000000000000000, -0.000000000000000000, -1.000000000000000000 ) ) ;
#15 = VECTOR ( 'NONE', #87, 1000.000000000000000 ) ;
#16 = ORIENTED_EDGE ( 'NONE', *, *, #502, .F. ) ;
#17 = FACE_BOUND ( 'NONE', #162, .T. ) ;
#18 = CARTESIAN_POINT ( 'NONE',  ( 18.38114870689654268, -26.27918641928429366, 8.400000000000000355 ) ) ;
#19 = EDGE_CURVE ( 'NONE', #201, #189, #276, .T. ) ;
#20 = CARTESIAN_POINT ( 'NONE',  ( 18.38114870689654268, 35.28783914118220366, 0.000000000000000000 ) ) ;
#21 = CARTESIAN_POINT ( 'NONE',  ( -19.61885129310345732, -43.91159267241386743, 8.400000000000000355 ) ) ;
#22 = PRESENTATION_LAYER_ASSIGNMENT (  '', '', ( #52 ) ) ;
#23 = DIRECTION ( 'NONE',  ( -1.000000000000000000, 0.000000000000000000, 0.000000000000000000 ) ) ;
#24 = DIRECTION ( 'NONE',  ( -0.000000000000000000, -0.000000000000000000, -1.000000000000000000 ) ) ;
#25 = EDGE_LOOP ( 'NONE', ( #459, #286 ) ) ;
#26 = DIRECTION ( 'NONE',  ( -0.000000000000000000, -0.000000000000000000, -1.000000000000000000 ) ) ;
#27 = CARTESIAN_POINT ( 'NONE',  ( 9.144697155751194018, -34.56232313638631837, 8.400000000000000355 ) ) ;
#28 = DIRECTION ( 'NONE',  ( 0.000000000000000000, 0.000000000000000000, 1.000000000000000000 ) ) ;
#29 =( GEOMETRIC_REPRESENTATION_CONTEXT ( 3 ) GLOBAL_UNCERTAINTY_ASSIGNED_CONTEXT ( ( #263 ) ) GLOBAL_UNIT_ASSIGNED_CONTEXT ( ( #595, #147, #247 ) ) REPRESENTATION_CONTEXT ( 'NONE', 'WORKASPACE' ) );
#30 = DIRECTION ( 'NONE',  ( 0.000000000000000000, 0.000000000000000000, 1.000000000000000000 ) ) ;
#31 = PLANE ( 'NONE',  #447 ) ;
#32 = ORIENTED_EDGE ( 'NONE', *, *, #163, .F. ) ;
#33 = DIRECTION ( 'NONE',  ( 0.000000000000000000, 0.000000000000000000, 1.000000000000000000 ) ) ;
#34 = VERTEX_POINT ( 'NONE', #427 ) ;
#35 = EDGE_CURVE ( 'NONE', #201, #245, #568, .T. ) ;
#36 = DIRECTION ( 'NONE',  ( 1.000000000000000000, 0.000000000000000000, 0.000000000000000000 ) ) ;
#37 = CIRCLE ( 'NONE', #629, 2.299999999999999822 ) ;
#38 = VERTEX_POINT ( 'NONE', #164 ) ;
#39 = DIRECTION ( 'NONE',  ( 0.000000000000000000, 0.000000000000000000, 1.000000000000000000 ) ) ;
#40 = CARTESIAN_POINT ( 'NONE',  ( -19.61885129310345732, 0.08840732758612357411, 0.000000000000000000 ) ) ;
#41 = LINE ( 'NONE', #235, #15 ) ;
#42 = VERTEX_POINT ( 'NONE', #175 ) ;
#43 = CARTESIAN_POINT ( 'NONE',  ( 18.38114870689654268, 0.08840732758612357411, 0.000000000000000000 ) ) ;
#44 = CIRCLE ( 'NONE', #267, 2.299999999999999822 ) ;
#45 = VERTEX_POINT ( 'NONE', #20 ) ;
#46 = CARTESIAN_POINT ( 'NONE',  ( 11.91760025804189027, 34.60239086529232821, 8.400000000000000355 ) ) ;
#47 = ADVANCED_FACE ( 'NONE', ( #321 ), #616, .T. ) ;
#48 = AXIS2_PLACEMENT_3D ( 'NONE', #284, #423, #522 ) ;
#49 = DIRECTION ( 'NONE',  ( 1.000000000000000000, 0.000000000000000000, 0.000000000000000000 ) ) ;
#50 = EDGE_CURVE ( 'NONE', #42, #535, #279, .T. ) ;
#51 = EDGE_LOOP ( 'NONE', ( #456, #340, #277, #549 ) ) ;
#52 = STYLED_ITEM ( 'NONE', ( #155 ), #304 ) ;
#53 = ORIENTED_EDGE ( 'NONE', *, *, #69, .F. ) ;
#54 = CLOSED_SHELL ( 'NONE', ( #230, #486, #261, #233, #100, #485, #8, #266, #521, #312 ) ) ;
#55 =( NAMED_UNIT ( * ) PLANE_ANGLE_UNIT ( ) SI_UNIT ( $, .RADIAN. ) );
#56 = EDGE_CURVE ( 'NONE', #159, #2, #213, .T. ) ;
#57 = PRODUCT_DEFINITION_SHAPE ( 'NONE', 'NONE',  #139 ) ;
#58 = ORIENTED_EDGE ( 'NONE', *, *, #537, .T. ) ;
#59 = VECTOR ( 'NONE', #93, 1000.000000000000000 ) ;
#60 = DIRECTION ( 'NONE',  ( 1.000000000000000000, -0.000000000000000000, 0.000000000000000000 ) ) ;
#61 = ORIENTED_EDGE ( 'NONE', *, *, #298, .T. ) ;
#62 = VECTOR ( 'NONE', #296, 1000.000000000000000 ) ;
#63 = UNCERTAINTY_MEASURE_WITH_UNIT (LENGTH_MEASURE( 1.000000000000000082E-05 ), #70, 'distance_accuracy_value', 'NONE');
#64 = VERTEX_POINT ( 'NONE', #476 ) ;
#65 = EDGE_CURVE ( 'NONE', #539, #189, #346, .T. ) ;
#66 = FACE_OUTER_BOUND ( 'NONE', #300, .T. ) ;
#67 = EDGE_LOOP ( 'NONE', ( #101, #440, #379, #295 ) ) ;
#68 = DIRECTION ( 'NONE',  ( -0.000000000000000000, -0.000000000000000000, -1.000000000000000000 ) ) ;
#69 = EDGE_CURVE ( 'NONE', #573, #5, #368, .T. ) ;
#70 =( LENGTH_UNIT ( ) NAMED_UNIT ( * ) SI_UNIT ( .MILLI., .METRE. ) );
#71 = EDGE_LOOP ( 'NONE', ( #183, #582, #467, #319 ) ) ;
#72 = DIRECTION ( 'NONE',  ( -1.000000000000000000, 0.000000000000000000, 0.000000000000000000 ) ) ;
#73 = CYLINDRICAL_SURFACE ( 'NONE', #153, 40.00000000000000000 ) ;
#74 = FACE_BOUND ( 'NONE', #647, .T. ) ;
#75 = ORIENTED_EDGE ( 'NONE', *, *, #530, .T. ) ;
#76 = DIRECTION ( 'NONE',  ( -1.000000000000000000, 0.000000000000000000, 0.000000000000000000 ) ) ;
#77 = CIRCLE ( 'NONE', #526, 2.299999999999999822 ) ;
#78 = MANIFOLD_SOLID_BREP ( '\X2\52079664\X0\-\X2\62c94f38\X0\2[1]', #426 ) ;
#79 = PLANE ( 'NONE',  #326 ) ;
#80 = STYLED_ITEM ( 'NONE', ( #630 ), #78 ) ;
#81 = DIRECTION ( 'NONE',  ( 0.000000000000000000, 0.000000000000000000, 1.000000000000000000 ) ) ;
#82 = EDGE_LOOP ( 'NONE', ( #273, #384 ) ) ;
#83 = FACE_OUTER_BOUND ( 'NONE', #587, .T. ) ;
#84 = CARTESIAN_POINT ( 'NONE',  ( 18.38114870689654268, -43.91159267241386743, 8.400000000000000355 ) ) ;
#85 = ORIENTED_EDGE ( 'NONE', *, *, #254, .F. ) ;
#86 = CARTESIAN_POINT ( 'NONE',  ( -0.6188512931034617637, 0.08840732758612357411, 8.400000000000000355 ) ) ;
#87 = DIRECTION ( 'NONE',  ( 0.000000000000000000, 1.000000000000000000, -0.000000000000000000 ) ) ;
#88 = EDGE_LOOP ( 'NONE', ( #480, #241, #103, #375 ) ) ;
#89 = CARTESIAN_POINT ( 'NONE',  ( 18.38114870689654268, -26.27918641928429366, 0.000000000000000000 ) ) ;
#90 = DIRECTION ( 'NONE',  ( -1.000000000000000000, 0.000000000000000000, 0.000000000000000000 ) ) ;
#91 = VECTOR ( 'NONE', #225, 1000.000000000000000 ) ;
#92 = ORIENTED_EDGE ( 'NONE', *, *, #110, .F. ) ;
#93 = DIRECTION ( 'NONE',  ( -0.000000000000000000, -0.000000000000000000, -1.000000000000000000 ) ) ;
#94 = PRODUCT_DEFINITION_FORMATION_WITH_SPECIFIED_SOURCE ( 'å¯', '', #349, .NOT_KNOWN. ) ;
#95 = DIRECTION ( 'NONE',  ( -1.000000000000000000, 0.000000000000000000, 0.000000000000000000 ) ) ;
#96 = EDGE_CURVE ( 'NONE', #488, #364, #572, .T. ) ;
#97 = ORIENTED_EDGE ( 'NONE', *, *, #291, .F. ) ;
#98 = CARTESIAN_POINT ( 'NONE',  ( -8.555302844248734218, -34.42557621012007729, 8.400000000000000355 ) ) ;
#99 = CARTESIAN_POINT ( 'NONE',  ( -19.61885129310345732, -43.91159267241386743, 8.400000000000000355 ) ) ;
#100 = ADVANCED_FACE ( 'NONE', ( #124 ), #206, .F. ) ;
#101 = ORIENTED_EDGE ( 'NONE', *, *, #186, .F. ) ;
#102 = AXIS2_PLACEMENT_3D ( 'NONE', #386, #148, #432 ) ;
#103 = ORIENTED_EDGE ( 'NONE', *, *, #410, .T. ) ;
#104 = FILL_AREA_STYLE ('',( #499 ) ) ;
#105 = VERTEX_POINT ( 'NONE', #512 ) ;
#106 = EDGE_CURVE ( 'NONE', #187, #503, #270, .T. ) ;
#107 = PRODUCT_RELATED_PRODUCT_CATEGORY ( 'part', '', ( #349 ) ) ;
#108 = LINE ( 'NONE', #556, #365 ) ;
#109 = EDGE_LOOP ( 'NONE', ( #293, #58 ) ) ;
#110 = EDGE_CURVE ( 'NONE', #260, #488, #554, .T. ) ;
#111 = ORIENTED_EDGE ( 'NONE', *, *, #285, .F. ) ;
#112 = CARTESIAN_POINT ( 'NONE',  ( 9.617600258041889560, 34.60239086529232821, 0.000000000000000000 ) ) ;
#113 = CARTESIAN_POINT ( 'NONE',  ( -0.6188512931034617637, 0.08840732758612357411, 8.400000000000000355 ) ) ;
#114 = CARTESIAN_POINT ( 'NONE',  ( 18.38114870689654268, 26.45600107445654103, 8.400000000000000355 ) ) ;
#115 = ORIENTED_EDGE ( 'NONE', *, *, #333, .F. ) ;
#116 = CARTESIAN_POINT ( 'NONE',  ( -10.85530284424873493, -34.42557621012007729, 8.400000000000000355 ) ) ;
#117 = CARTESIAN_POINT ( 'NONE',  ( -12.68239974195810937, 34.73913779155856218, 8.400000000000000355 ) ) ;
#118 = ORIENTED_EDGE ( 'NONE', *, *, #511, .F. ) ;
#119 = LINE ( 'NONE', #481, #408 ) ;
#120 = DIRECTION ( 'NONE',  ( 1.000000000000000000, 0.000000000000000000, -0.000000000000000000 ) ) ;
#121 = CARTESIAN_POINT ( 'NONE',  ( -0.6188512931034617637, 0.08840732758612357411, 8.400000000000000355 ) ) ;
#122 = AXIS2_PLACEMENT_3D ( 'NONE', #325, #520, #72 ) ;
#123 = DIRECTION ( 'NONE',  ( 0.000000000000000000, 0.000000000000000000, 1.000000000000000000 ) ) ;
#124 = FACE_OUTER_BOUND ( 'NONE', #265, .T. ) ;
#125 = CYLINDRICAL_SURFACE ( 'NONE', #174, 40.00000000000000000 ) ;
#126 = CARTESIAN_POINT ( 'NONE',  ( -0.6188512931034617637, 0.08840732758612357411, 0.000000000000000000 ) ) ;
#127 =( GEOMETRIC_REPRESENTATION_CONTEXT ( 3 ) GLOBAL_UNCERTAINTY_ASSIGNED_CONTEXT ( ( #558 ) ) GLOBAL_UNIT_ASSIGNED_CONTEXT ( ( #404, #55, #310 ) ) REPRESENTATION_CONTEXT ( 'NONE', 'WORKASPACE' ) );
#128 = VERTEX_POINT ( 'NONE', #399 ) ;
#129 = FACE_OUTER_BOUND ( 'NONE', #51, .T. ) ;
#130 = CARTESIAN_POINT ( 'NONE',  ( -0.6188512931034617637, 0.08840732758612357411, 0.000000000000000000 ) ) ;
#131 = DIRECTION ( 'NONE',  ( -0.000000000000000000, -0.000000000000000000, -1.000000000000000000 ) ) ;
#132 = EDGE_LOOP ( 'NONE', ( #600, #85, #211, #407 ) ) ;
#133 = DIRECTION ( 'NONE',  ( 1.000000000000000000, 0.000000000000000000, 0.000000000000000000 ) ) ;
#134 = MECHANICAL_DESIGN_GEOMETRIC_PRESENTATION_REPRESENTATION (  '', ( #80 ), #208 ) ;
#135 = AXIS2_PLACEMENT_3D ( 'NONE', #641, #596, #243 ) ;
#136 = DIRECTION ( 'NONE',  ( 0.000000000000000000, 0.000000000000000000, 1.000000000000000000 ) ) ;
#137 = ORIENTED_EDGE ( 'NONE', *, *, #35, .T. ) ;
#138 = PRODUCT_CONTEXT ( 'NONE', #431, 'mechanical' ) ;
#139 = PRODUCT_DEFINITION ( 'æ™', '', #94, #465 ) ;
#140 = CARTESIAN_POINT ( 'NONE',  ( 9.617600258041889560, 34.60239086529232821, 8.400000000000000355 ) ) ;
#141 = ORIENTED_EDGE ( 'NONE', *, *, #96, .F. ) ;
#142 = APPLICATION_CONTEXT ( 'automotive_design' ) ;
#143 = AXIS2_PLACEMENT_3D ( 'NONE', #534, #436, #335 ) ;
#144 = CIRCLE ( 'NONE', #258, 2.299999999999999822 ) ;
#145 = CYLINDRICAL_SURFACE ( 'NONE', #161, 2.299999999999999822 ) ;
#146 = ORIENTED_EDGE ( 'NONE', *, *, #540, .F. ) ;
#147 =( NAMED_UNIT ( * ) PLANE_ANGLE_UNIT ( ) SI_UNIT ( $, .RADIAN. ) );
#148 = DIRECTION ( 'NONE',  ( 0.000000000000000000, 0.000000000000000000, 1.000000000000000000 ) ) ;
#149 = ORIENTED_EDGE ( 'NONE', *, *, #291, .T. ) ;
#150 = CARTESIAN_POINT ( 'NONE',  ( 6.844697155751193307, -34.56232313638631837, 8.400000000000000355 ) ) ;
#151 = VERTEX_POINT ( 'NONE', #188 ) ;
#152 = DIRECTION ( 'NONE',  ( 1.000000000000000000, 0.000000000000000000, 0.000000000000000000 ) ) ;
#153 = AXIS2_PLACEMENT_3D ( 'NONE', #113, #238, #638 ) ;
#154 = VERTEX_POINT ( 'NONE', #541 ) ;
#155 = PRESENTATION_STYLE_ASSIGNMENT (( #1 ) ) ;
#156 = ORIENTED_EDGE ( 'NONE', *, *, #562, .F. ) ;
#157 = AXIS2_PLACEMENT_3D ( 'NONE', #578, #76, #371 ) ;
#158 = EDGE_CURVE ( 'NONE', #470, #245, #271, .T. ) ;
#159 = VERTEX_POINT ( 'NONE', #288 ) ;
#160 = VECTOR ( 'NONE', #649, 1000.000000000000000 ) ;
#161 = AXIS2_PLACEMENT_3D ( 'NONE', #192, #545, #95 ) ;
#162 = EDGE_LOOP ( 'NONE', ( #500, #111 ) ) ;
#163 = EDGE_CURVE ( 'NONE', #128, #38, #309, .T. ) ;
#164 = CARTESIAN_POINT ( 'NONE',  ( 6.844697155751193307, -34.56232313638631837, 0.000000000000000000 ) ) ;
#165 = DIRECTION ( 'NONE',  ( -1.000000000000000000, 0.000000000000000000, 0.000000000000000000 ) ) ;
#166 = SURFACE_SIDE_STYLE ('',( #518 ) ) ;
#167 = ORIENTED_EDGE ( 'NONE', *, *, #19, .T. ) ;
#168 = CARTESIAN_POINT ( 'NONE',  ( -0.6188512931034617637, 0.08840732758612357411, 8.400000000000000355 ) ) ;
#169 = PLANE ( 'NONE',  #398 ) ;
#170 = CARTESIAN_POINT ( 'NONE',  ( 11.44469715575119295, -34.56232313638631837, 8.400000000000000355 ) ) ;
#171 = DIRECTION ( 'NONE',  ( -1.000000000000000000, 0.000000000000000000, 0.000000000000000000 ) ) ;
#172 = CYLINDRICAL_SURFACE ( 'NONE', #442, 2.299999999999999822 ) ;
#173 = EDGE_CURVE ( 'NONE', #245, #577, #41, .T. ) ;
#174 = AXIS2_PLACEMENT_3D ( 'NONE', #583, #631, #274 ) ;
#175 = CARTESIAN_POINT ( 'NONE',  ( -12.68239974195810937, 34.73913779155856218, 8.400000000000000355 ) ) ;
#176 = EDGE_LOOP ( 'NONE', ( #311, #409 ) ) ;
#177 = DIRECTION ( 'NONE',  ( 0.000000000000000000, 0.000000000000000000, 1.000000000000000000 ) ) ;
#178 = FACE_OUTER_BOUND ( 'NONE', #463, .T. ) ;
#179 = CIRCLE ( 'NONE', #524, 32.50000000000000000 ) ;
#180 = DIRECTION ( 'NONE',  ( 1.000000000000000000, 0.000000000000000000, 0.000000000000000000 ) ) ;
#181 = EDGE_CURVE ( 'NONE', #573, #34, #487, .T. ) ;
#182 = LINE ( 'NONE', #84, #650 ) ;
#183 = ORIENTED_EDGE ( 'NONE', *, *, #508, .F. ) ;
#184 = COLOUR_RGB ( '',0.7921568627450980005, 0.8196078431372548767, 0.9333333333333333481 ) ;
#185 = DIRECTION ( 'NONE',  ( 1.000000000000000000, -0.000000000000000000, 0.000000000000000000 ) ) ;
#186 = EDGE_CURVE ( 'NONE', #159, #151, #387, .T. ) ;
#187 = VERTEX_POINT ( 'NONE', #482 ) ;
#188 = CARTESIAN_POINT ( 'NONE',  ( -19.61885129310345732, 26.45600107445654814, 0.000000000000000000 ) ) ;
#189 = VERTEX_POINT ( 'NONE', #651 ) ;
#190 = DIRECTION ( 'NONE',  ( -1.000000000000000000, 0.000000000000000000, 0.000000000000000000 ) ) ;
#191 = AXIS2_PLACEMENT_3D ( 'NONE', #294, #490, #252 ) ;
#192 = CARTESIAN_POINT ( 'NONE',  ( 9.617600258041889560, 34.60239086529232821, 8.400000000000000355 ) ) ;
#193 = ORIENTED_EDGE ( 'NONE', *, *, #646, .T. ) ;
#194 = DIRECTION ( 'NONE',  ( 1.000000000000000000, 0.000000000000000000, 0.000000000000000000 ) ) ;
#195 = EDGE_CURVE ( 'NONE', #2, #236, #561, .T. ) ;
#196 = CARTESIAN_POINT ( 'NONE',  ( 18.38114870689654268, 26.45600107445654103, 8.400000000000000355 ) ) ;
#197 = DIRECTION ( 'NONE',  ( 1.000000000000000000, 0.000000000000000000, -0.000000000000000000 ) ) ;
#198 = ORIENTED_EDGE ( 'NONE', *, *, #586, .T. ) ;
#199 = ORIENTED_EDGE ( 'NONE', *, *, #181, .T. ) ;
#200 = FACE_BOUND ( 'NONE', #176, .T. ) ;
#201 = VERTEX_POINT ( 'NONE', #348 ) ;
#202 = VECTOR ( 'NONE', #68, 1000.000000000000000 ) ;
#203 = VECTOR ( 'NONE', #402, 1000.000000000000000 ) ;
#204 = VERTEX_POINT ( 'NONE', #393 ) ;
#205 = DIRECTION ( 'NONE',  ( 0.000000000000000000, 0.000000000000000000, 1.000000000000000000 ) ) ;
#206 = CYLINDRICAL_SURFACE ( 'NONE', #565, 32.50000000000000000 ) ;
#207 = ADVANCED_FACE ( 'NONE', ( #634 ), #31, .T. ) ;
#208 =( GEOMETRIC_REPRESENTATION_CONTEXT ( 3 ) GLOBAL_UNCERTAINTY_ASSIGNED_CONTEXT ( ( #63 ) ) GLOBAL_UNIT_ASSIGNED_CONTEXT ( ( #70, #627, #328 ) ) REPRESENTATION_CONTEXT ( 'NONE', 'WORKASPACE' ) );
#209 = AXIS2_PLACEMENT_3D ( 'NONE', #495, #645, #36 ) ;
#210 = CARTESIAN_POINT ( 'NONE',  ( 9.144697155751194018, -34.56232313638631837, 8.400000000000000355 ) ) ;
#211 = ORIENTED_EDGE ( 'NONE', *, *, #56, .F. ) ;
#212 = CARTESIAN_POINT ( 'NONE',  ( 9.144697155751194018, -34.56232313638631837, 0.000000000000000000 ) ) ;
#213 = LINE ( 'NONE', #114, #455 ) ;
#214 = ORIENTED_EDGE ( 'NONE', *, *, #622, .F. ) ;
#215 = DIRECTION ( 'NONE',  ( 0.000000000000000000, 0.000000000000000000, 1.000000000000000000 ) ) ;
#216 = ADVANCED_BREP_SHAPE_REPRESENTATION ( '\X2\5927517382828f7457ab7247\X0\A', ( #78, #304, #11 ), #29 ) ;
#217 = LINE ( 'NONE', #327, #435 ) ;
#218 = CARTESIAN_POINT ( 'NONE',  ( -19.61885129310345732, -43.91159267241386743, -16.60000000000000853 ) ) ;
#219 = ADVANCED_FACE ( 'NONE', ( #353 ), #145, .F. ) ;
#220 = CIRCLE ( 'NONE', #280, 2.299999999999999822 ) ;
#221 = PLANE ( 'NONE',  #157 ) ;
#222 = AXIS2_PLACEMENT_3D ( 'NONE', #566, #527, #614 ) ;
#223 = FILL_AREA_STYLE ('',( #466 ) ) ;
#224 = VERTEX_POINT ( 'NONE', #479 ) ;
#225 = DIRECTION ( 'NONE',  ( -0.000000000000000000, -1.000000000000000000, -0.000000000000000000 ) ) ;
#226 = FACE_OUTER_BOUND ( 'NONE', #269, .T. ) ;
#227 = EDGE_LOOP ( 'NONE', ( #137, #259, #363, #446 ) ) ;
#228 = DIRECTION ( 'NONE',  ( 1.000000000000000000, 0.000000000000000000, -0.000000000000000000 ) ) ;
#229 = AXIS2_PLACEMENT_3D ( 'NONE', #656, #39, #344 ) ;
#230 = ADVANCED_FACE ( 'NONE', ( #178 ), #439, .F. ) ;
#231 = DIRECTION ( 'NONE',  ( 1.000000000000000000, 0.000000000000000000, 0.000000000000000000 ) ) ;
#232 = VERTEX_POINT ( 'NONE', #589 ) ;
#233 = ADVANCED_FACE ( 'NONE', ( #226 ), #299, .F. ) ;
#234 = FACE_OUTER_BOUND ( 'NONE', #67, .T. ) ;
#235 = CARTESIAN_POINT ( 'NONE',  ( 18.38114870689654268, 0.08840732758612357411, 0.000000000000000000 ) ) ;
#236 = VERTEX_POINT ( 'NONE', #529 ) ;
#237 = FACE_BOUND ( 'NONE', #109, .T. ) ;
#238 = DIRECTION ( 'NONE',  ( -0.000000000000000000, -0.000000000000000000, -1.000000000000000000 ) ) ;
#239 = AXIS2_PLACEMENT_3D ( 'NONE', #385, #471, #133 ) ;
#240 = CARTESIAN_POINT ( 'NONE',  ( -8.555302844248734218, -34.42557621012007729, 8.400000000000000355 ) ) ;
#241 = ORIENTED_EDGE ( 'NONE', *, *, #69, .T. ) ;
#242 = LINE ( 'NONE', #46, #605 ) ;
#243 = DIRECTION ( 'NONE',  ( 1.000000000000000000, 0.000000000000000000, 0.000000000000000000 ) ) ;
#244 = EDGE_CURVE ( 'NONE', #224, #232, #220, .T. ) ;
#245 = VERTEX_POINT ( 'NONE', #639 ) ;
#246 = CIRCLE ( 'NONE', #464, 2.299999999999999822 ) ;
#247 =( NAMED_UNIT ( * ) SI_UNIT ( $, .STERADIAN. ) SOLID_ANGLE_UNIT ( ) );
#248 = VECTOR ( 'NONE', #451, 1000.000000000000000 ) ;
#249 = FACE_OUTER_BOUND ( 'NONE', #560, .T. ) ;
#250 = ORIENTED_EDGE ( 'NONE', *, *, #580, .T. ) ;
#251 = FACE_OUTER_BOUND ( 'NONE', #444, .T. ) ;
#252 = DIRECTION ( 'NONE',  ( -1.000000000000000000, 0.000000000000000000, 0.000000000000000000 ) ) ;
#253 = CARTESIAN_POINT ( 'NONE',  ( -13.15530284424873386, -34.42557621012007729, 8.400000000000000355 ) ) ;
#254 = EDGE_CURVE ( 'NONE', #2, #260, #182, .T. ) ;
#255 = ORIENTED_EDGE ( 'NONE', *, *, #347, .T. ) ;
#256 = COLOUR_RGB ( '',0.7921568627450980005, 0.8196078431372548767, 0.9333333333333333481 ) ;
#257 = DIRECTION ( 'NONE',  ( 1.000000000000000000, 0.000000000000000000, -0.000000000000000000 ) ) ;
#258 = AXIS2_PLACEMENT_3D ( 'NONE', #401, #454, #49 ) ;
#259 = ORIENTED_EDGE ( 'NONE', *, *, #173, .T. ) ;
#260 = VERTEX_POINT ( 'NONE', #538 ) ;
#261 = ADVANCED_FACE ( 'NONE', ( #339 ), #292, .F. ) ;
#262 = AXIS2_PLACEMENT_3D ( 'NONE', #290, #26, #424 ) ;
#263 = UNCERTAINTY_MEASURE_WITH_UNIT (LENGTH_MEASURE( 1.000000000000000082E-05 ), #595, 'distance_accuracy_value', 'NONE');
#264 = AXIS2_PLACEMENT_3D ( 'NONE', #501, #497, #190 ) ;
#265 = EDGE_LOOP ( 'NONE', ( #318, #437, #655, #400 ) ) ;
#266 = ADVANCED_FACE ( 'NONE', ( #200, #559, #249 ), #599, .T. ) ;
#267 = AXIS2_PLACEMENT_3D ( 'NONE', #116, #123, #23 ) ;
#268 = DIRECTION ( 'NONE',  ( -0.000000000000000000, -0.000000000000000000, -1.000000000000000000 ) ) ;
#269 = EDGE_LOOP ( 'NONE', ( #146, #411, #250, #32 ) ) ;
#270 = CIRCLE ( 'NONE', #468, 2.299999999999999822 ) ;
#271 = CIRCLE ( 'NONE', #209, 40.00000000000000000 ) ;
#272 = CARTESIAN_POINT ( 'NONE',  ( 18.38114870689654268, -35.11102448600995984, 8.400000000000000355 ) ) ;
#273 = ORIENTED_EDGE ( 'NONE', *, *, #511, .T. ) ;
#274 = DIRECTION ( 'NONE',  ( -1.000000000000000000, 0.000000000000000000, 0.000000000000000000 ) ) ;
#275 = EDGE_CURVE ( 'NONE', #470, #105, #108, .T. ) ;
#276 = LINE ( 'NONE', #429, #283 ) ;
#277 = ORIENTED_EDGE ( 'NONE', *, *, #275, .F. ) ;
#278 = LINE ( 'NONE', #523, #202 ) ;
#279 = LINE ( 'NONE', #117, #373 ) ;
#280 = AXIS2_PLACEMENT_3D ( 'NONE', #140, #81, #342 ) ;
#281 = ORIENTED_EDGE ( 'NONE', *, *, #477, .F. ) ;
#282 = CARTESIAN_POINT ( 'NONE',  ( -12.68239974195810937, 34.73913779155856218, 0.000000000000000000 ) ) ;
#283 = VECTOR ( 'NONE', #473, 1000.000000000000000 ) ;
#284 = CARTESIAN_POINT ( 'NONE',  ( -10.85530284424873493, -34.42557621012007729, 8.400000000000000355 ) ) ;
#285 = EDGE_CURVE ( 'NONE', #361, #42, #77, .T. ) ;
#286 = ORIENTED_EDGE ( 'NONE', *, *, #613, .F. ) ;
#287 = DIRECTION ( 'NONE',  ( 0.000000000000000000, 0.000000000000000000, 1.000000000000000000 ) ) ;
#288 = CARTESIAN_POINT ( 'NONE',  ( 18.38114870689654268, 26.45600107445654103, 0.000000000000000000 ) ) ;
#289 = ORIENTED_EDGE ( 'NONE', *, *, #96, .T. ) ;
#290 = CARTESIAN_POINT ( 'NONE',  ( -10.85530284424873493, -34.42557621012007729, 8.400000000000000355 ) ) ;
#291 = EDGE_CURVE ( 'NONE', #488, #236, #606, .T. ) ;
#292 = CYLINDRICAL_SURFACE ( 'NONE', #191, 2.299999999999999822 ) ;
#293 = ORIENTED_EDGE ( 'NONE', *, *, #3, .T. ) ;
#294 = CARTESIAN_POINT ( 'NONE',  ( -10.85530284424873493, -34.42557621012007729, 8.400000000000000355 ) ) ;
#295 = ORIENTED_EDGE ( 'NONE', *, *, #502, .T. ) ;
#296 = DIRECTION ( 'NONE',  ( 0.000000000000000000, 1.000000000000000000, -0.000000000000000000 ) ) ;
#297 = VECTOR ( 'NONE', #478, 1000.000000000000000 ) ;
#298 = EDGE_CURVE ( 'NONE', #45, #364, #345, .T. ) ;
#299 = CYLINDRICAL_SURFACE ( 'NONE', #143, 2.299999999999999822 ) ;
#300 = EDGE_LOOP ( 'NONE', ( #510, #483, #367, #602 ) ) ;
#301 = CARTESIAN_POINT ( 'NONE',  ( 7.317600258041890626, 34.60239086529232821, 0.000000000000000000 ) ) ;
#302 = CIRCLE ( 'NONE', #229, 2.299999999999999822 ) ;
#303 = DIRECTION ( 'NONE',  ( 0.000000000000000000, 0.000000000000000000, 1.000000000000000000 ) ) ;
#304 = MANIFOLD_SOLID_BREP ( '\X2\52079664\X0\-\X2\62c94f38\X0\2[2]', #54 ) ;
#305 = EDGE_LOOP ( 'NONE', ( #557, #198, #611, #617 ) ) ;
#306 = AXIS2_PLACEMENT_3D ( 'NONE', #320, #177, #322 ) ;
#307 = PLANE ( 'NONE',  #461 ) ;
#308 = ORIENTED_EDGE ( 'NONE', *, *, #540, .T. ) ;
#309 = CIRCLE ( 'NONE', #135, 2.299999999999999822 ) ;
#310 =( NAMED_UNIT ( * ) SI_UNIT ( $, .STERADIAN. ) SOLID_ANGLE_UNIT ( ) );
#311 = ORIENTED_EDGE ( 'NONE', *, *, #106, .F. ) ;
#312 = ADVANCED_FACE ( 'NONE', ( #366 ), #457, .T. ) ;
#313 = EDGE_LOOP ( 'NONE', ( #640, #394 ) ) ;
#314 = DIRECTION ( 'NONE',  ( -0.000000000000000000, -0.000000000000000000, -1.000000000000000000 ) ) ;
#315 = AXIS2_PLACEMENT_3D ( 'NONE', #27, #131, #90 ) ;
#316 = ORIENTED_EDGE ( 'NONE', *, *, #562, .T. ) ;
#317 = DIRECTION ( 'NONE',  ( 1.000000000000000000, 0.000000000000000000, 0.000000000000000000 ) ) ;
#318 = ORIENTED_EDGE ( 'NONE', *, *, #65, .T. ) ;
#319 = ORIENTED_EDGE ( 'NONE', *, *, #537, .F. ) ;
#320 = CARTESIAN_POINT ( 'NONE',  ( -10.85530284424873493, -34.42557621012007729, 0.000000000000000000 ) ) ;
#321 = FACE_OUTER_BOUND ( 'NONE', #597, .T. ) ;
#322 = DIRECTION ( 'NONE',  ( -1.000000000000000000, 0.000000000000000000, 0.000000000000000000 ) ) ;
#323 = EDGE_CURVE ( 'NONE', #5, #573, #44, .T. ) ;
#324 = DIRECTION ( 'NONE',  ( -0.000000000000000000, -0.000000000000000000, -1.000000000000000000 ) ) ;
#325 = CARTESIAN_POINT ( 'NONE',  ( -10.38239974195811044, 34.73913779155856218, 8.400000000000000355 ) ) ;
#326 = AXIS2_PLACEMENT_3D ( 'NONE', #121, #430, #228 ) ;
#327 = CARTESIAN_POINT ( 'NONE',  ( 7.317600258041890626, 34.60239086529232821, 8.400000000000000355 ) ) ;
#328 =( NAMED_UNIT ( * ) SI_UNIT ( $, .STERADIAN. ) SOLID_ANGLE_UNIT ( ) );
#329 = DIRECTION ( 'NONE',  ( 0.000000000000000000, 0.000000000000000000, 1.000000000000000000 ) ) ;
#330 = CIRCLE ( 'NONE', #306, 2.299999999999999822 ) ;
#331 = EDGE_CURVE ( 'NONE', #189, #577, #619, .T. ) ;
#332 = DIRECTION ( 'NONE',  ( 0.000000000000000000, 0.000000000000000000, 1.000000000000000000 ) ) ;
#333 = EDGE_CURVE ( 'NONE', #64, #539, #462, .T. ) ;
#334 = CYLINDRICAL_SURFACE ( 'NONE', #262, 2.299999999999999822 ) ;
#335 = DIRECTION ( 'NONE',  ( -1.000000000000000000, 0.000000000000000000, 0.000000000000000000 ) ) ;
#336 = ORIENTED_EDGE ( 'NONE', *, *, #622, .T. ) ;
#337 = FACE_OUTER_BOUND ( 'NONE', #354, .T. ) ;
#338 = CARTESIAN_POINT ( 'NONE',  ( -8.082399741958109729, 34.73913779155856218, 8.400000000000000355 ) ) ;
#339 = FACE_OUTER_BOUND ( 'NONE', #88, .T. ) ;
#340 = ORIENTED_EDGE ( 'NONE', *, *, #530, .F. ) ;
#341 = LINE ( 'NONE', #150, #59 ) ;
#342 = DIRECTION ( 'NONE',  ( -1.000000000000000000, 0.000000000000000000, 0.000000000000000000 ) ) ;
#343 = ORIENTED_EDGE ( 'NONE', *, *, #632, .T. ) ;
#344 = DIRECTION ( 'NONE',  ( 1.000000000000000000, 0.000000000000000000, 0.000000000000000000 ) ) ;
#345 = CIRCLE ( 'NONE', #612, 40.00000000000000000 ) ;
#346 = CIRCLE ( 'NONE', #222, 32.50000000000000000 ) ;
#347 = EDGE_CURVE ( 'NONE', #224, #594, #217, .T. ) ;
#348 = CARTESIAN_POINT ( 'NONE',  ( 18.38114870689654268, -35.11102448600995984, 8.400000000000000355 ) ) ;
#349 = PRODUCT ( '\X2\5927517382828f7457ab7247\X0\A', '\X2\5927517382828f7457ab7247\X0\A', '', ( #138 ) ) ;
#350 = EDGE_LOOP ( 'NONE', ( #496, #61, #141, #92 ) ) ;
#351 = ADVANCED_FACE ( 'NONE', ( #626 ), #615, .F. ) ;
#352 = AXIS2_PLACEMENT_3D ( 'NONE', #168, #215, #567 ) ;
#353 = FACE_OUTER_BOUND ( 'NONE', #388, .T. ) ;
#354 = EDGE_LOOP ( 'NONE', ( #519, #506, #421, #149 ) ) ;
#355 = DIRECTION ( 'NONE',  ( -0.000000000000000000, -0.000000000000000000, -1.000000000000000000 ) ) ;
#356 = ADVANCED_FACE ( 'NONE', ( #415 ), #73, .T. ) ;
#357 = ORIENTED_EDGE ( 'NONE', *, *, #418, .F. ) ;
#358 = MECHANICAL_DESIGN_GEOMETRIC_PRESENTATION_REPRESENTATION (  '', ( #52 ), #127 ) ;
#359 = CARTESIAN_POINT ( 'NONE',  ( 9.144697155751194018, -34.56232313638631837, 8.400000000000000355 ) ) ;
#360 = DIRECTION ( 'NONE',  ( 0.000000000000000000, 0.000000000000000000, 1.000000000000000000 ) ) ;
#361 = VERTEX_POINT ( 'NONE', #338 ) ;
#362 = CIRCLE ( 'NONE', #544, 2.299999999999999822 ) ;
#363 = ORIENTED_EDGE ( 'NONE', *, *, #331, .F. ) ;
#364 = VERTEX_POINT ( 'NONE', #644 ) ;
#365 = VECTOR ( 'NONE', #360, 1000.000000000000000 ) ;
#366 = FACE_OUTER_BOUND ( 'NONE', #227, .T. ) ;
#367 = ORIENTED_EDGE ( 'NONE', *, *, #381, .F. ) ;
#368 = CIRCLE ( 'NONE', #48, 2.299999999999999822 ) ;
#369 = DIRECTION ( 'NONE',  ( 1.000000000000000000, 0.000000000000000000, 0.000000000000000000 ) ) ;
#370 = ADVANCED_FACE ( 'NONE', ( #234 ), #494, .F. ) ;
#371 = DIRECTION ( 'NONE',  ( 0.000000000000000000, 0.000000000000000000, 1.000000000000000000 ) ) ;
#372 = CARTESIAN_POINT ( 'NONE',  ( -10.38239974195811044, 34.73913779155856218, 8.400000000000000355 ) ) ;
#373 = VECTOR ( 'NONE', #24, 1000.000000000000000 ) ;
#374 = FACE_OUTER_BOUND ( 'NONE', #590, .T. ) ;
#375 = ORIENTED_EDGE ( 'NONE', *, *, #646, .F. ) ;
#376 = FACE_BOUND ( 'NONE', #25, .T. ) ;
#377 = CARTESIAN_POINT ( 'NONE',  ( -0.6188512931034617637, 0.08840732758612357411, 8.400000000000000355 ) ) ;
#378 = CIRCLE ( 'NONE', #264, 2.299999999999999822 ) ;
#379 = ORIENTED_EDGE ( 'NONE', *, *, #195, .T. ) ;
#380 = CARTESIAN_POINT ( 'NONE',  ( 11.44469715575119295, -34.56232313638631837, 8.400000000000000355 ) ) ;
#381 = EDGE_CURVE ( 'NONE', #64, #470, #633, .T. ) ;
#382 = VECTOR ( 'NONE', #314, 1000.000000000000000 ) ;
#383 = CARTESIAN_POINT ( 'NONE',  ( -0.6188512931034617637, 0.08840732758612357411, 8.400000000000000355 ) ) ;
#384 = ORIENTED_EDGE ( 'NONE', *, *, #163, .T. ) ;
#385 = CARTESIAN_POINT ( 'NONE',  ( -10.38239974195811044, 34.73913779155856218, 0.000000000000000000 ) ) ;
#386 = CARTESIAN_POINT ( 'NONE',  ( -0.6188512931034617637, 0.08840732758612357411, 8.400000000000000355 ) ) ;
#387 = CIRCLE ( 'NONE', #624, 32.50000000000000000 ) ;
#388 = EDGE_LOOP ( 'NONE', ( #552, #449, #255, #281 ) ) ;
#389 = DIRECTION ( 'NONE',  ( 0.000000000000000000, 0.000000000000000000, 1.000000000000000000 ) ) ;
#390 = DIRECTION ( 'NONE',  ( 0.000000000000000000, 0.000000000000000000, -1.000000000000000000 ) ) ;
#391 = ORIENTED_EDGE ( 'NONE', *, *, #50, .F. ) ;
#392 = DIRECTION ( 'NONE',  ( -0.000000000000000000, -0.000000000000000000, -1.000000000000000000 ) ) ;
#393 = CARTESIAN_POINT ( 'NONE',  ( -13.15530284424873386, -34.42557621012007729, 0.000000000000000000 ) ) ;
#394 = ORIENTED_EDGE ( 'NONE', *, *, #477, .T. ) ;
#395 = DIRECTION ( 'NONE',  ( 0.000000000000000000, 0.000000000000000000, 1.000000000000000000 ) ) ;
#396 = AXIS2_PLACEMENT_3D ( 'NONE', #383, #136, #231 ) ;
#397 = EDGE_CURVE ( 'NONE', #64, #577, #179, .T. ) ;
#398 = AXIS2_PLACEMENT_3D ( 'NONE', #126, #13, #120 ) ;
#399 = CARTESIAN_POINT ( 'NONE',  ( 11.44469715575119295, -34.56232313638631837, 0.000000000000000000 ) ) ;
#400 = ORIENTED_EDGE ( 'NONE', *, *, #333, .T. ) ;
#401 = CARTESIAN_POINT ( 'NONE',  ( -10.38239974195811044, 34.73913779155856218, 0.000000000000000000 ) ) ;
#402 = DIRECTION ( 'NONE',  ( 0.000000000000000000, -1.000000000000000000, 0.000000000000000000 ) ) ;
#403 = CIRCLE ( 'NONE', #433, 2.299999999999999822 ) ;
#404 =( LENGTH_UNIT ( ) NAMED_UNIT ( * ) SI_UNIT ( .MILLI., .METRE. ) );
#405 = ORIENTED_EDGE ( 'NONE', *, *, #508, .T. ) ;
#406 = DIRECTION ( 'NONE',  ( 0.000000000000000000, 0.000000000000000000, 1.000000000000000000 ) ) ;
#407 = ORIENTED_EDGE ( 'NONE', *, *, #621, .T. ) ;
#408 = VECTOR ( 'NONE', #28, 1000.000000000000000 ) ;
#409 = ORIENTED_EDGE ( 'NONE', *, *, #637, .F. ) ;
#410 = EDGE_CURVE ( 'NONE', #5, #204, #460, .T. ) ;
#411 = ORIENTED_EDGE ( 'NONE', *, *, #637, .T. ) ;
#412 = VECTOR ( 'NONE', #514, 1000.000000000000000 ) ;
#413 = CARTESIAN_POINT ( 'NONE',  ( -13.15530284424873386, -34.42557621012007729, 8.400000000000000355 ) ) ;
#414 = EDGE_CURVE ( 'NONE', #594, #154, #246, .T. ) ;
#415 = FACE_OUTER_BOUND ( 'NONE', #350, .T. ) ;
#416 = DIRECTION ( 'NONE',  ( -1.000000000000000000, 0.000000000000000000, 0.000000000000000000 ) ) ;
#417 = DIRECTION ( 'NONE',  ( 0.000000000000000000, 0.000000000000000000, 1.000000000000000000 ) ) ;
#418 = EDGE_CURVE ( 'NONE', #204, #34, #330, .T. ) ;
#419 = DIRECTION ( 'NONE',  ( -0.000000000000000000, -0.000000000000000000, -1.000000000000000000 ) ) ;
#420 = DIRECTION ( 'NONE',  ( 0.000000000000000000, 0.000000000000000000, 1.000000000000000000 ) ) ;
#421 = ORIENTED_EDGE ( 'NONE', *, *, #110, .T. ) ;
#422 = CARTESIAN_POINT ( 'NONE',  ( -19.61885129310345732, 26.45600107445654814, 8.400000000000000355 ) ) ;
#423 = DIRECTION ( 'NONE',  ( 0.000000000000000000, 0.000000000000000000, 1.000000000000000000 ) ) ;
#424 = DIRECTION ( 'NONE',  ( -1.000000000000000000, 0.000000000000000000, 0.000000000000000000 ) ) ;
#425 = DIRECTION ( 'NONE',  ( -0.000000000000000000, -0.000000000000000000, -1.000000000000000000 ) ) ;
#426 = CLOSED_SHELL ( 'NONE', ( #570, #555, #458, #608, #356, #370, #351, #219, #47, #207 ) ) ;
#427 = CARTESIAN_POINT ( 'NONE',  ( -8.555302844248734218, -34.42557621012007729, 0.000000000000000000 ) ) ;
#428 = CARTESIAN_POINT ( 'NONE',  ( -19.61885129310345732, -26.27918641928430077, 8.400000000000000355 ) ) ;
#429 = CARTESIAN_POINT ( 'NONE',  ( 18.38114870689654268, -43.91159267241386743, 8.400000000000000355 ) ) ;
#430 = DIRECTION ( 'NONE',  ( 0.000000000000000000, 0.000000000000000000, 1.000000000000000000 ) ) ;
#431 = APPLICATION_CONTEXT ( 'automotive_design' ) ;
#432 = DIRECTION ( 'NONE',  ( 1.000000000000000000, 0.000000000000000000, 0.000000000000000000 ) ) ;
#433 = AXIS2_PLACEMENT_3D ( 'NONE', #643, #395, #550 ) ;
#434 = CARTESIAN_POINT ( 'NONE',  ( -8.082399741958109729, 34.73913779155856218, 0.000000000000000000 ) ) ;
#435 = VECTOR ( 'NONE', #419, 1000.000000000000000 ) ;
#436 = DIRECTION ( 'NONE',  ( -0.000000000000000000, -0.000000000000000000, -1.000000000000000000 ) ) ;
#437 = ORIENTED_EDGE ( 'NONE', *, *, #331, .T. ) ;
#438 = DIRECTION ( 'NONE',  ( 0.000000000000000000, 0.000000000000000000, 1.000000000000000000 ) ) ;
#439 = CYLINDRICAL_SURFACE ( 'NONE', #315, 2.299999999999999822 ) ;
#440 = ORIENTED_EDGE ( 'NONE', *, *, #56, .T. ) ;
#441 = SHAPE_DEFINITION_REPRESENTATION ( #57, #216 ) ;
#442 = AXIS2_PLACEMENT_3D ( 'NONE', #548, #392, #598 ) ;
#443 = DIRECTION ( 'NONE',  ( 1.000000000000000000, 0.000000000000000000, 0.000000000000000000 ) ) ;
#444 = EDGE_LOOP ( 'NONE', ( #507, #604, #214, #642 ) ) ;
#445 = CARTESIAN_POINT ( 'NONE',  ( -0.6188512931034617637, 0.08840732758612357411, 0.000000000000000000 ) ) ;
#446 = ORIENTED_EDGE ( 'NONE', *, *, #19, .F. ) ;
#447 = AXIS2_PLACEMENT_3D ( 'NONE', #593, #185, #390 ) ;
#448 = DIRECTION ( 'NONE',  ( 1.000000000000000000, 0.000000000000000000, 0.000000000000000000 ) ) ;
#449 = ORIENTED_EDGE ( 'NONE', *, *, #613, .T. ) ;
#450 = LINE ( 'NONE', #43, #62 ) ;
#451 = DIRECTION ( 'NONE',  ( -0.000000000000000000, -1.000000000000000000, -0.000000000000000000 ) ) ;
#452 = FACE_BOUND ( 'NONE', #82, .T. ) ;
#453 = CARTESIAN_POINT ( 'NONE',  ( -0.6188512931034617637, 0.08840732758612357411, 8.400000000000000355 ) ) ;
#454 = DIRECTION ( 'NONE',  ( 0.000000000000000000, 0.000000000000000000, 1.000000000000000000 ) ) ;
#455 = VECTOR ( 'NONE', #332, 1000.000000000000000 ) ;
#456 = ORIENTED_EDGE ( 'NONE', *, *, #35, .F. ) ;
#457 = PLANE ( 'NONE',  #498 ) ;
#458 = ADVANCED_FACE ( 'NONE', ( #17, #376, #337 ), #79, .T. ) ;
#459 = ORIENTED_EDGE ( 'NONE', *, *, #244, .F. ) ;
#460 = LINE ( 'NONE', #413, #382 ) ;
#461 = AXIS2_PLACEMENT_3D ( 'NONE', #648, #438, #197 ) ;
#462 = LINE ( 'NONE', #12, #636 ) ;
#463 = EDGE_LOOP ( 'NONE', ( #491, #308, #118, #513 ) ) ;
#464 = AXIS2_PLACEMENT_3D ( 'NONE', #112, #417, #165 ) ;
#465 = PRODUCT_DEFINITION_CONTEXT ( 'detailed design', #142, 'design' ) ;
#466 = FILL_AREA_STYLE_COLOUR ( '', #184 ) ;
#467 = ORIENTED_EDGE ( 'NONE', *, *, #50, .T. ) ;
#468 = AXIS2_PLACEMENT_3D ( 'NONE', #210, #420, #369 ) ;
#469 = CARTESIAN_POINT ( 'NONE',  ( -19.61885129310345732, 35.28783914118221077, 8.400000000000000355 ) ) ;
#470 = VERTEX_POINT ( 'NONE', #532 ) ;
#471 = DIRECTION ( 'NONE',  ( 0.000000000000000000, 0.000000000000000000, 1.000000000000000000 ) ) ;
#472 = DIRECTION ( 'NONE',  ( 0.000000000000000000, 0.000000000000000000, -1.000000000000000000 ) ) ;
#473 = DIRECTION ( 'NONE',  ( 0.000000000000000000, 1.000000000000000000, 0.000000000000000000 ) ) ;
#474 = VERTEX_POINT ( 'NONE', #434 ) ;
#475 = LINE ( 'NONE', #21, #91 ) ;
#476 = CARTESIAN_POINT ( 'NONE',  ( -19.61885129310345732, -26.27918641928430077, 0.000000000000000000 ) ) ;
#477 = EDGE_CURVE ( 'NONE', #154, #594, #37, .T. ) ;
#478 = DIRECTION ( 'NONE',  ( -0.000000000000000000, -0.000000000000000000, -1.000000000000000000 ) ) ;
#479 = CARTESIAN_POINT ( 'NONE',  ( 7.317600258041890626, 34.60239086529232821, 8.400000000000000355 ) ) ;
#480 = ORIENTED_EDGE ( 'NONE', *, *, #181, .F. ) ;
#481 = CARTESIAN_POINT ( 'NONE',  ( 18.38114870689654268, 35.28783914118220366, 8.400000000000000355 ) ) ;
#482 = CARTESIAN_POINT ( 'NONE',  ( 6.844697155751193307, -34.56232313638631837, 8.400000000000000355 ) ) ;
#483 = ORIENTED_EDGE ( 'NONE', *, *, #158, .F. ) ;
#484 = DIRECTION ( 'NONE',  ( -0.000000000000000000, -0.000000000000000000, -1.000000000000000000 ) ) ;
#485 = ADVANCED_FACE ( 'NONE', ( #129 ), #125, .T. ) ;
#486 = ADVANCED_FACE ( 'NONE', ( #83 ), #334, .F. ) ;
#487 = LINE ( 'NONE', #240, #504 ) ;
#488 = VERTEX_POINT ( 'NONE', #528 ) ;
#489 = DIRECTION ( 'NONE',  ( -1.000000000000000000, 0.000000000000000000, 0.000000000000000000 ) ) ;
#490 = DIRECTION ( 'NONE',  ( -0.000000000000000000, -0.000000000000000000, -1.000000000000000000 ) ) ;
#491 = ORIENTED_EDGE ( 'NONE', *, *, #106, .T. ) ;
#492 = LINE ( 'NONE', #543, #203 ) ;
#493 = VECTOR ( 'NONE', #484, 1000.000000000000000 ) ;
#494 = CYLINDRICAL_SURFACE ( 'NONE', #579, 32.50000000000000000 ) ;
#495 = CARTESIAN_POINT ( 'NONE',  ( -0.6188512931034617637, 0.08840732758612357411, 0.000000000000000000 ) ) ;
#496 = ORIENTED_EDGE ( 'NONE', *, *, #533, .F. ) ;
#497 = DIRECTION ( 'NONE',  ( 0.000000000000000000, 0.000000000000000000, 1.000000000000000000 ) ) ;
#498 = AXIS2_PLACEMENT_3D ( 'NONE', #609, #60, #472 ) ;
#499 = FILL_AREA_STYLE_COLOUR ( '', #256 ) ;
#500 = ORIENTED_EDGE ( 'NONE', *, *, #632, .F. ) ;
#501 = CARTESIAN_POINT ( 'NONE',  ( 9.617600258041889560, 34.60239086529232821, 8.400000000000000355 ) ) ;
#502 = EDGE_CURVE ( 'NONE', #236, #151, #517, .T. ) ;
#503 = VERTEX_POINT ( 'NONE', #380 ) ;
#504 = VECTOR ( 'NONE', #581, 1000.000000000000000 ) ;
#505 = CARTESIAN_POINT ( 'NONE',  ( -0.6188512931034617637, 0.08840732758612357411, 0.000000000000000000 ) ) ;
#506 = ORIENTED_EDGE ( 'NONE', *, *, #254, .T. ) ;
#507 = ORIENTED_EDGE ( 'NONE', *, *, #621, .F. ) ;
#508 = EDGE_CURVE ( 'NONE', #361, #474, #278, .T. ) ;
#509 = ORIENTED_EDGE ( 'NONE', *, *, #410, .F. ) ;
#510 = ORIENTED_EDGE ( 'NONE', *, *, #173, .F. ) ;
#511 = EDGE_CURVE ( 'NONE', #38, #128, #362, .T. ) ;
#512 = CARTESIAN_POINT ( 'NONE',  ( -19.61885129310345732, -35.11102448600996695, 8.400000000000000355 ) ) ;
#513 = ORIENTED_EDGE ( 'NONE', *, *, #580, .F. ) ;
#514 = DIRECTION ( 'NONE',  ( -0.000000000000000000, -0.000000000000000000, -1.000000000000000000 ) ) ;
#515 = DIRECTION ( 'NONE',  ( -1.000000000000000000, 0.000000000000000000, 0.000000000000000000 ) ) ;
#516 = ORIENTED_EDGE ( 'NONE', *, *, #418, .T. ) ;
#517 = LINE ( 'NONE', #422, #493 ) ;
#518 = SURFACE_STYLE_FILL_AREA ( #223 ) ;
#519 = ORIENTED_EDGE ( 'NONE', *, *, #195, .F. ) ;
#520 = DIRECTION ( 'NONE',  ( -0.000000000000000000, -0.000000000000000000, -1.000000000000000000 ) ) ;
#521 = ADVANCED_FACE ( 'NONE', ( #618 ), #221, .T. ) ;
#522 = DIRECTION ( 'NONE',  ( -1.000000000000000000, 0.000000000000000000, 0.000000000000000000 ) ) ;
#523 = CARTESIAN_POINT ( 'NONE',  ( -8.082399741958109729, 34.73913779155856218, 8.400000000000000355 ) ) ;
#524 = AXIS2_PLACEMENT_3D ( 'NONE', #130, #30, #317 ) ;
#525 = DIRECTION ( 'NONE',  ( -0.000000000000000000, -0.000000000000000000, -1.000000000000000000 ) ) ;
#526 = AXIS2_PLACEMENT_3D ( 'NONE', #563, #406, #448 ) ;
#527 = DIRECTION ( 'NONE',  ( 0.000000000000000000, 0.000000000000000000, 1.000000000000000000 ) ) ;
#528 = CARTESIAN_POINT ( 'NONE',  ( -19.61885129310345732, 35.28783914118221077, 8.400000000000000355 ) ) ;
#529 = CARTESIAN_POINT ( 'NONE',  ( -19.61885129310345732, 26.45600107445655169, 8.400000000000000355 ) ) ;
#530 = EDGE_CURVE ( 'NONE', #105, #201, #571, .T. ) ;
#531 = EDGE_LOOP ( 'NONE', ( #652, #156, #115, #7 ) ) ;
#532 = CARTESIAN_POINT ( 'NONE',  ( -19.61885129310345732, -35.11102448600996695, 0.000000000000000000 ) ) ;
#533 = EDGE_CURVE ( 'NONE', #45, #260, #119, .T. ) ;
#534 = CARTESIAN_POINT ( 'NONE',  ( 9.144697155751194018, -34.56232313638631837, 8.400000000000000355 ) ) ;
#535 = VERTEX_POINT ( 'NONE', #282 ) ;
#536 = APPLICATION_PROTOCOL_DEFINITION ( 'draft international standard', 'automotive_design', 1998, #142 ) ;
#537 = EDGE_CURVE ( 'NONE', #474, #535, #9, .T. ) ;
#538 = CARTESIAN_POINT ( 'NONE',  ( 18.38114870689654268, 35.28783914118219656, 8.400000000000000355 ) ) ;
#539 = VERTEX_POINT ( 'NONE', #428 ) ;
#540 = EDGE_CURVE ( 'NONE', #503, #128, #623, .T. ) ;
#541 = CARTESIAN_POINT ( 'NONE',  ( 11.91760025804189027, 34.60239086529232821, 0.000000000000000000 ) ) ;
#542 = ORIENTED_EDGE ( 'NONE', *, *, #65, .F. ) ;
#543 = CARTESIAN_POINT ( 'NONE',  ( -19.61885129310345732, 0.08840732758612357411, 0.000000000000000000 ) ) ;
#544 = AXIS2_PLACEMENT_3D ( 'NONE', #212, #287, #180 ) ;
#545 = DIRECTION ( 'NONE',  ( -0.000000000000000000, -0.000000000000000000, -1.000000000000000000 ) ) ;
#546 = ORIENTED_EDGE ( 'NONE', *, *, #323, .T. ) ;
#547 = CIRCLE ( 'NONE', #575, 2.299999999999999822 ) ;
#548 = CARTESIAN_POINT ( 'NONE',  ( 9.617600258041889560, 34.60239086529232821, 8.400000000000000355 ) ) ;
#549 = ORIENTED_EDGE ( 'NONE', *, *, #158, .T. ) ;
#550 = DIRECTION ( 'NONE',  ( -1.000000000000000000, 0.000000000000000000, 0.000000000000000000 ) ) ;
#551 = DIRECTION ( 'NONE',  ( 0.000000000000000000, 0.000000000000000000, 1.000000000000000000 ) ) ;
#552 = ORIENTED_EDGE ( 'NONE', *, *, #586, .F. ) ;
#553 = PRESENTATION_LAYER_ASSIGNMENT (  '', '', ( #80 ) ) ;
#554 = CIRCLE ( 'NONE', #102, 40.00000000000000000 ) ;
#555 = ADVANCED_FACE ( 'NONE', ( #374 ), #569, .F. ) ;
#556 = CARTESIAN_POINT ( 'NONE',  ( -19.61885129310345732, -35.11102448600996695, 8.400000000000000355 ) ) ;
#557 = ORIENTED_EDGE ( 'NONE', *, *, #244, .T. ) ;
#558 = UNCERTAINTY_MEASURE_WITH_UNIT (LENGTH_MEASURE( 1.000000000000000082E-05 ), #404, 'distance_accuracy_value', 'NONE');
#559 = FACE_BOUND ( 'NONE', #10, .T. ) ;
#560 = EDGE_LOOP ( 'NONE', ( #75, #167, #542, #316 ) ) ;
#561 = CIRCLE ( 'NONE', #396, 32.50000000000000000 ) ;
#562 = EDGE_CURVE ( 'NONE', #539, #105, #475, .T. ) ;
#563 = CARTESIAN_POINT ( 'NONE',  ( -10.38239974195811044, 34.73913779155856218, 8.400000000000000355 ) ) ;
#564 = ORIENTED_EDGE ( 'NONE', *, *, #323, .F. ) ;
#565 = AXIS2_PLACEMENT_3D ( 'NONE', #377, #14, #416 ) ;
#566 = CARTESIAN_POINT ( 'NONE',  ( -0.6188512931034617637, 0.08840732758612357411, 8.400000000000000355 ) ) ;
#567 = DIRECTION ( 'NONE',  ( 1.000000000000000000, 0.000000000000000000, 0.000000000000000000 ) ) ;
#568 = LINE ( 'NONE', #272, #6 ) ;
#569 = CYLINDRICAL_SURFACE ( 'NONE', #122, 2.299999999999999822 ) ;
#570 = ADVANCED_FACE ( 'NONE', ( #628 ), #172, .F. ) ;
#571 = CIRCLE ( 'NONE', #352, 40.00000000000000000 ) ;
#572 = LINE ( 'NONE', #469, #584 ) ;
#573 = VERTEX_POINT ( 'NONE', #98 ) ;
#574 = DIRECTION ( 'NONE',  ( -1.000000000000000000, 0.000000000000000000, 0.000000000000000000 ) ) ;
#575 = AXIS2_PLACEMENT_3D ( 'NONE', #359, #591, #152 ) ;
#576 = DIRECTION ( 'NONE',  ( 0.000000000000000000, 0.000000000000000000, 1.000000000000000000 ) ) ;
#577 = VERTEX_POINT ( 'NONE', #89 ) ;
#578 = CARTESIAN_POINT ( 'NONE',  ( -19.61885129310345732, -43.91159267241386743, -16.60000000000000853 ) ) ;
#579 = AXIS2_PLACEMENT_3D ( 'NONE', #86, #525, #489 ) ;
#580 = EDGE_CURVE ( 'NONE', #187, #38, #341, .T. ) ;
#581 = DIRECTION ( 'NONE',  ( -0.000000000000000000, -0.000000000000000000, -1.000000000000000000 ) ) ;
#582 = ORIENTED_EDGE ( 'NONE', *, *, #285, .T. ) ;
#583 = CARTESIAN_POINT ( 'NONE',  ( -0.6188512931034617637, 0.08840732758612357411, 8.400000000000000355 ) ) ;
#584 = VECTOR ( 'NONE', #268, 1000.000000000000000 ) ;
#585 = DIRECTION ( 'NONE',  ( 0.000000000000000000, 1.000000000000000000, 0.000000000000000000 ) ) ;
#586 = EDGE_CURVE ( 'NONE', #232, #154, #242, .T. ) ;
#587 = EDGE_LOOP ( 'NONE', ( #546, #199, #357, #509 ) ) ;
#588 = APPLICATION_PROTOCOL_DEFINITION ( 'draft international standard', 'automotive_design', 1998, #431 ) ;
#589 = CARTESIAN_POINT ( 'NONE',  ( 11.91760025804189027, 34.60239086529232821, 8.400000000000000355 ) ) ;
#590 = EDGE_LOOP ( 'NONE', ( #343, #405, #607, #391 ) ) ;
#591 = DIRECTION ( 'NONE',  ( 0.000000000000000000, 0.000000000000000000, 1.000000000000000000 ) ) ;
#592 = AXIS2_PLACEMENT_3D ( 'NONE', #453, #551, #257 ) ;
#593 = CARTESIAN_POINT ( 'NONE',  ( 18.38114870689654268, -43.91159267241386743, -16.60000000000000853 ) ) ;
#594 = VERTEX_POINT ( 'NONE', #301 ) ;
#595 =( LENGTH_UNIT ( ) NAMED_UNIT ( * ) SI_UNIT ( .MILLI., .METRE. ) );
#596 = DIRECTION ( 'NONE',  ( 0.000000000000000000, 0.000000000000000000, 1.000000000000000000 ) ) ;
#597 = EDGE_LOOP ( 'NONE', ( #289, #336, #16, #97 ) ) ;
#598 = DIRECTION ( 'NONE',  ( -1.000000000000000000, 0.000000000000000000, 0.000000000000000000 ) ) ;
#599 = PLANE ( 'NONE',  #592 ) ;
#600 = ORIENTED_EDGE ( 'NONE', *, *, #533, .T. ) ;
#601 = FACE_BOUND ( 'NONE', #313, .T. ) ;
#602 = ORIENTED_EDGE ( 'NONE', *, *, #397, .T. ) ;
#603 = DIRECTION ( 'NONE',  ( 1.000000000000000000, 0.000000000000000000, 0.000000000000000000 ) ) ;
#604 = ORIENTED_EDGE ( 'NONE', *, *, #186, .T. ) ;
#605 = VECTOR ( 'NONE', #355, 1000.000000000000000 ) ;
#606 = LINE ( 'NONE', #99, #248 ) ;
#607 = ORIENTED_EDGE ( 'NONE', *, *, #3, .F. ) ;
#608 = ADVANCED_FACE ( 'NONE', ( #237, #601, #251 ), #307, .F. ) ;
#609 = CARTESIAN_POINT ( 'NONE',  ( 18.38114870689654268, -43.91159267241386743, -16.60000000000000853 ) ) ;
#610 = AXIS2_PLACEMENT_3D ( 'NONE', #372, #425, #171 ) ;
#611 = ORIENTED_EDGE ( 'NONE', *, *, #414, .F. ) ;
#612 = AXIS2_PLACEMENT_3D ( 'NONE', #505, #303, #603 ) ;
#613 = EDGE_CURVE ( 'NONE', #232, #224, #378, .T. ) ;
#614 = DIRECTION ( 'NONE',  ( 1.000000000000000000, 0.000000000000000000, 0.000000000000000000 ) ) ;
#615 = CYLINDRICAL_SURFACE ( 'NONE', #610, 2.299999999999999822 ) ;
#616 = PLANE ( 'NONE',  #625 ) ;
#617 = ORIENTED_EDGE ( 'NONE', *, *, #347, .F. ) ;
#618 = FACE_OUTER_BOUND ( 'NONE', #531, .T. ) ;
#619 = LINE ( 'NONE', #18, #412 ) ;
#620 = SURFACE_STYLE_USAGE ( .BOTH. , #166 ) ;
#621 = EDGE_CURVE ( 'NONE', #159, #45, #450, .T. ) ;
#622 = EDGE_CURVE ( 'NONE', #364, #151, #492, .T. ) ;
#623 = LINE ( 'NONE', #170, #297 ) ;
#624 = AXIS2_PLACEMENT_3D ( 'NONE', #445, #33, #443 ) ;
#625 = AXIS2_PLACEMENT_3D ( 'NONE', #218, #515, #576 ) ;
#626 = FACE_OUTER_BOUND ( 'NONE', #71, .T. ) ;
#627 =( NAMED_UNIT ( * ) PLANE_ANGLE_UNIT ( ) SI_UNIT ( $, .RADIAN. ) );
#628 = FACE_OUTER_BOUND ( 'NONE', #305, .T. ) ;
#629 = AXIS2_PLACEMENT_3D ( 'NONE', #635, #329, #574 ) ;
#630 = PRESENTATION_STYLE_ASSIGNMENT (( #620 ) ) ;
#631 = DIRECTION ( 'NONE',  ( -0.000000000000000000, -0.000000000000000000, -1.000000000000000000 ) ) ;
#632 = EDGE_CURVE ( 'NONE', #42, #361, #302, .T. ) ;
#633 = LINE ( 'NONE', #40, #160 ) ;
#634 = FACE_OUTER_BOUND ( 'NONE', #132, .T. ) ;
#635 = CARTESIAN_POINT ( 'NONE',  ( 9.617600258041889560, 34.60239086529232821, 0.000000000000000000 ) ) ;
#636 = VECTOR ( 'NONE', #205, 1000.000000000000000 ) ;
#637 = EDGE_CURVE ( 'NONE', #503, #187, #547, .T. ) ;
#638 = DIRECTION ( 'NONE',  ( -1.000000000000000000, 0.000000000000000000, 0.000000000000000000 ) ) ;
#639 = CARTESIAN_POINT ( 'NONE',  ( 18.38114870689654268, -35.11102448600995984, 0.000000000000000000 ) ) ;
#640 = ORIENTED_EDGE ( 'NONE', *, *, #414, .T. ) ;
#641 = CARTESIAN_POINT ( 'NONE',  ( 9.144697155751194018, -34.56232313638631837, 0.000000000000000000 ) ) ;
#642 = ORIENTED_EDGE ( 'NONE', *, *, #298, .F. ) ;
#643 = CARTESIAN_POINT ( 'NONE',  ( -10.85530284424873493, -34.42557621012007729, 0.000000000000000000 ) ) ;
#644 = CARTESIAN_POINT ( 'NONE',  ( -19.61885129310345732, 35.28783914118221077, 0.000000000000000000 ) ) ;
#645 = DIRECTION ( 'NONE',  ( 0.000000000000000000, 0.000000000000000000, 1.000000000000000000 ) ) ;
#646 = EDGE_CURVE ( 'NONE', #34, #204, #403, .T. ) ;
#647 = EDGE_LOOP ( 'NONE', ( #516, #193 ) ) ;
#648 = CARTESIAN_POINT ( 'NONE',  ( -0.6188512931034617637, 0.08840732758612357411, 0.000000000000000000 ) ) ;
#649 = DIRECTION ( 'NONE',  ( 0.000000000000000000, -1.000000000000000000, 0.000000000000000000 ) ) ;
#650 = VECTOR ( 'NONE', #585, 1000.000000000000000 ) ;
#651 = CARTESIAN_POINT ( 'NONE',  ( 18.38114870689654268, -26.27918641928429366, 8.400000000000000355 ) ) ;
#652 = ORIENTED_EDGE ( 'NONE', *, *, #275, .T. ) ;
#653 = CARTESIAN_POINT ( 'NONE',  ( 0.000000000000000000, 0.000000000000000000, 0.000000000000000000 ) ) ;
#654 = SURFACE_SIDE_STYLE ('',( #4 ) ) ;
#655 = ORIENTED_EDGE ( 'NONE', *, *, #397, .F. ) ;
#656 = CARTESIAN_POINT ( 'NONE',  ( -10.38239974195811044, 34.73913779155856218, 8.400000000000000355 ) ) ;
ENDSEC;
END-ISO-10303-21;
