ISO-10303-21;
HEADER;
FILE_DESCRIPTION (( 'STEP AP214' ),
    '1' );
FILE_NAME ('´óÂÝË¨A.STEP',
    '2026-08-16T17:26:53',
    ( '' ),
    ( '' ),
    'SwSTEP 2.0',
    'SolidWorks 2025',
    '' );
FILE_SCHEMA (( 'AUTOMOTIVE_DESIGN' ));
ENDSEC;

DATA;
#1 = AXIS2_PLACEMENT_3D ( 'NONE', #279, #674, #595 ) ;
#2 = DIRECTION ( 'NONE',  ( 0.000000000000000000, 0.000000000000000000, 1.000000000000000000 ) ) ;
#3 = EDGE_LOOP ( 'NONE', ( #459, #269, #572, #736, #639, #774, #465, #543, #293 ) ) ;
#4 = DIRECTION ( 'NONE',  ( 1.000000000000000000, 0.000000000000000000, 0.000000000000000000 ) ) ;
#5 = DIRECTION ( 'NONE',  ( 0.000000000000000000, 0.000000000000000000, 1.000000000000000000 ) ) ;
#6 = ORIENTED_EDGE ( 'NONE', *, *, #665, .F. ) ;
#7 = PLANE ( 'NONE',  #516 ) ;
#8 = CIRCLE ( 'NONE', #79, 8.499999999999998224 ) ;
#9 = EDGE_CURVE ( 'NONE', #844, #626, #766, .T. ) ;
#10 = UNCERTAINTY_MEASURE_WITH_UNIT (LENGTH_MEASURE( 1.000000000000000082E-05 ), #187, 'distance_accuracy_value', 'NONE');
#11 = EDGE_CURVE ( 'NONE', #228, #33, #284, .T. ) ;
#12 = CARTESIAN_POINT ( 'NONE',  ( 4.374999999999999112, 3.897114317029974462, 25.00000000000000000 ) ) ;
#13 = VERTEX_POINT ( 'NONE', #576 ) ;
#14 = EDGE_CURVE ( 'NONE', #510, #582, #249, .T. ) ;
#15 = DIRECTION ( 'NONE',  ( -0.000000000000000000, -0.000000000000000000, -1.000000000000000000 ) ) ;
#16 = EDGE_CURVE ( 'NONE', #797, #24, #842, .T. ) ;
#17 = ORIENTED_EDGE ( 'NONE', *, *, #815, .F. ) ;
#18 = DIRECTION ( 'NONE',  ( 0.000000000000000000, 0.000000000000000000, 1.000000000000000000 ) ) ;
#19 = VECTOR ( 'NONE', #178, 1000.000000000000000 ) ;
#20 = CARTESIAN_POINT ( 'NONE',  ( 0.000000000000000000, -16.00000000000000000, 29.00000000000000000 ) ) ;
#21 = EDGE_CURVE ( 'NONE', #413, #196, #444, .T. ) ;
#22 = ORIENTED_EDGE ( 'NONE', *, *, #72, .T. ) ;
#23 = DIRECTION ( 'NONE',  ( 0.000000000000000000, 0.000000000000000000, 1.000000000000000000 ) ) ;
#24 = VERTEX_POINT ( 'NONE', #585 ) ;
#25 = CARTESIAN_POINT ( 'NONE',  ( 4.374999999999999112, 3.897114317029974462, 29.00000000000000000 ) ) ;
#26 = VECTOR ( 'NONE', #162, 1000.000000000000000 ) ;
#27 = EDGE_CURVE ( 'NONE', #28, #82, #353, .T. ) ;
#28 = VERTEX_POINT ( 'NONE', #381 ) ;
#29 = CARTESIAN_POINT ( 'NONE',  ( 0.000000000000000000, -16.00000000000000000, 4.000000000000000000 ) ) ;
#30 = CARTESIAN_POINT ( 'NONE',  ( 8.990000000000001990, 5.405552700695830382, 11.00000000000000000 ) ) ;
#31 = AXIS2_PLACEMENT_3D ( 'NONE', #312, #59, #651 ) ;
#32 = DIRECTION ( 'NONE',  ( 0.000000000000000000, 0.000000000000000000, 1.000000000000000000 ) ) ;
#33 = VERTEX_POINT ( 'NONE', #763 ) ;
#34 = DIRECTION ( 'NONE',  ( 1.000000000000000000, 0.000000000000000000, 0.000000000000000000 ) ) ;
#35 = CARTESIAN_POINT ( 'NONE',  ( -8.499999999999998224, 0.000000000000000000, 0.000000000000000000 ) ) ;
#36 = AXIS2_PLACEMENT_3D ( 'NONE', #83, #535, #737 ) ;
#37 = ADVANCED_FACE ( 'NONE', ( #644 ), #179, .T. ) ;
#38 = CARTESIAN_POINT ( 'NONE',  ( 0.000000000000000000, 0.000000000000000000, 25.00000000000000000 ) ) ;
#39 = EDGE_LOOP ( 'NONE', ( #646, #718, #663, #840 ) ) ;
#40 = FACE_OUTER_BOUND ( 'NONE', #166, .T. ) ;
#41 = CARTESIAN_POINT ( 'NONE',  ( 6.422616289332542472, 12.99999999999999822, 4.000000000000000000 ) ) ;
#42 = ADVANCED_FACE ( 'NONE', ( #838 ), #49, .T. ) ;
#43 = ORIENTED_EDGE ( 'NONE', *, *, #536, .F. ) ;
#44 = DIRECTION ( 'NONE',  ( 1.000000000000000000, 0.000000000000000000, 0.000000000000000000 ) ) ;
#45 = DIRECTION ( 'NONE',  ( 1.000000000000000000, 0.000000000000000000, 0.000000000000000000 ) ) ;
#46 = VECTOR ( 'NONE', #144, 1000.000000000000000 ) ;
#47 = VECTOR ( 'NONE', #426, 1000.000000000000000 ) ;
#48 = DIRECTION ( 'NONE',  ( 0.000000000000000000, 0.000000000000000000, 1.000000000000000000 ) ) ;
#49 = CYLINDRICAL_SURFACE ( 'NONE', #296, 3.000000000000000000 ) ;
#50 = EDGE_CURVE ( 'NONE', #582, #378, #485, .T. ) ;
#51 = VERTEX_POINT ( 'NONE', #462 ) ;
#52 = DIRECTION ( 'NONE',  ( -0.000000000000000000, -0.000000000000000000, -1.000000000000000000 ) ) ;
#53 = EDGE_LOOP ( 'NONE', ( #184, #744 ) ) ;
#54 = FACE_OUTER_BOUND ( 'NONE', #708, .T. ) ;
#55 = DIRECTION ( 'NONE',  ( -0.000000000000000000, 0.000000000000000000, 1.000000000000000000 ) ) ;
#56 = EDGE_CURVE ( 'NONE', #33, #228, #818, .T. ) ;
#57 = PRODUCT_RELATED_PRODUCT_CATEGORY ( 'part', '', ( #643 ) ) ;
#58 = EDGE_LOOP ( 'NONE', ( #860, #257, #62 ) ) ;
#59 = DIRECTION ( 'NONE',  ( 0.000000000000000000, 0.000000000000000000, 1.000000000000000000 ) ) ;
#60 = VERTEX_POINT ( 'NONE', #80 ) ;
#61 = DIRECTION ( 'NONE',  ( 1.000000000000000000, 0.000000000000000000, -0.000000000000000000 ) ) ;
#62 = ORIENTED_EDGE ( 'NONE', *, *, #50, .T. ) ;
#63 = CARTESIAN_POINT ( 'NONE',  ( 8.990000000000001990, 5.405552700695830382, 29.00000000000000000 ) ) ;
#64 = CIRCLE ( 'NONE', #539, 2.124999999999999556 ) ;
#65 = EDGE_CURVE ( 'NONE', #13, #383, #599, .T. ) ;
#66 = DIRECTION ( 'NONE',  ( 0.000000000000000000, 0.000000000000000000, 1.000000000000000000 ) ) ;
#67 = ORIENTED_EDGE ( 'NONE', *, *, #340, .T. ) ;
#68 = AXIS2_PLACEMENT_3D ( 'NONE', #122, #111, #300 ) ;
#69 = EDGE_LOOP ( 'NONE', ( #380, #504, #732, #395 ) ) ;
#70 = DIRECTION ( 'NONE',  ( 1.000000000000000000, 0.000000000000000000, 0.000000000000000000 ) ) ;
#71 = DIRECTION ( 'NONE',  ( 0.000000000000000000, 0.000000000000000000, 1.000000000000000000 ) ) ;
#72 = EDGE_CURVE ( 'NONE', #311, #758, #8, .T. ) ;
#73 = ORIENTED_EDGE ( 'NONE', *, *, #739, .T. ) ;
#74 = VECTOR ( 'NONE', #66, 1000.000000000000000 ) ;
#75 = CARTESIAN_POINT ( 'NONE',  ( 0.000000000000000000, 0.000000000000000000, 11.00000000000000000 ) ) ;
#76 = CIRCLE ( 'NONE', #625, 3.000000000000000000 ) ;
#77 = ORIENTED_EDGE ( 'NONE', *, *, #836, .F. ) ;
#78 = CARTESIAN_POINT ( 'NONE',  ( 6.422616289332542472, -12.99999999999999822, 0.000000000000000000 ) ) ;
#79 = AXIS2_PLACEMENT_3D ( 'NONE', #337, #785, #471 ) ;
#80 = CARTESIAN_POINT ( 'NONE',  ( -7.751433452642724653, -15.68965517241379182, 0.000000000000000000 ) ) ;
#81 = ADVANCED_FACE ( 'NONE', ( #593 ), #341, .F. ) ;
#82 = VERTEX_POINT ( 'NONE', #409 ) ;
#83 = CARTESIAN_POINT ( 'NONE',  ( 0.000000000000000000, 0.000000000000000000, 29.00000000000000000 ) ) ;
#84 = LINE ( 'NONE', #808, #26 ) ;
#85 = CIRCLE ( 'NONE', #302, 8.499999999999998224 ) ;
#86 = ORIENTED_EDGE ( 'NONE', *, *, #799, .T. ) ;
#87 = DIRECTION ( 'NONE',  ( 0.000000000000000000, 0.000000000000000000, 1.000000000000000000 ) ) ;
#88 = AXIS2_PLACEMENT_3D ( 'NONE', #678, #610, #813 ) ;
#89 = PRODUCT_DEFINITION_CONTEXT ( 'detailed design', #407, 'design' ) ;
#90 = CIRCLE ( 'NONE', #589, 2.124999999999999556 ) ;
#91 = EDGE_LOOP ( 'NONE', ( #549, #751, #420, #611 ) ) ;
#92 = DIRECTION ( 'NONE',  ( 0.000000000000000000, 0.000000000000000000, -1.000000000000000000 ) ) ;
#93 = ADVANCED_FACE ( 'NONE', ( #800 ), #662, .F. ) ;
#94 =( GEOMETRIC_REPRESENTATION_CONTEXT ( 3 ) GLOBAL_UNCERTAINTY_ASSIGNED_CONTEXT ( ( #271 ) ) GLOBAL_UNIT_ASSIGNED_CONTEXT ( ( #586, #854, #778 ) ) REPRESENTATION_CONTEXT ( 'NONE', 'WORKASPACE' ) );
#95 = ORIENTED_EDGE ( 'NONE', *, *, #124, .T. ) ;
#96 = LINE ( 'NONE', #764, #620 ) ;
#97 = DIRECTION ( 'NONE',  ( 0.000000000000000000, 0.000000000000000000, 1.000000000000000000 ) ) ;
#98 = ORIENTED_EDGE ( 'NONE', *, *, #526, .F. ) ;
#99 = DIRECTION ( 'NONE',  ( -0.000000000000000000, -0.000000000000000000, -1.000000000000000000 ) ) ;
#100 = CARTESIAN_POINT ( 'NONE',  ( 8.499999999999998224, 1.040949779275249943E-15, 0.000000000000000000 ) ) ;
#101 = CIRCLE ( 'NONE', #320, 17.49999999999998934 ) ;
#102 = PLANE ( 'NONE',  #347 ) ;
#103 = EDGE_CURVE ( 'NONE', #463, #194, #506, .T. ) ;
#104 = ORIENTED_EDGE ( 'NONE', *, *, #155, .T. ) ;
#105 = LINE ( 'NONE', #172, #253 ) ;
#106 = FACE_OUTER_BOUND ( 'NONE', #613, .T. ) ;
#107 = CIRCLE ( 'NONE', #776, 2.125000000000000000 ) ;
#108 = ORIENTED_EDGE ( 'NONE', *, *, #9, .F. ) ;
#109 = DIRECTION ( 'NONE',  ( 1.000000000000000000, 0.000000000000000000, 0.000000000000000000 ) ) ;
#110 = DIRECTION ( 'NONE',  ( 0.000000000000000000, 0.000000000000000000, -1.000000000000000000 ) ) ;
#111 = DIRECTION ( 'NONE',  ( 0.000000000000000000, 0.000000000000000000, 1.000000000000000000 ) ) ;
#112 = ORIENTED_EDGE ( 'NONE', *, *, #590, .T. ) ;
#113 = DIRECTION ( 'NONE',  ( 1.000000000000000000, 0.000000000000000000, 0.000000000000000000 ) ) ;
#114 = AXIS2_PLACEMENT_3D ( 'NONE', #75, #140, #215 ) ;
#115 = ADVANCED_BREP_SHAPE_REPRESENTATION ( '\X2\592787ba6813\X0\A', ( #498, #792 ), #94 ) ;
#116 = ORIENTED_EDGE ( 'NONE', *, *, #649, .T. ) ;
#117 = CARTESIAN_POINT ( 'NONE',  ( 4.375000000000001776, -3.897114317029972685, 25.00000000000000000 ) ) ;
#118 = VERTEX_POINT ( 'NONE', #789 ) ;
#119 = DIRECTION ( 'NONE',  ( 0.000000000000000000, 0.000000000000000000, 1.000000000000000000 ) ) ;
#120 = ADVANCED_FACE ( 'NONE', ( #206 ), #389, .F. ) ;
#121 = CARTESIAN_POINT ( 'NONE',  ( -4.500000000000000000, 0.000000000000000000, 29.00000000000000000 ) ) ;
#122 = CARTESIAN_POINT ( 'NONE',  ( 0.000000000000000000, 0.000000000000000000, 29.00000000000000000 ) ) ;
#123 = ORIENTED_EDGE ( 'NONE', *, *, #169, .F. ) ;
#124 = EDGE_CURVE ( 'NONE', #424, #51, #728, .T. ) ;
#125 = SURFACE_SIDE_STYLE ('',( #583 ) ) ;
#126 = VERTEX_POINT ( 'NONE', #12 ) ;
#127 = EDGE_LOOP ( 'NONE', ( #629, #767 ) ) ;
#128 = CIRCLE ( 'NONE', #388, 2.125000000000000000 ) ;
#129 = EDGE_LOOP ( 'NONE', ( #441, #635, #86, #621 ) ) ;
#130 = FACE_OUTER_BOUND ( 'NONE', #417, .T. ) ;
#131 = ORIENTED_EDGE ( 'NONE', *, *, #836, .T. ) ;
#132 = CARTESIAN_POINT ( 'NONE',  ( 0.1250000000000018319, -3.897114317029972241, 25.00000000000000000 ) ) ;
#133 = VECTOR ( 'NONE', #366, 1000.000000000000000 ) ;
#134 = DIRECTION ( 'NONE',  ( 1.000000000000000000, 0.000000000000000000, 0.000000000000000000 ) ) ;
#135 = ADVANCED_FACE ( 'NONE', ( #793 ), #209, .T. ) ;
#136 = EDGE_LOOP ( 'NONE', ( #501, #399, #199, #659 ) ) ;
#137 = EDGE_CURVE ( 'NONE', #311, #354, #84, .T. ) ;
#138 = AXIS2_PLACEMENT_3D ( 'NONE', #604, #2, #327 ) ;
#139 = ORIENTED_EDGE ( 'NONE', *, *, #372, .F. ) ;
#140 = DIRECTION ( 'NONE',  ( 0.000000000000000000, 0.000000000000000000, 1.000000000000000000 ) ) ;
#141 = CARTESIAN_POINT ( 'NONE',  ( -6.422616289332542472, 12.99999999999999822, 4.000000000000000000 ) ) ;
#142 = ORIENTED_EDGE ( 'NONE', *, *, #27, .T. ) ;
#143 = AXIS2_PLACEMENT_3D ( 'NONE', #689, #622, #34 ) ;
#144 = DIRECTION ( 'NONE',  ( -0.000000000000000000, -0.000000000000000000, 1.000000000000000000 ) ) ;
#145 = PRODUCT_DEFINITION ( 'æ™', '', #309, #89 ) ;
#146 = DIRECTION ( 'NONE',  ( 1.000000000000000000, 0.000000000000000000, 0.000000000000000000 ) ) ;
#147 = VECTOR ( 'NONE', #301, 1000.000000000000000 ) ;
#148 = ORIENTED_EDGE ( 'NONE', *, *, #11, .F. ) ;
#149 = CARTESIAN_POINT ( 'NONE',  ( 15.05499999999999972, 1.843705756116340054E-15, 11.00000000000000000 ) ) ;
#150 = EDGE_CURVE ( 'NONE', #452, #275, #517, .T. ) ;
#151 = ORIENTED_EDGE ( 'NONE', *, *, #72, .F. ) ;
#152 = CARTESIAN_POINT ( 'NONE',  ( 0.000000000000000000, 0.000000000000000000, 11.00000000000000000 ) ) ;
#153 = ADVANCED_FACE ( 'NONE', ( #483 ), #427, .F. ) ;
#154 = DIRECTION ( 'NONE',  ( 0.000000000000000000, 0.000000000000000000, 1.000000000000000000 ) ) ;
#155 = EDGE_CURVE ( 'NONE', #780, #338, #160, .T. ) ;
#156 = DIRECTION ( 'NONE',  ( -1.000000000000000000, 0.000000000000000000, 0.000000000000000000 ) ) ;
#157 = STYLED_ITEM ( 'NONE', ( #788 ), #498 ) ;
#158 = ORIENTED_EDGE ( 'NONE', *, *, #682, .T. ) ;
#159 = DIRECTION ( 'NONE',  ( -0.000000000000000000, -0.000000000000000000, -1.000000000000000000 ) ) ;
#160 = CIRCLE ( 'NONE', #496, 2.124999999999999556 ) ;
#161 = ADVANCED_FACE ( 'NONE', ( #820, #541, #231, #170 ), #102, .F. ) ;
#162 = DIRECTION ( 'NONE',  ( -0.000000000000000000, -0.000000000000000000, -1.000000000000000000 ) ) ;
#163 = ORIENTED_EDGE ( 'NONE', *, *, #243, .T. ) ;
#164 = CARTESIAN_POINT ( 'NONE',  ( 7.751433452642724653, -15.68965517241379182, 4.000000000000000000 ) ) ;
#165 = DIRECTION ( 'NONE',  ( -0.000000000000000000, -0.000000000000000000, -1.000000000000000000 ) ) ;
#166 = EDGE_LOOP ( 'NONE', ( #748, #446, #73, #387 ) ) ;
#167 = CARTESIAN_POINT ( 'NONE',  ( 0.1250000000000018319, -3.897114317029972241, 29.00000000000000000 ) ) ;
#168 = LINE ( 'NONE', #30, #47 ) ;
#169 = EDGE_CURVE ( 'NONE', #24, #431, #128, .T. ) ;
#170 = FACE_OUTER_BOUND ( 'NONE', #454, .T. ) ;
#171 = EDGE_LOOP ( 'NONE', ( #6, #266, #307, #263 ) ) ;
#172 = CARTESIAN_POINT ( 'NONE',  ( -7.751433452642724653, 15.68965517241379182, 4.000000000000000000 ) ) ;
#173 = DIRECTION ( 'NONE',  ( 0.000000000000000000, 0.000000000000000000, 1.000000000000000000 ) ) ;
#174 = ORIENTED_EDGE ( 'NONE', *, *, #56, .T. ) ;
#175 = DIRECTION ( 'NONE',  ( -0.000000000000000000, -0.000000000000000000, 1.000000000000000000 ) ) ;
#176 = AXIS2_PLACEMENT_3D ( 'NONE', #834, #177, #750 ) ;
#177 = DIRECTION ( 'NONE',  ( -0.000000000000000000, -0.000000000000000000, -1.000000000000000000 ) ) ;
#178 = DIRECTION ( 'NONE',  ( 0.000000000000000000, -1.000000000000000000, 0.000000000000000000 ) ) ;
#179 = CYLINDRICAL_SURFACE ( 'NONE', #260, 10.49000000000000021 ) ;
#180 = DIRECTION ( 'NONE',  ( 0.000000000000000000, 0.000000000000000000, 1.000000000000000000 ) ) ;
#181 = CARTESIAN_POINT ( 'NONE',  ( 2.249999999999999112, 3.897114317029974462, 25.00000000000000000 ) ) ;
#182 = VECTOR ( 'NONE', #706, 1000.000000000000000 ) ;
#183 = AXIS2_PLACEMENT_3D ( 'NONE', #731, #5, #531 ) ;
#184 = ORIENTED_EDGE ( 'NONE', *, *, #443, .T. ) ;
#185 = DIRECTION ( 'NONE',  ( -0.000000000000000000, -0.000000000000000000, -1.000000000000000000 ) ) ;
#186 = ORIENTED_EDGE ( 'NONE', *, *, #762, .F. ) ;
#187 =( LENGTH_UNIT ( ) NAMED_UNIT ( * ) SI_UNIT ( .MILLI., .METRE. ) );
#188 = VECTOR ( 'NONE', #833, 1000.000000000000000 ) ;
#189 = CARTESIAN_POINT ( 'NONE',  ( -6.625000000000000000, 2.602374448188125350E-16, 25.00000000000000000 ) ) ;
#190 = DIRECTION ( 'NONE',  ( -1.000000000000000000, 0.000000000000000000, 0.000000000000000000 ) ) ;
#191 = EDGE_LOOP ( 'NONE', ( #410, #532, #363, #67 ) ) ;
#192 = DIRECTION ( 'NONE',  ( -0.000000000000000000, -0.000000000000000000, -1.000000000000000000 ) ) ;
#193 = VECTOR ( 'NONE', #668, 1000.000000000000000 ) ;
#194 = VERTEX_POINT ( 'NONE', #642 ) ;
#195 = APPLICATION_PROTOCOL_DEFINITION ( 'draft international standard', 'automotive_design', 1998, #658 ) ;
#196 = VERTEX_POINT ( 'NONE', #315 ) ;
#197 = DIRECTION ( 'NONE',  ( 1.000000000000000000, 0.000000000000000000, 0.000000000000000000 ) ) ;
#198 = EDGE_CURVE ( 'NONE', #510, #378, #837, .T. ) ;
#199 = ORIENTED_EDGE ( 'NONE', *, *, #198, .T. ) ;
#200 = ORIENTED_EDGE ( 'NONE', *, *, #721, .F. ) ;
#201 = SURFACE_STYLE_USAGE ( .BOTH. , #125 ) ;
#202 = CIRCLE ( 'NONE', #493, 3.000000000000000000 ) ;
#203 = ORIENTED_EDGE ( 'NONE', *, *, #437, .F. ) ;
#204 = DIRECTION ( 'NONE',  ( 0.000000000000000000, 0.000000000000000000, 1.000000000000000000 ) ) ;
#205 = VECTOR ( 'NONE', #110, 1000.000000000000000 ) ;
#206 = FACE_OUTER_BOUND ( 'NONE', #272, .T. ) ;
#207 = ORIENTED_EDGE ( 'NONE', *, *, #393, .F. ) ;
#208 = DIRECTION ( 'NONE',  ( 0.000000000000000000, 0.000000000000000000, 1.000000000000000000 ) ) ;
#209 = CYLINDRICAL_SURFACE ( 'NONE', #660, 3.000000000000000000 ) ;
#210 = ORIENTED_EDGE ( 'NONE', *, *, #649, .F. ) ;
#211 = LINE ( 'NONE', #544, #456 ) ;
#212 = ADVANCED_FACE ( 'NONE', ( #851 ), #846, .F. ) ;
#213 = EDGE_LOOP ( 'NONE', ( #809, #142 ) ) ;
#214 = AXIS2_PLACEMENT_3D ( 'NONE', #374, #440, #190 ) ;
#215 = DIRECTION ( 'NONE',  ( 1.000000000000000000, 0.000000000000000000, 0.000000000000000000 ) ) ;
#216 = CIRCLE ( 'NONE', #350, 3.000000000000000000 ) ;
#217 = DIRECTION ( 'NONE',  ( 0.000000000000000000, 0.000000000000000000, 1.000000000000000000 ) ) ;
#218 = AXIS2_PLACEMENT_3D ( 'NONE', #411, #159, #606 ) ;
#219 = VERTEX_POINT ( 'NONE', #412 ) ;
#220 = DIRECTION ( 'NONE',  ( 1.000000000000000000, 0.000000000000000000, 0.000000000000000000 ) ) ;
#221 = VECTOR ( 'NONE', #847, 1000.000000000000000 ) ;
#222 = ORIENTED_EDGE ( 'NONE', *, *, #673, .T. ) ;
#223 = CARTESIAN_POINT ( 'NONE',  ( -6.422616289332542472, 12.99999999999999822, 4.000000000000000000 ) ) ;
#224 = CARTESIAN_POINT ( 'NONE',  ( 0.000000000000000000, 0.000000000000000000, 4.000000000000000000 ) ) ;
#225 = VERTEX_POINT ( 'NONE', #419 ) ;
#226 = CARTESIAN_POINT ( 'NONE',  ( 7.751433452642724653, 15.68965517241379182, 4.000000000000000000 ) ) ;
#227 = DIRECTION ( 'NONE',  ( -1.000000000000000000, 0.000000000000000000, 0.000000000000000000 ) ) ;
#228 = VERTEX_POINT ( 'NONE', #608 ) ;
#229 = CARTESIAN_POINT ( 'NONE',  ( 0.000000000000000000, 16.00000000000000000, 4.000000000000000000 ) ) ;
#230 = CARTESIAN_POINT ( 'NONE',  ( 8.990000000000001990, -5.405552700695830382, 29.00000000000000000 ) ) ;
#231 = FACE_BOUND ( 'NONE', #127, .T. ) ;
#232 = ORIENTED_EDGE ( 'NONE', *, *, #654, .F. ) ;
#233 = CARTESIAN_POINT ( 'NONE',  ( 0.000000000000000000, 0.000000000000000000, 4.000000000000000000 ) ) ;
#234 = CARTESIAN_POINT ( 'NONE',  ( 8.990000000000001990, -5.405552700695831270, 11.00000000000000000 ) ) ;
#235 = ORIENTED_EDGE ( 'NONE', *, *, #319, .T. ) ;
#236 = DIRECTION ( 'NONE',  ( -0.000000000000000000, -0.000000000000000000, -1.000000000000000000 ) ) ;
#237 = PRESENTATION_LAYER_ASSIGNMENT (  '', '', ( #157 ) ) ;
#238 = DIRECTION ( 'NONE',  ( 0.000000000000000000, 0.000000000000000000, 1.000000000000000000 ) ) ;
#239 = CIRCLE ( 'NONE', #829, 17.49999999999998934 ) ;
#240 = CARTESIAN_POINT ( 'NONE',  ( 0.000000000000000000, 0.000000000000000000, 11.00000000000000000 ) ) ;
#241 = CARTESIAN_POINT ( 'NONE',  ( -6.422616289332542472, 16.00000000000000000, 4.000000000000000000 ) ) ;
#242 = DIRECTION ( 'NONE',  ( 1.000000000000000000, 0.000000000000000000, 0.000000000000000000 ) ) ;
#243 = EDGE_CURVE ( 'NONE', #194, #60, #609, .T. ) ;
#244 = EDGE_CURVE ( 'NONE', #219, #667, #239, .T. ) ;
#245 = EDGE_LOOP ( 'NONE', ( #790, #351 ) ) ;
#246 = CARTESIAN_POINT ( 'NONE',  ( -15.05499999999999972, 0.000000000000000000, 11.00000000000000000 ) ) ;
#247 = ORIENTED_EDGE ( 'NONE', *, *, #601, .F. ) ;
#248 = DIRECTION ( 'NONE',  ( -0.000000000000000000, -0.000000000000000000, -1.000000000000000000 ) ) ;
#249 = CIRCLE ( 'NONE', #68, 10.49000000000000021 ) ;
#250 = DIRECTION ( 'NONE',  ( 0.000000000000000000, 0.000000000000000000, 1.000000000000000000 ) ) ;
#251 = ORIENTED_EDGE ( 'NONE', *, *, #243, .F. ) ;
#252 = DIRECTION ( 'NONE',  ( -1.000000000000000000, 0.000000000000000000, 0.000000000000000000 ) ) ;
#253 = VECTOR ( 'NONE', #429, 1000.000000000000000 ) ;
#254 = PRODUCT_DEFINITION_SHAPE ( 'NONE', 'NONE',  #145 ) ;
#255 = ORIENTED_EDGE ( 'NONE', *, *, #714, .F. ) ;
#256 = ADVANCED_FACE ( 'NONE', ( #433 ), #356, .F. ) ;
#257 = ORIENTED_EDGE ( 'NONE', *, *, #14, .T. ) ;
#258 = CARTESIAN_POINT ( 'NONE',  ( -4.500000000000000000, 0.000000000000000000, 25.00000000000000000 ) ) ;
#259 = CIRCLE ( 'NONE', #557, 8.499999999999998224 ) ;
#260 = AXIS2_PLACEMENT_3D ( 'NONE', #434, #316, #373 ) ;
#261 = ORIENTED_EDGE ( 'NONE', *, *, #714, .T. ) ;
#262 = ADVANCED_FACE ( 'NONE', ( #377 ), #562, .F. ) ;
#263 = ORIENTED_EDGE ( 'NONE', *, *, #319, .F. ) ;
#264 = FACE_BOUND ( 'NONE', #824, .T. ) ;
#265 = APPLICATION_PROTOCOL_DEFINITION ( 'draft international standard', 'automotive_design', 1998, #407 ) ;
#266 = ORIENTED_EDGE ( 'NONE', *, *, #358, .F. ) ;
#267 = DIRECTION ( 'NONE',  ( -1.000000000000000000, 0.000000000000000000, 0.000000000000000000 ) ) ;
#268 = AXIS2_PLACEMENT_3D ( 'NONE', #540, #154, #545 ) ;
#269 = ORIENTED_EDGE ( 'NONE', *, *, #372, .T. ) ;
#270 = DIRECTION ( 'NONE',  ( 0.000000000000000000, 0.000000000000000000, 1.000000000000000000 ) ) ;
#271 = UNCERTAINTY_MEASURE_WITH_UNIT (LENGTH_MEASURE( 1.000000000000000082E-05 ), #586, 'distance_accuracy_value', 'NONE');
#272 = EDGE_LOOP ( 'NONE', ( #148, #313, #116, #77 ) ) ;
#273 = CARTESIAN_POINT ( 'NONE',  ( 0.000000000000000000, 0.000000000000000000, 4.000000000000000000 ) ) ;
#274 = DIRECTION ( 'NONE',  ( 0.000000000000000000, 0.000000000000000000, 1.000000000000000000 ) ) ;
#275 = VERTEX_POINT ( 'NONE', #295 ) ;
#276 = DIRECTION ( 'NONE',  ( 0.000000000000000000, 0.000000000000000000, 1.000000000000000000 ) ) ;
#277 = AXIS2_PLACEMENT_3D ( 'NONE', #823, #570, #811 ) ;
#278 = ORIENTED_EDGE ( 'NONE', *, *, #536, .T. ) ;
#279 = CARTESIAN_POINT ( 'NONE',  ( -6.422616289332542472, 12.99999999999999822, 0.000000000000000000 ) ) ;
#280 = AXIS2_PLACEMENT_3D ( 'NONE', #775, #192, #267 ) ;
#281 = CARTESIAN_POINT ( 'NONE',  ( 2.249999999999999112, 3.897114317029974462, 29.00000000000000000 ) ) ;
#282 = ORIENTED_EDGE ( 'NONE', *, *, #590, .F. ) ;
#283 = CARTESIAN_POINT ( 'NONE',  ( 0.000000000000000000, 0.000000000000000000, 0.000000000000000000 ) ) ;
#284 = CIRCLE ( 'NONE', #475, 2.125000000000000000 ) ;
#285 = AXIS2_PLACEMENT_3D ( 'NONE', #398, #71, #858 ) ;
#286 = EDGE_LOOP ( 'NONE', ( #255, #602, #232, #523 ) ) ;
#287 = LINE ( 'NONE', #627, #147 ) ;
#288 = LINE ( 'NONE', #481, #612 ) ;
#289 = ORIENTED_EDGE ( 'NONE', *, *, #385, .F. ) ;
#290 = CARTESIAN_POINT ( 'NONE',  ( -6.625000000000000000, 2.602374448188125350E-16, 25.00000000000000000 ) ) ;
#291 = CYLINDRICAL_SURFACE ( 'NONE', #176, 10.49000000000000021 ) ;
#292 = DIRECTION ( 'NONE',  ( 0.000000000000000000, 1.000000000000000000, 0.000000000000000000 ) ) ;
#293 = ORIENTED_EDGE ( 'NONE', *, *, #65, .T. ) ;
#294 = LINE ( 'NONE', #695, #188 ) ;
#295 = CARTESIAN_POINT ( 'NONE',  ( 7.751433452642724653, 15.68965517241379182, 0.000000000000000000 ) ) ;
#296 = AXIS2_PLACEMENT_3D ( 'NONE', #633, #512, #305 ) ;
#297 = VERTEX_POINT ( 'NONE', #35 ) ;
#298 = CARTESIAN_POINT ( 'NONE',  ( -6.422616289332540696, 16.00000000000000000, 0.000000000000000000 ) ) ;
#299 = DIRECTION ( 'NONE',  ( 0.000000000000000000, 0.000000000000000000, 1.000000000000000000 ) ) ;
#300 = DIRECTION ( 'NONE',  ( 1.000000000000000000, 0.000000000000000000, 0.000000000000000000 ) ) ;
#301 = DIRECTION ( 'NONE',  ( 0.000000000000000000, 0.000000000000000000, 1.000000000000000000 ) ) ;
#302 = AXIS2_PLACEMENT_3D ( 'NONE', #538, #87, #4 ) ;
#303 = CARTESIAN_POINT ( 'NONE',  ( -2.374999999999999556, 0.000000000000000000, 25.00000000000000000 ) ) ;
#304 = CIRCLE ( 'NONE', #416, 2.125000000000000000 ) ;
#305 = DIRECTION ( 'NONE',  ( -1.000000000000000000, 0.000000000000000000, 0.000000000000000000 ) ) ;
#306 = SHAPE_DEFINITION_REPRESENTATION ( #254, #115 ) ;
#307 = ORIENTED_EDGE ( 'NONE', *, *, #65, .F. ) ;
#308 = LINE ( 'NONE', #132, #460 ) ;
#309 = PRODUCT_DEFINITION_FORMATION_WITH_SPECIFIED_SOURCE ( 'å¯', '', #643, .NOT_KNOWN. ) ;
#310 = DIRECTION ( 'NONE',  ( 0.000000000000000000, 0.000000000000000000, 1.000000000000000000 ) ) ;
#311 = VERTEX_POINT ( 'NONE', #488 ) ;
#312 = CARTESIAN_POINT ( 'NONE',  ( 2.249999999999999112, 3.897114317029974462, 29.00000000000000000 ) ) ;
#313 = ORIENTED_EDGE ( 'NONE', *, *, #482, .T. ) ;
#314 = DIRECTION ( 'NONE',  ( -1.000000000000000000, 0.000000000000000000, 0.000000000000000000 ) ) ;
#315 = CARTESIAN_POINT ( 'NONE',  ( 6.422616289332540696, -16.00000000000000000, 0.000000000000000000 ) ) ;
#316 = DIRECTION ( 'NONE',  ( -0.000000000000000000, -0.000000000000000000, -1.000000000000000000 ) ) ;
#317 = CARTESIAN_POINT ( 'NONE',  ( 0.000000000000000000, 0.000000000000000000, 0.000000000000000000 ) ) ;
#318 = CARTESIAN_POINT ( 'NONE',  ( -7.751433452642724653, 15.68965517241379182, 0.000000000000000000 ) ) ;
#319 = EDGE_CURVE ( 'NONE', #60, #13, #696, .T. ) ;
#320 = AXIS2_PLACEMENT_3D ( 'NONE', #505, #180, #839 ) ;
#321 = ORIENTED_EDGE ( 'NONE', *, *, #673, .F. ) ;
#322 = CARTESIAN_POINT ( 'NONE',  ( 8.990000000000001990, 5.405552700695830382, 11.00000000000000000 ) ) ;
#323 = VERTEX_POINT ( 'NONE', #303 ) ;
#324 = CIRCLE ( 'NONE', #722, 3.000000000000000000 ) ;
#325 = FACE_OUTER_BOUND ( 'NONE', #213, .T. ) ;
#326 = AXIS2_PLACEMENT_3D ( 'NONE', #233, #421, #109 ) ;
#327 = DIRECTION ( 'NONE',  ( 1.000000000000000000, 0.000000000000000000, 0.000000000000000000 ) ) ;
#328 = LINE ( 'NONE', #117, #74 ) ;
#329 = ORIENTED_EDGE ( 'NONE', *, *, #712, .F. ) ;
#330 = CARTESIAN_POINT ( 'NONE',  ( 6.422616289332542472, 12.99999999999999822, 4.000000000000000000 ) ) ;
#331 = CARTESIAN_POINT ( 'NONE',  ( -6.422616289332542472, -12.99999999999999822, 4.000000000000000000 ) ) ;
#332 = ORIENTED_EDGE ( 'NONE', *, *, #624, .T. ) ;
#333 = FACE_BOUND ( 'NONE', #670, .T. ) ;
#334 = ORIENTED_EDGE ( 'NONE', *, *, #137, .F. ) ;
#335 = CARTESIAN_POINT ( 'NONE',  ( 2.250000000000001776, -3.897114317029972685, 29.00000000000000000 ) ) ;
#336 = CIRCLE ( 'NONE', #805, 15.05499999999999972 ) ;
#337 = CARTESIAN_POINT ( 'NONE',  ( 0.000000000000000000, 0.000000000000000000, 25.00000000000000000 ) ) ;
#338 = VERTEX_POINT ( 'NONE', #497 ) ;
#339 = CARTESIAN_POINT ( 'NONE',  ( -10.49000000000000021, 0.000000000000000000, 29.00000000000000000 ) ) ;
#340 = EDGE_CURVE ( 'NONE', #431, #24, #304, .T. ) ;
#341 = PLANE ( 'NONE',  #558 ) ;
#342 = ORIENTED_EDGE ( 'NONE', *, *, #394, .F. ) ;
#343 = EDGE_CURVE ( 'NONE', #348, #844, #168, .T. ) ;
#344 = FACE_OUTER_BOUND ( 'NONE', #69, .T. ) ;
#345 = EDGE_CURVE ( 'NONE', #51, #424, #747, .T. ) ;
#346 = AXIS2_PLACEMENT_3D ( 'NONE', #152, #733, #803 ) ;
#347 = AXIS2_PLACEMENT_3D ( 'NONE', #38, #48, #61 ) ;
#348 = VERTEX_POINT ( 'NONE', #234 ) ;
#349 = FACE_BOUND ( 'NONE', #821, .T. ) ;
#350 = AXIS2_PLACEMENT_3D ( 'NONE', #765, #636, #701 ) ;
#351 = ORIENTED_EDGE ( 'NONE', *, *, #852, .F. ) ;
#352 = LINE ( 'NONE', #614, #361 ) ;
#353 = CIRCLE ( 'NONE', #697, 15.05499999999999972 ) ;
#354 = VERTEX_POINT ( 'NONE', #100 ) ;
#355 = LINE ( 'NONE', #29, #687 ) ;
#356 = CYLINDRICAL_SURFACE ( 'NONE', #675, 2.124999999999999556 ) ;
#357 = ADVANCED_FACE ( 'NONE', ( #760 ), #291, .T. ) ;
#358 = EDGE_CURVE ( 'NONE', #383, #413, #371, .T. ) ;
#359 = ORIENTED_EDGE ( 'NONE', *, *, #21, .F. ) ;
#360 = CYLINDRICAL_SURFACE ( 'NONE', #738, 8.499999999999998224 ) ;
#361 = VECTOR ( 'NONE', #816, 1000.000000000000000 ) ;
#362 = LINE ( 'NONE', #623, #801 ) ;
#363 = ORIENTED_EDGE ( 'NONE', *, *, #773, .T. ) ;
#364 = LINE ( 'NONE', #560, #669 ) ;
#365 = AXIS2_PLACEMENT_3D ( 'NONE', #495, #99, #44 ) ;
#366 = DIRECTION ( 'NONE',  ( -1.000000000000000000, -0.000000000000000000, -0.000000000000000000 ) ) ;
#367 = AXIS2_PLACEMENT_3D ( 'NONE', #725, #458, #134 ) ;
#368 = ORIENTED_EDGE ( 'NONE', *, *, #150, .F. ) ;
#369 = DIRECTION ( 'NONE',  ( -1.000000000000000000, 0.000000000000000000, 0.000000000000000000 ) ) ;
#370 = ADVANCED_FACE ( 'NONE', ( #106 ), #436, .F. ) ;
#371 = LINE ( 'NONE', #430, #205 ) ;
#372 = EDGE_CURVE ( 'NONE', #741, #704, #324, .T. ) ;
#373 = DIRECTION ( 'NONE',  ( -1.000000000000000000, 0.000000000000000000, 0.000000000000000000 ) ) ;
#374 = CARTESIAN_POINT ( 'NONE',  ( 6.422616289332542472, -12.99999999999999822, 4.000000000000000000 ) ) ;
#375 = MECHANICAL_DESIGN_GEOMETRIC_PRESENTATION_REPRESENTATION (  '', ( #157 ), #827 ) ;
#376 = ORIENTED_EDGE ( 'NONE', *, *, #169, .T. ) ;
#377 = FACE_OUTER_BOUND ( 'NONE', #605, .T. ) ;
#378 = VERTEX_POINT ( 'NONE', #230 ) ;
#379 = LINE ( 'NONE', #246, #666 ) ;
#380 = ORIENTED_EDGE ( 'NONE', *, *, #624, .F. ) ;
#381 = CARTESIAN_POINT ( 'NONE',  ( 15.05499999999999972, 1.843705756116340054E-15, 11.00000000000000000 ) ) ;
#382 = CARTESIAN_POINT ( 'NONE',  ( 0.1249999999999992506, 3.897114317029974906, 25.00000000000000000 ) ) ;
#383 = VERTEX_POINT ( 'NONE', #754 ) ;
#384 = FACE_OUTER_BOUND ( 'NONE', #594, .T. ) ;
#385 = EDGE_CURVE ( 'NONE', #806, #338, #362, .T. ) ;
#386 = DIRECTION ( 'NONE',  ( 0.000000000000000000, 0.000000000000000000, 1.000000000000000000 ) ) ;
#387 = ORIENTED_EDGE ( 'NONE', *, *, #103, .T. ) ;
#388 = AXIS2_PLACEMENT_3D ( 'NONE', #121, #438, #648 ) ;
#389 = CYLINDRICAL_SURFACE ( 'NONE', #285, 2.125000000000000000 ) ;
#390 = ORIENTED_EDGE ( 'NONE', *, *, #124, .F. ) ;
#391 = AXIS2_PLACEMENT_3D ( 'NONE', #521, #579, #252 ) ;
#392 = DIRECTION ( 'NONE',  ( 1.000000000000000000, 0.000000000000000000, 0.000000000000000000 ) ) ;
#393 = EDGE_CURVE ( 'NONE', #225, #676, #690, .T. ) ;
#394 = EDGE_CURVE ( 'NONE', #486, #529, #571, .T. ) ;
#395 = ORIENTED_EDGE ( 'NONE', *, *, #345, .T. ) ;
#396 = CARTESIAN_POINT ( 'NONE',  ( 7.751433452642724653, -15.68965517241379182, 0.000000000000000000 ) ) ;
#397 = EDGE_CURVE ( 'NONE', #225, #275, #216, .T. ) ;
#398 = CARTESIAN_POINT ( 'NONE',  ( 2.250000000000001776, -3.897114317029972685, 25.00000000000000000 ) ) ;
#399 = ORIENTED_EDGE ( 'NONE', *, *, #654, .T. ) ;
#400 = FACE_OUTER_BOUND ( 'NONE', #58, .T. ) ;
#401 = CIRCLE ( 'NONE', #31, 2.124999999999999556 ) ;
#402 = DIRECTION ( 'NONE',  ( 0.000000000000000000, 0.000000000000000000, 1.000000000000000000 ) ) ;
#403 = EDGE_LOOP ( 'NONE', ( #786, #210 ) ) ;
#404 = LINE ( 'NONE', #149, #193 ) ;
#405 = DIRECTION ( 'NONE',  ( 1.000000000000000000, 0.000000000000000000, 0.000000000000000000 ) ) ;
#406 = CIRCLE ( 'NONE', #365, 3.000000000000000000 ) ;
#407 = APPLICATION_CONTEXT ( 'automotive_design' ) ;
#408 = EDGE_CURVE ( 'NONE', #758, #297, #288, .T. ) ;
#409 = CARTESIAN_POINT ( 'NONE',  ( -15.05499999999999972, 0.000000000000000000, 11.00000000000000000 ) ) ;
#410 = ORIENTED_EDGE ( 'NONE', *, *, #16, .F. ) ;
#411 = CARTESIAN_POINT ( 'NONE',  ( 0.000000000000000000, 0.000000000000000000, 11.00000000000000000 ) ) ;
#412 = CARTESIAN_POINT ( 'NONE',  ( -7.751433452642724653, 15.68965517241379182, 4.000000000000000000 ) ) ;
#413 = VERTEX_POINT ( 'NONE', #515 ) ;
#414 = CARTESIAN_POINT ( 'NONE',  ( -10.49000000000000021, 0.000000000000000000, 11.00000000000000000 ) ) ;
#415 = AXIS2_PLACEMENT_3D ( 'NONE', #335, #270, #729 ) ;
#416 = AXIS2_PLACEMENT_3D ( 'NONE', #628, #551, #113 ) ;
#417 = EDGE_LOOP ( 'NONE', ( #368, #112, #359, #514, #251, #568, #574, #207, #520 ) ) ;
#418 = LINE ( 'NONE', #677, #798 ) ;
#419 = CARTESIAN_POINT ( 'NONE',  ( 6.422616289332540696, 16.00000000000000000, 0.000000000000000000 ) ) ;
#420 = ORIENTED_EDGE ( 'NONE', *, *, #753, .T. ) ;
#421 = DIRECTION ( 'NONE',  ( 0.000000000000000000, 0.000000000000000000, 1.000000000000000000 ) ) ;
#422 = CARTESIAN_POINT ( 'NONE',  ( 2.249999999999999112, 3.897114317029974462, 25.00000000000000000 ) ) ;
#423 = ADVANCED_FACE ( 'NONE', ( #384 ), #779, .T. ) ;
#424 = VERTEX_POINT ( 'NONE', #451 ) ;
#425 = FACE_OUTER_BOUND ( 'NONE', #39, .T. ) ;
#426 = DIRECTION ( 'NONE',  ( 0.000000000000000000, 1.000000000000000000, 0.000000000000000000 ) ) ;
#427 = PLANE ( 'NONE',  #719 ) ;
#428 = ORIENTED_EDGE ( 'NONE', *, *, #16, .T. ) ;
#429 = DIRECTION ( 'NONE',  ( -0.000000000000000000, -0.000000000000000000, -1.000000000000000000 ) ) ;
#430 = CARTESIAN_POINT ( 'NONE',  ( -6.422616289332542472, -16.00000000000000000, 29.00000000000000000 ) ) ;
#431 = VERTEX_POINT ( 'NONE', #511 ) ;
#432 = CARTESIAN_POINT ( 'NONE',  ( 0.000000000000000000, 0.000000000000000000, 4.000000000000000000 ) ) ;
#433 = FACE_OUTER_BOUND ( 'NONE', #688, .T. ) ;
#434 = CARTESIAN_POINT ( 'NONE',  ( 0.000000000000000000, 0.000000000000000000, 29.00000000000000000 ) ) ;
#435 = DIRECTION ( 'NONE',  ( 0.000000000000000000, 0.000000000000000000, 1.000000000000000000 ) ) ;
#436 = CYLINDRICAL_SURFACE ( 'NONE', #691, 8.499999999999998224 ) ;
#437 = EDGE_CURVE ( 'NONE', #676, #755, #857, .T. ) ;
#438 = DIRECTION ( 'NONE',  ( 0.000000000000000000, 0.000000000000000000, 1.000000000000000000 ) ) ;
#439 = DIRECTION ( 'NONE',  ( 1.000000000000000000, 0.000000000000000000, 0.000000000000000000 ) ) ;
#440 = DIRECTION ( 'NONE',  ( -0.000000000000000000, -0.000000000000000000, -1.000000000000000000 ) ) ;
#441 = ORIENTED_EDGE ( 'NONE', *, *, #393, .T. ) ;
#442 = VECTOR ( 'NONE', #487, 1000.000000000000000 ) ;
#443 = EDGE_CURVE ( 'NONE', #126, #806, #64, .T. ) ;
#444 = LINE ( 'NONE', #716, #182 ) ;
#445 = PLANE ( 'NONE',  #772 ) ;
#446 = ORIENTED_EDGE ( 'NONE', *, *, #244, .F. ) ;
#447 = DIRECTION ( 'NONE',  ( 0.000000000000000000, 0.000000000000000000, 1.000000000000000000 ) ) ;
#448 = AXIS2_PLACEMENT_3D ( 'NONE', #740, #402, #796 ) ;
#449 = ADVANCED_FACE ( 'NONE', ( #588 ), #524, .T. ) ;
#450 = ORIENTED_EDGE ( 'NONE', *, *, #11, .T. ) ;
#451 = CARTESIAN_POINT ( 'NONE',  ( 15.05499999999999972, 1.843705756116340054E-15, 4.000000000000000000 ) ) ;
#452 = VERTEX_POINT ( 'NONE', #396 ) ;
#453 = CYLINDRICAL_SURFACE ( 'NONE', #214, 3.000000000000000000 ) ;
#454 = EDGE_LOOP ( 'NONE', ( #329, #151 ) ) ;
#455 = CARTESIAN_POINT ( 'NONE',  ( 2.249999999999999112, 3.897114317029974462, 25.00000000000000000 ) ) ;
#456 = VECTOR ( 'NONE', #15, 1000.000000000000000 ) ;
#457 = AXIS2_PLACEMENT_3D ( 'NONE', #692, #310, #405 ) ;
#458 = DIRECTION ( 'NONE',  ( 0.000000000000000000, 0.000000000000000000, 1.000000000000000000 ) ) ;
#459 = ORIENTED_EDGE ( 'NONE', *, *, #753, .F. ) ;
#460 = VECTOR ( 'NONE', #119, 1000.000000000000000 ) ;
#461 = DIRECTION ( 'NONE',  ( -0.000000000000000000, -0.000000000000000000, 1.000000000000000000 ) ) ;
#462 = CARTESIAN_POINT ( 'NONE',  ( -15.05499999999999972, 0.000000000000000000, 4.000000000000000000 ) ) ;
#463 = VERTEX_POINT ( 'NONE', #318 ) ;
#464 = DIRECTION ( 'NONE',  ( -0.000000000000000000, -0.000000000000000000, -1.000000000000000000 ) ) ;
#465 = ORIENTED_EDGE ( 'NONE', *, *, #244, .T. ) ;
#466 = DIRECTION ( 'NONE',  ( 1.000000000000000000, 0.000000000000000000, 0.000000000000000000 ) ) ;
#467 = AXIS2_PLACEMENT_3D ( 'NONE', #645, #771, #781 ) ;
#468 = ORIENTED_EDGE ( 'NONE', *, *, #773, .F. ) ;
#469 = FACE_BOUND ( 'NONE', #245, .T. ) ;
#470 = CIRCLE ( 'NONE', #326, 17.49999999999998934 ) ;
#471 = DIRECTION ( 'NONE',  ( 1.000000000000000000, 0.000000000000000000, 0.000000000000000000 ) ) ;
#472 = EDGE_LOOP ( 'NONE', ( #698, #332, #95, #559 ) ) ;
#473 = PLANE ( 'NONE',  #36 ) ;
#474 = ADVANCED_FACE ( 'NONE', ( #845 ), #783, .T. ) ;
#475 = AXIS2_PLACEMENT_3D ( 'NONE', #650, #250, #439 ) ;
#476 = ORIENTED_EDGE ( 'NONE', *, *, #482, .F. ) ;
#477 = LINE ( 'NONE', #530, #46 ) ;
#478 = CIRCLE ( 'NONE', #114, 10.49000000000000021 ) ;
#479 = EDGE_LOOP ( 'NONE', ( #489, #186, #342, #518 ) ) ;
#480 = CARTESIAN_POINT ( 'NONE',  ( 0.000000000000000000, 0.000000000000000000, 4.000000000000000000 ) ) ;
#481 = CARTESIAN_POINT ( 'NONE',  ( -8.499999999999998224, 0.000000000000000000, 4.000000000000000000 ) ) ;
#482 = EDGE_CURVE ( 'NONE', #228, #802, #308, .T. ) ;
#483 = FACE_OUTER_BOUND ( 'NONE', #91, .T. ) ;
#484 = ADVANCED_FACE ( 'NONE', ( #720 ), #850, .T. ) ;
#485 = CIRCLE ( 'NONE', #367, 10.49000000000000021 ) ;
#486 = VERTEX_POINT ( 'NONE', #724 ) ;
#487 = DIRECTION ( 'NONE',  ( 1.000000000000000000, 0.000000000000000000, -0.000000000000000000 ) ) ;
#488 = CARTESIAN_POINT ( 'NONE',  ( 8.499999999999998224, 1.040949779275249943E-15, 25.00000000000000000 ) ) ;
#489 = ORIENTED_EDGE ( 'NONE', *, *, #397, .F. ) ;
#490 = LINE ( 'NONE', #756, #734 ) ;
#491 = CARTESIAN_POINT ( 'NONE',  ( 6.422616289332542472, -12.99999999999999822, 4.000000000000000000 ) ) ;
#492 = EDGE_CURVE ( 'NONE', #323, #797, #632, .T. ) ;
#493 = AXIS2_PLACEMENT_3D ( 'NONE', #223, #208, #466 ) ;
#494 = ORIENTED_EDGE ( 'NONE', *, *, #526, .T. ) ;
#495 = CARTESIAN_POINT ( 'NONE',  ( -6.422616289332542472, -12.99999999999999822, 0.000000000000000000 ) ) ;
#496 = AXIS2_PLACEMENT_3D ( 'NONE', #281, #32, #556 ) ;
#497 = CARTESIAN_POINT ( 'NONE',  ( 0.1249999999999992506, 3.897114317029974906, 29.00000000000000000 ) ) ;
#498 = MANIFOLD_SOLID_BREP ( '\X2\52079664\X0\-\X2\62c94f38\X0\2', #743 ) ;
#499 = DIRECTION ( 'NONE',  ( 1.000000000000000000, 0.000000000000000000, 0.000000000000000000 ) ) ;
#500 = CARTESIAN_POINT ( 'NONE',  ( -8.499999999999998224, 0.000000000000000000, 25.00000000000000000 ) ) ;
#501 = ORIENTED_EDGE ( 'NONE', *, *, #343, .T. ) ;
#502 = DIRECTION ( 'NONE',  ( -0.000000000000000000, -0.000000000000000000, -1.000000000000000000 ) ) ;
#503 = ADVANCED_FACE ( 'NONE', ( #653 ), #647, .F. ) ;
#504 = ORIENTED_EDGE ( 'NONE', *, *, #707, .F. ) ;
#505 = CARTESIAN_POINT ( 'NONE',  ( 0.000000000000000000, 0.000000000000000000, 4.000000000000000000 ) ) ;
#506 = CIRCLE ( 'NONE', #615, 17.49999999999998934 ) ;
#507 = ORIENTED_EDGE ( 'NONE', *, *, #385, .T. ) ;
#508 = CARTESIAN_POINT ( 'NONE',  ( -6.422616289332542472, 16.00000000000000000, 29.00000000000000000 ) ) ;
#509 = ORIENTED_EDGE ( 'NONE', *, *, #547, .T. ) ;
#510 = VERTEX_POINT ( 'NONE', #63 ) ;
#511 = CARTESIAN_POINT ( 'NONE',  ( -2.374999999999999556, 0.000000000000000000, 29.00000000000000000 ) ) ;
#512 = DIRECTION ( 'NONE',  ( -0.000000000000000000, -0.000000000000000000, -1.000000000000000000 ) ) ;
#513 = CARTESIAN_POINT ( 'NONE',  ( 2.250000000000001776, -3.897114317029972685, 25.00000000000000000 ) ) ;
#514 = ORIENTED_EDGE ( 'NONE', *, *, #665, .T. ) ;
#515 = CARTESIAN_POINT ( 'NONE',  ( -6.422616289332540696, -16.00000000000000000, 0.000000000000000000 ) ) ;
#516 = AXIS2_PLACEMENT_3D ( 'NONE', #273, #23, #791 ) ;
#517 = CIRCLE ( 'NONE', #88, 17.49999999999998934 ) ;
#518 = ORIENTED_EDGE ( 'NONE', *, *, #682, .F. ) ;
#519 = DIRECTION ( 'NONE',  ( 0.000000000000000000, 0.000000000000000000, 1.000000000000000000 ) ) ;
#520 = ORIENTED_EDGE ( 'NONE', *, *, #397, .T. ) ;
#521 = CARTESIAN_POINT ( 'NONE',  ( 0.000000000000000000, 0.000000000000000000, 4.000000000000000000 ) ) ;
#522 = ADVANCED_FACE ( 'NONE', ( #325, #264 ), #807, .T. ) ;
#523 = ORIENTED_EDGE ( 'NONE', *, *, #9, .T. ) ;
#524 = CYLINDRICAL_SURFACE ( 'NONE', #280, 17.49999999999998934 ) ;
#525 = AXIS2_PLACEMENT_3D ( 'NONE', #258, #447, #197 ) ;
#526 = EDGE_CURVE ( 'NONE', #704, #452, #211, .T. ) ;
#527 = EDGE_CURVE ( 'NONE', #463, #676, #746, .T. ) ;
#528 = DIRECTION ( 'NONE',  ( 1.000000000000000000, 0.000000000000000000, 0.000000000000000000 ) ) ;
#529 = VERTEX_POINT ( 'NONE', #598 ) ;
#530 = CARTESIAN_POINT ( 'NONE',  ( 8.990000000000001990, -5.405552700695830382, 0.08533097157774685582 ) ) ;
#531 = DIRECTION ( 'NONE',  ( 1.000000000000000000, 0.000000000000000000, 0.000000000000000000 ) ) ;
#532 = ORIENTED_EDGE ( 'NONE', *, *, #492, .F. ) ;
#533 = DIRECTION ( 'NONE',  ( 1.000000000000000000, 0.000000000000000000, 0.000000000000000000 ) ) ;
#534 = ORIENTED_EDGE ( 'NONE', *, *, #150, .T. ) ;
#535 = DIRECTION ( 'NONE',  ( 0.000000000000000000, 0.000000000000000000, 1.000000000000000000 ) ) ;
#536 = EDGE_CURVE ( 'NONE', #626, #348, #478, .T. ) ;
#537 = ORIENTED_EDGE ( 'NONE', *, *, #343, .F. ) ;
#538 = CARTESIAN_POINT ( 'NONE',  ( 0.000000000000000000, 0.000000000000000000, 0.000000000000000000 ) ) ;
#539 = AXIS2_PLACEMENT_3D ( 'NONE', #455, #204, #392 ) ;
#540 = CARTESIAN_POINT ( 'NONE',  ( 0.000000000000000000, 0.000000000000000000, 0.000000000000000000 ) ) ;
#541 = FACE_BOUND ( 'NONE', #53, .T. ) ;
#542 = EDGE_CURVE ( 'NONE', #755, #219, #202, .T. ) ;
#543 = ORIENTED_EDGE ( 'NONE', *, *, #828, .T. ) ;
#544 = CARTESIAN_POINT ( 'NONE',  ( 7.751433452642724653, -15.68965517241379182, 4.000000000000000000 ) ) ;
#545 = DIRECTION ( 'NONE',  ( 1.000000000000000000, 0.000000000000000000, 0.000000000000000000 ) ) ;
#546 = EDGE_CURVE ( 'NONE', #297, #354, #85, .T. ) ;
#547 = EDGE_CURVE ( 'NONE', #118, #802, #784, .T. ) ;
#548 = DIRECTION ( 'NONE',  ( -0.000000000000000000, -0.000000000000000000, -1.000000000000000000 ) ) ;
#549 = ORIENTED_EDGE ( 'NONE', *, *, #21, .T. ) ;
#550 = DIRECTION ( 'NONE',  ( 0.000000000000000000, 0.000000000000000000, 1.000000000000000000 ) ) ;
#551 = DIRECTION ( 'NONE',  ( 0.000000000000000000, 0.000000000000000000, 1.000000000000000000 ) ) ;
#552 = AXIS2_PLACEMENT_3D ( 'NONE', #513, #435, #859 ) ;
#553 = ORIENTED_EDGE ( 'NONE', *, *, #739, .F. ) ;
#554 = LINE ( 'NONE', #229, #442 ) ;
#555 = CARTESIAN_POINT ( 'NONE',  ( -7.751433452642724653, -15.68965517241379182, 4.000000000000000000 ) ) ;
#556 = DIRECTION ( 'NONE',  ( 1.000000000000000000, 0.000000000000000000, 0.000000000000000000 ) ) ;
#557 = AXIS2_PLACEMENT_3D ( 'NONE', #283, #742, #220 ) ;
#558 = AXIS2_PLACEMENT_3D ( 'NONE', #656, #735, #596 ) ;
#559 = ORIENTED_EDGE ( 'NONE', *, *, #804, .F. ) ;
#560 = CARTESIAN_POINT ( 'NONE',  ( 8.990000000000001990, 5.405552700695830382, 0.08533097157774685582 ) ) ;
#561 = EDGE_CURVE ( 'NONE', #348, #378, #477, .T. ) ;
#562 = CYLINDRICAL_SURFACE ( 'NONE', #787, 2.124999999999999556 ) ;
#563 = EDGE_CURVE ( 'NONE', #806, #126, #90, .T. ) ;
#564 = EDGE_LOOP ( 'NONE', ( #597, #814 ) ) ;
#565 = DIRECTION ( 'NONE',  ( -1.000000000000000000, 0.000000000000000000, 0.000000000000000000 ) ) ;
#566 = DIRECTION ( 'NONE',  ( 0.000000000000000000, 0.000000000000000000, 1.000000000000000000 ) ) ;
#567 = AXIS2_PLACEMENT_3D ( 'NONE', #641, #52, #769 ) ;
#568 = ORIENTED_EDGE ( 'NONE', *, *, #103, .F. ) ;
#569 = DIRECTION ( 'NONE',  ( -0.000000000000000000, -0.000000000000000000, -1.000000000000000000 ) ) ;
#570 = DIRECTION ( 'NONE',  ( 0.000000000000000000, 0.000000000000000000, 1.000000000000000000 ) ) ;
#571 = CIRCLE ( 'NONE', #761, 3.000000000000000000 ) ;
#572 = ORIENTED_EDGE ( 'NONE', *, *, #700, .T. ) ;
#573 = DIRECTION ( 'NONE',  ( 0.000000000000000000, 0.000000000000000000, 1.000000000000000000 ) ) ;
#574 = ORIENTED_EDGE ( 'NONE', *, *, #527, .T. ) ;
#575 =( NAMED_UNIT ( * ) SI_UNIT ( $, .STERADIAN. ) SOLID_ANGLE_UNIT ( ) );
#576 = CARTESIAN_POINT ( 'NONE',  ( -7.751433452642724653, -15.68965517241379182, 4.000000000000000000 ) ) ;
#577 = DIRECTION ( 'NONE',  ( 1.000000000000000000, 0.000000000000000000, -0.000000000000000000 ) ) ;
#578 = ORIENTED_EDGE ( 'NONE', *, *, #828, .F. ) ;
#579 = DIRECTION ( 'NONE',  ( -0.000000000000000000, -0.000000000000000000, -1.000000000000000000 ) ) ;
#580 = ADVANCED_FACE ( 'NONE', ( #745, #333 ), #7, .T. ) ;
#581 = CARTESIAN_POINT ( 'NONE',  ( 0.000000000000000000, 0.000000000000000000, 11.00000000000000000 ) ) ;
#582 = VERTEX_POINT ( 'NONE', #339 ) ;
#583 = SURFACE_STYLE_FILL_AREA ( #709 ) ;
#584 = CIRCLE ( 'NONE', #143, 8.499999999999998224 ) ;
#585 = CARTESIAN_POINT ( 'NONE',  ( -6.625000000000000000, 2.602374448188125350E-16, 29.00000000000000000 ) ) ;
#586 =( LENGTH_UNIT ( ) NAMED_UNIT ( * ) SI_UNIT ( .MILLI., .METRE. ) );
#587 = ORIENTED_EDGE ( 'NONE', *, *, #852, .T. ) ;
#588 = FACE_OUTER_BOUND ( 'NONE', #782, .T. ) ;
#589 = AXIS2_PLACEMENT_3D ( 'NONE', #603, #276, #70 ) ;
#590 = EDGE_CURVE ( 'NONE', #452, #196, #76, .T. ) ;
#591 = CARTESIAN_POINT ( 'NONE',  ( 0.000000000000000000, 0.000000000000000000, 0.000000000000000000 ) ) ;
#592 = CARTESIAN_POINT ( 'NONE',  ( 0.000000000000000000, 0.000000000000000000, 0.000000000000000000 ) ) ;
#593 = FACE_OUTER_BOUND ( 'NONE', #129, .T. ) ;
#594 = EDGE_LOOP ( 'NONE', ( #578, #683, #163, #235 ) ) ;
#595 = DIRECTION ( 'NONE',  ( 1.000000000000000000, 3.469446951953614189E-15, 0.000000000000000000 ) ) ;
#596 = DIRECTION ( 'NONE',  ( 0.000000000000000000, -0.000000000000000000, -1.000000000000000000 ) ) ;
#597 = ORIENTED_EDGE ( 'NONE', *, *, #546, .T. ) ;
#598 = CARTESIAN_POINT ( 'NONE',  ( 6.422616289332542472, 16.00000000000000000, 4.000000000000000000 ) ) ;
#599 = CIRCLE ( 'NONE', #855, 3.000000000000000000 ) ;
#600 = ADVANCED_FACE ( 'NONE', ( #400, #795, #469, #349 ), #473, .T. ) ;
#601 = EDGE_CURVE ( 'NONE', #354, #297, #259, .T. ) ;
#602 = ORIENTED_EDGE ( 'NONE', *, *, #14, .F. ) ;
#603 = CARTESIAN_POINT ( 'NONE',  ( 2.249999999999999112, 3.897114317029974462, 25.00000000000000000 ) ) ;
#604 = CARTESIAN_POINT ( 'NONE',  ( -4.500000000000000000, 0.000000000000000000, 25.00000000000000000 ) ) ;
#605 = EDGE_LOOP ( 'NONE', ( #726, #507, #587, #321 ) ) ;
#606 = DIRECTION ( 'NONE',  ( -1.000000000000000000, 0.000000000000000000, 0.000000000000000000 ) ) ;
#607 = COLOUR_RGB ( '',0.7921568627450980005, 0.8196078431372548767, 0.9333333333333333481 ) ;
#608 = CARTESIAN_POINT ( 'NONE',  ( 0.1250000000000018319, -3.897114317029972241, 25.00000000000000000 ) ) ;
#609 = CIRCLE ( 'NONE', #268, 17.49999999999998934 ) ;
#610 = DIRECTION ( 'NONE',  ( 0.000000000000000000, 0.000000000000000000, 1.000000000000000000 ) ) ;
#611 = ORIENTED_EDGE ( 'NONE', *, *, #358, .T. ) ;
#612 = VECTOR ( 'NONE', #165, 1000.000000000000000 ) ;
#613 = EDGE_LOOP ( 'NONE', ( #334, #22, #672, #247 ) ) ;
#614 = CARTESIAN_POINT ( 'NONE',  ( -2.374999999999999556, 0.000000000000000000, 25.00000000000000000 ) ) ;
#615 = AXIS2_PLACEMENT_3D ( 'NONE', #591, #217, #528 ) ;
#616 = ORIENTED_EDGE ( 'NONE', *, *, #50, .F. ) ;
#617 = CARTESIAN_POINT ( 'NONE',  ( 0.000000000000000000, 0.000000000000000000, 11.00000000000000000 ) ) ;
#618 = DIRECTION ( 'NONE',  ( 0.000000000000000000, 0.000000000000000000, 1.000000000000000000 ) ) ;
#619 = DIRECTION ( 'NONE',  ( 0.000000000000000000, -0.000000000000000000, 1.000000000000000000 ) ) ;
#620 = VECTOR ( 'NONE', #175, 1000.000000000000000 ) ;
#621 = ORIENTED_EDGE ( 'NONE', *, *, #762, .T. ) ;
#622 = DIRECTION ( 'NONE',  ( 0.000000000000000000, 0.000000000000000000, 1.000000000000000000 ) ) ;
#623 = CARTESIAN_POINT ( 'NONE',  ( 0.1249999999999992506, 3.897114317029974906, 25.00000000000000000 ) ) ;
#624 = EDGE_CURVE ( 'NONE', #28, #424, #404, .T. ) ;
#625 = AXIS2_PLACEMENT_3D ( 'NONE', #78, #464, #533 ) ;
#626 = VERTEX_POINT ( 'NONE', #414 ) ;
#627 = CARTESIAN_POINT ( 'NONE',  ( 4.374999999999999112, 3.897114317029974462, 25.00000000000000000 ) ) ;
#628 = CARTESIAN_POINT ( 'NONE',  ( -4.500000000000000000, 0.000000000000000000, 29.00000000000000000 ) ) ;
#629 = ORIENTED_EDGE ( 'NONE', *, *, #492, .T. ) ;
#630 = DIRECTION ( 'NONE',  ( 0.000000000000000000, 0.000000000000000000, 1.000000000000000000 ) ) ;
#631 = CARTESIAN_POINT ( 'NONE',  ( 0.000000000000000000, 16.00000000000000000, 0.000000000000000000 ) ) ;
#632 = CIRCLE ( 'NONE', #525, 2.125000000000000000 ) ;
#633 = CARTESIAN_POINT ( 'NONE',  ( -6.422616289332542472, -12.99999999999999822, 4.000000000000000000 ) ) ;
#634 = VECTOR ( 'NONE', #618, 1000.000000000000000 ) ;
#635 = ORIENTED_EDGE ( 'NONE', *, *, #437, .T. ) ;
#636 = DIRECTION ( 'NONE',  ( -0.000000000000000000, -0.000000000000000000, -1.000000000000000000 ) ) ;
#637 = ORIENTED_EDGE ( 'NONE', *, *, #561, .T. ) ;
#638 = FACE_OUTER_BOUND ( 'NONE', #652, .T. ) ;
#639 = ORIENTED_EDGE ( 'NONE', *, *, #799, .F. ) ;
#640 = ADVANCED_FACE ( 'NONE', ( #344 ), #664, .T. ) ;
#641 = CARTESIAN_POINT ( 'NONE',  ( 0.000000000000000000, 0.000000000000000000, 11.00000000000000000 ) ) ;
#642 = CARTESIAN_POINT ( 'NONE',  ( -17.49999999999998934, 0.000000000000000000, 0.000000000000000000 ) ) ;
#643 = PRODUCT ( '\X2\592787ba6813\X0\A', '\X2\592787ba6813\X0\A', '', ( #843 ) ) ;
#644 = FACE_OUTER_BOUND ( 'NONE', #286, .T. ) ;
#645 = CARTESIAN_POINT ( 'NONE',  ( -4.500000000000000000, 0.000000000000000000, 25.00000000000000000 ) ) ;
#646 = ORIENTED_EDGE ( 'NONE', *, *, #712, .T. ) ;
#647 = PLANE ( 'NONE',  #715 ) ;
#648 = DIRECTION ( 'NONE',  ( 1.000000000000000000, 0.000000000000000000, 0.000000000000000000 ) ) ;
#649 = EDGE_CURVE ( 'NONE', #802, #118, #107, .T. ) ;
#650 = CARTESIAN_POINT ( 'NONE',  ( 2.250000000000001776, -3.897114317029972685, 25.00000000000000000 ) ) ;
#651 = DIRECTION ( 'NONE',  ( 1.000000000000000000, 0.000000000000000000, 0.000000000000000000 ) ) ;
#652 = EDGE_LOOP ( 'NONE', ( #139, #200, #282, #98 ) ) ;
#653 = FACE_OUTER_BOUND ( 'NONE', #136, .T. ) ;
#654 = EDGE_CURVE ( 'NONE', #844, #510, #364, .T. ) ;
#655 = VECTOR ( 'NONE', #461, 1000.000000000000000 ) ;
#656 = CARTESIAN_POINT ( 'NONE',  ( 0.000000000000000000, 16.00000000000000000, 29.00000000000000000 ) ) ;
#657 = FILL_AREA_STYLE_COLOUR ( '', #607 ) ;
#658 = APPLICATION_CONTEXT ( 'automotive_design' ) ;
#659 = ORIENTED_EDGE ( 'NONE', *, *, #561, .F. ) ;
#660 = AXIS2_PLACEMENT_3D ( 'NONE', #141, #548, #156 ) ;
#661 = DIRECTION ( 'NONE',  ( 1.000000000000000000, 0.000000000000000000, 0.000000000000000000 ) ) ;
#662 = CYLINDRICAL_SURFACE ( 'NONE', #138, 2.125000000000000000 ) ;
#663 = ORIENTED_EDGE ( 'NONE', *, *, #546, .F. ) ;
#664 = CYLINDRICAL_SURFACE ( 'NONE', #218, 15.05499999999999972 ) ;
#665 = EDGE_CURVE ( 'NONE', #413, #60, #406, .T. ) ;
#666 = VECTOR ( 'NONE', #185, 1000.000000000000000 ) ;
#667 = VERTEX_POINT ( 'NONE', #759 ) ;
#668 = DIRECTION ( 'NONE',  ( -0.000000000000000000, -0.000000000000000000, -1.000000000000000000 ) ) ;
#669 = VECTOR ( 'NONE', #822, 1000.000000000000000 ) ;
#670 = EDGE_LOOP ( 'NONE', ( #711, #390 ) ) ;
#671 = CARTESIAN_POINT ( 'NONE',  ( 2.250000000000001776, -3.897114317029972685, 29.00000000000000000 ) ) ;
#672 = ORIENTED_EDGE ( 'NONE', *, *, #408, .T. ) ;
#673 = EDGE_CURVE ( 'NONE', #126, #780, #287, .T. ) ;
#674 = DIRECTION ( 'NONE',  ( -0.000000000000000000, -0.000000000000000000, -1.000000000000000000 ) ) ;
#675 = AXIS2_PLACEMENT_3D ( 'NONE', #422, #173, #45 ) ;
#676 = VERTEX_POINT ( 'NONE', #298 ) ;
#677 = CARTESIAN_POINT ( 'NONE',  ( 6.422616289332542472, 16.00000000000000000, 29.00000000000000000 ) ) ;
#678 = CARTESIAN_POINT ( 'NONE',  ( 0.000000000000000000, 0.000000000000000000, 0.000000000000000000 ) ) ;
#679 = EDGE_LOOP ( 'NONE', ( #616, #261, #278, #637 ) ) ;
#680 = DIRECTION ( 'NONE',  ( 1.000000000000000000, 0.000000000000000000, 0.000000000000000000 ) ) ;
#681 = DIRECTION ( 'NONE',  ( 0.000000000000000000, 0.000000000000000000, 1.000000000000000000 ) ) ;
#682 = EDGE_CURVE ( 'NONE', #275, #486, #810, .T. ) ;
#683 = ORIENTED_EDGE ( 'NONE', *, *, #730, .T. ) ;
#684 = DIRECTION ( 'NONE',  ( -0.000000000000000000, -0.000000000000000000, -1.000000000000000000 ) ) ;
#685 = DIRECTION ( 'NONE',  ( 1.000000000000000000, 0.000000000000000000, 0.000000000000000000 ) ) ;
#686 = ADVANCED_FACE ( 'NONE', ( #425 ), #360, .F. ) ;
#687 = VECTOR ( 'NONE', #565, 1000.000000000000000 ) ;
#688 = EDGE_LOOP ( 'NONE', ( #289, #723, #222, #104 ) ) ;
#689 = CARTESIAN_POINT ( 'NONE',  ( 0.000000000000000000, 0.000000000000000000, 25.00000000000000000 ) ) ;
#690 = LINE ( 'NONE', #631, #133 ) ;
#691 = AXIS2_PLACEMENT_3D ( 'NONE', #817, #502, #227 ) ;
#692 = CARTESIAN_POINT ( 'NONE',  ( -4.500000000000000000, 0.000000000000000000, 25.00000000000000000 ) ) ;
#693 = VECTOR ( 'NONE', #550, 1000.000000000000000 ) ;
#694 = EDGE_LOOP ( 'NONE', ( #832, #203, #768, #553 ) ) ;
#695 = CARTESIAN_POINT ( 'NONE',  ( -10.49000000000000021, 0.000000000000000000, 29.00000000000000000 ) ) ;
#696 = LINE ( 'NONE', #555, #634 ) ;
#697 = AXIS2_PLACEMENT_3D ( 'NONE', #240, #853, #499 ) ;
#698 = ORIENTED_EDGE ( 'NONE', *, *, #27, .F. ) ;
#699 = FACE_BOUND ( 'NONE', #564, .T. ) ;
#700 = EDGE_CURVE ( 'NONE', #704, #486, #470, .T. ) ;
#701 = DIRECTION ( 'NONE',  ( 1.000000000000000000, -2.891205793294678622E-15, 0.000000000000000000 ) ) ;
#702 = EDGE_LOOP ( 'NONE', ( #174, #450 ) ) ;
#703 = CYLINDRICAL_SURFACE ( 'NONE', #552, 2.125000000000000000 ) ;
#704 = VERTEX_POINT ( 'NONE', #164 ) ;
#705 = DIRECTION ( 'NONE',  ( -1.000000000000000000, 0.000000000000000000, -0.000000000000000000 ) ) ;
#706 = DIRECTION ( 'NONE',  ( 1.000000000000000000, 0.000000000000000000, -0.000000000000000000 ) ) ;
#707 = EDGE_CURVE ( 'NONE', #82, #28, #336, .T. ) ;
#708 = EDGE_LOOP ( 'NONE', ( #476, #713, #131, #509 ) ) ;
#709 = FILL_AREA_STYLE ('',( #657 ) ) ;
#710 = ADVANCED_FACE ( 'NONE', ( #40 ), #825, .T. ) ;
#711 = ORIENTED_EDGE ( 'NONE', *, *, #345, .F. ) ;
#712 = EDGE_CURVE ( 'NONE', #758, #311, #584, .T. ) ;
#713 = ORIENTED_EDGE ( 'NONE', *, *, #56, .F. ) ;
#714 = EDGE_CURVE ( 'NONE', #582, #626, #294, .T. ) ;
#715 = AXIS2_PLACEMENT_3D ( 'NONE', #841, #705, #55 ) ;
#716 = CARTESIAN_POINT ( 'NONE',  ( 0.000000000000000000, -16.00000000000000000, 0.000000000000000000 ) ) ;
#717 = DIRECTION ( 'NONE',  ( 1.000000000000000000, 0.000000000000000000, 0.000000000000000000 ) ) ;
#718 = ORIENTED_EDGE ( 'NONE', *, *, #137, .T. ) ;
#719 = AXIS2_PLACEMENT_3D ( 'NONE', #20, #292, #619 ) ;
#720 = FACE_OUTER_BOUND ( 'NONE', #472, .T. ) ;
#721 = EDGE_CURVE ( 'NONE', #196, #741, #96, .T. ) ;
#722 = AXIS2_PLACEMENT_3D ( 'NONE', #491, #566, #757 ) ;
#723 = ORIENTED_EDGE ( 'NONE', *, *, #443, .F. ) ;
#724 = CARTESIAN_POINT ( 'NONE',  ( 7.751433452642724653, 15.68965517241379182, 4.000000000000000000 ) ) ;
#725 = CARTESIAN_POINT ( 'NONE',  ( 0.000000000000000000, 0.000000000000000000, 29.00000000000000000 ) ) ;
#726 = ORIENTED_EDGE ( 'NONE', *, *, #563, .F. ) ;
#727 = AXIS2_PLACEMENT_3D ( 'NONE', #581, #386, #777 ) ;
#728 = CIRCLE ( 'NONE', #183, 15.05499999999999972 ) ;
#729 = DIRECTION ( 'NONE',  ( 1.000000000000000000, 0.000000000000000000, 0.000000000000000000 ) ) ;
#730 = EDGE_CURVE ( 'NONE', #667, #194, #490, .T. ) ;
#731 = CARTESIAN_POINT ( 'NONE',  ( 0.000000000000000000, 0.000000000000000000, 4.000000000000000000 ) ) ;
#732 = ORIENTED_EDGE ( 'NONE', *, *, #804, .T. ) ;
#733 = DIRECTION ( 'NONE',  ( 0.000000000000000000, 0.000000000000000000, 1.000000000000000000 ) ) ;
#734 = VECTOR ( 'NONE', #236, 1000.000000000000000 ) ;
#735 = DIRECTION ( 'NONE',  ( 0.000000000000000000, -1.000000000000000000, 0.000000000000000000 ) ) ;
#736 = ORIENTED_EDGE ( 'NONE', *, *, #394, .T. ) ;
#737 = DIRECTION ( 'NONE',  ( 1.000000000000000000, 0.000000000000000000, -0.000000000000000000 ) ) ;
#738 = AXIS2_PLACEMENT_3D ( 'NONE', #480, #684, #749 ) ;
#739 = EDGE_CURVE ( 'NONE', #219, #463, #105, .T. ) ;
#740 = CARTESIAN_POINT ( 'NONE',  ( 2.250000000000001776, -3.897114317029972685, 25.00000000000000000 ) ) ;
#741 = VERTEX_POINT ( 'NONE', #752 ) ;
#742 = DIRECTION ( 'NONE',  ( 0.000000000000000000, 0.000000000000000000, 1.000000000000000000 ) ) ;
#743 = CLOSED_SHELL ( 'NONE', ( #120, #262, #212, #484, #357, #423, #686, #370, #580, #710, #849, #449, #600, #37, #153, #81, #819, #42, #135, #474, #522, #640, #161, #93, #256, #831, #503 ) ) ;
#744 = ORIENTED_EDGE ( 'NONE', *, *, #563, .T. ) ;
#745 = FACE_OUTER_BOUND ( 'NONE', #3, .T. ) ;
#746 = CIRCLE ( 'NONE', #1, 3.000000000000000000 ) ;
#747 = CIRCLE ( 'NONE', #277, 15.05499999999999972 ) ;
#748 = ORIENTED_EDGE ( 'NONE', *, *, #730, .F. ) ;
#749 = DIRECTION ( 'NONE',  ( -1.000000000000000000, 0.000000000000000000, 0.000000000000000000 ) ) ;
#750 = DIRECTION ( 'NONE',  ( -1.000000000000000000, 0.000000000000000000, 0.000000000000000000 ) ) ;
#751 = ORIENTED_EDGE ( 'NONE', *, *, #721, .T. ) ;
#752 = CARTESIAN_POINT ( 'NONE',  ( 6.422616289332542472, -16.00000000000000000, 4.000000000000000000 ) ) ;
#753 = EDGE_CURVE ( 'NONE', #741, #383, #355, .T. ) ;
#754 = CARTESIAN_POINT ( 'NONE',  ( -6.422616289332542472, -16.00000000000000000, 4.000000000000000000 ) ) ;
#755 = VERTEX_POINT ( 'NONE', #241 ) ;
#756 = CARTESIAN_POINT ( 'NONE',  ( -17.49999999999998934, 0.000000000000000000, 4.000000000000000000 ) ) ;
#757 = DIRECTION ( 'NONE',  ( 1.000000000000000000, 0.000000000000000000, 0.000000000000000000 ) ) ;
#758 = VERTEX_POINT ( 'NONE', #500 ) ;
#759 = CARTESIAN_POINT ( 'NONE',  ( -17.49999999999998934, 0.000000000000000000, 4.000000000000000000 ) ) ;
#760 = FACE_OUTER_BOUND ( 'NONE', #679, .T. ) ;
#761 = AXIS2_PLACEMENT_3D ( 'NONE', #41, #299, #826 ) ;
#762 = EDGE_CURVE ( 'NONE', #529, #225, #418, .T. ) ;
#763 = CARTESIAN_POINT ( 'NONE',  ( 4.375000000000001776, -3.897114317029972685, 25.00000000000000000 ) ) ;
#764 = CARTESIAN_POINT ( 'NONE',  ( 6.422616289332542472, -16.00000000000000000, 29.00000000000000000 ) ) ;
#765 = CARTESIAN_POINT ( 'NONE',  ( 6.422616289332542472, 12.99999999999999822, 0.000000000000000000 ) ) ;
#766 = CIRCLE ( 'NONE', #727, 10.49000000000000021 ) ;
#767 = ORIENTED_EDGE ( 'NONE', *, *, #815, .T. ) ;
#768 = ORIENTED_EDGE ( 'NONE', *, *, #527, .F. ) ;
#769 = DIRECTION ( 'NONE',  ( -1.000000000000000000, 0.000000000000000000, 0.000000000000000000 ) ) ;
#770 = EDGE_LOOP ( 'NONE', ( #17, #428, #376, #468 ) ) ;
#771 = DIRECTION ( 'NONE',  ( 0.000000000000000000, 0.000000000000000000, 1.000000000000000000 ) ) ;
#772 = AXIS2_PLACEMENT_3D ( 'NONE', #592, #573, #577 ) ;
#773 = EDGE_CURVE ( 'NONE', #323, #431, #352, .T. ) ;
#774 = ORIENTED_EDGE ( 'NONE', *, *, #542, .T. ) ;
#775 = CARTESIAN_POINT ( 'NONE',  ( 0.000000000000000000, 0.000000000000000000, 4.000000000000000000 ) ) ;
#776 = AXIS2_PLACEMENT_3D ( 'NONE', #671, #18, #661 ) ;
#777 = DIRECTION ( 'NONE',  ( 1.000000000000000000, 0.000000000000000000, 0.000000000000000000 ) ) ;
#778 =( NAMED_UNIT ( * ) SI_UNIT ( $, .STERADIAN. ) SOLID_ANGLE_UNIT ( ) );
#779 = CYLINDRICAL_SURFACE ( 'NONE', #391, 17.49999999999998934 ) ;
#780 = VERTEX_POINT ( 'NONE', #25 ) ;
#781 = DIRECTION ( 'NONE',  ( 1.000000000000000000, 0.000000000000000000, 0.000000000000000000 ) ) ;
#782 = EDGE_LOOP ( 'NONE', ( #794, #494, #534, #158 ) ) ;
#783 = CYLINDRICAL_SURFACE ( 'NONE', #835, 3.000000000000000000 ) ;
#784 = CIRCLE ( 'NONE', #415, 2.125000000000000000 ) ;
#785 = DIRECTION ( 'NONE',  ( 0.000000000000000000, 0.000000000000000000, 1.000000000000000000 ) ) ;
#786 = ORIENTED_EDGE ( 'NONE', *, *, #547, .F. ) ;
#787 = AXIS2_PLACEMENT_3D ( 'NONE', #181, #681, #685 ) ;
#788 = PRESENTATION_STYLE_ASSIGNMENT (( #201 ) ) ;
#789 = CARTESIAN_POINT ( 'NONE',  ( 4.375000000000001776, -3.897114317029972685, 29.00000000000000000 ) ) ;
#790 = ORIENTED_EDGE ( 'NONE', *, *, #155, .F. ) ;
#791 = DIRECTION ( 'NONE',  ( 1.000000000000000000, 0.000000000000000000, -0.000000000000000000 ) ) ;
#792 = AXIS2_PLACEMENT_3D ( 'NONE', #317, #519, #717 ) ;
#793 = FACE_OUTER_BOUND ( 'NONE', #694, .T. ) ;
#794 = ORIENTED_EDGE ( 'NONE', *, *, #700, .F. ) ;
#795 = FACE_BOUND ( 'NONE', #403, .T. ) ;
#796 = DIRECTION ( 'NONE',  ( 1.000000000000000000, 0.000000000000000000, 0.000000000000000000 ) ) ;
#797 = VERTEX_POINT ( 'NONE', #290 ) ;
#798 = VECTOR ( 'NONE', #92, 1000.000000000000000 ) ;
#799 = EDGE_CURVE ( 'NONE', #755, #529, #554, .T. ) ;
#800 = FACE_OUTER_BOUND ( 'NONE', #191, .T. ) ;
#801 = VECTOR ( 'NONE', #238, 1000.000000000000000 ) ;
#802 = VERTEX_POINT ( 'NONE', #167 ) ;
#803 = DIRECTION ( 'NONE',  ( 1.000000000000000000, 0.000000000000000000, -0.000000000000000000 ) ) ;
#804 = EDGE_CURVE ( 'NONE', #82, #51, #379, .T. ) ;
#805 = AXIS2_PLACEMENT_3D ( 'NONE', #617, #630, #680 ) ;
#806 = VERTEX_POINT ( 'NONE', #382 ) ;
#807 = PLANE ( 'NONE',  #346 ) ;
#808 = CARTESIAN_POINT ( 'NONE',  ( 8.499999999999998224, 1.040949779275249943E-15, 4.000000000000000000 ) ) ;
#809 = ORIENTED_EDGE ( 'NONE', *, *, #707, .T. ) ;
#810 = LINE ( 'NONE', #226, #693 ) ;
#811 = DIRECTION ( 'NONE',  ( 1.000000000000000000, 0.000000000000000000, 0.000000000000000000 ) ) ;
#812 = AXIS2_PLACEMENT_3D ( 'NONE', #432, #569, #369 ) ;
#813 = DIRECTION ( 'NONE',  ( 1.000000000000000000, 0.000000000000000000, 0.000000000000000000 ) ) ;
#814 = ORIENTED_EDGE ( 'NONE', *, *, #601, .T. ) ;
#815 = EDGE_CURVE ( 'NONE', #797, #323, #848, .T. ) ;
#816 = DIRECTION ( 'NONE',  ( 0.000000000000000000, 0.000000000000000000, 1.000000000000000000 ) ) ;
#817 = CARTESIAN_POINT ( 'NONE',  ( 0.000000000000000000, 0.000000000000000000, 4.000000000000000000 ) ) ;
#818 = CIRCLE ( 'NONE', #448, 2.125000000000000000 ) ;
#819 = ADVANCED_FACE ( 'NONE', ( #638 ), #453, .T. ) ;
#820 = FACE_BOUND ( 'NONE', #702, .T. ) ;
#821 = EDGE_LOOP ( 'NONE', ( #856, #123 ) ) ;
#822 = DIRECTION ( 'NONE',  ( -0.000000000000000000, -0.000000000000000000, 1.000000000000000000 ) ) ;
#823 = CARTESIAN_POINT ( 'NONE',  ( 0.000000000000000000, 0.000000000000000000, 4.000000000000000000 ) ) ;
#824 = EDGE_LOOP ( 'NONE', ( #108, #537, #43 ) ) ;
#825 = CYLINDRICAL_SURFACE ( 'NONE', #812, 17.49999999999998934 ) ;
#826 = DIRECTION ( 'NONE',  ( 1.000000000000000000, 0.000000000000000000, 0.000000000000000000 ) ) ;
#827 =( GEOMETRIC_REPRESENTATION_CONTEXT ( 3 ) GLOBAL_UNCERTAINTY_ASSIGNED_CONTEXT ( ( #10 ) ) GLOBAL_UNIT_ASSIGNED_CONTEXT ( ( #187, #861, #575 ) ) REPRESENTATION_CONTEXT ( 'NONE', 'WORKASPACE' ) );
#828 = EDGE_CURVE ( 'NONE', #667, #13, #101, .T. ) ;
#829 = AXIS2_PLACEMENT_3D ( 'NONE', #224, #97, #242 ) ;
#830 = CARTESIAN_POINT ( 'NONE',  ( 8.990000000000001990, 5.405552700695830382, 29.00000000000000000 ) ) ;
#831 = ADVANCED_FACE ( 'NONE', ( #54 ), #703, .F. ) ;
#832 = ORIENTED_EDGE ( 'NONE', *, *, #542, .F. ) ;
#833 = DIRECTION ( 'NONE',  ( -0.000000000000000000, -0.000000000000000000, -1.000000000000000000 ) ) ;
#834 = CARTESIAN_POINT ( 'NONE',  ( 0.000000000000000000, 0.000000000000000000, 29.00000000000000000 ) ) ;
#835 = AXIS2_PLACEMENT_3D ( 'NONE', #330, #248, #314 ) ;
#836 = EDGE_CURVE ( 'NONE', #33, #118, #328, .T. ) ;
#837 = LINE ( 'NONE', #830, #19 ) ;
#838 = FACE_OUTER_BOUND ( 'NONE', #171, .T. ) ;
#839 = DIRECTION ( 'NONE',  ( 1.000000000000000000, 0.000000000000000000, 0.000000000000000000 ) ) ;
#840 = ORIENTED_EDGE ( 'NONE', *, *, #408, .F. ) ;
#841 = CARTESIAN_POINT ( 'NONE',  ( 8.990000000000001990, 5.405552700695830382, 0.08533097157774685582 ) ) ;
#842 = LINE ( 'NONE', #189, #221 ) ;
#843 = PRODUCT_CONTEXT ( 'NONE', #658, 'mechanical' ) ;
#844 = VERTEX_POINT ( 'NONE', #322 ) ;
#845 = FACE_OUTER_BOUND ( 'NONE', #479, .T. ) ;
#846 = CYLINDRICAL_SURFACE ( 'NONE', #457, 2.125000000000000000 ) ;
#847 = DIRECTION ( 'NONE',  ( 0.000000000000000000, 0.000000000000000000, 1.000000000000000000 ) ) ;
#848 = CIRCLE ( 'NONE', #467, 2.125000000000000000 ) ;
#849 = ADVANCED_FACE ( 'NONE', ( #130, #699 ), #445, .F. ) ;
#850 = CYLINDRICAL_SURFACE ( 'NONE', #567, 15.05499999999999972 ) ;
#851 = FACE_OUTER_BOUND ( 'NONE', #770, .T. ) ;
#852 = EDGE_CURVE ( 'NONE', #338, #780, #401, .T. ) ;
#853 = DIRECTION ( 'NONE',  ( 0.000000000000000000, 0.000000000000000000, 1.000000000000000000 ) ) ;
#854 =( NAMED_UNIT ( * ) PLANE_ANGLE_UNIT ( ) SI_UNIT ( $, .RADIAN. ) );
#855 = AXIS2_PLACEMENT_3D ( 'NONE', #331, #274, #146 ) ;
#856 = ORIENTED_EDGE ( 'NONE', *, *, #340, .F. ) ;
#857 = LINE ( 'NONE', #508, #655 ) ;
#858 = DIRECTION ( 'NONE',  ( 1.000000000000000000, 0.000000000000000000, 0.000000000000000000 ) ) ;
#859 = DIRECTION ( 'NONE',  ( 1.000000000000000000, 0.000000000000000000, 0.000000000000000000 ) ) ;
#860 = ORIENTED_EDGE ( 'NONE', *, *, #198, .F. ) ;
#861 =( NAMED_UNIT ( * ) PLANE_ANGLE_UNIT ( ) SI_UNIT ( $, .RADIAN. ) );
ENDSEC;
END-ISO-10303-21;
