ISO-10303-21;
HEADER;
FILE_DESCRIPTION (( 'STEP AP214' ),
    '1' );
FILE_NAME ('´óÂÝÄ¸A.STEP',
    '2026-08-16T17:26:53',
    ( '' ),
    ( '' ),
    'SwSTEP 2.0',
    'SolidWorks 2025',
    '' );
FILE_SCHEMA (( 'AUTOMOTIVE_DESIGN' ));
ENDSEC;

DATA;
#1 = CARTESIAN_POINT ( 'NONE',  ( 0.000000000000000000, 0.000000000000000000, -3.000000000000000000 ) ) ;
#2 = EDGE_LOOP ( 'NONE', ( #25, #285, #127, #517 ) ) ;
#3 = CARTESIAN_POINT ( 'NONE',  ( -10.51500000000000057, 0.000000000000000000, 0.000000000000000000 ) ) ;
#4 = EDGE_CURVE ( 'NONE', #640, #140, #24, .T. ) ;
#5 = DIRECTION ( 'NONE',  ( 0.000000000000000000, 0.000000000000000000, -1.000000000000000000 ) ) ;
#6 = VERTEX_POINT ( 'NONE', #581 ) ;
#7 = DIRECTION ( 'NONE',  ( -1.000000000000000000, 0.000000000000000000, 0.000000000000000000 ) ) ;
#8 = VECTOR ( 'NONE', #87, 1000.000000000000000 ) ;
#9 = DIRECTION ( 'NONE',  ( 0.000000000000000000, 0.000000000000000000, -1.000000000000000000 ) ) ;
#10 = ORIENTED_EDGE ( 'NONE', *, *, #685, .T. ) ;
#11 = ADVANCED_FACE ( 'NONE', ( #307 ), #365, .T. ) ;
#12 = DIRECTION ( 'NONE',  ( 0.000000000000000000, 0.000000000000000000, 1.000000000000000000 ) ) ;
#13 = ORIENTED_EDGE ( 'NONE', *, *, #545, .F. ) ;
#14 = DIRECTION ( 'NONE',  ( -0.000000000000000000, -0.000000000000000000, 1.000000000000000000 ) ) ;
#15 = CIRCLE ( 'NONE', #643, 1.649999999999999911 ) ;
#16 = DIRECTION ( 'NONE',  ( 0.000000000000000000, 0.000000000000000000, -1.000000000000000000 ) ) ;
#17 = CIRCLE ( 'NONE', #55, 10.51500000000000057 ) ;
#18 = DIRECTION ( 'NONE',  ( -1.000000000000000000, 0.000000000000000000, 0.000000000000000000 ) ) ;
#19 = DIRECTION ( 'NONE',  ( -0.000000000000000000, -0.000000000000000000, -1.000000000000000000 ) ) ;
#20 = EDGE_LOOP ( 'NONE', ( #35, #361 ) ) ;
#21 = VECTOR ( 'NONE', #151, 1000.000000000000000 ) ;
#22 = ORIENTED_EDGE ( 'NONE', *, *, #693, .F. ) ;
#23 = EDGE_CURVE ( 'NONE', #276, #6, #443, .T. ) ;
#24 = LINE ( 'NONE', #78, #159 ) ;
#25 = ORIENTED_EDGE ( 'NONE', *, *, #113, .F. ) ;
#26 = DIRECTION ( 'NONE',  ( -0.000000000000000000, -0.000000000000000000, 1.000000000000000000 ) ) ;
#27 = DIRECTION ( 'NONE',  ( 1.000000000000000000, 0.000000000000000000, -0.000000000000000000 ) ) ;
#28 = ADVANCED_FACE ( 'NONE', ( #633 ), #134, .F. ) ;
#29 = EDGE_LOOP ( 'NONE', ( #319, #571, #218, #567 ) ) ;
#30 = CARTESIAN_POINT ( 'NONE',  ( 4.500000000000000000, -5.510910596163087583E-16, 5.000000000000000000 ) ) ;
#31 = STYLED_ITEM ( 'NONE', ( #400 ), #241 ) ;
#32 = DIRECTION ( 'NONE',  ( 0.000000000000000000, -0.000000000000000000, 1.000000000000000000 ) ) ;
#33 = ORIENTED_EDGE ( 'NONE', *, *, #294, .F. ) ;
#34 = EDGE_CURVE ( 'NONE', #640, #337, #80, .T. ) ;
#35 = ORIENTED_EDGE ( 'NONE', *, *, #466, .T. ) ;
#36 = CYLINDRICAL_SURFACE ( 'NONE', #132, 1.650000000000000355 ) ;
#37 = PLANE ( 'NONE',  #616 ) ;
#38 = DIRECTION ( 'NONE',  ( -1.000000000000000000, 0.000000000000000000, 0.000000000000000000 ) ) ;
#39 = AXIS2_PLACEMENT_3D ( 'NONE', #278, #448, #98 ) ;
#40 = CARTESIAN_POINT ( 'NONE',  ( -2.249999999999998224, 3.897114317029975350, 5.000000000000000000 ) ) ;
#41 = DIRECTION ( 'NONE',  ( -1.000000000000000000, 0.000000000000000000, 0.000000000000000000 ) ) ;
#42 = ORIENTED_EDGE ( 'NONE', *, *, #370, .F. ) ;
#43 = DIRECTION ( 'NONE',  ( -0.000000000000000000, -0.000000000000000000, -1.000000000000000000 ) ) ;
#44 = DIRECTION ( 'NONE',  ( 0.000000000000000000, 1.000000000000000000, 0.000000000000000000 ) ) ;
#45 = ORIENTED_EDGE ( 'NONE', *, *, #210, .T. ) ;
#46 = CARTESIAN_POINT ( 'NONE',  ( 0.000000000000000000, 0.000000000000000000, 12.00000000000000000 ) ) ;
#47 = ADVANCED_FACE ( 'NONE', ( #302 ), #130, .T. ) ;
#48 = CARTESIAN_POINT ( 'NONE',  ( -2.249999999999998224, 3.897114317029975350, 5.000000000000000000 ) ) ;
#49 = ORIENTED_EDGE ( 'NONE', *, *, #260, .F. ) ;
#50 = FACE_BOUND ( 'NONE', #347, .T. ) ;
#51 = CYLINDRICAL_SURFACE ( 'NONE', #166, 1.649999999999999911 ) ;
#52 = CARTESIAN_POINT ( 'NONE',  ( -2.250000000000002220, -3.897114317029972241, 5.000000000000000000 ) ) ;
#53 = VERTEX_POINT ( 'NONE', #197 ) ;
#54 = FACE_OUTER_BOUND ( 'NONE', #188, .T. ) ;
#55 = AXIS2_PLACEMENT_3D ( 'NONE', #235, #286, #7 ) ;
#56 = EDGE_LOOP ( 'NONE', ( #293, #161, #635, #392 ) ) ;
#57 = LINE ( 'NONE', #382, #352 ) ;
#58 = EDGE_CURVE ( 'NONE', #615, #276, #644, .T. ) ;
#59 = CIRCLE ( 'NONE', #242, 1.649999999999999911 ) ;
#60 = VERTEX_POINT ( 'NONE', #490 ) ;
#61 = DIRECTION ( 'NONE',  ( 0.000000000000000000, 0.000000000000000000, -1.000000000000000000 ) ) ;
#62 = EDGE_CURVE ( 'NONE', #378, #66, #431, .T. ) ;
#63 = DIRECTION ( 'NONE',  ( 1.000000000000000000, 0.000000000000000000, 0.000000000000000000 ) ) ;
#64 = ORIENTED_EDGE ( 'NONE', *, *, #710, .F. ) ;
#65 = CARTESIAN_POINT ( 'NONE',  ( -7.540619520721824287, 7.328320560927242155, 5.000000000000000000 ) ) ;
#66 = VERTEX_POINT ( 'NONE', #435 ) ;
#67 = APPLICATION_PROTOCOL_DEFINITION ( 'draft international standard', 'automotive_design', 1998, #549 ) ;
#68 = AXIS2_PLACEMENT_3D ( 'NONE', #692, #185, #413 ) ;
#69 = EDGE_CURVE ( 'NONE', #577, #330, #59, .T. ) ;
#70 = ORIENTED_EDGE ( 'NONE', *, *, #317, .F. ) ;
#71 = DIRECTION ( 'NONE',  ( -0.000000000000000000, -0.000000000000000000, 1.000000000000000000 ) ) ;
#72 = ADVANCED_FACE ( 'NONE', ( #538 ), #37, .T. ) ;
#73 = FACE_OUTER_BOUND ( 'NONE', #136, .T. ) ;
#74 = ORIENTED_EDGE ( 'NONE', *, *, #210, .F. ) ;
#75 = CARTESIAN_POINT ( 'NONE',  ( 6.150000000000000355, -3.490243377569955075E-16, 0.000000000000000000 ) ) ;
#76 = AXIS2_PLACEMENT_3D ( 'NONE', #645, #110, #388 ) ;
#77 = VECTOR ( 'NONE', #19, 1000.000000000000000 ) ;
#78 = CARTESIAN_POINT ( 'NONE',  ( -9.064999999999999503, 7.328320560927242155, 24.51470392802102083 ) ) ;
#79 = ADVANCED_FACE ( 'NONE', ( #270 ), #720, .F. ) ;
#80 = LINE ( 'NONE', #246, #8 ) ;
#81 = DIRECTION ( 'NONE',  ( 0.000000000000000000, 0.000000000000000000, -1.000000000000000000 ) ) ;
#82 = ADVANCED_FACE ( 'NONE', ( #205 ), #655, .F. ) ;
#83 = CARTESIAN_POINT ( 'NONE',  ( 0.000000000000000000, 0.000000000000000000, 20.00000000000000000 ) ) ;
#84 = FACE_BOUND ( 'NONE', #601, .T. ) ;
#85 = DIRECTION ( 'NONE',  ( -0.000000000000000000, 1.000000000000000000, 0.000000000000000000 ) ) ;
#86 = EDGE_CURVE ( 'NONE', #686, #369, #630, .T. ) ;
#87 = DIRECTION ( 'NONE',  ( 1.000000000000000000, 0.000000000000000000, -0.000000000000000000 ) ) ;
#88 = LINE ( 'NONE', #649, #232 ) ;
#89 = PRESENTATION_LAYER_ASSIGNMENT (  '', '', ( #31 ) ) ;
#90 = DIRECTION ( 'NONE',  ( -0.000000000000000000, -0.000000000000000000, -1.000000000000000000 ) ) ;
#91 = DIRECTION ( 'NONE',  ( -0.000000000000000000, -0.000000000000000000, -1.000000000000000000 ) ) ;
#92 = AXIS2_PLACEMENT_3D ( 'NONE', #608, #321, #41 ) ;
#93 = CARTESIAN_POINT ( 'NONE',  ( 0.000000000000000000, 0.000000000000000000, -3.000000000000000000 ) ) ;
#94 = ORIENTED_EDGE ( 'NONE', *, *, #595, .F. ) ;
#95 = CARTESIAN_POINT ( 'NONE',  ( 0.000000000000000000, 0.000000000000000000, 0.000000000000000000 ) ) ;
#96 = DIRECTION ( 'NONE',  ( 0.000000000000000000, 0.000000000000000000, -1.000000000000000000 ) ) ;
#97 = ORIENTED_EDGE ( 'NONE', *, *, #574, .T. ) ;
#98 = DIRECTION ( 'NONE',  ( -1.000000000000000000, 0.000000000000000000, -0.000000000000000000 ) ) ;
#99 = CARTESIAN_POINT ( 'NONE',  ( 15.99000000000000021, 1.958210231836617954E-15, 0.000000000000000000 ) ) ;
#100 = DIRECTION ( 'NONE',  ( 0.000000000000000000, 0.000000000000000000, -1.000000000000000000 ) ) ;
#101 = EDGE_LOOP ( 'NONE', ( #211, #675, #730, #498 ) ) ;
#102 = CARTESIAN_POINT ( 'NONE',  ( -18.99999999999998934, 0.000000000000000000, 0.000000000000000000 ) ) ;
#103 = DIRECTION ( 'NONE',  ( 1.000000000000000000, 0.000000000000000000, -0.000000000000000000 ) ) ;
#104 = ORIENTED_EDGE ( 'NONE', *, *, #710, .T. ) ;
#105 = DIRECTION ( 'NONE',  ( 0.000000000000000000, 0.000000000000000000, 1.000000000000000000 ) ) ;
#106 = AXIS2_PLACEMENT_3D ( 'NONE', #578, #691, #237 ) ;
#107 = DIRECTION ( 'NONE',  ( 0.000000000000000000, -0.000000000000000000, 1.000000000000000000 ) ) ;
#108 = EDGE_CURVE ( 'NONE', #387, #177, #439, .T. ) ;
#109 = ORIENTED_EDGE ( 'NONE', *, *, #23, .T. ) ;
#110 = DIRECTION ( 'NONE',  ( 0.000000000000000000, 0.000000000000000000, -1.000000000000000000 ) ) ;
#111 = AXIS2_PLACEMENT_3D ( 'NONE', #320, #219, #665 ) ;
#112 =( NAMED_UNIT ( * ) SI_UNIT ( $, .STERADIAN. ) SOLID_ANGLE_UNIT ( ) );
#113 = EDGE_CURVE ( 'NONE', #682, #593, #650, .T. ) ;
#114 = VERTEX_POINT ( 'NONE', #596 ) ;
#115 = DIRECTION ( 'NONE',  ( -1.000000000000000000, 0.000000000000000000, 0.000000000000000000 ) ) ;
#116 = CIRCLE ( 'NONE', #243, 1.650000000000000355 ) ;
#117 = EDGE_LOOP ( 'NONE', ( #562, #300, #354, #560 ) ) ;
#118 = DIRECTION ( 'NONE',  ( 0.000000000000000000, 1.000000000000000000, 0.000000000000000000 ) ) ;
#119 = CARTESIAN_POINT ( 'NONE',  ( -3.900000000000002576, -3.897114317029972241, 5.000000000000000000 ) ) ;
#120 = ORIENTED_EDGE ( 'NONE', *, *, #368, .F. ) ;
#121 = APPLICATION_PROTOCOL_DEFINITION ( 'draft international standard', 'automotive_design', 1998, #534 ) ;
#122 = EDGE_CURVE ( 'NONE', #330, #539, #201, .T. ) ;
#123 = FILL_AREA_STYLE_COLOUR ( '', #124 ) ;
#124 = COLOUR_RGB ( '',0.7921568627450980005, 0.8196078431372548767, 0.9333333333333333481 ) ;
#125 = VERTEX_POINT ( 'NONE', #261 ) ;
#126 = EDGE_CURVE ( 'NONE', #177, #589, #486, .T. ) ;
#127 = ORIENTED_EDGE ( 'NONE', *, *, #476, .F. ) ;
#128 = LINE ( 'NONE', #520, #703 ) ;
#129 = CARTESIAN_POINT ( 'NONE',  ( -0.6000000000000021982, -3.897114317029972241, 5.000000000000000000 ) ) ;
#130 = CYLINDRICAL_SURFACE ( 'NONE', #254, 15.99000000000000021 ) ;
#131 = DIRECTION ( 'NONE',  ( 0.000000000000000000, 0.000000000000000000, 1.000000000000000000 ) ) ;
#132 = AXIS2_PLACEMENT_3D ( 'NONE', #30, #421, #641 ) ;
#133 = LINE ( 'NONE', #129, #569 ) ;
#134 = CYLINDRICAL_SURFACE ( 'NONE', #384, 10.51500000000000057 ) ;
#135 = CYLINDRICAL_SURFACE ( 'NONE', #456, 10.51500000000000057 ) ;
#136 = EDGE_LOOP ( 'NONE', ( #309, #247 ) ) ;
#137 = FACE_OUTER_BOUND ( 'NONE', #305, .T. ) ;
#138 = CARTESIAN_POINT ( 'NONE',  ( 0.000000000000000000, 0.000000000000000000, 22.00000000000000000 ) ) ;
#139 = AXIS2_PLACEMENT_3D ( 'NONE', #358, #81, #313 ) ;
#140 = VERTEX_POINT ( 'NONE', #257 ) ;
#141 = LINE ( 'NONE', #366, #607 ) ;
#142 = CARTESIAN_POINT ( 'NONE',  ( 15.05499999999999972, 1.843705756116340054E-15, 20.00000000000000000 ) ) ;
#143 = AXIS2_PLACEMENT_3D ( 'NONE', #407, #14, #291 ) ;
#144 = DIRECTION ( 'NONE',  ( 0.000000000000000000, 0.000000000000000000, -1.000000000000000000 ) ) ;
#145 = FACE_BOUND ( 'NONE', #290, .T. ) ;
#146 = DIRECTION ( 'NONE',  ( -1.000000000000000000, 0.000000000000000000, 0.000000000000000000 ) ) ;
#147 = ORIENTED_EDGE ( 'NONE', *, *, #195, .F. ) ;
#148 = DIRECTION ( 'NONE',  ( 0.000000000000000000, 0.000000000000000000, 1.000000000000000000 ) ) ;
#149 = AXIS2_PLACEMENT_3D ( 'NONE', #93, #213, #386 ) ;
#150 = AXIS2_PLACEMENT_3D ( 'NONE', #713, #430, #146 ) ;
#151 = DIRECTION ( 'NONE',  ( 1.000000000000000000, 0.000000000000000000, 0.000000000000000000 ) ) ;
#152 = EDGE_LOOP ( 'NONE', ( #156, #406 ) ) ;
#153 = CARTESIAN_POINT ( 'NONE',  ( -9.064999999999999503, 7.328320560927242155, 22.00000000000000000 ) ) ;
#154 = AXIS2_PLACEMENT_3D ( 'NONE', #405, #131, #621 ) ;
#155 = CARTESIAN_POINT ( 'NONE',  ( -9.064999999999997726, -7.328320560927243932, 24.51470392802102083 ) ) ;
#156 = ORIENTED_EDGE ( 'NONE', *, *, #220, .F. ) ;
#157 = DIRECTION ( 'NONE',  ( -1.000000000000000000, 0.000000000000000000, 0.000000000000000000 ) ) ;
#158 = AXIS2_PLACEMENT_3D ( 'NONE', #1, #619, #450 ) ;
#159 = VECTOR ( 'NONE', #414, 1000.000000000000000 ) ;
#160 = CARTESIAN_POINT ( 'NONE',  ( -0.5999999999999978684, 3.897114317029975350, 5.000000000000000000 ) ) ;
#161 = ORIENTED_EDGE ( 'NONE', *, *, #324, .F. ) ;
#162 = DIRECTION ( 'NONE',  ( 0.000000000000000000, 0.000000000000000000, -1.000000000000000000 ) ) ;
#163 = CARTESIAN_POINT ( 'NONE',  ( 0.000000000000000000, -7.328320560927243932, 24.51470392802102083 ) ) ;
#164 = ORIENTED_EDGE ( 'NONE', *, *, #69, .T. ) ;
#165 = CARTESIAN_POINT ( 'NONE',  ( 0.000000000000000000, 0.000000000000000000, 0.000000000000000000 ) ) ;
#166 = AXIS2_PLACEMENT_3D ( 'NONE', #40, #269, #724 ) ;
#167 = CIRCLE ( 'NONE', #576, 10.51500000000000057 ) ;
#168 = ORIENTED_EDGE ( 'NONE', *, *, #712, .F. ) ;
#169 = DIRECTION ( 'NONE',  ( -1.000000000000000000, 0.000000000000000000, 0.000000000000000000 ) ) ;
#170 = PRODUCT_DEFINITION_CONTEXT ( 'detailed design', #549, 'design' ) ;
#171 = DIRECTION ( 'NONE',  ( -1.000000000000000000, 0.000000000000000000, -0.000000000000000000 ) ) ;
#172 = ORIENTED_EDGE ( 'NONE', *, *, #324, .T. ) ;
#173 = DIRECTION ( 'NONE',  ( -1.000000000000000000, 0.000000000000000000, 0.000000000000000000 ) ) ;
#174 = LINE ( 'NONE', #119, #383 ) ;
#175 = ORIENTED_EDGE ( 'NONE', *, *, #264, .T. ) ;
#176 = EDGE_CURVE ( 'NONE', #387, #528, #604, .T. ) ;
#177 = VERTEX_POINT ( 'NONE', #377 ) ;
#178 = CARTESIAN_POINT ( 'NONE',  ( 6.150000000000000355, -3.490243377569955075E-16, 5.000000000000000000 ) ) ;
#179 = CIRCLE ( 'NONE', #111, 10.51500000000000057 ) ;
#180 = CIRCLE ( 'NONE', #106, 1.649999999999999911 ) ;
#181 = EDGE_LOOP ( 'NONE', ( #272, #523, #250, #327 ) ) ;
#182 = DIRECTION ( 'NONE',  ( -1.000000000000000000, 0.000000000000000000, 0.000000000000000000 ) ) ;
#183 = EDGE_CURVE ( 'NONE', #114, #722, #301, .T. ) ;
#184 = AXIS2_PLACEMENT_3D ( 'NONE', #390, #546, #380 ) ;
#185 = DIRECTION ( 'NONE',  ( 0.000000000000000000, 0.000000000000000000, 1.000000000000000000 ) ) ;
#186 = CARTESIAN_POINT ( 'NONE',  ( -18.99999999999998934, 0.000000000000000000, -3.000000000000000000 ) ) ;
#187 = ORIENTED_EDGE ( 'NONE', *, *, #415, .T. ) ;
#188 = EDGE_LOOP ( 'NONE', ( #227, #526, #315, #535 ) ) ;
#189 = CARTESIAN_POINT ( 'NONE',  ( 0.000000000000000000, 0.000000000000000000, 12.00000000000000000 ) ) ;
#190 = EDGE_LOOP ( 'NONE', ( #543, #689, #440, #475 ) ) ;
#191 = CARTESIAN_POINT ( 'NONE',  ( 0.000000000000000000, 0.000000000000000000, 0.000000000000000000 ) ) ;
#192 = PLANE ( 'NONE',  #519 ) ;
#193 = DIRECTION ( 'NONE',  ( -0.000000000000000000, -0.000000000000000000, -1.000000000000000000 ) ) ;
#194 = CARTESIAN_POINT ( 'NONE',  ( 15.99000000000000021, 1.958210231836617954E-15, 12.00000000000000000 ) ) ;
#195 = EDGE_CURVE ( 'NONE', #528, #589, #325, .T. ) ;
#196 = AXIS2_PLACEMENT_3D ( 'NONE', #189, #148, #310 ) ;
#197 = CARTESIAN_POINT ( 'NONE',  ( -3.899999999999998135, 3.897114317029975350, 0.000000000000000000 ) ) ;
#198 = ORIENTED_EDGE ( 'NONE', *, *, #183, .T. ) ;
#199 = DIRECTION ( 'NONE',  ( -1.000000000000000000, 0.000000000000000000, 0.000000000000000000 ) ) ;
#200 = VECTOR ( 'NONE', #446, 1000.000000000000000 ) ;
#201 = LINE ( 'NONE', #160, #527 ) ;
#202 = CIRCLE ( 'NONE', #709, 1.650000000000000355 ) ;
#203 = DIRECTION ( 'NONE',  ( 0.000000000000000000, 0.000000000000000000, 1.000000000000000000 ) ) ;
#204 = EDGE_CURVE ( 'NONE', #722, #114, #116, .T. ) ;
#205 = FACE_OUTER_BOUND ( 'NONE', #464, .T. ) ;
#206 = EDGE_LOOP ( 'NONE', ( #557, #214 ) ) ;
#207 = CARTESIAN_POINT ( 'NONE',  ( 15.05499999999999972, 1.843705756116340054E-15, 22.00000000000000000 ) ) ;
#208 = AXIS2_PLACEMENT_3D ( 'NONE', #726, #100, #541 ) ;
#209 = DIRECTION ( 'NONE',  ( 0.000000000000000000, 0.000000000000000000, -1.000000000000000000 ) ) ;
#210 = EDGE_CURVE ( 'NONE', #639, #125, #335, .T. ) ;
#211 = ORIENTED_EDGE ( 'NONE', *, *, #4, .T. ) ;
#212 = CARTESIAN_POINT ( 'NONE',  ( -7.540619520721822511, -7.328320560927243932, 22.00000000000000000 ) ) ;
#213 = DIRECTION ( 'NONE',  ( 0.000000000000000000, 0.000000000000000000, -1.000000000000000000 ) ) ;
#214 = ORIENTED_EDGE ( 'NONE', *, *, #438, .F. ) ;
#215 = LINE ( 'NONE', #328, #632 ) ;
#216 =( GEOMETRIC_REPRESENTATION_CONTEXT ( 3 ) GLOBAL_UNCERTAINTY_ASSIGNED_CONTEXT ( ( #336 ) ) GLOBAL_UNIT_ASSIGNED_CONTEXT ( ( #453, #288, #112 ) ) REPRESENTATION_CONTEXT ( 'NONE', 'WORKASPACE' ) );
#217 = CARTESIAN_POINT ( 'NONE',  ( -2.250000000000002220, -3.897114317029972241, 0.000000000000000000 ) ) ;
#218 = ORIENTED_EDGE ( 'NONE', *, *, #204, .T. ) ;
#219 = DIRECTION ( 'NONE',  ( 0.000000000000000000, 0.000000000000000000, 1.000000000000000000 ) ) ;
#220 = EDGE_CURVE ( 'NONE', #66, #378, #252, .T. ) ;
#221 = ORIENTED_EDGE ( 'NONE', *, *, #592, .T. ) ;
#222 = FACE_OUTER_BOUND ( 'NONE', #656, .T. ) ;
#223 = AXIS2_PLACEMENT_3D ( 'NONE', #598, #162, #157 ) ;
#224 = ORIENTED_EDGE ( 'NONE', *, *, #108, .F. ) ;
#225 = DIRECTION ( 'NONE',  ( 0.000000000000000000, 0.000000000000000000, -1.000000000000000000 ) ) ;
#226 = UNCERTAINTY_MEASURE_WITH_UNIT (LENGTH_MEASURE( 1.000000000000000082E-05 ), #338, 'distance_accuracy_value', 'NONE');
#227 = ORIENTED_EDGE ( 'NONE', *, *, #415, .F. ) ;
#228 = CARTESIAN_POINT ( 'NONE',  ( -7.540619520721824287, 7.328320560927242155, 24.51470392802102083 ) ) ;
#229 = CARTESIAN_POINT ( 'NONE',  ( 0.000000000000000000, 0.000000000000000000, 22.00000000000000000 ) ) ;
#230 = ORIENTED_EDGE ( 'NONE', *, *, #512, .T. ) ;
#231 = DIRECTION ( 'NONE',  ( 1.000000000000000000, 0.000000000000000000, 0.000000000000000000 ) ) ;
#232 = VECTOR ( 'NONE', #690, 1000.000000000000000 ) ;
#233 = AXIS2_PLACEMENT_3D ( 'NONE', #191, #371, #256 ) ;
#234 = VERTEX_POINT ( 'NONE', #444 ) ;
#235 = CARTESIAN_POINT ( 'NONE',  ( 0.000000000000000000, 0.000000000000000000, 0.000000000000000000 ) ) ;
#236 = AXIS2_PLACEMENT_3D ( 'NONE', #459, #12, #231 ) ;
#237 = DIRECTION ( 'NONE',  ( -1.000000000000000000, 0.000000000000000000, 0.000000000000000000 ) ) ;
#238 = ORIENTED_EDGE ( 'NONE', *, *, #574, .F. ) ;
#239 = DIRECTION ( 'NONE',  ( 0.000000000000000000, 0.000000000000000000, -1.000000000000000000 ) ) ;
#240 = EDGE_CURVE ( 'NONE', #177, #140, #716, .T. ) ;
#241 = MANIFOLD_SOLID_BREP ( '\X2\51f853f0\X0\-\X2\62c94f38\X0\7', #289 ) ;
#242 = AXIS2_PLACEMENT_3D ( 'NONE', #48, #209, #551 ) ;
#243 = AXIS2_PLACEMENT_3D ( 'NONE', #372, #556, #663 ) ;
#244 = ORIENTED_EDGE ( 'NONE', *, *, #584, .T. ) ;
#245 = DIRECTION ( 'NONE',  ( -1.000000000000000000, 0.000000000000000000, 0.000000000000000000 ) ) ;
#246 = CARTESIAN_POINT ( 'NONE',  ( -0.000000000000000000, 7.328320560927242155, 22.00000000000000000 ) ) ;
#247 = ORIENTED_EDGE ( 'NONE', *, *, #260, .T. ) ;
#248 = FACE_BOUND ( 'NONE', #447, .T. ) ;
#249 = CARTESIAN_POINT ( 'NONE',  ( -2.249999999999998224, 3.897114317029975350, 5.000000000000000000 ) ) ;
#250 = ORIENTED_EDGE ( 'NONE', *, *, #603, .T. ) ;
#251 = EDGE_CURVE ( 'NONE', #714, #615, #474, .T. ) ;
#252 = CIRCLE ( 'NONE', #658, 1.649999999999999911 ) ;
#253 = DIRECTION ( 'NONE',  ( -1.000000000000000000, 0.000000000000000000, 0.000000000000000000 ) ) ;
#254 = AXIS2_PLACEMENT_3D ( 'NONE', #356, #255, #701 ) ;
#255 = DIRECTION ( 'NONE',  ( -0.000000000000000000, -0.000000000000000000, -1.000000000000000000 ) ) ;
#256 = DIRECTION ( 'NONE',  ( -1.000000000000000000, 0.000000000000000000, 0.000000000000000000 ) ) ;
#257 = CARTESIAN_POINT ( 'NONE',  ( -9.064999999999999503, 7.328320560927242155, 5.000000000000000000 ) ) ;
#258 = FACE_OUTER_BOUND ( 'NONE', #190, .T. ) ;
#259 = VECTOR ( 'NONE', #613, 1000.000000000000000 ) ;
#260 = EDGE_CURVE ( 'NONE', #615, #714, #279, .T. ) ;
#261 = CARTESIAN_POINT ( 'NONE',  ( -3.900000000000002576, -3.897114317029972241, 5.000000000000000000 ) ) ;
#262 = ORIENTED_EDGE ( 'NONE', *, *, #195, .T. ) ;
#263 = DIRECTION ( 'NONE',  ( 0.000000000000000000, 0.000000000000000000, -1.000000000000000000 ) ) ;
#264 = EDGE_CURVE ( 'NONE', #60, #672, #500, .T. ) ;
#265 = DIRECTION ( 'NONE',  ( -1.000000000000000000, 0.000000000000000000, 0.000000000000000000 ) ) ;
#266 = DIRECTION ( 'NONE',  ( -1.000000000000000000, 0.000000000000000000, 0.000000000000000000 ) ) ;
#267 = ORIENTED_EDGE ( 'NONE', *, *, #86, .F. ) ;
#268 = CARTESIAN_POINT ( 'NONE',  ( -3.899999999999998135, 3.897114317029975350, 5.000000000000000000 ) ) ;
#269 = DIRECTION ( 'NONE',  ( 0.000000000000000000, 0.000000000000000000, -1.000000000000000000 ) ) ;
#270 = FACE_OUTER_BOUND ( 'NONE', #56, .T. ) ;
#271 = AXIS2_PLACEMENT_3D ( 'NONE', #429, #582, #38 ) ;
#272 = ORIENTED_EDGE ( 'NONE', *, *, #58, .F. ) ;
#273 = DIRECTION ( 'NONE',  ( 0.000000000000000000, 0.000000000000000000, -1.000000000000000000 ) ) ;
#274 = DIRECTION ( 'NONE',  ( 0.000000000000000000, 0.000000000000000000, -1.000000000000000000 ) ) ;
#275 = EDGE_CURVE ( 'NONE', #593, #369, #508, .T. ) ;
#276 = VERTEX_POINT ( 'NONE', #559 ) ;
#277 =( GEOMETRIC_REPRESENTATION_CONTEXT ( 3 ) GLOBAL_UNCERTAINTY_ASSIGNED_CONTEXT ( ( #226 ) ) GLOBAL_UNIT_ASSIGNED_CONTEXT ( ( #338, #676, #348 ) ) REPRESENTATION_CONTEXT ( 'NONE', 'WORKASPACE' ) );
#278 = CARTESIAN_POINT ( 'NONE',  ( 0.000000000000000000, 0.000000000000000000, 0.000000000000000000 ) ) ;
#279 = CIRCLE ( 'NONE', #696, 15.05499999999999972 ) ;
#280 = ORIENTED_EDGE ( 'NONE', *, *, #476, .T. ) ;
#281 = CARTESIAN_POINT ( 'NONE',  ( -15.05499999999999972, 0.000000000000000000, 20.00000000000000000 ) ) ;
#282 = ORIENTED_EDGE ( 'NONE', *, *, #662, .F. ) ;
#283 = CARTESIAN_POINT ( 'NONE',  ( 0.000000000000000000, 0.000000000000000000, 5.000000000000000000 ) ) ;
#284 = PRODUCT_RELATED_PRODUCT_CATEGORY ( 'part', '', ( #489 ) ) ;
#285 = ORIENTED_EDGE ( 'NONE', *, *, #368, .T. ) ;
#286 = DIRECTION ( 'NONE',  ( 0.000000000000000000, 0.000000000000000000, -1.000000000000000000 ) ) ;
#287 = AXIS2_PLACEMENT_3D ( 'NONE', #229, #515, #63 ) ;
#288 =( NAMED_UNIT ( * ) PLANE_ANGLE_UNIT ( ) SI_UNIT ( $, .RADIAN. ) );
#289 = CLOSED_SHELL ( 'NONE', ( #11, #82, #426, #721, #637, #389, #570, #345, #304, #462, #618, #298, #374, #28, #536, #47, #360, #501, #359, #79, #396, #72, #339, #457 ) ) ;
#290 = EDGE_LOOP ( 'NONE', ( #469, #404 ) ) ;
#291 = DIRECTION ( 'NONE',  ( -1.000000000000000000, 0.000000000000000000, 0.000000000000000000 ) ) ;
#292 = SURFACE_STYLE_USAGE ( .BOTH. , #346 ) ;
#293 = ORIENTED_EDGE ( 'NONE', *, *, #312, .F. ) ;
#294 = EDGE_CURVE ( 'NONE', #125, #66, #174, .T. ) ;
#295 = CARTESIAN_POINT ( 'NONE',  ( 18.99999999999998934, 2.326828918379969787E-15, -3.000000000000000000 ) ) ;
#296 = VECTOR ( 'NONE', #263, 1000.000000000000000 ) ;
#297 = ORIENTED_EDGE ( 'NONE', *, *, #442, .T. ) ;
#298 = ADVANCED_FACE ( 'NONE', ( #622, #502 ), #729, .T. ) ;
#299 = AXIS2_PLACEMENT_3D ( 'NONE', #334, #43, #499 ) ;
#300 = ORIENTED_EDGE ( 'NONE', *, *, #34, .T. ) ;
#301 = CIRCLE ( 'NONE', #150, 1.650000000000000355 ) ;
#302 = FACE_OUTER_BOUND ( 'NONE', #552, .T. ) ;
#303 = CARTESIAN_POINT ( 'NONE',  ( 0.000000000000000000, 0.000000000000000000, 53.74011537017757689 ) ) ;
#304 = ADVANCED_FACE ( 'NONE', ( #614, #73 ), #530, .T. ) ;
#305 = EDGE_LOOP ( 'NONE', ( #579, #282, #381, #198 ) ) ;
#306 = PLANE ( 'NONE',  #139 ) ;
#307 = FACE_OUTER_BOUND ( 'NONE', #2, .T. ) ;
#308 = CIRCLE ( 'NONE', #725, 1.649999999999999911 ) ;
#309 = ORIENTED_EDGE ( 'NONE', *, *, #251, .T. ) ;
#310 = DIRECTION ( 'NONE',  ( 1.000000000000000000, 0.000000000000000000, 0.000000000000000000 ) ) ;
#311 = ORIENTED_EDGE ( 'NONE', *, *, #264, .F. ) ;
#312 = EDGE_CURVE ( 'NONE', #639, #378, #133, .T. ) ;
#313 = DIRECTION ( 'NONE',  ( -1.000000000000000000, 0.000000000000000000, -0.000000000000000000 ) ) ;
#314 = DIRECTION ( 'NONE',  ( -0.000000000000000000, 1.000000000000000000, 0.000000000000000000 ) ) ;
#315 = ORIENTED_EDGE ( 'NONE', *, *, #438, .T. ) ;
#316 = FACE_OUTER_BOUND ( 'NONE', #609, .T. ) ;
#317 = EDGE_CURVE ( 'NONE', #330, #577, #308, .T. ) ;
#318 = CARTESIAN_POINT ( 'NONE',  ( -9.064999999999999503, -5.328320560927242155, 5.000000000000000000 ) ) ;
#319 = ORIENTED_EDGE ( 'NONE', *, *, #512, .F. ) ;
#320 = CARTESIAN_POINT ( 'NONE',  ( 0.000000000000000000, 0.000000000000000000, 22.00000000000000000 ) ) ;
#321 = DIRECTION ( 'NONE',  ( -0.000000000000000000, -0.000000000000000000, 1.000000000000000000 ) ) ;
#322 = EDGE_LOOP ( 'NONE', ( #13, #566 ) ) ;
#323 = CARTESIAN_POINT ( 'NONE',  ( 0.000000000000000000, 0.000000000000000000, 12.00000000000000000 ) ) ;
#324 = EDGE_CURVE ( 'NONE', #125, #639, #180, .T. ) ;
#325 = LINE ( 'NONE', #651, #564 ) ;
#326 = AXIS2_PLACEMENT_3D ( 'NONE', #472, #590, #470 ) ;
#327 = ORIENTED_EDGE ( 'NONE', *, *, #595, .T. ) ;
#328 = CARTESIAN_POINT ( 'NONE',  ( 2.849999999999999201, -5.510910596163087583E-16, 5.000000000000000000 ) ) ;
#329 = AXIS2_PLACEMENT_3D ( 'NONE', #46, #105, #718 ) ;
#330 = VERTEX_POINT ( 'NONE', #473 ) ;
#331 = VECTOR ( 'NONE', #118, 1000.000000000000000 ) ;
#332 = DIRECTION ( 'NONE',  ( -1.000000000000000000, 0.000000000000000000, 0.000000000000000000 ) ) ;
#333 = ORIENTED_EDGE ( 'NONE', *, *, #385, .F. ) ;
#334 = CARTESIAN_POINT ( 'NONE',  ( 0.000000000000000000, 0.000000000000000000, 12.00000000000000000 ) ) ;
#335 = CIRCLE ( 'NONE', #432, 1.649999999999999911 ) ;
#336 = UNCERTAINTY_MEASURE_WITH_UNIT (LENGTH_MEASURE( 1.000000000000000082E-05 ), #453, 'distance_accuracy_value', 'NONE');
#337 = VERTEX_POINT ( 'NONE', #417 ) ;
#338 =( LENGTH_UNIT ( ) NAMED_UNIT ( * ) SI_UNIT ( .MILLI., .METRE. ) );
#339 = ADVANCED_FACE ( 'NONE', ( #698 ), #192, .F. ) ;
#340 = PRODUCT_DEFINITION_FORMATION_WITH_SPECIFIED_SOURCE ( 'å¯', '', #489, .NOT_KNOWN. ) ;
#341 = ORIENTED_EDGE ( 'NONE', *, *, #312, .T. ) ;
#342 = PRODUCT_CONTEXT ( 'NONE', #534, 'mechanical' ) ;
#343 = DIRECTION ( 'NONE',  ( 0.000000000000000000, 0.000000000000000000, -1.000000000000000000 ) ) ;
#344 = AXIS2_PLACEMENT_3D ( 'NONE', #138, #522, #27 ) ;
#345 = ADVANCED_FACE ( 'NONE', ( #463 ), #376, .F. ) ;
#346 = SURFACE_SIDE_STYLE ('',( #666 ) ) ;
#347 = EDGE_LOOP ( 'NONE', ( #94, #454 ) ) ;
#348 =( NAMED_UNIT ( * ) SI_UNIT ( $, .STERADIAN. ) SOLID_ANGLE_UNIT ( ) );
#349 = DIRECTION ( 'NONE',  ( -1.000000000000000000, 0.000000000000000000, -0.000000000000000000 ) ) ;
#350 = VERTEX_POINT ( 'NONE', #99 ) ;
#351 = CARTESIAN_POINT ( 'NONE',  ( -9.064999999999999503, -5.328320560927242155, 22.00000000000001066 ) ) ;
#352 = VECTOR ( 'NONE', #492, 1000.000000000000000 ) ;
#353 = ORIENTED_EDGE ( 'NONE', *, *, #122, .T. ) ;
#354 = ORIENTED_EDGE ( 'NONE', *, *, #646, .F. ) ;
#355 = CARTESIAN_POINT ( 'NONE',  ( 0.000000000000000000, 0.000000000000000000, 0.000000000000000000 ) ) ;
#356 = CARTESIAN_POINT ( 'NONE',  ( 0.000000000000000000, 0.000000000000000000, 12.00000000000000000 ) ) ;
#357 = ORIENTED_EDGE ( 'NONE', *, *, #671, .T. ) ;
#358 = CARTESIAN_POINT ( 'NONE',  ( 0.000000000000000000, 0.000000000000000000, 5.000000000000000000 ) ) ;
#359 = ADVANCED_FACE ( 'NONE', ( #550 ), #51, .F. ) ;
#360 = ADVANCED_FACE ( 'NONE', ( #719, #706, #145, #711 ), #461, .T. ) ;
#361 = ORIENTED_EDGE ( 'NONE', *, *, #693, .T. ) ;
#362 = CARTESIAN_POINT ( 'NONE',  ( -9.064999999999999503, -5.328320560927242155, 22.00000000000001066 ) ) ;
#363 = AXIS2_PLACEMENT_3D ( 'NONE', #554, #588, #265 ) ;
#364 = CARTESIAN_POINT ( 'NONE',  ( 0.000000000000000000, 7.328320560927242155, 24.51470392802102083 ) ) ;
#365 = CYLINDRICAL_SURFACE ( 'NONE', #697, 18.99999999999998934 ) ;
#366 = CARTESIAN_POINT ( 'NONE',  ( 15.99000000000000021, 1.958210231836617954E-15, 12.00000000000000000 ) ) ;
#367 = CIRCLE ( 'NONE', #143, 18.99999999999998934 ) ;
#368 = EDGE_CURVE ( 'NONE', #682, #686, #128, .T. ) ;
#369 = VERTEX_POINT ( 'NONE', #186 ) ;
#370 = EDGE_CURVE ( 'NONE', #478, #350, #141, .T. ) ;
#371 = DIRECTION ( 'NONE',  ( 0.000000000000000000, 0.000000000000000000, -1.000000000000000000 ) ) ;
#372 = CARTESIAN_POINT ( 'NONE',  ( 4.500000000000000000, -5.510910596163087583E-16, 0.000000000000000000 ) ) ;
#373 = VERTEX_POINT ( 'NONE', #544 ) ;
#374 = ADVANCED_FACE ( 'NONE', ( #700 ), #586, .T. ) ;
#375 = LINE ( 'NONE', #532, #555 ) ;
#376 = CYLINDRICAL_SURFACE ( 'NONE', #363, 10.51500000000000057 ) ;
#377 = CARTESIAN_POINT ( 'NONE',  ( -9.064999999999997726, -7.328320560927243932, 5.000000000000000000 ) ) ;
#378 = VERTEX_POINT ( 'NONE', #636 ) ;
#379 = LINE ( 'NONE', #281, #259 ) ;
#380 = DIRECTION ( 'NONE',  ( -1.000000000000000000, 0.000000000000000000, 0.000000000000000000 ) ) ;
#381 = ORIENTED_EDGE ( 'NONE', *, *, #626, .T. ) ;
#382 = CARTESIAN_POINT ( 'NONE',  ( 10.51500000000000057, 1.287716109303441795E-15, 20.00000000000000000 ) ) ;
#383 = VECTOR ( 'NONE', #5, 1000.000000000000000 ) ;
#384 = AXIS2_PLACEMENT_3D ( 'NONE', #83, #193, #585 ) ;
#385 = EDGE_CURVE ( 'NONE', #140, #664, #88, .T. ) ;
#386 = DIRECTION ( 'NONE',  ( -1.000000000000000000, 0.000000000000000000, 0.000000000000000000 ) ) ;
#387 = VERTEX_POINT ( 'NONE', #594 ) ;
#388 = DIRECTION ( 'NONE',  ( -1.000000000000000000, 0.000000000000000000, 0.000000000000000000 ) ) ;
#389 = ADVANCED_FACE ( 'NONE', ( #702 ), #135, .F. ) ;
#390 = CARTESIAN_POINT ( 'NONE',  ( -2.250000000000002220, -3.897114317029972241, 5.000000000000000000 ) ) ;
#391 = AXIS2_PLACEMENT_3D ( 'NONE', #355, #343, #349 ) ;
#392 = ORIENTED_EDGE ( 'NONE', *, *, #220, .T. ) ;
#393 = DIRECTION ( 'NONE',  ( -0.000000000000000000, -0.000000000000000000, -1.000000000000000000 ) ) ;
#394 = AXIS2_PLACEMENT_3D ( 'NONE', #425, #419, #253 ) ;
#395 = CARTESIAN_POINT ( 'NONE',  ( 0.000000000000000000, 0.000000000000000000, -3.000000000000000000 ) ) ;
#396 = ADVANCED_FACE ( 'NONE', ( #258 ), #484, .F. ) ;
#397 = ORIENTED_EDGE ( 'NONE', *, *, #704, .T. ) ;
#398 = AXIS2_PLACEMENT_3D ( 'NONE', #283, #61, #182 ) ;
#399 = CARTESIAN_POINT ( 'NONE',  ( -2.249999999999998224, 3.897114317029975350, 0.000000000000000000 ) ) ;
#400 = PRESENTATION_STYLE_ASSIGNMENT (( #292 ) ) ;
#401 = ADVANCED_BREP_SHAPE_REPRESENTATION ( '\X2\592787ba6bcd\X0\A', ( #241, #154 ), #277 ) ;
#402 = ORIENTED_EDGE ( 'NONE', *, *, #685, .F. ) ;
#403 = FACE_OUTER_BOUND ( 'NONE', #29, .T. ) ;
#404 = ORIENTED_EDGE ( 'NONE', *, *, #204, .F. ) ;
#405 = CARTESIAN_POINT ( 'NONE',  ( 0.000000000000000000, 0.000000000000000000, 0.000000000000000000 ) ) ;
#406 = ORIENTED_EDGE ( 'NONE', *, *, #62, .F. ) ;
#407 = CARTESIAN_POINT ( 'NONE',  ( 0.000000000000000000, 0.000000000000000000, 0.000000000000000000 ) ) ;
#408 = VECTOR ( 'NONE', #44, 1000.000000000000000 ) ;
#409 = DIRECTION ( 'NONE',  ( 1.000000000000000000, 0.000000000000000000, 0.000000000000000000 ) ) ;
#410 = ORIENTED_EDGE ( 'NONE', *, *, #240, .F. ) ;
#411 = DIRECTION ( 'NONE',  ( -1.000000000000000000, 0.000000000000000000, 0.000000000000000000 ) ) ;
#412 = VECTOR ( 'NONE', #707, 1000.000000000000000 ) ;
#413 = DIRECTION ( 'NONE',  ( 1.000000000000000000, 0.000000000000000000, 0.000000000000000000 ) ) ;
#414 = DIRECTION ( 'NONE',  ( 0.000000000000000000, 0.000000000000000000, -1.000000000000000000 ) ) ;
#415 = EDGE_CURVE ( 'NONE', #478, #234, #481, .T. ) ;
#416 = CYLINDRICAL_SURFACE ( 'NONE', #642, 18.99999999999998934 ) ;
#417 = CARTESIAN_POINT ( 'NONE',  ( -7.540619520721824287, 7.328320560927242155, 22.00000000000000000 ) ) ;
#418 = ORIENTED_EDGE ( 'NONE', *, *, #122, .F. ) ;
#419 = DIRECTION ( 'NONE',  ( 0.000000000000000000, 0.000000000000000000, -1.000000000000000000 ) ) ;
#420 = ORIENTED_EDGE ( 'NONE', *, *, #317, .T. ) ;
#421 = DIRECTION ( 'NONE',  ( 0.000000000000000000, 0.000000000000000000, -1.000000000000000000 ) ) ;
#422 = AXIS2_PLACEMENT_3D ( 'NONE', #362, #540, #203 ) ;
#423 = EDGE_LOOP ( 'NONE', ( #410, #503, #433, #333 ) ) ;
#424 = CIRCLE ( 'NONE', #521, 15.05499999999999972 ) ;
#425 = CARTESIAN_POINT ( 'NONE',  ( 0.000000000000000000, 0.000000000000000000, -3.000000000000000000 ) ) ;
#426 = ADVANCED_FACE ( 'NONE', ( #529 ), #537, .F. ) ;
#427 = DIRECTION ( 'NONE',  ( 0.000000000000000000, 0.000000000000000000, -1.000000000000000000 ) ) ;
#428 = ORIENTED_EDGE ( 'NONE', *, *, #646, .T. ) ;
#429 = CARTESIAN_POINT ( 'NONE',  ( -2.249999999999998224, 3.897114317029975350, 5.000000000000000000 ) ) ;
#430 = DIRECTION ( 'NONE',  ( 0.000000000000000000, 0.000000000000000000, -1.000000000000000000 ) ) ;
#431 = CIRCLE ( 'NONE', #208, 1.649999999999999911 ) ;
#432 = AXIS2_PLACEMENT_3D ( 'NONE', #52, #274, #497 ) ;
#433 = ORIENTED_EDGE ( 'NONE', *, *, #671, .F. ) ;
#434 = CARTESIAN_POINT ( 'NONE',  ( 6.150000000000000355, -3.490243377569954582E-16, 5.000000000000000000 ) ) ;
#435 = CARTESIAN_POINT ( 'NONE',  ( -3.900000000000002576, -3.897114317029972241, 0.000000000000000000 ) ) ;
#436 = EDGE_LOOP ( 'NONE', ( #22, #97, #573, #402 ) ) ;
#437 = LINE ( 'NONE', #548, #296 ) ;
#438 = EDGE_CURVE ( 'NONE', #350, #373, #583, .T. ) ;
#439 = LINE ( 'NONE', #155, #412 ) ;
#440 = ORIENTED_EDGE ( 'NONE', *, *, #679, .F. ) ;
#441 = CYLINDRICAL_SURFACE ( 'NONE', #449, 15.05499999999999972 ) ;
#442 = EDGE_CURVE ( 'NONE', #234, #373, #375, .T. ) ;
#443 = CIRCLE ( 'NONE', #68, 15.05499999999999972 ) ;
#444 = CARTESIAN_POINT ( 'NONE',  ( -15.99000000000000021, 0.000000000000000000, 12.00000000000000000 ) ) ;
#445 = ORIENTED_EDGE ( 'NONE', *, *, #126, .F. ) ;
#446 = DIRECTION ( 'NONE',  ( 0.000000000000000000, 0.000000000000000000, -1.000000000000000000 ) ) ;
#447 = EDGE_LOOP ( 'NONE', ( #172, #45 ) ) ;
#448 = DIRECTION ( 'NONE',  ( 0.000000000000000000, 0.000000000000000000, -1.000000000000000000 ) ) ;
#449 = AXIS2_PLACEMENT_3D ( 'NONE', #488, #393, #169 ) ;
#450 = DIRECTION ( 'NONE',  ( -1.000000000000000000, 0.000000000000000000, 0.000000000000000000 ) ) ;
#451 = EDGE_LOOP ( 'NONE', ( #418, #678, #494, #631 ) ) ;
#452 = LINE ( 'NONE', #228, #587 ) ;
#453 =( LENGTH_UNIT ( ) NAMED_UNIT ( * ) SI_UNIT ( .MILLI., .METRE. ) );
#454 = ORIENTED_EDGE ( 'NONE', *, *, #23, .F. ) ;
#455 = ORIENTED_EDGE ( 'NONE', *, *, #603, .F. ) ;
#456 = AXIS2_PLACEMENT_3D ( 'NONE', #695, #480, #199 ) ;
#457 = ADVANCED_FACE ( 'NONE', ( #316 ), #416, .T. ) ;
#458 = ORIENTED_EDGE ( 'NONE', *, *, #62, .T. ) ;
#459 = CARTESIAN_POINT ( 'NONE',  ( 0.000000000000000000, 0.000000000000000000, 12.00000000000000000 ) ) ;
#460 = CIRCLE ( 'NONE', #524, 15.99000000000000021 ) ;
#461 = PLANE ( 'NONE',  #391 ) ;
#462 = ADVANCED_FACE ( 'NONE', ( #580, #84, #248, #477 ), #306, .F. ) ;
#463 = FACE_OUTER_BOUND ( 'NONE', #487, .T. ) ;
#464 = EDGE_LOOP ( 'NONE', ( #74, #341, #458, #33 ) ) ;
#465 = DIRECTION ( 'NONE',  ( 0.000000000000000000, 0.000000000000000000, -1.000000000000000000 ) ) ;
#466 = EDGE_CURVE ( 'NONE', #660, #620, #705, .T. ) ;
#467 = DIRECTION ( 'NONE',  ( 0.000000000000000000, 0.000000000000000000, -1.000000000000000000 ) ) ;
#468 = DIRECTION ( 'NONE',  ( 0.000000000000000000, 0.000000000000000000, -1.000000000000000000 ) ) ;
#469 = ORIENTED_EDGE ( 'NONE', *, *, #183, .F. ) ;
#470 = DIRECTION ( 'NONE',  ( -1.000000000000000000, 0.000000000000000000, 0.000000000000000000 ) ) ;
#471 = EDGE_LOOP ( 'NONE', ( #238, #612, #10, #311 ) ) ;
#472 = CARTESIAN_POINT ( 'NONE',  ( 0.000000000000000000, 0.000000000000000000, 20.00000000000000000 ) ) ;
#473 = CARTESIAN_POINT ( 'NONE',  ( -0.5999999999999978684, 3.897114317029975350, 5.000000000000000000 ) ) ;
#474 = CIRCLE ( 'NONE', #287, 15.05499999999999972 ) ;
#475 = ORIENTED_EDGE ( 'NONE', *, *, #108, .T. ) ;
#476 = EDGE_CURVE ( 'NONE', #369, #686, #610, .T. ) ;
#477 = FACE_OUTER_BOUND ( 'NONE', #423, .T. ) ;
#478 = VERTEX_POINT ( 'NONE', #194 ) ;
#479 = ORIENTED_EDGE ( 'NONE', *, *, #86, .T. ) ;
#480 = DIRECTION ( 'NONE',  ( -0.000000000000000000, -0.000000000000000000, -1.000000000000000000 ) ) ;
#481 = CIRCLE ( 'NONE', #196, 15.99000000000000021 ) ;
#482 = CARTESIAN_POINT ( 'NONE',  ( 0.000000000000000000, -7.328320560927243932, 5.000000000000000000 ) ) ;
#483 = CIRCLE ( 'NONE', #223, 1.649999999999999911 ) ;
#484 = PLANE ( 'NONE',  #422 ) ;
#485 = CIRCLE ( 'NONE', #236, 15.99000000000000021 ) ;
#486 = LINE ( 'NONE', #482, #21 ) ;
#487 = EDGE_LOOP ( 'NONE', ( #397, #357, #147, #428 ) ) ;
#488 = CARTESIAN_POINT ( 'NONE',  ( 0.000000000000000000, 0.000000000000000000, 20.00000000000000000 ) ) ;
#489 = PRODUCT ( '\X2\592787ba6bcd\X0\A', '\X2\592787ba6bcd\X0\A', '', ( #342 ) ) ;
#490 = CARTESIAN_POINT ( 'NONE',  ( 10.51500000000000057, 1.287716109303441795E-15, -3.000000000000000000 ) ) ;
#491 = ORIENTED_EDGE ( 'NONE', *, *, #712, .T. ) ;
#492 = DIRECTION ( 'NONE',  ( -0.000000000000000000, -0.000000000000000000, -1.000000000000000000 ) ) ;
#493 = CARTESIAN_POINT ( 'NONE',  ( -2.250000000000002220, -3.897114317029972241, 5.000000000000000000 ) ) ;
#494 = ORIENTED_EDGE ( 'NONE', *, *, #516, .T. ) ;
#495 = PLANE ( 'NONE',  #39 ) ;
#496 = AXIS2_PLACEMENT_3D ( 'NONE', #629, #624, #411 ) ;
#497 = DIRECTION ( 'NONE',  ( -1.000000000000000000, 0.000000000000000000, 0.000000000000000000 ) ) ;
#498 = ORIENTED_EDGE ( 'NONE', *, *, #34, .F. ) ;
#499 = DIRECTION ( 'NONE',  ( -1.000000000000000000, 0.000000000000000000, 0.000000000000000000 ) ) ;
#500 = CIRCLE ( 'NONE', #158, 10.51500000000000057 ) ;
#501 = ADVANCED_FACE ( 'NONE', ( #137 ), #36, .F. ) ;
#502 = FACE_OUTER_BOUND ( 'NONE', #699, .T. ) ;
#503 = ORIENTED_EDGE ( 'NONE', *, *, #126, .T. ) ;
#504 = DIRECTION ( 'NONE',  ( 1.000000000000000000, 0.000000000000000000, 0.000000000000000000 ) ) ;
#505 = CARTESIAN_POINT ( 'NONE',  ( 0.000000000000000000, 0.000000000000000000, 22.00000000000000000 ) ) ;
#506 = ORIENTED_EDGE ( 'NONE', *, *, #516, .F. ) ;
#507 = CARTESIAN_POINT ( 'NONE',  ( 2.849999999999999201, -5.510910596163087583E-16, 5.000000000000000000 ) ) ;
#508 = LINE ( 'NONE', #627, #533 ) ;
#509 = EDGE_LOOP ( 'NONE', ( #70, #353, #221, #506 ) ) ;
#510 = CARTESIAN_POINT ( 'NONE',  ( 4.500000000000000000, -5.510910596163087583E-16, 5.000000000000000000 ) ) ;
#511 = VECTOR ( 'NONE', #90, 1000.000000000000000 ) ;
#512 = EDGE_CURVE ( 'NONE', #667, #653, #542, .T. ) ;
#513 = EDGE_LOOP ( 'NONE', ( #244, #175 ) ) ;
#514 = SHAPE_DEFINITION_REPRESENTATION ( #669, #401 ) ;
#515 = DIRECTION ( 'NONE',  ( 0.000000000000000000, 0.000000000000000000, 1.000000000000000000 ) ) ;
#516 = EDGE_CURVE ( 'NONE', #577, #53, #437, .T. ) ;
#517 = ORIENTED_EDGE ( 'NONE', *, *, #275, .F. ) ;
#518 = CARTESIAN_POINT ( 'NONE',  ( -10.51500000000000057, 0.000000000000000000, -3.000000000000000000 ) ) ;
#519 = AXIS2_PLACEMENT_3D ( 'NONE', #364, #85, #32 ) ;
#520 = CARTESIAN_POINT ( 'NONE',  ( 18.99999999999998934, 2.326828918379969787E-15, 53.74011537017757689 ) ) ;
#521 = AXIS2_PLACEMENT_3D ( 'NONE', #323, #606, #504 ) ;
#522 = DIRECTION ( 'NONE',  ( 0.000000000000000000, 0.000000000000000000, 1.000000000000000000 ) ) ;
#523 = ORIENTED_EDGE ( 'NONE', *, *, #251, .F. ) ;
#524 = AXIS2_PLACEMENT_3D ( 'NONE', #165, #71, #575 ) ;
#525 = ORIENTED_EDGE ( 'NONE', *, *, #176, .T. ) ;
#526 = ORIENTED_EDGE ( 'NONE', *, *, #370, .T. ) ;
#527 = VECTOR ( 'NONE', #427, 1000.000000000000000 ) ;
#528 = VERTEX_POINT ( 'NONE', #212 ) ;
#529 = FACE_OUTER_BOUND ( 'NONE', #509, .T. ) ;
#530 = PLANE ( 'NONE',  #344 ) ;
#531 = CARTESIAN_POINT ( 'NONE',  ( 0.000000000000000000, 0.000000000000000000, 53.74011537017757689 ) ) ;
#532 = CARTESIAN_POINT ( 'NONE',  ( -15.99000000000000021, 0.000000000000000000, 12.00000000000000000 ) ) ;
#533 = VECTOR ( 'NONE', #9, 1000.000000000000000 ) ;
#534 = APPLICATION_CONTEXT ( 'automotive_design' ) ;
#535 = ORIENTED_EDGE ( 'NONE', *, *, #442, .F. ) ;
#536 = ADVANCED_FACE ( 'NONE', ( #561, #50 ), #611, .T. ) ;
#537 = CYLINDRICAL_SURFACE ( 'NONE', #271, 1.649999999999999911 ) ;
#538 = FACE_OUTER_BOUND ( 'NONE', #597, .T. ) ;
#539 = VERTEX_POINT ( 'NONE', #657 ) ;
#540 = DIRECTION ( 'NONE',  ( -1.000000000000000000, 0.000000000000000000, 0.000000000000000000 ) ) ;
#541 = DIRECTION ( 'NONE',  ( -1.000000000000000000, 0.000000000000000000, 0.000000000000000000 ) ) ;
#542 = CIRCLE ( 'NONE', #76, 1.650000000000000355 ) ;
#543 = ORIENTED_EDGE ( 'NONE', *, *, #240, .T. ) ;
#544 = CARTESIAN_POINT ( 'NONE',  ( -15.99000000000000021, 0.000000000000000000, 0.000000000000000000 ) ) ;
#545 = EDGE_CURVE ( 'NONE', #53, #539, #483, .T. ) ;
#546 = DIRECTION ( 'NONE',  ( 0.000000000000000000, 0.000000000000000000, -1.000000000000000000 ) ) ;
#547 = ORIENTED_EDGE ( 'NONE', *, *, #275, .T. ) ;
#548 = CARTESIAN_POINT ( 'NONE',  ( -3.899999999999998135, 3.897114317029975350, 5.000000000000000000 ) ) ;
#549 = APPLICATION_CONTEXT ( 'automotive_design' ) ;
#550 = FACE_OUTER_BOUND ( 'NONE', #451, .T. ) ;
#551 = DIRECTION ( 'NONE',  ( -1.000000000000000000, 0.000000000000000000, 0.000000000000000000 ) ) ;
#552 = EDGE_LOOP ( 'NONE', ( #42, #168, #297, #605 ) ) ;
#553 = CARTESIAN_POINT ( 'NONE',  ( -7.540619520721822511, -7.328320560927243932, 5.000000000000000000 ) ) ;
#554 = CARTESIAN_POINT ( 'NONE',  ( 0.000000000000000000, 0.000000000000000000, 20.00000000000000000 ) ) ;
#555 = VECTOR ( 'NONE', #91, 1000.000000000000000 ) ;
#556 = DIRECTION ( 'NONE',  ( 0.000000000000000000, 0.000000000000000000, -1.000000000000000000 ) ) ;
#557 = ORIENTED_EDGE ( 'NONE', *, *, #652, .F. ) ;
#558 = FACE_OUTER_BOUND ( 'NONE', #623, .T. ) ;
#559 = CARTESIAN_POINT ( 'NONE',  ( 15.05499999999999972, 1.843705756116340054E-15, 12.00000000000000000 ) ) ;
#560 = ORIENTED_EDGE ( 'NONE', *, *, #176, .F. ) ;
#561 = FACE_OUTER_BOUND ( 'NONE', #727, .T. ) ;
#562 = ORIENTED_EDGE ( 'NONE', *, *, #679, .T. ) ;
#563 = AXIS2_PLACEMENT_3D ( 'NONE', #493, #600, #659 ) ;
#564 = VECTOR ( 'NONE', #591, 1000.000000000000000 ) ;
#565 = CARTESIAN_POINT ( 'NONE',  ( -10.51500000000000057, 0.000000000000000000, 20.00000000000000000 ) ) ;
#566 = ORIENTED_EDGE ( 'NONE', *, *, #592, .F. ) ;
#567 = ORIENTED_EDGE ( 'NONE', *, *, #626, .F. ) ;
#568 = CYLINDRICAL_SURFACE ( 'NONE', #496, 1.650000000000000355 ) ;
#569 = VECTOR ( 'NONE', #16, 1000.000000000000000 ) ;
#570 = ADVANCED_FACE ( 'NONE', ( #558 ), #441, .T. ) ;
#571 = ORIENTED_EDGE ( 'NONE', *, *, #599, .T. ) ;
#572 = CARTESIAN_POINT ( 'NONE',  ( 18.99999999999998934, 2.326828918379969787E-15, 0.000000000000000000 ) ) ;
#573 = ORIENTED_EDGE ( 'NONE', *, *, #584, .F. ) ;
#574 = EDGE_CURVE ( 'NONE', #620, #60, #57, .T. ) ;
#575 = DIRECTION ( 'NONE',  ( -1.000000000000000000, 0.000000000000000000, 0.000000000000000000 ) ) ;
#576 = AXIS2_PLACEMENT_3D ( 'NONE', #661, #602, #115 ) ;
#577 = VERTEX_POINT ( 'NONE', #268 ) ;
#578 = CARTESIAN_POINT ( 'NONE',  ( -2.250000000000002220, -3.897114317029972241, 5.000000000000000000 ) ) ;
#579 = ORIENTED_EDGE ( 'NONE', *, *, #599, .F. ) ;
#580 = FACE_BOUND ( 'NONE', #717, .T. ) ;
#581 = CARTESIAN_POINT ( 'NONE',  ( -15.05499999999999972, 0.000000000000000000, 12.00000000000000000 ) ) ;
#582 = DIRECTION ( 'NONE',  ( 0.000000000000000000, 0.000000000000000000, -1.000000000000000000 ) ) ;
#583 = CIRCLE ( 'NONE', #677, 15.99000000000000021 ) ;
#584 = EDGE_CURVE ( 'NONE', #672, #60, #167, .T. ) ;
#585 = DIRECTION ( 'NONE',  ( -1.000000000000000000, 0.000000000000000000, 0.000000000000000000 ) ) ;
#586 = CYLINDRICAL_SURFACE ( 'NONE', #326, 15.05499999999999972 ) ;
#587 = VECTOR ( 'NONE', #239, 1000.000000000000000 ) ;
#588 = DIRECTION ( 'NONE',  ( -0.000000000000000000, -0.000000000000000000, -1.000000000000000000 ) ) ;
#589 = VERTEX_POINT ( 'NONE', #553 ) ;
#590 = DIRECTION ( 'NONE',  ( -0.000000000000000000, -0.000000000000000000, -1.000000000000000000 ) ) ;
#591 = DIRECTION ( 'NONE',  ( 0.000000000000000000, 0.000000000000000000, -1.000000000000000000 ) ) ;
#592 = EDGE_CURVE ( 'NONE', #539, #53, #15, .T. ) ;
#593 = VERTEX_POINT ( 'NONE', #102 ) ;
#594 = CARTESIAN_POINT ( 'NONE',  ( -9.064999999999997726, -7.328320560927243932, 22.00000000000000000 ) ) ;
#595 = EDGE_CURVE ( 'NONE', #6, #276, #424, .T. ) ;
#596 = CARTESIAN_POINT ( 'NONE',  ( 2.849999999999999201, -5.510910596163087583E-16, 0.000000000000000000 ) ) ;
#597 = EDGE_LOOP ( 'NONE', ( #525, #262, #445, #224 ) ) ;
#598 = CARTESIAN_POINT ( 'NONE',  ( -2.249999999999998224, 3.897114317029975350, 0.000000000000000000 ) ) ;
#599 = EDGE_CURVE ( 'NONE', #667, #722, #715, .T. ) ;
#600 = DIRECTION ( 'NONE',  ( 0.000000000000000000, 0.000000000000000000, -1.000000000000000000 ) ) ;
#601 = EDGE_LOOP ( 'NONE', ( #164, #420 ) ) ;
#602 = DIRECTION ( 'NONE',  ( -0.000000000000000000, -0.000000000000000000, 1.000000000000000000 ) ) ;
#603 = EDGE_CURVE ( 'NONE', #714, #6, #379, .T. ) ;
#604 = LINE ( 'NONE', #647, #617 ) ;
#605 = ORIENTED_EDGE ( 'NONE', *, *, #652, .T. ) ;
#606 = DIRECTION ( 'NONE',  ( 0.000000000000000000, 0.000000000000000000, 1.000000000000000000 ) ) ;
#607 = VECTOR ( 'NONE', #708, 1000.000000000000000 ) ;
#608 = CARTESIAN_POINT ( 'NONE',  ( 0.000000000000000000, 0.000000000000000000, 0.000000000000000000 ) ) ;
#609 = EDGE_LOOP ( 'NONE', ( #120, #64, #547, #267 ) ) ;
#610 = CIRCLE ( 'NONE', #394, 18.99999999999998934 ) ;
#611 = PLANE ( 'NONE',  #329 ) ;
#612 = ORIENTED_EDGE ( 'NONE', *, *, #466, .F. ) ;
#613 = DIRECTION ( 'NONE',  ( -0.000000000000000000, -0.000000000000000000, -1.000000000000000000 ) ) ;
#614 = FACE_BOUND ( 'NONE', #117, .T. ) ;
#615 = VERTEX_POINT ( 'NONE', #207 ) ;
#616 = AXIS2_PLACEMENT_3D ( 'NONE', #163, #314, #107 ) ;
#617 = VECTOR ( 'NONE', #103, 1000.000000000000000 ) ;
#618 = ADVANCED_FACE ( 'NONE', ( #731, #222 ), #495, .F. ) ;
#619 = DIRECTION ( 'NONE',  ( -0.000000000000000000, -0.000000000000000000, 1.000000000000000000 ) ) ;
#620 = VERTEX_POINT ( 'NONE', #723 ) ;
#621 = DIRECTION ( 'NONE',  ( 1.000000000000000000, 0.000000000000000000, 0.000000000000000000 ) ) ;
#622 = FACE_BOUND ( 'NONE', #513, .T. ) ;
#623 = EDGE_LOOP ( 'NONE', ( #49, #628, #109, #455 ) ) ;
#624 = DIRECTION ( 'NONE',  ( 0.000000000000000000, 0.000000000000000000, -1.000000000000000000 ) ) ;
#625 = AXIS2_PLACEMENT_3D ( 'NONE', #395, #670, #171 ) ;
#626 = EDGE_CURVE ( 'NONE', #653, #114, #215, .T. ) ;
#627 = CARTESIAN_POINT ( 'NONE',  ( -18.99999999999998934, 0.000000000000000000, 53.74011537017757689 ) ) ;
#628 = ORIENTED_EDGE ( 'NONE', *, *, #58, .T. ) ;
#629 = CARTESIAN_POINT ( 'NONE',  ( 4.500000000000000000, -5.510910596163087583E-16, 5.000000000000000000 ) ) ;
#630 = CIRCLE ( 'NONE', #149, 18.99999999999998934 ) ;
#631 = ORIENTED_EDGE ( 'NONE', *, *, #545, .T. ) ;
#632 = VECTOR ( 'NONE', #654, 1000.000000000000000 ) ;
#633 = FACE_OUTER_BOUND ( 'NONE', #471, .T. ) ;
#634 = DIRECTION ( 'NONE',  ( -1.000000000000000000, 0.000000000000000000, 0.000000000000000000 ) ) ;
#635 = ORIENTED_EDGE ( 'NONE', *, *, #294, .T. ) ;
#636 = CARTESIAN_POINT ( 'NONE',  ( -0.6000000000000021982, -3.897114317029972241, 0.000000000000000000 ) ) ;
#637 = ADVANCED_FACE ( 'NONE', ( #54 ), #668, .T. ) ;
#638 = PRODUCT_DEFINITION ( 'æ™', '', #340, #170 ) ;
#639 = VERTEX_POINT ( 'NONE', #728 ) ;
#640 = VERTEX_POINT ( 'NONE', #153 ) ;
#641 = DIRECTION ( 'NONE',  ( -1.000000000000000000, 0.000000000000000000, 0.000000000000000000 ) ) ;
#642 = AXIS2_PLACEMENT_3D ( 'NONE', #303, #144, #634 ) ;
#643 = AXIS2_PLACEMENT_3D ( 'NONE', #399, #273, #332 ) ;
#644 = LINE ( 'NONE', #142, #511 ) ;
#645 = CARTESIAN_POINT ( 'NONE',  ( 4.500000000000000000, -5.510910596163087583E-16, 5.000000000000000000 ) ) ;
#646 = EDGE_CURVE ( 'NONE', #528, #337, #179, .T. ) ;
#647 = CARTESIAN_POINT ( 'NONE',  ( 0.000000000000000000, -7.328320560927243932, 22.00000000000000000 ) ) ;
#648 = ORIENTED_EDGE ( 'NONE', *, *, #113, .T. ) ;
#649 = CARTESIAN_POINT ( 'NONE',  ( -0.000000000000000000, 7.328320560927242155, 5.000000000000000000 ) ) ;
#650 = CIRCLE ( 'NONE', #92, 18.99999999999998934 ) ;
#651 = CARTESIAN_POINT ( 'NONE',  ( -7.540619520721822511, -7.328320560927243932, 24.51470392802102083 ) ) ;
#652 = EDGE_CURVE ( 'NONE', #373, #350, #460, .T. ) ;
#653 = VERTEX_POINT ( 'NONE', #507 ) ;
#654 = DIRECTION ( 'NONE',  ( 0.000000000000000000, 0.000000000000000000, -1.000000000000000000 ) ) ;
#655 = CYLINDRICAL_SURFACE ( 'NONE', #563, 1.649999999999999911 ) ;
#656 = EDGE_LOOP ( 'NONE', ( #104, #648 ) ) ;
#657 = CARTESIAN_POINT ( 'NONE',  ( -0.5999999999999978684, 3.897114317029975350, 0.000000000000000000 ) ) ;
#658 = AXIS2_PLACEMENT_3D ( 'NONE', #217, #96, #266 ) ;
#659 = DIRECTION ( 'NONE',  ( -1.000000000000000000, 0.000000000000000000, 0.000000000000000000 ) ) ;
#660 = VERTEX_POINT ( 'NONE', #3 ) ;
#661 = CARTESIAN_POINT ( 'NONE',  ( 0.000000000000000000, 0.000000000000000000, -3.000000000000000000 ) ) ;
#662 = EDGE_CURVE ( 'NONE', #653, #667, #202, .T. ) ;
#663 = DIRECTION ( 'NONE',  ( -1.000000000000000000, 0.000000000000000000, 0.000000000000000000 ) ) ;
#664 = VERTEX_POINT ( 'NONE', #65 ) ;
#665 = DIRECTION ( 'NONE',  ( 1.000000000000000000, 0.000000000000000000, 0.000000000000000000 ) ) ;
#666 = SURFACE_STYLE_FILL_AREA ( #680 ) ;
#667 = VERTEX_POINT ( 'NONE', #178 ) ;
#668 = CYLINDRICAL_SURFACE ( 'NONE', #299, 15.99000000000000021 ) ;
#669 = PRODUCT_DEFINITION_SHAPE ( 'NONE', 'NONE',  #638 ) ;
#670 = DIRECTION ( 'NONE',  ( 0.000000000000000000, 0.000000000000000000, -1.000000000000000000 ) ) ;
#671 = EDGE_CURVE ( 'NONE', #664, #589, #681, .T. ) ;
#672 = VERTEX_POINT ( 'NONE', #518 ) ;
#673 = CARTESIAN_POINT ( 'NONE',  ( -15.05499999999999972, 0.000000000000000000, 22.00000000000000000 ) ) ;
#674 = DIRECTION ( 'NONE',  ( 0.000000000000000000, 0.000000000000000000, 1.000000000000000000 ) ) ;
#675 = ORIENTED_EDGE ( 'NONE', *, *, #385, .T. ) ;
#676 =( NAMED_UNIT ( * ) PLANE_ANGLE_UNIT ( ) SI_UNIT ( $, .RADIAN. ) );
#677 = AXIS2_PLACEMENT_3D ( 'NONE', #95, #26, #245 ) ;
#678 = ORIENTED_EDGE ( 'NONE', *, *, #69, .F. ) ;
#679 = EDGE_CURVE ( 'NONE', #387, #640, #687, .T. ) ;
#680 = FILL_AREA_STYLE ('',( #123 ) ) ;
#681 = CIRCLE ( 'NONE', #398, 10.51500000000000057 ) ;
#682 = VERTEX_POINT ( 'NONE', #572 ) ;
#683 = LINE ( 'NONE', #565, #77 ) ;
#684 = MECHANICAL_DESIGN_GEOMETRIC_PRESENTATION_REPRESENTATION (  '', ( #31 ), #216 ) ;
#685 = EDGE_CURVE ( 'NONE', #660, #672, #683, .T. ) ;
#686 = VERTEX_POINT ( 'NONE', #295 ) ;
#687 = LINE ( 'NONE', #351, #331 ) ;
#688 = DIRECTION ( 'NONE',  ( -1.000000000000000000, 0.000000000000000000, 0.000000000000000000 ) ) ;
#689 = ORIENTED_EDGE ( 'NONE', *, *, #4, .F. ) ;
#690 = DIRECTION ( 'NONE',  ( 1.000000000000000000, 0.000000000000000000, 0.000000000000000000 ) ) ;
#691 = DIRECTION ( 'NONE',  ( 0.000000000000000000, 0.000000000000000000, -1.000000000000000000 ) ) ;
#692 = CARTESIAN_POINT ( 'NONE',  ( 0.000000000000000000, 0.000000000000000000, 12.00000000000000000 ) ) ;
#693 = EDGE_CURVE ( 'NONE', #620, #660, #17, .T. ) ;
#694 = ORIENTED_EDGE ( 'NONE', *, *, #662, .T. ) ;
#695 = CARTESIAN_POINT ( 'NONE',  ( 0.000000000000000000, 0.000000000000000000, 20.00000000000000000 ) ) ;
#696 = AXIS2_PLACEMENT_3D ( 'NONE', #505, #674, #409 ) ;
#697 = AXIS2_PLACEMENT_3D ( 'NONE', #531, #468, #18 ) ;
#698 = FACE_OUTER_BOUND ( 'NONE', #101, .T. ) ;
#699 = EDGE_LOOP ( 'NONE', ( #280, #479 ) ) ;
#700 = FACE_OUTER_BOUND ( 'NONE', #181, .T. ) ;
#701 = DIRECTION ( 'NONE',  ( -1.000000000000000000, 0.000000000000000000, 0.000000000000000000 ) ) ;
#702 = FACE_OUTER_BOUND ( 'NONE', #436, .T. ) ;
#703 = VECTOR ( 'NONE', #465, 1000.000000000000000 ) ;
#704 = EDGE_CURVE ( 'NONE', #337, #664, #452, .T. ) ;
#705 = CIRCLE ( 'NONE', #233, 10.51500000000000057 ) ;
#706 = FACE_BOUND ( 'NONE', #322, .T. ) ;
#707 = DIRECTION ( 'NONE',  ( 0.000000000000000000, 0.000000000000000000, -1.000000000000000000 ) ) ;
#708 = DIRECTION ( 'NONE',  ( -0.000000000000000000, -0.000000000000000000, -1.000000000000000000 ) ) ;
#709 = AXIS2_PLACEMENT_3D ( 'NONE', #510, #225, #173 ) ;
#710 = EDGE_CURVE ( 'NONE', #593, #682, #367, .T. ) ;
#711 = FACE_OUTER_BOUND ( 'NONE', #20, .T. ) ;
#712 = EDGE_CURVE ( 'NONE', #234, #478, #485, .T. ) ;
#713 = CARTESIAN_POINT ( 'NONE',  ( 4.500000000000000000, -5.510910596163087583E-16, 0.000000000000000000 ) ) ;
#714 = VERTEX_POINT ( 'NONE', #673 ) ;
#715 = LINE ( 'NONE', #434, #200 ) ;
#716 = LINE ( 'NONE', #318, #408 ) ;
#717 = EDGE_LOOP ( 'NONE', ( #694, #230 ) ) ;
#718 = DIRECTION ( 'NONE',  ( 1.000000000000000000, 0.000000000000000000, -0.000000000000000000 ) ) ;
#719 = FACE_BOUND ( 'NONE', #152, .T. ) ;
#720 = CYLINDRICAL_SURFACE ( 'NONE', #184, 1.649999999999999911 ) ;
#721 = ADVANCED_FACE ( 'NONE', ( #403 ), #568, .F. ) ;
#722 = VERTEX_POINT ( 'NONE', #75 ) ;
#723 = CARTESIAN_POINT ( 'NONE',  ( 10.51500000000000057, 1.287716109303441795E-15, 0.000000000000000000 ) ) ;
#724 = DIRECTION ( 'NONE',  ( -1.000000000000000000, 0.000000000000000000, 0.000000000000000000 ) ) ;
#725 = AXIS2_PLACEMENT_3D ( 'NONE', #249, #467, #688 ) ;
#726 = CARTESIAN_POINT ( 'NONE',  ( -2.250000000000002220, -3.897114317029972241, 0.000000000000000000 ) ) ;
#727 = EDGE_LOOP ( 'NONE', ( #491, #187 ) ) ;
#728 = CARTESIAN_POINT ( 'NONE',  ( -0.6000000000000021982, -3.897114317029972241, 5.000000000000000000 ) ) ;
#729 = PLANE ( 'NONE',  #625 ) ;
#730 = ORIENTED_EDGE ( 'NONE', *, *, #704, .F. ) ;
#731 = FACE_BOUND ( 'NONE', #206, .T. ) ;
ENDSEC;
END-ISO-10303-21;
