ISO-10303-21;
HEADER;
FILE_DESCRIPTION (( 'STEP AP214' ),
    '1' );
FILE_NAME ('小头杯头内六角3x4A.STEP',
    '2026-08-16T17:26:59',
    ( '' ),
    ( '' ),
    'SwSTEP 2.0',
    'SolidWorks 2025',
    '' );
FILE_SCHEMA (( 'AUTOMOTIVE_DESIGN' ));
ENDSEC;

DATA;
#1 = ORIENTED_EDGE ( 'NONE', *, *, #109, .T. ) ;
#2 = ORIENTED_EDGE ( 'NONE', *, *, #27, .T. ) ;
#3 = VECTOR ( 'NONE', #141, 1000.000000000000000 ) ;
#4 = DIRECTION ( 'NONE',  ( 0.000000000000000000, 1.000000000000000000, 0.000000000000000000 ) ) ;
#5 = ORIENTED_EDGE ( 'NONE', *, *, #102, .T. ) ;
#6 = AXIS2_PLACEMENT_3D ( 'NONE', #65, #166, #54 ) ;
#7 = FILL_AREA_STYLE ('',( #55 ) ) ;
#8 = LINE ( 'NONE', #180, #76 ) ;
#9 = ORIENTED_EDGE ( 'NONE', *, *, #27, .F. ) ;
#10 = DIRECTION ( 'NONE',  ( 0.000000000000000000, 0.000000000000000000, -1.000000000000000000 ) ) ;
#11 = DIRECTION ( 'NONE',  ( 0.000000000000000000, 1.000000000000000000, 0.000000000000000000 ) ) ;
#12 = PRODUCT_RELATED_PRODUCT_CATEGORY ( 'part', '', ( #154 ) ) ;
#13 = PLANE ( 'NONE',  #42 ) ;
#14 = EDGE_CURVE ( 'NONE', #18, #159, #93, .T. ) ;
#15 = MECHANICAL_DESIGN_GEOMETRIC_PRESENTATION_REPRESENTATION (  '', ( #28 ), #124 ) ;
#16 = ORIENTED_EDGE ( 'NONE', *, *, #161, .F. ) ;
#17 = VERTEX_POINT ( 'NONE', #165 ) ;
#18 = VERTEX_POINT ( 'NONE', #136 ) ;
#19 = CARTESIAN_POINT ( 'NONE',  ( 0.000000000000000000, 7.000000000000000000, 0.000000000000000000 ) ) ;
#20 =( LENGTH_UNIT ( ) NAMED_UNIT ( * ) SI_UNIT ( .MILLI., .METRE. ) );
#21 = DIRECTION ( 'NONE',  ( 0.000000000000000000, 0.000000000000000000, -1.000000000000000000 ) ) ;
#22 = PRODUCT_DEFINITION_SHAPE ( 'NONE', 'NONE',  #50 ) ;
#23 =( LENGTH_UNIT ( ) NAMED_UNIT ( * ) SI_UNIT ( .MILLI., .METRE. ) );
#24 = CARTESIAN_POINT ( 'NONE',  ( 0.000000000000000000, 3.000000000000000000, 0.000000000000000000 ) ) ;
#25 = CARTESIAN_POINT ( 'NONE',  ( 0.000000000000000000, 7.000000000000000000, -1.500000000000000000 ) ) ;
#26 =( NAMED_UNIT ( * ) PLANE_ANGLE_UNIT ( ) SI_UNIT ( $, .RADIAN. ) );
#27 = EDGE_CURVE ( 'NONE', #45, #188, #147, .T. ) ;
#28 = STYLED_ITEM ( 'NONE', ( #103 ), #33 ) ;
#29 = EDGE_LOOP ( 'NONE', ( #75, #78 ) ) ;
#30 =( NAMED_UNIT ( * ) PLANE_ANGLE_UNIT ( ) SI_UNIT ( $, .RADIAN. ) );
#31 = CARTESIAN_POINT ( 'NONE',  ( 2.755455298081544778E-16, 3.000000000000000000, 2.250000000000000000 ) ) ;
#32 = DIRECTION ( 'NONE',  ( 0.000000000000000000, -1.000000000000000000, 0.000000000000000000 ) ) ;
#33 = MANIFOLD_SOLID_BREP ( 'NONE', #66 ) ;
#34 = CARTESIAN_POINT ( 'NONE',  ( 1.836970198721030181E-16, 7.000000000000000000, 1.500000000000000000 ) ) ;
#35 = DIRECTION ( 'NONE',  ( 0.000000000000000000, -1.000000000000000000, 0.000000000000000000 ) ) ;
#36 = APPLICATION_CONTEXT ( 'automotive_design' ) ;
#37 =( NAMED_UNIT ( * ) SI_UNIT ( $, .STERADIAN. ) SOLID_ANGLE_UNIT ( ) );
#38 = COLOUR_RGB ( '',0.7921568627450980005, 0.8196078431372548767, 0.9333333333333333481 ) ;
#39 = AXIS2_PLACEMENT_3D ( 'NONE', #44, #88, #151 ) ;
#40 = DIRECTION ( 'NONE',  ( -0.000000000000000000, 1.000000000000000000, 0.000000000000000000 ) ) ;
#41 = CARTESIAN_POINT ( 'NONE',  ( 0.000000000000000000, 3.000000000000000000, 0.000000000000000000 ) ) ;
#42 = AXIS2_PLACEMENT_3D ( 'NONE', #201, #170, #105 ) ;
#43 = CARTESIAN_POINT ( 'NONE',  ( 0.000000000000000000, 0.000000000000000000, 0.000000000000000000 ) ) ;
#44 = CARTESIAN_POINT ( 'NONE',  ( 0.000000000000000000, 0.000000000000000000, 0.000000000000000000 ) ) ;
#45 = VERTEX_POINT ( 'NONE', #34 ) ;
#46 = ORIENTED_EDGE ( 'NONE', *, *, #176, .T. ) ;
#47 = EDGE_LOOP ( 'NONE', ( #190, #191 ) ) ;
#48 = ADVANCED_FACE ( 'NONE', ( #72 ), #82, .T. ) ;
#49 = EDGE_LOOP ( 'NONE', ( #9, #1, #64, #63 ) ) ;
#50 = PRODUCT_DEFINITION ( '鏅', '', #68, #94 ) ;
#51 = FACE_OUTER_BOUND ( 'NONE', #143, .T. ) ;
#52 = DIRECTION ( 'NONE',  ( 0.000000000000000000, -1.000000000000000000, 0.000000000000000000 ) ) ;
#53 = DIRECTION ( 'NONE',  ( 0.000000000000000000, 1.000000000000000000, 0.000000000000000000 ) ) ;
#54 = DIRECTION ( 'NONE',  ( 0.000000000000000000, 0.000000000000000000, 1.000000000000000000 ) ) ;
#55 = FILL_AREA_STYLE_COLOUR ( '', #38 ) ;
#56 = FACE_OUTER_BOUND ( 'NONE', #111, .T. ) ;
#57 = AXIS2_PLACEMENT_3D ( 'NONE', #67, #52, #192 ) ;
#58 = CARTESIAN_POINT ( 'NONE',  ( 0.000000000000000000, 7.000000000000000000, 0.000000000000000000 ) ) ;
#59 = AXIS2_PLACEMENT_3D ( 'NONE', #195, #53, #119 ) ;
#60 = DIRECTION ( 'NONE',  ( 1.000000000000000000, 0.000000000000000000, 0.000000000000000000 ) ) ;
#61 = ORIENTED_EDGE ( 'NONE', *, *, #196, .T. ) ;
#62 = UNCERTAINTY_MEASURE_WITH_UNIT (LENGTH_MEASURE( 1.000000000000000082E-05 ), #23, 'distance_accuracy_value', 'NONE');
#63 = ORIENTED_EDGE ( 'NONE', *, *, #196, .F. ) ;
#64 = ORIENTED_EDGE ( 'NONE', *, *, #87, .T. ) ;
#65 = CARTESIAN_POINT ( 'NONE',  ( 0.000000000000000000, 3.000000000000000000, 0.000000000000000000 ) ) ;
#66 = CLOSED_SHELL ( 'NONE', ( #131, #48, #90, #175, #117, #83, #181 ) ) ;
#67 = CARTESIAN_POINT ( 'NONE',  ( 0.000000000000000000, 3.000000000000000000, 0.000000000000000000 ) ) ;
#68 = PRODUCT_DEFINITION_FORMATION_WITH_SPECIFIED_SOURCE ( '瀵', '', #154, .NOT_KNOWN. ) ;
#69 = DIRECTION ( 'NONE',  ( 0.000000000000000000, 0.000000000000000000, 1.000000000000000000 ) ) ;
#70 =( NAMED_UNIT ( * ) SI_UNIT ( $, .STERADIAN. ) SOLID_ANGLE_UNIT ( ) );
#71 = AXIS2_PLACEMENT_3D ( 'NONE', #43, #74, #126 ) ;
#72 = FACE_OUTER_BOUND ( 'NONE', #80, .T. ) ;
#73 = DIRECTION ( 'NONE',  ( 0.000000000000000000, 1.000000000000000000, 0.000000000000000000 ) ) ;
#74 = DIRECTION ( 'NONE',  ( 0.000000000000000000, 1.000000000000000000, 0.000000000000000000 ) ) ;
#75 = ORIENTED_EDGE ( 'NONE', *, *, #200, .T. ) ;
#76 = VECTOR ( 'NONE', #32, 1000.000000000000000 ) ;
#77 = EDGE_LOOP ( 'NONE', ( #163, #95 ) ) ;
#78 = ORIENTED_EDGE ( 'NONE', *, *, #161, .T. ) ;
#79 = EDGE_CURVE ( 'NONE', #188, #45, #167, .T. ) ;
#80 = EDGE_LOOP ( 'NONE', ( #16, #92, #5, #149 ) ) ;
#81 = AXIS2_PLACEMENT_3D ( 'NONE', #97, #35, #146 ) ;
#82 = CYLINDRICAL_SURFACE ( 'NONE', #57, 2.250000000000000000 ) ;
#83 = ADVANCED_FACE ( 'NONE', ( #179 ), #182, .T. ) ;
#84 = FACE_OUTER_BOUND ( 'NONE', #47, .T. ) ;
#85 = CIRCLE ( 'NONE', #205, 2.250000000000000000 ) ;
#86 = CARTESIAN_POINT ( 'NONE',  ( 0.000000000000000000, 3.000000000000000000, 0.000000000000000000 ) ) ;
#87 = EDGE_CURVE ( 'NONE', #159, #18, #177, .T. ) ;
#88 = DIRECTION ( 'NONE',  ( 0.000000000000000000, 0.000000000000000000, 1.000000000000000000 ) ) ;
#89 = DIRECTION ( 'NONE',  ( 0.000000000000000000, -1.000000000000000000, 0.000000000000000000 ) ) ;
#90 = ADVANCED_FACE ( 'NONE', ( #51 ), #162, .T. ) ;
#91 = CARTESIAN_POINT ( 'NONE',  ( 0.000000000000000000, 0.000000000000000000, 0.000000000000000000 ) ) ;
#92 = ORIENTED_EDGE ( 'NONE', *, *, #99, .T. ) ;
#93 = CIRCLE ( 'NONE', #6, 1.500000000000000000 ) ;
#94 = PRODUCT_DEFINITION_CONTEXT ( 'detailed design', #129, 'design' ) ;
#95 = ORIENTED_EDGE ( 'NONE', *, *, #87, .F. ) ;
#96 = ORIENTED_EDGE ( 'NONE', *, *, #14, .T. ) ;
#97 = CARTESIAN_POINT ( 'NONE',  ( 0.000000000000000000, 7.000000000000000000, 0.000000000000000000 ) ) ;
#98 = DIRECTION ( 'NONE',  ( 0.000000000000000000, -1.000000000000000000, 0.000000000000000000 ) ) ;
#99 = EDGE_CURVE ( 'NONE', #17, #113, #134, .T. ) ;
#100 = CARTESIAN_POINT ( 'NONE',  ( 2.755455298081544778E-16, 0.000000000000000000, 2.250000000000000000 ) ) ;
#101 = SURFACE_STYLE_USAGE ( .BOTH. , #120 ) ;
#102 = EDGE_CURVE ( 'NONE', #113, #189, #107, .T. ) ;
#103 = PRESENTATION_STYLE_ASSIGNMENT (( #101 ) ) ;
#104 = FACE_OUTER_BOUND ( 'NONE', #49, .T. ) ;
#105 = DIRECTION ( 'NONE',  ( 1.000000000000000000, 0.000000000000000000, 0.000000000000000000 ) ) ;
#106 = CYLINDRICAL_SURFACE ( 'NONE', #144, 1.500000000000000000 ) ;
#107 = CIRCLE ( 'NONE', #59, 2.250000000000000000 ) ;
#108 = CARTESIAN_POINT ( 'NONE',  ( 0.000000000000000000, 3.000000000000000000, -2.250000000000000000 ) ) ;
#109 = EDGE_CURVE ( 'NONE', #45, #159, #8, .T. ) ;
#110 = ORIENTED_EDGE ( 'NONE', *, *, #109, .F. ) ;
#111 = EDGE_LOOP ( 'NONE', ( #145, #2 ) ) ;
#112 = AXIS2_PLACEMENT_3D ( 'NONE', #58, #153, #186 ) ;
#113 = VERTEX_POINT ( 'NONE', #100 ) ;
#114 = EDGE_LOOP ( 'NONE', ( #110, #160, #61, #96 ) ) ;
#115 = AXIS2_PLACEMENT_3D ( 'NONE', #86, #4, #69 ) ;
#116 = DIRECTION ( 'NONE',  ( 0.000000000000000000, 0.000000000000000000, 1.000000000000000000 ) ) ;
#117 = ADVANCED_FACE ( 'NONE', ( #84 ), #150, .F. ) ;
#118 = VECTOR ( 'NONE', #98, 1000.000000000000000 ) ;
#119 = DIRECTION ( 'NONE',  ( 0.000000000000000000, 0.000000000000000000, 1.000000000000000000 ) ) ;
#120 = SURFACE_SIDE_STYLE ('',( #132 ) ) ;
#121 = DIRECTION ( 'NONE',  ( 0.000000000000000000, 0.000000000000000000, 1.000000000000000000 ) ) ;
#122 = CARTESIAN_POINT ( 'NONE',  ( 0.000000000000000000, 7.000000000000000000, 0.000000000000000000 ) ) ;
#123 = CARTESIAN_POINT ( 'NONE',  ( 0.000000000000000000, 0.000000000000000000, -2.250000000000000000 ) ) ;
#124 =( GEOMETRIC_REPRESENTATION_CONTEXT ( 3 ) GLOBAL_UNCERTAINTY_ASSIGNED_CONTEXT ( ( #178 ) ) GLOBAL_UNIT_ASSIGNED_CONTEXT ( ( #20, #30, #70 ) ) REPRESENTATION_CONTEXT ( 'NONE', 'WORKASPACE' ) );
#125 = DIRECTION ( 'NONE',  ( 0.000000000000000000, -1.000000000000000000, 0.000000000000000000 ) ) ;
#126 = DIRECTION ( 'NONE',  ( 0.000000000000000000, 0.000000000000000000, 1.000000000000000000 ) ) ;
#127 = AXIS2_PLACEMENT_3D ( 'NONE', #133, #193, #21 ) ;
#128 = ORIENTED_EDGE ( 'NONE', *, *, #99, .F. ) ;
#129 = APPLICATION_CONTEXT ( 'automotive_design' ) ;
#130 = ORIENTED_EDGE ( 'NONE', *, *, #200, .F. ) ;
#131 = ADVANCED_FACE ( 'NONE', ( #104 ), #106, .T. ) ;
#132 = SURFACE_STYLE_FILL_AREA ( #7 ) ;
#133 = CARTESIAN_POINT ( 'NONE',  ( 0.000000000000000000, 3.000000000000000000, 0.000000000000000000 ) ) ;
#134 = LINE ( 'NONE', #31, #118 ) ;
#135 = CIRCLE ( 'NONE', #71, 2.250000000000000000 ) ;
#136 = CARTESIAN_POINT ( 'NONE',  ( 0.000000000000000000, 3.000000000000000000, -1.500000000000000000 ) ) ;
#137 = CARTESIAN_POINT ( 'NONE',  ( 0.000000000000000000, 7.000000000000000000, 0.000000000000000000 ) ) ;
#138 = CARTESIAN_POINT ( 'NONE',  ( 1.836970198721030181E-16, 3.000000000000000000, 1.500000000000000000 ) ) ;
#139 = PRODUCT_CONTEXT ( 'NONE', #36, 'mechanical' ) ;
#140 = PLANE ( 'NONE',  #112 ) ;
#141 = DIRECTION ( 'NONE',  ( 0.000000000000000000, -1.000000000000000000, 0.000000000000000000 ) ) ;
#142 = DIRECTION ( 'NONE',  ( 0.000000000000000000, 0.000000000000000000, 1.000000000000000000 ) ) ;
#143 = EDGE_LOOP ( 'NONE', ( #128, #130, #46, #172 ) ) ;
#144 = AXIS2_PLACEMENT_3D ( 'NONE', #122, #89, #10 ) ;
#145 = ORIENTED_EDGE ( 'NONE', *, *, #79, .T. ) ;
#146 = DIRECTION ( 'NONE',  ( 0.000000000000000000, 0.000000000000000000, -1.000000000000000000 ) ) ;
#147 = CIRCLE ( 'NONE', #174, 1.500000000000000000 ) ;
#148 = CIRCLE ( 'NONE', #158, 2.250000000000000000 ) ;
#149 = ORIENTED_EDGE ( 'NONE', *, *, #176, .F. ) ;
#150 = PLANE ( 'NONE',  #197 ) ;
#151 = DIRECTION ( 'NONE',  ( 1.000000000000000000, 0.000000000000000000, 0.000000000000000000 ) ) ;
#152 = EDGE_CURVE ( 'NONE', #189, #113, #135, .T. ) ;
#153 = DIRECTION ( 'NONE',  ( -0.000000000000000000, 1.000000000000000000, 0.000000000000000000 ) ) ;
#154 = PRODUCT ( '\X2\5c0f5934676f59345185516d89d2\X0\3x4A', '\X2\5c0f5934676f59345185516d89d2\X0\3x4A', '', ( #139 ) ) ;
#155 = FACE_BOUND ( 'NONE', #77, .T. ) ;
#156 = VERTEX_POINT ( 'NONE', #108 ) ;
#157 = PRESENTATION_LAYER_ASSIGNMENT (  '', '', ( #28 ) ) ;
#158 = AXIS2_PLACEMENT_3D ( 'NONE', #24, #73, #187 ) ;
#159 = VERTEX_POINT ( 'NONE', #138 ) ;
#160 = ORIENTED_EDGE ( 'NONE', *, *, #79, .F. ) ;
#161 = EDGE_CURVE ( 'NONE', #17, #156, #85, .T. ) ;
#162 = CYLINDRICAL_SURFACE ( 'NONE', #127, 2.250000000000000000 ) ;
#163 = ORIENTED_EDGE ( 'NONE', *, *, #14, .F. ) ;
#164 =( GEOMETRIC_REPRESENTATION_CONTEXT ( 3 ) GLOBAL_UNCERTAINTY_ASSIGNED_CONTEXT ( ( #62 ) ) GLOBAL_UNIT_ASSIGNED_CONTEXT ( ( #23, #26, #37 ) ) REPRESENTATION_CONTEXT ( 'NONE', 'WORKASPACE' ) );
#165 = CARTESIAN_POINT ( 'NONE',  ( 2.755455298081544778E-16, 3.000000000000000000, 2.250000000000000000 ) ) ;
#166 = DIRECTION ( 'NONE',  ( 0.000000000000000000, 1.000000000000000000, 0.000000000000000000 ) ) ;
#167 = CIRCLE ( 'NONE', #173, 1.500000000000000000 ) ;
#168 = CARTESIAN_POINT ( 'NONE',  ( 0.000000000000000000, 7.000000000000000000, -1.500000000000000000 ) ) ;
#169 = FACE_OUTER_BOUND ( 'NONE', #29, .T. ) ;
#170 = DIRECTION ( 'NONE',  ( -0.000000000000000000, 1.000000000000000000, 0.000000000000000000 ) ) ;
#171 = LINE ( 'NONE', #204, #3 ) ;
#172 = ORIENTED_EDGE ( 'NONE', *, *, #152, .T. ) ;
#173 = AXIS2_PLACEMENT_3D ( 'NONE', #137, #199, #121 ) ;
#174 = AXIS2_PLACEMENT_3D ( 'NONE', #19, #198, #116 ) ;
#175 = ADVANCED_FACE ( 'NONE', ( #155, #169 ), #13, .T. ) ;
#176 = EDGE_CURVE ( 'NONE', #156, #189, #171, .T. ) ;
#177 = CIRCLE ( 'NONE', #115, 1.500000000000000000 ) ;
#178 = UNCERTAINTY_MEASURE_WITH_UNIT (LENGTH_MEASURE( 1.000000000000000082E-05 ), #20, 'distance_accuracy_value', 'NONE');
#179 = FACE_OUTER_BOUND ( 'NONE', #114, .T. ) ;
#180 = CARTESIAN_POINT ( 'NONE',  ( 1.836970198721030181E-16, 7.000000000000000000, 1.500000000000000000 ) ) ;
#181 = ADVANCED_FACE ( 'NONE', ( #56 ), #140, .T. ) ;
#182 = CYLINDRICAL_SURFACE ( 'NONE', #81, 1.500000000000000000 ) ;
#183 = LINE ( 'NONE', #168, #184 ) ;
#184 = VECTOR ( 'NONE', #125, 1000.000000000000000 ) ;
#185 = SHAPE_DEFINITION_REPRESENTATION ( #22, #194 ) ;
#186 = DIRECTION ( 'NONE',  ( 1.000000000000000000, 0.000000000000000000, 0.000000000000000000 ) ) ;
#187 = DIRECTION ( 'NONE',  ( 0.000000000000000000, 0.000000000000000000, 1.000000000000000000 ) ) ;
#188 = VERTEX_POINT ( 'NONE', #25 ) ;
#189 = VERTEX_POINT ( 'NONE', #123 ) ;
#190 = ORIENTED_EDGE ( 'NONE', *, *, #152, .F. ) ;
#191 = ORIENTED_EDGE ( 'NONE', *, *, #102, .F. ) ;
#192 = DIRECTION ( 'NONE',  ( 0.000000000000000000, 0.000000000000000000, -1.000000000000000000 ) ) ;
#193 = DIRECTION ( 'NONE',  ( 0.000000000000000000, -1.000000000000000000, 0.000000000000000000 ) ) ;
#194 = ADVANCED_BREP_SHAPE_REPRESENTATION ( '\X2\5c0f5934676f59345185516d89d2\X0\3x4A', ( #33, #39 ), #164 ) ;
#195 = CARTESIAN_POINT ( 'NONE',  ( 0.000000000000000000, 0.000000000000000000, 0.000000000000000000 ) ) ;
#196 = EDGE_CURVE ( 'NONE', #188, #18, #183, .T. ) ;
#197 = AXIS2_PLACEMENT_3D ( 'NONE', #91, #40, #60 ) ;
#198 = DIRECTION ( 'NONE',  ( 0.000000000000000000, 1.000000000000000000, 0.000000000000000000 ) ) ;
#199 = DIRECTION ( 'NONE',  ( 0.000000000000000000, 1.000000000000000000, 0.000000000000000000 ) ) ;
#200 = EDGE_CURVE ( 'NONE', #156, #17, #148, .T. ) ;
#201 = CARTESIAN_POINT ( 'NONE',  ( 0.000000000000000000, 3.000000000000000000, 0.000000000000000000 ) ) ;
#202 = APPLICATION_PROTOCOL_DEFINITION ( 'draft international standard', 'automotive_design', 1998, #129 ) ;
#203 = APPLICATION_PROTOCOL_DEFINITION ( 'draft international standard', 'automotive_design', 1998, #36 ) ;
#204 = CARTESIAN_POINT ( 'NONE',  ( 0.000000000000000000, 3.000000000000000000, -2.250000000000000000 ) ) ;
#205 = AXIS2_PLACEMENT_3D ( 'NONE', #41, #11, #142 ) ;
ENDSEC;
END-ISO-10303-21;
