ISO-10303-21;
HEADER;
FILE_DESCRIPTION (( 'STEP AP214' ),
    '1' );
FILE_NAME ('小腿电机连接件A.STEP',
    '2026-08-16T17:26:55',
    ( '' ),
    ( '' ),
    'SwSTEP 2.0',
    'SolidWorks 2025',
    '' );
FILE_SCHEMA (( 'AUTOMOTIVE_DESIGN' ));
ENDSEC;

DATA;
#1 = CIRCLE ( 'NONE', #291, 1.500000000193662419 ) ;
#2 = CARTESIAN_POINT ( 'NONE',  ( 6.210036480407518766, -14.32951044356248183, -7.353910525029438539 ) ) ;
#3 =( NAMED_UNIT ( * ) PLANE_ANGLE_UNIT ( ) SI_UNIT ( $, .RADIAN. ) );
#4 = ORIENTED_EDGE ( 'NONE', *, *, #772, .T. ) ;
#5 = CYLINDRICAL_SURFACE ( 'NONE', #182, 1.500000000193663308 ) ;
#6 = EDGE_CURVE ( 'NONE', #124, #171, #72, .T. ) ;
#7 = CARTESIAN_POINT ( 'NONE',  ( -2.035991158899251197, -16.16354546016115989, 5.950000000000000178 ) ) ;
#8 = DIRECTION ( 'NONE',  ( -0.000000000000000000, -0.000000000000000000, -1.000000000000000000 ) ) ;
#9 = ORIENTED_EDGE ( 'NONE', *, *, #148, .F. ) ;
#10 = CARTESIAN_POINT ( 'NONE',  ( -0.8012982551723959457, -5.853592485862924022, 5.950000000000000178 ) ) ;
#11 = AXIS2_PLACEMENT_3D ( 'NONE', #663, #23, #893 ) ;
#12 = CIRCLE ( 'NONE', #539, 7.000000000014676260 ) ;
#13 = FACE_BOUND ( 'NONE', #528, .T. ) ;
#14 = DIRECTION ( 'NONE',  ( -0.000000000000000000, -0.000000000000000000, 1.000000000000000000 ) ) ;
#15 = VERTEX_POINT ( 'NONE', #133 ) ;
#16 = EDGE_CURVE ( 'NONE', #526, #413, #551, .T. ) ;
#17 = DIRECTION ( 'NONE',  ( 1.000000000000000000, 0.000000000000000000, 0.000000000000000000 ) ) ;
#18 = CIRCLE ( 'NONE', #630, 2.600000000060886940 ) ;
#19 = CARTESIAN_POINT ( 'NONE',  ( -9.277216212871952195, -12.86492722144283896, 5.950000000000000178 ) ) ;
#20 = ORIENTED_EDGE ( 'NONE', *, *, #751, .F. ) ;
#21 = CARTESIAN_POINT ( 'NONE',  ( -7.812632990752311990, 2.622325471836633781, 0.000000000000000000 ) ) ;
#22 = AXIS2_PLACEMENT_3D ( 'NONE', #622, #920, #123 ) ;
#23 = DIRECTION ( 'NONE',  ( 0.000000000000000000, 0.000000000000000000, 1.000000000000000000 ) ) ;
#24 = CARTESIAN_POINT ( 'NONE',  ( 0.000000000000000000, 0.000000000000000000, 0.000000000000000000 ) ) ;
#25 = AXIS2_PLACEMENT_3D ( 'NONE', #542, #317, #114 ) ;
#26 = ORIENTED_EDGE ( 'NONE', *, *, #16, .T. ) ;
#27 = LINE ( 'NONE', #527, #303 ) ;
#28 = ORIENTED_EDGE ( 'NONE', *, *, #714, .F. ) ;
#29 = CARTESIAN_POINT ( 'NONE',  ( 6.210036480407518766, -14.32951044356248183, -7.353910525029438539 ) ) ;
#30 = VECTOR ( 'NONE', #244, 1000.000000000000000 ) ;
#31 = ADVANCED_FACE ( 'NONE', ( #583 ), #362, .F. ) ;
#32 = ORIENTED_EDGE ( 'NONE', *, *, #658, .T. ) ;
#33 = CARTESIAN_POINT ( 'NONE',  ( -2.635333271771135077, 4.992435153687402760, 0.000000000000000000 ) ) ;
#34 = CARTESIAN_POINT ( 'NONE',  ( 10.04472938437809759, -4.019557469264247729, 0.000000000000000000 ) ) ;
#35 = CARTESIAN_POINT ( 'NONE',  ( -7.801298255187071540, -5.853592485862924022, 5.950000000000000178 ) ) ;
#36 = EDGE_CURVE ( 'NONE', #184, #354, #299, .T. ) ;
#37 = ORIENTED_EDGE ( 'NONE', *, *, #820, .T. ) ;
#38 = LINE ( 'NONE', #891, #755 ) ;
#39 = DIRECTION ( 'NONE',  ( 0.000000000000000000, 0.000000000000000000, 1.000000000000000000 ) ) ;
#40 = CIRCLE ( 'NONE', #899, 2.599999999968507503 ) ;
#41 = CARTESIAN_POINT ( 'NONE',  ( -9.277216212871952195, -12.86492722144283896, 5.950000000000000178 ) ) ;
#42 = ORIENTED_EDGE ( 'NONE', *, *, #839, .F. ) ;
#43 = DIRECTION ( 'NONE',  ( 1.000000000000000000, 0.000000000000000000, 0.000000000000000000 ) ) ;
#44 = FACE_BOUND ( 'NONE', #818, .T. ) ;
#45 = DIRECTION ( 'NONE',  ( -0.000000000000000000, -0.000000000000000000, -1.000000000000000000 ) ) ;
#46 = DIRECTION ( 'NONE',  ( 1.000000000000000000, 0.000000000000000000, -0.000000000000000000 ) ) ;
#47 = CARTESIAN_POINT ( 'NONE',  ( 3.032736761624056587, -16.69962012541325080, 5.950000000000000178 ) ) ;
#48 = EDGE_LOOP ( 'NONE', ( #420, #212 ) ) ;
#49 = DIRECTION ( 'NONE',  ( 1.000000000000000000, 0.000000000000000000, 0.000000000000000000 ) ) ;
#50 = ADVANCED_FACE ( 'NONE', ( #640 ), #655, .F. ) ;
#51 = CIRCLE ( 'NONE', #85, 2.000000000191872740 ) ;
#52 = ORIENTED_EDGE ( 'NONE', *, *, #423, .T. ) ;
#53 =( NAMED_UNIT ( * ) SI_UNIT ( $, .STERADIAN. ) SOLID_ANGLE_UNIT ( ) );
#54 = EDGE_LOOP ( 'NONE', ( #136, #472, #791, #98 ) ) ;
#55 = CARTESIAN_POINT ( 'NONE',  ( -4.635991159142971441, -16.16354546016115989, 5.950000000000000178 ) ) ;
#56 = EDGE_CURVE ( 'NONE', #572, #275, #117, .T. ) ;
#57 = ORIENTED_EDGE ( 'NONE', *, *, #886, .F. ) ;
#58 = DIRECTION ( 'NONE',  ( -0.000000000000000000, -0.000000000000000000, -1.000000000000000000 ) ) ;
#59 = AXIS2_PLACEMENT_3D ( 'NONE', #597, #450, #522 ) ;
#60 = ORIENTED_EDGE ( 'NONE', *, *, #324, .F. ) ;
#61 = DIRECTION ( 'NONE',  ( 1.000000000000000000, 0.000000000000000000, 0.000000000000000000 ) ) ;
#62 = CARTESIAN_POINT ( 'NONE',  ( 5.633394648583842645, 4.456360488435314515, -7.353910525029438539 ) ) ;
#63 = ORIENTED_EDGE ( 'NONE', *, *, #532, .F. ) ;
#64 = CARTESIAN_POINT ( 'NONE',  ( 3.032736761624056587, -16.69962012541325080, 0.000000000000000000 ) ) ;
#65 = PRODUCT ( '\X2\5c0f817f7535673a8fde63a54ef6\X0\A', '\X2\5c0f817f7535673a8fde63a54ef6\X0\A', '', ( #442 ) ) ;
#66 = ORIENTED_EDGE ( 'NONE', *, *, #148, .T. ) ;
#67 = CARTESIAN_POINT ( 'NONE',  ( 6.174619702333496996, 1.157742249716991578, 5.950000000000000178 ) ) ;
#68 = VECTOR ( 'NONE', #246, 1000.000000000000000 ) ;
#69 = FACE_OUTER_BOUND ( 'NONE', #179, .T. ) ;
#70 = DIRECTION ( 'NONE',  ( 1.000000000000000000, 0.000000000000000000, 0.000000000000000000 ) ) ;
#71 = EDGE_CURVE ( 'NONE', #171, #563, #580, .T. ) ;
#72 = CIRCLE ( 'NONE', #557, 2.600000000197530081 ) ;
#73 = CARTESIAN_POINT ( 'NONE',  ( -9.047325894662002099, -7.687627502461602980, 0.000000000000000000 ) ) ;
#74 = EDGE_LOOP ( 'NONE', ( #338, #238, #78, #604 ) ) ;
#75 = CARTESIAN_POINT ( 'NONE',  ( -7.812632990752311990, 2.622325471836633781, 5.950000000000000178 ) ) ;
#76 = ADVANCED_FACE ( 'NONE', ( #867, #13, #804, #514, #226, #793, #86, #437, #376, #720, #524, #160 ), #810, .F. ) ;
#77 = CARTESIAN_POINT ( 'NONE',  ( -0.8012982551723959457, -5.853592485862924022, 0.000000000000000000 ) ) ;
#78 = ORIENTED_EDGE ( 'NONE', *, *, #341, .F. ) ;
#79 = CYLINDRICAL_SURFACE ( 'NONE', #229, 15.00000000001467448 ) ;
#80 = FACE_OUTER_BOUND ( 'NONE', #54, .T. ) ;
#81 = AXIS2_PLACEMENT_3D ( 'NONE', #34, #331, #321 ) ;
#82 = VERTEX_POINT ( 'NONE', #7 ) ;
#83 = FACE_OUTER_BOUND ( 'NONE', #786, .T. ) ;
#84 = CIRCLE ( 'NONE', #609, 1.500000000195940153 ) ;
#85 = AXIS2_PLACEMENT_3D ( 'NONE', #339, #702, #61 ) ;
#86 = FACE_OUTER_BOUND ( 'NONE', #248, .T. ) ;
#87 = CARTESIAN_POINT ( 'NONE',  ( 0.4333946490125105688, 4.456360488435314515, -7.353910525029438539 ) ) ;
#88 = EDGE_CURVE ( 'NONE', #511, #323, #328, .T. ) ;
#89 = EDGE_LOOP ( 'NONE', ( #60, #584, #258, #665 ) ) ;
#90 = CARTESIAN_POINT ( 'NONE',  ( -10.77721621306789324, -12.86492722144283896, 0.000000000000000000 ) ) ;
#91 = EDGE_CURVE ( 'NONE', #106, #823, #571, .T. ) ;
#92 = DIRECTION ( 'NONE',  ( 1.000000000000000000, 0.000000000000000000, 0.000000000000000000 ) ) ;
#93 = DIRECTION ( 'NONE',  ( 1.000000000000000000, 0.000000000000000000, 0.000000000000000000 ) ) ;
#94 = ORIENTED_EDGE ( 'NONE', *, *, #187, .T. ) ;
#95 = CARTESIAN_POINT ( 'NONE',  ( 7.674619702527159859, 1.157742249716991578, 5.950000000000000178 ) ) ;
#96 = MECHANICAL_DESIGN_GEOMETRIC_PRESENTATION_REPRESENTATION (  '', ( #457 ), #834 ) ;
#97 = UNCERTAINTY_MEASURE_WITH_UNIT (LENGTH_MEASURE( 1.000000000000000082E-05 ), #573, 'distance_accuracy_value', 'NONE');
#98 = ORIENTED_EDGE ( 'NONE', *, *, #36, .F. ) ;
#99 = DIRECTION ( 'NONE',  ( -0.000000000000000000, -0.000000000000000000, 1.000000000000000000 ) ) ;
#100 = EDGE_CURVE ( 'NONE', #354, #348, #933, .T. ) ;
#101 = AXIS2_PLACEMENT_3D ( 'NONE', #427, #792, #435 ) ;
#102 = ORIENTED_EDGE ( 'NONE', *, *, #916, .F. ) ;
#103 = CARTESIAN_POINT ( 'NONE',  ( -11.64732589472288993, -7.687627502461602980, 5.950000000000000178 ) ) ;
#104 = EDGE_CURVE ( 'NONE', #329, #498, #84, .T. ) ;
#105 = CIRCLE ( 'NONE', #703, 2.600000000197530081 ) ;
#106 = VERTEX_POINT ( 'NONE', #169 ) ;
#107 = DIRECTION ( 'NONE',  ( -0.000000000000000000, -0.000000000000000000, 1.000000000000000000 ) ) ;
#108 = DIRECTION ( 'NONE',  ( 0.000000000000000000, 0.000000000000000000, 1.000000000000000000 ) ) ;
#109 = CARTESIAN_POINT ( 'NONE',  ( 10.04472938437809759, -4.019557469264247729, -7.353910525029438539 ) ) ;
#110 = EDGE_LOOP ( 'NONE', ( #486, #610, #653, #618 ) ) ;
#111 = CARTESIAN_POINT ( 'NONE',  ( -2.635333271771135077, 4.992435153687402760, 5.950000000000000178 ) ) ;
#112 = CIRCLE ( 'NONE', #81, 2.599999999968507503 ) ;
#113 = VERTEX_POINT ( 'NONE', #600 ) ;
#114 = DIRECTION ( 'NONE',  ( 1.000000000000000000, 0.000000000000000000, 0.000000000000000000 ) ) ;
#115 = ADVANCED_FACE ( 'NONE', ( #889 ), #535, .F. ) ;
#116 = CARTESIAN_POINT ( 'NONE',  ( -7.777216212676012042, -12.86492722144283896, 5.950000000000000178 ) ) ;
#117 = CIRCLE ( 'NONE', #241, 2.599999999831858144 ) ;
#118 = ORIENTED_EDGE ( 'NONE', *, *, #56, .T. ) ;
#119 = EDGE_LOOP ( 'NONE', ( #297, #659, #364, #367 ) ) ;
#120 = CARTESIAN_POINT ( 'NONE',  ( -5.212632990920453402, 2.622325471836633781, 5.950000000000000178 ) ) ;
#121 = AXIS2_PLACEMENT_3D ( 'NONE', #652, #734, #93 ) ;
#122 = ORIENTED_EDGE ( 'NONE', *, *, #91, .T. ) ;
#123 = DIRECTION ( 'NONE',  ( -1.000000000000000000, 0.000000000000000000, 0.000000000000000000 ) ) ;
#124 = VERTEX_POINT ( 'NONE', #607 ) ;
#125 = CARTESIAN_POINT ( 'NONE',  ( -7.812632990752311990, 2.622325471836633781, 0.000000000000000000 ) ) ;
#126 = EDGE_CURVE ( 'NONE', #859, #642, #673, .T. ) ;
#127 = LINE ( 'NONE', #62, #796 ) ;
#128 = CIRCLE ( 'NONE', #651, 2.600000000243719800 ) ;
#129 = VERTEX_POINT ( 'NONE', #252 ) ;
#130 = CARTESIAN_POINT ( 'NONE',  ( 3.033394648798176441, 4.456360488435314515, -7.353910525029438539 ) ) ;
#131 = ORIENTED_EDGE ( 'NONE', *, *, #440, .T. ) ;
#132 = DIRECTION ( 'NONE',  ( 1.000000000000000000, 0.000000000000000000, 0.000000000000000000 ) ) ;
#133 = CARTESIAN_POINT ( 'NONE',  ( 6.174619702333496996, 1.157742249716991578, 0.000000000000000000 ) ) ;
#134 = CYLINDRICAL_SURFACE ( 'NONE', #409, 2.600000000243719800 ) ;
#135 = CIRCLE ( 'NONE', #257, 15.00000000001467271 ) ;
#136 = ORIENTED_EDGE ( 'NONE', *, *, #455, .T. ) ;
#137 = CYLINDRICAL_SURFACE ( 'NONE', #101, 2.000000000191872740 ) ;
#138 = AXIS2_PLACEMENT_3D ( 'NONE', #794, #232, #790 ) ;
#139 = AXIS2_PLACEMENT_3D ( 'NONE', #189, #141, #567 ) ;
#140 = ORIENTED_EDGE ( 'NONE', *, *, #235, .T. ) ;
#141 = DIRECTION ( 'NONE',  ( -0.000000000000000000, -0.000000000000000000, -1.000000000000000000 ) ) ;
#142 = ADVANCED_FACE ( 'NONE', ( #183 ), #471, .F. ) ;
#143 = VERTEX_POINT ( 'NONE', #47 ) ;
#144 = DIRECTION ( 'NONE',  ( 1.000000000000000000, 0.000000000000000000, 0.000000000000000000 ) ) ;
#145 = VECTOR ( 'NONE', #602, 1000.000000000000000 ) ;
#146 = DIRECTION ( 'NONE',  ( -0.000000000000000000, -0.000000000000000000, 1.000000000000000000 ) ) ;
#147 = CARTESIAN_POINT ( 'NONE',  ( 10.04472938437809759, -4.019557469264247729, 0.000000000000000000 ) ) ;
#148 = EDGE_CURVE ( 'NONE', #143, #526, #669, .T. ) ;
#149 = EDGE_LOOP ( 'NONE', ( #201, #645 ) ) ;
#150 = DIRECTION ( 'NONE',  ( -0.000000000000000000, -0.000000000000000000, 1.000000000000000000 ) ) ;
#151 = VECTOR ( 'NONE', #534, 1000.000000000000000 ) ;
#152 = ORIENTED_EDGE ( 'NONE', *, *, #494, .T. ) ;
#153 = DIRECTION ( 'NONE',  ( 0.000000000000000000, 0.000000000000000000, 1.000000000000000000 ) ) ;
#154 = DIRECTION ( 'NONE',  ( 1.000000000000000000, 0.000000000000000000, 0.000000000000000000 ) ) ;
#155 =( LENGTH_UNIT ( ) NAMED_UNIT ( * ) SI_UNIT ( .MILLI., .METRE. ) );
#156 = ORIENTED_EDGE ( 'NONE', *, *, #187, .F. ) ;
#157 = CARTESIAN_POINT ( 'NONE',  ( 6.210036480407518766, -14.32951044356248183, 0.000000000000000000 ) ) ;
#158 = EDGE_CURVE ( 'NONE', #203, #496, #196, .T. ) ;
#159 = EDGE_CURVE ( 'NONE', #106, #701, #127, .T. ) ;
#160 = FACE_BOUND ( 'NONE', #461, .T. ) ;
#161 = APPLICATION_PROTOCOL_DEFINITION ( 'draft international standard', 'automotive_design', 1998, #832 ) ;
#162 = CIRCLE ( 'NONE', #757, 2.600000000197530081 ) ;
#163 = VERTEX_POINT ( 'NONE', #342 ) ;
#164 = CYLINDRICAL_SURFACE ( 'NONE', #59, 2.600000000243719800 ) ;
#165 = EDGE_CURVE ( 'NONE', #124, #812, #698, .T. ) ;
#166 = EDGE_LOOP ( 'NONE', ( #63, #518 ) ) ;
#167 = DIRECTION ( 'NONE',  ( -0.000000000000000000, -0.000000000000000000, -1.000000000000000000 ) ) ;
#168 = LINE ( 'NONE', #598, #30 ) ;
#169 = CARTESIAN_POINT ( 'NONE',  ( 5.633394648583842645, 4.456360488435314515, 0.000000000000000000 ) ) ;
#170 = AXIS2_PLACEMENT_3D ( 'NONE', #349, #58, #278 ) ;
#171 = VERTEX_POINT ( 'NONE', #662 ) ;
#172 = DIRECTION ( 'NONE',  ( -0.000000000000000000, -0.000000000000000000, -1.000000000000000000 ) ) ;
#173 = AXIS2_PLACEMENT_3D ( 'NONE', #399, #680, #259 ) ;
#174 = CARTESIAN_POINT ( 'NONE',  ( -11.64732589472288993, -7.687627502461602980, -7.353910525029438539 ) ) ;
#175 = ORIENTED_EDGE ( 'NONE', *, *, #36, .T. ) ;
#176 = CYLINDRICAL_SURFACE ( 'NONE', #355, 2.600000000197530081 ) ;
#177 = FACE_OUTER_BOUND ( 'NONE', #74, .T. ) ;
#178 = CIRCLE ( 'NONE', #870, 1.500000000195940153 ) ;
#179 = EDGE_LOOP ( 'NONE', ( #531, #480, #590, #890 ) ) ;
#180 = CARTESIAN_POINT ( 'NONE',  ( -11.64732589472288993, -7.687627502461602980, -7.353910525029438539 ) ) ;
#181 = CARTESIAN_POINT ( 'NONE',  ( 14.19870174484227832, -5.853592485862922246, 0.000000000000000000 ) ) ;
#182 = AXIS2_PLACEMENT_3D ( 'NONE', #95, #646, #582 ) ;
#183 = FACE_OUTER_BOUND ( 'NONE', #924, .T. ) ;
#184 = VERTEX_POINT ( 'NONE', #593 ) ;
#185 = FACE_OUTER_BOUND ( 'NONE', #864, .T. ) ;
#186 = DIRECTION ( 'NONE',  ( -0.000000000000000000, -0.000000000000000000, -1.000000000000000000 ) ) ;
#187 = EDGE_CURVE ( 'NONE', #443, #572, #168, .T. ) ;
#188 = ORIENTED_EDGE ( 'NONE', *, *, #455, .F. ) ;
#189 = CARTESIAN_POINT ( 'NONE',  ( 3.033394648798176441, 4.456360488435314515, 0.000000000000000000 ) ) ;
#190 = CIRCLE ( 'NONE', #25, 15.00000000001467271 ) ;
#191 = LINE ( 'NONE', #392, #558 ) ;
#192 = DIRECTION ( 'NONE',  ( -0.000000000000000000, -0.000000000000000000, 1.000000000000000000 ) ) ;
#193 = EDGE_LOOP ( 'NONE', ( #773, #689 ) ) ;
#194 = ORIENTED_EDGE ( 'NONE', *, *, #691, .F. ) ;
#195 = CARTESIAN_POINT ( 'NONE',  ( 12.64472938434660598, -4.019557469264247729, -7.353910525029438539 ) ) ;
#196 = CIRCLE ( 'NONE', #718, 15.00000000001467271 ) ;
#197 = VERTEX_POINT ( 'NONE', #460 ) ;
#198 = DIRECTION ( 'NONE',  ( 1.000000000000000000, 0.000000000000000000, 0.000000000000000000 ) ) ;
#199 = CARTESIAN_POINT ( 'NONE',  ( -10.77721621306789324, -12.86492722144283896, 5.950000000000000178 ) ) ;
#200 = EDGE_CURVE ( 'NONE', #294, #82, #191, .T. ) ;
#201 = ORIENTED_EDGE ( 'NONE', *, *, #230, .F. ) ;
#202 = CARTESIAN_POINT ( 'NONE',  ( 0.4333946490125105688, 4.456360488435314515, 0.000000000000000000 ) ) ;
#203 = VERTEX_POINT ( 'NONE', #181 ) ;
#204 = DIRECTION ( 'NONE',  ( -0.000000000000000000, -0.000000000000000000, -1.000000000000000000 ) ) ;
#205 = EDGE_CURVE ( 'NONE', #491, #348, #898, .T. ) ;
#206 = AXIS2_PLACEMENT_3D ( 'NONE', #690, #108, #46 ) ;
#207 = CIRCLE ( 'NONE', #326, 1.500000000195940153 ) ;
#208 = ORIENTED_EDGE ( 'NONE', *, *, #736, .F. ) ;
#209 = SURFACE_SIDE_STYLE ('',( #556 ) ) ;
#210 = ORIENTED_EDGE ( 'NONE', *, *, #731, .T. ) ;
#211 = FACE_OUTER_BOUND ( 'NONE', #418, .T. ) ;
#212 = ORIENTED_EDGE ( 'NONE', *, *, #616, .T. ) ;
#213 = FILL_AREA_STYLE ('',( #847 ) ) ;
#214 = EDGE_LOOP ( 'NONE', ( #919, #566 ) ) ;
#215 = DIRECTION ( 'NONE',  ( -0.000000000000000000, -0.000000000000000000, 1.000000000000000000 ) ) ;
#216 = AXIS2_PLACEMENT_3D ( 'NONE', #408, #769, #632 ) ;
#217 = ORIENTED_EDGE ( 'NONE', *, *, #532, .T. ) ;
#218 = DIRECTION ( 'NONE',  ( 0.000000000000000000, 0.000000000000000000, 1.000000000000000000 ) ) ;
#219 = AXIS2_PLACEMENT_3D ( 'NONE', #180, #107, #468 ) ;
#220 = UNCERTAINTY_MEASURE_WITH_UNIT (LENGTH_MEASURE( 1.000000000000000082E-05 ), #155, 'distance_accuracy_value', 'NONE');
#221 = CARTESIAN_POINT ( 'NONE',  ( -4.635333271963007817, 4.992435153687402760, 5.950000000000000178 ) ) ;
#222 = SHAPE_DEFINITION_REPRESENTATION ( #269, #546 ) ;
#223 = CIRCLE ( 'NONE', #340, 1.500000000193662419 ) ;
#224 = ORIENTED_EDGE ( 'NONE', *, *, #494, .F. ) ;
#225 = CARTESIAN_POINT ( 'NONE',  ( -9.047325894662002099, -7.687627502461602980, 5.950000000000000178 ) ) ;
#226 = FACE_BOUND ( 'NONE', #319, .T. ) ;
#227 = ORIENTED_EDGE ( 'NONE', *, *, #353, .T. ) ;
#228 = DIRECTION ( 'NONE',  ( -0.000000000000000000, -0.000000000000000000, -1.000000000000000000 ) ) ;
#229 = AXIS2_PLACEMENT_3D ( 'NONE', #519, #172, #883 ) ;
#230 = EDGE_CURVE ( 'NONE', #498, #329, #207, .T. ) ;
#231 = EDGE_CURVE ( 'NONE', #491, #184, #237, .T. ) ;
#232 = DIRECTION ( 'NONE',  ( 0.000000000000000000, 0.000000000000000000, 1.000000000000000000 ) ) ;
#233 = ORIENTED_EDGE ( 'NONE', *, *, #287, .F. ) ;
#234 = DIRECTION ( 'NONE',  ( -0.000000000000000000, -0.000000000000000000, 1.000000000000000000 ) ) ;
#235 = EDGE_CURVE ( 'NONE', #129, #163, #447, .T. ) ;
#236 = CARTESIAN_POINT ( 'NONE',  ( 3.610036480209987797, -14.32951044356248183, -7.353910525029438539 ) ) ;
#237 = CIRCLE ( 'NONE', #854, 2.000000000191872740 ) ;
#238 = ORIENTED_EDGE ( 'NONE', *, *, #916, .T. ) ;
#239 = DIRECTION ( 'NONE',  ( 1.000000000000000000, 0.000000000000000000, 0.000000000000000000 ) ) ;
#240 = EDGE_CURVE ( 'NONE', #163, #129, #40, .T. ) ;
#241 = AXIS2_PLACEMENT_3D ( 'NONE', #800, #508, #875 ) ;
#242 = ORIENTED_EDGE ( 'NONE', *, *, #159, .F. ) ;
#243 = FACE_OUTER_BOUND ( 'NONE', #868, .T. ) ;
#244 = DIRECTION ( 'NONE',  ( -0.000000000000000000, -0.000000000000000000, 1.000000000000000000 ) ) ;
#245 = ORIENTED_EDGE ( 'NONE', *, *, #393, .F. ) ;
#246 = DIRECTION ( 'NONE',  ( -0.000000000000000000, -0.000000000000000000, -1.000000000000000000 ) ) ;
#247 = DIRECTION ( 'NONE',  ( 1.000000000000000000, 0.000000000000000000, 0.000000000000000000 ) ) ;
#248 = EDGE_LOOP ( 'NONE', ( #28, #541 ) ) ;
#249 = DIRECTION ( 'NONE',  ( 0.000000000000000000, 0.000000000000000000, 1.000000000000000000 ) ) ;
#250 = DIRECTION ( 'NONE',  ( 0.000000000000000000, 0.000000000000000000, 1.000000000000000000 ) ) ;
#251 = VECTOR ( 'NONE', #204, 1000.000000000000000 ) ;
#252 = CARTESIAN_POINT ( 'NONE',  ( 7.444729384409590089, -4.019557469264247729, 5.950000000000000178 ) ) ;
#253 = ORIENTED_EDGE ( 'NONE', *, *, #909, .F. ) ;
#254 = CARTESIAN_POINT ( 'NONE',  ( -0.8012982551723959457, -5.853592485862924022, 5.950000000000000178 ) ) ;
#255 = CARTESIAN_POINT ( 'NONE',  ( 6.210036480407518766, -14.32951044356248183, 5.950000000000000178 ) ) ;
#256 = ADVANCED_FACE ( 'NONE', ( #177 ), #904, .F. ) ;
#257 = AXIS2_PLACEMENT_3D ( 'NONE', #10, #654, #17 ) ;
#258 = ORIENTED_EDGE ( 'NONE', *, *, #394, .T. ) ;
#259 = DIRECTION ( 'NONE',  ( -1.000000000000000000, 0.000000000000000000, 0.000000000000000000 ) ) ;
#260 = AXIS2_PLACEMENT_3D ( 'NONE', #19, #715, #304 ) ;
#261 = DIRECTION ( 'NONE',  ( 1.000000000000000000, 0.000000000000000000, 0.000000000000000000 ) ) ;
#262 = EDGE_LOOP ( 'NONE', ( #208, #152, #601, #57 ) ) ;
#263 = CARTESIAN_POINT ( 'NONE',  ( 7.444729384409590089, -4.019557469264247729, 0.000000000000000000 ) ) ;
#264 = AXIS2_PLACEMENT_3D ( 'NONE', #668, #99, #333 ) ;
#265 = CARTESIAN_POINT ( 'NONE',  ( 10.04472938437809759, -4.019557469264247729, 5.950000000000000178 ) ) ;
#266 = EDGE_CURVE ( 'NONE', #812, #563, #162, .T. ) ;
#267 = VERTEX_POINT ( 'NONE', #833 ) ;
#268 = DIRECTION ( 'NONE',  ( -0.000000000000000000, -0.000000000000000000, 1.000000000000000000 ) ) ;
#269 = PRODUCT_DEFINITION_SHAPE ( 'NONE', 'NONE',  #808 ) ;
#270 = EDGE_LOOP ( 'NONE', ( #102, #66, #26, #576 ) ) ;
#271 = CARTESIAN_POINT ( 'NONE',  ( 1.032736761426343408, -16.69962012541325080, 0.000000000000000000 ) ) ;
#272 = AXIS2_PLACEMENT_3D ( 'NONE', #448, #871, #644 ) ;
#273 = EDGE_LOOP ( 'NONE', ( #156, #805, #398, #217 ) ) ;
#274 = ADVANCED_FACE ( 'NONE', ( #892, #821, #469, #474, #464, #754, #554, #750, #914, #672, #411, #44 ), #676, .T. ) ;
#275 = VERTEX_POINT ( 'NONE', #120 ) ;
#276 = CARTESIAN_POINT ( 'NONE',  ( -11.64732589472288993, -7.687627502461602980, 5.950000000000000178 ) ) ;
#277 = CARTESIAN_POINT ( 'NONE',  ( 6.210036480407518766, -14.32951044356248183, 0.000000000000000000 ) ) ;
#278 = DIRECTION ( 'NONE',  ( -1.000000000000000000, 0.000000000000000000, 0.000000000000000000 ) ) ;
#279 = ORIENTED_EDGE ( 'NONE', *, *, #71, .F. ) ;
#280 = LINE ( 'NONE', #416, #696 ) ;
#281 = CIRCLE ( 'NONE', #357, 2.600000000060886940 ) ;
#282 = AXIS2_PLACEMENT_3D ( 'NONE', #77, #647, #428 ) ;
#283 = ORIENTED_EDGE ( 'NONE', *, *, #846, .F. ) ;
#284 = DIRECTION ( 'NONE',  ( 1.000000000000000000, 0.000000000000000000, 0.000000000000000000 ) ) ;
#285 = ORIENTED_EDGE ( 'NONE', *, *, #200, .T. ) ;
#286 = DIRECTION ( 'NONE',  ( -0.000000000000000000, -0.000000000000000000, -1.000000000000000000 ) ) ;
#287 = EDGE_CURVE ( 'NONE', #626, #902, #281, .T. ) ;
#288 = DIRECTION ( 'NONE',  ( 1.000000000000000000, 0.000000000000000000, 0.000000000000000000 ) ) ;
#289 = EDGE_LOOP ( 'NONE', ( #674, #52 ) ) ;
#290 = DIRECTION ( 'NONE',  ( -0.000000000000000000, -0.000000000000000000, 1.000000000000000000 ) ) ;
#291 = AXIS2_PLACEMENT_3D ( 'NONE', #586, #725, #293 ) ;
#292 = EDGE_CURVE ( 'NONE', #695, #667, #112, .T. ) ;
#293 = DIRECTION ( 'NONE',  ( 1.000000000000000000, 0.000000000000000000, 0.000000000000000000 ) ) ;
#294 = VERTEX_POINT ( 'NONE', #620 ) ;
#295 = CARTESIAN_POINT ( 'NONE',  ( 9.174619702720821834, 1.157742249716991800, 0.000000000000000000 ) ) ;
#296 = VECTOR ( 'NONE', #290, 1000.000000000000000 ) ;
#297 = ORIENTED_EDGE ( 'NONE', *, *, #764, .T. ) ;
#298 = CARTESIAN_POINT ( 'NONE',  ( -0.9672632387713695490, -16.69962012541325080, 5.950000000000000178 ) ) ;
#299 = LINE ( 'NONE', #221, #844 ) ;
#300 = CARTESIAN_POINT ( 'NONE',  ( -2.635333271771135077, 4.992435153687402760, 5.950000000000000178 ) ) ;
#301 = ORIENTED_EDGE ( 'NONE', *, *, #729, .F. ) ;
#302 = FACE_OUTER_BOUND ( 'NONE', #262, .T. ) ;
#303 = VECTOR ( 'NONE', #234, 1000.000000000000000 ) ;
#304 = DIRECTION ( 'NONE',  ( -1.000000000000000000, 0.000000000000000000, 0.000000000000000000 ) ) ;
#305 = CIRCLE ( 'NONE', #216, 2.600000000243719800 ) ;
#306 = ORIENTED_EDGE ( 'NONE', *, *, #104, .T. ) ;
#307 = DIRECTION ( 'NONE',  ( -0.000000000000000000, -0.000000000000000000, -1.000000000000000000 ) ) ;
#308 = CIRCLE ( 'NONE', #838, 1.500000000193662419 ) ;
#309 = DIRECTION ( 'NONE',  ( 1.000000000000000000, 0.000000000000000000, 0.000000000000000000 ) ) ;
#310 =( NAMED_UNIT ( * ) SI_UNIT ( $, .STERADIAN. ) SOLID_ANGLE_UNIT ( ) );
#311 = VERTEX_POINT ( 'NONE', #908 ) ;
#312 = FACE_OUTER_BOUND ( 'NONE', #119, .T. ) ;
#313 = EDGE_CURVE ( 'NONE', #859, #855, #807, .T. ) ;
#314 = VECTOR ( 'NONE', #705, 1000.000000000000000 ) ;
#315 = VECTOR ( 'NONE', #451, 1000.000000000000000 ) ;
#316 = ORIENTED_EDGE ( 'NONE', *, *, #895, .T. ) ;
#317 = DIRECTION ( 'NONE',  ( 0.000000000000000000, 0.000000000000000000, 1.000000000000000000 ) ) ;
#318 = CARTESIAN_POINT ( 'NONE',  ( 1.032736761426343408, -16.69962012541325080, 5.950000000000000178 ) ) ;
#319 = EDGE_LOOP ( 'NONE', ( #426, #758 ) ) ;
#320 = DIRECTION ( 'NONE',  ( 1.000000000000000000, 0.000000000000000000, 0.000000000000000000 ) ) ;
#321 = DIRECTION ( 'NONE',  ( 1.000000000000000000, 0.000000000000000000, 0.000000000000000000 ) ) ;
#322 = DIRECTION ( 'NONE',  ( -0.000000000000000000, -0.000000000000000000, 1.000000000000000000 ) ) ;
#323 = VERTEX_POINT ( 'NONE', #334 ) ;
#324 = EDGE_CURVE ( 'NONE', #482, #203, #548, .T. ) ;
#325 = FACE_OUTER_BOUND ( 'NONE', #273, .T. ) ;
#326 = AXIS2_PLACEMENT_3D ( 'NONE', #826, #603, #397 ) ;
#327 = DIRECTION ( 'NONE',  ( 0.000000000000000000, 0.000000000000000000, 1.000000000000000000 ) ) ;
#328 = CIRCLE ( 'NONE', #402, 1.500000000195940153 ) ;
#329 = VERTEX_POINT ( 'NONE', #116 ) ;
#330 = CARTESIAN_POINT ( 'NONE',  ( 9.174619702720821834, 1.157742249716991800, 5.950000000000000178 ) ) ;
#331 = DIRECTION ( 'NONE',  ( -0.000000000000000000, -0.000000000000000000, -1.000000000000000000 ) ) ;
#332 = ORIENTED_EDGE ( 'NONE', *, *, #366, .T. ) ;
#333 = DIRECTION ( 'NONE',  ( 1.000000000000000000, 0.000000000000000000, 0.000000000000000000 ) ) ;
#334 = CARTESIAN_POINT ( 'NONE',  ( -7.777216212676012042, -12.86492722144283896, 0.000000000000000000 ) ) ;
#335 = EDGE_CURVE ( 'NONE', #667, #163, #406, .T. ) ;
#336 = ORIENTED_EDGE ( 'NONE', *, *, #918, .T. ) ;
#337 = FACE_OUTER_BOUND ( 'NONE', #732, .T. ) ;
#338 = ORIENTED_EDGE ( 'NONE', *, *, #839, .T. ) ;
#339 = CARTESIAN_POINT ( 'NONE',  ( -2.635333271771135077, 4.992435153687402760, 5.950000000000000178 ) ) ;
#340 = AXIS2_PLACEMENT_3D ( 'NONE', #432, #713, #368 ) ;
#341 = EDGE_CURVE ( 'NONE', #413, #882, #639, .T. ) ;
#342 = CARTESIAN_POINT ( 'NONE',  ( 12.64472938434660598, -4.019557469264247729, 5.950000000000000178 ) ) ;
#343 = ORIENTED_EDGE ( 'NONE', *, *, #165, .T. ) ;
#344 = DIRECTION ( 'NONE',  ( 0.000000000000000000, 0.000000000000000000, 1.000000000000000000 ) ) ;
#345 = ORIENTED_EDGE ( 'NONE', *, *, #798, .F. ) ;
#346 = LINE ( 'NONE', #492, #884 ) ;
#347 = DIRECTION ( 'NONE',  ( 1.000000000000000000, 0.000000000000000000, 0.000000000000000000 ) ) ;
#348 = VERTEX_POINT ( 'NONE', #488 ) ;
#349 = CARTESIAN_POINT ( 'NONE',  ( -0.8012982551723959457, -5.853592485862924022, 5.950000000000000178 ) ) ;
#350 = DIRECTION ( 'NONE',  ( 1.000000000000000000, 0.000000000000000000, 0.000000000000000000 ) ) ;
#351 = ORIENTED_EDGE ( 'NONE', *, *, #724, .T. ) ;
#352 = DIRECTION ( 'NONE',  ( -0.000000000000000000, -0.000000000000000000, 1.000000000000000000 ) ) ;
#353 = EDGE_CURVE ( 'NONE', #695, #129, #346, .T. ) ;
#354 = VERTEX_POINT ( 'NONE', #564 ) ;
#355 = AXIS2_PLACEMENT_3D ( 'NONE', #29, #391, #741 ) ;
#356 = CARTESIAN_POINT ( 'NONE',  ( -9.277216212871952195, -12.86492722144283896, 0.000000000000000000 ) ) ;
#357 = AXIS2_PLACEMENT_3D ( 'NONE', #103, #39, #682 ) ;
#358 = DIRECTION ( 'NONE',  ( 1.000000000000000000, 0.000000000000000000, 0.000000000000000000 ) ) ;
#359 = PRESENTATION_STYLE_ASSIGNMENT (( #481 ) ) ;
#360 = ORIENTED_EDGE ( 'NONE', *, *, #510, .T. ) ;
#361 = DIRECTION ( 'NONE',  ( 0.000000000000000000, 0.000000000000000000, 1.000000000000000000 ) ) ;
#362 = CYLINDRICAL_SURFACE ( 'NONE', #272, 1.500000000195940153 ) ;
#363 = LINE ( 'NONE', #87, #617 ) ;
#364 = ORIENTED_EDGE ( 'NONE', *, *, #897, .F. ) ;
#365 = DIRECTION ( 'NONE',  ( -0.000000000000000000, -0.000000000000000000, -1.000000000000000000 ) ) ;
#366 = EDGE_CURVE ( 'NONE', #613, #443, #608, .T. ) ;
#367 = ORIENTED_EDGE ( 'NONE', *, *, #483, .F. ) ;
#368 = DIRECTION ( 'NONE',  ( 1.000000000000000000, 0.000000000000000000, 0.000000000000000000 ) ) ;
#369 = VECTOR ( 'NONE', #760, 1000.000000000000000 ) ;
#370 = DIRECTION ( 'NONE',  ( -0.000000000000000000, -0.000000000000000000, 1.000000000000000000 ) ) ;
#371 = AXIS2_PLACEMENT_3D ( 'NONE', #441, #863, #92 ) ;
#372 = CYLINDRICAL_SURFACE ( 'NONE', #862, 2.000000000191872740 ) ;
#373 = CIRCLE ( 'NONE', #463, 2.599999999785666205 ) ;
#374 = EDGE_LOOP ( 'NONE', ( #477, #383 ) ) ;
#375 = CARTESIAN_POINT ( 'NONE',  ( 3.033394648798176441, 4.456360488435314515, 5.950000000000000178 ) ) ;
#376 = FACE_BOUND ( 'NONE', #374, .T. ) ;
#377 = VERTEX_POINT ( 'NONE', #560 ) ;
#378 = EDGE_CURVE ( 'NONE', #701, #623, #373, .T. ) ;
#379 = DIRECTION ( 'NONE',  ( 1.000000000000000000, 0.000000000000000000, 0.000000000000000000 ) ) ;
#380 = CIRCLE ( 'NONE', #874, 2.600000000243719800 ) ;
#381 = DIRECTION ( 'NONE',  ( -1.000000000000000000, 0.000000000000000000, 0.000000000000000000 ) ) ;
#382 = AXIS2_PLACEMENT_3D ( 'NONE', #130, #268, #198 ) ;
#383 = ORIENTED_EDGE ( 'NONE', *, *, #767, .T. ) ;
#384 = DIRECTION ( 'NONE',  ( 1.000000000000000000, 0.000000000000000000, 0.000000000000000000 ) ) ;
#385 = ADVANCED_FACE ( 'NONE', ( #574 ), #771, .F. ) ;
#386 = AXIS2_PLACEMENT_3D ( 'NONE', #254, #249, #614 ) ;
#387 = EDGE_LOOP ( 'NONE', ( #403, #224 ) ) ;
#388 = FACE_OUTER_BOUND ( 'NONE', #693, .T. ) ;
#389 = AXIS2_PLACEMENT_3D ( 'NONE', #917, #485, #756 ) ;
#390 = EDGE_LOOP ( 'NONE', ( #122, #316, #32, #242 ) ) ;
#391 = DIRECTION ( 'NONE',  ( -0.000000000000000000, -0.000000000000000000, 1.000000000000000000 ) ) ;
#392 = CARTESIAN_POINT ( 'NONE',  ( -2.035991158899251197, -16.16354546016115989, -7.353910525029438539 ) ) ;
#393 = EDGE_CURVE ( 'NONE', #377, #311, #280, .T. ) ;
#394 = EDGE_CURVE ( 'NONE', #197, #496, #569, .T. ) ;
#395 = ORIENTED_EDGE ( 'NONE', *, *, #658, .F. ) ;
#396 = DIRECTION ( 'NONE',  ( 0.000000000000000000, 0.000000000000000000, 1.000000000000000000 ) ) ;
#397 = DIRECTION ( 'NONE',  ( 1.000000000000000000, 0.000000000000000000, 0.000000000000000000 ) ) ;
#398 = ORIENTED_EDGE ( 'NONE', *, *, #405, .T. ) ;
#399 = CARTESIAN_POINT ( 'NONE',  ( -0.8012982551723959457, -5.853592485862924022, 5.950000000000000178 ) ) ;
#400 = AXIS2_PLACEMENT_3D ( 'NONE', #606, #250, #261 ) ;
#401 = CARTESIAN_POINT ( 'NONE',  ( 10.04472938437809759, -4.019557469264247729, 5.950000000000000178 ) ) ;
#402 = AXIS2_PLACEMENT_3D ( 'NONE', #710, #936, #154 ) ;
#403 = ORIENTED_EDGE ( 'NONE', *, *, #764, .F. ) ;
#404 = DIRECTION ( 'NONE',  ( 1.000000000000000000, 0.000000000000000000, 0.000000000000000000 ) ) ;
#405 = EDGE_CURVE ( 'NONE', #613, #275, #853, .T. ) ;
#406 = LINE ( 'NONE', #195, #931 ) ;
#407 = ORIENTED_EDGE ( 'NONE', *, *, #724, .F. ) ;
#408 = CARTESIAN_POINT ( 'NONE',  ( -4.635991159142971441, -16.16354546016115989, 0.000000000000000000 ) ) ;
#409 = AXIS2_PLACEMENT_3D ( 'NONE', #425, #503, #706 ) ;
#410 = ORIENTED_EDGE ( 'NONE', *, *, #909, .T. ) ;
#411 = FACE_BOUND ( 'NONE', #149, .T. ) ;
#412 = EDGE_CURVE ( 'NONE', #498, #511, #925, .T. ) ;
#413 = VERTEX_POINT ( 'NONE', #421 ) ;
#414 = CARTESIAN_POINT ( 'NONE',  ( 10.04472938437809759, -4.019557469264247729, -7.353910525029438539 ) ) ;
#415 = ORIENTED_EDGE ( 'NONE', *, *, #510, .F. ) ;
#416 = CARTESIAN_POINT ( 'NONE',  ( -7.235991159386690796, -16.16354546016115989, -7.353910525029438539 ) ) ;
#417 = AXIS2_PLACEMENT_3D ( 'NONE', #276, #697, #857 ) ;
#418 = EDGE_LOOP ( 'NONE', ( #596, #537, #175, #637 ) ) ;
#419 = DIRECTION ( 'NONE',  ( -0.000000000000000000, -0.000000000000000000, -1.000000000000000000 ) ) ;
#420 = ORIENTED_EDGE ( 'NONE', *, *, #341, .T. ) ;
#421 = CARTESIAN_POINT ( 'NONE',  ( -0.9672632387713695490, -16.69962012541325080, 0.000000000000000000 ) ) ;
#422 = CIRCLE ( 'NONE', #657, 2.599999999785666205 ) ;
#423 = EDGE_CURVE ( 'NONE', #323, #511, #178, .T. ) ;
#424 = ORIENTED_EDGE ( 'NONE', *, *, #313, .T. ) ;
#425 = CARTESIAN_POINT ( 'NONE',  ( -4.635991159142971441, -16.16354546016115989, -7.353910525029438539 ) ) ;
#426 = ORIENTED_EDGE ( 'NONE', *, *, #366, .F. ) ;
#427 = CARTESIAN_POINT ( 'NONE',  ( -2.635333271771135077, 4.992435153687402760, 5.950000000000000178 ) ) ;
#428 = DIRECTION ( 'NONE',  ( 1.000000000000000000, 0.000000000000000000, -0.000000000000000000 ) ) ;
#429 = FACE_OUTER_BOUND ( 'NONE', #270, .T. ) ;
#430 = ORIENTED_EDGE ( 'NONE', *, *, #324, .T. ) ;
#431 = CIRCLE ( 'NONE', #386, 7.000000000014676260 ) ;
#432 = CARTESIAN_POINT ( 'NONE',  ( 7.674619702527159859, 1.157742249716991578, 5.950000000000000178 ) ) ;
#433 = CYLINDRICAL_SURFACE ( 'NONE', #260, 1.500000000195940153 ) ;
#434 = ORIENTED_EDGE ( 'NONE', *, *, #287, .T. ) ;
#435 = DIRECTION ( 'NONE',  ( -1.000000000000000000, 0.000000000000000000, 0.000000000000000000 ) ) ;
#436 = AXIS2_PLACEMENT_3D ( 'NONE', #109, #192, #347 ) ;
#437 = FACE_BOUND ( 'NONE', #48, .T. ) ;
#438 = EDGE_LOOP ( 'NONE', ( #740, #345 ) ) ;
#439 = CARTESIAN_POINT ( 'NONE',  ( -11.64732589472288993, -7.687627502461602980, 0.000000000000000000 ) ) ;
#440 = EDGE_CURVE ( 'NONE', #482, #197, #495, .T. ) ;
#441 = CARTESIAN_POINT ( 'NONE',  ( 3.033394648798176441, 4.456360488435314515, 0.000000000000000000 ) ) ;
#442 = PRODUCT_CONTEXT ( 'NONE', #446, 'mechanical' ) ;
#443 = VERTEX_POINT ( 'NONE', #638 ) ;
#444 = DIRECTION ( 'NONE',  ( 1.000000000000000000, 0.000000000000000000, 0.000000000000000000 ) ) ;
#445 = CARTESIAN_POINT ( 'NONE',  ( 8.810036480605049292, -14.32951044356248183, -7.353910525029438539 ) ) ;
#446 = APPLICATION_CONTEXT ( 'automotive_design' ) ;
#447 = CIRCLE ( 'NONE', #523, 2.599999999968507503 ) ;
#448 = CARTESIAN_POINT ( 'NONE',  ( -9.277216212871952195, -12.86492722144283896, 5.950000000000000178 ) ) ;
#449 = ORIENTED_EDGE ( 'NONE', *, *, #235, .F. ) ;
#450 = DIRECTION ( 'NONE',  ( -0.000000000000000000, -0.000000000000000000, 1.000000000000000000 ) ) ;
#451 = DIRECTION ( 'NONE',  ( -0.000000000000000000, -0.000000000000000000, 1.000000000000000000 ) ) ;
#452 = CARTESIAN_POINT ( 'NONE',  ( 3.032736761624056587, -16.69962012541325080, 5.950000000000000178 ) ) ;
#453 = ORIENTED_EDGE ( 'NONE', *, *, #335, .F. ) ;
#454 = DIRECTION ( 'NONE',  ( -1.000000000000000000, 0.000000000000000000, 0.000000000000000000 ) ) ;
#455 = EDGE_CURVE ( 'NONE', #184, #491, #51, .T. ) ;
#456 = AXIS2_PLACEMENT_3D ( 'NONE', #24, #801, #509 ) ;
#457 = STYLED_ITEM ( 'NONE', ( #359 ), #825 ) ;
#458 = EDGE_LOOP ( 'NONE', ( #407, #4, #670, #568 ) ) ;
#459 = CARTESIAN_POINT ( 'NONE',  ( -0.8012982551723959457, -5.853592485862924022, 0.000000000000000000 ) ) ;
#460 = CARTESIAN_POINT ( 'NONE',  ( -15.80129825518707065, -5.853592485862924022, 5.950000000000000178 ) ) ;
#461 = EDGE_LOOP ( 'NONE', ( #210, #922 ) ) ;
#462 = DIRECTION ( 'NONE',  ( 1.000000000000000000, 0.000000000000000000, 0.000000000000000000 ) ) ;
#463 = AXIS2_PLACEMENT_3D ( 'NONE', #776, #218, #939 ) ;
#464 = FACE_BOUND ( 'NONE', #166, .T. ) ;
#465 = EDGE_CURVE ( 'NONE', #902, #626, #822, .T. ) ;
#466 = EDGE_CURVE ( 'NONE', #780, #642, #12, .T. ) ;
#467 = EDGE_LOOP ( 'NONE', ( #770, #712, #553, #707 ) ) ;
#468 = DIRECTION ( 'NONE',  ( 1.000000000000000000, 0.000000000000000000, 0.000000000000000000 ) ) ;
#469 = FACE_BOUND ( 'NONE', #555, .T. ) ;
#470 = AXIS2_PLACEMENT_3D ( 'NONE', #816, #228, #454 ) ;
#471 = CYLINDRICAL_SURFACE ( 'NONE', #436, 2.599999999968507503 ) ;
#472 = ORIENTED_EDGE ( 'NONE', *, *, #205, .T. ) ;
#473 = CARTESIAN_POINT ( 'NONE',  ( 6.198701744842280092, -5.853592485862923134, 0.000000000000000000 ) ) ;
#474 = FACE_BOUND ( 'NONE', #515, .T. ) ;
#475 = AXIS2_PLACEMENT_3D ( 'NONE', #459, #903, #404 ) ;
#476 = EDGE_CURVE ( 'NONE', #311, #82, #128, .T. ) ;
#477 = ORIENTED_EDGE ( 'NONE', *, *, #100, .T. ) ;
#478 = ADVANCED_FACE ( 'NONE', ( #211 ), #137, .F. ) ;
#479 = DIRECTION ( 'NONE',  ( 1.000000000000000000, 0.000000000000000000, 0.000000000000000000 ) ) ;
#480 = ORIENTED_EDGE ( 'NONE', *, *, #798, .T. ) ;
#481 = SURFACE_STYLE_USAGE ( .BOTH. , #209 ) ;
#482 = VERTEX_POINT ( 'NONE', #935 ) ;
#483 = EDGE_CURVE ( 'NONE', #267, #15, #708, .T. ) ;
#484 = CARTESIAN_POINT ( 'NONE',  ( -0.6353332715792626706, 4.992435153687402760, 5.950000000000000178 ) ) ;
#485 = DIRECTION ( 'NONE',  ( 0.000000000000000000, 0.000000000000000000, 1.000000000000000000 ) ) ;
#486 = ORIENTED_EDGE ( 'NONE', *, *, #6, .T. ) ;
#487 = CARTESIAN_POINT ( 'NONE',  ( 1.032736761426343408, -16.69962012541325080, 5.950000000000000178 ) ) ;
#488 = CARTESIAN_POINT ( 'NONE',  ( -0.6353332715792626706, 4.992435153687402760, 0.000000000000000000 ) ) ;
#489 = ORIENTED_EDGE ( 'NONE', *, *, #405, .F. ) ;
#490 = CYLINDRICAL_SURFACE ( 'NONE', #579, 2.599999999968507503 ) ;
#491 = VERTEX_POINT ( 'NONE', #788 ) ;
#492 = CARTESIAN_POINT ( 'NONE',  ( 7.444729384409590089, -4.019557469264247729, -7.353910525029438539 ) ) ;
#493 = AXIS2_PLACEMENT_3D ( 'NONE', #271, #361, #921 ) ;
#494 = EDGE_CURVE ( 'NONE', #783, #267, #223, .T. ) ;
#495 = CIRCLE ( 'NONE', #513, 15.00000000001467271 ) ;
#496 = VERTEX_POINT ( 'NONE', #888 ) ;
#497 = CARTESIAN_POINT ( 'NONE',  ( -7.801298255187071540, -5.853592485862924022, 5.950000000000000178 ) ) ;
#498 = VERTEX_POINT ( 'NONE', #727 ) ;
#499 = DIRECTION ( 'NONE',  ( -0.000000000000000000, -0.000000000000000000, 1.000000000000000000 ) ) ;
#500 = ADVANCED_FACE ( 'NONE', ( #312 ), #5, .F. ) ;
#501 = AXIS2_PLACEMENT_3D ( 'NONE', #21, #167, #239 ) ;
#502 = ORIENTED_EDGE ( 'NONE', *, *, #393, .T. ) ;
#503 = DIRECTION ( 'NONE',  ( -0.000000000000000000, -0.000000000000000000, 1.000000000000000000 ) ) ;
#504 = ORIENTED_EDGE ( 'NONE', *, *, #918, .F. ) ;
#505 = CARTESIAN_POINT ( 'NONE',  ( -5.212632990920453402, 2.622325471836633781, -7.353910525029438539 ) ) ;
#506 = CIRCLE ( 'NONE', #686, 2.599999999968507503 ) ;
#507 = CIRCLE ( 'NONE', #619, 2.600000000060886940 ) ;
#508 = DIRECTION ( 'NONE',  ( 0.000000000000000000, 0.000000000000000000, 1.000000000000000000 ) ) ;
#509 = DIRECTION ( 'NONE',  ( 1.000000000000000000, 0.000000000000000000, 0.000000000000000000 ) ) ;
#510 = EDGE_CURVE ( 'NONE', #377, #294, #380, .T. ) ;
#511 = VERTEX_POINT ( 'NONE', #90 ) ;
#512 = DIRECTION ( 'NONE',  ( 0.000000000000000000, 0.000000000000000000, 1.000000000000000000 ) ) ;
#513 = AXIS2_PLACEMENT_3D ( 'NONE', #866, #634, #49 ) ;
#514 = FACE_BOUND ( 'NONE', #842, .T. ) ;
#515 = EDGE_LOOP ( 'NONE', ( #233, #830 ) ) ;
#516 = CARTESIAN_POINT ( 'NONE',  ( -4.635991159142971441, -16.16354546016115989, 0.000000000000000000 ) ) ;
#517 = AXIS2_PLACEMENT_3D ( 'NONE', #75, #873, #384 ) ;
#518 = ORIENTED_EDGE ( 'NONE', *, *, #56, .F. ) ;
#519 = CARTESIAN_POINT ( 'NONE',  ( -0.8012982551723959457, -5.853592485862924022, 5.950000000000000178 ) ) ;
#520 = FACE_OUTER_BOUND ( 'NONE', #852, .T. ) ;
#521 = ORIENTED_EDGE ( 'NONE', *, *, #378, .F. ) ;
#522 = DIRECTION ( 'NONE',  ( 1.000000000000000000, 0.000000000000000000, 0.000000000000000000 ) ) ;
#523 = AXIS2_PLACEMENT_3D ( 'NONE', #401, #615, #247 ) ;
#524 = FACE_BOUND ( 'NONE', #193, .T. ) ;
#525 = DIRECTION ( 'NONE',  ( 1.000000000000000000, 0.000000000000000000, 0.000000000000000000 ) ) ;
#526 = VERTEX_POINT ( 'NONE', #298 ) ;
#527 = CARTESIAN_POINT ( 'NONE',  ( -14.24732589478377598, -7.687627502461602980, -7.353910525029438539 ) ) ;
#528 = EDGE_LOOP ( 'NONE', ( #848, #415 ) ) ;
#529 = CARTESIAN_POINT ( 'NONE',  ( 1.032736761426343408, -16.69962012541325080, 0.000000000000000000 ) ) ;
#530 = CIRCLE ( 'NONE', #121, 1.500000000193662419 ) ;
#531 = ORIENTED_EDGE ( 'NONE', *, *, #895, .F. ) ;
#532 = EDGE_CURVE ( 'NONE', #275, #572, #747, .T. ) ;
#533 = DIRECTION ( 'NONE',  ( -0.000000000000000000, -0.000000000000000000, -1.000000000000000000 ) ) ;
#534 = DIRECTION ( 'NONE',  ( -0.000000000000000000, -0.000000000000000000, -1.000000000000000000 ) ) ;
#535 = CYLINDRICAL_SURFACE ( 'NONE', #536, 2.600000000060886940 ) ;
#536 = AXIS2_PLACEMENT_3D ( 'NONE', #174, #322, #743 ) ;
#537 = ORIENTED_EDGE ( 'NONE', *, *, #231, .T. ) ;
#538 = DIRECTION ( 'NONE',  ( -0.000000000000000000, -0.000000000000000000, 1.000000000000000000 ) ) ;
#539 = AXIS2_PLACEMENT_3D ( 'NONE', #625, #512, #350 ) ;
#540 = DIRECTION ( 'NONE',  ( 0.000000000000000000, 0.000000000000000000, 1.000000000000000000 ) ) ;
#541 = ORIENTED_EDGE ( 'NONE', *, *, #158, .F. ) ;
#542 = CARTESIAN_POINT ( 'NONE',  ( -0.8012982551723959457, -5.853592485862924022, 0.000000000000000000 ) ) ;
#543 = DIRECTION ( 'NONE',  ( -1.000000000000000000, 0.000000000000000000, 0.000000000000000000 ) ) ;
#544 = CIRCLE ( 'NONE', #138, 2.600000000243719800 ) ;
#545 = VERTEX_POINT ( 'NONE', #295 ) ;
#546 = ADVANCED_BREP_SHAPE_REPRESENTATION ( '\X2\5c0f817f7535673a8fde63a54ef6\X0\A', ( #825, #456 ), #738 ) ;
#547 = LINE ( 'NONE', #896, #915 ) ;
#548 = LINE ( 'NONE', #837, #369 ) ;
#549 = ADVANCED_FACE ( 'NONE', ( #302 ), #803, .F. ) ;
#550 = AXIS2_PLACEMENT_3D ( 'NONE', #841, #759, #43 ) ;
#551 = LINE ( 'NONE', #840, #314 ) ;
#552 = LINE ( 'NONE', #330, #68 ) ;
#553 = ORIENTED_EDGE ( 'NONE', *, *, #88, .F. ) ;
#554 = FACE_BOUND ( 'NONE', #387, .T. ) ;
#555 = EDGE_LOOP ( 'NONE', ( #521, #395 ) ) ;
#556 = SURFACE_STYLE_FILL_AREA ( #213 ) ;
#557 = AXIS2_PLACEMENT_3D ( 'NONE', #277, #45, #912 ) ;
#558 = VECTOR ( 'NONE', #612, 1000.000000000000000 ) ;
#559 = ORIENTED_EDGE ( 'NONE', *, *, #240, .F. ) ;
#560 = CARTESIAN_POINT ( 'NONE',  ( -7.235991159386690796, -16.16354546016115989, 0.000000000000000000 ) ) ;
#561 = ORIENTED_EDGE ( 'NONE', *, *, #731, .F. ) ;
#562 = DIRECTION ( 'NONE',  ( 1.000000000000000000, 0.000000000000000000, 0.000000000000000000 ) ) ;
#563 = VERTEX_POINT ( 'NONE', #591 ) ;
#564 = CARTESIAN_POINT ( 'NONE',  ( -4.635333271963007817, 4.992435153687402760, 0.000000000000000000 ) ) ;
#565 = EDGE_CURVE ( 'NONE', #171, #124, #105, .T. ) ;
#566 = ORIENTED_EDGE ( 'NONE', *, *, #565, .F. ) ;
#567 = DIRECTION ( 'NONE',  ( 1.000000000000000000, 0.000000000000000000, 0.000000000000000000 ) ) ;
#568 = ORIENTED_EDGE ( 'NONE', *, *, #466, .F. ) ;
#569 = LINE ( 'NONE', #781, #900 ) ;
#570 = ADVANCED_FACE ( 'NONE', ( #243 ), #79, .T. ) ;
#571 = CIRCLE ( 'NONE', #371, 2.599999999785666205 ) ;
#572 = VERTEX_POINT ( 'NONE', #588 ) ;
#573 =( LENGTH_UNIT ( ) NAMED_UNIT ( * ) SI_UNIT ( .MILLI., .METRE. ) );
#574 = FACE_OUTER_BOUND ( 'NONE', #390, .T. ) ;
#575 = CARTESIAN_POINT ( 'NONE',  ( 6.198701744842280092, -5.853592485862923134, 5.950000000000000178 ) ) ;
#576 = ORIENTED_EDGE ( 'NONE', *, *, #616, .F. ) ;
#577 = DIRECTION ( 'NONE',  ( 1.000000000000000000, 0.000000000000000000, 0.000000000000000000 ) ) ;
#578 = PRODUCT_DEFINITION_FORMATION_WITH_SPECIFIED_SOURCE ( '瀵', '', #65, .NOT_KNOWN. ) ;
#579 = AXIS2_PLACEMENT_3D ( 'NONE', #414, #352, #562 ) ;
#580 = LINE ( 'NONE', #236, #762 ) ;
#581 = EDGE_LOOP ( 'NONE', ( #42, #9 ) ) ;
#582 = DIRECTION ( 'NONE',  ( -1.000000000000000000, 0.000000000000000000, 0.000000000000000000 ) ) ;
#583 = FACE_OUTER_BOUND ( 'NONE', #467, .T. ) ;
#584 = ORIENTED_EDGE ( 'NONE', *, *, #679, .F. ) ;
#585 = DIRECTION ( 'NONE',  ( 1.000000000000000000, 0.000000000000000000, 0.000000000000000000 ) ) ;
#586 = CARTESIAN_POINT ( 'NONE',  ( 7.674619702527159859, 1.157742249716991578, 0.000000000000000000 ) ) ;
#587 = EDGE_LOOP ( 'NONE', ( #678, #131 ) ) ;
#588 = CARTESIAN_POINT ( 'NONE',  ( -10.41263299058416969, 2.622325471836634225, 5.950000000000000178 ) ) ;
#589 = EDGE_CURVE ( 'NONE', #938, #113, #18, .T. ) ;
#590 = ORIENTED_EDGE ( 'NONE', *, *, #159, .T. ) ;
#591 = CARTESIAN_POINT ( 'NONE',  ( 3.610036480209987797, -14.32951044356248183, 5.950000000000000178 ) ) ;
#592 = CIRCLE ( 'NONE', #666, 2.000000000191872740 ) ;
#593 = CARTESIAN_POINT ( 'NONE',  ( -4.635333271963007817, 4.992435153687402760, 5.950000000000000178 ) ) ;
#594 = EDGE_CURVE ( 'NONE', #113, #902, #27, .T. ) ;
#595 = DIRECTION ( 'NONE',  ( 0.000000000000000000, 0.000000000000000000, 1.000000000000000000 ) ) ;
#596 = ORIENTED_EDGE ( 'NONE', *, *, #205, .F. ) ;
#597 = CARTESIAN_POINT ( 'NONE',  ( -4.635991159142971441, -16.16354546016115989, -7.353910525029438539 ) ) ;
#598 = CARTESIAN_POINT ( 'NONE',  ( -10.41263299058416969, 2.622325471836634225, -7.353910525029438539 ) ) ;
#599 = ADVANCED_FACE ( 'NONE', ( #83 ), #164, .F. ) ;
#600 = CARTESIAN_POINT ( 'NONE',  ( -14.24732589478377776, -7.687627502461602980, 0.000000000000000000 ) ) ;
#601 = ORIENTED_EDGE ( 'NONE', *, *, #483, .T. ) ;
#602 = DIRECTION ( 'NONE',  ( -0.000000000000000000, -0.000000000000000000, -1.000000000000000000 ) ) ;
#603 = DIRECTION ( 'NONE',  ( 0.000000000000000000, 0.000000000000000000, 1.000000000000000000 ) ) ;
#604 = ORIENTED_EDGE ( 'NONE', *, *, #16, .F. ) ;
#605 = LINE ( 'NONE', #611, #145 ) ;
#606 = CARTESIAN_POINT ( 'NONE',  ( -0.8012982551723959457, -5.853592485862924022, 5.950000000000000178 ) ) ;
#607 = CARTESIAN_POINT ( 'NONE',  ( 8.810036480605049292, -14.32951044356248183, 0.000000000000000000 ) ) ;
#608 = CIRCLE ( 'NONE', #728, 2.599999999831858144 ) ;
#609 = AXIS2_PLACEMENT_3D ( 'NONE', #41, #595, #309 ) ;
#610 = ORIENTED_EDGE ( 'NONE', *, *, #71, .T. ) ;
#611 = CARTESIAN_POINT ( 'NONE',  ( 6.198701744842280092, -5.853592485862923134, 5.950000000000000178 ) ) ;
#612 = DIRECTION ( 'NONE',  ( -0.000000000000000000, -0.000000000000000000, 1.000000000000000000 ) ) ;
#613 = VERTEX_POINT ( 'NONE', #733 ) ;
#614 = DIRECTION ( 'NONE',  ( 1.000000000000000000, 0.000000000000000000, 0.000000000000000000 ) ) ;
#615 = DIRECTION ( 'NONE',  ( 0.000000000000000000, 0.000000000000000000, 1.000000000000000000 ) ) ;
#616 = EDGE_CURVE ( 'NONE', #882, #413, #905, .T. ) ;
#617 = VECTOR ( 'NONE', #14, 1000.000000000000000 ) ;
#618 = ORIENTED_EDGE ( 'NONE', *, *, #165, .F. ) ;
#619 = AXIS2_PLACEMENT_3D ( 'NONE', #923, #419, #288 ) ;
#620 = CARTESIAN_POINT ( 'NONE',  ( -2.035991158899251197, -16.16354546016115989, 0.000000000000000000 ) ) ;
#621 = ORIENTED_EDGE ( 'NONE', *, *, #126, .F. ) ;
#622 = CARTESIAN_POINT ( 'NONE',  ( -0.8012982551723959457, -5.853592485862924022, 5.950000000000000178 ) ) ;
#623 = VERTEX_POINT ( 'NONE', #869 ) ;
#624 = VECTOR ( 'NONE', #286, 1000.000000000000000 ) ;
#625 = CARTESIAN_POINT ( 'NONE',  ( -0.8012982551723959457, -5.853592485862924022, 0.000000000000000000 ) ) ;
#626 = VERTEX_POINT ( 'NONE', #225 ) ;
#627 = CYLINDRICAL_SURFACE ( 'NONE', #22, 7.000000000014676260 ) ;
#628 = ORIENTED_EDGE ( 'NONE', *, *, #846, .T. ) ;
#629 = DIRECTION ( 'NONE',  ( -0.000000000000000000, -0.000000000000000000, -1.000000000000000000 ) ) ;
#630 = AXIS2_PLACEMENT_3D ( 'NONE', #439, #365, #444 ) ;
#631 = ORIENTED_EDGE ( 'NONE', *, *, #476, .T. ) ;
#632 = DIRECTION ( 'NONE',  ( 1.000000000000000000, 0.000000000000000000, 0.000000000000000000 ) ) ;
#633 = ORIENTED_EDGE ( 'NONE', *, *, #266, .T. ) ;
#634 = DIRECTION ( 'NONE',  ( 0.000000000000000000, 0.000000000000000000, 1.000000000000000000 ) ) ;
#635 = ORIENTED_EDGE ( 'NONE', *, *, #565, .T. ) ;
#636 = DIRECTION ( 'NONE',  ( -0.000000000000000000, -0.000000000000000000, -1.000000000000000000 ) ) ;
#637 = ORIENTED_EDGE ( 'NONE', *, *, #767, .F. ) ;
#638 = CARTESIAN_POINT ( 'NONE',  ( -10.41263299058416969, 2.622325471836634225, 0.000000000000000000 ) ) ;
#639 = CIRCLE ( 'NONE', #493, 2.000000000197713401 ) ;
#640 = FACE_OUTER_BOUND ( 'NONE', #110, .T. ) ;
#641 =( NAMED_UNIT ( * ) PLANE_ANGLE_UNIT ( ) SI_UNIT ( $, .RADIAN. ) );
#642 = VERTEX_POINT ( 'NONE', #797 ) ;
#643 = DIRECTION ( 'NONE',  ( -0.000000000000000000, -0.000000000000000000, -1.000000000000000000 ) ) ;
#644 = DIRECTION ( 'NONE',  ( -1.000000000000000000, 0.000000000000000000, 0.000000000000000000 ) ) ;
#645 = ORIENTED_EDGE ( 'NONE', *, *, #104, .F. ) ;
#646 = DIRECTION ( 'NONE',  ( -0.000000000000000000, -0.000000000000000000, -1.000000000000000000 ) ) ;
#647 = DIRECTION ( 'NONE',  ( 0.000000000000000000, 0.000000000000000000, 1.000000000000000000 ) ) ;
#648 = EDGE_LOOP ( 'NONE', ( #768, #628, #748, #434 ) ) ;
#649 = DIRECTION ( 'NONE',  ( 1.000000000000000000, 0.000000000000000000, 0.000000000000000000 ) ) ;
#650 = VECTOR ( 'NONE', #901, 1000.000000000000000 ) ;
#651 = AXIS2_PLACEMENT_3D ( 'NONE', #55, #929, #144 ) ;
#652 = CARTESIAN_POINT ( 'NONE',  ( 7.674619702527159859, 1.157742249716991578, 0.000000000000000000 ) ) ;
#653 = ORIENTED_EDGE ( 'NONE', *, *, #691, .T. ) ;
#654 = DIRECTION ( 'NONE',  ( 0.000000000000000000, 0.000000000000000000, 1.000000000000000000 ) ) ;
#655 = CYLINDRICAL_SURFACE ( 'NONE', #814, 2.600000000197530081 ) ;
#656 = LINE ( 'NONE', #452, #661 ) ;
#657 = AXIS2_PLACEMENT_3D ( 'NONE', #375, #153, #722 ) ;
#658 = EDGE_CURVE ( 'NONE', #623, #701, #422, .T. ) ;
#659 = ORIENTED_EDGE ( 'NONE', *, *, #736, .T. ) ;
#660 = CARTESIAN_POINT ( 'NONE',  ( 12.64472938434660598, -4.019557469264247729, 0.000000000000000000 ) ) ;
#661 = VECTOR ( 'NONE', #876, 1000.000000000000000 ) ;
#662 = CARTESIAN_POINT ( 'NONE',  ( 3.610036480209987797, -14.32951044356248183, 0.000000000000000000 ) ) ;
#663 = CARTESIAN_POINT ( 'NONE',  ( -2.635333271771135077, 4.992435153687402760, 0.000000000000000000 ) ) ;
#664 = CARTESIAN_POINT ( 'NONE',  ( -14.24732589478377776, -7.687627502461602980, 5.950000000000000178 ) ) ;
#665 = ORIENTED_EDGE ( 'NONE', *, *, #714, .T. ) ;
#666 = AXIS2_PLACEMENT_3D ( 'NONE', #33, #396, #320 ) ;
#667 = VERTEX_POINT ( 'NONE', #660 ) ;
#668 = CARTESIAN_POINT ( 'NONE',  ( -7.812632990752311990, 2.622325471836633781, -7.353910525029438539 ) ) ;
#669 = CIRCLE ( 'NONE', #389, 2.000000000197713401 ) ;
#670 = ORIENTED_EDGE ( 'NONE', *, *, #126, .T. ) ;
#671 = CARTESIAN_POINT ( 'NONE',  ( 7.674619702527159859, 1.157742249716991578, 5.950000000000000178 ) ) ;
#672 = FACE_BOUND ( 'NONE', #581, .T. ) ;
#673 = LINE ( 'NONE', #35, #650 ) ;
#674 = ORIENTED_EDGE ( 'NONE', *, *, #88, .T. ) ;
#675 = CARTESIAN_POINT ( 'NONE',  ( 5.633394648583842645, 4.456360488435314515, 5.950000000000000178 ) ) ;
#676 = PLANE ( 'NONE',  #206 ) ;
#677 = AXIS2_PLACEMENT_3D ( 'NONE', #318, #186, #543 ) ;
#678 = ORIENTED_EDGE ( 'NONE', *, *, #679, .T. ) ;
#679 = EDGE_CURVE ( 'NONE', #197, #482, #135, .T. ) ;
#680 = DIRECTION ( 'NONE',  ( -0.000000000000000000, -0.000000000000000000, -1.000000000000000000 ) ) ;
#681 = EDGE_CURVE ( 'NONE', #443, #613, #782, .T. ) ;
#682 = DIRECTION ( 'NONE',  ( 1.000000000000000000, 0.000000000000000000, 0.000000000000000000 ) ) ;
#683 = EDGE_LOOP ( 'NONE', ( #887, #194 ) ) ;
#684 = DIRECTION ( 'NONE',  ( 0.000000000000000000, 0.000000000000000000, 1.000000000000000000 ) ) ;
#685 = ADVANCED_FACE ( 'NONE', ( #813 ), #737, .F. ) ;
#686 = AXIS2_PLACEMENT_3D ( 'NONE', #147, #8, #525 ) ;
#687 = EDGE_LOOP ( 'NONE', ( #188, #845 ) ) ;
#688 = CIRCLE ( 'NONE', #139, 2.599999999785666205 ) ;
#689 = ORIENTED_EDGE ( 'NONE', *, *, #886, .T. ) ;
#690 = CARTESIAN_POINT ( 'NONE',  ( -0.8012982551723959457, -5.853592485862924022, 5.950000000000000178 ) ) ;
#691 = EDGE_CURVE ( 'NONE', #563, #812, #789, .T. ) ;
#692 = ADVANCED_FACE ( 'NONE', ( #388 ), #176, .F. ) ;
#693 = EDGE_LOOP ( 'NONE', ( #279, #635, #343, #633 ) ) ;
#694 = CARTESIAN_POINT ( 'NONE',  ( 1.032736761426343408, -16.69962012541325080, 5.950000000000000178 ) ) ;
#695 = VERTEX_POINT ( 'NONE', #263 ) ;
#696 = VECTOR ( 'NONE', #499, 1000.000000000000000 ) ;
#697 = DIRECTION ( 'NONE',  ( 0.000000000000000000, 0.000000000000000000, 1.000000000000000000 ) ) ;
#698 = LINE ( 'NONE', #445, #315 ) ;
#699 = ORIENTED_EDGE ( 'NONE', *, *, #240, .T. ) ;
#700 = CYLINDRICAL_SURFACE ( 'NONE', #170, 15.00000000001467448 ) ;
#701 = VERTEX_POINT ( 'NONE', #675 ) ;
#702 = DIRECTION ( 'NONE',  ( 0.000000000000000000, 0.000000000000000000, 1.000000000000000000 ) ) ;
#703 = AXIS2_PLACEMENT_3D ( 'NONE', #157, #307, #649 ) ;
#704 = CARTESIAN_POINT ( 'NONE',  ( -0.8012982551723959457, -5.853592485862924022, 0.000000000000000000 ) ) ;
#705 = DIRECTION ( 'NONE',  ( -0.000000000000000000, -0.000000000000000000, -1.000000000000000000 ) ) ;
#706 = DIRECTION ( 'NONE',  ( 1.000000000000000000, 0.000000000000000000, 0.000000000000000000 ) ) ;
#707 = ORIENTED_EDGE ( 'NONE', *, *, #412, .F. ) ;
#708 = LINE ( 'NONE', #67, #624 ) ;
#709 = AXIS2_PLACEMENT_3D ( 'NONE', #907, #538, #462 ) ;
#710 = CARTESIAN_POINT ( 'NONE',  ( -9.277216212871952195, -12.86492722144283896, 0.000000000000000000 ) ) ;
#711 = CARTESIAN_POINT ( 'NONE',  ( 8.810036480605049292, -14.32951044356248183, 5.950000000000000178 ) ) ;
#712 = ORIENTED_EDGE ( 'NONE', *, *, #751, .T. ) ;
#713 = DIRECTION ( 'NONE',  ( 0.000000000000000000, 0.000000000000000000, 1.000000000000000000 ) ) ;
#714 = EDGE_CURVE ( 'NONE', #496, #203, #190, .T. ) ;
#715 = DIRECTION ( 'NONE',  ( -0.000000000000000000, -0.000000000000000000, -1.000000000000000000 ) ) ;
#716 = EDGE_LOOP ( 'NONE', ( #332, #94, #118, #489 ) ) ;
#717 = CLOSED_SHELL ( 'NONE', ( #142, #599, #385, #777, #685, #50, #827, #500, #31, #885, #256, #570, #274, #76, #858, #809, #478, #928, #549, #785, #692, #761, #115, #828, #878, #799 ) ) ;
#718 = AXIS2_PLACEMENT_3D ( 'NONE', #704, #911, #926 ) ;
#719 = DIRECTION ( 'NONE',  ( -0.000000000000000000, -0.000000000000000000, -1.000000000000000000 ) ) ;
#720 = FACE_BOUND ( 'NONE', #289, .T. ) ;
#721 = ORIENTED_EDGE ( 'NONE', *, *, #594, .T. ) ;
#722 = DIRECTION ( 'NONE',  ( 1.000000000000000000, 0.000000000000000000, 0.000000000000000000 ) ) ;
#723 = PRODUCT_RELATED_PRODUCT_CATEGORY ( 'part', '', ( #65 ) ) ;
#724 = EDGE_CURVE ( 'NONE', #855, #780, #605, .T. ) ;
#725 = DIRECTION ( 'NONE',  ( 0.000000000000000000, 0.000000000000000000, 1.000000000000000000 ) ) ;
#726 = ORIENTED_EDGE ( 'NONE', *, *, #353, .F. ) ;
#727 = CARTESIAN_POINT ( 'NONE',  ( -10.77721621306789324, -12.86492722144283896, 5.950000000000000178 ) ) ;
#728 = AXIS2_PLACEMENT_3D ( 'NONE', #125, #643, #70 ) ;
#729 = EDGE_CURVE ( 'NONE', #938, #626, #38, .T. ) ;
#730 = APPLICATION_PROTOCOL_DEFINITION ( 'draft international standard', 'automotive_design', 1998, #446 ) ;
#731 = EDGE_CURVE ( 'NONE', #642, #780, #881, .T. ) ;
#732 = EDGE_LOOP ( 'NONE', ( #424, #351, #561, #621 ) ) ;
#733 = CARTESIAN_POINT ( 'NONE',  ( -5.212632990920453402, 2.622325471836633781, 0.000000000000000000 ) ) ;
#734 = DIRECTION ( 'NONE',  ( 0.000000000000000000, 0.000000000000000000, 1.000000000000000000 ) ) ;
#735 = ORIENTED_EDGE ( 'NONE', *, *, #423, .F. ) ;
#736 = EDGE_CURVE ( 'NONE', #783, #545, #552, .T. ) ;
#737 = CYLINDRICAL_SURFACE ( 'NONE', #264, 2.599999999831858144 ) ;
#738 =( GEOMETRIC_REPRESENTATION_CONTEXT ( 3 ) GLOBAL_UNCERTAINTY_ASSIGNED_CONTEXT ( ( #220 ) ) GLOBAL_UNIT_ASSIGNED_CONTEXT ( ( #155, #3, #310 ) ) REPRESENTATION_CONTEXT ( 'NONE', 'WORKASPACE' ) );
#739 = PRESENTATION_LAYER_ASSIGNMENT (  '', '', ( #457 ) ) ;
#740 = ORIENTED_EDGE ( 'NONE', *, *, #91, .F. ) ;
#741 = DIRECTION ( 'NONE',  ( 1.000000000000000000, 0.000000000000000000, 0.000000000000000000 ) ) ;
#742 = AXIS2_PLACEMENT_3D ( 'NONE', #861, #215, #577 ) ;
#743 = DIRECTION ( 'NONE',  ( 1.000000000000000000, 0.000000000000000000, 0.000000000000000000 ) ) ;
#744 = EDGE_LOOP ( 'NONE', ( #253, #765 ) ) ;
#745 = DIRECTION ( 'NONE',  ( 1.000000000000000000, 0.000000000000000000, 0.000000000000000000 ) ) ;
#746 = DIRECTION ( 'NONE',  ( 1.000000000000000000, 0.000000000000000000, 0.000000000000000000 ) ) ;
#747 = CIRCLE ( 'NONE', #517, 2.599999999831858144 ) ;
#748 = ORIENTED_EDGE ( 'NONE', *, *, #729, .T. ) ;
#749 = FACE_OUTER_BOUND ( 'NONE', #458, .T. ) ;
#750 = FACE_BOUND ( 'NONE', #687, .T. ) ;
#751 = EDGE_CURVE ( 'NONE', #329, #323, #547, .T. ) ;
#752 = ORIENTED_EDGE ( 'NONE', *, *, #589, .T. ) ;
#753 = CARTESIAN_POINT ( 'NONE',  ( 9.174619702720821834, 1.157742249716991800, 5.950000000000000178 ) ) ;
#754 = FACE_BOUND ( 'NONE', #683, .T. ) ;
#755 = VECTOR ( 'NONE', #913, 1000.000000000000000 ) ;
#756 = DIRECTION ( 'NONE',  ( 1.000000000000000000, 0.000000000000000000, 0.000000000000000000 ) ) ;
#757 = AXIS2_PLACEMENT_3D ( 'NONE', #255, #540, #479 ) ;
#758 = ORIENTED_EDGE ( 'NONE', *, *, #681, .F. ) ;
#759 = DIRECTION ( 'NONE',  ( 0.000000000000000000, 0.000000000000000000, 1.000000000000000000 ) ) ;
#760 = DIRECTION ( 'NONE',  ( -0.000000000000000000, -0.000000000000000000, -1.000000000000000000 ) ) ;
#761 = ADVANCED_FACE ( 'NONE', ( #325 ), #819, .F. ) ;
#762 = VECTOR ( 'NONE', #146, 1000.000000000000000 ) ;
#763 = EDGE_LOOP ( 'NONE', ( #504, #795 ) ) ;
#764 = EDGE_CURVE ( 'NONE', #267, #783, #308, .T. ) ;
#765 = ORIENTED_EDGE ( 'NONE', *, *, #476, .F. ) ;
#766 = DIRECTION ( 'NONE',  ( -0.000000000000000000, -0.000000000000000000, 1.000000000000000000 ) ) ;
#767 = EDGE_CURVE ( 'NONE', #348, #354, #592, .T. ) ;
#768 = ORIENTED_EDGE ( 'NONE', *, *, #594, .F. ) ;
#769 = DIRECTION ( 'NONE',  ( -0.000000000000000000, -0.000000000000000000, -1.000000000000000000 ) ) ;
#770 = ORIENTED_EDGE ( 'NONE', *, *, #230, .T. ) ;
#771 = CYLINDRICAL_SURFACE ( 'NONE', #742, 2.599999999785666205 ) ;
#772 = EDGE_CURVE ( 'NONE', #855, #859, #431, .T. ) ;
#773 = ORIENTED_EDGE ( 'NONE', *, *, #897, .T. ) ;
#774 = CYLINDRICAL_SURFACE ( 'NONE', #817, 2.000000000197712957 ) ;
#775 = ORIENTED_EDGE ( 'NONE', *, *, #465, .T. ) ;
#776 = CARTESIAN_POINT ( 'NONE',  ( 3.033394648798176441, 4.456360488435314515, 5.950000000000000178 ) ) ;
#777 = ADVANCED_FACE ( 'NONE', ( #185 ), #824, .F. ) ;
#778 = ORIENTED_EDGE ( 'NONE', *, *, #292, .T. ) ;
#779 = FACE_OUTER_BOUND ( 'NONE', #932, .T. ) ;
#780 = VERTEX_POINT ( 'NONE', #473 ) ;
#781 = CARTESIAN_POINT ( 'NONE',  ( -15.80129825518707065, -5.853592485862924022, 5.950000000000000178 ) ) ;
#782 = CIRCLE ( 'NONE', #501, 2.599999999831858144 ) ;
#783 = VERTEX_POINT ( 'NONE', #753 ) ;
#784 = FACE_OUTER_BOUND ( 'NONE', #906, .T. ) ;
#785 = ADVANCED_FACE ( 'NONE', ( #749 ), #836, .F. ) ;
#786 = EDGE_LOOP ( 'NONE', ( #37, #502, #631, #802 ) ) ;
#787 = CIRCLE ( 'NONE', #910, 2.000000000197713401 ) ;
#788 = CARTESIAN_POINT ( 'NONE',  ( -0.6353332715792626706, 4.992435153687402760, 5.950000000000000178 ) ) ;
#789 = CIRCLE ( 'NONE', #550, 2.600000000197530081 ) ;
#790 = DIRECTION ( 'NONE',  ( 1.000000000000000000, 0.000000000000000000, 0.000000000000000000 ) ) ;
#791 = ORIENTED_EDGE ( 'NONE', *, *, #100, .F. ) ;
#792 = DIRECTION ( 'NONE',  ( -0.000000000000000000, -0.000000000000000000, -1.000000000000000000 ) ) ;
#793 = FACE_BOUND ( 'NONE', #214, .T. ) ;
#794 = CARTESIAN_POINT ( 'NONE',  ( -4.635991159142971441, -16.16354546016115989, 5.950000000000000178 ) ) ;
#795 = ORIENTED_EDGE ( 'NONE', *, *, #292, .F. ) ;
#796 = VECTOR ( 'NONE', #930, 1000.000000000000000 ) ;
#797 = CARTESIAN_POINT ( 'NONE',  ( -7.801298255187071540, -5.853592485862924022, 0.000000000000000000 ) ) ;
#798 = EDGE_CURVE ( 'NONE', #823, #106, #688, .T. ) ;
#799 = ADVANCED_FACE ( 'NONE', ( #784 ), #490, .F. ) ;
#800 = CARTESIAN_POINT ( 'NONE',  ( -7.812632990752311990, 2.622325471836633781, 5.950000000000000178 ) ) ;
#801 = DIRECTION ( 'NONE',  ( 0.000000000000000000, 0.000000000000000000, 1.000000000000000000 ) ) ;
#802 = ORIENTED_EDGE ( 'NONE', *, *, #200, .F. ) ;
#803 = CYLINDRICAL_SURFACE ( 'NONE', #470, 1.500000000193663308 ) ;
#804 = FACE_BOUND ( 'NONE', #438, .T. ) ;
#805 = ORIENTED_EDGE ( 'NONE', *, *, #681, .T. ) ;
#806 = DIRECTION ( 'NONE',  ( 0.000000000000000000, 0.000000000000000000, 1.000000000000000000 ) ) ;
#807 = CIRCLE ( 'NONE', #400, 7.000000000014676260 ) ;
#808 = PRODUCT_DEFINITION ( '鏅', '', #578, #879 ) ;
#809 = ADVANCED_FACE ( 'NONE', ( #429 ), #774, .F. ) ;
#810 = PLANE ( 'NONE',  #282 ) ;
#811 = DIRECTION ( 'NONE',  ( -0.000000000000000000, -0.000000000000000000, -1.000000000000000000 ) ) ;
#812 = VERTEX_POINT ( 'NONE', #711 ) ;
#813 = FACE_OUTER_BOUND ( 'NONE', #716, .T. ) ;
#814 = AXIS2_PLACEMENT_3D ( 'NONE', #2, #370, #358 ) ;
#815 = ORIENTED_EDGE ( 'NONE', *, *, #335, .T. ) ;
#816 = CARTESIAN_POINT ( 'NONE',  ( 7.674619702527159859, 1.157742249716991578, 5.950000000000000178 ) ) ;
#817 = AXIS2_PLACEMENT_3D ( 'NONE', #694, #636, #851 ) ;
#818 = EDGE_LOOP ( 'NONE', ( #877, #934 ) ) ;
#819 = CYLINDRICAL_SURFACE ( 'NONE', #709, 2.599999999831858144 ) ;
#820 = EDGE_CURVE ( 'NONE', #294, #377, #305, .T. ) ;
#821 = FACE_BOUND ( 'NONE', #744, .T. ) ;
#822 = CIRCLE ( 'NONE', #417, 2.600000000060886940 ) ;
#823 = VERTEX_POINT ( 'NONE', #202 ) ;
#824 = CYLINDRICAL_SURFACE ( 'NONE', #219, 2.600000000060886940 ) ;
#825 = MANIFOLD_SOLID_BREP ( '\X2\52079664\X0\-\X2\62c94f38\X0\1', #717 ) ;
#826 = CARTESIAN_POINT ( 'NONE',  ( -9.277216212871952195, -12.86492722144283896, 5.950000000000000178 ) ) ;
#827 = ADVANCED_FACE ( 'NONE', ( #337 ), #627, .F. ) ;
#828 = ADVANCED_FACE ( 'NONE', ( #69 ), #937, .F. ) ;
#829 = AXIS2_PLACEMENT_3D ( 'NONE', #529, #806, #379 ) ;
#830 = ORIENTED_EDGE ( 'NONE', *, *, #465, .F. ) ;
#831 = DIRECTION ( 'NONE',  ( 0.000000000000000000, 0.000000000000000000, 1.000000000000000000 ) ) ;
#832 = APPLICATION_CONTEXT ( 'automotive_design' ) ;
#833 = CARTESIAN_POINT ( 'NONE',  ( 6.174619702333496996, 1.157742249716991578, 5.950000000000000178 ) ) ;
#834 =( GEOMETRIC_REPRESENTATION_CONTEXT ( 3 ) GLOBAL_UNCERTAINTY_ASSIGNED_CONTEXT ( ( #97 ) ) GLOBAL_UNIT_ASSIGNED_CONTEXT ( ( #573, #641, #53 ) ) REPRESENTATION_CONTEXT ( 'NONE', 'WORKASPACE' ) );
#835 = ORIENTED_EDGE ( 'NONE', *, *, #440, .F. ) ;
#836 = CYLINDRICAL_SURFACE ( 'NONE', #173, 7.000000000014676260 ) ;
#837 = CARTESIAN_POINT ( 'NONE',  ( 14.19870174484227832, -5.853592485862922246, 5.950000000000000178 ) ) ;
#838 = AXIS2_PLACEMENT_3D ( 'NONE', #671, #831, #745 ) ;
#839 = EDGE_CURVE ( 'NONE', #526, #143, #787, .T. ) ;
#840 = CARTESIAN_POINT ( 'NONE',  ( -0.9672632387713695490, -16.69962012541325080, 5.950000000000000178 ) ) ;
#841 = CARTESIAN_POINT ( 'NONE',  ( 6.210036480407518766, -14.32951044356248183, 5.950000000000000178 ) ) ;
#842 = EDGE_LOOP ( 'NONE', ( #927, #283 ) ) ;
#843 = DIRECTION ( 'NONE',  ( 1.000000000000000000, 0.000000000000000000, 0.000000000000000000 ) ) ;
#844 = VECTOR ( 'NONE', #880, 1000.000000000000000 ) ;
#845 = ORIENTED_EDGE ( 'NONE', *, *, #231, .F. ) ;
#846 = EDGE_CURVE ( 'NONE', #113, #938, #507, .T. ) ;
#847 = FILL_AREA_STYLE_COLOUR ( '', #865 ) ;
#848 = ORIENTED_EDGE ( 'NONE', *, *, #820, .F. ) ;
#849 = DIRECTION ( 'NONE',  ( 0.000000000000000000, 0.000000000000000000, 1.000000000000000000 ) ) ;
#850 = ORIENTED_EDGE ( 'NONE', *, *, #394, .F. ) ;
#851 = DIRECTION ( 'NONE',  ( -1.000000000000000000, 0.000000000000000000, 0.000000000000000000 ) ) ;
#852 = EDGE_LOOP ( 'NONE', ( #20, #306, #894, #735 ) ) ;
#853 = LINE ( 'NONE', #505, #296 ) ;
#854 = AXIS2_PLACEMENT_3D ( 'NONE', #111, #684, #746 ) ;
#855 = VERTEX_POINT ( 'NONE', #575 ) ;
#856 = ORIENTED_EDGE ( 'NONE', *, *, #158, .T. ) ;
#857 = DIRECTION ( 'NONE',  ( 1.000000000000000000, 0.000000000000000000, 0.000000000000000000 ) ) ;
#858 = ADVANCED_FACE ( 'NONE', ( #860 ), #700, .T. ) ;
#859 = VERTEX_POINT ( 'NONE', #497 ) ;
#860 = FACE_OUTER_BOUND ( 'NONE', #89, .T. ) ;
#861 = CARTESIAN_POINT ( 'NONE',  ( 3.033394648798176441, 4.456360488435314515, -7.353910525029438539 ) ) ;
#862 = AXIS2_PLACEMENT_3D ( 'NONE', #300, #811, #381 ) ;
#863 = DIRECTION ( 'NONE',  ( -0.000000000000000000, -0.000000000000000000, -1.000000000000000000 ) ) ;
#864 = EDGE_LOOP ( 'NONE', ( #752, #721, #775, #301 ) ) ;
#865 = COLOUR_RGB ( '',0.7921568627450980005, 0.8196078431372548767, 0.9333333333333333481 ) ;
#866 = CARTESIAN_POINT ( 'NONE',  ( -0.8012982551723959457, -5.853592485862924022, 5.950000000000000178 ) ) ;
#867 = FACE_BOUND ( 'NONE', #763, .T. ) ;
#868 = EDGE_LOOP ( 'NONE', ( #835, #430, #856, #850 ) ) ;
#869 = CARTESIAN_POINT ( 'NONE',  ( 0.4333946490125105688, 4.456360488435314515, 5.950000000000000178 ) ) ;
#870 = AXIS2_PLACEMENT_3D ( 'NONE', #356, #849, #132 ) ;
#871 = DIRECTION ( 'NONE',  ( -0.000000000000000000, -0.000000000000000000, -1.000000000000000000 ) ) ;
#872 = EDGE_LOOP ( 'NONE', ( #559, #449 ) ) ;
#873 = DIRECTION ( 'NONE',  ( 0.000000000000000000, 0.000000000000000000, 1.000000000000000000 ) ) ;
#874 = AXIS2_PLACEMENT_3D ( 'NONE', #516, #719, #585 ) ;
#875 = DIRECTION ( 'NONE',  ( 1.000000000000000000, 0.000000000000000000, 0.000000000000000000 ) ) ;
#876 = DIRECTION ( 'NONE',  ( -0.000000000000000000, -0.000000000000000000, -1.000000000000000000 ) ) ;
#877 = ORIENTED_EDGE ( 'NONE', *, *, #313, .F. ) ;
#878 = ADVANCED_FACE ( 'NONE', ( #779 ), #134, .F. ) ;
#879 = PRODUCT_DEFINITION_CONTEXT ( 'detailed design', #832, 'design' ) ;
#880 = DIRECTION ( 'NONE',  ( -0.000000000000000000, -0.000000000000000000, -1.000000000000000000 ) ) ;
#881 = CIRCLE ( 'NONE', #475, 7.000000000014676260 ) ;
#882 = VERTEX_POINT ( 'NONE', #64 ) ;
#883 = DIRECTION ( 'NONE',  ( -1.000000000000000000, 0.000000000000000000, 0.000000000000000000 ) ) ;
#884 = VECTOR ( 'NONE', #150, 1000.000000000000000 ) ;
#885 = ADVANCED_FACE ( 'NONE', ( #80 ), #372, .F. ) ;
#886 = EDGE_CURVE ( 'NONE', #545, #15, #1, .T. ) ;
#887 = ORIENTED_EDGE ( 'NONE', *, *, #266, .F. ) ;
#888 = CARTESIAN_POINT ( 'NONE',  ( -15.80129825518707065, -5.853592485862924022, 0.000000000000000000 ) ) ;
#889 = FACE_OUTER_BOUND ( 'NONE', #648, .T. ) ;
#890 = ORIENTED_EDGE ( 'NONE', *, *, #378, .T. ) ;
#891 = CARTESIAN_POINT ( 'NONE',  ( -9.047325894662002099, -7.687627502461602980, -7.353910525029438539 ) ) ;
#892 = FACE_BOUND ( 'NONE', #872, .T. ) ;
#893 = DIRECTION ( 'NONE',  ( 1.000000000000000000, 0.000000000000000000, 0.000000000000000000 ) ) ;
#894 = ORIENTED_EDGE ( 'NONE', *, *, #412, .T. ) ;
#895 = EDGE_CURVE ( 'NONE', #823, #623, #363, .T. ) ;
#896 = CARTESIAN_POINT ( 'NONE',  ( -7.777216212676012042, -12.86492722144283896, 5.950000000000000178 ) ) ;
#897 = EDGE_CURVE ( 'NONE', #15, #545, #530, .T. ) ;
#898 = LINE ( 'NONE', #484, #151 ) ;
#899 = AXIS2_PLACEMENT_3D ( 'NONE', #265, #327, #843 ) ;
#900 = VECTOR ( 'NONE', #629, 1000.000000000000000 ) ;
#901 = DIRECTION ( 'NONE',  ( -0.000000000000000000, -0.000000000000000000, -1.000000000000000000 ) ) ;
#902 = VERTEX_POINT ( 'NONE', #664 ) ;
#903 = DIRECTION ( 'NONE',  ( 0.000000000000000000, 0.000000000000000000, 1.000000000000000000 ) ) ;
#904 = CYLINDRICAL_SURFACE ( 'NONE', #677, 2.000000000197712957 ) ;
#905 = CIRCLE ( 'NONE', #829, 2.000000000197713401 ) ;
#906 = EDGE_LOOP ( 'NONE', ( #726, #778, #815, #699 ) ) ;
#907 = CARTESIAN_POINT ( 'NONE',  ( -7.812632990752311990, 2.622325471836633781, -7.353910525029438539 ) ) ;
#908 = CARTESIAN_POINT ( 'NONE',  ( -7.235991159386690796, -16.16354546016115989, 5.950000000000000178 ) ) ;
#909 = EDGE_CURVE ( 'NONE', #82, #311, #544, .T. ) ;
#910 = AXIS2_PLACEMENT_3D ( 'NONE', #487, #344, #284 ) ;
#911 = DIRECTION ( 'NONE',  ( 0.000000000000000000, 0.000000000000000000, 1.000000000000000000 ) ) ;
#912 = DIRECTION ( 'NONE',  ( 1.000000000000000000, 0.000000000000000000, 0.000000000000000000 ) ) ;
#913 = DIRECTION ( 'NONE',  ( -0.000000000000000000, -0.000000000000000000, 1.000000000000000000 ) ) ;
#914 = FACE_OUTER_BOUND ( 'NONE', #587, .T. ) ;
#915 = VECTOR ( 'NONE', #533, 1000.000000000000000 ) ;
#916 = EDGE_CURVE ( 'NONE', #143, #882, #656, .T. ) ;
#917 = CARTESIAN_POINT ( 'NONE',  ( 1.032736761426343408, -16.69962012541325080, 5.950000000000000178 ) ) ;
#918 = EDGE_CURVE ( 'NONE', #667, #695, #506, .T. ) ;
#919 = ORIENTED_EDGE ( 'NONE', *, *, #6, .F. ) ;
#920 = DIRECTION ( 'NONE',  ( -0.000000000000000000, -0.000000000000000000, -1.000000000000000000 ) ) ;
#921 = DIRECTION ( 'NONE',  ( 1.000000000000000000, 0.000000000000000000, 0.000000000000000000 ) ) ;
#922 = ORIENTED_EDGE ( 'NONE', *, *, #466, .T. ) ;
#923 = CARTESIAN_POINT ( 'NONE',  ( -11.64732589472288993, -7.687627502461602980, 0.000000000000000000 ) ) ;
#924 = EDGE_LOOP ( 'NONE', ( #336, #227, #140, #453 ) ) ;
#925 = LINE ( 'NONE', #199, #251 ) ;
#926 = DIRECTION ( 'NONE',  ( 1.000000000000000000, 0.000000000000000000, 0.000000000000000000 ) ) ;
#927 = ORIENTED_EDGE ( 'NONE', *, *, #589, .F. ) ;
#928 = ADVANCED_FACE ( 'NONE', ( #520 ), #433, .F. ) ;
#929 = DIRECTION ( 'NONE',  ( 0.000000000000000000, 0.000000000000000000, 1.000000000000000000 ) ) ;
#930 = DIRECTION ( 'NONE',  ( -0.000000000000000000, -0.000000000000000000, 1.000000000000000000 ) ) ;
#931 = VECTOR ( 'NONE', #766, 1000.000000000000000 ) ;
#932 = EDGE_LOOP ( 'NONE', ( #245, #360, #285, #410 ) ) ;
#933 = CIRCLE ( 'NONE', #11, 2.000000000191872740 ) ;
#934 = ORIENTED_EDGE ( 'NONE', *, *, #772, .F. ) ;
#935 = CARTESIAN_POINT ( 'NONE',  ( 14.19870174484227832, -5.853592485862922246, 5.950000000000000178 ) ) ;
#936 = DIRECTION ( 'NONE',  ( 0.000000000000000000, 0.000000000000000000, 1.000000000000000000 ) ) ;
#937 = CYLINDRICAL_SURFACE ( 'NONE', #382, 2.599999999785666205 ) ;
#938 = VERTEX_POINT ( 'NONE', #73 ) ;
#939 = DIRECTION ( 'NONE',  ( 1.000000000000000000, 0.000000000000000000, 0.000000000000000000 ) ) ;
ENDSEC;
END-ISO-10303-21;
