ISO-10303-21;
HEADER;
FILE_DESCRIPTION (( 'STEP AP214' ),
    '1' );
FILE_NAME ('板件-外管夹连接板A.STEP',
    '2026-08-16T17:26:55',
    ( '' ),
    ( '' ),
    'SwSTEP 2.0',
    'SolidWorks 2025',
    '' );
FILE_SCHEMA (( 'AUTOMOTIVE_DESIGN' ));
ENDSEC;

DATA;
#1 = DIRECTION ( 'NONE',  ( 1.000000000000000000, 0.000000000000000000, 0.000000000000000000 ) ) ;
#2 = CARTESIAN_POINT ( 'NONE',  ( -14.39999999999993818, -34.00000000000014211, 0.000000000000000000 ) ) ;
#3 = ORIENTED_EDGE ( 'NONE', *, *, #867, .T. ) ;
#4 = CYLINDRICAL_SURFACE ( 'NONE', #795, 1.499999999999999556 ) ;
#5 = EDGE_CURVE ( 'NONE', #430, #230, #676, .T. ) ;
#6 = CARTESIAN_POINT ( 'NONE',  ( -34.00000000000000000, -30.00000000000000355, 5.000000000000000000 ) ) ;
#7 = DIRECTION ( 'NONE',  ( -1.000000000000000000, 0.000000000000000000, 0.000000000000000000 ) ) ;
#8 = ORIENTED_EDGE ( 'NONE', *, *, #141, .F. ) ;
#9 = CARTESIAN_POINT ( 'NONE',  ( -15.99999999999999289, -34.00000000000014211, 0.000000000000000000 ) ) ;
#10 = VECTOR ( 'NONE', #897, 1000.000000000000000 ) ;
#11 = CARTESIAN_POINT ( 'NONE',  ( -1.939599295521237776, 25.77645713530750271, 0.000000000000000000 ) ) ;
#12 = CARTESIAN_POINT ( 'NONE',  ( -8.000000000000000000, -13.00000000000000000, 5.000000000000000000 ) ) ;
#13 = ORIENTED_EDGE ( 'NONE', *, *, #469, .T. ) ;
#14 = EDGE_CURVE ( 'NONE', #220, #847, #210, .T. ) ;
#15 = CARTESIAN_POINT ( 'NONE',  ( -37.00000000000000711, -33.99999999999999289, 0.000000000000000000 ) ) ;
#16 = VECTOR ( 'NONE', #808, 1000.000000000000000 ) ;
#17 = CARTESIAN_POINT ( 'NONE',  ( -9.500000000000000000, 0.000000000000000000, 0.000000000000000000 ) ) ;
#18 = ORIENTED_EDGE ( 'NONE', *, *, #89, .F. ) ;
#19 = DIRECTION ( 'NONE',  ( 1.000000000000000000, 0.000000000000000000, 0.000000000000000000 ) ) ;
#20 = LINE ( 'NONE', #551, #320 ) ;
#21 = CARTESIAN_POINT ( 'NONE',  ( 4.634443504523851232, 1.241795394404719310, 0.000000000000000000 ) ) ;
#22 = ORIENTED_EDGE ( 'NONE', *, *, #273, .T. ) ;
#23 = DIRECTION ( 'NONE',  ( 1.000000000000000000, 0.000000000000000000, 0.000000000000000000 ) ) ;
#24 = ORIENTED_EDGE ( 'NONE', *, *, #700, .F. ) ;
#25 = DIRECTION ( 'NONE',  ( 0.000000000000000000, 0.000000000000000000, 1.000000000000000000 ) ) ;
#26 = CIRCLE ( 'NONE', #198, 1.600000000000056266 ) ;
#27 = EDGE_CURVE ( 'NONE', #251, #346, #832, .T. ) ;
#28 = VERTEX_POINT ( 'NONE', #885 ) ;
#29 = CARTESIAN_POINT ( 'NONE',  ( -20.00000000000000000, -27.00000000000000000, 0.000000000000000000 ) ) ;
#30 = DIRECTION ( 'NONE',  ( -0.2588190451024997008, 0.9659258262890739744, 0.000000000000000000 ) ) ;
#31 = CARTESIAN_POINT ( 'NONE',  ( -21.24264068711928388, -27.00000000000000000, 0.000000000000000000 ) ) ;
#32 = EDGE_CURVE ( 'NONE', #629, #129, #826, .T. ) ;
#33 = VERTEX_POINT ( 'NONE', #11 ) ;
#34 = DIRECTION ( 'NONE',  ( 1.000000000000000000, 0.000000000000000000, 0.000000000000000000 ) ) ;
#35 = DIRECTION ( 'NONE',  ( 1.000000000000000000, 0.000000000000000000, 0.000000000000000000 ) ) ;
#36 = CIRCLE ( 'NONE', #538, 1.499999999999999556 ) ;
#37 = LINE ( 'NONE', #694, #865 ) ;
#38 = ORIENTED_EDGE ( 'NONE', *, *, #522, .T. ) ;
#39 = CARTESIAN_POINT ( 'NONE',  ( 9.000000000000001776, -26.64179316549579113, 10.00000000000000000 ) ) ;
#40 = ORIENTED_EDGE ( 'NONE', *, *, #446, .F. ) ;
#41 = CARTESIAN_POINT ( 'NONE',  ( -34.00000000000000000, -37.00000000000000000, 5.000000000000000000 ) ) ;
#42 = DIRECTION ( 'NONE',  ( 0.9659258262890739744, 0.2588190451024997008, -0.000000000000000000 ) ) ;
#43 = VECTOR ( 'NONE', #771, 1000.000000000000000 ) ;
#44 = FACE_OUTER_BOUND ( 'NONE', #585, .T. ) ;
#45 = EDGE_LOOP ( 'NONE', ( #762, #734, #536, #493, #699, #570, #133, #948, #475, #290, #484, #274, #18, #202, #511, #688 ) ) ;
#46 = DIRECTION ( 'NONE',  ( -1.000000000000000000, -1.360567432138672821E-16, 0.000000000000000000 ) ) ;
#47 = ORIENTED_EDGE ( 'NONE', *, *, #141, .T. ) ;
#48 = CARTESIAN_POINT ( 'NONE',  ( -12.00000000000000355, -37.00000000000000000, 5.000000000000000000 ) ) ;
#49 = EDGE_CURVE ( 'NONE', #142, #847, #382, .T. ) ;
#50 = VECTOR ( 'NONE', #485, 1000.000000000000000 ) ;
#51 = ORIENTED_EDGE ( 'NONE', *, *, #434, .F. ) ;
#52 = DIRECTION ( 'NONE',  ( -1.000000000000000000, 0.000000000000000000, 0.000000000000000000 ) ) ;
#53 = CARTESIAN_POINT ( 'NONE',  ( -13.00000000000000178, 28.00000000000000000, 0.000000000000000000 ) ) ;
#54 = ADVANCED_FACE ( 'NONE', ( #304 ), #520, .F. ) ;
#55 = VERTEX_POINT ( 'NONE', #455 ) ;
#56 = DIRECTION ( 'NONE',  ( 0.000000000000000000, 0.000000000000000000, -1.000000000000000000 ) ) ;
#57 = EDGE_LOOP ( 'NONE', ( #167, #744, #783, #691 ) ) ;
#58 = DIRECTION ( 'NONE',  ( -0.000000000000000000, -0.000000000000000000, -1.000000000000000000 ) ) ;
#59 = DIRECTION ( 'NONE',  ( -1.000000000000000000, 0.000000000000000000, 0.000000000000000000 ) ) ;
#60 = ORIENTED_EDGE ( 'NONE', *, *, #721, .T. ) ;
#61 = PLANE ( 'NONE',  #470 ) ;
#62 = ORIENTED_EDGE ( 'NONE', *, *, #861, .T. ) ;
#63 = LINE ( 'NONE', #221, #135 ) ;
#64 = CIRCLE ( 'NONE', #942, 1.600000000000052713 ) ;
#65 = CARTESIAN_POINT ( 'NONE',  ( -9.500000000000000000, -13.00000000000000000, 0.000000000000000000 ) ) ;
#66 = ORIENTED_EDGE ( 'NONE', *, *, #491, .T. ) ;
#67 = DIRECTION ( 'NONE',  ( 0.000000000000000000, 0.000000000000000000, 1.000000000000000000 ) ) ;
#68 = EDGE_CURVE ( 'NONE', #757, #495, #552, .T. ) ;
#69 = VECTOR ( 'NONE', #684, 1000.000000000000000 ) ;
#70 = DIRECTION ( 'NONE',  ( 0.2588190451024996452, -0.9659258262890739744, 0.000000000000000000 ) ) ;
#71 = ORIENTED_EDGE ( 'NONE', *, *, #262, .T. ) ;
#72 = DIRECTION ( 'NONE',  ( -1.000000000000000000, 0.000000000000000000, 0.000000000000000000 ) ) ;
#73 = EDGE_CURVE ( 'NONE', #580, #629, #508, .T. ) ;
#74 = ORIENTED_EDGE ( 'NONE', *, *, #615, .T. ) ;
#75 = LINE ( 'NONE', #2, #411 ) ;
#76 = EDGE_LOOP ( 'NONE', ( #259, #641 ) ) ;
#77 = FACE_OUTER_BOUND ( 'NONE', #828, .T. ) ;
#78 = CARTESIAN_POINT ( 'NONE',  ( -17.60000000000005116, -34.00000000000014211, 5.000000000000000000 ) ) ;
#79 = CIRCLE ( 'NONE', #162, 2.999999999999999112 ) ;
#80 = VERTEX_POINT ( 'NONE', #894 ) ;
#81 = FACE_OUTER_BOUND ( 'NONE', #471, .T. ) ;
#82 = VECTOR ( 'NONE', #659, 1000.000000000000000 ) ;
#83 = AXIS2_PLACEMENT_3D ( 'NONE', #249, #892, #546 ) ;
#84 = EDGE_LOOP ( 'NONE', ( #351, #939, #294, #238 ) ) ;
#85 = DIRECTION ( 'NONE',  ( -0.000000000000000000, -0.000000000000000000, 1.000000000000000000 ) ) ;
#86 = EDGE_CURVE ( 'NONE', #838, #430, #37, .T. ) ;
#87 = ORIENTED_EDGE ( 'NONE', *, *, #5, .T. ) ;
#88 = CARTESIAN_POINT ( 'NONE',  ( 2.399999999999952838, -34.00000000000014211, 5.000000000000000000 ) ) ;
#89 = EDGE_CURVE ( 'NONE', #568, #907, #91, .T. ) ;
#90 = AXIS2_PLACEMENT_3D ( 'NONE', #444, #735, #502 ) ;
#91 = LINE ( 'NONE', #919, #69 ) ;
#92 = CARTESIAN_POINT ( 'NONE',  ( -4.837376774388459033, 25.00000000000000000, 0.000000000000000000 ) ) ;
#93 = AXIS2_PLACEMENT_3D ( 'NONE', #39, #337, #940 ) ;
#94 = VERTEX_POINT ( 'NONE', #183 ) ;
#95 = CARTESIAN_POINT ( 'NONE',  ( 0.000000000000000000, 0.000000000000000000, 5.000000000000000000 ) ) ;
#96 = STYLED_ITEM ( 'NONE', ( #634 ), #276 ) ;
#97 = ORIENTED_EDGE ( 'NONE', *, *, #584, .T. ) ;
#98 = FACE_OUTER_BOUND ( 'NONE', #144, .T. ) ;
#99 = EDGE_CURVE ( 'NONE', #904, #279, #197, .T. ) ;
#100 = AXIS2_PLACEMENT_3D ( 'NONE', #102, #25, #630 ) ;
#101 = ORIENTED_EDGE ( 'NONE', *, *, #99, .T. ) ;
#102 = CARTESIAN_POINT ( 'NONE',  ( -8.000000000000000000, -13.00000000000000000, 5.000000000000000000 ) ) ;
#103 = EDGE_CURVE ( 'NONE', #33, #438, #20, .T. ) ;
#104 = VECTOR ( 'NONE', #953, 1000.000000000000000 ) ;
#105 = ORIENTED_EDGE ( 'NONE', *, *, #921, .F. ) ;
#106 = FACE_OUTER_BOUND ( 'NONE', #447, .T. ) ;
#107 = CARTESIAN_POINT ( 'NONE',  ( 9.000000000000001776, -26.64179316549579113, 5.000000000000000000 ) ) ;
#108 = LINE ( 'NONE', #257, #816 ) ;
#109 = PRODUCT_CONTEXT ( 'NONE', #474, 'mechanical' ) ;
#110 = ORIENTED_EDGE ( 'NONE', *, *, #68, .T. ) ;
#111 = DIRECTION ( 'NONE',  ( -0.000000000000000000, -0.000000000000000000, -1.000000000000000000 ) ) ;
#112 = CIRCLE ( 'NONE', #925, 3.000000000000000888 ) ;
#113 = VERTEX_POINT ( 'NONE', #31 ) ;
#114 = DIRECTION ( 'NONE',  ( -0.000000000000000000, -0.000000000000000000, 1.000000000000000000 ) ) ;
#115 = EDGE_CURVE ( 'NONE', #958, #757, #328, .T. ) ;
#116 = FACE_OUTER_BOUND ( 'NONE', #45, .T. ) ;
#117 = CIRCLE ( 'NONE', #782, 1.499999999999999556 ) ;
#118 = ORIENTED_EDGE ( 'NONE', *, *, #273, .F. ) ;
#119 = CARTESIAN_POINT ( 'NONE',  ( -8.000000000000000000, -13.00000000000000000, 5.000000000000000000 ) ) ;
#120 = ORIENTED_EDGE ( 'NONE', *, *, #945, .F. ) ;
#121 = LINE ( 'NONE', #181, #443 ) ;
#122 = VECTOR ( 'NONE', #882, 1000.000000000000000 ) ;
#123 = ORIENTED_EDGE ( 'NONE', *, *, #604, .F. ) ;
#124 = DIRECTION ( 'NONE',  ( -1.000000000000000000, 0.000000000000000000, 0.000000000000000000 ) ) ;
#125 = EDGE_LOOP ( 'NONE', ( #566, #360, #889, #47 ) ) ;
#126 = CARTESIAN_POINT ( 'NONE',  ( -34.00000000000000000, -30.00000000000000355, 5.000000000000000000 ) ) ;
#127 = CARTESIAN_POINT ( 'NONE',  ( -4.837376774388459033, 25.00000000000000000, 5.000000000000000000 ) ) ;
#128 = AXIS2_PLACEMENT_3D ( 'NONE', #858, #34, #619 ) ;
#129 = VERTEX_POINT ( 'NONE', #625 ) ;
#130 = DIRECTION ( 'NONE',  ( 0.000000000000000000, 0.000000000000000000, -1.000000000000000000 ) ) ;
#131 = ORIENTED_EDGE ( 'NONE', *, *, #758, .F. ) ;
#132 = LINE ( 'NONE', #908, #650 ) ;
#133 = ORIENTED_EDGE ( 'NONE', *, *, #787, .F. ) ;
#134 = DIRECTION ( 'NONE',  ( 0.7071067811865475727, -0.7071067811865475727, 0.000000000000000000 ) ) ;
#135 = VECTOR ( 'NONE', #965, 1000.000000000000000 ) ;
#136 = DIRECTION ( 'NONE',  ( -0.000000000000000000, -0.000000000000000000, 1.000000000000000000 ) ) ;
#137 = AXIS2_PLACEMENT_3D ( 'NONE', #905, #378, #677 ) ;
#138 = VECTOR ( 'NONE', #255, 1000.000000000000114 ) ;
#139 = EDGE_LOOP ( 'NONE', ( #386, #22, #632, #40 ) ) ;
#140 = FACE_OUTER_BOUND ( 'NONE', #606, .T. ) ;
#141 = EDGE_CURVE ( 'NONE', #523, #580, #108, .T. ) ;
#142 = VERTEX_POINT ( 'NONE', #611 ) ;
#143 = DIRECTION ( 'NONE',  ( 0.000000000000000000, 0.000000000000000000, 1.000000000000000000 ) ) ;
#144 = EDGE_LOOP ( 'NONE', ( #490, #97, #821, #74 ) ) ;
#145 = CYLINDRICAL_SURFACE ( 'NONE', #778, 2.999999999999999112 ) ;
#146 = ADVANCED_FACE ( 'NONE', ( #777 ), #944, .T. ) ;
#147 = ORIENTED_EDGE ( 'NONE', *, *, #636, .T. ) ;
#148 = FACE_OUTER_BOUND ( 'NONE', #648, .T. ) ;
#149 = EDGE_CURVE ( 'NONE', #654, #907, #836, .T. ) ;
#150 = CARTESIAN_POINT ( 'NONE',  ( -8.000000000000000000, 0.000000000000000000, 5.000000000000000000 ) ) ;
#151 = ORIENTED_EDGE ( 'NONE', *, *, #99, .F. ) ;
#152 = CARTESIAN_POINT ( 'NONE',  ( -9.500000000000000000, 13.00000000000000000, 5.000000000000000000 ) ) ;
#153 = ADVANCED_BREP_SHAPE_REPRESENTATION ( '\X2\677f4ef6\X0\-\X2\59167ba159398fde63a5677f\X0\A', ( #276, #760 ), #184 ) ;
#154 = DIRECTION ( 'NONE',  ( 0.000000000000000000, 0.000000000000000000, -1.000000000000000000 ) ) ;
#155 = DIRECTION ( 'NONE',  ( 1.000000000000000000, 0.000000000000000000, 0.000000000000000000 ) ) ;
#156 = ORIENTED_EDGE ( 'NONE', *, *, #937, .T. ) ;
#157 = FACE_BOUND ( 'NONE', #722, .T. ) ;
#158 = EDGE_CURVE ( 'NONE', #55, #946, #117, .T. ) ;
#159 = ADVANCED_FACE ( 'NONE', ( #44 ), #726, .F. ) ;
#160 = DIRECTION ( 'NONE',  ( -1.000000000000000000, 0.000000000000000000, 0.000000000000000000 ) ) ;
#161 = DIRECTION ( 'NONE',  ( -0.000000000000000000, -0.000000000000000000, 1.000000000000000000 ) ) ;
#162 = AXIS2_PLACEMENT_3D ( 'NONE', #200, #500, #124 ) ;
#163 = ORIENTED_EDGE ( 'NONE', *, *, #364, .T. ) ;
#164 = FACE_OUTER_BOUND ( 'NONE', #215, .T. ) ;
#165 = EDGE_CURVE ( 'NONE', #279, #904, #26, .T. ) ;
#166 = FACE_OUTER_BOUND ( 'NONE', #171, .T. ) ;
#167 = ORIENTED_EDGE ( 'NONE', *, *, #616, .F. ) ;
#168 = CARTESIAN_POINT ( 'NONE',  ( -6.500000000000000888, -13.00000000000000000, 5.000000000000000000 ) ) ;
#169 = DIRECTION ( 'NONE',  ( -0.000000000000000000, -0.000000000000000000, 1.000000000000000000 ) ) ;
#170 = DIRECTION ( 'NONE',  ( -1.000000000000000000, -0.000000000000000000, -0.000000000000000000 ) ) ;
#171 = EDGE_LOOP ( 'NONE', ( #598, #505, #933, #929 ) ) ;
#172 = CARTESIAN_POINT ( 'NONE',  ( 12.00000000000000000, 16.00000000000000000, 5.000000000000000000 ) ) ;
#173 = DIRECTION ( 'NONE',  ( -0.000000000000000000, -0.000000000000000000, 1.000000000000000000 ) ) ;
#174 = ORIENTED_EDGE ( 'NONE', *, *, #397, .F. ) ;
#175 = CARTESIAN_POINT ( 'NONE',  ( 2.399999999999952838, -34.00000000000014211, 0.000000000000000000 ) ) ;
#176 = SURFACE_STYLE_USAGE ( .BOTH. , #697 ) ;
#177 = AXIS2_PLACEMENT_3D ( 'NONE', #387, #307, #23 ) ;
#178 =( NAMED_UNIT ( * ) SI_UNIT ( $, .STERADIAN. ) SOLID_ANGLE_UNIT ( ) );
#179 = EDGE_LOOP ( 'NONE', ( #110, #163 ) ) ;
#180 = LINE ( 'NONE', #269, #718 ) ;
#181 = CARTESIAN_POINT ( 'NONE',  ( -6.500000000000000888, -13.00000000000000000, 5.000000000000000000 ) ) ;
#182 = VECTOR ( 'NONE', #574, 1000.000000000000000 ) ;
#183 = CARTESIAN_POINT ( 'NONE',  ( -9.500000000000000000, -13.00000000000000000, 5.000000000000000000 ) ) ;
#184 =( GEOMETRIC_REPRESENTATION_CONTEXT ( 3 ) GLOBAL_UNCERTAINTY_ASSIGNED_CONTEXT ( ( #236 ) ) GLOBAL_UNIT_ASSIGNED_CONTEXT ( ( #414, #329, #178 ) ) REPRESENTATION_CONTEXT ( 'NONE', 'WORKASPACE' ) );
#185 = ORIENTED_EDGE ( 'NONE', *, *, #208, .F. ) ;
#186 = CARTESIAN_POINT ( 'NONE',  ( 12.00000000000000000, -37.00000000000000000, 5.000000000000000000 ) ) ;
#187 = DIRECTION ( 'NONE',  ( 0.000000000000000000, 0.000000000000000000, 1.000000000000000000 ) ) ;
#188 = EDGE_CURVE ( 'NONE', #503, #129, #683, .T. ) ;
#189 = ORIENTED_EDGE ( 'NONE', *, *, #610, .T. ) ;
#190 = CARTESIAN_POINT ( 'NONE',  ( -18.99999999999999289, -21.75735931288071612, 4.999999999999997335 ) ) ;
#191 = AXIS2_PLACEMENT_3D ( 'NONE', #855, #941, #412 ) ;
#192 = CARTESIAN_POINT ( 'NONE',  ( -21.24264068711928388, -27.00000000000000000, 0.000000000000000000 ) ) ;
#193 = CARTESIAN_POINT ( 'NONE',  ( -8.000000000000000000, 0.000000000000000000, 0.000000000000000000 ) ) ;
#194 = ORIENTED_EDGE ( 'NONE', *, *, #434, .T. ) ;
#195 = CARTESIAN_POINT ( 'NONE',  ( -34.00000000000000000, -33.99999999999999289, 5.000000000000000000 ) ) ;
#196 = PLANE ( 'NONE',  #573 ) ;
#197 = CIRCLE ( 'NONE', #572, 1.600000000000056266 ) ;
#198 = AXIS2_PLACEMENT_3D ( 'NONE', #250, #473, #465 ) ;
#199 = ORIENTED_EDGE ( 'NONE', *, *, #27, .T. ) ;
#200 = CARTESIAN_POINT ( 'NONE',  ( -21.24264068711928388, -24.00000000000000000, 5.000000000000000000 ) ) ;
#201 = PRODUCT ( '\X2\677f4ef6\X0\-\X2\59167ba159398fde63a5677f\X0\A', '\X2\677f4ef6\X0\-\X2\59167ba159398fde63a5677f\X0\A', '', ( #109 ) ) ;
#202 = ORIENTED_EDGE ( 'NONE', *, *, #753, .T. ) ;
#203 = CARTESIAN_POINT ( 'NONE',  ( -18.99999999999999289, -21.75735931288071612, -51.15662224971464411 ) ) ;
#204 = EDGE_CURVE ( 'NONE', #220, #853, #849, .T. ) ;
#205 = ORIENTED_EDGE ( 'NONE', *, *, #751, .F. ) ;
#206 = CARTESIAN_POINT ( 'NONE',  ( -13.00000000000000178, 25.00000000000000000, 0.000000000000000000 ) ) ;
#207 = CARTESIAN_POINT ( 'NONE',  ( -19.12132034355964194, -26.12132034355964194, 0.000000000000000000 ) ) ;
#208 = EDGE_CURVE ( 'NONE', #665, #435, #740, .T. ) ;
#209 = CIRCLE ( 'NONE', #750, 3.000000000000000000 ) ;
#210 = CIRCLE ( 'NONE', #383, 3.000000000000000000 ) ;
#211 = ORIENTED_EDGE ( 'NONE', *, *, #417, .F. ) ;
#212 = LINE ( 'NONE', #289, #591 ) ;
#213 = ORIENTED_EDGE ( 'NONE', *, *, #5, .F. ) ;
#214 = CARTESIAN_POINT ( 'NONE',  ( -15.99999999999999289, -21.75735931288071612, -51.15662224971464411 ) ) ;
#215 = EDGE_LOOP ( 'NONE', ( #211, #920, #311, #362 ) ) ;
#216 = DIRECTION ( 'NONE',  ( 2.040851148208007752E-16, -1.000000000000000000, 0.000000000000000000 ) ) ;
#217 = CARTESIAN_POINT ( 'NONE',  ( 0.000000000000000000, 0.000000000000000000, 0.000000000000000000 ) ) ;
#218 = CIRCLE ( 'NONE', #708, 3.000000000000002665 ) ;
#219 = DIRECTION ( 'NONE',  ( -1.000000000000000000, 0.000000000000000000, 0.000000000000000000 ) ) ;
#220 = VERTEX_POINT ( 'NONE', #256 ) ;
#221 = CARTESIAN_POINT ( 'NONE',  ( -37.00000000000000711, -27.00000000000000355, 0.000000000000000000 ) ) ;
#222 = PRESENTATION_LAYER_ASSIGNMENT (  '', '', ( #96 ) ) ;
#223 = CARTESIAN_POINT ( 'NONE',  ( 4.000000000000005329, -34.00000000000014211, 5.000000000000000000 ) ) ;
#224 = LINE ( 'NONE', #384, #333 ) ;
#225 = AXIS2_PLACEMENT_3D ( 'NONE', #190, #340, #260 ) ;
#226 = ORIENTED_EDGE ( 'NONE', *, *, #764, .F. ) ;
#227 = CARTESIAN_POINT ( 'NONE',  ( -13.00000000000000178, 25.00000000000000000, 5.000000000000000000 ) ) ;
#228 = DIRECTION ( 'NONE',  ( -0.7071067811865474617, -0.7071067811865474617, -0.000000000000000000 ) ) ;
#229 = CARTESIAN_POINT ( 'NONE',  ( -21.24264068711928388, -24.00000000000000000, 5.000000000000000000 ) ) ;
#230 = VERTEX_POINT ( 'NONE', #706 ) ;
#231 = CARTESIAN_POINT ( 'NONE',  ( 4.000000000000005329, -34.00000000000014211, 0.000000000000000000 ) ) ;
#232 = AXIS2_PLACEMENT_3D ( 'NONE', #95, #595, #681 ) ;
#233 = ADVANCED_FACE ( 'NONE', ( #775 ), #196, .T. ) ;
#234 = EDGE_CURVE ( 'NONE', #440, #346, #334, .T. ) ;
#235 = CIRCLE ( 'NONE', #137, 3.000000000000002665 ) ;
#236 = UNCERTAINTY_MEASURE_WITH_UNIT (LENGTH_MEASURE( 1.000000000000000082E-05 ), #414, 'distance_accuracy_value', 'NONE');
#237 = LINE ( 'NONE', #243, #961 ) ;
#238 = ORIENTED_EDGE ( 'NONE', *, *, #103, .T. ) ;
#239 = CARTESIAN_POINT ( 'NONE',  ( -37.00000000000000711, -27.00000000000000355, 5.000000000000000000 ) ) ;
#240 = MECHANICAL_DESIGN_GEOMETRIC_PRESENTATION_REPRESENTATION (  '', ( #96 ), #809 ) ;
#241 = ADVANCED_FACE ( 'NONE', ( #693 ), #620, .F. ) ;
#242 = CARTESIAN_POINT ( 'NONE',  ( -13.00000000000000178, 28.00000000000000000, 5.000000000000000000 ) ) ;
#243 = CARTESIAN_POINT ( 'NONE',  ( -17.60000000000005116, -34.00000000000014211, 0.000000000000000000 ) ) ;
#244 = EDGE_LOOP ( 'NONE', ( #461, #748, #402, #330 ) ) ;
#245 = CARTESIAN_POINT ( 'NONE',  ( -34.00000000000000000, -27.00000000000000355, 0.000000000000000000 ) ) ;
#246 = EDGE_CURVE ( 'NONE', #94, #467, #860, .T. ) ;
#247 = AXIS2_PLACEMENT_3D ( 'NONE', #127, #350, #960 ) ;
#248 = ORIENTED_EDGE ( 'NONE', *, *, #746, .F. ) ;
#249 = CARTESIAN_POINT ( 'NONE',  ( 9.000000000000001776, -33.99999999999999289, 5.000000000000000000 ) ) ;
#250 = CARTESIAN_POINT ( 'NONE',  ( -15.99999999999999289, -34.00000000000014211, 5.000000000000000000 ) ) ;
#251 = VERTEX_POINT ( 'NONE', #408 ) ;
#252 = CARTESIAN_POINT ( 'NONE',  ( -37.00000000000000711, -30.00000000000000355, 5.000000000000000000 ) ) ;
#253 =( NAMED_UNIT ( * ) PLANE_ANGLE_UNIT ( ) SI_UNIT ( $, .RADIAN. ) );
#254 = ORIENTED_EDGE ( 'NONE', *, *, #158, .T. ) ;
#255 = DIRECTION ( 'NONE',  ( -0.7071067811865474617, -0.7071067811865474617, -0.000000000000000000 ) ) ;
#256 = CARTESIAN_POINT ( 'NONE',  ( 12.00000000000000000, -33.99999999999999289, 0.000000000000000000 ) ) ;
#257 = CARTESIAN_POINT ( 'NONE',  ( -34.00000000000000000, -27.00000000000000355, 5.000000000000000000 ) ) ;
#258 = SHAPE_DEFINITION_REPRESENTATION ( #635, #153 ) ;
#259 = ORIENTED_EDGE ( 'NONE', *, *, #424, .T. ) ;
#260 = DIRECTION ( 'NONE',  ( -1.000000000000000000, 0.000000000000000000, 0.000000000000000000 ) ) ;
#261 = CARTESIAN_POINT ( 'NONE',  ( -8.000000000000000000, -13.00000000000000000, 0.000000000000000000 ) ) ;
#262 = EDGE_CURVE ( 'NONE', #284, #442, #313, .T. ) ;
#263 = VECTOR ( 'NONE', #587, 1000.000000000000000 ) ;
#264 = CIRCLE ( 'NONE', #309, 1.499999999999999556 ) ;
#265 = ORIENTED_EDGE ( 'NONE', *, *, #844, .F. ) ;
#266 = CARTESIAN_POINT ( 'NONE',  ( -34.00000000000000000, -33.99999999999999289, 0.000000000000000000 ) ) ;
#267 = VECTOR ( 'NONE', #56, 1000.000000000000000 ) ;
#268 = ORIENTED_EDGE ( 'NONE', *, *, #331, .T. ) ;
#269 = CARTESIAN_POINT ( 'NONE',  ( -16.00000000000000000, 28.00000000000000000, 5.000000000000000000 ) ) ;
#270 = VECTOR ( 'NONE', #703, 1000.000000000000000 ) ;
#271 = DIRECTION ( 'NONE',  ( 1.000000000000000000, 0.000000000000000000, 0.000000000000000000 ) ) ;
#272 = PRODUCT_RELATED_PRODUCT_CATEGORY ( 'part', '', ( #201 ) ) ;
#273 = EDGE_CURVE ( 'NONE', #467, #548, #121, .T. ) ;
#274 = ORIENTED_EDGE ( 'NONE', *, *, #149, .T. ) ;
#275 = DIRECTION ( 'NONE',  ( -0.000000000000000000, -0.000000000000000000, -1.000000000000000000 ) ) ;
#276 = MANIFOLD_SOLID_BREP ( '\X2\570689d2\X0\2', #413 ) ;
#277 = CYLINDRICAL_SURFACE ( 'NONE', #561, 1.499999999999999556 ) ;
#278 = VECTOR ( 'NONE', #483, 1000.000000000000000 ) ;
#279 = VERTEX_POINT ( 'NONE', #931 ) ;
#280 = EDGE_CURVE ( 'NONE', #548, #715, #687, .T. ) ;
#281 = FACE_OUTER_BOUND ( 'NONE', #754, .T. ) ;
#282 = ORIENTED_EDGE ( 'NONE', *, *, #820, .T. ) ;
#283 = CARTESIAN_POINT ( 'NONE',  ( -6.500000000000000888, 1.836970198721029441E-16, 5.000000000000000000 ) ) ;
#284 = VERTEX_POINT ( 'NONE', #327 ) ;
#285 = PLANE ( 'NONE',  #761 ) ;
#286 = LINE ( 'NONE', #361, #16 ) ;
#287 = VECTOR ( 'NONE', #966, 1000.000000000000000 ) ;
#288 = ORIENTED_EDGE ( 'NONE', *, *, #910, .T. ) ;
#289 = CARTESIAN_POINT ( 'NONE',  ( 12.00000000000000000, -33.99999999999999289, 5.000000000000000000 ) ) ;
#290 = ORIENTED_EDGE ( 'NONE', *, *, #831, .T. ) ;
#291 = DIRECTION ( 'NONE',  ( 0.000000000000000000, 0.000000000000000000, -1.000000000000000000 ) ) ;
#292 = EDGE_CURVE ( 'NONE', #501, #113, #859, .T. ) ;
#293 = FACE_OUTER_BOUND ( 'NONE', #964, .T. ) ;
#294 = ORIENTED_EDGE ( 'NONE', *, *, #880, .F. ) ;
#295 = DIRECTION ( 'NONE',  ( -1.000000000000000000, 0.000000000000000000, 0.000000000000000000 ) ) ;
#296 = CIRCLE ( 'NONE', #637, 1.499999999999999556 ) ;
#297 = ADVANCED_FACE ( 'NONE', ( #624, #560, #338, #497, #492, #116 ), #786, .T. ) ;
#298 = CARTESIAN_POINT ( 'NONE',  ( -8.000000000000000000, -13.00000000000000000, 0.000000000000000000 ) ) ;
#299 = VERTEX_POINT ( 'NONE', #888 ) ;
#300 = PLANE ( 'NONE',  #893 ) ;
#301 = DIRECTION ( 'NONE',  ( -1.000000000000000000, 0.000000000000000000, 0.000000000000000000 ) ) ;
#302 = ORIENTED_EDGE ( 'NONE', *, *, #377, .T. ) ;
#303 = CYLINDRICAL_SURFACE ( 'NONE', #725, 1.600000000000052713 ) ;
#304 = FACE_OUTER_BOUND ( 'NONE', #244, .T. ) ;
#305 = LINE ( 'NONE', #814, #381 ) ;
#306 = EDGE_LOOP ( 'NONE', ( #156, #594 ) ) ;
#307 = DIRECTION ( 'NONE',  ( 0.000000000000000000, 0.000000000000000000, 1.000000000000000000 ) ) ;
#308 = AXIS2_PLACEMENT_3D ( 'NONE', #550, #633, #843 ) ;
#309 = AXIS2_PLACEMENT_3D ( 'NONE', #298, #462, #605 ) ;
#310 = DIRECTION ( 'NONE',  ( 0.000000000000000000, 0.000000000000000000, -1.000000000000000000 ) ) ;
#311 = ORIENTED_EDGE ( 'NONE', *, *, #165, .F. ) ;
#312 = DIRECTION ( 'NONE',  ( -1.000000000000000000, 0.000000000000000000, 0.000000000000000000 ) ) ;
#313 = CIRCLE ( 'NONE', #731, 3.000000000000000000 ) ;
#314 = DIRECTION ( 'NONE',  ( -0.000000000000000000, -0.000000000000000000, 1.000000000000000000 ) ) ;
#315 = CARTESIAN_POINT ( 'NONE',  ( -15.99999999999999289, -21.75735931288071612, 0.000000000000000000 ) ) ;
#316 = ORIENTED_EDGE ( 'NONE', *, *, #713, .T. ) ;
#317 = DIRECTION ( 'NONE',  ( -0.000000000000000000, -0.000000000000000000, -1.000000000000000000 ) ) ;
#318 = EDGE_CURVE ( 'NONE', #853, #284, #582, .T. ) ;
#319 = EDGE_CURVE ( 'NONE', #958, #661, #64, .T. ) ;
#320 = VECTOR ( 'NONE', #173, 1000.000000000000000 ) ;
#321 = AXIS2_PLACEMENT_3D ( 'NONE', #569, #486, #418 ) ;
#322 = ORIENTED_EDGE ( 'NONE', *, *, #702, .F. ) ;
#323 = CARTESIAN_POINT ( 'NONE',  ( -9.500000000000000000, 13.00000000000000000, 0.000000000000000000 ) ) ;
#324 = DIRECTION ( 'NONE',  ( -0.000000000000000000, 1.000000000000000000, -0.000000000000000000 ) ) ;
#325 = ORIENTED_EDGE ( 'NONE', *, *, #945, .T. ) ;
#326 = DIRECTION ( 'NONE',  ( 0.000000000000000000, 1.000000000000000000, 0.000000000000000000 ) ) ;
#327 = CARTESIAN_POINT ( 'NONE',  ( 12.00000000000000000, -26.64179316549579113, 5.000000000000000000 ) ) ;
#328 = LINE ( 'NONE', #766, #278 ) ;
#329 =( NAMED_UNIT ( * ) PLANE_ANGLE_UNIT ( ) SI_UNIT ( $, .RADIAN. ) );
#330 = ORIENTED_EDGE ( 'NONE', *, *, #115, .F. ) ;
#331 = EDGE_CURVE ( 'NONE', #815, #807, #959, .T. ) ;
#332 = DIRECTION ( 'NONE',  ( 0.000000000000000000, 0.000000000000000000, -1.000000000000000000 ) ) ;
#333 = VECTOR ( 'NONE', #886, 1000.000000000000000 ) ;
#334 = LINE ( 'NONE', #342, #690 ) ;
#335 = VECTOR ( 'NONE', #369, 1000.000000000000000 ) ;
#336 = ORIENTED_EDGE ( 'NONE', *, *, #103, .F. ) ;
#337 = DIRECTION ( 'NONE',  ( 0.000000000000000000, 0.000000000000000000, 1.000000000000000000 ) ) ;
#338 = FACE_BOUND ( 'NONE', #76, .T. ) ;
#339 = EDGE_LOOP ( 'NONE', ( #60, #254 ) ) ;
#340 = DIRECTION ( 'NONE',  ( 0.000000000000000000, 0.000000000000000000, -1.000000000000000000 ) ) ;
#341 = VECTOR ( 'NONE', #652, 1000.000000000000000 ) ;
#342 = CARTESIAN_POINT ( 'NONE',  ( -19.12132034355964194, -26.12132034355964194, 5.000000000000000000 ) ) ;
#343 = ADVANCED_FACE ( 'NONE', ( #366 ), #949, .T. ) ;
#344 = ORIENTED_EDGE ( 'NONE', *, *, #921, .T. ) ;
#345 = DIRECTION ( 'NONE',  ( -1.000000000000000000, 0.000000000000000000, 0.000000000000000000 ) ) ;
#346 = VERTEX_POINT ( 'NONE', #724 ) ;
#347 = DIRECTION ( 'NONE',  ( -1.000000000000000000, 0.000000000000000000, 0.000000000000000000 ) ) ;
#348 = AXIS2_PLACEMENT_3D ( 'NONE', #543, #453, #835 ) ;
#349 = ADVANCED_FACE ( 'NONE', ( #439 ), #277, .F. ) ;
#350 = DIRECTION ( 'NONE',  ( 0.000000000000000000, 0.000000000000000000, 1.000000000000000000 ) ) ;
#351 = ORIENTED_EDGE ( 'NONE', *, *, #746, .T. ) ;
#352 = CARTESIAN_POINT ( 'NONE',  ( -16.00000000000000000, 28.00000000000000000, -51.15662224971464411 ) ) ;
#353 = ORIENTED_EDGE ( 'NONE', *, *, #158, .F. ) ;
#354 = CARTESIAN_POINT ( 'NONE',  ( -17.60000000000005116, -34.00000000000014211, 0.000000000000000000 ) ) ;
#355 = DIRECTION ( 'NONE',  ( 0.000000000000000000, 0.000000000000000000, 1.000000000000000000 ) ) ;
#356 = AXIS2_PLACEMENT_3D ( 'NONE', #791, #67, #719 ) ;
#357 = ORIENTED_EDGE ( 'NONE', *, *, #714, .F. ) ;
#358 = DIRECTION ( 'NONE',  ( 0.000000000000000000, 0.000000000000000000, 1.000000000000000000 ) ) ;
#359 = CIRCLE ( 'NONE', #899, 3.000000000000002665 ) ;
#360 = ORIENTED_EDGE ( 'NONE', *, *, #292, .T. ) ;
#361 = CARTESIAN_POINT ( 'NONE',  ( 11.89777747886722281, -25.86533603018829197, 0.000000000000000000 ) ) ;
#362 = ORIENTED_EDGE ( 'NONE', *, *, #850, .F. ) ;
#363 = DIRECTION ( 'NONE',  ( 1.000000000000000000, 0.000000000000000000, 0.000000000000000000 ) ) ;
#364 = EDGE_CURVE ( 'NONE', #495, #757, #852, .T. ) ;
#365 = ORIENTED_EDGE ( 'NONE', *, *, #204, .T. ) ;
#366 = FACE_OUTER_BOUND ( 'NONE', #680, .T. ) ;
#367 = EDGE_CURVE ( 'NONE', #113, #523, #63, .T. ) ;
#368 = AXIS2_PLACEMENT_3D ( 'NONE', #737, #535, #743 ) ;
#369 = DIRECTION ( 'NONE',  ( 0.000000000000000000, 0.000000000000000000, 1.000000000000000000 ) ) ;
#370 = CARTESIAN_POINT ( 'NONE',  ( -37.00000000000000711, -30.00000000000000355, 5.000000000000000000 ) ) ;
#371 = EDGE_LOOP ( 'NONE', ( #422, #71, #248, #717, #194, #788, #189, #147, #199, #282, #13, #891, #873, #325, #268, #646 ) ) ;
#372 = DIRECTION ( 'NONE',  ( -1.000000000000000000, 0.000000000000000000, -0.000000000000000000 ) ) ;
#373 = CARTESIAN_POINT ( 'NONE',  ( 4.000000000000005329, -34.00000000000014211, 0.000000000000000000 ) ) ;
#374 = CARTESIAN_POINT ( 'NONE',  ( -8.000000000000000000, 13.00000000000000000, 5.000000000000000000 ) ) ;
#375 = ORIENTED_EDGE ( 'NONE', *, *, #318, .T. ) ;
#376 = DIRECTION ( 'NONE',  ( -1.000000000000000000, 0.000000000000000000, 0.000000000000000000 ) ) ;
#377 = EDGE_CURVE ( 'NONE', #907, #686, #590, .T. ) ;
#378 = DIRECTION ( 'NONE',  ( -0.000000000000000000, -0.000000000000000000, 1.000000000000000000 ) ) ;
#379 = ORIENTED_EDGE ( 'NONE', *, *, #208, .T. ) ;
#380 = FACE_OUTER_BOUND ( 'NONE', #767, .T. ) ;
#381 = VECTOR ( 'NONE', #531, 1000.000000000000000 ) ;
#382 = LINE ( 'NONE', #732, #287 ) ;
#383 = AXIS2_PLACEMENT_3D ( 'NONE', #540, #154, #813 ) ;
#384 = CARTESIAN_POINT ( 'NONE',  ( -6.500000000000000888, 13.00000000000000000, 5.000000000000000000 ) ) ;
#385 = VECTOR ( 'NONE', #332, 1000.000000000000000 ) ;
#386 = ORIENTED_EDGE ( 'NONE', *, *, #246, .T. ) ;
#387 = CARTESIAN_POINT ( 'NONE',  ( -8.000000000000000000, 0.000000000000000000, 5.000000000000000000 ) ) ;
#388 = EDGE_LOOP ( 'NONE', ( #529, #123 ) ) ;
#389 = DIRECTION ( 'NONE',  ( 0.000000000000000000, 0.000000000000000000, 1.000000000000000000 ) ) ;
#390 = ORIENTED_EDGE ( 'NONE', *, *, #27, .F. ) ;
#391 = EDGE_CURVE ( 'NONE', #442, #887, #286, .T. ) ;
#392 = FACE_BOUND ( 'NONE', #179, .T. ) ;
#393 = CIRCLE ( 'NONE', #936, 1.499999999999999556 ) ;
#394 = FACE_OUTER_BOUND ( 'NONE', #952, .T. ) ;
#395 = EDGE_LOOP ( 'NONE', ( #379, #790 ) ) ;
#396 = PLANE ( 'NONE',  #232 ) ;
#397 = EDGE_CURVE ( 'NONE', #887, #853, #515, .T. ) ;
#398 = AXIS2_PLACEMENT_3D ( 'NONE', #217, #448, #372 ) ;
#399 = VERTEX_POINT ( 'NONE', #879 ) ;
#400 = CYLINDRICAL_SURFACE ( 'NONE', #308, 1.600000000000054490 ) ;
#401 = VECTOR ( 'NONE', #324, 1000.000000000000000 ) ;
#402 = ORIENTED_EDGE ( 'NONE', *, *, #68, .F. ) ;
#403 = PLANE ( 'NONE',  #927 ) ;
#404 = EDGE_CURVE ( 'NONE', #80, #946, #513, .T. ) ;
#405 = ADVANCED_FACE ( 'NONE', ( #148 ), #874, .F. ) ;
#406 = ORIENTED_EDGE ( 'NONE', *, *, #957, .F. ) ;
#407 = CARTESIAN_POINT ( 'NONE',  ( -37.00000000000000711, -30.00000000000000355, 0.000000000000000000 ) ) ;
#408 = CARTESIAN_POINT ( 'NONE',  ( -16.87867965644035451, -23.87867965644035451, 5.000000000000000000 ) ) ;
#409 = VERTEX_POINT ( 'NONE', #283 ) ;
#410 = CARTESIAN_POINT ( 'NONE',  ( -16.87867965644035451, -23.87867965644035451, 0.000000000000000000 ) ) ;
#411 = VECTOR ( 'NONE', #85, 1000.000000000000000 ) ;
#412 = DIRECTION ( 'NONE',  ( 0.000000000000000000, -0.000000000000000000, -1.000000000000000000 ) ) ;
#413 = CLOSED_SHELL ( 'NONE', ( #480, #54, #840, #489, #943, #454, #297, #509, #241, #792, #797, #549, #579, #159, #349, #806, #736, #872, #343, #819, #496, #514, #405, #479, #679, #233, #707, #146 ) ) ;
#414 =( LENGTH_UNIT ( ) NAMED_UNIT ( * ) SI_UNIT ( .MILLI., .METRE. ) );
#415 = ORIENTED_EDGE ( 'NONE', *, *, #721, .F. ) ;
#416 = DIRECTION ( 'NONE',  ( 0.000000000000000000, -0.000000000000000000, 1.000000000000000000 ) ) ;
#417 = EDGE_CURVE ( 'NONE', #435, #665, #802, .T. ) ;
#418 = DIRECTION ( 'NONE',  ( 1.000000000000000000, 0.000000000000000000, 0.000000000000000000 ) ) ;
#419 = ORIENTED_EDGE ( 'NONE', *, *, #565, .F. ) ;
#420 = CARTESIAN_POINT ( 'NONE',  ( -8.000000000000000000, 0.000000000000000000, 0.000000000000000000 ) ) ;
#421 = AXIS2_PLACEMENT_3D ( 'NONE', #119, #275, #441 ) ;
#422 = ORIENTED_EDGE ( 'NONE', *, *, #714, .T. ) ;
#423 = DIRECTION ( 'NONE',  ( -1.000000000000000000, 0.000000000000000000, 0.000000000000000000 ) ) ;
#424 = EDGE_CURVE ( 'NONE', #602, #618, #532, .T. ) ;
#425 = ORIENTED_EDGE ( 'NONE', *, *, #610, .F. ) ;
#426 = CARTESIAN_POINT ( 'NONE',  ( -21.24264068711928388, -24.00000000000000000, 0.000000000000000000 ) ) ;
#427 = ORIENTED_EDGE ( 'NONE', *, *, #861, .F. ) ;
#428 = DIRECTION ( 'NONE',  ( 0.000000000000000000, 0.000000000000000000, -1.000000000000000000 ) ) ;
#429 = CIRCLE ( 'NONE', #672, 2.999999999999999112 ) ;
#430 = VERTEX_POINT ( 'NONE', #53 ) ;
#431 = CARTESIAN_POINT ( 'NONE',  ( -8.000000000000000000, 13.00000000000000000, 5.000000000000000000 ) ) ;
#432 = CARTESIAN_POINT ( 'NONE',  ( 9.000000000000001776, -26.64179316549579113, 0.000000000000000000 ) ) ;
#433 = AXIS2_PLACEMENT_3D ( 'NONE', #506, #801, #347 ) ;
#434 = EDGE_CURVE ( 'NONE', #876, #230, #662, .T. ) ;
#435 = VERTEX_POINT ( 'NONE', #354 ) ;
#436 = DIRECTION ( 'NONE',  ( 1.360567432138672821E-16, -1.000000000000000000, 0.000000000000000000 ) ) ;
#437 = PRODUCT_DEFINITION_FORMATION_WITH_SPECIFIED_SOURCE ( '瀵', '', #201, .NOT_KNOWN. ) ;
#438 = VERTEX_POINT ( 'NONE', #578 ) ;
#439 = FACE_OUTER_BOUND ( 'NONE', #779, .T. ) ;
#440 = VERTEX_POINT ( 'NONE', #207 ) ;
#441 = DIRECTION ( 'NONE',  ( -1.000000000000000000, 0.000000000000000000, 0.000000000000000000 ) ) ;
#442 = VERTEX_POINT ( 'NONE', #796 ) ;
#443 = VECTOR ( 'NONE', #111, 1000.000000000000000 ) ;
#444 = CARTESIAN_POINT ( 'NONE',  ( -15.99999999999999289, -34.00000000000014211, 0.000000000000000000 ) ) ;
#445 = CARTESIAN_POINT ( 'NONE',  ( 12.00000000000000000, -26.64179316549579468, 0.000000000000000000 ) ) ;
#446 = EDGE_CURVE ( 'NONE', #94, #715, #132, .T. ) ;
#447 = EDGE_LOOP ( 'NONE', ( #656, #185, #589, #151 ) ) ;
#448 = DIRECTION ( 'NONE',  ( 0.000000000000000000, 0.000000000000000000, -1.000000000000000000 ) ) ;
#449 = VECTOR ( 'NONE', #169, 1000.000000000000000 ) ;
#450 = CARTESIAN_POINT ( 'NONE',  ( -37.00000000000000711, -37.00000000000000711, 5.000000000000000000 ) ) ;
#451 = DIRECTION ( 'NONE',  ( -0.000000000000000000, -0.000000000000000000, -1.000000000000000000 ) ) ;
#452 = ORIENTED_EDGE ( 'NONE', *, *, #86, .T. ) ;
#453 = DIRECTION ( 'NONE',  ( 0.000000000000000000, 0.000000000000000000, 1.000000000000000000 ) ) ;
#454 = ADVANCED_FACE ( 'NONE', ( #666, #741, #824, #392, #157, #829 ), #396, .F. ) ;
#455 = CARTESIAN_POINT ( 'NONE',  ( -6.500000000000000888, 1.836970198721029441E-16, 0.000000000000000000 ) ) ;
#456 = LINE ( 'NONE', #21, #583 ) ;
#457 = ORIENTED_EDGE ( 'NONE', *, *, #73, .F. ) ;
#458 = CYLINDRICAL_SURFACE ( 'NONE', #601, 1.600000000000054490 ) ;
#459 = DIRECTION ( 'NONE',  ( -0.000000000000000000, -0.000000000000000000, -1.000000000000000000 ) ) ;
#460 = AXIS2_PLACEMENT_3D ( 'NONE', #374, #600, #466 ) ;
#461 = ORIENTED_EDGE ( 'NONE', *, *, #539, .F. ) ;
#462 = DIRECTION ( 'NONE',  ( 0.000000000000000000, 0.000000000000000000, 1.000000000000000000 ) ) ;
#463 = ORIENTED_EDGE ( 'NONE', *, *, #280, .F. ) ;
#464 = CARTESIAN_POINT ( 'NONE',  ( -8.000000000000000000, 13.00000000000000000, 5.000000000000000000 ) ) ;
#465 = DIRECTION ( 'NONE',  ( -1.000000000000000000, 0.000000000000000000, 0.000000000000000000 ) ) ;
#466 = DIRECTION ( 'NONE',  ( 1.000000000000000000, 0.000000000000000000, 0.000000000000000000 ) ) ;
#467 = VERTEX_POINT ( 'NONE', #168 ) ;
#468 = FACE_OUTER_BOUND ( 'NONE', #57, .T. ) ;
#469 = EDGE_CURVE ( 'NONE', #501, #580, #818, .T. ) ;
#470 = AXIS2_PLACEMENT_3D ( 'NONE', #655, #216, #963 ) ;
#471 = EDGE_LOOP ( 'NONE', ( #913, #344, #643, #638 ) ) ;
#472 = CARTESIAN_POINT ( 'NONE',  ( -13.00000000000000178, 25.00000000000000000, 5.000000000000000000 ) ) ;
#473 = DIRECTION ( 'NONE',  ( 0.000000000000000000, 0.000000000000000000, -1.000000000000000000 ) ) ;
#474 = APPLICATION_CONTEXT ( 'automotive_design' ) ;
#475 = ORIENTED_EDGE ( 'NONE', *, *, #367, .F. ) ;
#476 = DIRECTION ( 'NONE',  ( -1.000000000000000000, 0.000000000000000000, 0.000000000000000000 ) ) ;
#477 = VECTOR ( 'NONE', #689, 1000.000000000000000 ) ;
#478 =( NAMED_UNIT ( * ) SI_UNIT ( $, .STERADIAN. ) SOLID_ANGLE_UNIT ( ) );
#479 = ADVANCED_FACE ( 'NONE', ( #468 ), #303, .F. ) ;
#480 = ADVANCED_FACE ( 'NONE', ( #164 ), #458, .F. ) ;
#481 = ORIENTED_EDGE ( 'NONE', *, *, #910, .F. ) ;
#482 = DIRECTION ( 'NONE',  ( -0.000000000000000000, -0.000000000000000000, -1.000000000000000000 ) ) ;
#483 = DIRECTION ( 'NONE',  ( -0.000000000000000000, -0.000000000000000000, 1.000000000000000000 ) ) ;
#484 = ORIENTED_EDGE ( 'NONE', *, *, #713, .F. ) ;
#485 = DIRECTION ( 'NONE',  ( -0.000000000000000000, -0.000000000000000000, 1.000000000000000000 ) ) ;
#486 = DIRECTION ( 'NONE',  ( 0.000000000000000000, 0.000000000000000000, 1.000000000000000000 ) ) ;
#487 = AXIS2_PLACEMENT_3D ( 'NONE', #261, #781, #271 ) ;
#488 = CARTESIAN_POINT ( 'NONE',  ( 5.600000000000058265, -34.00000000000014211, 0.000000000000000000 ) ) ;
#489 = ADVANCED_FACE ( 'NONE', ( #81 ), #4, .F. ) ;
#490 = ORIENTED_EDGE ( 'NONE', *, *, #331, .F. ) ;
#491 = EDGE_CURVE ( 'NONE', #409, #80, #555, .T. ) ;
#492 = FACE_BOUND ( 'NONE', #306, .T. ) ;
#493 = ORIENTED_EDGE ( 'NONE', *, *, #14, .T. ) ;
#494 = FACE_OUTER_BOUND ( 'NONE', #125, .T. ) ;
#495 = VERTEX_POINT ( 'NONE', #88 ) ;
#496 = ADVANCED_FACE ( 'NONE', ( #914 ), #675, .T. ) ;
#497 = FACE_BOUND ( 'NONE', #339, .T. ) ;
#498 = CARTESIAN_POINT ( 'NONE',  ( -8.000000000000000000, 0.000000000000000000, 5.000000000000000000 ) ) ;
#499 = ORIENTED_EDGE ( 'NONE', *, *, #319, .T. ) ;
#500 = DIRECTION ( 'NONE',  ( 0.000000000000000000, 0.000000000000000000, -1.000000000000000000 ) ) ;
#501 = VERTEX_POINT ( 'NONE', #839 ) ;
#502 = DIRECTION ( 'NONE',  ( 1.000000000000000000, 0.000000000000000000, 0.000000000000000000 ) ) ;
#503 = VERTEX_POINT ( 'NONE', #15 ) ;
#504 = CARTESIAN_POINT ( 'NONE',  ( 5.600000000000058265, -34.00000000000014211, 5.000000000000000000 ) ) ;
#505 = ORIENTED_EDGE ( 'NONE', *, *, #234, .F. ) ;
#506 = CARTESIAN_POINT ( 'NONE',  ( 4.000000000000005329, -34.00000000000014211, 5.000000000000000000 ) ) ;
#507 = VECTOR ( 'NONE', #664, 1000.000000000000000 ) ;
#508 = CIRCLE ( 'NONE', #739, 3.000000000000002665 ) ;
#509 = ADVANCED_FACE ( 'NONE', ( #603 ), #300, .F. ) ;
#510 = CIRCLE ( 'NONE', #100, 1.499999999999999556 ) ;
#511 = ORIENTED_EDGE ( 'NONE', *, *, #86, .F. ) ;
#512 = LINE ( 'NONE', #370, #267 ) ;
#513 = LINE ( 'NONE', #869, #263 ) ;
#514 = ADVANCED_FACE ( 'NONE', ( #380 ), #537, .T. ) ;
#515 = CIRCLE ( 'NONE', #932, 3.000000000000000000 ) ;
#516 = ORIENTED_EDGE ( 'NONE', *, *, #262, .F. ) ;
#517 = CYLINDRICAL_SURFACE ( 'NONE', #421, 1.499999999999999556 ) ;
#518 = DIRECTION ( 'NONE',  ( 1.000000000000000000, 0.000000000000000000, 0.000000000000000000 ) ) ;
#519 = AXIS2_PLACEMENT_3D ( 'NONE', #877, #134, #729 ) ;
#520 = CYLINDRICAL_SURFACE ( 'NONE', #671, 1.600000000000052713 ) ;
#521 = CARTESIAN_POINT ( 'NONE',  ( 9.000000000000001776, -33.99999999999999289, 5.000000000000000000 ) ) ;
#522 = EDGE_CURVE ( 'NONE', #399, #602, #530, .T. ) ;
#523 = VERTEX_POINT ( 'NONE', #245 ) ;
#524 = AXIS2_PLACEMENT_3D ( 'NONE', #639, #187, #35 ) ;
#525 = CARTESIAN_POINT ( 'NONE',  ( -12.00000000000000000, 28.00000000000000000, 5.000000000000000000 ) ) ;
#526 = AXIS2_PLACEMENT_3D ( 'NONE', #227, #670, #376 ) ;
#527 = ORIENTED_EDGE ( 'NONE', *, *, #604, .T. ) ;
#528 = CYLINDRICAL_SURFACE ( 'NONE', #856, 1.499999999999999556 ) ;
#529 = ORIENTED_EDGE ( 'NONE', *, *, #246, .F. ) ;
#530 = LINE ( 'NONE', #152, #10 ) ;
#531 = DIRECTION ( 'NONE',  ( 0.000000000000000000, 0.000000000000000000, -1.000000000000000000 ) ) ;
#532 = CIRCLE ( 'NONE', #356, 1.499999999999999556 ) ;
#533 = ORIENTED_EDGE ( 'NONE', *, *, #787, .T. ) ;
#534 = DIRECTION ( 'NONE',  ( 1.000000000000000000, 0.000000000000000000, 0.000000000000000000 ) ) ;
#535 = DIRECTION ( 'NONE',  ( -0.000000000000000000, -0.000000000000000000, 1.000000000000000000 ) ) ;
#536 = ORIENTED_EDGE ( 'NONE', *, *, #204, .F. ) ;
#537 = CYLINDRICAL_SURFACE ( 'NONE', #526, 2.999999999999999112 ) ;
#538 = AXIS2_PLACEMENT_3D ( 'NONE', #890, #389, #756 ) ;
#539 = EDGE_CURVE ( 'NONE', #661, #958, #846, .T. ) ;
#540 = CARTESIAN_POINT ( 'NONE',  ( 9.000000000000001776, -33.99999999999999289, 0.000000000000000000 ) ) ;
#541 = CARTESIAN_POINT ( 'NONE',  ( -16.87867965644035451, -23.87867965644035451, 5.000000000000000000 ) ) ;
#542 = ORIENTED_EDGE ( 'NONE', *, *, #404, .T. ) ;
#543 = CARTESIAN_POINT ( 'NONE',  ( 4.000000000000005329, -34.00000000000014211, 0.000000000000000000 ) ) ;
#544 = AXIS2_PLACEMENT_3D ( 'NONE', #954, #720, #59 ) ;
#545 = EDGE_LOOP ( 'NONE', ( #425, #804, #896, #302 ) ) ;
#546 = DIRECTION ( 'NONE',  ( -1.000000000000000000, 0.000000000000000000, 0.000000000000000000 ) ) ;
#547 = AXIS2_PLACEMENT_3D ( 'NONE', #206, #733, #345 ) ;
#548 = VERTEX_POINT ( 'NONE', #745 ) ;
#549 = ADVANCED_FACE ( 'NONE', ( #77 ), #599, .F. ) ;
#550 = CARTESIAN_POINT ( 'NONE',  ( -15.99999999999999289, -34.00000000000014211, 0.000000000000000000 ) ) ;
#551 = CARTESIAN_POINT ( 'NONE',  ( -1.939599295521237776, 25.77645713530749916, 5.000000000000000000 ) ) ;
#552 = CIRCLE ( 'NONE', #926, 1.600000000000052269 ) ;
#553 = ORIENTED_EDGE ( 'NONE', *, *, #772, .F. ) ;
#554 = CARTESIAN_POINT ( 'NONE',  ( -6.500000000000000888, 13.00000000000000000, 0.000000000000000000 ) ) ;
#555 = CIRCLE ( 'NONE', #177, 1.499999999999999556 ) ;
#556 = DIRECTION ( 'NONE',  ( -0.000000000000000000, -0.000000000000000000, 1.000000000000000000 ) ) ;
#557 = DIRECTION ( 'NONE',  ( 0.000000000000000000, 0.000000000000000000, 1.000000000000000000 ) ) ;
#558 = EDGE_LOOP ( 'NONE', ( #516, #962, #174, #728 ) ) ;
#559 = LINE ( 'NONE', #774, #765 ) ;
#560 = FACE_BOUND ( 'NONE', #862, .T. ) ;
#561 = AXIS2_PLACEMENT_3D ( 'NONE', #730, #58, #657 ) ;
#562 = AXIS2_PLACEMENT_3D ( 'NONE', #431, #794, #947 ) ;
#563 = ORIENTED_EDGE ( 'NONE', *, *, #902, .F. ) ;
#564 = CARTESIAN_POINT ( 'NONE',  ( 9.000000000000001776, -37.00000000000000000, 5.000000000000000000 ) ) ;
#565 = EDGE_CURVE ( 'NONE', #230, #870, #429, .T. ) ;
#566 = ORIENTED_EDGE ( 'NONE', *, *, #469, .F. ) ;
#567 = CARTESIAN_POINT ( 'NONE',  ( -12.00000000000000355, -37.00000000000000000, 5.000000000000000000 ) ) ;
#568 = VERTEX_POINT ( 'NONE', #701 ) ;
#569 = CARTESIAN_POINT ( 'NONE',  ( -15.99999999999999289, -34.00000000000014211, 0.000000000000000000 ) ) ;
#570 = ORIENTED_EDGE ( 'NONE', *, *, #702, .T. ) ;
#571 = DIRECTION ( 'NONE',  ( 1.000000000000000000, 0.000000000000000000, 0.000000000000000000 ) ) ;
#572 = AXIS2_PLACEMENT_3D ( 'NONE', #928, #617, #915 ) ;
#573 = AXIS2_PLACEMENT_3D ( 'NONE', #918, #42, #30 ) ;
#574 = DIRECTION ( 'NONE',  ( 0.000000000000000000, 0.000000000000000000, 1.000000000000000000 ) ) ;
#575 = ORIENTED_EDGE ( 'NONE', *, *, #188, .F. ) ;
#576 = DIRECTION ( 'NONE',  ( 0.000000000000000000, 0.000000000000000000, -1.000000000000000000 ) ) ;
#577 = ORIENTED_EDGE ( 'NONE', *, *, #491, .F. ) ;
#578 = CARTESIAN_POINT ( 'NONE',  ( -1.939599295521239553, 25.77645713530750626, 5.000000000000000000 ) ) ;
#579 = ADVANCED_FACE ( 'NONE', ( #98 ), #403, .F. ) ;
#580 = VERTEX_POINT ( 'NONE', #705 ) ;
#581 = CARTESIAN_POINT ( 'NONE',  ( -8.000000000000000000, 13.00000000000000000, 0.000000000000000000 ) ) ;
#582 = LINE ( 'NONE', #649, #776 ) ;
#583 = VECTOR ( 'NONE', #70, 1000.000000000000000 ) ;
#584 = EDGE_CURVE ( 'NONE', #815, #142, #696, .T. ) ;
#585 = EDGE_LOOP ( 'NONE', ( #711, #66, #542, #353 ) ) ;
#586 = LINE ( 'NONE', #660, #341 ) ;
#587 = DIRECTION ( 'NONE',  ( -0.000000000000000000, -0.000000000000000000, -1.000000000000000000 ) ) ;
#588 = CYLINDRICAL_SURFACE ( 'NONE', #626, 3.000000000000002665 ) ;
#589 = ORIENTED_EDGE ( 'NONE', *, *, #850, .T. ) ;
#590 = LINE ( 'NONE', #214, #182 ) ;
#591 = VECTOR ( 'NONE', #130, 1000.000000000000000 ) ;
#592 = ORIENTED_EDGE ( 'NONE', *, *, #377, .F. ) ;
#593 = DIRECTION ( 'NONE',  ( -1.000000000000000000, 0.000000000000000000, 0.000000000000000000 ) ) ;
#594 = ORIENTED_EDGE ( 'NONE', *, *, #280, .T. ) ;
#595 = DIRECTION ( 'NONE',  ( 0.000000000000000000, 0.000000000000000000, -1.000000000000000000 ) ) ;
#596 = DIRECTION ( 'NONE',  ( -0.000000000000000000, -0.000000000000000000, 1.000000000000000000 ) ) ;
#597 = CYLINDRICAL_SURFACE ( 'NONE', #909, 1.499999999999999556 ) ;
#598 = ORIENTED_EDGE ( 'NONE', *, *, #820, .F. ) ;
#599 = PLANE ( 'NONE',  #128 ) ;
#600 = DIRECTION ( 'NONE',  ( 0.000000000000000000, 0.000000000000000000, 1.000000000000000000 ) ) ;
#601 = AXIS2_PLACEMENT_3D ( 'NONE', #9, #755, #19 ) ;
#602 = VERTEX_POINT ( 'NONE', #323 ) ;
#603 = FACE_OUTER_BOUND ( 'NONE', #800, .T. ) ;
#604 = EDGE_CURVE ( 'NONE', #467, #94, #510, .T. ) ;
#605 = DIRECTION ( 'NONE',  ( 1.000000000000000000, 0.000000000000000000, 0.000000000000000000 ) ) ;
#606 = EDGE_LOOP ( 'NONE', ( #316, #901, #390, #288 ) ) ;
#607 = DIRECTION ( 'NONE',  ( 0.000000000000000000, 0.000000000000000000, 1.000000000000000000 ) ) ;
#608 = AXIS2_PLACEMENT_3D ( 'NONE', #126, #428, #295 ) ;
#609 = CARTESIAN_POINT ( 'NONE',  ( -37.00000000000000711, -33.99999999999999289, 5.000000000000000000 ) ) ;
#610 = EDGE_CURVE ( 'NONE', #870, #686, #180, .T. ) ;
#611 = CARTESIAN_POINT ( 'NONE',  ( -33.99999999999999289, -37.00000000000000000, 0.000000000000000000 ) ) ;
#612 = EDGE_LOOP ( 'NONE', ( #955, #793, #674, #553 ) ) ;
#613 = DIRECTION ( 'NONE',  ( -1.000000000000000000, -2.040851148208007752E-16, -0.000000000000000000 ) ) ;
#614 = DIRECTION ( 'NONE',  ( -1.000000000000000000, 0.000000000000000000, 0.000000000000000000 ) ) ;
#615 = EDGE_CURVE ( 'NONE', #847, #807, #930, .T. ) ;
#616 = EDGE_CURVE ( 'NONE', #661, #495, #934, .T. ) ;
#617 = DIRECTION ( 'NONE',  ( 0.000000000000000000, 0.000000000000000000, -1.000000000000000000 ) ) ;
#618 = VERTEX_POINT ( 'NONE', #554 ) ;
#619 = DIRECTION ( 'NONE',  ( 0.000000000000000000, 0.000000000000000000, -1.000000000000000000 ) ) ;
#620 = PLANE ( 'NONE',  #191 ) ;
#621 = APPLICATION_PROTOCOL_DEFINITION ( 'draft international standard', 'automotive_design', 1998, #903 ) ;
#622 = VERTEX_POINT ( 'NONE', #407 ) ;
#623 = CARTESIAN_POINT ( 'NONE',  ( -15.99999999999999289, -21.75735931288071612, 5.000000000000000000 ) ) ;
#624 = FACE_BOUND ( 'NONE', #395, .T. ) ;
#625 = CARTESIAN_POINT ( 'NONE',  ( -37.00000000000000711, -33.99999999999999289, 5.000000000000000000 ) ) ;
#626 = AXIS2_PLACEMENT_3D ( 'NONE', #195, #576, #784 ) ;
#627 = CARTESIAN_POINT ( 'NONE',  ( 0.000000000000000000, 0.000000000000000000, 0.000000000000000000 ) ) ;
#628 = VECTOR ( 'NONE', #228, 1000.000000000000114 ) ;
#629 = VERTEX_POINT ( 'NONE', #252 ) ;
#630 = DIRECTION ( 'NONE',  ( 1.000000000000000000, 0.000000000000000000, 0.000000000000000000 ) ) ;
#631 = FILL_AREA_STYLE_COLOUR ( '', #906 ) ;
#632 = ORIENTED_EDGE ( 'NONE', *, *, #937, .F. ) ;
#633 = DIRECTION ( 'NONE',  ( -0.000000000000000000, -0.000000000000000000, 1.000000000000000000 ) ) ;
#634 = PRESENTATION_STYLE_ASSIGNMENT (( #176 ) ) ;
#635 = PRODUCT_DEFINITION_SHAPE ( 'NONE', 'NONE',  #727 ) ;
#636 = EDGE_CURVE ( 'NONE', #686, #251, #644, .T. ) ;
#637 = AXIS2_PLACEMENT_3D ( 'NONE', #420, #710, #363 ) ;
#638 = ORIENTED_EDGE ( 'NONE', *, *, #522, .F. ) ;
#639 = CARTESIAN_POINT ( 'NONE',  ( -8.000000000000000000, -13.00000000000000000, 5.000000000000000000 ) ) ;
#640 = VECTOR ( 'NONE', #883, 1000.000000000000000 ) ;
#641 = ORIENTED_EDGE ( 'NONE', *, *, #764, .T. ) ;
#642 = CARTESIAN_POINT ( 'NONE',  ( 4.634443504523851232, 1.241795394404719532, 5.000000000000000000 ) ) ;
#643 = ORIENTED_EDGE ( 'NONE', *, *, #424, .F. ) ;
#644 = CIRCLE ( 'NONE', #225, 2.999999999999999112 ) ;
#645 = DIRECTION ( 'NONE',  ( 0.000000000000000000, 0.000000000000000000, 1.000000000000000000 ) ) ;
#646 = ORIENTED_EDGE ( 'NONE', *, *, #911, .T. ) ;
#647 = CARTESIAN_POINT ( 'NONE',  ( -4.837376774388459033, 28.00000000000000000, 0.000000000000000000 ) ) ;
#648 = EDGE_LOOP ( 'NONE', ( #823, #481, #709, #592 ) ) ;
#649 = CARTESIAN_POINT ( 'NONE',  ( 12.00000000000000000, -26.64179316549579113, 5.000000000000000000 ) ) ;
#650 = VECTOR ( 'NONE', #317, 1000.000000000000000 ) ;
#651 = ORIENTED_EDGE ( 'NONE', *, *, #751, .T. ) ;
#652 = DIRECTION ( 'NONE',  ( -0.000000000000000000, -0.000000000000000000, -1.000000000000000000 ) ) ;
#653 = DIRECTION ( 'NONE',  ( 1.000000000000000000, 0.000000000000000000, 0.000000000000000000 ) ) ;
#654 = VERTEX_POINT ( 'NONE', #410 ) ;
#655 = CARTESIAN_POINT ( 'NONE',  ( -37.00000000000000711, -27.00000000000000355, 5.000000000000000000 ) ) ;
#656 = ORIENTED_EDGE ( 'NONE', *, *, #851, .F. ) ;
#657 = DIRECTION ( 'NONE',  ( -1.000000000000000000, 0.000000000000000000, 0.000000000000000000 ) ) ;
#658 = CIRCLE ( 'NONE', #368, 3.000000000000000888 ) ;
#659 = DIRECTION ( 'NONE',  ( -0.000000000000000000, -1.000000000000000000, -0.000000000000000000 ) ) ;
#660 = CARTESIAN_POINT ( 'NONE',  ( -6.500000000000000888, 1.836970198721029441E-16, 5.000000000000000000 ) ) ;
#661 = VERTEX_POINT ( 'NONE', #863 ) ;
#662 = LINE ( 'NONE', #525, #104 ) ;
#663 = CARTESIAN_POINT ( 'NONE',  ( -20.00000000000000000, -27.00000000000000000, 5.000000000000000000 ) ) ;
#664 = DIRECTION ( 'NONE',  ( -0.000000000000000000, -0.000000000000000000, -1.000000000000000000 ) ) ;
#665 = VERTEX_POINT ( 'NONE', #763 ) ;
#666 = FACE_BOUND ( 'NONE', #388, .T. ) ;
#667 = DIRECTION ( 'NONE',  ( -1.000000000000000000, 0.000000000000000000, 0.000000000000000000 ) ) ;
#668 = CARTESIAN_POINT ( 'NONE',  ( -34.00000000000000000, -30.00000000000000355, 0.000000000000000000 ) ) ;
#669 = ORIENTED_EDGE ( 'NONE', *, *, #539, .T. ) ;
#670 = DIRECTION ( 'NONE',  ( 0.000000000000000000, 0.000000000000000000, -1.000000000000000000 ) ) ;
#671 = AXIS2_PLACEMENT_3D ( 'NONE', #373, #898, #1 ) ;
#672 = AXIS2_PLACEMENT_3D ( 'NONE', #472, #114, #780 ) ;
#673 = CARTESIAN_POINT ( 'NONE',  ( 8.999999999999994671, -37.00000000000000000, 0.000000000000000000 ) ) ;
#674 = ORIENTED_EDGE ( 'NONE', *, *, #14, .F. ) ;
#675 = CYLINDRICAL_SURFACE ( 'NONE', #83, 3.000000000000000000 ) ;
#676 = LINE ( 'NONE', #242, #335 ) ;
#677 = DIRECTION ( 'NONE',  ( -1.000000000000000000, 0.000000000000000000, 0.000000000000000000 ) ) ;
#678 = AXIS2_PLACEMENT_3D ( 'NONE', #203, #143, #653 ) ;
#679 = ADVANCED_FACE ( 'NONE', ( #106 ), #400, .F. ) ;
#680 = EDGE_LOOP ( 'NONE', ( #457, #8, #406, #205 ) ) ;
#681 = DIRECTION ( 'NONE',  ( -1.000000000000000000, 0.000000000000000000, -0.000000000000000000 ) ) ;
#682 = VECTOR ( 'NONE', #723, 1000.000000000000114 ) ;
#683 = LINE ( 'NONE', #609, #449 ) ;
#684 = DIRECTION ( 'NONE',  ( 1.360567432138672821E-16, -1.000000000000000000, 0.000000000000000000 ) ) ;
#685 = DIRECTION ( 'NONE',  ( -0.000000000000000000, -0.000000000000000000, 1.000000000000000000 ) ) ;
#686 = VERTEX_POINT ( 'NONE', #623 ) ;
#687 = CIRCLE ( 'NONE', #487, 1.499999999999999556 ) ;
#688 = ORIENTED_EDGE ( 'NONE', *, *, #902, .T. ) ;
#689 = DIRECTION ( 'NONE',  ( -0.000000000000000000, -0.000000000000000000, 1.000000000000000000 ) ) ;
#690 = VECTOR ( 'NONE', #924, 1000.000000000000000 ) ;
#691 = ORIENTED_EDGE ( 'NONE', *, *, #364, .F. ) ;
#692 = CYLINDRICAL_SURFACE ( 'NONE', #93, 2.999999999999999112 ) ;
#693 = FACE_OUTER_BOUND ( 'NONE', #704, .T. ) ;
#694 = CARTESIAN_POINT ( 'NONE',  ( -12.00000000000000000, 28.00000000000000000, 0.000000000000000000 ) ) ;
#695 = EDGE_LOOP ( 'NONE', ( #265, #336, #563, #427 ) ) ;
#696 = LINE ( 'NONE', #41, #385 ) ;
#697 = SURFACE_SIDE_STYLE ('',( #864 ) ) ;
#698 = AXIS2_PLACEMENT_3D ( 'NONE', #426, #716, #52 ) ;
#699 = ORIENTED_EDGE ( 'NONE', *, *, #49, .F. ) ;
#700 = EDGE_CURVE ( 'NONE', #870, #568, #559, .T. ) ;
#701 = CARTESIAN_POINT ( 'NONE',  ( -16.00000000000000000, 25.00000000000000000, 0.000000000000000000 ) ) ;
#702 = EDGE_CURVE ( 'NONE', #142, #503, #218, .T. ) ;
#703 = DIRECTION ( 'NONE',  ( 0.000000000000000000, 0.000000000000000000, -1.000000000000000000 ) ) ;
#704 = EDGE_LOOP ( 'NONE', ( #51, #62, #452, #87 ) ) ;
#705 = CARTESIAN_POINT ( 'NONE',  ( -34.00000000000000000, -27.00000000000000355, 5.000000000000000000 ) ) ;
#706 = CARTESIAN_POINT ( 'NONE',  ( -13.00000000000000178, 28.00000000000000000, 5.000000000000000000 ) ) ;
#707 = ADVANCED_FACE ( 'NONE', ( #854 ), #692, .T. ) ;
#708 = AXIS2_PLACEMENT_3D ( 'NONE', #266, #768, #476 ) ;
#709 = ORIENTED_EDGE ( 'NONE', *, *, #636, .F. ) ;
#710 = DIRECTION ( 'NONE',  ( 0.000000000000000000, 0.000000000000000000, 1.000000000000000000 ) ) ;
#711 = ORIENTED_EDGE ( 'NONE', *, *, #785, .F. ) ;
#712 = FILL_AREA_STYLE ('',( #631 ) ) ;
#713 = EDGE_CURVE ( 'NONE', #654, #440, #922, .T. ) ;
#714 = EDGE_CURVE ( 'NONE', #28, #284, #848, .T. ) ;
#715 = VERTEX_POINT ( 'NONE', #65 ) ;
#716 = DIRECTION ( 'NONE',  ( -0.000000000000000000, -0.000000000000000000, 1.000000000000000000 ) ) ;
#717 = ORIENTED_EDGE ( 'NONE', *, *, #844, .T. ) ;
#718 = VECTOR ( 'NONE', #917, 1000.000000000000000 ) ;
#719 = DIRECTION ( 'NONE',  ( 1.000000000000000000, 0.000000000000000000, 0.000000000000000000 ) ) ;
#720 = DIRECTION ( 'NONE',  ( -0.000000000000000000, -0.000000000000000000, 1.000000000000000000 ) ) ;
#721 = EDGE_CURVE ( 'NONE', #946, #55, #296, .T. ) ;
#722 = EDGE_LOOP ( 'NONE', ( #866, #101 ) ) ;
#723 = DIRECTION ( 'NONE',  ( 0.2588190451024997008, -0.9659258262890739744, 0.000000000000000000 ) ) ;
#724 = CARTESIAN_POINT ( 'NONE',  ( -19.12132034355964194, -26.12132034355964194, 5.000000000000000000 ) ) ;
#725 = AXIS2_PLACEMENT_3D ( 'NONE', #231, #749, #534 ) ;
#726 = CYLINDRICAL_SURFACE ( 'NONE', #817, 1.499999999999999556 ) ;
#727 = PRODUCT_DEFINITION ( '鏅', '', #437, #825 ) ;
#728 = ORIENTED_EDGE ( 'NONE', *, *, #391, .F. ) ;
#729 = DIRECTION ( 'NONE',  ( 0.7071067811865474617, 0.7071067811865474617, 0.000000000000000000 ) ) ;
#730 = CARTESIAN_POINT ( 'NONE',  ( -8.000000000000000000, 13.00000000000000000, 5.000000000000000000 ) ) ;
#731 = AXIS2_PLACEMENT_3D ( 'NONE', #107, #556, #423 ) ;
#732 = CARTESIAN_POINT ( 'NONE',  ( -12.00000000000000355, -37.00000000000000000, 0.000000000000000000 ) ) ;
#733 = DIRECTION ( 'NONE',  ( 0.000000000000000000, 0.000000000000000000, -1.000000000000000000 ) ) ;
#734 = ORIENTED_EDGE ( 'NONE', *, *, #397, .T. ) ;
#735 = DIRECTION ( 'NONE',  ( 0.000000000000000000, 0.000000000000000000, 1.000000000000000000 ) ) ;
#736 = ADVANCED_FACE ( 'NONE', ( #871 ), #285, .T. ) ;
#737 = CARTESIAN_POINT ( 'NONE',  ( -4.837376774388459033, 25.00000000000000000, 5.000000000000000000 ) ) ;
#738 = ORIENTED_EDGE ( 'NONE', *, *, #923, .F. ) ;
#739 = AXIS2_PLACEMENT_3D ( 'NONE', #6, #596, #160 ) ;
#740 = CIRCLE ( 'NONE', #321, 1.600000000000054490 ) ;
#741 = FACE_BOUND ( 'NONE', #881, .T. ) ;
#742 = DIRECTION ( 'NONE',  ( 0.000000000000000000, 0.000000000000000000, -1.000000000000000000 ) ) ;
#743 = DIRECTION ( 'NONE',  ( -1.000000000000000000, 0.000000000000000000, 0.000000000000000000 ) ) ;
#744 = ORIENTED_EDGE ( 'NONE', *, *, #319, .F. ) ;
#745 = CARTESIAN_POINT ( 'NONE',  ( -6.500000000000000888, -13.00000000000000000, 0.000000000000000000 ) ) ;
#746 = EDGE_CURVE ( 'NONE', #438, #442, #805, .T. ) ;
#747 = CARTESIAN_POINT ( 'NONE',  ( 11.89777747886722281, -25.86533603018829197, 0.000000000000000000 ) ) ;
#748 = ORIENTED_EDGE ( 'NONE', *, *, #616, .T. ) ;
#749 = DIRECTION ( 'NONE',  ( -0.000000000000000000, -0.000000000000000000, 1.000000000000000000 ) ) ;
#750 = AXIS2_PLACEMENT_3D ( 'NONE', #521, #161, #7 ) ;
#751 = EDGE_CURVE ( 'NONE', #629, #622, #512, .T. ) ;
#752 = LINE ( 'NONE', #541, #507 ) ;
#753 = EDGE_CURVE ( 'NONE', #568, #430, #803, .T. ) ;
#754 = EDGE_LOOP ( 'NONE', ( #118, #527, #950, #463 ) ) ;
#755 = DIRECTION ( 'NONE',  ( -0.000000000000000000, -0.000000000000000000, 1.000000000000000000 ) ) ;
#756 = DIRECTION ( 'NONE',  ( 1.000000000000000000, 0.000000000000000000, 0.000000000000000000 ) ) ;
#757 = VERTEX_POINT ( 'NONE', #504 ) ;
#758 = EDGE_CURVE ( 'NONE', #299, #399, #884, .T. ) ;
#759 = DIRECTION ( 'NONE',  ( -0.000000000000000000, -0.000000000000000000, -1.000000000000000000 ) ) ;
#760 = AXIS2_PLACEMENT_3D ( 'NONE', #627, #557, #912 ) ;
#761 = AXIS2_PLACEMENT_3D ( 'NONE', #352, #46, #436 ) ;
#762 = ORIENTED_EDGE ( 'NONE', *, *, #880, .T. ) ;
#763 = CARTESIAN_POINT ( 'NONE',  ( -14.39999999999993818, -34.00000000000014211, 0.000000000000000000 ) ) ;
#764 = EDGE_CURVE ( 'NONE', #618, #602, #393, .T. ) ;
#765 = VECTOR ( 'NONE', #482, 1000.000000000000000 ) ;
#766 = CARTESIAN_POINT ( 'NONE',  ( 5.600000000000058265, -34.00000000000014211, 0.000000000000000000 ) ) ;
#767 = EDGE_LOOP ( 'NONE', ( #916, #24, #419, #213 ) ) ;
#768 = DIRECTION ( 'NONE',  ( 0.000000000000000000, 0.000000000000000000, -1.000000000000000000 ) ) ;
#769 = VECTOR ( 'NONE', #613, 1000.000000000000000 ) ;
#770 = ORIENTED_EDGE ( 'NONE', *, *, #867, .F. ) ;
#771 = DIRECTION ( 'NONE',  ( 0.000000000000000000, 1.000000000000000000, 0.000000000000000000 ) ) ;
#772 = EDGE_CURVE ( 'NONE', #28, #220, #212, .T. ) ;
#773 = ORIENTED_EDGE ( 'NONE', *, *, #188, .T. ) ;
#774 = CARTESIAN_POINT ( 'NONE',  ( -16.00000000000000000, 25.00000000000000000, -1.387778780781445676E-14 ) ) ;
#775 = FACE_OUTER_BOUND ( 'NONE', #84, .T. ) ;
#776 = VECTOR ( 'NONE', #136, 1000.000000000000000 ) ;
#777 = FACE_OUTER_BOUND ( 'NONE', #695, .T. ) ;
#778 = AXIS2_PLACEMENT_3D ( 'NONE', #229, #833, #155 ) ;
#779 = EDGE_LOOP ( 'NONE', ( #105, #834, #38, #226 ) ) ;
#780 = DIRECTION ( 'NONE',  ( -1.000000000000000000, 0.000000000000000000, 0.000000000000000000 ) ) ;
#781 = DIRECTION ( 'NONE',  ( 0.000000000000000000, 0.000000000000000000, 1.000000000000000000 ) ) ;
#782 = AXIS2_PLACEMENT_3D ( 'NONE', #193, #355, #938 ) ;
#783 = ORIENTED_EDGE ( 'NONE', *, *, #115, .T. ) ;
#784 = DIRECTION ( 'NONE',  ( -1.000000000000000000, 0.000000000000000000, 0.000000000000000000 ) ) ;
#785 = EDGE_CURVE ( 'NONE', #409, #55, #586, .T. ) ;
#786 = PLANE ( 'NONE',  #398 ) ;
#787 = EDGE_CURVE ( 'NONE', #622, #503, #956, .T. ) ;
#788 = ORIENTED_EDGE ( 'NONE', *, *, #565, .T. ) ;
#789 = CARTESIAN_POINT ( 'NONE',  ( -34.00000000000000000, -37.00000000000000711, 5.000000000000000000 ) ) ;
#790 = ORIENTED_EDGE ( 'NONE', *, *, #417, .T. ) ;
#791 = CARTESIAN_POINT ( 'NONE',  ( -8.000000000000000000, 13.00000000000000000, 0.000000000000000000 ) ) ;
#792 = ADVANCED_FACE ( 'NONE', ( #140 ), #799, .F. ) ;
#793 = ORIENTED_EDGE ( 'NONE', *, *, #615, .F. ) ;
#794 = DIRECTION ( 'NONE',  ( 0.000000000000000000, 0.000000000000000000, 1.000000000000000000 ) ) ;
#795 = AXIS2_PLACEMENT_3D ( 'NONE', #464, #759, #72 ) ;
#796 = CARTESIAN_POINT ( 'NONE',  ( 11.89777747886722459, -25.86533603018829908, 5.000000000000000000 ) ) ;
#797 = ADVANCED_FACE ( 'NONE', ( #494 ), #61, .F. ) ;
#798 = ORIENTED_EDGE ( 'NONE', *, *, #785, .T. ) ;
#799 = PLANE ( 'NONE',  #519 ) ;
#800 = EDGE_LOOP ( 'NONE', ( #365, #375, #357, #968 ) ) ;
#801 = DIRECTION ( 'NONE',  ( 0.000000000000000000, 0.000000000000000000, -1.000000000000000000 ) ) ;
#802 = CIRCLE ( 'NONE', #90, 1.600000000000054490 ) ;
#803 = CIRCLE ( 'NONE', #547, 2.999999999999999112 ) ;
#804 = ORIENTED_EDGE ( 'NONE', *, *, #700, .T. ) ;
#805 = LINE ( 'NONE', #642, #682 ) ;
#806 = ADVANCED_FACE ( 'NONE', ( #281 ), #517, .F. ) ;
#807 = VERTEX_POINT ( 'NONE', #868 ) ;
#808 = DIRECTION ( 'NONE',  ( 0.000000000000000000, 0.000000000000000000, -1.000000000000000000 ) ) ;
#809 =( GEOMETRIC_REPRESENTATION_CONTEXT ( 3 ) GLOBAL_UNCERTAINTY_ASSIGNED_CONTEXT ( ( #837 ) ) GLOBAL_UNIT_ASSIGNED_CONTEXT ( ( #935, #253, #478 ) ) REPRESENTATION_CONTEXT ( 'NONE', 'WORKASPACE' ) );
#810 = CARTESIAN_POINT ( 'NONE',  ( -16.00000000000000000, 25.00000000000000000, 5.000000000000000000 ) ) ;
#811 = ORIENTED_EDGE ( 'NONE', *, *, #32, .F. ) ;
#812 = DIRECTION ( 'NONE',  ( -1.000000000000000000, 0.000000000000000000, 0.000000000000000000 ) ) ;
#813 = DIRECTION ( 'NONE',  ( -1.000000000000000000, 0.000000000000000000, 0.000000000000000000 ) ) ;
#814 = CARTESIAN_POINT ( 'NONE',  ( -4.837376774388459033, 28.00000000000000000, 1.734723475976807094E-15 ) ) ;
#815 = VERTEX_POINT ( 'NONE', #789 ) ;
#816 = VECTOR ( 'NONE', #314, 1000.000000000000000 ) ;
#817 = AXIS2_PLACEMENT_3D ( 'NONE', #498, #459, #614 ) ;
#818 = LINE ( 'NONE', #239, #769 ) ;
#819 = ADVANCED_FACE ( 'NONE', ( #293 ), #588, .T. ) ;
#820 = EDGE_CURVE ( 'NONE', #346, #501, #79, .T. ) ;
#821 = ORIENTED_EDGE ( 'NONE', *, *, #49, .T. ) ;
#822 = CARTESIAN_POINT ( 'NONE',  ( -4.837376774388459033, 28.00000000000000000, 5.000000000000000000 ) ) ;
#823 = ORIENTED_EDGE ( 'NONE', *, *, #149, .F. ) ;
#824 = FACE_BOUND ( 'NONE', #857, .T. ) ;
#825 = PRODUCT_DEFINITION_CONTEXT ( 'detailed design', #903, 'design' ) ;
#826 = LINE ( 'NONE', #450, #82 ) ;
#827 = DIRECTION ( 'NONE',  ( -1.000000000000000000, 0.000000000000000000, 0.000000000000000000 ) ) ;
#828 = EDGE_LOOP ( 'NONE', ( #811, #651, #533, #773 ) ) ;
#829 = FACE_OUTER_BOUND ( 'NONE', #371, .T. ) ;
#830 = CIRCLE ( 'NONE', #698, 2.999999999999999112 ) ;
#831 = EDGE_CURVE ( 'NONE', #113, #440, #830, .T. ) ;
#832 = LINE ( 'NONE', #663, #628 ) ;
#833 = DIRECTION ( 'NONE',  ( 0.000000000000000000, 0.000000000000000000, 1.000000000000000000 ) ) ;
#834 = ORIENTED_EDGE ( 'NONE', *, *, #758, .T. ) ;
#835 = DIRECTION ( 'NONE',  ( 1.000000000000000000, 0.000000000000000000, 0.000000000000000000 ) ) ;
#836 = CIRCLE ( 'NONE', #544, 2.999999999999999112 ) ;
#837 = UNCERTAINTY_MEASURE_WITH_UNIT (LENGTH_MEASURE( 1.000000000000000082E-05 ), #935, 'distance_accuracy_value', 'NONE');
#838 = VERTEX_POINT ( 'NONE', #647 ) ;
#839 = CARTESIAN_POINT ( 'NONE',  ( -21.24264068711928388, -27.00000000000000000, 5.000000000000000000 ) ) ;
#840 = ADVANCED_FACE ( 'NONE', ( #951 ), #597, .F. ) ;
#841 = APPLICATION_PROTOCOL_DEFINITION ( 'draft international standard', 'automotive_design', 1998, #474 ) ;
#842 = ORIENTED_EDGE ( 'NONE', *, *, #404, .F. ) ;
#843 = DIRECTION ( 'NONE',  ( 1.000000000000000000, 0.000000000000000000, 0.000000000000000000 ) ) ;
#844 = EDGE_CURVE ( 'NONE', #438, #876, #658, .T. ) ;
#845 = CARTESIAN_POINT ( 'NONE',  ( 12.00000000000000000, 16.00000000000000000, 0.000000000000000000 ) ) ;
#846 = CIRCLE ( 'NONE', #348, 1.600000000000052713 ) ;
#847 = VERTEX_POINT ( 'NONE', #673 ) ;
#848 = LINE ( 'NONE', #186, #43 ) ;
#849 = LINE ( 'NONE', #845, #401 ) ;
#850 = EDGE_CURVE ( 'NONE', #665, #279, #75, .T. ) ;
#851 = EDGE_CURVE ( 'NONE', #435, #904, #237, .T. ) ;
#852 = CIRCLE ( 'NONE', #433, 1.600000000000052269 ) ;
#853 = VERTEX_POINT ( 'NONE', #445 ) ;
#854 = FACE_OUTER_BOUND ( 'NONE', #558, .T. ) ;
#855 = CARTESIAN_POINT ( 'NONE',  ( -12.00000000000000000, 28.00000000000000000, 5.000000000000000000 ) ) ;
#856 = AXIS2_PLACEMENT_3D ( 'NONE', #150, #451, #219 ) ;
#857 = EDGE_LOOP ( 'NONE', ( #770, #577 ) ) ;
#858 = CARTESIAN_POINT ( 'NONE',  ( -37.00000000000000711, -37.00000000000000711, 5.000000000000000000 ) ) ;
#859 = LINE ( 'NONE', #192, #270 ) ;
#860 = CIRCLE ( 'NONE', #524, 1.499999999999999556 ) ;
#861 = EDGE_CURVE ( 'NONE', #876, #838, #305, .T. ) ;
#862 = EDGE_LOOP ( 'NONE', ( #499, #669 ) ) ;
#863 = CARTESIAN_POINT ( 'NONE',  ( 2.399999999999952838, -34.00000000000014211, 0.000000000000000000 ) ) ;
#864 = SURFACE_STYLE_FILL_AREA ( #712 ) ;
#865 = VECTOR ( 'NONE', #170, 1000.000000000000000 ) ;
#866 = ORIENTED_EDGE ( 'NONE', *, *, #165, .T. ) ;
#867 = EDGE_CURVE ( 'NONE', #80, #409, #36, .T. ) ;
#868 = CARTESIAN_POINT ( 'NONE',  ( 9.000000000000001776, -36.99999999999999289, 5.000000000000000000 ) ) ;
#869 = CARTESIAN_POINT ( 'NONE',  ( -9.500000000000000000, 0.000000000000000000, 5.000000000000000000 ) ) ;
#870 = VERTEX_POINT ( 'NONE', #810 ) ;
#871 = FACE_OUTER_BOUND ( 'NONE', #545, .T. ) ;
#872 = ADVANCED_FACE ( 'NONE', ( #166 ), #145, .F. ) ;
#873 = ORIENTED_EDGE ( 'NONE', *, *, #32, .T. ) ;
#874 = CYLINDRICAL_SURFACE ( 'NONE', #678, 2.999999999999999112 ) ;
#875 = CIRCLE ( 'NONE', #460, 1.499999999999999556 ) ;
#876 = VERTEX_POINT ( 'NONE', #822 ) ;
#877 = CARTESIAN_POINT ( 'NONE',  ( -20.00000000000000000, -27.00000000000000000, 5.000000000000000000 ) ) ;
#878 = ORIENTED_EDGE ( 'NONE', *, *, #584, .F. ) ;
#879 = CARTESIAN_POINT ( 'NONE',  ( -9.500000000000000000, 13.00000000000000000, 5.000000000000000000 ) ) ;
#880 = EDGE_CURVE ( 'NONE', #33, #887, #456, .T. ) ;
#881 = EDGE_LOOP ( 'NONE', ( #738, #131 ) ) ;
#882 = DIRECTION ( 'NONE',  ( -0.000000000000000000, -1.000000000000000000, -0.000000000000000000 ) ) ;
#883 = DIRECTION ( 'NONE',  ( 1.000000000000000000, 2.775557561562891351E-16, -0.000000000000000000 ) ) ;
#884 = CIRCLE ( 'NONE', #562, 1.499999999999999556 ) ;
#885 = CARTESIAN_POINT ( 'NONE',  ( 12.00000000000000000, -33.99999999999999289, 5.000000000000000000 ) ) ;
#886 = DIRECTION ( 'NONE',  ( -0.000000000000000000, -0.000000000000000000, -1.000000000000000000 ) ) ;
#887 = VERTEX_POINT ( 'NONE', #747 ) ;
#888 = CARTESIAN_POINT ( 'NONE',  ( -6.500000000000000888, 13.00000000000000000, 5.000000000000000000 ) ) ;
#889 = ORIENTED_EDGE ( 'NONE', *, *, #367, .T. ) ;
#890 = CARTESIAN_POINT ( 'NONE',  ( -8.000000000000000000, 0.000000000000000000, 5.000000000000000000 ) ) ;
#891 = ORIENTED_EDGE ( 'NONE', *, *, #73, .T. ) ;
#892 = DIRECTION ( 'NONE',  ( 0.000000000000000000, 0.000000000000000000, -1.000000000000000000 ) ) ;
#893 = AXIS2_PLACEMENT_3D ( 'NONE', #172, #312, #607 ) ;
#894 = CARTESIAN_POINT ( 'NONE',  ( -9.500000000000000000, 0.000000000000000000, 5.000000000000000000 ) ) ;
#895 = DIRECTION ( 'NONE',  ( -0.000000000000000000, -0.000000000000000000, -1.000000000000000000 ) ) ;
#896 = ORIENTED_EDGE ( 'NONE', *, *, #89, .T. ) ;
#897 = DIRECTION ( 'NONE',  ( -0.000000000000000000, -0.000000000000000000, -1.000000000000000000 ) ) ;
#898 = DIRECTION ( 'NONE',  ( -0.000000000000000000, -0.000000000000000000, 1.000000000000000000 ) ) ;
#899 = AXIS2_PLACEMENT_3D ( 'NONE', #668, #310, #301 ) ;
#900 = DIRECTION ( 'NONE',  ( 0.000000000000000000, 0.000000000000000000, -1.000000000000000000 ) ) ;
#901 = ORIENTED_EDGE ( 'NONE', *, *, #234, .T. ) ;
#902 = EDGE_CURVE ( 'NONE', #838, #33, #112, .T. ) ;
#903 = APPLICATION_CONTEXT ( 'automotive_design' ) ;
#904 = VERTEX_POINT ( 'NONE', #78 ) ;
#905 = CARTESIAN_POINT ( 'NONE',  ( -34.00000000000000000, -33.99999999999999289, 5.000000000000000000 ) ) ;
#906 = COLOUR_RGB ( '',0.7921568627450980005, 0.8196078431372548767, 0.9333333333333333481 ) ;
#907 = VERTEX_POINT ( 'NONE', #315 ) ;
#908 = CARTESIAN_POINT ( 'NONE',  ( -9.500000000000000000, -13.00000000000000000, 5.000000000000000000 ) ) ;
#909 = AXIS2_PLACEMENT_3D ( 'NONE', #12, #895, #593 ) ;
#910 = EDGE_CURVE ( 'NONE', #251, #654, #752, .T. ) ;
#911 = EDGE_CURVE ( 'NONE', #807, #28, #209, .T. ) ;
#912 = DIRECTION ( 'NONE',  ( 1.000000000000000000, 0.000000000000000000, 0.000000000000000000 ) ) ;
#913 = ORIENTED_EDGE ( 'NONE', *, *, #923, .T. ) ;
#914 = FACE_OUTER_BOUND ( 'NONE', #612, .T. ) ;
#915 = DIRECTION ( 'NONE',  ( -1.000000000000000000, 0.000000000000000000, 0.000000000000000000 ) ) ;
#916 = ORIENTED_EDGE ( 'NONE', *, *, #753, .F. ) ;
#917 = DIRECTION ( 'NONE',  ( 1.360567432138672574E-16, -1.000000000000000000, 0.000000000000000000 ) ) ;
#918 = CARTESIAN_POINT ( 'NONE',  ( 4.634443504523851232, 1.241795394404719310, 10.00000000000000000 ) ) ;
#919 = CARTESIAN_POINT ( 'NONE',  ( -16.00000000000000000, 28.00000000000000000, 0.000000000000000000 ) ) ;
#920 = ORIENTED_EDGE ( 'NONE', *, *, #851, .T. ) ;
#921 = EDGE_CURVE ( 'NONE', #299, #618, #224, .T. ) ;
#922 = LINE ( 'NONE', #29, #138 ) ;
#923 = EDGE_CURVE ( 'NONE', #399, #299, #875, .T. ) ;
#924 = DIRECTION ( 'NONE',  ( -0.000000000000000000, -0.000000000000000000, 1.000000000000000000 ) ) ;
#925 = AXIS2_PLACEMENT_3D ( 'NONE', #92, #900, #827 ) ;
#926 = AXIS2_PLACEMENT_3D ( 'NONE', #223, #742, #667 ) ;
#927 = AXIS2_PLACEMENT_3D ( 'NONE', #567, #326, #416 ) ;
#928 = CARTESIAN_POINT ( 'NONE',  ( -15.99999999999999289, -34.00000000000014211, 5.000000000000000000 ) ) ;
#929 = ORIENTED_EDGE ( 'NONE', *, *, #292, .F. ) ;
#930 = LINE ( 'NONE', #564, #477 ) ;
#931 = CARTESIAN_POINT ( 'NONE',  ( -14.39999999999993818, -34.00000000000014211, 5.000000000000000000 ) ) ;
#932 = AXIS2_PLACEMENT_3D ( 'NONE', #432, #291, #812 ) ;
#933 = ORIENTED_EDGE ( 'NONE', *, *, #831, .F. ) ;
#934 = LINE ( 'NONE', #175, #50 ) ;
#935 =( LENGTH_UNIT ( ) NAMED_UNIT ( * ) SI_UNIT ( .MILLI., .METRE. ) );
#936 = AXIS2_PLACEMENT_3D ( 'NONE', #581, #358, #571 ) ;
#937 = EDGE_CURVE ( 'NONE', #715, #548, #264, .T. ) ;
#938 = DIRECTION ( 'NONE',  ( 1.000000000000000000, 0.000000000000000000, 0.000000000000000000 ) ) ;
#939 = ORIENTED_EDGE ( 'NONE', *, *, #391, .T. ) ;
#940 = DIRECTION ( 'NONE',  ( 1.000000000000000000, 0.000000000000000000, 0.000000000000000000 ) ) ;
#941 = DIRECTION ( 'NONE',  ( 0.000000000000000000, -1.000000000000000000, 0.000000000000000000 ) ) ;
#942 = AXIS2_PLACEMENT_3D ( 'NONE', #969, #645, #518 ) ;
#943 = ADVANCED_FACE ( 'NONE', ( #394 ), #528, .F. ) ;
#944 = CYLINDRICAL_SURFACE ( 'NONE', #247, 3.000000000000000000 ) ;
#945 = EDGE_CURVE ( 'NONE', #129, #815, #235, .T. ) ;
#946 = VERTEX_POINT ( 'NONE', #17 ) ;
#947 = DIRECTION ( 'NONE',  ( 1.000000000000000000, 0.000000000000000000, 0.000000000000000000 ) ) ;
#948 = ORIENTED_EDGE ( 'NONE', *, *, #957, .T. ) ;
#949 = CYLINDRICAL_SURFACE ( 'NONE', #608, 3.000000000000002665 ) ;
#950 = ORIENTED_EDGE ( 'NONE', *, *, #446, .T. ) ;
#951 = FACE_OUTER_BOUND ( 'NONE', #139, .T. ) ;
#952 = EDGE_LOOP ( 'NONE', ( #3, #798, #415, #842 ) ) ;
#953 = DIRECTION ( 'NONE',  ( -1.000000000000000000, -0.000000000000000000, -0.000000000000000000 ) ) ;
#954 = CARTESIAN_POINT ( 'NONE',  ( -18.99999999999999289, -21.75735931288071612, 0.000000000000000000 ) ) ;
#955 = ORIENTED_EDGE ( 'NONE', *, *, #911, .F. ) ;
#956 = LINE ( 'NONE', #967, #122 ) ;
#957 = EDGE_CURVE ( 'NONE', #622, #523, #359, .T. ) ;
#958 = VERTEX_POINT ( 'NONE', #488 ) ;
#959 = LINE ( 'NONE', #48, #640 ) ;
#960 = DIRECTION ( 'NONE',  ( 1.000000000000000000, 0.000000000000000000, 0.000000000000000000 ) ) ;
#961 = VECTOR ( 'NONE', #685, 1000.000000000000000 ) ;
#962 = ORIENTED_EDGE ( 'NONE', *, *, #318, .F. ) ;
#963 = DIRECTION ( 'NONE',  ( 1.000000000000000000, 2.040851148208007752E-16, 0.000000000000000000 ) ) ;
#964 = EDGE_LOOP ( 'NONE', ( #120, #575, #322, #878 ) ) ;
#965 = DIRECTION ( 'NONE',  ( -1.000000000000000000, -2.040851148208007752E-16, -0.000000000000000000 ) ) ;
#966 = DIRECTION ( 'NONE',  ( 1.000000000000000000, 0.000000000000000000, 0.000000000000000000 ) ) ;
#967 = CARTESIAN_POINT ( 'NONE',  ( -37.00000000000000711, -37.00000000000000711, 0.000000000000000000 ) ) ;
#968 = ORIENTED_EDGE ( 'NONE', *, *, #772, .T. ) ;
#969 = CARTESIAN_POINT ( 'NONE',  ( 4.000000000000005329, -34.00000000000014211, 0.000000000000000000 ) ) ;
ENDSEC;
END-ISO-10303-21;
