ISO-10303-21;
HEADER;
FILE_DESCRIPTION (( 'STEP AP214' ),
    '1' );
FILE_NAME ('标准件-管夹A.STEP',
    '2026-08-16T17:26:55',
    ( '' ),
    ( '' ),
    'SwSTEP 2.0',
    'SolidWorks 2025',
    '' );
FILE_SCHEMA (( 'AUTOMOTIVE_DESIGN' ));
ENDSEC;

DATA;
#1 = CARTESIAN_POINT ( 'NONE',  ( -0.9216291199941163415, -9.958411348013227027, 3.800488023795302706 ) ) ;
#2 = CARTESIAN_POINT ( 'NONE',  ( 1.836970602850461554E-16, 10.00000000000000000, 3.499999999999999556 ) ) ;
#3 = EDGE_CURVE ( 'NONE', #81, #132, #308, .T. ) ;
#4 = CARTESIAN_POINT ( 'NONE',  ( 12.99999999999999822, -13.49999999999999822, 6.500000000000004441 ) ) ;
#5 = ORIENTED_EDGE ( 'NONE', *, *, #265, .F. ) ;
#6 = AXIS2_PLACEMENT_3D ( 'NONE', #502, #19, #217 ) ;
#7 = AXIS2_PLACEMENT_3D ( 'NONE', #634, #481, #47 ) ;
#8 = CARTESIAN_POINT ( 'NONE',  ( -1.423475363919560976, -9.898240103579915683, 5.483077494666715346 ) ) ;
#9 = DIRECTION ( 'NONE',  ( -0.000000000000000000, 1.000000000000000000, -0.000000000000000000 ) ) ;
#10 = EDGE_CURVE ( 'NONE', #96, #343, #63, .T. ) ;
#11 = AXIS2_PLACEMENT_3D ( 'NONE', #122, #419, #320 ) ;
#12 = CARTESIAN_POINT ( 'NONE',  ( -0.6650689912205611787, 9.978273856497141381, 3.651913571028583494 ) ) ;
#13 = CARTESIAN_POINT ( 'NONE',  ( 1.347390703094650366, 9.908884469275271556, 4.333505061123021918 ) ) ;
#14 = AXIS2_PLACEMENT_3D ( 'NONE', #193, #234, #523 ) ;
#15 = CYLINDRICAL_SURFACE ( 'NONE', #59, 1.500000000000000444 ) ;
#16 = FACE_OUTER_BOUND ( 'NONE', #267, .T. ) ;
#17 = AXIS2_PLACEMENT_3D ( 'NONE', #85, #149, #194 ) ;
#18 = EDGE_LOOP ( 'NONE', ( #436, #100, #426, #275 ) ) ;
#19 = DIRECTION ( 'NONE',  ( -0.000000000000000000, 0.000000000000000000, 1.000000000000000000 ) ) ;
#20 = VERTEX_POINT ( 'NONE', #157 ) ;
#21 = CARTESIAN_POINT ( 'NONE',  ( 0.000000000000000000, -13.49999999999999822, 6.500000000000000888 ) ) ;
#22 = CARTESIAN_POINT ( 'NONE',  ( 0.1984698108973663999, 9.999999999999994671, 6.499999999999996447 ) ) ;
#23 = ADVANCED_FACE ( 'NONE', ( #540 ), #58, .F. ) ;
#24 = DIRECTION ( 'NONE',  ( -0.000000000000000000, 1.000000000000000000, -0.000000000000000000 ) ) ;
#25 = DIRECTION ( 'NONE',  ( 0.000000000000000000, 1.000000000000000000, 0.000000000000000000 ) ) ;
#26 = CARTESIAN_POINT ( 'NONE',  ( 1.129146563294638472, 9.936290416516861512, 4.007737261321471678 ) ) ;
#27 = DIRECTION ( 'NONE',  ( 0.000000000000000000, 0.000000000000000000, 1.000000000000000000 ) ) ;
#28 = ORIENTED_EDGE ( 'NONE', *, *, #248, .T. ) ;
#29 = LINE ( 'NONE', #224, #291 ) ;
#30 = DIRECTION ( 'NONE',  ( 0.000000000000000000, 0.000000000000000000, -1.000000000000000000 ) ) ;
#31 = ORIENTED_EDGE ( 'NONE', *, *, #292, .T. ) ;
#32 = DIRECTION ( 'NONE',  ( -1.000000000000000000, -0.000000000000000000, -0.000000000000000000 ) ) ;
#33 = FACE_OUTER_BOUND ( 'NONE', #215, .T. ) ;
#34 = CARTESIAN_POINT ( 'NONE',  ( 0.6657031684408515337, -9.978231879593137066, 6.347777340426735471 ) ) ;
#35 = ORIENTED_EDGE ( 'NONE', *, *, #284, .T. ) ;
#36 = CARTESIAN_POINT ( 'NONE',  ( 0.000000000000000000, -13.49999999999999822, 5.000000000000000000 ) ) ;
#37 = AXIS2_PLACEMENT_3D ( 'NONE', #237, #477, #242 ) ;
#38 = CARTESIAN_POINT ( 'NONE',  ( -0.3934945893231877601, -9.993891274841788075, 3.539401747088769312 ) ) ;
#39 = ORIENTED_EDGE ( 'NONE', *, *, #608, .T. ) ;
#40 = DIRECTION ( 'NONE',  ( 0.000000000000000000, 1.000000000000000000, 0.000000000000000000 ) ) ;
#41 = PRODUCT ( '\X2\680751c64ef6\X0\-\X2\7ba15939\X0\A', '\X2\680751c64ef6\X0\-\X2\7ba15939\X0\A', '', ( #46 ) ) ;
#42 = ADVANCED_FACE ( 'NONE', ( #262 ), #451, .F. ) ;
#43 = CARTESIAN_POINT ( 'NONE',  ( -16.00000000000000000, 13.50000000000000178, 10.00000000000000000 ) ) ;
#44 = AXIS2_PLACEMENT_3D ( 'NONE', #36, #578, #152 ) ;
#45 = VERTEX_POINT ( 'NONE', #311 ) ;
#46 = PRODUCT_CONTEXT ( 'NONE', #97, 'mechanical' ) ;
#47 = DIRECTION ( 'NONE',  ( 0.000000000000000000, 0.000000000000000000, 1.000000000000000000 ) ) ;
#48 = CARTESIAN_POINT ( 'NONE',  ( 1.499926489347184200, -9.886871119422314891, 5.196540827249133798 ) ) ;
#49 = ORIENTED_EDGE ( 'NONE', *, *, #159, .T. ) ;
#50 = ORIENTED_EDGE ( 'NONE', *, *, #608, .F. ) ;
#51 = DIRECTION ( 'NONE',  ( -0.000000000000000000, 1.000000000000000000, -0.000000000000000000 ) ) ;
#52 = EDGE_CURVE ( 'NONE', #132, #204, #80, .T. ) ;
#53 = AXIS2_PLACEMENT_3D ( 'NONE', #447, #9, #207 ) ;
#54 = CARTESIAN_POINT ( 'NONE',  ( -1.499926489347184200, 9.886871119422314891, 5.196540827249133798 ) ) ;
#55 = EDGE_CURVE ( 'NONE', #20, #66, #462, .T. ) ;
#56 = CARTESIAN_POINT ( 'NONE',  ( 0.7545655108845731318, 9.973130486209880630, 3.688963715979811209 ) ) ;
#57 = CARTESIAN_POINT ( 'NONE',  ( -1.310570158301054056, 9.914039770776220450, 4.244275839564232378 ) ) ;
#58 = CYLINDRICAL_SURFACE ( 'NONE', #53, 1.500000000000000444 ) ;
#59 = AXIS2_PLACEMENT_3D ( 'NONE', #463, #603, #27 ) ;
#60 = AXIS2_PLACEMENT_3D ( 'NONE', #181, #316, #276 ) ;
#61 = CARTESIAN_POINT ( 'NONE',  ( -1.192465549249127177, -9.928798087179149690, 4.084795023981530271 ) ) ;
#62 = EDGE_CURVE ( 'NONE', #233, #96, #211, .T. ) ;
#63 = LINE ( 'NONE', #104, #541 ) ;
#64 = VECTOR ( 'NONE', #605, 1000.000000000000000 ) ;
#65 = CARTESIAN_POINT ( 'NONE',  ( 1.192465549249127177, 9.928798087179149690, 4.084795023981530271 ) ) ;
#66 = VERTEX_POINT ( 'NONE', #167 ) ;
#67 = PRODUCT_DEFINITION_CONTEXT ( 'detailed design', #409, 'design' ) ;
#68 = DIRECTION ( 'NONE',  ( 0.000000000000000000, -0.000000000000000000, 1.000000000000000000 ) ) ;
#69 = ORIENTED_EDGE ( 'NONE', *, *, #600, .F. ) ;
#70 = ADVANCED_FACE ( 'NONE', ( #617, #221 ), #165, .F. ) ;
#71 = AXIS2_PLACEMENT_3D ( 'NONE', #508, #137, #504 ) ;
#72 = DIRECTION ( 'NONE',  ( -1.000000000000000000, 0.000000000000000000, 0.000000000000000000 ) ) ;
#73 = ORIENTED_EDGE ( 'NONE', *, *, #10, .F. ) ;
#74 = SURFACE_SIDE_STYLE ('',( #624 ) ) ;
#75 = CIRCLE ( 'NONE', #593, 10.00000000000000000 ) ;
#76 = FACE_BOUND ( 'NONE', #329, .T. ) ;
#77 = ORIENTED_EDGE ( 'NONE', *, *, #400, .F. ) ;
#78 = CARTESIAN_POINT ( 'NONE',  ( 12.99999999999999822, -13.49999999999999822, 6.500000000000004441 ) ) ;
#79 = CARTESIAN_POINT ( 'NONE',  ( 1.452348343890160765, 9.893990814241144349, 5.387631242035235246 ) ) ;
#80 = LINE ( 'NONE', #226, #138 ) ;
#81 = VERTEX_POINT ( 'NONE', #565 ) ;
#82 = CARTESIAN_POINT ( 'NONE',  ( -13.00000000000000178, -13.49999999999999822, 6.500000000000004441 ) ) ;
#83 = EDGE_LOOP ( 'NONE', ( #195, #332 ) ) ;
#84 = LINE ( 'NONE', #230, #172 ) ;
#85 = CARTESIAN_POINT ( 'NONE',  ( 0.000000000000000000, 0.000000000000000000, 10.00000000000000000 ) ) ;
#86 = ORIENTED_EDGE ( 'NONE', *, *, #351, .F. ) ;
#87 = CARTESIAN_POINT ( 'NONE',  ( 1.423496657440179280, -9.898237315065097519, 4.516951811016191698 ) ) ;
#88 = ORIENTED_EDGE ( 'NONE', *, *, #159, .F. ) ;
#89 = DIRECTION ( 'NONE',  ( 1.000000000000000000, 0.000000000000000000, 0.000000000000000000 ) ) ;
#90 = CARTESIAN_POINT ( 'NONE',  ( 12.99999999999999822, 13.50000000000000178, 5.000000000000003553 ) ) ;
#91 = VECTOR ( 'NONE', #570, 1000.000000000000000 ) ;
#92 = CARTESIAN_POINT ( 'NONE',  ( 0.6650689912205611787, -9.978273856497141381, 3.651913571028583494 ) ) ;
#93 = ORIENTED_EDGE ( 'NONE', *, *, #3, .F. ) ;
#94 = CARTESIAN_POINT ( 'NONE',  ( 0.000000000000000000, 0.000000000000000000, 10.00000000000000000 ) ) ;
#95 = CARTESIAN_POINT ( 'NONE',  ( -16.00000000000000000, 13.50000000000000178, 0.000000000000000000 ) ) ;
#96 = VERTEX_POINT ( 'NONE', #498 ) ;
#97 = APPLICATION_CONTEXT ( 'automotive_design' ) ;
#98 = DIRECTION ( 'NONE',  ( 0.000000000000000000, -1.000000000000000000, 0.000000000000000000 ) ) ;
#99 = EDGE_CURVE ( 'NONE', #255, #183, #128, .T. ) ;
#100 = ORIENTED_EDGE ( 'NONE', *, *, #529, .F. ) ;
#101 = APPLICATION_PROTOCOL_DEFINITION ( 'draft international standard', 'automotive_design', 1998, #409 ) ;
#102 = CARTESIAN_POINT ( 'NONE',  ( -1.193537268693812381, -9.928669328050931497, 5.913827516338128198 ) ) ;
#103 = ADVANCED_FACE ( 'NONE', ( #506 ), #418, .F. ) ;
#104 = CARTESIAN_POINT ( 'NONE',  ( -16.00000000000000000, -13.49999999999999822, 0.000000000000000000 ) ) ;
#105 = CARTESIAN_POINT ( 'NONE',  ( -13.00000000000000178, -13.49999999999999822, 3.500000000000002665 ) ) ;
#106 = AXIS2_PLACEMENT_3D ( 'NONE', #534, #98, #30 ) ;
#107 = CARTESIAN_POINT ( 'NONE',  ( -0.7518115654424942784, 9.972034134475194378, 6.301684201733149138 ) ) ;
#108 = FACE_BOUND ( 'NONE', #467, .T. ) ;
#109 = ORIENTED_EDGE ( 'NONE', *, *, #302, .T. ) ;
#110 = ADVANCED_FACE ( 'NONE', ( #76, #455, #169, #328 ), #368, .F. ) ;
#111 = CARTESIAN_POINT ( 'NONE',  ( 9.765481406131334631E-18, -10.00000000000000000, 6.500000000000000888 ) ) ;
#112 = ORIENTED_EDGE ( 'NONE', *, *, #518, .F. ) ;
#113 = ADVANCED_FACE ( 'NONE', ( #16 ), #174, .F. ) ;
#114 = EDGE_LOOP ( 'NONE', ( #503, #73, #252, #382 ) ) ;
#115 = CARTESIAN_POINT ( 'NONE',  ( 12.99999999999999822, -13.49999999999999822, 5.000000000000003553 ) ) ;
#116 = CARTESIAN_POINT ( 'NONE',  ( 1.490397534315932582, 9.888330755693488072, 5.195675449423946546 ) ) ;
#117 = CARTESIAN_POINT ( 'NONE',  ( 1.836970198721029934E-16, -13.49999999999999822, 3.499999999999999556 ) ) ;
#118 = VERTEX_POINT ( 'NONE', #266 ) ;
#119 = CARTESIAN_POINT ( 'NONE',  ( 1.130378965574145189, 9.936149080430693559, 5.990847190085795582 ) ) ;
#120 = PLANE ( 'NONE',  #6 ) ;
#121 = EDGE_LOOP ( 'NONE', ( #486, #86, #31, #395 ) ) ;
#122 = CARTESIAN_POINT ( 'NONE',  ( 0.000000000000000000, -13.49999999999999822, 5.000000000000000000 ) ) ;
#123 = CIRCLE ( 'NONE', #500, 1.500000000000000444 ) ;
#124 = FACE_BOUND ( 'NONE', #154, .T. ) ;
#125 = LINE ( 'NONE', #133, #64 ) ;
#126 = AXIS2_PLACEMENT_3D ( 'NONE', #609, #228, #216 ) ;
#127 = CARTESIAN_POINT ( 'NONE',  ( 1.423475363919560976, 9.898240103579915683, 5.483077494666715346 ) ) ;
#128 = LINE ( 'NONE', #82, #516 ) ;
#129 = ORIENTED_EDGE ( 'NONE', *, *, #62, .F. ) ;
#130 = DIRECTION ( 'NONE',  ( -0.000000000000000000, -0.000000000000000000, -1.000000000000000000 ) ) ;
#131 = CARTESIAN_POINT ( 'NONE',  ( 0.000000000000000000, -13.49999999999999822, 5.000000000000000000 ) ) ;
#132 = VERTEX_POINT ( 'NONE', #278 ) ;
#133 = CARTESIAN_POINT ( 'NONE',  ( -16.00000000000000000, 13.50000000000000178, 10.00000000000000000 ) ) ;
#134 = DIRECTION ( 'NONE',  ( 0.000000000000000000, -1.000000000000000000, 0.000000000000000000 ) ) ;
#135 = CARTESIAN_POINT ( 'NONE',  ( 0.7518115654424942784, -9.972034134475194378, 6.301684201733149138 ) ) ;
#136 = VERTEX_POINT ( 'NONE', #117 ) ;
#137 = DIRECTION ( 'NONE',  ( -0.000000000000000000, 1.000000000000000000, -0.000000000000000000 ) ) ;
#138 = VECTOR ( 'NONE', #272, 1000.000000000000000 ) ;
#139 = AXIS2_PLACEMENT_3D ( 'NONE', #443, #440, #448 ) ;
#140 = CARTESIAN_POINT ( 'NONE',  ( -0.1958894936501431594, -10.00000000000000000, 3.499999999999998668 ) ) ;
#141 = EDGE_LOOP ( 'NONE', ( #69, #507 ) ) ;
#142 = CARTESIAN_POINT ( 'NONE',  ( 1.310739724458786837, -9.914013899745091507, 5.755067464949958023 ) ) ;
#143 = ORIENTED_EDGE ( 'NONE', *, *, #548, .T. ) ;
#144 = DIRECTION ( 'NONE',  ( 0.000000000000000000, 0.000000000000000000, 1.000000000000000000 ) ) ;
#145 = AXIS2_PLACEMENT_3D ( 'NONE', #214, #314, #411 ) ;
#146 = CARTESIAN_POINT ( 'NONE',  ( 1.451875317899896434, -9.894060554880324432, 4.610526491991887355 ) ) ;
#147 = EDGE_LOOP ( 'NONE', ( #50, #163, #496, #563 ) ) ;
#148 = LINE ( 'NONE', #642, #346 ) ;
#149 = DIRECTION ( 'NONE',  ( 0.000000000000000000, 0.000000000000000000, 1.000000000000000000 ) ) ;
#150 = ORIENTED_EDGE ( 'NONE', *, *, #302, .F. ) ;
#151 = CARTESIAN_POINT ( 'NONE',  ( -0.3900199438764312410, 9.992855410637274005, 3.548269711394940185 ) ) ;
#152 = DIRECTION ( 'NONE',  ( 0.000000000000000000, 0.000000000000000000, 1.000000000000000000 ) ) ;
#153 = DIRECTION ( 'NONE',  ( -0.000000000000000000, 1.000000000000000000, -0.000000000000000000 ) ) ;
#154 = EDGE_LOOP ( 'NONE', ( #223, #28 ) ) ;
#155 = B_SPLINE_CURVE_WITH_KNOTS ( 'NONE', 3,
 ( #572, #140, #38, #238, #1, #350, #61, #306, #585, #161, #544, #394, #257, #261, #8, #206, #254, #102, #594, #546, #597, #437, #643, #111 ),
 .UNSPECIFIED., .F., .F.,
 ( 4, 2, 2, 2, 2, 2, 2, 2, 2, 2, 2, 4 ),
 ( 0.004696312007650802096, 0.005283207051719045547, 0.005870102095787288997, 0.006163549617821410288, 0.006456997139855531580, 0.007043892183923771561, 0.007337339705957891117, 0.007630787227992010674, 0.007924234750026130231, 0.008217682272060248053, 0.008804577316128487166, 0.009391472360196724545 ),
 .UNSPECIFIED. ) ;
#156 = CYLINDRICAL_SURFACE ( 'NONE', #139, 10.00000000000000000 ) ;
#157 = CARTESIAN_POINT ( 'NONE',  ( 12.99999999999999822, -13.49999999999999822, 3.500000000000002665 ) ) ;
#158 = CIRCLE ( 'NONE', #432, 1.500000000000000444 ) ;
#159 = EDGE_CURVE ( 'NONE', #118, #499, #640, .T. ) ;
#160 = CARTESIAN_POINT ( 'NONE',  ( -1.310739724458786837, 9.914013899745091507, 5.755067464949958023 ) ) ;
#161 = CARTESIAN_POINT ( 'NONE',  ( -1.460648237408602279, -9.893043983298429822, 4.606025929922910045 ) ) ;
#162 = B_SPLINE_CURVE_WITH_KNOTS ( 'NONE', 3,
 ( #337, #429, #282, #579, #521, #34, #135, #190, #622, #232, #142, #182, #48, #423, #377, #146, #87, #247, #576, #383, #285, #525, #92, #289, #435, #478, #582, #466 ),
 .UNSPECIFIED., .F., .F.,
 ( 4, 2, 2, 2, 2, 2, 2, 2, 2, 2, 2, 2, 2, 4 ),
 ( 9.488184490394106835E-21, 0.0002935195004781741552, 0.0005870390009563483105, 0.0008805585014345225199, 0.001174078001912696621, 0.001761117002869046775, 0.002348156003825397579, 0.002641675504303574173, 0.002935195004781750768, 0.003522234005738100922, 0.003815753506216276649, 0.004109273006694451509, 0.004402792507172626803, 0.004696312007650802096 ),
 .UNSPECIFIED. ) ;
#163 = ORIENTED_EDGE ( 'NONE', *, *, #363, .T. ) ;
#164 = ADVANCED_FACE ( 'NONE', ( #370 ), #15, .F. ) ;
#165 = CYLINDRICAL_SURFACE ( 'NONE', #551, 10.00000000000000000 ) ;
#166 = DIRECTION ( 'NONE',  ( -0.000000000000000000, 1.000000000000000000, -0.000000000000000000 ) ) ;
#167 = CARTESIAN_POINT ( 'NONE',  ( 12.99999999999999822, 13.50000000000000178, 3.500000000000002665 ) ) ;
#168 = PRESENTATION_STYLE_ASSIGNMENT (( #325 ) ) ;
#169 = FACE_BOUND ( 'NONE', #227, .T. ) ;
#170 = VERTEX_POINT ( 'NONE', #362 ) ;
#171 = DIRECTION ( 'NONE',  ( 0.000000000000000000, -1.000000000000000000, 0.000000000000000000 ) ) ;
#172 = VECTOR ( 'NONE', #130, 1000.000000000000000 ) ;
#173 = DIRECTION ( 'NONE',  ( -1.000000000000000000, -0.000000000000000000, -0.000000000000000000 ) ) ;
#174 = CYLINDRICAL_SURFACE ( 'NONE', #388, 1.500000000000000444 ) ;
#175 = ORIENTED_EDGE ( 'NONE', *, *, #10, .T. ) ;
#176 = CARTESIAN_POINT ( 'NONE',  ( 16.00000000000000000, -13.49999999999999822, 10.00000000000000000 ) ) ;
#177 = ADVANCED_FACE ( 'NONE', ( #558, #555 ), #120, .F. ) ;
#178 = B_SPLINE_CURVE_WITH_KNOTS ( 'NONE', 3,
 ( #539, #491, #591, #56, #303, #26, #65, #453, #13, #410, #322, #602, #116, #79, #127, #405, #210, #366, #119, #461, #501, #606, #22, #220 ),
 .UNSPECIFIED., .F., .F.,
 ( 4, 2, 2, 2, 2, 2, 2, 2, 2, 2, 2, 4 ),
 ( 0.004696312007650802096, 0.005283207051719045547, 0.005870102095787288997, 0.006163549617821410288, 0.006456997139855531580, 0.007043892183923771561, 0.007337339705957891117, 0.007630787227992010674, 0.007924234750026130231, 0.008217682272060248053, 0.008804577316128487166, 0.009391472360196724545 ),
 .UNSPECIFIED. ) ;
#179 = CIRCLE ( 'NONE', #616, 1.500000000000000444 ) ;
#180 = CARTESIAN_POINT ( 'NONE',  ( -16.00000000000000000, -13.49999999999999822, 10.00000000000000000 ) ) ;
#181 = CARTESIAN_POINT ( 'NONE',  ( -13.00000000000000178, 13.50000000000000178, 5.000000000000003553 ) ) ;
#182 = CARTESIAN_POINT ( 'NONE',  ( 1.460414081534252118, -9.893073381920791221, 5.394152524229792078 ) ) ;
#183 = VERTEX_POINT ( 'NONE', #414 ) ;
#184 = CARTESIAN_POINT ( 'NONE',  ( 12.99999999999999822, -13.49999999999999822, 5.000000000000003553 ) ) ;
#185 = ADVANCED_FACE ( 'NONE', ( #607, #124, #318, #631 ), #379, .F. ) ;
#186 = DIRECTION ( 'NONE',  ( -0.000000000000000000, 1.000000000000000000, -0.000000000000000000 ) ) ;
#187 = VERTEX_POINT ( 'NONE', #95 ) ;
#188 = FACE_OUTER_BOUND ( 'NONE', #336, .T. ) ;
#189 = CLOSED_SHELL ( 'NONE', ( #23, #376, #626, #164, #70, #345, #177, #42, #185, #231, #110, #279, #567, #103, #404, #113 ) ) ;
#190 = CARTESIAN_POINT ( 'NONE',  ( 0.9147715270971269463, -9.958407426003619278, 6.192809894403609405 ) ) ;
#191 = PRODUCT_RELATED_PRODUCT_CATEGORY ( 'part', '', ( #41 ) ) ;
#192 = ORIENTED_EDGE ( 'NONE', *, *, #497, .T. ) ;
#193 = CARTESIAN_POINT ( 'NONE',  ( 0.000000000000000000, 0.000000000000000000, 0.000000000000000000 ) ) ;
#194 = DIRECTION ( 'NONE',  ( 1.000000000000000000, 0.000000000000000000, 0.000000000000000000 ) ) ;
#195 = ORIENTED_EDGE ( 'NONE', *, *, #201, .F. ) ;
#196 = DIRECTION ( 'NONE',  ( -0.000000000000000000, 1.000000000000000000, -0.000000000000000000 ) ) ;
#197 = AXIS2_PLACEMENT_3D ( 'NONE', #514, #613, #68 ) ;
#198 = DIRECTION ( 'NONE',  ( 0.000000000000000000, -1.000000000000000000, 0.000000000000000000 ) ) ;
#199 = ORIENTED_EDGE ( 'NONE', *, *, #99, .T. ) ;
#200 = DIRECTION ( 'NONE',  ( -0.000000000000000000, -0.000000000000000000, -1.000000000000000000 ) ) ;
#201 = EDGE_CURVE ( 'NONE', #492, #45, #162, .T. ) ;
#202 = CARTESIAN_POINT ( 'NONE',  ( -1.200498128814314835, 9.928673992045386143, 4.079190996221006671 ) ) ;
#203 = CARTESIAN_POINT ( 'NONE',  ( -10.00000000000000000, 0.000000000000000000, 10.00000000000000000 ) ) ;
#204 = VERTEX_POINT ( 'NONE', #639 ) ;
#205 = CARTESIAN_POINT ( 'NONE',  ( -0.9908163545276094109, 9.951041337518493179, 3.869489409035721916 ) ) ;
#206 = CARTESIAN_POINT ( 'NONE',  ( -1.348332419750692290, -9.908755670903026669, 5.664564265807783272 ) ) ;
#207 = DIRECTION ( 'NONE',  ( 0.000000000000000000, 0.000000000000000000, 1.000000000000000000 ) ) ;
#208 = VECTOR ( 'NONE', #51, 1000.000000000000000 ) ;
#209 = CARTESIAN_POINT ( 'NONE',  ( -0.1968318584765915424, 9.998523555244805294, 6.490244986032445595 ) ) ;
#210 = CARTESIAN_POINT ( 'NONE',  ( 1.302331136844570025, 9.914985599966621876, 5.750696710651462595 ) ) ;
#211 = LINE ( 'NONE', #180, #488 ) ;
#212 = EDGE_CURVE ( 'NONE', #183, #170, #258, .T. ) ;
#213 = CIRCLE ( 'NONE', #299, 1.500000000000000444 ) ;
#214 = CARTESIAN_POINT ( 'NONE',  ( 0.000000000000000000, 0.000000000000000000, 0.000000000000000000 ) ) ;
#215 = EDGE_LOOP ( 'NONE', ( #614, #218, #249, #109 ) ) ;
#216 = DIRECTION ( 'NONE',  ( 1.000000000000000000, 0.000000000000000000, 0.000000000000000000 ) ) ;
#217 = DIRECTION ( 'NONE',  ( 1.000000000000000000, 0.000000000000000000, 0.000000000000000000 ) ) ;
#218 = ORIENTED_EDGE ( 'NONE', *, *, #494, .T. ) ;
#219 = DIRECTION ( 'NONE',  ( 0.000000000000000000, 0.000000000000000000, 1.000000000000000000 ) ) ;
#220 = CARTESIAN_POINT ( 'NONE',  ( -9.765481406131334631E-18, 10.00000000000000000, 6.500000000000000888 ) ) ;
#221 = FACE_OUTER_BOUND ( 'NONE', #324, .T. ) ;
#222 = EDGE_CURVE ( 'NONE', #136, #45, #331, .T. ) ;
#223 = ORIENTED_EDGE ( 'NONE', *, *, #340, .T. ) ;
#224 = CARTESIAN_POINT ( 'NONE',  ( -16.00000000000000000, 13.50000000000000178, 10.00000000000000000 ) ) ;
#225 = AXIS2_PLACEMENT_3D ( 'NONE', #473, #198, #244 ) ;
#226 = CARTESIAN_POINT ( 'NONE',  ( 1.836970198721030181E-16, -13.49999999999999822, 3.499999999999999556 ) ) ;
#227 = EDGE_LOOP ( 'NONE', ( #245, #387 ) ) ;
#228 = DIRECTION ( 'NONE',  ( 0.000000000000000000, 0.000000000000000000, 1.000000000000000000 ) ) ;
#229 = LINE ( 'NONE', #335, #457 ) ;
#230 = CARTESIAN_POINT ( 'NONE',  ( 16.00000000000000000, 13.50000000000000178, 10.00000000000000000 ) ) ;
#231 = ADVANCED_FACE ( 'NONE', ( #469 ), #568, .F. ) ;
#232 = CARTESIAN_POINT ( 'NONE',  ( 1.199035717947090296, -9.928827469060996336, 5.922224770760994517 ) ) ;
#233 = VERTEX_POINT ( 'NONE', #389 ) ;
#234 = DIRECTION ( 'NONE',  ( 0.000000000000000000, 0.000000000000000000, 1.000000000000000000 ) ) ;
#235 = CIRCLE ( 'NONE', #7, 1.500000000000000444 ) ;
#236 = EDGE_CURVE ( 'NONE', #554, #574, #381, .T. ) ;
#237 = CARTESIAN_POINT ( 'NONE',  ( 0.000000000000000000, 0.000000000000000000, 10.00000000000000000 ) ) ;
#238 = CARTESIAN_POINT ( 'NONE',  ( -0.7545655108845731318, -9.973130486209880630, 3.688963715979811209 ) ) ;
#239 = ORIENTED_EDGE ( 'NONE', *, *, #636, .T. ) ;
#240 = CARTESIAN_POINT ( 'NONE',  ( 16.00000000000000000, 13.50000000000000178, 10.00000000000000000 ) ) ;
#241 = ADVANCED_BREP_SHAPE_REPRESENTATION ( '\X2\680751c64ef6\X0\-\X2\7ba15939\X0\A', ( #490, #14 ), #625 ) ;
#242 = DIRECTION ( 'NONE',  ( 1.000000000000000000, 0.000000000000000000, 0.000000000000000000 ) ) ;
#243 = CIRCLE ( 'NONE', #11, 1.500000000000000444 ) ;
#244 = DIRECTION ( 'NONE',  ( 0.000000000000000000, 0.000000000000000000, -1.000000000000000000 ) ) ;
#245 = ORIENTED_EDGE ( 'NONE', *, *, #543, .T. ) ;
#246 = SHAPE_DEFINITION_REPRESENTATION ( #393, #241 ) ;
#247 = CARTESIAN_POINT ( 'NONE',  ( 1.310570158301054056, -9.914039770776220450, 4.244275839564232378 ) ) ;
#248 = EDGE_CURVE ( 'NONE', #66, #371, #213, .T. ) ;
#249 = ORIENTED_EDGE ( 'NONE', *, *, #509, .T. ) ;
#250 =( LENGTH_UNIT ( ) NAMED_UNIT ( * ) SI_UNIT ( .MILLI., .METRE. ) );
#251 = CARTESIAN_POINT ( 'NONE',  ( -16.00000000000000000, -13.49999999999999822, 10.00000000000000000 ) ) ;
#252 = ORIENTED_EDGE ( 'NONE', *, *, #472, .F. ) ;
#253 = CARTESIAN_POINT ( 'NONE',  ( -10.00000000000000000, 0.000000000000000000, 10.00000000000000000 ) ) ;
#254 = CARTESIAN_POINT ( 'NONE',  ( -1.302331136844570025, -9.914985599966621876, 5.750696710651462595 ) ) ;
#255 = VERTEX_POINT ( 'NONE', #628 ) ;
#256 = CARTESIAN_POINT ( 'NONE',  ( -0.1974913894783137946, 9.998513487794367549, 3.509820970971396115 ) ) ;
#257 = CARTESIAN_POINT ( 'NONE',  ( -1.490397534315932582, -9.888330755693488072, 5.195675449423946546 ) ) ;
#258 = CIRCLE ( 'NONE', #225, 1.500000000000000444 ) ;
#259 = STYLED_ITEM ( 'NONE', ( #168 ), #490 ) ;
#260 = CARTESIAN_POINT ( 'NONE',  ( -0.6657031684408515337, 9.978231879593137066, 6.347777340426735471 ) ) ;
#261 = CARTESIAN_POINT ( 'NONE',  ( -1.452348343890160765, -9.893990814241144349, 5.387631242035235246 ) ) ;
#262 = FACE_OUTER_BOUND ( 'NONE', #369, .T. ) ;
#263 = EDGE_CURVE ( 'NONE', #204, #364, #489, .T. ) ;
#264 = CARTESIAN_POINT ( 'NONE',  ( -0.4841012862849221055, 9.988689508439945186, 6.423134010716221809 ) ) ;
#265 = EDGE_CURVE ( 'NONE', #545, #637, #229, .T. ) ;
#266 = CARTESIAN_POINT ( 'NONE',  ( 10.00000000000000000, 1.224646799147353256E-15, 0.000000000000000000 ) ) ;
#267 = EDGE_LOOP ( 'NONE', ( #566, #632, #199, #629 ) ) ;
#268 = DIRECTION ( 'NONE',  ( -0.000000000000000000, -0.000000000000000000, -1.000000000000000000 ) ) ;
#269 = ORIENTED_EDGE ( 'NONE', *, *, #201, .T. ) ;
#270 = FACE_OUTER_BOUND ( 'NONE', #121, .T. ) ;
#271 = EDGE_CURVE ( 'NONE', #45, #492, #155, .T. ) ;
#272 = DIRECTION ( 'NONE',  ( -0.000000000000000000, 1.000000000000000000, -0.000000000000000000 ) ) ;
#273 = FILL_AREA_STYLE_COLOUR ( '', #315 ) ;
#274 = DIRECTION ( 'NONE',  ( -0.000000000000000000, 1.000000000000000000, -0.000000000000000000 ) ) ;
#275 = ORIENTED_EDGE ( 'NONE', *, *, #464, .T. ) ;
#276 = DIRECTION ( 'NONE',  ( 0.000000000000000000, 0.000000000000000000, -1.000000000000000000 ) ) ;
#277 = AXIS2_PLACEMENT_3D ( 'NONE', #131, #361, #553 ) ;
#278 = CARTESIAN_POINT ( 'NONE',  ( 1.836970602850461554E-16, 10.00000000000000000, 3.499999999999999556 ) ) ;
#279 = ADVANCED_FACE ( 'NONE', ( #359, #108 ), #156, .F. ) ;
#280 = VERTEX_POINT ( 'NONE', #588 ) ;
#281 =( NAMED_UNIT ( * ) PLANE_ANGLE_UNIT ( ) SI_UNIT ( $, .RADIAN. ) );
#282 = CARTESIAN_POINT ( 'NONE',  ( 0.1968318584765915424, -9.998523555244805294, 6.490244986032445595 ) ) ;
#283 = ORIENTED_EDGE ( 'NONE', *, *, #52, .F. ) ;
#284 = EDGE_CURVE ( 'NONE', #255, #641, #542, .T. ) ;
#285 = CARTESIAN_POINT ( 'NONE',  ( 0.9151926497573537045, -9.958366194997156029, 3.807540546804799142 ) ) ;
#286 = ORIENTED_EDGE ( 'NONE', *, *, #340, .F. ) ;
#287 = CARTESIAN_POINT ( 'NONE',  ( -13.00000000000000178, -13.49999999999999822, 5.000000000000003553 ) ) ;
#288 = CIRCLE ( 'NONE', #60, 1.500000000000000444 ) ;
#289 = CARTESIAN_POINT ( 'NONE',  ( 0.4835349122184677273, -9.988716629627816701, 3.576677207473328846 ) ) ;
#290 = ORIENTED_EDGE ( 'NONE', *, *, #596, .F. ) ;
#291 = VECTOR ( 'NONE', #460, 1000.000000000000000 ) ;
#292 = EDGE_CURVE ( 'NONE', #526, #371, #485, .T. ) ;
#293 = DIRECTION ( 'NONE',  ( -0.000000000000000000, 0.000000000000000000, -1.000000000000000000 ) ) ;
#294 = ORIENTED_EDGE ( 'NONE', *, *, #3, .T. ) ;
#295 = DIRECTION ( 'NONE',  ( -0.000000000000000000, -0.000000000000000000, -1.000000000000000000 ) ) ;
#296 = DIRECTION ( 'NONE',  ( 0.000000000000000000, 0.000000000000000000, 1.000000000000000000 ) ) ;
#297 = EDGE_LOOP ( 'NONE', ( #577, #192 ) ) ;
#298 = CARTESIAN_POINT ( 'NONE',  ( 16.00000000000000000, 13.50000000000000178, 10.00000000000000000 ) ) ;
#299 = AXIS2_PLACEMENT_3D ( 'NONE', #347, #425, #386 ) ;
#300 = DIRECTION ( 'NONE',  ( 0.000000000000000000, 1.000000000000000000, 0.000000000000000000 ) ) ;
#301 = ORIENTED_EDGE ( 'NONE', *, *, #573, .F. ) ;
#302 = EDGE_CURVE ( 'NONE', #233, #545, #355, .T. ) ;
#303 = CARTESIAN_POINT ( 'NONE',  ( 0.9216291199941163415, 9.958411348013227027, 3.800488023795302706 ) ) ;
#304 = ORIENTED_EDGE ( 'NONE', *, *, #472, .T. ) ;
#305 = CARTESIAN_POINT ( 'NONE',  ( 0.000000000000000000, 13.50000000000000178, 6.500000000000000888 ) ) ;
#306 = CARTESIAN_POINT ( 'NONE',  ( -1.301255550999845800, -9.915126803682866807, 4.247465465731252721 ) ) ;
#307 = CARTESIAN_POINT ( 'NONE',  ( -1.500036597496301694, 9.886854414198168683, 4.902572341057561900 ) ) ;
#308 = B_SPLINE_CURVE_WITH_KNOTS ( 'NONE', 3,
 ( #441, #599, #209, #487, #264, #260, #107, #595, #550, #358, #160, #589, #54, #307, #495, #454, #444, #57, #202, #205, #391, #547, #12, #586, #151, #256, #537, #2 ),
 .UNSPECIFIED., .F., .F.,
 ( 4, 2, 2, 2, 2, 2, 2, 2, 2, 2, 2, 2, 2, 4 ),
 ( 9.488184490394106835E-21, 0.0002935195004781741552, 0.0005870390009563483105, 0.0008805585014345225199, 0.001174078001912696621, 0.001761117002869046775, 0.002348156003825397579, 0.002641675504303574173, 0.002935195004781750768, 0.003522234005738100922, 0.003815753506216276649, 0.004109273006694451509, 0.004402792507172626803, 0.004696312007650802096 ),
 .UNSPECIFIED. ) ;
#309 = CARTESIAN_POINT ( 'NONE',  ( -13.00000000000000178, -13.49999999999999822, 3.500000000000003109 ) ) ;
#310 = ORIENTED_EDGE ( 'NONE', *, *, #222, .F. ) ;
#311 = CARTESIAN_POINT ( 'NONE',  ( 1.836969794591466673E-16, -10.00000000000000000, 3.499999999999999556 ) ) ;
#312 = ORIENTED_EDGE ( 'NONE', *, *, #222, .T. ) ;
#313 = FACE_OUTER_BOUND ( 'NONE', #474, .T. ) ;
#314 = DIRECTION ( 'NONE',  ( 0.000000000000000000, 0.000000000000000000, 1.000000000000000000 ) ) ;
#315 = COLOUR_RGB ( '',0.7921568627450980005, 0.8196078431372548767, 0.9333333333333333481 ) ;
#316 = DIRECTION ( 'NONE',  ( 0.000000000000000000, -1.000000000000000000, 0.000000000000000000 ) ) ;
#317 = EDGE_CURVE ( 'NONE', #132, #81, #178, .T. ) ;
#318 = FACE_BOUND ( 'NONE', #535, .T. ) ;
#319 = EDGE_LOOP ( 'NONE', ( #304, #129, #421, #438 ) ) ;
#320 = DIRECTION ( 'NONE',  ( 0.000000000000000000, 0.000000000000000000, 1.000000000000000000 ) ) ;
#321 = CIRCLE ( 'NONE', #44, 1.500000000000000444 ) ;
#322 = CARTESIAN_POINT ( 'NONE',  ( 1.499870159304497630, 9.886879665616936208, 4.800755658896304290 ) ) ;
#323 = DIRECTION ( 'NONE',  ( -1.000000000000000000, 0.000000000000000000, 0.000000000000000000 ) ) ;
#324 = EDGE_LOOP ( 'NONE', ( #604, #424, #112, #511 ) ) ;
#325 = SURFACE_STYLE_USAGE ( .BOTH. , #74 ) ;
#326 = AXIS2_PLACEMENT_3D ( 'NONE', #353, #633, #538 ) ;
#327 = EDGE_CURVE ( 'NONE', #618, #187, #417, .T. ) ;
#328 = FACE_OUTER_BOUND ( 'NONE', #348, .T. ) ;
#329 = EDGE_LOOP ( 'NONE', ( #35, #39 ) ) ;
#330 = LINE ( 'NONE', #21, #557 ) ;
#331 = LINE ( 'NONE', #342, #445 ) ;
#332 = ORIENTED_EDGE ( 'NONE', *, *, #271, .F. ) ;
#333 = LINE ( 'NONE', #375, #527 ) ;
#334 = CARTESIAN_POINT ( 'NONE',  ( 16.00000000000000000, -13.49999999999999822, 0.000000000000000000 ) ) ;
#335 = CARTESIAN_POINT ( 'NONE',  ( 16.00000000000000000, 13.50000000000000178, 10.00000000000000000 ) ) ;
#336 = EDGE_LOOP ( 'NONE', ( #378, #312, #522, #357 ) ) ;
#337 = CARTESIAN_POINT ( 'NONE',  ( 9.765481406131334631E-18, -10.00000000000000000, 6.500000000000000888 ) ) ;
#338 = EDGE_LOOP ( 'NONE', ( #470, #580 ) ) ;
#339 = DIRECTION ( 'NONE',  ( 0.000000000000000000, 0.000000000000000000, 1.000000000000000000 ) ) ;
#340 = EDGE_CURVE ( 'NONE', #371, #66, #123, .T. ) ;
#341 = AXIS2_PLACEMENT_3D ( 'NONE', #549, #300, #296 ) ;
#342 = CARTESIAN_POINT ( 'NONE',  ( 1.836970198721030181E-16, -13.49999999999999822, 3.499999999999999556 ) ) ;
#343 = VERTEX_POINT ( 'NONE', #334 ) ;
#344 = LINE ( 'NONE', #584, #533 ) ;
#345 = ADVANCED_FACE ( 'NONE', ( #33, #627 ), #621, .T. ) ;
#346 = VECTOR ( 'NONE', #200, 1000.000000000000000 ) ;
#347 = CARTESIAN_POINT ( 'NONE',  ( 12.99999999999999822, 13.50000000000000178, 5.000000000000003553 ) ) ;
#348 = EDGE_LOOP ( 'NONE', ( #175, #290, #150, #519 ) ) ;
#349 =( NAMED_UNIT ( * ) PLANE_ANGLE_UNIT ( ) SI_UNIT ( $, .RADIAN. ) );
#350 = CARTESIAN_POINT ( 'NONE',  ( -1.129146563294638472, -9.936290416516861512, 4.007737261321471678 ) ) ;
#351 = EDGE_CURVE ( 'NONE', #526, #20, #235, .T. ) ;
#352 = EDGE_LOOP ( 'NONE', ( #569, #49 ) ) ;
#353 = CARTESIAN_POINT ( 'NONE',  ( 0.000000000000000000, 13.50000000000000178, 5.000000000000000000 ) ) ;
#354 = PRESENTATION_LAYER_ASSIGNMENT (  '', '', ( #259 ) ) ;
#355 = LINE ( 'NONE', #251, #396 ) ;
#356 = DIRECTION ( 'NONE',  ( 1.000000000000000000, 0.000000000000000000, 0.000000000000000000 ) ) ;
#357 = ORIENTED_EDGE ( 'NONE', *, *, #450, .F. ) ;
#358 = CARTESIAN_POINT ( 'NONE',  ( -1.199035717947090296, 9.928827469060996336, 5.922224770760994517 ) ) ;
#359 = FACE_OUTER_BOUND ( 'NONE', #415, .T. ) ;
#360 = ORIENTED_EDGE ( 'NONE', *, *, #317, .T. ) ;
#361 = DIRECTION ( 'NONE',  ( -0.000000000000000000, 1.000000000000000000, -0.000000000000000000 ) ) ;
#362 = CARTESIAN_POINT ( 'NONE',  ( -13.00000000000000178, 13.50000000000000178, 3.500000000000002665 ) ) ;
#363 = EDGE_CURVE ( 'NONE', #641, #170, #638, .T. ) ;
#364 = VERTEX_POINT ( 'NONE', #305 ) ;
#365 = CARTESIAN_POINT ( 'NONE',  ( 0.000000000000000000, -13.49999999999999822, 6.500000000000000888 ) ) ;
#366 = CARTESIAN_POINT ( 'NONE',  ( 1.193537268693812381, 9.928669328050931497, 5.913827516338128198 ) ) ;
#367 = AXIS2_PLACEMENT_3D ( 'NONE', #43, #482, #635 ) ;
#368 = PLANE ( 'NONE',  #197 ) ;
#369 = EDGE_LOOP ( 'NONE', ( #143, #644, #5, #456 ) ) ;
#370 = FACE_OUTER_BOUND ( 'NONE', #401, .T. ) ;
#371 = VERTEX_POINT ( 'NONE', #403 ) ;
#372 = LINE ( 'NONE', #564, #208 ) ;
#373 = VECTOR ( 'NONE', #295, 1000.000000000000000 ) ;
#374 = DIRECTION ( 'NONE',  ( -0.000000000000000000, -0.000000000000000000, -1.000000000000000000 ) ) ;
#375 = CARTESIAN_POINT ( 'NONE',  ( -16.00000000000000000, 13.50000000000000178, 0.000000000000000000 ) ) ;
#376 = ADVANCED_FACE ( 'NONE', ( #313 ), #452, .F. ) ;
#377 = CARTESIAN_POINT ( 'NONE',  ( 1.490245164280375123, -9.888354036577805317, 4.803020553087316458 ) ) ;
#378 = ORIENTED_EDGE ( 'NONE', *, *, #620, .F. ) ;
#379 = PLANE ( 'NONE',  #367 ) ;
#380 = VECTOR ( 'NONE', #24, 1000.000000000000000 ) ;
#381 = CIRCLE ( 'NONE', #17, 10.00000000000000000 ) ;
#382 = ORIENTED_EDGE ( 'NONE', *, *, #327, .F. ) ;
#383 = CARTESIAN_POINT ( 'NONE',  ( 0.9908163545276094109, -9.951041337518493179, 3.869489409035721916 ) ) ;
#384 = ORIENTED_EDGE ( 'NONE', *, *, #236, .T. ) ;
#385 = FACE_OUTER_BOUND ( 'NONE', #583, .T. ) ;
#386 = DIRECTION ( 'NONE',  ( 0.000000000000000000, 0.000000000000000000, -1.000000000000000000 ) ) ;
#387 = ORIENTED_EDGE ( 'NONE', *, *, #620, .T. ) ;
#388 = AXIS2_PLACEMENT_3D ( 'NONE', #510, #274, #601 ) ;
#389 = CARTESIAN_POINT ( 'NONE',  ( -16.00000000000000000, -13.49999999999999822, 10.00000000000000000 ) ) ;
#390 = ORIENTED_EDGE ( 'NONE', *, *, #543, .F. ) ;
#391 = CARTESIAN_POINT ( 'NONE',  ( -0.9151926497573537045, 9.958366194997156029, 3.807540546804799142 ) ) ;
#392 = LINE ( 'NONE', #253, #373 ) ;
#393 = PRODUCT_DEFINITION_SHAPE ( 'NONE', 'NONE',  #524 ) ;
#394 = CARTESIAN_POINT ( 'NONE',  ( -1.500064440237916852, -9.886850189996009064, 5.098152308644232633 ) ) ;
#395 = ORIENTED_EDGE ( 'NONE', *, *, #248, .F. ) ;
#396 = VECTOR ( 'NONE', #397, 1000.000000000000000 ) ;
#397 = DIRECTION ( 'NONE',  ( 1.000000000000000000, 0.000000000000000000, 0.000000000000000000 ) ) ;
#398 = VERTEX_POINT ( 'NONE', #365 ) ;
#399 = ORIENTED_EDGE ( 'NONE', *, *, #636, .F. ) ;
#400 = EDGE_CURVE ( 'NONE', #81, #364, #330, .T. ) ;
#401 = EDGE_LOOP ( 'NONE', ( #294, #412, #399, #77 ) ) ;
#402 = PRODUCT_DEFINITION_FORMATION_WITH_SPECIFIED_SOURCE ( '瀵', '', #41, .NOT_KNOWN. ) ;
#403 = CARTESIAN_POINT ( 'NONE',  ( 12.99999999999999822, 13.50000000000000178, 6.500000000000004441 ) ) ;
#404 = ADVANCED_FACE ( 'NONE', ( #270 ), #422, .F. ) ;
#405 = CARTESIAN_POINT ( 'NONE',  ( 1.348332419750692290, 9.908755670903026669, 5.664564265807783272 ) ) ;
#406 = DIRECTION ( 'NONE',  ( 0.000000000000000000, 0.000000000000000000, 1.000000000000000000 ) ) ;
#407 = DIRECTION ( 'NONE',  ( -0.000000000000000000, 1.000000000000000000, -0.000000000000000000 ) ) ;
#408 = EDGE_CURVE ( 'NONE', #170, #183, #288, .T. ) ;
#409 = APPLICATION_CONTEXT ( 'automotive_design' ) ;
#410 = CARTESIAN_POINT ( 'NONE',  ( 1.460648237408602279, 9.893043983298429822, 4.606025929922910045 ) ) ;
#411 = DIRECTION ( 'NONE',  ( 1.000000000000000000, 0.000000000000000000, 0.000000000000000000 ) ) ;
#412 = ORIENTED_EDGE ( 'NONE', *, *, #52, .T. ) ;
#413 = LINE ( 'NONE', #468, #449 ) ;
#414 = CARTESIAN_POINT ( 'NONE',  ( -13.00000000000000178, 13.50000000000000178, 6.500000000000004441 ) ) ;
#415 = EDGE_LOOP ( 'NONE', ( #301, #384, #430, #88 ) ) ;
#416 = DIRECTION ( 'NONE',  ( -0.000000000000000000, 1.000000000000000000, -0.000000000000000000 ) ) ;
#417 = LINE ( 'NONE', #612, #446 ) ;
#418 = CYLINDRICAL_SURFACE ( 'NONE', #277, 1.500000000000000444 ) ;
#419 = DIRECTION ( 'NONE',  ( 0.000000000000000000, 1.000000000000000000, 0.000000000000000000 ) ) ;
#420 = CARTESIAN_POINT ( 'NONE',  ( 12.99999999999999822, -13.49999999999999822, 3.500000000000003109 ) ) ;
#421 = ORIENTED_EDGE ( 'NONE', *, *, #509, .F. ) ;
#422 = CYLINDRICAL_SURFACE ( 'NONE', #71, 1.500000000000000444 ) ;
#423 = CARTESIAN_POINT ( 'NONE',  ( 1.500036597496301694, -9.886854414198168683, 4.902572341057561900 ) ) ;
#424 = ORIENTED_EDGE ( 'NONE', *, *, #573, .T. ) ;
#425 = DIRECTION ( 'NONE',  ( 0.000000000000000000, -1.000000000000000000, 0.000000000000000000 ) ) ;
#426 = ORIENTED_EDGE ( 'NONE', *, *, #494, .F. ) ;
#427 = MECHANICAL_DESIGN_GEOMETRIC_PRESENTATION_REPRESENTATION (  '', ( #259 ), #505 ) ;
#428 = CYLINDRICAL_SURFACE ( 'NONE', #598, 1.500000000000000444 ) ;
#429 = CARTESIAN_POINT ( 'NONE',  ( 0.09925924633948603193, -10.00000000000000000, 6.500000000000000888 ) ) ;
#430 = ORIENTED_EDGE ( 'NONE', *, *, #560, .T. ) ;
#431 = DIRECTION ( 'NONE',  ( 0.000000000000000000, 0.000000000000000000, 1.000000000000000000 ) ) ;
#432 = AXIS2_PLACEMENT_3D ( 'NONE', #184, #25, #471 ) ;
#433 = DIRECTION ( 'NONE',  ( -0.000000000000000000, 1.000000000000000000, -0.000000000000000000 ) ) ;
#434 = EDGE_LOOP ( 'NONE', ( #310, #390, #483, #269 ) ) ;
#435 = CARTESIAN_POINT ( 'NONE',  ( 0.3900199438764312410, -9.992855410637274005, 3.548269711394940185 ) ) ;
#436 = ORIENTED_EDGE ( 'NONE', *, *, #327, .T. ) ;
#437 = CARTESIAN_POINT ( 'NONE',  ( -0.3956287971978149076, -9.993803754302337694, 6.460010524703650781 ) ) ;
#438 = ORIENTED_EDGE ( 'NONE', *, *, #529, .T. ) ;
#439 = CARTESIAN_POINT ( 'NONE',  ( 16.00000000000000000, 13.50000000000000178, 0.000000000000000000 ) ) ;
#440 = DIRECTION ( 'NONE',  ( -0.000000000000000000, -0.000000000000000000, -1.000000000000000000 ) ) ;
#441 = CARTESIAN_POINT ( 'NONE',  ( -9.765481406131334631E-18, 10.00000000000000000, 6.500000000000000888 ) ) ;
#442 = UNCERTAINTY_MEASURE_WITH_UNIT (LENGTH_MEASURE( 1.000000000000000082E-05 ), #619, 'distance_accuracy_value', 'NONE');
#443 = CARTESIAN_POINT ( 'NONE',  ( 0.000000000000000000, 0.000000000000000000, 10.00000000000000000 ) ) ;
#444 = CARTESIAN_POINT ( 'NONE',  ( -1.423496657440179280, 9.898237315065097519, 4.516951811016191698 ) ) ;
#445 = VECTOR ( 'NONE', #433, 1000.000000000000000 ) ;
#446 = VECTOR ( 'NONE', #173, 1000.000000000000000 ) ;
#447 = CARTESIAN_POINT ( 'NONE',  ( -13.00000000000000178, -13.49999999999999822, 5.000000000000003553 ) ) ;
#448 = DIRECTION ( 'NONE',  ( -1.000000000000000000, 0.000000000000000000, 0.000000000000000000 ) ) ;
#449 = VECTOR ( 'NONE', #32, 1000.000000000000000 ) ;
#450 = EDGE_CURVE ( 'NONE', #398, #492, #556, .T. ) ;
#451 = PLANE ( 'NONE',  #571 ) ;
#452 = CYLINDRICAL_SURFACE ( 'NONE', #590, 1.500000000000000444 ) ;
#453 = CARTESIAN_POINT ( 'NONE',  ( 1.301255550999845800, 9.915126803682866807, 4.247465465731252721 ) ) ;
#454 = CARTESIAN_POINT ( 'NONE',  ( -1.451875317899896434, 9.894060554880324432, 4.610526491991887355 ) ) ;
#455 = FACE_BOUND ( 'NONE', #297, .T. ) ;
#456 = ORIENTED_EDGE ( 'NONE', *, *, #596, .T. ) ;
#457 = VECTOR ( 'NONE', #186, 1000.000000000000000 ) ;
#458 = CARTESIAN_POINT ( 'NONE',  ( 0.000000000000000000, 0.000000000000000000, 10.00000000000000000 ) ) ;
#459 = ORIENTED_EDGE ( 'NONE', *, *, #497, .F. ) ;
#460 = DIRECTION ( 'NONE',  ( 0.000000000000000000, -1.000000000000000000, 0.000000000000000000 ) ) ;
#461 = CARTESIAN_POINT ( 'NONE',  ( 0.9233809143372347927, 9.958244238040281360, 6.198126340037350523 ) ) ;
#462 = LINE ( 'NONE', #420, #380 ) ;
#463 = CARTESIAN_POINT ( 'NONE',  ( 0.000000000000000000, -13.49999999999999822, 5.000000000000000000 ) ) ;
#464 = EDGE_CURVE ( 'NONE', #637, #618, #84, .T. ) ;
#465 = CARTESIAN_POINT ( 'NONE',  ( 9.765481406131334631E-18, -10.00000000000000000, 6.500000000000000888 ) ) ;
#466 = CARTESIAN_POINT ( 'NONE',  ( 1.836969794591466673E-16, -10.00000000000000000, 3.499999999999999556 ) ) ;
#467 = EDGE_LOOP ( 'NONE', ( #93, #559 ) ) ;
#468 = CARTESIAN_POINT ( 'NONE',  ( -16.00000000000000000, 13.50000000000000178, 10.00000000000000000 ) ) ;
#469 = FACE_OUTER_BOUND ( 'NONE', #319, .T. ) ;
#470 = ORIENTED_EDGE ( 'NONE', *, *, #212, .T. ) ;
#471 = DIRECTION ( 'NONE',  ( 0.000000000000000000, 0.000000000000000000, 1.000000000000000000 ) ) ;
#472 = EDGE_CURVE ( 'NONE', #187, #96, #333, .T. ) ;
#473 = CARTESIAN_POINT ( 'NONE',  ( -13.00000000000000178, 13.50000000000000178, 5.000000000000003553 ) ) ;
#474 = EDGE_LOOP ( 'NONE', ( #459, #531, #286, #592 ) ) ;
#475 = VECTOR ( 'NONE', #407, 1000.000000000000000 ) ;
#476 = CYLINDRICAL_SURFACE ( 'NONE', #480, 1.500000000000000444 ) ;
#477 = DIRECTION ( 'NONE',  ( -0.000000000000000000, 0.000000000000000000, 1.000000000000000000 ) ) ;
#478 = CARTESIAN_POINT ( 'NONE',  ( 0.1974913894783137946, -9.998513487794367549, 3.509820970971396115 ) ) ;
#479 = ORIENTED_EDGE ( 'NONE', *, *, #263, .T. ) ;
#480 = AXIS2_PLACEMENT_3D ( 'NONE', #581, #196, #144 ) ;
#481 = DIRECTION ( 'NONE',  ( 0.000000000000000000, 1.000000000000000000, 0.000000000000000000 ) ) ;
#482 = DIRECTION ( 'NONE',  ( 0.000000000000000000, -1.000000000000000000, 0.000000000000000000 ) ) ;
#483 = ORIENTED_EDGE ( 'NONE', *, *, #450, .T. ) ;
#484 = DIRECTION ( 'NONE',  ( 0.000000000000000000, 0.000000000000000000, 1.000000000000000000 ) ) ;
#485 = LINE ( 'NONE', #4, #611 ) ;
#486 = ORIENTED_EDGE ( 'NONE', *, *, #55, .F. ) ;
#487 = CARTESIAN_POINT ( 'NONE',  ( -0.3887502231814628506, 9.992901947346071623, 6.452048953335444814 ) ) ;
#488 = VECTOR ( 'NONE', #268, 1000.000000000000000 ) ;
#489 = CIRCLE ( 'NONE', #106, 1.500000000000000444 ) ;
#490 = MANIFOLD_SOLID_BREP ( '\X2\52079664\X0\-\X2\62c94f38\X0\1', #189 ) ;
#491 = CARTESIAN_POINT ( 'NONE',  ( 0.1958894936501431594, 10.00000000000000000, 3.499999999999998668 ) ) ;
#492 = VERTEX_POINT ( 'NONE', #465 ) ;
#493 = ORIENTED_EDGE ( 'NONE', *, *, #400, .T. ) ;
#494 = EDGE_CURVE ( 'NONE', #637, #280, #413, .T. ) ;
#495 = CARTESIAN_POINT ( 'NONE',  ( -1.490245164280375123, 9.888354036577805317, 4.803020553087316458 ) ) ;
#496 = ORIENTED_EDGE ( 'NONE', *, *, #212, .F. ) ;
#497 = EDGE_CURVE ( 'NONE', #20, #526, #158, .T. ) ;
#498 = CARTESIAN_POINT ( 'NONE',  ( -16.00000000000000000, -13.49999999999999822, 0.000000000000000000 ) ) ;
#499 = VERTEX_POINT ( 'NONE', #512 ) ;
#500 = AXIS2_PLACEMENT_3D ( 'NONE', #90, #134, #513 ) ;
#501 = CARTESIAN_POINT ( 'NONE',  ( 0.7563356266158697272, 9.972993133688170531, 6.310003548594126599 ) ) ;
#502 = CARTESIAN_POINT ( 'NONE',  ( 0.000000000000000000, 0.000000000000000000, 0.000000000000000000 ) ) ;
#503 = ORIENTED_EDGE ( 'NONE', *, *, #548, .F. ) ;
#504 = DIRECTION ( 'NONE',  ( 0.000000000000000000, 0.000000000000000000, 1.000000000000000000 ) ) ;
#505 =( GEOMETRIC_REPRESENTATION_CONTEXT ( 3 ) GLOBAL_UNCERTAINTY_ASSIGNED_CONTEXT ( ( #442 ) ) GLOBAL_UNIT_ASSIGNED_CONTEXT ( ( #619, #281, #615 ) ) REPRESENTATION_CONTEXT ( 'NONE', 'WORKASPACE' ) );
#506 = FACE_OUTER_BOUND ( 'NONE', #434, .T. ) ;
#507 = ORIENTED_EDGE ( 'NONE', *, *, #236, .F. ) ;
#508 = CARTESIAN_POINT ( 'NONE',  ( 12.99999999999999822, -13.49999999999999822, 5.000000000000003553 ) ) ;
#509 = EDGE_CURVE ( 'NONE', #280, #233, #29, .T. ) ;
#510 = CARTESIAN_POINT ( 'NONE',  ( -13.00000000000000178, -13.49999999999999822, 5.000000000000003553 ) ) ;
#511 = ORIENTED_EDGE ( 'NONE', *, *, #560, .F. ) ;
#512 = CARTESIAN_POINT ( 'NONE',  ( -10.00000000000000000, 0.000000000000000000, 0.000000000000000000 ) ) ;
#513 = DIRECTION ( 'NONE',  ( 0.000000000000000000, 0.000000000000000000, -1.000000000000000000 ) ) ;
#514 = CARTESIAN_POINT ( 'NONE',  ( -16.00000000000000000, -13.49999999999999822, 10.00000000000000000 ) ) ;
#515 = CARTESIAN_POINT ( 'NONE',  ( 0.000000000000000000, -13.49999999999999822, 6.500000000000000888 ) ) ;
#516 = VECTOR ( 'NONE', #562, 1000.000000000000000 ) ;
#517 = CARTESIAN_POINT ( 'NONE',  ( -16.00000000000000000, 13.50000000000000178, 10.00000000000000000 ) ) ;
#518 = EDGE_CURVE ( 'NONE', #499, #118, #561, .T. ) ;
#519 = ORIENTED_EDGE ( 'NONE', *, *, #62, .T. ) ;
#520 = FILL_AREA_STYLE ('',( #273 ) ) ;
#521 = CARTESIAN_POINT ( 'NONE',  ( 0.4841012862849221055, -9.988689508439945186, 6.423134010716221809 ) ) ;
#522 = ORIENTED_EDGE ( 'NONE', *, *, #271, .T. ) ;
#523 = DIRECTION ( 'NONE',  ( 1.000000000000000000, 0.000000000000000000, 0.000000000000000000 ) ) ;
#524 = PRODUCT_DEFINITION ( '鏅', '', #402, #67 ) ;
#525 = CARTESIAN_POINT ( 'NONE',  ( 0.7528509329413344275, -9.971953185439717871, 3.698941735949598630 ) ) ;
#526 = VERTEX_POINT ( 'NONE', #78 ) ;
#527 = VECTOR ( 'NONE', #171, 1000.000000000000000 ) ;
#528 = DIRECTION ( 'NONE',  ( -0.000000000000000000, 1.000000000000000000, -0.000000000000000000 ) ) ;
#529 = EDGE_CURVE ( 'NONE', #280, #187, #125, .T. ) ;
#530 = DIRECTION ( 'NONE',  ( 1.000000000000000000, 0.000000000000000000, -0.000000000000000000 ) ) ;
#531 = ORIENTED_EDGE ( 'NONE', *, *, #55, .T. ) ;
#532 = APPLICATION_PROTOCOL_DEFINITION ( 'draft international standard', 'automotive_design', 1998, #97 ) ;
#533 = VECTOR ( 'NONE', #587, 1000.000000000000000 ) ;
#534 = CARTESIAN_POINT ( 'NONE',  ( 0.000000000000000000, 13.50000000000000178, 5.000000000000000000 ) ) ;
#535 = EDGE_LOOP ( 'NONE', ( #239, #479 ) ) ;
#536 = CIRCLE ( 'NONE', #326, 1.500000000000000444 ) ;
#537 = CARTESIAN_POINT ( 'NONE',  ( -0.09796877125857506030, 10.00000000000000000, 3.500000000000000000 ) ) ;
#538 = DIRECTION ( 'NONE',  ( 0.000000000000000000, 0.000000000000000000, -1.000000000000000000 ) ) ;
#539 = CARTESIAN_POINT ( 'NONE',  ( 1.836970602850461554E-16, 10.00000000000000000, 3.499999999999999556 ) ) ;
#540 = FACE_OUTER_BOUND ( 'NONE', #147, .T. ) ;
#541 = VECTOR ( 'NONE', #356, 1000.000000000000000 ) ;
#542 = CIRCLE ( 'NONE', #341, 1.500000000000000444 ) ;
#543 = EDGE_CURVE ( 'NONE', #398, #136, #243, .T. ) ;
#544 = CARTESIAN_POINT ( 'NONE',  ( -1.499870159304497630, -9.886879665616936208, 4.800755658896304290 ) ) ;
#545 = VERTEX_POINT ( 'NONE', #176 ) ;
#546 = CARTESIAN_POINT ( 'NONE',  ( -0.9233809143372347927, -9.958244238040281360, 6.198126340037350523 ) ) ;
#547 = CARTESIAN_POINT ( 'NONE',  ( -0.7528509329413344275, 9.971953185439717871, 3.698941735949598630 ) ) ;
#548 = EDGE_CURVE ( 'NONE', #343, #618, #372, .T. ) ;
#549 = CARTESIAN_POINT ( 'NONE',  ( -13.00000000000000178, -13.49999999999999822, 5.000000000000003553 ) ) ;
#550 = CARTESIAN_POINT ( 'NONE',  ( -0.9918166668782819606, 9.950935890162581288, 6.129533529596166375 ) ) ;
#551 = AXIS2_PLACEMENT_3D ( 'NONE', #458, #374, #72 ) ;
#552 = UNCERTAINTY_MEASURE_WITH_UNIT (LENGTH_MEASURE( 1.000000000000000082E-05 ), #250, 'distance_accuracy_value', 'NONE');
#553 = DIRECTION ( 'NONE',  ( 0.000000000000000000, 0.000000000000000000, 1.000000000000000000 ) ) ;
#554 = VERTEX_POINT ( 'NONE', #645 ) ;
#555 = FACE_BOUND ( 'NONE', #352, .T. ) ;
#556 = LINE ( 'NONE', #515, #91 ) ;
#557 = VECTOR ( 'NONE', #416, 1000.000000000000000 ) ;
#558 = FACE_OUTER_BOUND ( 'NONE', #114, .T. ) ;
#559 = ORIENTED_EDGE ( 'NONE', *, *, #317, .F. ) ;
#560 = EDGE_CURVE ( 'NONE', #574, #499, #392, .T. ) ;
#561 = CIRCLE ( 'NONE', #126, 10.00000000000000000 ) ;
#562 = DIRECTION ( 'NONE',  ( -0.000000000000000000, 1.000000000000000000, -0.000000000000000000 ) ) ;
#563 = ORIENTED_EDGE ( 'NONE', *, *, #99, .F. ) ;
#564 = CARTESIAN_POINT ( 'NONE',  ( 16.00000000000000000, 13.50000000000000178, 0.000000000000000000 ) ) ;
#565 = CARTESIAN_POINT ( 'NONE',  ( -9.765481406131334631E-18, 10.00000000000000000, 6.500000000000000888 ) ) ;
#566 = ORIENTED_EDGE ( 'NONE', *, *, #363, .F. ) ;
#567 = ADVANCED_FACE ( 'NONE', ( #385 ), #476, .F. ) ;
#568 = PLANE ( 'NONE',  #610 ) ;
#569 = ORIENTED_EDGE ( 'NONE', *, *, #518, .T. ) ;
#570 = DIRECTION ( 'NONE',  ( -0.000000000000000000, 1.000000000000000000, -0.000000000000000000 ) ) ;
#571 = AXIS2_PLACEMENT_3D ( 'NONE', #298, #323, #406 ) ;
#572 = CARTESIAN_POINT ( 'NONE',  ( 1.836969794591466673E-16, -10.00000000000000000, 3.499999999999999556 ) ) ;
#573 = EDGE_CURVE ( 'NONE', #554, #118, #148, .T. ) ;
#574 = VERTEX_POINT ( 'NONE', #203 ) ;
#575 =( NAMED_UNIT ( * ) SI_UNIT ( $, .STERADIAN. ) SOLID_ANGLE_UNIT ( ) );
#576 = CARTESIAN_POINT ( 'NONE',  ( 1.200498128814314835, -9.928673992045386143, 4.079190996221006671 ) ) ;
#577 = ORIENTED_EDGE ( 'NONE', *, *, #351, .T. ) ;
#578 = DIRECTION ( 'NONE',  ( 0.000000000000000000, 1.000000000000000000, 0.000000000000000000 ) ) ;
#579 = CARTESIAN_POINT ( 'NONE',  ( 0.3887502231814628506, -9.992901947346071623, 6.452048953335444814 ) ) ;
#580 = ORIENTED_EDGE ( 'NONE', *, *, #408, .T. ) ;
#581 = CARTESIAN_POINT ( 'NONE',  ( 0.000000000000000000, -13.49999999999999822, 5.000000000000000000 ) ) ;
#582 = CARTESIAN_POINT ( 'NONE',  ( 0.09796877125857506030, -10.00000000000000000, 3.500000000000000000 ) ) ;
#583 = EDGE_LOOP ( 'NONE', ( #283, #360, #493, #623 ) ) ;
#584 = CARTESIAN_POINT ( 'NONE',  ( 16.00000000000000000, -13.49999999999999822, 10.00000000000000000 ) ) ;
#585 = CARTESIAN_POINT ( 'NONE',  ( -1.347390703094650366, -9.908884469275271556, 4.333505061123021918 ) ) ;
#586 = CARTESIAN_POINT ( 'NONE',  ( -0.4835349122184677273, 9.988716629627816701, 3.576677207473328846 ) ) ;
#587 = DIRECTION ( 'NONE',  ( -0.000000000000000000, -0.000000000000000000, -1.000000000000000000 ) ) ;
#588 = CARTESIAN_POINT ( 'NONE',  ( -16.00000000000000000, 13.50000000000000178, 10.00000000000000000 ) ) ;
#589 = CARTESIAN_POINT ( 'NONE',  ( -1.460414081534252118, 9.893073381920791221, 5.394152524229792078 ) ) ;
#590 = AXIS2_PLACEMENT_3D ( 'NONE', #115, #166, #219 ) ;
#591 = CARTESIAN_POINT ( 'NONE',  ( 0.3934945893231877601, 9.993891274841788075, 3.539401747088769312 ) ) ;
#592 = ORIENTED_EDGE ( 'NONE', *, *, #292, .F. ) ;
#593 = AXIS2_PLACEMENT_3D ( 'NONE', #94, #484, #89 ) ;
#594 = CARTESIAN_POINT ( 'NONE',  ( -1.130378965574145189, -9.936149080430693559, 5.990847190085795582 ) ) ;
#595 = CARTESIAN_POINT ( 'NONE',  ( -0.9147715270971269463, 9.958407426003619278, 6.192809894403609405 ) ) ;
#596 = EDGE_CURVE ( 'NONE', #545, #343, #344, .T. ) ;
#597 = CARTESIAN_POINT ( 'NONE',  ( -0.7563356266158697272, -9.972993133688170531, 6.310003548594126599 ) ) ;
#598 = AXIS2_PLACEMENT_3D ( 'NONE', #630, #528, #431 ) ;
#599 = CARTESIAN_POINT ( 'NONE',  ( -0.09925924633948603193, 10.00000000000000000, 6.500000000000000888 ) ) ;
#600 = EDGE_CURVE ( 'NONE', #574, #554, #75, .T. ) ;
#601 = DIRECTION ( 'NONE',  ( 0.000000000000000000, 0.000000000000000000, 1.000000000000000000 ) ) ;
#602 = CARTESIAN_POINT ( 'NONE',  ( 1.500064440237916852, 9.886850189996009064, 5.098152308644232633 ) ) ;
#603 = DIRECTION ( 'NONE',  ( -0.000000000000000000, 1.000000000000000000, -0.000000000000000000 ) ) ;
#604 = ORIENTED_EDGE ( 'NONE', *, *, #600, .T. ) ;
#605 = DIRECTION ( 'NONE',  ( -0.000000000000000000, -0.000000000000000000, -1.000000000000000000 ) ) ;
#606 = CARTESIAN_POINT ( 'NONE',  ( 0.3956287971978149076, 9.993803754302337694, 6.460010524703650781 ) ) ;
#607 = FACE_BOUND ( 'NONE', #338, .T. ) ;
#608 = EDGE_CURVE ( 'NONE', #641, #255, #179, .T. ) ;
#609 = CARTESIAN_POINT ( 'NONE',  ( 0.000000000000000000, 0.000000000000000000, 0.000000000000000000 ) ) ;
#610 = AXIS2_PLACEMENT_3D ( 'NONE', #517, #530, #293 ) ;
#611 = VECTOR ( 'NONE', #153, 1000.000000000000000 ) ;
#612 = CARTESIAN_POINT ( 'NONE',  ( -16.00000000000000000, 13.50000000000000178, 0.000000000000000000 ) ) ;
#613 = DIRECTION ( 'NONE',  ( 0.000000000000000000, 1.000000000000000000, 0.000000000000000000 ) ) ;
#614 = ORIENTED_EDGE ( 'NONE', *, *, #265, .T. ) ;
#615 =( NAMED_UNIT ( * ) SI_UNIT ( $, .STERADIAN. ) SOLID_ANGLE_UNIT ( ) );
#616 = AXIS2_PLACEMENT_3D ( 'NONE', #287, #40, #339 ) ;
#617 = FACE_BOUND ( 'NONE', #83, .T. ) ;
#618 = VERTEX_POINT ( 'NONE', #439 ) ;
#619 =( LENGTH_UNIT ( ) NAMED_UNIT ( * ) SI_UNIT ( .MILLI., .METRE. ) );
#620 = EDGE_CURVE ( 'NONE', #136, #398, #321, .T. ) ;
#621 = PLANE ( 'NONE',  #37 ) ;
#622 = CARTESIAN_POINT ( 'NONE',  ( 0.9918166668782819606, -9.950935890162581288, 6.129533529596166375 ) ) ;
#623 = ORIENTED_EDGE ( 'NONE', *, *, #263, .F. ) ;
#624 = SURFACE_STYLE_FILL_AREA ( #520 ) ;
#625 =( GEOMETRIC_REPRESENTATION_CONTEXT ( 3 ) GLOBAL_UNCERTAINTY_ASSIGNED_CONTEXT ( ( #552 ) ) GLOBAL_UNIT_ASSIGNED_CONTEXT ( ( #250, #349, #575 ) ) REPRESENTATION_CONTEXT ( 'NONE', 'WORKASPACE' ) );
#626 = ADVANCED_FACE ( 'NONE', ( #188 ), #428, .F. ) ;
#627 = FACE_BOUND ( 'NONE', #141, .T. ) ;
#628 = CARTESIAN_POINT ( 'NONE',  ( -13.00000000000000178, -13.49999999999999822, 6.500000000000004441 ) ) ;
#629 = ORIENTED_EDGE ( 'NONE', *, *, #408, .F. ) ;
#630 = CARTESIAN_POINT ( 'NONE',  ( 0.000000000000000000, -13.49999999999999822, 5.000000000000000000 ) ) ;
#631 = FACE_OUTER_BOUND ( 'NONE', #18, .T. ) ;
#632 = ORIENTED_EDGE ( 'NONE', *, *, #284, .F. ) ;
#633 = DIRECTION ( 'NONE',  ( 0.000000000000000000, -1.000000000000000000, 0.000000000000000000 ) ) ;
#634 = CARTESIAN_POINT ( 'NONE',  ( 12.99999999999999822, -13.49999999999999822, 5.000000000000003553 ) ) ;
#635 = DIRECTION ( 'NONE',  ( 0.000000000000000000, -0.000000000000000000, -1.000000000000000000 ) ) ;
#636 = EDGE_CURVE ( 'NONE', #364, #204, #536, .T. ) ;
#637 = VERTEX_POINT ( 'NONE', #240 ) ;
#638 = LINE ( 'NONE', #309, #475 ) ;
#639 = CARTESIAN_POINT ( 'NONE',  ( 1.836970198721029934E-16, 13.50000000000000178, 3.499999999999999556 ) ) ;
#640 = CIRCLE ( 'NONE', #145, 10.00000000000000000 ) ;
#641 = VERTEX_POINT ( 'NONE', #105 ) ;
#642 = CARTESIAN_POINT ( 'NONE',  ( 10.00000000000000000, 1.224646799147353256E-15, 10.00000000000000000 ) ) ;
#643 = CARTESIAN_POINT ( 'NONE',  ( -0.1984698108973663999, -9.999999999999994671, 6.499999999999996447 ) ) ;
#644 = ORIENTED_EDGE ( 'NONE', *, *, #464, .F. ) ;
#645 = CARTESIAN_POINT ( 'NONE',  ( 10.00000000000000000, 1.224646799147353256E-15, 10.00000000000000000 ) ) ;
ENDSEC;
END-ISO-10303-21;
