ISO-10303-21;
HEADER;
FILE_DESCRIPTION (( 'STEP AP214' ),
    '1' );
FILE_NAME ('±ê×¼¼þ-F6809A.STEP',
    '2026-08-16T17:26:55',
    ( '' ),
    ( '' ),
    'SwSTEP 2.0',
    'SolidWorks 2025',
    '' );
FILE_SCHEMA (( 'AUTOMOTIVE_DESIGN' ));
ENDSEC;

DATA;
#1 = VECTOR ( 'NONE', #441, 1000.000000000000000 ) ;
#2 = LINE ( 'NONE', #505, #88 ) ;
#3 = CARTESIAN_POINT ( 'NONE',  ( -22.50000000000000355, 0.000000000000000000, 6.999999999999999112 ) ) ;
#4 = DIRECTION ( 'NONE',  ( 1.000000000000000000, 0.000000000000000000, -0.000000000000000000 ) ) ;
#5 = CARTESIAN_POINT ( 'NONE',  ( 0.000000000000000000, 0.000000000000000000, 6.999999999999999112 ) ) ;
#6 = CIRCLE ( 'NONE', #231, 27.00000000000000000 ) ;
#7 = UNCERTAINTY_MEASURE_WITH_UNIT (LENGTH_MEASURE( 1.000000000000000082E-05 ), #79, 'distance_accuracy_value', 'NONE');
#8 = EDGE_CURVE ( 'NONE', #216, #402, #189, .T. ) ;
#9 = DIRECTION ( 'NONE',  ( 1.000000000000000000, 0.000000000000000000, 0.000000000000000000 ) ) ;
#10 = DIRECTION ( 'NONE',  ( 1.000000000000000000, 0.000000000000000000, 0.000000000000000000 ) ) ;
#11 = ADVANCED_FACE ( 'NONE', ( #322 ), #376, .T. ) ;
#12 = AXIS2_PLACEMENT_3D ( 'NONE', #156, #196, #294 ) ;
#13 = ORIENTED_EDGE ( 'NONE', *, *, #342, .T. ) ;
#14 = AXIS2_PLACEMENT_3D ( 'NONE', #91, #226, #4 ) ;
#15 = CARTESIAN_POINT ( 'NONE',  ( -29.00000000000000000, 0.000000000000000000, 6.999999999999999112 ) ) ;
#16 = EDGE_CURVE ( 'NONE', #483, #388, #466, .T. ) ;
#17 = DIRECTION ( 'NONE',  ( 0.000000000000000000, 0.000000000000000000, 1.000000000000000000 ) ) ;
#18 = CARTESIAN_POINT ( 'NONE',  ( 0.000000000000000000, 0.000000000000000000, 0.000000000000000000 ) ) ;
#19 = ORIENTED_EDGE ( 'NONE', *, *, #367, .F. ) ;
#20 = DIRECTION ( 'NONE',  ( -0.000000000000000000, -0.000000000000000000, 1.000000000000000000 ) ) ;
#21 = VERTEX_POINT ( 'NONE', #142 ) ;
#22 = DIRECTION ( 'NONE',  ( 1.000000000000000000, 0.000000000000000000, 0.000000000000000000 ) ) ;
#23 = DIRECTION ( 'NONE',  ( -0.000000000000000000, -0.000000000000000000, -1.000000000000000000 ) ) ;
#24 = DIRECTION ( 'NONE',  ( -0.000000000000000000, -0.000000000000000000, 1.000000000000000000 ) ) ;
#25 = ORIENTED_EDGE ( 'NONE', *, *, #115, .F. ) ;
#26 = CARTESIAN_POINT ( 'NONE',  ( 0.000000000000000000, 0.000000000000000000, 0.2000000000000000111 ) ) ;
#27 = EDGE_CURVE ( 'NONE', #501, #445, #596, .T. ) ;
#28 = FACE_OUTER_BOUND ( 'NONE', #411, .T. ) ;
#29 = DIRECTION ( 'NONE',  ( 0.000000000000000000, 0.000000000000000000, 1.000000000000000000 ) ) ;
#30 = CARTESIAN_POINT ( 'NONE',  ( 0.000000000000000000, 0.000000000000000000, 6.999999999999999112 ) ) ;
#31 = EDGE_CURVE ( 'NONE', #385, #216, #6, .T. ) ;
#32 = CYLINDRICAL_SURFACE ( 'NONE', #548, 24.50000000000000000 ) ;
#33 = ORIENTED_EDGE ( 'NONE', *, *, #569, .T. ) ;
#34 = AXIS2_PLACEMENT_3D ( 'NONE', #349, #536, #212 ) ;
#35 = AXIS2_PLACEMENT_3D ( 'NONE', #513, #56, #9 ) ;
#36 = DIRECTION ( 'NONE',  ( 0.000000000000000000, 0.000000000000000000, 1.000000000000000000 ) ) ;
#37 = DIRECTION ( 'NONE',  ( 1.000000000000000000, 0.000000000000000000, -0.000000000000000000 ) ) ;
#38 = EDGE_CURVE ( 'NONE', #261, #451, #336, .T. ) ;
#39 = ORIENTED_EDGE ( 'NONE', *, *, #81, .F. ) ;
#40 = DIRECTION ( 'NONE',  ( 0.000000000000000000, 0.000000000000000000, 1.000000000000000000 ) ) ;
#41 = EDGE_LOOP ( 'NONE', ( #442, #467, #130, #25 ) ) ;
#42 = EDGE_CURVE ( 'NONE', #249, #136, #309, .T. ) ;
#43 = CARTESIAN_POINT ( 'NONE',  ( 0.000000000000000000, 0.000000000000000000, 0.2000000000000000111 ) ) ;
#44 = CIRCLE ( 'NONE', #525, 29.00000000000000000 ) ;
#45 = ORIENTED_EDGE ( 'NONE', *, *, #109, .F. ) ;
#46 = CARTESIAN_POINT ( 'NONE',  ( 30.50000000000000000, 3.735172737399427541E-15, 0.000000000000000000 ) ) ;
#47 = CARTESIAN_POINT ( 'NONE',  ( 30.50000000000000000, 3.735172737399427541E-15, 1.500000000000000000 ) ) ;
#48 = EDGE_CURVE ( 'NONE', #278, #338, #173, .T. ) ;
#49 = VERTEX_POINT ( 'NONE', #101 ) ;
#50 = AXIS2_PLACEMENT_3D ( 'NONE', #181, #51, #418 ) ;
#51 = DIRECTION ( 'NONE',  ( 0.000000000000000000, 0.000000000000000000, 1.000000000000000000 ) ) ;
#52 = DIRECTION ( 'NONE',  ( 1.000000000000000000, 0.000000000000000000, 0.000000000000000000 ) ) ;
#53 = EDGE_CURVE ( 'NONE', #216, #385, #515, .T. ) ;
#54 = VERTEX_POINT ( 'NONE', #239 ) ;
#55 = ORIENTED_EDGE ( 'NONE', *, *, #221, .F. ) ;
#56 = DIRECTION ( 'NONE',  ( 0.000000000000000000, 0.000000000000000000, 1.000000000000000000 ) ) ;
#57 = ORIENTED_EDGE ( 'NONE', *, *, #379, .F. ) ;
#58 = AXIS2_PLACEMENT_3D ( 'NONE', #30, #250, #200 ) ;
#59 = DIRECTION ( 'NONE',  ( -0.000000000000000000, -0.000000000000000000, -1.000000000000000000 ) ) ;
#60 = AXIS2_PLACEMENT_3D ( 'NONE', #69, #559, #561 ) ;
#61 = DIRECTION ( 'NONE',  ( 1.000000000000000000, 0.000000000000000000, 0.000000000000000000 ) ) ;
#62 = CIRCLE ( 'NONE', #368, 24.50000000000000000 ) ;
#63 = DIRECTION ( 'NONE',  ( -0.000000000000000000, -0.000000000000000000, -1.000000000000000000 ) ) ;
#64 = PLANE ( 'NONE',  #242 ) ;
#65 = CIRCLE ( 'NONE', #12, 30.50000000000000000 ) ;
#66 = FACE_OUTER_BOUND ( 'NONE', #228, .T. ) ;
#67 = CARTESIAN_POINT ( 'NONE',  ( 29.00000000000000000, 3.551475717527324030E-15, 6.999999999999999112 ) ) ;
#68 = CARTESIAN_POINT ( 'NONE',  ( 24.50000000000000000, 0.000000000000000000, 6.799999999999999822 ) ) ;
#69 = CARTESIAN_POINT ( 'NONE',  ( 0.000000000000000000, 0.000000000000000000, 0.000000000000000000 ) ) ;
#70 = ORIENTED_EDGE ( 'NONE', *, *, #539, .F. ) ;
#71 = CARTESIAN_POINT ( 'NONE',  ( 0.000000000000000000, 0.000000000000000000, 1.500000000000000000 ) ) ;
#72 = CIRCLE ( 'NONE', #308, 27.00000000000000000 ) ;
#73 = DIRECTION ( 'NONE',  ( 0.000000000000000000, 0.000000000000000000, 1.000000000000000000 ) ) ;
#74 = ORIENTED_EDGE ( 'NONE', *, *, #369, .T. ) ;
#75 = AXIS2_PLACEMENT_3D ( 'NONE', #284, #375, #469 ) ;
#76 = FACE_OUTER_BOUND ( 'NONE', #540, .T. ) ;
#77 = EDGE_LOOP ( 'NONE', ( #436, #195 ) ) ;
#78 = PRESENTATION_LAYER_ASSIGNMENT (  '', '', ( #578 ) ) ;
#79 =( LENGTH_UNIT ( ) NAMED_UNIT ( * ) SI_UNIT ( .MILLI., .METRE. ) );
#80 = ORIENTED_EDGE ( 'NONE', *, *, #247, .T. ) ;
#81 = EDGE_CURVE ( 'NONE', #445, #501, #148, .T. ) ;
#82 = DIRECTION ( 'NONE',  ( 1.000000000000000000, 0.000000000000000000, 0.000000000000000000 ) ) ;
#83 = DIRECTION ( 'NONE',  ( 0.000000000000000000, 0.000000000000000000, 1.000000000000000000 ) ) ;
#84 = VERTEX_POINT ( 'NONE', #3 ) ;
#85 = EDGE_CURVE ( 'NONE', #317, #164, #319, .T. ) ;
#86 = FACE_BOUND ( 'NONE', #547, .T. ) ;
#87 = ORIENTED_EDGE ( 'NONE', *, *, #417, .F. ) ;
#88 = VECTOR ( 'NONE', #370, 1000.000000000000000 ) ;
#89 = DIRECTION ( 'NONE',  ( 1.000000000000000000, 0.000000000000000000, 0.000000000000000000 ) ) ;
#90 = ORIENTED_EDGE ( 'NONE', *, *, #53, .T. ) ;
#91 = CARTESIAN_POINT ( 'NONE',  ( 0.000000000000000000, 0.000000000000000000, 6.999999999999999112 ) ) ;
#92 = EDGE_CURVE ( 'NONE', #84, #445, #415, .T. ) ;
#93 = VERTEX_POINT ( 'NONE', #114 ) ;
#94 = VECTOR ( 'NONE', #392, 1000.000000000000000 ) ;
#95 = DIRECTION ( 'NONE',  ( 0.000000000000000000, 0.000000000000000000, -1.000000000000000000 ) ) ;
#96 = FACE_OUTER_BOUND ( 'NONE', #174, .T. ) ;
#97 = DIRECTION ( 'NONE',  ( 0.000000000000000000, 0.000000000000000000, 1.000000000000000000 ) ) ;
#98 = CARTESIAN_POINT ( 'NONE',  ( 0.000000000000000000, 0.000000000000000000, 6.999999999999999112 ) ) ;
#99 = DIRECTION ( 'NONE',  ( 1.000000000000000000, 0.000000000000000000, 0.000000000000000000 ) ) ;
#100 = EDGE_CURVE ( 'NONE', #385, #21, #198, .T. ) ;
#101 = CARTESIAN_POINT ( 'NONE',  ( 29.00000000000000000, 3.551475717527324030E-15, 1.500000000000000000 ) ) ;
#102 = ADVANCED_FACE ( 'NONE', ( #149, #345 ), #64, .F. ) ;
#103 = FACE_OUTER_BOUND ( 'NONE', #252, .T. ) ;
#104 = DIRECTION ( 'NONE',  ( -1.000000000000000000, 0.000000000000000000, 0.000000000000000000 ) ) ;
#105 = CIRCLE ( 'NONE', #210, 24.50000000000000000 ) ;
#106 = CYLINDRICAL_SURFACE ( 'NONE', #137, 30.50000000000000000 ) ;
#107 = CIRCLE ( 'NONE', #35, 24.50000000000000000 ) ;
#108 = EDGE_LOOP ( 'NONE', ( #223, #542, #404, #225 ) ) ;
#109 = EDGE_CURVE ( 'NONE', #587, #84, #488, .T. ) ;
#110 = CARTESIAN_POINT ( 'NONE',  ( -29.00000000000000000, 0.000000000000000000, 6.999999999999999112 ) ) ;
#111 = CARTESIAN_POINT ( 'NONE',  ( 24.50000000000000000, 3.000384657911015469E-15, 0.000000000000000000 ) ) ;
#112 = ORIENTED_EDGE ( 'NONE', *, *, #512, .F. ) ;
#113 = PRODUCT_CONTEXT ( 'NONE', #197, 'mechanical' ) ;
#114 = CARTESIAN_POINT ( 'NONE',  ( -29.00000000000000000, 0.000000000000000000, 1.500000000000000000 ) ) ;
#115 = EDGE_CURVE ( 'NONE', #136, #270, #486, .T. ) ;
#116 = AXIS2_PLACEMENT_3D ( 'NONE', #593, #580, #585 ) ;
#117 = CYLINDRICAL_SURFACE ( 'NONE', #574, 22.50000000000000355 ) ;
#118 = DIRECTION ( 'NONE',  ( 0.000000000000000000, 0.000000000000000000, 1.000000000000000000 ) ) ;
#119 = ORIENTED_EDGE ( 'NONE', *, *, #495, .F. ) ;
#120 = DIRECTION ( 'NONE',  ( 1.000000000000000000, 0.000000000000000000, -0.000000000000000000 ) ) ;
#121 = ORIENTED_EDGE ( 'NONE', *, *, #594, .F. ) ;
#122 = CARTESIAN_POINT ( 'NONE',  ( 22.50000000000000355, 2.755455298081545172E-15, 6.999999999999999112 ) ) ;
#123 = DIRECTION ( 'NONE',  ( -0.000000000000000000, -0.000000000000000000, 1.000000000000000000 ) ) ;
#124 = FACE_OUTER_BOUND ( 'NONE', #566, .T. ) ;
#125 = ORIENTED_EDGE ( 'NONE', *, *, #511, .F. ) ;
#126 = DIRECTION ( 'NONE',  ( -1.000000000000000000, 0.000000000000000000, 0.000000000000000000 ) ) ;
#127 = AXIS2_PLACEMENT_3D ( 'NONE', #427, #504, #227 ) ;
#128 = CARTESIAN_POINT ( 'NONE',  ( -27.00000000000000000, 0.000000000000000000, 0.000000000000000000 ) ) ;
#129 = FACE_OUTER_BOUND ( 'NONE', #555, .T. ) ;
#130 = ORIENTED_EDGE ( 'NONE', *, *, #512, .T. ) ;
#131 = CLOSED_SHELL ( 'NONE', ( #465, #584, #468, #503, #382, #332, #438, #102, #406, #272, #267, #257, #454, #305, #11, #134, #176, #364, #325, #179, #275 ) ) ;
#132 = DIRECTION ( 'NONE',  ( -0.000000000000000000, -0.000000000000000000, -1.000000000000000000 ) ) ;
#133 = ORIENTED_EDGE ( 'NONE', *, *, #448, .F. ) ;
#134 = ADVANCED_FACE ( 'NONE', ( #565 ), #191, .F. ) ;
#135 =( NAMED_UNIT ( * ) SI_UNIT ( $, .STERADIAN. ) SOLID_ANGLE_UNIT ( ) );
#136 = VERTEX_POINT ( 'NONE', #522 ) ;
#137 = AXIS2_PLACEMENT_3D ( 'NONE', #287, #63, #240 ) ;
#138 = ORIENTED_EDGE ( 'NONE', *, *, #53, .F. ) ;
#139 = FACE_OUTER_BOUND ( 'NONE', #41, .T. ) ;
#140 = CARTESIAN_POINT ( 'NONE',  ( -24.50000000000000000, 3.000384657911015469E-15, 6.799999999999999822 ) ) ;
#141 = CARTESIAN_POINT ( 'NONE',  ( 0.000000000000000000, 0.000000000000000000, 0.2000000000000000111 ) ) ;
#142 = CARTESIAN_POINT ( 'NONE',  ( -27.00000000000000000, 3.306546357697853733E-15, 6.999999999999999112 ) ) ;
#143 = PRODUCT_DEFINITION_CONTEXT ( 'detailed design', #220, 'design' ) ;
#144 = ORIENTED_EDGE ( 'NONE', *, *, #92, .F. ) ;
#145 = CARTESIAN_POINT ( 'NONE',  ( 0.000000000000000000, 0.000000000000000000, 0.2000000000000000111 ) ) ;
#146 = ORIENTED_EDGE ( 'NONE', *, *, #569, .F. ) ;
#147 = PRODUCT_RELATED_PRODUCT_CATEGORY ( 'part', '', ( #365 ) ) ;
#148 = CIRCLE ( 'NONE', #127, 22.50000000000000355 ) ;
#149 = FACE_BOUND ( 'NONE', #77, .T. ) ;
#150 = CARTESIAN_POINT ( 'NONE',  ( 0.000000000000000000, 0.000000000000000000, 6.799999999999999822 ) ) ;
#151 = CARTESIAN_POINT ( 'NONE',  ( -30.50000000000000000, 0.000000000000000000, 1.500000000000000000 ) ) ;
#152 = EDGE_LOOP ( 'NONE', ( #530, #447, #199, #266 ) ) ;
#153 = FACE_OUTER_BOUND ( 'NONE', #152, .T. ) ;
#154 = DIRECTION ( 'NONE',  ( 1.000000000000000000, 0.000000000000000000, 0.000000000000000000 ) ) ;
#155 = ORIENTED_EDGE ( 'NONE', *, *, #477, .F. ) ;
#156 = CARTESIAN_POINT ( 'NONE',  ( 0.000000000000000000, 0.000000000000000000, 0.000000000000000000 ) ) ;
#157 = CARTESIAN_POINT ( 'NONE',  ( 0.000000000000000000, 0.000000000000000000, 0.2000000000000000111 ) ) ;
#158 = CARTESIAN_POINT ( 'NONE',  ( 0.000000000000000000, 0.000000000000000000, 0.2000000000000000111 ) ) ;
#159 = ORIENTED_EDGE ( 'NONE', *, *, #48, .F. ) ;
#160 = DIRECTION ( 'NONE',  ( 0.000000000000000000, 0.000000000000000000, 1.000000000000000000 ) ) ;
#161 = VECTOR ( 'NONE', #23, 1000.000000000000000 ) ;
#162 = CARTESIAN_POINT ( 'NONE',  ( 27.00000000000000000, 3.306546357697853733E-15, 0.2000000000000000111 ) ) ;
#163 = CIRCLE ( 'NONE', #499, 27.00000000000000000 ) ;
#164 = VERTEX_POINT ( 'NONE', #292 ) ;
#165 = CARTESIAN_POINT ( 'NONE',  ( 0.000000000000000000, 0.000000000000000000, 0.000000000000000000 ) ) ;
#166 = CIRCLE ( 'NONE', #315, 27.00000000000000000 ) ;
#167 = CARTESIAN_POINT ( 'NONE',  ( 24.50000000000000000, 3.000384657911015469E-15, 0.2000000000000000111 ) ) ;
#168 = VERTEX_POINT ( 'NONE', #162 ) ;
#169 = DIRECTION ( 'NONE',  ( 0.000000000000000000, 0.000000000000000000, 1.000000000000000000 ) ) ;
#170 = EDGE_CURVE ( 'NONE', #288, #317, #354, .T. ) ;
#171 = PLANE ( 'NONE',  #285 ) ;
#172 = ORIENTED_EDGE ( 'NONE', *, *, #221, .T. ) ;
#173 = CIRCLE ( 'NONE', #326, 27.00000000000000000 ) ;
#174 = EDGE_LOOP ( 'NONE', ( #408, #456, #291, #473 ) ) ;
#175 = DIRECTION ( 'NONE',  ( 0.000000000000000000, 0.000000000000000000, 1.000000000000000000 ) ) ;
#176 = ADVANCED_FACE ( 'NONE', ( #384, #66 ), #472, .T. ) ;
#177 = EDGE_LOOP ( 'NONE', ( #429, #537 ) ) ;
#178 = SURFACE_STYLE_FILL_AREA ( #409 ) ;
#179 = ADVANCED_FACE ( 'NONE', ( #248 ), #571, .F. ) ;
#180 = ORIENTED_EDGE ( 'NONE', *, *, #448, .T. ) ;
#181 = CARTESIAN_POINT ( 'NONE',  ( 0.000000000000000000, 0.000000000000000000, 1.500000000000000000 ) ) ;
#182 = CIRCLE ( 'NONE', #470, 27.00000000000000000 ) ;
#183 = ORIENTED_EDGE ( 'NONE', *, *, #594, .T. ) ;
#184 = ORIENTED_EDGE ( 'NONE', *, *, #85, .F. ) ;
#185 = FACE_OUTER_BOUND ( 'NONE', #480, .T. ) ;
#186 = EDGE_LOOP ( 'NONE', ( #146, #45 ) ) ;
#187 = CIRCLE ( 'NONE', #116, 24.50000000000000000 ) ;
#188 = CIRCLE ( 'NONE', #471, 29.00000000000000000 ) ;
#189 = LINE ( 'NONE', #324, #205 ) ;
#190 = DIRECTION ( 'NONE',  ( 0.000000000000000000, 0.000000000000000000, -1.000000000000000000 ) ) ;
#191 = CYLINDRICAL_SURFACE ( 'NONE', #243, 27.00000000000000000 ) ;
#192 = AXIS2_PLACEMENT_3D ( 'NONE', #520, #29, #397 ) ;
#193 = AXIS2_PLACEMENT_3D ( 'NONE', #526, #299, #435 ) ;
#194 = CARTESIAN_POINT ( 'NONE',  ( 24.50000000000000000, 3.000384657911015469E-15, 0.2000000000000000111 ) ) ;
#195 = ORIENTED_EDGE ( 'NONE', *, *, #27, .T. ) ;
#196 = DIRECTION ( 'NONE',  ( 0.000000000000000000, 0.000000000000000000, 1.000000000000000000 ) ) ;
#197 = APPLICATION_CONTEXT ( 'automotive_design' ) ;
#198 = LINE ( 'NONE', #387, #461 ) ;
#199 = ORIENTED_EDGE ( 'NONE', *, *, #237, .F. ) ;
#200 = DIRECTION ( 'NONE',  ( 1.000000000000000000, 0.000000000000000000, 0.000000000000000000 ) ) ;
#201 = FACE_OUTER_BOUND ( 'NONE', #314, .T. ) ;
#202 = LINE ( 'NONE', #194, #94 ) ;
#203 = VERTEX_POINT ( 'NONE', #111 ) ;
#204 = CARTESIAN_POINT ( 'NONE',  ( 0.000000000000000000, 0.000000000000000000, 6.999999999999999112 ) ) ;
#205 = VECTOR ( 'NONE', #373, 1000.000000000000000 ) ;
#206 = DIRECTION ( 'NONE',  ( 1.000000000000000000, 0.000000000000000000, 0.000000000000000000 ) ) ;
#207 = ORIENTED_EDGE ( 'NONE', *, *, #85, .T. ) ;
#208 = CARTESIAN_POINT ( 'NONE',  ( 0.000000000000000000, 0.000000000000000000, 0.000000000000000000 ) ) ;
#209 = PRODUCT_DEFINITION ( 'æ™', '', #229, #143 ) ;
#210 = AXIS2_PLACEMENT_3D ( 'NONE', #431, #439, #327 ) ;
#211 = ORIENTED_EDGE ( 'NONE', *, *, #511, .T. ) ;
#212 = DIRECTION ( 'NONE',  ( -1.000000000000000000, 0.000000000000000000, 0.000000000000000000 ) ) ;
#213 = ORIENTED_EDGE ( 'NONE', *, *, #271, .F. ) ;
#214 = DIRECTION ( 'NONE',  ( -1.000000000000000000, 0.000000000000000000, 0.000000000000000000 ) ) ;
#215 = CARTESIAN_POINT ( 'NONE',  ( 0.000000000000000000, 0.000000000000000000, 6.999999999999999112 ) ) ;
#216 = VERTEX_POINT ( 'NONE', #516 ) ;
#217 = CARTESIAN_POINT ( 'NONE',  ( 0.000000000000000000, 0.000000000000000000, 6.799999999999999822 ) ) ;
#218 = DIRECTION ( 'NONE',  ( -1.000000000000000000, 0.000000000000000000, 0.000000000000000000 ) ) ;
#219 = ORIENTED_EDGE ( 'NONE', *, *, #247, .F. ) ;
#220 = APPLICATION_CONTEXT ( 'automotive_design' ) ;
#221 = EDGE_CURVE ( 'NONE', #288, #203, #202, .T. ) ;
#222 = FILL_AREA_STYLE_COLOUR ( '', #238 ) ;
#223 = ORIENTED_EDGE ( 'NONE', *, *, #351, .F. ) ;
#224 = DIRECTION ( 'NONE',  ( 0.000000000000000000, 0.000000000000000000, 1.000000000000000000 ) ) ;
#225 = ORIENTED_EDGE ( 'NONE', *, *, #523, .T. ) ;
#226 = DIRECTION ( 'NONE',  ( 0.000000000000000000, 0.000000000000000000, 1.000000000000000000 ) ) ;
#227 = DIRECTION ( 'NONE',  ( 1.000000000000000000, 0.000000000000000000, 0.000000000000000000 ) ) ;
#228 = EDGE_LOOP ( 'NONE', ( #90, #400 ) ) ;
#229 = PRODUCT_DEFINITION_FORMATION_WITH_SPECIFIED_SOURCE ( 'å¯', '', #365, .NOT_KNOWN. ) ;
#230 = CARTESIAN_POINT ( 'NONE',  ( -27.00000000000000000, 3.306546357697853733E-15, 6.799999999999999822 ) ) ;
#231 = AXIS2_PLACEMENT_3D ( 'NONE', #509, #97, #557 ) ;
#232 = DIRECTION ( 'NONE',  ( 0.000000000000000000, 0.000000000000000000, 1.000000000000000000 ) ) ;
#233 = EDGE_CURVE ( 'NONE', #136, #249, #508, .T. ) ;
#234 = DIRECTION ( 'NONE',  ( 1.000000000000000000, 0.000000000000000000, 0.000000000000000000 ) ) ;
#235 = ORIENTED_EDGE ( 'NONE', *, *, #581, .F. ) ;
#236 = VECTOR ( 'NONE', #424, 1000.000000000000000 ) ;
#237 = EDGE_CURVE ( 'NONE', #338, #278, #399, .T. ) ;
#238 = COLOUR_RGB ( '',0.7921568627450980005, 0.8196078431372548767, 0.9333333333333333481 ) ;
#239 = CARTESIAN_POINT ( 'NONE',  ( 24.50000000000000000, 0.000000000000000000, 6.999999999999999112 ) ) ;
#240 = DIRECTION ( 'NONE',  ( -1.000000000000000000, 0.000000000000000000, 0.000000000000000000 ) ) ;
#241 = EDGE_LOOP ( 'NONE', ( #70, #125 ) ) ;
#242 = AXIS2_PLACEMENT_3D ( 'NONE', #18, #118, #529 ) ;
#243 = AXIS2_PLACEMENT_3D ( 'NONE', #340, #24, #154 ) ;
#244 = DIRECTION ( 'NONE',  ( 1.000000000000000000, 0.000000000000000000, 0.000000000000000000 ) ) ;
#245 = ORIENTED_EDGE ( 'NONE', *, *, #42, .T. ) ;
#246 = SHAPE_DEFINITION_REPRESENTATION ( #527, #334 ) ;
#247 = EDGE_CURVE ( 'NONE', #203, #164, #105, .T. ) ;
#248 = FACE_OUTER_BOUND ( 'NONE', #491, .T. ) ;
#249 = VERTEX_POINT ( 'NONE', #255 ) ;
#250 = DIRECTION ( 'NONE',  ( 0.000000000000000000, 0.000000000000000000, 1.000000000000000000 ) ) ;
#251 = CARTESIAN_POINT ( 'NONE',  ( 0.000000000000000000, 0.000000000000000000, 6.799999999999999822 ) ) ;
#252 = EDGE_LOOP ( 'NONE', ( #597, #311, #183, #273 ) ) ;
#253 = DIRECTION ( 'NONE',  ( 1.000000000000000000, 0.000000000000000000, 0.000000000000000000 ) ) ;
#254 = AXIS2_PLACEMENT_3D ( 'NONE', #552, #460, #371 ) ;
#255 = CARTESIAN_POINT ( 'NONE',  ( 30.50000000000000000, 3.735172737399427541E-15, 1.500000000000000000 ) ) ;
#256 = ORIENTED_EDGE ( 'NONE', *, *, #38, .F. ) ;
#257 = ADVANCED_FACE ( 'NONE', ( #380 ), #106, .T. ) ;
#258 = VECTOR ( 'NONE', #403, 1000.000000000000000 ) ;
#259 = ORIENTED_EDGE ( 'NONE', *, *, #233, .T. ) ;
#260 = PLANE ( 'NONE',  #545 ) ;
#261 = VERTEX_POINT ( 'NONE', #329 ) ;
#262 = CYLINDRICAL_SURFACE ( 'NONE', #517, 22.50000000000000355 ) ;
#263 = EDGE_LOOP ( 'NONE', ( #524, #112 ) ) ;
#264 = CIRCLE ( 'NONE', #421, 24.50000000000000000 ) ;
#265 = CARTESIAN_POINT ( 'NONE',  ( 24.50000000000000000, 0.000000000000000000, 6.799999999999999822 ) ) ;
#266 = ORIENTED_EDGE ( 'NONE', *, *, #497, .F. ) ;
#267 = ADVANCED_FACE ( 'NONE', ( #428, #290 ), #475, .F. ) ;
#268 = AXIS2_PLACEMENT_3D ( 'NONE', #458, #224, #234 ) ;
#269 = CARTESIAN_POINT ( 'NONE',  ( 27.00000000000000000, 0.000000000000000000, 6.999999999999999112 ) ) ;
#270 = VERTEX_POINT ( 'NONE', #301 ) ;
#271 = EDGE_CURVE ( 'NONE', #394, #168, #182, .T. ) ;
#272 = ADVANCED_FACE ( 'NONE', ( #356, #124 ), #260, .T. ) ;
#273 = ORIENTED_EDGE ( 'NONE', *, *, #8, .F. ) ;
#274 = AXIS2_PLACEMENT_3D ( 'NONE', #158, #73, #244 ) ;
#275 = ADVANCED_FACE ( 'NONE', ( #129 ), #582, .T. ) ;
#276 = EDGE_LOOP ( 'NONE', ( #282, #496, #521, #355 ) ) ;
#277 = FACE_OUTER_BOUND ( 'NONE', #422, .T. ) ;
#278 = VERTEX_POINT ( 'NONE', #401 ) ;
#279 = CARTESIAN_POINT ( 'NONE',  ( -27.00000000000000000, 0.000000000000000000, 0.2000000000000000111 ) ) ;
#280 =( GEOMETRIC_REPRESENTATION_CONTEXT ( 3 ) GLOBAL_UNCERTAINTY_ASSIGNED_CONTEXT ( ( #419 ) ) GLOBAL_UNIT_ASSIGNED_CONTEXT ( ( #528, #389, #350 ) ) REPRESENTATION_CONTEXT ( 'NONE', 'WORKASPACE' ) );
#281 = CARTESIAN_POINT ( 'NONE',  ( -24.50000000000000000, 3.000384657911015469E-15, 6.999999999999999112 ) ) ;
#282 = ORIENTED_EDGE ( 'NONE', *, *, #558, .F. ) ;
#283 = LINE ( 'NONE', #279, #236 ) ;
#284 = CARTESIAN_POINT ( 'NONE',  ( 0.000000000000000000, 0.000000000000000000, 6.799999999999999822 ) ) ;
#285 = AXIS2_PLACEMENT_3D ( 'NONE', #43, #175, #359 ) ;
#286 = AXIS2_PLACEMENT_3D ( 'NONE', #98, #414, #412 ) ;
#287 = CARTESIAN_POINT ( 'NONE',  ( 0.000000000000000000, 0.000000000000000000, 1.500000000000000000 ) ) ;
#288 = VERTEX_POINT ( 'NONE', #167 ) ;
#289 = DIRECTION ( 'NONE',  ( -0.000000000000000000, -0.000000000000000000, 1.000000000000000000 ) ) ;
#290 = FACE_OUTER_BOUND ( 'NONE', #263, .T. ) ;
#291 = ORIENTED_EDGE ( 'NONE', *, *, #335, .T. ) ;
#292 = CARTESIAN_POINT ( 'NONE',  ( -24.50000000000000000, 0.000000000000000000, 0.000000000000000000 ) ) ;
#293 = EDGE_LOOP ( 'NONE', ( #155, #219 ) ) ;
#294 = DIRECTION ( 'NONE',  ( 1.000000000000000000, 0.000000000000000000, 0.000000000000000000 ) ) ;
#295 = CIRCLE ( 'NONE', #405, 30.50000000000000000 ) ;
#296 = CARTESIAN_POINT ( 'NONE',  ( 0.000000000000000000, 0.000000000000000000, 1.500000000000000000 ) ) ;
#297 = CARTESIAN_POINT ( 'NONE',  ( 0.000000000000000000, 0.000000000000000000, 1.500000000000000000 ) ) ;
#298 = ORIENTED_EDGE ( 'NONE', *, *, #457, .F. ) ;
#299 = DIRECTION ( 'NONE',  ( 0.000000000000000000, 0.000000000000000000, -1.000000000000000000 ) ) ;
#300 = ORIENTED_EDGE ( 'NONE', *, *, #396, .F. ) ;
#301 = CARTESIAN_POINT ( 'NONE',  ( -30.50000000000000000, 0.000000000000000000, 0.000000000000000000 ) ) ;
#302 = ORIENTED_EDGE ( 'NONE', *, *, #27, .F. ) ;
#303 = FACE_OUTER_BOUND ( 'NONE', #330, .T. ) ;
#304 = EDGE_LOOP ( 'NONE', ( #74, #347 ) ) ;
#305 = ADVANCED_FACE ( 'NONE', ( #86, #532 ), #500, .T. ) ;
#306 = CARTESIAN_POINT ( 'NONE',  ( -24.50000000000000000, 0.000000000000000000, 0.2000000000000000111 ) ) ;
#307 = ORIENTED_EDGE ( 'NONE', *, *, #109, .T. ) ;
#308 = AXIS2_PLACEMENT_3D ( 'NONE', #204, #160, #22 ) ;
#309 = CIRCLE ( 'NONE', #50, 30.50000000000000000 ) ;
#310 = DIRECTION ( 'NONE',  ( 0.000000000000000000, 0.000000000000000000, 1.000000000000000000 ) ) ;
#311 = ORIENTED_EDGE ( 'NONE', *, *, #100, .T. ) ;
#312 = CIRCLE ( 'NONE', #58, 22.50000000000000355 ) ;
#313 = DIRECTION ( 'NONE',  ( 1.000000000000000000, 0.000000000000000000, 0.000000000000000000 ) ) ;
#314 = EDGE_LOOP ( 'NONE', ( #589, #172, #80, #184 ) ) ;
#315 = AXIS2_PLACEMENT_3D ( 'NONE', #141, #598, #546 ) ;
#316 = PLANE ( 'NONE',  #14 ) ;
#317 = VERTEX_POINT ( 'NONE', #306 ) ;
#318 = FACE_BOUND ( 'NONE', #186, .T. ) ;
#319 = LINE ( 'NONE', #506, #353 ) ;
#320 = VECTOR ( 'NONE', #531, 1000.000000000000000 ) ;
#321 = DIRECTION ( 'NONE',  ( 0.000000000000000000, 0.000000000000000000, 1.000000000000000000 ) ) ;
#322 = FACE_OUTER_BOUND ( 'NONE', #276, .T. ) ;
#323 = DIRECTION ( 'NONE',  ( 0.000000000000000000, 0.000000000000000000, 1.000000000000000000 ) ) ;
#324 = CARTESIAN_POINT ( 'NONE',  ( 27.00000000000000000, 0.000000000000000000, 6.799999999999999822 ) ) ;
#325 = ADVANCED_FACE ( 'NONE', ( #76, #492 ), #171, .F. ) ;
#326 = AXIS2_PLACEMENT_3D ( 'NONE', #514, #413, #10 ) ;
#327 = DIRECTION ( 'NONE',  ( 1.000000000000000000, 0.000000000000000000, 0.000000000000000000 ) ) ;
#328 = MECHANICAL_DESIGN_GEOMETRIC_PRESENTATION_REPRESENTATION (  '', ( #578 ), #425 ) ;
#329 = CARTESIAN_POINT ( 'NONE',  ( 29.00000000000000000, 3.551475717527324030E-15, 6.999999999999999112 ) ) ;
#330 = EDGE_LOOP ( 'NONE', ( #583, #518, #133, #592 ) ) ;
#331 = DIRECTION ( 'NONE',  ( -0.000000000000000000, -0.000000000000000000, -1.000000000000000000 ) ) ;
#332 = ADVANCED_FACE ( 'NONE', ( #446 ), #262, .F. ) ;
#333 = CYLINDRICAL_SURFACE ( 'NONE', #502, 30.50000000000000000 ) ;
#334 = ADVANCED_BREP_SHAPE_REPRESENTATION ( '\X2\680751c64ef6\X0\-F6809A', ( #358, #391 ), #280 ) ;
#335 = EDGE_CURVE ( 'NONE', #440, #54, #541, .T. ) ;
#336 = CIRCLE ( 'NONE', #568, 29.00000000000000000 ) ;
#337 = CARTESIAN_POINT ( 'NONE',  ( -22.50000000000000355, 0.000000000000000000, 1.500000000000000000 ) ) ;
#338 = VERTEX_POINT ( 'NONE', #128 ) ;
#339 = APPLICATION_PROTOCOL_DEFINITION ( 'draft international standard', 'automotive_design', 1998, #197 ) ;
#340 = CARTESIAN_POINT ( 'NONE',  ( 0.000000000000000000, 0.000000000000000000, 6.799999999999999822 ) ) ;
#341 = DIRECTION ( 'NONE',  ( 1.000000000000000000, 0.000000000000000000, 0.000000000000000000 ) ) ;
#342 = EDGE_CURVE ( 'NONE', #402, #21, #163, .T. ) ;
#343 = AXIS2_PLACEMENT_3D ( 'NONE', #217, #123, #82 ) ;
#344 = AXIS2_PLACEMENT_3D ( 'NONE', #595, #538, #494 ) ;
#345 = FACE_OUTER_BOUND ( 'NONE', #293, .T. ) ;
#346 = CIRCLE ( 'NONE', #519, 24.50000000000000000 ) ;
#347 = ORIENTED_EDGE ( 'NONE', *, *, #38, .T. ) ;
#348 = DIRECTION ( 'NONE',  ( 0.000000000000000000, 0.000000000000000000, 1.000000000000000000 ) ) ;
#349 = CARTESIAN_POINT ( 'NONE',  ( 0.000000000000000000, 0.000000000000000000, 0.2000000000000000111 ) ) ;
#350 =( NAMED_UNIT ( * ) SI_UNIT ( $, .STERADIAN. ) SOLID_ANGLE_UNIT ( ) );
#351 = EDGE_CURVE ( 'NONE', #249, #489, #455, .T. ) ;
#352 = CARTESIAN_POINT ( 'NONE',  ( 0.000000000000000000, 0.000000000000000000, 1.500000000000000000 ) ) ;
#353 = VECTOR ( 'NONE', #95, 1000.000000000000000 ) ;
#354 = CIRCLE ( 'NONE', #274, 24.50000000000000000 ) ;
#355 = ORIENTED_EDGE ( 'NONE', *, *, #539, .T. ) ;
#356 = FACE_BOUND ( 'NONE', #241, .T. ) ;
#357 = EDGE_LOOP ( 'NONE', ( #119, #19 ) ) ;
#358 = MANIFOLD_SOLID_BREP ( '\X2\52079664\X0\-\X2\62c94f38\X0\3', #131 ) ;
#359 = DIRECTION ( 'NONE',  ( 1.000000000000000000, 0.000000000000000000, -0.000000000000000000 ) ) ;
#360 = ORIENTED_EDGE ( 'NONE', *, *, #342, .F. ) ;
#361 = AXIS2_PLACEMENT_3D ( 'NONE', #510, #321, #61 ) ;
#362 = CARTESIAN_POINT ( 'NONE',  ( 0.000000000000000000, 0.000000000000000000, 6.999999999999999112 ) ) ;
#363 = ORIENTED_EDGE ( 'NONE', *, *, #48, .T. ) ;
#364 = ADVANCED_FACE ( 'NONE', ( #96 ), #32, .T. ) ;
#365 = PRODUCT ( '\X2\680751c64ef6\X0\-F6809A', '\X2\680751c64ef6\X0\-F6809A', '', ( #113 ) ) ;
#366 = DIRECTION ( 'NONE',  ( -0.000000000000000000, -0.000000000000000000, 1.000000000000000000 ) ) ;
#367 = EDGE_CURVE ( 'NONE', #483, #440, #579, .T. ) ;
#368 = AXIS2_PLACEMENT_3D ( 'NONE', #426, #564, #560 ) ;
#369 = EDGE_CURVE ( 'NONE', #451, #261, #188, .T. ) ;
#370 = DIRECTION ( 'NONE',  ( -0.000000000000000000, -0.000000000000000000, -1.000000000000000000 ) ) ;
#371 = DIRECTION ( 'NONE',  ( -1.000000000000000000, 0.000000000000000000, 0.000000000000000000 ) ) ;
#372 = CYLINDRICAL_SURFACE ( 'NONE', #286, 29.00000000000000000 ) ;
#373 = DIRECTION ( 'NONE',  ( -0.000000000000000000, -0.000000000000000000, 1.000000000000000000 ) ) ;
#374 = CIRCLE ( 'NONE', #553, 29.00000000000000000 ) ;
#375 = DIRECTION ( 'NONE',  ( 0.000000000000000000, 0.000000000000000000, 1.000000000000000000 ) ) ;
#376 = CYLINDRICAL_SURFACE ( 'NONE', #254, 29.00000000000000000 ) ;
#377 = CARTESIAN_POINT ( 'NONE',  ( 22.50000000000000355, 2.755455298081545172E-15, 0.000000000000000000 ) ) ;
#378 = CARTESIAN_POINT ( 'NONE',  ( 0.000000000000000000, 0.000000000000000000, 1.500000000000000000 ) ) ;
#379 = EDGE_CURVE ( 'NONE', #168, #394, #166, .T. ) ;
#380 = FACE_OUTER_BOUND ( 'NONE', #108, .T. ) ;
#381 = CYLINDRICAL_SURFACE ( 'NONE', #478, 27.00000000000000000 ) ;
#382 = ADVANCED_FACE ( 'NONE', ( #277 ), #372, .T. ) ;
#383 = CARTESIAN_POINT ( 'NONE',  ( -22.50000000000000355, 0.000000000000000000, 0.000000000000000000 ) ) ;
#384 = FACE_BOUND ( 'NONE', #357, .T. ) ;
#385 = VERTEX_POINT ( 'NONE', #230 ) ;
#386 = CYLINDRICAL_SURFACE ( 'NONE', #567, 27.00000000000000000 ) ;
#387 = CARTESIAN_POINT ( 'NONE',  ( -27.00000000000000000, 3.306546357697853733E-15, 6.799999999999999822 ) ) ;
#388 = VERTEX_POINT ( 'NONE', #281 ) ;
#389 =( NAMED_UNIT ( * ) PLANE_ANGLE_UNIT ( ) SI_UNIT ( $, .RADIAN. ) );
#390 = DIRECTION ( 'NONE',  ( -0.000000000000000000, -0.000000000000000000, -1.000000000000000000 ) ) ;
#391 = AXIS2_PLACEMENT_3D ( 'NONE', #165, #484, #253 ) ;
#392 = DIRECTION ( 'NONE',  ( 0.000000000000000000, 0.000000000000000000, -1.000000000000000000 ) ) ;
#393 = EDGE_CURVE ( 'NONE', #388, #54, #107, .T. ) ;
#394 = VERTEX_POINT ( 'NONE', #549 ) ;
#395 = CARTESIAN_POINT ( 'NONE',  ( 0.000000000000000000, 0.000000000000000000, 1.500000000000000000 ) ) ;
#396 = EDGE_CURVE ( 'NONE', #317, #288, #346, .T. ) ;
#397 = DIRECTION ( 'NONE',  ( 1.000000000000000000, 0.000000000000000000, 0.000000000000000000 ) ) ;
#398 = ORIENTED_EDGE ( 'NONE', *, *, #477, .T. ) ;
#399 = CIRCLE ( 'NONE', #60, 27.00000000000000000 ) ;
#400 = ORIENTED_EDGE ( 'NONE', *, *, #31, .T. ) ;
#401 = CARTESIAN_POINT ( 'NONE',  ( 27.00000000000000000, 3.306546357697853733E-15, 0.000000000000000000 ) ) ;
#402 = VERTEX_POINT ( 'NONE', #269 ) ;
#403 = DIRECTION ( 'NONE',  ( -0.000000000000000000, -0.000000000000000000, 1.000000000000000000 ) ) ;
#404 = ORIENTED_EDGE ( 'NONE', *, *, #115, .T. ) ;
#405 = AXIS2_PLACEMENT_3D ( 'NONE', #208, #534, #577 ) ;
#406 = ADVANCED_FACE ( 'NONE', ( #318, #185 ), #316, .T. ) ;
#407 = CARTESIAN_POINT ( 'NONE',  ( 0.000000000000000000, 0.000000000000000000, 0.2000000000000000111 ) ) ;
#408 = ORIENTED_EDGE ( 'NONE', *, *, #16, .F. ) ;
#409 = FILL_AREA_STYLE ('',( #222 ) ) ;
#410 = CARTESIAN_POINT ( 'NONE',  ( 0.000000000000000000, 0.000000000000000000, 6.999999999999999112 ) ) ;
#411 = EDGE_LOOP ( 'NONE', ( #87, #307, #533, #302 ) ) ;
#412 = DIRECTION ( 'NONE',  ( -1.000000000000000000, 0.000000000000000000, 0.000000000000000000 ) ) ;
#413 = DIRECTION ( 'NONE',  ( 0.000000000000000000, 0.000000000000000000, 1.000000000000000000 ) ) ;
#414 = DIRECTION ( 'NONE',  ( -0.000000000000000000, -0.000000000000000000, -1.000000000000000000 ) ) ;
#415 = LINE ( 'NONE', #337, #507 ) ;
#416 = VECTOR ( 'NONE', #366, 1000.000000000000000 ) ;
#417 = EDGE_CURVE ( 'NONE', #587, #501, #2, .T. ) ;
#418 = DIRECTION ( 'NONE',  ( 1.000000000000000000, 0.000000000000000000, 0.000000000000000000 ) ) ;
#419 = UNCERTAINTY_MEASURE_WITH_UNIT (LENGTH_MEASURE( 1.000000000000000082E-05 ), #528, 'distance_accuracy_value', 'NONE');
#420 = DIRECTION ( 'NONE',  ( 0.000000000000000000, 0.000000000000000000, 1.000000000000000000 ) ) ;
#421 = AXIS2_PLACEMENT_3D ( 'NONE', #449, #36, #590 ) ;
#422 = EDGE_LOOP ( 'NONE', ( #256, #493, #211, #298 ) ) ;
#423 = AXIS2_PLACEMENT_3D ( 'NONE', #215, #310, #37 ) ;
#424 = DIRECTION ( 'NONE',  ( 0.000000000000000000, 0.000000000000000000, -1.000000000000000000 ) ) ;
#425 =( GEOMETRIC_REPRESENTATION_CONTEXT ( 3 ) GLOBAL_UNCERTAINTY_ASSIGNED_CONTEXT ( ( #7 ) ) GLOBAL_UNIT_ASSIGNED_CONTEXT ( ( #79, #588, #135 ) ) REPRESENTATION_CONTEXT ( 'NONE', 'WORKASPACE' ) );
#426 = CARTESIAN_POINT ( 'NONE',  ( 0.000000000000000000, 0.000000000000000000, 6.999999999999999112 ) ) ;
#427 = CARTESIAN_POINT ( 'NONE',  ( 0.000000000000000000, 0.000000000000000000, 0.000000000000000000 ) ) ;
#428 = FACE_BOUND ( 'NONE', #459, .T. ) ;
#429 = ORIENTED_EDGE ( 'NONE', *, *, #396, .T. ) ;
#430 = AXIS2_PLACEMENT_3D ( 'NONE', #297, #482, #206 ) ;
#431 = CARTESIAN_POINT ( 'NONE',  ( 0.000000000000000000, 0.000000000000000000, 0.000000000000000000 ) ) ;
#432 = ORIENTED_EDGE ( 'NONE', *, *, #393, .T. ) ;
#433 = CARTESIAN_POINT ( 'NONE',  ( 27.00000000000000000, 3.306546357697853733E-15, 0.2000000000000000111 ) ) ;
#434 = LINE ( 'NONE', #15, #161 ) ;
#435 = DIRECTION ( 'NONE',  ( -1.000000000000000000, 0.000000000000000000, 0.000000000000000000 ) ) ;
#436 = ORIENTED_EDGE ( 'NONE', *, *, #81, .T. ) ;
#437 = LINE ( 'NONE', #433, #320 ) ;
#438 = ADVANCED_FACE ( 'NONE', ( #139 ), #333, .T. ) ;
#439 = DIRECTION ( 'NONE',  ( 0.000000000000000000, 0.000000000000000000, 1.000000000000000000 ) ) ;
#440 = VERTEX_POINT ( 'NONE', #68 ) ;
#441 = DIRECTION ( 'NONE',  ( -0.000000000000000000, -0.000000000000000000, -1.000000000000000000 ) ) ;
#442 = ORIENTED_EDGE ( 'NONE', *, *, #42, .F. ) ;
#443 = APPLICATION_PROTOCOL_DEFINITION ( 'draft international standard', 'automotive_design', 1998, #220 ) ;
#444 = PRESENTATION_STYLE_ASSIGNMENT (( #543 ) ) ;
#445 = VERTEX_POINT ( 'NONE', #383 ) ;
#446 = FACE_OUTER_BOUND ( 'NONE', #550, .T. ) ;
#447 = ORIENTED_EDGE ( 'NONE', *, *, #581, .T. ) ;
#448 = EDGE_CURVE ( 'NONE', #54, #388, #62, .T. ) ;
#449 = CARTESIAN_POINT ( 'NONE',  ( 0.000000000000000000, 0.000000000000000000, 0.000000000000000000 ) ) ;
#450 = DIRECTION ( 'NONE',  ( 0.000000000000000000, 0.000000000000000000, 1.000000000000000000 ) ) ;
#451 = VERTEX_POINT ( 'NONE', #110 ) ;
#452 = VECTOR ( 'NONE', #331, 1000.000000000000000 ) ;
#453 = CYLINDRICAL_SURFACE ( 'NONE', #343, 24.50000000000000000 ) ;
#454 = ADVANCED_FACE ( 'NONE', ( #28 ), #117, .F. ) ;
#455 = LINE ( 'NONE', #47, #1 ) ;
#456 = ORIENTED_EDGE ( 'NONE', *, *, #367, .T. ) ;
#457 = EDGE_CURVE ( 'NONE', #451, #93, #434, .T. ) ;
#458 = CARTESIAN_POINT ( 'NONE',  ( 0.000000000000000000, 0.000000000000000000, 6.799999999999999822 ) ) ;
#459 = EDGE_LOOP ( 'NONE', ( #599, #363 ) ) ;
#460 = DIRECTION ( 'NONE',  ( -0.000000000000000000, -0.000000000000000000, -1.000000000000000000 ) ) ;
#461 = VECTOR ( 'NONE', #20, 1000.000000000000000 ) ;
#462 = AXIS2_PLACEMENT_3D ( 'NONE', #251, #17, #120 ) ;
#463 = CARTESIAN_POINT ( 'NONE',  ( 0.000000000000000000, 0.000000000000000000, 6.799999999999999822 ) ) ;
#464 = ORIENTED_EDGE ( 'NONE', *, *, #417, .T. ) ;
#465 = ADVANCED_FACE ( 'NONE', ( #201 ), #570, .T. ) ;
#466 = LINE ( 'NONE', #140, #416 ) ;
#467 = ORIENTED_EDGE ( 'NONE', *, *, #351, .T. ) ;
#468 = ADVANCED_FACE ( 'NONE', ( #303 ), #453, .T. ) ;
#469 = DIRECTION ( 'NONE',  ( 1.000000000000000000, 0.000000000000000000, 0.000000000000000000 ) ) ;
#470 = AXIS2_PLACEMENT_3D ( 'NONE', #407, #40, #313 ) ;
#471 = AXIS2_PLACEMENT_3D ( 'NONE', #410, #420, #554 ) ;
#472 = PLANE ( 'NONE',  #462 ) ;
#473 = ORIENTED_EDGE ( 'NONE', *, *, #393, .F. ) ;
#474 = DIRECTION ( 'NONE',  ( -1.000000000000000000, 0.000000000000000000, 0.000000000000000000 ) ) ;
#475 = PLANE ( 'NONE',  #344 ) ;
#476 = DIRECTION ( 'NONE',  ( 1.000000000000000000, 0.000000000000000000, 0.000000000000000000 ) ) ;
#477 = EDGE_CURVE ( 'NONE', #164, #203, #264, .T. ) ;
#478 = AXIS2_PLACEMENT_3D ( 'NONE', #150, #289, #481 ) ;
#479 = DIRECTION ( 'NONE',  ( -0.000000000000000000, -0.000000000000000000, -1.000000000000000000 ) ) ;
#480 = EDGE_LOOP ( 'NONE', ( #180, #432 ) ) ;
#481 = DIRECTION ( 'NONE',  ( 1.000000000000000000, 0.000000000000000000, 0.000000000000000000 ) ) ;
#482 = DIRECTION ( 'NONE',  ( 0.000000000000000000, 0.000000000000000000, 1.000000000000000000 ) ) ;
#483 = VERTEX_POINT ( 'NONE', #485 ) ;
#484 = DIRECTION ( 'NONE',  ( 0.000000000000000000, 0.000000000000000000, 1.000000000000000000 ) ) ;
#485 = CARTESIAN_POINT ( 'NONE',  ( -24.50000000000000000, 3.000384657911015469E-15, 6.799999999999999822 ) ) ;
#486 = LINE ( 'NONE', #151, #535 ) ;
#487 = ORIENTED_EDGE ( 'NONE', *, *, #497, .T. ) ;
#488 = CIRCLE ( 'NONE', #192, 22.50000000000000355 ) ;
#489 = VERTEX_POINT ( 'NONE', #46 ) ;
#490 = SURFACE_SIDE_STYLE ('',( #178 ) ) ;
#491 = EDGE_LOOP ( 'NONE', ( #235, #544, #487, #159 ) ) ;
#492 = FACE_BOUND ( 'NONE', #177, .T. ) ;
#493 = ORIENTED_EDGE ( 'NONE', *, *, #558, .T. ) ;
#494 = DIRECTION ( 'NONE',  ( 1.000000000000000000, 0.000000000000000000, -0.000000000000000000 ) ) ;
#495 = EDGE_CURVE ( 'NONE', #440, #483, #187, .T. ) ;
#496 = ORIENTED_EDGE ( 'NONE', *, *, #369, .F. ) ;
#497 = EDGE_CURVE ( 'NONE', #394, #338, #283, .T. ) ;
#498 = AXIS2_PLACEMENT_3D ( 'NONE', #157, #190, #214 ) ;
#499 = AXIS2_PLACEMENT_3D ( 'NONE', #362, #83, #89 ) ;
#500 = PLANE ( 'NONE',  #423 ) ;
#501 = VERTEX_POINT ( 'NONE', #377 ) ;
#502 = AXIS2_PLACEMENT_3D ( 'NONE', #378, #59, #104 ) ;
#503 = ADVANCED_FACE ( 'NONE', ( #103 ), #381, .F. ) ;
#504 = DIRECTION ( 'NONE',  ( 0.000000000000000000, 0.000000000000000000, 1.000000000000000000 ) ) ;
#505 = CARTESIAN_POINT ( 'NONE',  ( 22.50000000000000355, 2.755455298081545172E-15, 1.500000000000000000 ) ) ;
#506 = CARTESIAN_POINT ( 'NONE',  ( -24.50000000000000000, 0.000000000000000000, 0.2000000000000000111 ) ) ;
#507 = VECTOR ( 'NONE', #575, 1000.000000000000000 ) ;
#508 = CIRCLE ( 'NONE', #430, 30.50000000000000000 ) ;
#509 = CARTESIAN_POINT ( 'NONE',  ( 0.000000000000000000, 0.000000000000000000, 6.799999999999999822 ) ) ;
#510 = CARTESIAN_POINT ( 'NONE',  ( 0.000000000000000000, 0.000000000000000000, 0.000000000000000000 ) ) ;
#511 = EDGE_CURVE ( 'NONE', #49, #93, #374, .T. ) ;
#512 = EDGE_CURVE ( 'NONE', #489, #270, #65, .T. ) ;
#513 = CARTESIAN_POINT ( 'NONE',  ( 0.000000000000000000, 0.000000000000000000, 6.999999999999999112 ) ) ;
#514 = CARTESIAN_POINT ( 'NONE',  ( 0.000000000000000000, 0.000000000000000000, 0.000000000000000000 ) ) ;
#515 = CIRCLE ( 'NONE', #75, 27.00000000000000000 ) ;
#516 = CARTESIAN_POINT ( 'NONE',  ( 27.00000000000000000, 0.000000000000000000, 6.799999999999999822 ) ) ;
#517 = AXIS2_PLACEMENT_3D ( 'NONE', #352, #132, #218 ) ;
#518 = ORIENTED_EDGE ( 'NONE', *, *, #16, .T. ) ;
#519 = AXIS2_PLACEMENT_3D ( 'NONE', #145, #323, #551 ) ;
#520 = CARTESIAN_POINT ( 'NONE',  ( 0.000000000000000000, 0.000000000000000000, 6.999999999999999112 ) ) ;
#521 = ORIENTED_EDGE ( 'NONE', *, *, #457, .T. ) ;
#522 = CARTESIAN_POINT ( 'NONE',  ( -30.50000000000000000, 0.000000000000000000, 1.500000000000000000 ) ) ;
#523 = EDGE_CURVE ( 'NONE', #270, #489, #295, .T. ) ;
#524 = ORIENTED_EDGE ( 'NONE', *, *, #523, .F. ) ;
#525 = AXIS2_PLACEMENT_3D ( 'NONE', #395, #169, #341 ) ;
#526 = CARTESIAN_POINT ( 'NONE',  ( 0.000000000000000000, 0.000000000000000000, 0.2000000000000000111 ) ) ;
#527 = PRODUCT_DEFINITION_SHAPE ( 'NONE', 'NONE',  #209 ) ;
#528 =( LENGTH_UNIT ( ) NAMED_UNIT ( * ) SI_UNIT ( .MILLI., .METRE. ) );
#529 = DIRECTION ( 'NONE',  ( 1.000000000000000000, 0.000000000000000000, -0.000000000000000000 ) ) ;
#530 = ORIENTED_EDGE ( 'NONE', *, *, #271, .T. ) ;
#531 = DIRECTION ( 'NONE',  ( 0.000000000000000000, 0.000000000000000000, -1.000000000000000000 ) ) ;
#532 = FACE_OUTER_BOUND ( 'NONE', #304, .T. ) ;
#533 = ORIENTED_EDGE ( 'NONE', *, *, #92, .T. ) ;
#534 = DIRECTION ( 'NONE',  ( 0.000000000000000000, 0.000000000000000000, 1.000000000000000000 ) ) ;
#535 = VECTOR ( 'NONE', #479, 1000.000000000000000 ) ;
#536 = DIRECTION ( 'NONE',  ( 0.000000000000000000, 0.000000000000000000, -1.000000000000000000 ) ) ;
#537 = ORIENTED_EDGE ( 'NONE', *, *, #170, .T. ) ;
#538 = DIRECTION ( 'NONE',  ( 0.000000000000000000, 0.000000000000000000, 1.000000000000000000 ) ) ;
#539 = EDGE_CURVE ( 'NONE', #93, #49, #44, .T. ) ;
#540 = EDGE_LOOP ( 'NONE', ( #213, #57 ) ) ;
#541 = LINE ( 'NONE', #265, #258 ) ;
#542 = ORIENTED_EDGE ( 'NONE', *, *, #233, .F. ) ;
#543 = SURFACE_STYLE_USAGE ( .BOTH. , #490 ) ;
#544 = ORIENTED_EDGE ( 'NONE', *, *, #379, .T. ) ;
#545 = AXIS2_PLACEMENT_3D ( 'NONE', #586, #450, #591 ) ;
#546 = DIRECTION ( 'NONE',  ( 1.000000000000000000, 0.000000000000000000, 0.000000000000000000 ) ) ;
#547 = EDGE_LOOP ( 'NONE', ( #360, #121 ) ) ;
#548 = AXIS2_PLACEMENT_3D ( 'NONE', #463, #556, #52 ) ;
#549 = CARTESIAN_POINT ( 'NONE',  ( -27.00000000000000000, 0.000000000000000000, 0.2000000000000000111 ) ) ;
#550 = EDGE_LOOP ( 'NONE', ( #33, #464, #39, #144 ) ) ;
#551 = DIRECTION ( 'NONE',  ( 1.000000000000000000, 0.000000000000000000, 0.000000000000000000 ) ) ;
#552 = CARTESIAN_POINT ( 'NONE',  ( 0.000000000000000000, 0.000000000000000000, 6.999999999999999112 ) ) ;
#553 = AXIS2_PLACEMENT_3D ( 'NONE', #71, #348, #476 ) ;
#554 = DIRECTION ( 'NONE',  ( 1.000000000000000000, 0.000000000000000000, 0.000000000000000000 ) ) ;
#555 = EDGE_LOOP ( 'NONE', ( #55, #300, #207, #398 ) ) ;
#556 = DIRECTION ( 'NONE',  ( -0.000000000000000000, -0.000000000000000000, 1.000000000000000000 ) ) ;
#557 = DIRECTION ( 'NONE',  ( 1.000000000000000000, 0.000000000000000000, 0.000000000000000000 ) ) ;
#558 = EDGE_CURVE ( 'NONE', #261, #49, #573, .T. ) ;
#559 = DIRECTION ( 'NONE',  ( 0.000000000000000000, 0.000000000000000000, 1.000000000000000000 ) ) ;
#560 = DIRECTION ( 'NONE',  ( 1.000000000000000000, 0.000000000000000000, 0.000000000000000000 ) ) ;
#561 = DIRECTION ( 'NONE',  ( 1.000000000000000000, 0.000000000000000000, 0.000000000000000000 ) ) ;
#562 = EDGE_LOOP ( 'NONE', ( #576, #138, #572, #13 ) ) ;
#563 = DIRECTION ( 'NONE',  ( 0.000000000000000000, 0.000000000000000000, -1.000000000000000000 ) ) ;
#564 = DIRECTION ( 'NONE',  ( 0.000000000000000000, 0.000000000000000000, 1.000000000000000000 ) ) ;
#565 = FACE_OUTER_BOUND ( 'NONE', #562, .T. ) ;
#566 = EDGE_LOOP ( 'NONE', ( #259, #245 ) ) ;
#567 = AXIS2_PLACEMENT_3D ( 'NONE', #26, #563, #126 ) ;
#568 = AXIS2_PLACEMENT_3D ( 'NONE', #5, #232, #99 ) ;
#569 = EDGE_CURVE ( 'NONE', #84, #587, #312, .T. ) ;
#570 = CYLINDRICAL_SURFACE ( 'NONE', #498, 24.50000000000000000 ) ;
#571 = CYLINDRICAL_SURFACE ( 'NONE', #193, 27.00000000000000000 ) ;
#572 = ORIENTED_EDGE ( 'NONE', *, *, #8, .T. ) ;
#573 = LINE ( 'NONE', #67, #452 ) ;
#574 = AXIS2_PLACEMENT_3D ( 'NONE', #296, #390, #474 ) ;
#575 = DIRECTION ( 'NONE',  ( -0.000000000000000000, -0.000000000000000000, -1.000000000000000000 ) ) ;
#576 = ORIENTED_EDGE ( 'NONE', *, *, #100, .F. ) ;
#577 = DIRECTION ( 'NONE',  ( 1.000000000000000000, 0.000000000000000000, 0.000000000000000000 ) ) ;
#578 = STYLED_ITEM ( 'NONE', ( #444 ), #358 ) ;
#579 = CIRCLE ( 'NONE', #268, 24.50000000000000000 ) ;
#580 = DIRECTION ( 'NONE',  ( 0.000000000000000000, 0.000000000000000000, 1.000000000000000000 ) ) ;
#581 = EDGE_CURVE ( 'NONE', #168, #278, #437, .T. ) ;
#582 = CYLINDRICAL_SURFACE ( 'NONE', #34, 24.50000000000000000 ) ;
#583 = ORIENTED_EDGE ( 'NONE', *, *, #495, .T. ) ;
#584 = ADVANCED_FACE ( 'NONE', ( #153 ), #386, .F. ) ;
#585 = DIRECTION ( 'NONE',  ( 1.000000000000000000, 0.000000000000000000, 0.000000000000000000 ) ) ;
#586 = CARTESIAN_POINT ( 'NONE',  ( 0.000000000000000000, 0.000000000000000000, 1.500000000000000000 ) ) ;
#587 = VERTEX_POINT ( 'NONE', #122 ) ;
#588 =( NAMED_UNIT ( * ) PLANE_ANGLE_UNIT ( ) SI_UNIT ( $, .RADIAN. ) );
#589 = ORIENTED_EDGE ( 'NONE', *, *, #170, .F. ) ;
#590 = DIRECTION ( 'NONE',  ( 1.000000000000000000, 0.000000000000000000, 0.000000000000000000 ) ) ;
#591 = DIRECTION ( 'NONE',  ( 1.000000000000000000, 0.000000000000000000, -0.000000000000000000 ) ) ;
#592 = ORIENTED_EDGE ( 'NONE', *, *, #335, .F. ) ;
#593 = CARTESIAN_POINT ( 'NONE',  ( 0.000000000000000000, 0.000000000000000000, 6.799999999999999822 ) ) ;
#594 = EDGE_CURVE ( 'NONE', #21, #402, #72, .T. ) ;
#595 = CARTESIAN_POINT ( 'NONE',  ( 0.000000000000000000, 0.000000000000000000, 0.000000000000000000 ) ) ;
#596 = CIRCLE ( 'NONE', #361, 22.50000000000000355 ) ;
#597 = ORIENTED_EDGE ( 'NONE', *, *, #31, .F. ) ;
#598 = DIRECTION ( 'NONE',  ( 0.000000000000000000, 0.000000000000000000, 1.000000000000000000 ) ) ;
#599 = ORIENTED_EDGE ( 'NONE', *, *, #237, .T. ) ;
ENDSEC;
END-ISO-10303-21;
