ISO-10303-21;
HEADER;
FILE_DESCRIPTION (( 'STEP AP214' ),
    '1' );
FILE_NAME ('±ê×¼¼þ-ÂÁÖùm3-40A.STEP',
    '2026-08-16T17:26:55',
    ( '' ),
    ( '' ),
    'SwSTEP 2.0',
    'SolidWorks 2025',
    '' );
FILE_SCHEMA (( 'AUTOMOTIVE_DESIGN' ));
ENDSEC;

DATA;
#1 = FACE_BOUND ( 'NONE', #105, .T. ) ;
#2 = ORIENTED_EDGE ( 'NONE', *, *, #179, .T. ) ;
#3 = AXIS2_PLACEMENT_3D ( 'NONE', #175, #173, #140 ) ;
#4 = DIRECTION ( 'NONE',  ( -1.000000000000000000, 0.000000000000000000, 0.000000000000000000 ) ) ;
#5 = CARTESIAN_POINT ( 'NONE',  ( 0.000000000000000000, 0.000000000000000000, 40.00000000000000000 ) ) ;
#6 = DIRECTION ( 'NONE',  ( 0.000000000000000000, 0.000000000000000000, 1.000000000000000000 ) ) ;
#7 = COLOUR_RGB ( '',0.7921568627450980005, 0.8196078431372548767, 0.9333333333333333481 ) ;
#8 = CARTESIAN_POINT ( 'NONE',  ( 0.000000000000000000, 0.000000000000000000, 40.00000000000000000 ) ) ;
#9 = VERTEX_POINT ( 'NONE', #18 ) ;
#10 = PRODUCT_DEFINITION ( 'æ™', '', #187, #21 ) ;
#11 = EDGE_LOOP ( 'NONE', ( #153, #28, #30, #27 ) ) ;
#12 = EDGE_LOOP ( 'NONE', ( #89, #2, #95, #43 ) ) ;
#13 = AXIS2_PLACEMENT_3D ( 'NONE', #130, #128, #145 ) ;
#14 = CARTESIAN_POINT ( 'NONE',  ( -1.500000000000000222, 0.000000000000000000, 0.000000000000000000 ) ) ;
#15 = DIRECTION ( 'NONE',  ( 1.000000000000000000, 0.000000000000000000, -0.000000000000000000 ) ) ;
#16 = FACE_OUTER_BOUND ( 'NONE', #198, .T. ) ;
#17 = AXIS2_PLACEMENT_3D ( 'NONE', #139, #64, #15 ) ;
#18 = CARTESIAN_POINT ( 'NONE',  ( 1.500000000000000222, 1.836970198721030181E-16, 40.00000000000000000 ) ) ;
#19 = EDGE_LOOP ( 'NONE', ( #46, #31, #168, #83 ) ) ;
#20 = AXIS2_PLACEMENT_3D ( 'NONE', #25, #57, #67 ) ;
#21 = PRODUCT_DEFINITION_CONTEXT ( 'detailed design', #97, 'design' ) ;
#22 = LINE ( 'NONE', #132, #126 ) ;
#23 = CARTESIAN_POINT ( 'NONE',  ( 2.500000000000000000, 3.061616997868383141E-16, 40.00000000000000000 ) ) ;
#24 = DIRECTION ( 'NONE',  ( 0.000000000000000000, 0.000000000000000000, 1.000000000000000000 ) ) ;
#25 = CARTESIAN_POINT ( 'NONE',  ( 0.000000000000000000, 0.000000000000000000, 0.000000000000000000 ) ) ;
#26 = VECTOR ( 'NONE', #72, 1000.000000000000000 ) ;
#27 = ORIENTED_EDGE ( 'NONE', *, *, #157, .T. ) ;
#28 = ORIENTED_EDGE ( 'NONE', *, *, #58, .F. ) ;
#29 = ADVANCED_FACE ( 'NONE', ( #16 ), #109, .F. ) ;
#30 = ORIENTED_EDGE ( 'NONE', *, *, #196, .T. ) ;
#31 = ORIENTED_EDGE ( 'NONE', *, *, #131, .T. ) ;
#32 = DIRECTION ( 'NONE',  ( 0.000000000000000000, 0.000000000000000000, 1.000000000000000000 ) ) ;
#33 = ADVANCED_FACE ( 'NONE', ( #143 ), #84, .F. ) ;
#34 = PRESENTATION_LAYER_ASSIGNMENT (  '', '', ( #172 ) ) ;
#35 = DIRECTION ( 'NONE',  ( -0.000000000000000000, -0.000000000000000000, -1.000000000000000000 ) ) ;
#36 = ORIENTED_EDGE ( 'NONE', *, *, #185, .F. ) ;
#37 = CARTESIAN_POINT ( 'NONE',  ( 2.500000000000000000, 3.061616997868383141E-16, 40.00000000000000000 ) ) ;
#38 = DIRECTION ( 'NONE',  ( 1.000000000000000000, 0.000000000000000000, 0.000000000000000000 ) ) ;
#39 = DIRECTION ( 'NONE',  ( -0.000000000000000000, -0.000000000000000000, -1.000000000000000000 ) ) ;
#40 = ADVANCED_FACE ( 'NONE', ( #85 ), #125, .T. ) ;
#41 = CARTESIAN_POINT ( 'NONE',  ( 0.000000000000000000, 0.000000000000000000, 0.000000000000000000 ) ) ;
#42 = CARTESIAN_POINT ( 'NONE',  ( -2.500000000000000000, 0.000000000000000000, 40.00000000000000000 ) ) ;
#43 = ORIENTED_EDGE ( 'NONE', *, *, #196, .F. ) ;
#44 = AXIS2_PLACEMENT_3D ( 'NONE', #52, #189, #38 ) ;
#45 = MECHANICAL_DESIGN_GEOMETRIC_PRESENTATION_REPRESENTATION (  '', ( #172 ), #93 ) ;
#46 = ORIENTED_EDGE ( 'NONE', *, *, #79, .T. ) ;
#47 = CIRCLE ( 'NONE', #20, 2.500000000000000000 ) ;
#48 = ORIENTED_EDGE ( 'NONE', *, *, #88, .T. ) ;
#49 = DIRECTION ( 'NONE',  ( 1.000000000000000000, 0.000000000000000000, -0.000000000000000000 ) ) ;
#50 = CARTESIAN_POINT ( 'NONE',  ( -1.500000000000000222, 0.000000000000000000, 40.00000000000000000 ) ) ;
#51 = CARTESIAN_POINT ( 'NONE',  ( 0.000000000000000000, 0.000000000000000000, 40.00000000000000000 ) ) ;
#52 = CARTESIAN_POINT ( 'NONE',  ( 0.000000000000000000, 0.000000000000000000, 0.000000000000000000 ) ) ;
#53 = AXIS2_PLACEMENT_3D ( 'NONE', #8, #24, #86 ) ;
#54 = ADVANCED_BREP_SHAPE_REPRESENTATION ( '\X2\680751c64ef6\X0\-\X2\94dd67f1\X0\m3-40A', ( #183, #75 ), #161 ) ;
#55 = FILL_AREA_STYLE_COLOUR ( '', #7 ) ;
#56 =( NAMED_UNIT ( * ) SI_UNIT ( $, .STERADIAN. ) SOLID_ANGLE_UNIT ( ) );
#57 = DIRECTION ( 'NONE',  ( 0.000000000000000000, 0.000000000000000000, 1.000000000000000000 ) ) ;
#58 = EDGE_CURVE ( 'NONE', #167, #77, #195, .T. ) ;
#59 = CIRCLE ( 'NONE', #44, 1.500000000000000222 ) ;
#60 = ADVANCED_FACE ( 'NONE', ( #65, #186 ), #66, .T. ) ;
#61 = AXIS2_PLACEMENT_3D ( 'NONE', #169, #32, #96 ) ;
#62 = DIRECTION ( 'NONE',  ( -1.000000000000000000, 0.000000000000000000, 0.000000000000000000 ) ) ;
#63 = PLANE ( 'NONE',  #69 ) ;
#64 = DIRECTION ( 'NONE',  ( 0.000000000000000000, 0.000000000000000000, 1.000000000000000000 ) ) ;
#65 = FACE_OUTER_BOUND ( 'NONE', #191, .T. ) ;
#66 = PLANE ( 'NONE',  #17 ) ;
#67 = DIRECTION ( 'NONE',  ( 1.000000000000000000, 0.000000000000000000, 0.000000000000000000 ) ) ;
#68 = EDGE_CURVE ( 'NONE', #77, #167, #134, .T. ) ;
#69 = AXIS2_PLACEMENT_3D ( 'NONE', #127, #188, #49 ) ;
#70 = DIRECTION ( 'NONE',  ( 0.000000000000000000, 0.000000000000000000, 1.000000000000000000 ) ) ;
#71 = DIRECTION ( 'NONE',  ( 1.000000000000000000, 0.000000000000000000, 0.000000000000000000 ) ) ;
#72 = DIRECTION ( 'NONE',  ( -0.000000000000000000, -0.000000000000000000, -1.000000000000000000 ) ) ;
#73 = AXIS2_PLACEMENT_3D ( 'NONE', #51, #112, #174 ) ;
#74 = DIRECTION ( 'NONE',  ( -0.000000000000000000, -0.000000000000000000, -1.000000000000000000 ) ) ;
#75 = AXIS2_PLACEMENT_3D ( 'NONE', #103, #70, #71 ) ;
#76 = ORIENTED_EDGE ( 'NONE', *, *, #157, .F. ) ;
#77 = VERTEX_POINT ( 'NONE', #37 ) ;
#78 = PRODUCT ( '\X2\680751c64ef6\X0\-\X2\94dd67f1\X0\m3-40A', '\X2\680751c64ef6\X0\-\X2\94dd67f1\X0\m3-40A', '', ( #118 ) ) ;
#79 = EDGE_CURVE ( 'NONE', #144, #9, #123, .T. ) ;
#80 = FACE_OUTER_BOUND ( 'NONE', #197, .T. ) ;
#81 = CARTESIAN_POINT ( 'NONE',  ( 2.500000000000000000, 3.061616997868383141E-16, 0.000000000000000000 ) ) ;
#82 = AXIS2_PLACEMENT_3D ( 'NONE', #190, #94, #4 ) ;
#83 = ORIENTED_EDGE ( 'NONE', *, *, #151, .F. ) ;
#84 = CYLINDRICAL_SURFACE ( 'NONE', #82, 1.500000000000000222 ) ;
#85 = FACE_OUTER_BOUND ( 'NONE', #12, .T. ) ;
#86 = DIRECTION ( 'NONE',  ( 1.000000000000000000, 0.000000000000000000, 0.000000000000000000 ) ) ;
#87 = AXIS2_PLACEMENT_3D ( 'NONE', #41, #6, #178 ) ;
#88 = EDGE_CURVE ( 'NONE', #104, #106, #59, .T. ) ;
#89 = ORIENTED_EDGE ( 'NONE', *, *, #68, .F. ) ;
#90 = ORIENTED_EDGE ( 'NONE', *, *, #91, .T. ) ;
#91 = EDGE_CURVE ( 'NONE', #106, #104, #116, .T. ) ;
#92 = CARTESIAN_POINT ( 'NONE',  ( 0.000000000000000000, 0.000000000000000000, 0.000000000000000000 ) ) ;
#93 =( GEOMETRIC_REPRESENTATION_CONTEXT ( 3 ) GLOBAL_UNCERTAINTY_ASSIGNED_CONTEXT ( ( #113 ) ) GLOBAL_UNIT_ASSIGNED_CONTEXT ( ( #163, #133, #56 ) ) REPRESENTATION_CONTEXT ( 'NONE', 'WORKASPACE' ) );
#94 = DIRECTION ( 'NONE',  ( -0.000000000000000000, -0.000000000000000000, -1.000000000000000000 ) ) ;
#95 = ORIENTED_EDGE ( 'NONE', *, *, #185, .T. ) ;
#96 = DIRECTION ( 'NONE',  ( 1.000000000000000000, 0.000000000000000000, 0.000000000000000000 ) ) ;
#97 = APPLICATION_CONTEXT ( 'automotive_design' ) ;
#98 = DIRECTION ( 'NONE',  ( 0.000000000000000000, 0.000000000000000000, 1.000000000000000000 ) ) ;
#99 = SURFACE_STYLE_USAGE ( .BOTH. , #147 ) ;
#100 =( NAMED_UNIT ( * ) SI_UNIT ( $, .STERADIAN. ) SOLID_ANGLE_UNIT ( ) );
#101 = PRESENTATION_STYLE_ASSIGNMENT (( #99 ) ) ;
#102 = LINE ( 'NONE', #23, #165 ) ;
#103 = CARTESIAN_POINT ( 'NONE',  ( 0.000000000000000000, 0.000000000000000000, 0.000000000000000000 ) ) ;
#104 = VERTEX_POINT ( 'NONE', #154 ) ;
#105 = EDGE_LOOP ( 'NONE', ( #90, #48 ) ) ;
#106 = VERTEX_POINT ( 'NONE', #14 ) ;
#107 = APPLICATION_CONTEXT ( 'automotive_design' ) ;
#108 = ORIENTED_EDGE ( 'NONE', *, *, #88, .F. ) ;
#109 = CYLINDRICAL_SURFACE ( 'NONE', #3, 1.500000000000000222 ) ;
#110 = LINE ( 'NONE', #170, #184 ) ;
#111 = ORIENTED_EDGE ( 'NONE', *, *, #131, .F. ) ;
#112 = DIRECTION ( 'NONE',  ( 0.000000000000000000, 0.000000000000000000, 1.000000000000000000 ) ) ;
#113 = UNCERTAINTY_MEASURE_WITH_UNIT (LENGTH_MEASURE( 1.000000000000000082E-05 ), #163, 'distance_accuracy_value', 'NONE');
#114 = ADVANCED_FACE ( 'NONE', ( #80, #1 ), #63, .F. ) ;
#115 = ORIENTED_EDGE ( 'NONE', *, *, #162, .F. ) ;
#116 = CIRCLE ( 'NONE', #155, 1.500000000000000222 ) ;
#117 =( NAMED_UNIT ( * ) PLANE_ANGLE_UNIT ( ) SI_UNIT ( $, .RADIAN. ) );
#118 = PRODUCT_CONTEXT ( 'NONE', #107, 'mechanical' ) ;
#119 = CLOSED_SHELL ( 'NONE', ( #33, #40, #60, #114, #182, #29 ) ) ;
#120 = DIRECTION ( 'NONE',  ( -0.000000000000000000, -0.000000000000000000, -1.000000000000000000 ) ) ;
#121 = SHAPE_DEFINITION_REPRESENTATION ( #124, #54 ) ;
#122 = CARTESIAN_POINT ( 'NONE',  ( -1.500000000000000222, 0.000000000000000000, 40.00000000000000000 ) ) ;
#123 = CIRCLE ( 'NONE', #13, 1.500000000000000222 ) ;
#124 = PRODUCT_DEFINITION_SHAPE ( 'NONE', 'NONE',  #10 ) ;
#125 = CYLINDRICAL_SURFACE ( 'NONE', #141, 2.500000000000000000 ) ;
#126 = VECTOR ( 'NONE', #120, 1000.000000000000000 ) ;
#127 = CARTESIAN_POINT ( 'NONE',  ( 0.000000000000000000, 0.000000000000000000, 0.000000000000000000 ) ) ;
#128 = DIRECTION ( 'NONE',  ( 0.000000000000000000, 0.000000000000000000, 1.000000000000000000 ) ) ;
#129 = ORIENTED_EDGE ( 'NONE', *, *, #58, .T. ) ;
#130 = CARTESIAN_POINT ( 'NONE',  ( 0.000000000000000000, 0.000000000000000000, 40.00000000000000000 ) ) ;
#131 = EDGE_CURVE ( 'NONE', #9, #104, #110, .T. ) ;
#132 = CARTESIAN_POINT ( 'NONE',  ( -2.500000000000000000, 0.000000000000000000, 40.00000000000000000 ) ) ;
#133 =( NAMED_UNIT ( * ) PLANE_ANGLE_UNIT ( ) SI_UNIT ( $, .RADIAN. ) );
#134 = CIRCLE ( 'NONE', #73, 2.500000000000000000 ) ;
#135 = DIRECTION ( 'NONE',  ( -1.000000000000000000, 0.000000000000000000, 0.000000000000000000 ) ) ;
#136 = CARTESIAN_POINT ( 'NONE',  ( 0.000000000000000000, 0.000000000000000000, 40.00000000000000000 ) ) ;
#137 = VERTEX_POINT ( 'NONE', #156 ) ;
#138 = VERTEX_POINT ( 'NONE', #81 ) ;
#139 = CARTESIAN_POINT ( 'NONE',  ( 0.000000000000000000, 0.000000000000000000, 40.00000000000000000 ) ) ;
#140 = DIRECTION ( 'NONE',  ( -1.000000000000000000, 0.000000000000000000, 0.000000000000000000 ) ) ;
#141 = AXIS2_PLACEMENT_3D ( 'NONE', #5, #159, #62 ) ;
#142 = PRODUCT_RELATED_PRODUCT_CATEGORY ( 'part', '', ( #78 ) ) ;
#143 = FACE_OUTER_BOUND ( 'NONE', #19, .T. ) ;
#144 = VERTEX_POINT ( 'NONE', #50 ) ;
#145 = DIRECTION ( 'NONE',  ( 1.000000000000000000, 0.000000000000000000, 0.000000000000000000 ) ) ;
#146 = AXIS2_PLACEMENT_3D ( 'NONE', #136, #39, #135 ) ;
#147 = SURFACE_SIDE_STYLE ('',( #192 ) ) ;
#148 = APPLICATION_PROTOCOL_DEFINITION ( 'draft international standard', 'automotive_design', 1998, #107 ) ;
#149 = CYLINDRICAL_SURFACE ( 'NONE', #146, 2.500000000000000000 ) ;
#150 = ORIENTED_EDGE ( 'NONE', *, *, #68, .T. ) ;
#151 = EDGE_CURVE ( 'NONE', #144, #106, #164, .T. ) ;
#152 = ORIENTED_EDGE ( 'NONE', *, *, #79, .F. ) ;
#153 = ORIENTED_EDGE ( 'NONE', *, *, #179, .F. ) ;
#154 = CARTESIAN_POINT ( 'NONE',  ( 1.500000000000000222, 1.836970198721030181E-16, 0.000000000000000000 ) ) ;
#155 = AXIS2_PLACEMENT_3D ( 'NONE', #92, #98, #160 ) ;
#156 = CARTESIAN_POINT ( 'NONE',  ( -2.500000000000000000, 0.000000000000000000, 0.000000000000000000 ) ) ;
#157 = EDGE_CURVE ( 'NONE', #137, #138, #171, .T. ) ;
#158 = ORIENTED_EDGE ( 'NONE', *, *, #162, .T. ) ;
#159 = DIRECTION ( 'NONE',  ( -0.000000000000000000, -0.000000000000000000, -1.000000000000000000 ) ) ;
#160 = DIRECTION ( 'NONE',  ( 1.000000000000000000, 0.000000000000000000, 0.000000000000000000 ) ) ;
#161 =( GEOMETRIC_REPRESENTATION_CONTEXT ( 3 ) GLOBAL_UNCERTAINTY_ASSIGNED_CONTEXT ( ( #177 ) ) GLOBAL_UNIT_ASSIGNED_CONTEXT ( ( #193, #117, #100 ) ) REPRESENTATION_CONTEXT ( 'NONE', 'WORKASPACE' ) );
#162 = EDGE_CURVE ( 'NONE', #9, #144, #176, .T. ) ;
#163 =( LENGTH_UNIT ( ) NAMED_UNIT ( * ) SI_UNIT ( .MILLI., .METRE. ) );
#164 = LINE ( 'NONE', #122, #26 ) ;
#165 = VECTOR ( 'NONE', #74, 1000.000000000000000 ) ;
#166 = EDGE_LOOP ( 'NONE', ( #152, #115 ) ) ;
#167 = VERTEX_POINT ( 'NONE', #42 ) ;
#168 = ORIENTED_EDGE ( 'NONE', *, *, #91, .F. ) ;
#169 = CARTESIAN_POINT ( 'NONE',  ( 0.000000000000000000, 0.000000000000000000, 40.00000000000000000 ) ) ;
#170 = CARTESIAN_POINT ( 'NONE',  ( 1.500000000000000222, 1.836970198721030181E-16, 40.00000000000000000 ) ) ;
#171 = CIRCLE ( 'NONE', #87, 2.500000000000000000 ) ;
#172 = STYLED_ITEM ( 'NONE', ( #101 ), #183 ) ;
#173 = DIRECTION ( 'NONE',  ( -0.000000000000000000, -0.000000000000000000, -1.000000000000000000 ) ) ;
#174 = DIRECTION ( 'NONE',  ( 1.000000000000000000, 0.000000000000000000, 0.000000000000000000 ) ) ;
#175 = CARTESIAN_POINT ( 'NONE',  ( 0.000000000000000000, 0.000000000000000000, 40.00000000000000000 ) ) ;
#176 = CIRCLE ( 'NONE', #53, 1.500000000000000222 ) ;
#177 = UNCERTAINTY_MEASURE_WITH_UNIT (LENGTH_MEASURE( 1.000000000000000082E-05 ), #193, 'distance_accuracy_value', 'NONE');
#178 = DIRECTION ( 'NONE',  ( 1.000000000000000000, 0.000000000000000000, 0.000000000000000000 ) ) ;
#179 = EDGE_CURVE ( 'NONE', #77, #138, #102, .T. ) ;
#180 = APPLICATION_PROTOCOL_DEFINITION ( 'draft international standard', 'automotive_design', 1998, #97 ) ;
#181 = FILL_AREA_STYLE ('',( #55 ) ) ;
#182 = ADVANCED_FACE ( 'NONE', ( #194 ), #149, .T. ) ;
#183 = MANIFOLD_SOLID_BREP ( '\X2\51f853f0\X0\-\X2\62c94f38\X0\1', #119 ) ;
#184 = VECTOR ( 'NONE', #35, 1000.000000000000000 ) ;
#185 = EDGE_CURVE ( 'NONE', #138, #137, #47, .T. ) ;
#186 = FACE_BOUND ( 'NONE', #166, .T. ) ;
#187 = PRODUCT_DEFINITION_FORMATION_WITH_SPECIFIED_SOURCE ( 'å¯', '', #78, .NOT_KNOWN. ) ;
#188 = DIRECTION ( 'NONE',  ( 0.000000000000000000, 0.000000000000000000, 1.000000000000000000 ) ) ;
#189 = DIRECTION ( 'NONE',  ( 0.000000000000000000, 0.000000000000000000, 1.000000000000000000 ) ) ;
#190 = CARTESIAN_POINT ( 'NONE',  ( 0.000000000000000000, 0.000000000000000000, 40.00000000000000000 ) ) ;
#191 = EDGE_LOOP ( 'NONE', ( #129, #150 ) ) ;
#192 = SURFACE_STYLE_FILL_AREA ( #181 ) ;
#193 =( LENGTH_UNIT ( ) NAMED_UNIT ( * ) SI_UNIT ( .MILLI., .METRE. ) );
#194 = FACE_OUTER_BOUND ( 'NONE', #11, .T. ) ;
#195 = CIRCLE ( 'NONE', #61, 2.500000000000000000 ) ;
#196 = EDGE_CURVE ( 'NONE', #167, #137, #22, .T. ) ;
#197 = EDGE_LOOP ( 'NONE', ( #76, #36 ) ) ;
#198 = EDGE_LOOP ( 'NONE', ( #111, #158, #199, #108 ) ) ;
#199 = ORIENTED_EDGE ( 'NONE', *, *, #151, .T. ) ;
ENDSEC;
END-ISO-10303-21;
