ISO-10303-21;
HEADER;
FILE_DESCRIPTION (( 'STEP AP214' ),
    '1' );
FILE_NAME ('标准件-法兰8-16-5A.STEP',
    '2026-08-16T17:26:48',
    ( '' ),
    ( '' ),
    'SwSTEP 2.0',
    'SolidWorks 2025',
    '' );
FILE_SCHEMA (( 'AUTOMOTIVE_DESIGN' ));
ENDSEC;

DATA;
#1 = FACE_OUTER_BOUND ( 'NONE', #223, .T. ) ;
#2 = APPLICATION_CONTEXT ( 'automotive_design' ) ;
#3 = ORIENTED_EDGE ( 'NONE', *, *, #203, .T. ) ;
#4 = FACE_OUTER_BOUND ( 'NONE', #116, .T. ) ;
#5 = VECTOR ( 'NONE', #251, 1000.000000000000000 ) ;
#6 = DIRECTION ( 'NONE',  ( 0.000000000000000000, 0.000000000000000000, 1.000000000000000000 ) ) ;
#7 = ORIENTED_EDGE ( 'NONE', *, *, #231, .T. ) ;
#8 = EDGE_CURVE ( 'NONE', #244, #92, #277, .T. ) ;
#9 = EDGE_LOOP ( 'NONE', ( #27, #261, #134, #224 ) ) ;
#10 = VERTEX_POINT ( 'NONE', #29 ) ;
#11 = DIRECTION ( 'NONE',  ( 1.000000000000000000, 0.000000000000000000, 0.000000000000000000 ) ) ;
#12 =( NAMED_UNIT ( * ) PLANE_ANGLE_UNIT ( ) SI_UNIT ( $, .RADIAN. ) );
#13 = AXIS2_PLACEMENT_3D ( 'NONE', #157, #22, #192 ) ;
#14 = DIRECTION ( 'NONE',  ( 1.000000000000000000, 0.000000000000000000, 0.000000000000000000 ) ) ;
#15 = CARTESIAN_POINT ( 'NONE',  ( 9.000000000000000000, 1.102182119232617714E-15, 3.899999999999999911 ) ) ;
#16 = DIRECTION ( 'NONE',  ( 0.000000000000000000, 0.000000000000000000, 1.000000000000000000 ) ) ;
#17 = DIRECTION ( 'NONE',  ( -0.000000000000000000, -0.000000000000000000, -1.000000000000000000 ) ) ;
#18 = DIRECTION ( 'NONE',  ( 0.000000000000000000, 0.000000000000000000, 1.000000000000000000 ) ) ;
#19 = CIRCLE ( 'NONE', #83, 4.000000000000000000 ) ;
#20 = DIRECTION ( 'NONE',  ( -1.000000000000000000, 0.000000000000000000, 0.000000000000000000 ) ) ;
#21 = DIRECTION ( 'NONE',  ( 0.000000000000000000, 0.000000000000000000, 1.000000000000000000 ) ) ;
#22 = DIRECTION ( 'NONE',  ( -0.000000000000000000, -0.000000000000000000, -1.000000000000000000 ) ) ;
#23 = EDGE_CURVE ( 'NONE', #244, #236, #50, .T. ) ;
#24 = ORIENTED_EDGE ( 'NONE', *, *, #72, .T. ) ;
#25 = DIRECTION ( 'NONE',  ( -0.000000000000000000, -0.000000000000000000, -1.000000000000000000 ) ) ;
#26 = ORIENTED_EDGE ( 'NONE', *, *, #268, .F. ) ;
#27 = ORIENTED_EDGE ( 'NONE', *, *, #200, .F. ) ;
#28 = ORIENTED_EDGE ( 'NONE', *, *, #8, .F. ) ;
#29 = CARTESIAN_POINT ( 'NONE',  ( -8.000000000000000000, 0.000000000000000000, 0.000000000000000000 ) ) ;
#30 = VERTEX_POINT ( 'NONE', #31 ) ;
#31 = CARTESIAN_POINT ( 'NONE',  ( -9.000000000000000000, 0.000000000000000000, 3.899999999999999911 ) ) ;
#32 = EDGE_CURVE ( 'NONE', #141, #217, #87, .T. ) ;
#33 = VECTOR ( 'NONE', #226, 1000.000000000000000 ) ;
#34 =( NAMED_UNIT ( * ) SI_UNIT ( $, .STERADIAN. ) SOLID_ANGLE_UNIT ( ) );
#35 = AXIS2_PLACEMENT_3D ( 'NONE', #130, #6, #89 ) ;
#36 = CYLINDRICAL_SURFACE ( 'NONE', #234, 8.000000000000000000 ) ;
#37 = CARTESIAN_POINT ( 'NONE',  ( -8.000000000000000000, 0.000000000000000000, 3.899999999999999911 ) ) ;
#38 = CARTESIAN_POINT ( 'NONE',  ( 0.000000000000000000, 0.000000000000000000, 3.899999999999999911 ) ) ;
#39 = AXIS2_PLACEMENT_3D ( 'NONE', #108, #25, #70 ) ;
#40 = PLANE ( 'NONE',  #42 ) ;
#41 = CARTESIAN_POINT ( 'NONE',  ( 8.000000000000000000, 9.797174393178825657E-16, 3.899999999999999911 ) ) ;
#42 = AXIS2_PLACEMENT_3D ( 'NONE', #124, #229, #204 ) ;
#43 = DIRECTION ( 'NONE',  ( 1.000000000000000000, 0.000000000000000000, 0.000000000000000000 ) ) ;
#44 = ORIENTED_EDGE ( 'NONE', *, *, #8, .T. ) ;
#45 =( NAMED_UNIT ( * ) PLANE_ANGLE_UNIT ( ) SI_UNIT ( $, .RADIAN. ) );
#46 = ORIENTED_EDGE ( 'NONE', *, *, #144, .F. ) ;
#47 = EDGE_CURVE ( 'NONE', #98, #131, #100, .T. ) ;
#48 = ORIENTED_EDGE ( 'NONE', *, *, #72, .F. ) ;
#49 = CYLINDRICAL_SURFACE ( 'NONE', #13, 4.000000000000000000 ) ;
#50 = LINE ( 'NONE', #161, #5 ) ;
#51 = ORIENTED_EDGE ( 'NONE', *, *, #47, .T. ) ;
#52 = ORIENTED_EDGE ( 'NONE', *, *, #23, .T. ) ;
#53 = MANIFOLD_SOLID_BREP ( '\X2\51f853f0\X0\-\X2\62c94f38\X0\2', #269 ) ;
#54 = VERTEX_POINT ( 'NONE', #128 ) ;
#55 = EDGE_CURVE ( 'NONE', #141, #30, #101, .T. ) ;
#56 = DIRECTION ( 'NONE',  ( 1.000000000000000000, 0.000000000000000000, 0.000000000000000000 ) ) ;
#57 = CARTESIAN_POINT ( 'NONE',  ( 0.000000000000000000, 0.000000000000000000, 0.000000000000000000 ) ) ;
#58 = CIRCLE ( 'NONE', #75, 4.000000000000000000 ) ;
#59 = AXIS2_PLACEMENT_3D ( 'NONE', #167, #82, #227 ) ;
#60 = CARTESIAN_POINT ( 'NONE',  ( 0.000000000000000000, 0.000000000000000000, 0.000000000000000000 ) ) ;
#61 = EDGE_CURVE ( 'NONE', #98, #156, #186, .T. ) ;
#62 = CARTESIAN_POINT ( 'NONE',  ( -9.000000000000000000, 0.000000000000000000, 5.000000000000000000 ) ) ;
#63 = ADVANCED_FACE ( 'NONE', ( #276 ), #148, .T. ) ;
#64 =( GEOMETRIC_REPRESENTATION_CONTEXT ( 3 ) GLOBAL_UNCERTAINTY_ASSIGNED_CONTEXT ( ( #152 ) ) GLOBAL_UNIT_ASSIGNED_CONTEXT ( ( #178, #12, #34 ) ) REPRESENTATION_CONTEXT ( 'NONE', 'WORKASPACE' ) );
#65 = DIRECTION ( 'NONE',  ( -1.000000000000000000, 0.000000000000000000, 0.000000000000000000 ) ) ;
#66 = CYLINDRICAL_SURFACE ( 'NONE', #235, 9.000000000000000000 ) ;
#67 = DIRECTION ( 'NONE',  ( -0.000000000000000000, -0.000000000000000000, -1.000000000000000000 ) ) ;
#68 = CARTESIAN_POINT ( 'NONE',  ( 9.000000000000000000, 1.102182119232617714E-15, 5.000000000000000000 ) ) ;
#69 = ORIENTED_EDGE ( 'NONE', *, *, #61, .T. ) ;
#70 = DIRECTION ( 'NONE',  ( -1.000000000000000000, 0.000000000000000000, 0.000000000000000000 ) ) ;
#71 = ORIENTED_EDGE ( 'NONE', *, *, #183, .F. ) ;
#72 = EDGE_CURVE ( 'NONE', #54, #156, #19, .T. ) ;
#73 = DIRECTION ( 'NONE',  ( 0.000000000000000000, 0.000000000000000000, 1.000000000000000000 ) ) ;
#74 = SHAPE_DEFINITION_REPRESENTATION ( #125, #238 ) ;
#75 = AXIS2_PLACEMENT_3D ( 'NONE', #57, #143, #202 ) ;
#76 = ORIENTED_EDGE ( 'NONE', *, *, #47, .F. ) ;
#77 = EDGE_LOOP ( 'NONE', ( #219, #270 ) ) ;
#78 = ORIENTED_EDGE ( 'NONE', *, *, #109, .T. ) ;
#79 = CIRCLE ( 'NONE', #35, 9.000000000000000000 ) ;
#80 = SURFACE_SIDE_STYLE ('',( #271 ) ) ;
#81 = DIRECTION ( 'NONE',  ( 1.000000000000000000, 0.000000000000000000, 0.000000000000000000 ) ) ;
#82 = DIRECTION ( 'NONE',  ( 0.000000000000000000, 0.000000000000000000, 1.000000000000000000 ) ) ;
#83 = AXIS2_PLACEMENT_3D ( 'NONE', #60, #252, #275 ) ;
#84 = VECTOR ( 'NONE', #206, 1000.000000000000000 ) ;
#85 = DIRECTION ( 'NONE',  ( 0.000000000000000000, 0.000000000000000000, 1.000000000000000000 ) ) ;
#86 = FACE_OUTER_BOUND ( 'NONE', #77, .T. ) ;
#87 = CIRCLE ( 'NONE', #162, 9.000000000000000000 ) ;
#88 = DIRECTION ( 'NONE',  ( 1.000000000000000000, 0.000000000000000000, 0.000000000000000000 ) ) ;
#89 = DIRECTION ( 'NONE',  ( 1.000000000000000000, 0.000000000000000000, 0.000000000000000000 ) ) ;
#90 =( GEOMETRIC_REPRESENTATION_CONTEXT ( 3 ) GLOBAL_UNCERTAINTY_ASSIGNED_CONTEXT ( ( #211 ) ) GLOBAL_UNIT_ASSIGNED_CONTEXT ( ( #239, #45, #260 ) ) REPRESENTATION_CONTEXT ( 'NONE', 'WORKASPACE' ) );
#91 = PRODUCT_DEFINITION ( '鏅', '', #122, #185 ) ;
#92 = VERTEX_POINT ( 'NONE', #37 ) ;
#93 = PLANE ( 'NONE',  #165 ) ;
#94 = ORIENTED_EDGE ( 'NONE', *, *, #257, .T. ) ;
#95 = CIRCLE ( 'NONE', #253, 8.000000000000000000 ) ;
#96 = CIRCLE ( 'NONE', #168, 9.000000000000000000 ) ;
#97 = EDGE_LOOP ( 'NONE', ( #51, #7, #102, #119 ) ) ;
#98 = VERTEX_POINT ( 'NONE', #169 ) ;
#99 = ORIENTED_EDGE ( 'NONE', *, *, #231, .F. ) ;
#100 = CIRCLE ( 'NONE', #191, 4.000000000000000000 ) ;
#101 = LINE ( 'NONE', #62, #33 ) ;
#102 = ORIENTED_EDGE ( 'NONE', *, *, #109, .F. ) ;
#103 = FACE_BOUND ( 'NONE', #158, .T. ) ;
#104 = LINE ( 'NONE', #68, #208 ) ;
#105 = CARTESIAN_POINT ( 'NONE',  ( 4.000000000000000000, 4.898587196589412829E-16, 5.000000000000000000 ) ) ;
#106 = CARTESIAN_POINT ( 'NONE',  ( 0.000000000000000000, 0.000000000000000000, 5.000000000000000000 ) ) ;
#107 = CARTESIAN_POINT ( 'NONE',  ( 0.000000000000000000, 0.000000000000000000, 3.899999999999999911 ) ) ;
#108 = CARTESIAN_POINT ( 'NONE',  ( 0.000000000000000000, 0.000000000000000000, 3.899999999999999911 ) ) ;
#109 = EDGE_CURVE ( 'NONE', #156, #54, #58, .T. ) ;
#110 = PRODUCT_CONTEXT ( 'NONE', #220, 'mechanical' ) ;
#111 = CARTESIAN_POINT ( 'NONE',  ( 0.000000000000000000, 0.000000000000000000, 3.899999999999999911 ) ) ;
#112 = CARTESIAN_POINT ( 'NONE',  ( 0.000000000000000000, 0.000000000000000000, 3.899999999999999911 ) ) ;
#113 = FILL_AREA_STYLE ('',( #163 ) ) ;
#114 = CIRCLE ( 'NONE', #243, 8.000000000000000000 ) ;
#115 = CIRCLE ( 'NONE', #59, 4.000000000000000000 ) ;
#116 = EDGE_LOOP ( 'NONE', ( #198, #179 ) ) ;
#117 = ADVANCED_FACE ( 'NONE', ( #254 ), #36, .T. ) ;
#118 = ORIENTED_EDGE ( 'NONE', *, *, #207, .F. ) ;
#119 = ORIENTED_EDGE ( 'NONE', *, *, #61, .F. ) ;
#120 = PRESENTATION_LAYER_ASSIGNMENT (  '', '', ( #214 ) ) ;
#121 = SURFACE_STYLE_USAGE ( .BOTH. , #80 ) ;
#122 = PRODUCT_DEFINITION_FORMATION_WITH_SPECIFIED_SOURCE ( '瀵', '', #147, .NOT_KNOWN. ) ;
#123 = DIRECTION ( 'NONE',  ( -0.000000000000000000, -0.000000000000000000, -1.000000000000000000 ) ) ;
#124 = CARTESIAN_POINT ( 'NONE',  ( 0.000000000000000000, 0.000000000000000000, 5.000000000000000000 ) ) ;
#125 = PRODUCT_DEFINITION_SHAPE ( 'NONE', 'NONE',  #91 ) ;
#126 = DIRECTION ( 'NONE',  ( -0.000000000000000000, -0.000000000000000000, -1.000000000000000000 ) ) ;
#127 = CARTESIAN_POINT ( 'NONE',  ( 0.000000000000000000, 0.000000000000000000, 0.000000000000000000 ) ) ;
#128 = CARTESIAN_POINT ( 'NONE',  ( 4.000000000000000000, 4.898587196589412829E-16, 0.000000000000000000 ) ) ;
#129 = CIRCLE ( 'NONE', #194, 8.000000000000000000 ) ;
#130 = CARTESIAN_POINT ( 'NONE',  ( 0.000000000000000000, 0.000000000000000000, 3.899999999999999911 ) ) ;
#131 = VERTEX_POINT ( 'NONE', #105 ) ;
#132 = DIRECTION ( 'NONE',  ( -0.000000000000000000, -0.000000000000000000, -1.000000000000000000 ) ) ;
#133 = CARTESIAN_POINT ( 'NONE',  ( 9.000000000000000000, 1.102182119232617714E-15, 5.000000000000000000 ) ) ;
#134 = ORIENTED_EDGE ( 'NONE', *, *, #268, .T. ) ;
#135 = DIRECTION ( 'NONE',  ( 0.000000000000000000, 0.000000000000000000, 1.000000000000000000 ) ) ;
#136 = EDGE_CURVE ( 'NONE', #10, #236, #95, .T. ) ;
#137 = ORIENTED_EDGE ( 'NONE', *, *, #55, .T. ) ;
#138 = CARTESIAN_POINT ( 'NONE',  ( 0.000000000000000000, 0.000000000000000000, 5.000000000000000000 ) ) ;
#139 = EDGE_CURVE ( 'NONE', #236, #10, #114, .T. ) ;
#140 = EDGE_LOOP ( 'NONE', ( #78, #24 ) ) ;
#141 = VERTEX_POINT ( 'NONE', #173 ) ;
#142 = DIRECTION ( 'NONE',  ( 0.000000000000000000, 0.000000000000000000, 1.000000000000000000 ) ) ;
#143 = DIRECTION ( 'NONE',  ( 0.000000000000000000, 0.000000000000000000, 1.000000000000000000 ) ) ;
#144 = EDGE_CURVE ( 'NONE', #92, #244, #129, .T. ) ;
#145 = CARTESIAN_POINT ( 'NONE',  ( -4.000000000000000000, 0.000000000000000000, 3.899999999999999911 ) ) ;
#146 = LINE ( 'NONE', #172, #84 ) ;
#147 = PRODUCT ( '\X2\680751c64ef6\X0\-\X2\6cd55170\X0\8-16-5A', '\X2\680751c64ef6\X0\-\X2\6cd55170\X0\8-16-5A', '', ( #110 ) ) ;
#148 = CYLINDRICAL_SURFACE ( 'NONE', #225, 9.000000000000000000 ) ;
#149 = AXIS2_PLACEMENT_3D ( 'NONE', #262, #177, #20 ) ;
#150 = DIRECTION ( 'NONE',  ( 1.000000000000000000, 0.000000000000000000, 0.000000000000000000 ) ) ;
#151 = FACE_BOUND ( 'NONE', #140, .T. ) ;
#152 = UNCERTAINTY_MEASURE_WITH_UNIT (LENGTH_MEASURE( 1.000000000000000082E-05 ), #178, 'distance_accuracy_value', 'NONE');
#153 = DIRECTION ( 'NONE',  ( 1.000000000000000000, 0.000000000000000000, -0.000000000000000000 ) ) ;
#154 = EDGE_LOOP ( 'NONE', ( #28, #52, #248, #71 ) ) ;
#155 = CYLINDRICAL_SURFACE ( 'NONE', #39, 8.000000000000000000 ) ;
#156 = VERTEX_POINT ( 'NONE', #255 ) ;
#157 = CARTESIAN_POINT ( 'NONE',  ( 0.000000000000000000, 0.000000000000000000, 3.899999999999999911 ) ) ;
#158 = EDGE_LOOP ( 'NONE', ( #76, #266 ) ) ;
#159 = VECTOR ( 'NONE', #123, 1000.000000000000000 ) ;
#160 = AXIS2_PLACEMENT_3D ( 'NONE', #111, #135, #43 ) ;
#161 = CARTESIAN_POINT ( 'NONE',  ( 8.000000000000000000, 9.797174393178825657E-16, 3.899999999999999911 ) ) ;
#162 = AXIS2_PLACEMENT_3D ( 'NONE', #138, #273, #56 ) ;
#163 = FILL_AREA_STYLE_COLOUR ( '', #228 ) ;
#164 = VERTEX_POINT ( 'NONE', #15 ) ;
#165 = AXIS2_PLACEMENT_3D ( 'NONE', #233, #73, #213 ) ;
#166 = PRESENTATION_STYLE_ASSIGNMENT (( #121 ) ) ;
#167 = CARTESIAN_POINT ( 'NONE',  ( 0.000000000000000000, 0.000000000000000000, 5.000000000000000000 ) ) ;
#168 = AXIS2_PLACEMENT_3D ( 'NONE', #278, #18, #189 ) ;
#169 = CARTESIAN_POINT ( 'NONE',  ( -4.000000000000000000, 0.000000000000000000, 5.000000000000000000 ) ) ;
#170 = DIRECTION ( 'NONE',  ( 0.000000000000000000, 0.000000000000000000, 1.000000000000000000 ) ) ;
#171 = ADVANCED_FACE ( 'NONE', ( #86, #103 ), #40, .T. ) ;
#172 = CARTESIAN_POINT ( 'NONE',  ( -8.000000000000000000, 0.000000000000000000, 3.899999999999999911 ) ) ;
#173 = CARTESIAN_POINT ( 'NONE',  ( -9.000000000000000000, 0.000000000000000000, 5.000000000000000000 ) ) ;
#174 = CARTESIAN_POINT ( 'NONE',  ( 0.000000000000000000, 0.000000000000000000, 0.000000000000000000 ) ) ;
#175 = CIRCLE ( 'NONE', #160, 9.000000000000000000 ) ;
#176 = CARTESIAN_POINT ( 'NONE',  ( 4.000000000000000000, 4.898587196589412829E-16, 3.899999999999999911 ) ) ;
#177 = DIRECTION ( 'NONE',  ( -0.000000000000000000, -0.000000000000000000, -1.000000000000000000 ) ) ;
#178 =( LENGTH_UNIT ( ) NAMED_UNIT ( * ) SI_UNIT ( .MILLI., .METRE. ) );
#179 = ORIENTED_EDGE ( 'NONE', *, *, #139, .F. ) ;
#180 = MECHANICAL_DESIGN_GEOMETRIC_PRESENTATION_REPRESENTATION (  '', ( #214 ), #64 ) ;
#181 = ORIENTED_EDGE ( 'NONE', *, *, #257, .F. ) ;
#182 = CARTESIAN_POINT ( 'NONE',  ( 0.000000000000000000, 0.000000000000000000, 5.000000000000000000 ) ) ;
#183 = EDGE_CURVE ( 'NONE', #92, #10, #146, .T. ) ;
#184 = CARTESIAN_POINT ( 'NONE',  ( 0.000000000000000000, 0.000000000000000000, 3.899999999999999911 ) ) ;
#185 = PRODUCT_DEFINITION_CONTEXT ( 'detailed design', #2, 'design' ) ;
#186 = LINE ( 'NONE', #145, #159 ) ;
#187 = CARTESIAN_POINT ( 'NONE',  ( 0.000000000000000000, 0.000000000000000000, 0.000000000000000000 ) ) ;
#188 = DIRECTION ( 'NONE',  ( -0.000000000000000000, -0.000000000000000000, -1.000000000000000000 ) ) ;
#189 = DIRECTION ( 'NONE',  ( 1.000000000000000000, 0.000000000000000000, 0.000000000000000000 ) ) ;
#190 = CARTESIAN_POINT ( 'NONE',  ( 8.000000000000000000, 9.797174393178825657E-16, 0.000000000000000000 ) ) ;
#191 = AXIS2_PLACEMENT_3D ( 'NONE', #182, #247, #81 ) ;
#192 = DIRECTION ( 'NONE',  ( -1.000000000000000000, 0.000000000000000000, 0.000000000000000000 ) ) ;
#193 = PLANE ( 'NONE',  #201 ) ;
#194 = AXIS2_PLACEMENT_3D ( 'NONE', #107, #16, #14 ) ;
#195 = EDGE_LOOP ( 'NONE', ( #241, #44 ) ) ;
#196 = ORIENTED_EDGE ( 'NONE', *, *, #23, .F. ) ;
#197 = AXIS2_PLACEMENT_3D ( 'NONE', #184, #142, #11 ) ;
#198 = ORIENTED_EDGE ( 'NONE', *, *, #136, .F. ) ;
#199 = ADVANCED_FACE ( 'NONE', ( #256 ), #66, .T. ) ;
#200 = EDGE_CURVE ( 'NONE', #217, #141, #96, .T. ) ;
#201 = AXIS2_PLACEMENT_3D ( 'NONE', #112, #21, #153 ) ;
#202 = DIRECTION ( 'NONE',  ( 1.000000000000000000, 0.000000000000000000, 0.000000000000000000 ) ) ;
#203 = EDGE_CURVE ( 'NONE', #131, #98, #115, .T. ) ;
#204 = DIRECTION ( 'NONE',  ( 1.000000000000000000, 0.000000000000000000, -0.000000000000000000 ) ) ;
#205 = DIRECTION ( 'NONE',  ( 1.000000000000000000, 0.000000000000000000, 0.000000000000000000 ) ) ;
#206 = DIRECTION ( 'NONE',  ( -0.000000000000000000, -0.000000000000000000, -1.000000000000000000 ) ) ;
#207 = EDGE_CURVE ( 'NONE', #217, #164, #104, .T. ) ;
#208 = VECTOR ( 'NONE', #67, 1000.000000000000000 ) ;
#209 = FACE_BOUND ( 'NONE', #195, .T. ) ;
#210 = EDGE_LOOP ( 'NONE', ( #196, #46, #250, #222 ) ) ;
#211 = UNCERTAINTY_MEASURE_WITH_UNIT (LENGTH_MEASURE( 1.000000000000000082E-05 ), #239, 'distance_accuracy_value', 'NONE');
#212 = ADVANCED_FACE ( 'NONE', ( #242 ), #49, .F. ) ;
#213 = DIRECTION ( 'NONE',  ( 1.000000000000000000, 0.000000000000000000, -0.000000000000000000 ) ) ;
#214 = STYLED_ITEM ( 'NONE', ( #166 ), #53 ) ;
#215 = PRODUCT_RELATED_PRODUCT_CATEGORY ( 'part', '', ( #147 ) ) ;
#216 = FACE_OUTER_BOUND ( 'NONE', #210, .T. ) ;
#217 = VERTEX_POINT ( 'NONE', #133 ) ;
#218 = CYLINDRICAL_SURFACE ( 'NONE', #149, 4.000000000000000000 ) ;
#219 = ORIENTED_EDGE ( 'NONE', *, *, #32, .T. ) ;
#220 = APPLICATION_CONTEXT ( 'automotive_design' ) ;
#221 = EDGE_LOOP ( 'NONE', ( #181, #26 ) ) ;
#222 = ORIENTED_EDGE ( 'NONE', *, *, #136, .T. ) ;
#223 = EDGE_LOOP ( 'NONE', ( #99, #3, #69, #48 ) ) ;
#224 = ORIENTED_EDGE ( 'NONE', *, *, #55, .F. ) ;
#225 = AXIS2_PLACEMENT_3D ( 'NONE', #279, #17, #230 ) ;
#226 = DIRECTION ( 'NONE',  ( -0.000000000000000000, -0.000000000000000000, -1.000000000000000000 ) ) ;
#227 = DIRECTION ( 'NONE',  ( 1.000000000000000000, 0.000000000000000000, 0.000000000000000000 ) ) ;
#228 = COLOUR_RGB ( '',0.7921568627450980005, 0.8196078431372548767, 0.9333333333333333481 ) ;
#229 = DIRECTION ( 'NONE',  ( 0.000000000000000000, 0.000000000000000000, 1.000000000000000000 ) ) ;
#230 = DIRECTION ( 'NONE',  ( -1.000000000000000000, 0.000000000000000000, 0.000000000000000000 ) ) ;
#231 = EDGE_CURVE ( 'NONE', #131, #54, #263, .T. ) ;
#232 = APPLICATION_PROTOCOL_DEFINITION ( 'draft international standard', 'automotive_design', 1998, #2 ) ;
#233 = CARTESIAN_POINT ( 'NONE',  ( 0.000000000000000000, 0.000000000000000000, 0.000000000000000000 ) ) ;
#234 = AXIS2_PLACEMENT_3D ( 'NONE', #38, #126, #65 ) ;
#235 = AXIS2_PLACEMENT_3D ( 'NONE', #106, #188, #258 ) ;
#236 = VERTEX_POINT ( 'NONE', #190 ) ;
#237 = ADVANCED_FACE ( 'NONE', ( #4, #151 ), #93, .F. ) ;
#238 = ADVANCED_BREP_SHAPE_REPRESENTATION ( '\X2\680751c64ef6\X0\-\X2\6cd55170\X0\8-16-5A', ( #53, #245 ), #90 ) ;
#239 =( LENGTH_UNIT ( ) NAMED_UNIT ( * ) SI_UNIT ( .MILLI., .METRE. ) );
#240 = FACE_OUTER_BOUND ( 'NONE', #221, .T. ) ;
#241 = ORIENTED_EDGE ( 'NONE', *, *, #144, .T. ) ;
#242 = FACE_OUTER_BOUND ( 'NONE', #97, .T. ) ;
#243 = AXIS2_PLACEMENT_3D ( 'NONE', #187, #170, #88 ) ;
#244 = VERTEX_POINT ( 'NONE', #41 ) ;
#245 = AXIS2_PLACEMENT_3D ( 'NONE', #174, #259, #150 ) ;
#246 = ORIENTED_EDGE ( 'NONE', *, *, #32, .F. ) ;
#247 = DIRECTION ( 'NONE',  ( 0.000000000000000000, 0.000000000000000000, 1.000000000000000000 ) ) ;
#248 = ORIENTED_EDGE ( 'NONE', *, *, #139, .T. ) ;
#249 = ADVANCED_FACE ( 'NONE', ( #1 ), #218, .F. ) ;
#250 = ORIENTED_EDGE ( 'NONE', *, *, #183, .T. ) ;
#251 = DIRECTION ( 'NONE',  ( -0.000000000000000000, -0.000000000000000000, -1.000000000000000000 ) ) ;
#252 = DIRECTION ( 'NONE',  ( 0.000000000000000000, 0.000000000000000000, 1.000000000000000000 ) ) ;
#253 = AXIS2_PLACEMENT_3D ( 'NONE', #127, #85, #205 ) ;
#254 = FACE_OUTER_BOUND ( 'NONE', #154, .T. ) ;
#255 = CARTESIAN_POINT ( 'NONE',  ( -4.000000000000000000, 0.000000000000000000, 0.000000000000000000 ) ) ;
#256 = FACE_OUTER_BOUND ( 'NONE', #9, .T. ) ;
#257 = EDGE_CURVE ( 'NONE', #30, #164, #175, .T. ) ;
#258 = DIRECTION ( 'NONE',  ( -1.000000000000000000, 0.000000000000000000, 0.000000000000000000 ) ) ;
#259 = DIRECTION ( 'NONE',  ( 0.000000000000000000, 0.000000000000000000, 1.000000000000000000 ) ) ;
#260 =( NAMED_UNIT ( * ) SI_UNIT ( $, .STERADIAN. ) SOLID_ANGLE_UNIT ( ) );
#261 = ORIENTED_EDGE ( 'NONE', *, *, #207, .T. ) ;
#262 = CARTESIAN_POINT ( 'NONE',  ( 0.000000000000000000, 0.000000000000000000, 3.899999999999999911 ) ) ;
#263 = LINE ( 'NONE', #176, #272 ) ;
#264 = APPLICATION_PROTOCOL_DEFINITION ( 'draft international standard', 'automotive_design', 1998, #220 ) ;
#265 = ADVANCED_FACE ( 'NONE', ( #216 ), #155, .T. ) ;
#266 = ORIENTED_EDGE ( 'NONE', *, *, #203, .F. ) ;
#267 = EDGE_LOOP ( 'NONE', ( #118, #246, #137, #94 ) ) ;
#268 = EDGE_CURVE ( 'NONE', #164, #30, #79, .T. ) ;
#269 = CLOSED_SHELL ( 'NONE', ( #199, #212, #117, #237, #265, #249, #171, #274, #63 ) ) ;
#270 = ORIENTED_EDGE ( 'NONE', *, *, #200, .T. ) ;
#271 = SURFACE_STYLE_FILL_AREA ( #113 ) ;
#272 = VECTOR ( 'NONE', #132, 1000.000000000000000 ) ;
#273 = DIRECTION ( 'NONE',  ( 0.000000000000000000, 0.000000000000000000, 1.000000000000000000 ) ) ;
#274 = ADVANCED_FACE ( 'NONE', ( #209, #240 ), #193, .F. ) ;
#275 = DIRECTION ( 'NONE',  ( 1.000000000000000000, 0.000000000000000000, 0.000000000000000000 ) ) ;
#276 = FACE_OUTER_BOUND ( 'NONE', #267, .T. ) ;
#277 = CIRCLE ( 'NONE', #197, 8.000000000000000000 ) ;
#278 = CARTESIAN_POINT ( 'NONE',  ( 0.000000000000000000, 0.000000000000000000, 5.000000000000000000 ) ) ;
#279 = CARTESIAN_POINT ( 'NONE',  ( 0.000000000000000000, 0.000000000000000000, 5.000000000000000000 ) ) ;
ENDSEC;
END-ISO-10303-21;
