ISO-10303-21;
HEADER;
FILE_DESCRIPTION (( 'STEP AP214' ),
    '1' );
FILE_NAME ('±ê×¼¼þ-ÖáÌ×45-49-1A.STEP',
    '2026-08-16T17:26:53',
    ( '' ),
    ( '' ),
    'SwSTEP 2.0',
    'SolidWorks 2025',
    '' );
FILE_SCHEMA (( 'AUTOMOTIVE_DESIGN' ));
ENDSEC;

DATA;
#1 = PRESENTATION_LAYER_ASSIGNMENT (  '', '', ( #64 ) ) ;
#2 = PRODUCT_RELATED_PRODUCT_CATEGORY ( 'part', '', ( #50 ) ) ;
#3 = ORIENTED_EDGE ( 'NONE', *, *, #94, .F. ) ;
#4 = ORIENTED_EDGE ( 'NONE', *, *, #189, .T. ) ;
#5 = AXIS2_PLACEMENT_3D ( 'NONE', #77, #16, #139 ) ;
#6 = DIRECTION ( 'NONE',  ( 0.000000000000000000, 1.000000000000000000, 0.000000000000000000 ) ) ;
#7 = ADVANCED_FACE ( 'NONE', ( #89 ), #159, .F. ) ;
#8 = ORIENTED_EDGE ( 'NONE', *, *, #189, .F. ) ;
#9 =( GEOMETRIC_REPRESENTATION_CONTEXT ( 3 ) GLOBAL_UNCERTAINTY_ASSIGNED_CONTEXT ( ( #23 ) ) GLOBAL_UNIT_ASSIGNED_CONTEXT ( ( #31, #91, #32 ) ) REPRESENTATION_CONTEXT ( 'NONE', 'WORKASPACE' ) );
#10 = FILL_AREA_STYLE_COLOUR ( '', #88 ) ;
#11 = EDGE_CURVE ( 'NONE', #44, #101, #123, .T. ) ;
#12 = SURFACE_SIDE_STYLE ('',( #61 ) ) ;
#13 = PLANE ( 'NONE',  #142 ) ;
#14 = DIRECTION ( 'NONE',  ( 0.000000000000000000, 1.000000000000000000, 0.000000000000000000 ) ) ;
#15 = DIRECTION ( 'NONE',  ( 0.000000000000000000, 0.000000000000000000, 1.000000000000000000 ) ) ;
#16 = DIRECTION ( 'NONE',  ( 0.000000000000000000, 1.000000000000000000, 0.000000000000000000 ) ) ;
#17 = CARTESIAN_POINT ( 'NONE',  ( 0.000000000000000000, 1.000000000000000000, 0.000000000000000000 ) ) ;
#18 = CYLINDRICAL_SURFACE ( 'NONE', #124, 24.49999999999999289 ) ;
#19 = EDGE_CURVE ( 'NONE', #141, #22, #155, .T. ) ;
#20 = ORIENTED_EDGE ( 'NONE', *, *, #11, .F. ) ;
#21 = EDGE_CURVE ( 'NONE', #22, #60, #85, .T. ) ;
#22 = VERTEX_POINT ( 'NONE', #43 ) ;
#23 = UNCERTAINTY_MEASURE_WITH_UNIT (LENGTH_MEASURE( 1.000000000000000082E-05 ), #31, 'distance_accuracy_value', 'NONE');
#24 = DIRECTION ( 'NONE',  ( 0.000000000000000000, 0.000000000000000000, 1.000000000000000000 ) ) ;
#25 = EDGE_CURVE ( 'NONE', #75, #144, #169, .T. ) ;
#26 = ORIENTED_EDGE ( 'NONE', *, *, #194, .T. ) ;
#27 = ORIENTED_EDGE ( 'NONE', *, *, #76, .F. ) ;
#28 = ORIENTED_EDGE ( 'NONE', *, *, #143, .F. ) ;
#29 = ORIENTED_EDGE ( 'NONE', *, *, #194, .F. ) ;
#30 = AXIS2_PLACEMENT_3D ( 'NONE', #58, #162, #177 ) ;
#31 =( LENGTH_UNIT ( ) NAMED_UNIT ( * ) SI_UNIT ( .MILLI., .METRE. ) );
#32 =( NAMED_UNIT ( * ) SI_UNIT ( $, .STERADIAN. ) SOLID_ANGLE_UNIT ( ) );
#33 = FACE_BOUND ( 'NONE', #87, .T. ) ;
#34 = DIRECTION ( 'NONE',  ( 0.000000000000000000, 0.000000000000000000, 1.000000000000000000 ) ) ;
#35 = EDGE_CURVE ( 'NONE', #22, #141, #180, .T. ) ;
#36 = DIRECTION ( 'NONE',  ( 0.000000000000000000, -0.000000000000000000, 1.000000000000000000 ) ) ;
#37 = AXIS2_PLACEMENT_3D ( 'NONE', #110, #65, #34 ) ;
#38 = ORIENTED_EDGE ( 'NONE', *, *, #11, .T. ) ;
#39 = PRODUCT_DEFINITION_FORMATION_WITH_SPECIFIED_SOURCE ( 'å¯', '', #50, .NOT_KNOWN. ) ;
#40 = EDGE_LOOP ( 'NONE', ( #100, #171, #45, #81 ) ) ;
#41 = DIRECTION ( 'NONE',  ( 0.000000000000000000, -0.000000000000000000, 1.000000000000000000 ) ) ;
#42 = ORIENTED_EDGE ( 'NONE', *, *, #19, .F. ) ;
#43 = CARTESIAN_POINT ( 'NONE',  ( 0.000000000000000000, 1.000000000000000000, -22.49999999999999645 ) ) ;
#44 = VERTEX_POINT ( 'NONE', #149 ) ;
#45 = ORIENTED_EDGE ( 'NONE', *, *, #112, .F. ) ;
#46 = CLOSED_SHELL ( 'NONE', ( #7, #104, #59, #129, #178, #197 ) ) ;
#47 = CARTESIAN_POINT ( 'NONE',  ( 3.000384657911014680E-15, 1.000000000000000000, 24.49999999999999289 ) ) ;
#48 = DIRECTION ( 'NONE',  ( 0.000000000000000000, 1.000000000000000000, 0.000000000000000000 ) ) ;
#49 = CIRCLE ( 'NONE', #97, 22.49999999999999645 ) ;
#50 = PRODUCT ( '\X2\680751c64ef6\X0\-\X2\8f745957\X0\45-49-1A', '\X2\680751c64ef6\X0\-\X2\8f745957\X0\45-49-1A', '', ( #52 ) ) ;
#51 = DIRECTION ( 'NONE',  ( 0.000000000000000000, 1.000000000000000000, 0.000000000000000000 ) ) ;
#52 = PRODUCT_CONTEXT ( 'NONE', #121, 'mechanical' ) ;
#53 = ORIENTED_EDGE ( 'NONE', *, *, #94, .T. ) ;
#54 = UNCERTAINTY_MEASURE_WITH_UNIT (LENGTH_MEASURE( 1.000000000000000082E-05 ), #193, 'distance_accuracy_value', 'NONE');
#55 = EDGE_LOOP ( 'NONE', ( #38, #158 ) ) ;
#56 = AXIS2_PLACEMENT_3D ( 'NONE', #86, #71, #57 ) ;
#57 = DIRECTION ( 'NONE',  ( 0.000000000000000000, 0.000000000000000000, 1.000000000000000000 ) ) ;
#58 = CARTESIAN_POINT ( 'NONE',  ( 0.000000000000000000, 1.000000000000000000, 0.000000000000000000 ) ) ;
#59 = ADVANCED_FACE ( 'NONE', ( #147, #192 ), #13, .T. ) ;
#60 = VERTEX_POINT ( 'NONE', #70 ) ;
#61 = SURFACE_STYLE_FILL_AREA ( #119 ) ;
#62 = DIRECTION ( 'NONE',  ( -0.000000000000000000, -1.000000000000000000, -0.000000000000000000 ) ) ;
#63 = LINE ( 'NONE', #126, #156 ) ;
#64 = STYLED_ITEM ( 'NONE', ( #163 ), #67 ) ;
#65 = DIRECTION ( 'NONE',  ( 0.000000000000000000, 1.000000000000000000, 0.000000000000000000 ) ) ;
#66 = ORIENTED_EDGE ( 'NONE', *, *, #143, .T. ) ;
#67 = MANIFOLD_SOLID_BREP ( '\X2\51f853f0\X0\-\X2\62c94f38\X0\1', #46 ) ;
#68 = AXIS2_PLACEMENT_3D ( 'NONE', #161, #148, #24 ) ;
#69 = CIRCLE ( 'NONE', #109, 24.49999999999999289 ) ;
#70 = CARTESIAN_POINT ( 'NONE',  ( 0.000000000000000000, 0.000000000000000000, -22.49999999999999645 ) ) ;
#71 = DIRECTION ( 'NONE',  ( 0.000000000000000000, 1.000000000000000000, 0.000000000000000000 ) ) ;
#72 = CARTESIAN_POINT ( 'NONE',  ( 0.000000000000000000, 0.000000000000000000, 0.000000000000000000 ) ) ;
#73 = AXIS2_PLACEMENT_3D ( 'NONE', #17, #140, #182 ) ;
#74 = DIRECTION ( 'NONE',  ( 0.000000000000000000, 0.000000000000000000, 1.000000000000000000 ) ) ;
#75 = VERTEX_POINT ( 'NONE', #152 ) ;
#76 = EDGE_CURVE ( 'NONE', #141, #80, #190, .T. ) ;
#77 = CARTESIAN_POINT ( 'NONE',  ( 0.000000000000000000, 0.000000000000000000, 0.000000000000000000 ) ) ;
#78 = CARTESIAN_POINT ( 'NONE',  ( 0.000000000000000000, 0.000000000000000000, 0.000000000000000000 ) ) ;
#79 = CYLINDRICAL_SURFACE ( 'NONE', #99, 22.49999999999999645 ) ;
#80 = VERTEX_POINT ( 'NONE', #96 ) ;
#81 = ORIENTED_EDGE ( 'NONE', *, *, #21, .F. ) ;
#82 = DIRECTION ( 'NONE',  ( 0.000000000000000000, 0.000000000000000000, -1.000000000000000000 ) ) ;
#83 = AXIS2_PLACEMENT_3D ( 'NONE', #135, #103, #82 ) ;
#84 = CIRCLE ( 'NONE', #5, 22.49999999999999645 ) ;
#85 = LINE ( 'NONE', #188, #164 ) ;
#86 = CARTESIAN_POINT ( 'NONE',  ( 0.000000000000000000, 1.000000000000000000, 0.000000000000000000 ) ) ;
#87 = EDGE_LOOP ( 'NONE', ( #145, #66 ) ) ;
#88 = COLOUR_RGB ( '',0.7921568627450980005, 0.8196078431372548767, 0.9333333333333333481 ) ;
#89 = FACE_OUTER_BOUND ( 'NONE', #40, .T. ) ;
#90 = DIRECTION ( 'NONE',  ( -0.000000000000000000, -1.000000000000000000, -0.000000000000000000 ) ) ;
#91 =( NAMED_UNIT ( * ) PLANE_ANGLE_UNIT ( ) SI_UNIT ( $, .RADIAN. ) );
#92 = CARTESIAN_POINT ( 'NONE',  ( 2.755455298081543989E-15, 1.000000000000000000, 22.49999999999999645 ) ) ;
#93 = APPLICATION_CONTEXT ( 'automotive_design' ) ;
#94 = EDGE_CURVE ( 'NONE', #101, #144, #181, .T. ) ;
#95 = CARTESIAN_POINT ( 'NONE',  ( 0.000000000000000000, 0.000000000000000000, 0.000000000000000000 ) ) ;
#96 = CARTESIAN_POINT ( 'NONE',  ( 2.755455298081543989E-15, 0.000000000000000000, 22.49999999999999645 ) ) ;
#97 = AXIS2_PLACEMENT_3D ( 'NONE', #95, #48, #15 ) ;
#98 = PRODUCT_DEFINITION_CONTEXT ( 'detailed design', #93, 'design' ) ;
#99 = AXIS2_PLACEMENT_3D ( 'NONE', #125, #90, #199 ) ;
#100 = ORIENTED_EDGE ( 'NONE', *, *, #35, .T. ) ;
#101 = VERTEX_POINT ( 'NONE', #150 ) ;
#102 = ADVANCED_BREP_SHAPE_REPRESENTATION ( '\X2\680751c64ef6\X0\-\X2\8f745957\X0\45-49-1A', ( #67, #106 ), #9 ) ;
#103 = DIRECTION ( 'NONE',  ( -0.000000000000000000, -1.000000000000000000, -0.000000000000000000 ) ) ;
#104 = ADVANCED_FACE ( 'NONE', ( #167 ), #153, .T. ) ;
#105 = ORIENTED_EDGE ( 'NONE', *, *, #19, .T. ) ;
#106 = AXIS2_PLACEMENT_3D ( 'NONE', #137, #179, #183 ) ;
#107 = FACE_OUTER_BOUND ( 'NONE', #128, .T. ) ;
#108 = DIRECTION ( 'NONE',  ( -0.000000000000000000, -1.000000000000000000, -0.000000000000000000 ) ) ;
#109 = AXIS2_PLACEMENT_3D ( 'NONE', #127, #51, #151 ) ;
#110 = CARTESIAN_POINT ( 'NONE',  ( 0.000000000000000000, 1.000000000000000000, 0.000000000000000000 ) ) ;
#111 = VECTOR ( 'NONE', #108, 1000.000000000000000 ) ;
#112 = EDGE_CURVE ( 'NONE', #60, #80, #49, .T. ) ;
#113 = APPLICATION_PROTOCOL_DEFINITION ( 'draft international standard', 'automotive_design', 1998, #121 ) ;
#114 = FACE_OUTER_BOUND ( 'NONE', #160, .T. ) ;
#115 = EDGE_LOOP ( 'NONE', ( #27, #105, #186, #28 ) ) ;
#116 = PRODUCT_DEFINITION_SHAPE ( 'NONE', 'NONE',  #131 ) ;
#117 = CARTESIAN_POINT ( 'NONE',  ( 0.000000000000000000, 1.000000000000000000, 0.000000000000000000 ) ) ;
#118 = VECTOR ( 'NONE', #62, 1000.000000000000000 ) ;
#119 = FILL_AREA_STYLE ('',( #10 ) ) ;
#120 = DIRECTION ( 'NONE',  ( -0.000000000000000000, -1.000000000000000000, -0.000000000000000000 ) ) ;
#121 = APPLICATION_CONTEXT ( 'automotive_design' ) ;
#122 = DIRECTION ( 'NONE',  ( -0.000000000000000000, -1.000000000000000000, -0.000000000000000000 ) ) ;
#123 = CIRCLE ( 'NONE', #56, 24.49999999999999289 ) ;
#124 = AXIS2_PLACEMENT_3D ( 'NONE', #184, #196, #198 ) ;
#125 = CARTESIAN_POINT ( 'NONE',  ( 0.000000000000000000, 1.000000000000000000, 0.000000000000000000 ) ) ;
#126 = CARTESIAN_POINT ( 'NONE',  ( 0.000000000000000000, 1.000000000000000000, -24.49999999999999289 ) ) ;
#127 = CARTESIAN_POINT ( 'NONE',  ( 0.000000000000000000, 0.000000000000000000, 0.000000000000000000 ) ) ;
#128 = EDGE_LOOP ( 'NONE', ( #3, #20, #4, #134 ) ) ;
#129 = ADVANCED_FACE ( 'NONE', ( #114, #33 ), #168, .F. ) ;
#130 = SHAPE_DEFINITION_REPRESENTATION ( #116, #102 ) ;
#131 = PRODUCT_DEFINITION ( 'æ™', '', #39, #98 ) ;
#132 = SURFACE_STYLE_USAGE ( .BOTH. , #12 ) ;
#133 = MECHANICAL_DESIGN_GEOMETRIC_PRESENTATION_REPRESENTATION (  '', ( #64 ), #191 ) ;
#134 = ORIENTED_EDGE ( 'NONE', *, *, #25, .T. ) ;
#135 = CARTESIAN_POINT ( 'NONE',  ( 0.000000000000000000, 1.000000000000000000, 0.000000000000000000 ) ) ;
#136 = DIRECTION ( 'NONE',  ( 0.000000000000000000, 1.000000000000000000, 0.000000000000000000 ) ) ;
#137 = CARTESIAN_POINT ( 'NONE',  ( 0.000000000000000000, 0.000000000000000000, 0.000000000000000000 ) ) ;
#138 = FACE_OUTER_BOUND ( 'NONE', #115, .T. ) ;
#139 = DIRECTION ( 'NONE',  ( 0.000000000000000000, 0.000000000000000000, 1.000000000000000000 ) ) ;
#140 = DIRECTION ( 'NONE',  ( -0.000000000000000000, -1.000000000000000000, -0.000000000000000000 ) ) ;
#141 = VERTEX_POINT ( 'NONE', #92 ) ;
#142 = AXIS2_PLACEMENT_3D ( 'NONE', #117, #136, #41 ) ;
#143 = EDGE_CURVE ( 'NONE', #80, #60, #84, .T. ) ;
#144 = VERTEX_POINT ( 'NONE', #165 ) ;
#145 = ORIENTED_EDGE ( 'NONE', *, *, #112, .T. ) ;
#146 = AXIS2_PLACEMENT_3D ( 'NONE', #78, #14, #36 ) ;
#147 = FACE_OUTER_BOUND ( 'NONE', #55, .T. ) ;
#148 = DIRECTION ( 'NONE',  ( 0.000000000000000000, 1.000000000000000000, 0.000000000000000000 ) ) ;
#149 = CARTESIAN_POINT ( 'NONE',  ( 0.000000000000000000, 1.000000000000000000, -24.49999999999999289 ) ) ;
#150 = CARTESIAN_POINT ( 'NONE',  ( 3.000384657911014680E-15, 1.000000000000000000, 24.49999999999999289 ) ) ;
#151 = DIRECTION ( 'NONE',  ( 0.000000000000000000, 0.000000000000000000, 1.000000000000000000 ) ) ;
#152 = CARTESIAN_POINT ( 'NONE',  ( 0.000000000000000000, 0.000000000000000000, -24.49999999999999289 ) ) ;
#153 = CYLINDRICAL_SURFACE ( 'NONE', #73, 24.49999999999999289 ) ;
#154 = APPLICATION_PROTOCOL_DEFINITION ( 'draft international standard', 'automotive_design', 1998, #93 ) ;
#155 = CIRCLE ( 'NONE', #68, 22.49999999999999645 ) ;
#156 = VECTOR ( 'NONE', #122, 1000.000000000000000 ) ;
#157 = EDGE_LOOP ( 'NONE', ( #176, #53, #26, #8 ) ) ;
#158 = ORIENTED_EDGE ( 'NONE', *, *, #187, .T. ) ;
#159 = CYLINDRICAL_SURFACE ( 'NONE', #83, 22.49999999999999645 ) ;
#160 = EDGE_LOOP ( 'NONE', ( #172, #29 ) ) ;
#161 = CARTESIAN_POINT ( 'NONE',  ( 0.000000000000000000, 1.000000000000000000, 0.000000000000000000 ) ) ;
#162 = DIRECTION ( 'NONE',  ( 0.000000000000000000, 1.000000000000000000, 0.000000000000000000 ) ) ;
#163 = PRESENTATION_STYLE_ASSIGNMENT (( #132 ) ) ;
#164 = VECTOR ( 'NONE', #120, 1000.000000000000000 ) ;
#165 = CARTESIAN_POINT ( 'NONE',  ( 3.000384657911014680E-15, 0.000000000000000000, 24.49999999999999289 ) ) ;
#166 = CARTESIAN_POINT ( 'NONE',  ( 2.755455298081543989E-15, 1.000000000000000000, 22.49999999999999645 ) ) ;
#167 = FACE_OUTER_BOUND ( 'NONE', #157, .T. ) ;
#168 = PLANE ( 'NONE',  #146 ) ;
#169 = CIRCLE ( 'NONE', #174, 24.49999999999999289 ) ;
#170 = CIRCLE ( 'NONE', #37, 24.49999999999999289 ) ;
#171 = ORIENTED_EDGE ( 'NONE', *, *, #76, .T. ) ;
#172 = ORIENTED_EDGE ( 'NONE', *, *, #25, .F. ) ;
#173 = ORIENTED_EDGE ( 'NONE', *, *, #35, .F. ) ;
#174 = AXIS2_PLACEMENT_3D ( 'NONE', #72, #6, #74 ) ;
#175 =( NAMED_UNIT ( * ) PLANE_ANGLE_UNIT ( ) SI_UNIT ( $, .RADIAN. ) );
#176 = ORIENTED_EDGE ( 'NONE', *, *, #187, .F. ) ;
#177 = DIRECTION ( 'NONE',  ( 0.000000000000000000, 0.000000000000000000, 1.000000000000000000 ) ) ;
#178 = ADVANCED_FACE ( 'NONE', ( #107 ), #18, .T. ) ;
#179 = DIRECTION ( 'NONE',  ( 0.000000000000000000, 0.000000000000000000, 1.000000000000000000 ) ) ;
#180 = CIRCLE ( 'NONE', #30, 22.49999999999999645 ) ;
#181 = LINE ( 'NONE', #47, #111 ) ;
#182 = DIRECTION ( 'NONE',  ( 0.000000000000000000, 0.000000000000000000, -1.000000000000000000 ) ) ;
#183 = DIRECTION ( 'NONE',  ( 1.000000000000000000, 0.000000000000000000, 0.000000000000000000 ) ) ;
#184 = CARTESIAN_POINT ( 'NONE',  ( 0.000000000000000000, 1.000000000000000000, 0.000000000000000000 ) ) ;
#185 = EDGE_LOOP ( 'NONE', ( #173, #42 ) ) ;
#186 = ORIENTED_EDGE ( 'NONE', *, *, #21, .T. ) ;
#187 = EDGE_CURVE ( 'NONE', #101, #44, #170, .T. ) ;
#188 = CARTESIAN_POINT ( 'NONE',  ( 0.000000000000000000, 1.000000000000000000, -22.49999999999999645 ) ) ;
#189 = EDGE_CURVE ( 'NONE', #44, #75, #63, .T. ) ;
#190 = LINE ( 'NONE', #166, #118 ) ;
#191 =( GEOMETRIC_REPRESENTATION_CONTEXT ( 3 ) GLOBAL_UNCERTAINTY_ASSIGNED_CONTEXT ( ( #54 ) ) GLOBAL_UNIT_ASSIGNED_CONTEXT ( ( #193, #175, #195 ) ) REPRESENTATION_CONTEXT ( 'NONE', 'WORKASPACE' ) );
#192 = FACE_BOUND ( 'NONE', #185, .T. ) ;
#193 =( LENGTH_UNIT ( ) NAMED_UNIT ( * ) SI_UNIT ( .MILLI., .METRE. ) );
#194 = EDGE_CURVE ( 'NONE', #144, #75, #69, .T. ) ;
#195 =( NAMED_UNIT ( * ) SI_UNIT ( $, .STERADIAN. ) SOLID_ANGLE_UNIT ( ) );
#196 = DIRECTION ( 'NONE',  ( -0.000000000000000000, -1.000000000000000000, -0.000000000000000000 ) ) ;
#197 = ADVANCED_FACE ( 'NONE', ( #138 ), #79, .F. ) ;
#198 = DIRECTION ( 'NONE',  ( 0.000000000000000000, 0.000000000000000000, -1.000000000000000000 ) ) ;
#199 = DIRECTION ( 'NONE',  ( 0.000000000000000000, 0.000000000000000000, -1.000000000000000000 ) ) ;
ENDSEC;
END-ISO-10303-21;
