ISO-10303-21;
HEADER;
FILE_DESCRIPTION (( 'STEP AP214' ),
    '1' );
FILE_NAME ('标准件-m6-10通孔铝柱A.STEP',
    '2026-08-16T17:26:57',
    ( '' ),
    ( '' ),
    'SwSTEP 2.0',
    'SolidWorks 2025',
    '' );
FILE_SCHEMA (( 'AUTOMOTIVE_DESIGN' ));
ENDSEC;

DATA;
#1 = ORIENTED_EDGE ( 'NONE', *, *, #146, .T. ) ;
#2 = ORIENTED_EDGE ( 'NONE', *, *, #66, .F. ) ;
#3 = UNCERTAINTY_MEASURE_WITH_UNIT (LENGTH_MEASURE( 1.000000000000000082E-05 ), #92, 'distance_accuracy_value', 'NONE');
#4 = EDGE_CURVE ( 'NONE', #115, #45, #16, .T. ) ;
#5 = VERTEX_POINT ( 'NONE', #86 ) ;
#6 = PLANE ( 'NONE',  #62 ) ;
#7 = CYLINDRICAL_SURFACE ( 'NONE', #76, 4.999999999999999112 ) ;
#8 = CIRCLE ( 'NONE', #177, 4.999999999999999112 ) ;
#9 = FACE_BOUND ( 'NONE', #102, .T. ) ;
#10 = DIRECTION ( 'NONE',  ( -0.000000000000000000, -0.000000000000000000, -1.000000000000000000 ) ) ;
#11 = CIRCLE ( 'NONE', #138, 3.000000000000000444 ) ;
#12 = DIRECTION ( 'NONE',  ( 1.000000000000000000, 0.000000000000000000, 0.000000000000000000 ) ) ;
#13 = PRODUCT_DEFINITION_SHAPE ( 'NONE', 'NONE',  #15 ) ;
#14 = SHAPE_DEFINITION_REPRESENTATION ( #13, #166 ) ;
#15 = PRODUCT_DEFINITION ( '鏅', '', #198, #46 ) ;
#16 = CIRCLE ( 'NONE', #180, 4.999999999999999112 ) ;
#17 = ORIENTED_EDGE ( 'NONE', *, *, #4, .T. ) ;
#18 = CARTESIAN_POINT ( 'NONE',  ( 4.999999999999999112, 6.123233995736765296E-16, 0.000000000000000000 ) ) ;
#19 = ORIENTED_EDGE ( 'NONE', *, *, #56, .F. ) ;
#20 = CIRCLE ( 'NONE', #139, 3.000000000000000444 ) ;
#21 = EDGE_LOOP ( 'NONE', ( #189, #61 ) ) ;
#22 = CARTESIAN_POINT ( 'NONE',  ( 0.000000000000000000, 0.000000000000000000, 7.000000000000000000 ) ) ;
#23 = DIRECTION ( 'NONE',  ( -1.000000000000000000, 0.000000000000000000, 0.000000000000000000 ) ) ;
#24 = CARTESIAN_POINT ( 'NONE',  ( 4.999999999999999112, 6.123233995736765296E-16, 7.000000000000000000 ) ) ;
#25 = LINE ( 'NONE', #108, #93 ) ;
#26 = CARTESIAN_POINT ( 'NONE',  ( 0.000000000000000000, 0.000000000000000000, 0.000000000000000000 ) ) ;
#27 = DIRECTION ( 'NONE',  ( 1.000000000000000000, 0.000000000000000000, 0.000000000000000000 ) ) ;
#28 = VECTOR ( 'NONE', #178, 1000.000000000000000 ) ;
#29 = EDGE_LOOP ( 'NONE', ( #129, #1, #172, #111 ) ) ;
#30 = DIRECTION ( 'NONE',  ( 1.000000000000000000, 0.000000000000000000, 0.000000000000000000 ) ) ;
#31 = ORIENTED_EDGE ( 'NONE', *, *, #135, .T. ) ;
#32 =( NAMED_UNIT ( * ) PLANE_ANGLE_UNIT ( ) SI_UNIT ( $, .RADIAN. ) );
#33 = DIRECTION ( 'NONE',  ( 1.000000000000000000, 0.000000000000000000, 0.000000000000000000 ) ) ;
#34 = CARTESIAN_POINT ( 'NONE',  ( 0.000000000000000000, 0.000000000000000000, 7.000000000000000000 ) ) ;
#35 = DIRECTION ( 'NONE',  ( -0.000000000000000000, -0.000000000000000000, -1.000000000000000000 ) ) ;
#36 = CARTESIAN_POINT ( 'NONE',  ( -4.999999999999999112, 0.000000000000000000, 7.000000000000000000 ) ) ;
#37 = DIRECTION ( 'NONE',  ( -1.000000000000000000, 0.000000000000000000, 0.000000000000000000 ) ) ;
#38 = FACE_OUTER_BOUND ( 'NONE', #29, .T. ) ;
#39 = VECTOR ( 'NONE', #67, 1000.000000000000000 ) ;
#40 = VECTOR ( 'NONE', #54, 1000.000000000000000 ) ;
#41 = EDGE_CURVE ( 'NONE', #162, #5, #133, .T. ) ;
#42 = PRODUCT_CONTEXT ( 'NONE', #164, 'mechanical' ) ;
#43 = EDGE_LOOP ( 'NONE', ( #80, #19, #130, #17 ) ) ;
#44 = EDGE_CURVE ( 'NONE', #47, #142, #160, .T. ) ;
#45 = VERTEX_POINT ( 'NONE', #18 ) ;
#46 = PRODUCT_DEFINITION_CONTEXT ( 'detailed design', #75, 'design' ) ;
#47 = VERTEX_POINT ( 'NONE', #192 ) ;
#48 = ORIENTED_EDGE ( 'NONE', *, *, #44, .F. ) ;
#49 = AXIS2_PLACEMENT_3D ( 'NONE', #53, #106, #137 ) ;
#50 = CARTESIAN_POINT ( 'NONE',  ( 3.000000000000000444, 3.673940397442060361E-16, 7.000000000000000000 ) ) ;
#51 = LINE ( 'NONE', #24, #40 ) ;
#52 = DIRECTION ( 'NONE',  ( -0.000000000000000000, -0.000000000000000000, -1.000000000000000000 ) ) ;
#53 = CARTESIAN_POINT ( 'NONE',  ( 0.000000000000000000, 0.000000000000000000, 0.000000000000000000 ) ) ;
#54 = DIRECTION ( 'NONE',  ( -0.000000000000000000, -0.000000000000000000, -1.000000000000000000 ) ) ;
#55 = DIRECTION ( 'NONE',  ( 1.000000000000000000, 0.000000000000000000, 0.000000000000000000 ) ) ;
#56 = EDGE_CURVE ( 'NONE', #175, #100, #125, .T. ) ;
#57 = APPLICATION_PROTOCOL_DEFINITION ( 'draft international standard', 'automotive_design', 1998, #75 ) ;
#58 = PRESENTATION_LAYER_ASSIGNMENT (  '', '', ( #186 ) ) ;
#59 = MANIFOLD_SOLID_BREP ( '\X2\51f853f0\X0\-\X2\62c94f38\X0\1', #171 ) ;
#60 = ADVANCED_FACE ( 'NONE', ( #103, #163 ), #6, .T. ) ;
#61 = ORIENTED_EDGE ( 'NONE', *, *, #135, .F. ) ;
#62 = AXIS2_PLACEMENT_3D ( 'NONE', #22, #87, #181 ) ;
#63 = ORIENTED_EDGE ( 'NONE', *, *, #122, .T. ) ;
#64 = ORIENTED_EDGE ( 'NONE', *, *, #85, .F. ) ;
#65 = ORIENTED_EDGE ( 'NONE', *, *, #56, .T. ) ;
#66 = EDGE_CURVE ( 'NONE', #175, #115, #25, .T. ) ;
#67 = DIRECTION ( 'NONE',  ( -0.000000000000000000, -0.000000000000000000, -1.000000000000000000 ) ) ;
#68 = ORIENTED_EDGE ( 'NONE', *, *, #179, .F. ) ;
#69 = CYLINDRICAL_SURFACE ( 'NONE', #199, 3.000000000000000444 ) ;
#70 = COLOUR_RGB ( '',0.7921568627450980005, 0.8196078431372548767, 0.9333333333333333481 ) ;
#71 = CIRCLE ( 'NONE', #159, 3.000000000000000444 ) ;
#72 = CARTESIAN_POINT ( 'NONE',  ( 0.000000000000000000, 0.000000000000000000, 7.000000000000000000 ) ) ;
#73 = PLANE ( 'NONE',  #49 ) ;
#74 = DIRECTION ( 'NONE',  ( 0.000000000000000000, 0.000000000000000000, 1.000000000000000000 ) ) ;
#75 = APPLICATION_CONTEXT ( 'automotive_design' ) ;
#76 = AXIS2_PLACEMENT_3D ( 'NONE', #34, #118, #23 ) ;
#77 = CARTESIAN_POINT ( 'NONE',  ( 4.999999999999999112, 6.123233995736765296E-16, 7.000000000000000000 ) ) ;
#78 = ADVANCED_FACE ( 'NONE', ( #195 ), #7, .T. ) ;
#79 =( GEOMETRIC_REPRESENTATION_CONTEXT ( 3 ) GLOBAL_UNCERTAINTY_ASSIGNED_CONTEXT ( ( #3 ) ) GLOBAL_UNIT_ASSIGNED_CONTEXT ( ( #92, #141, #155 ) ) REPRESENTATION_CONTEXT ( 'NONE', 'WORKASPACE' ) );
#80 = ORIENTED_EDGE ( 'NONE', *, *, #150, .F. ) ;
#81 = SURFACE_STYLE_FILL_AREA ( #98 ) ;
#82 = CIRCLE ( 'NONE', #110, 3.000000000000000444 ) ;
#83 = PRODUCT ( '\X2\680751c64ef6\X0\-m6-10\X2\901a5b5494dd67f1\X0\A', '\X2\680751c64ef6\X0\-m6-10\X2\901a5b5494dd67f1\X0\A', '', ( #42 ) ) ;
#84 = EDGE_LOOP ( 'NONE', ( #64, #114 ) ) ;
#85 = EDGE_CURVE ( 'NONE', #47, #162, #82, .T. ) ;
#86 = CARTESIAN_POINT ( 'NONE',  ( 3.000000000000000444, 3.673940397442060361E-16, 0.000000000000000000 ) ) ;
#87 = DIRECTION ( 'NONE',  ( 0.000000000000000000, 0.000000000000000000, 1.000000000000000000 ) ) ;
#88 = DIRECTION ( 'NONE',  ( -0.000000000000000000, -0.000000000000000000, -1.000000000000000000 ) ) ;
#89 = CIRCLE ( 'NONE', #126, 4.999999999999999112 ) ;
#90 = DIRECTION ( 'NONE',  ( -1.000000000000000000, 0.000000000000000000, 0.000000000000000000 ) ) ;
#91 = ADVANCED_FACE ( 'NONE', ( #123 ), #69, .F. ) ;
#92 =( LENGTH_UNIT ( ) NAMED_UNIT ( * ) SI_UNIT ( .MILLI., .METRE. ) );
#93 = VECTOR ( 'NONE', #52, 1000.000000000000000 ) ;
#94 = CARTESIAN_POINT ( 'NONE',  ( 0.000000000000000000, 0.000000000000000000, 0.000000000000000000 ) ) ;
#95 = ORIENTED_EDGE ( 'NONE', *, *, #41, .T. ) ;
#96 = EDGE_LOOP ( 'NONE', ( #173, #127, #31, #2 ) ) ;
#97 = EDGE_CURVE ( 'NONE', #5, #142, #20, .T. ) ;
#98 = FILL_AREA_STYLE ('',( #190 ) ) ;
#99 = AXIS2_PLACEMENT_3D ( 'NONE', #182, #35, #37 ) ;
#100 = VERTEX_POINT ( 'NONE', #77 ) ;
#101 = DIRECTION ( 'NONE',  ( 0.000000000000000000, 0.000000000000000000, 1.000000000000000000 ) ) ;
#102 = EDGE_LOOP ( 'NONE', ( #116, #156 ) ) ;
#103 = FACE_OUTER_BOUND ( 'NONE', #117, .T. ) ;
#104 = CYLINDRICAL_SURFACE ( 'NONE', #99, 4.999999999999999112 ) ;
#105 = CARTESIAN_POINT ( 'NONE',  ( -4.999999999999999112, 0.000000000000000000, 0.000000000000000000 ) ) ;
#106 = DIRECTION ( 'NONE',  ( 0.000000000000000000, 0.000000000000000000, 1.000000000000000000 ) ) ;
#107 = CARTESIAN_POINT ( 'NONE',  ( 0.000000000000000000, 0.000000000000000000, 0.000000000000000000 ) ) ;
#108 = CARTESIAN_POINT ( 'NONE',  ( -4.999999999999999112, 0.000000000000000000, 7.000000000000000000 ) ) ;
#109 = AXIS2_PLACEMENT_3D ( 'NONE', #107, #187, #12 ) ;
#110 = AXIS2_PLACEMENT_3D ( 'NONE', #185, #74, #153 ) ;
#111 = ORIENTED_EDGE ( 'NONE', *, *, #97, .F. ) ;
#112 = ORIENTED_EDGE ( 'NONE', *, *, #85, .T. ) ;
#113 = ADVANCED_FACE ( 'NONE', ( #134 ), #104, .T. ) ;
#114 = ORIENTED_EDGE ( 'NONE', *, *, #146, .F. ) ;
#115 = VERTEX_POINT ( 'NONE', #105 ) ;
#116 = ORIENTED_EDGE ( 'NONE', *, *, #179, .T. ) ;
#117 = EDGE_LOOP ( 'NONE', ( #65, #63 ) ) ;
#118 = DIRECTION ( 'NONE',  ( -0.000000000000000000, -0.000000000000000000, -1.000000000000000000 ) ) ;
#119 = CARTESIAN_POINT ( 'NONE',  ( 0.000000000000000000, 0.000000000000000000, 7.000000000000000000 ) ) ;
#120 = DIRECTION ( 'NONE',  ( 0.000000000000000000, 0.000000000000000000, 1.000000000000000000 ) ) ;
#121 = DIRECTION ( 'NONE',  ( -1.000000000000000000, 0.000000000000000000, 0.000000000000000000 ) ) ;
#122 = EDGE_CURVE ( 'NONE', #100, #175, #8, .T. ) ;
#123 = FACE_OUTER_BOUND ( 'NONE', #145, .T. ) ;
#124 = APPLICATION_PROTOCOL_DEFINITION ( 'draft international standard', 'automotive_design', 1998, #164 ) ;
#125 = CIRCLE ( 'NONE', #158, 4.999999999999999112 ) ;
#126 = AXIS2_PLACEMENT_3D ( 'NONE', #26, #183, #27 ) ;
#127 = ORIENTED_EDGE ( 'NONE', *, *, #150, .T. ) ;
#128 =( GEOMETRIC_REPRESENTATION_CONTEXT ( 3 ) GLOBAL_UNCERTAINTY_ASSIGNED_CONTEXT ( ( #144 ) ) GLOBAL_UNIT_ASSIGNED_CONTEXT ( ( #157, #32, #143 ) ) REPRESENTATION_CONTEXT ( 'NONE', 'WORKASPACE' ) );
#129 = ORIENTED_EDGE ( 'NONE', *, *, #41, .F. ) ;
#130 = ORIENTED_EDGE ( 'NONE', *, *, #66, .T. ) ;
#131 = CARTESIAN_POINT ( 'NONE',  ( 0.000000000000000000, 0.000000000000000000, 0.000000000000000000 ) ) ;
#132 = SURFACE_STYLE_USAGE ( .BOTH. , #174 ) ;
#133 = LINE ( 'NONE', #50, #39 ) ;
#134 = FACE_OUTER_BOUND ( 'NONE', #96, .T. ) ;
#135 = EDGE_CURVE ( 'NONE', #45, #115, #89, .T. ) ;
#136 = CYLINDRICAL_SURFACE ( 'NONE', #154, 3.000000000000000444 ) ;
#137 = DIRECTION ( 'NONE',  ( 1.000000000000000000, 0.000000000000000000, -0.000000000000000000 ) ) ;
#138 = AXIS2_PLACEMENT_3D ( 'NONE', #165, #152, #169 ) ;
#139 = AXIS2_PLACEMENT_3D ( 'NONE', #94, #120, #170 ) ;
#140 = DIRECTION ( 'NONE',  ( 0.000000000000000000, 0.000000000000000000, 1.000000000000000000 ) ) ;
#141 =( NAMED_UNIT ( * ) PLANE_ANGLE_UNIT ( ) SI_UNIT ( $, .RADIAN. ) );
#142 = VERTEX_POINT ( 'NONE', #196 ) ;
#143 =( NAMED_UNIT ( * ) SI_UNIT ( $, .STERADIAN. ) SOLID_ANGLE_UNIT ( ) );
#144 = UNCERTAINTY_MEASURE_WITH_UNIT (LENGTH_MEASURE( 1.000000000000000082E-05 ), #157, 'distance_accuracy_value', 'NONE');
#145 = EDGE_LOOP ( 'NONE', ( #112, #95, #68, #48 ) ) ;
#146 = EDGE_CURVE ( 'NONE', #162, #47, #71, .T. ) ;
#147 = DIRECTION ( 'NONE',  ( 0.000000000000000000, 0.000000000000000000, 1.000000000000000000 ) ) ;
#148 = CARTESIAN_POINT ( 'NONE',  ( -3.000000000000000444, 0.000000000000000000, 7.000000000000000000 ) ) ;
#149 = CARTESIAN_POINT ( 'NONE',  ( 0.000000000000000000, 0.000000000000000000, 7.000000000000000000 ) ) ;
#150 = EDGE_CURVE ( 'NONE', #100, #45, #51, .T. ) ;
#151 = DIRECTION ( 'NONE',  ( 1.000000000000000000, 0.000000000000000000, 0.000000000000000000 ) ) ;
#152 = DIRECTION ( 'NONE',  ( 0.000000000000000000, 0.000000000000000000, 1.000000000000000000 ) ) ;
#153 = DIRECTION ( 'NONE',  ( 1.000000000000000000, 0.000000000000000000, 0.000000000000000000 ) ) ;
#154 = AXIS2_PLACEMENT_3D ( 'NONE', #194, #10, #90 ) ;
#155 =( NAMED_UNIT ( * ) SI_UNIT ( $, .STERADIAN. ) SOLID_ANGLE_UNIT ( ) );
#156 = ORIENTED_EDGE ( 'NONE', *, *, #97, .T. ) ;
#157 =( LENGTH_UNIT ( ) NAMED_UNIT ( * ) SI_UNIT ( .MILLI., .METRE. ) );
#158 = AXIS2_PLACEMENT_3D ( 'NONE', #149, #101, #33 ) ;
#159 = AXIS2_PLACEMENT_3D ( 'NONE', #72, #193, #151 ) ;
#160 = LINE ( 'NONE', #148, #28 ) ;
#161 = ADVANCED_FACE ( 'NONE', ( #38 ), #136, .F. ) ;
#162 = VERTEX_POINT ( 'NONE', #184 ) ;
#163 = FACE_BOUND ( 'NONE', #84, .T. ) ;
#164 = APPLICATION_CONTEXT ( 'automotive_design' ) ;
#165 = CARTESIAN_POINT ( 'NONE',  ( 0.000000000000000000, 0.000000000000000000, 0.000000000000000000 ) ) ;
#166 = ADVANCED_BREP_SHAPE_REPRESENTATION ( '\X2\680751c64ef6\X0\-m6-10\X2\901a5b5494dd67f1\X0\A', ( #59, #109 ), #79 ) ;
#167 = CARTESIAN_POINT ( 'NONE',  ( 0.000000000000000000, 0.000000000000000000, 7.000000000000000000 ) ) ;
#168 = PRODUCT_RELATED_PRODUCT_CATEGORY ( 'part', '', ( #83 ) ) ;
#169 = DIRECTION ( 'NONE',  ( 1.000000000000000000, 0.000000000000000000, 0.000000000000000000 ) ) ;
#170 = DIRECTION ( 'NONE',  ( 1.000000000000000000, 0.000000000000000000, 0.000000000000000000 ) ) ;
#171 = CLOSED_SHELL ( 'NONE', ( #91, #113, #60, #188, #78, #161 ) ) ;
#172 = ORIENTED_EDGE ( 'NONE', *, *, #44, .T. ) ;
#173 = ORIENTED_EDGE ( 'NONE', *, *, #122, .F. ) ;
#174 = SURFACE_SIDE_STYLE ('',( #81 ) ) ;
#175 = VERTEX_POINT ( 'NONE', #36 ) ;
#176 = MECHANICAL_DESIGN_GEOMETRIC_PRESENTATION_REPRESENTATION (  '', ( #186 ), #128 ) ;
#177 = AXIS2_PLACEMENT_3D ( 'NONE', #167, #140, #55 ) ;
#178 = DIRECTION ( 'NONE',  ( -0.000000000000000000, -0.000000000000000000, -1.000000000000000000 ) ) ;
#179 = EDGE_CURVE ( 'NONE', #142, #5, #11, .T. ) ;
#180 = AXIS2_PLACEMENT_3D ( 'NONE', #131, #147, #30 ) ;
#181 = DIRECTION ( 'NONE',  ( 1.000000000000000000, 0.000000000000000000, -0.000000000000000000 ) ) ;
#182 = CARTESIAN_POINT ( 'NONE',  ( 0.000000000000000000, 0.000000000000000000, 7.000000000000000000 ) ) ;
#183 = DIRECTION ( 'NONE',  ( 0.000000000000000000, 0.000000000000000000, 1.000000000000000000 ) ) ;
#184 = CARTESIAN_POINT ( 'NONE',  ( 3.000000000000000444, 3.673940397442060361E-16, 7.000000000000000000 ) ) ;
#185 = CARTESIAN_POINT ( 'NONE',  ( 0.000000000000000000, 0.000000000000000000, 7.000000000000000000 ) ) ;
#186 = STYLED_ITEM ( 'NONE', ( #191 ), #59 ) ;
#187 = DIRECTION ( 'NONE',  ( 0.000000000000000000, 0.000000000000000000, 1.000000000000000000 ) ) ;
#188 = ADVANCED_FACE ( 'NONE', ( #197, #9 ), #73, .F. ) ;
#189 = ORIENTED_EDGE ( 'NONE', *, *, #4, .F. ) ;
#190 = FILL_AREA_STYLE_COLOUR ( '', #70 ) ;
#191 = PRESENTATION_STYLE_ASSIGNMENT (( #132 ) ) ;
#192 = CARTESIAN_POINT ( 'NONE',  ( -3.000000000000000444, 0.000000000000000000, 7.000000000000000000 ) ) ;
#193 = DIRECTION ( 'NONE',  ( 0.000000000000000000, 0.000000000000000000, 1.000000000000000000 ) ) ;
#194 = CARTESIAN_POINT ( 'NONE',  ( 0.000000000000000000, 0.000000000000000000, 7.000000000000000000 ) ) ;
#195 = FACE_OUTER_BOUND ( 'NONE', #43, .T. ) ;
#196 = CARTESIAN_POINT ( 'NONE',  ( -3.000000000000000444, 0.000000000000000000, 0.000000000000000000 ) ) ;
#197 = FACE_OUTER_BOUND ( 'NONE', #21, .T. ) ;
#198 = PRODUCT_DEFINITION_FORMATION_WITH_SPECIFIED_SOURCE ( '瀵', '', #83, .NOT_KNOWN. ) ;
#199 = AXIS2_PLACEMENT_3D ( 'NONE', #119, #88, #121 ) ;
ENDSEC;
END-ISO-10303-21;
