ISO-10303-21;
HEADER;
FILE_DESCRIPTION (( 'STEP AP214' ),
    '1' );
FILE_NAME ('±ê×¼¼þ-hk2020-2rsA.STEP',
    '2026-08-16T17:26:55',
    ( '' ),
    ( '' ),
    'SwSTEP 2.0',
    'SolidWorks 2025',
    '' );
FILE_SCHEMA (( 'AUTOMOTIVE_DESIGN' ));
ENDSEC;

DATA;
#1 = CYLINDRICAL_SURFACE ( 'NONE', #156, 12.99999999999999822 ) ;
#2 = DIRECTION ( 'NONE',  ( 0.000000000000000000, 0.000000000000000000, 1.000000000000000000 ) ) ;
#3 = MECHANICAL_DESIGN_GEOMETRIC_PRESENTATION_REPRESENTATION (  '', ( #144 ), #71 ) ;
#4 = EDGE_CURVE ( 'NONE', #138, #159, #25, .T. ) ;
#5 = CARTESIAN_POINT ( 'NONE',  ( 0.000000000000000000, 0.000000000000000000, 20.00000000000000000 ) ) ;
#6 = ORIENTED_EDGE ( 'NONE', *, *, #96, .T. ) ;
#7 = AXIS2_PLACEMENT_3D ( 'NONE', #87, #35, #121 ) ;
#8 = PLANE ( 'NONE',  #98 ) ;
#9 = APPLICATION_CONTEXT ( 'automotive_design' ) ;
#10 = LINE ( 'NONE', #162, #124 ) ;
#11 = VERTEX_POINT ( 'NONE', #114 ) ;
#12 = VERTEX_POINT ( 'NONE', #61 ) ;
#13 = ADVANCED_FACE ( 'NONE', ( #100 ), #1, .T. ) ;
#14 = ORIENTED_EDGE ( 'NONE', *, *, #80, .T. ) ;
#15 = ORIENTED_EDGE ( 'NONE', *, *, #4, .F. ) ;
#16 = DIRECTION ( 'NONE',  ( -1.000000000000000000, 0.000000000000000000, 0.000000000000000000 ) ) ;
#17 =( LENGTH_UNIT ( ) NAMED_UNIT ( * ) SI_UNIT ( .MILLI., .METRE. ) );
#18 = ORIENTED_EDGE ( 'NONE', *, *, #42, .T. ) ;
#19 = ORIENTED_EDGE ( 'NONE', *, *, #80, .F. ) ;
#20 = DIRECTION ( 'NONE',  ( 0.000000000000000000, 0.000000000000000000, 1.000000000000000000 ) ) ;
#21 =( LENGTH_UNIT ( ) NAMED_UNIT ( * ) SI_UNIT ( .MILLI., .METRE. ) );
#22 = FACE_OUTER_BOUND ( 'NONE', #94, .T. ) ;
#23 = CARTESIAN_POINT ( 'NONE',  ( 10.00000000000000000, 1.224646799147353256E-15, 0.000000000000000000 ) ) ;
#24 = CARTESIAN_POINT ( 'NONE',  ( 0.000000000000000000, 0.000000000000000000, 0.000000000000000000 ) ) ;
#25 = CIRCLE ( 'NONE', #40, 10.00000000000000000 ) ;
#26 = EDGE_LOOP ( 'NONE', ( #188, #55, #43, #160 ) ) ;
#27 = EDGE_CURVE ( 'NONE', #11, #159, #64, .T. ) ;
#28 = EDGE_LOOP ( 'NONE', ( #93, #147 ) ) ;
#29 = ORIENTED_EDGE ( 'NONE', *, *, #96, .F. ) ;
#30 = AXIS2_PLACEMENT_3D ( 'NONE', #161, #83, #165 ) ;
#31 = PRESENTATION_STYLE_ASSIGNMENT (( #187 ) ) ;
#32 = CARTESIAN_POINT ( 'NONE',  ( 10.00000000000000000, 1.224646799147353256E-15, 20.00000000000000000 ) ) ;
#33 = APPLICATION_CONTEXT ( 'automotive_design' ) ;
#34 = EDGE_LOOP ( 'NONE', ( #75, #74 ) ) ;
#35 = DIRECTION ( 'NONE',  ( 0.000000000000000000, 0.000000000000000000, 1.000000000000000000 ) ) ;
#36 =( NAMED_UNIT ( * ) PLANE_ANGLE_UNIT ( ) SI_UNIT ( $, .RADIAN. ) );
#37 = EDGE_CURVE ( 'NONE', #159, #138, #67, .T. ) ;
#38 = CYLINDRICAL_SURFACE ( 'NONE', #125, 12.99999999999999822 ) ;
#39 = AXIS2_PLACEMENT_3D ( 'NONE', #103, #196, #69 ) ;
#40 = AXIS2_PLACEMENT_3D ( 'NONE', #146, #143, #44 ) ;
#41 = EDGE_LOOP ( 'NONE', ( #139, #14, #126, #77 ) ) ;
#42 = EDGE_CURVE ( 'NONE', #152, #12, #84, .T. ) ;
#43 = ORIENTED_EDGE ( 'NONE', *, *, #184, .T. ) ;
#44 = DIRECTION ( 'NONE',  ( 1.000000000000000000, 0.000000000000000000, 0.000000000000000000 ) ) ;
#45 = CARTESIAN_POINT ( 'NONE',  ( -12.99999999999999822, 0.000000000000000000, 20.00000000000000000 ) ) ;
#46 = CARTESIAN_POINT ( 'NONE',  ( 10.00000000000000000, 1.224646799147353256E-15, 20.00000000000000000 ) ) ;
#47 = DIRECTION ( 'NONE',  ( -0.000000000000000000, -0.000000000000000000, -1.000000000000000000 ) ) ;
#48 = CLOSED_SHELL ( 'NONE', ( #164, #158, #190, #145, #13, #56 ) ) ;
#49 =( NAMED_UNIT ( * ) PLANE_ANGLE_UNIT ( ) SI_UNIT ( $, .RADIAN. ) );
#50 = DIRECTION ( 'NONE',  ( -1.000000000000000000, 0.000000000000000000, 0.000000000000000000 ) ) ;
#51 = FACE_BOUND ( 'NONE', #34, .T. ) ;
#52 = CARTESIAN_POINT ( 'NONE',  ( 0.000000000000000000, 0.000000000000000000, 20.00000000000000000 ) ) ;
#53 = EDGE_CURVE ( 'NONE', #79, #11, #115, .T. ) ;
#54 = ORIENTED_EDGE ( 'NONE', *, *, #53, .T. ) ;
#55 = ORIENTED_EDGE ( 'NONE', *, *, #176, .F. ) ;
#56 = ADVANCED_FACE ( 'NONE', ( #60 ), #78, .F. ) ;
#57 = PRODUCT_DEFINITION_SHAPE ( 'NONE', 'NONE',  #153 ) ;
#58 = COLOUR_RGB ( '',0.7921568627450980005, 0.8196078431372548767, 0.9333333333333333481 ) ;
#59 = FILL_AREA_STYLE ('',( #174 ) ) ;
#60 = FACE_OUTER_BOUND ( 'NONE', #130, .T. ) ;
#61 = CARTESIAN_POINT ( 'NONE',  ( -12.99999999999999822, 0.000000000000000000, 0.000000000000000000 ) ) ;
#62 = CARTESIAN_POINT ( 'NONE',  ( 0.000000000000000000, 0.000000000000000000, 20.00000000000000000 ) ) ;
#63 = UNCERTAINTY_MEASURE_WITH_UNIT (LENGTH_MEASURE( 1.000000000000000082E-05 ), #21, 'distance_accuracy_value', 'NONE');
#64 = LINE ( 'NONE', #131, #172 ) ;
#65 = AXIS2_PLACEMENT_3D ( 'NONE', #52, #123, #120 ) ;
#66 = CARTESIAN_POINT ( 'NONE',  ( 0.000000000000000000, 0.000000000000000000, 20.00000000000000000 ) ) ;
#67 = CIRCLE ( 'NONE', #183, 10.00000000000000000 ) ;
#68 = AXIS2_PLACEMENT_3D ( 'NONE', #137, #88, #163 ) ;
#69 = DIRECTION ( 'NONE',  ( 1.000000000000000000, 0.000000000000000000, 0.000000000000000000 ) ) ;
#70 = DIRECTION ( 'NONE',  ( 1.000000000000000000, 0.000000000000000000, 0.000000000000000000 ) ) ;
#71 =( GEOMETRIC_REPRESENTATION_CONTEXT ( 3 ) GLOBAL_UNCERTAINTY_ASSIGNED_CONTEXT ( ( #99 ) ) GLOBAL_UNIT_ASSIGNED_CONTEXT ( ( #17, #49, #166 ) ) REPRESENTATION_CONTEXT ( 'NONE', 'WORKASPACE' ) );
#72 = DIRECTION ( 'NONE',  ( -0.000000000000000000, -0.000000000000000000, -1.000000000000000000 ) ) ;
#73 = SHAPE_DEFINITION_REPRESENTATION ( #57, #92 ) ;
#74 = ORIENTED_EDGE ( 'NONE', *, *, #53, .F. ) ;
#75 = ORIENTED_EDGE ( 'NONE', *, *, #134, .F. ) ;
#76 = ORIENTED_EDGE ( 'NONE', *, *, #27, .T. ) ;
#77 = ORIENTED_EDGE ( 'NONE', *, *, #27, .F. ) ;
#78 = CYLINDRICAL_SURFACE ( 'NONE', #195, 10.00000000000000000 ) ;
#79 = VERTEX_POINT ( 'NONE', #46 ) ;
#80 = EDGE_CURVE ( 'NONE', #79, #138, #102, .T. ) ;
#81 = DIRECTION ( 'NONE',  ( -1.000000000000000000, 0.000000000000000000, 0.000000000000000000 ) ) ;
#82 = VERTEX_POINT ( 'NONE', #45 ) ;
#83 = DIRECTION ( 'NONE',  ( 0.000000000000000000, 0.000000000000000000, 1.000000000000000000 ) ) ;
#84 = CIRCLE ( 'NONE', #178, 12.99999999999999822 ) ;
#85 = CARTESIAN_POINT ( 'NONE',  ( 12.99999999999999822, 1.592040838891558898E-15, 0.000000000000000000 ) ) ;
#86 = EDGE_CURVE ( 'NONE', #169, #152, #171, .T. ) ;
#87 = CARTESIAN_POINT ( 'NONE',  ( 0.000000000000000000, 0.000000000000000000, 20.00000000000000000 ) ) ;
#88 = DIRECTION ( 'NONE',  ( -0.000000000000000000, -0.000000000000000000, -1.000000000000000000 ) ) ;
#89 = VECTOR ( 'NONE', #47, 1000.000000000000000 ) ;
#90 = DIRECTION ( 'NONE',  ( 0.000000000000000000, 0.000000000000000000, 1.000000000000000000 ) ) ;
#91 = APPLICATION_PROTOCOL_DEFINITION ( 'draft international standard', 'automotive_design', 1998, #9 ) ;
#92 = ADVANCED_BREP_SHAPE_REPRESENTATION ( '\X2\680751c64ef6\X0\-hk2020-2rsA', ( #118, #140 ), #149 ) ;
#93 = ORIENTED_EDGE ( 'NONE', *, *, #37, .T. ) ;
#94 = EDGE_LOOP ( 'NONE', ( #141, #108 ) ) ;
#95 = PRODUCT ( '\X2\680751c64ef6\X0\-hk2020-2rsA', '\X2\680751c64ef6\X0\-hk2020-2rsA', '', ( #180 ) ) ;
#96 = EDGE_CURVE ( 'NONE', #169, #82, #119, .T. ) ;
#97 = SURFACE_SIDE_STYLE ('',( #186 ) ) ;
#98 = AXIS2_PLACEMENT_3D ( 'NONE', #104, #182, #136 ) ;
#99 = UNCERTAINTY_MEASURE_WITH_UNIT (LENGTH_MEASURE( 1.000000000000000082E-05 ), #17, 'distance_accuracy_value', 'NONE');
#100 = FACE_OUTER_BOUND ( 'NONE', #26, .T. ) ;
#101 = DIRECTION ( 'NONE',  ( 1.000000000000000000, 0.000000000000000000, 0.000000000000000000 ) ) ;
#102 = LINE ( 'NONE', #32, #127 ) ;
#103 = CARTESIAN_POINT ( 'NONE',  ( 0.000000000000000000, 0.000000000000000000, 0.000000000000000000 ) ) ;
#104 = CARTESIAN_POINT ( 'NONE',  ( 0.000000000000000000, 0.000000000000000000, 0.000000000000000000 ) ) ;
#105 =( NAMED_UNIT ( * ) SI_UNIT ( $, .STERADIAN. ) SOLID_ANGLE_UNIT ( ) );
#106 = PRODUCT_DEFINITION_FORMATION_WITH_SPECIFIED_SOURCE ( 'å¯', '', #95, .NOT_KNOWN. ) ;
#107 = ORIENTED_EDGE ( 'NONE', *, *, #184, .F. ) ;
#108 = ORIENTED_EDGE ( 'NONE', *, *, #42, .F. ) ;
#109 = AXIS2_PLACEMENT_3D ( 'NONE', #170, #177, #112 ) ;
#110 = CARTESIAN_POINT ( 'NONE',  ( 0.000000000000000000, 0.000000000000000000, 0.000000000000000000 ) ) ;
#111 = DIRECTION ( 'NONE',  ( 1.000000000000000000, 0.000000000000000000, 0.000000000000000000 ) ) ;
#112 = DIRECTION ( 'NONE',  ( 1.000000000000000000, 0.000000000000000000, 0.000000000000000000 ) ) ;
#113 = DIRECTION ( 'NONE',  ( 1.000000000000000000, 0.000000000000000000, 0.000000000000000000 ) ) ;
#114 = CARTESIAN_POINT ( 'NONE',  ( -10.00000000000000000, 0.000000000000000000, 20.00000000000000000 ) ) ;
#115 = CIRCLE ( 'NONE', #167, 10.00000000000000000 ) ;
#116 = FACE_OUTER_BOUND ( 'NONE', #41, .T. ) ;
#117 = APPLICATION_PROTOCOL_DEFINITION ( 'draft international standard', 'automotive_design', 1998, #33 ) ;
#118 = MANIFOLD_SOLID_BREP ( '\X2\51f853f0\X0\-\X2\62c94f38\X0\1', #48 ) ;
#119 = CIRCLE ( 'NONE', #109, 12.99999999999999822 ) ;
#120 = DIRECTION ( 'NONE',  ( 1.000000000000000000, 0.000000000000000000, -0.000000000000000000 ) ) ;
#121 = DIRECTION ( 'NONE',  ( 1.000000000000000000, 0.000000000000000000, 0.000000000000000000 ) ) ;
#122 = PRODUCT_RELATED_PRODUCT_CATEGORY ( 'part', '', ( #95 ) ) ;
#123 = DIRECTION ( 'NONE',  ( 0.000000000000000000, 0.000000000000000000, 1.000000000000000000 ) ) ;
#124 = VECTOR ( 'NONE', #72, 1000.000000000000000 ) ;
#125 = AXIS2_PLACEMENT_3D ( 'NONE', #66, #179, #50 ) ;
#126 = ORIENTED_EDGE ( 'NONE', *, *, #37, .F. ) ;
#127 = VECTOR ( 'NONE', #129, 1000.000000000000000 ) ;
#128 = CARTESIAN_POINT ( 'NONE',  ( 12.99999999999999822, 1.592040838891558898E-15, 20.00000000000000000 ) ) ;
#129 = DIRECTION ( 'NONE',  ( -0.000000000000000000, -0.000000000000000000, -1.000000000000000000 ) ) ;
#130 = EDGE_LOOP ( 'NONE', ( #19, #54, #76, #15 ) ) ;
#131 = CARTESIAN_POINT ( 'NONE',  ( -10.00000000000000000, 0.000000000000000000, 20.00000000000000000 ) ) ;
#132 = DIRECTION ( 'NONE',  ( 0.000000000000000000, 0.000000000000000000, 1.000000000000000000 ) ) ;
#133 = CARTESIAN_POINT ( 'NONE',  ( -10.00000000000000000, 0.000000000000000000, 0.000000000000000000 ) ) ;
#134 = EDGE_CURVE ( 'NONE', #11, #79, #173, .T. ) ;
#135 = CYLINDRICAL_SURFACE ( 'NONE', #68, 10.00000000000000000 ) ;
#136 = DIRECTION ( 'NONE',  ( 1.000000000000000000, 0.000000000000000000, -0.000000000000000000 ) ) ;
#137 = CARTESIAN_POINT ( 'NONE',  ( 0.000000000000000000, 0.000000000000000000, 20.00000000000000000 ) ) ;
#138 = VERTEX_POINT ( 'NONE', #23 ) ;
#139 = ORIENTED_EDGE ( 'NONE', *, *, #134, .T. ) ;
#140 = AXIS2_PLACEMENT_3D ( 'NONE', #24, #90, #70 ) ;
#141 = ORIENTED_EDGE ( 'NONE', *, *, #181, .F. ) ;
#142 = PRODUCT_DEFINITION_CONTEXT ( 'detailed design', #9, 'design' ) ;
#143 = DIRECTION ( 'NONE',  ( 0.000000000000000000, 0.000000000000000000, 1.000000000000000000 ) ) ;
#144 = STYLED_ITEM ( 'NONE', ( #31 ), #118 ) ;
#145 = ADVANCED_FACE ( 'NONE', ( #22, #193 ), #8, .F. ) ;
#146 = CARTESIAN_POINT ( 'NONE',  ( 0.000000000000000000, 0.000000000000000000, 0.000000000000000000 ) ) ;
#147 = ORIENTED_EDGE ( 'NONE', *, *, #4, .T. ) ;
#148 = DIRECTION ( 'NONE',  ( -0.000000000000000000, -0.000000000000000000, -1.000000000000000000 ) ) ;
#149 =( GEOMETRIC_REPRESENTATION_CONTEXT ( 3 ) GLOBAL_UNCERTAINTY_ASSIGNED_CONTEXT ( ( #63 ) ) GLOBAL_UNIT_ASSIGNED_CONTEXT ( ( #21, #36, #105 ) ) REPRESENTATION_CONTEXT ( 'NONE', 'WORKASPACE' ) );
#150 = CIRCLE ( 'NONE', #39, 12.99999999999999822 ) ;
#151 = CARTESIAN_POINT ( 'NONE',  ( 12.99999999999999822, 1.592040838891558898E-15, 20.00000000000000000 ) ) ;
#152 = VERTEX_POINT ( 'NONE', #85 ) ;
#153 = PRODUCT_DEFINITION ( 'æ™', '', #106, #142 ) ;
#154 = ORIENTED_EDGE ( 'NONE', *, *, #176, .T. ) ;
#155 = DIRECTION ( 'NONE',  ( -0.000000000000000000, -0.000000000000000000, -1.000000000000000000 ) ) ;
#156 = AXIS2_PLACEMENT_3D ( 'NONE', #5, #148, #81 ) ;
#157 = CIRCLE ( 'NONE', #7, 12.99999999999999822 ) ;
#158 = ADVANCED_FACE ( 'NONE', ( #192 ), #38, .T. ) ;
#159 = VERTEX_POINT ( 'NONE', #133 ) ;
#160 = ORIENTED_EDGE ( 'NONE', *, *, #181, .T. ) ;
#161 = CARTESIAN_POINT ( 'NONE',  ( 0.000000000000000000, 0.000000000000000000, 20.00000000000000000 ) ) ;
#162 = CARTESIAN_POINT ( 'NONE',  ( -12.99999999999999822, 0.000000000000000000, 20.00000000000000000 ) ) ;
#163 = DIRECTION ( 'NONE',  ( -1.000000000000000000, 0.000000000000000000, 0.000000000000000000 ) ) ;
#164 = ADVANCED_FACE ( 'NONE', ( #116 ), #135, .F. ) ;
#165 = DIRECTION ( 'NONE',  ( 1.000000000000000000, 0.000000000000000000, 0.000000000000000000 ) ) ;
#166 =( NAMED_UNIT ( * ) SI_UNIT ( $, .STERADIAN. ) SOLID_ANGLE_UNIT ( ) );
#167 = AXIS2_PLACEMENT_3D ( 'NONE', #62, #20, #101 ) ;
#168 = EDGE_LOOP ( 'NONE', ( #154, #6 ) ) ;
#169 = VERTEX_POINT ( 'NONE', #151 ) ;
#170 = CARTESIAN_POINT ( 'NONE',  ( 0.000000000000000000, 0.000000000000000000, 20.00000000000000000 ) ) ;
#171 = LINE ( 'NONE', #128, #89 ) ;
#172 = VECTOR ( 'NONE', #155, 1000.000000000000000 ) ;
#173 = CIRCLE ( 'NONE', #30, 10.00000000000000000 ) ;
#174 = FILL_AREA_STYLE_COLOUR ( '', #58 ) ;
#175 = DIRECTION ( 'NONE',  ( -0.000000000000000000, -0.000000000000000000, -1.000000000000000000 ) ) ;
#176 = EDGE_CURVE ( 'NONE', #82, #169, #157, .T. ) ;
#177 = DIRECTION ( 'NONE',  ( 0.000000000000000000, 0.000000000000000000, 1.000000000000000000 ) ) ;
#178 = AXIS2_PLACEMENT_3D ( 'NONE', #191, #2, #111 ) ;
#179 = DIRECTION ( 'NONE',  ( -0.000000000000000000, -0.000000000000000000, -1.000000000000000000 ) ) ;
#180 = PRODUCT_CONTEXT ( 'NONE', #33, 'mechanical' ) ;
#181 = EDGE_CURVE ( 'NONE', #12, #152, #150, .T. ) ;
#182 = DIRECTION ( 'NONE',  ( 0.000000000000000000, 0.000000000000000000, 1.000000000000000000 ) ) ;
#183 = AXIS2_PLACEMENT_3D ( 'NONE', #110, #132, #113 ) ;
#184 = EDGE_CURVE ( 'NONE', #82, #12, #10, .T. ) ;
#185 = ORIENTED_EDGE ( 'NONE', *, *, #86, .T. ) ;
#186 = SURFACE_STYLE_FILL_AREA ( #59 ) ;
#187 = SURFACE_STYLE_USAGE ( .BOTH. , #97 ) ;
#188 = ORIENTED_EDGE ( 'NONE', *, *, #86, .F. ) ;
#189 = CARTESIAN_POINT ( 'NONE',  ( 0.000000000000000000, 0.000000000000000000, 20.00000000000000000 ) ) ;
#190 = ADVANCED_FACE ( 'NONE', ( #194, #51 ), #197, .T. ) ;
#191 = CARTESIAN_POINT ( 'NONE',  ( 0.000000000000000000, 0.000000000000000000, 0.000000000000000000 ) ) ;
#192 = FACE_OUTER_BOUND ( 'NONE', #199, .T. ) ;
#193 = FACE_BOUND ( 'NONE', #28, .T. ) ;
#194 = FACE_OUTER_BOUND ( 'NONE', #168, .T. ) ;
#195 = AXIS2_PLACEMENT_3D ( 'NONE', #189, #175, #16 ) ;
#196 = DIRECTION ( 'NONE',  ( 0.000000000000000000, 0.000000000000000000, 1.000000000000000000 ) ) ;
#197 = PLANE ( 'NONE',  #65 ) ;
#198 = PRESENTATION_LAYER_ASSIGNMENT (  '', '', ( #144 ) ) ;
#199 = EDGE_LOOP ( 'NONE', ( #29, #185, #18, #107 ) ) ;
ENDSEC;
END-ISO-10303-21;
