ISO-10303-21;
HEADER;
FILE_DESCRIPTION (( 'STEP AP214' ),
    '1' );
FILE_NAME ('±ê×¼¼þ-µæÆ¬8-14-1A.STEP',
    '2026-08-16T17:26:52',
    ( '' ),
    ( '' ),
    'SwSTEP 2.0',
    'SolidWorks 2025',
    '' );
FILE_SCHEMA (( 'AUTOMOTIVE_DESIGN' ));
ENDSEC;

DATA;
#1 = EDGE_CURVE ( 'NONE', #146, #100, #120, .T. ) ;
#2 = CLOSED_SHELL ( 'NONE', ( #170, #96, #12, #82, #4, #17 ) ) ;
#3 = PRODUCT_DEFINITION_CONTEXT ( 'detailed design', #29, 'design' ) ;
#4 = ADVANCED_FACE ( 'NONE', ( #39 ), #123, .T. ) ;
#5 = EDGE_LOOP ( 'NONE', ( #21, #50, #144, #47 ) ) ;
#6 = ORIENTED_EDGE ( 'NONE', *, *, #76, .F. ) ;
#7 = ORIENTED_EDGE ( 'NONE', *, *, #59, .F. ) ;
#8 = CYLINDRICAL_SURFACE ( 'NONE', #176, 4.000000000000000000 ) ;
#9 = VERTEX_POINT ( 'NONE', #179 ) ;
#10 = DIRECTION ( 'NONE',  ( 1.000000000000000000, 0.000000000000000000, 0.000000000000000000 ) ) ;
#11 = MANIFOLD_SOLID_BREP ( '\X2\51f853f0\X0\-\X2\62c94f38\X0\1', #2 ) ;
#12 = ADVANCED_FACE ( 'NONE', ( #102, #133 ), #119, .T. ) ;
#13 = DIRECTION ( 'NONE',  ( 0.000000000000000000, 0.000000000000000000, 1.000000000000000000 ) ) ;
#14 = FACE_OUTER_BOUND ( 'NONE', #192, .T. ) ;
#15 = CARTESIAN_POINT ( 'NONE',  ( -4.000000000000000000, 0.000000000000000000, 1.000000000000000000 ) ) ;
#16 = CARTESIAN_POINT ( 'NONE',  ( -7.000000000000000888, 0.000000000000000000, 1.000000000000000000 ) ) ;
#17 = ADVANCED_FACE ( 'NONE', ( #14 ), #8, .F. ) ;
#18 = AXIS2_PLACEMENT_3D ( 'NONE', #101, #163, #165 ) ;
#19 = EDGE_LOOP ( 'NONE', ( #99, #65, #7, #36 ) ) ;
#20 = ORIENTED_EDGE ( 'NONE', *, *, #189, .T. ) ;
#21 = ORIENTED_EDGE ( 'NONE', *, *, #1, .F. ) ;
#22 = UNCERTAINTY_MEASURE_WITH_UNIT (LENGTH_MEASURE( 1.000000000000000082E-05 ), #78, 'distance_accuracy_value', 'NONE');
#23 = PRODUCT ( '\X2\680751c64ef6\X0\-\X2\57ab7247\X0\8-14-1A', '\X2\680751c64ef6\X0\-\X2\57ab7247\X0\8-14-1A', '', ( #95 ) ) ;
#24 = SURFACE_STYLE_FILL_AREA ( #151 ) ;
#25 = PRODUCT_RELATED_PRODUCT_CATEGORY ( 'part', '', ( #23 ) ) ;
#26 = CARTESIAN_POINT ( 'NONE',  ( 7.000000000000000888, 8.572527594031474176E-16, 1.000000000000000000 ) ) ;
#27 =( NAMED_UNIT ( * ) SI_UNIT ( $, .STERADIAN. ) SOLID_ANGLE_UNIT ( ) );
#28 = DIRECTION ( 'NONE',  ( 1.000000000000000000, 0.000000000000000000, -0.000000000000000000 ) ) ;
#29 = APPLICATION_CONTEXT ( 'automotive_design' ) ;
#30 = AXIS2_PLACEMENT_3D ( 'NONE', #166, #92, #54 ) ;
#31 = DIRECTION ( 'NONE',  ( 1.000000000000000000, 0.000000000000000000, 0.000000000000000000 ) ) ;
#32 = PRODUCT_DEFINITION_FORMATION_WITH_SPECIFIED_SOURCE ( 'å¯', '', #23, .NOT_KNOWN. ) ;
#33 = DIRECTION ( 'NONE',  ( -0.000000000000000000, -0.000000000000000000, -1.000000000000000000 ) ) ;
#34 = AXIS2_PLACEMENT_3D ( 'NONE', #139, #124, #62 ) ;
#35 = ORIENTED_EDGE ( 'NONE', *, *, #196, .F. ) ;
#36 = ORIENTED_EDGE ( 'NONE', *, *, #189, .F. ) ;
#37 = ORIENTED_EDGE ( 'NONE', *, *, #59, .T. ) ;
#38 = DIRECTION ( 'NONE',  ( -1.000000000000000000, 0.000000000000000000, 0.000000000000000000 ) ) ;
#39 = FACE_OUTER_BOUND ( 'NONE', #67, .T. ) ;
#40 = DIRECTION ( 'NONE',  ( 1.000000000000000000, 0.000000000000000000, 0.000000000000000000 ) ) ;
#41 = CARTESIAN_POINT ( 'NONE',  ( 0.000000000000000000, 0.000000000000000000, 1.000000000000000000 ) ) ;
#42 = CIRCLE ( 'NONE', #68, 4.000000000000000000 ) ;
#43 = AXIS2_PLACEMENT_3D ( 'NONE', #41, #107, #168 ) ;
#44 = DIRECTION ( 'NONE',  ( 1.000000000000000000, 0.000000000000000000, 0.000000000000000000 ) ) ;
#45 = STYLED_ITEM ( 'NONE', ( #121 ), #11 ) ;
#46 = LINE ( 'NONE', #126, #125 ) ;
#47 = ORIENTED_EDGE ( 'NONE', *, *, #130, .F. ) ;
#48 = EDGE_CURVE ( 'NONE', #129, #66, #117, .T. ) ;
#49 = ORIENTED_EDGE ( 'NONE', *, *, #127, .F. ) ;
#50 = ORIENTED_EDGE ( 'NONE', *, *, #88, .T. ) ;
#51 = AXIS2_PLACEMENT_3D ( 'NONE', #75, #150, #135 ) ;
#52 = ORIENTED_EDGE ( 'NONE', *, *, #88, .F. ) ;
#53 = CARTESIAN_POINT ( 'NONE',  ( 0.000000000000000000, 0.000000000000000000, 0.000000000000000000 ) ) ;
#54 = DIRECTION ( 'NONE',  ( 1.000000000000000000, 0.000000000000000000, -0.000000000000000000 ) ) ;
#55 = EDGE_CURVE ( 'NONE', #66, #129, #171, .T. ) ;
#56 =( LENGTH_UNIT ( ) NAMED_UNIT ( * ) SI_UNIT ( .MILLI., .METRE. ) );
#57 = AXIS2_PLACEMENT_3D ( 'NONE', #169, #195, #44 ) ;
#58 = DIRECTION ( 'NONE',  ( 1.000000000000000000, 0.000000000000000000, 0.000000000000000000 ) ) ;
#59 = EDGE_CURVE ( 'NONE', #142, #9, #167, .T. ) ;
#60 = LINE ( 'NONE', #64, #158 ) ;
#61 = CIRCLE ( 'NONE', #104, 7.000000000000000888 ) ;
#62 = DIRECTION ( 'NONE',  ( -1.000000000000000000, 0.000000000000000000, 0.000000000000000000 ) ) ;
#63 = PRESENTATION_LAYER_ASSIGNMENT (  '', '', ( #45 ) ) ;
#64 = CARTESIAN_POINT ( 'NONE',  ( 4.000000000000000000, 4.898587196589412829E-16, 1.000000000000000000 ) ) ;
#65 = ORIENTED_EDGE ( 'NONE', *, *, #160, .T. ) ;
#66 = VERTEX_POINT ( 'NONE', #122 ) ;
#67 = EDGE_LOOP ( 'NONE', ( #52, #49, #81, #83 ) ) ;
#68 = AXIS2_PLACEMENT_3D ( 'NONE', #53, #89, #10 ) ;
#69 = CIRCLE ( 'NONE', #43, 7.000000000000000888 ) ;
#70 = CARTESIAN_POINT ( 'NONE',  ( 0.000000000000000000, 0.000000000000000000, 1.000000000000000000 ) ) ;
#71 = CYLINDRICAL_SURFACE ( 'NONE', #148, 7.000000000000000888 ) ;
#72 = DIRECTION ( 'NONE',  ( -1.000000000000000000, 0.000000000000000000, 0.000000000000000000 ) ) ;
#73 =( GEOMETRIC_REPRESENTATION_CONTEXT ( 3 ) GLOBAL_UNCERTAINTY_ASSIGNED_CONTEXT ( ( #141 ) ) GLOBAL_UNIT_ASSIGNED_CONTEXT ( ( #56, #164, #27 ) ) REPRESENTATION_CONTEXT ( 'NONE', 'WORKASPACE' ) );
#74 = FACE_OUTER_BOUND ( 'NONE', #177, .T. ) ;
#75 = CARTESIAN_POINT ( 'NONE',  ( 0.000000000000000000, 0.000000000000000000, 1.000000000000000000 ) ) ;
#76 = EDGE_CURVE ( 'NONE', #9, #142, #42, .T. ) ;
#77 = CARTESIAN_POINT ( 'NONE',  ( -7.000000000000000888, 0.000000000000000000, 0.000000000000000000 ) ) ;
#78 =( LENGTH_UNIT ( ) NAMED_UNIT ( * ) SI_UNIT ( .MILLI., .METRE. ) );
#79 = DIRECTION ( 'NONE',  ( -0.000000000000000000, -0.000000000000000000, -1.000000000000000000 ) ) ;
#80 = ORIENTED_EDGE ( 'NONE', *, *, #76, .T. ) ;
#81 = ORIENTED_EDGE ( 'NONE', *, *, #130, .T. ) ;
#82 = ADVANCED_FACE ( 'NONE', ( #74, #136 ), #180, .F. ) ;
#83 = ORIENTED_EDGE ( 'NONE', *, *, #196, .T. ) ;
#84 = ORIENTED_EDGE ( 'NONE', *, *, #160, .F. ) ;
#85 = AXIS2_PLACEMENT_3D ( 'NONE', #162, #178, #40 ) ;
#86 = VECTOR ( 'NONE', #79, 1000.000000000000000 ) ;
#87 = DIRECTION ( 'NONE',  ( -0.000000000000000000, -0.000000000000000000, -1.000000000000000000 ) ) ;
#88 = EDGE_CURVE ( 'NONE', #146, #113, #188, .T. ) ;
#89 = DIRECTION ( 'NONE',  ( 0.000000000000000000, 0.000000000000000000, 1.000000000000000000 ) ) ;
#90 = FACE_OUTER_BOUND ( 'NONE', #5, .T. ) ;
#91 = COLOUR_RGB ( '',0.7921568627450980005, 0.8196078431372548767, 0.9333333333333333481 ) ;
#92 = DIRECTION ( 'NONE',  ( 0.000000000000000000, 0.000000000000000000, 1.000000000000000000 ) ) ;
#93 = CARTESIAN_POINT ( 'NONE',  ( 7.000000000000000888, 8.572527594031474176E-16, 1.000000000000000000 ) ) ;
#94 = DIRECTION ( 'NONE',  ( -1.000000000000000000, 0.000000000000000000, 0.000000000000000000 ) ) ;
#95 = PRODUCT_CONTEXT ( 'NONE', #114, 'mechanical' ) ;
#96 = ADVANCED_FACE ( 'NONE', ( #90 ), #71, .T. ) ;
#97 = CARTESIAN_POINT ( 'NONE',  ( -4.000000000000000000, 0.000000000000000000, 0.000000000000000000 ) ) ;
#98 = AXIS2_PLACEMENT_3D ( 'NONE', #140, #194, #31 ) ;
#99 = ORIENTED_EDGE ( 'NONE', *, *, #48, .T. ) ;
#100 = VERTEX_POINT ( 'NONE', #156 ) ;
#101 = CARTESIAN_POINT ( 'NONE',  ( 0.000000000000000000, 0.000000000000000000, 0.000000000000000000 ) ) ;
#102 = FACE_OUTER_BOUND ( 'NONE', #112, .T. ) ;
#103 = DIRECTION ( 'NONE',  ( -0.000000000000000000, -0.000000000000000000, -1.000000000000000000 ) ) ;
#104 = AXIS2_PLACEMENT_3D ( 'NONE', #184, #109, #182 ) ;
#105 = FILL_AREA_STYLE_COLOUR ( '', #91 ) ;
#106 = CARTESIAN_POINT ( 'NONE',  ( 0.000000000000000000, 0.000000000000000000, 1.000000000000000000 ) ) ;
#107 = DIRECTION ( 'NONE',  ( 0.000000000000000000, 0.000000000000000000, 1.000000000000000000 ) ) ;
#108 =( NAMED_UNIT ( * ) PLANE_ANGLE_UNIT ( ) SI_UNIT ( $, .RADIAN. ) );
#109 = DIRECTION ( 'NONE',  ( 0.000000000000000000, 0.000000000000000000, 1.000000000000000000 ) ) ;
#110 = PRODUCT_DEFINITION ( 'æ™', '', #32, #3 ) ;
#111 = APPLICATION_PROTOCOL_DEFINITION ( 'draft international standard', 'automotive_design', 1998, #29 ) ;
#112 = EDGE_LOOP ( 'NONE', ( #131, #116 ) ) ;
#113 = VERTEX_POINT ( 'NONE', #153 ) ;
#114 = APPLICATION_CONTEXT ( 'automotive_design' ) ;
#115 = PRODUCT_DEFINITION_SHAPE ( 'NONE', 'NONE',  #110 ) ;
#116 = ORIENTED_EDGE ( 'NONE', *, *, #1, .T. ) ;
#117 = CIRCLE ( 'NONE', #51, 4.000000000000000000 ) ;
#118 = ADVANCED_BREP_SHAPE_REPRESENTATION ( '\X2\680751c64ef6\X0\-\X2\57ab7247\X0\8-14-1A', ( #11, #57 ), #155 ) ;
#119 = PLANE ( 'NONE',  #30 ) ;
#120 = CIRCLE ( 'NONE', #143, 7.000000000000000888 ) ;
#121 = PRESENTATION_STYLE_ASSIGNMENT (( #147 ) ) ;
#122 = CARTESIAN_POINT ( 'NONE',  ( 4.000000000000000000, 4.898587196589412829E-16, 1.000000000000000000 ) ) ;
#123 = CYLINDRICAL_SURFACE ( 'NONE', #191, 7.000000000000000888 ) ;
#124 = DIRECTION ( 'NONE',  ( -0.000000000000000000, -0.000000000000000000, -1.000000000000000000 ) ) ;
#125 = VECTOR ( 'NONE', #128, 1000.000000000000000 ) ;
#126 = CARTESIAN_POINT ( 'NONE',  ( -4.000000000000000000, 0.000000000000000000, 1.000000000000000000 ) ) ;
#127 = EDGE_CURVE ( 'NONE', #100, #146, #69, .T. ) ;
#128 = DIRECTION ( 'NONE',  ( -0.000000000000000000, -0.000000000000000000, -1.000000000000000000 ) ) ;
#129 = VERTEX_POINT ( 'NONE', #15 ) ;
#130 = EDGE_CURVE ( 'NONE', #100, #175, #138, .T. ) ;
#131 = ORIENTED_EDGE ( 'NONE', *, *, #127, .T. ) ;
#132 = DIRECTION ( 'NONE',  ( 0.000000000000000000, 0.000000000000000000, 1.000000000000000000 ) ) ;
#133 = FACE_BOUND ( 'NONE', #173, .T. ) ;
#134 = EDGE_CURVE ( 'NONE', #113, #175, #172, .T. ) ;
#135 = DIRECTION ( 'NONE',  ( 1.000000000000000000, 0.000000000000000000, 0.000000000000000000 ) ) ;
#136 = FACE_BOUND ( 'NONE', #174, .T. ) ;
#137 = DIRECTION ( 'NONE',  ( -0.000000000000000000, -0.000000000000000000, -1.000000000000000000 ) ) ;
#138 = LINE ( 'NONE', #16, #86 ) ;
#139 = CARTESIAN_POINT ( 'NONE',  ( 0.000000000000000000, 0.000000000000000000, 1.000000000000000000 ) ) ;
#140 = CARTESIAN_POINT ( 'NONE',  ( 0.000000000000000000, 0.000000000000000000, 0.000000000000000000 ) ) ;
#141 = UNCERTAINTY_MEASURE_WITH_UNIT (LENGTH_MEASURE( 1.000000000000000082E-05 ), #56, 'distance_accuracy_value', 'NONE');
#142 = VERTEX_POINT ( 'NONE', #97 ) ;
#143 = AXIS2_PLACEMENT_3D ( 'NONE', #106, #13, #58 ) ;
#144 = ORIENTED_EDGE ( 'NONE', *, *, #134, .T. ) ;
#145 = ORIENTED_EDGE ( 'NONE', *, *, #55, .T. ) ;
#146 = VERTEX_POINT ( 'NONE', #93 ) ;
#147 = SURFACE_STYLE_USAGE ( .BOTH. , #190 ) ;
#148 = AXIS2_PLACEMENT_3D ( 'NONE', #199, #137, #94 ) ;
#149 = DIRECTION ( 'NONE',  ( -0.000000000000000000, -0.000000000000000000, -1.000000000000000000 ) ) ;
#150 = DIRECTION ( 'NONE',  ( 0.000000000000000000, 0.000000000000000000, 1.000000000000000000 ) ) ;
#151 = FILL_AREA_STYLE ('',( #105 ) ) ;
#152 = FACE_OUTER_BOUND ( 'NONE', #19, .T. ) ;
#153 = CARTESIAN_POINT ( 'NONE',  ( 7.000000000000000888, 8.572527594031474176E-16, 0.000000000000000000 ) ) ;
#154 = SHAPE_DEFINITION_REPRESENTATION ( #115, #118 ) ;
#155 =( GEOMETRIC_REPRESENTATION_CONTEXT ( 3 ) GLOBAL_UNCERTAINTY_ASSIGNED_CONTEXT ( ( #22 ) ) GLOBAL_UNIT_ASSIGNED_CONTEXT ( ( #78, #108, #197 ) ) REPRESENTATION_CONTEXT ( 'NONE', 'WORKASPACE' ) );
#156 = CARTESIAN_POINT ( 'NONE',  ( -7.000000000000000888, 0.000000000000000000, 1.000000000000000000 ) ) ;
#157 = AXIS2_PLACEMENT_3D ( 'NONE', #193, #132, #28 ) ;
#158 = VECTOR ( 'NONE', #33, 1000.000000000000000 ) ;
#159 = ORIENTED_EDGE ( 'NONE', *, *, #55, .F. ) ;
#160 = EDGE_CURVE ( 'NONE', #66, #9, #60, .T. ) ;
#161 = ORIENTED_EDGE ( 'NONE', *, *, #134, .F. ) ;
#162 = CARTESIAN_POINT ( 'NONE',  ( 0.000000000000000000, 0.000000000000000000, 1.000000000000000000 ) ) ;
#163 = DIRECTION ( 'NONE',  ( 0.000000000000000000, 0.000000000000000000, 1.000000000000000000 ) ) ;
#164 =( NAMED_UNIT ( * ) PLANE_ANGLE_UNIT ( ) SI_UNIT ( $, .RADIAN. ) );
#165 = DIRECTION ( 'NONE',  ( 1.000000000000000000, 0.000000000000000000, 0.000000000000000000 ) ) ;
#166 = CARTESIAN_POINT ( 'NONE',  ( 0.000000000000000000, 0.000000000000000000, 1.000000000000000000 ) ) ;
#167 = CIRCLE ( 'NONE', #18, 4.000000000000000000 ) ;
#168 = DIRECTION ( 'NONE',  ( 1.000000000000000000, 0.000000000000000000, 0.000000000000000000 ) ) ;
#169 = CARTESIAN_POINT ( 'NONE',  ( 0.000000000000000000, 0.000000000000000000, 0.000000000000000000 ) ) ;
#170 = ADVANCED_FACE ( 'NONE', ( #152 ), #186, .F. ) ;
#171 = CIRCLE ( 'NONE', #85, 4.000000000000000000 ) ;
#172 = CIRCLE ( 'NONE', #98, 7.000000000000000888 ) ;
#173 = EDGE_LOOP ( 'NONE', ( #187, #159 ) ) ;
#174 = EDGE_LOOP ( 'NONE', ( #37, #80 ) ) ;
#175 = VERTEX_POINT ( 'NONE', #77 ) ;
#176 = AXIS2_PLACEMENT_3D ( 'NONE', #70, #87, #38 ) ;
#177 = EDGE_LOOP ( 'NONE', ( #35, #161 ) ) ;
#178 = DIRECTION ( 'NONE',  ( 0.000000000000000000, 0.000000000000000000, 1.000000000000000000 ) ) ;
#179 = CARTESIAN_POINT ( 'NONE',  ( 4.000000000000000000, 4.898587196589412829E-16, 0.000000000000000000 ) ) ;
#180 = PLANE ( 'NONE',  #157 ) ;
#181 = CARTESIAN_POINT ( 'NONE',  ( 0.000000000000000000, 0.000000000000000000, 1.000000000000000000 ) ) ;
#182 = DIRECTION ( 'NONE',  ( 1.000000000000000000, 0.000000000000000000, 0.000000000000000000 ) ) ;
#183 = VECTOR ( 'NONE', #149, 1000.000000000000000 ) ;
#184 = CARTESIAN_POINT ( 'NONE',  ( 0.000000000000000000, 0.000000000000000000, 0.000000000000000000 ) ) ;
#185 = APPLICATION_PROTOCOL_DEFINITION ( 'draft international standard', 'automotive_design', 1998, #114 ) ;
#186 = CYLINDRICAL_SURFACE ( 'NONE', #34, 4.000000000000000000 ) ;
#187 = ORIENTED_EDGE ( 'NONE', *, *, #48, .F. ) ;
#188 = LINE ( 'NONE', #26, #183 ) ;
#189 = EDGE_CURVE ( 'NONE', #129, #142, #46, .T. ) ;
#190 = SURFACE_SIDE_STYLE ('',( #24 ) ) ;
#191 = AXIS2_PLACEMENT_3D ( 'NONE', #181, #103, #72 ) ;
#192 = EDGE_LOOP ( 'NONE', ( #84, #145, #20, #6 ) ) ;
#193 = CARTESIAN_POINT ( 'NONE',  ( 0.000000000000000000, 0.000000000000000000, 0.000000000000000000 ) ) ;
#194 = DIRECTION ( 'NONE',  ( 0.000000000000000000, 0.000000000000000000, 1.000000000000000000 ) ) ;
#195 = DIRECTION ( 'NONE',  ( 0.000000000000000000, 0.000000000000000000, 1.000000000000000000 ) ) ;
#196 = EDGE_CURVE ( 'NONE', #175, #113, #61, .T. ) ;
#197 =( NAMED_UNIT ( * ) SI_UNIT ( $, .STERADIAN. ) SOLID_ANGLE_UNIT ( ) );
#198 = MECHANICAL_DESIGN_GEOMETRIC_PRESENTATION_REPRESENTATION (  '', ( #45 ), #73 ) ;
#199 = CARTESIAN_POINT ( 'NONE',  ( 0.000000000000000000, 0.000000000000000000, 1.000000000000000000 ) ) ;
ENDSEC;
END-ISO-10303-21;
