ISO-10303-21;
HEADER;
FILE_DESCRIPTION (( 'STEP AP214' ),
    '1' );
FILE_NAME ('标准件-4孔连接件A.STEP',
    '2026-08-16T17:26:53',
    ( '' ),
    ( '' ),
    'SwSTEP 2.0',
    'SolidWorks 2025',
    '' );
FILE_SCHEMA (( 'AUTOMOTIVE_DESIGN' ));
ENDSEC;

DATA;
#1 = ADVANCED_FACE ( 'NONE', ( #396 ), #65, .F. ) ;
#2 = FACE_OUTER_BOUND ( 'NONE', #16, .T. ) ;
#3 = FACE_BOUND ( 'NONE', #401, .T. ) ;
#4 = DIRECTION ( 'NONE',  ( -0.000000000000000000, 1.000000000000000000, -0.000000000000000000 ) ) ;
#5 = CARTESIAN_POINT ( 'NONE',  ( 3.000000000000002220, 0.000000000000000000, 23.80000000000000071 ) ) ;
#6 = CIRCLE ( 'NONE', #247, 1.199999999999999734 ) ;
#7 = PRODUCT_DEFINITION_CONTEXT ( 'detailed design', #301, 'design' ) ;
#8 = CARTESIAN_POINT ( 'NONE',  ( 5.999999999999998224, 0.000000000000000000, 40.00000000000000000 ) ) ;
#9 = DIRECTION ( 'NONE',  ( 0.000000000000000000, -0.000000000000000000, -1.000000000000000000 ) ) ;
#10 = EDGE_CURVE ( 'NONE', #177, #316, #181, .T. ) ;
#11 = CIRCLE ( 'NONE', #213, 1.199999999999999734 ) ;
#12 = DIRECTION ( 'NONE',  ( 0.000000000000000000, 0.000000000000000000, 1.000000000000000000 ) ) ;
#13 = LINE ( 'NONE', #303, #120 ) ;
#14 = CARTESIAN_POINT ( 'NONE',  ( 0.000000000000000000, 0.000000000000000000, 0.000000000000000000 ) ) ;
#15 = CIRCLE ( 'NONE', #98, 1.199999999999999734 ) ;
#16 = EDGE_LOOP ( 'NONE', ( #246, #305, #474, #435 ) ) ;
#17 = APPLICATION_CONTEXT ( 'automotive_design' ) ;
#18 = ADVANCED_FACE ( 'NONE', ( #330 ), #109, .F. ) ;
#19 = SHAPE_DEFINITION_REPRESENTATION ( #343, #226 ) ;
#20 = FACE_OUTER_BOUND ( 'NONE', #357, .T. ) ;
#21 = EDGE_CURVE ( 'NONE', #50, #74, #465, .T. ) ;
#22 = ORIENTED_EDGE ( 'NONE', *, *, #73, .T. ) ;
#23 = DIRECTION ( 'NONE',  ( 0.000000000000000000, 0.000000000000000000, 1.000000000000000000 ) ) ;
#24 = EDGE_LOOP ( 'NONE', ( #323, #432, #58, #282 ) ) ;
#25 = PLANE ( 'NONE',  #427 ) ;
#26 = ORIENTED_EDGE ( 'NONE', *, *, #358, .F. ) ;
#27 = LINE ( 'NONE', #277, #235 ) ;
#28 = CARTESIAN_POINT ( 'NONE',  ( 50.00000000000000000, 3.000000000000000000, 15.00000000000000000 ) ) ;
#29 = EDGE_CURVE ( 'NONE', #206, #177, #6, .T. ) ;
#30 = CARTESIAN_POINT ( 'NONE',  ( 5.999999999999998224, 3.000000000000000000, 35.00000000000000000 ) ) ;
#31 = EDGE_LOOP ( 'NONE', ( #157, #26 ) ) ;
#32 = CIRCLE ( 'NONE', #313, 1.199999999999999734 ) ;
#33 = AXIS2_PLACEMENT_3D ( 'NONE', #75, #366, #482 ) ;
#34 = DIRECTION ( 'NONE',  ( 0.000000000000000000, 0.000000000000000000, 1.000000000000000000 ) ) ;
#35 = VERTEX_POINT ( 'NONE', #221 ) ;
#36 = ORIENTED_EDGE ( 'NONE', *, *, #304, .T. ) ;
#37 = EDGE_CURVE ( 'NONE', #105, #134, #201, .T. ) ;
#38 = VECTOR ( 'NONE', #342, 1000.000000000000000 ) ;
#39 = PLANE ( 'NONE',  #138 ) ;
#40 = PRODUCT_RELATED_PRODUCT_CATEGORY ( 'part', '', ( #331 ) ) ;
#41 = DIRECTION ( 'NONE',  ( 0.000000000000000000, -1.000000000000000000, 0.000000000000000000 ) ) ;
#42 = CARTESIAN_POINT ( 'NONE',  ( 0.000000000000000000, 6.000000000000000000, 0.000000000000000000 ) ) ;
#43 = AXIS2_PLACEMENT_3D ( 'NONE', #82, #368, #291 ) ;
#44 = FACE_OUTER_BOUND ( 'NONE', #287, .T. ) ;
#45 = EDGE_CURVE ( 'NONE', #472, #379, #417, .T. ) ;
#46 = CARTESIAN_POINT ( 'NONE',  ( 50.00000000000000000, 3.000000000000000000, 16.19999999999999929 ) ) ;
#47 = DIRECTION ( 'NONE',  ( 0.000000000000000000, 0.000000000000000000, 1.000000000000000000 ) ) ;
#48 = CARTESIAN_POINT ( 'NONE',  ( 0.000000000000000000, 0.000000000000000000, 0.000000000000000000 ) ) ;
#49 = DIRECTION ( 'NONE',  ( 0.000000000000000000, 0.000000000000000000, 1.000000000000000000 ) ) ;
#50 = VERTEX_POINT ( 'NONE', #5 ) ;
#51 = EDGE_CURVE ( 'NONE', #379, #89, #444, .T. ) ;
#52 = DIRECTION ( 'NONE',  ( 0.000000000000000000, 0.000000000000000000, 1.000000000000000000 ) ) ;
#53 = EDGE_LOOP ( 'NONE', ( #96, #208, #272, #174 ) ) ;
#54 = DIRECTION ( 'NONE',  ( 0.000000000000000000, 0.000000000000000000, 1.000000000000000000 ) ) ;
#55 = ORIENTED_EDGE ( 'NONE', *, *, #80, .F. ) ;
#56 = ADVANCED_FACE ( 'NONE', ( #3, #113, #412 ), #39, .F. ) ;
#57 = FILL_AREA_STYLE ('',( #202 ) ) ;
#58 = ORIENTED_EDGE ( 'NONE', *, *, #135, .F. ) ;
#59 = DIRECTION ( 'NONE',  ( 0.000000000000000000, 1.000000000000000000, 0.000000000000000000 ) ) ;
#60 = EDGE_LOOP ( 'NONE', ( #267, #367, #192, #442 ) ) ;
#61 = AXIS2_PLACEMENT_3D ( 'NONE', #199, #422, #390 ) ;
#62 = DIRECTION ( 'NONE',  ( -0.000000000000000000, -1.000000000000000000, -0.000000000000000000 ) ) ;
#63 = ORIENTED_EDGE ( 'NONE', *, *, #304, .F. ) ;
#64 = CYLINDRICAL_SURFACE ( 'NONE', #297, 1.199999999999999734 ) ;
#65 = CYLINDRICAL_SURFACE ( 'NONE', #268, 1.199999999999999734 ) ;
#66 = LINE ( 'NONE', #473, #340 ) ;
#67 = VERTEX_POINT ( 'NONE', #262 ) ;
#68 = CARTESIAN_POINT ( 'NONE',  ( 0.000000000000000000, 3.000000000000000000, 15.00000000000000000 ) ) ;
#69 = EDGE_LOOP ( 'NONE', ( #405, #169 ) ) ;
#70 = CIRCLE ( 'NONE', #402, 1.199999999999998845 ) ;
#71 = AXIS2_PLACEMENT_3D ( 'NONE', #294, #216, #337 ) ;
#72 = FACE_OUTER_BOUND ( 'NONE', #423, .T. ) ;
#73 = EDGE_CURVE ( 'NONE', #87, #165, #228, .T. ) ;
#74 = VERTEX_POINT ( 'NONE', #293 ) ;
#75 = CARTESIAN_POINT ( 'NONE',  ( 3.000000000000002220, 6.000000000000000000, 25.00000000000000000 ) ) ;
#76 = CARTESIAN_POINT ( 'NONE',  ( 0.000000000000000000, 0.000000000000000000, 0.000000000000000000 ) ) ;
#77 = VECTOR ( 'NONE', #93, 1000.000000000000000 ) ;
#78 = CARTESIAN_POINT ( 'NONE',  ( 5.999999999999998224, 3.000000000000000000, 15.00000000000000000 ) ) ;
#79 = DIRECTION ( 'NONE',  ( -1.000000000000000000, -0.000000000000000000, -0.000000000000000000 ) ) ;
#80 = EDGE_CURVE ( 'NONE', #89, #312, #222, .T. ) ;
#81 = DIRECTION ( 'NONE',  ( -0.000000000000000000, -0.000000000000000000, -1.000000000000000000 ) ) ;
#82 = CARTESIAN_POINT ( 'NONE',  ( 0.000000000000000000, 3.000000000000000000, 35.00000000000000000 ) ) ;
#83 = DIRECTION ( 'NONE',  ( 0.000000000000000000, 0.000000000000000000, 1.000000000000000000 ) ) ;
#84 = ORIENTED_EDGE ( 'NONE', *, *, #223, .F. ) ;
#85 =( NAMED_UNIT ( * ) SI_UNIT ( $, .STERADIAN. ) SOLID_ANGLE_UNIT ( ) );
#86 = DIRECTION ( 'NONE',  ( -1.000000000000000000, 0.000000000000000000, 0.000000000000000000 ) ) ;
#87 = VERTEX_POINT ( 'NONE', #76 ) ;
#88 = CYLINDRICAL_SURFACE ( 'NONE', #347, 1.199999999999998845 ) ;
#89 = VERTEX_POINT ( 'NONE', #146 ) ;
#90 = APPLICATION_PROTOCOL_DEFINITION ( 'draft international standard', 'automotive_design', 1998, #17 ) ;
#91 = ORIENTED_EDGE ( 'NONE', *, *, #51, .F. ) ;
#92 = AXIS2_PLACEMENT_3D ( 'NONE', #184, #443, #220 ) ;
#93 = DIRECTION ( 'NONE',  ( -0.000000000000000000, -1.000000000000000000, -0.000000000000000000 ) ) ;
#94 = ORIENTED_EDGE ( 'NONE', *, *, #21, .T. ) ;
#95 = DIRECTION ( 'NONE',  ( -1.000000000000000000, 0.000000000000000000, 0.000000000000000000 ) ) ;
#96 = ORIENTED_EDGE ( 'NONE', *, *, #128, .F. ) ;
#97 = AXIS2_PLACEMENT_3D ( 'NONE', #371, #41, #9 ) ;
#98 = AXIS2_PLACEMENT_3D ( 'NONE', #381, #124, #52 ) ;
#99 = CARTESIAN_POINT ( 'NONE',  ( 0.000000000000000000, 0.000000000000000000, 40.00000000000000000 ) ) ;
#100 = ORIENTED_EDGE ( 'NONE', *, *, #454, .T. ) ;
#101 = FACE_BOUND ( 'NONE', #276, .T. ) ;
#102 = ORIENTED_EDGE ( 'NONE', *, *, #326, .T. ) ;
#103 = VECTOR ( 'NONE', #79, 1000.000000000000000 ) ;
#104 = LINE ( 'NONE', #289, #234 ) ;
#105 = VERTEX_POINT ( 'NONE', #218 ) ;
#106 = DIRECTION ( 'NONE',  ( 0.000000000000000000, 0.000000000000000000, 1.000000000000000000 ) ) ;
#107 = VERTEX_POINT ( 'NONE', #447 ) ;
#108 = CIRCLE ( 'NONE', #132, 1.199999999999999734 ) ;
#109 = CYLINDRICAL_SURFACE ( 'NONE', #351, 1.199999999999998845 ) ;
#110 = CYLINDRICAL_SURFACE ( 'NONE', #71, 1.199999999999999734 ) ;
#111 = FACE_BOUND ( 'NONE', #31, .T. ) ;
#112 = DIRECTION ( 'NONE',  ( 0.000000000000000000, 1.000000000000000000, 0.000000000000000000 ) ) ;
#113 = FACE_BOUND ( 'NONE', #321, .T. ) ;
#114 = ADVANCED_FACE ( 'NONE', ( #452, #111, #257 ), #408, .F. ) ;
#115 = AXIS2_PLACEMENT_3D ( 'NONE', #400, #477, #243 ) ;
#116 = LINE ( 'NONE', #259, #154 ) ;
#117 = CARTESIAN_POINT ( 'NONE',  ( 3.000000000000002220, -44.00000000000000711, 23.80000000000000071 ) ) ;
#118 = DIRECTION ( 'NONE',  ( -1.000000000000000000, 0.000000000000000000, 0.000000000000000000 ) ) ;
#119 = EDGE_CURVE ( 'NONE', #285, #316, #369, .T. ) ;
#120 = VECTOR ( 'NONE', #269, 1000.000000000000000 ) ;
#121 = CARTESIAN_POINT ( 'NONE',  ( 50.00000000000000000, 3.000000000000000000, 35.00000000000000000 ) ) ;
#122 = DIRECTION ( 'NONE',  ( 0.000000000000000000, 1.000000000000000000, 0.000000000000000000 ) ) ;
#123 = ORIENTED_EDGE ( 'NONE', *, *, #232, .F. ) ;
#124 = DIRECTION ( 'NONE',  ( -1.000000000000000000, 0.000000000000000000, 0.000000000000000000 ) ) ;
#125 = ORIENTED_EDGE ( 'NONE', *, *, #37, .F. ) ;
#126 = DIRECTION ( 'NONE',  ( -0.000000000000000000, 1.000000000000000000, -0.000000000000000000 ) ) ;
#127 = EDGE_LOOP ( 'NONE', ( #426, #63, #171, #102 ) ) ;
#128 = EDGE_CURVE ( 'NONE', #35, #439, #373, .T. ) ;
#129 = CIRCLE ( 'NONE', #469, 1.199999999999998845 ) ;
#130 =( NAMED_UNIT ( * ) PLANE_ANGLE_UNIT ( ) SI_UNIT ( $, .RADIAN. ) );
#131 = ORIENTED_EDGE ( 'NONE', *, *, #424, .F. ) ;
#132 = AXIS2_PLACEMENT_3D ( 'NONE', #30, #322, #142 ) ;
#133 = DIRECTION ( 'NONE',  ( -1.000000000000000000, -0.000000000000000000, -0.000000000000000000 ) ) ;
#134 = VERTEX_POINT ( 'NONE', #296 ) ;
#135 = EDGE_CURVE ( 'NONE', #379, #137, #116, .T. ) ;
#136 = CARTESIAN_POINT ( 'NONE',  ( 50.00000000000000000, 3.000000000000000000, 13.79999999999999893 ) ) ;
#137 = VERTEX_POINT ( 'NONE', #225 ) ;
#138 = AXIS2_PLACEMENT_3D ( 'NONE', #255, #406, #147 ) ;
#139 = CIRCLE ( 'NONE', #219, 1.199999999999998845 ) ;
#140 = CARTESIAN_POINT ( 'NONE',  ( 2.999999999999999556, 0.000000000000000000, 5.000000000000000888 ) ) ;
#141 = ORIENTED_EDGE ( 'NONE', *, *, #188, .F. ) ;
#142 = DIRECTION ( 'NONE',  ( 0.000000000000000000, 0.000000000000000000, 1.000000000000000000 ) ) ;
#143 = ORIENTED_EDGE ( 'NONE', *, *, #266, .T. ) ;
#144 = LINE ( 'NONE', #136, #299 ) ;
#145 = ORIENTED_EDGE ( 'NONE', *, *, #238, .F. ) ;
#146 = CARTESIAN_POINT ( 'NONE',  ( 5.999999999999998224, 6.000000000000000000, 0.000000000000000000 ) ) ;
#147 = DIRECTION ( 'NONE',  ( 0.000000000000000000, 0.000000000000000000, -1.000000000000000000 ) ) ;
#148 = CARTESIAN_POINT ( 'NONE',  ( 0.000000000000000000, 3.000000000000000000, 15.00000000000000000 ) ) ;
#149 = DIRECTION ( 'NONE',  ( -1.000000000000000000, -0.000000000000000000, -0.000000000000000000 ) ) ;
#150 = CARTESIAN_POINT ( 'NONE',  ( 3.000000000000002220, 0.000000000000000000, 25.00000000000000000 ) ) ;
#151 = VECTOR ( 'NONE', #356, 1000.000000000000000 ) ;
#152 = VECTOR ( 'NONE', #4, 1000.000000000000000 ) ;
#153 = DIRECTION ( 'NONE',  ( 1.000000000000000000, 0.000000000000000000, 0.000000000000000000 ) ) ;
#154 = VECTOR ( 'NONE', #414, 1000.000000000000000 ) ;
#155 = FACE_OUTER_BOUND ( 'NONE', #53, .T. ) ;
#156 = ORIENTED_EDGE ( 'NONE', *, *, #167, .T. ) ;
#157 = ORIENTED_EDGE ( 'NONE', *, *, #430, .F. ) ;
#158 = CARTESIAN_POINT ( 'NONE',  ( 2.999999999999999556, 0.000000000000000000, 6.200000000000000178 ) ) ;
#159 = EDGE_CURVE ( 'NONE', #307, #350, #193, .T. ) ;
#160 = ORIENTED_EDGE ( 'NONE', *, *, #188, .T. ) ;
#161 = VECTOR ( 'NONE', #187, 1000.000000000000000 ) ;
#162 = CARTESIAN_POINT ( 'NONE',  ( 0.000000000000000000, 0.000000000000000000, 40.00000000000000000 ) ) ;
#163 = ORIENTED_EDGE ( 'NONE', *, *, #375, .T. ) ;
#164 = DIRECTION ( 'NONE',  ( -0.000000000000000000, -0.000000000000000000, -1.000000000000000000 ) ) ;
#165 = VERTEX_POINT ( 'NONE', #233 ) ;
#166 = CIRCLE ( 'NONE', #404, 1.199999999999998845 ) ;
#167 = EDGE_CURVE ( 'NONE', #74, #50, #433, .T. ) ;
#168 = CARTESIAN_POINT ( 'NONE',  ( 5.999999999999998224, 3.000000000000000000, 33.80000000000000426 ) ) ;
#169 = ORIENTED_EDGE ( 'NONE', *, *, #335, .T. ) ;
#170 = DIRECTION ( 'NONE',  ( 0.000000000000000000, 1.000000000000000000, 0.000000000000000000 ) ) ;
#171 = ORIENTED_EDGE ( 'NONE', *, *, #10, .T. ) ;
#172 = CARTESIAN_POINT ( 'NONE',  ( 0.000000000000000000, 3.000000000000000000, 16.19999999999999929 ) ) ;
#173 = MECHANICAL_DESIGN_GEOMETRIC_PRESENTATION_REPRESENTATION (  '', ( #194 ), #363 ) ;
#174 = ORIENTED_EDGE ( 'NONE', *, *, #232, .T. ) ;
#175 = AXIS2_PLACEMENT_3D ( 'NONE', #359, #245, #392 ) ;
#176 = CARTESIAN_POINT ( 'NONE',  ( 3.000000000000002220, 6.000000000000000000, 26.20000000000000284 ) ) ;
#177 = VERTEX_POINT ( 'NONE', #467 ) ;
#178 = DIRECTION ( 'NONE',  ( 0.000000000000000000, 0.000000000000000000, 1.000000000000000000 ) ) ;
#179 = ORIENTED_EDGE ( 'NONE', *, *, #45, .F. ) ;
#180 = LINE ( 'NONE', #450, #274 ) ;
#181 = LINE ( 'NONE', #46, #103 ) ;
#182 = EDGE_CURVE ( 'NONE', #468, #87, #13, .T. ) ;
#183 = DIRECTION ( 'NONE',  ( 0.000000000000000000, 0.000000000000000000, 1.000000000000000000 ) ) ;
#184 = CARTESIAN_POINT ( 'NONE',  ( 50.00000000000000000, 3.000000000000000000, 15.00000000000000000 ) ) ;
#185 = CARTESIAN_POINT ( 'NONE',  ( 2.999999999999999556, -44.00000000000000711, 3.800000000000002043 ) ) ;
#186 =( NAMED_UNIT ( * ) PLANE_ANGLE_UNIT ( ) SI_UNIT ( $, .RADIAN. ) );
#187 = DIRECTION ( 'NONE',  ( 0.000000000000000000, 1.000000000000000000, 0.000000000000000000 ) ) ;
#188 = EDGE_CURVE ( 'NONE', #312, #87, #345, .T. ) ;
#189 = AXIS2_PLACEMENT_3D ( 'NONE', #265, #425, #236 ) ;
#190 = DIRECTION ( 'NONE',  ( -0.000000000000000000, 1.000000000000000000, -0.000000000000000000 ) ) ;
#191 = SURFACE_STYLE_FILL_AREA ( #57 ) ;
#192 = ORIENTED_EDGE ( 'NONE', *, *, #424, .T. ) ;
#193 = CIRCLE ( 'NONE', #418, 1.199999999999999734 ) ;
#194 = STYLED_ITEM ( 'NONE', ( #349 ), #227 ) ;
#195 = ORIENTED_EDGE ( 'NONE', *, *, #37, .T. ) ;
#196 = ADVANCED_FACE ( 'NONE', ( #20 ), #308, .F. ) ;
#197 = DIRECTION ( 'NONE',  ( 0.000000000000000000, 0.000000000000000000, 1.000000000000000000 ) ) ;
#198 = ORIENTED_EDGE ( 'NONE', *, *, #358, .T. ) ;
#199 = CARTESIAN_POINT ( 'NONE',  ( 3.000000000000002220, 0.000000000000000000, 25.00000000000000000 ) ) ;
#200 = ORIENTED_EDGE ( 'NONE', *, *, #45, .T. ) ;
#201 = CIRCLE ( 'NONE', #43, 1.199999999999999734 ) ;
#202 = FILL_AREA_STYLE_COLOUR ( '', #281 ) ;
#203 = EDGE_CURVE ( 'NONE', #214, #35, #139, .T. ) ;
#204 = EDGE_LOOP ( 'NONE', ( #160, #437, #464, #100 ) ) ;
#205 = FACE_OUTER_BOUND ( 'NONE', #244, .T. ) ;
#206 = VERTEX_POINT ( 'NONE', #466 ) ;
#207 = CARTESIAN_POINT ( 'NONE',  ( 0.000000000000000000, 3.000000000000000000, 13.79999999999999893 ) ) ;
#208 = ORIENTED_EDGE ( 'NONE', *, *, #203, .F. ) ;
#209 = DIRECTION ( 'NONE',  ( 0.000000000000000000, 0.000000000000000000, -1.000000000000000000 ) ) ;
#210 = ORIENTED_EDGE ( 'NONE', *, *, #298, .T. ) ;
#211 = ADVANCED_FACE ( 'NONE', ( #155 ), #88, .F. ) ;
#212 = CARTESIAN_POINT ( 'NONE',  ( 3.000000000000002220, -44.00000000000000711, 25.00000000000000000 ) ) ;
#213 = AXIS2_PLACEMENT_3D ( 'NONE', #251, #95, #23 ) ;
#214 = VERTEX_POINT ( 'NONE', #158 ) ;
#215 =( GEOMETRIC_REPRESENTATION_CONTEXT ( 3 ) GLOBAL_UNCERTAINTY_ASSIGNED_CONTEXT ( ( #302 ) ) GLOBAL_UNIT_ASSIGNED_CONTEXT ( ( #256, #186, #85 ) ) REPRESENTATION_CONTEXT ( 'NONE', 'WORKASPACE' ) );
#216 = DIRECTION ( 'NONE',  ( -0.000000000000000000, 1.000000000000000000, -0.000000000000000000 ) ) ;
#217 = ORIENTED_EDGE ( 'NONE', *, *, #254, .T. ) ;
#218 = CARTESIAN_POINT ( 'NONE',  ( 0.000000000000000000, 3.000000000000000000, 33.80000000000000426 ) ) ;
#219 = AXIS2_PLACEMENT_3D ( 'NONE', #239, #59, #54 ) ;
#220 = DIRECTION ( 'NONE',  ( 0.000000000000000000, 0.000000000000000000, 1.000000000000000000 ) ) ;
#221 = CARTESIAN_POINT ( 'NONE',  ( 2.999999999999999556, 0.000000000000000000, 3.800000000000002043 ) ) ;
#222 = LINE ( 'NONE', #42, #38 ) ;
#223 = EDGE_CURVE ( 'NONE', #134, #105, #15, .T. ) ;
#224 = CARTESIAN_POINT ( 'NONE',  ( 0.000000000000000000, 6.000000000000000000, 40.00000000000000000 ) ) ;
#225 = CARTESIAN_POINT ( 'NONE',  ( 0.000000000000000000, 6.000000000000000000, 40.00000000000000000 ) ) ;
#226 = ADVANCED_BREP_SHAPE_REPRESENTATION ( '\X2\680751c64ef6\X0\-4\X2\5b548fde63a54ef6\X0\A', ( #227, #314 ), #215 ) ;
#227 = MANIFOLD_SOLID_BREP ( '\X2\52079664\X0\-\X2\62c94f38\X0\2', #288 ) ;
#228 = LINE ( 'NONE', #48, #391 ) ;
#229 = CARTESIAN_POINT ( 'NONE',  ( 3.000000000000002220, -44.00000000000000711, 26.20000000000000284 ) ) ;
#230 = SURFACE_SIDE_STYLE ('',( #191 ) ) ;
#231 = EDGE_LOOP ( 'NONE', ( #210, #217, #200, #242 ) ) ;
#232 = EDGE_CURVE ( 'NONE', #67, #439, #129, .T. ) ;
#233 = CARTESIAN_POINT ( 'NONE',  ( 5.999999999999998224, 0.000000000000000000, 0.000000000000000000 ) ) ;
#234 = VECTOR ( 'NONE', #62, 1000.000000000000000 ) ;
#235 = VECTOR ( 'NONE', #431, 1000.000000000000000 ) ;
#236 = DIRECTION ( 'NONE',  ( -1.000000000000000000, 0.000000000000000000, -0.000000000000000000 ) ) ;
#237 = ORIENTED_EDGE ( 'NONE', *, *, #440, .F. ) ;
#238 = EDGE_CURVE ( 'NONE', #74, #353, #311, .T. ) ;
#239 = CARTESIAN_POINT ( 'NONE',  ( 2.999999999999999556, 0.000000000000000000, 5.000000000000000888 ) ) ;
#240 = ORIENTED_EDGE ( 'NONE', *, *, #167, .F. ) ;
#241 = CARTESIAN_POINT ( 'NONE',  ( 5.999999999999998224, 3.000000000000000000, 36.20000000000000284 ) ) ;
#242 = ORIENTED_EDGE ( 'NONE', *, *, #135, .T. ) ;
#243 = DIRECTION ( 'NONE',  ( 0.000000000000000000, -0.000000000000000000, 1.000000000000000000 ) ) ;
#244 = EDGE_LOOP ( 'NONE', ( #22, #394, #365, #290 ) ) ;
#245 = DIRECTION ( 'NONE',  ( 0.000000000000000000, 1.000000000000000000, 0.000000000000000000 ) ) ;
#246 = ORIENTED_EDGE ( 'NONE', *, *, #266, .F. ) ;
#247 = AXIS2_PLACEMENT_3D ( 'NONE', #78, #118, #333 ) ;
#248 = ADVANCED_FACE ( 'NONE', ( #378 ), #271, .T. ) ;
#249 = CARTESIAN_POINT ( 'NONE',  ( 0.000000000000000000, 6.000000000000000000, 0.000000000000000000 ) ) ;
#250 = ORIENTED_EDGE ( 'NONE', *, *, #446, .F. ) ;
#251 = CARTESIAN_POINT ( 'NONE',  ( 5.999999999999998224, 3.000000000000000000, 15.00000000000000000 ) ) ;
#252 = ORIENTED_EDGE ( 'NONE', *, *, #119, .T. ) ;
#253 = CYLINDRICAL_SURFACE ( 'NONE', #92, 1.199999999999999734 ) ;
#254 = EDGE_CURVE ( 'NONE', #468, #472, #352, .T. ) ;
#255 = CARTESIAN_POINT ( 'NONE',  ( 0.000000000000000000, 0.000000000000000000, 40.00000000000000000 ) ) ;
#256 =( LENGTH_UNIT ( ) NAMED_UNIT ( * ) SI_UNIT ( .MILLI., .METRE. ) );
#257 = FACE_OUTER_BOUND ( 'NONE', #24, .T. ) ;
#258 = DIRECTION ( 'NONE',  ( 0.000000000000000000, 0.000000000000000000, 1.000000000000000000 ) ) ;
#259 = CARTESIAN_POINT ( 'NONE',  ( 0.000000000000000000, 6.000000000000000000, 40.00000000000000000 ) ) ;
#260 = PRODUCT_DEFINITION_FORMATION_WITH_SPECIFIED_SOURCE ( '瀵', '', #331, .NOT_KNOWN. ) ;
#261 = CARTESIAN_POINT ( 'NONE',  ( 50.00000000000000000, 3.000000000000000000, 35.00000000000000000 ) ) ;
#262 = CARTESIAN_POINT ( 'NONE',  ( 2.999999999999999556, 6.000000000000000000, 6.200000000000000178 ) ) ;
#263 = AXIS2_PLACEMENT_3D ( 'NONE', #148, #295, #258 ) ;
#264 =( NAMED_UNIT ( * ) SI_UNIT ( $, .STERADIAN. ) SOLID_ANGLE_UNIT ( ) );
#265 = CARTESIAN_POINT ( 'NONE',  ( 0.000000000000000000, 0.000000000000000000, 0.000000000000000000 ) ) ;
#266 = EDGE_CURVE ( 'NONE', #307, #105, #395, .T. ) ;
#267 = ORIENTED_EDGE ( 'NONE', *, *, #335, .F. ) ;
#268 = AXIS2_PLACEMENT_3D ( 'NONE', #28, #300, #183 ) ;
#269 = DIRECTION ( 'NONE',  ( -0.000000000000000000, -0.000000000000000000, -1.000000000000000000 ) ) ;
#270 = ORIENTED_EDGE ( 'NONE', *, *, #440, .T. ) ;
#271 = PLANE ( 'NONE',  #189 ) ;
#272 = ORIENTED_EDGE ( 'NONE', *, *, #393, .T. ) ;
#273 = VECTOR ( 'NONE', #164, 1000.000000000000000 ) ;
#274 = VECTOR ( 'NONE', #329, 1000.000000000000000 ) ;
#275 = DIRECTION ( 'NONE',  ( 1.000000000000000000, 0.000000000000000000, 0.000000000000000000 ) ) ;
#276 = EDGE_LOOP ( 'NONE', ( #278, #384 ) ) ;
#277 = CARTESIAN_POINT ( 'NONE',  ( 50.00000000000000000, 3.000000000000000000, 36.20000000000000284 ) ) ;
#278 = ORIENTED_EDGE ( 'NONE', *, *, #411, .T. ) ;
#279 = DIRECTION ( 'NONE',  ( -0.000000000000000000, 1.000000000000000000, -0.000000000000000000 ) ) ;
#280 = VECTOR ( 'NONE', #81, 1000.000000000000000 ) ;
#281 = COLOUR_RGB ( '',0.7921568627450980005, 0.8196078431372548767, 0.9333333333333333481 ) ;
#282 = ORIENTED_EDGE ( 'NONE', *, *, #51, .T. ) ;
#283 = DIRECTION ( 'NONE',  ( -1.000000000000000000, 0.000000000000000000, 0.000000000000000000 ) ) ;
#284 = ADVANCED_FACE ( 'NONE', ( #101, #438, #480 ), #25, .F. ) ;
#285 = VERTEX_POINT ( 'NONE', #207 ) ;
#286 = PLANE ( 'NONE',  #115 ) ;
#287 = EDGE_LOOP ( 'NONE', ( #429, #328, #198, #145 ) ) ;
#288 = CLOSED_SHELL ( 'NONE', ( #196, #415, #18, #470, #56, #319, #284, #114, #399, #248, #344, #211, #1, #463 ) ) ;
#289 = CARTESIAN_POINT ( 'NONE',  ( 0.000000000000000000, 0.000000000000000000, 40.00000000000000000 ) ) ;
#290 = ORIENTED_EDGE ( 'NONE', *, *, #182, .T. ) ;
#291 = DIRECTION ( 'NONE',  ( 0.000000000000000000, 0.000000000000000000, 1.000000000000000000 ) ) ;
#292 = CYLINDRICAL_SURFACE ( 'NONE', #428, 1.199999999999999734 ) ;
#293 = CARTESIAN_POINT ( 'NONE',  ( 3.000000000000002220, 0.000000000000000000, 26.20000000000000284 ) ) ;
#294 = CARTESIAN_POINT ( 'NONE',  ( 3.000000000000002220, -44.00000000000000711, 25.00000000000000000 ) ) ;
#295 = DIRECTION ( 'NONE',  ( -1.000000000000000000, 0.000000000000000000, 0.000000000000000000 ) ) ;
#296 = CARTESIAN_POINT ( 'NONE',  ( 0.000000000000000000, 3.000000000000000000, 36.20000000000000284 ) ) ;
#297 = AXIS2_PLACEMENT_3D ( 'NONE', #212, #471, #34 ) ;
#298 = EDGE_CURVE ( 'NONE', #137, #468, #104, .T. ) ;
#299 = VECTOR ( 'NONE', #133, 1000.000000000000000 ) ;
#300 = DIRECTION ( 'NONE',  ( -1.000000000000000000, -0.000000000000000000, -0.000000000000000000 ) ) ;
#301 = APPLICATION_CONTEXT ( 'automotive_design' ) ;
#302 = UNCERTAINTY_MEASURE_WITH_UNIT (LENGTH_MEASURE( 1.000000000000000082E-05 ), #256, 'distance_accuracy_value', 'NONE');
#303 = CARTESIAN_POINT ( 'NONE',  ( 0.000000000000000000, 0.000000000000000000, 40.00000000000000000 ) ) ;
#304 = EDGE_CURVE ( 'NONE', #177, #206, #11, .T. ) ;
#305 = ORIENTED_EDGE ( 'NONE', *, *, #411, .F. ) ;
#306 = DIRECTION ( 'NONE',  ( 0.000000000000000000, 0.000000000000000000, 1.000000000000000000 ) ) ;
#307 = VERTEX_POINT ( 'NONE', #168 ) ;
#308 = CYLINDRICAL_SURFACE ( 'NONE', #410, 1.199999999999999734 ) ;
#309 = EDGE_CURVE ( 'NONE', #472, #165, #317, .T. ) ;
#310 = EDGE_LOOP ( 'NONE', ( #156, #94 ) ) ;
#311 = LINE ( 'NONE', #229, #376 ) ;
#312 = VERTEX_POINT ( 'NONE', #249 ) ;
#313 = AXIS2_PLACEMENT_3D ( 'NONE', #68, #283, #315 ) ;
#314 = AXIS2_PLACEMENT_3D ( 'NONE', #332, #47, #380 ) ;
#315 = DIRECTION ( 'NONE',  ( 0.000000000000000000, 0.000000000000000000, 1.000000000000000000 ) ) ;
#316 = VERTEX_POINT ( 'NONE', #172 ) ;
#317 = LINE ( 'NONE', #354, #273 ) ;
#318 = ORIENTED_EDGE ( 'NONE', *, *, #326, .F. ) ;
#319 = ADVANCED_FACE ( 'NONE', ( #397, #403, #205 ), #286, .F. ) ;
#320 = CARTESIAN_POINT ( 'NONE',  ( 5.999999999999998224, 6.000000000000000000, 40.00000000000000000 ) ) ;
#321 = EDGE_LOOP ( 'NONE', ( #318, #460 ) ) ;
#322 = DIRECTION ( 'NONE',  ( -1.000000000000000000, 0.000000000000000000, 0.000000000000000000 ) ) ;
#323 = ORIENTED_EDGE ( 'NONE', *, *, #80, .T. ) ;
#324 = CARTESIAN_POINT ( 'NONE',  ( 50.00000000000000000, 3.000000000000000000, 33.80000000000000426 ) ) ;
#325 = ORIENTED_EDGE ( 'NONE', *, *, #159, .F. ) ;
#326 = EDGE_CURVE ( 'NONE', #316, #285, #32, .T. ) ;
#327 = CARTESIAN_POINT ( 'NONE',  ( 2.999999999999999556, 6.000000000000000000, 5.000000000000000888 ) ) ;
#328 = ORIENTED_EDGE ( 'NONE', *, *, #446, .T. ) ;
#329 = DIRECTION ( 'NONE',  ( 0.000000000000000000, 1.000000000000000000, 0.000000000000000000 ) ) ;
#330 = FACE_OUTER_BOUND ( 'NONE', #60, .T. ) ;
#331 = PRODUCT ( '\X2\680751c64ef6\X0\-4\X2\5b548fde63a54ef6\X0\A', '\X2\680751c64ef6\X0\-4\X2\5b548fde63a54ef6\X0\A', '', ( #461 ) ) ;
#332 = CARTESIAN_POINT ( 'NONE',  ( 0.000000000000000000, 0.000000000000000000, 0.000000000000000000 ) ) ;
#333 = DIRECTION ( 'NONE',  ( 0.000000000000000000, 0.000000000000000000, 1.000000000000000000 ) ) ;
#334 = AXIS2_PLACEMENT_3D ( 'NONE', #150, #449, #12 ) ;
#335 = EDGE_CURVE ( 'NONE', #35, #214, #70, .T. ) ;
#336 = DIRECTION ( 'NONE',  ( -0.000000000000000000, 1.000000000000000000, -0.000000000000000000 ) ) ;
#337 = DIRECTION ( 'NONE',  ( 0.000000000000000000, 0.000000000000000000, 1.000000000000000000 ) ) ;
#338 = DIRECTION ( 'NONE',  ( 0.000000000000000000, 0.000000000000000000, 1.000000000000000000 ) ) ;
#339 = VECTOR ( 'NONE', #275, 1000.000000000000000 ) ;
#340 = VECTOR ( 'NONE', #279, 1000.000000000000000 ) ;
#341 = APPLICATION_PROTOCOL_DEFINITION ( 'draft international standard', 'automotive_design', 1998, #301 ) ;
#342 = DIRECTION ( 'NONE',  ( -1.000000000000000000, -0.000000000000000000, -0.000000000000000000 ) ) ;
#343 = PRODUCT_DEFINITION_SHAPE ( 'NONE', 'NONE',  #478 ) ;
#344 = ADVANCED_FACE ( 'NONE', ( #72 ), #64, .F. ) ;
#345 = LINE ( 'NONE', #14, #77 ) ;
#346 = EDGE_LOOP ( 'NONE', ( #36, #382 ) ) ;
#347 = AXIS2_PLACEMENT_3D ( 'NONE', #462, #383, #197 ) ;
#348 = ORIENTED_EDGE ( 'NONE', *, *, #10, .F. ) ;
#349 = PRESENTATION_STYLE_ASSIGNMENT (( #421 ) ) ;
#350 = VERTEX_POINT ( 'NONE', #241 ) ;
#351 = AXIS2_PLACEMENT_3D ( 'NONE', #372, #190, #338 ) ;
#352 = LINE ( 'NONE', #162, #339 ) ;
#353 = VERTEX_POINT ( 'NONE', #176 ) ;
#354 = CARTESIAN_POINT ( 'NONE',  ( 5.999999999999998224, 0.000000000000000000, 40.00000000000000000 ) ) ;
#355 = EDGE_LOOP ( 'NONE', ( #362, #163, #252, #348 ) ) ;
#356 = DIRECTION ( 'NONE',  ( -1.000000000000000000, -0.000000000000000000, -0.000000000000000000 ) ) ;
#357 = EDGE_LOOP ( 'NONE', ( #325, #143, #195, #360 ) ) ;
#358 = EDGE_CURVE ( 'NONE', #107, #353, #385, .T. ) ;
#359 = CARTESIAN_POINT ( 'NONE',  ( 3.000000000000002220, 6.000000000000000000, 25.00000000000000000 ) ) ;
#360 = ORIENTED_EDGE ( 'NONE', *, *, #387, .F. ) ;
#361 = DIRECTION ( 'NONE',  ( -1.000000000000000000, 0.000000000000000000, -0.000000000000000000 ) ) ;
#362 = ORIENTED_EDGE ( 'NONE', *, *, #29, .F. ) ;
#363 =( GEOMETRIC_REPRESENTATION_CONTEXT ( 3 ) GLOBAL_UNCERTAINTY_ASSIGNED_CONTEXT ( ( #455 ) ) GLOBAL_UNIT_ASSIGNED_CONTEXT ( ( #458, #130, #264 ) ) REPRESENTATION_CONTEXT ( 'NONE', 'WORKASPACE' ) );
#364 = DIRECTION ( 'NONE',  ( -1.000000000000000000, 0.000000000000000000, 0.000000000000000000 ) ) ;
#365 = ORIENTED_EDGE ( 'NONE', *, *, #254, .F. ) ;
#366 = DIRECTION ( 'NONE',  ( 0.000000000000000000, 1.000000000000000000, 0.000000000000000000 ) ) ;
#367 = ORIENTED_EDGE ( 'NONE', *, *, #128, .T. ) ;
#368 = DIRECTION ( 'NONE',  ( -1.000000000000000000, 0.000000000000000000, 0.000000000000000000 ) ) ;
#369 = CIRCLE ( 'NONE', #263, 1.199999999999999734 ) ;
#370 = CARTESIAN_POINT ( 'NONE',  ( 0.000000000000000000, 0.000000000000000000, 40.00000000000000000 ) ) ;
#371 = CARTESIAN_POINT ( 'NONE',  ( 0.000000000000000000, 6.000000000000000000, 40.00000000000000000 ) ) ;
#372 = CARTESIAN_POINT ( 'NONE',  ( 2.999999999999999556, -44.00000000000000711, 5.000000000000000888 ) ) ;
#373 = LINE ( 'NONE', #185, #409 ) ;
#374 = CARTESIAN_POINT ( 'NONE',  ( 5.999999999999998224, 0.000000000000000000, 40.00000000000000000 ) ) ;
#375 = EDGE_CURVE ( 'NONE', #206, #285, #144, .T. ) ;
#376 = VECTOR ( 'NONE', #126, 1000.000000000000000 ) ;
#377 = AXIS2_PLACEMENT_3D ( 'NONE', #99, #209, #361 ) ;
#378 = FACE_OUTER_BOUND ( 'NONE', #476, .T. ) ;
#379 = VERTEX_POINT ( 'NONE', #320 ) ;
#380 = DIRECTION ( 'NONE',  ( 1.000000000000000000, 0.000000000000000000, 0.000000000000000000 ) ) ;
#381 = CARTESIAN_POINT ( 'NONE',  ( 0.000000000000000000, 3.000000000000000000, 35.00000000000000000 ) ) ;
#382 = ORIENTED_EDGE ( 'NONE', *, *, #29, .T. ) ;
#383 = DIRECTION ( 'NONE',  ( -0.000000000000000000, 1.000000000000000000, -0.000000000000000000 ) ) ;
#384 = ORIENTED_EDGE ( 'NONE', *, *, #159, .T. ) ;
#385 = CIRCLE ( 'NONE', #175, 1.199999999999999734 ) ;
#386 = CIRCLE ( 'NONE', #33, 1.199999999999999734 ) ;
#387 = EDGE_CURVE ( 'NONE', #350, #134, #27, .T. ) ;
#388 = CARTESIAN_POINT ( 'NONE',  ( 5.999999999999998224, 3.000000000000000000, 35.00000000000000000 ) ) ;
#389 = ORIENTED_EDGE ( 'NONE', *, *, #309, .T. ) ;
#390 = DIRECTION ( 'NONE',  ( 0.000000000000000000, 0.000000000000000000, 1.000000000000000000 ) ) ;
#391 = VECTOR ( 'NONE', #153, 1000.000000000000000 ) ;
#392 = DIRECTION ( 'NONE',  ( 0.000000000000000000, 0.000000000000000000, 1.000000000000000000 ) ) ;
#393 = EDGE_CURVE ( 'NONE', #214, #67, #66, .T. ) ;
#394 = ORIENTED_EDGE ( 'NONE', *, *, #309, .F. ) ;
#395 = LINE ( 'NONE', #324, #151 ) ;
#396 = FACE_OUTER_BOUND ( 'NONE', #127, .T. ) ;
#397 = FACE_BOUND ( 'NONE', #69, .T. ) ;
#398 = ORIENTED_EDGE ( 'NONE', *, *, #73, .F. ) ;
#399 = ADVANCED_FACE ( 'NONE', ( #475 ), #434, .F. ) ;
#400 = CARTESIAN_POINT ( 'NONE',  ( 0.000000000000000000, 0.000000000000000000, 40.00000000000000000 ) ) ;
#401 = EDGE_LOOP ( 'NONE', ( #84, #125 ) ) ;
#402 = AXIS2_PLACEMENT_3D ( 'NONE', #140, #170, #436 ) ;
#403 = FACE_BOUND ( 'NONE', #310, .T. ) ;
#404 = AXIS2_PLACEMENT_3D ( 'NONE', #327, #112, #178 ) ;
#405 = ORIENTED_EDGE ( 'NONE', *, *, #203, .T. ) ;
#406 = DIRECTION ( 'NONE',  ( 1.000000000000000000, 0.000000000000000000, 0.000000000000000000 ) ) ;
#407 = LINE ( 'NONE', #224, #453 ) ;
#408 = PLANE ( 'NONE',  #97 ) ;
#409 = VECTOR ( 'NONE', #336, 1000.000000000000000 ) ;
#410 = AXIS2_PLACEMENT_3D ( 'NONE', #121, #419, #49 ) ;
#411 = EDGE_CURVE ( 'NONE', #350, #307, #108, .T. ) ;
#412 = FACE_OUTER_BOUND ( 'NONE', #204, .T. ) ;
#413 = DIRECTION ( 'NONE',  ( 0.000000000000000000, 0.000000000000000000, 1.000000000000000000 ) ) ;
#414 = DIRECTION ( 'NONE',  ( -1.000000000000000000, -0.000000000000000000, -0.000000000000000000 ) ) ;
#415 = ADVANCED_FACE ( 'NONE', ( #448 ), #253, .F. ) ;
#416 = DIRECTION ( 'NONE',  ( -0.000000000000000000, -0.000000000000000000, -1.000000000000000000 ) ) ;
#417 = LINE ( 'NONE', #374, #161 ) ;
#418 = AXIS2_PLACEMENT_3D ( 'NONE', #388, #86, #306 ) ;
#419 = DIRECTION ( 'NONE',  ( -1.000000000000000000, -0.000000000000000000, -0.000000000000000000 ) ) ;
#420 = EDGE_LOOP ( 'NONE', ( #123, #131 ) ) ;
#421 = SURFACE_STYLE_USAGE ( .BOTH. , #230 ) ;
#422 = DIRECTION ( 'NONE',  ( 0.000000000000000000, 1.000000000000000000, 0.000000000000000000 ) ) ;
#423 = EDGE_LOOP ( 'NONE', ( #250, #240, #483, #481 ) ) ;
#424 = EDGE_CURVE ( 'NONE', #439, #67, #166, .T. ) ;
#425 = DIRECTION ( 'NONE',  ( 0.000000000000000000, 0.000000000000000000, -1.000000000000000000 ) ) ;
#426 = ORIENTED_EDGE ( 'NONE', *, *, #375, .F. ) ;
#427 = AXIS2_PLACEMENT_3D ( 'NONE', #441, #364, #106 ) ;
#428 = AXIS2_PLACEMENT_3D ( 'NONE', #261, #149, #413 ) ;
#429 = ORIENTED_EDGE ( 'NONE', *, *, #21, .F. ) ;
#430 = EDGE_CURVE ( 'NONE', #353, #107, #386, .T. ) ;
#431 = DIRECTION ( 'NONE',  ( -1.000000000000000000, -0.000000000000000000, -0.000000000000000000 ) ) ;
#432 = ORIENTED_EDGE ( 'NONE', *, *, #454, .F. ) ;
#433 = CIRCLE ( 'NONE', #61, 1.199999999999999734 ) ;
#434 = PLANE ( 'NONE',  #377 ) ;
#435 = ORIENTED_EDGE ( 'NONE', *, *, #223, .T. ) ;
#436 = DIRECTION ( 'NONE',  ( 0.000000000000000000, 0.000000000000000000, 1.000000000000000000 ) ) ;
#437 = ORIENTED_EDGE ( 'NONE', *, *, #182, .F. ) ;
#438 = FACE_BOUND ( 'NONE', #346, .T. ) ;
#439 = VERTEX_POINT ( 'NONE', #456 ) ;
#440 = EDGE_CURVE ( 'NONE', #165, #89, #180, .T. ) ;
#441 = CARTESIAN_POINT ( 'NONE',  ( 5.999999999999998224, 0.000000000000000000, 40.00000000000000000 ) ) ;
#442 = ORIENTED_EDGE ( 'NONE', *, *, #393, .F. ) ;
#443 = DIRECTION ( 'NONE',  ( -1.000000000000000000, -0.000000000000000000, -0.000000000000000000 ) ) ;
#444 = LINE ( 'NONE', #457, #280 ) ;
#445 = LINE ( 'NONE', #117, #152 ) ;
#446 = EDGE_CURVE ( 'NONE', #50, #107, #445, .T. ) ;
#447 = CARTESIAN_POINT ( 'NONE',  ( 3.000000000000002220, 6.000000000000000000, 23.80000000000000071 ) ) ;
#448 = FACE_OUTER_BOUND ( 'NONE', #355, .T. ) ;
#449 = DIRECTION ( 'NONE',  ( 0.000000000000000000, 1.000000000000000000, 0.000000000000000000 ) ) ;
#450 = CARTESIAN_POINT ( 'NONE',  ( 5.999999999999998224, 0.000000000000000000, 0.000000000000000000 ) ) ;
#451 = PRESENTATION_LAYER_ASSIGNMENT (  '', '', ( #194 ) ) ;
#452 = FACE_BOUND ( 'NONE', #420, .T. ) ;
#453 = VECTOR ( 'NONE', #416, 1000.000000000000000 ) ;
#454 = EDGE_CURVE ( 'NONE', #137, #312, #407, .T. ) ;
#455 = UNCERTAINTY_MEASURE_WITH_UNIT (LENGTH_MEASURE( 1.000000000000000082E-05 ), #458, 'distance_accuracy_value', 'NONE');
#456 = CARTESIAN_POINT ( 'NONE',  ( 2.999999999999999556, 6.000000000000000000, 3.800000000000002043 ) ) ;
#457 = CARTESIAN_POINT ( 'NONE',  ( 5.999999999999998224, 6.000000000000000000, 40.00000000000000000 ) ) ;
#458 =( LENGTH_UNIT ( ) NAMED_UNIT ( * ) SI_UNIT ( .MILLI., .METRE. ) );
#459 = CARTESIAN_POINT ( 'NONE',  ( 2.999999999999999556, 6.000000000000000000, 5.000000000000000888 ) ) ;
#460 = ORIENTED_EDGE ( 'NONE', *, *, #119, .F. ) ;
#461 = PRODUCT_CONTEXT ( 'NONE', #17, 'mechanical' ) ;
#462 = CARTESIAN_POINT ( 'NONE',  ( 2.999999999999999556, -44.00000000000000711, 5.000000000000000888 ) ) ;
#463 = ADVANCED_FACE ( 'NONE', ( #2 ), #292, .F. ) ;
#464 = ORIENTED_EDGE ( 'NONE', *, *, #298, .F. ) ;
#465 = CIRCLE ( 'NONE', #334, 1.199999999999999734 ) ;
#466 = CARTESIAN_POINT ( 'NONE',  ( 5.999999999999998224, 3.000000000000000000, 13.79999999999999893 ) ) ;
#467 = CARTESIAN_POINT ( 'NONE',  ( 5.999999999999998224, 3.000000000000000000, 16.19999999999999929 ) ) ;
#468 = VERTEX_POINT ( 'NONE', #370 ) ;
#469 = AXIS2_PLACEMENT_3D ( 'NONE', #459, #122, #83 ) ;
#470 = ADVANCED_FACE ( 'NONE', ( #44 ), #110, .F. ) ;
#471 = DIRECTION ( 'NONE',  ( -0.000000000000000000, 1.000000000000000000, -0.000000000000000000 ) ) ;
#472 = VERTEX_POINT ( 'NONE', #8 ) ;
#473 = CARTESIAN_POINT ( 'NONE',  ( 2.999999999999999556, -44.00000000000000711, 6.200000000000000178 ) ) ;
#474 = ORIENTED_EDGE ( 'NONE', *, *, #387, .T. ) ;
#475 = FACE_OUTER_BOUND ( 'NONE', #231, .T. ) ;
#476 = EDGE_LOOP ( 'NONE', ( #141, #55, #237, #398 ) ) ;
#477 = DIRECTION ( 'NONE',  ( 0.000000000000000000, 1.000000000000000000, 0.000000000000000000 ) ) ;
#478 = PRODUCT_DEFINITION ( '鏅', '', #260, #7 ) ;
#479 = EDGE_LOOP ( 'NONE', ( #270, #91, #179, #389 ) ) ;
#480 = FACE_OUTER_BOUND ( 'NONE', #479, .T. ) ;
#481 = ORIENTED_EDGE ( 'NONE', *, *, #430, .T. ) ;
#482 = DIRECTION ( 'NONE',  ( 0.000000000000000000, 0.000000000000000000, 1.000000000000000000 ) ) ;
#483 = ORIENTED_EDGE ( 'NONE', *, *, #238, .T. ) ;
ENDSEC;
END-ISO-10303-21;
