ISO-10303-21;
HEADER;
FILE_DESCRIPTION (( 'STEP AP214' ),
    '1' );
FILE_NAME ('标准件-塞打6-m5-20A.STEP',
    '2026-08-16T17:26:54',
    ( '' ),
    ( '' ),
    'SwSTEP 2.0',
    'SolidWorks 2025',
    '' );
FILE_SCHEMA (( 'AUTOMOTIVE_DESIGN' ));
ENDSEC;

DATA;
#1 = DIRECTION ( 'NONE',  ( 1.000000000000000000, 0.000000000000000000, 0.000000000000000000 ) ) ;
#2 = CARTESIAN_POINT ( 'NONE',  ( 3.000000000000000444, 3.673940397442060361E-16, 4.500000000000000000 ) ) ;
#3 = AXIS2_PLACEMENT_3D ( 'NONE', #133, #108, #105 ) ;
#4 = UNCERTAINTY_MEASURE_WITH_UNIT (LENGTH_MEASURE( 1.000000000000000082E-05 ), #211, 'distance_accuracy_value', 'NONE');
#5 = EDGE_CURVE ( 'NONE', #261, #86, #263, .T. ) ;
#6 = LINE ( 'NONE', #95, #24 ) ;
#7 = CIRCLE ( 'NONE', #106, 2.500000000000000000 ) ;
#8 = CARTESIAN_POINT ( 'NONE',  ( 0.000000000000000000, 0.000000000000000000, 34.50000000000000000 ) ) ;
#9 = PRODUCT_DEFINITION ( '鏅', '', #117, #139 ) ;
#10 = DIRECTION ( 'NONE',  ( 1.000000000000000000, 0.000000000000000000, 0.000000000000000000 ) ) ;
#11 = CARTESIAN_POINT ( 'NONE',  ( 0.000000000000000000, 0.000000000000000000, 4.500000000000000000 ) ) ;
#12 = CIRCLE ( 'NONE', #170, 2.500000000000000000 ) ;
#13 = CARTESIAN_POINT ( 'NONE',  ( 0.000000000000000000, 0.000000000000000000, 24.50000000000000000 ) ) ;
#14 = CARTESIAN_POINT ( 'NONE',  ( 0.000000000000000000, 0.000000000000000000, 24.50000000000000000 ) ) ;
#15 = EDGE_CURVE ( 'NONE', #280, #78, #88, .T. ) ;
#16 = DIRECTION ( 'NONE',  ( -0.000000000000000000, -0.000000000000000000, -1.000000000000000000 ) ) ;
#17 = EDGE_LOOP ( 'NONE', ( #23, #68 ) ) ;
#18 = VERTEX_POINT ( 'NONE', #43 ) ;
#19 = EDGE_CURVE ( 'NONE', #48, #104, #284, .T. ) ;
#20 = ORIENTED_EDGE ( 'NONE', *, *, #232, .F. ) ;
#21 = CIRCLE ( 'NONE', #72, 5.000000000000000000 ) ;
#22 = EDGE_LOOP ( 'NONE', ( #215, #46, #130, #266 ) ) ;
#23 = ORIENTED_EDGE ( 'NONE', *, *, #97, .F. ) ;
#24 = VECTOR ( 'NONE', #201, 1000.000000000000000 ) ;
#25 = PLANE ( 'NONE',  #275 ) ;
#26 = DIRECTION ( 'NONE',  ( -1.000000000000000000, 0.000000000000000000, 0.000000000000000000 ) ) ;
#27 = VECTOR ( 'NONE', #175, 1000.000000000000000 ) ;
#28 = DIRECTION ( 'NONE',  ( 0.000000000000000000, 0.000000000000000000, 1.000000000000000000 ) ) ;
#29 =( GEOMETRIC_REPRESENTATION_CONTEXT ( 3 ) GLOBAL_UNCERTAINTY_ASSIGNED_CONTEXT ( ( #4 ) ) GLOBAL_UNIT_ASSIGNED_CONTEXT ( ( #211, #145, #131 ) ) REPRESENTATION_CONTEXT ( 'NONE', 'WORKASPACE' ) );
#30 = DIRECTION ( 'NONE',  ( 1.000000000000000000, 0.000000000000000000, -0.000000000000000000 ) ) ;
#31 = CYLINDRICAL_SURFACE ( 'NONE', #208, 3.000000000000000444 ) ;
#32 = ORIENTED_EDGE ( 'NONE', *, *, #256, .T. ) ;
#33 = DIRECTION ( 'NONE',  ( -1.000000000000000000, 0.000000000000000000, 0.000000000000000000 ) ) ;
#34 = PRODUCT_DEFINITION_SHAPE ( 'NONE', 'NONE',  #9 ) ;
#35 = CIRCLE ( 'NONE', #217, 2.500000000000000000 ) ;
#36 = CARTESIAN_POINT ( 'NONE',  ( 0.000000000000000000, 0.000000000000000000, 0.000000000000000000 ) ) ;
#37 = VERTEX_POINT ( 'NONE', #193 ) ;
#38 = DIRECTION ( 'NONE',  ( -0.000000000000000000, -0.000000000000000000, -1.000000000000000000 ) ) ;
#39 = CARTESIAN_POINT ( 'NONE',  ( -5.000000000000000000, 0.000000000000000000, 4.500000000000000000 ) ) ;
#40 = AXIS2_PLACEMENT_3D ( 'NONE', #154, #244, #10 ) ;
#41 = VERTEX_POINT ( 'NONE', #64 ) ;
#42 = EDGE_CURVE ( 'NONE', #18, #78, #283, .T. ) ;
#43 = CARTESIAN_POINT ( 'NONE',  ( 2.500000000000000000, 3.061616997868383141E-16, 34.50000000000000000 ) ) ;
#44 = EDGE_CURVE ( 'NONE', #41, #261, #189, .T. ) ;
#45 = ORIENTED_EDGE ( 'NONE', *, *, #123, .F. ) ;
#46 = ORIENTED_EDGE ( 'NONE', *, *, #279, .T. ) ;
#47 = AXIS2_PLACEMENT_3D ( 'NONE', #36, #102, #54 ) ;
#48 = VERTEX_POINT ( 'NONE', #70 ) ;
#49 = FACE_BOUND ( 'NONE', #214, .T. ) ;
#50 = ADVANCED_FACE ( 'NONE', ( #153 ), #25, .T. ) ;
#51 = DIRECTION ( 'NONE',  ( -0.000000000000000000, -0.000000000000000000, -1.000000000000000000 ) ) ;
#52 = SURFACE_STYLE_FILL_AREA ( #92 ) ;
#53 = FACE_OUTER_BOUND ( 'NONE', #216, .T. ) ;
#54 = DIRECTION ( 'NONE',  ( 1.000000000000000000, 0.000000000000000000, -0.000000000000000000 ) ) ;
#55 = CYLINDRICAL_SURFACE ( 'NONE', #143, 2.500000000000000000 ) ;
#56 = EDGE_CURVE ( 'NONE', #60, #37, #149, .T. ) ;
#57 = CIRCLE ( 'NONE', #151, 5.000000000000000000 ) ;
#58 = DIRECTION ( 'NONE',  ( -0.000000000000000000, -0.000000000000000000, -1.000000000000000000 ) ) ;
#59 = CARTESIAN_POINT ( 'NONE',  ( -2.500000000000000000, 0.000000000000000000, 24.50000000000000000 ) ) ;
#60 = VERTEX_POINT ( 'NONE', #250 ) ;
#61 = CIRCLE ( 'NONE', #246, 3.000000000000000444 ) ;
#62 = APPLICATION_PROTOCOL_DEFINITION ( 'draft international standard', 'automotive_design', 1998, #202 ) ;
#63 = ORIENTED_EDGE ( 'NONE', *, *, #159, .T. ) ;
#64 = CARTESIAN_POINT ( 'NONE',  ( 3.000000000000000444, 3.673940397442060361E-16, 24.50000000000000000 ) ) ;
#65 = AXIS2_PLACEMENT_3D ( 'NONE', #110, #205, #267 ) ;
#66 = DIRECTION ( 'NONE',  ( 1.000000000000000000, 0.000000000000000000, 0.000000000000000000 ) ) ;
#67 = EDGE_CURVE ( 'NONE', #107, #86, #121, .T. ) ;
#68 = ORIENTED_EDGE ( 'NONE', *, *, #67, .F. ) ;
#69 = UNCERTAINTY_MEASURE_WITH_UNIT (LENGTH_MEASURE( 1.000000000000000082E-05 ), #270, 'distance_accuracy_value', 'NONE');
#70 = CARTESIAN_POINT ( 'NONE',  ( 5.000000000000000000, 6.123233995736766282E-16, 4.500000000000000000 ) ) ;
#71 = DIRECTION ( 'NONE',  ( 0.000000000000000000, 0.000000000000000000, 1.000000000000000000 ) ) ;
#72 = AXIS2_PLACEMENT_3D ( 'NONE', #255, #252, #167 ) ;
#73 = SURFACE_SIDE_STYLE ('',( #52 ) ) ;
#74 =( NAMED_UNIT ( * ) SI_UNIT ( $, .STERADIAN. ) SOLID_ANGLE_UNIT ( ) );
#75 = DIRECTION ( 'NONE',  ( 0.000000000000000000, 0.000000000000000000, 1.000000000000000000 ) ) ;
#76 = AXIS2_PLACEMENT_3D ( 'NONE', #180, #225, #30 ) ;
#77 = DIRECTION ( 'NONE',  ( -0.000000000000000000, -0.000000000000000000, -1.000000000000000000 ) ) ;
#78 = VERTEX_POINT ( 'NONE', #248 ) ;
#79 = DIRECTION ( 'NONE',  ( 0.000000000000000000, 0.000000000000000000, 1.000000000000000000 ) ) ;
#80 = DIRECTION ( 'NONE',  ( -0.000000000000000000, -0.000000000000000000, -1.000000000000000000 ) ) ;
#81 = DIRECTION ( 'NONE',  ( 1.000000000000000000, 0.000000000000000000, 0.000000000000000000 ) ) ;
#82 = EDGE_CURVE ( 'NONE', #41, #107, #6, .T. ) ;
#83 = ORIENTED_EDGE ( 'NONE', *, *, #264, .F. ) ;
#84 = MECHANICAL_DESIGN_GEOMETRIC_PRESENTATION_REPRESENTATION (  '', ( #222 ), #169 ) ;
#85 = ORIENTED_EDGE ( 'NONE', *, *, #67, .T. ) ;
#86 = VERTEX_POINT ( 'NONE', #182 ) ;
#87 = ADVANCED_FACE ( 'NONE', ( #115, #227 ), #179, .T. ) ;
#88 = CIRCLE ( 'NONE', #125, 2.500000000000000000 ) ;
#89 = CARTESIAN_POINT ( 'NONE',  ( 2.500000000000000000, 3.061616997868383141E-16, 34.50000000000000000 ) ) ;
#90 = ORIENTED_EDGE ( 'NONE', *, *, #224, .F. ) ;
#91 = CARTESIAN_POINT ( 'NONE',  ( -2.500000000000000000, 0.000000000000000000, 34.50000000000000000 ) ) ;
#92 = FILL_AREA_STYLE ('',( #137 ) ) ;
#93 = DIRECTION ( 'NONE',  ( 1.000000000000000000, 0.000000000000000000, -0.000000000000000000 ) ) ;
#94 = AXIS2_PLACEMENT_3D ( 'NONE', #228, #80, #257 ) ;
#95 = CARTESIAN_POINT ( 'NONE',  ( 3.000000000000000444, 3.673940397442060361E-16, 24.50000000000000000 ) ) ;
#96 = SURFACE_STYLE_USAGE ( .BOTH. , #73 ) ;
#97 = EDGE_CURVE ( 'NONE', #86, #107, #61, .T. ) ;
#98 = CARTESIAN_POINT ( 'NONE',  ( 0.000000000000000000, 0.000000000000000000, 24.50000000000000000 ) ) ;
#99 = AXIS2_PLACEMENT_3D ( 'NONE', #113, #51, #26 ) ;
#100 = EDGE_LOOP ( 'NONE', ( #90, #194, #187, #229 ) ) ;
#101 = DIRECTION ( 'NONE',  ( 0.000000000000000000, 0.000000000000000000, 1.000000000000000000 ) ) ;
#102 = DIRECTION ( 'NONE',  ( 0.000000000000000000, 0.000000000000000000, 1.000000000000000000 ) ) ;
#103 = MANIFOLD_SOLID_BREP ( '\X2\51f853f0\X0\-\X2\62c94f38\X0\3', #112 ) ;
#104 = VERTEX_POINT ( 'NONE', #116 ) ;
#105 = DIRECTION ( 'NONE',  ( 1.000000000000000000, 0.000000000000000000, 0.000000000000000000 ) ) ;
#106 = AXIS2_PLACEMENT_3D ( 'NONE', #253, #75, #160 ) ;
#107 = VERTEX_POINT ( 'NONE', #2 ) ;
#108 = DIRECTION ( 'NONE',  ( 0.000000000000000000, 0.000000000000000000, 1.000000000000000000 ) ) ;
#109 = DIRECTION ( 'NONE',  ( 0.000000000000000000, 0.000000000000000000, 1.000000000000000000 ) ) ;
#110 = CARTESIAN_POINT ( 'NONE',  ( 0.000000000000000000, 0.000000000000000000, 0.000000000000000000 ) ) ;
#111 = FACE_OUTER_BOUND ( 'NONE', #196, .T. ) ;
#112 = CLOSED_SHELL ( 'NONE', ( #199, #164, #184, #166, #87, #249, #200, #114, #135, #50 ) ) ;
#113 = CARTESIAN_POINT ( 'NONE',  ( 0.000000000000000000, 0.000000000000000000, 34.50000000000000000 ) ) ;
#114 = ADVANCED_FACE ( 'NONE', ( #49, #111 ), #134, .T. ) ;
#115 = FACE_BOUND ( 'NONE', #17, .T. ) ;
#116 = CARTESIAN_POINT ( 'NONE',  ( -5.000000000000000000, 0.000000000000000000, 4.500000000000000000 ) ) ;
#117 = PRODUCT_DEFINITION_FORMATION_WITH_SPECIFIED_SOURCE ( '瀵', '', #162, .NOT_KNOWN. ) ;
#118 = DIRECTION ( 'NONE',  ( -1.000000000000000000, 0.000000000000000000, 0.000000000000000000 ) ) ;
#119 = ORIENTED_EDGE ( 'NONE', *, *, #19, .T. ) ;
#120 = FACE_OUTER_BOUND ( 'NONE', #231, .T. ) ;
#121 = CIRCLE ( 'NONE', #40, 3.000000000000000444 ) ;
#122 = EDGE_LOOP ( 'NONE', ( #171, #128, #85, #254 ) ) ;
#123 = EDGE_CURVE ( 'NONE', #261, #41, #136, .T. ) ;
#124 = FACE_OUTER_BOUND ( 'NONE', #100, .T. ) ;
#125 = AXIS2_PLACEMENT_3D ( 'NONE', #265, #109, #66 ) ;
#126 = DIRECTION ( 'NONE',  ( -0.000000000000000000, -0.000000000000000000, -1.000000000000000000 ) ) ;
#127 = PRODUCT_CONTEXT ( 'NONE', #144, 'mechanical' ) ;
#128 = ORIENTED_EDGE ( 'NONE', *, *, #82, .T. ) ;
#129 = VERTEX_POINT ( 'NONE', #91 ) ;
#130 = ORIENTED_EDGE ( 'NONE', *, *, #56, .T. ) ;
#131 =( NAMED_UNIT ( * ) SI_UNIT ( $, .STERADIAN. ) SOLID_ANGLE_UNIT ( ) );
#132 = EDGE_LOOP ( 'NONE', ( #63, #150 ) ) ;
#133 = CARTESIAN_POINT ( 'NONE',  ( 0.000000000000000000, 0.000000000000000000, 4.500000000000000000 ) ) ;
#134 = PLANE ( 'NONE',  #247 ) ;
#135 = ADVANCED_FACE ( 'NONE', ( #178 ), #245, .T. ) ;
#136 = CIRCLE ( 'NONE', #223, 3.000000000000000444 ) ;
#137 = FILL_AREA_STYLE_COLOUR ( '', #251 ) ;
#138 = DIRECTION ( 'NONE',  ( 0.000000000000000000, 0.000000000000000000, 1.000000000000000000 ) ) ;
#139 = PRODUCT_DEFINITION_CONTEXT ( 'detailed design', #202, 'design' ) ;
#140 = PLANE ( 'NONE',  #47 ) ;
#141 = CARTESIAN_POINT ( 'NONE',  ( 0.000000000000000000, 0.000000000000000000, 4.500000000000000000 ) ) ;
#142 = FACE_OUTER_BOUND ( 'NONE', #122, .T. ) ;
#143 = AXIS2_PLACEMENT_3D ( 'NONE', #188, #58, #118 ) ;
#144 = APPLICATION_CONTEXT ( 'automotive_design' ) ;
#145 =( NAMED_UNIT ( * ) PLANE_ANGLE_UNIT ( ) SI_UNIT ( $, .RADIAN. ) );
#146 = EDGE_LOOP ( 'NONE', ( #282, #238, #207, #241 ) ) ;
#147 = CARTESIAN_POINT ( 'NONE',  ( -3.000000000000000444, 0.000000000000000000, 24.50000000000000000 ) ) ;
#148 = ORIENTED_EDGE ( 'NONE', *, *, #82, .F. ) ;
#149 = CIRCLE ( 'NONE', #65, 5.000000000000000000 ) ;
#150 = ORIENTED_EDGE ( 'NONE', *, *, #224, .T. ) ;
#151 = AXIS2_PLACEMENT_3D ( 'NONE', #141, #230, #81 ) ;
#152 = ORIENTED_EDGE ( 'NONE', *, *, #159, .F. ) ;
#153 = FACE_OUTER_BOUND ( 'NONE', #132, .T. ) ;
#154 = CARTESIAN_POINT ( 'NONE',  ( 0.000000000000000000, 0.000000000000000000, 4.500000000000000000 ) ) ;
#155 = CARTESIAN_POINT ( 'NONE',  ( 0.000000000000000000, 0.000000000000000000, 24.50000000000000000 ) ) ;
#156 = AXIS2_PLACEMENT_3D ( 'NONE', #163, #192, #260 ) ;
#157 = PRESENTATION_STYLE_ASSIGNMENT (( #96 ) ) ;
#158 =( NAMED_UNIT ( * ) PLANE_ANGLE_UNIT ( ) SI_UNIT ( $, .RADIAN. ) );
#159 = EDGE_CURVE ( 'NONE', #129, #18, #12, .T. ) ;
#160 = DIRECTION ( 'NONE',  ( 1.000000000000000000, 0.000000000000000000, 0.000000000000000000 ) ) ;
#161 = LINE ( 'NONE', #39, #278 ) ;
#162 = PRODUCT ( '\X2\680751c64ef6\X0\-\X2\585e6253\X0\6-m5-20A', '\X2\680751c64ef6\X0\-\X2\585e6253\X0\6-m5-20A', '', ( #127 ) ) ;
#163 = CARTESIAN_POINT ( 'NONE',  ( 0.000000000000000000, 0.000000000000000000, 0.000000000000000000 ) ) ;
#164 = ADVANCED_FACE ( 'NONE', ( #142 ), #31, .T. ) ;
#165 = AXIS2_PLACEMENT_3D ( 'NONE', #242, #220, #221 ) ;
#166 = ADVANCED_FACE ( 'NONE', ( #272 ), #233, .T. ) ;
#167 = DIRECTION ( 'NONE',  ( 1.000000000000000000, 0.000000000000000000, 0.000000000000000000 ) ) ;
#168 = ORIENTED_EDGE ( 'NONE', *, *, #97, .T. ) ;
#169 =( GEOMETRIC_REPRESENTATION_CONTEXT ( 3 ) GLOBAL_UNCERTAINTY_ASSIGNED_CONTEXT ( ( #69 ) ) GLOBAL_UNIT_ASSIGNED_CONTEXT ( ( #270, #158, #74 ) ) REPRESENTATION_CONTEXT ( 'NONE', 'WORKASPACE' ) );
#170 = AXIS2_PLACEMENT_3D ( 'NONE', #198, #79, #183 ) ;
#171 = ORIENTED_EDGE ( 'NONE', *, *, #44, .F. ) ;
#172 = APPLICATION_PROTOCOL_DEFINITION ( 'draft international standard', 'automotive_design', 1998, #144 ) ;
#173 = ORIENTED_EDGE ( 'NONE', *, *, #42, .F. ) ;
#174 = VECTOR ( 'NONE', #219, 1000.000000000000000 ) ;
#175 = DIRECTION ( 'NONE',  ( -0.000000000000000000, -0.000000000000000000, -1.000000000000000000 ) ) ;
#176 = ORIENTED_EDGE ( 'NONE', *, *, #15, .T. ) ;
#177 = EDGE_CURVE ( 'NONE', #129, #280, #209, .T. ) ;
#178 = FACE_OUTER_BOUND ( 'NONE', #240, .T. ) ;
#179 = PLANE ( 'NONE',  #76 ) ;
#180 = CARTESIAN_POINT ( 'NONE',  ( 0.000000000000000000, 0.000000000000000000, 4.500000000000000000 ) ) ;
#181 = AXIS2_PLACEMENT_3D ( 'NONE', #11, #206, #33 ) ;
#182 = CARTESIAN_POINT ( 'NONE',  ( -3.000000000000000444, 0.000000000000000000, 4.500000000000000000 ) ) ;
#183 = DIRECTION ( 'NONE',  ( 1.000000000000000000, 0.000000000000000000, 0.000000000000000000 ) ) ;
#184 = ADVANCED_FACE ( 'NONE', ( #212 ), #236, .T. ) ;
#185 = CARTESIAN_POINT ( 'NONE',  ( -2.500000000000000000, 0.000000000000000000, 34.50000000000000000 ) ) ;
#186 = LINE ( 'NONE', #274, #204 ) ;
#187 = ORIENTED_EDGE ( 'NONE', *, *, #264, .T. ) ;
#188 = CARTESIAN_POINT ( 'NONE',  ( 0.000000000000000000, 0.000000000000000000, 34.50000000000000000 ) ) ;
#189 = CIRCLE ( 'NONE', #165, 3.000000000000000444 ) ;
#190 = CARTESIAN_POINT ( 'NONE',  ( -3.000000000000000444, 0.000000000000000000, 24.50000000000000000 ) ) ;
#191 = ORIENTED_EDGE ( 'NONE', *, *, #123, .T. ) ;
#192 = DIRECTION ( 'NONE',  ( 0.000000000000000000, 0.000000000000000000, 1.000000000000000000 ) ) ;
#193 = CARTESIAN_POINT ( 'NONE',  ( -5.000000000000000000, 0.000000000000000000, 0.000000000000000000 ) ) ;
#194 = ORIENTED_EDGE ( 'NONE', *, *, #42, .T. ) ;
#195 = ORIENTED_EDGE ( 'NONE', *, *, #44, .T. ) ;
#196 = EDGE_LOOP ( 'NONE', ( #191, #195 ) ) ;
#197 = CARTESIAN_POINT ( 'NONE',  ( 0.000000000000000000, 0.000000000000000000, 24.50000000000000000 ) ) ;
#198 = CARTESIAN_POINT ( 'NONE',  ( 0.000000000000000000, 0.000000000000000000, 34.50000000000000000 ) ) ;
#199 = ADVANCED_FACE ( 'NONE', ( #124 ), #55, .T. ) ;
#200 = ADVANCED_FACE ( 'NONE', ( #120 ), #271, .T. ) ;
#201 = DIRECTION ( 'NONE',  ( -0.000000000000000000, -0.000000000000000000, -1.000000000000000000 ) ) ;
#202 = APPLICATION_CONTEXT ( 'automotive_design' ) ;
#203 = CARTESIAN_POINT ( 'NONE',  ( 0.000000000000000000, 0.000000000000000000, 4.500000000000000000 ) ) ;
#204 = VECTOR ( 'NONE', #259, 1000.000000000000000 ) ;
#205 = DIRECTION ( 'NONE',  ( 0.000000000000000000, 0.000000000000000000, 1.000000000000000000 ) ) ;
#206 = DIRECTION ( 'NONE',  ( -0.000000000000000000, -0.000000000000000000, -1.000000000000000000 ) ) ;
#207 = ORIENTED_EDGE ( 'NONE', *, *, #218, .T. ) ;
#208 = AXIS2_PLACEMENT_3D ( 'NONE', #98, #126, #277 ) ;
#209 = LINE ( 'NONE', #185, #234 ) ;
#210 = ADVANCED_BREP_SHAPE_REPRESENTATION ( '\X2\680751c64ef6\X0\-\X2\585e6253\X0\6-m5-20A', ( #103, #156 ), #29 ) ;
#211 =( LENGTH_UNIT ( ) NAMED_UNIT ( * ) SI_UNIT ( .MILLI., .METRE. ) );
#212 = FACE_OUTER_BOUND ( 'NONE', #22, .T. ) ;
#213 = DIRECTION ( 'NONE',  ( -1.000000000000000000, 0.000000000000000000, 0.000000000000000000 ) ) ;
#214 = EDGE_LOOP ( 'NONE', ( #239, #83 ) ) ;
#215 = ORIENTED_EDGE ( 'NONE', *, *, #19, .F. ) ;
#216 = EDGE_LOOP ( 'NONE', ( #20, #235 ) ) ;
#217 = AXIS2_PLACEMENT_3D ( 'NONE', #13, #101, #276 ) ;
#218 = EDGE_CURVE ( 'NONE', #104, #37, #161, .T. ) ;
#219 = DIRECTION ( 'NONE',  ( -0.000000000000000000, -0.000000000000000000, -1.000000000000000000 ) ) ;
#220 = DIRECTION ( 'NONE',  ( 0.000000000000000000, 0.000000000000000000, 1.000000000000000000 ) ) ;
#221 = DIRECTION ( 'NONE',  ( 1.000000000000000000, 0.000000000000000000, 0.000000000000000000 ) ) ;
#222 = STYLED_ITEM ( 'NONE', ( #157 ), #103 ) ;
#223 = AXIS2_PLACEMENT_3D ( 'NONE', #197, #28, #1 ) ;
#224 = EDGE_CURVE ( 'NONE', #18, #129, #7, .T. ) ;
#225 = DIRECTION ( 'NONE',  ( 0.000000000000000000, 0.000000000000000000, 1.000000000000000000 ) ) ;
#226 = DIRECTION ( 'NONE',  ( 1.000000000000000000, 0.000000000000000000, -0.000000000000000000 ) ) ;
#227 = FACE_OUTER_BOUND ( 'NONE', #285, .T. ) ;
#228 = CARTESIAN_POINT ( 'NONE',  ( 0.000000000000000000, 0.000000000000000000, 4.500000000000000000 ) ) ;
#229 = ORIENTED_EDGE ( 'NONE', *, *, #177, .F. ) ;
#230 = DIRECTION ( 'NONE',  ( 0.000000000000000000, 0.000000000000000000, 1.000000000000000000 ) ) ;
#231 = EDGE_LOOP ( 'NONE', ( #148, #45, #281, #168 ) ) ;
#232 = EDGE_CURVE ( 'NONE', #37, #60, #21, .T. ) ;
#233 = CYLINDRICAL_SURFACE ( 'NONE', #181, 5.000000000000000000 ) ;
#234 = VECTOR ( 'NONE', #77, 1000.000000000000000 ) ;
#235 = ORIENTED_EDGE ( 'NONE', *, *, #56, .F. ) ;
#236 = CYLINDRICAL_SURFACE ( 'NONE', #94, 5.000000000000000000 ) ;
#237 = PRESENTATION_LAYER_ASSIGNMENT (  '', '', ( #222 ) ) ;
#238 = ORIENTED_EDGE ( 'NONE', *, *, #256, .F. ) ;
#239 = ORIENTED_EDGE ( 'NONE', *, *, #15, .F. ) ;
#240 = EDGE_LOOP ( 'NONE', ( #173, #152, #273, #176 ) ) ;
#241 = ORIENTED_EDGE ( 'NONE', *, *, #232, .T. ) ;
#242 = CARTESIAN_POINT ( 'NONE',  ( 0.000000000000000000, 0.000000000000000000, 24.50000000000000000 ) ) ;
#243 = PRODUCT_RELATED_PRODUCT_CATEGORY ( 'part', '', ( #162 ) ) ;
#244 = DIRECTION ( 'NONE',  ( 0.000000000000000000, 0.000000000000000000, 1.000000000000000000 ) ) ;
#245 = CYLINDRICAL_SURFACE ( 'NONE', #99, 2.500000000000000000 ) ;
#246 = AXIS2_PLACEMENT_3D ( 'NONE', #203, #71, #268 ) ;
#247 = AXIS2_PLACEMENT_3D ( 'NONE', #155, #138, #226 ) ;
#248 = CARTESIAN_POINT ( 'NONE',  ( 2.500000000000000000, 3.061616997868383141E-16, 24.50000000000000000 ) ) ;
#249 = ADVANCED_FACE ( 'NONE', ( #53 ), #140, .F. ) ;
#250 = CARTESIAN_POINT ( 'NONE',  ( 5.000000000000000000, 6.123233995736766282E-16, 0.000000000000000000 ) ) ;
#251 = COLOUR_RGB ( '',0.7921568627450980005, 0.8196078431372548767, 0.9333333333333333481 ) ;
#252 = DIRECTION ( 'NONE',  ( 0.000000000000000000, 0.000000000000000000, 1.000000000000000000 ) ) ;
#253 = CARTESIAN_POINT ( 'NONE',  ( 0.000000000000000000, 0.000000000000000000, 34.50000000000000000 ) ) ;
#254 = ORIENTED_EDGE ( 'NONE', *, *, #5, .F. ) ;
#255 = CARTESIAN_POINT ( 'NONE',  ( 0.000000000000000000, 0.000000000000000000, 0.000000000000000000 ) ) ;
#256 = EDGE_CURVE ( 'NONE', #104, #48, #57, .T. ) ;
#257 = DIRECTION ( 'NONE',  ( -1.000000000000000000, 0.000000000000000000, 0.000000000000000000 ) ) ;
#258 = AXIS2_PLACEMENT_3D ( 'NONE', #14, #38, #213 ) ;
#259 = DIRECTION ( 'NONE',  ( -0.000000000000000000, -0.000000000000000000, -1.000000000000000000 ) ) ;
#260 = DIRECTION ( 'NONE',  ( 1.000000000000000000, 0.000000000000000000, 0.000000000000000000 ) ) ;
#261 = VERTEX_POINT ( 'NONE', #190 ) ;
#262 = SHAPE_DEFINITION_REPRESENTATION ( #34, #210 ) ;
#263 = LINE ( 'NONE', #147, #174 ) ;
#264 = EDGE_CURVE ( 'NONE', #78, #280, #35, .T. ) ;
#265 = CARTESIAN_POINT ( 'NONE',  ( 0.000000000000000000, 0.000000000000000000, 24.50000000000000000 ) ) ;
#266 = ORIENTED_EDGE ( 'NONE', *, *, #218, .F. ) ;
#267 = DIRECTION ( 'NONE',  ( 1.000000000000000000, 0.000000000000000000, 0.000000000000000000 ) ) ;
#268 = DIRECTION ( 'NONE',  ( 1.000000000000000000, 0.000000000000000000, 0.000000000000000000 ) ) ;
#269 = DIRECTION ( 'NONE',  ( 0.000000000000000000, 0.000000000000000000, 1.000000000000000000 ) ) ;
#270 =( LENGTH_UNIT ( ) NAMED_UNIT ( * ) SI_UNIT ( .MILLI., .METRE. ) );
#271 = CYLINDRICAL_SURFACE ( 'NONE', #258, 3.000000000000000444 ) ;
#272 = FACE_OUTER_BOUND ( 'NONE', #146, .T. ) ;
#273 = ORIENTED_EDGE ( 'NONE', *, *, #177, .T. ) ;
#274 = CARTESIAN_POINT ( 'NONE',  ( 5.000000000000000000, 6.123233995736766282E-16, 4.500000000000000000 ) ) ;
#275 = AXIS2_PLACEMENT_3D ( 'NONE', #8, #269, #93 ) ;
#276 = DIRECTION ( 'NONE',  ( 1.000000000000000000, 0.000000000000000000, 0.000000000000000000 ) ) ;
#277 = DIRECTION ( 'NONE',  ( -1.000000000000000000, 0.000000000000000000, 0.000000000000000000 ) ) ;
#278 = VECTOR ( 'NONE', #16, 1000.000000000000000 ) ;
#279 = EDGE_CURVE ( 'NONE', #48, #60, #186, .T. ) ;
#280 = VERTEX_POINT ( 'NONE', #59 ) ;
#281 = ORIENTED_EDGE ( 'NONE', *, *, #5, .T. ) ;
#282 = ORIENTED_EDGE ( 'NONE', *, *, #279, .F. ) ;
#283 = LINE ( 'NONE', #89, #27 ) ;
#284 = CIRCLE ( 'NONE', #3, 5.000000000000000000 ) ;
#285 = EDGE_LOOP ( 'NONE', ( #32, #119 ) ) ;
ENDSEC;
END-ISO-10303-21;
