ISO-10303-21;
HEADER;
FILE_DESCRIPTION (( 'STEP AP214' ),
    '1' );
FILE_NAME ('Íë×éÖá³Ð×ùA.STEP',
    '2026-08-16T17:26:53',
    ( '' ),
    ( '' ),
    'SwSTEP 2.0',
    'SolidWorks 2025',
    '' );
FILE_SCHEMA (( 'AUTOMOTIVE_DESIGN' ));
ENDSEC;

DATA;
#1 = CARTESIAN_POINT ( 'NONE',  ( 0.000000000000000000, 0.000000000000000000, 10.19999999999999929 ) ) ;
#2 = ORIENTED_EDGE ( 'NONE', *, *, #98, .T. ) ;
#3 = AXIS2_PLACEMENT_3D ( 'NONE', #274, #88, #109 ) ;
#4 = UNCERTAINTY_MEASURE_WITH_UNIT (LENGTH_MEASURE( 1.000000000000000082E-05 ), #323, 'distance_accuracy_value', 'NONE');
#5 = DIRECTION ( 'NONE',  ( 0.000000000000000000, 0.000000000000000000, 1.000000000000000000 ) ) ;
#6 = CARTESIAN_POINT ( 'NONE',  ( 0.000000000000000000, 0.000000000000000000, 1.499999999999999556 ) ) ;
#7 = ADVANCED_FACE ( 'NONE', ( #79 ), #168, .T. ) ;
#8 = ORIENTED_EDGE ( 'NONE', *, *, #37, .T. ) ;
#9 = CYLINDRICAL_SURFACE ( 'NONE', #95, 22.00000000000000000 ) ;
#10 = CARTESIAN_POINT ( 'NONE',  ( 0.000000000000000000, 0.000000000000000000, 8.199999999999999289 ) ) ;
#11 = AXIS2_PLACEMENT_3D ( 'NONE', #61, #64, #260 ) ;
#12 = EDGE_CURVE ( 'NONE', #135, #359, #106, .T. ) ;
#13 = DIRECTION ( 'NONE',  ( -1.000000000000000000, 0.000000000000000000, -0.000000000000000000 ) ) ;
#14 = DIRECTION ( 'NONE',  ( 0.000000000000000000, 0.000000000000000000, 1.000000000000000000 ) ) ;
#15 = DIRECTION ( 'NONE',  ( 0.000000000000000000, 0.000000000000000000, -1.000000000000000000 ) ) ;
#16 = EDGE_CURVE ( 'NONE', #321, #49, #201, .T. ) ;
#17 = LINE ( 'NONE', #267, #220 ) ;
#18 = CARTESIAN_POINT ( 'NONE',  ( 0.000000000000000000, 0.000000000000000000, 10.19999999999999929 ) ) ;
#19 = VERTEX_POINT ( 'NONE', #335 ) ;
#20 =( NAMED_UNIT ( * ) SI_UNIT ( $, .STERADIAN. ) SOLID_ANGLE_UNIT ( ) );
#21 = VERTEX_POINT ( 'NONE', #139 ) ;
#22 = EDGE_CURVE ( 'NONE', #21, #187, #250, .T. ) ;
#23 = CARTESIAN_POINT ( 'NONE',  ( 0.000000000000000000, 0.000000000000000000, 8.199999999999999289 ) ) ;
#24 = ORIENTED_EDGE ( 'NONE', *, *, #282, .F. ) ;
#25 = CIRCLE ( 'NONE', #113, 20.50000000000000000 ) ;
#26 = CARTESIAN_POINT ( 'NONE',  ( -24.75000000000000355, 3.031000827889699650E-15, 8.199999999999999289 ) ) ;
#27 = ORIENTED_EDGE ( 'NONE', *, *, #333, .T. ) ;
#28 = EDGE_LOOP ( 'NONE', ( #270, #305 ) ) ;
#29 = COLOUR_RGB ( '',0.7921568627450980005, 0.8196078431372548767, 0.9333333333333333481 ) ;
#30 = FACE_OUTER_BOUND ( 'NONE', #72, .T. ) ;
#31 = DIRECTION ( 'NONE',  ( -0.000000000000000000, -0.000000000000000000, -1.000000000000000000 ) ) ;
#32 = CIRCLE ( 'NONE', #230, 16.00000000000000000 ) ;
#33 = CARTESIAN_POINT ( 'NONE',  ( 0.000000000000000000, 0.000000000000000000, 1.500000000000000000 ) ) ;
#34 = CIRCLE ( 'NONE', #234, 16.00000000000000000 ) ;
#35 = FILL_AREA_STYLE ('',( #255 ) ) ;
#36 = PLANE ( 'NONE',  #11 ) ;
#37 = EDGE_CURVE ( 'NONE', #214, #19, #32, .T. ) ;
#38 = DIRECTION ( 'NONE',  ( -0.000000000000000000, -0.000000000000000000, -1.000000000000000000 ) ) ;
#39 = CARTESIAN_POINT ( 'NONE',  ( -20.50000000000000000, 0.000000000000000000, 1.499999999999999556 ) ) ;
#40 = EDGE_CURVE ( 'NONE', #187, #21, #73, .T. ) ;
#41 = CARTESIAN_POINT ( 'NONE',  ( 0.000000000000000000, 0.000000000000000000, 8.199999999999999289 ) ) ;
#42 = DIRECTION ( 'NONE',  ( 1.000000000000000000, 0.000000000000000000, 0.000000000000000000 ) ) ;
#43 = DIRECTION ( 'NONE',  ( 1.000000000000000000, 0.000000000000000000, 0.000000000000000000 ) ) ;
#44 = ORIENTED_EDGE ( 'NONE', *, *, #232, .F. ) ;
#45 = ORIENTED_EDGE ( 'NONE', *, *, #302, .F. ) ;
#46 = DIRECTION ( 'NONE',  ( -1.000000000000000000, 0.000000000000000000, 0.000000000000000000 ) ) ;
#47 = ORIENTED_EDGE ( 'NONE', *, *, #251, .F. ) ;
#48 = FACE_BOUND ( 'NONE', #247, .T. ) ;
#49 = VERTEX_POINT ( 'NONE', #166 ) ;
#50 = VECTOR ( 'NONE', #233, 1000.000000000000000 ) ;
#51 = CYLINDRICAL_SURFACE ( 'NONE', #277, 20.50000000000000000 ) ;
#52 = EDGE_CURVE ( 'NONE', #49, #359, #112, .T. ) ;
#53 = ORIENTED_EDGE ( 'NONE', *, *, #172, .F. ) ;
#54 =( NAMED_UNIT ( * ) PLANE_ANGLE_UNIT ( ) SI_UNIT ( $, .RADIAN. ) );
#55 = AXIS2_PLACEMENT_3D ( 'NONE', #342, #309, #278 ) ;
#56 = DIRECTION ( 'NONE',  ( -1.000000000000000000, 0.000000000000000000, 0.000000000000000000 ) ) ;
#57 = CARTESIAN_POINT ( 'NONE',  ( 0.000000000000000000, 0.000000000000000000, 8.199999999999999289 ) ) ;
#58 = ADVANCED_FACE ( 'NONE', ( #30 ), #249, .F. ) ;
#59 = VERTEX_POINT ( 'NONE', #60 ) ;
#60 = CARTESIAN_POINT ( 'NONE',  ( -24.75000000000000355, 3.031000827889699650E-15, 8.199999999999999289 ) ) ;
#61 = CARTESIAN_POINT ( 'NONE',  ( 0.000000000000000000, 0.000000000000000000, 10.19999999999999929 ) ) ;
#62 = AXIS2_PLACEMENT_3D ( 'NONE', #126, #353, #104 ) ;
#63 = CARTESIAN_POINT ( 'NONE',  ( 0.000000000000000000, 0.000000000000000000, 1.500000000000000000 ) ) ;
#64 = DIRECTION ( 'NONE',  ( 0.000000000000000000, 0.000000000000000000, 1.000000000000000000 ) ) ;
#65 = AXIS2_PLACEMENT_3D ( 'NONE', #63, #345, #13 ) ;
#66 = CYLINDRICAL_SURFACE ( 'NONE', #55, 24.75000000000000355 ) ;
#67 = DIRECTION ( 'NONE',  ( 1.000000000000000000, 0.000000000000000000, 0.000000000000000000 ) ) ;
#68 = FACE_OUTER_BOUND ( 'NONE', #288, .T. ) ;
#69 = ORIENTED_EDGE ( 'NONE', *, *, #22, .T. ) ;
#70 = ORIENTED_EDGE ( 'NONE', *, *, #329, .F. ) ;
#71 = CYLINDRICAL_SURFACE ( 'NONE', #160, 22.00000000000000000 ) ;
#72 = EDGE_LOOP ( 'NONE', ( #295, #334, #69, #24 ) ) ;
#73 = CIRCLE ( 'NONE', #101, 20.50000000000000000 ) ;
#74 = CARTESIAN_POINT ( 'NONE',  ( 20.50000000000000000, 2.510525938252074481E-15, 10.19999999999999929 ) ) ;
#75 = ORIENTED_EDGE ( 'NONE', *, *, #52, .F. ) ;
#76 = DIRECTION ( 'NONE',  ( 0.000000000000000000, 0.000000000000000000, 1.000000000000000000 ) ) ;
#77 = ORIENTED_EDGE ( 'NONE', *, *, #314, .T. ) ;
#78 = AXIS2_PLACEMENT_3D ( 'NONE', #10, #283, #42 ) ;
#79 = FACE_OUTER_BOUND ( 'NONE', #191, .T. ) ;
#80 = APPLICATION_CONTEXT ( 'automotive_design' ) ;
#81 = VERTEX_POINT ( 'NONE', #307 ) ;
#82 = ADVANCED_FACE ( 'NONE', ( #253 ), #221, .F. ) ;
#83 = AXIS2_PLACEMENT_3D ( 'NONE', #265, #159, #128 ) ;
#84 = PRODUCT_DEFINITION_CONTEXT ( 'detailed design', #310, 'design' ) ;
#85 = MANIFOLD_SOLID_BREP ( '\X2\51f853f0\X0\-\X2\62c94f38\X0\3', #215 ) ;
#86 = PLANE ( 'NONE',  #164 ) ;
#87 = APPLICATION_PROTOCOL_DEFINITION ( 'draft international standard', 'automotive_design', 1998, #80 ) ;
#88 = DIRECTION ( 'NONE',  ( 0.000000000000000000, 0.000000000000000000, 1.000000000000000000 ) ) ;
#89 = ADVANCED_FACE ( 'NONE', ( #171, #90 ), #86, .F. ) ;
#90 = FACE_BOUND ( 'NONE', #284, .T. ) ;
#91 = DIRECTION ( 'NONE',  ( 0.000000000000000000, 0.000000000000000000, 1.000000000000000000 ) ) ;
#92 = CARTESIAN_POINT ( 'NONE',  ( 0.000000000000000000, 0.000000000000000000, 1.500000000000000000 ) ) ;
#93 = FACE_BOUND ( 'NONE', #319, .T. ) ;
#94 = ADVANCED_FACE ( 'NONE', ( #343, #197 ), #36, .T. ) ;
#95 = AXIS2_PLACEMENT_3D ( 'NONE', #280, #38, #226 ) ;
#96 =( GEOMETRIC_REPRESENTATION_CONTEXT ( 3 ) GLOBAL_UNCERTAINTY_ASSIGNED_CONTEXT ( ( #4 ) ) GLOBAL_UNIT_ASSIGNED_CONTEXT ( ( #323, #289, #20 ) ) REPRESENTATION_CONTEXT ( 'NONE', 'WORKASPACE' ) );
#97 = DIRECTION ( 'NONE',  ( 0.000000000000000000, 0.000000000000000000, -1.000000000000000000 ) ) ;
#98 = EDGE_CURVE ( 'NONE', #49, #321, #301, .T. ) ;
#99 = CARTESIAN_POINT ( 'NONE',  ( 0.000000000000000000, 0.000000000000000000, 0.000000000000000000 ) ) ;
#100 = ORIENTED_EDGE ( 'NONE', *, *, #98, .F. ) ;
#101 = AXIS2_PLACEMENT_3D ( 'NONE', #110, #194, #56 ) ;
#102 = DIRECTION ( 'NONE',  ( 0.000000000000000000, 0.000000000000000000, 1.000000000000000000 ) ) ;
#103 = ORIENTED_EDGE ( 'NONE', *, *, #282, .T. ) ;
#104 = DIRECTION ( 'NONE',  ( 1.000000000000000000, 0.000000000000000000, 0.000000000000000000 ) ) ;
#105 = ORIENTED_EDGE ( 'NONE', *, *, #306, .F. ) ;
#106 = CIRCLE ( 'NONE', #3, 22.00000000000000000 ) ;
#107 = CARTESIAN_POINT ( 'NONE',  ( 16.00000000000000000, 1.959434878635765131E-15, 1.500000000000000000 ) ) ;
#108 = EDGE_LOOP ( 'NONE', ( #75, #200, #312, #300 ) ) ;
#109 = DIRECTION ( 'NONE',  ( 1.000000000000000000, 0.000000000000000000, 0.000000000000000000 ) ) ;
#110 = CARTESIAN_POINT ( 'NONE',  ( 0.000000000000000000, 0.000000000000000000, 1.499999999999999556 ) ) ;
#111 = ORIENTED_EDGE ( 'NONE', *, *, #167, .F. ) ;
#112 = LINE ( 'NONE', #273, #208 ) ;
#113 = AXIS2_PLACEMENT_3D ( 'NONE', #18, #350, #43 ) ;
#114 = PRODUCT_DEFINITION_FORMATION_WITH_SPECIFIED_SOURCE ( 'å¯', '', #207, .NOT_KNOWN. ) ;
#115 = DIRECTION ( 'NONE',  ( 0.000000000000000000, 0.000000000000000000, -1.000000000000000000 ) ) ;
#116 = CARTESIAN_POINT ( 'NONE',  ( 0.000000000000000000, 0.000000000000000000, 0.000000000000000000 ) ) ;
#117 = PRESENTATION_LAYER_ASSIGNMENT (  '', '', ( #272 ) ) ;
#118 = CIRCLE ( 'NONE', #142, 20.50000000000000000 ) ;
#119 = FACE_OUTER_BOUND ( 'NONE', #292, .T. ) ;
#120 = CARTESIAN_POINT ( 'NONE',  ( -16.00000000000000000, 0.000000000000000000, 0.000000000000000000 ) ) ;
#121 = DIRECTION ( 'NONE',  ( 1.000000000000000000, 0.000000000000000000, 0.000000000000000000 ) ) ;
#122 = LINE ( 'NONE', #177, #50 ) ;
#123 = LINE ( 'NONE', #205, #337 ) ;
#124 = AXIS2_PLACEMENT_3D ( 'NONE', #99, #5, #136 ) ;
#125 = ADVANCED_FACE ( 'NONE', ( #119 ), #66, .T. ) ;
#126 = CARTESIAN_POINT ( 'NONE',  ( 0.000000000000000000, 0.000000000000000000, 10.19999999999999929 ) ) ;
#127 = ORIENTED_EDGE ( 'NONE', *, *, #302, .T. ) ;
#128 = DIRECTION ( 'NONE',  ( -1.000000000000000000, 0.000000000000000000, 0.000000000000000000 ) ) ;
#129 = ORIENTED_EDGE ( 'NONE', *, *, #227, .F. ) ;
#130 = DIRECTION ( 'NONE',  ( 1.000000000000000000, 0.000000000000000000, -0.000000000000000000 ) ) ;
#131 = VECTOR ( 'NONE', #243, 1000.000000000000000 ) ;
#132 = ORIENTED_EDGE ( 'NONE', *, *, #354, .F. ) ;
#133 = CARTESIAN_POINT ( 'NONE',  ( -24.75000000000000355, 3.031000827889699650E-15, 10.19999999999999929 ) ) ;
#134 = VERTEX_POINT ( 'NONE', #279 ) ;
#135 = VERTEX_POINT ( 'NONE', #173 ) ;
#136 = DIRECTION ( 'NONE',  ( 1.000000000000000000, 0.000000000000000000, 0.000000000000000000 ) ) ;
#137 = DIRECTION ( 'NONE',  ( -1.000000000000000000, 0.000000000000000000, 0.000000000000000000 ) ) ;
#138 = DIRECTION ( 'NONE',  ( -1.000000000000000000, 0.000000000000000000, 0.000000000000000000 ) ) ;
#139 = CARTESIAN_POINT ( 'NONE',  ( 20.50000000000000000, 2.510525938252074481E-15, 1.499999999999999556 ) ) ;
#140 = EDGE_CURVE ( 'NONE', #359, #135, #209, .T. ) ;
#141 = VECTOR ( 'NONE', #102, 1000.000000000000000 ) ;
#142 = AXIS2_PLACEMENT_3D ( 'NONE', #239, #241, #155 ) ;
#143 = PRESENTATION_STYLE_ASSIGNMENT (( #275 ) ) ;
#144 = DIRECTION ( 'NONE',  ( -1.000000000000000000, 0.000000000000000000, 0.000000000000000000 ) ) ;
#145 = AXIS2_PLACEMENT_3D ( 'NONE', #116, #175, #67 ) ;
#146 = CARTESIAN_POINT ( 'NONE',  ( -16.00000000000000000, 0.000000000000000000, 1.500000000000000000 ) ) ;
#147 = ADVANCED_FACE ( 'NONE', ( #256 ), #149, .F. ) ;
#148 = DIRECTION ( 'NONE',  ( 0.000000000000000000, 0.000000000000000000, -1.000000000000000000 ) ) ;
#149 = CYLINDRICAL_SURFACE ( 'NONE', #224, 16.00000000000000000 ) ;
#150 = AXIS2_PLACEMENT_3D ( 'NONE', #193, #303, #219 ) ;
#151 = FACE_OUTER_BOUND ( 'NONE', #153, .T. ) ;
#152 = PLANE ( 'NONE',  #349 ) ;
#153 = EDGE_LOOP ( 'NONE', ( #100, #157, #181, #111 ) ) ;
#154 = ORIENTED_EDGE ( 'NONE', *, *, #227, .T. ) ;
#155 = DIRECTION ( 'NONE',  ( 1.000000000000000000, 0.000000000000000000, 0.000000000000000000 ) ) ;
#156 = ADVANCED_BREP_SHAPE_REPRESENTATION ( '\X2\78977ec48f74627f5ea7\X0\A', ( #85, #124 ), #96 ) ;
#157 = ORIENTED_EDGE ( 'NONE', *, *, #52, .T. ) ;
#158 = EDGE_CURVE ( 'NONE', #351, #81, #189, .T. ) ;
#159 = DIRECTION ( 'NONE',  ( 0.000000000000000000, 0.000000000000000000, -1.000000000000000000 ) ) ;
#160 = AXIS2_PLACEMENT_3D ( 'NONE', #294, #356, #46 ) ;
#161 = ORIENTED_EDGE ( 'NONE', *, *, #293, .F. ) ;
#162 = ORIENTED_EDGE ( 'NONE', *, *, #40, .T. ) ;
#163 = DIRECTION ( 'NONE',  ( 0.000000000000000000, 0.000000000000000000, -1.000000000000000000 ) ) ;
#164 = AXIS2_PLACEMENT_3D ( 'NONE', #229, #315, #203 ) ;
#165 = SURFACE_STYLE_FILL_AREA ( #35 ) ;
#166 = CARTESIAN_POINT ( 'NONE',  ( 22.00000000000000000, 2.694222958124176809E-15, 8.199999999999999289 ) ) ;
#167 = EDGE_CURVE ( 'NONE', #321, #135, #122, .T. ) ;
#168 = CYLINDRICAL_SURFACE ( 'NONE', #150, 24.75000000000000355 ) ;
#169 = SURFACE_SIDE_STYLE ('',( #165 ) ) ;
#170 = DIRECTION ( 'NONE',  ( 0.000000000000000000, 0.000000000000000000, 1.000000000000000000 ) ) ;
#171 = FACE_OUTER_BOUND ( 'NONE', #352, .T. ) ;
#172 = EDGE_CURVE ( 'NONE', #134, #59, #347, .T. ) ;
#173 = CARTESIAN_POINT ( 'NONE',  ( -22.00000000000000000, 0.000000000000000000, 0.000000000000000000 ) ) ;
#174 = VECTOR ( 'NONE', #182, 1000.000000000000000 ) ;
#175 = DIRECTION ( 'NONE',  ( 0.000000000000000000, 0.000000000000000000, 1.000000000000000000 ) ) ;
#176 = ADVANCED_FACE ( 'NONE', ( #93, #311 ), #228, .F. ) ;
#177 = CARTESIAN_POINT ( 'NONE',  ( -22.00000000000000000, 0.000000000000000000, 10.19999999999999929 ) ) ;
#178 = ORIENTED_EDGE ( 'NONE', *, *, #245, .T. ) ;
#179 = DIRECTION ( 'NONE',  ( -1.000000000000000000, 0.000000000000000000, 0.000000000000000000 ) ) ;
#180 = ORIENTED_EDGE ( 'NONE', *, *, #245, .F. ) ;
#181 = ORIENTED_EDGE ( 'NONE', *, *, #140, .T. ) ;
#182 = DIRECTION ( 'NONE',  ( 0.000000000000000000, 0.000000000000000000, -1.000000000000000000 ) ) ;
#183 = EDGE_LOOP ( 'NONE', ( #70, #77, #103, #162 ) ) ;
#184 = AXIS2_PLACEMENT_3D ( 'NONE', #6, #248, #137 ) ;
#185 = ADVANCED_FACE ( 'NONE', ( #151 ), #9, .T. ) ;
#186 = LINE ( 'NONE', #330, #131 ) ;
#187 = VERTEX_POINT ( 'NONE', #39 ) ;
#188 = DIRECTION ( 'NONE',  ( -0.000000000000000000, -0.000000000000000000, -1.000000000000000000 ) ) ;
#189 = CIRCLE ( 'NONE', #316, 24.75000000000000355 ) ;
#190 = ORIENTED_EDGE ( 'NONE', *, *, #314, .F. ) ;
#191 = EDGE_LOOP ( 'NONE', ( #242, #225, #244, #218 ) ) ;
#192 = VERTEX_POINT ( 'NONE', #341 ) ;
#193 = CARTESIAN_POINT ( 'NONE',  ( 0.000000000000000000, 0.000000000000000000, 8.199999999999999289 ) ) ;
#194 = DIRECTION ( 'NONE',  ( 0.000000000000000000, 0.000000000000000000, -1.000000000000000000 ) ) ;
#195 = CARTESIAN_POINT ( 'NONE',  ( 0.000000000000000000, 0.000000000000000000, 1.500000000000000000 ) ) ;
#196 = AXIS2_PLACEMENT_3D ( 'NONE', #33, #115, #138 ) ;
#197 = FACE_OUTER_BOUND ( 'NONE', #28, .T. ) ;
#198 = DIRECTION ( 'NONE',  ( 1.000000000000000000, 0.000000000000000000, 0.000000000000000000 ) ) ;
#199 = PRODUCT_DEFINITION ( 'æ™', '', #114, #84 ) ;
#200 = ORIENTED_EDGE ( 'NONE', *, *, #16, .F. ) ;
#201 = CIRCLE ( 'NONE', #357, 22.00000000000000000 ) ;
#202 = DIRECTION ( 'NONE',  ( -1.000000000000000000, 0.000000000000000000, 0.000000000000000000 ) ) ;
#203 = DIRECTION ( 'NONE',  ( 1.000000000000000000, 0.000000000000000000, -0.000000000000000000 ) ) ;
#204 = CIRCLE ( 'NONE', #276, 24.75000000000000355 ) ;
#205 = CARTESIAN_POINT ( 'NONE',  ( 24.75000000000000355, 0.000000000000000000, 8.199999999999999289 ) ) ;
#206 = EDGE_LOOP ( 'NONE', ( #105, #190 ) ) ;
#207 = PRODUCT ( '\X2\78977ec48f74627f5ea7\X0\A', '\X2\78977ec48f74627f5ea7\X0\A', '', ( #246 ) ) ;
#208 = VECTOR ( 'NONE', #332, 1000.000000000000000 ) ;
#209 = CIRCLE ( 'NONE', #145, 22.00000000000000000 ) ;
#210 = EDGE_LOOP ( 'NONE', ( #45, #266, #27, #263 ) ) ;
#211 = CARTESIAN_POINT ( 'NONE',  ( -22.00000000000000000, 0.000000000000000000, 8.199999999999999289 ) ) ;
#212 = VERTEX_POINT ( 'NONE', #120 ) ;
#213 = CARTESIAN_POINT ( 'NONE',  ( -20.50000000000000000, 0.000000000000000000, 10.19999999999999929 ) ) ;
#214 = VERTEX_POINT ( 'NONE', #146 ) ;
#215 = CLOSED_SHELL ( 'NONE', ( #147, #125, #185, #58, #339, #264, #94, #89, #344, #7, #176, #82 ) ) ;
#216 = LINE ( 'NONE', #74, #236 ) ;
#217 = PRODUCT_DEFINITION_SHAPE ( 'NONE', 'NONE',  #199 ) ;
#218 = ORIENTED_EDGE ( 'NONE', *, *, #158, .F. ) ;
#219 = DIRECTION ( 'NONE',  ( 1.000000000000000000, 0.000000000000000000, 0.000000000000000000 ) ) ;
#220 = VECTOR ( 'NONE', #97, 1000.000000000000000 ) ;
#221 = CYLINDRICAL_SURFACE ( 'NONE', #196, 16.00000000000000000 ) ;
#222 = DIRECTION ( 'NONE',  ( 0.000000000000000000, 0.000000000000000000, 1.000000000000000000 ) ) ;
#223 = DIRECTION ( 'NONE',  ( -1.000000000000000000, 0.000000000000000000, 0.000000000000000000 ) ) ;
#224 = AXIS2_PLACEMENT_3D ( 'NONE', #92, #15, #144 ) ;
#225 = ORIENTED_EDGE ( 'NONE', *, *, #232, .T. ) ;
#226 = DIRECTION ( 'NONE',  ( -1.000000000000000000, 0.000000000000000000, 0.000000000000000000 ) ) ;
#227 = EDGE_CURVE ( 'NONE', #238, #212, #34, .T. ) ;
#228 = PLANE ( 'NONE',  #65 ) ;
#229 = CARTESIAN_POINT ( 'NONE',  ( 0.000000000000000000, 0.000000000000000000, 0.000000000000000000 ) ) ;
#230 = AXIS2_PLACEMENT_3D ( 'NONE', #195, #163, #223 ) ;
#231 = CARTESIAN_POINT ( 'NONE',  ( 16.00000000000000000, 1.959434878635765131E-15, 0.000000000000000000 ) ) ;
#232 = EDGE_CURVE ( 'NONE', #59, #134, #204, .T. ) ;
#233 = DIRECTION ( 'NONE',  ( -0.000000000000000000, -0.000000000000000000, -1.000000000000000000 ) ) ;
#234 = AXIS2_PLACEMENT_3D ( 'NONE', #258, #148, #202 ) ;
#235 = LINE ( 'NONE', #107, #174 ) ;
#236 = VECTOR ( 'NONE', #188, 1000.000000000000000 ) ;
#237 = CARTESIAN_POINT ( 'NONE',  ( 22.00000000000000000, 2.694222958124176809E-15, 0.000000000000000000 ) ) ;
#238 = VERTEX_POINT ( 'NONE', #231 ) ;
#239 = CARTESIAN_POINT ( 'NONE',  ( 0.000000000000000000, 0.000000000000000000, 10.19999999999999929 ) ) ;
#240 = ORIENTED_EDGE ( 'NONE', *, *, #172, .T. ) ;
#241 = DIRECTION ( 'NONE',  ( 0.000000000000000000, 0.000000000000000000, 1.000000000000000000 ) ) ;
#242 = ORIENTED_EDGE ( 'NONE', *, *, #287, .F. ) ;
#243 = DIRECTION ( 'NONE',  ( -0.000000000000000000, -0.000000000000000000, -1.000000000000000000 ) ) ;
#244 = ORIENTED_EDGE ( 'NONE', *, *, #293, .T. ) ;
#245 = EDGE_CURVE ( 'NONE', #19, #214, #296, .T. ) ;
#246 = PRODUCT_CONTEXT ( 'NONE', #80, 'mechanical' ) ;
#247 = EDGE_LOOP ( 'NONE', ( #331, #2 ) ) ;
#248 = DIRECTION ( 'NONE',  ( 0.000000000000000000, 0.000000000000000000, -1.000000000000000000 ) ) ;
#249 = CYLINDRICAL_SURFACE ( 'NONE', #308, 20.50000000000000000 ) ;
#250 = CIRCLE ( 'NONE', #184, 20.50000000000000000 ) ;
#251 = EDGE_CURVE ( 'NONE', #212, #238, #254, .T. ) ;
#252 = UNCERTAINTY_MEASURE_WITH_UNIT (LENGTH_MEASURE( 1.000000000000000082E-05 ), #299, 'distance_accuracy_value', 'NONE');
#253 = FACE_OUTER_BOUND ( 'NONE', #210, .T. ) ;
#254 = CIRCLE ( 'NONE', #281, 16.00000000000000000 ) ;
#255 = FILL_AREA_STYLE_COLOUR ( '', #29 ) ;
#256 = FACE_OUTER_BOUND ( 'NONE', #326, .T. ) ;
#257 = AXIS2_PLACEMENT_3D ( 'NONE', #41, #170, #346 ) ;
#258 = CARTESIAN_POINT ( 'NONE',  ( 0.000000000000000000, 0.000000000000000000, 0.000000000000000000 ) ) ;
#259 = CARTESIAN_POINT ( 'NONE',  ( 0.000000000000000000, 0.000000000000000000, 8.199999999999999289 ) ) ;
#260 = DIRECTION ( 'NONE',  ( 1.000000000000000000, 0.000000000000000000, -0.000000000000000000 ) ) ;
#261 = DIRECTION ( 'NONE',  ( 0.000000000000000000, 0.000000000000000000, -1.000000000000000000 ) ) ;
#262 = CARTESIAN_POINT ( 'NONE',  ( 0.000000000000000000, 0.000000000000000000, 10.19999999999999929 ) ) ;
#263 = ORIENTED_EDGE ( 'NONE', *, *, #251, .T. ) ;
#264 = ADVANCED_FACE ( 'NONE', ( #320 ), #71, .T. ) ;
#265 = CARTESIAN_POINT ( 'NONE',  ( 0.000000000000000000, 0.000000000000000000, 1.500000000000000000 ) ) ;
#266 = ORIENTED_EDGE ( 'NONE', *, *, #37, .F. ) ;
#267 = CARTESIAN_POINT ( 'NONE',  ( -16.00000000000000000, 0.000000000000000000, 1.500000000000000000 ) ) ;
#268 = ORIENTED_EDGE ( 'NONE', *, *, #40, .F. ) ;
#269 = DIRECTION ( 'NONE',  ( 0.000000000000000000, 0.000000000000000000, 1.000000000000000000 ) ) ;
#270 = ORIENTED_EDGE ( 'NONE', *, *, #354, .T. ) ;
#271 = ORIENTED_EDGE ( 'NONE', *, *, #22, .F. ) ;
#272 = STYLED_ITEM ( 'NONE', ( #143 ), #85 ) ;
#273 = CARTESIAN_POINT ( 'NONE',  ( 22.00000000000000000, 2.694222958124176809E-15, 10.19999999999999929 ) ) ;
#274 = CARTESIAN_POINT ( 'NONE',  ( 0.000000000000000000, 0.000000000000000000, 0.000000000000000000 ) ) ;
#275 = SURFACE_STYLE_USAGE ( .BOTH. , #169 ) ;
#276 = AXIS2_PLACEMENT_3D ( 'NONE', #259, #14, #121 ) ;
#277 = AXIS2_PLACEMENT_3D ( 'NONE', #262, #325, #291 ) ;
#278 = DIRECTION ( 'NONE',  ( 1.000000000000000000, 0.000000000000000000, 0.000000000000000000 ) ) ;
#279 = CARTESIAN_POINT ( 'NONE',  ( 24.75000000000000355, 0.000000000000000000, 8.199999999999999289 ) ) ;
#280 = CARTESIAN_POINT ( 'NONE',  ( 0.000000000000000000, 0.000000000000000000, 10.19999999999999929 ) ) ;
#281 = AXIS2_PLACEMENT_3D ( 'NONE', #286, #261, #179 ) ;
#282 = EDGE_CURVE ( 'NONE', #355, #187, #186, .T. ) ;
#283 = DIRECTION ( 'NONE',  ( 0.000000000000000000, 0.000000000000000000, 1.000000000000000000 ) ) ;
#284 = EDGE_LOOP ( 'NONE', ( #47, #129 ) ) ;
#285 =( GEOMETRIC_REPRESENTATION_CONTEXT ( 3 ) GLOBAL_UNCERTAINTY_ASSIGNED_CONTEXT ( ( #252 ) ) GLOBAL_UNIT_ASSIGNED_CONTEXT ( ( #299, #54, #313 ) ) REPRESENTATION_CONTEXT ( 'NONE', 'WORKASPACE' ) );
#286 = CARTESIAN_POINT ( 'NONE',  ( 0.000000000000000000, 0.000000000000000000, 0.000000000000000000 ) ) ;
#287 = EDGE_CURVE ( 'NONE', #59, #351, #327, .T. ) ;
#288 = EDGE_LOOP ( 'NONE', ( #53, #44 ) ) ;
#289 =( NAMED_UNIT ( * ) PLANE_ANGLE_UNIT ( ) SI_UNIT ( $, .RADIAN. ) );
#290 = ORIENTED_EDGE ( 'NONE', *, *, #140, .F. ) ;
#291 = DIRECTION ( 'NONE',  ( -1.000000000000000000, 0.000000000000000000, 0.000000000000000000 ) ) ;
#292 = EDGE_LOOP ( 'NONE', ( #240, #298, #132, #161 ) ) ;
#293 = EDGE_CURVE ( 'NONE', #134, #81, #123, .T. ) ;
#294 = CARTESIAN_POINT ( 'NONE',  ( 0.000000000000000000, 0.000000000000000000, 10.19999999999999929 ) ) ;
#295 = ORIENTED_EDGE ( 'NONE', *, *, #306, .T. ) ;
#296 = CIRCLE ( 'NONE', #83, 16.00000000000000000 ) ;
#297 = FACE_OUTER_BOUND ( 'NONE', #183, .T. ) ;
#298 = ORIENTED_EDGE ( 'NONE', *, *, #287, .T. ) ;
#299 =( LENGTH_UNIT ( ) NAMED_UNIT ( * ) SI_UNIT ( .MILLI., .METRE. ) );
#300 = ORIENTED_EDGE ( 'NONE', *, *, #12, .T. ) ;
#301 = CIRCLE ( 'NONE', #257, 22.00000000000000000 ) ;
#302 = EDGE_CURVE ( 'NONE', #19, #238, #235, .T. ) ;
#303 = DIRECTION ( 'NONE',  ( 0.000000000000000000, 0.000000000000000000, 1.000000000000000000 ) ) ;
#304 = SHAPE_DEFINITION_REPRESENTATION ( #217, #156 ) ;
#305 = ORIENTED_EDGE ( 'NONE', *, *, #158, .T. ) ;
#306 = EDGE_CURVE ( 'NONE', #355, #192, #25, .T. ) ;
#307 = CARTESIAN_POINT ( 'NONE',  ( 24.75000000000000355, 0.000000000000000000, 10.19999999999999929 ) ) ;
#308 = AXIS2_PLACEMENT_3D ( 'NONE', #1, #31, #338 ) ;
#309 = DIRECTION ( 'NONE',  ( 0.000000000000000000, 0.000000000000000000, 1.000000000000000000 ) ) ;
#310 = APPLICATION_CONTEXT ( 'automotive_design' ) ;
#311 = FACE_OUTER_BOUND ( 'NONE', #324, .T. ) ;
#312 = ORIENTED_EDGE ( 'NONE', *, *, #167, .T. ) ;
#313 =( NAMED_UNIT ( * ) SI_UNIT ( $, .STERADIAN. ) SOLID_ANGLE_UNIT ( ) );
#314 = EDGE_CURVE ( 'NONE', #192, #355, #118, .T. ) ;
#315 = DIRECTION ( 'NONE',  ( 0.000000000000000000, 0.000000000000000000, 1.000000000000000000 ) ) ;
#316 = AXIS2_PLACEMENT_3D ( 'NONE', #318, #91, #198 ) ;
#317 = CIRCLE ( 'NONE', #62, 24.75000000000000355 ) ;
#318 = CARTESIAN_POINT ( 'NONE',  ( 0.000000000000000000, 0.000000000000000000, 10.19999999999999929 ) ) ;
#319 = EDGE_LOOP ( 'NONE', ( #8, #178 ) ) ;
#320 = FACE_OUTER_BOUND ( 'NONE', #108, .T. ) ;
#321 = VERTEX_POINT ( 'NONE', #211 ) ;
#322 = MECHANICAL_DESIGN_GEOMETRIC_PRESENTATION_REPRESENTATION (  '', ( #272 ), #285 ) ;
#323 =( LENGTH_UNIT ( ) NAMED_UNIT ( * ) SI_UNIT ( .MILLI., .METRE. ) );
#324 = EDGE_LOOP ( 'NONE', ( #268, #271 ) ) ;
#325 = DIRECTION ( 'NONE',  ( -0.000000000000000000, -0.000000000000000000, -1.000000000000000000 ) ) ;
#326 = EDGE_LOOP ( 'NONE', ( #180, #127, #154, #328 ) ) ;
#327 = LINE ( 'NONE', #26, #141 ) ;
#328 = ORIENTED_EDGE ( 'NONE', *, *, #333, .F. ) ;
#329 = EDGE_CURVE ( 'NONE', #192, #21, #216, .T. ) ;
#330 = CARTESIAN_POINT ( 'NONE',  ( -20.50000000000000000, 0.000000000000000000, 10.19999999999999929 ) ) ;
#331 = ORIENTED_EDGE ( 'NONE', *, *, #16, .T. ) ;
#332 = DIRECTION ( 'NONE',  ( -0.000000000000000000, -0.000000000000000000, -1.000000000000000000 ) ) ;
#333 = EDGE_CURVE ( 'NONE', #214, #212, #17, .T. ) ;
#334 = ORIENTED_EDGE ( 'NONE', *, *, #329, .T. ) ;
#335 = CARTESIAN_POINT ( 'NONE',  ( 16.00000000000000000, 1.959434878635765131E-15, 1.500000000000000000 ) ) ;
#336 = APPLICATION_PROTOCOL_DEFINITION ( 'draft international standard', 'automotive_design', 1998, #310 ) ;
#337 = VECTOR ( 'NONE', #76, 1000.000000000000000 ) ;
#338 = DIRECTION ( 'NONE',  ( -1.000000000000000000, 0.000000000000000000, 0.000000000000000000 ) ) ;
#339 = ADVANCED_FACE ( 'NONE', ( #297 ), #51, .F. ) ;
#340 = DIRECTION ( 'NONE',  ( 1.000000000000000000, 0.000000000000000000, 0.000000000000000000 ) ) ;
#341 = CARTESIAN_POINT ( 'NONE',  ( 20.50000000000000000, 2.510525938252074481E-15, 10.19999999999999929 ) ) ;
#342 = CARTESIAN_POINT ( 'NONE',  ( 0.000000000000000000, 0.000000000000000000, 8.199999999999999289 ) ) ;
#343 = FACE_BOUND ( 'NONE', #206, .T. ) ;
#344 = ADVANCED_FACE ( 'NONE', ( #68, #48 ), #152, .F. ) ;
#345 = DIRECTION ( 'NONE',  ( 0.000000000000000000, 0.000000000000000000, -1.000000000000000000 ) ) ;
#346 = DIRECTION ( 'NONE',  ( 1.000000000000000000, 0.000000000000000000, 0.000000000000000000 ) ) ;
#347 = CIRCLE ( 'NONE', #78, 24.75000000000000355 ) ;
#348 = PRODUCT_RELATED_PRODUCT_CATEGORY ( 'part', '', ( #207 ) ) ;
#349 = AXIS2_PLACEMENT_3D ( 'NONE', #23, #269, #130 ) ;
#350 = DIRECTION ( 'NONE',  ( 0.000000000000000000, 0.000000000000000000, 1.000000000000000000 ) ) ;
#351 = VERTEX_POINT ( 'NONE', #133 ) ;
#352 = EDGE_LOOP ( 'NONE', ( #358, #290 ) ) ;
#353 = DIRECTION ( 'NONE',  ( 0.000000000000000000, 0.000000000000000000, 1.000000000000000000 ) ) ;
#354 = EDGE_CURVE ( 'NONE', #81, #351, #317, .T. ) ;
#355 = VERTEX_POINT ( 'NONE', #213 ) ;
#356 = DIRECTION ( 'NONE',  ( -0.000000000000000000, -0.000000000000000000, -1.000000000000000000 ) ) ;
#357 = AXIS2_PLACEMENT_3D ( 'NONE', #57, #222, #340 ) ;
#358 = ORIENTED_EDGE ( 'NONE', *, *, #12, .F. ) ;
#359 = VERTEX_POINT ( 'NONE', #237 ) ;
ENDSEC;
END-ISO-10303-21;
