ISO-10303-21;
HEADER;
FILE_DESCRIPTION (( 'STEP AP214' ),
    '1' );
FILE_NAME ('Ì¼ÏË_Ï¥¹Ø½Úµæ¿éA.STEP',
    '2026-08-16T17:26:53',
    ( '' ),
    ( '' ),
    'SwSTEP 2.0',
    'SolidWorks 2025',
    '' );
FILE_SCHEMA (( 'AUTOMOTIVE_DESIGN' ));
ENDSEC;

DATA;
#1 = EDGE_LOOP ( 'NONE', ( #107, #2 ) ) ;
#2 = ORIENTED_EDGE ( 'NONE', *, *, #87, .F. ) ;
#3 = VERTEX_POINT ( 'NONE', #13 ) ;
#4 = ORIENTED_EDGE ( 'NONE', *, *, #63, .T. ) ;
#5 = PRODUCT_DEFINITION_CONTEXT ( 'detailed design', #104, 'design' ) ;
#6 = AXIS2_PLACEMENT_3D ( 'NONE', #182, #128, #17 ) ;
#7 = ORIENTED_EDGE ( 'NONE', *, *, #185, .F. ) ;
#8 = ADVANCED_FACE ( 'NONE', ( #38 ), #24, .T. ) ;
#9 = EDGE_LOOP ( 'NONE', ( #188, #4, #52, #177 ) ) ;
#10 = APPLICATION_CONTEXT ( 'automotive_design' ) ;
#11 = VERTEX_POINT ( 'NONE', #42 ) ;
#12 = SURFACE_STYLE_USAGE ( .BOTH. , #39 ) ;
#13 = CARTESIAN_POINT ( 'NONE',  ( 22.02499999999999858, 2.697284575122045346E-15, 4.500000000000000000 ) ) ;
#14 = MANIFOLD_SOLID_BREP ( '\X2\51f853f0\X0\-\X2\62c94f38\X0\1', #144 ) ;
#15 = LINE ( 'NONE', #184, #105 ) ;
#16 = DIRECTION ( 'NONE',  ( 0.000000000000000000, 0.000000000000000000, 1.000000000000000000 ) ) ;
#17 = DIRECTION ( 'NONE',  ( -1.000000000000000000, 0.000000000000000000, 0.000000000000000000 ) ) ;
#18 = FACE_BOUND ( 'NONE', #159, .T. ) ;
#19 = AXIS2_PLACEMENT_3D ( 'NONE', #196, #80, #66 ) ;
#20 = ORIENTED_EDGE ( 'NONE', *, *, #25, .F. ) ;
#21 = VECTOR ( 'NONE', #61, 1000.000000000000000 ) ;
#22 = EDGE_CURVE ( 'NONE', #172, #23, #27, .T. ) ;
#23 = VERTEX_POINT ( 'NONE', #179 ) ;
#24 = CYLINDRICAL_SURFACE ( 'NONE', #76, 27.49999999999999645 ) ;
#25 = EDGE_CURVE ( 'NONE', #124, #23, #164, .T. ) ;
#26 = CARTESIAN_POINT ( 'NONE',  ( 0.000000000000000000, 0.000000000000000000, 4.500000000000000000 ) ) ;
#27 = LINE ( 'NONE', #98, #21 ) ;
#28 = ADVANCED_FACE ( 'NONE', ( #57, #30 ), #148, .T. ) ;
#29 = CARTESIAN_POINT ( 'NONE',  ( 0.000000000000000000, 0.000000000000000000, 0.000000000000000000 ) ) ;
#30 = FACE_BOUND ( 'NONE', #1, .T. ) ;
#31 = AXIS2_PLACEMENT_3D ( 'NONE', #94, #147, #153 ) ;
#32 = DIRECTION ( 'NONE',  ( 0.000000000000000000, 0.000000000000000000, 1.000000000000000000 ) ) ;
#33 = CARTESIAN_POINT ( 'NONE',  ( 0.000000000000000000, 0.000000000000000000, 0.000000000000000000 ) ) ;
#34 = AXIS2_PLACEMENT_3D ( 'NONE', #33, #103, #111 ) ;
#35 = ORIENTED_EDGE ( 'NONE', *, *, #171, .T. ) ;
#36 = VERTEX_POINT ( 'NONE', #90 ) ;
#37 = EDGE_LOOP ( 'NONE', ( #70, #187, #35, #173 ) ) ;
#38 = FACE_OUTER_BOUND ( 'NONE', #37, .T. ) ;
#39 = SURFACE_SIDE_STYLE ('',( #136 ) ) ;
#40 = AXIS2_PLACEMENT_3D ( 'NONE', #99, #16, #139 ) ;
#41 = VERTEX_POINT ( 'NONE', #121 ) ;
#42 = CARTESIAN_POINT ( 'NONE',  ( 27.49999999999999645, 3.367778697655220913E-15, 0.000000000000000000 ) ) ;
#43 = CARTESIAN_POINT ( 'NONE',  ( 0.000000000000000000, 0.000000000000000000, 4.500000000000000000 ) ) ;
#44 =( NAMED_UNIT ( * ) SI_UNIT ( $, .STERADIAN. ) SOLID_ANGLE_UNIT ( ) );
#45 = CIRCLE ( 'NONE', #31, 22.02499999999999858 ) ;
#46 = AXIS2_PLACEMENT_3D ( 'NONE', #116, #141, #137 ) ;
#47 = CARTESIAN_POINT ( 'NONE',  ( -27.49999999999999645, 0.000000000000000000, 4.500000000000000000 ) ) ;
#48 = DIRECTION ( 'NONE',  ( -1.000000000000000000, 0.000000000000000000, 0.000000000000000000 ) ) ;
#49 = ADVANCED_BREP_SHAPE_REPRESENTATION ( '\X2\78b37ea4\X0\_\X2\819d5173828257ab5757\X0\A', ( #14, #40 ), #59 ) ;
#50 = CARTESIAN_POINT ( 'NONE',  ( -27.49999999999999645, 0.000000000000000000, 0.000000000000000000 ) ) ;
#51 = EDGE_CURVE ( 'NONE', #11, #143, #154, .T. ) ;
#52 = ORIENTED_EDGE ( 'NONE', *, *, #131, .F. ) ;
#53 = UNCERTAINTY_MEASURE_WITH_UNIT (LENGTH_MEASURE( 1.000000000000000082E-05 ), #125, 'distance_accuracy_value', 'NONE');
#54 = ORIENTED_EDGE ( 'NONE', *, *, #63, .F. ) ;
#55 = PRODUCT_DEFINITION ( 'æ™', '', #122, #5 ) ;
#56 = CIRCLE ( 'NONE', #91, 27.49999999999999645 ) ;
#57 = FACE_OUTER_BOUND ( 'NONE', #118, .T. ) ;
#58 = DIRECTION ( 'NONE',  ( 1.000000000000000000, 0.000000000000000000, -0.000000000000000000 ) ) ;
#59 =( GEOMETRIC_REPRESENTATION_CONTEXT ( 3 ) GLOBAL_UNCERTAINTY_ASSIGNED_CONTEXT ( ( #53 ) ) GLOBAL_UNIT_ASSIGNED_CONTEXT ( ( #125, #129, #44 ) ) REPRESENTATION_CONTEXT ( 'NONE', 'WORKASPACE' ) );
#60 = FILL_AREA_STYLE_COLOUR ( '', #68 ) ;
#61 = DIRECTION ( 'NONE',  ( -0.000000000000000000, -0.000000000000000000, -1.000000000000000000 ) ) ;
#62 = ORIENTED_EDGE ( 'NONE', *, *, #51, .F. ) ;
#63 = EDGE_CURVE ( 'NONE', #3, #124, #74, .T. ) ;
#64 = FACE_OUTER_BOUND ( 'NONE', #189, .T. ) ;
#65 = AXIS2_PLACEMENT_3D ( 'NONE', #29, #133, #110 ) ;
#66 = DIRECTION ( 'NONE',  ( 1.000000000000000000, 0.000000000000000000, 0.000000000000000000 ) ) ;
#67 = SHAPE_DEFINITION_REPRESENTATION ( #119, #49 ) ;
#68 = COLOUR_RGB ( '',0.7921568627450980005, 0.8196078431372548767, 0.9333333333333333481 ) ;
#69 = ORIENTED_EDGE ( 'NONE', *, *, #132, .T. ) ;
#70 = ORIENTED_EDGE ( 'NONE', *, *, #132, .F. ) ;
#71 = CIRCLE ( 'NONE', #181, 22.02499999999999858 ) ;
#72 = CIRCLE ( 'NONE', #34, 27.49999999999999645 ) ;
#73 = DIRECTION ( 'NONE',  ( -0.000000000000000000, -0.000000000000000000, -1.000000000000000000 ) ) ;
#74 = LINE ( 'NONE', #95, #120 ) ;
#75 = ORIENTED_EDGE ( 'NONE', *, *, #145, .T. ) ;
#76 = AXIS2_PLACEMENT_3D ( 'NONE', #43, #73, #163 ) ;
#77 = EDGE_LOOP ( 'NONE', ( #7, #62 ) ) ;
#78 = FILL_AREA_STYLE ('',( #60 ) ) ;
#79 = EDGE_CURVE ( 'NONE', #41, #36, #56, .T. ) ;
#80 = DIRECTION ( 'NONE',  ( 0.000000000000000000, 0.000000000000000000, 1.000000000000000000 ) ) ;
#81 = DIRECTION ( 'NONE',  ( 1.000000000000000000, 0.000000000000000000, -0.000000000000000000 ) ) ;
#82 = PRODUCT_CONTEXT ( 'NONE', #10, 'mechanical' ) ;
#83 = DIRECTION ( 'NONE',  ( -0.000000000000000000, -0.000000000000000000, -1.000000000000000000 ) ) ;
#84 = DIRECTION ( 'NONE',  ( -0.000000000000000000, -0.000000000000000000, -1.000000000000000000 ) ) ;
#85 = ORIENTED_EDGE ( 'NONE', *, *, #171, .F. ) ;
#86 = AXIS2_PLACEMENT_3D ( 'NONE', #100, #84, #142 ) ;
#87 = EDGE_CURVE ( 'NONE', #3, #172, #45, .T. ) ;
#88 = UNCERTAINTY_MEASURE_WITH_UNIT (LENGTH_MEASURE( 1.000000000000000082E-05 ), #175, 'distance_accuracy_value', 'NONE');
#89 = ORIENTED_EDGE ( 'NONE', *, *, #145, .F. ) ;
#90 = CARTESIAN_POINT ( 'NONE',  ( 27.49999999999999645, 3.367778697655220913E-15, 4.500000000000000000 ) ) ;
#91 = AXIS2_PLACEMENT_3D ( 'NONE', #26, #93, #109 ) ;
#92 = AXIS2_PLACEMENT_3D ( 'NONE', #183, #32, #81 ) ;
#93 = DIRECTION ( 'NONE',  ( 0.000000000000000000, 0.000000000000000000, 1.000000000000000000 ) ) ;
#94 = CARTESIAN_POINT ( 'NONE',  ( 0.000000000000000000, 0.000000000000000000, 4.500000000000000000 ) ) ;
#95 = CARTESIAN_POINT ( 'NONE',  ( 22.02499999999999858, 2.697284575122045346E-15, 4.500000000000000000 ) ) ;
#96 = STYLED_ITEM ( 'NONE', ( #123 ), #14 ) ;
#97 = EDGE_CURVE ( 'NONE', #172, #3, #174, .T. ) ;
#98 = CARTESIAN_POINT ( 'NONE',  ( -22.02499999999999858, 0.000000000000000000, 4.500000000000000000 ) ) ;
#99 = CARTESIAN_POINT ( 'NONE',  ( 0.000000000000000000, 0.000000000000000000, 0.000000000000000000 ) ) ;
#100 = CARTESIAN_POINT ( 'NONE',  ( 0.000000000000000000, 0.000000000000000000, 4.500000000000000000 ) ) ;
#101 = APPLICATION_PROTOCOL_DEFINITION ( 'draft international standard', 'automotive_design', 1998, #10 ) ;
#102 = DIRECTION ( 'NONE',  ( -0.000000000000000000, -0.000000000000000000, -1.000000000000000000 ) ) ;
#103 = DIRECTION ( 'NONE',  ( 0.000000000000000000, 0.000000000000000000, 1.000000000000000000 ) ) ;
#104 = APPLICATION_CONTEXT ( 'automotive_design' ) ;
#105 = VECTOR ( 'NONE', #83, 1000.000000000000000 ) ;
#106 = CARTESIAN_POINT ( 'NONE',  ( 0.000000000000000000, 0.000000000000000000, 4.500000000000000000 ) ) ;
#107 = ORIENTED_EDGE ( 'NONE', *, *, #97, .F. ) ;
#108 = PRODUCT_RELATED_PRODUCT_CATEGORY ( 'part', '', ( #113 ) ) ;
#109 = DIRECTION ( 'NONE',  ( 1.000000000000000000, 0.000000000000000000, 0.000000000000000000 ) ) ;
#110 = DIRECTION ( 'NONE',  ( 1.000000000000000000, 0.000000000000000000, 0.000000000000000000 ) ) ;
#111 = DIRECTION ( 'NONE',  ( 1.000000000000000000, 0.000000000000000000, 0.000000000000000000 ) ) ;
#112 = CARTESIAN_POINT ( 'NONE',  ( -22.02499999999999858, 0.000000000000000000, 4.500000000000000000 ) ) ;
#113 = PRODUCT ( '\X2\78b37ea4\X0\_\X2\819d5173828257ab5757\X0\A', '\X2\78b37ea4\X0\_\X2\819d5173828257ab5757\X0\A', '', ( #82 ) ) ;
#114 =( GEOMETRIC_REPRESENTATION_CONTEXT ( 3 ) GLOBAL_UNCERTAINTY_ASSIGNED_CONTEXT ( ( #88 ) ) GLOBAL_UNIT_ASSIGNED_CONTEXT ( ( #175, #161, #191 ) ) REPRESENTATION_CONTEXT ( 'NONE', 'WORKASPACE' ) );
#115 = CYLINDRICAL_SURFACE ( 'NONE', #86, 22.02499999999999858 ) ;
#116 = CARTESIAN_POINT ( 'NONE',  ( 0.000000000000000000, 0.000000000000000000, 4.500000000000000000 ) ) ;
#117 = ORIENTED_EDGE ( 'NONE', *, *, #87, .T. ) ;
#118 = EDGE_LOOP ( 'NONE', ( #135, #75 ) ) ;
#119 = PRODUCT_DEFINITION_SHAPE ( 'NONE', 'NONE',  #55 ) ;
#120 = VECTOR ( 'NONE', #176, 1000.000000000000000 ) ;
#121 = CARTESIAN_POINT ( 'NONE',  ( -27.49999999999999645, 0.000000000000000000, 4.500000000000000000 ) ) ;
#122 = PRODUCT_DEFINITION_FORMATION_WITH_SPECIFIED_SOURCE ( 'å¯', '', #113, .NOT_KNOWN. ) ;
#123 = PRESENTATION_STYLE_ASSIGNMENT (( #12 ) ) ;
#124 = VERTEX_POINT ( 'NONE', #186 ) ;
#125 =( LENGTH_UNIT ( ) NAMED_UNIT ( * ) SI_UNIT ( .MILLI., .METRE. ) );
#126 = AXIS2_PLACEMENT_3D ( 'NONE', #106, #160, #58 ) ;
#127 = VECTOR ( 'NONE', #102, 1000.000000000000000 ) ;
#128 = DIRECTION ( 'NONE',  ( -0.000000000000000000, -0.000000000000000000, -1.000000000000000000 ) ) ;
#129 =( NAMED_UNIT ( * ) PLANE_ANGLE_UNIT ( ) SI_UNIT ( $, .RADIAN. ) );
#130 = ORIENTED_EDGE ( 'NONE', *, *, #25, .T. ) ;
#131 = EDGE_CURVE ( 'NONE', #23, #124, #71, .T. ) ;
#132 = EDGE_CURVE ( 'NONE', #36, #11, #15, .T. ) ;
#133 = DIRECTION ( 'NONE',  ( 0.000000000000000000, 0.000000000000000000, 1.000000000000000000 ) ) ;
#134 = PRESENTATION_LAYER_ASSIGNMENT (  '', '', ( #96 ) ) ;
#135 = ORIENTED_EDGE ( 'NONE', *, *, #79, .T. ) ;
#136 = SURFACE_STYLE_FILL_AREA ( #78 ) ;
#137 = DIRECTION ( 'NONE',  ( 1.000000000000000000, 0.000000000000000000, 0.000000000000000000 ) ) ;
#138 = AXIS2_PLACEMENT_3D ( 'NONE', #199, #152, #48 ) ;
#139 = DIRECTION ( 'NONE',  ( 1.000000000000000000, 0.000000000000000000, 0.000000000000000000 ) ) ;
#140 = CYLINDRICAL_SURFACE ( 'NONE', #138, 22.02499999999999858 ) ;
#141 = DIRECTION ( 'NONE',  ( 0.000000000000000000, 0.000000000000000000, 1.000000000000000000 ) ) ;
#142 = DIRECTION ( 'NONE',  ( -1.000000000000000000, 0.000000000000000000, 0.000000000000000000 ) ) ;
#143 = VERTEX_POINT ( 'NONE', #50 ) ;
#144 = CLOSED_SHELL ( 'NONE', ( #190, #165, #28, #158, #8, #192 ) ) ;
#145 = EDGE_CURVE ( 'NONE', #36, #41, #155, .T. ) ;
#146 = ORIENTED_EDGE ( 'NONE', *, *, #22, .T. ) ;
#147 = DIRECTION ( 'NONE',  ( 0.000000000000000000, 0.000000000000000000, 1.000000000000000000 ) ) ;
#148 = PLANE ( 'NONE',  #126 ) ;
#149 = DIRECTION ( 'NONE',  ( 1.000000000000000000, 0.000000000000000000, 0.000000000000000000 ) ) ;
#150 = FACE_OUTER_BOUND ( 'NONE', #156, .T. ) ;
#151 = LINE ( 'NONE', #47, #127 ) ;
#152 = DIRECTION ( 'NONE',  ( -0.000000000000000000, -0.000000000000000000, -1.000000000000000000 ) ) ;
#153 = DIRECTION ( 'NONE',  ( 1.000000000000000000, 0.000000000000000000, 0.000000000000000000 ) ) ;
#154 = CIRCLE ( 'NONE', #170, 27.49999999999999645 ) ;
#155 = CIRCLE ( 'NONE', #46, 27.49999999999999645 ) ;
#156 = EDGE_LOOP ( 'NONE', ( #54, #117, #146, #20 ) ) ;
#157 = ORIENTED_EDGE ( 'NONE', *, *, #131, .T. ) ;
#158 = ADVANCED_FACE ( 'NONE', ( #195, #18 ), #180, .F. ) ;
#159 = EDGE_LOOP ( 'NONE', ( #157, #130 ) ) ;
#160 = DIRECTION ( 'NONE',  ( 0.000000000000000000, 0.000000000000000000, 1.000000000000000000 ) ) ;
#161 =( NAMED_UNIT ( * ) PLANE_ANGLE_UNIT ( ) SI_UNIT ( $, .RADIAN. ) );
#162 = CARTESIAN_POINT ( 'NONE',  ( 0.000000000000000000, 0.000000000000000000, 0.000000000000000000 ) ) ;
#163 = DIRECTION ( 'NONE',  ( -1.000000000000000000, 0.000000000000000000, 0.000000000000000000 ) ) ;
#164 = CIRCLE ( 'NONE', #65, 22.02499999999999858 ) ;
#165 = ADVANCED_FACE ( 'NONE', ( #64 ), #168, .T. ) ;
#166 = FACE_OUTER_BOUND ( 'NONE', #9, .T. ) ;
#167 = CARTESIAN_POINT ( 'NONE',  ( 0.000000000000000000, 0.000000000000000000, 0.000000000000000000 ) ) ;
#168 = CYLINDRICAL_SURFACE ( 'NONE', #6, 27.49999999999999645 ) ;
#169 = DIRECTION ( 'NONE',  ( 0.000000000000000000, 0.000000000000000000, 1.000000000000000000 ) ) ;
#170 = AXIS2_PLACEMENT_3D ( 'NONE', #162, #178, #193 ) ;
#171 = EDGE_CURVE ( 'NONE', #41, #143, #151, .T. ) ;
#172 = VERTEX_POINT ( 'NONE', #112 ) ;
#173 = ORIENTED_EDGE ( 'NONE', *, *, #185, .T. ) ;
#174 = CIRCLE ( 'NONE', #19, 22.02499999999999858 ) ;
#175 =( LENGTH_UNIT ( ) NAMED_UNIT ( * ) SI_UNIT ( .MILLI., .METRE. ) );
#176 = DIRECTION ( 'NONE',  ( -0.000000000000000000, -0.000000000000000000, -1.000000000000000000 ) ) ;
#177 = ORIENTED_EDGE ( 'NONE', *, *, #22, .F. ) ;
#178 = DIRECTION ( 'NONE',  ( 0.000000000000000000, 0.000000000000000000, 1.000000000000000000 ) ) ;
#179 = CARTESIAN_POINT ( 'NONE',  ( -22.02499999999999858, 0.000000000000000000, 0.000000000000000000 ) ) ;
#180 = PLANE ( 'NONE',  #92 ) ;
#181 = AXIS2_PLACEMENT_3D ( 'NONE', #167, #169, #149 ) ;
#182 = CARTESIAN_POINT ( 'NONE',  ( 0.000000000000000000, 0.000000000000000000, 4.500000000000000000 ) ) ;
#183 = CARTESIAN_POINT ( 'NONE',  ( 0.000000000000000000, 0.000000000000000000, 0.000000000000000000 ) ) ;
#184 = CARTESIAN_POINT ( 'NONE',  ( 27.49999999999999645, 3.367778697655220913E-15, 4.500000000000000000 ) ) ;
#185 = EDGE_CURVE ( 'NONE', #143, #11, #72, .T. ) ;
#186 = CARTESIAN_POINT ( 'NONE',  ( 22.02499999999999858, 2.697284575122045346E-15, 0.000000000000000000 ) ) ;
#187 = ORIENTED_EDGE ( 'NONE', *, *, #79, .F. ) ;
#188 = ORIENTED_EDGE ( 'NONE', *, *, #97, .T. ) ;
#189 = EDGE_LOOP ( 'NONE', ( #89, #69, #194, #85 ) ) ;
#190 = ADVANCED_FACE ( 'NONE', ( #166 ), #115, .F. ) ;
#191 =( NAMED_UNIT ( * ) SI_UNIT ( $, .STERADIAN. ) SOLID_ANGLE_UNIT ( ) );
#192 = ADVANCED_FACE ( 'NONE', ( #150 ), #140, .F. ) ;
#193 = DIRECTION ( 'NONE',  ( 1.000000000000000000, 0.000000000000000000, 0.000000000000000000 ) ) ;
#194 = ORIENTED_EDGE ( 'NONE', *, *, #51, .T. ) ;
#195 = FACE_OUTER_BOUND ( 'NONE', #77, .T. ) ;
#196 = CARTESIAN_POINT ( 'NONE',  ( 0.000000000000000000, 0.000000000000000000, 4.500000000000000000 ) ) ;
#197 = APPLICATION_PROTOCOL_DEFINITION ( 'draft international standard', 'automotive_design', 1998, #104 ) ;
#198 = MECHANICAL_DESIGN_GEOMETRIC_PRESENTATION_REPRESENTATION (  '', ( #96 ), #114 ) ;
#199 = CARTESIAN_POINT ( 'NONE',  ( 0.000000000000000000, 0.000000000000000000, 4.500000000000000000 ) ) ;
ENDSEC;
END-ISO-10303-21;
