ISO-10303-21;
HEADER;
FILE_DESCRIPTION (( 'STEP AP214' ),
    '1' );
FILE_NAME ('ÍÈ²¿ÏÞÎ»A.STEP',
    '2026-08-16T17:26:54',
    ( '' ),
    ( '' ),
    'SwSTEP 2.0',
    'SolidWorks 2025',
    '' );
FILE_SCHEMA (( 'AUTOMOTIVE_DESIGN' ));
ENDSEC;

DATA;
#1 = DIRECTION ( 'NONE',  ( 1.000000000000000000, 0.000000000000000000, 0.000000000000000000 ) ) ;
#2 = DIRECTION ( 'NONE',  ( 1.000000000000000000, 0.000000000000000000, 0.000000000000000000 ) ) ;
#3 = CARTESIAN_POINT ( 'NONE',  ( 17.78056693772166952, 8.353952661752243714, 0.000000000000000000 ) ) ;
#4 = DIRECTION ( 'NONE',  ( 1.000000000000000000, 0.000000000000000000, 0.000000000000000000 ) ) ;
#5 = EDGE_CURVE ( 'NONE', #37, #194, #342, .T. ) ;
#6 = EDGE_CURVE ( 'NONE', #549, #428, #339, .T. ) ;
#7 = CARTESIAN_POINT ( 'NONE',  ( -10.00000000000000000, 0.000000000000000000, 14.00000000000000000 ) ) ;
#8 = ORIENTED_EDGE ( 'NONE', *, *, #163, .T. ) ;
#9 = EDGE_CURVE ( 'NONE', #470, #553, #610, .T. ) ;
#10 = VECTOR ( 'NONE', #282, 1000.000000000000114 ) ;
#11 = VERTEX_POINT ( 'NONE', #198 ) ;
#12 = PRESENTATION_LAYER_ASSIGNMENT (  '', '', ( #438 ) ) ;
#13 = CARTESIAN_POINT ( 'NONE',  ( -10.00000000000000000, 0.000000000000000000, 14.00000000000000000 ) ) ;
#14 = EDGE_CURVE ( 'NONE', #565, #446, #352, .T. ) ;
#15 = CIRCLE ( 'NONE', #493, 10.00000000000000000 ) ;
#16 = CARTESIAN_POINT ( 'NONE',  ( 18.67294286159761896, -10.02758699174957435, 0.000000000000000000 ) ) ;
#17 = CARTESIAN_POINT ( 'NONE',  ( 18.54410893478534206, -5.029247085410459839, 0.000000000000000000 ) ) ;
#18 = AXIS2_PLACEMENT_3D ( 'NONE', #609, #506, #423 ) ;
#19 = ORIENTED_EDGE ( 'NONE', *, *, #14, .T. ) ;
#20 = DIRECTION ( 'NONE',  ( 1.000000000000000000, 5.334274688628681815E-15, 0.000000000000000000 ) ) ;
#21 = ORIENTED_EDGE ( 'NONE', *, *, #87, .T. ) ;
#22 = DIRECTION ( 'NONE',  ( 1.000000000000000000, 0.000000000000000000, 0.000000000000000000 ) ) ;
#23 = DIRECTION ( 'NONE',  ( 0.000000000000000000, 0.000000000000000000, 1.000000000000000000 ) ) ;
#24 = DIRECTION ( 'NONE',  ( -0.000000000000000000, -0.000000000000000000, 1.000000000000000000 ) ) ;
#25 = PRESENTATION_STYLE_ASSIGNMENT (( #261 ) ) ;
#26 = EDGE_CURVE ( 'NONE', #116, #37, #255, .T. ) ;
#27 = DIRECTION ( 'NONE',  ( 0.000000000000000000, -0.000000000000000000, -1.000000000000000000 ) ) ;
#28 = PLANE ( 'NONE',  #80 ) ;
#29 = VERTEX_POINT ( 'NONE', #355 ) ;
#30 = CARTESIAN_POINT ( 'NONE',  ( -36.96071682377166212, -4.068857182931775007, 0.000000000000000000 ) ) ;
#31 = EDGE_CURVE ( 'NONE', #77, #191, #401, .T. ) ;
#32 = DIRECTION ( 'NONE',  ( -0.000000000000000000, -0.000000000000000000, -1.000000000000000000 ) ) ;
#33 = FILL_AREA_STYLE_COLOUR ( '', #485 ) ;
#34 = CARTESIAN_POINT ( 'NONE',  ( -22.85438381480337000, 14.63726480412998399, 0.000000000000000000 ) ) ;
#35 = LINE ( 'NONE', #92, #441 ) ;
#36 = ADVANCED_FACE ( 'NONE', ( #442 ), #123, .F. ) ;
#37 = VERTEX_POINT ( 'NONE', #398 ) ;
#38 = FACE_OUTER_BOUND ( 'NONE', #106, .T. ) ;
#39 = ORIENTED_EDGE ( 'NONE', *, *, #49, .T. ) ;
#40 = EDGE_CURVE ( 'NONE', #475, #549, #144, .T. ) ;
#41 = FACE_OUTER_BOUND ( 'NONE', #559, .T. ) ;
#42 = AXIS2_PLACEMENT_3D ( 'NONE', #298, #388, #112 ) ;
#43 = ORIENTED_EDGE ( 'NONE', *, *, #271, .T. ) ;
#44 = ADVANCED_FACE ( 'NONE', ( #114 ), #486, .F. ) ;
#45 = LINE ( 'NONE', #607, #513 ) ;
#46 = LINE ( 'NONE', #234, #139 ) ;
#47 = ORIENTED_EDGE ( 'NONE', *, *, #461, .T. ) ;
#48 = CIRCLE ( 'NONE', #67, 3.100000000000000533 ) ;
#49 = EDGE_CURVE ( 'NONE', #475, #553, #206, .T. ) ;
#50 = EDGE_CURVE ( 'NONE', #108, #77, #301, .T. ) ;
#51 = ORIENTED_EDGE ( 'NONE', *, *, #247, .T. ) ;
#52 = DIRECTION ( 'NONE',  ( 0.000000000000000000, 0.000000000000000000, 1.000000000000000000 ) ) ;
#53 = AXIS2_PLACEMENT_3D ( 'NONE', #307, #24, #496 ) ;
#54 = CARTESIAN_POINT ( 'NONE',  ( -27.37771064203785443, -1.211237103066062248, 14.00000000000000000 ) ) ;
#55 = FACE_OUTER_BOUND ( 'NONE', #536, .T. ) ;
#56 = EDGE_CURVE ( 'NONE', #428, #150, #532, .T. ) ;
#57 = ORIENTED_EDGE ( 'NONE', *, *, #147, .F. ) ;
#58 = VERTEX_POINT ( 'NONE', #216 ) ;
#59 = AXIS2_PLACEMENT_3D ( 'NONE', #543, #304, #585 ) ;
#60 = UNCERTAINTY_MEASURE_WITH_UNIT (LENGTH_MEASURE( 1.000000000000000082E-05 ), #399, 'distance_accuracy_value', 'NONE');
#61 = PLANE ( 'NONE',  #435 ) ;
#62 = ORIENTED_EDGE ( 'NONE', *, *, #366, .T. ) ;
#63 = AXIS2_PLACEMENT_3D ( 'NONE', #384, #161, #530 ) ;
#64 = CARTESIAN_POINT ( 'NONE',  ( -17.61224394445596531, 14.87745300270044702, 0.000000000000000000 ) ) ;
#65 = ORIENTED_EDGE ( 'NONE', *, *, #271, .F. ) ;
#66 = AXIS2_PLACEMENT_3D ( 'NONE', #449, #586, #83 ) ;
#67 = AXIS2_PLACEMENT_3D ( 'NONE', #599, #455, #185 ) ;
#68 = DIRECTION ( 'NONE',  ( 0.000000000000000000, -0.000000000000000000, -1.000000000000000000 ) ) ;
#69 = CARTESIAN_POINT ( 'NONE',  ( -6.899999999999999467, 3.796405077356795411E-16, 0.000000000000000000 ) ) ;
#70 = ORIENTED_EDGE ( 'NONE', *, *, #483, .T. ) ;
#71 = CARTESIAN_POINT ( 'NONE',  ( 17.78056693772166952, 8.353952661752243714, 0.000000000000000000 ) ) ;
#72 = AXIS2_PLACEMENT_3D ( 'NONE', #34, #318, #229 ) ;
#73 = DIRECTION ( 'NONE',  ( 1.000000000000000000, 0.000000000000000000, 0.000000000000000000 ) ) ;
#74 = CARTESIAN_POINT ( 'NONE',  ( -22.85438381480337000, 14.63726480412998399, -2.500000000071889161E-05 ) ) ;
#75 = DIRECTION ( 'NONE',  ( -0.000000000000000000, 0.000000000000000000, 1.000000000000000000 ) ) ;
#76 = DIRECTION ( 'NONE',  ( 0.000000000000000000, 0.000000000000000000, 1.000000000000000000 ) ) ;
#77 = VERTEX_POINT ( 'NONE', #209 ) ;
#78 = DIRECTION ( 'NONE',  ( -0.000000000000000000, -0.000000000000000000, -1.000000000000000000 ) ) ;
#79 = CARTESIAN_POINT ( 'NONE',  ( 0.000000000000000000, 0.000000000000000000, 0.000000000000000000 ) ) ;
#80 = AXIS2_PLACEMENT_3D ( 'NONE', #170, #577, #391 ) ;
#81 = CARTESIAN_POINT ( 'NONE',  ( 15.92046792891056306, 7.824532305630403251, 0.000000000000000000 ) ) ;
#82 = ORIENTED_EDGE ( 'NONE', *, *, #418, .F. ) ;
#83 = DIRECTION ( 'NONE',  ( 1.000000000000000000, 0.000000000000000000, 0.000000000000000000 ) ) ;
#84 = CYLINDRICAL_SURFACE ( 'NONE', #422, 3.100000000000000533 ) ;
#85 = EDGE_LOOP ( 'NONE', ( #443, #70, #377, #82 ) ) ;
#86 = PRODUCT_CONTEXT ( 'NONE', #412, 'mechanical' ) ;
#87 = EDGE_CURVE ( 'NONE', #299, #108, #522, .T. ) ;
#88 = FACE_OUTER_BOUND ( 'NONE', #540, .T. ) ;
#89 = CYLINDRICAL_SURFACE ( 'NONE', #596, 10.00000000000000000 ) ;
#90 = ORIENTED_EDGE ( 'NONE', *, *, #190, .F. ) ;
#91 = ADVANCED_FACE ( 'NONE', ( #353 ), #28, .F. ) ;
#92 = CARTESIAN_POINT ( 'NONE',  ( -35.05674734574979112, -10.45380366559137819, 14.00000000000000000 ) ) ;
#93 = CIRCLE ( 'NONE', #417, 10.00000000000000178 ) ;
#94 = ORIENTED_EDGE ( 'NONE', *, *, #432, .T. ) ;
#95 = VECTOR ( 'NONE', #454, 1000.000000000000000 ) ;
#96 = CARTESIAN_POINT ( 'NONE',  ( 7.012159595743891138, 12.73112697554754646, 0.000000000000000000 ) ) ;
#97 = VERTEX_POINT ( 'NONE', #69 ) ;
#98 = DIRECTION ( 'NONE',  ( -0.9996679812678234134, -0.02576678536245478532, 0.000000000000000000 ) ) ;
#99 = EDGE_CURVE ( 'NONE', #150, #475, #575, .T. ) ;
#100 = ORIENTED_EDGE ( 'NONE', *, *, #556, .T. ) ;
#101 = PRODUCT ( '\X2\817f90e896504f4d\X0\A', '\X2\817f90e896504f4d\X0\A', '', ( #86 ) ) ;
#102 = PRODUCT_RELATED_PRODUCT_CATEGORY ( 'part', '', ( #101 ) ) ;
#103 = AXIS2_PLACEMENT_3D ( 'NONE', #548, #508, #463 ) ;
#104 = EDGE_LOOP ( 'NONE', ( #370, #567, #403, #51 ) ) ;
#105 = CARTESIAN_POINT ( 'NONE',  ( -35.05674734574979112, -10.45380366559137642, 0.000000000000000000 ) ) ;
#106 = EDGE_LOOP ( 'NONE', ( #90, #611, #481, #253 ) ) ;
#107 = DIRECTION ( 'NONE',  ( 0.000000000000000000, 0.000000000000000000, 1.000000000000000000 ) ) ;
#108 = VERTEX_POINT ( 'NONE', #545 ) ;
#109 = EDGE_CURVE ( 'NONE', #240, #11, #500, .T. ) ;
#110 = CARTESIAN_POINT ( 'NONE',  ( 23.06951289158157081, -2.903048828470844001, 0.000000000000000000 ) ) ;
#111 = ADVANCED_FACE ( 'NONE', ( #588 ), #448, .F. ) ;
#112 = DIRECTION ( 'NONE',  ( -0.9996679812678234134, -0.02576678536245478532, 0.000000000000000000 ) ) ;
#113 = LINE ( 'NONE', #350, #308 ) ;
#114 = FACE_OUTER_BOUND ( 'NONE', #249, .T. ) ;
#115 = AXIS2_PLACEMENT_3D ( 'NONE', #316, #348, #537 ) ;
#116 = VERTEX_POINT ( 'NONE', #445 ) ;
#117 = EDGE_CURVE ( 'NONE', #58, #433, #444, .T. ) ;
#118 = ADVANCED_BREP_SHAPE_REPRESENTATION ( '\X2\817f90e896504f4d\X0\A', ( #606, #158 ), #468 ) ;
#119 = FACE_BOUND ( 'NONE', #324, .T. ) ;
#120 = CARTESIAN_POINT ( 'NONE',  ( 17.78056693772166952, 8.353952661752243714, 14.00000000000000000 ) ) ;
#121 = ORIENTED_EDGE ( 'NONE', *, *, #31, .F. ) ;
#122 = SURFACE_SIDE_STYLE ('',( #410 ) ) ;
#123 = PLANE ( 'NONE',  #59 ) ;
#124 =( NAMED_UNIT ( * ) SI_UNIT ( $, .STERADIAN. ) SOLID_ANGLE_UNIT ( ) );
#125 = EDGE_CURVE ( 'NONE', #77, #549, #131, .T. ) ;
#126 = CIRCLE ( 'NONE', #63, 10.00000000000000888 ) ;
#127 = PLANE ( 'NONE',  #338 ) ;
#128 = DIRECTION ( 'NONE',  ( 0.9583006181733803031, 0.2857620079865714202, 0.000000000000000000 ) ) ;
#129 = CYLINDRICAL_SURFACE ( 'NONE', #115, 3.100000000000000533 ) ;
#130 = APPLICATION_CONTEXT ( 'automotive_design' ) ;
#131 = LINE ( 'NONE', #120, #477 ) ;
#132 = AXIS2_PLACEMENT_3D ( 'NONE', #7, #434, #200 ) ;
#133 = CYLINDRICAL_SURFACE ( 'NONE', #281, 3.100000000000000533 ) ;
#134 = CARTESIAN_POINT ( 'NONE',  ( -13.10000000000000142, 0.000000000000000000, 0.000000000000000000 ) ) ;
#135 = DIRECTION ( 'NONE',  ( 1.000000000000000000, 0.000000000000000000, 0.000000000000000000 ) ) ;
#136 = ORIENTED_EDGE ( 'NONE', *, *, #56, .F. ) ;
#137 = DIRECTION ( 'NONE',  ( -1.000000000000000000, 0.000000000000000000, 0.000000000000000000 ) ) ;
#138 = AXIS2_PLACEMENT_3D ( 'NONE', #489, #395, #20 ) ;
#139 = VECTOR ( 'NONE', #32, 1000.000000000000000 ) ;
#140 = CARTESIAN_POINT ( 'NONE',  ( -12.78775404190224307, 23.63669367642080843, -2.500000000071889161E-05 ) ) ;
#141 = ORIENTED_EDGE ( 'NONE', *, *, #405, .T. ) ;
#142 = LINE ( 'NONE', #604, #182 ) ;
#143 = EDGE_LOOP ( 'NONE', ( #605, #188, #243, #157 ) ) ;
#144 = CIRCLE ( 'NONE', #344, 5.000000000000000888 ) ;
#145 = CARTESIAN_POINT ( 'NONE',  ( 6.899999999999999467, 0.000000000000000000, 0.000000000000000000 ) ) ;
#146 = ORIENTED_EDGE ( 'NONE', *, *, #290, .T. ) ;
#147 = EDGE_CURVE ( 'NONE', #433, #240, #498, .T. ) ;
#148 = CARTESIAN_POINT ( 'NONE',  ( -21.99760005661956086, 24.60049327645322848, 0.000000000000000000 ) ) ;
#149 = ORIENTED_EDGE ( 'NONE', *, *, #583, .F. ) ;
#150 = VERTEX_POINT ( 'NONE', #16 ) ;
#151 = VECTOR ( 'NONE', #272, 1000.000000000000114 ) ;
#152 = UNCERTAINTY_MEASURE_WITH_UNIT (LENGTH_MEASURE( 1.000000000000000082E-05 ), #196, 'distance_accuracy_value', 'NONE');
#153 = CARTESIAN_POINT ( 'NONE',  ( 23.06951289158157437, -2.903048828470851106, 0.000000000000000000 ) ) ;
#154 = ORIENTED_EDGE ( 'NONE', *, *, #461, .F. ) ;
#155 = PRODUCT_DEFINITION_SHAPE ( 'NONE', 'NONE',  #331 ) ;
#156 = DIRECTION ( 'NONE',  ( -1.000000000000000000, 0.000000000000000000, 0.000000000000000000 ) ) ;
#157 = ORIENTED_EDGE ( 'NONE', *, *, #251, .F. ) ;
#158 = AXIS2_PLACEMENT_3D ( 'NONE', #79, #52, #421 ) ;
#159 = ORIENTED_EDGE ( 'NONE', *, *, #40, .F. ) ;
#160 = AXIS2_PLACEMENT_3D ( 'NONE', #408, #501, #593 ) ;
#161 = DIRECTION ( 'NONE',  ( -0.000000000000000000, 0.000000000000000000, 1.000000000000000000 ) ) ;
#162 = ORIENTED_EDGE ( 'NONE', *, *, #529, .F. ) ;
#163 = EDGE_CURVE ( 'NONE', #29, #97, #363, .T. ) ;
#164 = AXIS2_PLACEMENT_3D ( 'NONE', #17, #68, #359 ) ;
#165 = CARTESIAN_POINT ( 'NONE',  ( 18.54410893478534206, -5.029247085410459839, 14.00000000000000000 ) ) ;
#166 = CYLINDRICAL_SURFACE ( 'NONE', #66, 10.00000000000000000 ) ;
#167 = DIRECTION ( 'NONE',  ( -0.000000000000000000, -0.000000000000000000, 1.000000000000000000 ) ) ;
#168 = EDGE_LOOP ( 'NONE', ( #273, #386 ) ) ;
#169 = LINE ( 'NONE', #313, #95 ) ;
#170 = CARTESIAN_POINT ( 'NONE',  ( 7.012159595743891138, 12.73112697554754469, -2.500000000071889161E-05 ) ) ;
#171 = ORIENTED_EDGE ( 'NONE', *, *, #366, .F. ) ;
#172 =( NAMED_UNIT ( * ) PLANE_ANGLE_UNIT ( ) SI_UNIT ( $, .RADIAN. ) );
#173 = FACE_OUTER_BOUND ( 'NONE', #374, .T. ) ;
#174 = DIRECTION ( 'NONE',  ( 1.000000000000000000, 0.000000000000000000, 0.000000000000000000 ) ) ;
#175 = FACE_OUTER_BOUND ( 'NONE', #227, .T. ) ;
#176 = AXIS2_PLACEMENT_3D ( 'NONE', #462, #232, #603 ) ;
#177 = DIRECTION ( 'NONE',  ( -0.000000000000000000, 0.000000000000000000, 1.000000000000000000 ) ) ;
#178 = ORIENTED_EDGE ( 'NONE', *, *, #467, .F. ) ;
#179 = CARTESIAN_POINT ( 'NONE',  ( -21.14081629843575527, 34.56372174877646586, 0.000000000000000000 ) ) ;
#180 = MECHANICAL_DESIGN_GEOMETRIC_PRESENTATION_REPRESENTATION (  '', ( #438 ), #332 ) ;
#181 = CARTESIAN_POINT ( 'NONE',  ( -13.10000000000000142, 0.000000000000000000, 14.00000000000000000 ) ) ;
#182 = VECTOR ( 'NONE', #189, 1000.000000000000227 ) ;
#183 = CARTESIAN_POINT ( 'NONE',  ( -35.94557729183114958, 18.25729811442018402, 14.00000000000000000 ) ) ;
#184 = EDGE_CURVE ( 'NONE', #294, #502, #46, .T. ) ;
#185 = DIRECTION ( 'NONE',  ( 1.000000000000000000, 0.000000000000000000, 0.000000000000000000 ) ) ;
#186 = VERTEX_POINT ( 'NONE', #148 ) ;
#187 = DIRECTION ( 'NONE',  ( 0.000000000000000000, -0.000000000000000000, 1.000000000000000000 ) ) ;
#188 = ORIENTED_EDGE ( 'NONE', *, *, #509, .F. ) ;
#189 = DIRECTION ( 'NONE',  ( 0.8484653032768871839, 0.5292510076846898004, 0.000000000000000000 ) ) ;
#190 = EDGE_CURVE ( 'NONE', #505, #521, #208, .T. ) ;
#191 = VERTEX_POINT ( 'NONE', #237 ) ;
#192 = CARTESIAN_POINT ( 'NONE',  ( -28.14689389165026512, 23.12191783689885938, 14.00000000000000000 ) ) ;
#193 = EDGE_CURVE ( 'NONE', #11, #240, #369, .T. ) ;
#194 = VERTEX_POINT ( 'NONE', #192 ) ;
#195 = ORIENTED_EDGE ( 'NONE', *, *, #349, .F. ) ;
#196 =( LENGTH_UNIT ( ) NAMED_UNIT ( * ) SI_UNIT ( .MILLI., .METRE. ) );
#197 = CIRCLE ( 'NONE', #360, 9.999999999999998224 ) ;
#198 = CARTESIAN_POINT ( 'NONE',  ( 13.10000000000000142, 3.796405077356795411E-16, 0.000000000000000000 ) ) ;
#199 = ORIENTED_EDGE ( 'NONE', *, *, #251, .T. ) ;
#200 = DIRECTION ( 'NONE',  ( -1.000000000000000000, 0.000000000000000000, 0.000000000000000000 ) ) ;
#201 = ORIENTED_EDGE ( 'NONE', *, *, #117, .T. ) ;
#202 = AXIS2_PLACEMENT_3D ( 'NONE', #13, #23, #215 ) ;
#203 = VECTOR ( 'NONE', #503, 1000.000000000000000 ) ;
#204 = ORIENTED_EDGE ( 'NONE', *, *, #393, .T. ) ;
#205 = CARTESIAN_POINT ( 'NONE',  ( -30.65306721498424380, 9.772645081651313959, 0.000000000000000000 ) ) ;
#206 = LINE ( 'NONE', #581, #257 ) ;
#207 = AXIS2_PLACEMENT_3D ( 'NONE', #312, #268, #219 ) ;
#208 = CIRCLE ( 'NONE', #103, 10.00000000000000178 ) ;
#209 = CARTESIAN_POINT ( 'NONE',  ( 20.14678593994929656, 3.317688145789268628, 14.00000000000000000 ) ) ;
#210 = ORIENTED_EDGE ( 'NONE', *, *, #351, .T. ) ;
#211 = DIRECTION ( 'NONE',  ( -0.000000000000000000, -0.000000000000000000, -1.000000000000000000 ) ) ;
#212 = CARTESIAN_POINT ( 'NONE',  ( 6.899999999999999467, 0.000000000000000000, 14.00000000000000000 ) ) ;
#213 = ORIENTED_EDGE ( 'NONE', *, *, #163, .F. ) ;
#214 = FACE_OUTER_BOUND ( 'NONE', #613, .T. ) ;
#215 = DIRECTION ( 'NONE',  ( 1.000000000000000000, 0.000000000000000000, 0.000000000000000000 ) ) ;
#216 = CARTESIAN_POINT ( 'NONE',  ( 13.10000000000000142, 3.796405077356795411E-16, 14.00000000000000000 ) ) ;
#217 = LINE ( 'NONE', #404, #409 ) ;
#218 = VECTOR ( 'NONE', #287, 1000.000000000000000 ) ;
#219 = DIRECTION ( 'NONE',  ( 1.000000000000000000, 0.000000000000000000, 0.000000000000000000 ) ) ;
#220 = ORIENTED_EDGE ( 'NONE', *, *, #99, .T. ) ;
#221 = DIRECTION ( 'NONE',  ( 1.000000000000000000, 0.000000000000000000, 0.000000000000000000 ) ) ;
#222 = CARTESIAN_POINT ( 'NONE',  ( -36.96071682377165502, -4.068857182931777672, 0.000000000000000000 ) ) ;
#223 = EDGE_LOOP ( 'NONE', ( #278, #260, #561, #327, #436, #354, #525, #265, #570, #516, #195, #19 ) ) ;
#224 = FILL_AREA_STYLE ('',( #33 ) ) ;
#225 = AXIS2_PLACEMENT_3D ( 'NONE', #397, #579, #270 ) ;
#226 = LINE ( 'NONE', #140, #254 ) ;
#227 = EDGE_LOOP ( 'NONE', ( #213, #305, #280, #171 ) ) ;
#228 =( NAMED_UNIT ( * ) SI_UNIT ( $, .STERADIAN. ) SOLID_ANGLE_UNIT ( ) );
#229 = DIRECTION ( 'NONE',  ( 1.000000000000000000, 0.000000000000000000, 0.000000000000000000 ) ) ;
#230 = DIRECTION ( 'NONE',  ( -0.000000000000000000, -0.000000000000000000, -1.000000000000000000 ) ) ;
#231 = ORIENTED_EDGE ( 'NONE', *, *, #99, .F. ) ;
#232 = DIRECTION ( 'NONE',  ( -0.000000000000000000, 0.000000000000000000, 1.000000000000000000 ) ) ;
#233 = CIRCLE ( 'NONE', #358, 3.100000000000000533 ) ;
#234 = CARTESIAN_POINT ( 'NONE',  ( -13.10000000000000142, 0.000000000000000000, 14.00000000000000000 ) ) ;
#235 = EDGE_LOOP ( 'NONE', ( #204, #94, #65, #199 ) ) ;
#236 = EDGE_CURVE ( 'NONE', #470, #446, #35, .T. ) ;
#237 = CARTESIAN_POINT ( 'NONE',  ( 15.92046792891056306, 7.824532305630403251, 14.00000000000000000 ) ) ;
#238 = ORIENTED_EDGE ( 'NONE', *, *, #6, .T. ) ;
#239 = CARTESIAN_POINT ( 'NONE',  ( 10.00000000000000000, 0.000000000000000000, 14.00000000000000000 ) ) ;
#240 = VERTEX_POINT ( 'NONE', #145 ) ;
#241 = FACE_OUTER_BOUND ( 'NONE', #589, .T. ) ;
#242 = DIRECTION ( 'NONE',  ( -0.000000000000000000, 0.000000000000000000, 1.000000000000000000 ) ) ;
#243 = ORIENTED_EDGE ( 'NONE', *, *, #380, .F. ) ;
#244 = DIRECTION ( 'NONE',  ( 1.000000000000000000, 0.000000000000000000, 0.000000000000000000 ) ) ;
#245 = AXIS2_PLACEMENT_3D ( 'NONE', #337, #479, #4 ) ;
#246 = ORIENTED_EDGE ( 'NONE', *, *, #471, .F. ) ;
#247 = EDGE_CURVE ( 'NONE', #446, #269, #323, .T. ) ;
#248 = LINE ( 'NONE', #105, #250 ) ;
#249 = EDGE_LOOP ( 'NONE', ( #146, #283, #507, #334 ) ) ;
#250 = VECTOR ( 'NONE', #296, 1000.000000000000000 ) ;
#251 = EDGE_CURVE ( 'NONE', #484, #424, #226, .T. ) ;
#252 = PRODUCT_DEFINITION_CONTEXT ( 'detailed design', #130, 'design' ) ;
#253 = ORIENTED_EDGE ( 'NONE', *, *, #286, .F. ) ;
#254 = VECTOR ( 'NONE', #515, 1000.000000000000000 ) ;
#255 = LINE ( 'NONE', #345, #582 ) ;
#256 = ORIENTED_EDGE ( 'NONE', *, *, #471, .T. ) ;
#257 = VECTOR ( 'NONE', #494, 999.9999999999998863 ) ;
#258 = VECTOR ( 'NONE', #326, 1000.000000000000000 ) ;
#259 = DIRECTION ( 'NONE',  ( 0.4252396513879231343, -0.9050807913592452403, 0.000000000000000000 ) ) ;
#260 = ORIENTED_EDGE ( 'NONE', *, *, #9, .T. ) ;
#261 = SURFACE_STYLE_USAGE ( .BOTH. , #122 ) ;
#262 = ADVANCED_FACE ( 'NONE', ( #376 ), #89, .T. ) ;
#263 = CARTESIAN_POINT ( 'NONE',  ( 20.14678593994929301, 3.317688145789267740, 0.000000000000000000 ) ) ;
#264 = DIRECTION ( 'NONE',  ( 1.000000000000000000, 0.000000000000000000, 0.000000000000000000 ) ) ;
#265 = ORIENTED_EDGE ( 'NONE', *, *, #380, .T. ) ;
#266 = CYLINDRICAL_SURFACE ( 'NONE', #300, 10.00000000000000888 ) ;
#267 = VECTOR ( 'NONE', #531, 1000.000000000000000 ) ;
#268 = DIRECTION ( 'NONE',  ( 0.000000000000000000, 0.000000000000000000, 1.000000000000000000 ) ) ;
#269 = VERTEX_POINT ( 'NONE', #277 ) ;
#270 = DIRECTION ( 'NONE',  ( 1.000000000000000000, 0.000000000000000000, 0.000000000000000000 ) ) ;
#271 = EDGE_CURVE ( 'NONE', #484, #299, #329, .T. ) ;
#272 = DIRECTION ( 'NONE',  ( 0.8759240673720363191, -0.4824489902553721343, 0.000000000000000000 ) ) ;
#273 = ORIENTED_EDGE ( 'NONE', *, *, #405, .F. ) ;
#274 = LINE ( 'NONE', #71, #203 ) ;
#275 = CARTESIAN_POINT ( 'NONE',  ( -27.12004278841330418, -11.20791691574429549, -2.500000000071889161E-05 ) ) ;
#276 = ORIENTED_EDGE ( 'NONE', *, *, #381, .T. ) ;
#277 = CARTESIAN_POINT ( 'NONE',  ( -40.23607339671804795, 6.915025001785602754, 0.000000000000000000 ) ) ;
#278 = ORIENTED_EDGE ( 'NONE', *, *, #236, .F. ) ;
#279 = CARTESIAN_POINT ( 'NONE',  ( -40.23607339671804795, 6.915025001785599201, 0.000000000000000000 ) ) ;
#280 = ORIENTED_EDGE ( 'NONE', *, *, #184, .T. ) ;
#281 = AXIS2_PLACEMENT_3D ( 'NONE', #550, #211, #137 ) ;
#282 = DIRECTION ( 'NONE',  ( 0.8759240673720363191, -0.4824489902553721343, 0.000000000000000000 ) ) ;
#283 = ORIENTED_EDGE ( 'NONE', *, *, #509, .T. ) ;
#284 = AXIS2_PLACEMENT_3D ( 'NONE', #473, #107, #244 ) ;
#285 = ADVANCED_FACE ( 'NONE', ( #41 ), #84, .F. ) ;
#286 = EDGE_CURVE ( 'NONE', #521, #470, #453, .T. ) ;
#287 = DIRECTION ( 'NONE',  ( 0.000000000000000000, 0.000000000000000000, -1.000000000000000000 ) ) ;
#288 = SHAPE_DEFINITION_REPRESENTATION ( #155, #118 ) ;
#289 = VECTOR ( 'NONE', #78, 1000.000000000000000 ) ;
#290 = EDGE_CURVE ( 'NONE', #364, #414, #335, .T. ) ;
#291 = LINE ( 'NONE', #478, #328 ) ;
#292 = CARTESIAN_POINT ( 'NONE',  ( -28.14689389165026512, 23.12191783689885938, -2.500000000071889161E-05 ) ) ;
#293 = CYLINDRICAL_SURFACE ( 'NONE', #547, 5.000000000000000888 ) ;
#294 = VERTEX_POINT ( 'NONE', #181 ) ;
#295 = DIRECTION ( 'NONE',  ( 0.000000000000000000, 0.000000000000000000, -1.000000000000000000 ) ) ;
#296 = DIRECTION ( 'NONE',  ( -0.2857620079865713647, 0.9583006181733803031, 0.000000000000000000 ) ) ;
#297 = ORIENTED_EDGE ( 'NONE', *, *, #351, .F. ) ;
#298 = CARTESIAN_POINT ( 'NONE',  ( 0.2706903703485411539, -10.50191136645482004, -2.500000000071889161E-05 ) ) ;
#299 = VERTEX_POINT ( 'NONE', #81 ) ;
#300 = AXIS2_PLACEMENT_3D ( 'NONE', #74, #491, #22 ) ;
#301 = LINE ( 'NONE', #263, #368 ) ;
#302 = EDGE_LOOP ( 'NONE', ( #519, #8, #162, #600 ) ) ;
#303 = FACE_OUTER_BOUND ( 'NONE', #143, .T. ) ;
#304 = DIRECTION ( 'NONE',  ( 0.5292510076846899114, -0.8484653032768872949, 0.000000000000000000 ) ) ;
#305 = ORIENTED_EDGE ( 'NONE', *, *, #467, .T. ) ;
#306 = CARTESIAN_POINT ( 'NONE',  ( 23.06951289158157081, -2.903048828470844001, 14.00000000000000000 ) ) ;
#307 = CARTESIAN_POINT ( 'NONE',  ( -21.14081629843575527, 34.56372174877646586, -2.500000000071889161E-05 ) ) ;
#308 = VECTOR ( 'NONE', #394, 1000.000000000000000 ) ;
#309 = CARTESIAN_POINT ( 'NONE',  ( 0.000000000000000000, 0.000000000000000000, 0.000000000000000000 ) ) ;
#310 = DIRECTION ( 'NONE',  ( -0.2857620079865714202, 0.9583006181733803031, 0.000000000000000000 ) ) ;
#311 = CIRCLE ( 'NONE', #284, 3.100000000000000533 ) ;
#312 = CARTESIAN_POINT ( 'NONE',  ( 10.00000000000000000, 0.000000000000000000, 0.000000000000000000 ) ) ;
#313 = CARTESIAN_POINT ( 'NONE',  ( -21.99760005661956086, 24.60049327645322848, -2.500000000071889161E-05 ) ) ;
#314 = DIRECTION ( 'NONE',  ( -0.2857620079865714202, 0.9583006181733803031, -0.000000000000000000 ) ) ;
#315 = ORIENTED_EDGE ( 'NONE', *, *, #125, .T. ) ;
#316 = CARTESIAN_POINT ( 'NONE',  ( 10.00000000000000000, 0.000000000000000000, 14.00000000000000000 ) ) ;
#317 = EDGE_CURVE ( 'NONE', #294, #29, #48, .T. ) ;
#318 = DIRECTION ( 'NONE',  ( -0.000000000000000000, 0.000000000000000000, 1.000000000000000000 ) ) ;
#319 = DIRECTION ( 'NONE',  ( -0.000000000000000000, -0.000000000000000000, -1.000000000000000000 ) ) ;
#320 = VERTEX_POINT ( 'NONE', #367 ) ;
#321 =( NAMED_UNIT ( * ) PLANE_ANGLE_UNIT ( ) SI_UNIT ( $, .RADIAN. ) );
#322 = EDGE_CURVE ( 'NONE', #553, #505, #504, .T. ) ;
#323 = LINE ( 'NONE', #279, #518 ) ;
#324 = EDGE_LOOP ( 'NONE', ( #383, #62 ) ) ;
#325 = AXIS2_PLACEMENT_3D ( 'NONE', #402, #535, #174 ) ;
#326 = DIRECTION ( 'NONE',  ( -0.000000000000000000, -0.000000000000000000, -1.000000000000000000 ) ) ;
#327 = ORIENTED_EDGE ( 'NONE', *, *, #40, .T. ) ;
#328 = VECTOR ( 'NONE', #566, 1000.000000000000000 ) ;
#329 = LINE ( 'NONE', #96, #151 ) ;
#330 = ORIENTED_EDGE ( 'NONE', *, *, #147, .T. ) ;
#331 = PRODUCT_DEFINITION ( 'æ™', '', #514, #252 ) ;
#332 =( GEOMETRIC_REPRESENTATION_CONTEXT ( 3 ) GLOBAL_UNCERTAINTY_ASSIGNED_CONTEXT ( ( #60 ) ) GLOBAL_UNIT_ASSIGNED_CONTEXT ( ( #399, #172, #124 ) ) REPRESENTATION_CONTEXT ( 'NONE', 'WORKASPACE' ) );
#333 = FACE_OUTER_BOUND ( 'NONE', #302, .T. ) ;
#334 = ORIENTED_EDGE ( 'NONE', *, *, #574, .T. ) ;
#335 = CIRCLE ( 'NONE', #160, 9.999999999999998224 ) ;
#336 = DIRECTION ( 'NONE',  ( 0.000000000000000000, 0.000000000000000000, -1.000000000000000000 ) ) ;
#337 = CARTESIAN_POINT ( 'NONE',  ( -30.65306721498424380, 9.772645081651313959, 14.00000000000000000 ) ) ;
#338 = AXIS2_PLACEMENT_3D ( 'NONE', #309, #75, #598 ) ;
#339 = LINE ( 'NONE', #110, #218 ) ;
#340 = EDGE_LOOP ( 'NONE', ( #420, #379, #474, #452 ) ) ;
#341 = DIRECTION ( 'NONE',  ( 1.000000000000000000, 0.000000000000000000, 0.000000000000000000 ) ) ;
#342 = LINE ( 'NONE', #292, #267 ) ;
#343 = ADVANCED_FACE ( 'NONE', ( #38 ), #419, .T. ) ;
#344 = AXIS2_PLACEMENT_3D ( 'NONE', #165, #177, #73 ) ;
#345 = CARTESIAN_POINT ( 'NONE',  ( -18.26705459455866887, 29.28470950740530299, 0.000000000000000000 ) ) ;
#346 = CARTESIAN_POINT ( 'NONE',  ( 10.00000000000000000, 0.000000000000000000, 14.00000000000000000 ) ) ;
#347 = ORIENTED_EDGE ( 'NONE', *, *, #247, .F. ) ;
#348 = DIRECTION ( 'NONE',  ( -0.000000000000000000, -0.000000000000000000, -1.000000000000000000 ) ) ;
#349 = EDGE_CURVE ( 'NONE', #565, #194, #142, .T. ) ;
#350 = CARTESIAN_POINT ( 'NONE',  ( 13.10000000000000142, 3.796405077356795411E-16, 14.00000000000000000 ) ) ;
#351 = EDGE_CURVE ( 'NONE', #150, #505, #373, .T. ) ;
#352 = CIRCLE ( 'NONE', #245, 10.00000000000000178 ) ;
#353 = FACE_OUTER_BOUND ( 'NONE', #235, .T. ) ;
#354 = ORIENTED_EDGE ( 'NONE', *, *, #31, .T. ) ;
#355 = CARTESIAN_POINT ( 'NONE',  ( -6.899999999999999467, 3.796405077356795411E-16, 14.00000000000000000 ) ) ;
#356 = DIRECTION ( 'NONE',  ( -0.000000000000000000, 0.000000000000000000, 1.000000000000000000 ) ) ;
#357 = ADVANCED_FACE ( 'NONE', ( #55 ), #293, .T. ) ;
#358 = AXIS2_PLACEMENT_3D ( 'NONE', #239, #520, #341 ) ;
#359 = DIRECTION ( 'NONE',  ( 1.000000000000000000, 0.000000000000000000, 0.000000000000000000 ) ) ;
#360 = AXIS2_PLACEMENT_3D ( 'NONE', #179, #499, #541 ) ;
#361 = FACE_BOUND ( 'NONE', #602, .T. ) ;
#362 = VECTOR ( 'NONE', #371, 1000.000000000000000 ) ;
#363 = LINE ( 'NONE', #469, #258 ) ;
#364 = VERTEX_POINT ( 'NONE', #612 ) ;
#365 = FACE_OUTER_BOUND ( 'NONE', #223, .T. ) ;
#366 = EDGE_CURVE ( 'NONE', #97, #502, #311, .T. ) ;
#367 = CARTESIAN_POINT ( 'NONE',  ( -19.37653012144586029, 24.72058737573845733, 0.000000000000000000 ) ) ;
#368 = VECTOR ( 'NONE', #76, 1000.000000000000000 ) ;
#369 = CIRCLE ( 'NONE', #18, 3.100000000000000533 ) ;
#370 = ORIENTED_EDGE ( 'NONE', *, *, #381, .F. ) ;
#371 = DIRECTION ( 'NONE',  ( 0.000000000000000000, -0.000000000000000000, 1.000000000000000000 ) ) ;
#372 = EDGE_LOOP ( 'NONE', ( #430, #490, #121, #557 ) ) ;
#373 = LINE ( 'NONE', #558, #472 ) ;
#374 = EDGE_LOOP ( 'NONE', ( #210, #510, #276, #256, #387, #578, #100, #482, #43, #21, #563, #440 ) ) ;
#375 = CLOSED_SHELL ( 'NONE', ( #285, #378, #528, #480, #592, #597, #390, #111, #512, #44, #539, #91, #36, #492, #262, #517, #357, #343 ) ) ;
#376 = FACE_OUTER_BOUND ( 'NONE', #372, .T. ) ;
#377 = ORIENTED_EDGE ( 'NONE', *, *, #5, .T. ) ;
#378 = ADVANCED_FACE ( 'NONE', ( #333 ), #524, .F. ) ;
#379 = ORIENTED_EDGE ( 'NONE', *, *, #608, .T. ) ;
#380 = EDGE_CURVE ( 'NONE', #424, #414, #15, .T. ) ;
#381 = EDGE_CURVE ( 'NONE', #521, #269, #248, .T. ) ;
#382 = DIRECTION ( 'NONE',  ( 0.4252396513879231343, -0.9050807913592452403, 0.000000000000000000 ) ) ;
#383 = ORIENTED_EDGE ( 'NONE', *, *, #529, .T. ) ;
#384 = CARTESIAN_POINT ( 'NONE',  ( -22.85438381480337000, 14.63726480412998399, 14.00000000000000000 ) ) ;
#385 = ORIENTED_EDGE ( 'NONE', *, *, #322, .T. ) ;
#386 = ORIENTED_EDGE ( 'NONE', *, *, #117, .F. ) ;
#387 = ORIENTED_EDGE ( 'NONE', *, *, #26, .T. ) ;
#388 = DIRECTION ( 'NONE',  ( -0.02576678536245478532, 0.9996679812678234134, 0.000000000000000000 ) ) ;
#389 = CARTESIAN_POINT ( 'NONE',  ( 18.67294286159761896, -10.02758699174957435, 14.00000000000000000 ) ) ;
#390 = ADVANCED_FACE ( 'NONE', ( #241 ), #61, .F. ) ;
#391 = DIRECTION ( 'NONE',  ( 0.8759240673720363191, -0.4824489902553721343, 0.000000000000000000 ) ) ;
#392 = PLANE ( 'NONE',  #42 ) ;
#393 = EDGE_CURVE ( 'NONE', #424, #191, #429, .T. ) ;
#394 = DIRECTION ( 'NONE',  ( -0.000000000000000000, -0.000000000000000000, -1.000000000000000000 ) ) ;
#395 = DIRECTION ( 'NONE',  ( 0.000000000000000000, -0.000000000000000000, -1.000000000000000000 ) ) ;
#396 = ORIENTED_EDGE ( 'NONE', *, *, #50, .T. ) ;
#397 = CARTESIAN_POINT ( 'NONE',  ( -10.00000000000000000, 0.000000000000000000, 0.000000000000000000 ) ) ;
#398 = CARTESIAN_POINT ( 'NONE',  ( -28.14689389165026512, 23.12191783689885938, -2.499999999999999357E-06 ) ) ;
#399 =( LENGTH_UNIT ( ) NAMED_UNIT ( * ) SI_UNIT ( .MILLI., .METRE. ) );
#400 = CARTESIAN_POINT ( 'NONE',  ( -36.96071682377166212, -4.068857182931775007, 14.00000000000000000 ) ) ;
#401 = CIRCLE ( 'NONE', #325, 10.00000000000000000 ) ;
#402 = CARTESIAN_POINT ( 'NONE',  ( 11.09597802635684083, -0.9347083680899632707, 14.00000000000000000 ) ) ;
#403 = ORIENTED_EDGE ( 'NONE', *, *, #236, .T. ) ;
#404 = CARTESIAN_POINT ( 'NONE',  ( -35.94557729183114247, 18.25729811442018757, -2.500000000071889161E-05 ) ) ;
#405 = EDGE_CURVE ( 'NONE', #433, #58, #233, .T. ) ;
#406 = CARTESIAN_POINT ( 'NONE',  ( 18.67294286159761896, -10.02758699174957613, -2.500000000071889161E-05 ) ) ;
#407 = PLANE ( 'NONE',  #544 ) ;
#408 = CARTESIAN_POINT ( 'NONE',  ( -21.14081629843575527, 34.56372174877646586, 14.00000000000000000 ) ) ;
#409 = VECTOR ( 'NONE', #356, 1000.000000000000000 ) ;
#410 = SURFACE_STYLE_FILL_AREA ( #224 ) ;
#411 = VECTOR ( 'NONE', #459, 1000.000000000000000 ) ;
#412 = APPLICATION_CONTEXT ( 'automotive_design' ) ;
#413 = CARTESIAN_POINT ( 'NONE',  ( 10.00000000000000000, 0.000000000000000000, 14.00000000000000000 ) ) ;
#414 = VERTEX_POINT ( 'NONE', #564 ) ;
#415 = DIRECTION ( 'NONE',  ( 0.000000000000000000, 0.000000000000000000, 1.000000000000000000 ) ) ;
#416 = ORIENTED_EDGE ( 'NONE', *, *, #317, .F. ) ;
#417 = AXIS2_PLACEMENT_3D ( 'NONE', #205, #584, #576 ) ;
#418 = EDGE_CURVE ( 'NONE', #364, #194, #126, .T. ) ;
#419 = CYLINDRICAL_SURFACE ( 'NONE', #572, 10.00000000000000178 ) ;
#420 = ORIENTED_EDGE ( 'NONE', *, *, #26, .F. ) ;
#421 = DIRECTION ( 'NONE',  ( 1.000000000000000000, 0.000000000000000000, 0.000000000000000000 ) ) ;
#422 = AXIS2_PLACEMENT_3D ( 'NONE', #413, #319, #552 ) ;
#423 = DIRECTION ( 'NONE',  ( 1.000000000000000000, 0.000000000000000000, 0.000000000000000000 ) ) ;
#424 = VERTEX_POINT ( 'NONE', #425 ) ;
#425 = CARTESIAN_POINT ( 'NONE',  ( -12.78775404190224307, 23.63669367642081198, 14.00000000000000000 ) ) ;
#426 = ORIENTED_EDGE ( 'NONE', *, *, #193, .T. ) ;
#427 = DIRECTION ( 'NONE',  ( -0.9050807913592452403, -0.4252396513879231343, 0.000000000000000000 ) ) ;
#428 = VERTEX_POINT ( 'NONE', #153 ) ;
#429 = LINE ( 'NONE', #571, #10 ) ;
#430 = ORIENTED_EDGE ( 'NONE', *, *, #87, .F. ) ;
#431 = AXIS2_PLACEMENT_3D ( 'NONE', #54, #242, #2 ) ;
#432 = EDGE_CURVE ( 'NONE', #191, #299, #291, .T. ) ;
#433 = VERTEX_POINT ( 'NONE', #439 ) ;
#434 = DIRECTION ( 'NONE',  ( -0.000000000000000000, -0.000000000000000000, -1.000000000000000000 ) ) ;
#435 = AXIS2_PLACEMENT_3D ( 'NONE', #3, #427, #382 ) ;
#436 = ORIENTED_EDGE ( 'NONE', *, *, #125, .F. ) ;
#437 = FACE_OUTER_BOUND ( 'NONE', #457, .T. ) ;
#438 = STYLED_ITEM ( 'NONE', ( #25 ), #606 ) ;
#439 = CARTESIAN_POINT ( 'NONE',  ( 6.899999999999999467, 0.000000000000000000, 14.00000000000000000 ) ) ;
#440 = ORIENTED_EDGE ( 'NONE', *, *, #56, .T. ) ;
#441 = VECTOR ( 'NONE', #314, 1000.000000000000000 ) ;
#442 = FACE_OUTER_BOUND ( 'NONE', #340, .T. ) ;
#443 = ORIENTED_EDGE ( 'NONE', *, *, #574, .F. ) ;
#444 = CIRCLE ( 'NONE', #523, 3.100000000000000533 ) ;
#445 = CARTESIAN_POINT ( 'NONE',  ( -35.94557729183114958, 18.25729811442018402, 0.000000000000000000 ) ) ;
#446 = VERTEX_POINT ( 'NONE', #447 ) ;
#447 = CARTESIAN_POINT ( 'NONE',  ( -40.23607339671804795, 6.915025001785604530, 14.00000000000000000 ) ) ;
#448 = PLANE ( 'NONE',  #551 ) ;
#449 = CARTESIAN_POINT ( 'NONE',  ( -17.61224394445596531, 14.87745300270044702, -2.500000000071889161E-05 ) ) ;
#450 = EDGE_CURVE ( 'NONE', #320, #484, #587, .T. ) ;
#451 = DIRECTION ( 'NONE',  ( 0.000000000000000000, 0.000000000000000000, 1.000000000000000000 ) ) ;
#452 = ORIENTED_EDGE ( 'NONE', *, *, #5, .F. ) ;
#453 = LINE ( 'NONE', #222, #362 ) ;
#454 = DIRECTION ( 'NONE',  ( -0.000000000000000000, -0.000000000000000000, 1.000000000000000000 ) ) ;
#455 = DIRECTION ( 'NONE',  ( 0.000000000000000000, 0.000000000000000000, 1.000000000000000000 ) ) ;
#456 = CIRCLE ( 'NONE', #225, 3.100000000000000533 ) ;
#457 = EDGE_LOOP ( 'NONE', ( #39, #385, #297, #220 ) ) ;
#458 = DIRECTION ( 'NONE',  ( -0.000000000000000000, 0.000000000000000000, 1.000000000000000000 ) ) ;
#459 = DIRECTION ( 'NONE',  ( -0.000000000000000000, -0.000000000000000000, -1.000000000000000000 ) ) ;
#460 = ORIENTED_EDGE ( 'NONE', *, *, #109, .T. ) ;
#461 = EDGE_CURVE ( 'NONE', #58, #11, #113, .T. ) ;
#462 = CARTESIAN_POINT ( 'NONE',  ( -30.65306721498424380, 9.772645081651313959, -2.500000000071889161E-05 ) ) ;
#463 = DIRECTION ( 'NONE',  ( 1.000000000000000000, 0.000000000000000000, 0.000000000000000000 ) ) ;
#464 = ORIENTED_EDGE ( 'NONE', *, *, #193, .F. ) ;
#465 = CIRCLE ( 'NONE', #202, 3.100000000000000533 ) ;
#466 = CARTESIAN_POINT ( 'NONE',  ( -12.78775404190224307, 23.63669367642081198, 0.000000000000000000 ) ) ;
#467 = EDGE_CURVE ( 'NONE', #29, #294, #465, .T. ) ;
#468 =( GEOMETRIC_REPRESENTATION_CONTEXT ( 3 ) GLOBAL_UNCERTAINTY_ASSIGNED_CONTEXT ( ( #152 ) ) GLOBAL_UNIT_ASSIGNED_CONTEXT ( ( #196, #321, #228 ) ) REPRESENTATION_CONTEXT ( 'NONE', 'WORKASPACE' ) );
#469 = CARTESIAN_POINT ( 'NONE',  ( -6.899999999999999467, 3.796405077356795411E-16, 14.00000000000000000 ) ) ;
#470 = VERTEX_POINT ( 'NONE', #400 ) ;
#471 = EDGE_CURVE ( 'NONE', #269, #116, #93, .T. ) ;
#472 = VECTOR ( 'NONE', #98, 999.9999999999998863 ) ;
#473 = CARTESIAN_POINT ( 'NONE',  ( -10.00000000000000000, 0.000000000000000000, 0.000000000000000000 ) ) ;
#474 = ORIENTED_EDGE ( 'NONE', *, *, #349, .T. ) ;
#475 = VERTEX_POINT ( 'NONE', #389 ) ;
#476 = VECTOR ( 'NONE', #167, 1000.000000000000000 ) ;
#477 = VECTOR ( 'NONE', #259, 1000.000000000000000 ) ;
#478 = CARTESIAN_POINT ( 'NONE',  ( 15.92046792891056306, 7.824532305630401474, -2.500000000071889161E-05 ) ) ;
#479 = DIRECTION ( 'NONE',  ( -0.000000000000000000, 0.000000000000000000, 1.000000000000000000 ) ) ;
#480 = ADVANCED_FACE ( 'NONE', ( #119, #488, #173 ), #127, .F. ) ;
#481 = ORIENTED_EDGE ( 'NONE', *, *, #9, .F. ) ;
#482 = ORIENTED_EDGE ( 'NONE', *, *, #450, .T. ) ;
#483 = EDGE_CURVE ( 'NONE', #186, #37, #542, .T. ) ;
#484 = VERTEX_POINT ( 'NONE', #466 ) ;
#485 = COLOUR_RGB ( '',0.7921568627450980005, 0.8196078431372548767, 0.9333333333333333481 ) ;
#486 = CYLINDRICAL_SURFACE ( 'NONE', #53, 9.999999999999998224 ) ;
#487 = ORIENTED_EDGE ( 'NONE', *, *, #6, .F. ) ;
#488 = FACE_BOUND ( 'NONE', #527, .T. ) ;
#489 = CARTESIAN_POINT ( 'NONE',  ( 11.09597802635684083, -0.9347083680899632707, 0.000000000000000000 ) ) ;
#490 = ORIENTED_EDGE ( 'NONE', *, *, #432, .F. ) ;
#491 = DIRECTION ( 'NONE',  ( -0.000000000000000000, -0.000000000000000000, 1.000000000000000000 ) ) ;
#492 = ADVANCED_FACE ( 'NONE', ( #88 ), #591, .T. ) ;
#493 = AXIS2_PLACEMENT_3D ( 'NONE', #569, #526, #1 ) ;
#494 = DIRECTION ( 'NONE',  ( -0.9996679812678234134, -0.02576678536245478532, 0.000000000000000000 ) ) ;
#495 = CARTESIAN_POINT ( 'NONE',  ( 0.000000000000000000, 0.000000000000000000, 14.00000000000000000 ) ) ;
#496 = DIRECTION ( 'NONE',  ( 1.000000000000000000, 0.000000000000000000, 0.000000000000000000 ) ) ;
#497 = CARTESIAN_POINT ( 'NONE',  ( -27.12004278841330418, -11.20791691574429372, 0.000000000000000000 ) ) ;
#498 = LINE ( 'NONE', #212, #289 ) ;
#499 = DIRECTION ( 'NONE',  ( -0.000000000000000000, 0.000000000000000000, 1.000000000000000000 ) ) ;
#500 = CIRCLE ( 'NONE', #207, 3.100000000000000533 ) ;
#501 = DIRECTION ( 'NONE',  ( -0.000000000000000000, 0.000000000000000000, 1.000000000000000000 ) ) ;
#502 = VERTEX_POINT ( 'NONE', #134 ) ;
#503 = DIRECTION ( 'NONE',  ( 0.4252396513879230788, -0.9050807913592452403, 0.000000000000000000 ) ) ;
#504 = LINE ( 'NONE', #275, #411 ) ;
#505 = VERTEX_POINT ( 'NONE', #497 ) ;
#506 = DIRECTION ( 'NONE',  ( 0.000000000000000000, 0.000000000000000000, 1.000000000000000000 ) ) ;
#507 = ORIENTED_EDGE ( 'NONE', *, *, #556, .F. ) ;
#508 = DIRECTION ( 'NONE',  ( 0.000000000000000000, -0.000000000000000000, -1.000000000000000000 ) ) ;
#509 = EDGE_CURVE ( 'NONE', #414, #320, #45, .T. ) ;
#510 = ORIENTED_EDGE ( 'NONE', *, *, #190, .T. ) ;
#511 = APPLICATION_PROTOCOL_DEFINITION ( 'draft international standard', 'automotive_design', 1998, #412 ) ;
#512 = ADVANCED_FACE ( 'NONE', ( #437 ), #392, .F. ) ;
#513 = VECTOR ( 'NONE', #295, 1000.000000000000000 ) ;
#514 = PRODUCT_DEFINITION_FORMATION_WITH_SPECIFIED_SOURCE ( 'å¯', '', #101, .NOT_KNOWN. ) ;
#515 = DIRECTION ( 'NONE',  ( 0.000000000000000000, 0.000000000000000000, 1.000000000000000000 ) ) ;
#516 = ORIENTED_EDGE ( 'NONE', *, *, #418, .T. ) ;
#517 = ADVANCED_FACE ( 'NONE', ( #303 ), #166, .T. ) ;
#518 = VECTOR ( 'NONE', #230, 1000.000000000000000 ) ;
#519 = ORIENTED_EDGE ( 'NONE', *, *, #317, .T. ) ;
#520 = DIRECTION ( 'NONE',  ( 0.000000000000000000, 0.000000000000000000, 1.000000000000000000 ) ) ;
#521 = VERTEX_POINT ( 'NONE', #30 ) ;
#522 = CIRCLE ( 'NONE', #138, 10.00000000000000000 ) ;
#523 = AXIS2_PLACEMENT_3D ( 'NONE', #346, #451, #264 ) ;
#524 = CYLINDRICAL_SURFACE ( 'NONE', #132, 3.100000000000000533 ) ;
#525 = ORIENTED_EDGE ( 'NONE', *, *, #393, .F. ) ;
#526 = DIRECTION ( 'NONE',  ( -0.000000000000000000, 0.000000000000000000, 1.000000000000000000 ) ) ;
#527 = EDGE_LOOP ( 'NONE', ( #460, #426 ) ) ;
#528 = ADVANCED_FACE ( 'NONE', ( #365, #361, #595 ), #407, .T. ) ;
#529 = EDGE_CURVE ( 'NONE', #502, #97, #456, .T. ) ;
#530 = DIRECTION ( 'NONE',  ( 1.000000000000000000, 0.000000000000000000, 0.000000000000000000 ) ) ;
#531 = DIRECTION ( 'NONE',  ( -0.000000000000000000, -0.000000000000000000, 1.000000000000000000 ) ) ;
#532 = CIRCLE ( 'NONE', #164, 5.000000000000000888 ) ;
#533 = DIRECTION ( 'NONE',  ( 0.8484653032768871839, 0.5292510076846898004, 0.000000000000000000 ) ) ;
#534 = ORIENTED_EDGE ( 'NONE', *, *, #608, .F. ) ;
#535 = DIRECTION ( 'NONE',  ( -0.000000000000000000, 0.000000000000000000, 1.000000000000000000 ) ) ;
#536 = EDGE_LOOP ( 'NONE', ( #159, #231, #136, #487 ) ) ;
#537 = DIRECTION ( 'NONE',  ( -1.000000000000000000, 0.000000000000000000, 0.000000000000000000 ) ) ;
#538 = CARTESIAN_POINT ( 'NONE',  ( -35.05674734574979112, -10.45380366559137642, 0.000000000000000000 ) ) ;
#539 = ADVANCED_FACE ( 'NONE', ( #546 ), #266, .T. ) ;
#540 = EDGE_LOOP ( 'NONE', ( #246, #347, #594, #534 ) ) ;
#541 = DIRECTION ( 'NONE',  ( 1.000000000000000000, 0.000000000000000000, 0.000000000000000000 ) ) ;
#542 = CIRCLE ( 'NONE', #72, 10.00000000000000888 ) ;
#543 = CARTESIAN_POINT ( 'NONE',  ( -18.26705459455866887, 29.28470950740530299, -2.500000000071889161E-05 ) ) ;
#544 = AXIS2_PLACEMENT_3D ( 'NONE', #495, #458, #221 ) ;
#545 = CARTESIAN_POINT ( 'NONE',  ( 20.14678593994929656, 3.317688145789266851, 0.000000000000000000 ) ) ;
#546 = FACE_OUTER_BOUND ( 'NONE', #85, .T. ) ;
#547 = AXIS2_PLACEMENT_3D ( 'NONE', #562, #336, #156 ) ;
#548 = CARTESIAN_POINT ( 'NONE',  ( -27.37771064203785443, -1.211237103066062248, 0.000000000000000000 ) ) ;
#549 = VERTEX_POINT ( 'NONE', #306 ) ;
#550 = CARTESIAN_POINT ( 'NONE',  ( -10.00000000000000000, 0.000000000000000000, 14.00000000000000000 ) ) ;
#551 = AXIS2_PLACEMENT_3D ( 'NONE', #538, #128, #310 ) ;
#552 = DIRECTION ( 'NONE',  ( -1.000000000000000000, 0.000000000000000000, 0.000000000000000000 ) ) ;
#553 = VERTEX_POINT ( 'NONE', #590 ) ;
#554 = APPLICATION_PROTOCOL_DEFINITION ( 'draft international standard', 'automotive_design', 1998, #130 ) ;
#555 = DIRECTION ( 'NONE',  ( 1.000000000000000000, 0.000000000000000000, 0.000000000000000000 ) ) ;
#556 = EDGE_CURVE ( 'NONE', #186, #320, #197, .T. ) ;
#557 = ORIENTED_EDGE ( 'NONE', *, *, #50, .F. ) ;
#558 = CARTESIAN_POINT ( 'NONE',  ( 0.2706903703485410984, -10.50191136645481826, 0.000000000000000000 ) ) ;
#559 = EDGE_LOOP ( 'NONE', ( #141, #47, #573, #57 ) ) ;
#560 = CARTESIAN_POINT ( 'NONE',  ( 11.09597802635684083, -0.9347083680899632707, 0.000000000000000000 ) ) ;
#561 = ORIENTED_EDGE ( 'NONE', *, *, #49, .F. ) ;
#562 = CARTESIAN_POINT ( 'NONE',  ( 18.54410893478534206, -5.029247085410459839, 0.000000000000000000 ) ) ;
#563 = ORIENTED_EDGE ( 'NONE', *, *, #583, .T. ) ;
#564 = CARTESIAN_POINT ( 'NONE',  ( -19.37653012144586029, 24.72058737573845733, 14.00000000000000000 ) ) ;
#565 = VERTEX_POINT ( 'NONE', #183 ) ;
#566 = DIRECTION ( 'NONE',  ( -0.000000000000000000, -0.000000000000000000, -1.000000000000000000 ) ) ;
#567 = ORIENTED_EDGE ( 'NONE', *, *, #286, .T. ) ;
#568 = AXIS2_PLACEMENT_3D ( 'NONE', #64, #27, #580 ) ;
#569 = CARTESIAN_POINT ( 'NONE',  ( -17.61224394445596531, 14.87745300270044702, 14.00000000000000000 ) ) ;
#570 = ORIENTED_EDGE ( 'NONE', *, *, #290, .F. ) ;
#571 = CARTESIAN_POINT ( 'NONE',  ( 7.012159595743891138, 12.73112697554754646, 14.00000000000000000 ) ) ;
#572 = AXIS2_PLACEMENT_3D ( 'NONE', #601, #187, #555 ) ;
#573 = ORIENTED_EDGE ( 'NONE', *, *, #109, .F. ) ;
#574 = EDGE_CURVE ( 'NONE', #186, #364, #169, .T. ) ;
#575 = LINE ( 'NONE', #406, #476 ) ;
#576 = DIRECTION ( 'NONE',  ( 1.000000000000000000, 2.602085213965210247E-15, 0.000000000000000000 ) ) ;
#577 = DIRECTION ( 'NONE',  ( -0.4824489902553721898, -0.8759240673720364301, 0.000000000000000000 ) ) ;
#578 = ORIENTED_EDGE ( 'NONE', *, *, #483, .F. ) ;
#579 = DIRECTION ( 'NONE',  ( 0.000000000000000000, 0.000000000000000000, 1.000000000000000000 ) ) ;
#580 = DIRECTION ( 'NONE',  ( 1.000000000000000000, 5.377642775528101993E-15, 0.000000000000000000 ) ) ;
#581 = CARTESIAN_POINT ( 'NONE',  ( 0.2706903703485410984, -10.50191136645481826, 14.00000000000000000 ) ) ;
#582 = VECTOR ( 'NONE', #533, 1000.000000000000227 ) ;
#583 = EDGE_CURVE ( 'NONE', #108, #428, #274, .T. ) ;
#584 = DIRECTION ( 'NONE',  ( 0.000000000000000000, -0.000000000000000000, -1.000000000000000000 ) ) ;
#585 = DIRECTION ( 'NONE',  ( 0.8484653032768871839, 0.5292510076846898004, 0.000000000000000000 ) ) ;
#586 = DIRECTION ( 'NONE',  ( -0.000000000000000000, -0.000000000000000000, 1.000000000000000000 ) ) ;
#587 = CIRCLE ( 'NONE', #568, 10.00000000000000000 ) ;
#588 = FACE_OUTER_BOUND ( 'NONE', #104, .T. ) ;
#589 = EDGE_LOOP ( 'NONE', ( #315, #238, #149, #396 ) ) ;
#590 = CARTESIAN_POINT ( 'NONE',  ( -27.12004278841330418, -11.20791691574429372, 14.00000000000000000 ) ) ;
#591 = CYLINDRICAL_SURFACE ( 'NONE', #176, 10.00000000000000178 ) ;
#592 = ADVANCED_FACE ( 'NONE', ( #175 ), #133, .F. ) ;
#593 = DIRECTION ( 'NONE',  ( 1.000000000000000000, 0.000000000000000000, 0.000000000000000000 ) ) ;
#594 = ORIENTED_EDGE ( 'NONE', *, *, #14, .F. ) ;
#595 = FACE_BOUND ( 'NONE', #168, .T. ) ;
#596 = AXIS2_PLACEMENT_3D ( 'NONE', #560, #415, #135 ) ;
#597 = ADVANCED_FACE ( 'NONE', ( #214 ), #129, .F. ) ;
#598 = DIRECTION ( 'NONE',  ( 1.000000000000000000, 0.000000000000000000, 0.000000000000000000 ) ) ;
#599 = CARTESIAN_POINT ( 'NONE',  ( -10.00000000000000000, 0.000000000000000000, 14.00000000000000000 ) ) ;
#600 = ORIENTED_EDGE ( 'NONE', *, *, #184, .F. ) ;
#601 = CARTESIAN_POINT ( 'NONE',  ( -27.37771064203785443, -1.211237103066062248, 0.000000000000000000 ) ) ;
#602 = EDGE_LOOP ( 'NONE', ( #416, #178 ) ) ;
#603 = DIRECTION ( 'NONE',  ( 1.000000000000000000, 0.000000000000000000, 0.000000000000000000 ) ) ;
#604 = CARTESIAN_POINT ( 'NONE',  ( -18.26705459455866887, 29.28470950740530299, 14.00000000000000000 ) ) ;
#605 = ORIENTED_EDGE ( 'NONE', *, *, #450, .F. ) ;
#606 = MANIFOLD_SOLID_BREP ( '\X2\570689d2\X0\3', #375 ) ;
#607 = CARTESIAN_POINT ( 'NONE',  ( -19.37653012144586029, 24.72058737573845377, -2.500000000071889161E-05 ) ) ;
#608 = EDGE_CURVE ( 'NONE', #116, #565, #217, .T. ) ;
#609 = CARTESIAN_POINT ( 'NONE',  ( 10.00000000000000000, 0.000000000000000000, 0.000000000000000000 ) ) ;
#610 = CIRCLE ( 'NONE', #431, 10.00000000000000178 ) ;
#611 = ORIENTED_EDGE ( 'NONE', *, *, #322, .F. ) ;
#612 = CARTESIAN_POINT ( 'NONE',  ( -21.99760005661956086, 24.60049327645322848, 14.00000000000000000 ) ) ;
#613 = EDGE_LOOP ( 'NONE', ( #154, #201, #330, #464 ) ) ;
ENDSEC;
END-ISO-10303-21;
