ISO-10303-21;
HEADER;
FILE_DESCRIPTION (( 'STEP AP214' ),
    '1' );
FILE_NAME ('ÂÖÍÈ¼õËÙÏä×Ü×°A.STEP',
    '2026-08-16T17:27:00',
    ( '' ),
    ( '' ),
    'SwSTEP 2.0',
    'SolidWorks 2025',
    '' );
FILE_SCHEMA (( 'AUTOMOTIVE_DESIGN' ));
ENDSEC;

DATA;
#1 = AXIS2_PLACEMENT_3D ( 'NONE', #52, #297, #231 ) ;
#2 =( NAMED_UNIT ( * ) PLANE_ANGLE_UNIT ( ) SI_UNIT ( $, .RADIAN. ) );
#3 = APPLICATION_PROTOCOL_DEFINITION ( 'draft international standard', 'automotive_design', 1998, #270 ) ;
#4 =( REPRESENTATION_RELATIONSHIP ('NONE','NONE', #677, #106 ) REPRESENTATION_RELATIONSHIP_WITH_TRANSFORMATION ( #789 )SHAPE_REPRESENTATION_RELATIONSHIP( ) );
#5 =( REPRESENTATION_RELATIONSHIP ('NONE','NONE', #677, #106 ) REPRESENTATION_RELATIONSHIP_WITH_TRANSFORMATION ( #843 )SHAPE_REPRESENTATION_RELATIONSHIP( ) );
#6 = PRODUCT_RELATED_PRODUCT_CATEGORY ( 'part', '', ( #812 ) ) ;
#7 = CONTEXT_DEPENDENT_SHAPE_REPRESENTATION ( #609, #1061 ) ;
#8 = PRODUCT_DEFINITION_FORMATION_WITH_SPECIFIED_SOURCE ( 'å¯', '', #915, .NOT_KNOWN. ) ;
#9 = EXTERNAL_SOURCE (IDENTIFIER('') ) ;
#10 = UNCERTAINTY_MEASURE_WITH_UNIT (LENGTH_MEASURE( 1.000000000000000082E-05 ), #838, 'distance_accuracy_value', 'NONE');
#11 = IDENTIFICATION_ROLE ( 'external document id and location', $) ;
#12 =( NAMED_UNIT ( * ) SI_UNIT ( $, .STERADIAN. ) SOLID_ANGLE_UNIT ( ) );
#13 = DOCUMENT_FILE ( '\X2\4fdd630167b6\X0\W3A.STEP' , '', '', #692, '' ,$ ) ;
#14 = PRODUCT_CONTEXT ( 'NONE', #220, 'mechanical' ) ;
#15 = OBJECT_ROLE ('mandatory',$ ) ;
#16 = IDENTIFICATION_ROLE ( 'external document id and location', $) ;
#17 = PRODUCT_CONTEXT ( 'NONE', #503, 'mechanical' ) ;
#18 = PRODUCT_DEFINITION_CONTEXT ( 'detailed design', #678, 'design' ) ;
#19 = PROPERTY_DEFINITION ('document property','', #577 ) ;
#20 =( NAMED_UNIT ( * ) SI_UNIT ( $, .STERADIAN. ) SOLID_ANGLE_UNIT ( ) );
#21 = ROLE_ASSOCIATION ( #1043, #508 ) ;
#22 = DIRECTION ( 'NONE',  ( 1.000000000000000000, 0.000000000000000000, 0.000000000000000000 ) ) ;
#23 = IDENTIFICATION_ROLE ( 'external document id and location', $) ;
#24 = PRODUCT_DEFINITION_SHAPE ( 'NONE', 'NONE',  #1106 ) ;
#25 = PROPERTY_DEFINITION_REPRESENTATION ( #86, #377 ) ;
#26 = APPLIED_DOCUMENT_REFERENCE ( #891,'',( #660) ) ;
#27 = AXIS2_PLACEMENT_3D ( 'NONE', #184, #704, #636 ) ;
#28 = ITEM_DEFINED_TRANSFORMATION ( 'NONE', 'NONE', #883,  #1041 ) ;
#29 = PRODUCT_DEFINITION ( 'æ™', '', #135, #318 ) ;
#30 = DIRECTION ( 'NONE',  ( 0.000000000000000000, 0.000000000000000000, 1.000000000000000000 ) ) ;
#31 = APPLIED_DOCUMENT_REFERENCE ( #885,'',( #223) ) ;
#32 = CARTESIAN_POINT ( 'NONE',  ( 1252.205142319914330, 762.1043095618680354, -89.88211720333691801 ) ) ;
#33 =( REPRESENTATION_RELATIONSHIP ('NONE','NONE', #677, #342 ) REPRESENTATION_RELATIONSHIP_WITH_TRANSFORMATION ( #405 )SHAPE_REPRESENTATION_RELATIONSHIP( ) );
#34 = PRODUCT_DEFINITION_SHAPE ( 'NONE', 'NONE',  #119 ) ;
#35 = PROPERTY_DEFINITION_REPRESENTATION ( #398, #106 ) ;
#36 = PROPERTY_DEFINITION_REPRESENTATION ( #1056, #749 ) ;
#37 = DIRECTION ( 'NONE',  ( -2.524354896707237777E-29, -1.000000000000000000, -1.893266172530428333E-29 ) ) ;
#38 = APPLIED_EXTERNAL_IDENTIFICATION_ASSIGNMENT ( '\X2\570667f19f7f8f6e\X0\67\X2\00d7\X0\0.6A.STEP' , #981, #182,( #479) ) ;
#39 = CONTEXT_DEPENDENT_SHAPE_REPRESENTATION ( #1012, #559 ) ;
#40 = PRODUCT_DEFINITION_CONTEXT ( 'detailed design', #764, 'design' ) ;
#41 = ROLE_ASSOCIATION ( #397, #291 ) ;
#42 =( REPRESENTATION_RELATIONSHIP ('NONE','NONE', #677, #825 ) REPRESENTATION_RELATIONSHIP_WITH_TRANSFORMATION ( #583 )SHAPE_REPRESENTATION_RELATIONSHIP( ) );
#43 = APPLIED_EXTERNAL_IDENTIFICATION_ASSIGNMENT ( '\X2\5185516d89d25e735706593487ba9489\X0\ M3x14A.STEP' , #723, #853,( #56) ) ;
#44 = PRODUCT ( '\X2\5185516d89d2570667f1593487ba9489\X0\ M3x20A', '\X2\5185516d89d2570667f1593487ba9489\X0\ M3x20A', '', ( #1017 ) ) ;
#45 = DIRECTION ( 'NONE',  ( 0.9799203475172352240, 3.786532345060856666E-29, 0.1993893490678500802 ) ) ;
#46 = PRODUCT_DEFINITION_SHAPE ( 'NONE', 'NONE',  #1093 ) ;
#47 = PRODUCT_DEFINITION_FORMATION_WITH_SPECIFIED_SOURCE ( 'å¯', '', #974, .NOT_KNOWN. ) ;
#48 = DOCUMENT_FILE ( '120mm wA.STEP' , '', '', #988, '' ,$ ) ;
#49 = ITEM_DEFINED_TRANSFORMATION ( 'NONE', 'NONE', #394,  #939 ) ;
#50 = EXTERNAL_SOURCE (IDENTIFIER('') ) ;
#51 = DOCUMENT_TYPE ( 'geometry' ) ;
#52 = CARTESIAN_POINT ( 'NONE',  ( 1269.705142319948209, 783.1043095618681491, -89.88211720291202766 ) ) ;
#53 =( REPRESENTATION_RELATIONSHIP ('NONE','NONE', #677, #549 ) REPRESENTATION_RELATIONSHIP_WITH_TRANSFORMATION ( #801 )SHAPE_REPRESENTATION_RELATIONSHIP( ) );
#54 = AXIS2_PLACEMENT_3D ( 'NONE', #771, #693, #193 ) ;
#55 = DIRECTION ( 'NONE',  ( 2.524354896707237777E-29, 1.000000000000000000, 1.893266172530428333E-29 ) ) ;
#56 = DOCUMENT_FILE ( '\X2\5185516d89d25e735706593487ba9489\X0\ M3x14A.STEP' , '', '', #700, '' ,$ ) ;
#57 = PRODUCT_DEFINITION_CONTEXT ( 'detailed design', #971, 'design' ) ;
#58 = PRODUCT_DEFINITION_SHAPE ( 'NONE', 'NONE',  #580 ) ;
#59 = PROPERTY_DEFINITION_REPRESENTATION ( #679, #825 ) ;
#60 = CARTESIAN_POINT ( 'NONE',  ( 1262.804464024973413, 783.1043095618681491, -110.8560147756898715 ) ) ;
#61 = PRODUCT_DEFINITION_SHAPE ( 'NONE', 'NONE',  #1099 ) ;
#62 = OBJECT_ROLE ('mandatory',$ ) ;
#63 = DOCUMENT_TYPE ( 'geometry' ) ;
#64 = CONTEXT_DEPENDENT_SHAPE_REPRESENTATION ( #315, #523 ) ;
#65 = APPLIED_EXTERNAL_IDENTIFICATION_ASSIGNMENT ( '\X2\4fdd630167b6\X0\W3A.STEP' , #716, #150,( #13) ) ;
#66 = PROPERTY_DEFINITION_REPRESENTATION ( #528, #825 ) ;
#67 = APPLICATION_PROTOCOL_DEFINITION ( 'draft international standard', 'automotive_design', 1998, #160 ) ;
#68 = DIRECTION ( 'NONE',  ( 0.000000000000000000, 0.000000000000000000, 1.000000000000000000 ) ) ;
#69 = PRODUCT ( '\X2\8fde63a55ea7\X0\2A', '\X2\8fde63a55ea7\X0\2A', '', ( #940 ) ) ;
#70 = IDENTIFICATION_ROLE ( 'external document id and location', $) ;
#71 = ROLE_ASSOCIATION ( #229, #572 ) ;
#72 = DIRECTION ( 'NONE',  ( 0.2071455331478359585, 0.000000000000000000, 0.9783101390136459408 ) ) ;
#73 = DIRECTION ( 'NONE',  ( 0.000000000000000000, 0.000000000000000000, 1.000000000000000000 ) ) ;
#74 = DOCUMENT_FILE ( '\X2\4e0b76d6\X0\w2A.STEP' , '', '', #378, '' ,$ ) ;
#75 = EXTERNAL_SOURCE (IDENTIFIER('') ) ;
#76 = OBJECT_ROLE ('mandatory',$ ) ;
#77 =( NAMED_UNIT ( * ) SI_UNIT ( $, .STERADIAN. ) SOLID_ANGLE_UNIT ( ) );
#78 = CONTEXT_DEPENDENT_SHAPE_REPRESENTATION ( #42, #938 ) ;
#79 = CARTESIAN_POINT ( 'NONE',  ( 1252.205142319914557, 764.1043095618690586, -89.88211720333688959 ) ) ;
#80 = APPLICATION_CONTEXT ( 'automotive_design' ) ;
#81 = OBJECT_ROLE ('mandatory',$ ) ;
#82 = PROPERTY_DEFINITION ('external definition','', #834 ) ;
#83 = PRODUCT_DEFINITION_FORMATION_WITH_SPECIFIED_SOURCE ( 'å¯', '', #877, .NOT_KNOWN. ) ;
#84 =( LENGTH_UNIT ( ) NAMED_UNIT ( * ) SI_UNIT ( .MILLI., .METRE. ) );
#85 = SHAPE_DEFINITION_REPRESENTATION ( #483, #233 ) ;
#86 = PROPERTY_DEFINITION ('document property','', #961 ) ;
#87 = PRODUCT_DEFINITION ( 'æ™', '', #47, #476 ) ;
#88 =( REPRESENTATION_RELATIONSHIP ('NONE','NONE', #677, #825 ) REPRESENTATION_RELATIONSHIP_WITH_TRANSFORMATION ( #497 )SHAPE_REPRESENTATION_RELATIONSHIP( ) );
#89 = DIRECTION ( 'NONE',  ( 1.000000000000000000, 0.000000000000000000, 0.000000000000000000 ) ) ;
#90 = CONTEXT_DEPENDENT_SHAPE_REPRESENTATION ( #811, #313 ) ;
#91 =( GEOMETRIC_REPRESENTATION_CONTEXT ( 3 ) GLOBAL_UNCERTAINTY_ASSIGNED_CONTEXT ( ( #765 ) ) GLOBAL_UNIT_ASSIGNED_CONTEXT ( ( #564, #560, #77 ) ) REPRESENTATION_CONTEXT ( 'NONE', 'WORKASPACE' ) );
#92 = PRODUCT_CONTEXT ( 'NONE', #455, 'mechanical' ) ;
#93 = IDENTIFICATION_ROLE ( 'external document id and location', $) ;
#94 = DOCUMENT_FILE ( '\X2\5185516d89d2570667f1593487ba9489\X0\ M4x30A.STEP' , '', '', #539, '' ,$ ) ;
#95 =( GEOMETRIC_REPRESENTATION_CONTEXT ( 3 ) GLOBAL_UNCERTAINTY_ASSIGNED_CONTEXT ( ( #99 ) ) GLOBAL_UNIT_ASSIGNED_CONTEXT ( ( #213, #773, #124 ) ) REPRESENTATION_CONTEXT ( 'NONE', 'WORKASPACE' ) );
#96 = APPLICATION_PROTOCOL_DEFINITION ( 'draft international standard', 'automotive_design', 1998, #971 ) ;
#97 =( REPRESENTATION_RELATIONSHIP ('NONE','NONE', #677, #825 ) REPRESENTATION_RELATIONSHIP_WITH_TRANSFORMATION ( #897 )SHAPE_REPRESENTATION_RELATIONSHIP( ) );
#98 = PROPERTY_DEFINITION ('external definition','', #738 ) ;
#99 = UNCERTAINTY_MEASURE_WITH_UNIT (LENGTH_MEASURE( 1.000000000000000082E-05 ), #213, 'distance_accuracy_value', 'NONE');
#100 = APPLIED_EXTERNAL_IDENTIFICATION_ASSIGNMENT ( '\X2\5185516d89d2570667f1593487ba9489\X0\ M4x30A.STEP' , #364, #252,( #202) ) ;
#101 = PRODUCT_DEFINITION_SHAPE ( 'NONE', 'NONE',  #1083 ) ;
#102 = APPLICATION_PROTOCOL_DEFINITION ( 'draft international standard', 'automotive_design', 1998, #994 ) ;
#103 = EXTERNAL_SOURCE (IDENTIFIER('') ) ;
#104 = PRODUCT_DEFINITION_SHAPE ( 'NONE', 'NONE',  #1101 ) ;
#105 = AXIS2_PLACEMENT_3D ( 'NONE', #465, #537, #722 ) ;
#106 = SHAPE_REPRESENTATION ( '\X2\5185516d89d2570667f1593487ba9489\X0\ M4x30A', ( #439 ), #332 ) ;
#107 = CONTEXT_DEPENDENT_SHAPE_REPRESENTATION ( #932, #123 ) ;
#108 = PROPERTY_DEFINITION ('document property','', #738 ) ;
#109 = OBJECT_ROLE ('mandatory',$ ) ;
#110 = UNCERTAINTY_MEASURE_WITH_UNIT (LENGTH_MEASURE( 1.000000000000000082E-05 ), #303, 'distance_accuracy_value', 'NONE');
#111 = PROPERTY_DEFINITION ('document property','', #158 ) ;
#112 = SHAPE_REPRESENTATION ( '71810A', ( #244 ), #323 ) ;
#113 = PROPERTY_DEFINITION ('document property','', #891 ) ;
#114 =( REPRESENTATION_RELATIONSHIP ('NONE','NONE', #677, #749 ) REPRESENTATION_RELATIONSHIP_WITH_TRANSFORMATION ( #697 )SHAPE_REPRESENTATION_RELATIONSHIP( ) );
#115 = PROPERTY_DEFINITION ('external definition','', #56 ) ;
#116 = ITEM_DEFINED_TRANSFORMATION ( 'NONE', 'NONE', #275,  #280 ) ;
#117 = DIRECTION ( 'NONE',  ( -2.524354896707237777E-29, -1.000000000000000000, -1.893266172530428333E-29 ) ) ;
#118 = PROPERTY_DEFINITION ('external definition','', #792 ) ;
#119 = PRODUCT_DEFINITION ( 'æ™', '', #896, #446 ) ;
#120 = APPLIED_DOCUMENT_REFERENCE ( #526,'',( #223) ) ;
#121 = CARTESIAN_POINT ( 'NONE',  ( 1286.819208824650332, 762.1043095618691723, -101.4629807291858299 ) ) ;
#122 = APPLICATION_PROTOCOL_DEFINITION ( 'draft international standard', 'automotive_design', 1998, #785 ) ;
#123 = PRODUCT_DEFINITION_SHAPE ( 'NONE', 'NONE',  #1076 ) ;
#124 =( NAMED_UNIT ( * ) SI_UNIT ( $, .STERADIAN. ) SOLID_ANGLE_UNIT ( ) );
#125 = DOCUMENT_FILE ( '\X2\5185516d89d25e735706593487ba9489\X0\ M3x14A.STEP' , '', '', #933, '' ,$ ) ;
#126 = AXIS2_PLACEMENT_3D ( 'NONE', #881, #578, #924 ) ;
#127 = PROPERTY_DEFINITION ('document property','', #13 ) ;
#128 = EXTERNAL_SOURCE (IDENTIFIER('') ) ;
#129 = CARTESIAN_POINT ( 'NONE',  ( 1252.205142319948209, 783.1043095618680354, -72.38211720291100448 ) ) ;
#130 = ROLE_ASSOCIATION ( #1052, #967 ) ;
#131 = PRODUCT_DEFINITION_SHAPE ( 'NONE', 'NONE',  #996 ) ;
#132 = PRODUCT_DEFINITION ( 'æ™', '', #803, #57 ) ;
#133 = CARTESIAN_POINT ( 'NONE',  ( 1252.205142319948209, 783.1043095618680354, -107.3821172029110187 ) ) ;
#134 = OBJECT_ROLE ('mandatory',$ ) ;
#135 = PRODUCT_DEFINITION_FORMATION_WITH_SPECIFIED_SOURCE ( 'å¯', '', #639, .NOT_KNOWN. ) ;
#136 = CONTEXT_DEPENDENT_SHAPE_REPRESENTATION ( #958, #637 ) ;
#137 = PROPERTY_DEFINITION ('document property','', #1013 ) ;
#138 = CARTESIAN_POINT ( 'NONE',  ( 0.000000000000000000, 0.000000000000000000, 0.000000000000000000 ) ) ;
#139 = CARTESIAN_POINT ( 'NONE',  ( 1279.541497583681348, 762.1043095618690586, -65.69588804479484168 ) ) ;
#140 = AXIS2_PLACEMENT_3D ( 'NONE', #827, #72, #55 ) ;
#141 = PROPERTY_DEFINITION_REPRESENTATION ( #806, #630 ) ;
#142 = PRODUCT_DEFINITION_SHAPE ( 'NONE', 'NONE',  #29 ) ;
#143 = OBJECT_ROLE ('mandatory',$ ) ;
#144 = DOCUMENT_FILE ( '\X2\5c0f5934676f59345185516d89d2\X0\3x4A.STEP' , '', '', #582, '' ,$ ) ;
#145 = DIRECTION ( 'NONE',  ( -2.524354896707237777E-29, -1.000000000000000000, -1.893266172530428333E-29 ) ) ;
#146 = SHAPE_REPRESENTATION ( '\X2\8fde63a55ea7\X0\2A', ( #957 ), #232 ) ;
#147 = APPLICATION_PROTOCOL_DEFINITION ( 'draft international standard', 'automotive_design', 1998, #152 ) ;
#148 = APPLIED_DOCUMENT_REFERENCE ( #1013,'',( #580) ) ;
#149 = PROPERTY_DEFINITION_REPRESENTATION ( #859, #599 ) ;
#150 = EXTERNAL_SOURCE (IDENTIFIER('') ) ;
#151 = APPLIED_DOCUMENT_REFERENCE ( #410,'',( #899) ) ;
#152 = APPLICATION_CONTEXT ( 'automotive_design' ) ;
#153 = OBJECT_ROLE ('mandatory',$ ) ;
#154 = EXTERNAL_SOURCE (IDENTIFIER('') ) ;
#155 = DIRECTION ( 'NONE',  ( -2.524354896707237777E-29, -1.000000000000000000, -1.893266172530428333E-29 ) ) ;
#156 = DIRECTION ( 'NONE',  ( 0.000000000000000000, 0.000000000000000000, 1.000000000000000000 ) ) ;
#157 = PRODUCT_DEFINITION_SHAPE ( 'NONE', 'NONE',  #1097 ) ;
#158 = DOCUMENT_FILE ( '\X2\5c0f5934676f59345185516d89d2\X0\3x4A.STEP' , '', '', #248, '' ,$ ) ;
#159 = SHAPE_DEFINITION_REPRESENTATION ( #34, #377 ) ;
#160 = APPLICATION_CONTEXT ( 'automotive_design' ) ;
#161 = OBJECT_ROLE ('mandatory',$ ) ;
#162 = EXTERNAL_SOURCE (IDENTIFIER('') ) ;
#163 = AXIS2_PLACEMENT_3D ( 'NONE', #558, #206, #984 ) ;
#164 = ROLE_ASSOCIATION ( #134, #148 ) ;
#165 = PROPERTY_DEFINITION_REPRESENTATION ( #201, #861 ) ;
#166 = PRODUCT_DEFINITION_SHAPE ( 'NONE', 'NONE',  #1092 ) ;
#167 = DOCUMENT_TYPE ( 'geometry' ) ;
#168 =( REPRESENTATION_RELATIONSHIP ('NONE','NONE', #677, #377 ) REPRESENTATION_RELATIONSHIP_WITH_TRANSFORMATION ( #116 )SHAPE_REPRESENTATION_RELATIONSHIP( ) );
#169 = PROPERTY_DEFINITION_REPRESENTATION ( #826, #233 ) ;
#170 = PRODUCT_RELATED_PRODUCT_CATEGORY ( 'part', '', ( #877 ) ) ;
#171 = CARTESIAN_POINT ( 'NONE',  ( 0.000000000000000000, 0.000000000000000000, 0.000000000000000000 ) ) ;
#172 = APPLICATION_PROTOCOL_DEFINITION ( 'draft international standard', 'automotive_design', 1998, #175 ) ;
#173 = PROPERTY_DEFINITION ('external definition','', #1053 ) ;
#174 = APPLICATION_CONTEXT ( 'automotive_design' ) ;
#175 = APPLICATION_CONTEXT ( 'automotive_design' ) ;
#176 = ITEM_DEFINED_TRANSFORMATION ( 'NONE', 'NONE', #163,  #126 ) ;
#177 = OBJECT_ROLE ('mandatory',$ ) ;
#178 = SHAPE_DEFINITION_REPRESENTATION ( #744, #112 ) ;
#179 = PROPERTY_DEFINITION_REPRESENTATION ( #833, #600 ) ;
#180 = AXIS2_PLACEMENT_3D ( 'NONE', #619, #534, #975 ) ;
#181 = APPLICATION_PROTOCOL_DEFINITION ( 'draft international standard', 'automotive_design', 1998, #764 ) ;
#182 = EXTERNAL_SOURCE (IDENTIFIER('') ) ;
#183 = PROPERTY_DEFINITION_REPRESENTATION ( #493, #106 ) ;
#184 = CARTESIAN_POINT ( 'NONE',  ( 0.000000000000000000, 0.000000000000000000, 0.000000000000000000 ) ) ;
#185 = APPLICATION_PROTOCOL_DEFINITION ( 'draft international standard', 'automotive_design', 1998, #80 ) ;
#186 = DOCUMENT_TYPE ( 'geometry' ) ;
#187 = PRODUCT_DEFINITION_CONTEXT ( 'detailed design', #421, 'design' ) ;
#188 = PRODUCT_RELATED_PRODUCT_CATEGORY ( 'part', '', ( #650 ) ) ;
#189 = CONTEXT_DEPENDENT_SHAPE_REPRESENTATION ( #755, #157 ) ;
#190 = PROPERTY_DEFINITION ('document property','', #410 ) ;
#191 = PRODUCT_CONTEXT ( 'NONE', #80, 'mechanical' ) ;
#192 = PRODUCT_DEFINITION_FORMATION_WITH_SPECIFIED_SOURCE ( 'å¯', '', #812, .NOT_KNOWN. ) ;
#193 = DIRECTION ( 'NONE',  ( 0.9603844903966665125, 6.310887241768094443E-30, -0.2786783640786192895 ) ) ;
#194 = PROPERTY_DEFINITION ('document property','', #653 ) ;
#195 = APPLICATION_CONTEXT ( 'automotive_design' ) ;
#196 = EXTERNAL_SOURCE (IDENTIFIER('') ) ;
#197 = DOCUMENT_FILE ( '\X2\5185516d89d2570667f1593487ba9489\X0\ M4x30A.STEP' , '', '', #338, '' ,$ ) ;
#198 = AXIS2_PLACEMENT_3D ( 'NONE', #512, #518, #698 ) ;
#199 =( NAMED_UNIT ( * ) SI_UNIT ( $, .STERADIAN. ) SOLID_ANGLE_UNIT ( ) );
#200 = CONTEXT_DEPENDENT_SHAPE_REPRESENTATION ( #114, #1064 ) ;
#201 = PROPERTY_DEFINITION ('external definition','', #74 ) ;
#202 = DOCUMENT_FILE ( '\X2\5185516d89d2570667f1593487ba9489\X0\ M4x30A.STEP' , '', '', #63, '' ,$ ) ;
#203 =( NAMED_UNIT ( * ) SI_UNIT ( $, .STERADIAN. ) SOLID_ANGLE_UNIT ( ) );
#204 = APPLIED_DOCUMENT_REFERENCE ( #839,'',( #132) ) ;
#205 =( REPRESENTATION_RELATIONSHIP ('NONE','NONE', #677, #146 ) REPRESENTATION_RELATIONSHIP_WITH_TRANSFORMATION ( #452 )SHAPE_REPRESENTATION_RELATIONSHIP( ) );
#206 = DIRECTION ( 'NONE',  ( -2.524354896707237777E-29, -1.000000000000000000, -1.893266172530428333E-29 ) ) ;
#207 = APPLIED_EXTERNAL_IDENTIFICATION_ASSIGNMENT ( '\X2\5c0f5934676f59345185516d89d2\X0\3x4A.STEP' , #846, #283,( #144) ) ;
#208 = ROLE_ASSOCIATION ( #81, #385 ) ;
#209 = CONTEXT_DEPENDENT_SHAPE_REPRESENTATION ( #535, #510 ) ;
#210 =( REPRESENTATION_RELATIONSHIP ('NONE','NONE', #677, #233 ) REPRESENTATION_RELATIONSHIP_WITH_TRANSFORMATION ( #520 )SHAPE_REPRESENTATION_RELATIONSHIP( ) );
#211 = EXTERNAL_SOURCE (IDENTIFIER('') ) ;
#212 = CARTESIAN_POINT ( 'NONE',  ( 1240.113616361658160, 769.2043095618690813, -101.9736431611999734 ) ) ;
#213 =( LENGTH_UNIT ( ) NAMED_UNIT ( * ) SI_UNIT ( .MILLI., .METRE. ) );
#214 = PROPERTY_DEFINITION ('document property','', #125 ) ;
#215 = ROLE_ASSOCIATION ( #735, #371 ) ;
#216 = PRODUCT_DEFINITION_CONTEXT ( 'detailed design', #717, 'design' ) ;
#217 =( NAMED_UNIT ( * ) PLANE_ANGLE_UNIT ( ) SI_UNIT ( $, .RADIAN. ) );
#218 = PROPERTY_DEFINITION_REPRESENTATION ( #389, #749 ) ;
#219 = DIRECTION ( 'NONE',  ( -0.9999326461345288131, 0.000000000000000000, -0.01160617053120094333 ) ) ;
#220 = APPLICATION_CONTEXT ( 'automotive_design' ) ;
#221 = PRODUCT_DEFINITION_SHAPE ( 'NONE', 'NONE',  #1079 ) ;
#222 = IDENTIFICATION_ROLE ( 'external document id and location', $) ;
#223 = PRODUCT_DEFINITION ( 'æ™', '', #287, #895 ) ;
#224 =( NAMED_UNIT ( * ) SI_UNIT ( $, .STERADIAN. ) SOLID_ANGLE_UNIT ( ) );
#225 = ITEM_DEFINED_TRANSFORMATION ( 'NONE', 'NONE', #54,  #244 ) ;
#226 = DIRECTION ( 'NONE',  ( 0.9483305891692819234, 1.262177448353618889E-29, -0.3172839322213509838 ) ) ;
#227 = DIRECTION ( 'NONE',  ( 0.000000000000000000, 1.893266172530428333E-29, 1.000000000000000222 ) ) ;
#228 = PROPERTY_DEFINITION_REPRESENTATION ( #311, #855 ) ;
#229 = OBJECT_ROLE ('mandatory',$ ) ;
#230 = PRODUCT_DEFINITION_SHAPE ( 'NONE', 'NONE',  #87 ) ;
#231 = DIRECTION ( 'NONE',  ( 1.000000000000000222, 2.524354896707237777E-29, 0.000000000000000000 ) ) ;
#232 =( GEOMETRIC_REPRESENTATION_CONTEXT ( 3 ) GLOBAL_UNCERTAINTY_ASSIGNED_CONTEXT ( ( #776 ) ) GLOBAL_UNIT_ASSIGNED_CONTEXT ( ( #368, #294, #373 ) ) REPRESENTATION_CONTEXT ( 'NONE', 'WORKASPACE' ) );
#233 = SHAPE_REPRESENTATION ( 'm3x18\X2\9500\X0\A', ( #939 ), #454 ) ;
#234 = APPLIED_EXTERNAL_IDENTIFICATION_ASSIGNMENT ( '\X2\4e2d5fc3652f67b6\X0\WA.STEP' , #93, #1066,( #598) ) ;
#235 = ITEM_DEFINED_TRANSFORMATION ( 'NONE', 'NONE', #708,  #1041 ) ;
#236 = CONTEXT_DEPENDENT_SHAPE_REPRESENTATION ( #97, #869 ) ;
#237 =( REPRESENTATION_RELATIONSHIP ('NONE','NONE', #677, #749 ) REPRESENTATION_RELATIONSHIP_WITH_TRANSFORMATION ( #959 )SHAPE_REPRESENTATION_RELATIONSHIP( ) );
#238 = DIRECTION ( 'NONE',  ( -2.524354896707237777E-29, -1.000000000000000000, -1.893266172530428333E-29 ) ) ;
#239 = PRODUCT_RELATED_PRODUCT_CATEGORY ( 'part', '', ( #496 ) ) ;
#240 = ROLE_ASSOCIATION ( #381, #1000 ) ;
#241 =( NAMED_UNIT ( * ) PLANE_ANGLE_UNIT ( ) SI_UNIT ( $, .RADIAN. ) );
#242 = ROLE_ASSOCIATION ( #800, #673 ) ;
#243 = DOCUMENT_FILE ( '\X2\5185516d89d25e735706593487ba9489\X0\ M3x14A.STEP' , '', '', #404, '' ,$ ) ;
#244 = AXIS2_PLACEMENT_3D ( 'NONE', #998, #1009, #955 ) ;
#245 = ITEM_DEFINED_TRANSFORMATION ( 'NONE', 'NONE', #868,  #568 ) ;
#246 = DIRECTION ( 'NONE',  ( 0.9820818503191365290, 3.155443620884047222E-29, -0.1884548733085490979 ) ) ;
#247 = PROPERTY_DEFINITION ('external definition','', #474 ) ;
#248 = DOCUMENT_TYPE ( 'geometry' ) ;
#249 = DOCUMENT_TYPE ( 'geometry' ) ;
#250 = PROPERTY_DEFINITION_REPRESENTATION ( #1022, #855 ) ;
#251 = PRODUCT_DEFINITION_FORMATION_WITH_SPECIFIED_SOURCE ( 'å¯', '', #720, .NOT_KNOWN. ) ;
#252 = EXTERNAL_SOURCE (IDENTIFIER('') ) ;
#253 =( LENGTH_UNIT ( ) NAMED_UNIT ( * ) SI_UNIT ( .MILLI., .METRE. ) );
#254 = CONTEXT_DEPENDENT_SHAPE_REPRESENTATION ( #879, #365 ) ;
#255 = SHAPE_DEFINITION_REPRESENTATION ( #58, #630 ) ;
#256 = AXIS2_PLACEMENT_3D ( 'NONE', #552, #898, #1054 ) ;
#257 = EXTERNAL_SOURCE (IDENTIFIER('') ) ;
#258 = APPLICATION_PROTOCOL_DEFINITION ( 'draft international standard', 'automotive_design', 1998, #621 ) ;
#259 = UNCERTAINTY_MEASURE_WITH_UNIT (LENGTH_MEASURE( 1.000000000000000082E-05 ), #344, 'distance_accuracy_value', 'NONE');
#260 = DIRECTION ( 'NONE',  ( 0.000000000000000000, 0.000000000000000000, 1.000000000000000000 ) ) ;
#261 = PROPERTY_DEFINITION_REPRESENTATION ( #1074, #106 ) ;
#262 = APPLIED_EXTERNAL_IDENTIFICATION_ASSIGNMENT ( '\X2\5185516d89d2570667f1593487ba9489\X0\ M4x30A.STEP' , #427, #154,( #680) ) ;
#263 = PRODUCT_CONTEXT ( 'NONE', #810, 'mechanical' ) ;
#264 = PRODUCT_DEFINITION_SHAPE ( 'NONE', 'NONE',  #1085 ) ;
#265 =( NAMED_UNIT ( * ) PLANE_ANGLE_UNIT ( ) SI_UNIT ( $, .RADIAN. ) );
#266 = DOCUMENT_FILE ( '\X2\5185516d89d2570667f1593487ba9489\X0\ M3x20A.STEP' , '', '', #647, '' ,$ ) ;
#267 = DIRECTION ( 'NONE',  ( 1.000000000000000000, 0.000000000000000000, 0.000000000000000000 ) ) ;
#268 = SHAPE_DEFINITION_REPRESENTATION ( #579, #146 ) ;
#269 = PROPERTY_DEFINITION ('document property','', #197 ) ;
#270 = APPLICATION_CONTEXT ( 'automotive_design' ) ;
#271 = DOCUMENT_TYPE ( 'geometry' ) ;
#272 = UNCERTAINTY_MEASURE_WITH_UNIT (LENGTH_MEASURE( 1.000000000000000082E-05 ), #617, 'distance_accuracy_value', 'NONE');
#273 = ITEM_DEFINED_TRANSFORMATION ( 'NONE', 'NONE', #445,  #439 ) ;
#274 =( NAMED_UNIT ( * ) SI_UNIT ( $, .STERADIAN. ) SOLID_ANGLE_UNIT ( ) );
#275 = AXIS2_PLACEMENT_3D ( 'NONE', #787, #37, #388 ) ;
#276 = PRODUCT_CONTEXT ( 'NONE', #174, 'mechanical' ) ;
#277 =( LENGTH_UNIT ( ) NAMED_UNIT ( * ) SI_UNIT ( .MILLI., .METRE. ) );
#278 = APPLIED_DOCUMENT_REFERENCE ( #266,'',( #694) ) ;
#279 = DOCUMENT_TYPE ( 'geometry' ) ;
#280 = AXIS2_PLACEMENT_3D ( 'NONE', #430, #68, #1029 ) ;
#281 = APPLICATION_PROTOCOL_DEFINITION ( 'draft international standard', 'automotive_design', 1998, #220 ) ;
#282 = CONTEXT_DEPENDENT_SHAPE_REPRESENTATION ( #841, #104 ) ;
#283 = EXTERNAL_SOURCE (IDENTIFIER('') ) ;
#284 =( NAMED_UNIT ( * ) PLANE_ANGLE_UNIT ( ) SI_UNIT ( $, .RADIAN. ) );
#285 = PROPERTY_DEFINITION ('external definition','', #158 ) ;
#286 = APPLICATION_PROTOCOL_DEFINITION ( 'draft international standard', 'automotive_design', 1998, #503 ) ;
#287 = PRODUCT_DEFINITION_FORMATION_WITH_SPECIFIED_SOURCE ( 'å¯', '', #382, .NOT_KNOWN. ) ;
#288 = CARTESIAN_POINT ( 'NONE',  ( 1268.722473949490222, 769.2043095618690813, -94.30792287416592501 ) ) ;
#289 = PROPERTY_DEFINITION_REPRESENTATION ( #269, #106 ) ;
#290 = CARTESIAN_POINT ( 'NONE',  ( 0.000000000000000000, 0.000000000000000000, 0.000000000000000000 ) ) ;
#291 = APPLIED_DOCUMENT_REFERENCE ( #1053,'',( #760) ) ;
#292 = DIRECTION ( 'NONE',  ( 0.3172839322134849427, 1.262177448353618889E-29, 0.9483305891719138181 ) ) ;
#293 = AXIS2_PLACEMENT_3D ( 'NONE', #739, #156, #336 ) ;
#294 =( NAMED_UNIT ( * ) PLANE_ANGLE_UNIT ( ) SI_UNIT ( $, .RADIAN. ) );
#295 = ITEM_DEFINED_TRANSFORMATION ( 'NONE', 'NONE', #770,  #782 ) ;
#296 = PROPERTY_DEFINITION ('external definition','', #961 ) ;
#297 = DIRECTION ( 'NONE',  ( 0.000000000000000000, 1.893266172530428333E-29, 1.000000000000000222 ) ) ;
#298 = APPLIED_EXTERNAL_IDENTIFICATION_ASSIGNMENT ( '\X2\5c0f5934676f59345185516d89d2\X0\3x4A.STEP' , #1036, #963,( #834) ) ;
#299 =( REPRESENTATION_RELATIONSHIP ('NONE','NONE', #677, #600 ) REPRESENTATION_RELATIONSHIP_WITH_TRANSFORMATION ( #501 )SHAPE_REPRESENTATION_RELATIONSHIP( ) );
#300 = CONTEXT_DEPENDENT_SHAPE_REPRESENTATION ( #4, #360 ) ;
#301 =( LENGTH_UNIT ( ) NAMED_UNIT ( * ) SI_UNIT ( .MILLI., .METRE. ) );
#302 = PRODUCT_DEFINITION_SHAPE ( 'NONE', 'NONE',  #694 ) ;
#303 =( LENGTH_UNIT ( ) NAMED_UNIT ( * ) SI_UNIT ( .MILLI., .METRE. ) );
#304 = APPLIED_DOCUMENT_REFERENCE ( #474,'',( #132) ) ;
#305 = DIRECTION ( 'NONE',  ( -2.524354896707237777E-29, -1.000000000000000000, -1.893266172530428333E-29 ) ) ;
#306 = PROPERTY_DEFINITION_REPRESENTATION ( #672, #106 ) ;
#307 = DIRECTION ( 'NONE',  ( 1.000000000000000000, 0.000000000000000000, 0.000000000000000000 ) ) ;
#308 = ROLE_ASSOCIATION ( #802, #204 ) ;
#309 = AXIS2_PLACEMENT_3D ( 'NONE', #129, #980, #481 ) ;
#310 = DIRECTION ( 'NONE',  ( 1.248945391552069850E-12, 2.524354896707237777E-29, 1.000000000000000222 ) ) ;
#311 = PROPERTY_DEFINITION ('document property','', #56 ) ;
#312 = PRODUCT_DEFINITION_SHAPE ( 'NONE', 'NONE',  #449 ) ;
#313 = PRODUCT_DEFINITION_SHAPE ( 'NONE', 'NONE',  #1096 ) ;
#314 = ROLE_ASSOCIATION ( #153, #304 ) ;
#315 =( REPRESENTATION_RELATIONSHIP ('NONE','NONE', #677, #855 ) REPRESENTATION_RELATIONSHIP_WITH_TRANSFORMATION ( #329 )SHAPE_REPRESENTATION_RELATIONSHIP( ) );
#316 = DIRECTION ( 'NONE',  ( 0.4865051601868551345, 3.155443620884047222E-29, 0.8736777032244572583 ) ) ;
#317 = PROPERTY_DEFINITION ('external definition','', #243 ) ;
#318 = PRODUCT_DEFINITION_CONTEXT ( 'detailed design', #848, 'design' ) ;
#319 = CARTESIAN_POINT ( 'NONE',  ( 0.000000000000000000, 0.000000000000000000, 0.000000000000000000 ) ) ;
#320 = ROLE_ASSOCIATION ( #467, #555 ) ;
#321 =( GEOMETRIC_REPRESENTATION_CONTEXT ( 3 ) GLOBAL_UNCERTAINTY_ASSIGNED_CONTEXT ( ( #607 ) ) GLOBAL_UNIT_ASSIGNED_CONTEXT ( ( #507, #265, #20 ) ) REPRESENTATION_CONTEXT ( 'NONE', 'WORKASPACE' ) );
#322 = DIRECTION ( 'NONE',  ( -0.2232287166403529866, 1.893266172530428333E-29, 0.9747660950541421343 ) ) ;
#323 =( GEOMETRIC_REPRESENTATION_CONTEXT ( 3 ) GLOBAL_UNCERTAINTY_ASSIGNED_CONTEXT ( ( #259 ) ) GLOBAL_UNIT_ASSIGNED_CONTEXT ( ( #344, #688, #274 ) ) REPRESENTATION_CONTEXT ( 'NONE', 'WORKASPACE' ) );
#324 = DOCUMENT_TYPE ( 'geometry' ) ;
#325 = PROPERTY_DEFINITION ('external definition','', #774 ) ;
#326 = PRODUCT_DEFINITION ( 'æ™', '', #1016, #464 ) ;
#327 = CONTEXT_DEPENDENT_SHAPE_REPRESENTATION ( #33, #737 ) ;
#328 = PRODUCT_CONTEXT ( 'NONE', #908, 'mechanical' ) ;
#329 = ITEM_DEFINED_TRANSFORMATION ( 'NONE', 'NONE', #412,  #1041 ) ;
#330 = OBJECT_ROLE ('mandatory',$ ) ;
#331 = PROPERTY_DEFINITION ('external definition','', #598 ) ;
#332 =( GEOMETRIC_REPRESENTATION_CONTEXT ( 3 ) GLOBAL_UNCERTAINTY_ASSIGNED_CONTEXT ( ( #353 ) ) GLOBAL_UNIT_ASSIGNED_CONTEXT ( ( #253, #570, #815 ) ) REPRESENTATION_CONTEXT ( 'NONE', 'WORKASPACE' ) );
#333 = DIRECTION ( 'NONE',  ( 0.000000000000000000, 0.000000000000000000, 1.000000000000000000 ) ) ;
#334 = PROPERTY_DEFINITION ('external definition','', #266 ) ;
#335 = PROPERTY_DEFINITION_REPRESENTATION ( #989, #855 ) ;
#336 = DIRECTION ( 'NONE',  ( 1.000000000000000000, 0.000000000000000000, 0.000000000000000000 ) ) ;
#337 = CONTEXT_DEPENDENT_SHAPE_REPRESENTATION ( #780, #587 ) ;
#338 = DOCUMENT_TYPE ( 'geometry' ) ;
#339 =( REPRESENTATION_RELATIONSHIP ('NONE','NONE', #677, #983 ) REPRESENTATION_RELATIONSHIP_WITH_TRANSFORMATION ( #740 )SHAPE_REPRESENTATION_RELATIONSHIP( ) );
#340 = PRODUCT_CONTEXT ( 'NONE', #785, 'mechanical' ) ;
#341 = PRODUCT_DEFINITION_FORMATION_WITH_SPECIFIED_SOURCE ( 'å¯', '', #993, .NOT_KNOWN. ) ;
#342 = SHAPE_REPRESENTATION ( '\X2\4fdd630167b6\X0\W3A', ( #293 ), #793 ) ;
#343 = CONTEXT_DEPENDENT_SHAPE_REPRESENTATION ( #339, #435 ) ;
#344 =( LENGTH_UNIT ( ) NAMED_UNIT ( * ) SI_UNIT ( .MILLI., .METRE. ) );
#345 = DIRECTION ( 'NONE',  ( 0.9820818503191365290, 3.155443620884047222E-29, -0.1884548733085490979 ) ) ;
#346 = IDENTIFICATION_ROLE ( 'external document id and location', $) ;
#347 = AXIS2_PLACEMENT_3D ( 'NONE', #627, #1069, #813 ) ;
#348 = PROPERTY_DEFINITION ('document property','', #1053 ) ;
#349 = SHAPE_DEFINITION_REPRESENTATION ( #396, #749 ) ;
#350 = APPLICATION_CONTEXT ( 'automotive_design' ) ;
#351 = OBJECT_ROLE ('mandatory',$ ) ;
#352 = OBJECT_ROLE ('mandatory',$ ) ;
#353 = UNCERTAINTY_MEASURE_WITH_UNIT (LENGTH_MEASURE( 1.000000000000000082E-05 ), #253, 'distance_accuracy_value', 'NONE');
#354 = ROLE_ASSOCIATION ( #701, #278 ) ;
#355 = CARTESIAN_POINT ( 'NONE',  ( 1252.205142319948209, 783.7543095618689222, -89.88211720291094764 ) ) ;
#356 = SHAPE_DEFINITION_REPRESENTATION ( #830, #342 ) ;
#357 = PROPERTY_DEFINITION ('external definition','', #410 ) ;
#358 = CONTEXT_DEPENDENT_SHAPE_REPRESENTATION ( #210, #166 ) ;
#359 = APPLICATION_PROTOCOL_DEFINITION ( 'draft international standard', 'automotive_design', 1998, #402 ) ;
#360 = PRODUCT_DEFINITION_SHAPE ( 'NONE', 'NONE',  #1103 ) ;
#361 = PRODUCT_DEFINITION_CONTEXT ( 'detailed design', #566, 'design' ) ;
#362 = PROPERTY_DEFINITION_REPRESENTATION ( #571, #600 ) ;
#363 = PRODUCT_CONTEXT ( 'NONE', #772, 'mechanical' ) ;
#364 = IDENTIFICATION_ROLE ( 'external document id and location', $) ;
#365 = PRODUCT_DEFINITION_SHAPE ( 'NONE', 'NONE',  #1086 ) ;
#366 = PROPERTY_DEFINITION ('external definition','', #653 ) ;
#367 = DOCUMENT_FILE ( '\X2\5185516d89d2570667f1593487ba9489\X0\ M3x20A.STEP' , '', '', #376, '' ,$ ) ;
#368 =( LENGTH_UNIT ( ) NAMED_UNIT ( * ) SI_UNIT ( .MILLI., .METRE. ) );
#369 = DOCUMENT_FILE ( '\X2\53cc80549f7f8f6e\X0\2A.STEP' , '', '', #543, '' ,$ ) ;
#370 = APPLIED_EXTERNAL_IDENTIFICATION_ASSIGNMENT ( '\X2\5185516d89d25e735706593487ba9489\X0\ M3x14A.STEP' , #391, #684,( #653) ) ;
#371 = APPLIED_DOCUMENT_REFERENCE ( #197,'',( #87) ) ;
#372 =( GEOMETRIC_REPRESENTATION_CONTEXT ( 3 ) GLOBAL_UNCERTAINTY_ASSIGNED_CONTEXT ( ( #1049 ) ) GLOBAL_UNIT_ASSIGNED_CONTEXT ( ( #473, #709, #203 ) ) REPRESENTATION_CONTEXT ( 'NONE', 'WORKASPACE' ) );
#373 =( NAMED_UNIT ( * ) SI_UNIT ( $, .STERADIAN. ) SOLID_ANGLE_UNIT ( ) );
#374 = PROPERTY_DEFINITION_REPRESENTATION ( #118, #112 ) ;
#375 = CARTESIAN_POINT ( 'NONE',  ( 1217.591075815288377, 762.1043095618690586, -78.30125367697085892 ) ) ;
#376 = DOCUMENT_TYPE ( 'geometry' ) ;
#377 = SHAPE_REPRESENTATION ( '3508A', ( #280 ), #423 ) ;
#378 = DOCUMENT_TYPE ( 'geometry' ) ;
#379 = CARTESIAN_POINT ( 'NONE',  ( 0.000000000000000000, 0.000000000000000000, 0.000000000000000000 ) ) ;
#380 = PROPERTY_DEFINITION_REPRESENTATION ( #620, #233 ) ;
#381 = OBJECT_ROLE ('mandatory',$ ) ;
#382 = PRODUCT ( 'm3x18\X2\9500\X0\A', 'm3x18\X2\9500\X0\A', '', ( #191 ) ) ;
#383 = DIRECTION ( 'NONE',  ( -2.524354896707237777E-29, -0.9999999999999998890, -2.524354896707237777E-29 ) ) ;
#384 =( REPRESENTATION_RELATIONSHIP ('NONE','NONE', #677, #106 ) REPRESENTATION_RELATIONSHIP_WITH_TRANSFORMATION ( #273 )SHAPE_REPRESENTATION_RELATIONSHIP( ) );
#385 = APPLIED_DOCUMENT_REFERENCE ( #961,'',( #119) ) ;
#386 = CONTEXT_DEPENDENT_SHAPE_REPRESENTATION ( #469, #605 ) ;
#387 = AXIS2_PLACEMENT_3D ( 'NONE', #1020, #1050, #540 ) ;
#388 = DIRECTION ( 'NONE',  ( 0.003546294782671988166, -3.155443620884047222E-29, -0.9999937118768871258 ) ) ;
#389 = PROPERTY_DEFINITION ('document property','', #839 ) ;
#390 = PROPERTY_DEFINITION_REPRESENTATION ( #763, #112 ) ;
#391 = IDENTIFICATION_ROLE ( 'external document id and location', $) ;
#392 = DIRECTION ( 'NONE',  ( 1.000000000000000222, 2.524354896707237777E-29, 0.000000000000000000 ) ) ;
#393 = APPLIED_EXTERNAL_IDENTIFICATION_ASSIGNMENT ( '\X2\53cc80549f7f8f6e\X0\2A.STEP' , #1044, #128,( #839) ) ;
#394 = AXIS2_PLACEMENT_3D ( 'NONE', #288, #527, #632 ) ;
#395 = CARTESIAN_POINT ( 'NONE',  ( 1234.705142319948209, 783.1043095618680354, -89.88211720291106133 ) ) ;
#396 = PRODUCT_DEFINITION_SHAPE ( 'NONE', 'NONE',  #132 ) ;
#397 = OBJECT_ROLE ('mandatory',$ ) ;
#398 = PROPERTY_DEFINITION ('external definition','', #202 ) ;
#399 = APPLIED_EXTERNAL_IDENTIFICATION_ASSIGNMENT ( '\X2\4e0b76d6\X0\w2A.STEP' , #1024, #945,( #74) ) ;
#400 = PRODUCT_RELATED_PRODUCT_CATEGORY ( 'part', '', ( #993 ) ) ;
#401 = CARTESIAN_POINT ( 'NONE',  ( 1240.113616361658160, 779.1043095618680354, -101.9736431612000018 ) ) ;
#402 = APPLICATION_CONTEXT ( 'automotive_design' ) ;
#403 = PROPERTY_DEFINITION_REPRESENTATION ( #317, #855 ) ;
#404 = DOCUMENT_TYPE ( 'geometry' ) ;
#405 = ITEM_DEFINED_TRANSFORMATION ( 'NONE', 'NONE', #923,  #293 ) ;
#406 = PROPERTY_DEFINITION ('document property','', #774 ) ;
#407 = DIRECTION ( 'NONE',  ( 1.000000000000000222, 2.524354896707237777E-29, 0.000000000000000000 ) ) ;
#408 = DIRECTION ( 'NONE',  ( -0.3898539752885731291, 7.888609052210118054E-31, 0.9208766898731323147 ) ) ;
#409 = ROLE_ASSOCIATION ( #979, #990 ) ;
#410 = DOCUMENT_FILE ( '\X2\5c0f5934676f59345185516d89d2\X0\3x4A.STEP' , '', '', #279, '' ,$ ) ;
#411 = DIRECTION ( 'NONE',  ( 1.000000000000000222, 2.524354896707237777E-29, 0.000000000000000000 ) ) ;
#412 = AXIS2_PLACEMENT_3D ( 'NONE', #926, #145, #345 ) ;
#413 = APPLIED_DOCUMENT_REFERENCE ( #738,'',( #449) ) ;
#414 = PROPERTY_DEFINITION ('document property','', #369 ) ;
#415 = SHAPE_REPRESENTATION ( '\X2\4e2d5fc3652f67b6\X0\WA', ( #666 ), #714 ) ;
#416 =( NAMED_UNIT ( * ) SI_UNIT ( $, .STERADIAN. ) SOLID_ANGLE_UNIT ( ) );
#417 = ROLE_ASSOCIATION ( #730, #151 ) ;
#418 = PRODUCT_DEFINITION ( 'æ™', '', #192, #922 ) ;
#419 = APPLICATION_PROTOCOL_DEFINITION ( 'draft international standard', 'automotive_design', 1998, #832 ) ;
#420 = EXTERNAL_SOURCE (IDENTIFIER('') ) ;
#421 = APPLICATION_CONTEXT ( 'automotive_design' ) ;
#422 = EXTERNAL_SOURCE (IDENTIFIER('') ) ;
#423 =( GEOMETRIC_REPRESENTATION_CONTEXT ( 3 ) GLOBAL_UNCERTAINTY_ASSIGNED_CONTEXT ( ( #515 ) ) GLOBAL_UNIT_ASSIGNED_CONTEXT ( ( #277, #2, #12 ) ) REPRESENTATION_CONTEXT ( 'NONE', 'WORKASPACE' ) );
#424 =( NAMED_UNIT ( * ) PLANE_ANGLE_UNIT ( ) SI_UNIT ( $, .RADIAN. ) );
#425 = PROPERTY_DEFINITION_REPRESENTATION ( #190, #825 ) ;
#426 = DIRECTION ( 'NONE',  ( 0.9820818503191365290, 3.155443620884047222E-29, -0.1884548733085490979 ) ) ;
#427 = IDENTIFICATION_ROLE ( 'external document id and location', $) ;
#428 = PRODUCT_DEFINITION_FORMATION_WITH_SPECIFIED_SOURCE ( 'å¯', '', #44, .NOT_KNOWN. ) ;
#429 = DOCUMENT_FILE ( 'm3x18\X2\9500\X0\A.STEP' , '', '', #986, '' ,$ ) ;
#430 = CARTESIAN_POINT ( 'NONE',  ( 0.000000000000000000, 0.000000000000000000, 0.000000000000000000 ) ) ;
#431 = APPLICATION_PROTOCOL_DEFINITION ( 'draft international standard', 'automotive_design', 1998, #772 ) ;
#432 = PRODUCT_RELATED_PRODUCT_CATEGORY ( 'part', '', ( #799 ) ) ;
#433 = APPLIED_DOCUMENT_REFERENCE ( #774,'',( #87) ) ;
#434 =( NAMED_UNIT ( * ) SI_UNIT ( $, .STERADIAN. ) SOLID_ANGLE_UNIT ( ) );
#435 = PRODUCT_DEFINITION_SHAPE ( 'NONE', 'NONE',  #1088 ) ;
#436 = SHAPE_DEFINITION_REPRESENTATION ( #142, #415 ) ;
#437 = DIRECTION ( 'NONE',  ( 1.000000000000000000, 0.000000000000000000, 0.000000000000000000 ) ) ;
#438 = PROPERTY_DEFINITION_REPRESENTATION ( #641, #106 ) ;
#439 = AXIS2_PLACEMENT_3D ( 'NONE', #319, #995, #746 ) ;
#440 = APPLICATION_PROTOCOL_DEFINITION ( 'draft international standard', 'automotive_design', 1998, #455 ) ;
#441 = IDENTIFICATION_ROLE ( 'external document id and location', $) ;
#442 = APPLIED_EXTERNAL_IDENTIFICATION_ASSIGNMENT ( '3508A.STEP' , #346, #965,( #961) ) ;
#443 = PROPERTY_DEFINITION ('external definition','', #526 ) ;
#444 = SHAPE_DEFINITION_REPRESENTATION ( #822, #599 ) ;
#445 = AXIS2_PLACEMENT_3D ( 'NONE', #375, #706, #545 ) ;
#446 = PRODUCT_DEFINITION_CONTEXT ( 'detailed design', #468, 'design' ) ;
#447 = PROPERTY_DEFINITION_REPRESENTATION ( #406, #106 ) ;
#448 = APPLIED_DOCUMENT_REFERENCE ( #598,'',( #29) ) ;
#449 = PRODUCT_DEFINITION ( 'æ™', '', #83, #187 ) ;
#450 = PROPERTY_DEFINITION_REPRESENTATION ( #500, #600 ) ;
#451 = IDENTIFICATION_ROLE ( 'external document id and location', $) ;
#452 = ITEM_DEFINED_TRANSFORMATION ( 'NONE', 'NONE', #347,  #957 ) ;
#453 = ITEM_DEFINED_TRANSFORMATION ( 'NONE', 'NONE', #180,  #126 ) ;
#454 =( GEOMETRIC_REPRESENTATION_CONTEXT ( 3 ) GLOBAL_UNCERTAINTY_ASSIGNED_CONTEXT ( ( #110 ) ) GLOBAL_UNIT_ASSIGNED_CONTEXT ( ( #303, #284, #199 ) ) REPRESENTATION_CONTEXT ( 'NONE', 'WORKASPACE' ) );
#455 = APPLICATION_CONTEXT ( 'automotive_design' ) ;
#456 = IDENTIFICATION_ROLE ( 'external document id and location', $) ;
#457 = PROPERTY_DEFINITION_REPRESENTATION ( #443, #233 ) ;
#458 =( REPRESENTATION_RELATIONSHIP ('NONE','NONE', #677, #630 ) REPRESENTATION_RELATIONSHIP_WITH_TRANSFORMATION ( #562 )SHAPE_REPRESENTATION_RELATIONSHIP( ) );
#459 = CARTESIAN_POINT ( 'NONE',  ( 1252.205142320754248, 793.1043095618689449, -89.88211719212397099 ) ) ;
#460 = PROPERTY_DEFINITION_REPRESENTATION ( #544, #749 ) ;
#461 = APPLICATION_PROTOCOL_DEFINITION ( 'draft international standard', 'automotive_design', 1998, #733 ) ;
#462 = DIRECTION ( 'NONE',  ( -0.2232287166403529866, 1.893266172530428333E-29, 0.9747660950541421343 ) ) ;
#463 =( GEOMETRIC_REPRESENTATION_CONTEXT ( 3 ) GLOBAL_UNCERTAINTY_ASSIGNED_CONTEXT ( ( #757 ) ) GLOBAL_UNIT_ASSIGNED_CONTEXT ( ( #301, #916, #651 ) ) REPRESENTATION_CONTEXT ( 'NONE', 'WORKASPACE' ) );
#464 = PRODUCT_DEFINITION_CONTEXT ( 'detailed design', #994, 'design' ) ;
#465 = CARTESIAN_POINT ( 'NONE',  ( 1252.205142319970264, 776.1043095618690586, -89.88211720307801045 ) ) ;
#466 = AXIS2_PLACEMENT_3D ( 'NONE', #768, #674, #267 ) ;
#467 = OBJECT_ROLE ('mandatory',$ ) ;
#468 = APPLICATION_CONTEXT ( 'automotive_design' ) ;
#469 =( REPRESENTATION_RELATIONSHIP ('NONE','NONE', #677, #233 ) REPRESENTATION_RELATIONSHIP_WITH_TRANSFORMATION ( #49 )SHAPE_REPRESENTATION_RELATIONSHIP( ) );
#470 = ROLE_ASSOCIATION ( #867, #1045 ) ;
#471 = PRODUCT_DEFINITION_SHAPE ( 'NONE', 'NONE',  #418 ) ;
#472 = PRODUCT ( '\X2\570667f19f7f8f6e\X0\67\X2\00d7\X0\0.6A', '\X2\570667f19f7f8f6e\X0\67\X2\00d7\X0\0.6A', '', ( #276 ) ) ;
#473 =( LENGTH_UNIT ( ) NAMED_UNIT ( * ) SI_UNIT ( .MILLI., .METRE. ) );
#474 = DOCUMENT_FILE ( '\X2\53cc80549f7f8f6e\X0\2A.STEP' , '', '', #683, '' ,$ ) ;
#475 = DIRECTION ( 'NONE',  ( -0.1993893490678500802, 9.466330862652141665E-30, 0.9799203475172352240 ) ) ;
#476 = PRODUCT_DEFINITION_CONTEXT ( 'detailed design', #866, 'design' ) ;
#477 = APPLIED_EXTERNAL_IDENTIFICATION_ASSIGNMENT ( '\X2\53cc80549f7f8f6e\X0\2A.STEP' , #927, #622,( #474) ) ;
#478 = PRODUCT_DEFINITION_CONTEXT ( 'detailed design', #786, 'design' ) ;
#479 = DOCUMENT_FILE ( '\X2\570667f19f7f8f6e\X0\67\X2\00d7\X0\0.6A.STEP' , '', '', #167, '' ,$ ) ;
#480 = AXIS2_PLACEMENT_3D ( 'NONE', #395, #718, #392 ) ;
#481 = DIRECTION ( 'NONE',  ( 1.000000000000000222, 2.524354896707237777E-29, 0.000000000000000000 ) ) ;
#482 = PRODUCT_RELATED_PRODUCT_CATEGORY ( 'part', '', ( #720 ) ) ;
#483 = PRODUCT_DEFINITION_SHAPE ( 'NONE', 'NONE',  #223 ) ;
#484 = APPLIED_DOCUMENT_REFERENCE ( #144,'',( #899) ) ;
#485 = DIRECTION ( 'NONE',  ( 1.000000000000000000, 0.000000000000000000, 0.000000000000000000 ) ) ;
#486 = APPLIED_EXTERNAL_IDENTIFICATION_ASSIGNMENT ( '\X2\5c0f5934676f59345185516d89d2\X0\3x4A.STEP' , #900, #420,( #158) ) ;
#487 = ROLE_ASSOCIATION ( #161, #661 ) ;
#488 = APPLIED_EXTERNAL_IDENTIFICATION_ASSIGNMENT ( '120mm wA.STEP' , #928, #522,( #48) ) ;
#489 = CARTESIAN_POINT ( 'NONE',  ( 1244.927431079000371, 762.1043095618690586, -54.11502451868685171 ) ) ;
#490 = DOCUMENT_TYPE ( 'geometry' ) ;
#491 = EXTERNAL_SOURCE (IDENTIFIER('') ) ;
#492 = IDENTIFICATION_ROLE ( 'external document id and location', $) ;
#493 = PROPERTY_DEFINITION ('external definition','', #680 ) ;
#494 = CARTESIAN_POINT ( 'NONE',  ( 1266.564871700238427, 783.1043095618681491, -71.27974713550204910 ) ) ;
#495 = DOCUMENT_TYPE ( 'geometry' ) ;
#496 = PRODUCT ( '\X2\53cc80549f7f8f6e\X0\2A', '\X2\53cc80549f7f8f6e\X0\2A', '', ( #363 ) ) ;
#497 = ITEM_DEFINED_TRANSFORMATION ( 'NONE', 'NONE', #807,  #27 ) ;
#498 = SHAPE_DEFINITION_REPRESENTATION ( #302, #600 ) ;
#499 = UNCERTAINTY_MEASURE_WITH_UNIT (LENGTH_MEASURE( 1.000000000000000082E-05 ), #531, 'distance_accuracy_value', 'NONE');
#500 = PROPERTY_DEFINITION ('external definition','', #525 ) ;
#501 = ITEM_DEFINED_TRANSFORMATION ( 'NONE', 'NONE', #634,  #126 ) ;
#502 = APPLICATION_PROTOCOL_DEFINITION ( 'draft international standard', 'automotive_design', 1998, #848 ) ;
#503 = APPLICATION_CONTEXT ( 'automotive_design' ) ;
#504 = DOCUMENT_TYPE ( 'geometry' ) ;
#505 = PRODUCT_DEFINITION ( 'æ™', '', #341, #216 ) ;
#506 = AXIS2_PLACEMENT_3D ( 'NONE', #79, #573, #411 ) ;
#507 =( LENGTH_UNIT ( ) NAMED_UNIT ( * ) SI_UNIT ( .MILLI., .METRE. ) );
#508 = APPLIED_DOCUMENT_REFERENCE ( #429,'',( #223) ) ;
#509 = AXIS2_PLACEMENT_3D ( 'NONE', #379, #73, #969 ) ;
#510 = PRODUCT_DEFINITION_SHAPE ( 'NONE', 'NONE',  #1082 ) ;
#511 = APPLICATION_PROTOCOL_DEFINITION ( 'draft international standard', 'automotive_design', 1998, #547 ) ;
#512 = CARTESIAN_POINT ( 'NONE',  ( 1252.205142319948209, 783.1043095618680354, -89.88211720291094764 ) ) ;
#513 = IDENTIFICATION_ROLE ( 'external document id and location', $) ;
#514 =( GEOMETRIC_REPRESENTATION_CONTEXT ( 3 ) GLOBAL_UNCERTAINTY_ASSIGNED_CONTEXT ( ( #949 ) ) GLOBAL_UNIT_ASSIGNED_CONTEXT ( ( #943, #424, #842 ) ) REPRESENTATION_CONTEXT ( 'NONE', 'WORKASPACE' ) );
#515 = UNCERTAINTY_MEASURE_WITH_UNIT (LENGTH_MEASURE( 1.000000000000000082E-05 ), #277, 'distance_accuracy_value', 'NONE');
#516 = CARTESIAN_POINT ( 'NONE',  ( 0.000000000000000000, 0.000000000000000000, 0.000000000000000000 ) ) ;
#517 = ITEM_DEFINED_TRANSFORMATION ( 'NONE', 'NONE', #140,  #466 ) ;
#518 = DIRECTION ( 'NONE',  ( -0.3593931218705171404, -2.524354896707237777E-29, -0.9331862536236612549 ) ) ;
#519 = DIRECTION ( 'NONE',  ( 2.524354896707237777E-29, 1.000000000000000000, 1.893266172530428333E-29 ) ) ;
#520 = ITEM_DEFINED_TRANSFORMATION ( 'NONE', 'NONE', #616,  #939 ) ;
#521 = PRODUCT_DEFINITION_FORMATION_WITH_SPECIFIED_SOURCE ( 'å¯', '', #799, .NOT_KNOWN. ) ;
#522 = EXTERNAL_SOURCE (IDENTIFIER('') ) ;
#523 = PRODUCT_DEFINITION_SHAPE ( 'NONE', 'NONE',  #1105 ) ;
#524 = AXIS2_PLACEMENT_3D ( 'NONE', #401, #820, #561 ) ;
#525 = DOCUMENT_FILE ( '\X2\5185516d89d2570667f1593487ba9489\X0\ M3x20A.STEP' , '', '', #751, '' ,$ ) ;
#526 = DOCUMENT_FILE ( 'm3x18\X2\9500\X0\A.STEP' , '', '', #871, '' ,$ ) ;
#527 = DIRECTION ( 'NONE',  ( 0.000000000000000000, 1.893266172530428333E-29, 1.000000000000000222 ) ) ;
#528 = PROPERTY_DEFINITION ('document property','', #144 ) ;
#529 = PRODUCT_DEFINITION_SHAPE ( 'NONE', 'NONE',  #1104 ) ;
#530 = PROPERTY_DEFINITION_REPRESENTATION ( #977, #106 ) ;
#531 =( LENGTH_UNIT ( ) NAMED_UNIT ( * ) SI_UNIT ( .MILLI., .METRE. ) );
#532 = PROPERTY_DEFINITION_REPRESENTATION ( #758, #112 ) ;
#533 =( REPRESENTATION_RELATIONSHIP ('NONE','NONE', #677, #855 ) REPRESENTATION_RELATIONSHIP_WITH_TRANSFORMATION ( #575 )SHAPE_REPRESENTATION_RELATIONSHIP( ) );
#534 = DIRECTION ( 'NONE',  ( -2.524354896707237777E-29, -0.9999999999999998890, -2.524354896707237777E-29 ) ) ;
#535 =( REPRESENTATION_RELATIONSHIP ('NONE','NONE', #677, #233 ) REPRESENTATION_RELATIONSHIP_WITH_TRANSFORMATION ( #715 )SHAPE_REPRESENTATION_RELATIONSHIP( ) );
#536 = PROPERTY_DEFINITION ('document property','', #598 ) ;
#537 = DIRECTION ( 'NONE',  ( -0.3172839322217420044, 0.000000000000000000, -0.9483305891691511391 ) ) ;
#538 = APPLICATION_CONTEXT ( 'automotive_design' ) ;
#539 = DOCUMENT_TYPE ( 'geometry' ) ;
#540 = DIRECTION ( 'NONE',  ( 1.000000000000000000, 0.000000000000000000, 0.000000000000000000 ) ) ;
#541 = PROPERTY_DEFINITION_REPRESENTATION ( #596, #106 ) ;
#542 = PROPERTY_DEFINITION_REPRESENTATION ( #1038, #233 ) ;
#543 = DOCUMENT_TYPE ( 'geometry' ) ;
#544 = PROPERTY_DEFINITION ('external definition','', #839 ) ;
#545 = DIRECTION ( 'NONE',  ( -0.4029282920314209981, 3.313215801928249583E-29, 0.9152315507458438359 ) ) ;
#546 = PROPERTY_DEFINITION ('document property','', #48 ) ;
#547 = APPLICATION_CONTEXT ( 'automotive_design' ) ;
#548 = DOCUMENT_TYPE ( 'geometry' ) ;
#549 = SHAPE_REPRESENTATION ( '120mm wA', ( #712 ), #514 ) ;
#550 = DIRECTION ( 'NONE',  ( 0.000000000000000000, 0.000000000000000000, 1.000000000000000000 ) ) ;
#551 = PRODUCT_RELATED_PRODUCT_CATEGORY ( 'part', '', ( #567 ) ) ;
#552 = CARTESIAN_POINT ( 'NONE',  ( 1259.482853560941294, 762.1043095618690586, -125.6492098874689134 ) ) ;
#553 = PROPERTY_DEFINITION_REPRESENTATION ( #98, #855 ) ;
#554 = PRODUCT ( '3508A', '3508A', '', ( #914 ) ) ;
#555 = APPLIED_DOCUMENT_REFERENCE ( #158,'',( #899) ) ;
#556 = IDENTIFICATION_ROLE ( 'external document id and location', $) ;
#557 = PRODUCT_RELATED_PRODUCT_CATEGORY ( 'part', '', ( #382 ) ) ;
#558 = CARTESIAN_POINT ( 'NONE',  ( 1255.958018473895208, 763.2043095618680582, -103.8880416845300374 ) ) ;
#559 = PRODUCT_DEFINITION_SHAPE ( 'NONE', 'NONE',  #1098 ) ;
#560 =( NAMED_UNIT ( * ) PLANE_ANGLE_UNIT ( ) SI_UNIT ( $, .RADIAN. ) );
#561 = DIRECTION ( 'NONE',  ( 2.524354896707237777E-29, 1.000000000000000000, 1.893266172530428333E-29 ) ) ;
#562 = ITEM_DEFINED_TRANSFORMATION ( 'NONE', 'NONE', #506,  #387 ) ;
#563 = PROPERTY_DEFINITION_REPRESENTATION ( #285, #825 ) ;
#564 =( LENGTH_UNIT ( ) NAMED_UNIT ( * ) SI_UNIT ( .MILLI., .METRE. ) );
#565 = APPLIED_EXTERNAL_IDENTIFICATION_ASSIGNMENT ( '71810A.STEP' , #1011, #422,( #891) ) ;
#566 = APPLICATION_CONTEXT ( 'automotive_design' ) ;
#567 = PRODUCT ( '\X2\4e0b76d6\X0\w2A', '\X2\4e0b76d6\X0\w2A', '', ( #14 ) ) ;
#568 = AXIS2_PLACEMENT_3D ( 'NONE', #290, #550, #631 ) ;
#569 = PROPERTY_DEFINITION_REPRESENTATION ( #137, #630 ) ;
#570 =( NAMED_UNIT ( * ) PLANE_ANGLE_UNIT ( ) SI_UNIT ( $, .RADIAN. ) );
#571 = PROPERTY_DEFINITION ('external definition','', #367 ) ;
#572 = APPLIED_DOCUMENT_REFERENCE ( #479,'',( #941) ) ;
#573 = DIRECTION ( 'NONE',  ( -2.524354896707237777E-29, -1.000000000000000000, -1.893266172530428333E-29 ) ) ;
#574 = APPLIED_EXTERNAL_IDENTIFICATION_ASSIGNMENT ( '\X2\4e0a76d6\X0\w3A.STEP' , #682, #615,( #577) ) ;
#575 = ITEM_DEFINED_TRANSFORMATION ( 'NONE', 'NONE', #847,  #1041 ) ;
#576 = PRODUCT_DEFINITION_CONTEXT ( 'detailed design', #402, 'design' ) ;
#577 = DOCUMENT_FILE ( '\X2\4e0a76d6\X0\w3A.STEP' , '', '', #490, '' ,$ ) ;
#578 = DIRECTION ( 'NONE',  ( 0.000000000000000000, 0.000000000000000000, 1.000000000000000000 ) ) ;
#579 = PRODUCT_DEFINITION_SHAPE ( 'NONE', 'NONE',  #760 ) ;
#580 = PRODUCT_DEFINITION ( 'æ™', '', #860, #1037 ) ;
#581 = PROPERTY_DEFINITION_REPRESENTATION ( #108, #855 ) ;
#582 = DOCUMENT_TYPE ( 'geometry' ) ;
#583 = ITEM_DEFINED_TRANSFORMATION ( 'NONE', 'NONE', #309,  #27 ) ;
#584 = OBJECT_ROLE ('mandatory',$ ) ;
#585 = CARTESIAN_POINT ( 'NONE',  ( 1228.915152580828135, 783.1043095618680354, -86.74741180181510458 ) ) ;
#586 = AXIS2_PLACEMENT_3D ( 'NONE', #139, #117, #462 ) ;
#587 = PRODUCT_DEFINITION_SHAPE ( 'NONE', 'NONE',  #1084 ) ;
#588 = CARTESIAN_POINT ( 'NONE',  ( 0.000000000000000000, 0.000000000000000000, 0.000000000000000000 ) ) ;
#589 = ROLE_ASSOCIATION ( #750, #930 ) ;
#590 = DIRECTION ( 'NONE',  ( 1.000000000000000000, 0.000000000000000000, 0.000000000000000000 ) ) ;
#591 = DIRECTION ( 'NONE',  ( 0.9820818503191365290, 3.155443620884047222E-29, -0.1884548733085490979 ) ) ;
#592 = EXTERNAL_SOURCE (IDENTIFIER('') ) ;
#593 = APPLIED_EXTERNAL_IDENTIFICATION_ASSIGNMENT ( '\X2\5185516d89d2570667f1593487ba9489\X0\ M3x20A.STEP' , #513, #893,( #367) ) ;
#594 = ROLE_ASSOCIATION ( #942, #433 ) ;
#595 = APPLICATION_PROTOCOL_DEFINITION ( 'draft international standard', 'automotive_design', 1998, #174 ) ;
#596 = PROPERTY_DEFINITION ('external definition','', #197 ) ;
#597 = APPLIED_DOCUMENT_REFERENCE ( #94,'',( #87) ) ;
#598 = DOCUMENT_FILE ( '\X2\4e2d5fc3652f67b6\X0\WA.STEP' , '', '', #1032, '' ,$ ) ;
#599 = SHAPE_REPRESENTATION ( '\X2\570667f19f7f8f6e\X0\67\X2\00d7\X0\0.6A', ( #782 ), #372 ) ;
#600 = SHAPE_REPRESENTATION ( '\X2\5185516d89d2570667f1593487ba9489\X0\ M3x20A', ( #126 ), #852 ) ;
#601 = AXIS2_PLACEMENT_3D ( 'NONE', #489, #824, #322 ) ;
#602 = OBJECT_ROLE ('mandatory',$ ) ;
#603 = OBJECT_ROLE ('mandatory',$ ) ;
#604 =( GEOMETRIC_REPRESENTATION_CONTEXT ( 3 ) GLOBAL_UNCERTAINTY_ASSIGNED_CONTEXT ( ( #272 ) ) GLOBAL_UNIT_ASSIGNED_CONTEXT ( ( #617, #217, #416 ) ) REPRESENTATION_CONTEXT ( 'NONE', 'WORKASPACE' ) );
#605 = PRODUCT_DEFINITION_SHAPE ( 'NONE', 'NONE',  #1081 ) ;
#606 = APPLICATION_PROTOCOL_DEFINITION ( 'draft international standard', 'automotive_design', 1998, #350 ) ;
#607 = UNCERTAINTY_MEASURE_WITH_UNIT (LENGTH_MEASURE( 1.000000000000000082E-05 ), #507, 'distance_accuracy_value', 'NONE');
#608 = PROPERTY_DEFINITION_REPRESENTATION ( #334, #600 ) ;
#609 =( REPRESENTATION_RELATIONSHIP ('NONE','NONE', #677, #415 ) REPRESENTATION_RELATIONSHIP_WITH_TRANSFORMATION ( #611 )SHAPE_REPRESENTATION_RELATIONSHIP( ) );
#610 =( NAMED_UNIT ( * ) SI_UNIT ( $, .STERADIAN. ) SOLID_ANGLE_UNIT ( ) );
#611 = ITEM_DEFINED_TRANSFORMATION ( 'NONE', 'NONE', #795,  #666 ) ;
#612 = APPLIED_DOCUMENT_REFERENCE ( #525,'',( #694) ) ;
#613 = PRODUCT_DEFINITION_FORMATION_WITH_SPECIFIED_SOURCE ( 'å¯', '', #791, .NOT_KNOWN. ) ;
#614 = PRODUCT_CONTEXT ( 'NONE', #160, 'mechanical' ) ;
#615 = EXTERNAL_SOURCE (IDENTIFIER('') ) ;
#616 = AXIS2_PLACEMENT_3D ( 'NONE', #798, #219, #640 ) ;
#617 =( LENGTH_UNIT ( ) NAMED_UNIT ( * ) SI_UNIT ( .MILLI., .METRE. ) );
#618 = PROPERTY_DEFINITION_REPRESENTATION ( #173, #146 ) ;
#619 = CARTESIAN_POINT ( 'NONE',  ( 1262.458190647124411, 763.2043095618689676, -79.62906887613388562 ) ) ;
#620 = PROPERTY_DEFINITION ('external definition','', #885 ) ;
#621 = APPLICATION_CONTEXT ( 'automotive_design' ) ;
#622 = EXTERNAL_SOURCE (IDENTIFIER('') ) ;
#623 = PROPERTY_DEFINITION_REPRESENTATION ( #296, #377 ) ;
#624 =( GEOMETRIC_REPRESENTATION_CONTEXT ( 3 ) GLOBAL_UNCERTAINTY_ASSIGNED_CONTEXT ( ( #695 ) ) GLOBAL_UNIT_ASSIGNED_CONTEXT ( ( #84, #844, #610 ) ) REPRESENTATION_CONTEXT ( 'NONE', 'WORKASPACE' ) );
#625 = PROPERTY_DEFINITION_REPRESENTATION ( #929, #233 ) ;
#626 = CONTEXT_DEPENDENT_SHAPE_REPRESENTATION ( #533, #24 ) ;
#627 = CARTESIAN_POINT ( 'NONE',  ( 1252.205142319948209, 790.1043095618679217, -89.88211720291089080 ) ) ;
#628 = APPLIED_EXTERNAL_IDENTIFICATION_ASSIGNMENT ( '\X2\5185516d89d25e735706593487ba9489\X0\ M3x14A.STEP' , #1035, #196,( #243) ) ;
#629 = PRODUCT_DEFINITION_SHAPE ( 'NONE', 'NONE',  #767 ) ;
#630 = SHAPE_REPRESENTATION ( '\X2\5185516d89d2570667f1593487ba9489\X0\ M3x4A', ( #387 ), #95 ) ;
#631 = DIRECTION ( 'NONE',  ( 1.000000000000000000, 0.000000000000000000, 0.000000000000000000 ) ) ;
#632 = DIRECTION ( 'NONE',  ( 1.000000000000000222, 2.524354896707237777E-29, 0.000000000000000000 ) ) ;
#633 = PRODUCT_DEFINITION_SHAPE ( 'NONE', 'NONE',  #1107 ) ;
#634 = AXIS2_PLACEMENT_3D ( 'NONE', #878, #383, #882 ) ;
#635 = APPLIED_DOCUMENT_REFERENCE ( #48,'',( #996) ) ;
#636 = DIRECTION ( 'NONE',  ( 1.000000000000000000, 0.000000000000000000, 0.000000000000000000 ) ) ;
#637 = PRODUCT_DEFINITION_SHAPE ( 'NONE', 'NONE',  #1109 ) ;
#638 = OBJECT_ROLE ('mandatory',$ ) ;
#639 = PRODUCT ( '\X2\4e2d5fc3652f67b6\X0\WA', '\X2\4e2d5fc3652f67b6\X0\WA', '', ( #92 ) ) ;
#640 = DIRECTION ( 'NONE',  ( -0.01160617053120094333, 6.310887241768094443E-30, 0.9999326461345288131 ) ) ;
#641 = PROPERTY_DEFINITION ('external definition','', #94 ) ;
#642 = PROPERTY_DEFINITION_REPRESENTATION ( #214, #855 ) ;
#643 = CONTEXT_DEPENDENT_SHAPE_REPRESENTATION ( #237, #906 ) ;
#644 = DIRECTION ( 'NONE',  ( -0.2232287166403529866, 1.893266172530428333E-29, 0.9747660950541421343 ) ) ;
#645 = APPLICATION_CONTEXT ( 'automotive_design' ) ;
#646 = IDENTIFICATION_ROLE ( 'external document id and location', $) ;
#647 = DOCUMENT_TYPE ( 'geometry' ) ;
#648 = APPLIED_EXTERNAL_IDENTIFICATION_ASSIGNMENT ( '\X2\5185516d89d25e735706593487ba9489\X0\ M3x14A.STEP' , #646, #892,( #738) ) ;
#649 = PROPERTY_DEFINITION_REPRESENTATION ( #194, #855 ) ;
#650 = PRODUCT ( '\X2\5185516d89d2570667f1593487ba9489\X0\ M3x4A', '\X2\5185516d89d2570667f1593487ba9489\X0\ M3x4A', '', ( #328 ) ) ;
#651 =( NAMED_UNIT ( * ) SI_UNIT ( $, .STERADIAN. ) SOLID_ANGLE_UNIT ( ) );
#652 = APPLICATION_PROTOCOL_DEFINITION ( 'draft international standard', 'automotive_design', 1998, #866 ) ;
#653 = DOCUMENT_FILE ( '\X2\5185516d89d25e735706593487ba9489\X0\ M3x14A.STEP' , '', '', #504, '' ,$ ) ;
#654 = IDENTIFICATION_ROLE ( 'external document id and location', $) ;
#655 =( NAMED_UNIT ( * ) PLANE_ANGLE_UNIT ( ) SI_UNIT ( $, .RADIAN. ) );
#656 = APPLIED_DOCUMENT_REFERENCE ( #74,'',( #326) ) ;
#657 = DIRECTION ( 'NONE',  ( 0.000000000000000000, 0.000000000000000000, 1.000000000000000000 ) ) ;
#658 = APPLICATION_PROTOCOL_DEFINITION ( 'draft international standard', 'automotive_design', 1998, #678 ) ;
#659 = AXIS2_PLACEMENT_3D ( 'NONE', #736, #829, #426 ) ;
#660 = PRODUCT_DEFINITION ( 'æ™', '', #521, #478 ) ;
#661 = APPLIED_DOCUMENT_REFERENCE ( #653,'',( #449) ) ;
#662 =( NAMED_UNIT ( * ) SI_UNIT ( $, .STERADIAN. ) SOLID_ANGLE_UNIT ( ) );
#663 = PROPERTY_DEFINITION_REPRESENTATION ( #82, #825 ) ;
#664 =( REPRESENTATION_RELATIONSHIP ('NONE','NONE', #677, #106 ) REPRESENTATION_RELATIONSHIP_WITH_TRANSFORMATION ( #796 )SHAPE_REPRESENTATION_RELATIONSHIP( ) );
#665 = APPLICATION_PROTOCOL_DEFINITION ( 'draft international standard', 'automotive_design', 1998, #566 ) ;
#666 = AXIS2_PLACEMENT_3D ( 'NONE', #905, #657, #741 ) ;
#667 = PROPERTY_DEFINITION_REPRESENTATION ( #686, #983 ) ;
#668 = APPLIED_EXTERNAL_IDENTIFICATION_ASSIGNMENT ( '\X2\5185516d89d2570667f1593487ba9489\X0\ M4x30A.STEP' , #16, #1068,( #777) ) ;
#669 = PRODUCT_DEFINITION_SHAPE ( 'NONE', 'NONE',  #899 ) ;
#670 = SHAPE_DEFINITION_REPRESENTATION ( #131, #549 ) ;
#671 = PROPERTY_DEFINITION ('external definition','', #369 ) ;
#672 = PROPERTY_DEFINITION ('external definition','', #777 ) ;
#673 = APPLIED_DOCUMENT_REFERENCE ( #577,'',( #418) ) ;
#674 = DIRECTION ( 'NONE',  ( 0.000000000000000000, 0.000000000000000000, 1.000000000000000000 ) ) ;
#675 = CARTESIAN_POINT ( 'NONE',  ( 0.000000000000000000, 0.000000000000000000, 0.000000000000000000 ) ) ;
#676 = AXIS2_PLACEMENT_3D ( 'NONE', #805, #726, #968 ) ;
#677 = SHAPE_REPRESENTATION ( '\X2\8f6e817f51cf901f7bb1603b88c5\X0\A', ( #743, #795, #140, #524, #962, #198, #54, #394, #724, #347, #770, #807, #868, #309, #105, #1, #480, #923, #616, #445, #634, #1070, #163, #586, #256, #676, #1019, #180, #275, #601, #883, #412, #847, #506, #708, #659 ), #91 ) ;
#678 = APPLICATION_CONTEXT ( 'automotive_design' ) ;
#679 = PROPERTY_DEFINITION ('document property','', #834 ) ;
#680 = DOCUMENT_FILE ( '\X2\5185516d89d2570667f1593487ba9489\X0\ M4x30A.STEP' , '', '', #271, '' ,$ ) ;
#681 = APPLIED_EXTERNAL_IDENTIFICATION_ASSIGNMENT ( 'm3x18\X2\9500\X0\A.STEP' , #864, #50,( #429) ) ;
#682 = IDENTIFICATION_ROLE ( 'external document id and location', $) ;
#683 = DOCUMENT_TYPE ( 'geometry' ) ;
#684 = EXTERNAL_SOURCE (IDENTIFIER('') ) ;
#685 = SHAPE_DEFINITION_REPRESENTATION ( #669, #825 ) ;
#686 = PROPERTY_DEFINITION ('external definition','', #577 ) ;
#687 = PROPERTY_DEFINITION_REPRESENTATION ( #1067, #233 ) ;
#688 =( NAMED_UNIT ( * ) PLANE_ANGLE_UNIT ( ) SI_UNIT ( $, .RADIAN. ) );
#689 = PROPERTY_DEFINITION_REPRESENTATION ( #536, #415 ) ;
#690 = PROPERTY_DEFINITION_REPRESENTATION ( #1006, #342 ) ;
#691 = ROLE_ASSOCIATION ( #351, #951 ) ;
#692 = DOCUMENT_TYPE ( 'geometry' ) ;
#693 = DIRECTION ( 'NONE',  ( 0.2786783640786192895, 2.524354896707237777E-29, 0.9603844903966665125 ) ) ;
#694 = PRODUCT_DEFINITION ( 'æ™', '', #428, #947 ) ;
#695 = UNCERTAINTY_MEASURE_WITH_UNIT (LENGTH_MEASURE( 1.000000000000000082E-05 ), #84, 'distance_accuracy_value', 'NONE');
#696 = CONTEXT_DEPENDENT_SHAPE_REPRESENTATION ( #168, #862 ) ;
#697 = ITEM_DEFINED_TRANSFORMATION ( 'NONE', 'NONE', #524,  #466 ) ;
#698 = DIRECTION ( 'NONE',  ( -0.9331862536236612549, -6.310887241768094443E-30, 0.3593931218705171404 ) ) ;
#699 = PROPERTY_DEFINITION ('external definition','', #144 ) ;
#700 = DOCUMENT_TYPE ( 'geometry' ) ;
#701 = OBJECT_ROLE ('mandatory',$ ) ;
#702 = PROPERTY_DEFINITION_REPRESENTATION ( #546, #549 ) ;
#703 = PRODUCT_DEFINITION_FORMATION_WITH_SPECIFIED_SOURCE ( 'å¯', '', #69, .NOT_KNOWN. ) ;
#704 = DIRECTION ( 'NONE',  ( 0.000000000000000000, 0.000000000000000000, 1.000000000000000000 ) ) ;
#705 = ROLE_ASSOCIATION ( #728, #31 ) ;
#706 = DIRECTION ( 'NONE',  ( -1.262177448353618889E-29, -0.9999999999999998890, -1.262177448353618889E-29 ) ) ;
#707 = CONTEXT_DEPENDENT_SHAPE_REPRESENTATION ( #1018, #529 ) ;
#708 = AXIS2_PLACEMENT_3D ( 'NONE', #494, #238, #407 ) ;
#709 =( NAMED_UNIT ( * ) PLANE_ANGLE_UNIT ( ) SI_UNIT ( $, .RADIAN. ) );
#710 = PROPERTY_DEFINITION_REPRESENTATION ( #348, #146 ) ;
#711 = CARTESIAN_POINT ( 'NONE',  ( 1252.205142321648282, 780.1043095618680354, -89.88211718121003457 ) ) ;
#712 = AXIS2_PLACEMENT_3D ( 'NONE', #890, #935, #437 ) ;
#713 = ITEM_DEFINED_TRANSFORMATION ( 'NONE', 'NONE', #256,  #439 ) ;
#714 =( GEOMETRIC_REPRESENTATION_CONTEXT ( 3 ) GLOBAL_UNCERTAINTY_ASSIGNED_CONTEXT ( ( #10 ) ) GLOBAL_UNIT_ASSIGNED_CONTEXT ( ( #838, #1030, #434 ) ) REPRESENTATION_CONTEXT ( 'NONE', 'WORKASPACE' ) );
#715 = ITEM_DEFINED_TRANSFORMATION ( 'NONE', 'NONE', #724,  #939 ) ;
#716 = IDENTIFICATION_ROLE ( 'external document id and location', $) ;
#717 = APPLICATION_CONTEXT ( 'automotive_design' ) ;
#718 = DIRECTION ( 'NONE',  ( 0.000000000000000000, 1.893266172530428333E-29, 1.000000000000000222 ) ) ;
#719 = PRODUCT_CONTEXT ( 'NONE', #195, 'mechanical' ) ;
#720 = PRODUCT ( '120mm wA', '120mm wA', '', ( #340 ) ) ;
#721 = PROPERTY_DEFINITION ('external definition','', #48 ) ;
#722 = DIRECTION ( 'NONE',  ( 0.9483305891691511391, 1.893266172530428333E-29, -0.3172839322217420044 ) ) ;
#723 = IDENTIFICATION_ROLE ( 'external document id and location', $) ;
#724 = AXIS2_PLACEMENT_3D ( 'NONE', #212, #894, #316 ) ;
#725 =( LENGTH_UNIT ( ) NAMED_UNIT ( * ) SI_UNIT ( .MILLI., .METRE. ) );
#726 = DIRECTION ( 'NONE',  ( -2.524354896707237777E-29, -1.000000000000000000, -1.893266172530428333E-29 ) ) ;
#727 = CONTEXT_DEPENDENT_SHAPE_REPRESENTATION ( #849, #953 ) ;
#728 = OBJECT_ROLE ('mandatory',$ ) ;
#729 = ROLE_ASSOCIATION ( #1003, #656 ) ;
#730 = OBJECT_ROLE ('mandatory',$ ) ;
#731 = APPLICATION_PROTOCOL_DEFINITION ( 'draft international standard', 'automotive_design', 1998, #195 ) ;
#732 =( LENGTH_UNIT ( ) NAMED_UNIT ( * ) SI_UNIT ( .MILLI., .METRE. ) );
#733 = APPLICATION_CONTEXT ( 'automotive_design' ) ;
#734 =( REPRESENTATION_RELATIONSHIP ('NONE','NONE', #677, #112 ) REPRESENTATION_RELATIONSHIP_WITH_TRANSFORMATION ( #225 )SHAPE_REPRESENTATION_RELATIONSHIP( ) );
#735 = OBJECT_ROLE ('mandatory',$ ) ;
#736 = CARTESIAN_POINT ( 'NONE',  ( 1230.482958123888466, 783.1043095618681491, -80.91569574547096977 ) ) ;
#737 = PRODUCT_DEFINITION_SHAPE ( 'NONE', 'NONE',  #1091 ) ;
#738 = DOCUMENT_FILE ( '\X2\5185516d89d25e735706593487ba9489\X0\ M3x14A.STEP' , '', '', #835, '' ,$ ) ;
#739 = CARTESIAN_POINT ( 'NONE',  ( 0.000000000000000000, 0.000000000000000000, 0.000000000000000000 ) ) ;
#740 = ITEM_DEFINED_TRANSFORMATION ( 'NONE', 'NONE', #105,  #509 ) ;
#741 = DIRECTION ( 'NONE',  ( 1.000000000000000000, 0.000000000000000000, 0.000000000000000000 ) ) ;
#742 = SHAPE_DEFINITION_REPRESENTATION ( #629, #677 ) ;
#743 = AXIS2_PLACEMENT_3D ( 'NONE', #675, #333, #485 ) ;
#744 = PRODUCT_DEFINITION_SHAPE ( 'NONE', 'NONE',  #660 ) ;
#745 = ROLE_ASSOCIATION ( #918, #413 ) ;
#746 = DIRECTION ( 'NONE',  ( 1.000000000000000000, 0.000000000000000000, 0.000000000000000000 ) ) ;
#747 = PROPERTY_DEFINITION ('document property','', #94 ) ;
#748 = DIRECTION ( 'NONE',  ( -2.524354896707237777E-29, -1.000000000000000000, -1.893266172530428333E-29 ) ) ;
#749 = SHAPE_REPRESENTATION ( '\X2\53cc80549f7f8f6e\X0\2A', ( #466 ), #624 ) ;
#750 = OBJECT_ROLE ('mandatory',$ ) ;
#751 = DOCUMENT_TYPE ( 'geometry' ) ;
#752 = CONTEXT_DEPENDENT_SHAPE_REPRESENTATION ( #784, #775 ) ;
#753 = PRODUCT_DEFINITION_SHAPE ( 'NONE', 'NONE',  #1100 ) ;
#754 = CONTEXT_DEPENDENT_SHAPE_REPRESENTATION ( #299, #873 ) ;
#755 =( REPRESENTATION_RELATIONSHIP ('NONE','NONE', #677, #106 ) REPRESENTATION_RELATIONSHIP_WITH_TRANSFORMATION ( #954 )SHAPE_REPRESENTATION_RELATIONSHIP( ) );
#756 = APPLICATION_PROTOCOL_DEFINITION ( 'draft international standard', 'automotive_design', 1998, #909 ) ;
#757 = UNCERTAINTY_MEASURE_WITH_UNIT (LENGTH_MEASURE( 1.000000000000000082E-05 ), #301, 'distance_accuracy_value', 'NONE');
#758 = PROPERTY_DEFINITION ('document property','', #792 ) ;
#759 = APPLIED_DOCUMENT_REFERENCE ( #367,'',( #694) ) ;
#760 = PRODUCT_DEFINITION ( 'æ™', '', #703, #1072 ) ;
#761 = PROPERTY_DEFINITION_REPRESENTATION ( #747, #106 ) ;
#762 = ROLE_ASSOCIATION ( #602, #448 ) ;
#763 = PROPERTY_DEFINITION ('external definition','', #891 ) ;
#764 = APPLICATION_CONTEXT ( 'automotive_design' ) ;
#765 = UNCERTAINTY_MEASURE_WITH_UNIT (LENGTH_MEASURE( 1.000000000000000082E-05 ), #564, 'distance_accuracy_value', 'NONE');
#766 = PROPERTY_DEFINITION_REPRESENTATION ( #325, #106 ) ;
#767 = PRODUCT_DEFINITION ( 'æ™', '', #613, #361 ) ;
#768 = CARTESIAN_POINT ( 'NONE',  ( 0.000000000000000000, 0.000000000000000000, 0.000000000000000000 ) ) ;
#769 = APPLICATION_PROTOCOL_DEFINITION ( 'draft international standard', 'automotive_design', 1998, #810 ) ;
#770 = AXIS2_PLACEMENT_3D ( 'NONE', #886, #1065, #226 ) ;
#771 = CARTESIAN_POINT ( 'NONE',  ( 1252.205142319948209, 762.1043095618690586, -89.88211720291086237 ) ) ;
#772 = APPLICATION_CONTEXT ( 'automotive_design' ) ;
#773 =( NAMED_UNIT ( * ) PLANE_ANGLE_UNIT ( ) SI_UNIT ( $, .RADIAN. ) );
#774 = DOCUMENT_FILE ( '\X2\5185516d89d2570667f1593487ba9489\X0\ M4x30A.STEP' , '', '', #548, '' ,$ ) ;
#775 = PRODUCT_DEFINITION_SHAPE ( 'NONE', 'NONE',  #1089 ) ;
#776 = UNCERTAINTY_MEASURE_WITH_UNIT (LENGTH_MEASURE( 1.000000000000000082E-05 ), #368, 'distance_accuracy_value', 'NONE');
#777 = DOCUMENT_FILE ( '\X2\5185516d89d2570667f1593487ba9489\X0\ M4x30A.STEP' , '', '', #186, '' ,$ ) ;
#778 =( NAMED_UNIT ( * ) PLANE_ANGLE_UNIT ( ) SI_UNIT ( $, .RADIAN. ) );
#779 = CONTEXT_DEPENDENT_SHAPE_REPRESENTATION ( #205, #101 ) ;
#780 =( REPRESENTATION_RELATIONSHIP ('NONE','NONE', #677, #599 ) REPRESENTATION_RELATIONSHIP_WITH_TRANSFORMATION ( #295 )SHAPE_REPRESENTATION_RELATIONSHIP( ) );
#781 = APPLIED_EXTERNAL_IDENTIFICATION_ASSIGNMENT ( '\X2\5185516d89d2570667f1593487ba9489\X0\ M4x30A.STEP' , #492, #872,( #94) ) ;
#782 = AXIS2_PLACEMENT_3D ( 'NONE', #171, #30, #307 ) ;
#783 = ITEM_DEFINED_TRANSFORMATION ( 'NONE', 'NONE', #198,  #244 ) ;
#784 =( REPRESENTATION_RELATIONSHIP ('NONE','NONE', #677, #825 ) REPRESENTATION_RELATIONSHIP_WITH_TRANSFORMATION ( #828 )SHAPE_REPRESENTATION_RELATIONSHIP( ) );
#785 = APPLICATION_CONTEXT ( 'automotive_design' ) ;
#786 = APPLICATION_CONTEXT ( 'automotive_design' ) ;
#787 = CARTESIAN_POINT ( 'NONE',  ( 1252.205142319952301, 790.1043095618679217, -89.88211720291091922 ) ) ;
#788 = IDENTIFICATION_ROLE ( 'external document id and location', $) ;
#789 = ITEM_DEFINED_TRANSFORMATION ( 'NONE', 'NONE', #601,  #439 ) ;
#790 = DIRECTION ( 'NONE',  ( 1.000000000000000222, 2.524354896707237777E-29, 0.000000000000000000 ) ) ;
#791 = PRODUCT ( '\X2\8f6e817f51cf901f7bb1603b88c5\X0\A', '\X2\8f6e817f51cf901f7bb1603b88c5\X0\A', '', ( #1071 ) ) ;
#792 = DOCUMENT_FILE ( '71810A.STEP' , '', '', #952, '' ,$ ) ;
#793 =( GEOMETRIC_REPRESENTATION_CONTEXT ( 3 ) GLOBAL_UNCERTAINTY_ASSIGNED_CONTEXT ( ( #960 ) ) GLOBAL_UNIT_ASSIGNED_CONTEXT ( ( #732, #241, #911 ) ) REPRESENTATION_CONTEXT ( 'NONE', 'WORKASPACE' ) );
#794 = DIRECTION ( 'NONE',  ( 2.524354896707237777E-29, 1.000000000000000000, 1.893266172530428333E-29 ) ) ;
#795 = AXIS2_PLACEMENT_3D ( 'NONE', #355, #227, #790 ) ;
#796 = ITEM_DEFINED_TRANSFORMATION ( 'NONE', 'NONE', #676,  #439 ) ;
#797 = PRODUCT_RELATED_PRODUCT_CATEGORY ( 'part', '', ( #44 ) ) ;
#798 = CARTESIAN_POINT ( 'NONE',  ( 1247.779336648696244, 769.2043095618690813, -73.36478557336889139 ) ) ;
#799 = PRODUCT ( '71810A', '71810A', '', ( #851 ) ) ;
#800 = OBJECT_ROLE ('mandatory',$ ) ;
#801 = ITEM_DEFINED_TRANSFORMATION ( 'NONE', 'NONE', #1019,  #712 ) ;
#802 = OBJECT_ROLE ('mandatory',$ ) ;
#803 = PRODUCT_DEFINITION_FORMATION_WITH_SPECIFIED_SOURCE ( 'å¯', '', #496, .NOT_KNOWN. ) ;
#804 = PROPERTY_DEFINITION_REPRESENTATION ( #113, #112 ) ;
#805 = CARTESIAN_POINT ( 'NONE',  ( 1224.868787056262363, 762.1043095618691723, -114.0683463613608666 ) ) ;
#806 = PROPERTY_DEFINITION ('external definition','', #1013 ) ;
#807 = AXIS2_PLACEMENT_3D ( 'NONE', #133, #991, #1060 ) ;
#808 = ITEM_DEFINED_TRANSFORMATION ( 'NONE', 'NONE', #659,  #1041 ) ;
#809 = PROPERTY_DEFINITION_REPRESENTATION ( #966, #599 ) ;
#810 = APPLICATION_CONTEXT ( 'automotive_design' ) ;
#811 =( REPRESENTATION_RELATIONSHIP ('NONE','NONE', #677, #600 ) REPRESENTATION_RELATIONSHIP_WITH_TRANSFORMATION ( #176 )SHAPE_REPRESENTATION_RELATIONSHIP( ) );
#812 = PRODUCT ( '\X2\4e0a76d6\X0\w3A', '\X2\4e0a76d6\X0\w3A', '', ( #263 ) ) ;
#813 = DIRECTION ( 'NONE',  ( 0.5238739762349067242, 3.786532345060856666E-29, 0.8517957836382078485 ) ) ;
#814 = PRODUCT_RELATED_PRODUCT_CATEGORY ( 'part', '', ( #472 ) ) ;
#815 =( NAMED_UNIT ( * ) SI_UNIT ( $, .STERADIAN. ) SOLID_ANGLE_UNIT ( ) );
#816 = ROLE_ASSOCIATION ( #638, #484 ) ;
#817 = APPLIED_EXTERNAL_IDENTIFICATION_ASSIGNMENT ( '\X2\5185516d89d2570667f1593487ba9489\X0\ M4x30A.STEP' , #70, #854,( #774) ) ;
#818 = SHAPE_DEFINITION_REPRESENTATION ( #230, #106 ) ;
#819 = DOCUMENT_TYPE ( 'geometry' ) ;
#820 = DIRECTION ( 'NONE',  ( 0.05682556698936896966, -9.466330862652141665E-30, -0.9983841219372115994 ) ) ;
#821 = ROLE_ASSOCIATION ( #352, #903 ) ;
#822 = PRODUCT_DEFINITION_SHAPE ( 'NONE', 'NONE',  #941 ) ;
#823 = CONTEXT_DEPENDENT_SHAPE_REPRESENTATION ( #88, #264 ) ;
#824 = DIRECTION ( 'NONE',  ( -2.524354896707237777E-29, -1.000000000000000000, -1.893266172530428333E-29 ) ) ;
#825 = SHAPE_REPRESENTATION ( '\X2\5c0f5934676f59345185516d89d2\X0\3x4A', ( #27 ), #1005 ) ;
#826 = PROPERTY_DEFINITION ('document property','', #429 ) ;
#827 = CARTESIAN_POINT ( 'NONE',  ( 1247.779336648696244, 779.1043095618680354, -73.36478557336891981 ) ) ;
#828 = ITEM_DEFINED_TRANSFORMATION ( 'NONE', 'NONE', #1,  #27 ) ;
#829 = DIRECTION ( 'NONE',  ( -2.524354896707237777E-29, -1.000000000000000000, -1.893266172530428333E-29 ) ) ;
#830 = PRODUCT_DEFINITION_SHAPE ( 'NONE', 'NONE',  #505 ) ;
#831 = PROPERTY_DEFINITION_REPRESENTATION ( #115, #855 ) ;
#832 = APPLICATION_CONTEXT ( 'automotive_design' ) ;
#833 = PROPERTY_DEFINITION ('document property','', #266 ) ;
#834 = DOCUMENT_FILE ( '\X2\5c0f5934676f59345185516d89d2\X0\3x4A.STEP' , '', '', #901, '' ,$ ) ;
#835 = DOCUMENT_TYPE ( 'geometry' ) ;
#836 = APPLIED_EXTERNAL_IDENTIFICATION_ASSIGNMENT ( '\X2\5185516d89d2570667f1593487ba9489\X0\ M3x4A.STEP' , #788, #103,( #1013) ) ;
#837 = PROPERTY_DEFINITION_REPRESENTATION ( #921, #600 ) ;
#838 =( LENGTH_UNIT ( ) NAMED_UNIT ( * ) SI_UNIT ( .MILLI., .METRE. ) );
#839 = DOCUMENT_FILE ( '\X2\53cc80549f7f8f6e\X0\2A.STEP' , '', '', #249, '' ,$ ) ;
#840 = PRODUCT_DEFINITION_FORMATION_WITH_SPECIFIED_SOURCE ( 'å¯', '', #472, .NOT_KNOWN. ) ;
#841 =( REPRESENTATION_RELATIONSHIP ('NONE','NONE', #677, #600 ) REPRESENTATION_RELATIONSHIP_WITH_TRANSFORMATION ( #453 )SHAPE_REPRESENTATION_RELATIONSHIP( ) );
#842 =( NAMED_UNIT ( * ) SI_UNIT ( $, .STERADIAN. ) SOLID_ANGLE_UNIT ( ) );
#843 = ITEM_DEFINED_TRANSFORMATION ( 'NONE', 'NONE', #1070,  #439 ) ;
#844 =( NAMED_UNIT ( * ) PLANE_ANGLE_UNIT ( ) SI_UNIT ( $, .RADIAN. ) );
#845 = APPLICATION_PROTOCOL_DEFINITION ( 'draft international standard', 'automotive_design', 1998, #538 ) ;
#846 = IDENTIFICATION_ROLE ( 'external document id and location', $) ;
#847 = AXIS2_PLACEMENT_3D ( 'NONE', #60, #155, #246 ) ;
#848 = APPLICATION_CONTEXT ( 'automotive_design' ) ;
#849 =( REPRESENTATION_RELATIONSHIP ('NONE','NONE', #677, #855 ) REPRESENTATION_RELATIONSHIP_WITH_TRANSFORMATION ( #235 )SHAPE_REPRESENTATION_RELATIONSHIP( ) );
#850 = PRODUCT_DEFINITION_SHAPE ( 'NONE', 'NONE',  #1080 ) ;
#851 = PRODUCT_CONTEXT ( 'NONE', #350, 'mechanical' ) ;
#852 =( GEOMETRIC_REPRESENTATION_CONTEXT ( 3 ) GLOBAL_UNCERTAINTY_ASSIGNED_CONTEXT ( ( #1027 ) ) GLOBAL_UNIT_ASSIGNED_CONTEXT ( ( #725, #655, #662 ) ) REPRESENTATION_CONTEXT ( 'NONE', 'WORKASPACE' ) );
#853 = EXTERNAL_SOURCE (IDENTIFIER('') ) ;
#854 = EXTERNAL_SOURCE (IDENTIFIER('') ) ;
#855 = SHAPE_REPRESENTATION ( '\X2\5185516d89d25e735706593487ba9489\X0\ M3x14A', ( #1041 ), #321 ) ;
#856 = PROPERTY_DEFINITION_REPRESENTATION ( #127, #342 ) ;
#857 = PRODUCT_RELATED_PRODUCT_CATEGORY ( 'part', '', ( #554 ) ) ;
#858 = SHAPE_DEFINITION_REPRESENTATION ( #1014, #861 ) ;
#859 = PROPERTY_DEFINITION ('document property','', #479 ) ;
#860 = PRODUCT_DEFINITION_FORMATION_WITH_SPECIFIED_SOURCE ( 'å¯', '', #650, .NOT_KNOWN. ) ;
#861 = SHAPE_REPRESENTATION ( '\X2\4e0b76d6\X0\w2A', ( #568 ), #604 ) ;
#862 = PRODUCT_DEFINITION_SHAPE ( 'NONE', 'NONE',  #1102 ) ;
#863 = CONTEXT_DEPENDENT_SHAPE_REPRESENTATION ( #384, #46 ) ;
#864 = IDENTIFICATION_ROLE ( 'external document id and location', $) ;
#865 = PROPERTY_DEFINITION_REPRESENTATION ( #414, #749 ) ;
#866 = APPLICATION_CONTEXT ( 'automotive_design' ) ;
#867 = OBJECT_ROLE ('mandatory',$ ) ;
#868 = AXIS2_PLACEMENT_3D ( 'NONE', #459, #45, #475 ) ;
#869 = PRODUCT_DEFINITION_SHAPE ( 'NONE', 'NONE',  #1090 ) ;
#870 = ROLE_ASSOCIATION ( #62, #120 ) ;
#871 = DOCUMENT_TYPE ( 'geometry' ) ;
#872 = EXTERNAL_SOURCE (IDENTIFIER('') ) ;
#873 = PRODUCT_DEFINITION_SHAPE ( 'NONE', 'NONE',  #1094 ) ;
#874 = PROPERTY_DEFINITION_REPRESENTATION ( #887, #106 ) ;
#875 = DIRECTION ( 'NONE',  ( 0.000000000000000000, 0.000000000000000000, 1.000000000000000000 ) ) ;
#876 = CONTEXT_DEPENDENT_SHAPE_REPRESENTATION ( #987, #221 ) ;
#877 = PRODUCT ( '\X2\5185516d89d25e735706593487ba9489\X0\ M3x14A', '\X2\5185516d89d25e735706593487ba9489\X0\ M3x14A', '', ( #1021 ) ) ;
#878 = CARTESIAN_POINT ( 'NONE',  ( 1238.199217838723371, 763.2043095618689676, -86.12924104934397462 ) ) ;
#879 =( REPRESENTATION_RELATIONSHIP ('NONE','NONE', #677, #861 ) REPRESENTATION_RELATIONSHIP_WITH_TRANSFORMATION ( #245 )SHAPE_REPRESENTATION_RELATIONSHIP( ) );
#880 = CONTEXT_DEPENDENT_SHAPE_REPRESENTATION ( #53, #753 ) ;
#881 = CARTESIAN_POINT ( 'NONE',  ( 0.000000000000000000, 0.000000000000000000, 0.000000000000000000 ) ) ;
#882 = DIRECTION ( 'NONE',  ( 0.9820818503191366400, 2.524354896707237777E-29, -0.1884548733085489314 ) ) ;
#883 = AXIS2_PLACEMENT_3D ( 'NONE', #585, #748, #591 ) ;
#884 = IDENTIFICATION_ROLE ( 'external document id and location', $) ;
#885 = DOCUMENT_FILE ( 'm3x18\X2\9500\X0\A.STEP' , '', '', #324, '' ,$ ) ;
#886 = CARTESIAN_POINT ( 'NONE',  ( 1252.205142319954348, 771.1043095618690586, -89.88211720298089347 ) ) ;
#887 = PROPERTY_DEFINITION ('document property','', #777 ) ;
#888 = CARTESIAN_POINT ( 'NONE',  ( 1268.722473949490222, 779.1043095618681491, -94.30792287416595343 ) ) ;
#889 = PROPERTY_DEFINITION_REPRESENTATION ( #1040, #600 ) ;
#890 = CARTESIAN_POINT ( 'NONE',  ( 0.000000000000000000, 0.000000000000000000, 0.000000000000000000 ) ) ;
#891 = DOCUMENT_FILE ( '71810A.STEP' , '', '', #51, '' ,$ ) ;
#892 = EXTERNAL_SOURCE (IDENTIFIER('') ) ;
#893 = EXTERNAL_SOURCE (IDENTIFIER('') ) ;
#894 = DIRECTION ( 'NONE',  ( -0.8736777032244572583, -6.310887241768094443E-30, 0.4865051601868551345 ) ) ;
#895 = PRODUCT_DEFINITION_CONTEXT ( 'detailed design', #538, 'design' ) ;
#896 = PRODUCT_DEFINITION_FORMATION_WITH_SPECIFIED_SOURCE ( 'å¯', '', #554, .NOT_KNOWN. ) ;
#897 = ITEM_DEFINED_TRANSFORMATION ( 'NONE', 'NONE', #480,  #27 ) ;
#898 = DIRECTION ( 'NONE',  ( -2.524354896707237777E-29, -1.000000000000000000, -1.893266172530428333E-29 ) ) ;
#899 = PRODUCT_DEFINITION ( 'æ™', '', #8, #40 ) ;
#900 = IDENTIFICATION_ROLE ( 'external document id and location', $) ;
#901 = DOCUMENT_TYPE ( 'geometry' ) ;
#902 = EXTERNAL_SOURCE (IDENTIFIER('') ) ;
#903 = APPLIED_DOCUMENT_REFERENCE ( #125,'',( #449) ) ;
#904 = PROPERTY_DEFINITION_REPRESENTATION ( #19, #983 ) ;
#905 = CARTESIAN_POINT ( 'NONE',  ( 0.000000000000000000, 0.000000000000000000, 0.000000000000000000 ) ) ;
#906 = PRODUCT_DEFINITION_SHAPE ( 'NONE', 'NONE',  #1078 ) ;
#907 = PRODUCT_RELATED_PRODUCT_CATEGORY ( 'part', '', ( #974 ) ) ;
#908 = APPLICATION_CONTEXT ( 'automotive_design' ) ;
#909 = APPLICATION_CONTEXT ( 'automotive_design' ) ;
#910 = CONTEXT_DEPENDENT_SHAPE_REPRESENTATION ( #458, #633 ) ;
#911 =( NAMED_UNIT ( * ) SI_UNIT ( $, .STERADIAN. ) SOLID_ANGLE_UNIT ( ) );
#912 = ROLE_ASSOCIATION ( #143, #1015 ) ;
#913 = APPLIED_EXTERNAL_IDENTIFICATION_ASSIGNMENT ( '\X2\5c0f5934676f59345185516d89d2\X0\3x4A.STEP' , #222, #162,( #410) ) ;
#914 = PRODUCT_CONTEXT ( 'NONE', #621, 'mechanical' ) ;
#915 = PRODUCT ( '\X2\5c0f5934676f59345185516d89d2\X0\3x4A', '\X2\5c0f5934676f59345185516d89d2\X0\3x4A', '', ( #17 ) ) ;
#916 =( NAMED_UNIT ( * ) PLANE_ANGLE_UNIT ( ) SI_UNIT ( $, .RADIAN. ) );
#917 = PROPERTY_DEFINITION_REPRESENTATION ( #1047, #861 ) ;
#918 = OBJECT_ROLE ('mandatory',$ ) ;
#919 = EXTERNAL_SOURCE (IDENTIFIER('') ) ;
#920 = APPLICATION_PROTOCOL_DEFINITION ( 'draft international standard', 'automotive_design', 1998, #468 ) ;
#921 = PROPERTY_DEFINITION ('document property','', #367 ) ;
#922 = PRODUCT_DEFINITION_CONTEXT ( 'detailed design', #909, 'design' ) ;
#923 = AXIS2_PLACEMENT_3D ( 'NONE', #32, #310, #934 ) ;
#924 = DIRECTION ( 'NONE',  ( 1.000000000000000000, 0.000000000000000000, 0.000000000000000000 ) ) ;
#925 = PRODUCT_RELATED_PRODUCT_CATEGORY ( 'part', '', ( #639 ) ) ;
#926 = CARTESIAN_POINT ( 'NONE',  ( 1270.807512387357292, 783.1043095618681491, -75.52238782262105588 ) ) ;
#927 = IDENTIFICATION_ROLE ( 'external document id and location', $) ;
#928 = IDENTIFICATION_ROLE ( 'external document id and location', $) ;
#929 = PROPERTY_DEFINITION ('document property','', #885 ) ;
#930 = APPLIED_DOCUMENT_REFERENCE ( #13,'',( #505) ) ;
#931 = APPLICATION_PROTOCOL_DEFINITION ( 'draft international standard', 'automotive_design', 1998, #645 ) ;
#932 =( REPRESENTATION_RELATIONSHIP ('NONE','NONE', #677, #749 ) REPRESENTATION_RELATIONSHIP_WITH_TRANSFORMATION ( #517 )SHAPE_REPRESENTATION_RELATIONSHIP( ) );
#933 = DOCUMENT_TYPE ( 'geometry' ) ;
#934 = DIRECTION ( 'NONE',  ( 1.000000000000000222, 3.786532345060856666E-29, -1.248945391552069850E-12 ) ) ;
#935 = DIRECTION ( 'NONE',  ( 0.000000000000000000, 0.000000000000000000, 1.000000000000000000 ) ) ;
#936 = ROLE_ASSOCIATION ( #177, #759 ) ;
#937 = DIRECTION ( 'NONE',  ( 0.000000000000000000, 0.000000000000000000, 1.000000000000000000 ) ) ;
#938 = PRODUCT_DEFINITION_SHAPE ( 'NONE', 'NONE',  #1087 ) ;
#939 = AXIS2_PLACEMENT_3D ( 'NONE', #516, #937, #590 ) ;
#940 = PRODUCT_CONTEXT ( 'NONE', #547, 'mechanical' ) ;
#941 = PRODUCT_DEFINITION ( 'æ™', '', #840, #576 ) ;
#942 = OBJECT_ROLE ('mandatory',$ ) ;
#943 =( LENGTH_UNIT ( ) NAMED_UNIT ( * ) SI_UNIT ( .MILLI., .METRE. ) );
#944 = ROLE_ASSOCIATION ( #76, #597 ) ;
#945 = EXTERNAL_SOURCE (IDENTIFIER('') ) ;
#946 = APPLICATION_PROTOCOL_DEFINITION ( 'draft international standard', 'automotive_design', 1998, #717 ) ;
#947 = PRODUCT_DEFINITION_CONTEXT ( 'detailed design', #175, 'design' ) ;
#948 = APPLIED_EXTERNAL_IDENTIFICATION_ASSIGNMENT ( 'm3x18\X2\9500\X0\A.STEP' , #556, #919,( #885) ) ;
#949 = UNCERTAINTY_MEASURE_WITH_UNIT (LENGTH_MEASURE( 1.000000000000000082E-05 ), #943, 'distance_accuracy_value', 'NONE');
#950 = APPLIED_DOCUMENT_REFERENCE ( #680,'',( #87) ) ;
#951 = APPLIED_DOCUMENT_REFERENCE ( #369,'',( #132) ) ;
#952 = DOCUMENT_TYPE ( 'geometry' ) ;
#953 = PRODUCT_DEFINITION_SHAPE ( 'NONE', 'NONE',  #1108 ) ;
#954 = ITEM_DEFINED_TRANSFORMATION ( 'NONE', 'NONE', #586,  #439 ) ;
#955 = DIRECTION ( 'NONE',  ( 1.000000000000000000, 0.000000000000000000, 0.000000000000000000 ) ) ;
#956 = PROPERTY_DEFINITION_REPRESENTATION ( #671, #749 ) ;
#957 = AXIS2_PLACEMENT_3D ( 'NONE', #138, #875, #22 ) ;
#958 =( REPRESENTATION_RELATIONSHIP ('NONE','NONE', #677, #855 ) REPRESENTATION_RELATIONSHIP_WITH_TRANSFORMATION ( #808 )SHAPE_REPRESENTATION_RELATIONSHIP( ) );
#959 = ITEM_DEFINED_TRANSFORMATION ( 'NONE', 'NONE', #962,  #466 ) ;
#960 = UNCERTAINTY_MEASURE_WITH_UNIT (LENGTH_MEASURE( 1.000000000000000082E-05 ), #732, 'distance_accuracy_value', 'NONE');
#961 = DOCUMENT_FILE ( '3508A.STEP' , '', '', #1046, '' ,$ ) ;
#962 = AXIS2_PLACEMENT_3D ( 'NONE', #888, #408, #519 ) ;
#963 = EXTERNAL_SOURCE (IDENTIFIER('') ) ;
#964 = CONTEXT_DEPENDENT_SHAPE_REPRESENTATION ( #664, #61 ) ;
#965 = EXTERNAL_SOURCE (IDENTIFIER('') ) ;
#966 = PROPERTY_DEFINITION ('external definition','', #479 ) ;
#967 = APPLIED_DOCUMENT_REFERENCE ( #792,'',( #660) ) ;
#968 = DIRECTION ( 'NONE',  ( -0.2232287166403529866, 1.893266172530428333E-29, 0.9747660950541421343 ) ) ;
#969 = DIRECTION ( 'NONE',  ( 1.000000000000000000, 0.000000000000000000, 0.000000000000000000 ) ) ;
#970 = ROLE_ASSOCIATION ( #109, #612 ) ;
#971 = APPLICATION_CONTEXT ( 'automotive_design' ) ;
#972 = EXTERNAL_SOURCE (IDENTIFIER('') ) ;
#973 = APPLIED_EXTERNAL_IDENTIFICATION_ASSIGNMENT ( '\X2\5185516d89d2570667f1593487ba9489\X0\ M3x20A.STEP' , #451, #902,( #525) ) ;
#974 = PRODUCT ( '\X2\5185516d89d2570667f1593487ba9489\X0\ M4x30A', '\X2\5185516d89d2570667f1593487ba9489\X0\ M4x30A', '', ( #719 ) ) ;
#975 = DIRECTION ( 'NONE',  ( 0.9820818503191366400, 2.524354896707237777E-29, -0.1884548733085489314 ) ) ;
#976 = PRODUCT_RELATED_PRODUCT_CATEGORY ( 'part', '', ( #915 ) ) ;
#977 = PROPERTY_DEFINITION ('document property','', #202 ) ;
#978 = CONTEXT_DEPENDENT_SHAPE_REPRESENTATION ( #734, #850 ) ;
#979 = OBJECT_ROLE ('mandatory',$ ) ;
#980 = DIRECTION ( 'NONE',  ( 0.000000000000000000, 1.893266172530428333E-29, 1.000000000000000222 ) ) ;
#981 = IDENTIFICATION_ROLE ( 'external document id and location', $) ;
#982 = PROPERTY_DEFINITION_REPRESENTATION ( #721, #549 ) ;
#983 = SHAPE_REPRESENTATION ( '\X2\4e0a76d6\X0\w3A', ( #509 ), #463 ) ;
#984 = DIRECTION ( 'NONE',  ( 1.000000000000000222, 2.524354896707237777E-29, 0.000000000000000000 ) ) ;
#985 = PRODUCT_DEFINITION_SHAPE ( 'NONE', 'NONE',  #1095 ) ;
#986 = DOCUMENT_TYPE ( 'geometry' ) ;
#987 =( REPRESENTATION_RELATIONSHIP ('NONE','NONE', #677, #112 ) REPRESENTATION_RELATIONSHIP_WITH_TRANSFORMATION ( #783 )SHAPE_REPRESENTATION_RELATIONSHIP( ) );
#988 = DOCUMENT_TYPE ( 'geometry' ) ;
#989 = PROPERTY_DEFINITION ('document property','', #243 ) ;
#990 = APPLIED_DOCUMENT_REFERENCE ( #56,'',( #449) ) ;
#991 = DIRECTION ( 'NONE',  ( 0.000000000000000000, 1.893266172530428333E-29, 1.000000000000000222 ) ) ;
#992 = APPLIED_EXTERNAL_IDENTIFICATION_ASSIGNMENT ( '\X2\5185516d89d2570667f1593487ba9489\X0\ M4x30A.STEP' , #23, #257,( #197) ) ;
#993 = PRODUCT ( '\X2\4fdd630167b6\X0\W3A', '\X2\4fdd630167b6\X0\W3A', '', ( #614 ) ) ;
#994 = APPLICATION_CONTEXT ( 'automotive_design' ) ;
#995 = DIRECTION ( 'NONE',  ( 0.000000000000000000, 0.000000000000000000, 1.000000000000000000 ) ) ;
#996 = PRODUCT_DEFINITION ( 'æ™', '', #251, #18 ) ;
#997 = PROPERTY_DEFINITION_REPRESENTATION ( #111, #825 ) ;
#998 = CARTESIAN_POINT ( 'NONE',  ( 0.000000000000000000, 0.000000000000000000, 0.000000000000000000 ) ) ;
#999 = APPLICATION_PROTOCOL_DEFINITION ( 'draft international standard', 'automotive_design', 1998, #908 ) ;
#1000 = APPLIED_DOCUMENT_REFERENCE ( #243,'',( #449) ) ;
#1001 = PROPERTY_DEFINITION_REPRESENTATION ( #357, #825 ) ;
#1002 = APPLIED_EXTERNAL_IDENTIFICATION_ASSIGNMENT ( 'm3x18\X2\9500\X0\A.STEP' , #11, #75,( #526) ) ;
#1003 = OBJECT_ROLE ('mandatory',$ ) ;
#1004 = SHAPE_DEFINITION_REPRESENTATION ( #312, #855 ) ;
#1005 =( GEOMETRIC_REPRESENTATION_CONTEXT ( 3 ) GLOBAL_UNCERTAINTY_ASSIGNED_CONTEXT ( ( #499 ) ) GLOBAL_UNIT_ASSIGNED_CONTEXT ( ( #531, #778, #224 ) ) REPRESENTATION_CONTEXT ( 'NONE', 'WORKASPACE' ) );
#1006 = PROPERTY_DEFINITION ('external definition','', #13 ) ;
#1007 = PROPERTY_DEFINITION_REPRESENTATION ( #366, #855 ) ;
#1008 = PROPERTY_DEFINITION_REPRESENTATION ( #699, #825 ) ;
#1009 = DIRECTION ( 'NONE',  ( 0.000000000000000000, 0.000000000000000000, 1.000000000000000000 ) ) ;
#1010 = APPLICATION_PROTOCOL_DEFINITION ( 'draft international standard', 'automotive_design', 1998, #421 ) ;
#1011 = IDENTIFICATION_ROLE ( 'external document id and location', $) ;
#1012 =( REPRESENTATION_RELATIONSHIP ('NONE','NONE', #677, #106 ) REPRESENTATION_RELATIONSHIP_WITH_TRANSFORMATION ( #713 )SHAPE_REPRESENTATION_RELATIONSHIP( ) );
#1013 = DOCUMENT_FILE ( '\X2\5185516d89d2570667f1593487ba9489\X0\ M3x4A.STEP' , '', '', #495, '' ,$ ) ;
#1014 = PRODUCT_DEFINITION_SHAPE ( 'NONE', 'NONE',  #326 ) ;
#1015 = APPLIED_DOCUMENT_REFERENCE ( #834,'',( #899) ) ;
#1016 = PRODUCT_DEFINITION_FORMATION_WITH_SPECIFIED_SOURCE ( 'å¯', '', #567, .NOT_KNOWN. ) ;
#1017 = PRODUCT_CONTEXT ( 'NONE', #645, 'mechanical' ) ;
#1018 =( REPRESENTATION_RELATIONSHIP ('NONE','NONE', #677, #855 ) REPRESENTATION_RELATIONSHIP_WITH_TRANSFORMATION ( #28 )SHAPE_REPRESENTATION_RELATIONSHIP( ) );
#1019 = AXIS2_PLACEMENT_3D ( 'NONE', #711, #794, #292 ) ;
#1020 = CARTESIAN_POINT ( 'NONE',  ( 0.000000000000000000, 0.000000000000000000, 0.000000000000000000 ) ) ;
#1021 = PRODUCT_CONTEXT ( 'NONE', #733, 'mechanical' ) ;
#1022 = PROPERTY_DEFINITION ('external definition','', #125 ) ;
#1023 = ROLE_ASSOCIATION ( #330, #950 ) ;
#1024 = IDENTIFICATION_ROLE ( 'external document id and location', $) ;
#1025 = APPLICATION_PROTOCOL_DEFINITION ( 'draft international standard', 'automotive_design', 1998, #786 ) ;
#1026 = APPLIED_EXTERNAL_IDENTIFICATION_ASSIGNMENT ( '\X2\5185516d89d2570667f1593487ba9489\X0\ M3x20A.STEP' , #441, #592,( #266) ) ;
#1027 = UNCERTAINTY_MEASURE_WITH_UNIT (LENGTH_MEASURE( 1.000000000000000082E-05 ), #725, 'distance_accuracy_value', 'NONE');
#1028 = APPLIED_EXTERNAL_IDENTIFICATION_ASSIGNMENT ( '\X2\5185516d89d25e735706593487ba9489\X0\ M3x14A.STEP' , #1073, #972,( #125) ) ;
#1029 = DIRECTION ( 'NONE',  ( 1.000000000000000000, 0.000000000000000000, 0.000000000000000000 ) ) ;
#1030 =( NAMED_UNIT ( * ) PLANE_ANGLE_UNIT ( ) SI_UNIT ( $, .RADIAN. ) );
#1031 = SHAPE_DEFINITION_REPRESENTATION ( #471, #983 ) ;
#1032 = DOCUMENT_TYPE ( 'geometry' ) ;
#1033 = CONTEXT_DEPENDENT_SHAPE_REPRESENTATION ( #5, #985 ) ;
#1034 = APPLIED_EXTERNAL_IDENTIFICATION_ASSIGNMENT ( '71810A.STEP' , #884, #491,( #792) ) ;
#1035 = IDENTIFICATION_ROLE ( 'external document id and location', $) ;
#1036 = IDENTIFICATION_ROLE ( 'external document id and location', $) ;
#1037 = PRODUCT_DEFINITION_CONTEXT ( 'detailed design', #832, 'design' ) ;
#1038 = PROPERTY_DEFINITION ('document property','', #526 ) ;
#1039 = PROPERTY_DEFINITION_REPRESENTATION ( #331, #415 ) ;
#1040 = PROPERTY_DEFINITION ('document property','', #525 ) ;
#1041 = AXIS2_PLACEMENT_3D ( 'NONE', #588, #260, #89 ) ;
#1042 = PRODUCT_RELATED_PRODUCT_CATEGORY ( 'part', '', ( #791 ) ) ;
#1043 = OBJECT_ROLE ('mandatory',$ ) ;
#1044 = IDENTIFICATION_ROLE ( 'external document id and location', $) ;
#1045 = APPLIED_DOCUMENT_REFERENCE ( #777,'',( #87) ) ;
#1046 = DOCUMENT_TYPE ( 'geometry' ) ;
#1047 = PROPERTY_DEFINITION ('document property','', #74 ) ;
#1048 = APPLIED_EXTERNAL_IDENTIFICATION_ASSIGNMENT ( '\X2\53cc80549f7f8f6e\X0\2A.STEP' , #456, #211,( #369) ) ;
#1049 = UNCERTAINTY_MEASURE_WITH_UNIT (LENGTH_MEASURE( 1.000000000000000082E-05 ), #473, 'distance_accuracy_value', 'NONE');
#1050 = DIRECTION ( 'NONE',  ( 0.000000000000000000, 0.000000000000000000, 1.000000000000000000 ) ) ;
#1051 = APPLIED_DOCUMENT_REFERENCE ( #202,'',( #87) ) ;
#1052 = OBJECT_ROLE ('mandatory',$ ) ;
#1053 = DOCUMENT_FILE ( '\X2\8fde63a55ea7\X0\2A.STEP' , '', '', #819, '' ,$ ) ;
#1054 = DIRECTION ( 'NONE',  ( -0.2232287166403529866, 1.893266172530428333E-29, 0.9747660950541421343 ) ) ;
#1055 = APPLIED_EXTERNAL_IDENTIFICATION_ASSIGNMENT ( '\X2\8fde63a55ea7\X0\2A.STEP' , #654, #9,( #1053) ) ;
#1056 = PROPERTY_DEFINITION ('document property','', #474 ) ;
#1057 = ROLE_ASSOCIATION ( #603, #1051 ) ;
#1058 = PROPERTY_DEFINITION_REPRESENTATION ( #247, #749 ) ;
#1059 = PRODUCT_RELATED_PRODUCT_CATEGORY ( 'part', '', ( #69 ) ) ;
#1060 = DIRECTION ( 'NONE',  ( 1.000000000000000222, 2.524354896707237777E-29, 0.000000000000000000 ) ) ;
#1061 = PRODUCT_DEFINITION_SHAPE ( 'NONE', 'NONE',  #1075 ) ;
#1062 = ROLE_ASSOCIATION ( #584, #635 ) ;
#1063 = ROLE_ASSOCIATION ( #15, #26 ) ;
#1064 = PRODUCT_DEFINITION_SHAPE ( 'NONE', 'NONE',  #1077 ) ;
#1065 = DIRECTION ( 'NONE',  ( 0.000000000000000000, 1.000000000000000000, 0.000000000000000000 ) ) ;
#1066 = EXTERNAL_SOURCE (IDENTIFIER('') ) ;
#1067 = PROPERTY_DEFINITION ('external definition','', #429 ) ;
#1068 = EXTERNAL_SOURCE (IDENTIFIER('') ) ;
#1069 = DIRECTION ( 'NONE',  ( -0.8517957836382078485, -2.524354896707237777E-29, 0.5238739762349067242 ) ) ;
#1070 = AXIS2_PLACEMENT_3D ( 'NONE', #121, #305, #644 ) ;
#1071 = PRODUCT_CONTEXT ( 'NONE', #152, 'mechanical' ) ;
#1072 = PRODUCT_DEFINITION_CONTEXT ( 'detailed design', #270, 'design' ) ;
#1073 = IDENTIFICATION_ROLE ( 'external document id and location', $) ;
#1074 = PROPERTY_DEFINITION ('document property','', #680 ) ;
#1075 = NEXT_ASSEMBLY_USAGE_OCCURRENCE ( 'NAUO17', ' ', ' ', #767, #29, $ ) ;
#1076 = NEXT_ASSEMBLY_USAGE_OCCURRENCE ( 'NAUO18', ' ', ' ', #767, #132, $ ) ;
#1077 = NEXT_ASSEMBLY_USAGE_OCCURRENCE ( 'NAUO19', ' ', ' ', #767, #132, $ ) ;
#1078 = NEXT_ASSEMBLY_USAGE_OCCURRENCE ( 'NAUO20', ' ', ' ', #767, #132, $ ) ;
#1079 = NEXT_ASSEMBLY_USAGE_OCCURRENCE ( 'NAUO21', ' ', ' ', #767, #660, $ ) ;
#1080 = NEXT_ASSEMBLY_USAGE_OCCURRENCE ( 'NAUO22', ' ', ' ', #767, #660, $ ) ;
#1081 = NEXT_ASSEMBLY_USAGE_OCCURRENCE ( 'NAUO23', ' ', ' ', #767, #223, $ ) ;
#1082 = NEXT_ASSEMBLY_USAGE_OCCURRENCE ( 'NAUO24', ' ', ' ', #767, #223, $ ) ;
#1083 = NEXT_ASSEMBLY_USAGE_OCCURRENCE ( 'NAUO25', ' ', ' ', #767, #760, $ ) ;
#1084 = NEXT_ASSEMBLY_USAGE_OCCURRENCE ( 'NAUO26', ' ', ' ', #767, #941, $ ) ;
#1085 = NEXT_ASSEMBLY_USAGE_OCCURRENCE ( 'NAUO27', ' ', ' ', #767, #899, $ ) ;
#1086 = NEXT_ASSEMBLY_USAGE_OCCURRENCE ( 'NAUO28', ' ', ' ', #767, #326, $ ) ;
#1087 = NEXT_ASSEMBLY_USAGE_OCCURRENCE ( 'NAUO29', ' ', ' ', #767, #899, $ ) ;
#1088 = NEXT_ASSEMBLY_USAGE_OCCURRENCE ( 'NAUO30', ' ', ' ', #767, #418, $ ) ;
#1089 = NEXT_ASSEMBLY_USAGE_OCCURRENCE ( 'NAUO31', ' ', ' ', #767, #899, $ ) ;
#1090 = NEXT_ASSEMBLY_USAGE_OCCURRENCE ( 'NAUO32', ' ', ' ', #767, #899, $ ) ;
#1091 = NEXT_ASSEMBLY_USAGE_OCCURRENCE ( 'NAUO33', ' ', ' ', #767, #505, $ ) ;
#1092 = NEXT_ASSEMBLY_USAGE_OCCURRENCE ( 'NAUO34', ' ', ' ', #767, #223, $ ) ;
#1093 = NEXT_ASSEMBLY_USAGE_OCCURRENCE ( 'NAUO35', ' ', ' ', #767, #87, $ ) ;
#1094 = NEXT_ASSEMBLY_USAGE_OCCURRENCE ( 'NAUO36', ' ', ' ', #767, #694, $ ) ;
#1095 = NEXT_ASSEMBLY_USAGE_OCCURRENCE ( 'NAUO37', ' ', ' ', #767, #87, $ ) ;
#1096 = NEXT_ASSEMBLY_USAGE_OCCURRENCE ( 'NAUO38', ' ', ' ', #767, #694, $ ) ;
#1097 = NEXT_ASSEMBLY_USAGE_OCCURRENCE ( 'NAUO39', ' ', ' ', #767, #87, $ ) ;
#1098 = NEXT_ASSEMBLY_USAGE_OCCURRENCE ( 'NAUO40', ' ', ' ', #767, #87, $ ) ;
#1099 = NEXT_ASSEMBLY_USAGE_OCCURRENCE ( 'NAUO41', ' ', ' ', #767, #87, $ ) ;
#1100 = NEXT_ASSEMBLY_USAGE_OCCURRENCE ( 'NAUO42', ' ', ' ', #767, #996, $ ) ;
#1101 = NEXT_ASSEMBLY_USAGE_OCCURRENCE ( 'NAUO43', ' ', ' ', #767, #694, $ ) ;
#1102 = NEXT_ASSEMBLY_USAGE_OCCURRENCE ( 'NAUO44', ' ', ' ', #767, #119, $ ) ;
#1103 = NEXT_ASSEMBLY_USAGE_OCCURRENCE ( 'NAUO45', ' ', ' ', #767, #87, $ ) ;
#1104 = NEXT_ASSEMBLY_USAGE_OCCURRENCE ( 'NAUO46', ' ', ' ', #767, #449, $ ) ;
#1105 = NEXT_ASSEMBLY_USAGE_OCCURRENCE ( 'NAUO47', ' ', ' ', #767, #449, $ ) ;
#1106 = NEXT_ASSEMBLY_USAGE_OCCURRENCE ( 'NAUO48', ' ', ' ', #767, #449, $ ) ;
#1107 = NEXT_ASSEMBLY_USAGE_OCCURRENCE ( 'NAUO49', ' ', ' ', #767, #580, $ ) ;
#1108 = NEXT_ASSEMBLY_USAGE_OCCURRENCE ( 'NAUO50', ' ', ' ', #767, #449, $ ) ;
#1109 = NEXT_ASSEMBLY_USAGE_OCCURRENCE ( 'NAUO51', ' ', ' ', #767, #449, $ ) ;
ENDSEC;
END-ISO-10303-21;
