ISO-10303-21;
HEADER;
FILE_DESCRIPTION (( 'STEP AP214' ),
    '1' );
FILE_NAME ('Á¬¸Ë1¸ÄA.STEP',
    '2026-08-16T17:26:48',
    ( '' ),
    ( '' ),
    'SwSTEP 2.0',
    'SolidWorks 2025',
    '' );
FILE_SCHEMA (( 'AUTOMOTIVE_DESIGN' ));
ENDSEC;

DATA;
#1 = EDGE_CURVE ( 'NONE', #348, #494, #82, .T. ) ;
#2 = FACE_OUTER_BOUND ( 'NONE', #535, .T. ) ;
#3 = ORIENTED_EDGE ( 'NONE', *, *, #576, .F. ) ;
#4 = DIRECTION ( 'NONE',  ( 0.000000000000000000, 0.000000000000000000, 1.000000000000000000 ) ) ;
#5 = VERTEX_POINT ( 'NONE', #380 ) ;
#6 =( NAMED_UNIT ( * ) PLANE_ANGLE_UNIT ( ) SI_UNIT ( $, .RADIAN. ) );
#7 = CIRCLE ( 'NONE', #108, 10.00000000000000178 ) ;
#8 = EDGE_CURVE ( 'NONE', #413, #324, #601, .T. ) ;
#9 = CYLINDRICAL_SURFACE ( 'NONE', #545, 4.000000000000000000 ) ;
#10 = EDGE_LOOP ( 'NONE', ( #444, #215 ) ) ;
#11 = ORIENTED_EDGE ( 'NONE', *, *, #217, .T. ) ;
#12 = CIRCLE ( 'NONE', #292, 153.9531344831874264 ) ;
#13 = DIRECTION ( 'NONE',  ( -0.000000000000000000, -0.000000000000000000, 1.000000000000000000 ) ) ;
#14 = EDGE_CURVE ( 'NONE', #582, #43, #611, .T. ) ;
#15 = CARTESIAN_POINT ( 'NONE',  ( 29.65138428310229912, 8.621651494718870268, 0.000000000000000000 ) ) ;
#16 = APPLICATION_PROTOCOL_DEFINITION ( 'draft international standard', 'automotive_design', 1998, #612 ) ;
#17 =( GEOMETRIC_REPRESENTATION_CONTEXT ( 3 ) GLOBAL_UNCERTAINTY_ASSIGNED_CONTEXT ( ( #628 ) ) GLOBAL_UNIT_ASSIGNED_CONTEXT ( ( #206, #406, #527 ) ) REPRESENTATION_CONTEXT ( 'NONE', 'WORKASPACE' ) );
#18 = ORIENTED_EDGE ( 'NONE', *, *, #625, .T. ) ;
#19 = EDGE_LOOP ( 'NONE', ( #441, #235, #188, #71, #626 ) ) ;
#20 = EDGE_CURVE ( 'NONE', #526, #29, #598, .T. ) ;
#21 = DIRECTION ( 'NONE',  ( 1.000000000000000000, 0.000000000000000000, 0.000000000000000000 ) ) ;
#22 = DIRECTION ( 'NONE',  ( -0.000000000000000000, 0.000000000000000000, 1.000000000000000000 ) ) ;
#23 = CIRCLE ( 'NONE', #374, 12.00000000000000355 ) ;
#24 = DIRECTION ( 'NONE',  ( 1.000000000000000000, 0.000000000000000000, 0.000000000000000000 ) ) ;
#25 = ORIENTED_EDGE ( 'NONE', *, *, #676, .F. ) ;
#26 = DIRECTION ( 'NONE',  ( 1.000000000000000000, 0.000000000000000000, 0.000000000000000000 ) ) ;
#27 = EDGE_CURVE ( 'NONE', #348, #458, #587, .T. ) ;
#28 = CARTESIAN_POINT ( 'NONE',  ( 62.20188726666722800, -9.560864556699346650, 0.000000000000000000 ) ) ;
#29 = VERTEX_POINT ( 'NONE', #449 ) ;
#30 = EDGE_CURVE ( 'NONE', #413, #360, #286, .T. ) ;
#31 = DIRECTION ( 'NONE',  ( -1.000000000000000000, 0.000000000000000000, 0.000000000000000000 ) ) ;
#32 = FACE_OUTER_BOUND ( 'NONE', #436, .T. ) ;
#33 = ORIENTED_EDGE ( 'NONE', *, *, #20, .T. ) ;
#34 = DIRECTION ( 'NONE',  ( -0.000000000000000000, -0.000000000000000000, 1.000000000000000000 ) ) ;
#35 = CIRCLE ( 'NONE', #99, 4.000000000000000000 ) ;
#36 = CARTESIAN_POINT ( 'NONE',  ( 28.75158006572684499, 4.724171235577931505, 8.000000000000000000 ) ) ;
#37 = DIRECTION ( 'NONE',  ( -0.000000000000000000, 0.000000000000000000, 1.000000000000000000 ) ) ;
#38 = ORIENTED_EDGE ( 'NONE', *, *, #521, .T. ) ;
#39 = DIRECTION ( 'NONE',  ( 1.000000000000000000, 0.000000000000000000, 0.000000000000000000 ) ) ;
#40 = AXIS2_PLACEMENT_3D ( 'NONE', #234, #656, #385 ) ;
#41 = EDGE_CURVE ( 'NONE', #445, #368, #379, .T. ) ;
#42 = DIRECTION ( 'NONE',  ( 1.000000000000000000, 0.000000000000000000, 0.000000000000000000 ) ) ;
#43 = VERTEX_POINT ( 'NONE', #501 ) ;
#44 = DIRECTION ( 'NONE',  ( -0.000000000000000000, 0.000000000000000000, 1.000000000000000000 ) ) ;
#45 = EDGE_CURVE ( 'NONE', #118, #116, #211, .T. ) ;
#46 = CARTESIAN_POINT ( 'NONE',  ( 46.93000000000000682, 0.000000000000000000, 8.000000000000000000 ) ) ;
#47 = VERTEX_POINT ( 'NONE', #615 ) ;
#48 = DIRECTION ( 'NONE',  ( -0.000000000000000000, -0.000000000000000000, 1.000000000000000000 ) ) ;
#49 = PLANE ( 'NONE',  #269 ) ;
#50 = FACE_OUTER_BOUND ( 'NONE', #274, .T. ) ;
#51 = ORIENTED_EDGE ( 'NONE', *, *, #114, .T. ) ;
#52 = ADVANCED_FACE ( 'NONE', ( #344 ), #180, .F. ) ;
#53 = ORIENTED_EDGE ( 'NONE', *, *, #298, .T. ) ;
#54 = PRESENTATION_STYLE_ASSIGNMENT (( #262 ) ) ;
#55 = VERTEX_POINT ( 'NONE', #546 ) ;
#56 = CARTESIAN_POINT ( 'NONE',  ( 2.081668171172168513E-14, -131.8126041666668016, 8.000000000000000000 ) ) ;
#57 = CARTESIAN_POINT ( 'NONE',  ( 29.65138428310229912, 8.621651494718870268, -12.00000000000000000 ) ) ;
#58 = EDGE_CURVE ( 'NONE', #116, #60, #389, .T. ) ;
#59 = EDGE_LOOP ( 'NONE', ( #383, #357, #530, #420 ) ) ;
#60 = VERTEX_POINT ( 'NONE', #332 ) ;
#61 =( NAMED_UNIT ( * ) SI_UNIT ( $, .STERADIAN. ) SOLID_ANGLE_UNIT ( ) );
#62 = CARTESIAN_POINT ( 'NONE',  ( 54.95000000000000284, 0.000000000000000000, 0.000000000000000000 ) ) ;
#63 = VERTEX_POINT ( 'NONE', #100 ) ;
#64 = EDGE_CURVE ( 'NONE', #591, #547, #468, .T. ) ;
#65 = DIRECTION ( 'NONE',  ( 1.000000000000000000, 0.000000000000000000, 0.000000000000000000 ) ) ;
#66 = ORIENTED_EDGE ( 'NONE', *, *, #660, .T. ) ;
#67 = DIRECTION ( 'NONE',  ( -1.000000000000000000, 0.000000000000000000, 0.000000000000000000 ) ) ;
#68 = CIRCLE ( 'NONE', #126, 10.00000000000000178 ) ;
#69 = EDGE_LOOP ( 'NONE', ( #636, #482, #271, #408, #618, #586, #164, #225, #150 ) ) ;
#70 = VECTOR ( 'NONE', #483, 1000.000000000000000 ) ;
#71 = ORIENTED_EDGE ( 'NONE', *, *, #298, .F. ) ;
#72 = LINE ( 'NONE', #244, #207 ) ;
#73 = DIRECTION ( 'NONE',  ( -0.000000000000000000, -0.000000000000000000, -1.000000000000000000 ) ) ;
#74 = DIRECTION ( 'NONE',  ( 1.000000000000000000, 0.000000000000000000, 0.000000000000000000 ) ) ;
#75 = CIRCLE ( 'NONE', #657, 10.00000000000000178 ) ;
#76 = DIRECTION ( 'NONE',  ( -0.000000000000000000, 0.000000000000000000, 1.000000000000000000 ) ) ;
#77 = VERTEX_POINT ( 'NONE', #96 ) ;
#78 = FACE_OUTER_BOUND ( 'NONE', #563, .T. ) ;
#79 = CARTESIAN_POINT ( 'NONE',  ( 62.20188726666722800, -9.560864556699348427, 8.000000000000000000 ) ) ;
#80 = EDGE_CURVE ( 'NONE', #47, #109, #117, .T. ) ;
#81 = DIRECTION ( 'NONE',  ( -0.000000000000000000, -0.000000000000000000, -1.000000000000000000 ) ) ;
#82 = CIRCLE ( 'NONE', #177, 10.00000000000000178 ) ;
#83 = LINE ( 'NONE', #253, #532 ) ;
#84 = ORIENTED_EDGE ( 'NONE', *, *, #1, .F. ) ;
#85 = CARTESIAN_POINT ( 'NONE',  ( -29.65138428310140029, 8.621651494719065667, 0.000000000000000000 ) ) ;
#86 = AXIS2_PLACEMENT_3D ( 'NONE', #447, #238, #664 ) ;
#87 = DIRECTION ( 'NONE',  ( -0.000000000000000000, -0.000000000000000000, 1.000000000000000000 ) ) ;
#88 = VERTEX_POINT ( 'NONE', #461 ) ;
#89 = CARTESIAN_POINT ( 'NONE',  ( 2.081668171172168513E-14, -131.8126041666668016, 0.000000000000000000 ) ) ;
#90 = ADVANCED_FACE ( 'NONE', ( #208 ), #677, .F. ) ;
#91 = AXIS2_PLACEMENT_3D ( 'NONE', #130, #22, #191 ) ;
#92 = FACE_BOUND ( 'NONE', #518, .T. ) ;
#93 = CARTESIAN_POINT ( 'NONE',  ( -62.20188726666877699, -9.560864556698176031, 8.000000000000000000 ) ) ;
#94 = ORIENTED_EDGE ( 'NONE', *, *, #147, .F. ) ;
#95 = LINE ( 'NONE', #571, #402 ) ;
#96 = CARTESIAN_POINT ( 'NONE',  ( -62.96999999999999886, 0.000000000000000000, 8.000000000000000000 ) ) ;
#97 = ORIENTED_EDGE ( 'NONE', *, *, #27, .F. ) ;
#98 = CARTESIAN_POINT ( 'NONE',  ( 29.65138428310229912, 8.621651494718870268, 8.000000000000000000 ) ) ;
#99 = AXIS2_PLACEMENT_3D ( 'NONE', #645, #4, #593 ) ;
#100 = CARTESIAN_POINT ( 'NONE',  ( -62.96999999999999886, 0.000000000000000000, 0.000000000000000000 ) ) ;
#101 = ORIENTED_EDGE ( 'NONE', *, *, #538, .F. ) ;
#102 = FACE_OUTER_BOUND ( 'NONE', #430, .T. ) ;
#103 = CIRCLE ( 'NONE', #40, 10.00000000000000178 ) ;
#104 = DIRECTION ( 'NONE',  ( 0.000000000000000000, -0.000000000000000000, -1.000000000000000000 ) ) ;
#105 = ADVANCED_FACE ( 'NONE', ( #399 ), #359, .T. ) ;
#106 = ORIENTED_EDGE ( 'NONE', *, *, #131, .F. ) ;
#107 = AXIS2_PLACEMENT_3D ( 'NONE', #361, #306, #464 ) ;
#108 = AXIS2_PLACEMENT_3D ( 'NONE', #569, #260, #454 ) ;
#109 = VERTEX_POINT ( 'NONE', #46 ) ;
#110 = CARTESIAN_POINT ( 'NONE',  ( 0.000000000000000000, -119.8126041666668158, -12.00000000000000000 ) ) ;
#111 = ORIENTED_EDGE ( 'NONE', *, *, #411, .F. ) ;
#112 = AXIS2_PLACEMENT_3D ( 'NONE', #137, #134, #666 ) ;
#113 = SHAPE_DEFINITION_REPRESENTATION ( #153, #162 ) ;
#114 = EDGE_CURVE ( 'NONE', #319, #494, #448, .T. ) ;
#115 = DIRECTION ( 'NONE',  ( 1.000000000000000000, 0.000000000000000000, 0.000000000000000000 ) ) ;
#116 = VERTEX_POINT ( 'NONE', #140 ) ;
#117 = CIRCLE ( 'NONE', #663, 8.019999999999992468 ) ;
#118 = VERTEX_POINT ( 'NONE', #465 ) ;
#119 = LINE ( 'NONE', #275, #70 ) ;
#120 = ADVANCED_FACE ( 'NONE', ( #407, #504, #514, #356 ), #303, .T. ) ;
#121 = DIRECTION ( 'NONE',  ( 1.000000000000000000, 1.734723475976806700E-15, 0.000000000000000000 ) ) ;
#122 = CARTESIAN_POINT ( 'NONE',  ( -28.75158006572596747, 4.724171235578119799, -12.00000000000000000 ) ) ;
#123 = CARTESIAN_POINT ( 'NONE',  ( -54.95000000000000284, 0.000000000000000000, 8.000000000000000000 ) ) ;
#124 = CIRCLE ( 'NONE', #163, 8.019999999999992468 ) ;
#125 = CARTESIAN_POINT ( 'NONE',  ( 0.000000000000000000, -119.8126041666668158, 8.000000000000000000 ) ) ;
#126 = AXIS2_PLACEMENT_3D ( 'NONE', #495, #214, #259 ) ;
#127 = DIRECTION ( 'NONE',  ( -0.000000000000000000, 0.000000000000000000, 1.000000000000000000 ) ) ;
#128 = FACE_OUTER_BOUND ( 'NONE', #400, .T. ) ;
#129 = ORIENTED_EDGE ( 'NONE', *, *, #551, .F. ) ;
#130 = CARTESIAN_POINT ( 'NONE',  ( -54.95000000000000284, 0.000000000000000000, 8.000000000000000000 ) ) ;
#131 = EDGE_CURVE ( 'NONE', #526, #413, #7, .T. ) ;
#132 = CARTESIAN_POINT ( 'NONE',  ( 2.081668171172168513E-14, -131.8126041666668016, 8.000000000000000000 ) ) ;
#133 = DIRECTION ( 'NONE',  ( -0.000000000000000000, 0.000000000000000000, 1.000000000000000000 ) ) ;
#134 = DIRECTION ( 'NONE',  ( -0.000000000000000000, 0.000000000000000000, 1.000000000000000000 ) ) ;
#135 = ADVANCED_FACE ( 'NONE', ( #32 ), #403, .T. ) ;
#136 = ORIENTED_EDGE ( 'NONE', *, *, #114, .F. ) ;
#137 = CARTESIAN_POINT ( 'NONE',  ( -54.95000000000000284, 0.000000000000000000, 8.000000000000000000 ) ) ;
#138 = CIRCLE ( 'NONE', #529, 8.019999999999992468 ) ;
#139 = DIRECTION ( 'NONE',  ( 1.000000000000000000, 0.000000000000000000, 0.000000000000000000 ) ) ;
#140 = CARTESIAN_POINT ( 'NONE',  ( 28.75158006572684499, 4.724171235577931505, 0.000000000000000000 ) ) ;
#141 = ORIENTED_EDGE ( 'NONE', *, *, #589, .F. ) ;
#142 = DIRECTION ( 'NONE',  ( -0.000000000000000000, -0.000000000000000000, -1.000000000000000000 ) ) ;
#143 = AXIS2_PLACEMENT_3D ( 'NONE', #212, #352, #347 ) ;
#144 = CYLINDRICAL_SURFACE ( 'NONE', #143, 8.019999999999992468 ) ;
#145 = ORIENTED_EDGE ( 'NONE', *, *, #330, .F. ) ;
#146 = CARTESIAN_POINT ( 'NONE',  ( 54.95000000000000284, 0.000000000000000000, 8.000000000000000000 ) ) ;
#147 = EDGE_CURVE ( 'NONE', #458, #591, #493, .T. ) ;
#148 = AXIS2_PLACEMENT_3D ( 'NONE', #299, #401, #609 ) ;
#149 = CARTESIAN_POINT ( 'NONE',  ( 0.000000000000000000, 0.000000000000000000, 8.000000000000000000 ) ) ;
#150 = ORIENTED_EDGE ( 'NONE', *, *, #551, .T. ) ;
#151 = CYLINDRICAL_SURFACE ( 'NONE', #107, 10.00000000000000178 ) ;
#152 = EDGE_CURVE ( 'NONE', #515, #360, #83, .T. ) ;
#153 = PRODUCT_DEFINITION_SHAPE ( 'NONE', 'NONE',  #562 ) ;
#154 = AXIS2_PLACEMENT_3D ( 'NONE', #149, #633, #42 ) ;
#155 = FACE_OUTER_BOUND ( 'NONE', #59, .T. ) ;
#156 = ORIENTED_EDGE ( 'NONE', *, *, #395, .F. ) ;
#157 = CARTESIAN_POINT ( 'NONE',  ( 54.95000000000000284, 0.000000000000000000, 0.000000000000000000 ) ) ;
#158 = ADVANCED_FACE ( 'NONE', ( #155 ), #204, .F. ) ;
#159 = CYLINDRICAL_SURFACE ( 'NONE', #637, 8.019999999999999574 ) ;
#160 = ORIENTED_EDGE ( 'NONE', *, *, #625, .F. ) ;
#161 = CARTESIAN_POINT ( 'NONE',  ( 46.93000000000000682, 0.000000000000000000, 8.000000000000000000 ) ) ;
#162 = ADVANCED_BREP_SHAPE_REPRESENTATION ( '\X2\8fde6746\X0\1\X2\6539\X0\A', ( #581, #415 ), #558 ) ;
#163 = AXIS2_PLACEMENT_3D ( 'NONE', #62, #476, #370 ) ;
#164 = ORIENTED_EDGE ( 'NONE', *, *, #349, .T. ) ;
#165 = DIRECTION ( 'NONE',  ( -0.000000000000000000, 0.000000000000000000, 1.000000000000000000 ) ) ;
#166 = CIRCLE ( 'NONE', #91, 8.019999999999999574 ) ;
#167 = CARTESIAN_POINT ( 'NONE',  ( -30.55118850047684020, 12.51913175386000532, -12.00000000000000000 ) ) ;
#168 = PRODUCT ( '\X2\8fde6746\X0\1\X2\6539\X0\A', '\X2\8fde6746\X0\1\X2\6539\X0\A', '', ( #223 ) ) ;
#169 = VERTEX_POINT ( 'NONE', #522 ) ;
#170 = FACE_OUTER_BOUND ( 'NONE', #342, .T. ) ;
#171 = ORIENTED_EDGE ( 'NONE', *, *, #58, .T. ) ;
#172 = ADVANCED_FACE ( 'NONE', ( #50 ), #144, .F. ) ;
#173 = ORIENTED_EDGE ( 'NONE', *, *, #378, .F. ) ;
#174 = ADVANCED_FACE ( 'NONE', ( #417 ), #159, .F. ) ;
#175 = DIRECTION ( 'NONE',  ( -0.000000000000000000, -0.000000000000000000, 1.000000000000000000 ) ) ;
#176 = ORIENTED_EDGE ( 'NONE', *, *, #489, .T. ) ;
#177 = AXIS2_PLACEMENT_3D ( 'NONE', #599, #390, #21 ) ;
#178 = DIRECTION ( 'NONE',  ( 1.000000000000000000, 0.000000000000000000, 0.000000000000000000 ) ) ;
#179 = DIRECTION ( 'NONE',  ( 0.000000000000000000, -0.000000000000000000, -1.000000000000000000 ) ) ;
#180 = CYLINDRICAL_SURFACE ( 'NONE', #500, 8.019999999999992468 ) ;
#181 = VECTOR ( 'NONE', #252, 1000.000000000000000 ) ;
#182 = ORIENTED_EDGE ( 'NONE', *, *, #279, .F. ) ;
#183 = DIRECTION ( 'NONE',  ( -0.000000000000000000, 0.000000000000000000, 1.000000000000000000 ) ) ;
#184 = ORIENTED_EDGE ( 'NONE', *, *, #240, .T. ) ;
#185 = ORIENTED_EDGE ( 'NONE', *, *, #610, .F. ) ;
#186 = CARTESIAN_POINT ( 'NONE',  ( -62.96999999999999886, 0.000000000000000000, 8.000000000000000000 ) ) ;
#187 = CARTESIAN_POINT ( 'NONE',  ( -54.95000000000000284, 0.000000000000000000, 8.000000000000000000 ) ) ;
#188 = ORIENTED_EDGE ( 'NONE', *, *, #603, .F. ) ;
#189 = CARTESIAN_POINT ( 'NONE',  ( -53.55376196469293149, 12.52575593426893974, 0.000000000000000000 ) ) ;
#190 = EDGE_LOOP ( 'NONE', ( #510, #539, #683, #426 ) ) ;
#191 = DIRECTION ( 'NONE',  ( 1.000000000000000000, 0.000000000000000000, 0.000000000000000000 ) ) ;
#192 = VECTOR ( 'NONE', #590, 1000.000000000000000 ) ;
#193 = DIRECTION ( 'NONE',  ( -1.000000000000000000, 0.000000000000000000, 0.000000000000000000 ) ) ;
#194 = ORIENTED_EDGE ( 'NONE', *, *, #502, .T. ) ;
#195 = CYLINDRICAL_SURFACE ( 'NONE', #334, 10.00000000000000178 ) ;
#196 = EDGE_CURVE ( 'NONE', #397, #458, #565, .T. ) ;
#197 = VECTOR ( 'NONE', #48, 1000.000000000000000 ) ;
#198 = ADVANCED_FACE ( 'NONE', ( #326 ), #267, .F. ) ;
#199 = CARTESIAN_POINT ( 'NONE',  ( 2.081668171172168513E-14, -131.8126041666668016, 0.000000000000000000 ) ) ;
#200 = ORIENTED_EDGE ( 'NONE', *, *, #64, .T. ) ;
#201 = DIRECTION ( 'NONE',  ( -0.000000000000000000, -0.000000000000000000, -1.000000000000000000 ) ) ;
#202 = AXIS2_PLACEMENT_3D ( 'NONE', #339, #127, #552 ) ;
#203 = AXIS2_PLACEMENT_3D ( 'NONE', #257, #37, #249 ) ;
#204 = CYLINDRICAL_SURFACE ( 'NONE', #588, 3.999999999999996447 ) ;
#205 = ORIENTED_EDGE ( 'NONE', *, *, #435, .F. ) ;
#206 =( LENGTH_UNIT ( ) NAMED_UNIT ( * ) SI_UNIT ( .MILLI., .METRE. ) );
#207 = VECTOR ( 'NONE', #142, 1000.000000000000000 ) ;
#208 = FACE_OUTER_BOUND ( 'NONE', #622, .T. ) ;
#209 = EDGE_CURVE ( 'NONE', #88, #222, #124, .T. ) ;
#210 = ORIENTED_EDGE ( 'NONE', *, *, #423, .T. ) ;
#211 = CIRCLE ( 'NONE', #416, 127.8126041666668158 ) ;
#212 = CARTESIAN_POINT ( 'NONE',  ( -54.95000000000000284, 0.000000000000000000, 8.000000000000000000 ) ) ;
#213 = ORIENTED_EDGE ( 'NONE', *, *, #45, .F. ) ;
#214 = DIRECTION ( 'NONE',  ( 0.000000000000000000, -0.000000000000000000, -1.000000000000000000 ) ) ;
#215 = ORIENTED_EDGE ( 'NONE', *, *, #80, .F. ) ;
#216 = LINE ( 'NONE', #627, #197 ) ;
#217 = EDGE_CURVE ( 'NONE', #324, #308, #331, .T. ) ;
#218 = AXIS2_PLACEMENT_3D ( 'NONE', #424, #648, #277 ) ;
#219 = ORIENTED_EDGE ( 'NONE', *, *, #502, .F. ) ;
#220 = DIRECTION ( 'NONE',  ( -0.000000000000000000, -0.000000000000000000, -1.000000000000000000 ) ) ;
#221 = AXIS2_PLACEMENT_3D ( 'NONE', #553, #81, #31 ) ;
#222 = VERTEX_POINT ( 'NONE', #264 ) ;
#223 = PRODUCT_CONTEXT ( 'NONE', #612, 'mechanical' ) ;
#224 = DIRECTION ( 'NONE',  ( -0.000000000000000000, -0.000000000000000000, 1.000000000000000000 ) ) ;
#225 = ORIENTED_EDGE ( 'NONE', *, *, #317, .T. ) ;
#226 = VECTOR ( 'NONE', #314, 1000.000000000000000 ) ;
#227 = ORIENTED_EDGE ( 'NONE', *, *, #423, .F. ) ;
#228 = CARTESIAN_POINT ( 'NONE',  ( -56.08582049865525221, 11.94612538837737681, 0.000000000000000000 ) ) ;
#229 = CARTESIAN_POINT ( 'NONE',  ( 0.000000000000000000, -119.8126041666668158, 8.000000000000000000 ) ) ;
#230 = CIRCLE ( 'NONE', #346, 3.999999999999996447 ) ;
#231 = VECTOR ( 'NONE', #283, 1000.000000000000000 ) ;
#232 = AXIS2_PLACEMENT_3D ( 'NONE', #412, #691, #621 ) ;
#233 = VERTEX_POINT ( 'NONE', #585 ) ;
#234 = CARTESIAN_POINT ( 'NONE',  ( -56.15864787777852740, -1.593477426116884255, 8.000000000000000000 ) ) ;
#235 = ORIENTED_EDGE ( 'NONE', *, *, #41, .F. ) ;
#236 = VECTOR ( 'NONE', #550, 1000.000000000000000 ) ;
#237 = DIRECTION ( 'NONE',  ( 1.000000000000000000, 0.000000000000000000, 0.000000000000000000 ) ) ;
#238 = DIRECTION ( 'NONE',  ( -0.000000000000000000, 0.000000000000000000, 1.000000000000000000 ) ) ;
#239 = DIRECTION ( 'NONE',  ( -0.000000000000000000, -0.000000000000000000, -1.000000000000000000 ) ) ;
#240 = EDGE_CURVE ( 'NONE', #285, #591, #280, .T. ) ;
#241 = DIRECTION ( 'NONE',  ( -1.000000000000000000, 0.000000000000000000, 0.000000000000000000 ) ) ;
#242 = AXIS2_PLACEMENT_3D ( 'NONE', #300, #362, #508 ) ;
#243 = ORIENTED_EDGE ( 'NONE', *, *, #27, .T. ) ;
#244 = CARTESIAN_POINT ( 'NONE',  ( 53.55376196469252648, 12.52575593426910672, 8.000000000000000000 ) ) ;
#245 = DIRECTION ( 'NONE',  ( 1.000000000000000000, 0.000000000000000000, 0.000000000000000000 ) ) ;
#246 = DIRECTION ( 'NONE',  ( 1.000000000000000000, 0.000000000000000000, 0.000000000000000000 ) ) ;
#247 = CIRCLE ( 'NONE', #218, 8.019999999999992468 ) ;
#248 = ADVANCED_FACE ( 'NONE', ( #2 ), #9, .F. ) ;
#249 = DIRECTION ( 'NONE',  ( 1.000000000000000000, 0.000000000000000000, 0.000000000000000000 ) ) ;
#250 = STYLED_ITEM ( 'NONE', ( #54 ), #581 ) ;
#251 = ORIENTED_EDGE ( 'NONE', *, *, #652, .F. ) ;
#252 = DIRECTION ( 'NONE',  ( -0.000000000000000000, -0.000000000000000000, 1.000000000000000000 ) ) ;
#253 = CARTESIAN_POINT ( 'NONE',  ( 56.08582049865501773, 11.94612538837740168, 8.000000000000000000 ) ) ;
#254 = ORIENTED_EDGE ( 'NONE', *, *, #330, .T. ) ;
#255 = FILL_AREA_STYLE ('',( #369 ) ) ;
#256 = DIRECTION ( 'NONE',  ( -0.000000000000000000, 0.000000000000000000, 1.000000000000000000 ) ) ;
#257 = CARTESIAN_POINT ( 'NONE',  ( -54.95000000000000284, 0.000000000000000000, 0.000000000000000000 ) ) ;
#258 = ORIENTED_EDGE ( 'NONE', *, *, #652, .T. ) ;
#259 = DIRECTION ( 'NONE',  ( 1.000000000000000000, 2.775557561562890957E-15, 0.000000000000000000 ) ) ;
#260 = DIRECTION ( 'NONE',  ( -0.000000000000000000, 0.000000000000000000, 1.000000000000000000 ) ) ;
#261 = ORIENTED_EDGE ( 'NONE', *, *, #64, .F. ) ;
#262 = SURFACE_STYLE_USAGE ( .BOTH. , #583 ) ;
#263 = CIRCLE ( 'NONE', #651, 131.8126041666668016 ) ;
#264 = CARTESIAN_POINT ( 'NONE',  ( 46.93000000000000682, 0.000000000000000000, 0.000000000000000000 ) ) ;
#265 = EDGE_LOOP ( 'NONE', ( #655, #171, #384, #688, #38 ) ) ;
#266 = DIRECTION ( 'NONE',  ( 1.000000000000000000, 0.000000000000000000, 0.000000000000000000 ) ) ;
#267 = CYLINDRICAL_SURFACE ( 'NONE', #578, 4.000000000000000000 ) ;
#268 = ORIENTED_EDGE ( 'NONE', *, *, #196, .F. ) ;
#269 = AXIS2_PLACEMENT_3D ( 'NONE', #670, #256, #139 ) ;
#270 = EDGE_CURVE ( 'NONE', #109, #47, #247, .T. ) ;
#271 = ORIENTED_EDGE ( 'NONE', *, *, #30, .T. ) ;
#272 = DIRECTION ( 'NONE',  ( 1.000000000000000000, 0.000000000000000000, 0.000000000000000000 ) ) ;
#273 = VECTOR ( 'NONE', #682, 1000.000000000000000 ) ;
#274 = EDGE_LOOP ( 'NONE', ( #176, #336, #145, #111 ) ) ;
#275 = CARTESIAN_POINT ( 'NONE',  ( -53.55376196469293859, 12.52575593426896816, 8.000000000000000000 ) ) ;
#276 = EDGE_CURVE ( 'NONE', #233, #291, #35, .T. ) ;
#277 = DIRECTION ( 'NONE',  ( 1.000000000000000000, 0.000000000000000000, 0.000000000000000000 ) ) ;
#278 = ORIENTED_EDGE ( 'NONE', *, *, #317, .F. ) ;
#279 = EDGE_CURVE ( 'NONE', #577, #169, #427, .T. ) ;
#280 = CIRCLE ( 'NONE', #509, 10.00000000000000178 ) ;
#281 = ORIENTED_EDGE ( 'NONE', *, *, #196, .T. ) ;
#282 = CIRCLE ( 'NONE', #304, 10.00000000000000178 ) ;
#283 = DIRECTION ( 'NONE',  ( -0.000000000000000000, -0.000000000000000000, -1.000000000000000000 ) ) ;
#284 = CIRCLE ( 'NONE', #678, 4.000000000000000000 ) ;
#285 = VERTEX_POINT ( 'NONE', #643 ) ;
#286 = CIRCLE ( 'NONE', #620, 12.00000000000000355 ) ;
#287 = ORIENTED_EDGE ( 'NONE', *, *, #453, .F. ) ;
#288 = CARTESIAN_POINT ( 'NONE',  ( 0.000000000000000000, -119.8126041666668158, -12.00000000000000000 ) ) ;
#289 = ADVANCED_FACE ( 'NONE', ( #170 ), #376, .F. ) ;
#290 = EDGE_CURVE ( 'NONE', #47, #88, #481, .T. ) ;
#291 = VERTEX_POINT ( 'NONE', #470 ) ;
#292 = AXIS2_PLACEMENT_3D ( 'NONE', #132, #496, #24 ) ;
#293 = LINE ( 'NONE', #186, #475 ) ;
#294 = DIRECTION ( 'NONE',  ( 1.000000000000000000, 0.000000000000000000, 0.000000000000000000 ) ) ;
#295 = CYLINDRICAL_SURFACE ( 'NONE', #221, 12.00000000000000355 ) ;
#296 = AXIS2_PLACEMENT_3D ( 'NONE', #307, #617, #686 ) ;
#297 = DIRECTION ( 'NONE',  ( -1.000000000000000000, 0.000000000000000000, 0.000000000000000000 ) ) ;
#298 = EDGE_CURVE ( 'NONE', #291, #169, #422, .T. ) ;
#299 = CARTESIAN_POINT ( 'NONE',  ( 54.95000000000000284, 0.000000000000000000, 0.000000000000000000 ) ) ;
#300 = CARTESIAN_POINT ( 'NONE',  ( 56.15864787777787370, -1.593477426116559403, 8.000000000000000000 ) ) ;
#301 = ORIENTED_EDGE ( 'NONE', *, *, #8, .T. ) ;
#302 = CARTESIAN_POINT ( 'NONE',  ( -62.20188726666877699, -9.560864556698174255, 8.000000000000000000 ) ) ;
#303 = PLANE ( 'NONE',  #154 ) ;
#304 = AXIS2_PLACEMENT_3D ( 'NONE', #662, #398, #74 ) ;
#305 = ORIENTED_EDGE ( 'NONE', *, *, #661, .T. ) ;
#306 = DIRECTION ( 'NONE',  ( 0.000000000000000000, 0.000000000000000000, 1.000000000000000000 ) ) ;
#307 = CARTESIAN_POINT ( 'NONE',  ( 57.03233758086752658, 21.90122987869204607, 8.000000000000000000 ) ) ;
#308 = VERTEX_POINT ( 'NONE', #548 ) ;
#309 = CYLINDRICAL_SURFACE ( 'NONE', #434, 12.00000000000000355 ) ;
#310 = CARTESIAN_POINT ( 'NONE',  ( -29.65138428310140029, 8.621651494719065667, -12.00000000000000000 ) ) ;
#311 = ORIENTED_EDGE ( 'NONE', *, *, #147, .T. ) ;
#312 = CARTESIAN_POINT ( 'NONE',  ( -46.93000000000000682, 9.821667329161771188E-16, 8.000000000000000000 ) ) ;
#313 = AXIS2_PLACEMENT_3D ( 'NONE', #387, #76, #341 ) ;
#314 = DIRECTION ( 'NONE',  ( -0.000000000000000000, -0.000000000000000000, -1.000000000000000000 ) ) ;
#315 = ORIENTED_EDGE ( 'NONE', *, *, #528, .F. ) ;
#316 = CARTESIAN_POINT ( 'NONE',  ( 28.75158006572684499, 4.724171235577931505, -12.00000000000000000 ) ) ;
#317 = EDGE_CURVE ( 'NONE', #397, #547, #614, .T. ) ;
#318 = EDGE_CURVE ( 'NONE', #5, #373, #12, .T. ) ;
#319 = VERTEX_POINT ( 'NONE', #439 ) ;
#320 = CARTESIAN_POINT ( 'NONE',  ( -56.15864787777852740, -1.593477426116884255, 0.000000000000000000 ) ) ;
#321 = ORIENTED_EDGE ( 'NONE', *, *, #276, .T. ) ;
#322 = AXIS2_PLACEMENT_3D ( 'NONE', #668, #613, #237 ) ;
#323 = DIRECTION ( 'NONE',  ( 1.000000000000000000, -8.890457814381134387E-16, 0.000000000000000000 ) ) ;
#324 = VERTEX_POINT ( 'NONE', #28 ) ;
#325 = CARTESIAN_POINT ( 'NONE',  ( 0.000000000000000000, -119.8126041666668158, 0.000000000000000000 ) ) ;
#326 = FACE_OUTER_BOUND ( 'NONE', #505, .T. ) ;
#327 = ORIENTED_EDGE ( 'NONE', *, *, #318, .F. ) ;
#328 = CARTESIAN_POINT ( 'NONE',  ( -56.08582049865525221, 11.94612538837737681, 8.000000000000000000 ) ) ;
#329 = ORIENTED_EDGE ( 'NONE', *, *, #217, .F. ) ;
#330 = EDGE_CURVE ( 'NONE', #63, #43, #355, .T. ) ;
#331 = CIRCLE ( 'NONE', #669, 10.00000000000000178 ) ;
#332 = CARTESIAN_POINT ( 'NONE',  ( 33.65138428310229557, 8.621651494718870268, 0.000000000000000000 ) ) ;
#333 = DIRECTION ( 'NONE',  ( -0.000000000000000000, 0.000000000000000000, 1.000000000000000000 ) ) ;
#334 = AXIS2_PLACEMENT_3D ( 'NONE', #672, #343, #26 ) ;
#335 = CARTESIAN_POINT ( 'NONE',  ( 56.15864787777787370, -1.593477426116559403, 0.000000000000000000 ) ) ;
#336 = ORIENTED_EDGE ( 'NONE', *, *, #14, .T. ) ;
#337 = CARTESIAN_POINT ( 'NONE',  ( -28.75158006572596747, 4.724171235578119799, 8.000000000000000000 ) ) ;
#338 = EDGE_CURVE ( 'NONE', #118, #445, #486, .T. ) ;
#339 = CARTESIAN_POINT ( 'NONE',  ( -54.95000000000000284, 0.000000000000000000, 0.000000000000000000 ) ) ;
#340 = LINE ( 'NONE', #503, #236 ) ;
#341 = DIRECTION ( 'NONE',  ( 1.000000000000000000, 0.000000000000000000, 0.000000000000000000 ) ) ;
#342 = EDGE_LOOP ( 'NONE', ( #66, #53, #182, #630 ) ) ;
#343 = DIRECTION ( 'NONE',  ( 0.000000000000000000, 0.000000000000000000, 1.000000000000000000 ) ) ;
#344 = FACE_OUTER_BOUND ( 'NONE', #190, .T. ) ;
#345 = CARTESIAN_POINT ( 'NONE',  ( 56.08582049865501773, 11.94612538837739990, 0.000000000000000000 ) ) ;
#346 = AXIS2_PLACEMENT_3D ( 'NONE', #358, #568, #39 ) ;
#347 = DIRECTION ( 'NONE',  ( -1.000000000000000000, 0.000000000000000000, 0.000000000000000000 ) ) ;
#348 = VERTEX_POINT ( 'NONE', #228 ) ;
#349 = EDGE_CURVE ( 'NONE', #393, #397, #23, .T. ) ;
#350 = DIRECTION ( 'NONE',  ( 1.000000000000000000, 0.000000000000000000, 0.000000000000000000 ) ) ;
#351 = CARTESIAN_POINT ( 'NONE',  ( 33.65138428310229557, 8.621651494718870268, -12.00000000000000000 ) ) ;
#352 = DIRECTION ( 'NONE',  ( -0.000000000000000000, -0.000000000000000000, -1.000000000000000000 ) ) ;
#353 = EDGE_LOOP ( 'NONE', ( #254, #474 ) ) ;
#354 = LINE ( 'NONE', #161, #584 ) ;
#355 = CIRCLE ( 'NONE', #86, 8.019999999999999574 ) ;
#356 = FACE_BOUND ( 'NONE', #594, .T. ) ;
#357 = ORIENTED_EDGE ( 'NONE', *, *, #603, .T. ) ;
#358 = CARTESIAN_POINT ( 'NONE',  ( -29.65138428310140029, 8.621651494719065667, 8.000000000000000000 ) ) ;
#359 = CYLINDRICAL_SURFACE ( 'NONE', #242, 10.00000000000000178 ) ;
#360 = VERTEX_POINT ( 'NONE', #520 ) ;
#361 = CARTESIAN_POINT ( 'NONE',  ( -57.03233758086796001, 21.90122987869185778, 8.000000000000000000 ) ) ;
#362 = DIRECTION ( 'NONE',  ( 0.000000000000000000, 0.000000000000000000, 1.000000000000000000 ) ) ;
#363 = ORIENTED_EDGE ( 'NONE', *, *, #209, .F. ) ;
#364 = DIRECTION ( 'NONE',  ( -1.000000000000000000, 0.000000000000000000, 0.000000000000000000 ) ) ;
#365 = VECTOR ( 'NONE', #525, 1000.000000000000000 ) ;
#366 = CARTESIAN_POINT ( 'NONE',  ( 29.65138428310229912, 8.621651494718870268, -12.00000000000000000 ) ) ;
#367 = ADVANCED_FACE ( 'NONE', ( #690, #556, #92, #516 ), #49, .F. ) ;
#368 = VERTEX_POINT ( 'NONE', #36 ) ;
#369 = FILL_AREA_STYLE_COLOUR ( '', #512 ) ;
#370 = DIRECTION ( 'NONE',  ( 1.000000000000000000, 0.000000000000000000, 0.000000000000000000 ) ) ;
#371 = ORIENTED_EDGE ( 'NONE', *, *, #595, .T. ) ;
#372 = PRODUCT_DEFINITION_CONTEXT ( 'detailed design', #462, 'design' ) ;
#373 = VERTEX_POINT ( 'NONE', #675 ) ;
#374 = AXIS2_PLACEMENT_3D ( 'NONE', #187, #433, #654 ) ;
#375 = ORIENTED_EDGE ( 'NONE', *, *, #349, .F. ) ;
#376 = CYLINDRICAL_SURFACE ( 'NONE', #485, 135.8126041666668016 ) ;
#377 = ORIENTED_EDGE ( 'NONE', *, *, #209, .T. ) ;
#378 = EDGE_CURVE ( 'NONE', #60, #233, #685, .T. ) ;
#379 = CIRCLE ( 'NONE', #478, 127.8126041666668158 ) ;
#380 = CARTESIAN_POINT ( 'NONE',  ( 53.55376196469252648, 12.52575593426913336, 8.000000000000000000 ) ) ;
#381 = DIRECTION ( 'NONE',  ( 0.000000000000000000, 0.000000000000000000, 1.000000000000000000 ) ) ;
#382 = VECTOR ( 'NONE', #452, 1000.000000000000000 ) ;
#383 = ORIENTED_EDGE ( 'NONE', *, *, #279, .T. ) ;
#384 = ORIENTED_EDGE ( 'NONE', *, *, #479, .T. ) ;
#385 = DIRECTION ( 'NONE',  ( 1.000000000000000000, 0.000000000000000000, 0.000000000000000000 ) ) ;
#386 = CIRCLE ( 'NONE', #488, 3.999999999999996447 ) ;
#387 = CARTESIAN_POINT ( 'NONE',  ( -54.95000000000000284, 0.000000000000000000, 8.000000000000000000 ) ) ;
#388 = EDGE_CURVE ( 'NONE', #55, #577, #566, .T. ) ;
#389 = CIRCLE ( 'NONE', #541, 4.000000000000000000 ) ;
#390 = DIRECTION ( 'NONE',  ( -0.000000000000000000, 0.000000000000000000, 1.000000000000000000 ) ) ;
#391 = ORIENTED_EDGE ( 'NONE', *, *, #58, .F. ) ;
#392 = FACE_OUTER_BOUND ( 'NONE', #597, .T. ) ;
#393 = VERTEX_POINT ( 'NONE', #328 ) ;
#394 = CARTESIAN_POINT ( 'NONE',  ( -54.95000000000000284, 0.000000000000000000, 8.000000000000000000 ) ) ;
#395 = EDGE_CURVE ( 'NONE', #360, #5, #75, .T. ) ;
#396 = DIRECTION ( 'NONE',  ( 1.000000000000000000, 0.000000000000000000, 0.000000000000000000 ) ) ;
#397 = VERTEX_POINT ( 'NONE', #432 ) ;
#398 = DIRECTION ( 'NONE',  ( -0.000000000000000000, 0.000000000000000000, 1.000000000000000000 ) ) ;
#399 = FACE_OUTER_BOUND ( 'NONE', #649, .T. ) ;
#400 = EDGE_LOOP ( 'NONE', ( #268, #375, #18, #243 ) ) ;
#401 = DIRECTION ( 'NONE',  ( -0.000000000000000000, 0.000000000000000000, 1.000000000000000000 ) ) ;
#402 = VECTOR ( 'NONE', #201, 1000.000000000000000 ) ;
#403 = CYLINDRICAL_SURFACE ( 'NONE', #232, 153.9531344831874264 ) ;
#404 = AXIS2_PLACEMENT_3D ( 'NONE', #554, #606, #396 ) ;
#405 = ORIENTED_EDGE ( 'NONE', *, *, #240, .F. ) ;
#406 =( NAMED_UNIT ( * ) PLANE_ANGLE_UNIT ( ) SI_UNIT ( $, .RADIAN. ) );
#407 = FACE_BOUND ( 'NONE', #19, .T. ) ;
#408 = ORIENTED_EDGE ( 'NONE', *, *, #395, .T. ) ;
#409 = LINE ( 'NONE', #316, #490 ) ;
#410 = AXIS2_PLACEMENT_3D ( 'NONE', #325, #333, #437 ) ;
#411 = EDGE_CURVE ( 'NONE', #77, #63, #293, .T. ) ;
#412 = CARTESIAN_POINT ( 'NONE',  ( 2.081668171172168513E-14, -131.8126041666668016, 8.000000000000000000 ) ) ;
#413 = VERTEX_POINT ( 'NONE', #555 ) ;
#414 = DIRECTION ( 'NONE',  ( -0.000000000000000000, -0.000000000000000000, -1.000000000000000000 ) ) ;
#415 = AXIS2_PLACEMENT_3D ( 'NONE', #533, #381, #650 ) ;
#416 = AXIS2_PLACEMENT_3D ( 'NONE', #498, #549, #667 ) ;
#417 = FACE_OUTER_BOUND ( 'NONE', #679, .T. ) ;
#418 = ORIENTED_EDGE ( 'NONE', *, *, #676, .T. ) ;
#419 = CARTESIAN_POINT ( 'NONE',  ( -30.55118850047684020, 12.51913175386000532, 0.000000000000000000 ) ) ;
#420 = ORIENTED_EDGE ( 'NONE', *, *, #521, .F. ) ;
#421 = CYLINDRICAL_SURFACE ( 'NONE', #460, 131.8126041666668016 ) ;
#422 = CIRCLE ( 'NONE', #600, 135.8126041666668016 ) ;
#423 = EDGE_CURVE ( 'NONE', #29, #285, #564, .T. ) ;
#424 = CARTESIAN_POINT ( 'NONE',  ( 54.95000000000000284, 0.000000000000000000, 8.000000000000000000 ) ) ;
#425 = AXIS2_PLACEMENT_3D ( 'NONE', #442, #183, #246 ) ;
#426 = ORIENTED_EDGE ( 'NONE', *, *, #507, .F. ) ;
#427 = LINE ( 'NONE', #167, #365 ) ;
#428 = ORIENTED_EDGE ( 'NONE', *, *, #378, .T. ) ;
#429 = APPLICATION_PROTOCOL_DEFINITION ( 'draft international standard', 'automotive_design', 1998, #462 ) ;
#430 = EDGE_LOOP ( 'NONE', ( #3, #25, #84, #160 ) ) ;
#431 = ORIENTED_EDGE ( 'NONE', *, *, #660, .F. ) ;
#432 = CARTESIAN_POINT ( 'NONE',  ( -66.95000000000000284, 0.000000000000000000, 8.000000000000000000 ) ) ;
#433 = DIRECTION ( 'NONE',  ( -0.000000000000000000, 0.000000000000000000, 1.000000000000000000 ) ) ;
#434 = AXIS2_PLACEMENT_3D ( 'NONE', #694, #574, #364 ) ;
#435 = EDGE_CURVE ( 'NONE', #308, #526, #340, .T. ) ;
#436 = EDGE_LOOP ( 'NONE', ( #327, #194, #51, #418 ) ) ;
#437 = DIRECTION ( 'NONE',  ( 1.000000000000000000, 0.000000000000000000, 0.000000000000000000 ) ) ;
#438 = ADVANCED_FACE ( 'NONE', ( #128 ), #455, .T. ) ;
#439 = CARTESIAN_POINT ( 'NONE',  ( 53.55376196469252648, 12.52575593426913336, 0.000000000000000000 ) ) ;
#440 = DIRECTION ( 'NONE',  ( 1.000000000000000000, 0.000000000000000000, 0.000000000000000000 ) ) ;
#441 = ORIENTED_EDGE ( 'NONE', *, *, #661, .F. ) ;
#442 = CARTESIAN_POINT ( 'NONE',  ( -54.95000000000000284, 0.000000000000000000, 0.000000000000000000 ) ) ;
#443 = CIRCLE ( 'NONE', #148, 12.00000000000000355 ) ;
#444 = ORIENTED_EDGE ( 'NONE', *, *, #270, .F. ) ;
#445 = VERTEX_POINT ( 'NONE', #337 ) ;
#446 = CARTESIAN_POINT ( 'NONE',  ( -52.19858747216201067, -10.77595648048276722, 8.000000000000000000 ) ) ;
#447 = CARTESIAN_POINT ( 'NONE',  ( -54.95000000000000284, 0.000000000000000000, 0.000000000000000000 ) ) ;
#448 = CIRCLE ( 'NONE', #692, 153.9531344831874264 ) ;
#449 = CARTESIAN_POINT ( 'NONE',  ( -52.19858747216201067, -10.77595648048276722, 8.000000000000000000 ) ) ;
#450 = CARTESIAN_POINT ( 'NONE',  ( -66.95000000000000284, 0.000000000000000000, 0.000000000000000000 ) ) ;
#451 = CARTESIAN_POINT ( 'NONE',  ( 54.95000000000000284, 0.000000000000000000, 8.000000000000000000 ) ) ;
#452 = DIRECTION ( 'NONE',  ( -0.000000000000000000, -0.000000000000000000, -1.000000000000000000 ) ) ;
#453 = EDGE_CURVE ( 'NONE', #324, #515, #443, .T. ) ;
#454 = DIRECTION ( 'NONE',  ( 1.000000000000000000, 0.000000000000000000, 0.000000000000000000 ) ) ;
#455 = CYLINDRICAL_SURFACE ( 'NONE', #624, 12.00000000000000355 ) ;
#456 = MECHANICAL_DESIGN_GEOMETRIC_PRESENTATION_REPRESENTATION (  '', ( #250 ), #17 ) ;
#457 = DIRECTION ( 'NONE',  ( 0.000000000000000000, 0.000000000000000000, 1.000000000000000000 ) ) ;
#458 = VERTEX_POINT ( 'NONE', #450 ) ;
#459 = CARTESIAN_POINT ( 'NONE',  ( -62.20188726666877699, -9.560864556698174255, 0.000000000000000000 ) ) ;
#460 = AXIS2_PLACEMENT_3D ( 'NONE', #56, #220, #67 ) ;
#461 = CARTESIAN_POINT ( 'NONE',  ( 62.96999999999999886, 9.821667329161775132E-16, 0.000000000000000000 ) ) ;
#462 = APPLICATION_CONTEXT ( 'automotive_design' ) ;
#463 = ORIENTED_EDGE ( 'NONE', *, *, #80, .T. ) ;
#464 = DIRECTION ( 'NONE',  ( 1.000000000000000000, 0.000000000000000000, 0.000000000000000000 ) ) ;
#465 = CARTESIAN_POINT ( 'NONE',  ( -28.75158006572596747, 4.724171235578119799, 0.000000000000000000 ) ) ;
#466 = EDGE_LOOP ( 'NONE', ( #573, #471, #604, #301 ) ) ;
#467 = FACE_OUTER_BOUND ( 'NONE', #641, .T. ) ;
#468 = LINE ( 'NONE', #93, #273 ) ;
#469 = ORIENTED_EDGE ( 'NONE', *, *, #1, .T. ) ;
#470 = CARTESIAN_POINT ( 'NONE',  ( 30.55118850047776746, 12.51913175385980992, 8.000000000000000000 ) ) ;
#471 = ORIENTED_EDGE ( 'NONE', *, *, #152, .T. ) ;
#472 = DIRECTION ( 'NONE',  ( -0.000000000000000000, -0.000000000000000000, 1.000000000000000000 ) ) ;
#473 = DIRECTION ( 'NONE',  ( 0.000000000000000000, -0.000000000000000000, -1.000000000000000000 ) ) ;
#474 = ORIENTED_EDGE ( 'NONE', *, *, #507, .T. ) ;
#475 = VECTOR ( 'NONE', #605, 1000.000000000000000 ) ;
#476 = DIRECTION ( 'NONE',  ( -0.000000000000000000, 0.000000000000000000, 1.000000000000000000 ) ) ;
#477 = ORIENTED_EDGE ( 'NONE', *, *, #270, .T. ) ;
#478 = AXIS2_PLACEMENT_3D ( 'NONE', #229, #73, #294 ) ;
#479 = EDGE_CURVE ( 'NONE', #60, #55, #537, .T. ) ;
#480 = ORIENTED_EDGE ( 'NONE', *, *, #479, .F. ) ;
#481 = LINE ( 'NONE', #596, #226 ) ;
#482 = ORIENTED_EDGE ( 'NONE', *, *, #131, .T. ) ;
#483 = DIRECTION ( 'NONE',  ( 0.000000000000000000, 0.000000000000000000, 1.000000000000000000 ) ) ;
#484 = CARTESIAN_POINT ( 'NONE',  ( 57.03233758086752658, 21.90122987869204607, 8.000000000000000000 ) ) ;
#485 = AXIS2_PLACEMENT_3D ( 'NONE', #110, #224, #115 ) ;
#486 = LINE ( 'NONE', #122, #687 ) ;
#487 = ORIENTED_EDGE ( 'NONE', *, *, #290, .T. ) ;
#488 = AXIS2_PLACEMENT_3D ( 'NONE', #85, #559, #619 ) ;
#489 = EDGE_CURVE ( 'NONE', #77, #582, #497, .T. ) ;
#490 = VECTOR ( 'NONE', #472, 1000.000000000000000 ) ;
#491 = EDGE_LOOP ( 'NONE', ( #634, #665, #251, #213 ) ) ;
#492 = ORIENTED_EDGE ( 'NONE', *, *, #538, .T. ) ;
#493 = CIRCLE ( 'NONE', #203, 12.00000000000000355 ) ;
#494 = VERTEX_POINT ( 'NONE', #189 ) ;
#495 = CARTESIAN_POINT ( 'NONE',  ( -57.03233758086796001, 21.90122987869185778, 8.000000000000000000 ) ) ;
#496 = DIRECTION ( 'NONE',  ( -0.000000000000000000, 0.000000000000000000, 1.000000000000000000 ) ) ;
#497 = CIRCLE ( 'NONE', #112, 8.019999999999999574 ) ;
#498 = CARTESIAN_POINT ( 'NONE',  ( 0.000000000000000000, -119.8126041666668158, 0.000000000000000000 ) ) ;
#499 = DIRECTION ( 'NONE',  ( -0.000000000000000000, -0.000000000000000000, -1.000000000000000000 ) ) ;
#500 = AXIS2_PLACEMENT_3D ( 'NONE', #123, #557, #297 ) ;
#501 = CARTESIAN_POINT ( 'NONE',  ( -46.93000000000000682, 9.821667329161771188E-16, 0.000000000000000000 ) ) ;
#502 = EDGE_CURVE ( 'NONE', #5, #319, #72, .T. ) ;
#503 = CARTESIAN_POINT ( 'NONE',  ( 52.19858747216140671, -10.77595648048249011, 8.000000000000000000 ) ) ;
#504 = FACE_OUTER_BOUND ( 'NONE', #69, .T. ) ;
#505 = EDGE_LOOP ( 'NONE', ( #173, #391, #258, #305 ) ) ;
#506 = CYLINDRICAL_SURFACE ( 'NONE', #639, 127.8126041666668158 ) ;
#507 = EDGE_CURVE ( 'NONE', #43, #63, #592, .T. ) ;
#508 = DIRECTION ( 'NONE',  ( 1.000000000000000000, 0.000000000000000000, 0.000000000000000000 ) ) ;
#509 = AXIS2_PLACEMENT_3D ( 'NONE', #320, #473, #534 ) ;
#510 = ORIENTED_EDGE ( 'NONE', *, *, #14, .F. ) ;
#511 = CARTESIAN_POINT ( 'NONE',  ( 52.19858747216140671, -10.77595648048249011, 8.000000000000000000 ) ) ;
#512 = COLOUR_RGB ( '',0.7921568627450980005, 0.8196078431372548767, 0.9333333333333333481 ) ;
#513 = ADVANCED_FACE ( 'NONE', ( #392 ), #195, .T. ) ;
#514 = FACE_BOUND ( 'NONE', #10, .T. ) ;
#515 = VERTEX_POINT ( 'NONE', #345 ) ;
#516 = FACE_BOUND ( 'NONE', #353, .T. ) ;
#517 = DIRECTION ( 'NONE',  ( -0.000000000000000000, 0.000000000000000000, 1.000000000000000000 ) ) ;
#518 = EDGE_LOOP ( 'NONE', ( #646, #377 ) ) ;
#519 = DIRECTION ( 'NONE',  ( 1.000000000000000000, 0.000000000000000000, 0.000000000000000000 ) ) ;
#520 = CARTESIAN_POINT ( 'NONE',  ( 56.08582049865501773, 11.94612538837739990, 8.000000000000000000 ) ) ;
#521 = EDGE_CURVE ( 'NONE', #577, #118, #386, .T. ) ;
#522 = CARTESIAN_POINT ( 'NONE',  ( -30.55118850047684020, 12.51913175386000532, 8.000000000000000000 ) ) ;
#523 = ORIENTED_EDGE ( 'NONE', *, *, #435, .T. ) ;
#524 = DIRECTION ( 'NONE',  ( 0.000000000000000000, 0.000000000000000000, 1.000000000000000000 ) ) ;
#525 = DIRECTION ( 'NONE',  ( -0.000000000000000000, -0.000000000000000000, 1.000000000000000000 ) ) ;
#526 = VERTEX_POINT ( 'NONE', #511 ) ;
#527 =( NAMED_UNIT ( * ) SI_UNIT ( $, .STERADIAN. ) SOLID_ANGLE_UNIT ( ) );
#528 = EDGE_CURVE ( 'NONE', #582, #77, #166, .T. ) ;
#529 = AXIS2_PLACEMENT_3D ( 'NONE', #157, #165, #519 ) ;
#530 = ORIENTED_EDGE ( 'NONE', *, *, #338, .F. ) ;
#531 = CLOSED_SHELL ( 'NONE', ( #248, #172, #536, #580, #674, #607, #135, #174, #438, #52, #120, #367, #90, #105, #513, #632, #198, #542, #158, #289 ) ) ;
#532 = VECTOR ( 'NONE', #457, 1000.000000000000000 ) ;
#533 = CARTESIAN_POINT ( 'NONE',  ( 0.000000000000000000, 0.000000000000000000, 0.000000000000000000 ) ) ;
#534 = DIRECTION ( 'NONE',  ( 1.000000000000000000, 8.890457814381134387E-16, 0.000000000000000000 ) ) ;
#535 = EDGE_LOOP ( 'NONE', ( #480, #428, #321, #431 ) ) ;
#536 = ADVANCED_FACE ( 'NONE', ( #78 ), #295, .T. ) ;
#537 = CIRCLE ( 'NONE', #322, 4.000000000000000000 ) ;
#538 = EDGE_CURVE ( 'NONE', #319, #515, #282, .T. ) ;
#539 = ORIENTED_EDGE ( 'NONE', *, *, #528, .T. ) ;
#540 = PRODUCT_DEFINITION_FORMATION_WITH_SPECIFIED_SOURCE ( 'ä»', '', #168, .NOT_KNOWN. ) ;
#541 = AXIS2_PLACEMENT_3D ( 'NONE', #15, #653, #178 ) ;
#542 = ADVANCED_FACE ( 'NONE', ( #616 ), #506, .T. ) ;
#543 = ORIENTED_EDGE ( 'NONE', *, *, #290, .F. ) ;
#544 = ORIENTED_EDGE ( 'NONE', *, *, #8, .F. ) ;
#545 = AXIS2_PLACEMENT_3D ( 'NONE', #57, #640, #695 ) ;
#546 = CARTESIAN_POINT ( 'NONE',  ( 30.55118850047776746, 12.51913175385980992, 0.000000000000000000 ) ) ;
#547 = VERTEX_POINT ( 'NONE', #302 ) ;
#548 = CARTESIAN_POINT ( 'NONE',  ( 52.19858747216140671, -10.77595648048249011, 0.000000000000000000 ) ) ;
#549 = DIRECTION ( 'NONE',  ( 0.000000000000000000, -0.000000000000000000, -1.000000000000000000 ) ) ;
#550 = DIRECTION ( 'NONE',  ( 0.000000000000000000, 0.000000000000000000, 1.000000000000000000 ) ) ;
#551 = EDGE_CURVE ( 'NONE', #547, #29, #103, .T. ) ;
#552 = DIRECTION ( 'NONE',  ( 1.000000000000000000, 0.000000000000000000, 0.000000000000000000 ) ) ;
#553 = CARTESIAN_POINT ( 'NONE',  ( -54.95000000000000284, 0.000000000000000000, 8.000000000000000000 ) ) ;
#554 = CARTESIAN_POINT ( 'NONE',  ( 2.081668171172168513E-14, -131.8126041666668016, 8.000000000000000000 ) ) ;
#555 = CARTESIAN_POINT ( 'NONE',  ( 62.20188726666722800, -9.560864556699346650, 8.000000000000000000 ) ) ;
#556 = FACE_OUTER_BOUND ( 'NONE', #608, .T. ) ;
#557 = DIRECTION ( 'NONE',  ( -0.000000000000000000, -0.000000000000000000, -1.000000000000000000 ) ) ;
#558 =( GEOMETRIC_REPRESENTATION_CONTEXT ( 3 ) GLOBAL_UNCERTAINTY_ASSIGNED_CONTEXT ( ( #681 ) ) GLOBAL_UNIT_ASSIGNED_CONTEXT ( ( #642, #6, #61 ) ) REPRESENTATION_CONTEXT ( 'NONE', 'WORKASPACE' ) );
#559 = DIRECTION ( 'NONE',  ( -0.000000000000000000, 0.000000000000000000, 1.000000000000000000 ) ) ;
#560 = VECTOR ( 'NONE', #239, 1000.000000000000000 ) ;
#561 = CARTESIAN_POINT ( 'NONE',  ( 54.95000000000000284, 0.000000000000000000, 8.000000000000000000 ) ) ;
#562 = PRODUCT_DEFINITION ( 'æœ', '', #540, #372 ) ;
#563 = EDGE_LOOP ( 'NONE', ( #278, #281, #311, #200 ) ) ;
#564 = LINE ( 'NONE', #446, #382 ) ;
#565 = LINE ( 'NONE', #635, #192 ) ;
#566 = CIRCLE ( 'NONE', #410, 135.8126041666668016 ) ;
#567 = EDGE_LOOP ( 'NONE', ( #185, #523, #33, #210 ) ) ;
#568 = DIRECTION ( 'NONE',  ( 0.000000000000000000, 0.000000000000000000, 1.000000000000000000 ) ) ;
#569 = CARTESIAN_POINT ( 'NONE',  ( 56.15864787777787370, -1.593477426116559403, 8.000000000000000000 ) ) ;
#570 = ORIENTED_EDGE ( 'NONE', *, *, #489, .F. ) ;
#571 = CARTESIAN_POINT ( 'NONE',  ( -56.08582049865525221, 11.94612538837737858, 8.000000000000000000 ) ) ;
#572 = DIRECTION ( 'NONE',  ( 1.000000000000000000, 0.000000000000000000, 0.000000000000000000 ) ) ;
#573 = ORIENTED_EDGE ( 'NONE', *, *, #453, .T. ) ;
#574 = DIRECTION ( 'NONE',  ( -0.000000000000000000, -0.000000000000000000, -1.000000000000000000 ) ) ;
#575 = CARTESIAN_POINT ( 'NONE',  ( 54.95000000000000284, 0.000000000000000000, 8.000000000000000000 ) ) ;
#576 = EDGE_CURVE ( 'NONE', #373, #393, #68, .T. ) ;
#577 = VERTEX_POINT ( 'NONE', #419 ) ;
#578 = AXIS2_PLACEMENT_3D ( 'NONE', #366, #175, #272 ) ;
#579 = DIRECTION ( 'NONE',  ( -0.000000000000000000, -0.000000000000000000, -1.000000000000000000 ) ) ;
#580 = ADVANCED_FACE ( 'NONE', ( #467 ), #684, .F. ) ;
#581 = MANIFOLD_SOLID_BREP ( '\X2\52079664\X0\-\X2\62c94f38\X0\1', #531 ) ;
#582 = VERTEX_POINT ( 'NONE', #312 ) ;
#583 = SURFACE_SIDE_STYLE ('',( #689 ) ) ;
#584 = VECTOR ( 'NONE', #414, 1000.000000000000000 ) ;
#585 = CARTESIAN_POINT ( 'NONE',  ( 33.65138428310229557, 8.621651494718870268, 8.000000000000000000 ) ) ;
#586 = ORIENTED_EDGE ( 'NONE', *, *, #576, .T. ) ;
#587 = CIRCLE ( 'NONE', #202, 12.00000000000000355 ) ;
#588 = AXIS2_PLACEMENT_3D ( 'NONE', #310, #87, #245 ) ;
#589 = EDGE_CURVE ( 'NONE', #222, #88, #138, .T. ) ;
#590 = DIRECTION ( 'NONE',  ( -0.000000000000000000, -0.000000000000000000, -1.000000000000000000 ) ) ;
#591 = VERTEX_POINT ( 'NONE', #459 ) ;
#592 = CIRCLE ( 'NONE', #425, 8.019999999999999574 ) ;
#593 = DIRECTION ( 'NONE',  ( 1.000000000000000000, 0.000000000000000000, 0.000000000000000000 ) ) ;
#594 = EDGE_LOOP ( 'NONE', ( #570, #315 ) ) ;
#595 = EDGE_CURVE ( 'NONE', #109, #222, #354, .T. ) ;
#596 = CARTESIAN_POINT ( 'NONE',  ( 62.96999999999999886, 9.821667329161769216E-16, 8.000000000000000000 ) ) ;
#597 = EDGE_LOOP ( 'NONE', ( #129, #261, #405, #227 ) ) ;
#598 = CIRCLE ( 'NONE', #404, 131.8126041666668016 ) ;
#599 = CARTESIAN_POINT ( 'NONE',  ( -57.03233758086796001, 21.90122987869185778, 0.000000000000000000 ) ) ;
#600 = AXIS2_PLACEMENT_3D ( 'NONE', #125, #658, #65 ) ;
#601 = LINE ( 'NONE', #79, #560 ) ;
#602 = PRESENTATION_LAYER_ASSIGNMENT (  '', '', ( #250 ) ) ;
#603 = EDGE_CURVE ( 'NONE', #169, #445, #230, .T. ) ;
#604 = ORIENTED_EDGE ( 'NONE', *, *, #30, .F. ) ;
#605 = DIRECTION ( 'NONE',  ( -0.000000000000000000, -0.000000000000000000, -1.000000000000000000 ) ) ;
#606 = DIRECTION ( 'NONE',  ( -0.000000000000000000, 0.000000000000000000, 1.000000000000000000 ) ) ;
#607 = ADVANCED_FACE ( 'NONE', ( #680 ), #309, .T. ) ;
#608 = EDGE_LOOP ( 'NONE', ( #287, #11, #644, #184, #94, #97, #469, #136, #492 ) ) ;
#609 = DIRECTION ( 'NONE',  ( 1.000000000000000000, 0.000000000000000000, 0.000000000000000000 ) ) ;
#610 = EDGE_CURVE ( 'NONE', #308, #285, #263, .T. ) ;
#611 = LINE ( 'NONE', #659, #231 ) ;
#612 = APPLICATION_CONTEXT ( 'automotive_design' ) ;
#613 = DIRECTION ( 'NONE',  ( -0.000000000000000000, 0.000000000000000000, 1.000000000000000000 ) ) ;
#614 = CIRCLE ( 'NONE', #313, 12.00000000000000355 ) ;
#615 = CARTESIAN_POINT ( 'NONE',  ( 62.96999999999999886, 9.821667329161775132E-16, 8.000000000000000000 ) ) ;
#616 = FACE_OUTER_BOUND ( 'NONE', #491, .T. ) ;
#617 = DIRECTION ( 'NONE',  ( 0.000000000000000000, 0.000000000000000000, 1.000000000000000000 ) ) ;
#618 = ORIENTED_EDGE ( 'NONE', *, *, #318, .T. ) ;
#619 = DIRECTION ( 'NONE',  ( 1.000000000000000000, 0.000000000000000000, 0.000000000000000000 ) ) ;
#620 = AXIS2_PLACEMENT_3D ( 'NONE', #451, #133, #440 ) ;
#621 = DIRECTION ( 'NONE',  ( -1.000000000000000000, 0.000000000000000000, 0.000000000000000000 ) ) ;
#622 = EDGE_LOOP ( 'NONE', ( #156, #693, #101, #219 ) ) ;
#623 = DIRECTION ( 'NONE',  ( -0.000000000000000000, 0.000000000000000000, 1.000000000000000000 ) ) ;
#624 = AXIS2_PLACEMENT_3D ( 'NONE', #394, #499, #241 ) ;
#625 = EDGE_CURVE ( 'NONE', #393, #348, #95, .T. ) ;
#626 = ORIENTED_EDGE ( 'NONE', *, *, #276, .F. ) ;
#627 = CARTESIAN_POINT ( 'NONE',  ( 30.55118850047776746, 12.51913175385980992, -12.00000000000000000 ) ) ;
#628 = UNCERTAINTY_MEASURE_WITH_UNIT (LENGTH_MEASURE( 1.000000000000000082E-05 ), #206, 'distance_accuracy_value', 'NONE');
#629 = DIRECTION ( 'NONE',  ( 1.000000000000000000, 0.000000000000000000, 0.000000000000000000 ) ) ;
#630 = ORIENTED_EDGE ( 'NONE', *, *, #388, .F. ) ;
#631 = DIRECTION ( 'NONE',  ( -1.000000000000000000, 0.000000000000000000, 0.000000000000000000 ) ) ;
#632 = ADVANCED_FACE ( 'NONE', ( #102 ), #151, .F. ) ;
#633 = DIRECTION ( 'NONE',  ( -0.000000000000000000, 0.000000000000000000, 1.000000000000000000 ) ) ;
#634 = ORIENTED_EDGE ( 'NONE', *, *, #338, .T. ) ;
#635 = CARTESIAN_POINT ( 'NONE',  ( -66.95000000000000284, 0.000000000000000000, 8.000000000000000000 ) ) ;
#636 = ORIENTED_EDGE ( 'NONE', *, *, #20, .F. ) ;
#637 = AXIS2_PLACEMENT_3D ( 'NONE', #575, #671, #193 ) ;
#638 = DIRECTION ( 'NONE',  ( 1.000000000000000000, 0.000000000000000000, 0.000000000000000000 ) ) ;
#639 = AXIS2_PLACEMENT_3D ( 'NONE', #288, #34, #350 ) ;
#640 = DIRECTION ( 'NONE',  ( -0.000000000000000000, -0.000000000000000000, 1.000000000000000000 ) ) ;
#641 = EDGE_LOOP ( 'NONE', ( #477, #487, #141, #696 ) ) ;
#642 =( LENGTH_UNIT ( ) NAMED_UNIT ( * ) SI_UNIT ( .MILLI., .METRE. ) );
#643 = CARTESIAN_POINT ( 'NONE',  ( -52.19858747216201067, -10.77595648048276722, 0.000000000000000000 ) ) ;
#644 = ORIENTED_EDGE ( 'NONE', *, *, #610, .T. ) ;
#645 = CARTESIAN_POINT ( 'NONE',  ( 29.65138428310229912, 8.621651494718870268, 8.000000000000000000 ) ) ;
#646 = ORIENTED_EDGE ( 'NONE', *, *, #589, .T. ) ;
#647 = PRODUCT_RELATED_PRODUCT_CATEGORY ( 'part', '', ( #168 ) ) ;
#648 = DIRECTION ( 'NONE',  ( -0.000000000000000000, 0.000000000000000000, 1.000000000000000000 ) ) ;
#649 = EDGE_LOOP ( 'NONE', ( #106, #205, #329, #544 ) ) ;
#650 = DIRECTION ( 'NONE',  ( 1.000000000000000000, 0.000000000000000000, 0.000000000000000000 ) ) ;
#651 = AXIS2_PLACEMENT_3D ( 'NONE', #89, #44, #638 ) ;
#652 = EDGE_CURVE ( 'NONE', #116, #368, #409, .T. ) ;
#653 = DIRECTION ( 'NONE',  ( -0.000000000000000000, 0.000000000000000000, 1.000000000000000000 ) ) ;
#654 = DIRECTION ( 'NONE',  ( 1.000000000000000000, 0.000000000000000000, 0.000000000000000000 ) ) ;
#655 = ORIENTED_EDGE ( 'NONE', *, *, #45, .T. ) ;
#656 = DIRECTION ( 'NONE',  ( -0.000000000000000000, 0.000000000000000000, 1.000000000000000000 ) ) ;
#657 = AXIS2_PLACEMENT_3D ( 'NONE', #484, #179, #121 ) ;
#658 = DIRECTION ( 'NONE',  ( 0.000000000000000000, 0.000000000000000000, 1.000000000000000000 ) ) ;
#659 = CARTESIAN_POINT ( 'NONE',  ( -46.93000000000000682, 9.821667329161771188E-16, 8.000000000000000000 ) ) ;
#660 = EDGE_CURVE ( 'NONE', #55, #291, #216, .T. ) ;
#661 = EDGE_CURVE ( 'NONE', #368, #233, #284, .T. ) ;
#662 = CARTESIAN_POINT ( 'NONE',  ( 57.03233758086752658, 21.90122987869204607, 0.000000000000000000 ) ) ;
#663 = AXIS2_PLACEMENT_3D ( 'NONE', #561, #517, #629 ) ;
#664 = DIRECTION ( 'NONE',  ( 1.000000000000000000, 0.000000000000000000, 0.000000000000000000 ) ) ;
#665 = ORIENTED_EDGE ( 'NONE', *, *, #41, .T. ) ;
#666 = DIRECTION ( 'NONE',  ( 1.000000000000000000, 0.000000000000000000, 0.000000000000000000 ) ) ;
#667 = DIRECTION ( 'NONE',  ( 1.000000000000000000, 1.737266886726496535E-15, 0.000000000000000000 ) ) ;
#668 = CARTESIAN_POINT ( 'NONE',  ( 29.65138428310229912, 8.621651494718870268, 0.000000000000000000 ) ) ;
#669 = AXIS2_PLACEMENT_3D ( 'NONE', #335, #104, #323 ) ;
#670 = CARTESIAN_POINT ( 'NONE',  ( 0.000000000000000000, 0.000000000000000000, 0.000000000000000000 ) ) ;
#671 = DIRECTION ( 'NONE',  ( -0.000000000000000000, -0.000000000000000000, -1.000000000000000000 ) ) ;
#672 = CARTESIAN_POINT ( 'NONE',  ( -56.15864787777852740, -1.593477426116884255, 8.000000000000000000 ) ) ;
#673 = AXIS2_PLACEMENT_3D ( 'NONE', #146, #579, #631 ) ;
#674 = ADVANCED_FACE ( 'NONE', ( #697 ), #421, .F. ) ;
#675 = CARTESIAN_POINT ( 'NONE',  ( -53.55376196469293149, 12.52575593426893974, 8.000000000000000000 ) ) ;
#676 = EDGE_CURVE ( 'NONE', #494, #373, #119, .T. ) ;
#677 = CYLINDRICAL_SURFACE ( 'NONE', #296, 10.00000000000000178 ) ;
#678 = AXIS2_PLACEMENT_3D ( 'NONE', #98, #524, #266 ) ;
#679 = EDGE_LOOP ( 'NONE', ( #543, #463, #371, #363 ) ) ;
#680 = FACE_OUTER_BOUND ( 'NONE', #466, .T. ) ;
#681 = UNCERTAINTY_MEASURE_WITH_UNIT (LENGTH_MEASURE( 1.000000000000000082E-05 ), #642, 'distance_accuracy_value', 'NONE');
#682 = DIRECTION ( 'NONE',  ( 0.000000000000000000, 0.000000000000000000, 1.000000000000000000 ) ) ;
#683 = ORIENTED_EDGE ( 'NONE', *, *, #411, .T. ) ;
#684 = CYLINDRICAL_SURFACE ( 'NONE', #673, 8.019999999999999574 ) ;
#685 = LINE ( 'NONE', #351, #181 ) ;
#686 = DIRECTION ( 'NONE',  ( 1.000000000000000000, 0.000000000000000000, 0.000000000000000000 ) ) ;
#687 = VECTOR ( 'NONE', #13, 1000.000000000000000 ) ;
#688 = ORIENTED_EDGE ( 'NONE', *, *, #388, .T. ) ;
#689 = SURFACE_STYLE_FILL_AREA ( #255 ) ;
#690 = FACE_BOUND ( 'NONE', #265, .T. ) ;
#691 = DIRECTION ( 'NONE',  ( -0.000000000000000000, -0.000000000000000000, -1.000000000000000000 ) ) ;
#692 = AXIS2_PLACEMENT_3D ( 'NONE', #199, #623, #572 ) ;
#693 = ORIENTED_EDGE ( 'NONE', *, *, #152, .F. ) ;
#694 = CARTESIAN_POINT ( 'NONE',  ( 54.95000000000000284, 0.000000000000000000, 8.000000000000000000 ) ) ;
#695 = DIRECTION ( 'NONE',  ( 1.000000000000000000, 0.000000000000000000, 0.000000000000000000 ) ) ;
#696 = ORIENTED_EDGE ( 'NONE', *, *, #595, .F. ) ;
#697 = FACE_OUTER_BOUND ( 'NONE', #567, .T. ) ;
ENDSEC;
END-ISO-10303-21;
