ISO-10303-21;
HEADER;
FILE_DESCRIPTION (( 'STEP AP214' ),
    '1' );
FILE_NAME ('Á¬¸Ë3A.STEP',
    '2026-08-16T17:26:49',
    ( '' ),
    ( '' ),
    'SwSTEP 2.0',
    'SolidWorks 2025',
    '' );
FILE_SCHEMA (( 'AUTOMOTIVE_DESIGN' ));
ENDSEC;

DATA;
#1 = EDGE_CURVE ( 'NONE', #658, #572, #385, .T. ) ;
#2 = DIRECTION ( 'NONE',  ( 1.000000000000000000, 0.000000000000000000, 0.000000000000000000 ) ) ;
#3 = VERTEX_POINT ( 'NONE', #71 ) ;
#4 = DIRECTION ( 'NONE',  ( 1.000000000000000000, 0.000000000000000000, 0.000000000000000000 ) ) ;
#5 = AXIS2_PLACEMENT_3D ( 'NONE', #160, #372, #215 ) ;
#6 = EDGE_CURVE ( 'NONE', #171, #472, #488, .T. ) ;
#7 = CARTESIAN_POINT ( 'NONE',  ( -42.67334617360802440, 17.99999999999999289, 0.000000000000000000 ) ) ;
#8 = ORIENTED_EDGE ( 'NONE', *, *, #652, .F. ) ;
#9 = APPLICATION_PROTOCOL_DEFINITION ( 'draft international standard', 'automotive_design', 1998, #169 ) ;
#10 = AXIS2_PLACEMENT_3D ( 'NONE', #491, #76, #289 ) ;
#11 = AXIS2_PLACEMENT_3D ( 'NONE', #615, #586, #115 ) ;
#12 = DIRECTION ( 'NONE',  ( 1.000000000000000000, 0.000000000000000000, 0.000000000000000000 ) ) ;
#13 = VERTEX_POINT ( 'NONE', #484 ) ;
#14 = ADVANCED_FACE ( 'NONE', ( #426 ), #533, .F. ) ;
#15 = ORIENTED_EDGE ( 'NONE', *, *, #72, .F. ) ;
#16 = DIRECTION ( 'NONE',  ( 0.000000000000000000, 0.000000000000000000, 1.000000000000000000 ) ) ;
#17 = CIRCLE ( 'NONE', #567, 2.500000000000009326 ) ;
#18 = DIRECTION ( 'NONE',  ( -0.000000000000000000, 0.000000000000000000, 1.000000000000000000 ) ) ;
#19 = ORIENTED_EDGE ( 'NONE', *, *, #22, .F. ) ;
#20 = ORIENTED_EDGE ( 'NONE', *, *, #1, .T. ) ;
#21 = VECTOR ( 'NONE', #349, 1000.000000000000000 ) ;
#22 = EDGE_CURVE ( 'NONE', #166, #637, #64, .T. ) ;
#23 = DIRECTION ( 'NONE',  ( -0.000000000000000000, -0.000000000000000000, 1.000000000000000000 ) ) ;
#24 = CARTESIAN_POINT ( 'NONE',  ( -42.67334617360801730, -7.999999999999983125, -2.000000000000000000 ) ) ;
#25 = VECTOR ( 'NONE', #236, 1000.000000000000000 ) ;
#26 = CARTESIAN_POINT ( 'NONE',  ( -61.50500000000000256, 9.815544095166035299E-16, -2.000000000000000000 ) ) ;
#27 = EDGE_CURVE ( 'NONE', #443, #247, #655, .T. ) ;
#28 = DIRECTION ( 'NONE',  ( -0.000000000000000000, -0.000000000000000000, 1.000000000000000000 ) ) ;
#29 = CARTESIAN_POINT ( 'NONE',  ( 42.67334617360801730, -17.99999999999997158, 0.000000000000000000 ) ) ;
#30 = DIRECTION ( 'NONE',  ( 1.000000000000000000, 1.156482317317871478E-16, 0.000000000000000000 ) ) ;
#31 = FACE_OUTER_BOUND ( 'NONE', #210, .T. ) ;
#32 = ADVANCED_FACE ( 'NONE', ( #31 ), #442, .F. ) ;
#33 = ORIENTED_EDGE ( 'NONE', *, *, #192, .T. ) ;
#34 = DIRECTION ( 'NONE',  ( 0.000000000000000000, 0.000000000000000000, 1.000000000000000000 ) ) ;
#35 = DIRECTION ( 'NONE',  ( 0.000000000000000000, 0.000000000000000000, 1.000000000000000000 ) ) ;
#36 = VECTOR ( 'NONE', #51, 1000.000000000000000 ) ;
#37 = CYLINDRICAL_SURFACE ( 'NONE', #638, 10.00000000000000178 ) ;
#38 = DIRECTION ( 'NONE',  ( 1.000000000000000000, 0.000000000000000000, 0.000000000000000000 ) ) ;
#39 = ORIENTED_EDGE ( 'NONE', *, *, #492, .T. ) ;
#40 = DIRECTION ( 'NONE',  ( -1.868163743359638428E-16, 1.000000000000000000, 0.000000000000000000 ) ) ;
#41 = CIRCLE ( 'NONE', #415, 10.00000000000000178 ) ;
#42 = ORIENTED_EDGE ( 'NONE', *, *, #393, .T. ) ;
#43 = CARTESIAN_POINT ( 'NONE',  ( 53.49000000000000199, 1.965190718591757775E-14, 0.000000000000000000 ) ) ;
#44 = EDGE_CURVE ( 'NONE', #637, #146, #357, .T. ) ;
#45 = LINE ( 'NONE', #496, #607 ) ;
#46 = ORIENTED_EDGE ( 'NONE', *, *, #27, .T. ) ;
#47 = DIRECTION ( 'NONE',  ( 1.000000000000000000, 0.000000000000000000, 0.000000000000000000 ) ) ;
#48 = FACE_BOUND ( 'NONE', #604, .T. ) ;
#49 = LINE ( 'NONE', #445, #584 ) ;
#50 = EDGE_LOOP ( 'NONE', ( #157, #462, #294, #117 ) ) ;
#51 = DIRECTION ( 'NONE',  ( -0.000000000000000000, -0.000000000000000000, 1.000000000000000000 ) ) ;
#52 = ORIENTED_EDGE ( 'NONE', *, *, #369, .F. ) ;
#53 = DIRECTION ( 'NONE',  ( 0.000000000000000000, 0.000000000000000000, 1.000000000000000000 ) ) ;
#54 = EDGE_CURVE ( 'NONE', #13, #572, #651, .T. ) ;
#55 = AXIS2_PLACEMENT_3D ( 'NONE', #364, #354, #551 ) ;
#56 = VERTEX_POINT ( 'NONE', #536 ) ;
#57 = EDGE_CURVE ( 'NONE', #132, #56, #490, .T. ) ;
#58 = LINE ( 'NONE', #636, #159 ) ;
#59 = VERTEX_POINT ( 'NONE', #183 ) ;
#60 = VECTOR ( 'NONE', #537, 1000.000000000000000 ) ;
#61 =( NAMED_UNIT ( * ) PLANE_ANGLE_UNIT ( ) SI_UNIT ( $, .RADIAN. ) );
#62 = AXIS2_PLACEMENT_3D ( 'NONE', #89, #576, #579 ) ;
#63 = VERTEX_POINT ( 'NONE', #644 ) ;
#64 = CIRCLE ( 'NONE', #10, 11.00000000000000355 ) ;
#65 = CARTESIAN_POINT ( 'NONE',  ( -47.82413370998515489, -9.428571428571421720, 0.000000000000000000 ) ) ;
#66 = ADVANCED_FACE ( 'NONE', ( #595 ), #235, .F. ) ;
#67 = ORIENTED_EDGE ( 'NONE', *, *, #116, .T. ) ;
#68 = LINE ( 'NONE', #26, #178 ) ;
#69 = ORIENTED_EDGE ( 'NONE', *, *, #492, .F. ) ;
#70 = VECTOR ( 'NONE', #257, 1000.000000000000000 ) ;
#71 = CARTESIAN_POINT ( 'NONE',  ( -32.50000000000000000, 2.500000000000011546, 0.000000000000000000 ) ) ;
#72 = EDGE_CURVE ( 'NONE', #631, #599, #612, .T. ) ;
#73 = ORIENTED_EDGE ( 'NONE', *, *, #440, .T. ) ;
#74 = DIRECTION ( 'NONE',  ( 0.000000000000000000, 0.000000000000000000, 1.000000000000000000 ) ) ;
#75 = EDGE_CURVE ( 'NONE', #675, #530, #49, .T. ) ;
#76 = DIRECTION ( 'NONE',  ( -0.000000000000000000, 0.000000000000000000, 1.000000000000000000 ) ) ;
#77 = DIRECTION ( 'NONE',  ( -0.000000000000000000, 0.000000000000000000, 1.000000000000000000 ) ) ;
#78 = AXIS2_PLACEMENT_3D ( 'NONE', #601, #74, #280 ) ;
#79 = DIRECTION ( 'NONE',  ( -0.000000000000000000, -0.000000000000000000, 1.000000000000000000 ) ) ;
#80 = EDGE_CURVE ( 'NONE', #166, #443, #45, .T. ) ;
#81 = CARTESIAN_POINT ( 'NONE',  ( -42.67334617360801730, -17.99999999999998224, 8.000000000000000000 ) ) ;
#82 = ORIENTED_EDGE ( 'NONE', *, *, #116, .F. ) ;
#83 = CARTESIAN_POINT ( 'NONE',  ( 32.50000000000000711, -2.499999999999999556, 0.000000000000000000 ) ) ;
#84 = ORIENTED_EDGE ( 'NONE', *, *, #185, .T. ) ;
#85 = CYLINDRICAL_SURFACE ( 'NONE', #588, 10.00000000000000178 ) ;
#86 = CIRCLE ( 'NONE', #173, 10.00000000000000178 ) ;
#87 = ORIENTED_EDGE ( 'NONE', *, *, #429, .F. ) ;
#88 = DIRECTION ( 'NONE',  ( 0.000000000000000000, 0.000000000000000000, 1.000000000000000000 ) ) ;
#89 = CARTESIAN_POINT ( 'NONE',  ( -53.49000000000000199, 0.000000000000000000, 8.000000000000000000 ) ) ;
#90 = VERTEX_POINT ( 'NONE', #667 ) ;
#91 = LINE ( 'NONE', #504, #234 ) ;
#92 = DIRECTION ( 'NONE',  ( -0.000000000000000000, -0.000000000000000000, 1.000000000000000000 ) ) ;
#93 = CARTESIAN_POINT ( 'NONE',  ( -42.67334617360801730, -7.999999999999983125, 8.000000000000000000 ) ) ;
#94 = ORIENTED_EDGE ( 'NONE', *, *, #192, .F. ) ;
#95 = DIRECTION ( 'NONE',  ( -1.000000000000000000, -1.619075244245020119E-16, 0.000000000000000000 ) ) ;
#96 = FACE_OUTER_BOUND ( 'NONE', #161, .T. ) ;
#97 = ORIENTED_EDGE ( 'NONE', *, *, #165, .T. ) ;
#98 = DIRECTION ( 'NONE',  ( 0.000000000000000000, 0.000000000000000000, 1.000000000000000000 ) ) ;
#99 = VECTOR ( 'NONE', #152, 1000.000000000000000 ) ;
#100 =( NAMED_UNIT ( * ) SI_UNIT ( $, .STERADIAN. ) SOLID_ANGLE_UNIT ( ) );
#101 = ADVANCED_FACE ( 'NONE', ( #96 ), #203, .T. ) ;
#102 = EDGE_LOOP ( 'NONE', ( #94, #580 ) ) ;
#103 = CARTESIAN_POINT ( 'NONE',  ( -61.50500000000000256, 9.815544095166033326E-16, 8.000000000000000000 ) ) ;
#104 = DIRECTION ( 'NONE',  ( -0.000000000000000000, -0.000000000000000000, 1.000000000000000000 ) ) ;
#105 = ADVANCED_FACE ( 'NONE', ( #556 ), #189, .F. ) ;
#106 = VERTEX_POINT ( 'NONE', #150 ) ;
#107 = DIRECTION ( 'NONE',  ( 0.000000000000000000, 0.000000000000000000, 1.000000000000000000 ) ) ;
#108 = ORIENTED_EDGE ( 'NONE', *, *, #400, .F. ) ;
#109 = APPLICATION_PROTOCOL_DEFINITION ( 'draft international standard', 'automotive_design', 1998, #478 ) ;
#110 = DIRECTION ( 'NONE',  ( -1.000000000000000000, -1.619075244245020119E-16, 0.000000000000000000 ) ) ;
#111 = ORIENTED_EDGE ( 'NONE', *, *, #296, .T. ) ;
#112 = AXIS2_PLACEMENT_3D ( 'NONE', #648, #336, #591 ) ;
#113 = EDGE_CURVE ( 'NONE', #472, #59, #86, .T. ) ;
#114 = EDGE_LOOP ( 'NONE', ( #420, #302, #540, #449 ) ) ;
#115 = DIRECTION ( 'NONE',  ( 1.000000000000000000, 0.000000000000000000, 0.000000000000000000 ) ) ;
#116 = EDGE_CURVE ( 'NONE', #343, #274, #616, .T. ) ;
#117 = ORIENTED_EDGE ( 'NONE', *, *, #321, .F. ) ;
#118 = DIRECTION ( 'NONE',  ( 1.000000000000000000, 0.000000000000000000, -0.000000000000000000 ) ) ;
#119 = PLANE ( 'NONE',  #353 ) ;
#120 = ORIENTED_EDGE ( 'NONE', *, *, #481, .F. ) ;
#121 = CIRCLE ( 'NONE', #391, 8.015000000000000568 ) ;
#122 = AXIS2_PLACEMENT_3D ( 'NONE', #7, #687, #417 ) ;
#123 = CARTESIAN_POINT ( 'NONE',  ( 53.49000000000000199, 1.965190718591757775E-14, -2.000000000000000000 ) ) ;
#124 = ORIENTED_EDGE ( 'NONE', *, *, #407, .F. ) ;
#125 = LINE ( 'NONE', #435, #167 ) ;
#126 = DIRECTION ( 'NONE',  ( 1.000000000000000000, 0.000000000000000000, 0.000000000000000000 ) ) ;
#127 = CARTESIAN_POINT ( 'NONE',  ( 32.50000000000000000, 2.500000000000023981, -2.000000000000000000 ) ) ;
#128 = DIRECTION ( 'NONE',  ( -0.000000000000000000, -0.000000000000000000, 1.000000000000000000 ) ) ;
#129 = EDGE_LOOP ( 'NONE', ( #469, #256, #242, #370 ) ) ;
#130 = ORIENTED_EDGE ( 'NONE', *, *, #471, .F. ) ;
#131 = DIRECTION ( 'NONE',  ( 0.000000000000000000, 0.000000000000000000, 1.000000000000000000 ) ) ;
#132 = VERTEX_POINT ( 'NONE', #193 ) ;
#133 = ORIENTED_EDGE ( 'NONE', *, *, #524, .T. ) ;
#134 = CARTESIAN_POINT ( 'NONE',  ( 42.67334617360802440, -7.999999999999970690, 8.000000000000000000 ) ) ;
#135 = DIRECTION ( 'NONE',  ( 1.000000000000000000, 0.000000000000000000, 0.000000000000000000 ) ) ;
#136 = CARTESIAN_POINT ( 'NONE',  ( -47.82413370998516200, 9.428571428571425272, 8.000000000000000000 ) ) ;
#137 = ORIENTED_EDGE ( 'NONE', *, *, #524, .F. ) ;
#138 = CARTESIAN_POINT ( 'NONE',  ( -53.49000000000000199, -2.500000000000015543, 0.000000000000000000 ) ) ;
#139 = AXIS2_PLACEMENT_3D ( 'NONE', #455, #452, #394 ) ;
#140 = STYLED_ITEM ( 'NONE', ( #502 ), #191 ) ;
#141 = DIRECTION ( 'NONE',  ( -0.000000000000000000, -0.000000000000000000, 1.000000000000000000 ) ) ;
#142 = VERTEX_POINT ( 'NONE', #684 ) ;
#143 = CARTESIAN_POINT ( 'NONE',  ( -32.50000000000000000, 2.500000000000011546, -2.000000000000000000 ) ) ;
#144 = CIRCLE ( 'NONE', #578, 10.00000000000000178 ) ;
#145 = LINE ( 'NONE', #293, #222 ) ;
#146 = VERTEX_POINT ( 'NONE', #93 ) ;
#147 = DIRECTION ( 'NONE',  ( 1.000000000000000000, 0.000000000000000000, 0.000000000000000000 ) ) ;
#148 = CIRCLE ( 'NONE', #213, 8.015000000000000568 ) ;
#149 = AXIS2_PLACEMENT_3D ( 'NONE', #81, #226, #434 ) ;
#150 = CARTESIAN_POINT ( 'NONE',  ( -42.67334617360802440, 7.999999999999992895, 8.000000000000000000 ) ) ;
#151 = EDGE_LOOP ( 'NONE', ( #519, #39, #286, #133, #688 ) ) ;
#152 = DIRECTION ( 'NONE',  ( -0.000000000000000000, -0.000000000000000000, 1.000000000000000000 ) ) ;
#153 = DIRECTION ( 'NONE',  ( -1.000000000000000000, -1.868163743359638182E-16, -0.000000000000000000 ) ) ;
#154 = ORIENTED_EDGE ( 'NONE', *, *, #538, .T. ) ;
#155 = DIRECTION ( 'NONE',  ( 1.000000000000000000, 1.868163743359638428E-16, 0.000000000000000000 ) ) ;
#156 = AXIS2_PLACEMENT_3D ( 'NONE', #347, #131, #663 ) ;
#157 = ORIENTED_EDGE ( 'NONE', *, *, #451, .T. ) ;
#158 = CARTESIAN_POINT ( 'NONE',  ( -61.50500000000000256, 9.815544095166033326E-16, 0.000000000000000000 ) ) ;
#159 = VECTOR ( 'NONE', #270, 1000.000000000000000 ) ;
#160 = CARTESIAN_POINT ( 'NONE',  ( 32.50000000000000000, 1.194030629168669430E-14, -2.000000000000000000 ) ) ;
#161 = EDGE_LOOP ( 'NONE', ( #46, #355, #19, #346 ) ) ;
#162 = SHAPE_DEFINITION_REPRESENTATION ( #333, #660 ) ;
#163 = CARTESIAN_POINT ( 'NONE',  ( -53.49000000000000199, -7.999999999999984901, 0.000000000000000000 ) ) ;
#164 = VERTEX_POINT ( 'NONE', #506 ) ;
#165 = EDGE_CURVE ( 'NONE', #59, #200, #145, .T. ) ;
#166 = VERTEX_POINT ( 'NONE', #136 ) ;
#167 = VECTOR ( 'NONE', #284, 1000.000000000000000 ) ;
#168 = PRODUCT_CONTEXT ( 'NONE', #169, 'mechanical' ) ;
#169 = APPLICATION_CONTEXT ( 'automotive_design' ) ;
#170 = CYLINDRICAL_SURFACE ( 'NONE', #5, 2.500000000000009326 ) ;
#171 = VERTEX_POINT ( 'NONE', #250 ) ;
#172 = ADVANCED_FACE ( 'NONE', ( #397 ), #198, .F. ) ;
#173 = AXIS2_PLACEMENT_3D ( 'NONE', #603, #678, #674 ) ;
#174 = DIRECTION ( 'NONE',  ( 1.000000000000000000, 0.000000000000000000, 0.000000000000000000 ) ) ;
#175 = CARTESIAN_POINT ( 'NONE',  ( -47.82413370998515489, -9.428571428571423496, -2.000000000000000000 ) ) ;
#176 = ORIENTED_EDGE ( 'NONE', *, *, #575, .F. ) ;
#177 = DIRECTION ( 'NONE',  ( 1.000000000000000000, 0.000000000000000000, 0.000000000000000000 ) ) ;
#178 = VECTOR ( 'NONE', #128, 1000.000000000000000 ) ;
#179 = DIRECTION ( 'NONE',  ( -0.000000000000000000, -0.000000000000000000, 1.000000000000000000 ) ) ;
#180 = CARTESIAN_POINT ( 'NONE',  ( 53.49000000000000199, 1.965190718591757775E-14, 0.000000000000000000 ) ) ;
#181 = LINE ( 'NONE', #337, #501 ) ;
#182 = AXIS2_PLACEMENT_3D ( 'NONE', #263, #16, #4 ) ;
#183 = CARTESIAN_POINT ( 'NONE',  ( 47.82413370998515489, 9.428571428571441260, 0.000000000000000000 ) ) ;
#184 = DIRECTION ( 'NONE',  ( 0.000000000000000000, 0.000000000000000000, 1.000000000000000000 ) ) ;
#185 = EDGE_CURVE ( 'NONE', #388, #274, #206, .T. ) ;
#186 = CARTESIAN_POINT ( 'NONE',  ( -53.49000000000000199, 0.000000000000000000, 0.000000000000000000 ) ) ;
#187 = FACE_OUTER_BOUND ( 'NONE', #431, .T. ) ;
#188 = CIRCLE ( 'NONE', #326, 8.015000000000000568 ) ;
#189 = CYLINDRICAL_SURFACE ( 'NONE', #139, 10.00000000000000178 ) ;
#190 = FACE_BOUND ( 'NONE', #480, .T. ) ;
#191 = MANIFOLD_SOLID_BREP ( '\X2\52079664\X0\-\X2\62c94f38\X0\5', #470 ) ;
#192 = EDGE_CURVE ( 'NONE', #572, #658, #628, .T. ) ;
#193 = CARTESIAN_POINT ( 'NONE',  ( 35.00000000000000711, 1.194030629168669430E-14, 0.000000000000000000 ) ) ;
#194 = ORIENTED_EDGE ( 'NONE', *, *, #332, .F. ) ;
#195 = DIRECTION ( 'NONE',  ( 1.000000000000000000, 0.000000000000000000, 0.000000000000000000 ) ) ;
#196 = AXIS2_PLACEMENT_3D ( 'NONE', #380, #657, #230 ) ;
#197 =( GEOMETRIC_REPRESENTATION_CONTEXT ( 3 ) GLOBAL_UNCERTAINTY_ASSIGNED_CONTEXT ( ( #555 ) ) GLOBAL_UNIT_ASSIGNED_CONTEXT ( ( #562, #621, #100 ) ) REPRESENTATION_CONTEXT ( 'NONE', 'WORKASPACE' ) );
#198 = CYLINDRICAL_SURFACE ( 'NONE', #483, 8.015000000000000568 ) ;
#199 = EDGE_CURVE ( 'NONE', #647, #271, #314, .T. ) ;
#200 = VERTEX_POINT ( 'NONE', #518 ) ;
#201 = CARTESIAN_POINT ( 'NONE',  ( 32.50000000000000000, 1.194030629168669430E-14, 8.000000000000000000 ) ) ;
#202 = CIRCLE ( 'NONE', #679, 11.00000000000000355 ) ;
#203 = CYLINDRICAL_SURFACE ( 'NONE', #55, 11.00000000000000355 ) ;
#204 = ORIENTED_EDGE ( 'NONE', *, *, #424, .F. ) ;
#205 = CARTESIAN_POINT ( 'NONE',  ( -32.50000000000000000, 0.000000000000000000, -2.000000000000000000 ) ) ;
#206 = LINE ( 'NONE', #254, #21 ) ;
#207 = EDGE_LOOP ( 'NONE', ( #319, #412, #8, #541 ) ) ;
#208 = FACE_OUTER_BOUND ( 'NONE', #563, .T. ) ;
#209 = ADVANCED_FACE ( 'NONE', ( #318 ), #624, .F. ) ;
#210 = EDGE_LOOP ( 'NONE', ( #405, #15, #338, #635 ) ) ;
#211 = DIRECTION ( 'NONE',  ( 0.000000000000000000, 0.000000000000000000, 1.000000000000000000 ) ) ;
#212 = ORIENTED_EDGE ( 'NONE', *, *, #594, .F. ) ;
#213 = AXIS2_PLACEMENT_3D ( 'NONE', #629, #377, #2 ) ;
#214 = ORIENTED_EDGE ( 'NONE', *, *, #421, .F. ) ;
#215 = DIRECTION ( 'NONE',  ( 1.000000000000000000, 0.000000000000000000, 0.000000000000000000 ) ) ;
#216 = ORIENTED_EDGE ( 'NONE', *, *, #264, .T. ) ;
#217 = AXIS2_PLACEMENT_3D ( 'NONE', #248, #98, #147 ) ;
#218 = ORIENTED_EDGE ( 'NONE', *, *, #680, .F. ) ;
#219 = LINE ( 'NONE', #425, #240 ) ;
#220 = ORIENTED_EDGE ( 'NONE', *, *, #619, .F. ) ;
#221 = EDGE_CURVE ( 'NONE', #456, #631, #41, .T. ) ;
#222 = VECTOR ( 'NONE', #141, 1000.000000000000000 ) ;
#223 = PRESENTATION_LAYER_ASSIGNMENT (  '', '', ( #140 ) ) ;
#224 = ORIENTED_EDGE ( 'NONE', *, *, #421, .T. ) ;
#225 = CARTESIAN_POINT ( 'NONE',  ( 32.50000000000000000, 1.194030629168669430E-14, 0.000000000000000000 ) ) ;
#226 = DIRECTION ( 'NONE',  ( -0.000000000000000000, -0.000000000000000000, -1.000000000000000000 ) ) ;
#227 = VECTOR ( 'NONE', #441, 1000.000000000000000 ) ;
#228 = DIRECTION ( 'NONE',  ( 1.000000000000000000, 0.000000000000000000, 0.000000000000000000 ) ) ;
#229 = DIRECTION ( 'NONE',  ( 1.156482317317871478E-16, -1.000000000000000000, 0.000000000000000000 ) ) ;
#230 = DIRECTION ( 'NONE',  ( 1.000000000000000000, 0.000000000000000000, 0.000000000000000000 ) ) ;
#231 = ADVANCED_FACE ( 'NONE', ( #261 ), #640, .F. ) ;
#232 = EDGE_LOOP ( 'NONE', ( #465, #600, #458, #493 ) ) ;
#233 = CARTESIAN_POINT ( 'NONE',  ( 53.49000000000000199, 1.965190718591757775E-14, 8.000000000000000000 ) ) ;
#234 = VECTOR ( 'NONE', #107, 1000.000000000000000 ) ;
#235 = CYLINDRICAL_SURFACE ( 'NONE', #277, 8.015000000000000568 ) ;
#236 = DIRECTION ( 'NONE',  ( -0.000000000000000000, -0.000000000000000000, 1.000000000000000000 ) ) ;
#237 = DIRECTION ( 'NONE',  ( 0.000000000000000000, 0.000000000000000000, -1.000000000000000000 ) ) ;
#238 = DIRECTION ( 'NONE',  ( 1.000000000000000000, 0.000000000000000000, -0.000000000000000000 ) ) ;
#239 = EDGE_CURVE ( 'NONE', #63, #325, #148, .T. ) ;
#240 = VECTOR ( 'NONE', #543, 1000.000000000000000 ) ;
#241 = SURFACE_STYLE_USAGE ( .BOTH. , #345 ) ;
#242 = ORIENTED_EDGE ( 'NONE', *, *, #332, .T. ) ;
#243 = CARTESIAN_POINT ( 'NONE',  ( -53.49000000000000199, 0.000000000000000000, 0.000000000000000000 ) ) ;
#244 = ADVANCED_FACE ( 'NONE', ( #414 ), #170, .F. ) ;
#245 = CARTESIAN_POINT ( 'NONE',  ( 42.67334617360801730, 18.00000000000000711, -2.000000000000000000 ) ) ;
#246 = AXIS2_PLACEMENT_3D ( 'NONE', #43, #399, #454 ) ;
#247 = VERTEX_POINT ( 'NONE', #65 ) ;
#248 = CARTESIAN_POINT ( 'NONE',  ( -32.50000000000000000, 0.000000000000000000, 8.000000000000000000 ) ) ;
#249 = FACE_BOUND ( 'NONE', #151, .T. ) ;
#250 = CARTESIAN_POINT ( 'NONE',  ( -42.67334617360802440, 7.999999999999992895, 0.000000000000000000 ) ) ;
#251 = ORIENTED_EDGE ( 'NONE', *, *, #575, .T. ) ;
#252 = LINE ( 'NONE', #512, #36 ) ;
#253 = VECTOR ( 'NONE', #287, 1000.000000000000000 ) ;
#254 = CARTESIAN_POINT ( 'NONE',  ( 32.50000000000000000, -2.499999999999999556, -2.000000000000000000 ) ) ;
#255 = EDGE_CURVE ( 'NONE', #132, #90, #582, .T. ) ;
#256 = ORIENTED_EDGE ( 'NONE', *, *, #255, .T. ) ;
#257 = DIRECTION ( 'NONE',  ( -0.000000000000000000, -0.000000000000000000, 1.000000000000000000 ) ) ;
#258 = CARTESIAN_POINT ( 'NONE',  ( 35.00000000000000711, 1.194030629168669430E-14, -2.000000000000000000 ) ) ;
#259 = EDGE_LOOP ( 'NONE', ( #482, #111, #378, #587 ) ) ;
#260 = PLANE ( 'NONE',  #598 ) ;
#261 = FACE_OUTER_BOUND ( 'NONE', #453, .T. ) ;
#262 = ORIENTED_EDGE ( 'NONE', *, *, #581, .F. ) ;
#263 = CARTESIAN_POINT ( 'NONE',  ( 53.49000000000000199, 1.965190718591757775E-14, 8.000000000000000000 ) ) ;
#264 = EDGE_CURVE ( 'NONE', #376, #343, #58, .T. ) ;
#265 = ORIENTED_EDGE ( 'NONE', *, *, #548, .T. ) ;
#266 = DIRECTION ( 'NONE',  ( -0.000000000000000000, -0.000000000000000000, 1.000000000000000000 ) ) ;
#267 = VECTOR ( 'NONE', #592, 1000.000000000000000 ) ;
#268 = VERTEX_POINT ( 'NONE', #467 ) ;
#269 = PRODUCT_DEFINITION_FORMATION_WITH_SPECIFIED_SOURCE ( 'å¯', '', #534, .NOT_KNOWN. ) ;
#270 = DIRECTION ( 'NONE',  ( -0.000000000000000000, -0.000000000000000000, 1.000000000000000000 ) ) ;
#271 = VERTEX_POINT ( 'NONE', #473 ) ;
#272 = EDGE_CURVE ( 'NONE', #443, #171, #468, .T. ) ;
#273 = AXIS2_PLACEMENT_3D ( 'NONE', #201, #211, #406 ) ;
#274 = VERTEX_POINT ( 'NONE', #634 ) ;
#275 = PRODUCT_DEFINITION ( 'æ™', '', #269, #606 ) ;
#276 = ORIENTED_EDGE ( 'NONE', *, *, #630, .T. ) ;
#277 = AXIS2_PLACEMENT_3D ( 'NONE', #585, #448, #409 ) ;
#278 = MECHANICAL_DESIGN_GEOMETRIC_PRESENTATION_REPRESENTATION (  '', ( #140 ), #197 ) ;
#279 = CARTESIAN_POINT ( 'NONE',  ( 42.67334617360801730, -17.99999999999997158, -2.000000000000000000 ) ) ;
#280 = DIRECTION ( 'NONE',  ( 1.000000000000000000, 0.000000000000000000, 0.000000000000000000 ) ) ;
#281 = ADVANCED_FACE ( 'NONE', ( #430 ), #437, .T. ) ;
#282 = ORIENTED_EDGE ( 'NONE', *, *, #363, .F. ) ;
#283 = AXIS2_PLACEMENT_3D ( 'NONE', #180, #495, #485 ) ;
#284 = DIRECTION ( 'NONE',  ( 1.000000000000000000, 1.156482317317871478E-16, 0.000000000000000000 ) ) ;
#285 = DIRECTION ( 'NONE',  ( 1.000000000000000000, 0.000000000000000000, 0.000000000000000000 ) ) ;
#286 = ORIENTED_EDGE ( 'NONE', *, *, #369, .T. ) ;
#287 = DIRECTION ( 'NONE',  ( 1.000000000000000000, 1.868163743359638428E-16, -0.000000000000000000 ) ) ;
#288 = AXIS2_PLACEMENT_3D ( 'NONE', #439, #28, #381 ) ;
#289 = DIRECTION ( 'NONE',  ( 1.000000000000000000, 0.000000000000000000, 0.000000000000000000 ) ) ;
#290 = ADVANCED_FACE ( 'NONE', ( #532 ), #119, .F. ) ;
#291 = ORIENTED_EDGE ( 'NONE', *, *, #22, .T. ) ;
#292 = CARTESIAN_POINT ( 'NONE',  ( -42.67334617360801730, -17.99999999999998224, -2.000000000000000000 ) ) ;
#293 = CARTESIAN_POINT ( 'NONE',  ( 47.82413370998515489, 9.428571428571443036, -2.000000000000000000 ) ) ;
#294 = ORIENTED_EDGE ( 'NONE', *, *, #538, .F. ) ;
#295 = DIRECTION ( 'NONE',  ( 1.000000000000000000, 0.000000000000000000, 0.000000000000000000 ) ) ;
#296 = EDGE_CURVE ( 'NONE', #164, #472, #384, .T. ) ;
#297 = AXIS2_PLACEMENT_3D ( 'NONE', #368, #104, #12 ) ;
#298 = FILL_AREA_STYLE_COLOUR ( '', #574 ) ;
#299 = ORIENTED_EDGE ( 'NONE', *, *, #54, .F. ) ;
#300 = CYLINDRICAL_SURFACE ( 'NONE', #497, 2.500000000000012434 ) ;
#301 = DIRECTION ( 'NONE',  ( 0.000000000000000000, 0.000000000000000000, -1.000000000000000000 ) ) ;
#302 = ORIENTED_EDGE ( 'NONE', *, *, #619, .T. ) ;
#303 = CARTESIAN_POINT ( 'NONE',  ( 53.49000000000000199, 1.965190718591757775E-14, -2.000000000000000000 ) ) ;
#304 = EDGE_CURVE ( 'NONE', #552, #658, #68, .T. ) ;
#305 = CARTESIAN_POINT ( 'NONE',  ( -32.50000000000000000, -2.500000000000011546, 8.000000000000000000 ) ) ;
#306 = VERTEX_POINT ( 'NONE', #656 ) ;
#307 = CYLINDRICAL_SURFACE ( 'NONE', #367, 11.00000000000000355 ) ;
#308 = CIRCLE ( 'NONE', #273, 2.500000000000009326 ) ;
#309 = DIRECTION ( 'NONE',  ( 1.000000000000000000, 0.000000000000000000, 0.000000000000000000 ) ) ;
#310 = ORIENTED_EDGE ( 'NONE', *, *, #221, .T. ) ;
#311 = DIRECTION ( 'NONE',  ( 1.000000000000000000, 0.000000000000000000, 0.000000000000000000 ) ) ;
#312 = EDGE_LOOP ( 'NONE', ( #212, #218 ) ) ;
#313 = CARTESIAN_POINT ( 'NONE',  ( 42.67334617360802440, -7.999999999999968914, 0.000000000000000000 ) ) ;
#314 = LINE ( 'NONE', #163, #329 ) ;
#315 = ORIENTED_EDGE ( 'NONE', *, *, #407, .T. ) ;
#316 = EDGE_CURVE ( 'NONE', #171, #106, #181, .T. ) ;
#317 = AXIS2_PLACEMENT_3D ( 'NONE', #654, #34, #177 ) ;
#318 = FACE_OUTER_BOUND ( 'NONE', #422, .T. ) ;
#319 = ORIENTED_EDGE ( 'NONE', *, *, #272, .F. ) ;
#320 = PLANE ( 'NONE',  #375 ) ;
#321 = EDGE_CURVE ( 'NONE', #56, #3, #219, .T. ) ;
#322 = CARTESIAN_POINT ( 'NONE',  ( -53.49000000000000199, 0.000000000000000000, -2.000000000000000000 ) ) ;
#323 = ORIENTED_EDGE ( 'NONE', *, *, #27, .F. ) ;
#324 = CARTESIAN_POINT ( 'NONE',  ( -53.49000000000000199, 0.000000000000000000, 0.000000000000000000 ) ) ;
#325 = VERTEX_POINT ( 'NONE', #510 ) ;
#326 = AXIS2_PLACEMENT_3D ( 'NONE', #243, #508, #311 ) ;
#327 = EDGE_LOOP ( 'NONE', ( #544, #558, #577, #224 ) ) ;
#328 = DIRECTION ( 'NONE',  ( -0.000000000000000000, -0.000000000000000000, 1.000000000000000000 ) ) ;
#329 = VECTOR ( 'NONE', #110, 1000.000000000000000 ) ;
#330 = EDGE_LOOP ( 'NONE', ( #251, #498 ) ) ;
#331 = CARTESIAN_POINT ( 'NONE',  ( -47.82413370998516200, 9.428571428571425272, 0.000000000000000000 ) ) ;
#332 = EDGE_CURVE ( 'NONE', #90, #675, #590, .T. ) ;
#333 = PRODUCT_DEFINITION_SHAPE ( 'NONE', 'NONE',  #275 ) ;
#334 = AXIS2_PLACEMENT_3D ( 'NONE', #466, #642, #632 ) ;
#335 = CARTESIAN_POINT ( 'NONE',  ( -45.47500000000000142, 0.000000000000000000, -2.000000000000000000 ) ) ;
#336 = DIRECTION ( 'NONE',  ( 0.000000000000000000, 0.000000000000000000, 1.000000000000000000 ) ) ;
#337 = CARTESIAN_POINT ( 'NONE',  ( -42.67334617360802440, 7.999999999999992895, -2.000000000000000000 ) ) ;
#338 = ORIENTED_EDGE ( 'NONE', *, *, #221, .F. ) ;
#339 = VECTOR ( 'NONE', #328, 1000.000000000000000 ) ;
#340 = EDGE_LOOP ( 'NONE', ( #681, #549, #401, #625 ) ) ;
#341 = FACE_BOUND ( 'NONE', #102, .T. ) ;
#342 = ADVANCED_FACE ( 'NONE', ( #666 ), #37, .F. ) ;
#343 = VERTEX_POINT ( 'NONE', #348 ) ;
#344 = FACE_OUTER_BOUND ( 'NONE', #361, .T. ) ;
#345 = SURFACE_SIDE_STYLE ('',( #547 ) ) ;
#346 = ORIENTED_EDGE ( 'NONE', *, *, #80, .T. ) ;
#347 = CARTESIAN_POINT ( 'NONE',  ( -32.50000000000000000, 0.000000000000000000, 0.000000000000000000 ) ) ;
#348 = CARTESIAN_POINT ( 'NONE',  ( -32.50000000000000000, -2.500000000000011546, 8.000000000000000000 ) ) ;
#349 = DIRECTION ( 'NONE',  ( -0.000000000000000000, -0.000000000000000000, 1.000000000000000000 ) ) ;
#350 = ORIENTED_EDGE ( 'NONE', *, *, #664, .F. ) ;
#351 = CARTESIAN_POINT ( 'NONE',  ( 47.82413370998515489, -9.428571428571402180, 8.000000000000000000 ) ) ;
#352 = CIRCLE ( 'NONE', #283, 11.00000000000000355 ) ;
#353 = AXIS2_PLACEMENT_3D ( 'NONE', #650, #229, #30 ) ;
#354 = DIRECTION ( 'NONE',  ( -0.000000000000000000, -0.000000000000000000, 1.000000000000000000 ) ) ;
#355 = ORIENTED_EDGE ( 'NONE', *, *, #363, .T. ) ;
#356 = FACE_OUTER_BOUND ( 'NONE', #50, .T. ) ;
#357 = CIRCLE ( 'NONE', #149, 10.00000000000000178 ) ;
#358 = ADVANCED_FACE ( 'NONE', ( #505, #48, #249, #476 ), #320, .F. ) ;
#359 = CIRCLE ( 'NONE', #246, 11.00000000000000355 ) ;
#360 = DIRECTION ( 'NONE',  ( -0.000000000000000000, -0.000000000000000000, 1.000000000000000000 ) ) ;
#361 = EDGE_LOOP ( 'NONE', ( #120, #310, #42, #569, #527, #204, #374, #291, #672 ) ) ;
#362 = FACE_OUTER_BOUND ( 'NONE', #395, .T. ) ;
#363 = EDGE_CURVE ( 'NONE', #247, #637, #428, .T. ) ;
#364 = CARTESIAN_POINT ( 'NONE',  ( -53.49000000000000199, 0.000000000000000000, -2.000000000000000000 ) ) ;
#365 = ORIENTED_EDGE ( 'NONE', *, *, #264, .F. ) ;
#366 = CARTESIAN_POINT ( 'NONE',  ( -42.67334617360802440, 17.99999999999999289, 8.000000000000000000 ) ) ;
#367 = AXIS2_PLACEMENT_3D ( 'NONE', #303, #564, #47 ) ;
#368 = CARTESIAN_POINT ( 'NONE',  ( 32.50000000000000000, 1.194030629168669430E-14, -2.000000000000000000 ) ) ;
#369 = EDGE_CURVE ( 'NONE', #376, #388, #489, .T. ) ;
#370 = ORIENTED_EDGE ( 'NONE', *, *, #451, .F. ) ;
#371 = DIRECTION ( 'NONE',  ( -1.619075244245020119E-16, 1.000000000000000000, 0.000000000000000000 ) ) ;
#372 = DIRECTION ( 'NONE',  ( -0.000000000000000000, -0.000000000000000000, 1.000000000000000000 ) ) ;
#373 = ORIENTED_EDGE ( 'NONE', *, *, #272, .T. ) ;
#374 = ORIENTED_EDGE ( 'NONE', *, *, #652, .T. ) ;
#375 = AXIS2_PLACEMENT_3D ( 'NONE', #324, #423, #118 ) ;
#376 = VERTEX_POINT ( 'NONE', #550 ) ;
#377 = DIRECTION ( 'NONE',  ( 0.000000000000000000, 0.000000000000000000, 1.000000000000000000 ) ) ;
#378 = ORIENTED_EDGE ( 'NONE', *, *, #6, .F. ) ;
#379 = CARTESIAN_POINT ( 'NONE',  ( 32.50000000000000000, 2.500000000000023981, 8.000000000000000000 ) ) ;
#380 = CARTESIAN_POINT ( 'NONE',  ( 32.50000000000000000, 1.194030629168669430E-14, 0.000000000000000000 ) ) ;
#381 = DIRECTION ( 'NONE',  ( 1.000000000000000000, 0.000000000000000000, 0.000000000000000000 ) ) ;
#382 = EDGE_CURVE ( 'NONE', #599, #647, #144, .T. ) ;
#383 = CARTESIAN_POINT ( 'NONE',  ( 42.67334617360802440, 8.000000000000001776, 0.000000000000000000 ) ) ;
#384 = LINE ( 'NONE', #486, #531 ) ;
#385 = CIRCLE ( 'NONE', #557, 8.015000000000000568 ) ;
#386 = CARTESIAN_POINT ( 'NONE',  ( -53.49000000000000199, 7.999999999999991118, 0.000000000000000000 ) ) ;
#387 = CARTESIAN_POINT ( 'NONE',  ( 61.50500000000000256, 1.965190718591757775E-14, -2.000000000000000000 ) ) ;
#388 = VERTEX_POINT ( 'NONE', #83 ) ;
#389 = LINE ( 'NONE', #597, #665 ) ;
#390 = DIRECTION ( 'NONE',  ( 0.000000000000000000, 0.000000000000000000, 1.000000000000000000 ) ) ;
#391 = AXIS2_PLACEMENT_3D ( 'NONE', #413, #53, #195 ) ;
#392 = FACE_BOUND ( 'NONE', #312, .T. ) ;
#393 = EDGE_CURVE ( 'NONE', #631, #662, #520, .T. ) ;
#394 = DIRECTION ( 'NONE',  ( 1.000000000000000000, 0.000000000000000000, 0.000000000000000000 ) ) ;
#395 = EDGE_LOOP ( 'NONE', ( #220, #315, #97, #685 ) ) ;
#396 = PLANE ( 'NONE',  #403 ) ;
#397 = FACE_OUTER_BOUND ( 'NONE', #340, .T. ) ;
#398 = EDGE_LOOP ( 'NONE', ( #610, #176, #410, #33 ) ) ;
#399 = DIRECTION ( 'NONE',  ( 0.000000000000000000, 0.000000000000000000, 1.000000000000000000 ) ) ;
#400 = EDGE_CURVE ( 'NONE', #271, #247, #649, .T. ) ;
#401 = ORIENTED_EDGE ( 'NONE', *, *, #429, .T. ) ;
#402 = DIRECTION ( 'NONE',  ( -0.000000000000000000, -0.000000000000000000, -1.000000000000000000 ) ) ;
#403 = AXIS2_PLACEMENT_3D ( 'NONE', #444, #184, #238 ) ;
#404 = CARTESIAN_POINT ( 'NONE',  ( 47.82413370998515489, -9.428571428571403956, -2.000000000000000000 ) ) ;
#405 = ORIENTED_EDGE ( 'NONE', *, *, #382, .F. ) ;
#406 = DIRECTION ( 'NONE',  ( 1.000000000000000000, 0.000000000000000000, 0.000000000000000000 ) ) ;
#407 = EDGE_CURVE ( 'NONE', #268, #59, #352, .T. ) ;
#408 = AXIS2_PLACEMENT_3D ( 'NONE', #186, #390, #126 ) ;
#409 = DIRECTION ( 'NONE',  ( 1.000000000000000000, 0.000000000000000000, 0.000000000000000000 ) ) ;
#410 = ORIENTED_EDGE ( 'NONE', *, *, #54, .T. ) ;
#411 = CARTESIAN_POINT ( 'NONE',  ( 45.47500000000000142, 2.063346159543417832E-14, -2.000000000000000000 ) ) ;
#412 = ORIENTED_EDGE ( 'NONE', *, *, #80, .F. ) ;
#413 = CARTESIAN_POINT ( 'NONE',  ( 53.49000000000000199, 1.965190718591757775E-14, 8.000000000000000000 ) ) ;
#414 = FACE_OUTER_BOUND ( 'NONE', #129, .T. ) ;
#415 = AXIS2_PLACEMENT_3D ( 'NONE', #464, #571, #461 ) ;
#416 = ORIENTED_EDGE ( 'NONE', *, *, #400, .T. ) ;
#417 = DIRECTION ( 'NONE',  ( 1.000000000000000000, 0.000000000000000000, 0.000000000000000000 ) ) ;
#418 = CIRCLE ( 'NONE', #11, 10.00000000000000178 ) ;
#419 = ORIENTED_EDGE ( 'NONE', *, *, #239, .F. ) ;
#420 = ORIENTED_EDGE ( 'NONE', *, *, #664, .T. ) ;
#421 = EDGE_CURVE ( 'NONE', #146, #271, #542, .T. ) ;
#422 = EDGE_LOOP ( 'NONE', ( #130, #545, #20, #299 ) ) ;
#423 = DIRECTION ( 'NONE',  ( 0.000000000000000000, 0.000000000000000000, 1.000000000000000000 ) ) ;
#424 = EDGE_CURVE ( 'NONE', #106, #164, #125, .T. ) ;
#425 = CARTESIAN_POINT ( 'NONE',  ( -53.49000000000000199, 2.500000000000007994, 0.000000000000000000 ) ) ;
#426 = FACE_OUTER_BOUND ( 'NONE', #398, .T. ) ;
#427 =( LENGTH_UNIT ( ) NAMED_UNIT ( * ) SI_UNIT ( .MILLI., .METRE. ) );
#428 = LINE ( 'NONE', #175, #339 ) ;
#429 = EDGE_CURVE ( 'NONE', #325, #306, #432, .T. ) ;
#430 = FACE_OUTER_BOUND ( 'NONE', #114, .T. ) ;
#431 = EDGE_LOOP ( 'NONE', ( #108, #214, #566, #282 ) ) ;
#432 = LINE ( 'NONE', #387, #227 ) ;
#433 = AXIS2_PLACEMENT_3D ( 'NONE', #233, #77, #228 ) ;
#434 = DIRECTION ( 'NONE',  ( 1.000000000000000000, 0.000000000000000000, 0.000000000000000000 ) ) ;
#435 = CARTESIAN_POINT ( 'NONE',  ( -37.50000000000000000, 7.999999999999992895, 8.000000000000000000 ) ) ;
#436 = AXIS2_PLACEMENT_3D ( 'NONE', #123, #79, #646 ) ;
#437 = CYLINDRICAL_SURFACE ( 'NONE', #436, 11.00000000000000355 ) ;
#438 = AXIS2_PLACEMENT_3D ( 'NONE', #279, #23, #174 ) ;
#439 = CARTESIAN_POINT ( 'NONE',  ( -53.49000000000000199, 0.000000000000000000, -2.000000000000000000 ) ) ;
#440 = EDGE_CURVE ( 'NONE', #325, #63, #613, .T. ) ;
#441 = DIRECTION ( 'NONE',  ( -0.000000000000000000, -0.000000000000000000, 1.000000000000000000 ) ) ;
#442 = CYLINDRICAL_SURFACE ( 'NONE', #438, 10.00000000000000178 ) ;
#443 = VERTEX_POINT ( 'NONE', #331 ) ;
#444 = CARTESIAN_POINT ( 'NONE',  ( -53.49000000000000199, 0.000000000000000000, 8.000000000000000000 ) ) ;
#445 = CARTESIAN_POINT ( 'NONE',  ( -32.50000000000000000, 2.500000000000011546, 8.000000000000000000 ) ) ;
#446 = AXIS2_PLACEMENT_3D ( 'NONE', #623, #553, #155 ) ;
#447 = DIRECTION ( 'NONE',  ( -1.000000000000000000, -1.619075244245020119E-16, -0.000000000000000000 ) ) ;
#448 = DIRECTION ( 'NONE',  ( -0.000000000000000000, -0.000000000000000000, 1.000000000000000000 ) ) ;
#449 = ORIENTED_EDGE ( 'NONE', *, *, #72, .T. ) ;
#450 = LINE ( 'NONE', #411, #70 ) ;
#451 = EDGE_CURVE ( 'NONE', #56, #675, #593, .T. ) ;
#452 = DIRECTION ( 'NONE',  ( -0.000000000000000000, -0.000000000000000000, 1.000000000000000000 ) ) ;
#453 = EDGE_LOOP ( 'NONE', ( #526, #137, #84, #516 ) ) ;
#454 = DIRECTION ( 'NONE',  ( 1.000000000000000000, 0.000000000000000000, 0.000000000000000000 ) ) ;
#455 = CARTESIAN_POINT ( 'NONE',  ( -42.67334617360802440, 17.99999999999999289, -2.000000000000000000 ) ) ;
#456 = VERTEX_POINT ( 'NONE', #134 ) ;
#457 = DIRECTION ( 'NONE',  ( -0.000000000000000000, -0.000000000000000000, 1.000000000000000000 ) ) ;
#458 = ORIENTED_EDGE ( 'NONE', *, *, #669, .F. ) ;
#459 = CARTESIAN_POINT ( 'NONE',  ( -45.47500000000000142, 0.000000000000000000, 8.000000000000000000 ) ) ;
#460 = ADVANCED_FACE ( 'NONE', ( #341, #392, #344, #190 ), #396, .T. ) ;
#461 = DIRECTION ( 'NONE',  ( 1.000000000000000000, 3.469446951953613400E-15, 0.000000000000000000 ) ) ;
#462 = ORIENTED_EDGE ( 'NONE', *, *, #75, .T. ) ;
#463 = CARTESIAN_POINT ( 'NONE',  ( -32.50000000000000000, 2.500000000000011546, 8.000000000000000000 ) ) ;
#464 = CARTESIAN_POINT ( 'NONE',  ( 42.67334617360801730, -17.99999999999997158, 8.000000000000000000 ) ) ;
#465 = ORIENTED_EDGE ( 'NONE', *, *, #113, .F. ) ;
#466 = CARTESIAN_POINT ( 'NONE',  ( 0.000000000000000000, 0.000000000000000000, 0.000000000000000000 ) ) ;
#467 = CARTESIAN_POINT ( 'NONE',  ( 64.49000000000000909, 1.965190718591757775E-14, 0.000000000000000000 ) ) ;
#468 = CIRCLE ( 'NONE', #122, 10.00000000000000178 ) ;
#469 = ORIENTED_EDGE ( 'NONE', *, *, #57, .F. ) ;
#470 = CLOSED_SHELL ( 'NONE', ( #209, #66, #281, #244, #460, #358, #290, #561, #528, #554, #231, #639, #602, #101, #342, #32, #500, #105, #172, #14 ) ) ;
#471 = EDGE_CURVE ( 'NONE', #552, #13, #487, .T. ) ;
#472 = VERTEX_POINT ( 'NONE', #383 ) ;
#473 = CARTESIAN_POINT ( 'NONE',  ( -42.67334617360801730, -7.999999999999983125, 0.000000000000000000 ) ) ;
#474 = EDGE_CURVE ( 'NONE', #662, #200, #202, .T. ) ;
#475 = EDGE_LOOP ( 'NONE', ( #323, #373, #617, #514, #124, #350, #596, #503, #416 ) ) ;
#476 = FACE_OUTER_BOUND ( 'NONE', #475, .T. ) ;
#477 = CIRCLE ( 'NONE', #156, 2.500000000000012434 ) ;
#478 = APPLICATION_CONTEXT ( 'automotive_design' ) ;
#479 = DIRECTION ( 'NONE',  ( 0.000000000000000000, -0.000000000000000000, -1.000000000000000000 ) ) ;
#480 = EDGE_LOOP ( 'NONE', ( #522, #641, #194, #262, #82 ) ) ;
#481 = EDGE_CURVE ( 'NONE', #456, #146, #389, .T. ) ;
#482 = ORIENTED_EDGE ( 'NONE', *, *, #424, .T. ) ;
#483 = AXIS2_PLACEMENT_3D ( 'NONE', #608, #360, #38 ) ;
#484 = CARTESIAN_POINT ( 'NONE',  ( -45.47500000000000142, 0.000000000000000000, 0.000000000000000000 ) ) ;
#485 = DIRECTION ( 'NONE',  ( 1.000000000000000000, 0.000000000000000000, 0.000000000000000000 ) ) ;
#486 = CARTESIAN_POINT ( 'NONE',  ( 42.67334617360802440, 8.000000000000001776, -2.000000000000000000 ) ) ;
#487 = CIRCLE ( 'NONE', #112, 8.015000000000000568 ) ;
#488 = LINE ( 'NONE', #386, #267 ) ;
#489 = LINE ( 'NONE', #138, #253 ) ;
#490 = CIRCLE ( 'NONE', #196, 2.500000000000009326 ) ;
#491 = CARTESIAN_POINT ( 'NONE',  ( -53.49000000000000199, 0.000000000000000000, 8.000000000000000000 ) ) ;
#492 = EDGE_CURVE ( 'NONE', #3, #376, #477, .T. ) ;
#493 = ORIENTED_EDGE ( 'NONE', *, *, #165, .F. ) ;
#494 = DIRECTION ( 'NONE',  ( 1.000000000000000000, 0.000000000000000000, 0.000000000000000000 ) ) ;
#495 = DIRECTION ( 'NONE',  ( 0.000000000000000000, 0.000000000000000000, 1.000000000000000000 ) ) ;
#496 = CARTESIAN_POINT ( 'NONE',  ( -47.82413370998516200, 9.428571428571427049, -2.000000000000000000 ) ) ;
#497 = AXIS2_PLACEMENT_3D ( 'NONE', #205, #457, #689 ) ;
#498 = ORIENTED_EDGE ( 'NONE', *, *, #471, .T. ) ;
#499 = FACE_OUTER_BOUND ( 'NONE', #622, .T. ) ;
#500 = ADVANCED_FACE ( 'NONE', ( #187 ), #85, .F. ) ;
#501 = VECTOR ( 'NONE', #18, 1000.000000000000000 ) ;
#502 = PRESENTATION_STYLE_ASSIGNMENT (( #241 ) ) ;
#503 = ORIENTED_EDGE ( 'NONE', *, *, #199, .T. ) ;
#504 = CARTESIAN_POINT ( 'NONE',  ( 42.67334617360802440, -7.999999999999970690, -2.000000000000000000 ) ) ;
#505 = FACE_BOUND ( 'NONE', #330, .T. ) ;
#506 = CARTESIAN_POINT ( 'NONE',  ( 42.67334617360802440, 8.000000000000001776, 8.000000000000000000 ) ) ;
#507 = ORIENTED_EDGE ( 'NONE', *, *, #185, .F. ) ;
#508 = DIRECTION ( 'NONE',  ( 0.000000000000000000, 0.000000000000000000, 1.000000000000000000 ) ) ;
#509 = UNCERTAINTY_MEASURE_WITH_UNIT (LENGTH_MEASURE( 1.000000000000000082E-05 ), #427, 'distance_accuracy_value', 'NONE');
#510 = CARTESIAN_POINT ( 'NONE',  ( 61.50500000000000256, 1.965190718591757775E-14, 0.000000000000000000 ) ) ;
#511 = ORIENTED_EDGE ( 'NONE', *, *, #680, .T. ) ;
#512 = CARTESIAN_POINT ( 'NONE',  ( 64.49000000000000909, 1.965190718591757775E-14, -2.000000000000000000 ) ) ;
#513 = DIRECTION ( 'NONE',  ( -0.000000000000000000, -0.000000000000000000, 1.000000000000000000 ) ) ;
#514 = ORIENTED_EDGE ( 'NONE', *, *, #113, .T. ) ;
#515 = PLANE ( 'NONE',  #626 ) ;
#516 = ORIENTED_EDGE ( 'NONE', *, *, #581, .T. ) ;
#517 = VECTOR ( 'NONE', #671, 1000.000000000000000 ) ;
#518 = CARTESIAN_POINT ( 'NONE',  ( 47.82413370998515489, 9.428571428571441260, 8.000000000000000000 ) ) ;
#519 = ORIENTED_EDGE ( 'NONE', *, *, #321, .T. ) ;
#520 = CIRCLE ( 'NONE', #433, 11.00000000000000355 ) ;
#521 = AXIS2_PLACEMENT_3D ( 'NONE', #322, #266, #309 ) ;
#522 = ORIENTED_EDGE ( 'NONE', *, *, #548, .F. ) ;
#523 = VECTOR ( 'NONE', #179, 1000.000000000000000 ) ;
#524 = EDGE_CURVE ( 'NONE', #388, #132, #17, .T. ) ;
#525 =( GEOMETRIC_REPRESENTATION_CONTEXT ( 3 ) GLOBAL_UNCERTAINTY_ASSIGNED_CONTEXT ( ( #509 ) ) GLOBAL_UNIT_ASSIGNED_CONTEXT ( ( #427, #61, #645 ) ) REPRESENTATION_CONTEXT ( 'NONE', 'WORKASPACE' ) );
#526 = ORIENTED_EDGE ( 'NONE', *, *, #255, .F. ) ;
#527 = ORIENTED_EDGE ( 'NONE', *, *, #669, .T. ) ;
#528 = ADVANCED_FACE ( 'NONE', ( #499 ), #300, .F. ) ;
#529 = CIRCLE ( 'NONE', #217, 2.500000000000012434 ) ;
#530 = VERTEX_POINT ( 'NONE', #463 ) ;
#531 = VECTOR ( 'NONE', #479, 1000.000000000000000 ) ;
#532 = FACE_OUTER_BOUND ( 'NONE', #259, .T. ) ;
#533 = CYLINDRICAL_SURFACE ( 'NONE', #288, 8.015000000000000568 ) ;
#534 = PRODUCT ( '\X2\8fde6746\X0\3A', '\X2\8fde6746\X0\3A', '', ( #168 ) ) ;
#535 = CARTESIAN_POINT ( 'NONE',  ( 53.49000000000000199, 1.965190718591757775E-14, 8.000000000000000000 ) ) ;
#536 = CARTESIAN_POINT ( 'NONE',  ( 32.50000000000000000, 2.500000000000023981, 0.000000000000000000 ) ) ;
#537 = DIRECTION ( 'NONE',  ( -0.000000000000000000, -0.000000000000000000, -1.000000000000000000 ) ) ;
#538 = EDGE_CURVE ( 'NONE', #3, #530, #676, .T. ) ;
#539 = AXIS2_PLACEMENT_3D ( 'NONE', #683, #677, #135 ) ;
#540 = ORIENTED_EDGE ( 'NONE', *, *, #393, .F. ) ;
#541 = ORIENTED_EDGE ( 'NONE', *, *, #316, .F. ) ;
#542 = LINE ( 'NONE', #24, #60 ) ;
#543 = DIRECTION ( 'NONE',  ( -1.000000000000000000, -1.868163743359638428E-16, 0.000000000000000000 ) ) ;
#544 = ORIENTED_EDGE ( 'NONE', *, *, #199, .F. ) ;
#545 = ORIENTED_EDGE ( 'NONE', *, *, #304, .T. ) ;
#546 = DIRECTION ( 'NONE',  ( -0.000000000000000000, 0.000000000000000000, 1.000000000000000000 ) ) ;
#547 = SURFACE_STYLE_FILL_AREA ( #565 ) ;
#548 = EDGE_CURVE ( 'NONE', #530, #343, #529, .T. ) ;
#549 = ORIENTED_EDGE ( 'NONE', *, *, #440, .F. ) ;
#550 = CARTESIAN_POINT ( 'NONE',  ( -32.50000000000000000, -2.500000000000011546, 0.000000000000000000 ) ) ;
#551 = DIRECTION ( 'NONE',  ( 1.000000000000000000, 0.000000000000000000, 0.000000000000000000 ) ) ;
#552 = VERTEX_POINT ( 'NONE', #158 ) ;
#553 = DIRECTION ( 'NONE',  ( 1.868163743359638428E-16, -1.000000000000000000, 0.000000000000000000 ) ) ;
#554 = ADVANCED_FACE ( 'NONE', ( #356 ), #515, .F. ) ;
#555 = UNCERTAINTY_MEASURE_WITH_UNIT (LENGTH_MEASURE( 1.000000000000000082E-05 ), #562, 'distance_accuracy_value', 'NONE');
#556 = FACE_OUTER_BOUND ( 'NONE', #207, .T. ) ;
#557 = AXIS2_PLACEMENT_3D ( 'NONE', #589, #661, #285 ) ;
#558 = ORIENTED_EDGE ( 'NONE', *, *, #643, .T. ) ;
#559 = FACE_OUTER_BOUND ( 'NONE', #327, .T. ) ;
#560 = CIRCLE ( 'NONE', #182, 8.015000000000000568 ) ;
#561 = ADVANCED_FACE ( 'NONE', ( #559 ), #260, .F. ) ;
#562 =( LENGTH_UNIT ( ) NAMED_UNIT ( * ) SI_UNIT ( .MILLI., .METRE. ) );
#563 = EDGE_LOOP ( 'NONE', ( #216, #67, #507, #52 ) ) ;
#564 = DIRECTION ( 'NONE',  ( -0.000000000000000000, -0.000000000000000000, 1.000000000000000000 ) ) ;
#565 = FILL_AREA_STYLE ('',( #298 ) ) ;
#566 = ORIENTED_EDGE ( 'NONE', *, *, #44, .F. ) ;
#567 = AXIS2_PLACEMENT_3D ( 'NONE', #225, #88, #295 ) ;
#568 = DIRECTION ( 'NONE',  ( 1.000000000000000000, -1.734723475976806700E-15, 0.000000000000000000 ) ) ;
#569 = ORIENTED_EDGE ( 'NONE', *, *, #474, .T. ) ;
#570 = DIRECTION ( 'NONE',  ( -1.000000000000000000, -1.868163743359638428E-16, 0.000000000000000000 ) ) ;
#571 = DIRECTION ( 'NONE',  ( -0.000000000000000000, -0.000000000000000000, -1.000000000000000000 ) ) ;
#572 = VERTEX_POINT ( 'NONE', #459 ) ;
#573 = VECTOR ( 'NONE', #237, 1000.000000000000000 ) ;
#574 = COLOUR_RGB ( '',0.7921568627450980005, 0.8196078431372548767, 0.9333333333333333481 ) ;
#575 = EDGE_CURVE ( 'NONE', #13, #552, #188, .T. ) ;
#576 = DIRECTION ( 'NONE',  ( 0.000000000000000000, 0.000000000000000000, 1.000000000000000000 ) ) ;
#577 = ORIENTED_EDGE ( 'NONE', *, *, #481, .T. ) ;
#578 = AXIS2_PLACEMENT_3D ( 'NONE', #29, #35, #494 ) ;
#579 = DIRECTION ( 'NONE',  ( 1.000000000000000000, 0.000000000000000000, 0.000000000000000000 ) ) ;
#580 = ORIENTED_EDGE ( 'NONE', *, *, #1, .F. ) ;
#581 = EDGE_CURVE ( 'NONE', #274, #90, #308, .T. ) ;
#582 = LINE ( 'NONE', #258, #653 ) ;
#583 = ORIENTED_EDGE ( 'NONE', *, *, #239, .T. ) ;
#584 = VECTOR ( 'NONE', #153, 1000.000000000000000 ) ;
#585 = CARTESIAN_POINT ( 'NONE',  ( 53.49000000000000199, 1.965190718591757775E-14, -2.000000000000000000 ) ) ;
#586 = DIRECTION ( 'NONE',  ( -0.000000000000000000, -0.000000000000000000, -1.000000000000000000 ) ) ;
#587 = ORIENTED_EDGE ( 'NONE', *, *, #316, .T. ) ;
#588 = AXIS2_PLACEMENT_3D ( 'NONE', #292, #668, #605 ) ;
#589 = CARTESIAN_POINT ( 'NONE',  ( -53.49000000000000199, 0.000000000000000000, 8.000000000000000000 ) ) ;
#590 = CIRCLE ( 'NONE', #539, 2.500000000000009326 ) ;
#591 = DIRECTION ( 'NONE',  ( 1.000000000000000000, 0.000000000000000000, 0.000000000000000000 ) ) ;
#592 = DIRECTION ( 'NONE',  ( 1.000000000000000000, 1.156482317317871478E-16, -0.000000000000000000 ) ) ;
#593 = LINE ( 'NONE', #127, #25 ) ;
#594 = EDGE_CURVE ( 'NONE', #306, #142, #121, .T. ) ;
#595 = FACE_OUTER_BOUND ( 'NONE', #614, .T. ) ;
#596 = ORIENTED_EDGE ( 'NONE', *, *, #382, .T. ) ;
#597 = CARTESIAN_POINT ( 'NONE',  ( -37.50000000000000000, -7.999999999999983125, 8.000000000000000000 ) ) ;
#598 = AXIS2_PLACEMENT_3D ( 'NONE', #611, #371, #95 ) ;
#599 = VERTEX_POINT ( 'NONE', #618 ) ;
#600 = ORIENTED_EDGE ( 'NONE', *, *, #296, .F. ) ;
#601 = CARTESIAN_POINT ( 'NONE',  ( -42.67334617360801730, -17.99999999999998224, 0.000000000000000000 ) ) ;
#602 = ADVANCED_FACE ( 'NONE', ( #362 ), #307, .T. ) ;
#603 = CARTESIAN_POINT ( 'NONE',  ( 42.67334617360801730, 18.00000000000000711, 0.000000000000000000 ) ) ;
#604 = EDGE_LOOP ( 'NONE', ( #73, #583 ) ) ;
#605 = DIRECTION ( 'NONE',  ( 1.000000000000000000, 0.000000000000000000, 0.000000000000000000 ) ) ;
#606 = PRODUCT_DEFINITION_CONTEXT ( 'detailed design', #478, 'design' ) ;
#607 = VECTOR ( 'NONE', #301, 1000.000000000000000 ) ;
#608 = CARTESIAN_POINT ( 'NONE',  ( 53.49000000000000199, 1.965190718591757775E-14, -2.000000000000000000 ) ) ;
#609 = PRODUCT_RELATED_PRODUCT_CATEGORY ( 'part', '', ( #534 ) ) ;
#610 = ORIENTED_EDGE ( 'NONE', *, *, #304, .F. ) ;
#611 = CARTESIAN_POINT ( 'NONE',  ( -37.50000000000000000, -7.999999999999983125, -2.000000000000000000 ) ) ;
#612 = LINE ( 'NONE', #404, #573 ) ;
#613 = CIRCLE ( 'NONE', #317, 8.015000000000000568 ) ;
#614 = EDGE_LOOP ( 'NONE', ( #419, #276, #511, #87 ) ) ;
#615 = CARTESIAN_POINT ( 'NONE',  ( 42.67334617360801730, 18.00000000000000711, 8.000000000000000000 ) ) ;
#616 = LINE ( 'NONE', #305, #517 ) ;
#617 = ORIENTED_EDGE ( 'NONE', *, *, #6, .T. ) ;
#618 = CARTESIAN_POINT ( 'NONE',  ( 47.82413370998515489, -9.428571428571402180, 0.000000000000000000 ) ) ;
#619 = EDGE_CURVE ( 'NONE', #268, #662, #252, .T. ) ;
#620 = CIRCLE ( 'NONE', #633, 10.00000000000000178 ) ;
#621 =( NAMED_UNIT ( * ) PLANE_ANGLE_UNIT ( ) SI_UNIT ( $, .RADIAN. ) );
#622 = EDGE_LOOP ( 'NONE', ( #154, #265, #365, #69 ) ) ;
#623 = CARTESIAN_POINT ( 'NONE',  ( -32.50000000000000000, -2.500000000000011546, -2.000000000000000000 ) ) ;
#624 = CYLINDRICAL_SURFACE ( 'NONE', #521, 8.015000000000000568 ) ;
#625 = ORIENTED_EDGE ( 'NONE', *, *, #594, .T. ) ;
#626 = AXIS2_PLACEMENT_3D ( 'NONE', #143, #40, #570 ) ;
#627 = PLANE ( 'NONE',  #446 ) ;
#628 = CIRCLE ( 'NONE', #62, 8.015000000000000568 ) ;
#629 = CARTESIAN_POINT ( 'NONE',  ( 53.49000000000000199, 1.965190718591757775E-14, 0.000000000000000000 ) ) ;
#630 = EDGE_CURVE ( 'NONE', #63, #142, #450, .T. ) ;
#631 = VERTEX_POINT ( 'NONE', #351 ) ;
#632 = DIRECTION ( 'NONE',  ( 1.000000000000000000, 0.000000000000000000, 0.000000000000000000 ) ) ;
#633 = AXIS2_PLACEMENT_3D ( 'NONE', #366, #402, #568 ) ;
#634 = CARTESIAN_POINT ( 'NONE',  ( 32.50000000000000000, -2.499999999999999556, 8.000000000000000000 ) ) ;
#635 = ORIENTED_EDGE ( 'NONE', *, *, #643, .F. ) ;
#636 = CARTESIAN_POINT ( 'NONE',  ( -32.50000000000000000, -2.500000000000011546, -2.000000000000000000 ) ) ;
#637 = VERTEX_POINT ( 'NONE', #686 ) ;
#638 = AXIS2_PLACEMENT_3D ( 'NONE', #245, #92, #670 ) ;
#639 = ADVANCED_FACE ( 'NONE', ( #208 ), #627, .F. ) ;
#640 = CYLINDRICAL_SURFACE ( 'NONE', #297, 2.500000000000009326 ) ;
#641 = ORIENTED_EDGE ( 'NONE', *, *, #75, .F. ) ;
#642 = DIRECTION ( 'NONE',  ( 0.000000000000000000, 0.000000000000000000, 1.000000000000000000 ) ) ;
#643 = EDGE_CURVE ( 'NONE', #647, #456, #91, .T. ) ;
#644 = CARTESIAN_POINT ( 'NONE',  ( 45.47500000000000142, 2.063346159543417832E-14, 0.000000000000000000 ) ) ;
#645 =( NAMED_UNIT ( * ) SI_UNIT ( $, .STERADIAN. ) SOLID_ANGLE_UNIT ( ) );
#646 = DIRECTION ( 'NONE',  ( 1.000000000000000000, 0.000000000000000000, 0.000000000000000000 ) ) ;
#647 = VERTEX_POINT ( 'NONE', #313 ) ;
#648 = CARTESIAN_POINT ( 'NONE',  ( -53.49000000000000199, 0.000000000000000000, 0.000000000000000000 ) ) ;
#649 = CIRCLE ( 'NONE', #78, 10.00000000000000178 ) ;
#650 = CARTESIAN_POINT ( 'NONE',  ( -37.50000000000000000, 7.999999999999992895, -2.000000000000000000 ) ) ;
#651 = LINE ( 'NONE', #335, #523 ) ;
#652 = EDGE_CURVE ( 'NONE', #106, #166, #620, .T. ) ;
#653 = VECTOR ( 'NONE', #513, 1000.000000000000000 ) ;
#654 = CARTESIAN_POINT ( 'NONE',  ( 53.49000000000000199, 1.965190718591757775E-14, 0.000000000000000000 ) ) ;
#655 = CIRCLE ( 'NONE', #408, 11.00000000000000355 ) ;
#656 = CARTESIAN_POINT ( 'NONE',  ( 61.50500000000000256, 1.965190718591757775E-14, 8.000000000000000000 ) ) ;
#657 = DIRECTION ( 'NONE',  ( 0.000000000000000000, 0.000000000000000000, 1.000000000000000000 ) ) ;
#658 = VERTEX_POINT ( 'NONE', #103 ) ;
#659 = DIRECTION ( 'NONE',  ( 1.000000000000000000, 0.000000000000000000, 0.000000000000000000 ) ) ;
#660 = ADVANCED_BREP_SHAPE_REPRESENTATION ( '\X2\8fde6746\X0\3A', ( #191, #334 ), #525 ) ;
#661 = DIRECTION ( 'NONE',  ( 0.000000000000000000, 0.000000000000000000, 1.000000000000000000 ) ) ;
#662 = VERTEX_POINT ( 'NONE', #673 ) ;
#663 = DIRECTION ( 'NONE',  ( 1.000000000000000000, 0.000000000000000000, 0.000000000000000000 ) ) ;
#664 = EDGE_CURVE ( 'NONE', #599, #268, #359, .T. ) ;
#665 = VECTOR ( 'NONE', #447, 1000.000000000000000 ) ;
#666 = FACE_OUTER_BOUND ( 'NONE', #232, .T. ) ;
#667 = CARTESIAN_POINT ( 'NONE',  ( 35.00000000000000711, 1.194030629168669430E-14, 8.000000000000000000 ) ) ;
#668 = DIRECTION ( 'NONE',  ( -0.000000000000000000, -0.000000000000000000, 1.000000000000000000 ) ) ;
#669 = EDGE_CURVE ( 'NONE', #200, #164, #418, .T. ) ;
#670 = DIRECTION ( 'NONE',  ( 1.000000000000000000, 0.000000000000000000, 0.000000000000000000 ) ) ;
#671 = DIRECTION ( 'NONE',  ( 1.000000000000000000, 1.868163743359638182E-16, 0.000000000000000000 ) ) ;
#672 = ORIENTED_EDGE ( 'NONE', *, *, #44, .T. ) ;
#673 = CARTESIAN_POINT ( 'NONE',  ( 64.49000000000000909, 1.965190718591757775E-14, 8.000000000000000000 ) ) ;
#674 = DIRECTION ( 'NONE',  ( 1.000000000000000000, 0.000000000000000000, 0.000000000000000000 ) ) ;
#675 = VERTEX_POINT ( 'NONE', #379 ) ;
#676 = LINE ( 'NONE', #682, #99 ) ;
#677 = DIRECTION ( 'NONE',  ( 0.000000000000000000, 0.000000000000000000, 1.000000000000000000 ) ) ;
#678 = DIRECTION ( 'NONE',  ( 0.000000000000000000, 0.000000000000000000, 1.000000000000000000 ) ) ;
#679 = AXIS2_PLACEMENT_3D ( 'NONE', #535, #546, #659 ) ;
#680 = EDGE_CURVE ( 'NONE', #142, #306, #560, .T. ) ;
#681 = ORIENTED_EDGE ( 'NONE', *, *, #630, .F. ) ;
#682 = CARTESIAN_POINT ( 'NONE',  ( -32.50000000000000000, 2.500000000000011546, -2.000000000000000000 ) ) ;
#683 = CARTESIAN_POINT ( 'NONE',  ( 32.50000000000000000, 1.194030629168669430E-14, 8.000000000000000000 ) ) ;
#684 = CARTESIAN_POINT ( 'NONE',  ( 45.47500000000000142, 2.063346159543417832E-14, 8.000000000000000000 ) ) ;
#685 = ORIENTED_EDGE ( 'NONE', *, *, #474, .F. ) ;
#686 = CARTESIAN_POINT ( 'NONE',  ( -47.82413370998515489, -9.428571428571421720, 8.000000000000000000 ) ) ;
#687 = DIRECTION ( 'NONE',  ( 0.000000000000000000, 0.000000000000000000, 1.000000000000000000 ) ) ;
#688 = ORIENTED_EDGE ( 'NONE', *, *, #57, .T. ) ;
#689 = DIRECTION ( 'NONE',  ( 1.000000000000000000, 0.000000000000000000, 0.000000000000000000 ) ) ;
ENDSEC;
END-ISO-10303-21;
