ISO-10303-21;
HEADER;
FILE_DESCRIPTION (( 'STEP AP214' ),
    '1' );
FILE_NAME ('Á¬¸Ë5A.STEP',
    '2026-08-16T17:26:50',
    ( '' ),
    ( '' ),
    'SwSTEP 2.0',
    'SolidWorks 2025',
    '' );
FILE_SCHEMA (( 'AUTOMOTIVE_DESIGN' ));
ENDSEC;

DATA;
#1 = EDGE_CURVE ( 'NONE', #1119, #403, #331, .T. ) ;
#2 = CARTESIAN_POINT ( 'NONE',  ( 8.522263522548534809, -18.09339726121766390, 8.000000000000000000 ) ) ;
#3 = VERTEX_POINT ( 'NONE', #1056 ) ;
#4 = CARTESIAN_POINT ( 'NONE',  ( -0.5733739473212681181, -7.979426189678878067, -2.000000000000000000 ) ) ;
#5 = ORIENTED_EDGE ( 'NONE', *, *, #210, .F. ) ;
#6 = DIRECTION ( 'NONE',  ( -0.000000000000000000, -0.000000000000000000, -1.000000000000000000 ) ) ;
#7 = DIRECTION ( 'NONE',  ( -1.000000000000000000, 0.000000000000000000, 0.000000000000000000 ) ) ;
#8 = EDGE_CURVE ( 'NONE', #12, #200, #758, .T. ) ;
#9 = VECTOR ( 'NONE', #324, 1000.000000000000000 ) ;
#10 = ORIENTED_EDGE ( 'NONE', *, *, #21, .F. ) ;
#11 = DIRECTION ( 'NONE',  ( 0.000000000000000000, -0.000000000000000000, -1.000000000000000000 ) ) ;
#12 = VERTEX_POINT ( 'NONE', #867 ) ;
#13 = DIRECTION ( 'NONE',  ( -0.000000000000000000, 0.000000000000000000, 1.000000000000000000 ) ) ;
#14 = CIRCLE ( 'NONE', #209, 2.999999999999999112 ) ;
#15 = CIRCLE ( 'NONE', #822, 4.025000000000000355 ) ;
#16 = DIRECTION ( 'NONE',  ( 1.000000000000000000, -4.625929269271481378E-15, 0.000000000000000000 ) ) ;
#17 = CIRCLE ( 'NONE', #322, 2.999999999999999112 ) ;
#18 = ORIENTED_EDGE ( 'NONE', *, *, #965, .F. ) ;
#19 = LINE ( 'NONE', #832, #930 ) ;
#20 = VERTEX_POINT ( 'NONE', #412 ) ;
#21 = EDGE_CURVE ( 'NONE', #303, #363, #406, .T. ) ;
#22 = CARTESIAN_POINT ( 'NONE',  ( 107.2878220981634172, 37.58459355005791025, 8.000000000000000000 ) ) ;
#23 = AXIS2_PLACEMENT_3D ( 'NONE', #812, #379, #544 ) ;
#24 = CIRCLE ( 'NONE', #582, 6.000000000000005329 ) ;
#25 = CARTESIAN_POINT ( 'NONE',  ( -57.60179358537897087, 9.838164246819369296, -172.1117070754364988 ) ) ;
#26 = VERTEX_POINT ( 'NONE', #1148 ) ;
#27 = CARTESIAN_POINT ( 'NONE',  ( -11.46412463882447241, 3.973549852782883196, 8.000000000000000000 ) ) ;
#28 = ORIENTED_EDGE ( 'NONE', *, *, #769, .T. ) ;
#29 = EDGE_CURVE ( 'NONE', #353, #888, #14, .T. ) ;
#30 = CARTESIAN_POINT ( 'NONE',  ( -14.46412463882447064, -3.973549852782880532, 8.000000000000000000 ) ) ;
#31 = ORIENTED_EDGE ( 'NONE', *, *, #98, .F. ) ;
#32 = LINE ( 'NONE', #22, #1167 ) ;
#33 = CARTESIAN_POINT ( 'NONE',  ( 103.2628220981634115, 37.58459355005791025, 8.000000000000000000 ) ) ;
#34 = ORIENTED_EDGE ( 'NONE', *, *, #76, .T. ) ;
#35 = CARTESIAN_POINT ( 'NONE',  ( -57.60179358537896377, -9.838164246819363967, 0.000000000000000000 ) ) ;
#36 = AXIS2_PLACEMENT_3D ( 'NONE', #191, #799, #614 ) ;
#37 = EDGE_CURVE ( 'NONE', #20, #168, #857, .T. ) ;
#38 = ADVANCED_FACE ( 'NONE', ( #336 ), #325, .F. ) ;
#39 = ORIENTED_EDGE ( 'NONE', *, *, #202, .T. ) ;
#40 = DIRECTION ( 'NONE',  ( 0.000000000000000000, -0.000000000000000000, -1.000000000000000000 ) ) ;
#41 = ORIENTED_EDGE ( 'NONE', *, *, #1074, .F. ) ;
#42 = VERTEX_POINT ( 'NONE', #952 ) ;
#43 = LINE ( 'NONE', #317, #771 ) ;
#44 = ADVANCED_FACE ( 'NONE', ( #945, #855, #47, #770, #1136, #238 ), #159, .T. ) ;
#45 = ORIENTED_EDGE ( 'NONE', *, *, #616, .F. ) ;
#46 = LINE ( 'NONE', #232, #335 ) ;
#47 = FACE_BOUND ( 'NONE', #545, .T. ) ;
#48 = EDGE_CURVE ( 'NONE', #200, #278, #917, .T. ) ;
#49 = ORIENTED_EDGE ( 'NONE', *, *, #913, .F. ) ;
#50 = CARTESIAN_POINT ( 'NONE',  ( 97.38399732361217787, 36.38483554524080432, 0.000000000000000000 ) ) ;
#51 = ORIENTED_EDGE ( 'NONE', *, *, #462, .T. ) ;
#52 = DIRECTION ( 'NONE',  ( 1.000000000000000000, 0.000000000000000000, 0.000000000000000000 ) ) ;
#53 = EDGE_CURVE ( 'NONE', #1144, #129, #468, .T. ) ;
#54 = ORIENTED_EDGE ( 'NONE', *, *, #1076, .F. ) ;
#55 = AXIS2_PLACEMENT_3D ( 'NONE', #356, #166, #352 ) ;
#56 = CARTESIAN_POINT ( 'NONE',  ( -55.81000000000000227, 0.000000000000000000, 0.000000000000000000 ) ) ;
#57 = ORIENTED_EDGE ( 'NONE', *, *, #264, .F. ) ;
#58 = CARTESIAN_POINT ( 'NONE',  ( 103.2628220981634115, 37.58459355005791025, 8.000000000000000000 ) ) ;
#59 = VERTEX_POINT ( 'NONE', #580 ) ;
#60 = AXIS2_PLACEMENT_3D ( 'NONE', #475, #899, #740 ) ;
#61 = ORIENTED_EDGE ( 'NONE', *, *, #861, .T. ) ;
#62 = DIRECTION ( 'NONE',  ( -0.000000000000000000, -0.000000000000000000, -1.000000000000000000 ) ) ;
#63 = EDGE_LOOP ( 'NONE', ( #321, #843, #467, #1013 ) ) ;
#64 = LINE ( 'NONE', #798, #1096 ) ;
#65 = DIRECTION ( 'NONE',  ( 1.000000000000000000, -8.890457814381140303E-16, 0.000000000000000000 ) ) ;
#66 = VECTOR ( 'NONE', #130, 1000.000000000000000 ) ;
#67 = EDGE_CURVE ( 'NONE', #834, #288, #692, .T. ) ;
#68 = CYLINDRICAL_SURFACE ( 'NONE', #95, 3.000000000000002665 ) ;
#69 = VECTOR ( 'NONE', #641, 1000.000000000000000 ) ;
#70 = ORIENTED_EDGE ( 'NONE', *, *, #777, .T. ) ;
#71 = CARTESIAN_POINT ( 'NONE',  ( 107.5239538594376825, 28.53789491944906942, -172.1117070754364988 ) ) ;
#72 = DIRECTION ( 'NONE',  ( 0.000000000000000000, 0.000000000000000000, -1.000000000000000000 ) ) ;
#73 = PRESENTATION_LAYER_ASSIGNMENT (  '', '', ( #435 ) ) ;
#74 = EDGE_CURVE ( 'NONE', #1087, #244, #706, .T. ) ;
#75 = DIRECTION ( 'NONE',  ( 1.000000000000000000, 0.000000000000000000, 0.000000000000000000 ) ) ;
#76 = EDGE_CURVE ( 'NONE', #115, #938, #343, .T. ) ;
#77 = VERTEX_POINT ( 'NONE', #1175 ) ;
#78 = CARTESIAN_POINT ( 'NONE',  ( 94.44458493633658236, 35.78495654283224070, -2.000000000000000000 ) ) ;
#79 = DIRECTION ( 'NONE',  ( 1.000000000000000000, 0.000000000000000000, 0.000000000000000000 ) ) ;
#80 = ORIENTED_EDGE ( 'NONE', *, *, #595, .F. ) ;
#81 = FACE_OUTER_BOUND ( 'NONE', #1021, .T. ) ;
#82 = ORIENTED_EDGE ( 'NONE', *, *, #670, .T. ) ;
#83 = CARTESIAN_POINT ( 'NONE',  ( -14.46412463882447064, 3.973549852782883196, -2.000000000000000000 ) ) ;
#84 = CARTESIAN_POINT ( 'NONE',  ( -55.81000000000000227, 0.000000000000000000, 0.000000000000000000 ) ) ;
#85 = EDGE_CURVE ( 'NONE', #487, #1119, #155, .T. ) ;
#86 = DIRECTION ( 'NONE',  ( 0.000000000000000000, 0.000000000000000000, 1.000000000000000000 ) ) ;
#87 = LINE ( 'NONE', #450, #941 ) ;
#88 = LINE ( 'NONE', #1178, #372 ) ;
#89 = DIRECTION ( 'NONE',  ( 0.000000000000000000, -0.000000000000000000, -1.000000000000000000 ) ) ;
#90 = EDGE_CURVE ( 'NONE', #1038, #1124, #881, .T. ) ;
#91 = CYLINDRICAL_SURFACE ( 'NONE', #23, 10.00000000000000178 ) ;
#92 = AXIS2_PLACEMENT_3D ( 'NONE', #636, #887, #350 ) ;
#93 = LINE ( 'NONE', #124, #869 ) ;
#94 = AXIS2_PLACEMENT_3D ( 'NONE', #185, #466, #537 ) ;
#95 = AXIS2_PLACEMENT_3D ( 'NONE', #1171, #884, #75 ) ;
#96 = ORIENTED_EDGE ( 'NONE', *, *, #842, .F. ) ;
#97 = CYLINDRICAL_SURFACE ( 'NONE', #1108, 4.025000000000000355 ) ;
#98 = EDGE_CURVE ( 'NONE', #288, #834, #1001, .T. ) ;
#99 =( NAMED_UNIT ( * ) PLANE_ANGLE_UNIT ( ) SI_UNIT ( $, .RADIAN. ) );
#100 = CARTESIAN_POINT ( 'NONE',  ( -55.81000000000000227, 0.000000000000000000, 8.000000000000000000 ) ) ;
#101 = ORIENTED_EDGE ( 'NONE', *, *, #511, .F. ) ;
#102 = DIRECTION ( 'NONE',  ( 1.000000000000000000, 0.000000000000000000, 0.000000000000000000 ) ) ;
#103 = EDGE_CURVE ( 'NONE', #353, #407, #396, .T. ) ;
#104 = ORIENTED_EDGE ( 'NONE', *, *, #85, .F. ) ;
#105 = AXIS2_PLACEMENT_3D ( 'NONE', #84, #342, #804 ) ;
#106 = CARTESIAN_POINT ( 'NONE',  ( 3.007986654931907644, -7.412962719706039039, -2.000000000000000000 ) ) ;
#107 = CYLINDRICAL_SURFACE ( 'NONE', #173, 4.025000000000000355 ) ;
#108 = PLANE ( 'NONE',  #217 ) ;
#109 = ORIENTED_EDGE ( 'NONE', *, *, #462, .F. ) ;
#110 = CARTESIAN_POINT ( 'NONE',  ( -5.096936004998417147, 19.27617429057498555, -172.1117070754364988 ) ) ;
#111 = AXIS2_PLACEMENT_3D ( 'NONE', #1051, #587, #1122 ) ;
#112 = AXIS2_PLACEMENT_3D ( 'NONE', #602, #428, #1166 ) ;
#113 = FACE_OUTER_BOUND ( 'NONE', #140, .T. ) ;
#114 = CIRCLE ( 'NONE', #171, 4.025000000000000355 ) ;
#115 = VERTEX_POINT ( 'NONE', #541 ) ;
#116 = CYLINDRICAL_SURFACE ( 'NONE', #629, 3.000000000000000888 ) ;
#117 = EDGE_CURVE ( 'NONE', #596, #218, #1023, .T. ) ;
#118 = ORIENTED_EDGE ( 'NONE', *, *, #117, .F. ) ;
#119 = CARTESIAN_POINT ( 'NONE',  ( 0.000000000000000000, 0.000000000000000000, -172.1117070754364988 ) ) ;
#120 = EDGE_CURVE ( 'NONE', #1049, #802, #193, .T. ) ;
#121 = VECTOR ( 'NONE', #1012, 999.9999999999998863 ) ;
#122 = VECTOR ( 'NONE', #825, 1000.000000000000000 ) ;
#123 = ORIENTED_EDGE ( 'NONE', *, *, #48, .T. ) ;
#124 = CARTESIAN_POINT ( 'NONE',  ( -11.57129971105957722, 3.178839882226307534, -2.000000000000000000 ) ) ;
#125 = VERTEX_POINT ( 'NONE', #1068 ) ;
#126 = LINE ( 'NONE', #821, #948 ) ;
#127 = FILL_AREA_STYLE_COLOUR ( '', #922 ) ;
#128 = CIRCLE ( 'NONE', #1090, 12.00000000000000000 ) ;
#129 = VERTEX_POINT ( 'NONE', #263 ) ;
#130 = DIRECTION ( 'NONE',  ( -0.000000000000000000, -0.000000000000000000, 1.000000000000000000 ) ) ;
#131 = EDGE_CURVE ( 'NONE', #1078, #318, #693, .T. ) ;
#132 = CIRCLE ( 'NONE', #112, 4.999999999999997335 ) ;
#133 = APPLICATION_PROTOCOL_DEFINITION ( 'draft international standard', 'automotive_design', 1998, #715 ) ;
#134 = DIRECTION ( 'NONE',  ( 0.000000000000000000, 0.000000000000000000, -1.000000000000000000 ) ) ;
#135 = ORIENTED_EDGE ( 'NONE', *, *, #559, .T. ) ;
#136 = CARTESIAN_POINT ( 'NONE',  ( -2.460709125308667033, 7.612155450371647092, -2.000000000000000000 ) ) ;
#137 = EDGE_LOOP ( 'NONE', ( #57, #850, #273, #409 ) ) ;
#138 = EDGE_CURVE ( 'NONE', #125, #455, #902, .T. ) ;
#139 = CARTESIAN_POINT ( 'NONE',  ( -11.46412463882447241, 3.973549852782883196, 0.000000000000000000 ) ) ;
#140 = EDGE_LOOP ( 'NONE', ( #1026, #998, #995, #195 ) ) ;
#141 = DIRECTION ( 'NONE',  ( -0.9515194312964549983, -0.3075886406635831571, 0.000000000000000000 ) ) ;
#142 = DIRECTION ( 'NONE',  ( 1.000000000000000000, 0.000000000000000000, 0.000000000000000000 ) ) ;
#143 = AXIS2_PLACEMENT_3D ( 'NONE', #969, #275, #163 ) ;
#144 = EDGE_LOOP ( 'NONE', ( #190, #61, #1170, #572 ) ) ;
#145 = DIRECTION ( 'NONE',  ( 1.000000000000000000, 0.000000000000000000, 0.000000000000000000 ) ) ;
#146 = EDGE_CURVE ( 'NONE', #3, #416, #344, .T. ) ;
#147 = ORIENTED_EDGE ( 'NONE', *, *, #876, .F. ) ;
#148 = DIRECTION ( 'NONE',  ( -0.9974282737098602025, 0.07167174341515855640, 0.000000000000000000 ) ) ;
#149 = DIRECTION ( 'NONE',  ( 1.000000000000000000, 0.000000000000000000, 0.000000000000000000 ) ) ;
#150 = DIRECTION ( 'NONE',  ( 0.07167174341515854252, 0.9974282737098602025, 0.000000000000000000 ) ) ;
#151 = ORIENTED_EDGE ( 'NONE', *, *, #751, .F. ) ;
#152 = CARTESIAN_POINT ( 'NONE',  ( -3.583587170757929652, -19.67632849363872793, 8.000000000000000000 ) ) ;
#153 = EDGE_CURVE ( 'NONE', #403, #741, #1002, .T. ) ;
#154 = DIRECTION ( 'NONE',  ( 0.9974282737098602025, 0.07167174341515859803, 0.000000000000000000 ) ) ;
#155 = CIRCLE ( 'NONE', #658, 20.00000000000000000 ) ;
#156 = DIRECTION ( 'NONE',  ( -0.000000000000000000, 0.000000000000000000, 1.000000000000000000 ) ) ;
#157 = ORIENTED_EDGE ( 'NONE', *, *, #85, .T. ) ;
#158 = DIRECTION ( 'NONE',  ( -0.000000000000000000, -0.000000000000000000, 1.000000000000000000 ) ) ;
#159 = PLANE ( 'NONE',  #974 ) ;
#160 = CARTESIAN_POINT ( 'NONE',  ( -14.67913986906994772, -6.965834673912460140, 8.000000000000000000 ) ) ;
#161 = ORIENTED_EDGE ( 'NONE', *, *, #989, .F. ) ;
#162 = DIRECTION ( 'NONE',  ( 1.000000000000000000, 0.000000000000000000, 0.000000000000000000 ) ) ;
#163 = DIRECTION ( 'NONE',  ( 1.000000000000000000, 0.000000000000000000, 0.000000000000000000 ) ) ;
#164 = EDGE_CURVE ( 'NONE', #1144, #125, #269, .T. ) ;
#165 = ORIENTED_EDGE ( 'NONE', *, *, #8, .T. ) ;
#166 = DIRECTION ( 'NONE',  ( -0.000000000000000000, -0.000000000000000000, 1.000000000000000000 ) ) ;
#167 = AXIS2_PLACEMENT_3D ( 'NONE', #354, #1072, #162 ) ;
#168 = VERTEX_POINT ( 'NONE', #453 ) ;
#169 = DIRECTION ( 'NONE',  ( 1.000000000000000000, 0.000000000000000000, 0.000000000000000000 ) ) ;
#170 = CARTESIAN_POINT ( 'NONE',  ( 103.2628220981634115, 37.58459355005791025, 8.000000000000000000 ) ) ;
#171 = AXIS2_PLACEMENT_3D ( 'NONE', #33, #229, #1025 ) ;
#172 = CYLINDRICAL_SURFACE ( 'NONE', #272, 4.025000000000000355 ) ;
#173 = AXIS2_PLACEMENT_3D ( 'NONE', #100, #817, #7 ) ;
#174 = VERTEX_POINT ( 'NONE', #983 ) ;
#175 = DIRECTION ( 'NONE',  ( 0.000000000000000000, 0.000000000000000000, 1.000000000000000000 ) ) ;
#176 = DIRECTION ( 'NONE',  ( 0.9266203399632548798, 0.3759983318664884555, 0.000000000000000000 ) ) ;
#177 = VECTOR ( 'NONE', #194, 1000.000000000000000 ) ;
#178 = CARTESIAN_POINT ( 'NONE',  ( 0.000000000000000000, 0.000000000000000000, 0.000000000000000000 ) ) ;
#179 = CYLINDRICAL_SURFACE ( 'NONE', #961, 9.999999999999994671 ) ;
#180 = ORIENTED_EDGE ( 'NONE', *, *, #833, .T. ) ;
#181 = CYLINDRICAL_SURFACE ( 'NONE', #470, 3.000000000000002665 ) ;
#182 = EDGE_CURVE ( 'NONE', #42, #125, #1123, .T. ) ;
#183 = CARTESIAN_POINT ( 'NONE',  ( 103.2628220981634115, 37.58459355005791025, 0.000000000000000000 ) ) ;
#184 = VECTOR ( 'NONE', #148, 999.9999999999998863 ) ;
#185 = CARTESIAN_POINT ( 'NONE',  ( 0.000000000000000000, 0.000000000000000000, 0.000000000000000000 ) ) ;
#186 = ORIENTED_EDGE ( 'NONE', *, *, #595, .T. ) ;
#187 = FACE_OUTER_BOUND ( 'NONE', #671, .T. ) ;
#188 = EDGE_CURVE ( 'NONE', #416, #12, #1067, .T. ) ;
#189 = EDGE_CURVE ( 'NONE', #1099, #20, #713, .T. ) ;
#190 = ORIENTED_EDGE ( 'NONE', *, *, #657, .F. ) ;
#191 = CARTESIAN_POINT ( 'NONE',  ( 0.000000000000000000, 0.000000000000000000, 8.000000000000000000 ) ) ;
#192 = DIRECTION ( 'NONE',  ( -0.000000000000000000, -0.000000000000000000, -1.000000000000000000 ) ) ;
#193 = CIRCLE ( 'NONE', #542, 2.999999999999999112 ) ;
#194 = DIRECTION ( 'NONE',  ( -0.000000000000000000, -0.000000000000000000, 1.000000000000000000 ) ) ;
#195 = ORIENTED_EDGE ( 'NONE', *, *, #484, .T. ) ;
#196 = CARTESIAN_POINT ( 'NONE',  ( 11.98750574304037819, 0.5474541629889633221, 8.000000000000000000 ) ) ;
#197 = CYLINDRICAL_SURFACE ( 'NONE', #526, 4.999999999999997335 ) ;
#198 = EDGE_LOOP ( 'NONE', ( #1154, #923, #726, #797 ) ) ;
#199 = DIRECTION ( 'NONE',  ( 1.000000000000000000, 0.000000000000000000, 0.000000000000000000 ) ) ;
#200 = VERTEX_POINT ( 'NONE', #610 ) ;
#201 = CARTESIAN_POINT ( 'NONE',  ( -3.583587170757928764, 19.67632849363872793, -172.1117070754364988 ) ) ;
#202 = EDGE_CURVE ( 'NONE', #482, #476, #611, .T. ) ;
#203 = CARTESIAN_POINT ( 'NONE',  ( 10.99580772070114065, 11.96211572295508319, -2.000000000000000000 ) ) ;
#204 = EDGE_CURVE ( 'NONE', #792, #1144, #259, .T. ) ;
#205 = EDGE_LOOP ( 'NONE', ( #883, #943, #668, #1015 ) ) ;
#206 = DIRECTION ( 'NONE',  ( -0.000000000000000000, -0.000000000000000000, 1.000000000000000000 ) ) ;
#207 = ORIENTED_EDGE ( 'NONE', *, *, #897, .F. ) ;
#208 = CARTESIAN_POINT ( 'NONE',  ( -11.46412463882447241, -3.973549852782880532, 0.000000000000000000 ) ) ;
#209 = AXIS2_PLACEMENT_3D ( 'NONE', #684, #1130, #142 ) ;
#210 = EDGE_CURVE ( 'NONE', #612, #285, #911, .T. ) ;
#211 = CARTESIAN_POINT ( 'NONE',  ( -42.81018024223648410, -0.06845630475693349759, 0.000000000000000000 ) ) ;
#212 = ORIENTED_EDGE ( 'NONE', *, *, #910, .F. ) ;
#213 = CARTESIAN_POINT ( 'NONE',  ( -59.83500000000000796, 0.000000000000000000, 8.000000000000000000 ) ) ;
#214 = AXIS2_PLACEMENT_3D ( 'NONE', #434, #790, #265 ) ;
#215 = EDGE_CURVE ( 'NONE', #894, #285, #32, .T. ) ;
#216 = VERTEX_POINT ( 'NONE', #909 ) ;
#217 = AXIS2_PLACEMENT_3D ( 'NONE', #907, #381, #920 ) ;
#218 = VERTEX_POINT ( 'NONE', #656 ) ;
#219 = DIRECTION ( 'NONE',  ( -0.000000000000000000, -0.000000000000000000, -1.000000000000000000 ) ) ;
#220 = ORIENTED_EDGE ( 'NONE', *, *, #120, .T. ) ;
#221 = FACE_OUTER_BOUND ( 'NONE', #761, .T. ) ;
#222 = PRODUCT ( '\X2\8fde6746\X0\5A', '\X2\8fde6746\X0\5A', '', ( #299 ) ) ;
#223 = EDGE_LOOP ( 'NONE', ( #1060, #49, #151, #786 ) ) ;
#224 = DIRECTION ( 'NONE',  ( -0.000000000000000000, -0.000000000000000000, 1.000000000000000000 ) ) ;
#225 = EDGE_LOOP ( 'NONE', ( #1172, #309, #627, #186, #45, #981, #39, #1131, #1035 ) ) ;
#226 = CYLINDRICAL_SURFACE ( 'NONE', #485, 6.000000000000005329 ) ;
#227 = ORIENTED_EDGE ( 'NONE', *, *, #215, .T. ) ;
#228 = AXIS2_PLACEMENT_3D ( 'NONE', #879, #255, #891 ) ;
#229 = DIRECTION ( 'NONE',  ( -0.000000000000000000, 0.000000000000000000, 1.000000000000000000 ) ) ;
#230 = VECTOR ( 'NONE', #662, 999.9999999999998863 ) ;
#231 = EDGE_LOOP ( 'NONE', ( #212, #577, #689, #314 ) ) ;
#232 = CARTESIAN_POINT ( 'NONE',  ( -11.46412463882447241, 3.973549852782883196, -2.000000000000000000 ) ) ;
#233 = VERTEX_POINT ( 'NONE', #1117 ) ;
#234 = ORIENTED_EDGE ( 'NONE', *, *, #1093, .F. ) ;
#235 = CARTESIAN_POINT ( 'NONE',  ( -14.46412463882447064, -3.973549852782880532, 0.000000000000000000 ) ) ;
#236 = ORIENTED_EDGE ( 'NONE', *, *, #874, .T. ) ;
#237 = CARTESIAN_POINT ( 'NONE',  ( 9.534858914153511833, 7.286045943252575263, -2.000000000000000000 ) ) ;
#238 = FACE_BOUND ( 'NONE', #357, .T. ) ;
#239 = CARTESIAN_POINT ( 'NONE',  ( 4.025000000000000355, 4.929203366568097207E-16, 8.000000000000000000 ) ) ;
#240 = ADVANCED_FACE ( 'NONE', ( #298 ), #1027, .F. ) ;
#241 = ORIENTED_EDGE ( 'NONE', *, *, #103, .F. ) ;
#242 = DIRECTION ( 'NONE',  ( 1.000000000000000000, 0.000000000000000000, 0.000000000000000000 ) ) ;
#243 = DIRECTION ( 'NONE',  ( 1.000000000000000000, 0.000000000000000000, 0.000000000000000000 ) ) ;
#244 = VERTEX_POINT ( 'NONE', #388 ) ;
#245 = FACE_OUTER_BOUND ( 'NONE', #682, .T. ) ;
#246 = EDGE_LOOP ( 'NONE', ( #267, #564, #864, #474 ) ) ;
#247 = CARTESIAN_POINT ( 'NONE',  ( 10.99580772070114065, 11.96211572295508319, 0.000000000000000000 ) ) ;
#248 = DIRECTION ( 'NONE',  ( 1.000000000000000000, 0.000000000000000000, 0.000000000000000000 ) ) ;
#249 = VECTOR ( 'NONE', #176, 1000.000000000000000 ) ;
#250 = VECTOR ( 'NONE', #623, 1000.000000000000000 ) ;
#251 = AXIS2_PLACEMENT_3D ( 'NONE', #294, #1083, #276 ) ;
#252 = AXIS2_PLACEMENT_3D ( 'NONE', #527, #607, #703 ) ;
#253 = CARTESIAN_POINT ( 'NONE',  ( 103.2628220981634115, 37.58459355005791025, 8.000000000000000000 ) ) ;
#254 = EDGE_LOOP ( 'NONE', ( #557, #28, #234, #529 ) ) ;
#255 = DIRECTION ( 'NONE',  ( 0.000000000000000000, -0.000000000000000000, -1.000000000000000000 ) ) ;
#256 = DIRECTION ( 'NONE',  ( 1.000000000000000000, 0.000000000000000000, 0.000000000000000000 ) ) ;
#257 = EDGE_CURVE ( 'NONE', #792, #1071, #126, .T. ) ;
#258 = UNCERTAINTY_MEASURE_WITH_UNIT (LENGTH_MEASURE( 1.000000000000000082E-05 ), #978, 'distance_accuracy_value', 'NONE');
#259 = CIRCLE ( 'NONE', #143, 10.00000000000000178 ) ;
#260 = DIRECTION ( 'NONE',  ( 0.000000000000000000, 0.000000000000000000, 1.000000000000000000 ) ) ;
#261 = ORIENTED_EDGE ( 'NONE', *, *, #528, .T. ) ;
#262 = DIRECTION ( 'NONE',  ( -0.000000000000000000, 0.000000000000000000, 1.000000000000000000 ) ) ;
#263 = CARTESIAN_POINT ( 'NONE',  ( -57.60179358537896377, -9.838164246819363967, 8.000000000000000000 ) ) ;
#264 = EDGE_CURVE ( 'NONE', #233, #1071, #835, .T. ) ;
#265 = DIRECTION ( 'NONE',  ( 1.000000000000000000, 0.000000000000000000, 0.000000000000000000 ) ) ;
#266 = AXIS2_PLACEMENT_3D ( 'NONE', #679, #1041, #248 ) ;
#267 = ORIENTED_EDGE ( 'NONE', *, *, #859, .F. ) ;
#268 = DIRECTION ( 'NONE',  ( -0.000000000000000000, -0.000000000000000000, 1.000000000000000000 ) ) ;
#269 = LINE ( 'NONE', #1156, #250 ) ;
#270 = AXIS2_PLACEMENT_3D ( 'NONE', #56, #931, #497 ) ;
#271 = DIRECTION ( 'NONE',  ( -0.9838164246819363079, 0.1791793585378963771, 0.000000000000000000 ) ) ;
#272 = AXIS2_PLACEMENT_3D ( 'NONE', #346, #966, #1158 ) ;
#273 = ORIENTED_EDGE ( 'NONE', *, *, #791, .T. ) ;
#274 = FACE_OUTER_BOUND ( 'NONE', #282, .T. ) ;
#275 = DIRECTION ( 'NONE',  ( -0.000000000000000000, 0.000000000000000000, 1.000000000000000000 ) ) ;
#276 = DIRECTION ( 'NONE',  ( 1.000000000000000000, -2.312964634635740689E-14, 0.000000000000000000 ) ) ;
#277 = DIRECTION ( 'NONE',  ( -0.000000000000000000, 0.000000000000000000, 1.000000000000000000 ) ) ;
#278 = VERTEX_POINT ( 'NONE', #27 ) ;
#279 = DIRECTION ( 'NONE',  ( 1.000000000000000000, 0.000000000000000000, 0.000000000000000000 ) ) ;
#280 = AXIS2_PLACEMENT_3D ( 'NONE', #672, #1050, #510 ) ;
#281 = LINE ( 'NONE', #203, #311 ) ;
#282 = EDGE_LOOP ( 'NONE', ( #849, #831, #54, #1151 ) ) ;
#283 = DIRECTION ( 'NONE',  ( 0.07167174341515858416, -0.9974282737098602025, 0.000000000000000000 ) ) ;
#284 = VECTOR ( 'NONE', #349, 1000.000000000000000 ) ;
#285 = VERTEX_POINT ( 'NONE', #1113 ) ;
#286 = CARTESIAN_POINT ( 'NONE',  ( -43.16853895931228635, 4.918685063792364254, 0.000000000000000000 ) ) ;
#287 = DIRECTION ( 'NONE',  ( -0.000000000000000000, -0.000000000000000000, 1.000000000000000000 ) ) ;
#288 = VERTEX_POINT ( 'NONE', #213 ) ;
#289 = CARTESIAN_POINT ( 'NONE',  ( -5.096936004998417147, 19.27617429057498555, 0.000000000000000000 ) ) ;
#290 = ORIENTED_EDGE ( 'NONE', *, *, #394, .F. ) ;
#291 = DIRECTION ( 'NONE',  ( -1.000000000000000000, 0.000000000000000000, 0.000000000000000000 ) ) ;
#292 = EDGE_CURVE ( 'NONE', #1071, #741, #304, .T. ) ;
#293 = EDGE_CURVE ( 'NONE', #168, #20, #444, .T. ) ;
#294 = CARTESIAN_POINT ( 'NONE',  ( 95.35087615206269618, 33.29494189217466982, 8.000000000000000000 ) ) ;
#295 = DIRECTION ( 'NONE',  ( 1.000000000000000000, 0.000000000000000000, 0.000000000000000000 ) ) ;
#296 = ORIENTED_EDGE ( 'NONE', *, *, #859, .T. ) ;
#297 = AXIS2_PLACEMENT_3D ( 'NONE', #749, #903, #738 ) ;
#298 = FACE_OUTER_BOUND ( 'NONE', #231, .T. ) ;
#299 = PRODUCT_CONTEXT ( 'NONE', #480, 'mechanical' ) ;
#300 = ADVANCED_FACE ( 'NONE', ( #1022 ), #392, .F. ) ;
#301 = EDGE_LOOP ( 'NONE', ( #207, #677, #1054, #606 ) ) ;
#302 = CYLINDRICAL_SURFACE ( 'NONE', #328, 12.00000000000000000 ) ;
#303 = VERTEX_POINT ( 'NONE', #208 ) ;
#304 = LINE ( 'NONE', #647, #760 ) ;
#305 = ADVANCED_FACE ( 'NONE', ( #221 ), #1095, .T. ) ;
#306 =( NAMED_UNIT ( * ) PLANE_ANGLE_UNIT ( ) SI_UNIT ( $, .RADIAN. ) );
#307 = VECTOR ( 'NONE', #72, 1000.000000000000000 ) ;
#308 = PRODUCT_DEFINITION_FORMATION_WITH_SPECIFIED_SOURCE ( 'å¯', '', #222, .NOT_KNOWN. ) ;
#309 = ORIENTED_EDGE ( 'NONE', *, *, #751, .T. ) ;
#310 = DIRECTION ( 'NONE',  ( 0.3759983318664885665, -0.9266203399632548798, 0.000000000000000000 ) ) ;
#311 = VECTOR ( 'NONE', #823, 1000.000000000000000 ) ;
#312 = VERTEX_POINT ( 'NONE', #286 ) ;
#313 = CARTESIAN_POINT ( 'NONE',  ( 8.522263522548533032, -18.09339726121766390, 0.000000000000000000 ) ) ;
#314 = ORIENTED_EDGE ( 'NONE', *, *, #292, .T. ) ;
#315 = DIRECTION ( 'NONE',  ( 1.000000000000000000, 0.000000000000000000, 0.000000000000000000 ) ) ;
#316 = DIRECTION ( 'NONE',  ( -0.000000000000000000, 0.000000000000000000, 1.000000000000000000 ) ) ;
#317 = CARTESIAN_POINT ( 'NONE',  ( 11.98750574304037997, 0.5474541629889634331, -2.000000000000000000 ) ) ;
#318 = VERTEX_POINT ( 'NONE', #916 ) ;
#319 = CYLINDRICAL_SURFACE ( 'NONE', #784, 2.999999999999999112 ) ;
#320 = ORIENTED_EDGE ( 'NONE', *, *, #215, .F. ) ;
#321 = ORIENTED_EDGE ( 'NONE', *, *, #868, .F. ) ;
#322 = AXIS2_PLACEMENT_3D ( 'NONE', #1125, #1138, #759 ) ;
#323 = VERTEX_POINT ( 'NONE', #929 ) ;
#324 = DIRECTION ( 'NONE',  ( 0.000000000000000000, 0.000000000000000000, 1.000000000000000000 ) ) ;
#325 = CYLINDRICAL_SURFACE ( 'NONE', #266, 2.999999999999999112 ) ;
#326 = ADVANCED_FACE ( 'NONE', ( #478 ), #383, .F. ) ;
#327 = LINE ( 'NONE', #954, #473 ) ;
#328 = AXIS2_PLACEMENT_3D ( 'NONE', #645, #654, #199 ) ;
#329 = EDGE_LOOP ( 'NONE', ( #987, #906, #687, #34 ) ) ;
#330 = CARTESIAN_POINT ( 'NONE',  ( 97.38399732361217787, 36.38483554524080432, 8.000000000000000000 ) ) ;
#331 = LINE ( 'NONE', #964, #708 ) ;
#332 = FACE_BOUND ( 'NONE', #621, .T. ) ;
#333 = VERTEX_POINT ( 'NONE', #196 ) ;
#334 = CYLINDRICAL_SURFACE ( 'NONE', #875, 12.00000000000000000 ) ;
#335 = VECTOR ( 'NONE', #1121, 1000.000000000000000 ) ;
#336 = FACE_OUTER_BOUND ( 'NONE', #1031, .T. ) ;
#337 = PRODUCT_DEFINITION ( 'æ™', '', #308, #783 ) ;
#338 = CARTESIAN_POINT ( 'NONE',  ( -59.83500000000000796, 0.000000000000000000, 0.000000000000000000 ) ) ;
#339 = ADVANCED_FACE ( 'NONE', ( #661 ), #97, .F. ) ;
#340 = EDGE_LOOP ( 'NONE', ( #118, #1107, #80, #109 ) ) ;
#341 = LINE ( 'NONE', #362, #975 ) ;
#342 = DIRECTION ( 'NONE',  ( -0.000000000000000000, 0.000000000000000000, 1.000000000000000000 ) ) ;
#343 = CIRCLE ( 'NONE', #901, 9.999999999999994671 ) ;
#344 = CIRCLE ( 'NONE', #491, 4.999999999999997335 ) ;
#345 = CIRCLE ( 'NONE', #1059, 3.000000000000002665 ) ;
#346 = CARTESIAN_POINT ( 'NONE',  ( -55.81000000000000227, 0.000000000000000000, 8.000000000000000000 ) ) ;
#347 = ORIENTED_EDGE ( 'NONE', *, *, #210, .T. ) ;
#348 = ADVANCED_FACE ( 'NONE', ( #371 ), #727, .F. ) ;
#349 = DIRECTION ( 'NONE',  ( 0.000000000000000000, 0.000000000000000000, 1.000000000000000000 ) ) ;
#350 = DIRECTION ( 'NONE',  ( 1.000000000000000000, 0.000000000000000000, 0.000000000000000000 ) ) ;
#351 = AXIS2_PLACEMENT_3D ( 'NONE', #106, #310, #924 ) ;
#352 = DIRECTION ( 'NONE',  ( 1.000000000000000000, 0.000000000000000000, 0.000000000000000000 ) ) ;
#353 = VERTEX_POINT ( 'NONE', #1011 ) ;
#354 = CARTESIAN_POINT ( 'NONE',  ( 94.44458493633658236, 35.78495654283224070, 0.000000000000000000 ) ) ;
#355 = DIRECTION ( 'NONE',  ( 1.000000000000000000, 0.000000000000000000, 0.000000000000000000 ) ) ;
#356 = CARTESIAN_POINT ( 'NONE',  ( -14.46412463882447064, -3.973549852782880532, -2.000000000000000000 ) ) ;
#357 = EDGE_LOOP ( 'NONE', ( #441, #815, #165, #123, #690, #457, #533, #135, #940 ) ) ;
#358 = DIRECTION ( 'NONE',  ( 1.000000000000000000, 0.000000000000000000, 0.000000000000000000 ) ) ;
#359 = CARTESIAN_POINT ( 'NONE',  ( -42.81018024223648410, -0.06845630475693349759, 8.000000000000000000 ) ) ;
#360 = EDGE_CURVE ( 'NONE', #802, #1087, #556, .T. ) ;
#361 = CARTESIAN_POINT ( 'NONE',  ( -14.67913986906994950, -6.965834673912458364, 0.000000000000000000 ) ) ;
#362 = CARTESIAN_POINT ( 'NONE',  ( 99.23782209816340583, 37.58459355005791025, 8.000000000000000000 ) ) ;
#363 = VERTEX_POINT ( 'NONE', #417 ) ;
#364 = CARTESIAN_POINT ( 'NONE',  ( 103.2628220981634115, 37.58459355005791025, 8.000000000000000000 ) ) ;
#365 = CIRCLE ( 'NONE', #1028, 2.999999999999999112 ) ;
#366 = CARTESIAN_POINT ( 'NONE',  ( 0.000000000000000000, 0.000000000000000000, 8.000000000000000000 ) ) ;
#367 = DIRECTION ( 'NONE',  ( 0.000000000000000000, -0.000000000000000000, -1.000000000000000000 ) ) ;
#368 = EDGE_CURVE ( 'NONE', #1049, #218, #128, .T. ) ;
#369 = DIRECTION ( 'NONE',  ( -0.000000000000000000, 0.000000000000000000, 1.000000000000000000 ) ) ;
#370 = ORIENTED_EDGE ( 'NONE', *, *, #598, .T. ) ;
#371 = FACE_OUTER_BOUND ( 'NONE', #748, .T. ) ;
#372 = VECTOR ( 'NONE', #787, 1000.000000000000000 ) ;
#373 = FACE_OUTER_BOUND ( 'NONE', #574, .T. ) ;
#374 = DIRECTION ( 'NONE',  ( 1.000000000000000000, 0.000000000000000000, 0.000000000000000000 ) ) ;
#375 = CIRCLE ( 'NONE', #1142, 4.025000000000000355 ) ;
#376 = ORIENTED_EDGE ( 'NONE', *, *, #603, .T. ) ;
#377 = DIRECTION ( 'NONE',  ( 0.000000000000000000, 0.000000000000000000, 1.000000000000000000 ) ) ;
#378 = MECHANICAL_DESIGN_GEOMETRIC_PRESENTATION_REPRESENTATION (  '', ( #435 ), #755 ) ;
#379 = DIRECTION ( 'NONE',  ( -0.000000000000000000, -0.000000000000000000, -1.000000000000000000 ) ) ;
#380 = ORIENTED_EDGE ( 'NONE', *, *, #53, .T. ) ;
#381 = DIRECTION ( 'NONE',  ( 0.4261131761274266072, -0.9046698630608830394, 0.000000000000000000 ) ) ;
#382 = VERTEX_POINT ( 'NONE', #1045 ) ;
#383 = PLANE ( 'NONE',  #297 ) ;
#384 = AXIS2_PLACEMENT_3D ( 'NONE', #4, #150, #402 ) ;
#385 = ADVANCED_BREP_SHAPE_REPRESENTATION ( '\X2\8fde6746\X0\5A', ( #950, #543 ), #398 ) ;
#386 = DIRECTION ( 'NONE',  ( 0.000000000000000000, 0.000000000000000000, 1.000000000000000000 ) ) ;
#387 = VERTEX_POINT ( 'NONE', #775 ) ;
#388 = CARTESIAN_POINT ( 'NONE',  ( 96.47887114766214722, 30.51508087228490496, 8.000000000000000000 ) ) ;
#389 = ORIENTED_EDGE ( 'NONE', *, *, #559, .F. ) ;
#390 = DIRECTION ( 'NONE',  ( 0.000000000000000000, -0.000000000000000000, -1.000000000000000000 ) ) ;
#391 = VERTEX_POINT ( 'NONE', #768 ) ;
#392 = PLANE ( 'NONE',  #351 ) ;
#393 = SHAPE_DEFINITION_REPRESENTATION ( #1029, #385 ) ;
#394 = EDGE_CURVE ( 'NONE', #888, #278, #46, .T. ) ;
#395 = DIRECTION ( 'NONE',  ( -0.9838164246819363079, -0.1791793585378963494, 0.000000000000000000 ) ) ;
#396 = CIRCLE ( 'NONE', #490, 12.00000000000000000 ) ;
#397 = AXIS2_PLACEMENT_3D ( 'NONE', #170, #1169, #355 ) ;
#398 =( GEOMETRIC_REPRESENTATION_CONTEXT ( 3 ) GLOBAL_UNCERTAINTY_ASSIGNED_CONTEXT ( ( #258 ) ) GLOBAL_UNIT_ASSIGNED_CONTEXT ( ( #978, #99, #984 ) ) REPRESENTATION_CONTEXT ( 'NONE', 'WORKASPACE' ) );
#399 = ORIENTED_EDGE ( 'NONE', *, *, #913, .T. ) ;
#400 = CARTESIAN_POINT ( 'NONE',  ( 97.98819146742960129, 34.72482577813574522, 8.000000000000000000 ) ) ;
#401 = EDGE_LOOP ( 'NONE', ( #862, #632, #730, #890 ) ) ;
#402 = DIRECTION ( 'NONE',  ( -0.9974282737098602025, 0.07167174341515854252, 0.000000000000000000 ) ) ;
#403 = VERTEX_POINT ( 'NONE', #944 ) ;
#404 = FACE_OUTER_BOUND ( 'NONE', #608, .T. ) ;
#405 = VECTOR ( 'NONE', #563, 1000.000000000000000 ) ;
#406 = LINE ( 'NONE', #424, #1174 ) ;
#407 = VERTEX_POINT ( 'NONE', #762 ) ;
#408 = DIRECTION ( 'NONE',  ( 1.000000000000000000, 0.000000000000000000, 0.000000000000000000 ) ) ;
#409 = ORIENTED_EDGE ( 'NONE', *, *, #257, .T. ) ;
#410 = ADVANCED_FACE ( 'NONE', ( #597 ), #488, .F. ) ;
#411 = DIRECTION ( 'NONE',  ( 1.000000000000000000, 0.000000000000000000, 0.000000000000000000 ) ) ;
#412 = CARTESIAN_POINT ( 'NONE',  ( -4.025000000000000355, 0.000000000000000000, 0.000000000000000000 ) ) ;
#413 = AXIS2_PLACEMENT_3D ( 'NONE', #873, #316, #666 ) ;
#414 = CARTESIAN_POINT ( 'NONE',  ( 100.7065122565519317, 47.25233785747937532, 0.000000000000000000 ) ) ;
#415 = VECTOR ( 'NONE', #219, 1000.000000000000000 ) ;
#416 = VERTEX_POINT ( 'NONE', #1032 ) ;
#417 = CARTESIAN_POINT ( 'NONE',  ( -11.46412463882447241, -3.973549852782880532, 8.000000000000000000 ) ) ;
#418 = ORIENTED_EDGE ( 'NONE', *, *, #549, .T. ) ;
#419 = CIRCLE ( 'NONE', #811, 12.00000000000000000 ) ;
#420 = CYLINDRICAL_SURFACE ( 'NONE', #55, 2.999999999999999112 ) ;
#421 = CIRCLE ( 'NONE', #1084, 4.999999999999997335 ) ;
#422 = EDGE_LOOP ( 'NONE', ( #967, #446, #764, #180 ) ) ;
#423 = FACE_OUTER_BOUND ( 'NONE', #560, .T. ) ;
#424 = CARTESIAN_POINT ( 'NONE',  ( -11.46412463882447241, -3.973549852782880532, -2.000000000000000000 ) ) ;
#425 = ADVANCED_FACE ( 'NONE', ( #500 ), #319, .F. ) ;
#426 = CARTESIAN_POINT ( 'NONE',  ( 8.522263522548534809, -18.09339726121766390, -172.1117070754364988 ) ) ;
#427 = ORIENTED_EDGE ( 'NONE', *, *, #897, .T. ) ;
#428 = DIRECTION ( 'NONE',  ( -0.000000000000000000, 0.000000000000000000, 1.000000000000000000 ) ) ;
#429 = AXIS2_PLACEMENT_3D ( 'NONE', #854, #40, #411 ) ;
#430 = DIRECTION ( 'NONE',  ( -0.000000000000000000, 0.000000000000000000, 1.000000000000000000 ) ) ;
#431 = AXIS2_PLACEMENT_3D ( 'NONE', #83, #158, #447 ) ;
#432 = ADVANCED_FACE ( 'NONE', ( #844 ), #505, .F. ) ;
#433 = ORIENTED_EDGE ( 'NONE', *, *, #919, .T. ) ;
#434 = CARTESIAN_POINT ( 'NONE',  ( 14.98438217880047141, 0.6843177037362041526, -2.000000000000000000 ) ) ;
#435 = STYLED_ITEM ( 'NONE', ( #1132 ), #950 ) ;
#436 = ORIENTED_EDGE ( 'NONE', *, *, #67, .F. ) ;
#437 = DIRECTION ( 'NONE',  ( -0.000000000000000000, 0.000000000000000000, 1.000000000000000000 ) ) ;
#438 = DIRECTION ( 'NONE',  ( 1.000000000000000000, 0.000000000000000000, 0.000000000000000000 ) ) ;
#439 = ORIENTED_EDGE ( 'NONE', *, *, #117, .T. ) ;
#440 = DIRECTION ( 'NONE',  ( -0.000000000000000000, 0.000000000000000000, 1.000000000000000000 ) ) ;
#441 = ORIENTED_EDGE ( 'NONE', *, *, #146, .T. ) ;
#442 = LINE ( 'NONE', #712, #617 ) ;
#443 = CARTESIAN_POINT ( 'NONE',  ( -42.81018024223648410, 0.06845630475693577355, 8.000000000000000000 ) ) ;
#444 = CIRCLE ( 'NONE', #852, 4.025000000000000355 ) ;
#445 = PLANE ( 'NONE',  #566 ) ;
#446 = ORIENTED_EDGE ( 'NONE', *, *, #1115, .T. ) ;
#447 = DIRECTION ( 'NONE',  ( 1.000000000000000000, 0.000000000000000000, 0.000000000000000000 ) ) ;
#448 = ADVANCED_FACE ( 'NONE', ( #1134 ), #226, .T. ) ;
#449 = CARTESIAN_POINT ( 'NONE',  ( 11.91857364269188935, 9.107557429065719745, 0.000000000000000000 ) ) ;
#450 = CARTESIAN_POINT ( 'NONE',  ( 97.98819146742960129, 34.72482577813574522, -2.000000000000000000 ) ) ;
#451 = ORIENTED_EDGE ( 'NONE', *, *, #928, .F. ) ;
#452 = DIRECTION ( 'NONE',  ( 0.000000000000000000, 0.000000000000000000, 1.000000000000000000 ) ) ;
#453 = CARTESIAN_POINT ( 'NONE',  ( 4.025000000000000355, 4.929203366568097207E-16, 0.000000000000000000 ) ) ;
#454 = CARTESIAN_POINT ( 'NONE',  ( 96.47887114766217564, 30.51508087228491917, 0.000000000000000000 ) ) ;
#455 = VERTEX_POINT ( 'NONE', #35 ) ;
#456 = CARTESIAN_POINT ( 'NONE',  ( 103.2628220981634115, 37.58459355005791025, 0.000000000000000000 ) ) ;
#457 = ORIENTED_EDGE ( 'NONE', *, *, #131, .T. ) ;
#458 = CARTESIAN_POINT ( 'NONE',  ( 103.2628220981634115, 37.58459355005791025, 8.000000000000000000 ) ) ;
#459 = LINE ( 'NONE', #1082, #773 ) ;
#460 = EDGE_CURVE ( 'NONE', #1038, #3, #591, .T. ) ;
#461 = DIRECTION ( 'NONE',  ( 0.000000000000000000, -0.000000000000000000, -1.000000000000000000 ) ) ;
#462 = EDGE_CURVE ( 'NONE', #218, #59, #683, .T. ) ;
#463 = PLANE ( 'NONE',  #778 ) ;
#464 = ORIENTED_EDGE ( 'NONE', *, *, #1017, .F. ) ;
#465 = DIRECTION ( 'NONE',  ( 1.000000000000000000, 0.000000000000000000, 0.000000000000000000 ) ) ;
#466 = DIRECTION ( 'NONE',  ( 0.000000000000000000, -0.000000000000000000, -1.000000000000000000 ) ) ;
#467 = ORIENTED_EDGE ( 'NONE', *, *, #1, .F. ) ;
#468 = CIRCLE ( 'NONE', #413, 10.00000000000000178 ) ;
#469 = CARTESIAN_POINT ( 'NONE',  ( 14.98438217880047141, 0.6843177037362041526, 8.000000000000000000 ) ) ;
#470 = AXIS2_PLACEMENT_3D ( 'NONE', #78, #530, #358 ) ;
#471 = ORIENTED_EDGE ( 'NONE', *, *, #569, .F. ) ;
#472 = CARTESIAN_POINT ( 'NONE',  ( 0.000000000000000000, 0.000000000000000000, 0.000000000000000000 ) ) ;
#473 = VECTOR ( 'NONE', #395, 1000.000000000000114 ) ;
#474 = ORIENTED_EDGE ( 'NONE', *, *, #583, .F. ) ;
#475 = CARTESIAN_POINT ( 'NONE',  ( -55.81000000000000227, 0.000000000000000000, 0.000000000000000000 ) ) ;
#476 = VERTEX_POINT ( 'NONE', #400 ) ;
#477 = EDGE_CURVE ( 'NONE', #278, #1078, #934, .T. ) ;
#478 = FACE_OUTER_BOUND ( 'NONE', #137, .T. ) ;
#479 = AXIS2_PLACEMENT_3D ( 'NONE', #469, #724, #374 ) ;
#480 = APPLICATION_CONTEXT ( 'automotive_design' ) ;
#481 = LINE ( 'NONE', #999, #177 ) ;
#482 = VERTEX_POINT ( 'NONE', #330 ) ;
#483 = DIRECTION ( 'NONE',  ( 0.9838164246819363079, 0.1791793585378963771, 0.000000000000000000 ) ) ;
#484 = EDGE_CURVE ( 'NONE', #455, #129, #573, .T. ) ;
#485 = AXIS2_PLACEMENT_3D ( 'NONE', #848, #1055, #956 ) ;
#486 = SURFACE_STYLE_USAGE ( .BOTH. , #851 ) ;
#487 = VERTEX_POINT ( 'NONE', #152 ) ;
#488 = CYLINDRICAL_SURFACE ( 'NONE', #575, 3.000000000000002665 ) ;
#489 = CARTESIAN_POINT ( 'NONE',  ( 103.2628220981634115, 37.58459355005791025, 0.000000000000000000 ) ) ;
#490 = AXIS2_PLACEMENT_3D ( 'NONE', #531, #1088, #79 ) ;
#491 = AXIS2_PLACEMENT_3D ( 'NONE', #443, #89, #65 ) ;
#492 = ORIENTED_EDGE ( 'NONE', *, *, #29, .T. ) ;
#493 = DIRECTION ( 'NONE',  ( -0.3075886406635831571, 0.9515194312964549983, 0.000000000000000000 ) ) ;
#494 = ORIENTED_EDGE ( 'NONE', *, *, #76, .F. ) ;
#495 = ADVANCED_FACE ( 'NONE', ( #404 ), #933, .F. ) ;
#496 = ADVANCED_FACE ( 'NONE', ( #423 ), #866, .F. ) ;
#497 = DIRECTION ( 'NONE',  ( 1.000000000000000000, 0.000000000000000000, 0.000000000000000000 ) ) ;
#498 = ADVANCED_FACE ( 'NONE', ( #757 ), #334, .T. ) ;
#499 = EDGE_LOOP ( 'NONE', ( #347, #82 ) ) ;
#500 = FACE_OUTER_BOUND ( 'NONE', #1177, .T. ) ;
#501 = VECTOR ( 'NONE', #1179, 1000.000000000000000 ) ;
#502 = EDGE_LOOP ( 'NONE', ( #10, #147, #743, #389 ) ) ;
#503 = CARTESIAN_POINT ( 'NONE',  ( 98.35087615206269618, 33.29494189217466982, -2.000000000000000000 ) ) ;
#504 = ORIENTED_EDGE ( 'NONE', *, *, #861, .F. ) ;
#505 = PLANE ( 'NONE',  #667 ) ;
#506 = CARTESIAN_POINT ( 'NONE',  ( 0.000000000000000000, 0.000000000000000000, 8.000000000000000000 ) ) ;
#507 = VECTOR ( 'NONE', #154, 999.9999999999998863 ) ;
#508 = LINE ( 'NONE', #313, #230 ) ;
#509 = ORIENTED_EDGE ( 'NONE', *, *, #868, .T. ) ;
#510 = DIRECTION ( 'NONE',  ( 1.000000000000000000, 0.000000000000000000, 0.000000000000000000 ) ) ;
#511 = EDGE_CURVE ( 'NONE', #288, #1008, #88, .T. ) ;
#512 = EDGE_LOOP ( 'NONE', ( #1126, #51, #464, #399 ) ) ;
#513 = DIRECTION ( 'NONE',  ( -0.000000000000000000, 0.000000000000000000, 1.000000000000000000 ) ) ;
#514 = ORIENTED_EDGE ( 'NONE', *, *, #293, .T. ) ;
#515 = CARTESIAN_POINT ( 'NONE',  ( 4.025000000000000355, 4.929203366568097207E-16, 8.000000000000000000 ) ) ;
#516 = DIRECTION ( 'NONE',  ( -0.000000000000000000, 0.000000000000000000, 1.000000000000000000 ) ) ;
#517 = EDGE_CURVE ( 'NONE', #957, #487, #1173, .T. ) ;
#518 = DIRECTION ( 'NONE',  ( -0.000000000000000000, -0.000000000000000000, -1.000000000000000000 ) ) ;
#519 = VERTEX_POINT ( 'NONE', #803 ) ;
#520 = DIRECTION ( 'NONE',  ( -0.000000000000000000, -0.000000000000000000, -1.000000000000000000 ) ) ;
#521 = CARTESIAN_POINT ( 'NONE',  ( 3.007986654931907644, -7.412962719706039039, 8.000000000000000000 ) ) ;
#522 = VECTOR ( 'NONE', #175, 1000.000000000000000 ) ;
#523 = ORIENTED_EDGE ( 'NONE', *, *, #1129, .F. ) ;
#524 = CARTESIAN_POINT ( 'NONE',  ( 99.23782209816340583, 37.58459355005791025, 0.000000000000000000 ) ) ;
#525 = DIRECTION ( 'NONE',  ( 1.000000000000000000, 0.000000000000000000, 0.000000000000000000 ) ) ;
#526 = AXIS2_PLACEMENT_3D ( 'NONE', #918, #287, #648 ) ;
#527 = CARTESIAN_POINT ( 'NONE',  ( 0.000000000000000000, 0.000000000000000000, 0.000000000000000000 ) ) ;
#528 = EDGE_CURVE ( 'NONE', #519, #612, #341, .T. ) ;
#529 = ORIENTED_EDGE ( 'NONE', *, *, #360, .T. ) ;
#530 = DIRECTION ( 'NONE',  ( -0.000000000000000000, -0.000000000000000000, 1.000000000000000000 ) ) ;
#531 = CARTESIAN_POINT ( 'NONE',  ( 0.000000000000000000, 0.000000000000000000, 0.000000000000000000 ) ) ;
#532 = CYLINDRICAL_SURFACE ( 'NONE', #214, 2.999999999999999112 ) ;
#533 = ORIENTED_EDGE ( 'NONE', *, *, #824, .T. ) ;
#534 = CARTESIAN_POINT ( 'NONE',  ( 0.000000000000000000, 0.000000000000000000, 8.000000000000000000 ) ) ;
#535 = DIRECTION ( 'NONE',  ( 1.000000000000000000, 0.000000000000000000, 0.000000000000000000 ) ) ;
#536 = EDGE_CURVE ( 'NONE', #115, #403, #988, .T. ) ;
#537 = DIRECTION ( 'NONE',  ( 1.000000000000000000, 0.000000000000000000, 0.000000000000000000 ) ) ;
#538 = PLANE ( 'NONE',  #384 ) ;
#539 = ADVANCED_FACE ( 'NONE', ( #613 ), #691, .F. ) ;
#540 = VERTEX_POINT ( 'NONE', #1062 ) ;
#541 = CARTESIAN_POINT ( 'NONE',  ( 107.5239538594376967, 28.53789491944906587, 0.000000000000000000 ) ) ;
#542 = AXIS2_PLACEMENT_3D ( 'NONE', #699, #892, #256 ) ;
#543 = AXIS2_PLACEMENT_3D ( 'NONE', #178, #86, #806 ) ;
#544 = DIRECTION ( 'NONE',  ( -1.000000000000000000, 0.000000000000000000, 0.000000000000000000 ) ) ;
#545 = EDGE_LOOP ( 'NONE', ( #590, #161 ) ) ;
#546 = FACE_OUTER_BOUND ( 'NONE', #750, .T. ) ;
#547 = ORIENTED_EDGE ( 'NONE', *, *, #189, .F. ) ;
#548 = DIRECTION ( 'NONE',  ( 0.9667744307421473060, 0.2556309841611478229, 0.000000000000000000 ) ) ;
#549 = EDGE_CURVE ( 'NONE', #312, #387, #64, .T. ) ;
#550 = APPLICATION_PROTOCOL_DEFINITION ( 'draft international standard', 'automotive_design', 1998, #480 ) ;
#551 = CARTESIAN_POINT ( 'NONE',  ( -43.16853895931227214, 4.918685063792367806, 0.000000000000000000 ) ) ;
#552 = AXIS2_PLACEMENT_3D ( 'NONE', #643, #742, #816 ) ;
#553 = ORIENTED_EDGE ( 'NONE', *, *, #517, .F. ) ;
#554 = FACE_OUTER_BOUND ( 'NONE', #63, .T. ) ;
#555 = ORIENTED_EDGE ( 'NONE', *, *, #368, .F. ) ;
#556 = LINE ( 'NONE', #678, #993 ) ;
#557 = ORIENTED_EDGE ( 'NONE', *, *, #74, .T. ) ;
#558 = LINE ( 'NONE', #551, #714 ) ;
#559 = EDGE_CURVE ( 'NONE', #363, #1038, #1036, .T. ) ;
#560 = EDGE_LOOP ( 'NONE', ( #320, #756, #261, #562 ) ) ;
#561 = DIRECTION ( 'NONE',  ( 0.9974282737098602025, 0.07167174341515858416, 0.000000000000000000 ) ) ;
#562 = ORIENTED_EDGE ( 'NONE', *, *, #670, .F. ) ;
#563 = DIRECTION ( 'NONE',  ( 0.000000000000000000, 0.000000000000000000, 1.000000000000000000 ) ) ;
#564 = ORIENTED_EDGE ( 'NONE', *, *, #394, .T. ) ;
#565 = FACE_OUTER_BOUND ( 'NONE', #340, .T. ) ;
#566 = AXIS2_PLACEMENT_3D ( 'NONE', #600, #801, #271 ) ;
#567 = ORIENTED_EDGE ( 'NONE', *, *, #1, .T. ) ;
#568 = DIRECTION ( 'NONE',  ( -0.000000000000000000, -0.000000000000000000, -1.000000000000000000 ) ) ;
#569 = EDGE_CURVE ( 'NONE', #663, #1099, #15, .T. ) ;
#570 = CIRCLE ( 'NONE', #60, 4.025000000000000355 ) ;
#571 = FACE_OUTER_BOUND ( 'NONE', #329, .T. ) ;
#572 = ORIENTED_EDGE ( 'NONE', *, *, #1115, .F. ) ;
#573 = LINE ( 'NONE', #860, #9 ) ;
#574 = EDGE_LOOP ( 'NONE', ( #640, #949, #915, #972 ) ) ;
#575 = AXIS2_PLACEMENT_3D ( 'NONE', #665, #951, #242 ) ;
#576 = DIRECTION ( 'NONE',  ( -0.000000000000000000, 0.000000000000000000, 1.000000000000000000 ) ) ;
#577 = ORIENTED_EDGE ( 'NONE', *, *, #664, .T. ) ;
#578 = DIRECTION ( 'NONE',  ( -0.000000000000000000, -0.000000000000000000, 1.000000000000000000 ) ) ;
#579 = AXIS2_PLACEMENT_3D ( 'NONE', #809, #262, #962 ) ;
#580 = CARTESIAN_POINT ( 'NONE',  ( 9.534858914153511833, 7.286045943252575263, 8.000000000000000000 ) ) ;
#581 = ADVANCED_FACE ( 'NONE', ( #274 ), #181, .F. ) ;
#582 = AXIS2_PLACEMENT_3D ( 'NONE', #489, #947, #145 ) ;
#583 = EDGE_CURVE ( 'NONE', #387, #200, #442, .T. ) ;
#584 = DIRECTION ( 'NONE',  ( 1.000000000000000000, 0.000000000000000000, 0.000000000000000000 ) ) ;
#585 = ORIENTED_EDGE ( 'NONE', *, *, #603, .F. ) ;
#586 = CARTESIAN_POINT ( 'NONE',  ( 0.000000000000000000, 0.000000000000000000, 0.000000000000000000 ) ) ;
#587 = DIRECTION ( 'NONE',  ( -0.000000000000000000, 0.000000000000000000, 1.000000000000000000 ) ) ;
#588 = EDGE_LOOP ( 'NONE', ( #236, #227, #5, #660 ) ) ;
#589 = CARTESIAN_POINT ( 'NONE',  ( 100.7065122565519317, 47.25233785747938242, -172.1117070754364988 ) ) ;
#590 = ORIENTED_EDGE ( 'NONE', *, *, #874, .F. ) ;
#591 = LINE ( 'NONE', #1140, #184 ) ;
#592 = AXIS2_PLACEMENT_3D ( 'NONE', #364, #1081, #720 ) ;
#593 = ORIENTED_EDGE ( 'NONE', *, *, #1093, .T. ) ;
#594 = DIRECTION ( 'NONE',  ( 0.000000000000000000, 0.000000000000000000, 1.000000000000000000 ) ) ;
#595 = EDGE_CURVE ( 'NONE', #59, #323, #880, .T. ) ;
#596 = VERTEX_POINT ( 'NONE', #247 ) ;
#597 = FACE_OUTER_BOUND ( 'NONE', #144, .T. ) ;
#598 = EDGE_CURVE ( 'NONE', #540, #382, #132, .T. ) ;
#599 = ORIENTED_EDGE ( 'NONE', *, *, #752, .F. ) ;
#600 = CARTESIAN_POINT ( 'NONE',  ( -3.583587170757926987, -19.67632849363872083, -172.1117070754364988 ) ) ;
#601 = ORIENTED_EDGE ( 'NONE', *, *, #98, .T. ) ;
#602 = CARTESIAN_POINT ( 'NONE',  ( -42.81018024223648410, 0.06845630475693577355, 0.000000000000000000 ) ) ;
#603 = EDGE_CURVE ( 'NONE', #455, #957, #1161, .T. ) ;
#604 = CARTESIAN_POINT ( 'NONE',  ( -0.5733739473212686732, 7.979426189678881620, 8.000000000000000000 ) ) ;
#605 = VECTOR ( 'NONE', #260, 1000.000000000000000 ) ;
#606 = ORIENTED_EDGE ( 'NONE', *, *, #293, .F. ) ;
#607 = DIRECTION ( 'NONE',  ( -0.000000000000000000, 0.000000000000000000, 1.000000000000000000 ) ) ;
#608 = EDGE_LOOP ( 'NONE', ( #1139, #723, #1110, #733 ) ) ;
#609 = DIRECTION ( 'NONE',  ( 1.000000000000000000, 0.000000000000000000, 0.000000000000000000 ) ) ;
#610 = CARTESIAN_POINT ( 'NONE',  ( -14.67913986906994772, 6.965834673912462804, 8.000000000000000000 ) ) ;
#611 = CIRCLE ( 'NONE', #592, 6.000000000000005329 ) ;
#612 = VERTEX_POINT ( 'NONE', #524 ) ;
#613 = FACE_OUTER_BOUND ( 'NONE', #246, .T. ) ;
#614 = DIRECTION ( 'NONE',  ( 1.000000000000000000, 0.000000000000000000, 0.000000000000000000 ) ) ;
#615 = CLOSED_SHELL ( 'NONE', ( #539, #425, #410, #348, #1143, #339, #1114, #44, #1034, #963, #1042, #496, #991, #1153, #1043, #747, #305, #240, #326, #744, #432, #448, #300, #498, #826, #701, #1006, #581, #739, #970, #1005, #38, #1109, #495 ) ) ;
#616 = EDGE_CURVE ( 'NONE', #77, #323, #895, .T. ) ;
#617 = VECTOR ( 'NONE', #793, 1000.000000000000000 ) ;
#618 = DIRECTION ( 'NONE',  ( -0.000000000000000000, -0.000000000000000000, -1.000000000000000000 ) ) ;
#619 = CYLINDRICAL_SURFACE ( 'NONE', #925, 10.00000000000000178 ) ;
#620 = VECTOR ( 'NONE', #224, 1000.000000000000000 ) ;
#621 = EDGE_LOOP ( 'NONE', ( #646, #514 ) ) ;
#622 = LINE ( 'NONE', #982, #284 ) ;
#623 = DIRECTION ( 'NONE',  ( -0.000000000000000000, -0.000000000000000000, -1.000000000000000000 ) ) ;
#624 = AXIS2_PLACEMENT_3D ( 'NONE', #366, #618, #637 ) ;
#625 = EDGE_CURVE ( 'NONE', #936, #174, #788, .T. ) ;
#626 = LINE ( 'NONE', #426, #605 ) ;
#627 = ORIENTED_EDGE ( 'NONE', *, *, #1017, .T. ) ;
#628 = CARTESIAN_POINT ( 'NONE',  ( -3.583587170757926987, -19.67632849363872083, 0.000000000000000000 ) ) ;
#629 = AXIS2_PLACEMENT_3D ( 'NONE', #736, #206, #102 ) ;
#630 = CARTESIAN_POINT ( 'NONE',  ( 0.000000000000000000, 0.000000000000000000, 8.000000000000000000 ) ) ;
#631 = CARTESIAN_POINT ( 'NONE',  ( 94.44458493633658236, 35.78495654283224070, 8.000000000000000000 ) ) ;
#632 = ORIENTED_EDGE ( 'NONE', *, *, #634, .T. ) ;
#633 = DIRECTION ( 'NONE',  ( 1.000000000000000000, 8.095376221225101878E-15, 0.000000000000000000 ) ) ;
#634 = EDGE_CURVE ( 'NONE', #174, #77, #622, .T. ) ;
#635 = ORIENTED_EDGE ( 'NONE', *, *, #153, .T. ) ;
#636 = CARTESIAN_POINT ( 'NONE',  ( -55.81000000000000227, 0.000000000000000000, 8.000000000000000000 ) ) ;
#637 = DIRECTION ( 'NONE',  ( -1.000000000000000000, 0.000000000000000000, 0.000000000000000000 ) ) ;
#638 = VECTOR ( 'NONE', #705, 1000.000000000000114 ) ;
#639 = CARTESIAN_POINT ( 'NONE',  ( -3.583587170757928764, 19.67632849363872793, 8.000000000000000000 ) ) ;
#640 = ORIENTED_EDGE ( 'NONE', *, *, #707, .F. ) ;
#641 = DIRECTION ( 'NONE',  ( -0.9667744307421473060, -0.2556309841611478229, 0.000000000000000000 ) ) ;
#642 = VERTEX_POINT ( 'NONE', #697 ) ;
#643 = CARTESIAN_POINT ( 'NONE',  ( 103.2628220981634115, 37.58459355005791025, 0.000000000000000000 ) ) ;
#644 = LINE ( 'NONE', #1007, #1103 ) ;
#645 = CARTESIAN_POINT ( 'NONE',  ( 0.000000000000000000, 0.000000000000000000, -2.000000000000000000 ) ) ;
#646 = ORIENTED_EDGE ( 'NONE', *, *, #37, .T. ) ;
#647 = CARTESIAN_POINT ( 'NONE',  ( -5.096936004998417147, 19.27617429057498555, 8.000000000000000000 ) ) ;
#648 = DIRECTION ( 'NONE',  ( 1.000000000000000000, 0.000000000000000000, 0.000000000000000000 ) ) ;
#649 = AXIS2_PLACEMENT_3D ( 'NONE', #359, #694, #279 ) ;
#650 = LINE ( 'NONE', #25, #718 ) ;
#651 = ORIENTED_EDGE ( 'NONE', *, *, #685, .T. ) ;
#652 = DIRECTION ( 'NONE',  ( 1.000000000000000000, 0.000000000000000000, 0.000000000000000000 ) ) ;
#653 = ORIENTED_EDGE ( 'NONE', *, *, #21, .T. ) ;
#654 = DIRECTION ( 'NONE',  ( -0.000000000000000000, -0.000000000000000000, 1.000000000000000000 ) ) ;
#655 = EDGE_LOOP ( 'NONE', ( #774, #651 ) ) ;
#656 = CARTESIAN_POINT ( 'NONE',  ( 9.534858914153511833, 7.286045943252575263, 0.000000000000000000 ) ) ;
#657 = EDGE_CURVE ( 'NONE', #391, #642, #935, .T. ) ;
#658 = AXIS2_PLACEMENT_3D ( 'NONE', #630, #1162, #525 ) ;
#659 = CARTESIAN_POINT ( 'NONE',  ( 97.38399732361217787, 36.38483554524080432, -2.000000000000000000 ) ) ;
#660 = ORIENTED_EDGE ( 'NONE', *, *, #528, .F. ) ;
#661 = FACE_OUTER_BOUND ( 'NONE', #588, .T. ) ;
#662 = DIRECTION ( 'NONE',  ( -0.9046698630608830394, -0.4261131761274265517, 0.000000000000000000 ) ) ;
#663 = VERTEX_POINT ( 'NONE', #515 ) ;
#664 = EDGE_CURVE ( 'NONE', #938, #233, #872, .T. ) ;
#665 = CARTESIAN_POINT ( 'NONE',  ( 95.35087615206269618, 33.29494189217466982, -2.000000000000000000 ) ) ;
#666 = DIRECTION ( 'NONE',  ( 1.000000000000000000, 0.000000000000000000, 0.000000000000000000 ) ) ;
#667 = AXIS2_PLACEMENT_3D ( 'NONE', #136, #493, #141 ) ;
#668 = ORIENTED_EDGE ( 'NONE', *, *, #511, .T. ) ;
#669 = DIRECTION ( 'NONE',  ( 0.000000000000000000, 0.000000000000000000, -1.000000000000000000 ) ) ;
#670 = EDGE_CURVE ( 'NONE', #285, #612, #375, .T. ) ;
#671 = EDGE_LOOP ( 'NONE', ( #837, #1133, #960, #1046 ) ) ;
#672 = CARTESIAN_POINT ( 'NONE',  ( -42.81018024223648410, 0.06845630475693577355, -2.000000000000000000 ) ) ;
#673 = VECTOR ( 'NONE', #886, 1000.000000000000000 ) ;
#674 = ORIENTED_EDGE ( 'NONE', *, *, #164, .F. ) ;
#675 = AXIS2_PLACEMENT_3D ( 'NONE', #1048, #576, #856 ) ;
#676 = CARTESIAN_POINT ( 'NONE',  ( 0.000000000000000000, 0.000000000000000000, 8.000000000000000000 ) ) ;
#677 = ORIENTED_EDGE ( 'NONE', *, *, #569, .T. ) ;
#678 = CARTESIAN_POINT ( 'NONE',  ( 16.11237717439993489, -2.095543316153559932, -2.000000000000000000 ) ) ;
#679 = CARTESIAN_POINT ( 'NONE',  ( -14.46412463882447064, 3.973549852782883196, -2.000000000000000000 ) ) ;
#680 = VECTOR ( 'NONE', #839, 1000.000000000000000 ) ;
#681 = CARTESIAN_POINT ( 'NONE',  ( -51.78500000000000369, 4.929203366568092277E-16, 8.000000000000000000 ) ) ;
#682 = EDGE_LOOP ( 'NONE', ( #674, #838, #1120, #820 ) ) ;
#683 = LINE ( 'NONE', #237, #66 ) ;
#684 = CARTESIAN_POINT ( 'NONE',  ( -14.46412463882447064, 3.973549852782883196, 0.000000000000000000 ) ) ;
#685 = EDGE_CURVE ( 'NONE', #26, #1008, #570, .T. ) ;
#686 = PLANE ( 'NONE',  #252 ) ;
#687 = ORIENTED_EDGE ( 'NONE', *, *, #536, .F. ) ;
#688 = CARTESIAN_POINT ( 'NONE',  ( 0.000000000000000000, 0.000000000000000000, -2.000000000000000000 ) ) ;
#689 = ORIENTED_EDGE ( 'NONE', *, *, #264, .T. ) ;
#690 = ORIENTED_EDGE ( 'NONE', *, *, #477, .T. ) ;
#691 = CYLINDRICAL_SURFACE ( 'NONE', #431, 2.999999999999999112 ) ;
#692 = CIRCLE ( 'NONE', #92, 4.025000000000000355 ) ;
#693 = CIRCLE ( 'NONE', #36, 12.00000000000000000 ) ;
#694 = DIRECTION ( 'NONE',  ( 0.000000000000000000, -0.000000000000000000, -1.000000000000000000 ) ) ;
#695 =( NAMED_UNIT ( * ) SI_UNIT ( $, .STERADIAN. ) SOLID_ANGLE_UNIT ( ) );
#696 = ORIENTED_EDGE ( 'NONE', *, *, #824, .F. ) ;
#697 = CARTESIAN_POINT ( 'NONE',  ( 97.98819146742960129, 34.72482577813574522, 0.000000000000000000 ) ) ;
#698 = EDGE_CURVE ( 'NONE', #407, #318, #481, .T. ) ;
#699 = CARTESIAN_POINT ( 'NONE',  ( 14.98438217880047141, 0.6843177037362041526, 0.000000000000000000 ) ) ;
#700 = AXIS2_PLACEMENT_3D ( 'NONE', #110, #1016, #548 ) ;
#701 = ADVANCED_FACE ( 'NONE', ( #546 ), #463, .T. ) ;
#702 = CYLINDRICAL_SURFACE ( 'NONE', #624, 4.025000000000000355 ) ;
#703 = DIRECTION ( 'NONE',  ( 1.000000000000000000, 0.000000000000000000, 0.000000000000000000 ) ) ;
#704 = ORIENTED_EDGE ( 'NONE', *, *, #204, .T. ) ;
#705 = DIRECTION ( 'NONE',  ( 0.9838164246819363079, -0.1791793585378963771, 0.000000000000000000 ) ) ;
#706 = LINE ( 'NONE', #521, #249 ) ;
#707 = EDGE_CURVE ( 'NONE', #540, #416, #1086, .T. ) ;
#708 = VECTOR ( 'NONE', #763, 1000.000000000000114 ) ;
#709 = DIRECTION ( 'NONE',  ( -0.000000000000000000, -0.000000000000000000, 1.000000000000000000 ) ) ;
#710 = FACE_OUTER_BOUND ( 'NONE', #502, .T. ) ;
#711 = ORIENTED_EDGE ( 'NONE', *, *, #292, .F. ) ;
#712 = CARTESIAN_POINT ( 'NONE',  ( -14.67913986906994772, 6.965834673912462804, 8.000000000000000000 ) ) ;
#713 = LINE ( 'NONE', #810, #501 ) ;
#714 = VECTOR ( 'NONE', #992, 1000.000000000000000 ) ;
#715 = APPLICATION_CONTEXT ( 'automotive_design' ) ;
#716 = CARTESIAN_POINT ( 'NONE',  ( 3.007986654931908532, -7.412962719706039927, 0.000000000000000000 ) ) ;
#717 = DIRECTION ( 'NONE',  ( 0.000000000000000000, -0.000000000000000000, -1.000000000000000000 ) ) ;
#718 = VECTOR ( 'NONE', #386, 1000.000000000000000 ) ;
#719 = ORIENTED_EDGE ( 'NONE', *, *, #921, .F. ) ;
#720 = DIRECTION ( 'NONE',  ( 1.000000000000000000, 0.000000000000000000, 0.000000000000000000 ) ) ;
#721 = FACE_OUTER_BOUND ( 'NONE', #794, .T. ) ;
#722 = EDGE_CURVE ( 'NONE', #1124, #382, #731, .T. ) ;
#723 = ORIENTED_EDGE ( 'NONE', *, *, #707, .T. ) ;
#724 = DIRECTION ( 'NONE',  ( 0.000000000000000000, -0.000000000000000000, -1.000000000000000000 ) ) ;
#725 = AXIS2_PLACEMENT_3D ( 'NONE', #58, #781, #1147 ) ;
#726 = ORIENTED_EDGE ( 'NONE', *, *, #131, .F. ) ;
#727 = CYLINDRICAL_SURFACE ( 'NONE', #841, 4.025000000000000355 ) ;
#728 = AXIS2_PLACEMENT_3D ( 'NONE', #1079, #717, #973 ) ;
#729 = LINE ( 'NONE', #1089, #1159 ) ;
#730 = ORIENTED_EDGE ( 'NONE', *, *, #616, .T. ) ;
#731 = LINE ( 'NONE', #914, #836 ) ;
#732 = AXIS2_PLACEMENT_3D ( 'NONE', #235, #863, #584 ) ;
#733 = ORIENTED_EDGE ( 'NONE', *, *, #1168, .F. ) ;
#734 = CARTESIAN_POINT ( 'NONE',  ( 0.000000000000000000, 0.000000000000000000, 8.000000000000000000 ) ) ;
#735 = CARTESIAN_POINT ( 'NONE',  ( 95.35087615206269618, 33.29494189217466982, 8.000000000000000000 ) ) ;
#736 = CARTESIAN_POINT ( 'NONE',  ( 11.91857364269188935, 9.107557429065719745, -2.000000000000000000 ) ) ;
#737 = ORIENTED_EDGE ( 'NONE', *, *, #625, .T. ) ;
#738 = DIRECTION ( 'NONE',  ( 0.9838164246819363079, 0.1791793585378963494, 0.000000000000000000 ) ) ;
#739 = ADVANCED_FACE ( 'NONE', ( #565 ), #116, .F. ) ;
#740 = DIRECTION ( 'NONE',  ( 1.000000000000000000, 0.000000000000000000, 0.000000000000000000 ) ) ;
#741 = VERTEX_POINT ( 'NONE', #1009 ) ;
#742 = DIRECTION ( 'NONE',  ( -0.000000000000000000, 0.000000000000000000, 1.000000000000000000 ) ) ;
#743 = ORIENTED_EDGE ( 'NONE', *, *, #90, .F. ) ;
#744 = ADVANCED_FACE ( 'NONE', ( #1092 ), #302, .T. ) ;
#745 = EDGE_LOOP ( 'NONE', ( #31, #436 ) ) ;
#746 =( LENGTH_UNIT ( ) NAMED_UNIT ( * ) SI_UNIT ( .MILLI., .METRE. ) );
#747 = ADVANCED_FACE ( 'NONE', ( #554 ), #108, .T. ) ;
#748 = EDGE_LOOP ( 'NONE', ( #433, #427, #878, #547 ) ) ;
#749 = CARTESIAN_POINT ( 'NONE',  ( -3.583587170757927431, 19.67632849363872793, -172.1117070754364988 ) ) ;
#750 = EDGE_LOOP ( 'NONE', ( #1112, #853, #418, #818 ) ) ;
#751 = EDGE_CURVE ( 'NONE', #1087, #333, #986, .T. ) ;
#752 = EDGE_CURVE ( 'NONE', #487, #129, #1106, .T. ) ;
#753 = ORIENTED_EDGE ( 'NONE', *, *, #1074, .T. ) ;
#754 = SURFACE_STYLE_FILL_AREA ( #765 ) ;
#755 =( GEOMETRIC_REPRESENTATION_CONTEXT ( 3 ) GLOBAL_UNCERTAINTY_ASSIGNED_CONTEXT ( ( #1157 ) ) GLOBAL_UNIT_ASSIGNED_CONTEXT ( ( #746, #306, #695 ) ) REPRESENTATION_CONTEXT ( 'NONE', 'WORKASPACE' ) );
#756 = ORIENTED_EDGE ( 'NONE', *, *, #989, .T. ) ;
#757 = FACE_OUTER_BOUND ( 'NONE', #198, .T. ) ;
#758 = LINE ( 'NONE', #604, #507 ) ;
#759 = DIRECTION ( 'NONE',  ( 1.000000000000000000, 0.000000000000000000, 0.000000000000000000 ) ) ;
#760 = VECTOR ( 'NONE', #829, 1000.000000000000000 ) ;
#761 = EDGE_LOOP ( 'NONE', ( #41, #932, #104, #553 ) ) ;
#762 = CARTESIAN_POINT ( 'NONE',  ( -11.57129971105957722, -3.178839882226304869, 0.000000000000000000 ) ) ;
#763 = DIRECTION ( 'NONE',  ( 0.9046698630608829284, 0.4261131761274266072, 0.000000000000000000 ) ) ;
#764 = ORIENTED_EDGE ( 'NONE', *, *, #202, .F. ) ;
#765 = FILL_AREA_STYLE ('',( #127 ) ) ;
#766 = AXIS2_PLACEMENT_3D ( 'NONE', #776, #1141, #243 ) ;
#767 = EDGE_LOOP ( 'NONE', ( #241, #492, #296, #953, #70, #370, #885, #1018, #858 ) ) ;
#768 = CARTESIAN_POINT ( 'NONE',  ( 98.35087615206269618, 33.29494189217466982, 0.000000000000000000 ) ) ;
#769 = EDGE_CURVE ( 'NONE', #244, #1091, #19, .T. ) ;
#770 = FACE_BOUND ( 'NONE', #1010, .T. ) ;
#771 = VECTOR ( 'NONE', #134, 1000.000000000000000 ) ;
#772 = LINE ( 'NONE', #589, #1075 ) ;
#773 = VECTOR ( 'NONE', #709, 1000.000000000000000 ) ;
#774 = ORIENTED_EDGE ( 'NONE', *, *, #928, .T. ) ;
#775 = CARTESIAN_POINT ( 'NONE',  ( -14.67913986906994950, 6.965834673912461028, 0.000000000000000000 ) ) ;
#776 = CARTESIAN_POINT ( 'NONE',  ( -14.46412463882447064, 3.973549852782883196, 8.000000000000000000 ) ) ;
#777 = EDGE_CURVE ( 'NONE', #312, #540, #421, .T. ) ;
#778 = AXIS2_PLACEMENT_3D ( 'NONE', #1100, #283, #561 ) ;
#779 = CARTESIAN_POINT ( 'NONE',  ( 0.000000000000000000, 0.000000000000000000, 8.000000000000000000 ) ) ;
#780 = ORIENTED_EDGE ( 'NONE', *, *, #805, .F. ) ;
#781 = DIRECTION ( 'NONE',  ( -0.000000000000000000, -0.000000000000000000, -1.000000000000000000 ) ) ;
#782 = DIRECTION ( 'NONE',  ( -0.000000000000000000, -0.000000000000000000, 1.000000000000000000 ) ) ;
#783 = PRODUCT_DEFINITION_CONTEXT ( 'detailed design', #715, 'design' ) ;
#784 = AXIS2_PLACEMENT_3D ( 'NONE', #1128, #578, #315 ) ;
#785 = DIRECTION ( 'NONE',  ( 1.000000000000000000, 0.000000000000000000, 0.000000000000000000 ) ) ;
#786 = ORIENTED_EDGE ( 'NONE', *, *, #360, .F. ) ;
#787 = DIRECTION ( 'NONE',  ( -0.000000000000000000, -0.000000000000000000, -1.000000000000000000 ) ) ;
#788 = CIRCLE ( 'NONE', #167, 3.000000000000002665 ) ;
#789 = DIRECTION ( 'NONE',  ( 1.000000000000000000, 0.000000000000000000, 0.000000000000000000 ) ) ;
#790 = DIRECTION ( 'NONE',  ( -0.000000000000000000, -0.000000000000000000, 1.000000000000000000 ) ) ;
#791 = EDGE_CURVE ( 'NONE', #42, #792, #650, .T. ) ;
#792 = VERTEX_POINT ( 'NONE', #1014 ) ;
#793 = DIRECTION ( 'NONE',  ( -0.000000000000000000, -0.000000000000000000, 1.000000000000000000 ) ) ;
#794 = EDGE_LOOP ( 'NONE', ( #601, #808, #451, #101 ) ) ;
#795 = CARTESIAN_POINT ( 'NONE',  ( -55.81000000000000227, 0.000000000000000000, 8.000000000000000000 ) ) ;
#796 = FACE_BOUND ( 'NONE', #655, .T. ) ;
#797 = ORIENTED_EDGE ( 'NONE', *, *, #805, .T. ) ;
#798 = CARTESIAN_POINT ( 'NONE',  ( -0.5733739473212685622, 7.979426189678879844, 0.000000000000000000 ) ) ;
#799 = DIRECTION ( 'NONE',  ( -0.000000000000000000, 0.000000000000000000, 1.000000000000000000 ) ) ;
#800 = AXIS2_PLACEMENT_3D ( 'NONE', #119, #377, #465 ) ;
#801 = DIRECTION ( 'NONE',  ( 0.1791793585378963771, 0.9838164246819363079, -0.000000000000000000 ) ) ;
#802 = VERTEX_POINT ( 'NONE', #926 ) ;
#803 = CARTESIAN_POINT ( 'NONE',  ( 99.23782209816340583, 37.58459355005791025, 8.000000000000000000 ) ) ;
#804 = DIRECTION ( 'NONE',  ( 1.000000000000000000, 0.000000000000000000, 0.000000000000000000 ) ) ;
#805 = EDGE_CURVE ( 'NONE', #1078, #353, #93, .T. ) ;
#806 = DIRECTION ( 'NONE',  ( 1.000000000000000000, 0.000000000000000000, 0.000000000000000000 ) ) ;
#807 = LINE ( 'NONE', #716, #121 ) ;
#808 = ORIENTED_EDGE ( 'NONE', *, *, #1127, .T. ) ;
#809 = CARTESIAN_POINT ( 'NONE',  ( 95.35087615206269618, 33.29494189217466982, 0.000000000000000000 ) ) ;
#810 = CARTESIAN_POINT ( 'NONE',  ( -4.025000000000000355, 0.000000000000000000, 8.000000000000000000 ) ) ;
#811 = AXIS2_PLACEMENT_3D ( 'NONE', #779, #440, #785 ) ;
#812 = CARTESIAN_POINT ( 'NONE',  ( -55.81000000000000227, 0.000000000000000000, 8.000000000000000000 ) ) ;
#813 = EDGE_LOOP ( 'NONE', ( #555, #220, #593, #927, #1116, #96, #737, #1105, #439 ) ) ;
#814 = DIRECTION ( 'NONE',  ( -0.9974282737098602025, 0.07167174341515854252, -0.000000000000000000 ) ) ;
#815 = ORIENTED_EDGE ( 'NONE', *, *, #188, .T. ) ;
#816 = DIRECTION ( 'NONE',  ( 1.000000000000000000, 0.000000000000000000, 0.000000000000000000 ) ) ;
#817 = DIRECTION ( 'NONE',  ( -0.000000000000000000, -0.000000000000000000, -1.000000000000000000 ) ) ;
#818 = ORIENTED_EDGE ( 'NONE', *, *, #583, .T. ) ;
#819 = CARTESIAN_POINT ( 'NONE',  ( -3.583587170757926987, -19.67632849363872083, 8.000000000000000000 ) ) ;
#820 = ORIENTED_EDGE ( 'NONE', *, *, #182, .T. ) ;
#821 = CARTESIAN_POINT ( 'NONE',  ( -3.583587170757927431, 19.67632849363872793, 8.000000000000000000 ) ) ;
#822 = AXIS2_PLACEMENT_3D ( 'NONE', #534, #437, #609 ) ;
#823 = DIRECTION ( 'NONE',  ( -0.000000000000000000, -0.000000000000000000, -1.000000000000000000 ) ) ;
#824 = EDGE_CURVE ( 'NONE', #318, #363, #365, .T. ) ;
#825 = DIRECTION ( 'NONE',  ( -0.9838164246819363079, 0.1791793585378964049, 0.000000000000000000 ) ) ;
#826 = ADVANCED_FACE ( 'NONE', ( #187 ), #538, .T. ) ;
#827 = CIRCLE ( 'NONE', #882, 4.025000000000000355 ) ;
#828 = EDGE_LOOP ( 'NONE', ( #504, #18, #1065, #523 ) ) ;
#829 = DIRECTION ( 'NONE',  ( 0.9667744307421473060, 0.2556309841611478229, 0.000000000000000000 ) ) ;
#830 = CIRCLE ( 'NONE', #251, 3.000000000000002665 ) ;
#831 = ORIENTED_EDGE ( 'NONE', *, *, #833, .F. ) ;
#832 = CARTESIAN_POINT ( 'NONE',  ( 96.47887114766214722, 30.51508087228491206, -2.000000000000000000 ) ) ;
#833 = EDGE_CURVE ( 'NONE', #482, #936, #1030, .T. ) ;
#834 = VERTEX_POINT ( 'NONE', #681 ) ;
#835 = LINE ( 'NONE', #201, #405 ) ;
#836 = VECTOR ( 'NONE', #814, 1000.000000000000000 ) ;
#837 = ORIENTED_EDGE ( 'NONE', *, *, #722, .T. ) ;
#838 = ORIENTED_EDGE ( 'NONE', *, *, #204, .F. ) ;
#839 = DIRECTION ( 'NONE',  ( -0.000000000000000000, -0.000000000000000000, 1.000000000000000000 ) ) ;
#840 = ORIENTED_EDGE ( 'NONE', *, *, #946, .F. ) ;
#841 = AXIS2_PLACEMENT_3D ( 'NONE', #734, #1102, #291 ) ;
#842 = EDGE_CURVE ( 'NONE', #936, #642, #24, .T. ) ;
#843 = ORIENTED_EDGE ( 'NONE', *, *, #536, .T. ) ;
#844 = FACE_OUTER_BOUND ( 'NONE', #401, .T. ) ;
#845 = AXIS2_PLACEMENT_3D ( 'NONE', #1073, #976, #535 ) ;
#846 = DIRECTION ( 'NONE',  ( -0.000000000000000000, 0.000000000000000000, 1.000000000000000000 ) ) ;
#847 = EDGE_LOOP ( 'NONE', ( #1146, #494, #509, #753, #585, #1000, #908, #840 ) ) ;
#848 = CARTESIAN_POINT ( 'NONE',  ( 103.2628220981634115, 37.58459355005791025, -2.000000000000000000 ) ) ;
#849 = ORIENTED_EDGE ( 'NONE', *, *, #625, .F. ) ;
#850 = ORIENTED_EDGE ( 'NONE', *, *, #946, .T. ) ;
#851 = SURFACE_SIDE_STYLE ('',( #754 ) ) ;
#852 = AXIS2_PLACEMENT_3D ( 'NONE', #472, #13, #652 ) ;
#853 = ORIENTED_EDGE ( 'NONE', *, *, #1061, .T. ) ;
#854 = CARTESIAN_POINT ( 'NONE',  ( -14.46412463882447064, 3.973549852782883196, 8.000000000000000000 ) ) ;
#855 = FACE_BOUND ( 'NONE', #745, .T. ) ;
#856 = DIRECTION ( 'NONE',  ( 1.000000000000000000, 0.000000000000000000, 0.000000000000000000 ) ) ;
#857 = CIRCLE ( 'NONE', #111, 4.025000000000000355 ) ;
#858 = ORIENTED_EDGE ( 'NONE', *, *, #921, .T. ) ;
#859 = EDGE_CURVE ( 'NONE', #888, #387, #17, .T. ) ;
#860 = CARTESIAN_POINT ( 'NONE',  ( -57.60179358537896377, -9.838164246819358638, -172.1117070754364988 ) ) ;
#861 = EDGE_CURVE ( 'NONE', #391, #216, #942, .T. ) ;
#862 = ORIENTED_EDGE ( 'NONE', *, *, #1149, .F. ) ;
#863 = DIRECTION ( 'NONE',  ( -0.000000000000000000, 0.000000000000000000, 1.000000000000000000 ) ) ;
#864 = ORIENTED_EDGE ( 'NONE', *, *, #48, .F. ) ;
#865 = CIRCLE ( 'NONE', #904, 4.025000000000000355 ) ;
#866 = CYLINDRICAL_SURFACE ( 'NONE', #725, 4.025000000000000355 ) ;
#867 = CARTESIAN_POINT ( 'NONE',  ( -43.16853895931226504, 4.918685063792367806, 8.000000000000000000 ) ) ;
#868 = EDGE_CURVE ( 'NONE', #115, #1165, #508, .T. ) ;
#869 = VECTOR ( 'NONE', #1111, 1000.000000000000000 ) ;
#870 = CARTESIAN_POINT ( 'NONE',  ( -3.583587170757929652, -19.67632849363872793, 0.000000000000000000 ) ) ;
#871 = ORIENTED_EDGE ( 'NONE', *, *, #517, .T. ) ;
#872 = LINE ( 'NONE', #289, #69 ) ;
#873 = CARTESIAN_POINT ( 'NONE',  ( -55.81000000000000227, 0.000000000000000000, 8.000000000000000000 ) ) ;
#874 = EDGE_CURVE ( 'NONE', #519, #894, #114, .T. ) ;
#875 = AXIS2_PLACEMENT_3D ( 'NONE', #688, #268, #169 ) ;
#876 = EDGE_CURVE ( 'NONE', #1124, #303, #977, .T. ) ;
#877 = FACE_OUTER_BOUND ( 'NONE', #205, .T. ) ;
#878 = ORIENTED_EDGE ( 'NONE', *, *, #37, .F. ) ;
#879 = CARTESIAN_POINT ( 'NONE',  ( -14.46412463882447064, -3.973549852782880532, 8.000000000000000000 ) ) ;
#880 = CIRCLE ( 'NONE', #728, 3.000000000000000888 ) ;
#881 = LINE ( 'NONE', #1063, #307 ) ;
#882 = AXIS2_PLACEMENT_3D ( 'NONE', #676, #846, #408 ) ;
#883 = ORIENTED_EDGE ( 'NONE', *, *, #1127, .F. ) ;
#884 = DIRECTION ( 'NONE',  ( -0.000000000000000000, -0.000000000000000000, 1.000000000000000000 ) ) ;
#885 = ORIENTED_EDGE ( 'NONE', *, *, #722, .F. ) ;
#886 = DIRECTION ( 'NONE',  ( -0.9515194312964549983, -0.3075886406635831571, 0.000000000000000000 ) ) ;
#887 = DIRECTION ( 'NONE',  ( -0.000000000000000000, 0.000000000000000000, 1.000000000000000000 ) ) ;
#888 = VERTEX_POINT ( 'NONE', #139 ) ;
#889 = DIRECTION ( 'NONE',  ( -1.000000000000000000, 0.000000000000000000, 0.000000000000000000 ) ) ;
#890 = ORIENTED_EDGE ( 'NONE', *, *, #1053, .T. ) ;
#891 = DIRECTION ( 'NONE',  ( 1.000000000000000000, 0.000000000000000000, 0.000000000000000000 ) ) ;
#892 = DIRECTION ( 'NONE',  ( -0.000000000000000000, 0.000000000000000000, 1.000000000000000000 ) ) ;
#893 = CARTESIAN_POINT ( 'NONE',  ( 95.35087615206269618, 33.29494189217466982, 0.000000000000000000 ) ) ;
#894 = VERTEX_POINT ( 'NONE', #1037 ) ;
#895 = LINE ( 'NONE', #968, #673 ) ;
#896 = DIRECTION ( 'NONE',  ( -0.000000000000000000, 0.000000000000000000, 1.000000000000000000 ) ) ;
#897 = EDGE_CURVE ( 'NONE', #663, #168, #937, .T. ) ;
#898 = CARTESIAN_POINT ( 'NONE',  ( 16.11237717439993489, -2.095543316153560820, 8.000000000000000000 ) ) ;
#899 = DIRECTION ( 'NONE',  ( -0.000000000000000000, 0.000000000000000000, 1.000000000000000000 ) ) ;
#900 = ORIENTED_EDGE ( 'NONE', *, *, #477, .F. ) ;
#901 = AXIS2_PLACEMENT_3D ( 'NONE', #183, #430, #789 ) ;
#902 = CIRCLE ( 'NONE', #845, 10.00000000000000178 ) ;
#903 = DIRECTION ( 'NONE',  ( 0.1791793585378963494, -0.9838164246819363079, 0.000000000000000000 ) ) ;
#904 = AXIS2_PLACEMENT_3D ( 'NONE', #253, #156, #985 ) ;
#905 = CARTESIAN_POINT ( 'NONE',  ( -11.57129971105957722, 3.178839882226307534, 8.000000000000000000 ) ) ;
#906 = ORIENTED_EDGE ( 'NONE', *, *, #153, .F. ) ;
#907 = CARTESIAN_POINT ( 'NONE',  ( 8.522263522548533032, -18.09339726121766390, -172.1117070754364988 ) ) ;
#908 = ORIENTED_EDGE ( 'NONE', *, *, #182, .F. ) ;
#909 = CARTESIAN_POINT ( 'NONE',  ( 98.35087615206269618, 33.29494189217466982, 8.000000000000000000 ) ) ;
#910 = EDGE_CURVE ( 'NONE', #938, #741, #772, .T. ) ;
#911 = CIRCLE ( 'NONE', #552, 4.025000000000000355 ) ;
#912 = DIRECTION ( 'NONE',  ( 1.000000000000000000, 0.000000000000000000, 0.000000000000000000 ) ) ;
#913 = EDGE_CURVE ( 'NONE', #333, #1049, #43, .T. ) ;
#914 = CARTESIAN_POINT ( 'NONE',  ( -0.5733739473212678961, -7.979426189678876291, 0.000000000000000000 ) ) ;
#915 = ORIENTED_EDGE ( 'NONE', *, *, #1061, .F. ) ;
#916 = CARTESIAN_POINT ( 'NONE',  ( -11.57129971105957722, -3.178839882226304869, 8.000000000000000000 ) ) ;
#917 = CIRCLE ( 'NONE', #766, 2.999999999999999112 ) ;
#918 = CARTESIAN_POINT ( 'NONE',  ( -42.81018024223648410, -0.06845630475693349759, -2.000000000000000000 ) ) ;
#919 = EDGE_CURVE ( 'NONE', #1099, #663, #827, .T. ) ;
#920 = DIRECTION ( 'NONE',  ( 0.9046698630608829284, 0.4261131761274265517, 0.000000000000000000 ) ) ;
#921 = EDGE_CURVE ( 'NONE', #303, #407, #1135, .T. ) ;
#922 = COLOUR_RGB ( '',0.7921568627450980005, 0.8196078431372548767, 0.9333333333333333481 ) ;
#923 = ORIENTED_EDGE ( 'NONE', *, *, #698, .T. ) ;
#924 = DIRECTION ( 'NONE',  ( 0.9266203399632547688, 0.3759983318664885110, 0.000000000000000000 ) ) ;
#925 = AXIS2_PLACEMENT_3D ( 'NONE', #1077, #518, #889 ) ;
#926 = CARTESIAN_POINT ( 'NONE',  ( 16.11237717439994199, -2.095543316153559932, 0.000000000000000000 ) ) ;
#927 = ORIENTED_EDGE ( 'NONE', *, *, #965, .T. ) ;
#928 = EDGE_CURVE ( 'NONE', #1008, #26, #1098, .T. ) ;
#929 = CARTESIAN_POINT ( 'NONE',  ( 10.99580772070114065, 11.96211572295508319, 8.000000000000000000 ) ) ;
#930 = VECTOR ( 'NONE', #11, 1000.000000000000000 ) ;
#931 = DIRECTION ( 'NONE',  ( -0.000000000000000000, 0.000000000000000000, 1.000000000000000000 ) ) ;
#932 = ORIENTED_EDGE ( 'NONE', *, *, #979, .T. ) ;
#933 = CYLINDRICAL_SURFACE ( 'NONE', #280, 4.999999999999997335 ) ;
#934 = CIRCLE ( 'NONE', #429, 2.999999999999999112 ) ;
#935 = CIRCLE ( 'NONE', #579, 3.000000000000002665 ) ;
#936 = VERTEX_POINT ( 'NONE', #50 ) ;
#937 = LINE ( 'NONE', #239, #415 ) ;
#938 = VERTEX_POINT ( 'NONE', #414 ) ;
#939 = DIRECTION ( 'NONE',  ( -0.000000000000000000, 0.000000000000000000, 1.000000000000000000 ) ) ;
#940 = ORIENTED_EDGE ( 'NONE', *, *, #460, .T. ) ;
#941 = VECTOR ( 'NONE', #1176, 1000.000000000000000 ) ;
#942 = LINE ( 'NONE', #503, #620 ) ;
#943 = ORIENTED_EDGE ( 'NONE', *, *, #67, .T. ) ;
#944 = CARTESIAN_POINT ( 'NONE',  ( 107.5239538594376825, 28.53789491944906231, 8.000000000000000000 ) ) ;
#945 = FACE_OUTER_BOUND ( 'NONE', #1160, .T. ) ;
#946 = EDGE_CURVE ( 'NONE', #233, #42, #327, .T. ) ;
#947 = DIRECTION ( 'NONE',  ( -0.000000000000000000, 0.000000000000000000, 1.000000000000000000 ) ) ;
#948 = VECTOR ( 'NONE', #483, 1000.000000000000114 ) ;
#949 = ORIENTED_EDGE ( 'NONE', *, *, #777, .F. ) ;
#950 = MANIFOLD_SOLID_BREP ( '\X2\570689d2\X0\2', #615 ) ;
#951 = DIRECTION ( 'NONE',  ( -0.000000000000000000, -0.000000000000000000, 1.000000000000000000 ) ) ;
#952 = CARTESIAN_POINT ( 'NONE',  ( -57.60179358537897798, 9.838164246819365744, 0.000000000000000000 ) ) ;
#953 = ORIENTED_EDGE ( 'NONE', *, *, #549, .F. ) ;
#954 = CARTESIAN_POINT ( 'NONE',  ( -3.583587170757927431, 19.67632849363872793, 0.000000000000000000 ) ) ;
#955 = ORIENTED_EDGE ( 'NONE', *, *, #257, .F. ) ;
#956 = DIRECTION ( 'NONE',  ( 1.000000000000000000, 0.000000000000000000, 0.000000000000000000 ) ) ;
#957 = VERTEX_POINT ( 'NONE', #870 ) ;
#958 = AXIS2_PLACEMENT_3D ( 'NONE', #449, #896, #438 ) ;
#959 = FACE_OUTER_BOUND ( 'NONE', #223, .T. ) ;
#960 = ORIENTED_EDGE ( 'NONE', *, *, #460, .F. ) ;
#961 = AXIS2_PLACEMENT_3D ( 'NONE', #980, #62, #1064 ) ;
#962 = DIRECTION ( 'NONE',  ( 1.000000000000000000, 0.000000000000000000, 0.000000000000000000 ) ) ;
#963 = ADVANCED_FACE ( 'NONE', ( #571 ), #179, .T. ) ;
#964 = CARTESIAN_POINT ( 'NONE',  ( 8.522263522548533032, -18.09339726121766390, 8.000000000000000000 ) ) ;
#965 = EDGE_CURVE ( 'NONE', #1091, #391, #1118, .T. ) ;
#966 = DIRECTION ( 'NONE',  ( -0.000000000000000000, -0.000000000000000000, -1.000000000000000000 ) ) ;
#967 = ORIENTED_EDGE ( 'NONE', *, *, #842, .T. ) ;
#968 = CARTESIAN_POINT ( 'NONE',  ( -2.460709125308667033, 7.612155450371647092, 8.000000000000000000 ) ) ;
#969 = CARTESIAN_POINT ( 'NONE',  ( -55.81000000000000227, 0.000000000000000000, 8.000000000000000000 ) ) ;
#970 = ADVANCED_FACE ( 'NONE', ( #959 ), #532, .F. ) ;
#971 = DIRECTION ( 'NONE',  ( 1.000000000000000000, 0.000000000000000000, 0.000000000000000000 ) ) ;
#972 = ORIENTED_EDGE ( 'NONE', *, *, #188, .F. ) ;
#973 = DIRECTION ( 'NONE',  ( 1.000000000000000000, 1.734723475976806503E-15, 0.000000000000000000 ) ) ;
#974 = AXIS2_PLACEMENT_3D ( 'NONE', #506, #516, #149 ) ;
#975 = VECTOR ( 'NONE', #520, 1000.000000000000000 ) ;
#976 = DIRECTION ( 'NONE',  ( -0.000000000000000000, 0.000000000000000000, 1.000000000000000000 ) ) ;
#977 = CIRCLE ( 'NONE', #675, 2.999999999999999112 ) ;
#978 =( LENGTH_UNIT ( ) NAMED_UNIT ( * ) SI_UNIT ( .MILLI., .METRE. ) );
#979 = EDGE_CURVE ( 'NONE', #1165, #1119, #626, .T. ) ;
#980 = CARTESIAN_POINT ( 'NONE',  ( 103.2628220981634115, 37.58459355005791025, 8.000000000000000000 ) ) ;
#981 = ORIENTED_EDGE ( 'NONE', *, *, #1076, .T. ) ;
#982 = CARTESIAN_POINT ( 'NONE',  ( 93.52181901434582301, 38.63951483672161658, -2.000000000000000000 ) ) ;
#983 = CARTESIAN_POINT ( 'NONE',  ( 93.52181901434582301, 38.63951483672161658, 0.000000000000000000 ) ) ;
#984 =( NAMED_UNIT ( * ) SI_UNIT ( $, .STERADIAN. ) SOLID_ANGLE_UNIT ( ) );
#985 = DIRECTION ( 'NONE',  ( 1.000000000000000000, 0.000000000000000000, 0.000000000000000000 ) ) ;
#986 = CIRCLE ( 'NONE', #479, 2.999999999999999112 ) ;
#987 = ORIENTED_EDGE ( 'NONE', *, *, #910, .T. ) ;
#988 = LINE ( 'NONE', #71, #522 ) ;
#989 = EDGE_CURVE ( 'NONE', #894, #519, #865, .T. ) ;
#990 = DIRECTION ( 'NONE',  ( 1.000000000000000000, 0.000000000000000000, 0.000000000000000000 ) ) ;
#991 = ADVANCED_FACE ( 'NONE', ( #877 ), #172, .F. ) ;
#992 = DIRECTION ( 'NONE',  ( 0.000000000000000000, 0.000000000000000000, -1.000000000000000000 ) ) ;
#993 = VECTOR ( 'NONE', #1039, 1000.000000000000000 ) ;
#994 = CARTESIAN_POINT ( 'NONE',  ( -47.80971159370724166, 1.138412281109779656E-15, 4.000000000000000000 ) ) ;
#995 = ORIENTED_EDGE ( 'NONE', *, *, #138, .T. ) ;
#996 = DIRECTION ( 'NONE',  ( -0.000000000000000000, 0.000000000000000000, 1.000000000000000000 ) ) ;
#997 = CARTESIAN_POINT ( 'NONE',  ( -4.025000000000000355, 0.000000000000000000, 8.000000000000000000 ) ) ;
#998 = ORIENTED_EDGE ( 'NONE', *, *, #164, .T. ) ;
#999 = CARTESIAN_POINT ( 'NONE',  ( -11.57129971105957722, -3.178839882226304869, -2.000000000000000000 ) ) ;
#1000 = ORIENTED_EDGE ( 'NONE', *, *, #138, .F. ) ;
#1001 = CIRCLE ( 'NONE', #1057, 4.025000000000000355 ) ;
#1002 = CIRCLE ( 'NONE', #397, 9.999999999999994671 ) ;
#1003 = DIRECTION ( 'NONE',  ( -1.000000000000000000, 0.000000000000000000, 0.000000000000000000 ) ) ;
#1004 = AXIS2_PLACEMENT_3D ( 'NONE', #631, #461, #16 ) ;
#1005 = ADVANCED_FACE ( 'NONE', ( #710 ), #420, .F. ) ;
#1006 = ADVANCED_FACE ( 'NONE', ( #1058 ), #68, .F. ) ;
#1007 = CARTESIAN_POINT ( 'NONE',  ( -2.460709125308667033, 7.612155450371647092, 0.000000000000000000 ) ) ;
#1008 = VERTEX_POINT ( 'NONE', #338 ) ;
#1009 = CARTESIAN_POINT ( 'NONE',  ( 100.7065122565519317, 47.25233785747938242, 8.000000000000000000 ) ) ;
#1010 = EDGE_LOOP ( 'NONE', ( #1094, #471 ) ) ;
#1011 = CARTESIAN_POINT ( 'NONE',  ( -11.57129971105957722, 3.178839882226307534, 0.000000000000000000 ) ) ;
#1012 = DIRECTION ( 'NONE',  ( 0.9266203399632548798, 0.3759983318664885110, 0.000000000000000000 ) ) ;
#1013 = ORIENTED_EDGE ( 'NONE', *, *, #979, .F. ) ;
#1014 = CARTESIAN_POINT ( 'NONE',  ( -57.60179358537897087, 9.838164246819369296, 8.000000000000000000 ) ) ;
#1015 = ORIENTED_EDGE ( 'NONE', *, *, #685, .F. ) ;
#1016 = DIRECTION ( 'NONE',  ( 0.2556309841611478229, -0.9667744307421473060, 0.000000000000000000 ) ) ;
#1017 = EDGE_CURVE ( 'NONE', #333, #59, #419, .T. ) ;
#1018 = ORIENTED_EDGE ( 'NONE', *, *, #876, .T. ) ;
#1019 = DIRECTION ( 'NONE',  ( 1.000000000000000000, 0.000000000000000000, 0.000000000000000000 ) ) ;
#1020 = FACE_OUTER_BOUND ( 'NONE', #301, .T. ) ;
#1021 = EDGE_LOOP ( 'NONE', ( #1085, #376, #871, #1163 ) ) ;
#1022 = FACE_OUTER_BOUND ( 'NONE', #254, .T. ) ;
#1023 = CIRCLE ( 'NONE', #958, 3.000000000000000888 ) ;
#1024 = AXIS2_PLACEMENT_3D ( 'NONE', #893, #513, #971 ) ;
#1025 = DIRECTION ( 'NONE',  ( 1.000000000000000000, 0.000000000000000000, 0.000000000000000000 ) ) ;
#1026 = ORIENTED_EDGE ( 'NONE', *, *, #53, .F. ) ;
#1027 = PLANE ( 'NONE',  #700 ) ;
#1028 = AXIS2_PLACEMENT_3D ( 'NONE', #30, #390, #633 ) ;
#1029 = PRODUCT_DEFINITION_SHAPE ( 'NONE', 'NONE',  #337 ) ;
#1030 = LINE ( 'NONE', #659, #1047 ) ;
#1031 = EDGE_LOOP ( 'NONE', ( #290, #1101, #780, #900 ) ) ;
#1032 = CARTESIAN_POINT ( 'NONE',  ( -47.80971159370724166, 1.111307226797642045E-15, 8.000000000000000000 ) ) ;
#1033 = VECTOR ( 'NONE', #452, 1000.000000000000000 ) ;
#1034 = ADVANCED_FACE ( 'NONE', ( #1145, #1152, #796, #1070, #332, #1164 ), #686, .F. ) ;
#1035 = ORIENTED_EDGE ( 'NONE', *, *, #1129, .T. ) ;
#1036 = CIRCLE ( 'NONE', #228, 2.999999999999999112 ) ;
#1037 = CARTESIAN_POINT ( 'NONE',  ( 107.2878220981634172, 37.58459355005791025, 8.000000000000000000 ) ) ;
#1038 = VERTEX_POINT ( 'NONE', #160 ) ;
#1039 = DIRECTION ( 'NONE',  ( -0.000000000000000000, 0.000000000000000000, 1.000000000000000000 ) ) ;
#1040 = PRODUCT_RELATED_PRODUCT_CATEGORY ( 'part', '', ( #222 ) ) ;
#1041 = DIRECTION ( 'NONE',  ( -0.000000000000000000, -0.000000000000000000, 1.000000000000000000 ) ) ;
#1042 = ADVANCED_FACE ( 'NONE', ( #245 ), #619, .T. ) ;
#1043 = ADVANCED_FACE ( 'NONE', ( #81 ), #445, .F. ) ;
#1044 = ORIENTED_EDGE ( 'NONE', *, *, #698, .F. ) ;
#1045 = CARTESIAN_POINT ( 'NONE',  ( -43.16853895931227925, -4.918685063792362477, 0.000000000000000000 ) ) ;
#1046 = ORIENTED_EDGE ( 'NONE', *, *, #90, .T. ) ;
#1047 = VECTOR ( 'NONE', #669, 1000.000000000000000 ) ;
#1048 = CARTESIAN_POINT ( 'NONE',  ( -14.46412463882447064, -3.973549852782880532, 0.000000000000000000 ) ) ;
#1049 = VERTEX_POINT ( 'NONE', #1052 ) ;
#1050 = DIRECTION ( 'NONE',  ( -0.000000000000000000, -0.000000000000000000, 1.000000000000000000 ) ) ;
#1051 = CARTESIAN_POINT ( 'NONE',  ( 0.000000000000000000, 0.000000000000000000, 0.000000000000000000 ) ) ;
#1052 = CARTESIAN_POINT ( 'NONE',  ( 11.98750574304037819, 0.5474541629889633221, 0.000000000000000000 ) ) ;
#1053 = EDGE_CURVE ( 'NONE', #323, #596, #281, .T. ) ;
#1054 = ORIENTED_EDGE ( 'NONE', *, *, #189, .T. ) ;
#1055 = DIRECTION ( 'NONE',  ( -0.000000000000000000, -0.000000000000000000, 1.000000000000000000 ) ) ;
#1056 = CARTESIAN_POINT ( 'NONE',  ( -43.16853895931226504, -4.918685063792365142, 8.000000000000000000 ) ) ;
#1057 = AXIS2_PLACEMENT_3D ( 'NONE', #795, #996, #990 ) ;
#1058 = FACE_OUTER_BOUND ( 'NONE', #828, .T. ) ;
#1059 = AXIS2_PLACEMENT_3D ( 'NONE', #735, #367, #912 ) ;
#1060 = ORIENTED_EDGE ( 'NONE', *, *, #120, .F. ) ;
#1061 = EDGE_CURVE ( 'NONE', #12, #312, #558, .T. ) ;
#1062 = CARTESIAN_POINT ( 'NONE',  ( -47.80971159370724166, 1.111307226797642045E-15, 0.000000000000000000 ) ) ;
#1063 = CARTESIAN_POINT ( 'NONE',  ( -14.67913986906994772, -6.965834673912460140, 0.000000000000000000 ) ) ;
#1064 = DIRECTION ( 'NONE',  ( -1.000000000000000000, 0.000000000000000000, 0.000000000000000000 ) ) ;
#1065 = ORIENTED_EDGE ( 'NONE', *, *, #769, .F. ) ;
#1066 = DIRECTION ( 'NONE',  ( 0.9974282737098602025, 0.07167174341515858416, 0.000000000000000000 ) ) ;
#1067 = CIRCLE ( 'NONE', #649, 4.999999999999997335 ) ;
#1068 = CARTESIAN_POINT ( 'NONE',  ( -65.81000000000000227, 0.000000000000000000, 0.000000000000000000 ) ) ;
#1069 = CARTESIAN_POINT ( 'NONE',  ( 8.522263522548534809, -18.09339726121766390, -5.551115123125782702E-14 ) ) ;
#1070 = FACE_BOUND ( 'NONE', #499, .T. ) ;
#1071 = VERTEX_POINT ( 'NONE', #639 ) ;
#1072 = DIRECTION ( 'NONE',  ( -0.000000000000000000, 0.000000000000000000, 1.000000000000000000 ) ) ;
#1073 = CARTESIAN_POINT ( 'NONE',  ( -55.81000000000000227, 0.000000000000000000, 0.000000000000000000 ) ) ;
#1074 = EDGE_CURVE ( 'NONE', #1165, #957, #1137, .T. ) ;
#1075 = VECTOR ( 'NONE', #594, 1000.000000000000000 ) ;
#1076 = EDGE_CURVE ( 'NONE', #77, #482, #1080, .T. ) ;
#1077 = CARTESIAN_POINT ( 'NONE',  ( -55.81000000000000227, 0.000000000000000000, 8.000000000000000000 ) ) ;
#1078 = VERTEX_POINT ( 'NONE', #905 ) ;
#1079 = CARTESIAN_POINT ( 'NONE',  ( 11.91857364269188935, 9.107557429065719745, 8.000000000000000000 ) ) ;
#1080 = CIRCLE ( 'NONE', #1004, 3.000000000000002665 ) ;
#1081 = DIRECTION ( 'NONE',  ( -0.000000000000000000, 0.000000000000000000, 1.000000000000000000 ) ) ;
#1082 = CARTESIAN_POINT ( 'NONE',  ( -43.16853895931227214, -4.918685063792365142, 8.000000000000000000 ) ) ;
#1083 = DIRECTION ( 'NONE',  ( 0.000000000000000000, -0.000000000000000000, -1.000000000000000000 ) ) ;
#1084 = AXIS2_PLACEMENT_3D ( 'NONE', #211, #277, #295 ) ;
#1085 = ORIENTED_EDGE ( 'NONE', *, *, #484, .F. ) ;
#1086 = LINE ( 'NONE', #994, #680 ) ;
#1087 = VERTEX_POINT ( 'NONE', #898 ) ;
#1088 = DIRECTION ( 'NONE',  ( -0.000000000000000000, 0.000000000000000000, 1.000000000000000000 ) ) ;
#1089 = CARTESIAN_POINT ( 'NONE',  ( -51.78500000000000369, 4.929203366568095235E-16, 8.000000000000000000 ) ) ;
#1090 = AXIS2_PLACEMENT_3D ( 'NONE', #586, #939, #52 ) ;
#1091 = VERTEX_POINT ( 'NONE', #454 ) ;
#1092 = FACE_OUTER_BOUND ( 'NONE', #512, .T. ) ;
#1093 = EDGE_CURVE ( 'NONE', #802, #1091, #807, .T. ) ;
#1094 = ORIENTED_EDGE ( 'NONE', *, *, #919, .F. ) ;
#1095 = CYLINDRICAL_SURFACE ( 'NONE', #800, 20.00000000000000000 ) ;
#1096 = VECTOR ( 'NONE', #1066, 1000.000000000000000 ) ;
#1097 = CARTESIAN_POINT ( 'NONE',  ( -65.81000000000000227, 0.000000000000000000, 8.000000000000000000 ) ) ;
#1098 = CIRCLE ( 'NONE', #270, 4.025000000000000355 ) ;
#1099 = VERTEX_POINT ( 'NONE', #997 ) ;
#1100 = CARTESIAN_POINT ( 'NONE',  ( -0.5733739473212686732, 7.979426189678881620, -2.000000000000000000 ) ) ;
#1101 = ORIENTED_EDGE ( 'NONE', *, *, #29, .F. ) ;
#1102 = DIRECTION ( 'NONE',  ( -0.000000000000000000, -0.000000000000000000, -1.000000000000000000 ) ) ;
#1103 = VECTOR ( 'NONE', #1104, 1000.000000000000000 ) ;
#1104 = DIRECTION ( 'NONE',  ( -0.9515194312964549983, -0.3075886406635831571, 0.000000000000000000 ) ) ;
#1105 = ORIENTED_EDGE ( 'NONE', *, *, #1149, .T. ) ;
#1106 = LINE ( 'NONE', #819, #122 ) ;
#1107 = ORIENTED_EDGE ( 'NONE', *, *, #1053, .F. ) ;
#1108 = AXIS2_PLACEMENT_3D ( 'NONE', #458, #6, #1003 ) ;
#1109 = ADVANCED_FACE ( 'NONE', ( #373 ), #197, .F. ) ;
#1110 = ORIENTED_EDGE ( 'NONE', *, *, #146, .F. ) ;
#1111 = DIRECTION ( 'NONE',  ( 0.000000000000000000, 0.000000000000000000, -1.000000000000000000 ) ) ;
#1112 = ORIENTED_EDGE ( 'NONE', *, *, #8, .F. ) ;
#1113 = CARTESIAN_POINT ( 'NONE',  ( 107.2878220981634172, 37.58459355005791025, 0.000000000000000000 ) ) ;
#1114 = ADVANCED_FACE ( 'NONE', ( #113 ), #91, .T. ) ;
#1115 = EDGE_CURVE ( 'NONE', #642, #476, #87, .T. ) ;
#1116 = ORIENTED_EDGE ( 'NONE', *, *, #657, .T. ) ;
#1117 = CARTESIAN_POINT ( 'NONE',  ( -3.583587170757928764, 19.67632849363872083, 0.000000000000000000 ) ) ;
#1118 = CIRCLE ( 'NONE', #1024, 3.000000000000002665 ) ;
#1119 = VERTEX_POINT ( 'NONE', #2 ) ;
#1120 = ORIENTED_EDGE ( 'NONE', *, *, #791, .F. ) ;
#1121 = DIRECTION ( 'NONE',  ( -0.000000000000000000, -0.000000000000000000, 1.000000000000000000 ) ) ;
#1122 = DIRECTION ( 'NONE',  ( 1.000000000000000000, 0.000000000000000000, 0.000000000000000000 ) ) ;
#1123 = CIRCLE ( 'NONE', #105, 10.00000000000000178 ) ;
#1124 = VERTEX_POINT ( 'NONE', #361 ) ;
#1125 = CARTESIAN_POINT ( 'NONE',  ( -14.46412463882447064, 3.973549852782883196, 0.000000000000000000 ) ) ;
#1126 = ORIENTED_EDGE ( 'NONE', *, *, #368, .T. ) ;
#1127 = EDGE_CURVE ( 'NONE', #834, #26, #729, .T. ) ;
#1128 = CARTESIAN_POINT ( 'NONE',  ( -14.46412463882447064, -3.973549852782880532, -2.000000000000000000 ) ) ;
#1129 = EDGE_CURVE ( 'NONE', #216, #244, #345, .T. ) ;
#1130 = DIRECTION ( 'NONE',  ( -0.000000000000000000, 0.000000000000000000, 1.000000000000000000 ) ) ;
#1131 = ORIENTED_EDGE ( 'NONE', *, *, #1150, .T. ) ;
#1132 = PRESENTATION_STYLE_ASSIGNMENT (( #486 ) ) ;
#1133 = ORIENTED_EDGE ( 'NONE', *, *, #1168, .T. ) ;
#1134 = FACE_OUTER_BOUND ( 'NONE', #422, .T. ) ;
#1135 = CIRCLE ( 'NONE', #732, 2.999999999999999112 ) ;
#1136 = FACE_BOUND ( 'NONE', #225, .T. ) ;
#1137 = CIRCLE ( 'NONE', #94, 20.00000000000000000 ) ;
#1138 = DIRECTION ( 'NONE',  ( -0.000000000000000000, 0.000000000000000000, 1.000000000000000000 ) ) ;
#1139 = ORIENTED_EDGE ( 'NONE', *, *, #598, .F. ) ;
#1140 = CARTESIAN_POINT ( 'NONE',  ( -0.5733739473212681181, -7.979426189678878067, 8.000000000000000000 ) ) ;
#1141 = DIRECTION ( 'NONE',  ( 0.000000000000000000, -0.000000000000000000, -1.000000000000000000 ) ) ;
#1142 = AXIS2_PLACEMENT_3D ( 'NONE', #456, #369, #1019 ) ;
#1143 = ADVANCED_FACE ( 'NONE', ( #721 ), #107, .F. ) ;
#1144 = VERTEX_POINT ( 'NONE', #1097 ) ;
#1145 = FACE_BOUND ( 'NONE', #813, .T. ) ;
#1146 = ORIENTED_EDGE ( 'NONE', *, *, #664, .F. ) ;
#1147 = DIRECTION ( 'NONE',  ( -1.000000000000000000, 0.000000000000000000, 0.000000000000000000 ) ) ;
#1148 = CARTESIAN_POINT ( 'NONE',  ( -51.78500000000000369, 4.929203366568092277E-16, 0.000000000000000000 ) ) ;
#1149 = EDGE_CURVE ( 'NONE', #174, #596, #644, .T. ) ;
#1150 = EDGE_CURVE ( 'NONE', #476, #216, #830, .T. ) ;
#1151 = ORIENTED_EDGE ( 'NONE', *, *, #634, .F. ) ;
#1152 = FACE_OUTER_BOUND ( 'NONE', #847, .T. ) ;
#1153 = ADVANCED_FACE ( 'NONE', ( #1020 ), #702, .F. ) ;
#1154 = ORIENTED_EDGE ( 'NONE', *, *, #103, .T. ) ;
#1155 = CARTESIAN_POINT ( 'NONE',  ( -3.583587170757929652, -19.67632849363872793, -172.1117070754364988 ) ) ;
#1156 = CARTESIAN_POINT ( 'NONE',  ( -65.81000000000000227, 0.000000000000000000, 8.000000000000000000 ) ) ;
#1157 = UNCERTAINTY_MEASURE_WITH_UNIT (LENGTH_MEASURE( 1.000000000000000082E-05 ), #746, 'distance_accuracy_value', 'NONE');
#1158 = DIRECTION ( 'NONE',  ( -1.000000000000000000, 0.000000000000000000, 0.000000000000000000 ) ) ;
#1159 = VECTOR ( 'NONE', #192, 1000.000000000000000 ) ;
#1160 = EDGE_LOOP ( 'NONE', ( #955, #704, #380, #599, #157, #567, #635, #711 ) ) ;
#1161 = LINE ( 'NONE', #628, #638 ) ;
#1162 = DIRECTION ( 'NONE',  ( -0.000000000000000000, 0.000000000000000000, 1.000000000000000000 ) ) ;
#1163 = ORIENTED_EDGE ( 'NONE', *, *, #752, .T. ) ;
#1164 = FACE_BOUND ( 'NONE', #767, .T. ) ;
#1165 = VERTEX_POINT ( 'NONE', #1069 ) ;
#1166 = DIRECTION ( 'NONE',  ( 1.000000000000000000, 0.000000000000000000, 0.000000000000000000 ) ) ;
#1167 = VECTOR ( 'NONE', #568, 1000.000000000000000 ) ;
#1168 = EDGE_CURVE ( 'NONE', #382, #3, #459, .T. ) ;
#1169 = DIRECTION ( 'NONE',  ( -0.000000000000000000, 0.000000000000000000, 1.000000000000000000 ) ) ;
#1170 = ORIENTED_EDGE ( 'NONE', *, *, #1150, .F. ) ;
#1171 = CARTESIAN_POINT ( 'NONE',  ( 95.35087615206269618, 33.29494189217466982, -2.000000000000000000 ) ) ;
#1172 = ORIENTED_EDGE ( 'NONE', *, *, #74, .F. ) ;
#1173 = LINE ( 'NONE', #1155, #1033 ) ;
#1174 = VECTOR ( 'NONE', #782, 1000.000000000000000 ) ;
#1175 = CARTESIAN_POINT ( 'NONE',  ( 93.52181901434582301, 38.63951483672161658, 8.000000000000000000 ) ) ;
#1176 = DIRECTION ( 'NONE',  ( -0.000000000000000000, -0.000000000000000000, 1.000000000000000000 ) ) ;
#1177 = EDGE_LOOP ( 'NONE', ( #719, #653, #696, #1044 ) ) ;
#1178 = CARTESIAN_POINT ( 'NONE',  ( -59.83500000000000796, 0.000000000000000000, 8.000000000000000000 ) ) ;
#1179 = DIRECTION ( 'NONE',  ( -0.000000000000000000, -0.000000000000000000, -1.000000000000000000 ) ) ;
ENDSEC;
END-ISO-10303-21;
