ISO-10303-21;
HEADER;
FILE_DESCRIPTION (( 'STEP AP214' ),
    '1' );
FILE_NAME ('·ÀËÉÂÝÄ¸(¿ªÔ´)A.STEP',
    '2026-08-16T17:26:54',
    ( '' ),
    ( '' ),
    'SwSTEP 2.0',
    'SolidWorks 2025',
    '' );
FILE_SCHEMA (( 'AUTOMOTIVE_DESIGN' ));
ENDSEC;

DATA;
#1 =( NAMED_UNIT ( * ) SI_UNIT ( $, .STERADIAN. ) SOLID_ANGLE_UNIT ( ) );
#2 = AXIS2_PLACEMENT_3D ( 'NONE', #1023, #222, #131 ) ;
#3 = ORIENTED_EDGE ( 'NONE', *, *, #201, .F. ) ;
#4 = PLANE ( 'NONE',  #425 ) ;
#5 = VERTEX_POINT ( 'NONE', #141 ) ;
#6 = CARTESIAN_POINT ( 'NONE',  ( -5.537533265082650757, -1.631919997787569132, 0.4087110362740747904 ) ) ;
#7 = CARTESIAN_POINT ( 'NONE',  ( 0.000000000000000000, 4.000000000000000000, 4.900000000000000355 ) ) ;
#8 = EDGE_CURVE ( 'NONE', #798, #649, #94, .T. ) ;
#9 = ORIENTED_EDGE ( 'NONE', *, *, #45, .F. ) ;
#10 = CARTESIAN_POINT ( 'NONE',  ( 0.000000000000000000, 2.000000000000000000, 0.000000000000000000 ) ) ;
#11 = ORIENTED_EDGE ( 'NONE', *, *, #705, .F. ) ;
#12 = AXIS2_PLACEMENT_3D ( 'NONE', #430, #292, #299 ) ;
#13 = EDGE_CURVE ( 'NONE', #67, #356, #629, .T. ) ;
#14 = FACE_BOUND ( 'NONE', #780, .T. ) ;
#15 = UNCERTAINTY_MEASURE_WITH_UNIT (LENGTH_MEASURE( 1.000000000000000082E-05 ), #894, 'distance_accuracy_value', 'NONE');
#16 = ADVANCED_FACE ( 'NONE', ( #390 ), #151, .F. ) ;
#17 = ORIENTED_EDGE ( 'NONE', *, *, #368, .F. ) ;
#18 = DIRECTION ( 'NONE',  ( 0.5000000000000001110, 0.000000000000000000, -0.8660254037844385966 ) ) ;
#19 = ORIENTED_EDGE ( 'NONE', *, *, #917, .T. ) ;
#20 = EDGE_CURVE ( 'NONE', #67, #581, #893, .T. ) ;
#21 = CARTESIAN_POINT ( 'NONE',  ( -2.886751345948127323, 1.495682985695840017, 4.999999999999998224 ) ) ;
#22 = B_SPLINE_CURVE_WITH_KNOTS ( 'NONE', 3,
 ( #838, #215, #768, #136 ),
 .UNSPECIFIED., .F., .F.,
 ( 4, 4 ),
 ( 2.380735200829041677E-07, 0.002921158011986710323 ),
 .UNSPECIFIED. ) ;
#23 = CIRCLE ( 'NONE', #1086, 3.000000000000000000 ) ;
#24 = PRESENTATION_LAYER_ASSIGNMENT (  '', '', ( #232 ) ) ;
#25 = CARTESIAN_POINT ( 'NONE',  ( 2.886751345948129543, -1.495682985695839351, -5.000000000000000888 ) ) ;
#26 = ORIENTED_EDGE ( 'NONE', *, *, #602, .T. ) ;
#27 = CARTESIAN_POINT ( 'NONE',  ( -3.358102740950651643, -1.767817840484170899, 4.183595435637158744 ) ) ;
#28 = CARTESIAN_POINT ( 'NONE',  ( -2.416624968674200957, 1.631396780931971158, -5.000000000000000888 ) ) ;
#29 = CARTESIAN_POINT ( 'NONE',  ( 4.573373622949342909, -1.931981051202861455, -2.078684523056393285 ) ) ;
#30 = CIRCLE ( 'NONE', #832, 4.819615242270664623 ) ;
#31 = ORIENTED_EDGE ( 'NONE', *, *, #475, .T. ) ;
#32 = LINE ( 'NONE', #306, #935 ) ;
#33 = FACE_OUTER_BOUND ( 'NONE', #257, .T. ) ;
#34 = EDGE_LOOP ( 'NONE', ( #161, #839, #108 ) ) ;
#35 = DIRECTION ( 'NONE',  ( -0.000000000000000000, 1.000000000000000000, -0.000000000000000000 ) ) ;
#36 = MECHANICAL_DESIGN_GEOMETRIC_PRESENTATION_REPRESENTATION (  '', ( #232 ), #1138 ) ;
#37 = CARTESIAN_POINT ( 'NONE',  ( 0.000000000000000000, -1.959807621135333244, 5.062400143603896212E-16 ) ) ;
#38 = EDGE_CURVE ( 'NONE', #581, #454, #596, .T. ) ;
#39 = ORIENTED_EDGE ( 'NONE', *, *, #772, .T. ) ;
#40 = CARTESIAN_POINT ( 'NONE',  ( 5.773502691896260863, -1.495682985695839129, -1.274512160367469437E-15 ) ) ;
#41 = CARTESIAN_POINT ( 'NONE',  ( -5.773502691896258199, 1.495682985695839351, -8.854994092709008301E-16 ) ) ;
#42 = VECTOR ( 'NONE', #341, 1000.000000000000000 ) ;
#43 = CARTESIAN_POINT ( 'NONE',  ( 4.575665857285982518, 1.931709412557646388, 2.074714256722479000 ) ) ;
#44 = CARTESIAN_POINT ( 'NONE',  ( 0.000000000000000000, 2.115470053837924969, 0.000000000000000000 ) ) ;
#45 = EDGE_CURVE ( 'NONE', #125, #634, #563, .T. ) ;
#46 = ORIENTED_EDGE ( 'NONE', *, *, #239, .T. ) ;
#47 = DIRECTION ( 'NONE',  ( 0.000000000000000000, 0.000000000000000000, 1.000000000000000000 ) ) ;
#48 = CARTESIAN_POINT ( 'NONE',  ( 6.245698675651501825E-16, 2.115470053837925413, -5.100000000000000533 ) ) ;
#49 = CARTESIAN_POINT ( 'NONE',  ( 4.939961795957295010, 1.860606775957267756, 1.443735181952765290 ) ) ;
#50 = DIRECTION ( 'NONE',  ( 0.000000000000000000, -8.726648801810436994E-17, 1.000000000000000000 ) ) ;
#51 = EDGE_LOOP ( 'NONE', ( #541, #112, #1143, #875 ) ) ;
#52 = CARTESIAN_POINT ( 'NONE',  ( -2.416624968674368823, -1.631396780931932744, 4.999999999999999112 ) ) ;
#53 = DIRECTION ( 'NONE',  ( -0.8660254037844387076, 0.000000000000000000, -0.5000000000000001110 ) ) ;
#54 = ORIENTED_EDGE ( 'NONE', *, *, #394, .F. ) ;
#55 = LINE ( 'NONE', #777, #296 ) ;
#56 = CARTESIAN_POINT ( 'NONE',  ( 4.821944789745368887, 1.942264973081039292, -1.648146632868998207 ) ) ;
#57 = AXIS2_PLACEMENT_3D ( 'NONE', #962, #1064, #246 ) ;
#58 = DIRECTION ( 'NONE',  ( 0.000000000000000000, -1.000000000000000000, -1.231653667943532791E-16 ) ) ;
#59 = LINE ( 'NONE', #976, #104 ) ;
#60 = ORIENTED_EDGE ( 'NONE', *, *, #38, .F. ) ;
#61 = CARTESIAN_POINT ( 'NONE',  ( 0.000000000000000000, -1.959807621135334132, 4.969615242270662314 ) ) ;
#62 = EDGE_CURVE ( 'NONE', #356, #1045, #307, .T. ) ;
#63 = DIRECTION ( 'NONE',  ( 0.000000000000000000, 0.000000000000000000, 1.000000000000000000 ) ) ;
#64 = ADVANCED_FACE ( 'NONE', ( #828 ), #743, .F. ) ;
#65 = PLANE ( 'NONE',  #347 ) ;
#66 = CONICAL_SURFACE ( 'NONE', #376, 4.899999999999999467, 1.047197551196604071 ) ;
#67 = VERTEX_POINT ( 'NONE', #150 ) ;
#68 = CARTESIAN_POINT ( 'NONE',  ( 3.673940397442059868E-16, 3.850000000000000089, -3.000000000000000000 ) ) ;
#69 = ORIENTED_EDGE ( 'NONE', *, *, #1131, .F. ) ;
#70 = CARTESIAN_POINT ( 'NONE',  ( 0.000000000000000000, -2.000000000000000000, 4.819615242270665512 ) ) ;
#71 = EDGE_CURVE ( 'NONE', #800, #855, #516, .T. ) ;
#72 = PRODUCT_CONTEXT ( 'NONE', #804, 'mechanical' ) ;
#73 = CARTESIAN_POINT ( 'NONE',  ( 0.000000000000000000, -1.700000000000000178, 4.819615242270665512 ) ) ;
#74 = ADVANCED_FACE ( 'NONE', ( #952 ), #947, .F. ) ;
#75 = VERTEX_POINT ( 'NONE', #583 ) ;
#76 = CARTESIAN_POINT ( 'NONE',  ( -7.511572993947682186E-16, 1.942264973081037294, 4.999999999999998224 ) ) ;
#77 = B_SPLINE_CURVE_WITH_KNOTS ( 'NONE', 3,
 ( #1121, #1125, #569, #318, #573, #926 ),
 .UNSPECIFIED., .F., .F.,
 ( 4, 2, 4 ),
 ( 0.005366046279350064098, 0.006827265528304554514, 0.008288484777259044062 ),
 .UNSPECIFIED. ) ;
#78 = TOROIDAL_SURFACE ( 'NONE', #734, 4.819615242270664623, 0.2999999999999999889 ) ;
#79 = CARTESIAN_POINT ( 'NONE',  ( -4.452621892014637872, 1.942264973081041290, -2.287832656137185783 ) ) ;
#80 = DIRECTION ( 'NONE',  ( 1.000000000000000000, 0.000000000000000000, 0.000000000000000000 ) ) ;
#81 = DIRECTION ( 'NONE',  ( 0.000000000000000000, -6.158268339717663953E-17, 1.000000000000000000 ) ) ;
#82 = CARTESIAN_POINT ( 'NONE',  ( -2.886751345948127323, 1.495682985695840017, 4.999999999999998224 ) ) ;
#83 = EDGE_LOOP ( 'NONE', ( #305, #416 ) ) ;
#84 = CARTESIAN_POINT ( 'NONE',  ( 4.330127018922194537, 1.942264973081036628, -2.500000000000002665 ) ) ;
#85 = ORIENTED_EDGE ( 'NONE', *, *, #710, .F. ) ;
#86 = DIRECTION ( 'NONE',  ( 0.000000000000000000, 8.850629979473506011E-17, -1.000000000000000000 ) ) ;
#87 = AXIS2_PLACEMENT_3D ( 'NONE', #138, #314, #674 ) ;
#88 = EDGE_CURVE ( 'NONE', #985, #912, #833, .T. ) ;
#89 = FACE_OUTER_BOUND ( 'NONE', #552, .T. ) ;
#90 = CARTESIAN_POINT ( 'NONE',  ( -4.086880414895045277, -1.931981051202862343, -2.921315476943609379 ) ) ;
#91 = CARTESIAN_POINT ( 'NONE',  ( 0.000000000000000000, 4.000000000000000000, 0.000000000000000000 ) ) ;
#92 = ADVANCED_FACE ( 'NONE', ( #1036 ), #236, .F. ) ;
#93 = CARTESIAN_POINT ( 'NONE',  ( 0.000000000000000000, 3.850000000000000089, 3.000000000000000000 ) ) ;
#94 = B_SPLINE_CURVE_WITH_KNOTS ( 'NONE', 3,
 ( #666, #842, #43, #405, #49, #752, #1104, #762 ),
 .UNSPECIFIED., .F., .F.,
 ( 4, 2, 2, 4 ),
 ( 0.002921158011986710323, 0.003648658599403064879, 0.004376159186819419435, 0.005831160361652128546 ),
 .UNSPECIFIED. ) ;
#95 = CARTESIAN_POINT ( 'NONE',  ( 0.000000000000000000, 1.999999999999999112, -6.621025260434595891E-17 ) ) ;
#96 = ORIENTED_EDGE ( 'NONE', *, *, #497, .F. ) ;
#97 = FILL_AREA_STYLE_COLOUR ( '', #1089 ) ;
#98 = ADVANCED_FACE ( 'NONE', ( #682 ), #595, .F. ) ;
#99 = SHAPE_DEFINITION_REPRESENTATION ( #267, #160 ) ;
#100 = LINE ( 'NONE', #448, #1060 ) ;
#101 = VERTEX_POINT ( 'NONE', #228 ) ;
#102 = DIRECTION ( 'NONE',  ( -0.000000000000000000, 1.000000000000000000, -0.000000000000000000 ) ) ;
#103 = VERTEX_POINT ( 'NONE', #145 ) ;
#104 = VECTOR ( 'NONE', #872, 1000.000000000000000 ) ;
#105 = CARTESIAN_POINT ( 'NONE',  ( -5.299591420899232297, -1.744341759245267909, 0.8208383996463883836 ) ) ;
#106 = DIRECTION ( 'NONE',  ( -0.000000000000000000, 1.000000000000000000, 1.231653667943532791E-16 ) ) ;
#107 = CARTESIAN_POINT ( 'NONE',  ( 1.947012450778979886, -1.742634902659927487, -5.000000000000000000 ) ) ;
#108 = ORIENTED_EDGE ( 'NONE', *, *, #297, .T. ) ;
#109 = CARTESIAN_POINT ( 'NONE',  ( -0.9731522499121179060, -1.900234205767213247, -5.000000000000000000 ) ) ;
#110 = AXIS2_PLACEMENT_3D ( 'NONE', #940, #414, #689 ) ;
#111 = AXIS2_PLACEMENT_3D ( 'NONE', #391, #998, #455 ) ;
#112 = ORIENTED_EDGE ( 'NONE', *, *, #497, .T. ) ;
#113 = CARTESIAN_POINT ( 'NONE',  ( 4.330127018922194537, 1.942264973081035961, 2.500000000000000888 ) ) ;
#114 = ADVANCED_FACE ( 'NONE', ( #1041 ), #771, .T. ) ;
#115 = ORIENTED_EDGE ( 'NONE', *, *, #445, .F. ) ;
#116 = CARTESIAN_POINT ( 'NONE',  ( 0.000000000000000000, 2.000000000000000000, 0.000000000000000000 ) ) ;
#117 = EDGE_CURVE ( 'NONE', #912, #520, #711, .T. ) ;
#118 = AXIS2_PLACEMENT_3D ( 'NONE', #170, #779, #354 ) ;
#119 = CARTESIAN_POINT ( 'NONE',  ( -0.9731522499121165737, 1.900234205767213691, -5.000000000000000888 ) ) ;
#120 = CONICAL_SURFACE ( 'NONE', #737, 2.600000000000001421, 0.7853981633974460586 ) ;
#121 = CARTESIAN_POINT ( 'NONE',  ( -5.773502691896258199, -1.495682985695840683, -8.643499744888141280E-16 ) ) ;
#122 = ORIENTED_EDGE ( 'NONE', *, *, #229, .F. ) ;
#123 = DIRECTION ( 'NONE',  ( 0.000000000000000000, 1.301042606982605074E-16, -1.000000000000000000 ) ) ;
#124 = AXIS2_PLACEMENT_3D ( 'NONE', #922, #856, #1123 ) ;
#125 = VERTEX_POINT ( 'NONE', #853 ) ;
#126 = LINE ( 'NONE', #1135, #389 ) ;
#127 = EDGE_CURVE ( 'NONE', #649, #581, #655, .T. ) ;
#128 = CIRCLE ( 'NONE', #924, 3.000000000000000000 ) ;
#129 = DIRECTION ( 'NONE',  ( -0.000000000000000000, 1.000000000000000000, 6.158268339717663953E-17 ) ) ;
#130 = VERTEX_POINT ( 'NONE', #334 ) ;
#131 = DIRECTION ( 'NONE',  ( 0.000000000000000000, 8.850629979473506011E-17, -1.000000000000000000 ) ) ;
#132 = DIRECTION ( 'NONE',  ( -0.8660254037844383745, 0.000000000000000000, 0.5000000000000004441 ) ) ;
#133 = EDGE_CURVE ( 'NONE', #997, #502, #504, .T. ) ;
#134 = B_SPLINE_CURVE_WITH_KNOTS ( 'NONE', 3,
 ( #899, #27, #378, #393, #286, #469, #659, #105, #6, #562 ),
 .UNSPECIFIED., .F., .F.,
 ( 4, 2, 2, 2, 4 ),
 ( 2.380735202589961500E-07, 0.002915699217586195484, 0.003644564503602678533, 0.004373429789619161581, 0.005831160361652128546 ),
 .UNSPECIFIED. ) ;
#135 = AXIS2_PLACEMENT_3D ( 'NONE', #142, #1016, #406 ) ;
#136 = CARTESIAN_POINT ( 'NONE',  ( 4.330127018922194537, 1.942264973081035961, 2.500000000000000888 ) ) ;
#137 = EDGE_LOOP ( 'NONE', ( #819, #570, #1055, #382, #1106 ) ) ;
#138 = CARTESIAN_POINT ( 'NONE',  ( 0.000000000000000000, 2.115470053837924969, 0.000000000000000000 ) ) ;
#139 = LINE ( 'NONE', #756, #814 ) ;
#140 = AXIS2_PLACEMENT_3D ( 'NONE', #550, #202, #727 ) ;
#141 = CARTESIAN_POINT ( 'NONE',  ( 0.000000000000000000, -1.899999999999998135, -2.500000000000000000 ) ) ;
#142 = CARTESIAN_POINT ( 'NONE',  ( 3.857637417314162689E-16, 3.850000000000000089, -3.149999999999999911 ) ) ;
#143 = EDGE_LOOP ( 'NONE', ( #9, #210, #1082, #387 ) ) ;
#144 = FACE_OUTER_BOUND ( 'NONE', #206, .T. ) ;
#145 = CARTESIAN_POINT ( 'NONE',  ( 0.000000000000000000, 3.589999999999999858, 2.299999999999999822 ) ) ;
#146 = CARTESIAN_POINT ( 'NONE',  ( 2.419818217056163956, -1.630474969525504525, 4.999999999999999112 ) ) ;
#147 = ORIENTED_EDGE ( 'NONE', *, *, #163, .F. ) ;
#148 = CARTESIAN_POINT ( 'NONE',  ( 0.000000000000000000, 2.115470053837924524, 4.900000000000000355 ) ) ;
#149 = ADVANCED_FACE ( 'NONE', ( #1117 ), #262, .T. ) ;
#150 = CARTESIAN_POINT ( 'NONE',  ( -2.618032129202232929E-26, 1.942264973081037294, -5.000000000000000888 ) ) ;
#151 = TOROIDAL_SURFACE ( 'NONE', #489, 5.100000000000000533, 0.2000000000000000111 ) ;
#152 = DIRECTION ( 'NONE',  ( 0.000000000000000000, 0.000000000000000000, 1.000000000000000000 ) ) ;
#153 = ORIENTED_EDGE ( 'NONE', *, *, #864, .F. ) ;
#154 = CYLINDRICAL_SURFACE ( 'NONE', #57, 2.500000000000000000 ) ;
#155 = CARTESIAN_POINT ( 'NONE',  ( 0.000000000000000000, 2.299999999999999822, 0.000000000000000000 ) ) ;
#156 = AXIS2_PLACEMENT_3D ( 'NONE', #801, #1167, #362 ) ;
#157 = CARTESIAN_POINT ( 'NONE',  ( -3.720292241887089180, 1.860606775957269754, 3.556264818047234044 ) ) ;
#158 = ORIENTED_EDGE ( 'NONE', *, *, #1009, .T. ) ;
#159 = CARTESIAN_POINT ( 'NONE',  ( 0.000000000000000000, 1.942264973081036628, -6.143336129021877221E-17 ) ) ;
#160 = ADVANCED_BREP_SHAPE_REPRESENTATION ( '\X2\9632677e87ba6bcd\X0\(\X2\5f006e90\X0\)A_M6', ( #373, #404 ), #1003 ) ;
#161 = ORIENTED_EDGE ( 'NONE', *, *, #864, .T. ) ;
#162 = DIRECTION ( 'NONE',  ( 0.000000000000000000, 8.850629979473506011E-17, -1.000000000000000000 ) ) ;
#163 = EDGE_CURVE ( 'NONE', #1161, #443, #764, .T. ) ;
#164 = CARTESIAN_POINT ( 'NONE',  ( 0.000000000000000000, 2.115470053837924969, -5.076692763918488200E-17 ) ) ;
#165 = CARTESIAN_POINT ( 'NONE',  ( 6.000769315822031726E-16, 2.804536461803596836, -4.900000000000000355 ) ) ;
#166 = VECTOR ( 'NONE', #632, 1000.000000000000000 ) ;
#167 = ORIENTED_EDGE ( 'NONE', *, *, #1058, .F. ) ;
#168 = CARTESIAN_POINT ( 'NONE',  ( -5.773502691896258199, -1.495682985695840683, -8.643499744888141280E-16 ) ) ;
#169 = CARTESIAN_POINT ( 'NONE',  ( 4.823738040146309913, -1.941638096619104914, 1.645040632063875297 ) ) ;
#170 = CARTESIAN_POINT ( 'NONE',  ( 0.000000000000000000, -2.000000000000000000, 0.000000000000000000 ) ) ;
#171 = ORIENTED_EDGE ( 'NONE', *, *, #953, .T. ) ;
#172 = DIRECTION ( 'NONE',  ( 0.000000000000000000, 0.000000000000000000, 1.000000000000000000 ) ) ;
#173 = CIRCLE ( 'NONE', #1126, 5.000000000000000888 ) ;
#174 = DIRECTION ( 'NONE',  ( 0.000000000000000000, 8.850629979473506011E-17, -1.000000000000000000 ) ) ;
#175 = CIRCLE ( 'NONE', #1130, 3.200000000000000622 ) ;
#176 = CONICAL_SURFACE ( 'NONE', #1019, 8.277499074759358422, 1.047197551196604071 ) ;
#177 = DIRECTION ( 'NONE',  ( -0.000000000000000000, 1.000000000000000000, 1.231653667943532791E-16 ) ) ;
#178 = VERTEX_POINT ( 'NONE', #863 ) ;
#179 = DIRECTION ( 'NONE',  ( -0.000000000000000000, 1.000000000000000000, -0.000000000000000000 ) ) ;
#180 = EDGE_CURVE ( 'NONE', #921, #101, #139, .T. ) ;
#181 = CARTESIAN_POINT ( 'NONE',  ( 3.360662616945170544, -1.744341759245274792, 4.179161600353585193 ) ) ;
#182 = AXIS2_PLACEMENT_3D ( 'NONE', #766, #582, #1046 ) ;
#183 = FACE_OUTER_BOUND ( 'NONE', #1050, .T. ) ;
#184 = EDGE_LOOP ( 'NONE', ( #938, #973, #481, #861 ) ) ;
#185 = DIRECTION ( 'NONE',  ( 0.000000000000000000, 0.000000000000000000, 1.000000000000000000 ) ) ;
#186 = EDGE_CURVE ( 'NONE', #845, #67, #490, .T. ) ;
#187 = ORIENTED_EDGE ( 'NONE', *, *, #621, .F. ) ;
#188 = CARTESIAN_POINT ( 'NONE',  ( 0.9837791927603839470, 1.899043921062016693, 4.999999999999999112 ) ) ;
#189 = CARTESIAN_POINT ( 'NONE',  ( 0.000000000000000000, 2.804536461803596836, 0.000000000000000000 ) ) ;
#190 = ADVANCED_FACE ( 'NONE', ( #1124 ), #695, .T. ) ;
#191 = AXIS2_PLACEMENT_3D ( 'NONE', #883, #447, #174 ) ;
#192 = DIRECTION ( 'NONE',  ( -0.000000000000000000, 1.000000000000000000, -0.000000000000000000 ) ) ;
#193 = VERTEX_POINT ( 'NONE', #636 ) ;
#194 = FACE_OUTER_BOUND ( 'NONE', #651, .T. ) ;
#195 = DIRECTION ( 'NONE',  ( -0.000000000000000000, -1.000000000000000000, -0.000000000000000000 ) ) ;
#196 = ORIENTED_EDGE ( 'NONE', *, *, #1028, .T. ) ;
#197 = CARTESIAN_POINT ( 'NONE',  ( 0.4888467273981882411, -1.942264973081037516, -5.000000000000000000 ) ) ;
#198 = ORIENTED_EDGE ( 'NONE', *, *, #71, .F. ) ;
#199 = TOROIDAL_SURFACE ( 'NONE', #140, 3.149999999999999911, 0.1499999999999999944 ) ;
#200 = AXIS2_PLACEMENT_3D ( 'NONE', #646, #630, #282 ) ;
#201 = EDGE_CURVE ( 'NONE', #997, #226, #993, .T. ) ;
#202 = DIRECTION ( 'NONE',  ( -0.000000000000000000, 1.000000000000000000, -0.000000000000000000 ) ) ;
#203 = EDGE_CURVE ( 'NONE', #520, #985, #365, .T. ) ;
#204 = ORIENTED_EDGE ( 'NONE', *, *, #633, .T. ) ;
#205 = FACE_OUTER_BOUND ( 'NONE', #565, .T. ) ;
#206 = EDGE_LOOP ( 'NONE', ( #1102, #790, #1091, #281 ) ) ;
#207 = UNCERTAINTY_MEASURE_WITH_UNIT (LENGTH_MEASURE( 1.000000000000000082E-05 ), #361, 'distance_accuracy_value', 'NONE');
#208 = EDGE_CURVE ( 'NONE', #454, #67, #987, .T. ) ;
#209 = CARTESIAN_POINT ( 'NONE',  ( 4.450083159771519803, -1.942419497499223713, -2.292229869369083683 ) ) ;
#210 = ORIENTED_EDGE ( 'NONE', *, *, #408, .F. ) ;
#211 = CARTESIAN_POINT ( 'NONE',  ( -2.886751345948128655, 1.495682985695840017, -5.000000000000000888 ) ) ;
#212 = DIRECTION ( 'NONE',  ( -0.000000000000000000, 1.000000000000000000, -0.000000000000000000 ) ) ;
#213 = ADVANCED_FACE ( 'NONE', ( #966 ), #837, .T. ) ;
#214 = EDGE_LOOP ( 'NONE', ( #574, #338, #805, #407 ) ) ;
#215 = CARTESIAN_POINT ( 'NONE',  ( 3.358985280702826426, 1.768327375047664685, 4.182066831946700702 ) ) ;
#216 = AXIS2_PLACEMENT_3D ( 'NONE', #397, #664, #928 ) ;
#217 = ORIENTED_EDGE ( 'NONE', *, *, #1007, .F. ) ;
#218 = VECTOR ( 'NONE', #458, 999.9999999999998863 ) ;
#219 = ORIENTED_EDGE ( 'NONE', *, *, #260, .F. ) ;
#220 = CARTESIAN_POINT ( 'NONE',  ( 0.000000000000000000, 2.804536461803596836, 0.000000000000000000 ) ) ;
#221 = ORIENTED_EDGE ( 'NONE', *, *, #88, .T. ) ;
#222 = DIRECTION ( 'NONE',  ( 0.000000000000000000, -1.000000000000000000, -1.231653667943532791E-16 ) ) ;
#223 = CARTESIAN_POINT ( 'NONE',  ( -0.4884677894816927268, -1.942264973081040180, 4.999999999999998224 ) ) ;
#224 = VECTOR ( 'NONE', #763, 1000.000000000000000 ) ;
#225 = DIRECTION ( 'NONE',  ( -0.5000000000000000000, 0.000000000000000000, 0.8660254037844385966 ) ) ;
#226 = VERTEX_POINT ( 'NONE', #70 ) ;
#227 = PLANE ( 'NONE',  #277 ) ;
#228 = CARTESIAN_POINT ( 'NONE',  ( 3.061616997868383141E-16, -1.899999999999998135, 2.500000000000000000 ) ) ;
#229 = EDGE_CURVE ( 'NONE', #103, #130, #880, .T. ) ;
#230 = AXIS2_PLACEMENT_3D ( 'NONE', #395, #312, #308 ) ;
#231 = CARTESIAN_POINT ( 'NONE',  ( 1.947012450778982329, -1.742634902659929930, 4.999999999999999112 ) ) ;
#232 = STYLED_ITEM ( 'NONE', ( #820 ), #373 ) ;
#233 = EDGE_LOOP ( 'NONE', ( #592, #392, #979 ) ) ;
#234 = DIRECTION ( 'NONE',  ( -0.000000000000000000, -1.000000000000000000, -0.000000000000000000 ) ) ;
#235 = B_SPLINE_CURVE_WITH_KNOTS ( 'NONE', 3,
 ( #733, #822, #639, #209, #29, #564, #466, #1077, #284, #546 ),
 .UNSPECIFIED., .F., .F.,
 ( 4, 2, 2, 2, 4 ),
 ( 2.380735200829041677E-07, 0.002915699217586105278, 0.003644564503602611312, 0.004373429789619117346, 0.005831160361652128546 ),
 .UNSPECIFIED. ) ;
#236 = CYLINDRICAL_SURFACE ( 'NONE', #465, 2.500000000000000000 ) ;
#237 = APPLICATION_CONTEXT ( 'automotive_design' ) ;
#238 = PLANE ( 'NONE',  #528 ) ;
#239 = EDGE_CURVE ( 'NONE', #881, #680, #175, .T. ) ;
#240 = ORIENTED_EDGE ( 'NONE', *, *, #180, .T. ) ;
#241 = AXIS2_PLACEMENT_3D ( 'NONE', #670, #320, #593 ) ;
#242 = CARTESIAN_POINT ( 'NONE',  ( 0.000000000000000000, 2.804536461803596836, 0.000000000000000000 ) ) ;
#243 = CARTESIAN_POINT ( 'NONE',  ( 3.841181488860381243, 1.890860685997211021, -3.346878500200756168 ) ) ;
#244 = CARTESIAN_POINT ( 'NONE',  ( 0.000000000000000000, 1.942264973081036628, -6.143336129021877221E-17 ) ) ;
#245 = ORIENTED_EDGE ( 'NONE', *, *, #705, .T. ) ;
#246 = DIRECTION ( 'NONE',  ( 0.000000000000000000, 0.000000000000000000, -1.000000000000000000 ) ) ;
#247 = CARTESIAN_POINT ( 'NONE',  ( 0.000000000000000000, -1.700000000000000178, 5.062400143603896212E-16 ) ) ;
#248 = CLOSED_SHELL ( 'NONE', ( #74, #149, #16, #1093, #578, #529, #744, #1100, #959, #459, #92, #911, #288, #213, #683, #515, #858, #64, #335, #850, #995, #936, #420, #540, #114, #1139, #289, #1157, #567, #343, #98, #1066, #1142, #1099, #190, #594, #549, #951, #301 ) ) ;
#249 = AXIS2_PLACEMENT_3D ( 'NONE', #48, #410, #767 ) ;
#250 = DIRECTION ( 'NONE',  ( 0.000000000000000000, 1.301042606982605074E-16, -1.000000000000000000 ) ) ;
#251 = ORIENTED_EDGE ( 'NONE', *, *, #772, .F. ) ;
#252 = DIRECTION ( 'NONE',  ( 0.000000000000000000, 0.000000000000000000, 1.000000000000000000 ) ) ;
#253 = CARTESIAN_POINT ( 'NONE',  ( -5.300482436767277150, 1.743920650708881581, -0.8192951148925889937 ) ) ;
#254 = EDGE_CURVE ( 'NONE', #412, #1071, #346, .T. ) ;
#255 = CIRCLE ( 'NONE', #440, 3.500000000000000000 ) ;
#256 = DIRECTION ( 'NONE',  ( 1.224646799147352961E-16, 0.000000000000000000, -1.000000000000000000 ) ) ;
#257 = EDGE_LOOP ( 'NONE', ( #54, #1094, #769, #300 ) ) ;
#258 = CARTESIAN_POINT ( 'NONE',  ( -2.886751345948128655, 1.495682985695840017, -5.000000000000000888 ) ) ;
#259 = DIRECTION ( 'NONE',  ( -0.000000000000000000, -1.000000000000000000, -0.000000000000000000 ) ) ;
#260 = EDGE_CURVE ( 'NONE', #130, #103, #272, .T. ) ;
#261 = PLANE ( 'NONE',  #1156 ) ;
#262 = TOROIDAL_SURFACE ( 'NONE', #614, 4.819615242270664623, 0.2999999999999999889 ) ;
#263 = ORIENTED_EDGE ( 'NONE', *, *, #1031, .F. ) ;
#264 = DIRECTION ( 'NONE',  ( -0.000000000000000000, 1.000000000000000000, -0.000000000000000000 ) ) ;
#265 = DIRECTION ( 'NONE',  ( -0.000000000000000000, 1.000000000000000000, -0.000000000000000000 ) ) ;
#266 = PRODUCT_RELATED_PRODUCT_CATEGORY ( 'part', '', ( #442 ) ) ;
#267 = PRODUCT_DEFINITION_SHAPE ( 'NONE', 'NONE',  #817 ) ;
#268 = CARTESIAN_POINT ( 'NONE',  ( 5.773502691896260863, 2.000000000000000000, -1.387953895221155272E-15 ) ) ;
#269 = ORIENTED_EDGE ( 'NONE', *, *, #579, .F. ) ;
#270 = DIRECTION ( 'NONE',  ( 0.000000000000000000, -1.227954878067697069E-16, 1.000000000000000000 ) ) ;
#271 = CARTESIAN_POINT ( 'NONE',  ( 0.000000000000000000, 3.589999999999999858, 0.000000000000000000 ) ) ;
#272 = CIRCLE ( 'NONE', #773, 2.299999999999999822 ) ;
#273 =( NAMED_UNIT ( * ) PLANE_ANGLE_UNIT ( ) SI_UNIT ( $, .RADIAN. ) );
#274 = DIRECTION ( 'NONE',  ( -0.000000000000000000, 1.000000000000000000, -0.000000000000000000 ) ) ;
#275 = ORIENTED_EDGE ( 'NONE', *, *, #322, .T. ) ;
#276 = CARTESIAN_POINT ( 'NONE',  ( -7.511572993947682186E-16, 1.942264973081037294, 4.999999999999998224 ) ) ;
#277 = AXIS2_PLACEMENT_3D ( 'NONE', #1035, #1115, #417 ) ;
#278 = ORIENTED_EDGE ( 'NONE', *, *, #1058, .T. ) ;
#279 = CARTESIAN_POINT ( 'NONE',  ( 0.000000000000000000, 3.589999999999999414, 0.000000000000000000 ) ) ;
#280 = AXIS2_PLACEMENT_3D ( 'NONE', #739, #192, #915 ) ;
#281 = ORIENTED_EDGE ( 'NONE', *, *, #337, .F. ) ;
#282 = DIRECTION ( 'NONE',  ( 0.000000000000000000, -0.000000000000000000, -1.000000000000000000 ) ) ;
#283 = ORIENTED_EDGE ( 'NONE', *, *, #615, .F. ) ;
#284 = CARTESIAN_POINT ( 'NONE',  ( 5.537533265082644540, -1.631919997787572019, -0.4087110362740896119 ) ) ;
#285 = ORIENTED_EDGE ( 'NONE', *, *, #579, .T. ) ;
#286 = CARTESIAN_POINT ( 'NONE',  ( -4.573373622949378436, -1.931981051202859456, 2.078684523056327116 ) ) ;
#287 = CIRCLE ( 'NONE', #932, 4.969615242270664091 ) ;
#288 = ADVANCED_FACE ( 'NONE', ( #888 ), #626, .T. ) ;
#289 = ADVANCED_FACE ( 'NONE', ( #1053 ), #521, .F. ) ;
#290 = AXIS2_PLACEMENT_3D ( 'NONE', #452, #803, #162 ) ;
#291 = FACE_BOUND ( 'NONE', #83, .T. ) ;
#292 = DIRECTION ( 'NONE',  ( 0.000000000000000000, -1.000000000000000000, 0.000000000000000000 ) ) ;
#293 = ORIENTED_EDGE ( 'NONE', *, *, #260, .T. ) ;
#294 = CIRCLE ( 'NONE', #1092, 5.000000000000000888 ) ;
#295 = CARTESIAN_POINT ( 'NONE',  ( 0.000000000000000000, 2.000000000000000000, 2.299999999999999822 ) ) ;
#296 = VECTOR ( 'NONE', #35, 1000.000000000000000 ) ;
#297 = EDGE_CURVE ( 'NONE', #547, #309, #923, .T. ) ;
#298 = ORIENTED_EDGE ( 'NONE', *, *, #426, .F. ) ;
#299 = DIRECTION ( 'NONE',  ( 0.000000000000000000, 0.000000000000000000, 1.000000000000000000 ) ) ;
#300 = ORIENTED_EDGE ( 'NONE', *, *, #865, .F. ) ;
#301 = ADVANCED_FACE ( 'NONE', ( #1151 ), #120, .F. ) ;
#302 = SURFACE_SIDE_STYLE ('',( #457 ) ) ;
#303 = EDGE_CURVE ( 'NONE', #101, #1113, #32, .T. ) ;
#304 = CARTESIAN_POINT ( 'NONE',  ( 0.000000000000000000, 3.589999999999999414, 3.500000000000000000 ) ) ;
#305 = ORIENTED_EDGE ( 'NONE', *, *, #408, .T. ) ;
#306 = CARTESIAN_POINT ( 'NONE',  ( 3.184081677783120656E-16, -2.000000000000000000, 2.600000000000001421 ) ) ;
#307 = LINE ( 'NONE', #572, #694 ) ;
#308 = DIRECTION ( 'NONE',  ( 0.000000000000000000, 0.000000000000000000, 1.000000000000000000 ) ) ;
#309 = VERTEX_POINT ( 'NONE', #555 ) ;
#310 = CARTESIAN_POINT ( 'NONE',  ( 2.886751345948129543, -1.495682985695839351, -5.000000000000000888 ) ) ;
#311 = CARTESIAN_POINT ( 'NONE',  ( -2.615566938873417267E-26, -1.942264973081039958, 4.999999999999998224 ) ) ;
#312 = DIRECTION ( 'NONE',  ( -0.000000000000000000, 1.000000000000000000, -0.000000000000000000 ) ) ;
#313 = VERTEX_POINT ( 'NONE', #21 ) ;
#314 = DIRECTION ( 'NONE',  ( -0.000000000000000000, 1.000000000000000000, 6.158268339717663953E-17 ) ) ;
#315 = DIRECTION ( 'NONE',  ( 0.000000000000000000, 1.000000000000000000, 0.000000000000000000 ) ) ;
#316 = CIRCLE ( 'NONE', #522, 3.500000000000000000 ) ;
#317 = CARTESIAN_POINT ( 'NONE',  ( -2.886751345948128655, 1.495682985695840017, -5.000000000000000888 ) ) ;
#318 = CARTESIAN_POINT ( 'NONE',  ( -0.9731522499121201264, 1.900234205767213913, 4.999999999999998224 ) ) ;
#319 = ORIENTED_EDGE ( 'NONE', *, *, #1044, .F. ) ;
#320 = DIRECTION ( 'NONE',  ( -0.000000000000000000, 1.000000000000000000, -0.000000000000000000 ) ) ;
#321 = DIRECTION ( 'NONE',  ( 0.5000000000000004441, 0.000000000000000000, 0.8660254037844383745 ) ) ;
#322 = EDGE_CURVE ( 'NONE', #855, #765, #134, .T. ) ;
#323 = CIRCLE ( 'NONE', #230, 3.500000000000000000 ) ;
#324 = CARTESIAN_POINT ( 'NONE',  ( -2.886751345948127323, 2.000000000000000000, 4.999999999999998224 ) ) ;
#325 = VECTOR ( 'NONE', #736, 1000.000000000000000 ) ;
#326 = ORIENTED_EDGE ( 'NONE', *, *, #445, .T. ) ;
#327 = DIRECTION ( 'NONE',  ( 0.000000000000000000, 0.000000000000000000, 1.000000000000000000 ) ) ;
#328 = CIRCLE ( 'NONE', #418, 2.500000000000000000 ) ;
#329 = DIRECTION ( 'NONE',  ( 0.000000000000000000, 0.000000000000000000, -1.000000000000000000 ) ) ;
#330 = CARTESIAN_POINT ( 'NONE',  ( 0.000000000000000000, 4.000000000000000000, 0.000000000000000000 ) ) ;
#331 = ORIENTED_EDGE ( 'NONE', *, *, #903, .F. ) ;
#332 = FACE_BOUND ( 'NONE', #524, .T. ) ;
#333 = AXIS2_PLACEMENT_3D ( 'NONE', #476, #945, #327 ) ;
#334 = CARTESIAN_POINT ( 'NONE',  ( 2.816687638038912056E-16, 3.589999999999999858, -2.299999999999999822 ) ) ;
#335 = ADVANCED_FACE ( 'NONE', ( #482 ), #731, .F. ) ;
#336 = FACE_OUTER_BOUND ( 'NONE', #491, .T. ) ;
#337 = EDGE_CURVE ( 'NONE', #436, #443, #913, .T. ) ;
#338 = ORIENTED_EDGE ( 'NONE', *, *, #953, .F. ) ;
#339 = DIRECTION ( 'NONE',  ( 0.000000000000000000, 0.000000000000000000, -1.000000000000000000 ) ) ;
#340 = CARTESIAN_POINT ( 'NONE',  ( 2.419818217056164844, 1.630474969525502527, 4.999999999999999112 ) ) ;
#341 = DIRECTION ( 'NONE',  ( -0.000000000000000000, 1.000000000000000000, -0.000000000000000000 ) ) ;
#342 = EDGE_LOOP ( 'NONE', ( #1145, #377, #715 ) ) ;
#343 = ADVANCED_FACE ( 'NONE', ( #194, #748 ), #1103, .T. ) ;
#344 = CARTESIAN_POINT ( 'NONE',  ( -4.210170878072869272, -1.942419497499225267, -2.707770130630919869 ) ) ;
#345 = CARTESIAN_POINT ( 'NONE',  ( 0.000000000000000000, -2.000000000000000000, 0.000000000000000000 ) ) ;
#346 = B_SPLINE_CURVE_WITH_KNOTS ( 'NONE', 3,
 ( #719, #538, #169, #359, #974, #424, #958, #181, #716, #1070 ),
 .UNSPECIFIED., .F., .F.,
 ( 4, 2, 2, 2, 4 ),
 ( 2.380735200832010792E-07, 0.002915699217586102242, 0.003644564503602607843, 0.004373429789619114744, 0.005831160361652128546 ),
 .UNSPECIFIED. ) ;
#347 = AXIS2_PLACEMENT_3D ( 'NONE', #428, #609, #860 ) ;
#348 = FACE_OUTER_BOUND ( 'NONE', #137, .T. ) ;
#349 = ORIENTED_EDGE ( 'NONE', *, *, #117, .T. ) ;
#350 = EDGE_CURVE ( 'NONE', #75, #358, #977, .T. ) ;
#351 = TOROIDAL_SURFACE ( 'NONE', #1021, 3.200000000000000622, 1.700000000000000178 ) ;
#352 = ORIENTED_EDGE ( 'NONE', *, *, #297, .F. ) ;
#353 = CARTESIAN_POINT ( 'NONE',  ( -4.330127018922193649, 1.942264973081037516, -2.500000000000000444 ) ) ;
#354 = DIRECTION ( 'NONE',  ( 0.000000000000000000, 0.000000000000000000, 1.000000000000000000 ) ) ;
#355 = AXIS2_PLACEMENT_3D ( 'NONE', #1137, #493, #508 ) ;
#356 = VERTEX_POINT ( 'NONE', #211 ) ;
#357 = FACE_OUTER_BOUND ( 'NONE', #585, .T. ) ;
#358 = VERTEX_POINT ( 'NONE', #295 ) ;
#359 = CARTESIAN_POINT ( 'NONE',  ( 4.210170878072870160, -1.942419497499224379, 2.707770130630918093 ) ) ;
#360 = EDGE_CURVE ( 'NONE', #178, #5, #388, .T. ) ;
#361 =( LENGTH_UNIT ( ) NAMED_UNIT ( * ) SI_UNIT ( .MILLI., .METRE. ) );
#362 = DIRECTION ( 'NONE',  ( 0.000000000000000000, 0.000000000000000000, 1.000000000000000000 ) ) ;
#363 = ORIENTED_EDGE ( 'NONE', *, *, #127, .F. ) ;
#364 = DIRECTION ( 'NONE',  ( 0.000000000000000000, 0.000000000000000000, 1.000000000000000000 ) ) ;
#365 = B_SPLINE_CURVE_WITH_KNOTS ( 'NONE', 3,
 ( #353, #79, #542, #709, #1165, #253, #533, #876 ),
 .UNSPECIFIED., .F., .F.,
 ( 4, 2, 2, 4 ),
 ( 0.002921158011986712492, 0.003648658599403066614, 0.004376159186819420302, 0.005831160361652128546 ),
 .UNSPECIFIED. ) ;
#366 = AXIS2_PLACEMENT_3D ( 'NONE', #887, #1149, #1155 ) ;
#367 = DIRECTION ( 'NONE',  ( 0.000000000000000000, 0.000000000000000000, 1.000000000000000000 ) ) ;
#368 = EDGE_CURVE ( 'NONE', #1045, #505, #473, .T. ) ;
#369 = DIRECTION ( 'NONE',  ( 0.8660254037844385966, -0.000000000000000000, 0.5000000000000001110 ) ) ;
#370 = EDGE_LOOP ( 'NONE', ( #821, #510, #961, #718 ) ) ;
#371 = DIRECTION ( 'NONE',  ( 0.000000000000000000, -0.000000000000000000, -1.000000000000000000 ) ) ;
#372 = AXIS2_PLACEMENT_3D ( 'NONE', #7, #379, #367 ) ;
#373 = MANIFOLD_SOLID_BREP ( '\X2\501289d2\X0\1', #248 ) ;
#374 = DIRECTION ( 'NONE',  ( 0.000000000000000000, 0.000000000000000000, 1.000000000000000000 ) ) ;
#375 = DIRECTION ( 'NONE',  ( 0.000000000000000000, -1.000000000000000000, 0.000000000000000000 ) ) ;
#376 = AXIS2_PLACEMENT_3D ( 'NONE', #95, #560, #1005 ) ;
#377 = ORIENTED_EDGE ( 'NONE', *, *, #20, .T. ) ;
#378 = CARTESIAN_POINT ( 'NONE',  ( -3.836515997698138225, -1.941638096619118459, 3.354959367936021231 ) ) ;
#379 = DIRECTION ( 'NONE',  ( -0.000000000000000000, 1.000000000000000000, 0.000000000000000000 ) ) ;
#380 = ORIENTED_EDGE ( 'NONE', *, *, #1116, .T. ) ;
#381 = CARTESIAN_POINT ( 'NONE',  ( 2.886751345948131320, 2.000000000000000000, 4.999999999999999112 ) ) ;
#382 = ORIENTED_EDGE ( 'NONE', *, *, #88, .F. ) ;
#383 = CARTESIAN_POINT ( 'NONE',  ( 2.886751345948129543, 2.000000000000000000, -5.000000000000000888 ) ) ;
#384 = CIRCLE ( 'NONE', #975, 2.299999999999999822 ) ;
#385 = AXIS2_PLACEMENT_3D ( 'NONE', #808, #654, #371 ) ;
#386 = CARTESIAN_POINT ( 'NONE',  ( 0.000000000000000000, -2.000000000000000000, -2.600000000000001421 ) ) ;
#387 = ORIENTED_EDGE ( 'NONE', *, *, #930, .T. ) ;
#388 = LINE ( 'NONE', #650, #478 ) ;
#389 = VECTOR ( 'NONE', #487, 1000.000000000000000 ) ;
#390 = FACE_OUTER_BOUND ( 'NONE', #892, .T. ) ;
#391 = CARTESIAN_POINT ( 'NONE',  ( 0.000000000000000000, -2.000000000000000000, 0.000000000000000000 ) ) ;
#392 = ORIENTED_EDGE ( 'NONE', *, *, #889, .T. ) ;
#393 = CARTESIAN_POINT ( 'NONE',  ( -4.450083159771558883, -1.942419497499223491, 2.292229869369009521 ) ) ;
#394 = EDGE_CURVE ( 'NONE', #125, #451, #742, .T. ) ;
#395 = CARTESIAN_POINT ( 'NONE',  ( 0.000000000000000000, 3.600000000000000089, 0.000000000000000000 ) ) ;
#396 = ORIENTED_EDGE ( 'NONE', *, *, #133, .F. ) ;
#397 = CARTESIAN_POINT ( 'NONE',  ( 0.000000000000000000, 2.115470053837924524, 5.100000000000000533 ) ) ;
#398 = CARTESIAN_POINT ( 'NONE',  ( 0.000000000000000000, -2.000000000000000000, 0.000000000000000000 ) ) ;
#399 = DIRECTION ( 'NONE',  ( 1.502314598737159031E-16, 0.000000000000000000, -1.000000000000000000 ) ) ;
#400 = VERTEX_POINT ( 'NONE', #413 ) ;
#401 = CARTESIAN_POINT ( 'NONE',  ( 2.886751345948129543, 1.495682985695839351, -5.000000000000000888 ) ) ;
#402 = AXIS2_PLACEMENT_3D ( 'NONE', #330, #685, #152 ) ;
#403 = DIRECTION ( 'NONE',  ( 1.224646799147353207E-16, 0.000000000000000000, -1.000000000000000000 ) ) ;
#404 = AXIS2_PLACEMENT_3D ( 'NONE', #996, #698, #80 ) ;
#405 = CARTESIAN_POINT ( 'NONE',  ( 4.819072548984006055, 1.890860685997210577, 1.653121499799245608 ) ) ;
#406 = DIRECTION ( 'NONE',  ( 1.224646799147353207E-16, 0.000000000000000000, -1.000000000000000000 ) ) ;
#407 = ORIENTED_EDGE ( 'NONE', *, *, #229, .T. ) ;
#408 = EDGE_CURVE ( 'NONE', #451, #125, #941, .T. ) ;
#409 = DIRECTION ( 'NONE',  ( -0.000000000000000000, 1.000000000000000000, -0.000000000000000000 ) ) ;
#410 = DIRECTION ( 'NONE',  ( 1.000000000000000000, -7.541703610525722776E-33, 1.224646799147353207E-16 ) ) ;
#411 = FACE_OUTER_BOUND ( 'NONE', #955, .T. ) ;
#412 = VERTEX_POINT ( 'NONE', #40 ) ;
#413 = CARTESIAN_POINT ( 'NONE',  ( 3.857637417314162689E-16, 4.000000000000000000, -3.149999999999999911 ) ) ;
#414 = DIRECTION ( 'NONE',  ( -0.000000000000000000, 1.000000000000000000, -0.000000000000000000 ) ) ;
#415 = CARTESIAN_POINT ( 'NONE',  ( -3.122278952918447370, 1.631664912982113247, 4.592054218142290090 ) ) ;
#416 = ORIENTED_EDGE ( 'NONE', *, *, #394, .T. ) ;
#417 = DIRECTION ( 'NONE',  ( 0.000000000000000000, -0.000000000000000000, 1.000000000000000000 ) ) ;
#418 = AXIS2_PLACEMENT_3D ( 'NONE', #781, #1144, #339 ) ;
#419 = CARTESIAN_POINT ( 'NONE',  ( 4.330127018922194537, 1.942264973081036628, -2.500000000000002665 ) ) ;
#420 = ADVANCED_FACE ( 'NONE', ( #332, #836 ), #227, .F. ) ;
#421 = DIRECTION ( 'NONE',  ( 0.000000000000000000, -8.726648801810436994E-17, 1.000000000000000000 ) ) ;
#422 = ORIENTED_EDGE ( 'NONE', *, *, #738, .T. ) ;
#423 = DIRECTION ( 'NONE',  ( -1.000000000000000000, 0.000000000000000000, 0.000000000000000000 ) ) ;
#424 = CARTESIAN_POINT ( 'NONE',  ( 3.842998808858278270, -1.891276827528623361, 3.343730809630791168 ) ) ;
#425 = AXIS2_PLACEMENT_3D ( 'NONE', #811, #369, #18 ) ;
#426 = EDGE_CURVE ( 'NONE', #101, #5, #484, .T. ) ;
#427 = CARTESIAN_POINT ( 'NONE',  ( 4.084588180558407444, 1.931709412557646610, -2.925285743277523665 ) ) ;
#428 = CARTESIAN_POINT ( 'NONE',  ( 0.000000000000000000, 3.589999999999999414, 3.500000000000000000 ) ) ;
#429 = ORIENTED_EDGE ( 'NONE', *, *, #368, .T. ) ;
#430 = CARTESIAN_POINT ( 'NONE',  ( 0.000000000000000000, 2.299999999999999822, 0.000000000000000000 ) ) ;
#431 = EDGE_LOOP ( 'NONE', ( #46, #728 ) ) ;
#432 = DIRECTION ( 'NONE',  ( -0.000000000000000000, 1.000000000000000000, -0.000000000000000000 ) ) ;
#433 = CARTESIAN_POINT ( 'NONE',  ( 3.122278952918450923, 1.631664912982113469, -4.592054218142293642 ) ) ;
#434 = CARTESIAN_POINT ( 'NONE',  ( -5.773502691896258199, 2.000000000000000000, -8.509884400023612916E-16 ) ) ;
#435 = AXIS2_PLACEMENT_3D ( 'NONE', #44, #129, #485 ) ;
#436 = VERTEX_POINT ( 'NONE', #148 ) ;
#437 = CARTESIAN_POINT ( 'NONE',  ( -3.122720772761744090, -1.631919997787572907, -4.591288963725914662 ) ) ;
#438 = AXIS2_PLACEMENT_3D ( 'NONE', #116, #1008, #1018 ) ;
#439 = DIRECTION ( 'NONE',  ( 0.000000000000000000, -1.000000000000000000, -1.231653667943532791E-16 ) ) ;
#440 = AXIS2_PLACEMENT_3D ( 'NONE', #1133, #1160, #699 ) ;
#441 = CARTESIAN_POINT ( 'NONE',  ( -5.773502691896258199, 1.495682985695839351, -8.854994092709008301E-16 ) ) ;
#442 = PRODUCT ( '\X2\9632677e87ba6bcd\X0\(\X2\5f006e90\X0\)A_M6', '\X2\9632677e87ba6bcd\X0\(\X2\5f006e90\X0\)A_M6', '', ( #72 ) ) ;
#443 = VERTEX_POINT ( 'NONE', #770 ) ;
#444 = CARTESIAN_POINT ( 'NONE',  ( -3.358985280702824205, 1.768327375047666239, -4.182066831946701591 ) ) ;
#445 = EDGE_CURVE ( 'NONE', #5, #101, #795, .T. ) ;
#446 = ORIENTED_EDGE ( 'NONE', *, *, #507, .T. ) ;
#447 = DIRECTION ( 'NONE',  ( 0.000000000000000000, -1.000000000000000000, -1.231653667943532791E-16 ) ) ;
#448 = CARTESIAN_POINT ( 'NONE',  ( 2.886751345948129543, 2.000000000000000000, -5.000000000000000888 ) ) ;
#449 = ORIENTED_EDGE ( 'NONE', *, *, #507, .F. ) ;
#450 = DIRECTION ( 'NONE',  ( 0.000000000000000000, 0.000000000000000000, 1.000000000000000000 ) ) ;
#451 = VERTEX_POINT ( 'NONE', #851 ) ;
#452 = CARTESIAN_POINT ( 'NONE',  ( 0.000000000000000000, 1.999999999999999112, -6.621025260434595891E-17 ) ) ;
#453 = DIRECTION ( 'NONE',  ( -0.000000000000000000, 1.000000000000000000, -0.000000000000000000 ) ) ;
#454 = VERTEX_POINT ( 'NONE', #401 ) ;
#455 = DIRECTION ( 'NONE',  ( 0.000000000000000000, 0.000000000000000000, 1.000000000000000000 ) ) ;
#456 = ORIENTED_EDGE ( 'NONE', *, *, #969, .T. ) ;
#457 = SURFACE_STYLE_FILL_AREA ( #1079 ) ;
#458 = DIRECTION ( 'NONE',  ( 1.060575238724910859E-16, 0.4999999999999946709, -0.8660254037844418162 ) ) ;
#459 = ADVANCED_FACE ( 'NONE', ( #144 ), #934, .T. ) ;
#460 = FACE_OUTER_BOUND ( 'NONE', #1088, .T. ) ;
#461 = ORIENTED_EDGE ( 'NONE', *, *, #750, .T. ) ;
#462 = CARTESIAN_POINT ( 'NONE',  ( -1.936108290014865618, -1.744928987254189989, -5.000000000000000888 ) ) ;
#463 = CYLINDRICAL_SURFACE ( 'NONE', #556, 3.500000000000000000 ) ;
#464 = EDGE_LOOP ( 'NONE', ( #971, #240, #1154, #612 ) ) ;
#465 = AXIS2_PLACEMENT_3D ( 'NONE', #1029, #589, #329 ) ;
#466 = CARTESIAN_POINT ( 'NONE',  ( 4.938378386023506650, -1.861052340673227556, -1.446477728407304042 ) ) ;
#467 = CIRCLE ( 'NONE', #1119, 3.500000000000000000 ) ;
#468 = VERTEX_POINT ( 'NONE', #310 ) ;
#469 = CARTESIAN_POINT ( 'NONE',  ( -4.817255228986139670, -1.891276827528617144, 1.656269190369154876 ) ) ;
#470 = EDGE_CURVE ( 'NONE', #680, #881, #635, .T. ) ;
#471 = ORIENTED_EDGE ( 'NONE', *, *, #900, .F. ) ;
#472 = CARTESIAN_POINT ( 'NONE',  ( 4.286263797015736595E-16, 3.589999999999999414, -3.500000000000000000 ) ) ;
#473 = B_SPLINE_CURVE_WITH_KNOTS ( 'NONE', 3,
 ( #1098, #641, #462, #109, #725, #1085 ),
 .UNSPECIFIED., .F., .F.,
 ( 4, 2, 4 ),
 ( 0.005366046279350068435, 0.006827265528304559718, 0.008288484777259051001 ),
 .UNSPECIFIED. ) ;
#474 = ORIENTED_EDGE ( 'NONE', *, *, #483, .F. ) ;
#475 = EDGE_CURVE ( 'NONE', #587, #800, #126, .T. ) ;
#476 = CARTESIAN_POINT ( 'NONE',  ( 0.000000000000000000, 3.600000000000000089, 0.000000000000000000 ) ) ;
#477 = CIRCLE ( 'NONE', #118, 2.600000000000001421 ) ;
#478 = VECTOR ( 'NONE', #907, 1000.000000000000000 ) ;
#479 = CIRCLE ( 'NONE', #978, 0.1499999999999999667 ) ;
#480 = FACE_OUTER_BOUND ( 'NONE', #342, .T. ) ;
#481 = ORIENTED_EDGE ( 'NONE', *, *, #930, .F. ) ;
#482 = FACE_OUTER_BOUND ( 'NONE', #925, .T. ) ;
#483 = EDGE_CURVE ( 'NONE', #226, #997, #30, .T. ) ;
#484 = CIRCLE ( 'NONE', #885, 2.500000000000000000 ) ;
#485 = DIRECTION ( 'NONE',  ( 0.000000000000000000, -8.850629979473504779E-17, 1.000000000000000000 ) ) ;
#486 = ORIENTED_EDGE ( 'NONE', *, *, #1114, .F. ) ;
#487 = DIRECTION ( 'NONE',  ( 0.000000000000000000, 0.4999999999999943934, 0.8660254037844419273 ) ) ;
#488 = DIRECTION ( 'NONE',  ( 0.000000000000000000, 8.850629979473506011E-17, -1.000000000000000000 ) ) ;
#489 = AXIS2_PLACEMENT_3D ( 'NONE', #164, #877, #81 ) ;
#490 = CIRCLE ( 'NONE', #249, 0.1999999999999996503 ) ;
#491 = EDGE_LOOP ( 'NONE', ( #456, #831, #245, #610, #1166, #807, #735 ) ) ;
#492 = CARTESIAN_POINT ( 'NONE',  ( -4.330127018922193649, 1.942264973081037516, -2.500000000000000444 ) ) ;
#493 = DIRECTION ( 'NONE',  ( 0.000000000000000000, -1.000000000000000000, -1.231653667943532791E-16 ) ) ;
#494 = EDGE_CURVE ( 'NONE', #400, #1006, #1096, .T. ) ;
#495 = EDGE_CURVE ( 'NONE', #75, #130, #55, .T. ) ;
#496 = DIRECTION ( 'NONE',  ( 0.000000000000000000, 1.000000000000000000, 0.000000000000000000 ) ) ;
#497 = EDGE_CURVE ( 'NONE', #845, #436, #983, .T. ) ;
#498 = EDGE_LOOP ( 'NONE', ( #204, #927 ) ) ;
#499 = FACE_OUTER_BOUND ( 'NONE', #1010, .T. ) ;
#500 = CARTESIAN_POINT ( 'NONE',  ( -4.821944789745366222, 1.942264973081041068, 1.648146632868996431 ) ) ;
#501 = CARTESIAN_POINT ( 'NONE',  ( 0.000000000000000000, 3.850000000000000089, 0.000000000000000000 ) ) ;
#502 = VERTEX_POINT ( 'NONE', #687 ) ;
#503 = DIRECTION ( 'NONE',  ( -0.000000000000000000, 1.000000000000000000, -0.000000000000000000 ) ) ;
#504 = CIRCLE ( 'NONE', #1163, 0.2999999999999999334 ) ;
#505 = VERTEX_POINT ( 'NONE', #571 ) ;
#506 = DIRECTION ( 'NONE',  ( 0.000000000000000000, 0.000000000000000000, 1.000000000000000000 ) ) ;
#507 = EDGE_CURVE ( 'NONE', #436, #547, #720, .T. ) ;
#508 = DIRECTION ( 'NONE',  ( 0.000000000000000000, 1.301042606982605074E-16, -1.000000000000000000 ) ) ;
#509 = FACE_OUTER_BOUND ( 'NONE', #498, .T. ) ;
#510 = ORIENTED_EDGE ( 'NONE', *, *, #676, .F. ) ;
#511 = FACE_OUTER_BOUND ( 'NONE', #618, .T. ) ;
#512 = VECTOR ( 'NONE', #179, 1000.000000000000000 ) ;
#513 = EDGE_LOOP ( 'NONE', ( #396, #474, #158, #747 ) ) ;
#514 = DIRECTION ( 'NONE',  ( 0.000000000000000000, 0.000000000000000000, 1.000000000000000000 ) ) ;
#515 = ADVANCED_FACE ( 'NONE', ( #755 ), #827, .T. ) ;
#516 = B_SPLINE_CURVE_WITH_KNOTS ( 'NONE', 3,
 ( #311, #223, #946, #665, #52, #1025 ),
 .UNSPECIFIED., .F., .F.,
 ( 4, 2, 4 ),
 ( 0.01679964251557166527, 0.01826090431642766326, 0.01972216611728365779 ),
 .UNSPECIFIED. ) ;
#517 = CARTESIAN_POINT ( 'NONE',  ( 0.000000000000000000, -1.959807621135333244, 5.062400143603896212E-16 ) ) ;
#518 = ORIENTED_EDGE ( 'NONE', *, *, #1024, .T. ) ;
#519 = DIRECTION ( 'NONE',  ( 0.000000000000000000, -1.000000000000000000, -1.231653667943532791E-16 ) ) ;
#520 = VERTEX_POINT ( 'NONE', #492 ) ;
#521 = CYLINDRICAL_SURFACE ( 'NONE', #918, 3.000000000000000000 ) ;
#522 = AXIS2_PLACEMENT_3D ( 'NONE', #279, #1011, #830 ) ;
#523 = DIRECTION ( 'NONE',  ( 0.000000000000000000, 0.000000000000000000, 1.000000000000000000 ) ) ;
#524 = EDGE_LOOP ( 'NONE', ( #39, #916 ) ) ;
#525 = CARTESIAN_POINT ( 'NONE',  ( -3.721875651820882425, -1.861052340673228445, -3.553522271592698623 ) ) ;
#526 = DIRECTION ( 'NONE',  ( 0.000000000000000000, 0.000000000000000000, -1.000000000000000000 ) ) ;
#527 = CARTESIAN_POINT ( 'NONE',  ( -3.359771601077108372, 1.743920650708882913, 4.180704885107411783 ) ) ;
#528 = AXIS2_PLACEMENT_3D ( 'NONE', #324, #399, #590 ) ;
#529 = ADVANCED_FACE ( 'NONE', ( #840 ), #660, .T. ) ;
#530 = ORIENTED_EDGE ( 'NONE', *, *, #117, .F. ) ;
#531 = CARTESIAN_POINT ( 'NONE',  ( -4.823738040146306361, -1.941638096619106468, -1.645040632063877739 ) ) ;
#532 = AXIS2_PLACEMENT_3D ( 'NONE', #799, #265, #63 ) ;
#533 = CARTESIAN_POINT ( 'NONE',  ( -5.537975084925940372, 1.631664912982112581, -0.4079457818577097994 ) ) ;
#534 = DIRECTION ( 'NONE',  ( 0.000000000000000000, 1.301042606982605074E-16, -1.000000000000000000 ) ) ;
#535 = EDGE_LOOP ( 'NONE', ( #122, #219 ) ) ;
#536 = CARTESIAN_POINT ( 'NONE',  ( 0.000000000000000000, 3.850000000000000089, 3.149999999999999911 ) ) ;
#537 = AXIS2_PLACEMENT_3D ( 'NONE', #760, #409, #506 ) ;
#538 = CARTESIAN_POINT ( 'NONE',  ( 5.302151296893807597, -1.767817840484137593, 0.8164045643627135806 ) ) ;
#539 = CARTESIAN_POINT ( 'NONE',  ( 6.000769315822031726E-16, 2.115470053837925413, -4.900000000000000355 ) ) ;
#540 = ADVANCED_FACE ( 'NONE', ( #499 ), #154, .F. ) ;
#541 = ORIENTED_EDGE ( 'NONE', *, *, #981, .F. ) ;
#542 = CARTESIAN_POINT ( 'NONE',  ( -4.575665857285980742, 1.931709412557647720, -2.074714256722479000 ) ) ;
#543 = AXIS2_PLACEMENT_3D ( 'NONE', #1059, #259, #870 ) ;
#544 = DIRECTION ( 'NONE',  ( -0.000000000000000000, -1.000000000000000000, -0.000000000000000000 ) ) ;
#545 = ORIENTED_EDGE ( 'NONE', *, *, #909, .F. ) ;
#546 = CARTESIAN_POINT ( 'NONE',  ( 5.773502691896260863, -1.495682985695839129, -1.274512160367469437E-15 ) ) ;
#547 = VERTEX_POINT ( 'NONE', #76 ) ;
#548 = DIRECTION ( 'NONE',  ( 8.659560562354914369E-17, -0.7071067811865490160, 0.7071067811865460184 ) ) ;
#549 = ADVANCED_FACE ( 'NONE', ( #611 ), #678, .F. ) ;
#550 = CARTESIAN_POINT ( 'NONE',  ( 0.000000000000000000, 3.850000000000000089, 0.000000000000000000 ) ) ;
#551 = AXIS2_PLACEMENT_3D ( 'NONE', #517, #177, #421 ) ;
#552 = EDGE_LOOP ( 'NONE', ( #933, #559, #662, #964 ) ) ;
#553 = FACE_OUTER_BOUND ( 'NONE', #785, .T. ) ;
#554 = ORIENTED_EDGE ( 'NONE', *, *, #1044, .T. ) ;
#555 = CARTESIAN_POINT ( 'NONE',  ( 2.886751345948131320, 1.495682985695838463, 4.999999999999999112 ) ) ;
#556 = AXIS2_PLACEMENT_3D ( 'NONE', #189, #988, #902 ) ;
#557 = DIRECTION ( 'NONE',  ( -0.000000000000000000, -1.000000000000000000, -0.000000000000000000 ) ) ;
#558 = CARTESIAN_POINT ( 'NONE',  ( 0.000000000000000000, 2.299999999999999822, 0.000000000000000000 ) ) ;
#559 = ORIENTED_EDGE ( 'NONE', *, *, #600, .T. ) ;
#560 = DIRECTION ( 'NONE',  ( 0.000000000000000000, -1.000000000000000000, -1.231653667943532791E-16 ) ) ;
#561 = ORIENTED_EDGE ( 'NONE', *, *, #350, .T. ) ;
#562 = CARTESIAN_POINT ( 'NONE',  ( -5.773502691896258199, -1.495682985695840683, -8.643499744888141280E-16 ) ) ;
#563 = LINE ( 'NONE', #749, #656 ) ;
#564 = CARTESIAN_POINT ( 'NONE',  ( 4.817255228986113025, -1.891276827528621807, -1.656269190369208610 ) ) ;
#565 = EDGE_LOOP ( 'NONE', ( #1039, #886, #293, #867 ) ) ;
#566 = SURFACE_STYLE_USAGE ( .BOTH. , #302 ) ;
#567 = ADVANCED_FACE ( 'NONE', ( #511 ), #708, .F. ) ;
#568 = AXIS2_PLACEMENT_3D ( 'NONE', #717, #791, #172 ) ;
#569 = CARTESIAN_POINT ( 'NONE',  ( -1.936108290014867839, 1.744928987254189989, 4.999999999999999112 ) ) ;
#570 = ORIENTED_EDGE ( 'NONE', *, *, #1116, .F. ) ;
#571 = CARTESIAN_POINT ( 'NONE',  ( 6.123233995475319043E-16, -1.942264973081037294, -5.000000000000000888 ) ) ;
#572 = CARTESIAN_POINT ( 'NONE',  ( -2.886751345948128655, 2.000000000000000000, -5.000000000000000888 ) ) ;
#573 = CARTESIAN_POINT ( 'NONE',  ( -0.4884677894816600863, 1.942264973081037294, 4.999999999999998224 ) ) ;
#574 = ORIENTED_EDGE ( 'NONE', *, *, #495, .F. ) ;
#575 = DIRECTION ( 'NONE',  ( 0.000000000000000000, 0.000000000000000000, 1.000000000000000000 ) ) ;
#576 = AXIS2_PLACEMENT_3D ( 'NONE', #10, #375, #729 ) ;
#577 = CARTESIAN_POINT ( 'NONE',  ( -5.301268757141560428, 1.768327375047666239, 0.8179331680532985205 ) ) ;
#578 = ADVANCED_FACE ( 'NONE', ( #972 ), #919, .T. ) ;
#579 = EDGE_CURVE ( 'NONE', #765, #1045, #1042, .T. ) ;
#580 = DIRECTION ( 'NONE',  ( -0.000000000000000000, 1.000000000000000000, -0.000000000000000000 ) ) ;
#581 = VERTEX_POINT ( 'NONE', #84 ) ;
#582 = DIRECTION ( 'NONE',  ( -0.000000000000000000, 1.000000000000000000, -0.000000000000000000 ) ) ;
#583 = CARTESIAN_POINT ( 'NONE',  ( 2.816687638038912056E-16, 2.000000000000000000, -2.299999999999999822 ) ) ;
#584 = CIRCLE ( 'NONE', #435, 4.900000000000000355 ) ;
#585 = EDGE_LOOP ( 'NONE', ( #69, #19, #31, #686, #275, #285, #429 ) ) ;
#586 = DIRECTION ( 'NONE',  ( 0.000000000000000000, -1.000000000000000000, -1.231653667943532791E-16 ) ) ;
#587 = VERTEX_POINT ( 'NONE', #61 ) ;
#588 = VECTOR ( 'NONE', #622, 1000.000000000000000 ) ;
#589 = DIRECTION ( 'NONE',  ( -0.000000000000000000, -1.000000000000000000, -0.000000000000000000 ) ) ;
#590 = DIRECTION ( 'NONE',  ( -1.000000000000000000, 0.000000000000000000, -1.502314598737159031E-16 ) ) ;
#591 = EDGE_CURVE ( 'NONE', #356, #520, #968, .T. ) ;
#592 = ORIENTED_EDGE ( 'NONE', *, *, #127, .T. ) ;
#593 = DIRECTION ( 'NONE',  ( 0.000000000000000000, 0.000000000000000000, 1.000000000000000000 ) ) ;
#594 = ADVANCED_FACE ( 'NONE', ( #357 ), #176, .T. ) ;
#595 = CYLINDRICAL_SURFACE ( 'NONE', #110, 2.299999999999999822 ) ;
#596 = B_SPLINE_CURVE_WITH_KNOTS ( 'NONE', 3,
 ( #942, #1159, #427, #243, #871, #603, #433, #1152 ),
 .UNSPECIFIED., .F., .F.,
 ( 4, 2, 2, 4 ),
 ( 0.002921158011986715094, 0.003648658599403068782, 0.004376159186819422037, 0.005831160361652128546 ),
 .UNSPECIFIED. ) ;
#597 = DIRECTION ( 'NONE',  ( 0.000000000000000000, 0.000000000000000000, 1.000000000000000000 ) ) ;
#598 = ORIENTED_EDGE ( 'NONE', *, *, #360, .T. ) ;
#599 = CARTESIAN_POINT ( 'NONE',  ( 0.000000000000000000, 2.299999999999999822, 0.000000000000000000 ) ) ;
#600 = EDGE_CURVE ( 'NONE', #692, #722, #625, .T. ) ;
#601 = CARTESIAN_POINT ( 'NONE',  ( 5.773502691896260863, 1.495682985695837797, -1.353442926013764780E-15 ) ) ;
#602 = EDGE_CURVE ( 'NONE', #1006, #1122, #479, .T. ) ;
#603 = CARTESIAN_POINT ( 'NONE',  ( 3.359771601077111036, 1.743920650708882025, -4.180704885107414448 ) ) ;
#604 = LINE ( 'NONE', #434, #793 ) ;
#605 = EDGE_LOOP ( 'NONE', ( #221, #349, #999 ) ) ;
#606 = CARTESIAN_POINT ( 'NONE',  ( 5.773502691896260863, 1.495682985695837797, -1.353442926013764780E-15 ) ) ;
#607 = DIRECTION ( 'NONE',  ( 0.000000000000000000, 0.000000000000000000, 1.000000000000000000 ) ) ;
#608 = CIRCLE ( 'NONE', #901, 1.700000000000000178 ) ;
#609 = DIRECTION ( 'NONE',  ( -0.000000000000000000, 1.000000000000000000, 0.000000000000000000 ) ) ;
#610 = ORIENTED_EDGE ( 'NONE', *, *, #710, .T. ) ;
#611 = FACE_OUTER_BOUND ( 'NONE', #1168, .T. ) ;
#612 = ORIENTED_EDGE ( 'NONE', *, *, #360, .F. ) ;
#613 = CARTESIAN_POINT ( 'NONE',  ( 2.886751345948129543, 1.495682985695839351, -5.000000000000000888 ) ) ;
#614 = AXIS2_PLACEMENT_3D ( 'NONE', #247, #315, #671 ) ;
#615 = EDGE_CURVE ( 'NONE', #443, #881, #628, .T. ) ;
#616 = VECTOR ( 'NONE', #274, 1000.000000000000000 ) ;
#617 = CARTESIAN_POINT ( 'NONE',  ( -4.207632145829748538, 1.942264973081042179, 2.712167343862815994 ) ) ;
#618 = EDGE_LOOP ( 'NONE', ( #730, #776, #461, #1134 ) ) ;
#619 = DIRECTION ( 'NONE',  ( 0.000000000000000000, 0.000000000000000000, 1.000000000000000000 ) ) ;
#620 = DIRECTION ( 'NONE',  ( -0.000000000000000000, 1.000000000000000000, -0.000000000000000000 ) ) ;
#621 = EDGE_CURVE ( 'NONE', #178, #921, #328, .T. ) ;
#622 = DIRECTION ( 'NONE',  ( -0.000000000000000000, -1.000000000000000000, -0.000000000000000000 ) ) ;
#623 = AXIS2_PLACEMENT_3D ( 'NONE', #220, #1112, #597 ) ;
#624 = ORIENTED_EDGE ( 'NONE', *, *, #1007, .T. ) ;
#625 = LINE ( 'NONE', #980, #512 ) ;
#626 = CONICAL_SURFACE ( 'NONE', #290, 4.899999999999999467, 1.047197551196604071 ) ;
#627 = DIRECTION ( 'NONE',  ( -0.000000000000000000, 1.000000000000000000, -0.000000000000000000 ) ) ;
#628 = CIRCLE ( 'NONE', #156, 1.700000000000000178 ) ;
#629 = B_SPLINE_CURVE_WITH_KNOTS ( 'NONE', 3,
 ( #1120, #745, #119, #829, #28, #317 ),
 .UNSPECIFIED., .F., .F.,
 ( 4, 2, 4 ),
 ( 0.01679964251557166874, 0.01826090431642755918, 0.01972216611728345309 ),
 .UNSPECIFIED. ) ;
#630 = DIRECTION ( 'NONE',  ( 0.000000000000000000, -1.000000000000000000, 0.000000000000000000 ) ) ;
#631 = ORIENTED_EDGE ( 'NONE', *, *, #994, .F. ) ;
#632 = DIRECTION ( 'NONE',  ( -0.000000000000000000, -1.000000000000000000, -0.000000000000000000 ) ) ;
#633 = EDGE_CURVE ( 'NONE', #949, #692, #467, .T. ) ;
#634 = VERTEX_POINT ( 'NONE', #68 ) ;
#635 = CIRCLE ( 'NONE', #182, 3.200000000000000622 ) ;
#636 = CARTESIAN_POINT ( 'NONE',  ( 0.000000000000000000, 3.600000000000000089, 3.500000000000000000 ) ) ;
#637 = VECTOR ( 'NONE', #891, 1000.000000000000114 ) ;
#638 = ORIENTED_EDGE ( 'NONE', *, *, #13, .T. ) ;
#639 = CARTESIAN_POINT ( 'NONE',  ( 3.836515997698080938, -1.941638096619105580, -3.354959367936125147 ) ) ;
#640 = ORIENTED_EDGE ( 'NONE', *, *, #903, .T. ) ;
#641 = CARTESIAN_POINT ( 'NONE',  ( -2.416624968674201401, -1.631396780931970936, -5.000000000000000000 ) ) ;
#642 = CARTESIAN_POINT ( 'NONE',  ( 3.184081677783120656E-16, -2.000000000000000000, 2.600000000000001421 ) ) ;
#643 = CARTESIAN_POINT ( 'NONE',  ( 4.286263797015736595E-16, 3.600000000000000089, -3.500000000000000000 ) ) ;
#644 = CIRCLE ( 'NONE', #551, 4.969615242270664091 ) ;
#645 = ORIENTED_EDGE ( 'NONE', *, *, #963, .F. ) ;
#646 = CARTESIAN_POINT ( 'NONE',  ( 0.000000000000000000, 3.600000000000000089, 3.000000000000000000 ) ) ;
#647 = CONICAL_SURFACE ( 'NONE', #1057, 8.277499074759358422, 1.047197551196604071 ) ;
#648 = CYLINDRICAL_SURFACE ( 'NONE', #280, 2.299999999999999822 ) ;
#649 = VERTEX_POINT ( 'NONE', #606 ) ;
#650 = CARTESIAN_POINT ( 'NONE',  ( 0.000000000000000000, 2.000000000000000000, -2.500000000000000000 ) ) ;
#651 = EDGE_LOOP ( 'NONE', ( #673, #1084 ) ) ;
#652 = LINE ( 'NONE', #897, #166 ) ;
#653 = EDGE_LOOP ( 'NONE', ( #545, #167, #26, #707 ) ) ;
#654 = DIRECTION ( 'NONE',  ( 0.000000000000000000, -1.000000000000000000, 0.000000000000000000 ) ) ;
#655 = B_SPLINE_CURVE_WITH_KNOTS ( 'NONE', 3,
 ( #601, #857, #56, #419 ),
 .UNSPECIFIED., .F., .F.,
 ( 4, 4 ),
 ( 2.380735200831412310E-07, 0.002921158011986715094 ),
 .UNSPECIFIED. ) ;
#656 = VECTOR ( 'NONE', #212, 1000.000000000000000 ) ;
#657 = DIRECTION ( 'NONE',  ( 0.000000000000000000, 0.000000000000000000, 1.000000000000000000 ) ) ;
#658 = ORIENTED_EDGE ( 'NONE', *, *, #13, .F. ) ;
#659 = CARTESIAN_POINT ( 'NONE',  ( -4.938378386023528854, -1.861052340673221561, 1.446477728407256524 ) ) ;
#660 = TOROIDAL_SURFACE ( 'NONE', #859, 3.200000000000000622, 1.700000000000000178 ) ;
#661 = CARTESIAN_POINT ( 'NONE',  ( 0.000000000000000000, 2.804536461803596836, 3.000000000000000000 ) ) ;
#662 = ORIENTED_EDGE ( 'NONE', *, *, #879, .T. ) ;
#663 = EDGE_CURVE ( 'NONE', #520, #67, #869, .T. ) ;
#664 = DIRECTION ( 'NONE',  ( -1.000000000000000000, -0.000000000000000000, 0.000000000000000000 ) ) ;
#665 = CARTESIAN_POINT ( 'NONE',  ( -1.936108290015000399, -1.744928987254166008, 4.999999999999998224 ) ) ;
#666 = CARTESIAN_POINT ( 'NONE',  ( 4.330127018922194537, 1.942264973081035961, 2.500000000000000888 ) ) ;
#667 = CARTESIAN_POINT ( 'NONE',  ( 0.4888467273981887962, -1.942264973081039958, 4.999999999999999112 ) ) ;
#668 = AXIS2_PLACEMENT_3D ( 'NONE', #155, #847, #514 ) ;
#669 = EDGE_LOOP ( 'NONE', ( #1076, #957 ) ) ;
#670 = CARTESIAN_POINT ( 'NONE',  ( 0.000000000000000000, 3.600000000000000089, 0.000000000000000000 ) ) ;
#671 = DIRECTION ( 'NONE',  ( 0.000000000000000000, 0.000000000000000000, 1.000000000000000000 ) ) ;
#672 = CARTESIAN_POINT ( 'NONE',  ( 0.000000000000000000, 1.942264973081036628, -6.143336129021877221E-17 ) ) ;
#673 = ORIENTED_EDGE ( 'NONE', *, *, #621, .T. ) ;
#674 = DIRECTION ( 'NONE',  ( 0.000000000000000000, -8.850629979473504779E-17, 1.000000000000000000 ) ) ;
#675 = DIRECTION ( 'NONE',  ( 0.000000000000000000, 0.000000000000000000, -1.000000000000000000 ) ) ;
#676 = EDGE_CURVE ( 'NONE', #443, #1161, #782, .T. ) ;
#677 = AXIS2_PLACEMENT_3D ( 'NONE', #1158, #439, #86 ) ;
#678 = TOROIDAL_SURFACE ( 'NONE', #366, 5.100000000000000533, 0.2000000000000000111 ) ;
#679 = FACE_OUTER_BOUND ( 'NONE', #1012, .T. ) ;
#680 = VERTEX_POINT ( 'NONE', #723 ) ;
#681 = DIRECTION ( 'NONE',  ( -0.000000000000000000, -1.000000000000000000, -0.000000000000000000 ) ) ;
#682 = FACE_OUTER_BOUND ( 'NONE', #214, .T. ) ;
#683 = ADVANCED_FACE ( 'NONE', ( #480 ), #66, .T. ) ;
#684 = AXIS2_PLACEMENT_3D ( 'NONE', #1040, #846, #575 ) ;
#685 = DIRECTION ( 'NONE',  ( 0.000000000000000000, -1.000000000000000000, 0.000000000000000000 ) ) ;
#686 = ORIENTED_EDGE ( 'NONE', *, *, #71, .T. ) ;
#687 = CARTESIAN_POINT ( 'NONE',  ( 6.086023399440663517E-16, -1.959807621135332356, -4.969615242270661426 ) ) ;
#688 = ORIENTED_EDGE ( 'NONE', *, *, #879, .F. ) ;
#689 = DIRECTION ( 'NONE',  ( 0.000000000000000000, 0.000000000000000000, 1.000000000000000000 ) ) ;
#690 = EDGE_CURVE ( 'NONE', #692, #949, #316, .T. ) ;
#691 = CARTESIAN_POINT ( 'NONE',  ( 0.000000000000000000, -0.05000000000000100198, -3.186992545327702266E-16 ) ) ;
#692 = VERTEX_POINT ( 'NONE', #472 ) ;
#693 = CARTESIAN_POINT ( 'NONE',  ( 0.000000000000000000, 3.589999999999999414, 0.000000000000000000 ) ) ;
#694 = VECTOR ( 'NONE', #557, 1000.000000000000000 ) ;
#695 = CONICAL_SURFACE ( 'NONE', #191, 4.899999999999999467, 1.047197551196604071 ) ;
#696 = B_SPLINE_CURVE_WITH_KNOTS ( 'NONE', 3,
 ( #753, #146, #231, #937, #667, #1026 ),
 .UNSPECIFIED., .F., .F.,
 ( 4, 2, 4 ),
 ( 0.01387485171215592158, 0.01533724711386379343, 0.01679964251557166527 ),
 .UNSPECIFIED. ) ;
#697 = CARTESIAN_POINT ( 'NONE',  ( 2.886751345948131320, 1.495682985695838463, 4.999999999999999112 ) ) ;
#698 = DIRECTION ( 'NONE',  ( 0.000000000000000000, 0.000000000000000000, 1.000000000000000000 ) ) ;
#699 = DIRECTION ( 'NONE',  ( 0.000000000000000000, 0.000000000000000000, 1.000000000000000000 ) ) ;
#700 = ORIENTED_EDGE ( 'NONE', *, *, #303, .T. ) ;
#701 = CARTESIAN_POINT ( 'NONE',  ( 0.000000000000000000, 2.804536461803596836, 0.000000000000000000 ) ) ;
#702 = ORIENTED_EDGE ( 'NONE', *, *, #186, .T. ) ;
#703 = DIRECTION ( 'NONE',  ( -0.000000000000000000, -1.000000000000000000, -0.000000000000000000 ) ) ;
#704 = CIRCLE ( 'NONE', #844, 0.2999999999999999334 ) ;
#705 = EDGE_CURVE ( 'NONE', #505, #468, #1110, .T. ) ;
#706 = CARTESIAN_POINT ( 'NONE',  ( -5.773502691896258199, 2.000000000000000000, -8.509884400023612916E-16 ) ) ;
#707 = ORIENTED_EDGE ( 'NONE', *, *, #824, .F. ) ;
#708 = CYLINDRICAL_SURFACE ( 'NONE', #774, 3.500000000000000000 ) ;
#709 = CARTESIAN_POINT ( 'NONE',  ( -4.819072548984006055, 1.890860685997211466, -1.653121499799246275 ) ) ;
#710 = EDGE_CURVE ( 'NONE', #468, #412, #235, .T. ) ;
#711 = CIRCLE ( 'NONE', #355, 5.000000000000000888 ) ;
#712 = CARTESIAN_POINT ( 'NONE',  ( -4.084588180558403891, 1.931709412557648387, 2.925285743277523665 ) ) ;
#713 = ORIENTED_EDGE ( 'NONE', *, *, #239, .F. ) ;
#714 = CARTESIAN_POINT ( 'NONE',  ( 0.000000000000000000, -0.05000000000000100198, -3.186992545327702266E-16 ) ) ;
#715 = ORIENTED_EDGE ( 'NONE', *, *, #38, .T. ) ;
#716 = CARTESIAN_POINT ( 'NONE',  ( 3.122720772761747199, -1.631919997787574239, 4.591288963725911110 ) ) ;
#717 = CARTESIAN_POINT ( 'NONE',  ( 0.000000000000000000, 3.850000000000000089, 0.000000000000000000 ) ) ;
#718 = ORIENTED_EDGE ( 'NONE', *, *, #470, .F. ) ;
#719 = CARTESIAN_POINT ( 'NONE',  ( 5.773502691896260863, -1.495682985695839129, -1.274512160367469437E-15 ) ) ;
#720 = CIRCLE ( 'NONE', #216, 0.1999999999999996503 ) ;
#721 = FACE_OUTER_BOUND ( 'NONE', #653, .T. ) ;
#722 = VERTEX_POINT ( 'NONE', #643 ) ;
#723 = CARTESIAN_POINT ( 'NONE',  ( 4.959819536546780600E-16, 4.000000000000000000, -3.200000000000000622 ) ) ;
#724 = EDGE_LOOP ( 'NONE', ( #85, #486, #60, #363, #554 ) ) ;
#725 = CARTESIAN_POINT ( 'NONE',  ( -0.4884677894816584764, -1.942264973081037516, -5.000000000000000888 ) ) ;
#726 = AXIS2_PLACEMENT_3D ( 'NONE', #381, #53, #225 ) ;
#727 = DIRECTION ( 'NONE',  ( 0.000000000000000000, 0.000000000000000000, 1.000000000000000000 ) ) ;
#728 = ORIENTED_EDGE ( 'NONE', *, *, #470, .T. ) ;
#729 = DIRECTION ( 'NONE',  ( 0.000000000000000000, 0.000000000000000000, -1.000000000000000000 ) ) ;
#730 = ORIENTED_EDGE ( 'NONE', *, *, #600, .F. ) ;
#731 = PLANE ( 'NONE',  #1037 ) ;
#732 = FACE_OUTER_BOUND ( 'NONE', #370, .T. ) ;
#733 = CARTESIAN_POINT ( 'NONE',  ( 2.886751345948129543, -1.495682985695839351, -5.000000000000000888 ) ) ;
#734 = AXIS2_PLACEMENT_3D ( 'NONE', #746, #496, #657 ) ;
#735 = ORIENTED_EDGE ( 'NONE', *, *, #475, .F. ) ;
#736 = DIRECTION ( 'NONE',  ( -0.000000000000000000, 1.000000000000000000, -0.000000000000000000 ) ) ;
#737 = AXIS2_PLACEMENT_3D ( 'NONE', #345, #703, #526 ) ;
#738 = EDGE_CURVE ( 'NONE', #5, #1068, #990, .T. ) ;
#739 = CARTESIAN_POINT ( 'NONE',  ( 0.000000000000000000, 2.513572749570449183, 0.000000000000000000 ) ) ;
#740 = EDGE_LOOP ( 'NONE', ( #944, #115, #422, #645 ) ) ;
#741 = DIRECTION ( 'NONE',  ( 1.000000000000000000, 0.000000000000000000, -0.000000000000000000 ) ) ;
#742 = CIRCLE ( 'NONE', #333, 3.000000000000000000 ) ;
#743 = PLANE ( 'NONE',  #992 ) ;
#744 = ADVANCED_FACE ( 'NONE', ( #205 ), #648, .F. ) ;
#745 = CARTESIAN_POINT ( 'NONE',  ( -0.4884677894816589760, 1.942264973081037294, -5.000000000000000000 ) ) ;
#746 = CARTESIAN_POINT ( 'NONE',  ( 0.000000000000000000, -1.700000000000000178, 5.062400143603896212E-16 ) ) ;
#747 = ORIENTED_EDGE ( 'NONE', *, *, #917, .F. ) ;
#748 = FACE_BOUND ( 'NONE', #1097, .T. ) ;
#749 = CARTESIAN_POINT ( 'NONE',  ( 3.673940397442059868E-16, 2.804536461803596836, -3.000000000000000000 ) ) ;
#750 = EDGE_CURVE ( 'NONE', #949, #193, #1095, .T. ) ;
#751 = EDGE_CURVE ( 'NONE', #309, #1071, #652, .T. ) ;
#752 = CARTESIAN_POINT ( 'NONE',  ( 5.300482436767278038, 1.743920650708881581, 0.8192951148925874394 ) ) ;
#753 = CARTESIAN_POINT ( 'NONE',  ( 2.886751345948131320, -1.495682985695841349, 4.999999999999999112 ) ) ;
#754 = ORIENTED_EDGE ( 'NONE', *, *, #591, .F. ) ;
#755 = FACE_OUTER_BOUND ( 'NONE', #233, .T. ) ;
#756 = CARTESIAN_POINT ( 'NONE',  ( 3.061616997868383141E-16, 2.000000000000000000, 2.500000000000000000 ) ) ;
#757 = CARTESIAN_POINT ( 'NONE',  ( 0.000000000000000000, 1.999999999999999112, -6.621025260434595891E-17 ) ) ;
#758 = CIRCLE ( 'NONE', #402, 3.149999999999999911 ) ;
#759 = ORIENTED_EDGE ( 'NONE', *, *, #751, .T. ) ;
#760 = CARTESIAN_POINT ( 'NONE',  ( 0.000000000000000000, 2.804536461803596836, 0.000000000000000000 ) ) ;
#761 = CARTESIAN_POINT ( 'NONE',  ( 5.773502691896260863, 2.000000000000000000, -1.387953895221155272E-15 ) ) ;
#762 = CARTESIAN_POINT ( 'NONE',  ( 5.773502691896260863, 1.495682985695837797, -1.353442926013764780E-15 ) ) ;
#763 = DIRECTION ( 'NONE',  ( -0.000000000000000000, 1.000000000000000000, -0.000000000000000000 ) ) ;
#764 = CIRCLE ( 'NONE', #668, 4.900000000000000355 ) ;
#765 = VERTEX_POINT ( 'NONE', #121 ) ;
#766 = CARTESIAN_POINT ( 'NONE',  ( 0.000000000000000000, 4.000000000000000000, 0.000000000000000000 ) ) ;
#767 = DIRECTION ( 'NONE',  ( 1.224646799147353454E-16, 0.000000000000000000, -1.000000000000000000 ) ) ;
#768 = CARTESIAN_POINT ( 'NONE',  ( 3.838309248099021076, 1.942264973081039070, 3.351853367131004013 ) ) ;
#769 = ORIENTED_EDGE ( 'NONE', *, *, #824, .T. ) ;
#770 = CARTESIAN_POINT ( 'NONE',  ( 0.000000000000000000, 2.299999999999999822, 4.900000000000000355 ) ) ;
#771 = CYLINDRICAL_SURFACE ( 'NONE', #1118, 4.900000000000000355 ) ;
#772 = EDGE_CURVE ( 'NONE', #1068, #1113, #965, .T. ) ;
#773 = AXIS2_PLACEMENT_3D ( 'NONE', #271, #627, #982 ) ;
#774 = AXIS2_PLACEMENT_3D ( 'NONE', #701, #264, #619 ) ;
#775 = CARTESIAN_POINT ( 'NONE',  ( 3.918869757271530953E-16, 2.299999999999999822, -3.200000000000000622 ) ) ;
#776 = ORIENTED_EDGE ( 'NONE', *, *, #633, .F. ) ;
#777 = CARTESIAN_POINT ( 'NONE',  ( 2.816687638038912056E-16, 2.513572749570449183, -2.299999999999999822 ) ) ;
#778 = DIRECTION ( 'NONE',  ( -0.000000000000000000, -1.000000000000000000, -0.000000000000000000 ) ) ;
#779 = DIRECTION ( 'NONE',  ( 0.000000000000000000, 1.000000000000000000, 0.000000000000000000 ) ) ;
#780 = EDGE_LOOP ( 'NONE', ( #278, #812 ) ) ;
#781 = CARTESIAN_POINT ( 'NONE',  ( 0.000000000000000000, 2.000000000000000000, 0.000000000000000000 ) ) ;
#782 = CIRCLE ( 'NONE', #12, 4.900000000000000355 ) ;
#783 = CARTESIAN_POINT ( 'NONE',  ( 0.4888467273981878525, 1.942264973081037516, -5.000000000000000888 ) ) ;
#784 = LINE ( 'NONE', #165, #42 ) ;
#785 = EDGE_LOOP ( 'NONE', ( #1150, #319, #898, #153, #759 ) ) ;
#786 = ORIENTED_EDGE ( 'NONE', *, *, #969, .F. ) ;
#787 = CARTESIAN_POINT ( 'NONE',  ( 1.947012450778980774, 1.742634902659927265, -5.000000000000000888 ) ) ;
#788 = CIRCLE ( 'NONE', #135, 0.1499999999999999667 ) ;
#789 = DIRECTION ( 'NONE',  ( -1.000000000000000000, 0.000000000000000000, 0.000000000000000000 ) ) ;
#790 = ORIENTED_EDGE ( 'NONE', *, *, #981, .T. ) ;
#791 = DIRECTION ( 'NONE',  ( -0.000000000000000000, 1.000000000000000000, -0.000000000000000000 ) ) ;
#792 = CARTESIAN_POINT ( 'NONE',  ( -2.618032129202232929E-26, 1.942264973081037294, -5.000000000000000888 ) ) ;
#793 = VECTOR ( 'NONE', #866, 1000.000000000000000 ) ;
#794 = CARTESIAN_POINT ( 'NONE',  ( 5.994174889504615312E-16, -2.000000000000000000, -4.819615242270663735 ) ) ;
#795 = CIRCLE ( 'NONE', #684, 2.500000000000000000 ) ;
#796 = ORIENTED_EDGE ( 'NONE', *, *, #914, .F. ) ;
#797 = CARTESIAN_POINT ( 'NONE',  ( -3.838309248099019300, 1.942264973081040624, -3.351853367131004457 ) ) ;
#798 = VERTEX_POINT ( 'NONE', #113 ) ;
#799 = CARTESIAN_POINT ( 'NONE',  ( 0.000000000000000000, 3.589999999999999858, 0.000000000000000000 ) ) ;
#800 = VERTEX_POINT ( 'NONE', #1072 ) ;
#801 = CARTESIAN_POINT ( 'NONE',  ( 0.000000000000000000, 2.299999999999999822, 3.200000000000000622 ) ) ;
#802 = B_SPLINE_CURVE_WITH_KNOTS ( 'NONE', 3,
 ( #1062, #617, #712, #948, #157, #527, #415, #82 ),
 .UNSPECIFIED., .F., .F.,
 ( 4, 2, 2, 4 ),
 ( 0.002921158011986715961, 0.003648658599403069649, 0.004376159186819422037, 0.005831160361652128546 ),
 .UNSPECIFIED. ) ;
#803 = DIRECTION ( 'NONE',  ( 0.000000000000000000, -1.000000000000000000, -1.231653667943532791E-16 ) ) ;
#804 = APPLICATION_CONTEXT ( 'automotive_design' ) ;
#805 = ORIENTED_EDGE ( 'NONE', *, *, #1051, .T. ) ;
#806 = CARTESIAN_POINT ( 'NONE',  ( 0.9837791927603850572, -1.899043921062016693, -5.000000000000000888 ) ) ;
#807 = ORIENTED_EDGE ( 'NONE', *, *, #914, .T. ) ;
#808 = CARTESIAN_POINT ( 'NONE',  ( 0.000000000000000000, 2.000000000000000000, 3.499999999999999112 ) ) ;
#809 = PLANE ( 'NONE',  #372 ) ;
#810 = ORIENTED_EDGE ( 'NONE', *, *, #751, .F. ) ;
#811 = CARTESIAN_POINT ( 'NONE',  ( -2.886751345948128655, 2.000000000000000000, -5.000000000000000888 ) ) ;
#812 = ORIENTED_EDGE ( 'NONE', *, *, #494, .T. ) ;
#813 =( NAMED_UNIT ( * ) PLANE_ANGLE_UNIT ( ) SI_UNIT ( $, .RADIAN. ) );
#814 = VECTOR ( 'NONE', #1108, 1000.000000000000000 ) ;
#815 = AXIS2_PLACEMENT_3D ( 'NONE', #159, #519, #868 ) ;
#816 = CARTESIAN_POINT ( 'NONE',  ( 1.013701274684922695E-15, -0.04999999999999998196, -8.277499074759358422 ) ) ;
#817 = PRODUCT_DEFINITION ( 'æ™', '', #1136, #1015 ) ;
#818 = PLANE ( 'NONE',  #726 ) ;
#819 = ORIENTED_EDGE ( 'NONE', *, *, #322, .F. ) ;
#820 = PRESENTATION_STYLE_ASSIGNMENT (( #566 ) ) ;
#821 = ORIENTED_EDGE ( 'NONE', *, *, #1028, .F. ) ;
#822 = CARTESIAN_POINT ( 'NONE',  ( 3.358102740950582810, -1.767817840484138259, -4.183595435637285753 ) ) ;
#823 = CONICAL_SURFACE ( 'NONE', #1033, 4.899999999999999467, 1.047197551196604071 ) ;
#824 = EDGE_CURVE ( 'NONE', #634, #1122, #128, .T. ) ;
#825 = ORIENTED_EDGE ( 'NONE', *, *, #663, .F. ) ;
#826 = DIRECTION ( 'NONE',  ( 0.000000000000000000, -0.000000000000000000, 1.000000000000000000 ) ) ;
#827 = CONICAL_SURFACE ( 'NONE', #2, 4.899999999999999467, 1.047197551196604071 ) ;
#828 = FACE_OUTER_BOUND ( 'NONE', #724, .T. ) ;
#829 = CARTESIAN_POINT ( 'NONE',  ( -1.936108290014862732, 1.744928987254190211, -5.000000000000000000 ) ) ;
#830 = DIRECTION ( 'NONE',  ( 0.000000000000000000, 0.000000000000000000, 1.000000000000000000 ) ) ;
#831 = ORIENTED_EDGE ( 'NONE', *, *, #1131, .T. ) ;
#832 = AXIS2_PLACEMENT_3D ( 'NONE', #1128, #681, #1107 ) ;
#833 = B_SPLINE_CURVE_WITH_KNOTS ( 'NONE', 3,
 ( #41, #577, #500, #929 ),
 .UNSPECIFIED., .F., .F.,
 ( 4, 4 ),
 ( 2.380735200831412575E-07, 0.002921158011986715961 ),
 .UNSPECIFIED. ) ;
#834 = DIRECTION ( 'NONE',  ( -0.000000000000000000, 1.000000000000000000, -0.000000000000000000 ) ) ;
#835 = ORIENTED_EDGE ( 'NONE', *, *, #1114, .T. ) ;
#836 = FACE_OUTER_BOUND ( 'NONE', #669, .T. ) ;
#837 = CONICAL_SURFACE ( 'NONE', #677, 4.899999999999999467, 1.047197551196604071 ) ;
#838 = CARTESIAN_POINT ( 'NONE',  ( 2.886751345948131320, 1.495682985695838463, 4.999999999999999112 ) ) ;
#839 = ORIENTED_EDGE ( 'NONE', *, *, #994, .T. ) ;
#840 = FACE_OUTER_BOUND ( 'NONE', #1164, .T. ) ;
#841 = CARTESIAN_POINT ( 'NONE',  ( 5.902326379568564148E-16, -1.700000000000000178, -4.819615242270663735 ) ) ;
#842 = CARTESIAN_POINT ( 'NONE',  ( 4.452621892014641425, 1.942264973081039514, 2.287832656137185339 ) ) ;
#843 = CARTESIAN_POINT ( 'NONE',  ( -4.330127018922191873, 1.942264973081037516, 2.500000000000000888 ) ) ;
#844 = AXIS2_PLACEMENT_3D ( 'NONE', #73, #789, #523 ) ;
#845 = VERTEX_POINT ( 'NONE', #539 ) ;
#846 = DIRECTION ( 'NONE',  ( -0.000000000000000000, -1.000000000000000000, -0.000000000000000000 ) ) ;
#847 = DIRECTION ( 'NONE',  ( 0.000000000000000000, -1.000000000000000000, 0.000000000000000000 ) ) ;
#848 = DIRECTION ( 'NONE',  ( 0.000000000000000000, 0.000000000000000000, 1.000000000000000000 ) ) ;
#849 = ORIENTED_EDGE ( 'NONE', *, *, #591, .T. ) ;
#850 = ADVANCED_FACE ( 'NONE', ( #460 ), #4, .F. ) ;
#851 = CARTESIAN_POINT ( 'NONE',  ( 0.000000000000000000, 3.600000000000000089, 3.000000000000000000 ) ) ;
#852 = EDGE_CURVE ( 'NONE', #921, #178, #1080, .T. ) ;
#853 = CARTESIAN_POINT ( 'NONE',  ( 3.673940397442059868E-16, 3.600000000000000089, -3.000000000000000000 ) ) ;
#854 = CARTESIAN_POINT ( 'NONE',  ( 0.000000000000000000, 2.000000000000000000, 0.000000000000000000 ) ) ;
#855 = VERTEX_POINT ( 'NONE', #1083 ) ;
#856 = DIRECTION ( 'NONE',  ( 0.000000000000000000, -1.000000000000000000, 0.000000000000000000 ) ) ;
#857 = CARTESIAN_POINT ( 'NONE',  ( 5.301268757141563981, 1.768327375047664685, -0.8179331680533005189 ) ) ;
#858 = ADVANCED_FACE ( 'NONE', ( #553 ), #818, .F. ) ;
#859 = AXIS2_PLACEMENT_3D ( 'NONE', #599, #950, #874 ) ;
#860 = DIRECTION ( 'NONE',  ( 0.000000000000000000, 0.000000000000000000, 1.000000000000000000 ) ) ;
#861 = ORIENTED_EDGE ( 'NONE', *, *, #602, .F. ) ;
#862 = CARTESIAN_POINT ( 'NONE',  ( -3.360662616945166548, -1.744341759245274126, -4.179161600353587858 ) ) ;
#863 = CARTESIAN_POINT ( 'NONE',  ( 0.000000000000000000, 2.000000000000000000, -2.500000000000000000 ) ) ;
#864 = EDGE_CURVE ( 'NONE', #309, #798, #22, .T. ) ;
#865 = EDGE_CURVE ( 'NONE', #451, #1122, #1032, .T. ) ;
#866 = DIRECTION ( 'NONE',  ( -0.000000000000000000, -1.000000000000000000, -0.000000000000000000 ) ) ;
#867 = ORIENTED_EDGE ( 'NONE', *, *, #1051, .F. ) ;
#868 = DIRECTION ( 'NONE',  ( 0.000000000000000000, 1.301042606982605074E-16, -1.000000000000000000 ) ) ;
#869 = CIRCLE ( 'NONE', #815, 5.000000000000000888 ) ;
#870 = DIRECTION ( 'NONE',  ( 0.000000000000000000, 0.000000000000000000, 1.000000000000000000 ) ) ;
#871 = CARTESIAN_POINT ( 'NONE',  ( 3.720292241887092732, 1.860606775957268644, -3.556264818047236265 ) ) ;
#872 = DIRECTION ( 'NONE',  ( -0.000000000000000000, 1.000000000000000000, -0.000000000000000000 ) ) ;
#873 = EDGE_LOOP ( 'NONE', ( #3, #1078, #786, #1017 ) ) ;
#874 = DIRECTION ( 'NONE',  ( 0.000000000000000000, 0.000000000000000000, 1.000000000000000000 ) ) ;
#875 = ORIENTED_EDGE ( 'NONE', *, *, #676, .T. ) ;
#876 = CARTESIAN_POINT ( 'NONE',  ( -5.773502691896258199, 1.495682985695839351, -8.854994092709008301E-16 ) ) ;
#877 = DIRECTION ( 'NONE',  ( -0.000000000000000000, 1.000000000000000000, 6.158268339717663953E-17 ) ) ;
#878 = CARTESIAN_POINT ( 'NONE',  ( 0.000000000000000000, 1.942264973081036628, -6.143336129021877221E-17 ) ) ;
#879 = EDGE_CURVE ( 'NONE', #722, #193, #323, .T. ) ;
#880 = CIRCLE ( 'NONE', #532, 2.299999999999999822 ) ;
#881 = VERTEX_POINT ( 'NONE', #920 ) ;
#882 = CARTESIAN_POINT ( 'NONE',  ( -2.886751345948128655, -1.495682985695839795, -5.000000000000000888 ) ) ;
#883 = CARTESIAN_POINT ( 'NONE',  ( 0.000000000000000000, 1.999999999999999112, -6.621025260434595891E-17 ) ) ;
#884 = DIRECTION ( 'NONE',  ( 0.8660254037844384856, 0.000000000000000000, -0.5000000000000004441 ) ) ;
#885 = AXIS2_PLACEMENT_3D ( 'NONE', #939, #234, #47 ) ;
#886 = ORIENTED_EDGE ( 'NONE', *, *, #495, .T. ) ;
#887 = CARTESIAN_POINT ( 'NONE',  ( 0.000000000000000000, 2.115470053837924969, -5.076692763918488200E-17 ) ) ;
#888 = FACE_OUTER_BOUND ( 'NONE', #605, .T. ) ;
#889 = EDGE_CURVE ( 'NONE', #581, #798, #173, .T. ) ;
#890 = DIRECTION ( 'NONE',  ( 0.000000000000000000, -1.227954878067697069E-16, 1.000000000000000000 ) ) ;
#891 = DIRECTION ( 'NONE',  ( 0.000000000000000000, -0.7071067811865490160, -0.7071067811865460184 ) ) ;
#892 = EDGE_LOOP ( 'NONE', ( #96, #702, #825, #530, #217, #449 ) ) ;
#893 = CIRCLE ( 'NONE', #1014, 5.000000000000000888 ) ;
#894 =( LENGTH_UNIT ( ) NAMED_UNIT ( * ) SI_UNIT ( .MILLI., .METRE. ) );
#895 = LINE ( 'NONE', #816, #218 ) ;
#896 = ORIENTED_EDGE ( 'NONE', *, *, #203, .F. ) ;
#897 = CARTESIAN_POINT ( 'NONE',  ( 2.886751345948131320, 2.000000000000000000, 4.999999999999999112 ) ) ;
#898 = ORIENTED_EDGE ( 'NONE', *, *, #8, .F. ) ;
#899 = CARTESIAN_POINT ( 'NONE',  ( -2.886751345948426195, -1.495682985696040745, 4.999999999999998224 ) ) ;
#900 = EDGE_CURVE ( 'NONE', #436, #845, #584, .T. ) ;
#901 = AXIS2_PLACEMENT_3D ( 'NONE', #775, #1054, #256 ) ;
#902 = DIRECTION ( 'NONE',  ( 0.000000000000000000, 0.000000000000000000, 1.000000000000000000 ) ) ;
#903 = EDGE_CURVE ( 'NONE', #313, #547, #77, .T. ) ;
#904 = VECTOR ( 'NONE', #544, 1000.000000000000000 ) ;
#905 = CARTESIAN_POINT ( 'NONE',  ( 6.123233995475319043E-16, -1.942264973081037294, -5.000000000000000888 ) ) ;
#906 = ORIENTED_EDGE ( 'NONE', *, *, #889, .F. ) ;
#907 = DIRECTION ( 'NONE',  ( -0.000000000000000000, -1.000000000000000000, -0.000000000000000000 ) ) ;
#908 = FACE_OUTER_BOUND ( 'NONE', #431, .T. ) ;
#909 = EDGE_CURVE ( 'NONE', #400, #634, #788, .T. ) ;
#910 = CARTESIAN_POINT ( 'NONE',  ( 0.000000000000000000, 2.804536461803596836, 3.500000000000000000 ) ) ;
#911 = ADVANCED_FACE ( 'NONE', ( #679 ), #823, .T. ) ;
#912 = VERTEX_POINT ( 'NONE', #843 ) ;
#913 = LINE ( 'NONE', #1013, #325 ) ;
#914 = EDGE_CURVE ( 'NONE', #1071, #800, #696, .T. ) ;
#915 = DIRECTION ( 'NONE',  ( 0.000000000000000000, 0.000000000000000000, 1.000000000000000000 ) ) ;
#916 = ORIENTED_EDGE ( 'NONE', *, *, #963, .T. ) ;
#917 = EDGE_CURVE ( 'NONE', #502, #587, #287, .T. ) ;
#918 = AXIS2_PLACEMENT_3D ( 'NONE', #1169, #432, #364 ) ;
#919 = TOROIDAL_SURFACE ( 'NONE', #568, 3.149999999999999911, 0.1499999999999999944 ) ;
#920 = CARTESIAN_POINT ( 'NONE',  ( 0.000000000000000000, 4.000000000000000000, 3.200000000000000622 ) ) ;
#921 = VERTEX_POINT ( 'NONE', #1105 ) ;
#922 = CARTESIAN_POINT ( 'NONE',  ( 0.000000000000000000, 4.000000000000000000, 0.000000000000000000 ) ) ;
#923 = B_SPLINE_CURVE_WITH_KNOTS ( 'NONE', 3,
 ( #276, #986, #188, #1146, #340, #697 ),
 .UNSPECIFIED., .F., .F.,
 ( 4, 2, 4 ),
 ( 0.008288484777259044062, 0.009750837594055088153, 0.01121319041085113398 ),
 .UNSPECIFIED. ) ;
#924 = AXIS2_PLACEMENT_3D ( 'NONE', #984, #102, #185 ) ;
#925 = EDGE_LOOP ( 'NONE', ( #17, #989, #658, #1027, #835, #11 ) ) ;
#926 = CARTESIAN_POINT ( 'NONE',  ( -7.511572993947682186E-16, 1.942264973081037294, 4.999999999999998224 ) ) ;
#927 = ORIENTED_EDGE ( 'NONE', *, *, #690, .T. ) ;
#928 = DIRECTION ( 'NONE',  ( 0.000000000000000000, 0.000000000000000000, 1.000000000000000000 ) ) ;
#929 = CARTESIAN_POINT ( 'NONE',  ( -4.330127018922191873, 1.942264973081037516, 2.500000000000000888 ) ) ;
#930 = EDGE_CURVE ( 'NONE', #1122, #634, #23, .T. ) ;
#931 = DIRECTION ( 'NONE',  ( 0.000000000000000000, 0.000000000000000000, 1.000000000000000000 ) ) ;
#932 = AXIS2_PLACEMENT_3D ( 'NONE', #37, #1101, #50 ) ;
#933 = ORIENTED_EDGE ( 'NONE', *, *, #690, .F. ) ;
#934 = CYLINDRICAL_SURFACE ( 'NONE', #537, 4.900000000000000355 ) ;
#935 = VECTOR ( 'NONE', #548, 1000.000000000000114 ) ;
#936 = ADVANCED_FACE ( 'NONE', ( #411 ), #238, .F. ) ;
#937 = CARTESIAN_POINT ( 'NONE',  ( 0.9837791927603857234, -1.899043921062018470, 4.999999999999998224 ) ) ;
#938 = ORIENTED_EDGE ( 'NONE', *, *, #494, .F. ) ;
#939 = CARTESIAN_POINT ( 'NONE',  ( 0.000000000000000000, -1.899999999999998135, 0.000000000000000000 ) ) ;
#940 = CARTESIAN_POINT ( 'NONE',  ( 0.000000000000000000, 2.513572749570449183, 0.000000000000000000 ) ) ;
#941 = CIRCLE ( 'NONE', #241, 3.000000000000000000 ) ;
#942 = CARTESIAN_POINT ( 'NONE',  ( 4.330127018922194537, 1.942264973081036628, -2.500000000000002665 ) ) ;
#943 = FACE_OUTER_BOUND ( 'NONE', #513, .T. ) ;
#944 = ORIENTED_EDGE ( 'NONE', *, *, #303, .F. ) ;
#945 = DIRECTION ( 'NONE',  ( -0.000000000000000000, 1.000000000000000000, -0.000000000000000000 ) ) ;
#946 = CARTESIAN_POINT ( 'NONE',  ( -0.9731522499121875169, -1.900234205767209916, 4.999999999999998224 ) ) ;
#947 = CONICAL_SURFACE ( 'NONE', #1048, 2.600000000000001421, 0.7853981633974460586 ) ;
#948 = CARTESIAN_POINT ( 'NONE',  ( -3.841181488860379467, 1.890860685997211466, 3.346878500200754392 ) ) ;
#949 = VERTEX_POINT ( 'NONE', #304 ) ;
#950 = DIRECTION ( 'NONE',  ( -0.000000000000000000, 1.000000000000000000, -0.000000000000000000 ) ) ;
#951 = ADVANCED_FACE ( 'NONE', ( #943 ), #78, .T. ) ;
#952 = FACE_OUTER_BOUND ( 'NONE', #991, .T. ) ;
#953 = EDGE_CURVE ( 'NONE', #358, #75, #384, .T. ) ;
#954 = CARTESIAN_POINT ( 'NONE',  ( -2.886751345948128655, -1.495682985695839795, -5.000000000000000888 ) ) ;
#955 = EDGE_LOOP ( 'NONE', ( #796, #810, #352, #331, #380, #198 ) ) ;
#956 = CARTESIAN_POINT ( 'NONE',  ( -3.842998808858272497, -1.891276827528623139, -3.343730809630793388 ) ) ;
#957 = ORIENTED_EDGE ( 'NONE', *, *, #201, .T. ) ;
#958 = CARTESIAN_POINT ( 'NONE',  ( 3.721875651820887754, -1.861052340673228889, 3.553522271592697734 ) ) ;
#959 = ADVANCED_FACE ( 'NONE', ( #33 ), #1020, .F. ) ;
#960 = CARTESIAN_POINT ( 'NONE',  ( 0.000000000000000000, -2.000000000000000000, -2.600000000000001421 ) ) ;
#961 = ORIENTED_EDGE ( 'NONE', *, *, #615, .T. ) ;
#962 = CARTESIAN_POINT ( 'NONE',  ( 0.000000000000000000, 2.000000000000000000, 0.000000000000000000 ) ) ;
#963 = EDGE_CURVE ( 'NONE', #1113, #1068, #477, .T. ) ;
#964 = ORIENTED_EDGE ( 'NONE', *, *, #750, .F. ) ;
#965 = CIRCLE ( 'NONE', #111, 2.600000000000001421 ) ;
#966 = FACE_OUTER_BOUND ( 'NONE', #1022, .T. ) ;
#967 = APPLICATION_PROTOCOL_DEFINITION ( 'draft international standard', 'automotive_design', 1998, #804 ) ;
#968 = B_SPLINE_CURVE_WITH_KNOTS ( 'NONE', 3,
 ( #258, #444, #797, #1162 ),
 .UNSPECIFIED., .F., .F.,
 ( 4, 4 ),
 ( 2.380735200829041677E-07, 0.002921158011986712492 ),
 .UNSPECIFIED. ) ;
#969 = EDGE_CURVE ( 'NONE', #587, #502, #644, .T. ) ;
#970 = DIRECTION ( 'NONE',  ( 0.000000000000000000, -1.000000000000000000, -1.231653667943532791E-16 ) ) ;
#971 = ORIENTED_EDGE ( 'NONE', *, *, #852, .F. ) ;
#972 = FACE_OUTER_BOUND ( 'NONE', #184, .T. ) ;
#973 = ORIENTED_EDGE ( 'NONE', *, *, #909, .T. ) ;
#974 = CARTESIAN_POINT ( 'NONE',  ( 4.086880414895047942, -1.931981051202862565, 2.921315476943606271 ) ) ;
#975 = AXIS2_PLACEMENT_3D ( 'NONE', #854, #834, #931 ) ;
#976 = CARTESIAN_POINT ( 'NONE',  ( 0.000000000000000000, 2.513572749570449183, 2.299999999999999822 ) ) ;
#977 = CIRCLE ( 'NONE', #438, 2.299999999999999822 ) ;
#978 = AXIS2_PLACEMENT_3D ( 'NONE', #536, #423, #450 ) ;
#979 = ORIENTED_EDGE ( 'NONE', *, *, #8, .T. ) ;
#980 = CARTESIAN_POINT ( 'NONE',  ( 4.286263797015736595E-16, 2.804536461803596836, -3.500000000000000000 ) ) ;
#981 = EDGE_CURVE ( 'NONE', #845, #1161, #784, .T. ) ;
#982 = DIRECTION ( 'NONE',  ( 0.000000000000000000, 0.000000000000000000, 1.000000000000000000 ) ) ;
#983 = CIRCLE ( 'NONE', #87, 4.900000000000000355 ) ;
#984 = CARTESIAN_POINT ( 'NONE',  ( 0.000000000000000000, 3.850000000000000089, 0.000000000000000000 ) ) ;
#985 = VERTEX_POINT ( 'NONE', #441 ) ;
#986 = CARTESIAN_POINT ( 'NONE',  ( 0.4888467273981875194, 1.942264973081037516, 4.999999999999997335 ) ) ;
#987 = B_SPLINE_CURVE_WITH_KNOTS ( 'NONE', 3,
 ( #613, #1074, #787, #1065, #783, #792 ),
 .UNSPECIFIED., .F., .F.,
 ( 4, 2, 4 ),
 ( 0.01387485171215593026, 0.01533724711386379863, 0.01679964251557166874 ),
 .UNSPECIFIED. ) ;
#988 = DIRECTION ( 'NONE',  ( -0.000000000000000000, 1.000000000000000000, -0.000000000000000000 ) ) ;
#989 = ORIENTED_EDGE ( 'NONE', *, *, #62, .F. ) ;
#990 = LINE ( 'NONE', #386, #637 ) ;
#991 = EDGE_LOOP ( 'NONE', ( #298, #700, #251, #1111 ) ) ;
#992 = AXIS2_PLACEMENT_3D ( 'NONE', #761, #132, #321 ) ;
#993 = CIRCLE ( 'NONE', #543, 4.819615242270664623 ) ;
#994 = EDGE_CURVE ( 'NONE', #798, #547, #294, .T. ) ;
#995 = ADVANCED_FACE ( 'NONE', ( #348 ), #261, .F. ) ;
#996 = CARTESIAN_POINT ( 'NONE',  ( 0.000000000000000000, 0.000000000000000000, 0.000000000000000000 ) ) ;
#997 = VERTEX_POINT ( 'NONE', #794 ) ;
#998 = DIRECTION ( 'NONE',  ( 0.000000000000000000, 1.000000000000000000, 0.000000000000000000 ) ) ;
#999 = ORIENTED_EDGE ( 'NONE', *, *, #203, .T. ) ;
#1000 =( NAMED_UNIT ( * ) SI_UNIT ( $, .STERADIAN. ) SOLID_ANGLE_UNIT ( ) );
#1001 = AXIS2_PLACEMENT_3D ( 'NONE', #878, #970, #534 ) ;
#1002 = CARTESIAN_POINT ( 'NONE',  ( 6.000769315822031726E-16, 2.299999999999999822, -4.900000000000000355 ) ) ;
#1003 =( GEOMETRIC_REPRESENTATION_CONTEXT ( 3 ) GLOBAL_UNCERTAINTY_ASSIGNED_CONTEXT ( ( #207 ) ) GLOBAL_UNIT_ASSIGNED_CONTEXT ( ( #361, #273, #1 ) ) REPRESENTATION_CONTEXT ( 'NONE', 'WORKASPACE' ) );
#1004 = ORIENTED_EDGE ( 'NONE', *, *, #20, .F. ) ;
#1005 = DIRECTION ( 'NONE',  ( 0.000000000000000000, 8.850629979473506011E-17, -1.000000000000000000 ) ) ;
#1006 = VERTEX_POINT ( 'NONE', #1043 ) ;
#1007 = EDGE_CURVE ( 'NONE', #547, #912, #1109, .T. ) ;
#1008 = DIRECTION ( 'NONE',  ( -0.000000000000000000, 1.000000000000000000, -0.000000000000000000 ) ) ;
#1009 = EDGE_CURVE ( 'NONE', #226, #587, #704, .T. ) ;
#1010 = EDGE_LOOP ( 'NONE', ( #1073, #187, #598, #326 ) ) ;
#1011 = DIRECTION ( 'NONE',  ( -0.000000000000000000, 1.000000000000000000, -0.000000000000000000 ) ) ;
#1012 = EDGE_LOOP ( 'NONE', ( #640, #624, #518 ) ) ;
#1013 = CARTESIAN_POINT ( 'NONE',  ( 0.000000000000000000, 2.804536461803596836, 4.900000000000000355 ) ) ;
#1014 = AXIS2_PLACEMENT_3D ( 'NONE', #1132, #58, #1140 ) ;
#1015 = PRODUCT_DEFINITION_CONTEXT ( 'detailed design', #237, 'design' ) ;
#1016 = DIRECTION ( 'NONE',  ( 1.000000000000000000, 0.000000000000000000, 1.224646799147353207E-16 ) ) ;
#1017 = ORIENTED_EDGE ( 'NONE', *, *, #1009, .F. ) ;
#1018 = DIRECTION ( 'NONE',  ( 0.000000000000000000, 0.000000000000000000, 1.000000000000000000 ) ) ;
#1019 = AXIS2_PLACEMENT_3D ( 'NONE', #714, #1069, #270 ) ;
#1020 = CYLINDRICAL_SURFACE ( 'NONE', #623, 3.000000000000000000 ) ;
#1021 = AXIS2_PLACEMENT_3D ( 'NONE', #558, #453, #374 ) ;
#1022 = EDGE_LOOP ( 'NONE', ( #849, #1148, #638 ) ) ;
#1023 = CARTESIAN_POINT ( 'NONE',  ( 0.000000000000000000, 1.999999999999999112, -6.621025260434595891E-17 ) ) ;
#1024 = EDGE_CURVE ( 'NONE', #912, #313, #802, .T. ) ;
#1025 = CARTESIAN_POINT ( 'NONE',  ( -2.886751345948426195, -1.495682985696040745, 4.999999999999998224 ) ) ;
#1026 = CARTESIAN_POINT ( 'NONE',  ( -2.615566938873417267E-26, -1.942264973081039958, 4.999999999999998224 ) ) ;
#1027 = ORIENTED_EDGE ( 'NONE', *, *, #208, .F. ) ;
#1028 = EDGE_CURVE ( 'NONE', #1161, #680, #608, .T. ) ;
#1029 = CARTESIAN_POINT ( 'NONE',  ( 0.000000000000000000, 2.000000000000000000, 0.000000000000000000 ) ) ;
#1030 = EDGE_CURVE ( 'NONE', #193, #722, #255, .T. ) ;
#1031 = EDGE_CURVE ( 'NONE', #985, #765, #604, .T. ) ;
#1032 = LINE ( 'NONE', #661, #224 ) ;
#1033 = AXIS2_PLACEMENT_3D ( 'NONE', #757, #586, #488 ) ;
#1034 = ORIENTED_EDGE ( 'NONE', *, *, #1030, .F. ) ;
#1035 = CARTESIAN_POINT ( 'NONE',  ( 0.000000000000000000, -2.000000000000000000, 0.000000000000000000 ) ) ;
#1036 = FACE_OUTER_BOUND ( 'NONE', #464, .T. ) ;
#1037 = AXIS2_PLACEMENT_3D ( 'NONE', #383, #826, #741 ) ;
#1038 = DIRECTION ( 'NONE',  ( 0.000000000000000000, -1.000000000000000000, -1.231653667943532791E-16 ) ) ;
#1039 = ORIENTED_EDGE ( 'NONE', *, *, #350, .F. ) ;
#1040 = CARTESIAN_POINT ( 'NONE',  ( 0.000000000000000000, -1.899999999999998135, 0.000000000000000000 ) ) ;
#1041 = FACE_OUTER_BOUND ( 'NONE', #51, .T. ) ;
#1042 = B_SPLINE_CURVE_WITH_KNOTS ( 'NONE', 3,
 ( #168, #1056, #531, #344, #90, #956, #525, #862, #437, #882 ),
 .UNSPECIFIED., .F., .F.,
 ( 4, 2, 2, 2, 4 ),
 ( 2.380735200831381076E-07, 0.002915699217586110049, 0.003644564503602615649, 0.004373429789619119948, 0.005831160361652130281 ),
 .UNSPECIFIED. ) ;
#1043 = CARTESIAN_POINT ( 'NONE',  ( 0.000000000000000000, 4.000000000000000000, 3.149999999999999911 ) ) ;
#1044 = EDGE_CURVE ( 'NONE', #649, #412, #1067, .T. ) ;
#1045 = VERTEX_POINT ( 'NONE', #954 ) ;
#1046 = DIRECTION ( 'NONE',  ( 0.000000000000000000, 0.000000000000000000, 1.000000000000000000 ) ) ;
#1047 = DIRECTION ( 'NONE',  ( 1.000000000000000000, -0.000000000000000000, 1.224646799147353207E-16 ) ) ;
#1048 = AXIS2_PLACEMENT_3D ( 'NONE', #398, #778, #675 ) ;
#1049 = DIRECTION ( 'NONE',  ( -0.5000000000000003331, 0.000000000000000000, -0.8660254037844383745 ) ) ;
#1050 = EDGE_LOOP ( 'NONE', ( #1034, #688 ) ) ;
#1051 = EDGE_CURVE ( 'NONE', #358, #103, #59, .T. ) ;
#1052 = DIRECTION ( 'NONE',  ( -0.000000000000000000, 1.000000000000000000, -0.000000000000000000 ) ) ;
#1053 = FACE_OUTER_BOUND ( 'NONE', #143, .T. ) ;
#1054 = DIRECTION ( 'NONE',  ( 1.000000000000000000, 0.000000000000000000, 1.224646799147353207E-16 ) ) ;
#1055 = ORIENTED_EDGE ( 'NONE', *, *, #1024, .F. ) ;
#1056 = CARTESIAN_POINT ( 'NONE',  ( -5.302151296893804044, -1.767817840484139369, -0.8164045643627159121 ) ) ;
#1057 = AXIS2_PLACEMENT_3D ( 'NONE', #691, #106, #890 ) ;
#1058 = EDGE_CURVE ( 'NONE', #1006, #400, #758, .T. ) ;
#1059 = CARTESIAN_POINT ( 'NONE',  ( 0.000000000000000000, -2.000000000000000000, 5.062400143603896212E-16 ) ) ;
#1060 = VECTOR ( 'NONE', #195, 1000.000000000000000 ) ;
#1061 = APPLICATION_PROTOCOL_DEFINITION ( 'draft international standard', 'automotive_design', 1998, #237 ) ;
#1062 = CARTESIAN_POINT ( 'NONE',  ( -4.330127018922191873, 1.942264973081037516, 2.500000000000000888 ) ) ;
#1063 = ORIENTED_EDGE ( 'NONE', *, *, #62, .T. ) ;
#1064 = DIRECTION ( 'NONE',  ( -0.000000000000000000, -1.000000000000000000, -0.000000000000000000 ) ) ;
#1065 = CARTESIAN_POINT ( 'NONE',  ( 0.9837791927603852793, 1.899043921062016027, -5.000000000000000000 ) ) ;
#1066 = ADVANCED_FACE ( 'NONE', ( #509, #1147 ), #65, .T. ) ;
#1067 = LINE ( 'NONE', #268, #588 ) ;
#1068 = VERTEX_POINT ( 'NONE', #960 ) ;
#1069 = DIRECTION ( 'NONE',  ( -0.000000000000000000, 1.000000000000000000, 1.231653667943532791E-16 ) ) ;
#1070 = CARTESIAN_POINT ( 'NONE',  ( 2.886751345948131320, -1.495682985695841349, 4.999999999999999112 ) ) ;
#1071 = VERTEX_POINT ( 'NONE', #1141 ) ;
#1072 = CARTESIAN_POINT ( 'NONE',  ( -2.615566938873417267E-26, -1.942264973081039958, 4.999999999999998224 ) ) ;
#1073 = ORIENTED_EDGE ( 'NONE', *, *, #180, .F. ) ;
#1074 = CARTESIAN_POINT ( 'NONE',  ( 2.419818217056160847, 1.630474969525502749, -5.000000000000000000 ) ) ;
#1075 = LINE ( 'NONE', #1087, #904 ) ;
#1076 = ORIENTED_EDGE ( 'NONE', *, *, #483, .T. ) ;
#1077 = CARTESIAN_POINT ( 'NONE',  ( 5.299591420899219862, -1.744341759245273238, -0.8208383996464160282 ) ) ;
#1078 = ORIENTED_EDGE ( 'NONE', *, *, #133, .T. ) ;
#1079 = FILL_AREA_STYLE ('',( #97 ) ) ;
#1080 = CIRCLE ( 'NONE', #576, 2.500000000000000000 ) ;
#1081 = PLANE ( 'NONE',  #200 ) ;
#1082 = ORIENTED_EDGE ( 'NONE', *, *, #865, .T. ) ;
#1083 = CARTESIAN_POINT ( 'NONE',  ( -2.886751345948426195, -1.495682985696040745, 4.999999999999998224 ) ) ;
#1084 = ORIENTED_EDGE ( 'NONE', *, *, #852, .T. ) ;
#1085 = CARTESIAN_POINT ( 'NONE',  ( 6.123233995475319043E-16, -1.942264973081037294, -5.000000000000000888 ) ) ;
#1086 = AXIS2_PLACEMENT_3D ( 'NONE', #501, #580, #848 ) ;
#1087 = CARTESIAN_POINT ( 'NONE',  ( -2.886751345948127323, 2.000000000000000000, 4.999999999999998224 ) ) ;
#1088 = EDGE_LOOP ( 'NONE', ( #269, #263, #896, #754, #1063 ) ) ;
#1089 = COLOUR_RGB ( '',0.7921568627450980005, 0.8196078431372548767, 0.9333333333333333481 ) ;
#1090 = CARTESIAN_POINT ( 'NONE',  ( 2.419818217056163512, -1.630474969525503637, -5.000000000000000888 ) ) ;
#1091 = ORIENTED_EDGE ( 'NONE', *, *, #163, .T. ) ;
#1092 = AXIS2_PLACEMENT_3D ( 'NONE', #244, #1153, #250 ) ;
#1093 = ADVANCED_FACE ( 'NONE', ( #336 ), #647, .T. ) ;
#1094 = ORIENTED_EDGE ( 'NONE', *, *, #45, .T. ) ;
#1095 = LINE ( 'NONE', #910, #616 ) ;
#1096 = CIRCLE ( 'NONE', #124, 3.149999999999999911 ) ;
#1097 = EDGE_LOOP ( 'NONE', ( #171, #561 ) ) ;
#1098 = CARTESIAN_POINT ( 'NONE',  ( -2.886751345948128655, -1.495682985695839795, -5.000000000000000888 ) ) ;
#1099 = ADVANCED_FACE ( 'NONE', ( #721 ), #199, .T. ) ;
#1100 = ADVANCED_FACE ( 'NONE', ( #89 ), #463, .F. ) ;
#1101 = DIRECTION ( 'NONE',  ( -0.000000000000000000, 1.000000000000000000, 1.231653667943532791E-16 ) ) ;
#1102 = ORIENTED_EDGE ( 'NONE', *, *, #900, .T. ) ;
#1103 = PLANE ( 'NONE',  #385 ) ;
#1104 = CARTESIAN_POINT ( 'NONE',  ( 5.537975084925941260, 1.631664912982111471, 0.4079457818577079120 ) ) ;
#1105 = CARTESIAN_POINT ( 'NONE',  ( 3.061616997868383141E-16, 2.000000000000000000, 2.500000000000000000 ) ) ;
#1106 = ORIENTED_EDGE ( 'NONE', *, *, #1031, .T. ) ;
#1107 = DIRECTION ( 'NONE',  ( 0.000000000000000000, 0.000000000000000000, 1.000000000000000000 ) ) ;
#1108 = DIRECTION ( 'NONE',  ( -0.000000000000000000, -1.000000000000000000, -0.000000000000000000 ) ) ;
#1109 = CIRCLE ( 'NONE', #1001, 5.000000000000000888 ) ;
#1110 = B_SPLINE_CURVE_WITH_KNOTS ( 'NONE', 3,
 ( #905, #197, #806, #107, #1090, #25 ),
 .UNSPECIFIED., .F., .F.,
 ( 4, 2, 4 ),
 ( 0.008288484777259051001, 0.009750837594055093357, 0.01121319041085113571 ),
 .UNSPECIFIED. ) ;
#1111 = ORIENTED_EDGE ( 'NONE', *, *, #738, .F. ) ;
#1112 = DIRECTION ( 'NONE',  ( -0.000000000000000000, 1.000000000000000000, -0.000000000000000000 ) ) ;
#1113 = VERTEX_POINT ( 'NONE', #642 ) ;
#1114 = EDGE_CURVE ( 'NONE', #454, #468, #100, .T. ) ;
#1115 = DIRECTION ( 'NONE',  ( 0.000000000000000000, 1.000000000000000000, 0.000000000000000000 ) ) ;
#1116 = EDGE_CURVE ( 'NONE', #313, #855, #1075, .T. ) ;
#1117 = FACE_OUTER_BOUND ( 'NONE', #873, .T. ) ;
#1118 = AXIS2_PLACEMENT_3D ( 'NONE', #242, #503, #1129 ) ;
#1119 = AXIS2_PLACEMENT_3D ( 'NONE', #693, #1052, #252 ) ;
#1120 = CARTESIAN_POINT ( 'NONE',  ( -2.618032129202232929E-26, 1.942264973081037294, -5.000000000000000888 ) ) ;
#1121 = CARTESIAN_POINT ( 'NONE',  ( -2.886751345948127323, 1.495682985695840017, 4.999999999999998224 ) ) ;
#1122 = VERTEX_POINT ( 'NONE', #93 ) ;
#1123 = DIRECTION ( 'NONE',  ( 0.000000000000000000, 0.000000000000000000, 1.000000000000000000 ) ) ;
#1124 = FACE_OUTER_BOUND ( 'NONE', #34, .T. ) ;
#1125 = CARTESIAN_POINT ( 'NONE',  ( -2.416624968674202290, 1.631396780931970714, 4.999999999999999112 ) ) ;
#1126 = AXIS2_PLACEMENT_3D ( 'NONE', #672, #1038, #123 ) ;
#1127 = ORIENTED_EDGE ( 'NONE', *, *, #186, .F. ) ;
#1128 = CARTESIAN_POINT ( 'NONE',  ( 0.000000000000000000, -2.000000000000000000, 5.062400143603896212E-16 ) ) ;
#1129 = DIRECTION ( 'NONE',  ( 0.000000000000000000, 0.000000000000000000, 1.000000000000000000 ) ) ;
#1130 = AXIS2_PLACEMENT_3D ( 'NONE', #91, #620, #607 ) ;
#1131 = EDGE_CURVE ( 'NONE', #502, #505, #895, .T. ) ;
#1132 = CARTESIAN_POINT ( 'NONE',  ( 0.000000000000000000, 1.942264973081036628, -6.143336129021877221E-17 ) ) ;
#1133 = CARTESIAN_POINT ( 'NONE',  ( 0.000000000000000000, 3.600000000000000089, 0.000000000000000000 ) ) ;
#1134 = ORIENTED_EDGE ( 'NONE', *, *, #1030, .T. ) ;
#1135 = CARTESIAN_POINT ( 'NONE',  ( 0.000000000000000000, -0.05000000000000201505, 8.277499074759358422 ) ) ;
#1136 = PRODUCT_DEFINITION_FORMATION_WITH_SPECIFIED_SOURCE ( 'å¯', '', #442, .NOT_KNOWN. ) ;
#1137 = CARTESIAN_POINT ( 'NONE',  ( 0.000000000000000000, 1.942264973081036628, -6.143336129021877221E-17 ) ) ;
#1138 =( GEOMETRIC_REPRESENTATION_CONTEXT ( 3 ) GLOBAL_UNCERTAINTY_ASSIGNED_CONTEXT ( ( #15 ) ) GLOBAL_UNIT_ASSIGNED_CONTEXT ( ( #894, #813, #1000 ) ) REPRESENTATION_CONTEXT ( 'NONE', 'WORKASPACE' ) );
#1139 = ADVANCED_FACE ( 'NONE', ( #14, #908 ), #809, .T. ) ;
#1140 = DIRECTION ( 'NONE',  ( 0.000000000000000000, 1.301042606982605074E-16, -1.000000000000000000 ) ) ;
#1141 = CARTESIAN_POINT ( 'NONE',  ( 2.886751345948131320, -1.495682985695841349, 4.999999999999999112 ) ) ;
#1142 = ADVANCED_FACE ( 'NONE', ( #732 ), #351, .T. ) ;
#1143 = ORIENTED_EDGE ( 'NONE', *, *, #337, .T. ) ;
#1144 = DIRECTION ( 'NONE',  ( 0.000000000000000000, -1.000000000000000000, 0.000000000000000000 ) ) ;
#1145 = ORIENTED_EDGE ( 'NONE', *, *, #208, .T. ) ;
#1146 = CARTESIAN_POINT ( 'NONE',  ( 1.947012450778979886, 1.742634902659927265, 4.999999999999997335 ) ) ;
#1147 = FACE_BOUND ( 'NONE', #535, .T. ) ;
#1148 = ORIENTED_EDGE ( 'NONE', *, *, #663, .T. ) ;
#1149 = DIRECTION ( 'NONE',  ( -0.000000000000000000, 1.000000000000000000, 6.158268339717663953E-17 ) ) ;
#1150 = ORIENTED_EDGE ( 'NONE', *, *, #254, .F. ) ;
#1151 = FACE_OUTER_BOUND ( 'NONE', #740, .T. ) ;
#1152 = CARTESIAN_POINT ( 'NONE',  ( 2.886751345948129543, 1.495682985695839351, -5.000000000000000888 ) ) ;
#1153 = DIRECTION ( 'NONE',  ( 0.000000000000000000, -1.000000000000000000, -1.231653667943532791E-16 ) ) ;
#1154 = ORIENTED_EDGE ( 'NONE', *, *, #426, .T. ) ;
#1155 = DIRECTION ( 'NONE',  ( 0.000000000000000000, -6.158268339717663953E-17, 1.000000000000000000 ) ) ;
#1156 = AXIS2_PLACEMENT_3D ( 'NONE', #706, #884, #1049 ) ;
#1157 = ADVANCED_FACE ( 'NONE', ( #291, #183 ), #1081, .T. ) ;
#1158 = CARTESIAN_POINT ( 'NONE',  ( 0.000000000000000000, 1.999999999999999112, -6.621025260434595891E-17 ) ) ;
#1159 = CARTESIAN_POINT ( 'NONE',  ( 4.207632145829749426, 1.942264973081039958, -2.712167343862818658 ) ) ;
#1160 = DIRECTION ( 'NONE',  ( -0.000000000000000000, 1.000000000000000000, -0.000000000000000000 ) ) ;
#1161 = VERTEX_POINT ( 'NONE', #1002 ) ;
#1162 = CARTESIAN_POINT ( 'NONE',  ( -4.330127018922193649, 1.942264973081037516, -2.500000000000000444 ) ) ;
#1163 = AXIS2_PLACEMENT_3D ( 'NONE', #841, #1047, #403 ) ;
#1164 = EDGE_LOOP ( 'NONE', ( #147, #196, #713, #283 ) ) ;
#1165 = CARTESIAN_POINT ( 'NONE',  ( -4.939961795957295898, 1.860606775957269088, -1.443735181952766844 ) ) ;
#1166 = ORIENTED_EDGE ( 'NONE', *, *, #254, .T. ) ;
#1167 = DIRECTION ( 'NONE',  ( -1.000000000000000000, 0.000000000000000000, 0.000000000000000000 ) ) ;
#1168 = EDGE_LOOP ( 'NONE', ( #1127, #471, #446, #631, #906, #1004 ) ) ;
#1169 = CARTESIAN_POINT ( 'NONE',  ( 0.000000000000000000, 2.804536461803596836, 0.000000000000000000 ) ) ;
ENDSEC;
END-ISO-10303-21;
